<svg xmlns="http://www.w3.org/2000/svg" xmlns:xlink="http://www.w3.org/1999/xlink" version="1.1" width="420.225pt" height="184.195pt" viewBox="0 0 420.225 184.195">
<defs>
<path id="font_40_2" d="M.5359955 .4011383C.5 .3911438 .48199464 .35714723 .48199464 .33215333 .48199464 .31015016 .49899293 .28614808 .5319977 .28614808 .5669861 .28614808 .60398867 .31515504 .60398867 .364151 .60398867 .41714479 .5509949 .45214845 .48999024 .45214845 .43299867 .45214845 .3959961 .4091339 .3829956 .3911438 .35798646 .433136 .3019867 .45214845 .24499512 .45214845 .11898804 .45214845 .050994874 .32914735 .050994874 .29615785 .050994874 .28215028 .06599426 .28215028 .07499695 .28215028 .08699036 .28215028 .09399414 .28215028 .09799194 .29515077 .1269989 .38613893 .19898987 .4161377 .23999024 .4161377 .27799989 .4161377 .29599 .39814759 .29599 .3661499 .29599 .3471527 .28199769 .29216004 .272995 .2561493L.23899842 .11917114C.22399903 .058181764 .18798828 .028182984 .1539917 .028182984 .14898682 .028182984 .12599182 .028182984 .10598755 .043182374 .14199829 .05317688 .1599884 .08717346 .1599884 .11216736 .1599884 .13417053 .14299011 .1581726 .10998535 .1581726 .07499695 .1581726 .037994386 .12916565 .037994386 .08016968 .037994386 .027175904 .09098816-.0078125 .1519928-.0078125 .20899964-.0078125 .24598694 .035186769 .25898744 .05317688 .28399659 .011184692 .33999635-.0078125 .39698792-.0078125 .522995-.0078125 .59098818 .11517334 .59098818 .14816284 .59098818 .16217041 .57598879 .16217041 .5669861 .16217041 .5549927 .16217041 .5479889 .16217041 .5439911 .14916992 .5149994 .058181764 .44299317 .028182984 .4019928 .028182984 .3639984 .028182984 .34599305 .046173097 .34599305 .07817078 .34599305 .09916687 .35899354 .15216065 .36799623 .18916321 .375 .21516419 .397995 .30915834 .40299989 .32514955 .41799928 .3851471 .45298768 .4161377 .48799134 .4161377 .49299623 .4161377 .5159912 .4161377 .5359955 .4011383Z"/>
<path id="font_41_1" d="M.3789978 .62413027C.3789978 .6582031 .37298585 .6582031 .33299256 .6582031 .27198792 .61006167 .19198609 .5939789 .11399841 .5939789H.09199524V.5419922H.11399841C.13999939 .5419922 .19400025 .5449829 .2519989 .5619812V.051986696H.101989749V0C.13798523 .0029907227 .269989 .0029907227 .31498719 .0029907227 .3600006 .0029907227 .48999024 .0029907227 .5269928 0V.051986696H.3789978V.62413027Z"/>
<path id="font_42_30" d="M.026992798 .16796875H.2899933V.07296753C.2899933 .031967164 .2619934 .029968262 .19499207 .029968262V.0009765625H.45599366V.029968262C.44400025 .029968262 .43199159 .02897644 .42099 .02897644 .3880005 .02897644 .36099244 .033966066 .36099244 .07296753V.16796875H.46099855V.19696045H.36099244V.66278079C.36099244 .67178347 .35598756 .67578127 .34799195 .67578127 .32699586 .67578127 .2889862 .60279849 .2659912 .56681826 .19400025 .4548645 .11999512 .3439026 .04899597 .23194885L.035995485 .21195984C.02999878 .20295716 .025985718 .19596863 .025985718 .18496704 .025985718 .17895508 .026992798 .17295838 .026992798 .16796875M.051986696 .19696045 .2939911 .57281497V.19696045H.051986696Z"/>
<path id="font_42_44" d="M.12799073 .09667969C.10699463 .092681888 .08699036 .07473755 .08699036 .049819948 .08699036 .023895264 .10899353 .0009765625 .1349945 .0009765625 .16099549 .0009765625 .18399048 .020904541 .18399048 .048812868 .18399048 .07472229 .1619873 .09765625 .13598633 .09765625 .1329956 .09767151 .1309967 .09667969 .12799073 .09667969Z"/>
<path id="font_42_29" d="M.07699585 .124435428C.08299255 .1234436 .08799744 .12243652 .09399414 .12243652 .11999512 .12243652 .13899231 .14143372 .13899231 .16743469 .13899231 .19242859 .11898804 .21142578 .09498596 .21142578 .07199097 .21142578 .049987794 .19541931 .04899597 .17042542V.16442871C.04899597 .06845093 .125-.01953125 .22698975-.01953125 .34700013-.01953125 .43899537 .08544922 .43899537 .20542908 .43899537 .30540467 .37298585 .41337586 .2659912 .42037965H.2559967C.21199036 .42037965 .15098572 .40338136 .12799073 .36639405L.1269989 .57377627C.1559906 .5647888 .18598938 .55978396 .21499634 .55978396 .27999879 .55978396 .34199525 .58477786 .3909912 .6378174 .394989 .64385989 .40098573 .64889529 .40098573 .6559601V.65797427C.3999939 .66300967 .3959961 .66503909 .3919983 .66503909 .3769989 .66503909 .35499574 .6509247 .33898927 .645874 .31098939 .6378174 .2809906 .63378909 .2519989 .63378909 .20698548 .63378909 .16899109 .64486697 .12599182 .6589813 .12098694 .6609955 .115997318 .6640167 .11099243 .66503909H.10899353C.10398865 .66503909 .100997928 .6609955 .099990848 .6559601V.33839417C.099990848 .33039857 .101989749 .32240296 .11199951 .32240296 .125 .32240296 .1309967 .34140016 .13899231 .34939576 .16799927 .38139344 .20899964 .40039063 .2519989 .40039063H.2579956C.34298707 .39639283 .35798646 .2834015 .35798646 .20942688 .35798646 .1404419 .35099793 .053451539 .2749939 .018463135 .2579956 .010467529 .24099732 .007461548 .22399903 .007461548 .1579895 .007461548 .09298706 .060455324 .07699585 .124435428Z"/>
<path id="font_42_51" d="M.101989749 .575058C.1269989 .61802676 .18299866 .64201357 .23399353 .64201357 .29299928 .64201357 .33599855 .6040344 .33599855 .5260925 .33599855 .46614076 .31098939 .38719178 .24798584 .36820985 .22898865 .36120606 .20599365 .36621095 .18798828 .36021424H.18399048C.1749878 .36021424 .16299439 .36021424 .16299439 .35021974 .16299439 .34121705 .16999817 .33921815 .1789856 .33921815H.18998719C.20199585 .33921815 .21499634 .34022523 .22698975 .34022523 .32099916 .34022523 .35398866 .25628663 .35398866 .18234253 .35398866 .118377689 .33898927 .007461548 .23899842 .007461548 .1749878 .007461548 .114990238 .035446168 .07899475 .09539795H.08799744C.11898804 .09539795 .14099121 .11437988 .14099121 .14535523 .14099121 .17533875 .117996219 .19432068 .08799744 .19432068H.083999637C.057998659 .19132996 .040985109 .16934204 .040985109 .1443634 .040985109 .04043579 .14399719-.01953125 .23899842-.01953125 .34700013-.01953125 .44699098 .060424806 .44699098 .17333985 .44699098 .26127626 .36799623 .34521485 .2769928 .35221864 .3619995 .38519288 .41999818 .44314576 .41999818 .53009036 .41999818 .62301638 .31498719 .6660156 .23899842 .6660156 .1639862 .6660156 .067993167 .62402346 .067993167 .53408816 .067993167 .5121002 .07899475 .48912049 .10699463 .4841156H.11399841C.13999939 .4841156 .1599884 .5041046 .1599884 .53009036 .1599884 .55506899 .14199829 .5760498 .11299133 .5760498 .10899353 .5760498 .10598755 .5760498 .101989749 .575058Z"/>
<path id="font_41_2" d="M.5509949 .2280426H.49499513C.4869995 .16200257 .47399903 .14199829 .46798707 .13899231 .45700074 .1329956 .37998963 .1329956 .36299134 .1329956H.22499085C.35899354 .23805237 .41299439 .2680664 .45599366 .30108644 .526001 .35612489 .5509949 .40615846 .5509949 .46316529 .5509949 .58117678 .44198609 .6582031 .2899933 .6582031 .1619873 .6582031 .06098938 .6011963 .06098938 .50717166 .06098938 .4481659 .10899353 .4291687 .13699341 .4291687 .17199707 .4291687 .21398926 .4541626 .21398926 .50616458 .21398926 .5531616 .17999268 .5721588 .16699219 .5771637 .19499207 .5981903 .23498535 .6062012 .2659912 .6062012 .35598756 .6062012 .4059906 .5391693 .4059906 .4621582 .4059906 .38113404 .35299684 .31410218 .2939911 .25906373L.07299805 .052993776C.06199646 .041992189 .06098938 .040985109 .06098938 .020996094V0H.5179901L.5509949 .2280426Z"/>
<path id="font_42_40" d="M.09098816 .602005V.57299807C.13598633 .57299807 .17399597 .58000186 .21798706 .598999V.07397461C.21798706 .034973146 .1789856 .02897644 .13999939 .02897644 .12399292 .02897644 .10899353 .029968262 .09599304 .029968262V.0009765625H.40899659V.029968262C.39698792 .029968262 .3809967 .02897644 .3659973 .02897644 .31599427 .02897644 .2869873 .033966066 .2869873 .07696533V.651001C.2869873 .65701296 .2849884 .6660156 .2749939 .6660156 .26098634 .6660156 .24899292 .6470032 .23599243 .6399994 .19299317 .6110077 .14199829 .602005 .09098816 .602005Z"/>
<path id="font_41_3" d="M.28399659 .32714845C.3999939 .32714845 .40098573 .23034668 .40098573 .18035889 .40098573 .13534546 .40098573 .033325197 .28799439 .033325197 .2669983 .033325197 .20999146 .036315919 .1599884 .068359378 .1769867 .0753479 .21299744 .09635925 .21299744 .14535523 .21299744 .19335938 .1789856 .22634888 .13198853 .22634888 .08799744 .22634888 .050994874 .1963501 .050994874 .14434815 .050994874 .047332765 .15499878-.013671875 .29299928-.013671875 .4889984-.013671875 .5609894 .09234619 .5609894 .1793518 .5609894 .26127626 .49798585 .32914735 .3899994 .35313417 .4169922 .36413575 .5269928 .40715028 .5269928 .51615908 .5269928 .59617617 .44499208 .6582031 .29599 .6582031 .1659851 .6582031 .084991458 .58917239 .084991458 .50717166 .084991458 .45115663 .1289978 .4311676 .15899658 .4311676 .19898987 .4311676 .23298645 .45916749 .23298645 .5051575 .23298645 .52716067 .22499085 .5651703 .1769867 .5771637 .22099304 .6151886 .2809906 .6151886 .2899933 .6151886 .3829956 .6151886 .3829956 .5491638 .3829956 .51916506 .3829956 .4471588 .34899903 .41015626 .34599305 .40615846 .31698609 .37513734 .29899598 .3741455 .24499512 .37113954 .21398926 .36914063 .20399475 .36813355 .20399475 .34814454 .20399475 .32714845 .21699524 .32714845 .23498535 .32714845H.28399659Z"/>
<path id="font_42_48" d="M.12399292 .32426454H.12298584C.12298584 .42121888 .1269989 .5311127 .20399475 .6020508 .23098755 .62802127 .2659912 .64201357 .3019867 .64201357 .33399964 .64201357 .37199403 .63101199 .3899994 .6010437 .3869934 .6020508 .38398744 .6020508 .3809967 .6020508 .35699464 .6020508 .33898927 .58406069 .33898927 .5600891 .33898927 .5371094 .35598756 .51812747 .37998963 .51812747 .4039917 .51812747 .42399598 .5351105 .42399598 .56507876 .42399598 .63401797 .35798646 .6660156 .2979889 .6660156 .12998963 .6660156 .040985109 .47317506 .040985109 .3272705 .040985109 .19134522 .067993167-.01953125 .24798584-.01953125 .33799745-.01953125 .41799928 .0524292 .43899537 .13737488 .44499208 .16036988 .44699098 .18435669 .44699098 .2083435 .44699098 .3112793 .37599183 .42721559 .2559967 .42721559 .20298767 .42721559 .13999939 .39222718 .12399292 .32426454M.125 .21733094V.22833252C.125 .2992859 .15499878 .40722657 .25 .40722657H.2559967C.36099244 .39822389 .36499024 .2802887 .36499024 .21234131V.19534302C.36499024 .13337708 .36299134 .062423707 .3039856 .023452759 .2869873 .012451172 .2679901 .007461548 .24798584 .007461548 .20899964 .007461548 .1789856 .028442383 .15699768 .060424806 .1269989 .107406619 .12998963 .16436768 .125 .21733094Z"/>
<path id="font_42_27" d="M.18699646 .33822633V.33721925C.115997318 .30525209 .04598999 .24629212 .040985109 .16235352V.15235901C.040985109 .046432496 .13999939-.016540528 .23298645-.01953125H.24198914C.34298707-.01953125 .44699098 .050430299 .44699098 .16734314 .44699098 .2163086 .4249878 .26428224 .3899994 .2982483 .375 .3122406 .35798646 .3222351 .34098817 .33422853 .32699586 .34321595 .31298829 .35421754 .2979889 .36120606V.36320497C.35499574 .3861847 .4139862 .44215394 .41999818 .5071106V.516098C.41999818 .5930481 .35299684 .6660156 .24699402 .6660156 .1619873 .6660156 .067993167 .6060333 .067993167 .5051117 .067993167 .43016053 .10798645 .38519288 .18699646 .33822633M.08699036 .1423645C.08699036 .1463623 .085998538 .15135193 .085998538 .15534973 .085998538 .22531128 .13798523 .28027345 .19299317 .31524659 .19699097 .31724549 .20298767 .3212433 .20799256 .3212433 .21998596 .3212433 .24899292 .29725648 .2669983 .28526307 .31599427 .25128175 .40098573 .21331787 .40098573 .1423645 .40098573 .056427003 .32199098 .007461548 .24598694 .007461548 .16999817 .007461548 .09700012 .056427003 .08699036 .1423645M.10899353 .52908328C.10899353 .6020355 .17599488 .64100649 .24198914 .64100649 .30599977 .64100649 .37998963 .5980377 .37998963 .51708987 .37998963 .46014405 .33399964 .4131775 .29100038 .3841858 .2869873 .3821869 .2829895 .3781891 .27799989 .3781891H.2769928C.2669983 .3781891 .24299622 .3981781 .22799683 .4081726L.17799378 .44114686C.14498902 .46214295 .11399841 .4881134 .10899353 .52908328Z"/>
<path id="font_42_38" d="M.3639984 .32318116H.36499024C.36499024 .23522949 .36299134 .13232422 .30499269 .062408449 .27799989 .027435303 .24299622 .008468628 .19799805 .008468628 .1619873 .008468628 .12399292 .015457153 .099990848 .044418336 .12298584 .044418336 .14898682 .05441284 .14898682 .085372928 .14898682 .10635376 .1349945 .12832642 .10798645 .12832642 .085998538 .12832642 .06599426 .113342288 .06498718 .08937073V.085372928C.06498718 .013458252 .1289978-.01953125 .20298767-.01953125 .28399659-.01953125 .34899903 .034439088 .3880005 .099365238 .43099977 .169281 .44699098 .25021363 .44699098 .33117677 .44699098 .45410157 .4229889 .6669922 .24499512 .6669922 .17399597 .6669922 .115997318 .62698367 .07699585 .5700226 .049987794 .53105166 .040985109 .4870758 .040985109 .44010926 .040985109 .33816529 .10998535 .2202301 .23098755 .2202301 .2899933 .2202301 .35099793 .26220704 .3639984 .32318116M.3619995 .44410707C.3619995 .43411256 .36299134 .42510987 .36299134 .41612245V.40911866C.35798646 .33816529 .32899476 .24023438 .23699951 .24023438 .13798523 .24023438 .12298584 .35316468 .12298584 .43011476V.46409608C.12298584 .53204348 .14199829 .64198306 .24398804 .64198306 .34498597 .64198306 .36299134 .5110626 .36299134 .45509339 .36299134 .45109559 .3619995 .44810487 .3619995 .44410707Z"/>
<path id="font_43_1" d="M.2679901 .39233399H.36299134C.3809967 .39233399 .4019928 .39233399 .4019928 .42332459 .4019928 .44433595 .3809967 .44433595 .36499024 .44433595H.2809906C.29100038 .4872589 .2939911 .5002289 .2999878 .52319338 .30599977 .54714968 .31698609 .5890808 .31698609 .59606936 .31698609 .62402346 .29599 .64401248 .2659912 .64401248 .21199036 .64401248 .19898987 .59306338 .19400025 .57510378 .18299866 .5311737 .17199707 .48825074 .1619873 .44433595H.06498718C.04699707 .44433595 .025985718 .44433595 .025985718 .41333009 .025985718 .39233399 .04699707 .39233399 .06298828 .39233399H.147995L.07598877 .09020996C.07598877 .028198243 .13999939-.008804321 .21199036-.008804321 .33898927-.008804321 .4119873 .12722779 .4119873 .14823914 .4119873 .1662445 .3929901 .1662445 .38398744 .1662445 .36799623 .1662445 .3619995 .16523743 .35598756 .15223694 .31298829 .0552063 .24798584 .033203126 .21798706 .033203126 .20199585 .033203126 .19198609 .03919983 .19198609 .07321167 .19198609 .083221439 .19198609 .09422302 .19499207 .10421753L.2679901 .39233399Z"/>
<path id="font_42_57" d="M.23098755 .6660156C.040985109 .64801028 .039993287 .4111786 .039993287 .31524659 .039993287 .17832947 .067993167-.01953125 .24398804-.01953125H.2559967C.44599916-.0015411377 .44799806 .2303009 .44799806 .3282318 .44799806 .4641266 .4189911 .6669922 .24499512 .6669922 .23999024 .66700747 .23599243 .6660156 .23098755 .6660156M.116989139 .26127626C.115997318 .26927186 .115997318 .27827455 .115997318 .28625489 .115997318 .34822084 .115997318 .4121704 .12098694 .47413636 .12399292 .5140991 .1289978 .55807498 .1519928 .592041 .17298889 .62402346 .20799256 .64601138 .24499512 .64601138 .3809967 .64601138 .37199403 .43914796 .37199403 .34521485V.27127076C.37199403 .19732666 .36799623 .118377689 .34098817 .06642151 .32299806 .030441285 .28599549 .00045776368 .24398804 .00045776368H.23799134C.117996219 .0104522709 .12599182 .17034912 .116989139 .26127626Z"/>
<path id="font_42_47" d="M.084991458 .6767578 .053985597 .47724916H.07598877C.08099365 .5072479 .085998538 .55622866 .100997928 .56721499 .10699463 .57221987 .12199402 .57321169 .13699341 .57321169H.1769867C.19099427 .57421877 .20599365 .57421877 .21998596 .57421877H.40899659C.3880005 .5462189 .36898805 .51724246 .34899903 .48825074 .32598878 .45526124 .3019867 .42227174 .2809906 .38729859 .21598816 .27934266 .1749878 .15539551 .1749878 .028442383V.017440796C.17799378-.003540039 .19599915-.01953125 .21699524-.01953125H.21899414C.25299073-.01953125 .25898744 .0104522709 .25898744 .033432008V.079422C.25898744 .18937683 .2669983 .3143158 .32699586 .41027833 .34098817 .43327333 .35699464 .4542694 .37298585 .47625733L.45899964 .60121157C.46699525 .61221316 .47399903 .61820986 .47399903 .6332092V.6452179H.33299256C.30699159 .6452179 .2659912 .6422119 .22599793 .6422119 .1659851 .6422119 .10899353 .64816287 .10699463 .6767578H.084991458Z"/>
<path id="font_42_52" d="M.08198547 .522995C.101989749 .5850067 .15098572 .63700869 .21998596 .63700869 .30899049 .63700869 .35598756 .5529938 .35598756 .47399903 .35598756 .37199403 .2829895 .28997804 .21998596 .2179718L.147995 .13697815C.1269989 .113967899 .10598755 .08996582 .084991458 .065963748L.06199646 .03996277C.055999757 .031967164 .04798889 .02796936 .04798889 .014968872 .04798889 .009963989 .04899597 .0049743654 .04899597 .0009765625H.41299439L.43899537 .16897583H.4169922C.40899659 .12197876 .4119873 .07397461 .36898805 .07397461 .34098817 .07397461 .31199647 .07197571 .28399659 .07197571H.117996219C.16999817 .12397766 .21998596 .17497254 .27398683 .22398377 .34399415 .2869873 .43899537 .36299134 .43899537 .46798707 .43899537 .59399417 .34199525 .6660156 .23399353 .6660156 .13598633 .6660156 .04798889 .58599856 .04798889 .4850006 .04798889 .45698548 .057998659 .43598939 .09399414 .42999269 .1269989 .42999269 .14399719 .45298768 .14399719 .47799684 .14399719 .5009918 .12998963 .5200043 .101989749 .5249939 .09498596 .5249939 .08898926 .5249939 .08198547 .522995Z"/>
<path id="font_40_1" d="M.23699951 .07798767C.23699951 .12098694 .20199585 .1559906 .15899658 .1559906 .115997318 .1559906 .08099365 .12098694 .08099365 .07798767 .08099365 .034988405 .115997318 0 .15899658 0 .20199585 0 .23699951 .034988405 .23699951 .07798767Z"/>
<path id="font_44_1" d="M.18399048 .04798889C.18399048 .07699585 .1599884 .09700012 .13598633 .09700012 .10699463 .09700012 .08699036 .07299805 .08699036 .04899597 .08699036 .019989014 .11099243 0 .1349945 0 .1639862 0 .18399048 .023986817 .18399048 .04798889Z"/>
<path id="font_41_5" d="M.19400025 .34695436C.19400025 .4039154 .19699097 .4789734 .22499085 .5299835 .2579956 .5909729 .32099916 .6151886 .37298585 .6151886 .40098573 .6151886 .4249878 .6101532 .44599916 .59198 .42199708 .5859833 .394989 .5639801 .394989 .52597048 .394989 .48797608 .4229889 .45898438 .46199037 .45898438 .5009918 .45898438 .5299988 .48597718 .5299988 .52796939 .5299988 .588974 .4889984 .6582031 .37199403 .6582031 .21598816 .6582031 .050994874 .5619812 .050994874 .31698609 .050994874 .18913269 .08198547-.013671875 .30999757-.013671875 .45899964-.013671875 .5609894 .07028198 .5609894 .2051239 .5609894 .26205445 .548996 .31399537 .4909973 .36393739 .43598939 .4109192 .3809967 .42092896 .31799317 .42092896 .25698854 .42092896 .21598816 .3819275 .19400025 .34695436M.30899049 .033325197C.2599945 .033325197 .22799683 .061294557 .21299744 .09324646 .19599915 .12721253 .19599915 .20811463 .19599915 .21211243 .19599915 .30200196 .23599243 .3779297 .31599427 .3779297 .41799928 .3779297 .41799928 .30101014 .41799928 .20611573 .41799928 .11123657 .41799928 .033325197 .30899049 .033325197Z"/>
<path id="font_41_4" d="M.17599488 .5010834C.20799256 .49609376 .24198914 .49609376 .24798584 .49609376 .27398683 .49609376 .34199525 .49609376 .4169922 .54408267 .44299317 .56108096 .5029907 .611084 .5029907 .63708499 .5029907 .65208438 .49499513 .65808108 .4850006 .65808108 .48298646 .65808108 .48098756 .65808108 .46998597 .65309146 .42099 .63609316 .3619995 .6260834 .30699159 .6260834 .2619934 .6260834 .20498657 .6320801 .13999939 .65408328 .13198853 .65808108 .12998963 .65808108 .1269989 .65808108 .10998535 .65808108 .10998535 .64108279 .10998535 .62709048V.33319093C.10998535 .3142395 .10998535 .29927064 .13699341 .29927064 .1519928 .29927064 .15499878 .30126954 .16499329 .31323243 .20498657 .36112977 .2669983 .3701172 .30599977 .3701172 .4019928 .3701172 .4019928 .27931214 .4019928 .20341492 .4019928 .13441468 .4019928 .033325197 .27198792 .033325197 .21998596 .033325197 .16999817 .055358888 .14299011 .089416507 .18499756 .09541321 .20498657 .12741089 .20498657 .16041565 .20498657 .2064209 .16899109 .23242188 .1329956 .23242188 .101989749 .23242188 .06098938 .2124176 .06098938 .15841675 .06098938 .068374637 .1459961-.013671875 .27598573-.013671875 .45399476-.013671875 .5509949 .08340454 .5509949 .20141602 .5509949 .31323243 .47099305 .41210938 .30999757 .41210938 .2619934 .41210938 .21598816 .4031067 .17599488 .3781128V.5010834Z"/>
<path id="font_45_17" d="M.033996583 .68359377V.6525879C.04699707 .6525879 .05999756 .6535797 .07199097 .6535797 .10798645 .6535797 .13699341 .6485901 .13699341 .6085663V.07450867C.13699341 .036514284 .10398865 .03050232 .069992069 .03050232 .056991579 .03050232 .04499817 .0315094 .033996583 .0315094V.00050354006H.32598878V.0315094H.2919922C.25 .0315094 .22299195 .0335083 .22299195 .07551575V.33151246H.33699037C.40299989 .33151246 .46299745 .2935028 .46998597 .21650696V.1335144C.46998597 .06550598 .49899293-.021484375 .6349945-.021484375 .6819916-.021484375 .723999 .009506226 .7319946 .08250427V.087509158C.7319946 .09550476 .72898867 .10551453 .7200012 .10551453 .70199587 .10551453 .7049866 .053512575 .68899539 .028503418 .6769867 .012512207 .6589966 .00050354006 .6399994 .00050354006 .59098818 .00050354006 .58299258 .06651306 .57598879 .10551453L.56399539 .1835022C.5529938 .25350953 .5299988 .30751039 .43499757 .34051515 .45399476 .34750367 .47399903 .35150147 .49299623 .35951234 .548996 .38452149 .60398867 .4295349 .6100006 .49453736V.5025482C.6100006 .61756899 .47399903 .6755829 .37998963 .68258669 .36299134 .68359377 .34700013 .68359377 .32998658 .68359377H.033996583M.22299195 .35351563V.61557009C.22299195 .6415863 .23298645 .650589 .2579956 .6525879H.33099366C.4119873 .6525879 .5069885 .63157656 .5069885 .50354006 .5069885 .3645172 .39698792 .35351563 .30899049 .35351563H.22299195Z"/>
<path id="font_45_29" d="M.11199951 .23242188H.3999939C.41099549 .23242188 .41600038 .2394104 .41600038 .250412 .41600038 .35630799 .35099793 .4482422 .23899842 .4482422 .115997318 .4482422 .027999878 .33932496 .027999878 .22039795 .027999878 .12832642 .07899475 .04624939 .16699219 .006225586 .18998719-.003768921 .21699524-.009765625 .24198914-.009765625H.24499512C.32199098-.009765625 .38598634 .0332489 .41299439 .110305789 .4139862 .11331177 .4139862 .11730957 .4139862 .12031555 .4139862 .12731934 .4099884 .13232422 .40299989 .13232422 .3880005 .13232422 .38198854 .0993042 .37599183 .08828735 .35099793 .04425049 .30299378 .0152282719 .25099183 .0152282719 .21398926 .0152282719 .18199158 .036239625 .15499878 .06326294 .114990238 .109313968 .11199951 .17436219 .11199951 .23242188M.11299133 .25341798C.11299133 .33033753 .1539917 .426239 .23599243 .426239H.24099732C.33898927 .41723634 .33799745 .3133545 .34799195 .25341798H.11299133Z"/>
<path id="font_45_33" d="M.11898804 .02281189V.02180481C.07199097 .012802124 .027999878-.032165529 .027999878-.07914734 .027999878-.1730957 .17199707-.20507813 .24899292-.20507813 .33299256-.20507813 .47099305-.1750946 .47099305-.072143558 .47099305-.0071868898 .4249878 .03781128 .36499024 .05480957 .32899476 .06581116 .2919922 .06680298 .2539978 .06680298H.16299439C.1309967 .06982422 .10598755 .10205078 .10598755 .13427735V.13931275C.10699463 .15238953 .11399841 .17837525 .12399292 .17837525 .13699341 .17538452 .15098572 .16438294 .1659851 .15937805 .18399048 .15338135 .20399475 .15039063 .22299195 .15039063 .30499269 .15039063 .3849945 .21134949 .3849945 .29626466 .3849945 .3302307 .37098695 .37019349 .34399415 .3921814V.39317323C.37098695 .41316224 .39698792 .43113709 .43299867 .43113709 .43598939 .43113709 .43899537 .43113709 .44198609 .43014527 .43299867 .42414857 .4269867 .41714479 .4269867 .40415956 .4269867 .3881836 .43998719 .37419129 .45599366 .37419129 .47299195 .37419129 .4850006 .3881836 .4850006 .40415956 .4850006 .43113709 .46299745 .453125 .43499757 .453125 .3999939 .453125 .3659973 .4391327 .33999635 .41714479 .33699037 .41415406 .33299256 .41015626 .32899476 .40916444H.32798768C.32199098 .40916444 .31399537 .41714479 .30899049 .42015077 .2829895 .43437196 .25299073 .4423828 .22299195 .4423828 .14399719 .4423828 .05899048 .38737489 .05899048 .29638673 .05899048 .26338197 .07199097 .23338318 .09199524 .2073822 .09599304 .2033844 .102996829 .19837952 .102996829 .1933899 .102996829 .18838501 .09700012 .18338013 .09498596 .17938233 .08198547 .15937805 .07499695 .13427735 .07499695 .11010742 .07499695 .07888794 .08898926 .03781128 .11898804 .02281189M.08099365-.08413696V-.07614136C.08099365-.0231781 .1269989 .0078125 .18099976 .0078125H.25898744C.32199098 .0078125 .41799928-.0011901856 .41799928-.07814026 .41799928-.15110779 .31098939-.18208313 .24899292-.18208313 .18299866-.18208313 .09098816-.15209961 .08099365-.08413696M.1349945 .27638246V.28938294C.1349945 .3443756 .147995 .41838075 .22200012 .41838075 .28399659 .41838075 .30899049 .36038209 .30899049 .29638673 .30899049 .25538636 .30099488 .17437744 .22299195 .17437744 .19699097 .17437744 .17199707 .18638611 .15499878 .20838928 .13999939 .2283783 .13798523 .25238038 .1349945 .27638246Z"/>
<path id="font_45_54" d="M.03199768 .430542V.39953614H.04598999C.07398987 .39953614 .102996829 .3975525 .10899353 .3675995 .10998535 .35661317 .10998535 .3466339 .10998535 .33566285V.13702393C.10998535 .1040802 .11099243 .073135379 .1289978 .044189454 .1559906 .0012512207 .21299744-.0107421879 .2599945-.0107421879 .30499269-.0107421879 .34599305 .009246826 .37098695 .046188356 .37799073 .056167604 .3849945 .06614685 .3880005 .078125L.3889923-.009750366 .5339966 .0012512207V.032211305H.5189972C.48599244 .032211305 .45599366 .035217287 .45599366 .0801239V.4423828L.30799867 .43136598V.39953614H.32299806C.35598756 .39953614 .38598634 .3965454 .38598634 .3496399V.16896057C.38598634 .09509277 .34799195 .013244629 .2649994 .013244629 .20899964 .013244629 .17999268 .02722168 .17999268 .13302613V.4423828L.03199768 .430542Z"/>
<path id="font_45_39" d="M.032989503 .68429568V.6532898H.04798889C.084991458 .6532898 .11099243 .64927676 .11099243 .6012573V.0960083C.11099243 .08900452 .11199951 .08200073 .11199951 .07398987 .11199951 .035964967 .084991458 .031967164 .056991579 .031967164H.032989503V.0009765625H.2559967V.031967164H.23098755C.20199585 .031967164 .17799378 .035964967 .17799378 .07499695V.6953125L.032989503 .68429568Z"/>
<path id="font_45_23" d="M.11199951 .3812256C.13699341 .41223146 .18099976 .426239 .21798706 .426239 .2919922 .426239 .32499696 .3592224 .32499696 .288208V.26220704C.20999146 .26220704 .040985109 .22619629 .040985109 .095214847V.08721924C.04899597 .010223389 .1459961-.009765625 .20298767-.009765625 .2539978-.009765625 .31900025 .024230957 .33198548 .07522583H.33299256C.33898927 .032226564 .3659973-.004776001 .41099549-.004776001 .45199586-.004776001 .48799134 .02822876 .49299623 .07322693V.14620972H.46798707V.095214847C.46798707 .068222049 .46299745 .02722168 .43199159 .02722168 .3999939 .02722168 .394989 .066223148 .394989 .09321594V.26020814C.394989 .27320863 .3959961 .28520204 .3959961 .29821778 .3959961 .39523316 .30499269 .4482422 .22200012 .4482422 .15899658 .4482422 .069992069 .41723634 .069992069 .33721925 .069992069 .30822755 .09098816 .28923036 .116989139 .28923036 .14498902 .28923036 .1619873 .31123353 .1619873 .3352356 .1619873 .3642273 .13899231 .38124085 .11199951 .38124085V.3812256M.32499696 .24121094V.14021302C.32499696 .07122803 .2769928 .016220093 .21199036 .01222229H.20799256C.16099549 .01222229 .11898804 .049224855 .11898804 .097213748V.10221863C.12599182 .2032013 .23899842 .23820496 .32499696 .24121094Z"/>
<path id="font_45_49" d="M.026992798 .43138124V.4003601H.041992189C.07499695 .4003601 .10499573 .39735414 .10499573 .35029603V.074020389C.10499573 .032974245 .07699585 .031967164 .032989503 .031967164H.026992798V.0009765625H.2689972V.031967164C.25698854 .031967164 .24299622 .030975342 .23098755 .030975342 .19898987 .030975342 .17199707 .035980226 .17199707 .073013309V.20614624C.17199707 .2912445 .19198609 .42037965 .2899933 .42037965 .2939911 .42037965 .29699708 .42037965 .30099488 .41937257V.41836549C.28599549 .41236878 .27799989 .39634706 .27799989 .38032533 .27799989 .35731507 .29299928 .34129334 .31599427 .33728028 .34498597 .33728028 .3639984 .3553009 .3639984 .38032533 .3639984 .42037965 .32598878 .4423828 .2899933 .4423828 .23098755 .4423828 .17799378 .38934327 .16799927 .33528138L.16699219 .4423828 .026992798 .43138124Z"/>
<path id="font_45_6" d="M.032989503 .68066409V.6496582C.04598999 .6496582 .05899048 .65065 .070999149 .65065 .10699463 .65065 .13598633 .6456604 .13598633 .60572817V.07499695C.13598633 .036972047 .102996829 .030975342 .068984989 .030975342 .055999757 .030975342 .04399109 .031967164 .032989503 .031967164V.0009765625H.35299684V.031967164C.33898927 .031967164 .32199098 .030975342 .30499269 .030975342 .25498963 .030975342 .22499085 .034973146 .22499085 .08100891V.32617188H.30899049C.34298707 .32617188 .38398744 .3241577 .40299989 .2951355 .4169922 .27313233 .41799928 .24511719 .41799928 .2190857V.20909119H.44299317V.4739685H.41799928V.463974C.41799928 .4120636 .4079895 .36714173 .34700013 .35916139 .32899476 .35716249 .30999757 .35716249 .2919922 .35716249H.22499085V.61372378C.22499085 .6476593 .24499512 .6496582 .2659912 .6496582H.3829956C.43499757 .6496582 .49798585 .6476593 .5359955 .60873416 .57398989 .5688019 .5779877 .50790408 .58499148 .45599366H.6100006L.58200076 .68066409H.032989503Z"/>
<path id="font_45_51" d="M.14898682 .6152344C.14898682 .54644778 .11999512 .421875 .017990113 .421875V.39987184H.10398865V.1421051C.10398865 .10914612 .10598755 .076171878 .12199402 .047195436 .14399719 .007232666 .19099427-.009765625 .23498535-.009765625 .31698609-.009765625 .33299256 .08216858 .33299256 .14511109V.18206787H.30799867C.30799867 .16708374 .30899049 .15209961 .30899049 .1361084 .30899049 .09214783 .29899598 .0152282719 .23999024 .0152282719 .18299866 .0152282719 .17399597 .08416748 .17399597 .12911988V.39987184H.31599427V.43066407H.17399597V.6152344H.14898682Z"/>
<path id="font_45_50" d="M.17599488 .4482422C.13899231 .44422914 .099990848 .4372406 .070999149 .41223146 .04699707 .39123536 .032989503 .35723878 .032989503 .32522584 .032989503 .15423584 .31098939 .25123597 .31098939 .10122681 .31098939 .040222169 .2559967 .01222229 .20098877 .01222229 .125 .01222229 .07398987 .066223148 .05999756 .15222168 .057998659 .16122437 .056991579 .17022705 .04499817 .17022705 .036987306 .17022705 .032989503 .16423035 .032989503 .15722656V-.00077819827C.033996583-.0057678224 .036987306-.008773804 .041992189-.009765625H.04399109C.05999756-.009765625 .07598877 .02722168 .08799744 .030227662H.08898926C.09700012 .030227662 .12399292 .0052337648 .14498902-.0017700195 .1619873-.0077667238 .17999268-.009765625 .19799805-.009765625 .2809906-.009765625 .3600006 .034225465 .3600006 .12623596 .3600006 .19223023 .31199647 .24623108 .24598694 .26322938 .18399048 .28022767 .08198547 .28022767 .08198547 .3532257 .08198547 .4142151 .14898682 .42921449 .19299317 .42921449 .24198914 .42921449 .30999757 .40220643 .30999757 .3162079 .30999757 .30722047 .31098939 .2992096 .32199098 .2992096 .33198548 .2992096 .33599855 .30722047 .33599855 .31721498 .33599855 .32221986 .33499146 .32720948 .33499146 .33120729V.4342041C.33499146 .44023133 .33198548 .4482422 .32398988 .4482422 .30799867 .4482422 .2979889 .42323304 .2869873 .42323304H.28599549C.27799989 .42323304 .2619934 .43623353 .25 .44023133 .23199463 .44621278 .21199036 .44921876 .19299317 .44921876 .18699646 .449234 .18199158 .4482422 .17599488 .4482422Z"/>
<path id="font_45_41" d="M.03199768 .43138124V.4003601H.04699707C.07998657 .4003601 .10998535 .39735414 .10998535 .35029603V.074020389C.10998535 .032974245 .08198547 .031967164 .037994386 .031967164H.03199768V.0009765625H.2579956V.031967164H.23199463C.20399475 .031967164 .17999268 .035980226 .17999268 .073013309V.25621034C.17999268 .3282776 .21699524 .42037965 .31599427 .42037965 .37998963 .42037965 .38598634 .3513031 .38598634 .30825807V.069000247C.38598634 .034973146 .35699464 .031967164 .32598878 .031967164H.30799867V.0009765625H.5339966V.031967164H.5089874C.48199464 .031967164 .45599366 .035980226 .45599366 .070007327V.28923036C.45599366 .32226563 .45498658 .35630799 .43899537 .38633729 .41600038 .43037416 .36499024 .4423828 .31900025 .4423828 .2579956 .4423828 .19499207 .4003601 .1749878 .34028626L.17399597 .4423828 .03199768 .43138124Z"/>
<path id="font_45_25" d="M.35899354 .38723756C.33299256 .38523866 .31199647 .36923219 .31199647 .3412323 .31199647 .3142395 .33099366 .29522706 .35798646 .29522706 .3880005 .29522706 .4039917 .31723023 .4039917 .3452301V.3512268C.3939972 .4242401 .30899049 .4482422 .25099183 .4482422 .1289978 .4482422 .032989503 .3412323 .032989503 .21723938 .032989503 .10423279 .12098694-.009765625 .25-.009765625 .31599427-.009765625 .3809967 .026229859 .4079895 .096221927 .4099884 .10223389 .4149933 .11123657 .4149933 .1182251 .4149933 .12522888 .4099884 .13023377 .40299989 .13023377 .3880005 .13023377 .3789978 .09222412 .37199403 .07922363 .34799195 .040222169 .30699159 .016220093 .2619934 .0152282719 .15499878 .0152282719 .12199402 .1222229 .116989139 .20123291V.21322632C.116989139 .29322816 .13598633 .41323854 .24598694 .42323304H.2539978C.29100038 .42323304 .32998658 .41223146 .35899354 .38723756Z"/>
<path id="font_45_36" d="M.036987306 .430542V.3995819H.055999757C.084991458 .3995819 .11099243 .3955841 .11099243 .34962464V.07292175C.11099243 .037963869 .09298706 .031967164 .032989503 .031967164V.0009765625H.24798584V.031967164H.22799683C.20199585 .031967164 .17799378 .034973146 .17799378 .06692505V.44154359L.036987306 .430542M.12098694 .6689453C.09599304 .66589358 .07598877 .64382937 .07598877 .61672976 .07598877 .5876312 .100997928 .5635376 .1289978 .5635376 .1559906 .5635376 .18199158 .58561709 .18199158 .61672976 .18199158 .64582827 .15699768 .6699219 .1289978 .6699219 .12599182 .66993716 .12399292 .6689453 .12098694 .6689453Z"/>
<path id="font_45_42" d="M.23498535 .4482422C.10899353 .43522645 .027999878 .3292389 .027999878 .21322632 .027999878 .100234989 .116989139-.009765625 .25-.009765625 .36999513-.009765625 .47099305 .08822632 .47099305 .2142334 .47099305 .33320619 .3809967 .44921876 .24798584 .44921876 .24398804 .449234 .23899842 .4482422 .23498535 .4482422M.11199951 .19023133V.23423767C.11199951 .31021119 .13598633 .4262085 .24899292 .4262085 .32998658 .4262085 .37599183 .35821534 .3849945 .2822113 .3869934 .2602234 .3869934 .23921204 .3869934 .21722412 .3869934 .15222168 .37998963 .07122803 .31599427 .034225465 .29599 .021224976 .27398683 .0152282719 .25099183 .0152282719 .17799378 .0152282719 .1269989 .07221985 .115997318 .15022278 .11399841 .16322327 .11399841 .17721558 .11199951 .19021607V.19023133Z"/>
<path id="font_45_47" d="M.1309967 .10644531C.10598755 .10342407 .085998538 .080322269 .085998538 .0552063 .085998538 .03010559 .10598755 .0009765625 .13699341 .0009765625 .1639862 .0009765625 .19198609 .022064209 .19198609 .053207399 .19198609 .07929993 .17199707 .107421878 .13999939 .107421878 .13699341 .107437137 .13398743 .10644531 .1309967 .10644531Z"/>
<path id="font_45_48" d="M.1539917 .34765626H.17599488C.18699646 .4086914 .19099427 .47373963 .19699097 .5357971 .20298767 .5788269 .21199036 .6248627 .21199036 .66690066 .21199036 .69291689 .18998719 .7109375 .16499329 .7109375 .13398743 .7109375 .11898804 .68891909 .11898804 .66490176 .11898804 .6468811 .12298584 .62786868 .125 .6088562 .1349945 .52178958 .14698792 .4347229 .1539917 .34765626M.32299806 .34765626H.34498597C.35299684 .44673158 .36999513 .5458069 .37799073 .645874 .3789978 .651886 .37998963 .6588898 .37998963 .66490176 .37998963 .68891909 .36499024 .7109375 .33399964 .7109375 .30899049 .7109375 .2869873 .69291689 .2869873 .66690066 .2869873 .651886 .2899933 .63687136 .2919922 .62286379 .29899598 .5548096 .30599977 .48675538 .31498719 .41870118 .31698609 .39468385 .31900025 .3706665 .32299806 .34765626Z"/>
<path id="font_45_28" d="M.3039856 .6843109V.6533203H.31999208C.35499574 .6533203 .38198854 .6493225 .38198854 .5913391L.3809967 .38136292C.35699464 .42137147 .2999878 .4423828 .2539978 .4423828 .1309967 .4423828 .032989503 .3363495 .032989503 .21530152 .032989503 .10826111 .114990238-.009765625 .24699402-.009765625 .29899598-.009765625 .34599305 .0152282719 .3789978 .055236818V-.009765625L.5269928 .0012207031V.032226564H.5099945C.47898866 .032226564 .44898988 .035232545 .44898988 .08224487V.6953125L.3039856 .6843109M.116989139 .19128418V.20629883C.116989139 .2803192 .12599182 .35534669 .19499207 .4013672 .21499634 .41337586 .23799134 .42037965 .26098634 .42037965 .30999757 .42037965 .37998963 .38035584 .37998963 .31733705 .37998963 .30433656 .3789978 .2913208 .3789978 .2783203V.11225891C.3789978 .09925842 .37399293 .09025574 .36698915 .08024597 .34098817 .041244508 .2979889 .01222229 .25099183 .01222229 .17799378 .01222229 .13198853 .07925415 .12098694 .14826966 .11898804 .16227722 .11898804 .17729187 .116989139 .19128418Z"/>
<path id="font_45_57" d="M.018997193 .43066407V.3996582H.034988405C.06298828 .3996582 .084991458 .39665223 .101989749 .3586731 .147995 .24871826 .19198609 .13775635 .23899842 .027801514 .24198914 .019805909 .24899292 .00881958 .24899292-.00018310547 .24899292-.0011749268 .24798584-.0031738282 .24798584-.004180908 .24099732-.025177002 .23098755-.045166017 .22200012-.06515503 .20199585-.11413574 .17298889-.18211365 .11099243-.18211365 .09599304-.18211365 .07598877-.17611695 .06399536-.16412354 .08299255-.16111756 .102996829-.15011597 .102996829-.12213135 .102996829-.10014343 .08799744-.08215332 .06599426-.08015442 .034988405-.08015442 .018997193-.09814453 .018997193-.12313843 .018997193-.17311096 .06599426-.20410156 .11099243-.20410156H.11199951C.18399048-.20410156 .22200012-.13012696 .24699402-.07115173L.2769928 .0008239746C.31199647 .08677673 .34799195 .17274475 .38398744 .25871278L.4079895 .3156891C.4249878 .3626709 .45098878 .3996582 .5079956 .3996582V.43066407H.34700013V.3996582C.36999513 .3996582 .3929901 .383667 .3929901 .3586731 .3929901 .3456726 .3869934 .33268739 .38198854 .32069398 .35299684 .25271607 .32699586 .18374634 .29699708 .11576843 .2939911 .106781009 .2889862 .09777832 .2869873 .088775638H.28599549C.2789917 .11177063 .2679901 .13276673 .25898744 .15475464 .23298645 .21972656 .20199585 .28570558 .17799378 .35168458 .1749878 .3586731 .17098999 .36567689 .17098999 .3736725V.3776703C.1769867 .3996582 .20599365 .3996582 .22599793 .3996582V.43066407H.018997193Z"/>
<path id="font_46_3" d="M.33399964 .30233766C.33999635 .32835389 .36299134 .42037965 .43299867 .42037965 .43798829 .42037965 .46199037 .42037965 .48298646 .40734864 .45498658 .402359 .43499757 .37734986 .43499757 .35334779 .43499757 .33735658 .44599916 .31835938 .47299195 .31835938 .49499513 .31835938 .5269928 .3363495 .5269928 .37635804 .5269928 .42837525 .46798707 .4423828 .43399049 .4423828 .37599183 .4423828 .34098817 .38935853 .32899476 .36634828 .3039856 .43237306 .25 .4423828 .22099304 .4423828 .116989139 .4423828 .05999756 .3133545 .05999756 .28834535 .05999756 .27833558 .069992069 .27833558 .07199097 .27833558 .07998657 .27833558 .08299255 .28033448 .084991458 .28933717 .11898804 .39535523 .18499756 .42037965 .21899414 .42037965 .23799134 .42037965 .272995 .4113617 .272995 .35334779 .272995 .32235719 .2559967 .25532533 .21899414 .11528015 .20298767 .053268434 .16799927 .011245728 .12399292 .011245728 .117996219 .011245728 .09498596 .011245728 .07398987 .024276734 .09899902 .029266358 .12098694 .05027771 .12098694 .07827759 .12098694 .105270389 .09899902 .11328125 .083999637 .11328125 .053985597 .11328125 .0289917 .08728027 .0289917 .055267335 .0289917 .009246826 .07899475-.0107421879 .12298584-.0107421879 .18899536-.0107421879 .22499085 .059280397 .22799683 .0652771 .23999024 .028274537 .27598573-.0107421879 .33599855-.0107421879 .43899537-.0107421879 .49598695 .118270877 .49598695 .14328003 .49598695 .1532898 .4869995 .1532898 .48399354 .1532898 .47499085 .1532898 .47299195 .14929199 .47099305 .14228821 .43798829 .03527832 .36999513 .011245728 .33799745 .011245728 .29899598 .011245728 .2829895 .043273927 .2829895 .07727051 .2829895 .09927368 .2889862 .121276859 .2999878 .16529846L.33399964 .30233766Z"/>
<path id="font_47_1" d="M.35499574 .75C.16499329 .61598208 .114990238 .40397645 .114990238 .25097657 .114990238 .10997009 .15699768-.10902405 .35499574-.24902344 .36299134-.24902344 .375-.24902344 .375-.23703003 .375-.23103333 .37199403-.22903443 .36499024-.22203064 .23199463-.10203552 .18299866 .067977908 .18299866 .24996948 .18299866 .519989 .28599549 .65197756 .36799623 .72598269 .37199403 .7299957 .375 .73298647 .375 .73799136 .375 .75 .36299134 .75 .35499574 .75Z"/>
<path id="font_47_3" d="M.5049896 .18203736H.47099305C.46798707 .16001892 .45799256 .100997928 .44499208 .09098816 .43699647 .084991458 .3600006 .084991458 .34599305 .084991458H.1619873C.2669983 .17803955 .3019867 .20603943 .3619995 .25306703 .43598939 .312088 .5049896 .374115 .5049896 .46914674 .5049896 .5900879 .39898683 .6640625 .2709961 .6640625 .14698792 .6640625 .06298828 .57710269 .06298828 .4851532 .06298828 .43414308 .10598755 .42915345 .115997318 .42915345 .13999939 .42915345 .16899109 .44615174 .16899109 .48214723 .16899109 .5001526 .1619873 .53515627 .10998535 .53515627 .14099121 .6060791 .20899964 .62805178 .2559967 .62805178 .35598756 .62805178 .4079895 .5501404 .4079895 .46914674 .4079895 .38212586 .34599305 .3130951 .31399537 .27708436L.07299805 .038986207C.06298828 .02999878 .06298828 .027999878 .06298828 0H.47499085L.5049896 .18203736Z"/>
<path id="font_47_2" d="M.08999634 .75C.08299255 .75 .070999149 .75 .070999149 .73799136 .070999149 .73298647 .07398987 .7299957 .07998657 .72299197 .1659851 .64398196 .2619934 .5089874 .2619934 .25097657 .2619934 .04197693 .19699097-.11602783 .08898926-.21403504 .07199097-.23103333 .070999149-.23202515 .070999149-.23703003 .070999149-.24203491 .07398987-.24902344 .083999637-.24902344 .09599304-.24902344 .19099427-.18302918 .25698854-.058029176 .30099488 .024978638 .32998658 .13298035 .32998658 .24996948 .32998658 .39097596 .28799439 .60998538 .08999634 .75Z"/>
<path id="font_48_1" d="M.24598694 .39465333H.34799195C.36698915 .39465333 .37998963 .39465333 .37998963 .4166565 .37998963 .43066407 .36698915 .43066407 .34999085 .43066407H.25498963L.2919922 .57850649C.29299928 .58351138 .29499818 .588501 .29499818 .5924988 .29499818 .6104889 .2809906 .6244812 .26098634 .6244812 .23599243 .6244812 .22099304 .6074829 .21398926 .58151248 .20698548 .5565338 .21998596 .6044922 .17599488 .43066407H.07398987C.054992677 .43066407 .041992189 .43066407 .041992189 .4086609 .041992189 .39465333 .053985597 .39465333 .07199097 .39465333H.16699219L.10798645 .15901184C.101989749 .13404846 .09298706 .098098758 .09298706 .085128787 .09298706 .0262146 .14299011-.009765625 .19999695-.009765625 .31098939-.009765625 .37399293 .13005066 .37399293 .14303589 .37399293 .15602112 .36099244 .15602112 .35798646 .15602112 .34599305 .15602112 .34498597 .15402222 .33699037 .13703919 .30899049 .074142459 .2579956 .018234253 .20298767 .018234253 .18199158 .018234253 .16799927 .031204224 .16799927 .06715393 .16799927 .07713318 .17199707 .098098758 .17399597 .10809326L.24598694 .39465333Z"/>
<path id="font_49_18" d="M.24198914 .6669922C.07998657 .65097048 .039993287 .48286439 .039993287 .3247528 .039993287 .22769165 .04598999 .11260986 .114990238 .03755188 .1499939 .0005340576 .20298767-.022460938 .25498963-.022460938 .34399415-.022460938 .4119873 .033554079 .44299317 .113601688 .46899415 .18165589 .47299195 .2537079 .47299195 .3247528 .47299195 .46884156 .43998719 .66796877 .25698854 .66796877 .2519989 .667984 .24699402 .6669922 .24198914 .6669922M.1269989 .2597046C.12599182 .26771546 .12599182 .27671815 .12599182 .284729 .12599182 .34776307 .12599182 .41181947 .1309967 .47485353 .13398743 .5128784 .13798523 .5549164 .1599884 .5869293 .18099976 .61994937 .21798706 .6419678 .25698854 .6419678 .34098817 .6419678 .37399293 .5609131 .3809967 .49186708 .38598634 .44282533 .3869934 .39279176 .3869934 .34275819V.26771546C.3869934 .15963745 .37799073 .049560548 .2999878 .013534546 .2869873 .0065307619 .2709961 .0035247803 .2559967 .0035247803 .19198609 .0035247803 .1499939 .061569215 .13798523 .12260437 .12998963 .16864014 .13198853 .21366883 .1269989 .2597046Z"/>
<path id="font_49_15" d="M.13398743 .10836792C.10899353 .10534668 .08799744 .08326721 .08799744 .055160524 .08799744 .029067994 .10798645 .0009765625 .13999939 .0009765625 .16499329 .0009765625 .19599915 .01902771 .19599915 .055160524 .19599915 .08226013 .1749878 .109375 .14199829 .109375 .13899231 .109375 .13699341 .109375 .13398743 .10836792Z"/>
<path id="font_49_8" d="M.085998538 .117614749C.09098816 .116622928 .09498596 .115615848 .099990848 .115615848 .12799073 .115615848 .14898682 .13563538 .14898682 .1646576 .14898682 .19068909 .1289978 .21470642 .101989749 .21470642 .07499695 .21470642 .050994874 .19369507 .050994874 .16265869 .050994874 .06556702 .13198853-.021484375 .23899842-.021484375 .35899354-.021484375 .46199037 .07658386 .46199037 .20170594 .46199037 .3097992 .3880005 .42089845 .2649994 .42089845 .21699524 .42089845 .16899109 .40289308 .1349945 .36886598V.5657654C.1619873 .5597534 .18699646 .5537567 .21499634 .5517578H.22799683C.29699708 .5517578 .36499024 .5817566 .41099549 .6347656 .41600038 .6408081 .42199708 .6468506 .42199708 .6549072V.6569214C.41999818 .66296389 .41600038 .6669922 .41099549 .6669922 .40499879 .6669922 .394989 .6609497 .3880005 .65893557 .35598756 .64282229 .3039856 .6347656 .2630005 .6347656 .21699524 .6347656 .17399597 .6448364 .13198853 .6609497 .1269989 .6629791 .12199402 .6660156 .116989139 .6660156H.114990238C.10899353 .6660156 .10499573 .66096499 .10398865 .6549225V.33683778C.10398865 .32781983 .10598755 .31681825 .117996219 .31681825 .1309967 .31681825 .14099121 .33883668 .1459961 .34384156 .1749878 .37687684 .21699524 .39489747 .26098634 .39588929H.2630005C.3659973 .39588929 .37199403 .25875855 .37199403 .19569397 .37199403 .13163758 .36099244 .058563234 .29599 .022521973 .2769928 .011520386 .2559967 .006515503 .23498535 .006515503 .16499329 .006515503 .11399841 .05155945 .085998538 .117614749Z"/>
<path id="font_49_13" d="M.09298706 .60298159V.57199099C.14199829 .57199099 .1769867 .58099368 .22698975 .59799197V.07997131C.22698975 .033966066 .18899536 .031967164 .1329956 .031967164H.09899902V.0009765625H.43199159V.031967164C.4189911 .031967164 .40299989 .030975342 .3869934 .030975342 .33399964 .030975342 .3039856 .034973146 .3039856 .07997131V.6489868C.3039856 .6609955 .2999878 .6669922 .2869873 .6669922 .2709961 .6669922 .25898744 .6499939 .24699402 .6409912 .20098877 .61198428 .1459961 .60298159 .09298706 .60298159Z"/>
</defs>
<path transform="matrix(1,0,0,-1,.19980049,27.847504)" d="M0 0V26.354C0 26.904 .446 27.351 .996 27.351H27.351C27.901 27.351 28.347 26.904 28.347 26.354V0C28.347-.55 27.901-.996 27.351-.996H.996C.446-.996 0-.55 0 0Z" fill="#b3ccd6"/>
<path transform="matrix(1,0,0,-1,.19980049,27.847504)" stroke-width=".398" stroke-linecap="butt" stroke-miterlimit="10" stroke-linejoin="miter" fill="none" stroke="#000000" d="M0 0V26.354C0 26.904 .446 27.351 .996 27.351H27.351C27.901 27.351 28.347 26.904 28.347 26.354V0C28.347-.55 27.901-.996 27.351-.996H.996C.446-.996 0-.55 0 0Z"/>
<use data-text="x" xlink:href="#font_40_2" transform="matrix(11.955,0,0,-11.955,7.743,16.432007)"/>
<use data-text="1" xlink:href="#font_41_1" transform="matrix(7.97,0,0,-7.97,15.622,18.225007)"/>
<path transform="matrix(1,0,0,-1,.19980049,56.194307)" d="M0 0V26.354C0 26.905 .446 27.351 .996 27.351H27.351C27.901 27.351 28.347 26.905 28.347 26.354V0C28.347-.55 27.901-.996 27.351-.996H.996C.446-.996 0-.55 0 0Z" fill="#ffffff"/>
<path transform="matrix(1,0,0,-1,.19980049,56.194307)" stroke-width=".398" stroke-linecap="butt" stroke-miterlimit="10" stroke-linejoin="miter" fill="none" stroke="#000000" d="M0 0V26.354C0 26.905 .446 27.351 .996 27.351H27.351C27.901 27.351 28.347 26.905 28.347 26.354V0C28.347-.55 27.901-.996 27.351-.996H.996C.446-.996 0-.55 0 0Z"/>
<use data-text="4" xlink:href="#font_42_30" transform="matrix(11.955,0,0,-11.955,6.895,46.87201)"/>
<use data-text="." xlink:href="#font_42_44" transform="matrix(11.955,0,0,-11.955,12.752951,46.87201)"/>
<use data-text="5" xlink:href="#font_42_29" transform="matrix(11.955,0,0,-11.955,16.004712,46.87201)"/>
<path transform="matrix(1,0,0,-1,.19980049,112.8879)" d="M0 0V26.354C0 26.904 .446 27.351 .996 27.351H27.351C27.901 27.351 28.347 26.904 28.347 26.354V0C28.347-.55 27.901-.996 27.351-.996H.996C.446-.996 0-.55 0 0Z" fill="#ffffff"/>
<path transform="matrix(1,0,0,-1,.19980049,112.8879)" stroke-width=".398" stroke-linecap="butt" stroke-miterlimit="10" stroke-linejoin="miter" fill="none" stroke="#000000" d="M0 0V26.354C0 26.904 .446 27.351 .996 27.351H27.351C27.901 27.351 28.347 26.904 28.347 26.354V0C28.347-.55 27.901-.996 27.351-.996H.996C.446-.996 0-.55 0 0Z"/>
<use data-text="5" xlink:href="#font_42_29" transform="matrix(11.955,0,0,-11.955,11.447,103.56501)"/>
<path transform="matrix(1,0,0,-1,.19980049,141.2347)" d="M0 0V26.354C0 26.904 .446 27.351 .996 27.351H27.351C27.901 27.351 28.347 26.904 28.347 26.354V0C28.347-.55 27.901-.996 27.351-.996H.996C.446-.996 0-.55 0 0Z" fill="#f3f5f8"/>
<path transform="matrix(1,0,0,-1,.19980049,141.2347)" stroke-width=".398" stroke-linecap="butt" stroke-miterlimit="10" stroke-linejoin="miter" fill="none" stroke="#000000" d="M0 0V26.354C0 26.904 .446 27.351 .996 27.351H27.351C27.901 27.351 28.347 26.904 28.347 26.354V0C28.347-.55 27.901-.996 27.351-.996H.996C.446-.996 0-.55 0 0Z"/>
<use data-text="3" xlink:href="#font_42_51" transform="matrix(11.955,0,0,-11.955,11.447,131.91101)"/>
<path transform="matrix(1,0,0,-1,28.5466,27.847504)" d="M0 0V26.354C0 26.904 .446 27.351 .996 27.351H27.351C27.901 27.351 28.347 26.904 28.347 26.354V0C28.347-.55 27.901-.996 27.351-.996H.996C.446-.996 0-.55 0 0Z" fill="#b3ccd6"/>
<path transform="matrix(1,0,0,-1,28.5466,27.847504)" stroke-width=".398" stroke-linecap="butt" stroke-miterlimit="10" stroke-linejoin="miter" fill="none" stroke="#000000" d="M0 0V26.354C0 26.904 .446 27.351 .996 27.351H27.351C27.901 27.351 28.347 26.904 28.347 26.354V0C28.347-.55 27.901-.996 27.351-.996H.996C.446-.996 0-.55 0 0Z"/>
<use data-text="x" xlink:href="#font_40_2" transform="matrix(11.955,0,0,-11.955,36.09,16.432007)"/>
<use data-text="2" xlink:href="#font_41_2" transform="matrix(7.97,0,0,-7.97,43.968,18.225007)"/>
<path transform="matrix(1,0,0,-1,28.5466,56.194307)" d="M0 0V26.354C0 26.905 .446 27.351 .996 27.351H27.351C27.901 27.351 28.347 26.905 28.347 26.354V0C28.347-.55 27.901-.996 27.351-.996H.996C.446-.996 0-.55 0 0Z" fill="#ffffff"/>
<path transform="matrix(1,0,0,-1,28.5466,56.194307)" stroke-width=".398" stroke-linecap="butt" stroke-miterlimit="10" stroke-linejoin="miter" fill="none" stroke="#000000" d="M0 0V26.354C0 26.905 .446 27.351 .996 27.351H27.351C27.901 27.351 28.347 26.905 28.347 26.354V0C28.347-.55 27.901-.996 27.351-.996H.996C.446-.996 0-.55 0 0Z"/>
<use data-text="1" xlink:href="#font_42_40" transform="matrix(11.955,0,0,-11.955,35.242,46.87201)"/>
<use data-text="." xlink:href="#font_42_44" transform="matrix(11.955,0,0,-11.955,41.099954,46.87201)"/>
<use data-text="3" xlink:href="#font_42_51" transform="matrix(11.955,0,0,-11.955,44.35171,46.87201)"/>
<path transform="matrix(1,0,0,-1,28.5466,112.8879)" d="M0 0V26.354C0 26.904 .446 27.351 .996 27.351H27.351C27.901 27.351 28.347 26.904 28.347 26.354V0C28.347-.55 27.901-.996 27.351-.996H.996C.446-.996 0-.55 0 0Z" fill="#ffffff"/>
<path transform="matrix(1,0,0,-1,28.5466,112.8879)" stroke-width=".398" stroke-linecap="butt" stroke-miterlimit="10" stroke-linejoin="miter" fill="none" stroke="#000000" d="M0 0V26.354C0 26.904 .446 27.351 .996 27.351H27.351C27.901 27.351 28.347 26.904 28.347 26.354V0C28.347-.55 27.901-.996 27.351-.996H.996C.446-.996 0-.55 0 0Z"/>
<use data-text="1" xlink:href="#font_42_40" transform="matrix(11.955,0,0,-11.955,35.242,103.56501)"/>
<use data-text="." xlink:href="#font_42_44" transform="matrix(11.955,0,0,-11.955,41.099954,103.56501)"/>
<use data-text="5" xlink:href="#font_42_29" transform="matrix(11.955,0,0,-11.955,44.35171,103.56501)"/>
<path transform="matrix(1,0,0,-1,28.5466,141.2347)" d="M0 0V26.354C0 26.904 .446 27.351 .996 27.351H27.351C27.901 27.351 28.347 26.904 28.347 26.354V0C28.347-.55 27.901-.996 27.351-.996H.996C.446-.996 0-.55 0 0Z" fill="#f3f5f8"/>
<path transform="matrix(1,0,0,-1,28.5466,141.2347)" stroke-width=".398" stroke-linecap="butt" stroke-miterlimit="10" stroke-linejoin="miter" fill="none" stroke="#000000" d="M0 0V26.354C0 26.904 .446 27.351 .996 27.351H27.351C27.901 27.351 28.347 26.904 28.347 26.354V0C28.347-.55 27.901-.996 27.351-.996H.996C.446-.996 0-.55 0 0Z"/>
<use data-text="1" xlink:href="#font_42_40" transform="matrix(11.955,0,0,-11.955,35.242,131.91101)"/>
<use data-text="." xlink:href="#font_42_44" transform="matrix(11.955,0,0,-11.955,41.099954,131.91101)"/>
<use data-text="3" xlink:href="#font_42_51" transform="matrix(11.955,0,0,-11.955,44.35171,131.91101)"/>
<path transform="matrix(1,0,0,-1,56.8934,27.847504)" d="M0 0V26.354C0 26.904 .446 27.351 .996 27.351H27.351C27.901 27.351 28.347 26.904 28.347 26.354V0C28.347-.55 27.901-.996 27.351-.996H.996C.446-.996 0-.55 0 0Z" fill="#b3ccd6"/>
<path transform="matrix(1,0,0,-1,56.8934,27.847504)" stroke-width=".398" stroke-linecap="butt" stroke-miterlimit="10" stroke-linejoin="miter" fill="none" stroke="#000000" d="M0 0V26.354C0 26.904 .446 27.351 .996 27.351H27.351C27.901 27.351 28.347 26.904 28.347 26.354V0C28.347-.55 27.901-.996 27.351-.996H.996C.446-.996 0-.55 0 0Z"/>
<use data-text="x" xlink:href="#font_40_2" transform="matrix(11.955,0,0,-11.955,64.436,16.432007)"/>
<use data-text="3" xlink:href="#font_41_3" transform="matrix(7.97,0,0,-7.97,72.314998,18.225007)"/>
<path transform="matrix(1,0,0,-1,56.8934,56.194307)" d="M0 0V26.354C0 26.905 .446 27.351 .996 27.351H27.351C27.901 27.351 28.347 26.905 28.347 26.354V0C28.347-.55 27.901-.996 27.351-.996H.996C.446-.996 0-.55 0 0Z" fill="#ffffff"/>
<path transform="matrix(1,0,0,-1,56.8934,56.194307)" stroke-width=".398" stroke-linecap="butt" stroke-miterlimit="10" stroke-linejoin="miter" fill="none" stroke="#000000" d="M0 0V26.354C0 26.905 .446 27.351 .996 27.351H27.351C27.901 27.351 28.347 26.905 28.347 26.354V0C28.347-.55 27.901-.996 27.351-.996H.996C.446-.996 0-.55 0 0Z"/>
<use data-text="6" xlink:href="#font_42_48" transform="matrix(11.955,0,0,-11.955,65.214,46.87201)"/>
<use data-text="5" xlink:href="#font_42_29" transform="matrix(11.955,0,0,-11.955,71.071949,46.87201)"/>
<path transform="matrix(1,0,0,-1,56.8934,112.8879)" d="M0 0V26.354C0 26.904 .446 27.351 .996 27.351H27.351C27.901 27.351 28.347 26.904 28.347 26.354V0C28.347-.55 27.901-.996 27.351-.996H.996C.446-.996 0-.55 0 0Z" fill="#ffffff"/>
<path transform="matrix(1,0,0,-1,56.8934,112.8879)" stroke-width=".398" stroke-linecap="butt" stroke-miterlimit="10" stroke-linejoin="miter" fill="none" stroke="#000000" d="M0 0V26.354C0 26.904 .446 27.351 .996 27.351H27.351C27.901 27.351 28.347 26.904 28.347 26.354V0C28.347-.55 27.901-.996 27.351-.996H.996C.446-.996 0-.55 0 0Z"/>
<use data-text="8" xlink:href="#font_42_27" transform="matrix(11.955,0,0,-11.955,65.214,103.56501)"/>
<use data-text="9" xlink:href="#font_42_38" transform="matrix(11.955,0,0,-11.955,71.071949,103.56501)"/>
<path transform="matrix(1,0,0,-1,56.8934,141.2347)" d="M0 0V26.354C0 26.904 .446 27.351 .996 27.351H27.351C27.901 27.351 28.347 26.904 28.347 26.354V0C28.347-.55 27.901-.996 27.351-.996H.996C.446-.996 0-.55 0 0Z" fill="#f3f5f8"/>
<path transform="matrix(1,0,0,-1,56.8934,141.2347)" stroke-width=".398" stroke-linecap="butt" stroke-miterlimit="10" stroke-linejoin="miter" fill="none" stroke="#000000" d="M0 0V26.354C0 26.904 .446 27.351 .996 27.351H27.351C27.901 27.351 28.347 26.904 28.347 26.354V0C28.347-.55 27.901-.996 27.351-.996H.996C.446-.996 0-.55 0 0Z"/>
<use data-text="4" xlink:href="#font_42_30" transform="matrix(11.955,0,0,-11.955,65.214,131.91101)"/>
<use data-text="5" xlink:href="#font_42_29" transform="matrix(11.955,0,0,-11.955,71.071949,131.91101)"/>
<path transform="matrix(1,0,0,-1,85.240207,27.847504)" d="M0 0V26.354C0 26.904 .446 27.351 .996 27.351H27.351C27.901 27.351 28.347 26.904 28.347 26.354V0C28.347-.55 27.901-.996 27.351-.996H.996C.446-.996 0-.55 0 0Z" fill="#b3ccd6"/>
<path transform="matrix(1,0,0,-1,85.240207,27.847504)" stroke-width=".398" stroke-linecap="butt" stroke-miterlimit="10" stroke-linejoin="miter" fill="none" stroke="#000000" d="M0 0V26.354C0 26.904 .446 27.351 .996 27.351H27.351C27.901 27.351 28.347 26.904 28.347 26.354V0C28.347-.55 27.901-.996 27.351-.996H.996C.446-.996 0-.55 0 0Z"/>
<use data-text="x" xlink:href="#font_40_2" transform="matrix(11.955,0,0,-11.955,90.999,16.432007)"/>
<use data-text="t" xlink:href="#font_43_1" transform="matrix(7.97,0,0,-7.97,98.878,18.225007)"/>
<use data-text="1" xlink:href="#font_41_1" transform="matrix(7.97,0,0,-7.97,102.448558,18.225007)"/>
<path transform="matrix(1,0,0,-1,85.240207,56.194307)" d="M0 0V26.354C0 26.905 .446 27.351 .996 27.351H27.351C27.901 27.351 28.347 26.905 28.347 26.354V0C28.347-.55 27.901-.996 27.351-.996H.996C.446-.996 0-.55 0 0Z" fill="#ffffff"/>
<path transform="matrix(1,0,0,-1,85.240207,56.194307)" stroke-width=".398" stroke-linecap="butt" stroke-miterlimit="10" stroke-linejoin="miter" fill="none" stroke="#000000" d="M0 0V26.354C0 26.905 .446 27.351 .996 27.351H27.351C27.901 27.351 28.347 26.905 28.347 26.354V0C28.347-.55 27.901-.996 27.351-.996H.996C.446-.996 0-.55 0 0Z"/>
<use data-text="0" xlink:href="#font_42_57" transform="matrix(11.955,0,0,-11.955,91.935,46.87201)"/>
<use data-text="." xlink:href="#font_42_44" transform="matrix(11.955,0,0,-11.955,97.792949,46.87201)"/>
<use data-text="8" xlink:href="#font_42_27" transform="matrix(11.955,0,0,-11.955,101.04471,46.87201)"/>
<path transform="matrix(1,0,0,-1,85.240207,112.8879)" d="M0 0V26.354C0 26.904 .446 27.351 .996 27.351H27.351C27.901 27.351 28.347 26.904 28.347 26.354V0C28.347-.55 27.901-.996 27.351-.996H.996C.446-.996 0-.55 0 0Z" fill="#ffffff"/>
<path transform="matrix(1,0,0,-1,85.240207,112.8879)" stroke-width=".398" stroke-linecap="butt" stroke-miterlimit="10" stroke-linejoin="miter" fill="none" stroke="#000000" d="M0 0V26.354C0 26.904 .446 27.351 .996 27.351H27.351C27.901 27.351 28.347 26.904 28.347 26.354V0C28.347-.55 27.901-.996 27.351-.996H.996C.446-.996 0-.55 0 0Z"/>
<use data-text="0" xlink:href="#font_42_57" transform="matrix(11.955,0,0,-11.955,91.935,103.56501)"/>
<use data-text="." xlink:href="#font_42_44" transform="matrix(11.955,0,0,-11.955,97.792949,103.56501)"/>
<use data-text="7" xlink:href="#font_42_47" transform="matrix(11.955,0,0,-11.955,101.04471,103.56501)"/>
<path transform="matrix(1,0,0,-1,85.240207,141.2347)" d="M0 0V26.354C0 26.904 .446 27.351 .996 27.351H27.351C27.901 27.351 28.347 26.904 28.347 26.354V0C28.347-.55 27.901-.996 27.351-.996H.996C.446-.996 0-.55 0 0Z" fill="#f3f5f8"/>
<path transform="matrix(1,0,0,-1,85.240207,141.2347)" stroke-width=".398" stroke-linecap="butt" stroke-miterlimit="10" stroke-linejoin="miter" fill="none" stroke="#000000" d="M0 0V26.354C0 26.904 .446 27.351 .996 27.351H27.351C27.901 27.351 28.347 26.904 28.347 26.354V0C28.347-.55 27.901-.996 27.351-.996H.996C.446-.996 0-.55 0 0Z"/>
<use data-text="1" xlink:href="#font_42_40" transform="matrix(11.955,0,0,-11.955,91.935,131.91101)"/>
<use data-text="." xlink:href="#font_42_44" transform="matrix(11.955,0,0,-11.955,97.792949,131.91101)"/>
<use data-text="2" xlink:href="#font_42_52" transform="matrix(11.955,0,0,-11.955,101.04471,131.91101)"/>
<path transform="matrix(1,0,0,-1,113.58699,27.847504)" d="M0 0V26.354C0 26.904 .446 27.351 .996 27.351H27.351C27.901 27.351 28.347 26.904 28.347 26.354V0C28.347-.55 27.901-.996 27.351-.996H.996C.446-.996 0-.55 0 0Z" fill="#b3ccd6"/>
<path transform="matrix(1,0,0,-1,113.58699,27.847504)" stroke-width=".398" stroke-linecap="butt" stroke-miterlimit="10" stroke-linejoin="miter" fill="none" stroke="#000000" d="M0 0V26.354C0 26.904 .446 27.351 .996 27.351H27.351C27.901 27.351 28.347 26.904 28.347 26.354V0C28.347-.55 27.901-.996 27.351-.996H.996C.446-.996 0-.55 0 0Z"/>
<use data-text="x" xlink:href="#font_40_2" transform="matrix(11.955,0,0,-11.955,119.346,16.432007)"/>
<use data-text="t" xlink:href="#font_43_1" transform="matrix(7.97,0,0,-7.97,127.225,18.225007)"/>
<use data-text="2" xlink:href="#font_41_2" transform="matrix(7.97,0,0,-7.97,130.791,18.225007)"/>
<path transform="matrix(1,0,0,-1,113.58699,56.194307)" d="M0 0V26.354C0 26.905 .446 27.351 .996 27.351H27.351C27.901 27.351 28.347 26.905 28.347 26.354V0C28.347-.55 27.901-.996 27.351-.996H.996C.446-.996 0-.55 0 0Z" fill="#ffffff"/>
<path transform="matrix(1,0,0,-1,113.58699,56.194307)" stroke-width=".398" stroke-linecap="butt" stroke-miterlimit="10" stroke-linejoin="miter" fill="none" stroke="#000000" d="M0 0V26.354C0 26.905 .446 27.351 .996 27.351H27.351C27.901 27.351 28.347 26.905 28.347 26.354V0C28.347-.55 27.901-.996 27.351-.996H.996C.446-.996 0-.55 0 0Z"/>
<use data-text="1" xlink:href="#font_42_40" transform="matrix(11.955,0,0,-11.955,120.281,46.87201)"/>
<use data-text="." xlink:href="#font_42_44" transform="matrix(11.955,0,0,-11.955,126.13895,46.87201)"/>
<use data-text="1" xlink:href="#font_42_40" transform="matrix(11.955,0,0,-11.955,129.3907,46.87201)"/>
<path transform="matrix(1,0,0,-1,113.58699,112.8879)" d="M0 0V26.354C0 26.904 .446 27.351 .996 27.351H27.351C27.901 27.351 28.347 26.904 28.347 26.354V0C28.347-.55 27.901-.996 27.351-.996H.996C.446-.996 0-.55 0 0Z" fill="#ffffff"/>
<path transform="matrix(1,0,0,-1,113.58699,112.8879)" stroke-width=".398" stroke-linecap="butt" stroke-miterlimit="10" stroke-linejoin="miter" fill="none" stroke="#000000" d="M0 0V26.354C0 26.904 .446 27.351 .996 27.351H27.351C27.901 27.351 28.347 26.904 28.347 26.354V0C28.347-.55 27.901-.996 27.351-.996H.996C.446-.996 0-.55 0 0Z"/>
<use data-text="0" xlink:href="#font_42_57" transform="matrix(11.955,0,0,-11.955,120.281,103.56501)"/>
<use data-text="." xlink:href="#font_42_44" transform="matrix(11.955,0,0,-11.955,126.13895,103.56501)"/>
<use data-text="7" xlink:href="#font_42_47" transform="matrix(11.955,0,0,-11.955,129.3907,103.56501)"/>
<path transform="matrix(1,0,0,-1,113.58699,141.2347)" d="M0 0V26.354C0 26.904 .446 27.351 .996 27.351H27.351C27.901 27.351 28.347 26.904 28.347 26.354V0C28.347-.55 27.901-.996 27.351-.996H.996C.446-.996 0-.55 0 0Z" fill="#f3f5f8"/>
<path transform="matrix(1,0,0,-1,113.58699,141.2347)" stroke-width=".398" stroke-linecap="butt" stroke-miterlimit="10" stroke-linejoin="miter" fill="none" stroke="#000000" d="M0 0V26.354C0 26.904 .446 27.351 .996 27.351H27.351C27.901 27.351 28.347 26.904 28.347 26.354V0C28.347-.55 27.901-.996 27.351-.996H.996C.446-.996 0-.55 0 0Z"/>
<use data-text="1" xlink:href="#font_42_40" transform="matrix(11.955,0,0,-11.955,120.281,131.91101)"/>
<use data-text="." xlink:href="#font_42_44" transform="matrix(11.955,0,0,-11.955,126.13895,131.91101)"/>
<use data-text="8" xlink:href="#font_42_27" transform="matrix(11.955,0,0,-11.955,129.3907,131.91101)"/>
<path transform="matrix(1,0,0,-1,141.9339,27.847504)" d="M0 0V26.354C0 26.904 .446 27.351 .996 27.351H27.351C27.901 27.351 28.347 26.904 28.347 26.354V0C28.347-.55 27.901-.996 27.351-.996H.996C.446-.996 0-.55 0 0Z" fill="#b3ccd6"/>
<path transform="matrix(1,0,0,-1,141.9339,27.847504)" stroke-width=".398" stroke-linecap="butt" stroke-miterlimit="10" stroke-linejoin="miter" fill="none" stroke="#000000" d="M0 0V26.354C0 26.904 .446 27.351 .996 27.351H27.351C27.901 27.351 28.347 26.904 28.347 26.354V0C28.347-.55 27.901-.996 27.351-.996H.996C.446-.996 0-.55 0 0Z"/>
<use data-text="." xlink:href="#font_40_1" transform="matrix(11.955,0,0,-11.955,148.085,15.602005)"/>
<use data-text="." xlink:href="#font_40_1" transform="matrix(11.955,0,0,-11.955,154.194,15.602005)"/>
<use data-text="." xlink:href="#font_40_1" transform="matrix(11.955,0,0,-11.955,160.291,15.602005)"/>
<path transform="matrix(1,0,0,-1,141.9339,56.194307)" d="M0 0V26.354C0 26.905 .446 27.351 .996 27.351H27.351C27.901 27.351 28.347 26.905 28.347 26.354V0C28.347-.55 27.901-.996 27.351-.996H.996C.446-.996 0-.55 0 0Z" fill="#ffffff"/>
<path transform="matrix(1,0,0,-1,141.9339,56.194307)" stroke-width=".398" stroke-linecap="butt" stroke-miterlimit="10" stroke-linejoin="miter" fill="none" stroke="#000000" d="M0 0V26.354C0 26.905 .446 27.351 .996 27.351H27.351C27.901 27.351 28.347 26.905 28.347 26.354V0C28.347-.55 27.901-.996 27.351-.996H.996C.446-.996 0-.55 0 0Z"/>
<use data-text="." xlink:href="#font_44_1" transform="matrix(11.955,0,0,-11.955,149.235,43.599016)"/>
<use data-text="." xlink:href="#font_44_1" transform="matrix(11.955,0,0,-11.955,154.48325,43.599016)"/>
<use data-text="." xlink:href="#font_44_1" transform="matrix(11.955,0,0,-11.955,159.71953,43.599016)"/>
<path transform="matrix(1,0,0,-1,141.9339,112.8879)" d="M0 0V26.354C0 26.904 .446 27.351 .996 27.351H27.351C27.901 27.351 28.347 26.904 28.347 26.354V0C28.347-.55 27.901-.996 27.351-.996H.996C.446-.996 0-.55 0 0Z" fill="#ffffff"/>
<path transform="matrix(1,0,0,-1,141.9339,112.8879)" stroke-width=".398" stroke-linecap="butt" stroke-miterlimit="10" stroke-linejoin="miter" fill="none" stroke="#000000" d="M0 0V26.354C0 26.904 .446 27.351 .996 27.351H27.351C27.901 27.351 28.347 26.904 28.347 26.354V0C28.347-.55 27.901-.996 27.351-.996H.996C.446-.996 0-.55 0 0Z"/>
<use data-text="." xlink:href="#font_44_1" transform="matrix(11.955,0,0,-11.955,149.235,100.29201)"/>
<use data-text="." xlink:href="#font_44_1" transform="matrix(11.955,0,0,-11.955,154.483,100.29201)"/>
<use data-text="." xlink:href="#font_44_1" transform="matrix(11.955,0,0,-11.955,159.71933,100.29201)"/>
<path transform="matrix(1,0,0,-1,141.9339,141.2347)" d="M0 0V26.354C0 26.904 .446 27.351 .996 27.351H27.351C27.901 27.351 28.347 26.904 28.347 26.354V0C28.347-.55 27.901-.996 27.351-.996H.996C.446-.996 0-.55 0 0Z" fill="#f3f5f8"/>
<path transform="matrix(1,0,0,-1,141.9339,141.2347)" stroke-width=".398" stroke-linecap="butt" stroke-miterlimit="10" stroke-linejoin="miter" fill="none" stroke="#000000" d="M0 0V26.354C0 26.904 .446 27.351 .996 27.351H27.351C27.901 27.351 28.347 26.904 28.347 26.354V0C28.347-.55 27.901-.996 27.351-.996H.996C.446-.996 0-.55 0 0Z"/>
<use data-text="." xlink:href="#font_44_1" transform="matrix(11.955,0,0,-11.955,149.235,128.639)"/>
<use data-text="." xlink:href="#font_44_1" transform="matrix(11.955,0,0,-11.955,154.48325,128.639)"/>
<use data-text="." xlink:href="#font_44_1" transform="matrix(11.955,0,0,-11.955,159.71953,128.639)"/>
<path transform="matrix(1,0,0,-1,170.2807,27.847504)" d="M0 0V26.354C0 26.904 .446 27.351 .996 27.351H27.351C27.901 27.351 28.347 26.904 28.347 26.354V0C28.347-.55 27.901-.996 27.351-.996H.996C.446-.996 0-.55 0 0Z" fill="#b3ccd6"/>
<path transform="matrix(1,0,0,-1,170.2807,27.847504)" stroke-width=".398" stroke-linecap="butt" stroke-miterlimit="10" stroke-linejoin="miter" fill="none" stroke="#000000" d="M0 0V26.354C0 26.904 .446 27.351 .996 27.351H27.351C27.901 27.351 28.347 26.904 28.347 26.354V0C28.347-.55 27.901-.996 27.351-.996H.996C.446-.996 0-.55 0 0Z"/>
<use data-text="x" xlink:href="#font_40_2" transform="matrix(11.955,0,0,-11.955,171.157,16.432007)"/>
<use data-text="t" xlink:href="#font_43_1" transform="matrix(7.97,0,0,-7.97,179.036,18.225007)"/>
<use data-text="3" xlink:href="#font_41_3" transform="matrix(7.97,0,0,-7.97,182.60199,18.225007)"/>
<use data-text="6" xlink:href="#font_41_5" transform="matrix(7.97,0,0,-7.97,187.4876,18.225007)"/>
<use data-text="5" xlink:href="#font_41_4" transform="matrix(7.97,0,0,-7.97,192.3732,18.225007)"/>
<path transform="matrix(1,0,0,-1,170.2807,56.194307)" d="M0 0V26.354C0 26.905 .446 27.351 .996 27.351H27.351C27.901 27.351 28.347 26.905 28.347 26.354V0C28.347-.55 27.901-.996 27.351-.996H.996C.446-.996 0-.55 0 0Z" fill="#ffffff"/>
<path transform="matrix(1,0,0,-1,170.2807,56.194307)" stroke-width=".398" stroke-linecap="butt" stroke-miterlimit="10" stroke-linejoin="miter" fill="none" stroke="#000000" d="M0 0V26.354C0 26.905 .446 27.351 .996 27.351H27.351C27.901 27.351 28.347 26.905 28.347 26.354V0C28.347-.55 27.901-.996 27.351-.996H.996C.446-.996 0-.55 0 0Z"/>
<use data-text="2" xlink:href="#font_42_52" transform="matrix(11.955,0,0,-11.955,176.974,46.87201)"/>
<use data-text="." xlink:href="#font_42_44" transform="matrix(11.955,0,0,-11.955,182.83196,46.87201)"/>
<use data-text="1" xlink:href="#font_42_40" transform="matrix(11.955,0,0,-11.955,186.08371,46.87201)"/>
<path transform="matrix(1,0,0,-1,170.2807,112.8879)" d="M0 0V26.354C0 26.904 .446 27.351 .996 27.351H27.351C27.901 27.351 28.347 26.904 28.347 26.354V0C28.347-.55 27.901-.996 27.351-.996H.996C.446-.996 0-.55 0 0Z" fill="#ffffff"/>
<path transform="matrix(1,0,0,-1,170.2807,112.8879)" stroke-width=".398" stroke-linecap="butt" stroke-miterlimit="10" stroke-linejoin="miter" fill="none" stroke="#000000" d="M0 0V26.354C0 26.904 .446 27.351 .996 27.351H27.351C27.901 27.351 28.347 26.904 28.347 26.354V0C28.347-.55 27.901-.996 27.351-.996H.996C.446-.996 0-.55 0 0Z"/>
<use data-text="2" xlink:href="#font_42_52" transform="matrix(11.955,0,0,-11.955,176.974,103.56501)"/>
<use data-text="." xlink:href="#font_42_44" transform="matrix(11.955,0,0,-11.955,182.83196,103.56501)"/>
<use data-text="2" xlink:href="#font_42_52" transform="matrix(11.955,0,0,-11.955,186.08371,103.56501)"/>
<path transform="matrix(1,0,0,-1,170.2807,141.2347)" d="M0 0V26.354C0 26.904 .446 27.351 .996 27.351H27.351C27.901 27.351 28.347 26.904 28.347 26.354V0C28.347-.55 27.901-.996 27.351-.996H.996C.446-.996 0-.55 0 0Z" fill="#f3f5f8"/>
<path transform="matrix(1,0,0,-1,170.2807,141.2347)" stroke-width=".398" stroke-linecap="butt" stroke-miterlimit="10" stroke-linejoin="miter" fill="none" stroke="#000000" d="M0 0V26.354C0 26.904 .446 27.351 .996 27.351H27.351C27.901 27.351 28.347 26.904 28.347 26.354V0C28.347-.55 27.901-.996 27.351-.996H.996C.446-.996 0-.55 0 0Z"/>
<use data-text="4" xlink:href="#font_42_30" transform="matrix(11.955,0,0,-11.955,176.974,131.91101)"/>
<use data-text="." xlink:href="#font_42_44" transform="matrix(11.955,0,0,-11.955,182.83196,131.91101)"/>
<use data-text="3" xlink:href="#font_42_51" transform="matrix(11.955,0,0,-11.955,186.08371,131.91101)"/>
<path transform="matrix(1,0,0,-1,.19980049,84.54111)" d="M0 0V26.354C0 26.904 .446 27.351 .996 27.351H27.351C27.901 27.351 28.347 26.904 28.347 26.354V0C28.347-.55 27.901-.996 27.351-.996H.996C.446-.996 0-.55 0 0Z" fill="#f3f5f8"/>
<path transform="matrix(1,0,0,-1,.19980049,84.54111)" stroke-width=".398" stroke-linecap="butt" stroke-miterlimit="10" stroke-linejoin="miter" fill="none" stroke="#000000" d="M0 0V26.354C0 26.904 .446 27.351 .996 27.351H27.351C27.901 27.351 28.347 26.904 28.347 26.354V0C28.347-.55 27.901-.996 27.351-.996H.996C.446-.996 0-.55 0 0Z"/>
<use data-text="3" xlink:href="#font_42_51" transform="matrix(11.955,0,0,-11.955,11.447,75.21801)"/>
<path transform="matrix(1,0,0,-1,28.5466,84.54111)" d="M0 0V26.354C0 26.904 .446 27.351 .996 27.351H27.351C27.901 27.351 28.347 26.904 28.347 26.354V0C28.347-.55 27.901-.996 27.351-.996H.996C.446-.996 0-.55 0 0Z" fill="#f3f5f8"/>
<path transform="matrix(1,0,0,-1,28.5466,84.54111)" stroke-width=".398" stroke-linecap="butt" stroke-miterlimit="10" stroke-linejoin="miter" fill="none" stroke="#000000" d="M0 0V26.354C0 26.904 .446 27.351 .996 27.351H27.351C27.901 27.351 28.347 26.904 28.347 26.354V0C28.347-.55 27.901-.996 27.351-.996H.996C.446-.996 0-.55 0 0Z"/>
<use data-text="2" xlink:href="#font_42_52" transform="matrix(11.955,0,0,-11.955,35.242,75.21801)"/>
<use data-text="." xlink:href="#font_42_44" transform="matrix(11.955,0,0,-11.955,41.099954,75.21801)"/>
<use data-text="0" xlink:href="#font_42_57" transform="matrix(11.955,0,0,-11.955,44.35171,75.21801)"/>
<path transform="matrix(1,0,0,-1,56.8934,84.54111)" d="M0 0V26.354C0 26.904 .446 27.351 .996 27.351H27.351C27.901 27.351 28.347 26.904 28.347 26.354V0C28.347-.55 27.901-.996 27.351-.996H.996C.446-.996 0-.55 0 0Z" fill="#f3f5f8"/>
<path transform="matrix(1,0,0,-1,56.8934,84.54111)" stroke-width=".398" stroke-linecap="butt" stroke-miterlimit="10" stroke-linejoin="miter" fill="none" stroke="#000000" d="M0 0V26.354C0 26.904 .446 27.351 .996 27.351H27.351C27.901 27.351 28.347 26.904 28.347 26.354V0C28.347-.55 27.901-.996 27.351-.996H.996C.446-.996 0-.55 0 0Z"/>
<use data-text="8" xlink:href="#font_42_27" transform="matrix(11.955,0,0,-11.955,65.214,75.21801)"/>
<use data-text="3" xlink:href="#font_42_51" transform="matrix(11.955,0,0,-11.955,71.071949,75.21801)"/>
<path transform="matrix(1,0,0,-1,85.240207,84.54111)" d="M0 0V26.354C0 26.904 .446 27.351 .996 27.351H27.351C27.901 27.351 28.347 26.904 28.347 26.354V0C28.347-.55 27.901-.996 27.351-.996H.996C.446-.996 0-.55 0 0Z" fill="#bba3c1"/>
<path transform="matrix(1,0,0,-1,85.240207,84.54111)" stroke-width=".398" stroke-linecap="butt" stroke-miterlimit="10" stroke-linejoin="miter" fill="none" stroke="#000000" d="M0 0V26.354C0 26.904 .446 27.351 .996 27.351H27.351C27.901 27.351 28.347 26.904 28.347 26.354V0C28.347-.55 27.901-.996 27.351-.996H.996C.446-.996 0-.55 0 0Z"/>
<use data-text="0" xlink:href="#font_42_57" transform="matrix(11.955,0,0,-11.955,91.935,75.21801)"/>
<use data-text="." xlink:href="#font_42_44" transform="matrix(11.955,0,0,-11.955,97.792949,75.21801)"/>
<use data-text="5" xlink:href="#font_42_29" transform="matrix(11.955,0,0,-11.955,101.04471,75.21801)"/>
<path transform="matrix(1,0,0,-1,113.58699,84.54111)" d="M0 0V26.354C0 26.904 .446 27.351 .996 27.351H27.351C27.901 27.351 28.347 26.904 28.347 26.354V0C28.347-.55 27.901-.996 27.351-.996H.996C.446-.996 0-.55 0 0Z" fill="#bba3c1"/>
<path transform="matrix(1,0,0,-1,113.58699,84.54111)" stroke-width=".398" stroke-linecap="butt" stroke-miterlimit="10" stroke-linejoin="miter" fill="none" stroke="#000000" d="M0 0V26.354C0 26.904 .446 27.351 .996 27.351H27.351C27.901 27.351 28.347 26.904 28.347 26.354V0C28.347-.55 27.901-.996 27.351-.996H.996C.446-.996 0-.55 0 0Z"/>
<use data-text="0" xlink:href="#font_42_57" transform="matrix(11.955,0,0,-11.955,120.281,75.21801)"/>
<use data-text="." xlink:href="#font_42_44" transform="matrix(11.955,0,0,-11.955,126.13895,75.21801)"/>
<use data-text="4" xlink:href="#font_42_30" transform="matrix(11.955,0,0,-11.955,129.3907,75.21801)"/>
<path transform="matrix(1,0,0,-1,141.9339,84.54111)" d="M0 0V26.354C0 26.904 .446 27.351 .996 27.351H27.351C27.901 27.351 28.347 26.904 28.347 26.354V0C28.347-.55 27.901-.996 27.351-.996H.996C.446-.996 0-.55 0 0Z" fill="#bba3c1"/>
<path transform="matrix(1,0,0,-1,141.9339,84.54111)" stroke-width=".398" stroke-linecap="butt" stroke-miterlimit="10" stroke-linejoin="miter" fill="none" stroke="#000000" d="M0 0V26.354C0 26.904 .446 27.351 .996 27.351H27.351C27.901 27.351 28.347 26.904 28.347 26.354V0C28.347-.55 27.901-.996 27.351-.996H.996C.446-.996 0-.55 0 0Z"/>
<use data-text="." xlink:href="#font_44_1" transform="matrix(11.955,0,0,-11.955,149.235,71.94601)"/>
<use data-text="." xlink:href="#font_44_1" transform="matrix(11.955,0,0,-11.955,154.48325,71.94601)"/>
<use data-text="." xlink:href="#font_44_1" transform="matrix(11.955,0,0,-11.955,159.71953,71.94601)"/>
<path transform="matrix(1,0,0,-1,170.2807,84.54111)" d="M0 0V26.354C0 26.904 .446 27.351 .996 27.351H27.351C27.901 27.351 28.347 26.904 28.347 26.354V0C28.347-.55 27.901-.996 27.351-.996H.996C.446-.996 0-.55 0 0Z" fill="#bba3c1"/>
<path transform="matrix(1,0,0,-1,170.2807,84.54111)" stroke-width=".398" stroke-linecap="butt" stroke-miterlimit="10" stroke-linejoin="miter" fill="none" stroke="#000000" d="M0 0V26.354C0 26.904 .446 27.351 .996 27.351H27.351C27.901 27.351 28.347 26.904 28.347 26.354V0C28.347-.55 27.901-.996 27.351-.996H.996C.446-.996 0-.55 0 0Z"/>
<use data-text="0" xlink:href="#font_42_57" transform="matrix(11.955,0,0,-11.955,176.974,75.21801)"/>
<use data-text="." xlink:href="#font_42_44" transform="matrix(11.955,0,0,-11.955,182.83196,75.21801)"/>
<use data-text="0" xlink:href="#font_42_57" transform="matrix(11.955,0,0,-11.955,186.08371,75.21801)"/>
<path transform="matrix(1,0,0,-1,85.240207,141.2347)" stroke-width=".996" stroke-linecap="butt" stroke-miterlimit="10" stroke-linejoin="miter" fill="none" stroke="#797979" d="M0 0V139.741C0 140.292 .446 140.738 .996 140.738H112.391C112.941 140.738 113.387 140.292 113.387 139.741V0C113.387-.55 112.941-.996 112.391-.996H.996C.446-.996 0-.55 0 0Z"/>
<path transform="matrix(1,0,0,-1,3.0347005,147.9003)" stroke-width=".797" stroke-linecap="butt" stroke-miterlimit="10" stroke-linejoin="miter" fill="none" stroke="#000000" d="M0 0C.897-1.793 2.989-2.989 5.978-2.989H33.708C36.697-2.989 38.789-4.184 39.685-5.978 40.582-4.184 42.674-2.989 45.663-2.989H73.393C76.382-2.989 78.474-1.793 79.148-.446"/>
<use data-text="R" xlink:href="#font_45_17" transform="matrix(9.963,0,0,-9.963,5.728,166.98401)"/>
<use data-text="e" xlink:href="#font_45_29" transform="matrix(9.963,0,0,-9.963,13.060769,166.98401)"/>
<use data-text="g" xlink:href="#font_45_33" transform="matrix(9.963,0,0,-9.963,17.48434,166.98401)"/>
<use data-text="u" xlink:href="#font_45_54" transform="matrix(9.963,0,0,-9.963,22.465842,166.98401)"/>
<use data-text="l" xlink:href="#font_45_39" transform="matrix(9.963,0,0,-9.963,27.995306,166.98401)"/>
<use data-text="a" xlink:href="#font_45_23" transform="matrix(9.963,0,0,-9.963,30.76502,166.98401)"/>
<use data-text="r" xlink:href="#font_45_49" transform="matrix(9.963,0,0,-9.963,35.74652,166.98401)"/>
<use data-text="F" xlink:href="#font_45_6" transform="matrix(9.963,0,0,-9.963,42.968,166.98401)"/>
<use data-text="e" xlink:href="#font_45_29" transform="matrix(9.963,0,0,-9.963,48.64691,166.98401)"/>
<use data-text="a" xlink:href="#font_45_23" transform="matrix(9.963,0,0,-9.963,53.070486,166.98401)"/>
<use data-text="t" xlink:href="#font_45_51" transform="matrix(9.963,0,0,-9.963,58.051984,166.98401)"/>
<use data-text="u" xlink:href="#font_45_54" transform="matrix(9.963,0,0,-9.963,61.92759,166.98401)"/>
<use data-text="r" xlink:href="#font_45_49" transform="matrix(9.963,0,0,-9.963,67.457057,166.98401)"/>
<use data-text="e" xlink:href="#font_45_29" transform="matrix(9.963,0,0,-9.963,71.36255,166.98401)"/>
<use data-text="s" xlink:href="#font_45_50" transform="matrix(9.963,0,0,-9.963,75.78612,166.98401)"/>
<path transform="matrix(1,0,0,-1,88.0751,147.9003)" stroke-width=".797" stroke-linecap="butt" stroke-miterlimit="10" stroke-linejoin="miter" fill="none" stroke="#000000" d="M0 0C.897-1.793 2.989-2.989 5.978-2.989H47.881C50.87-2.989 52.962-4.184 53.859-5.978 54.755-4.184 56.848-2.989 59.836-2.989H101.74C104.729-2.989 106.821-1.793 107.495-.446"/>
<use data-text="F" xlink:href="#font_45_6" transform="matrix(9.963,0,0,-9.963,98.868,166.98401)"/>
<use data-text="u" xlink:href="#font_45_54" transform="matrix(9.963,0,0,-9.963,104.546909,166.98401)"/>
<use data-text="n" xlink:href="#font_45_41" transform="matrix(9.963,0,0,-9.963,110.07637,166.98401)"/>
<use data-text="c" xlink:href="#font_45_25" transform="matrix(9.963,0,0,-9.963,115.605838,166.98401)"/>
<use data-text="t" xlink:href="#font_45_51" transform="matrix(9.963,0,0,-9.963,120.0294,166.98401)"/>
<use data-text="i" xlink:href="#font_45_36" transform="matrix(9.963,0,0,-9.963,123.905017,166.98401)"/>
<use data-text="o" xlink:href="#font_45_42" transform="matrix(9.963,0,0,-9.963,126.67473,166.98401)"/>
<use data-text="n" xlink:href="#font_45_41" transform="matrix(9.963,0,0,-9.963,131.65624,166.98401)"/>
<use data-text="a" xlink:href="#font_45_23" transform="matrix(9.963,0,0,-9.963,137.1857,166.98401)"/>
<use data-text="l" xlink:href="#font_45_39" transform="matrix(9.963,0,0,-9.963,142.1672,166.98401)"/>
<use data-text="F" xlink:href="#font_45_6" transform="matrix(9.963,0,0,-9.963,148.2546,166.98401)"/>
<use data-text="e" xlink:href="#font_45_29" transform="matrix(9.963,0,0,-9.963,153.9335,166.98401)"/>
<use data-text="a" xlink:href="#font_45_23" transform="matrix(9.963,0,0,-9.963,158.35707,166.98401)"/>
<use data-text="t" xlink:href="#font_45_51" transform="matrix(9.963,0,0,-9.963,163.33858,166.98401)"/>
<use data-text="u" xlink:href="#font_45_54" transform="matrix(9.963,0,0,-9.963,167.21419,166.98401)"/>
<use data-text="r" xlink:href="#font_45_49" transform="matrix(9.963,0,0,-9.963,172.74365,166.98401)"/>
<use data-text="e" xlink:href="#font_45_29" transform="matrix(9.963,0,0,-9.963,176.64916,166.98401)"/>
<use data-text="s" xlink:href="#font_45_50" transform="matrix(9.963,0,0,-9.963,181.07273,166.98401)"/>
<use data-text="e" xlink:href="#font_45_29" transform="matrix(9.963,0,0,-9.963,100.94299,178.93901)"/>
<use data-text="." xlink:href="#font_45_47" transform="matrix(9.963,0,0,-9.963,105.36656,178.93901)"/>
<use data-text="g" xlink:href="#font_45_33" transform="matrix(9.963,0,0,-9.963,108.13628,178.93901)"/>
<use data-text="." xlink:href="#font_45_47" transform="matrix(9.963,0,0,-9.963,113.117778,178.93901)"/>
<use data-text="&quot;" xlink:href="#font_45_48" transform="matrix(9.963,0,0,-9.963,120.311069,178.93901)"/>
<use data-text="d" xlink:href="#font_45_28" transform="matrix(9.963,0,0,-9.963,125.292568,178.93901)"/>
<use data-text="a" xlink:href="#font_45_23" transform="matrix(9.963,0,0,-9.963,130.82204,178.93901)"/>
<use data-text="y" xlink:href="#font_45_57" transform="matrix(9.963,0,0,-9.963,135.53455,178.93901)"/>
<use data-text="s" xlink:href="#font_45_50" transform="matrix(9.963,0,0,-9.963,140.78505,178.93901)"/>
<use data-text="i" xlink:href="#font_45_36" transform="matrix(9.963,0,0,-9.963,148.0381,178.93901)"/>
<use data-text="n" xlink:href="#font_45_41" transform="matrix(9.963,0,0,-9.963,150.80782,178.93901)"/>
<use data-text="y" xlink:href="#font_45_57" transform="matrix(9.963,0,0,-9.963,159.65496,178.93901)"/>
<use data-text="e" xlink:href="#font_45_29" transform="matrix(9.963,0,0,-9.963,164.63646,178.93901)"/>
<use data-text="a" xlink:href="#font_45_23" transform="matrix(9.963,0,0,-9.963,169.06003,178.93901)"/>
<use data-text="r" xlink:href="#font_45_49" transform="matrix(9.963,0,0,-9.963,174.04154,178.93901)"/>
<use data-text="&quot;" xlink:href="#font_45_48" transform="matrix(9.963,0,0,-9.963,177.94704,178.93901)"/>
<path transform="matrix(1,0,0,-1,249.6518,112.8879)" stroke-width=".996" stroke-linecap="butt" stroke-dasharray="2.989,2.989" stroke-miterlimit="10" stroke-linejoin="miter" fill="none" stroke="#797979" d="M0 0V83.048C0 83.598 .446 84.044 .996 84.044H169.085C169.635 84.044 170.081 83.598 170.081 83.048V0C170.081-.55 169.635-.996 169.085-.996H.996C.446-.996 0-.55 0 0Z"/>
<path transform="matrix(1,0,0,-1,269.4945,79.8681)" stroke-width=".199" stroke-linecap="butt" stroke-miterlimit="10" stroke-linejoin="miter" fill="none" stroke="#cbcbcb" d="M0 0H138.899M0 14.173H138.899M0 28.347H138.899M19.843-14.173V34.016M48.189-14.173V34.016M76.536-14.173V34.016M104.883-14.173V34.016M133.23-14.173V34.016"/>
<path transform="matrix(1,0,0,-1,269.4945,94.041507)" stroke-width=".797" stroke-linecap="butt" stroke-miterlimit="10" stroke-linejoin="miter" fill="none" stroke="#929292" d="M0 0H138.454"/>
<path transform="matrix(1,0,0,-1,410.33186,94.041538)" d="M0 0-2.184 1.99V0-1.99Z" fill="#929292"/>
<path transform="matrix(1,0,0,-1,410.33186,94.041538)" stroke-width=".797" stroke-linecap="butt" stroke-linejoin="round" fill="none" stroke="#929292" d="M0 0-2.184 1.99V0-1.99Z"/>
<use data-text="x" xlink:href="#font_46_3" transform="matrix(9.963,0,0,-9.963,332.162,108.16501)"/>
<use data-text="(" xlink:href="#font_47_1" transform="matrix(6.974,0,0,-6.974,337.856,102.990009)"/>
<use data-text="2" xlink:href="#font_47_3" transform="matrix(6.974,0,0,-6.974,340.9664,102.990009)"/>
<use data-text=")" xlink:href="#font_47_2" transform="matrix(6.974,0,0,-6.974,344.9416,102.990009)"/>
<use data-text="t" xlink:href="#font_48_1" transform="matrix(6.974,0,0,-6.974,337.856,110.617008)"/>
<path transform="matrix(1,0,0,-1,269.4945,94.041507)" stroke-width=".797" stroke-linecap="butt" stroke-miterlimit="10" stroke-linejoin="miter" fill="none" stroke="#929292" d="M0 0V47.744"/>
<path transform="matrix(0,-1,-1,-0,269.4945,43.91385)" d="M0 0-2.184 1.99V0-1.99Z" fill="#929292"/>
<path transform="matrix(0,-1,-1,-0,269.4945,43.91385)" stroke-width=".797" stroke-linecap="butt" stroke-linejoin="round" fill="none" stroke="#929292" d="M0 0-2.184 1.99V0-1.99Z"/>
<path transform="matrix(1,0,0,-1,266.6596,94.041507)" stroke-width=".398" stroke-linecap="butt" stroke-miterlimit="10" stroke-linejoin="miter" fill="none" stroke="#929292" d="M0 0H5.172"/>
<use data-text="0" xlink:href="#font_49_18" transform="matrix(8.966,0,0,-8.966,253.484,96.92501)"/>
<use data-text="." xlink:href="#font_49_15" transform="matrix(8.966,0,0,-8.966,258.09254,96.92501)"/>
<use data-text="0" xlink:href="#font_49_18" transform="matrix(8.966,0,0,-8.966,260.64784,96.92501)"/>
<path transform="matrix(1,0,0,-1,266.6596,79.8681)" stroke-width=".398" stroke-linecap="butt" stroke-miterlimit="10" stroke-linejoin="miter" fill="none" stroke="#929292" d="M0 0H5.172"/>
<use data-text="0" xlink:href="#font_49_18" transform="matrix(8.966,0,0,-8.966,253.484,82.75201)"/>
<use data-text="." xlink:href="#font_49_15" transform="matrix(8.966,0,0,-8.966,258.09254,82.75201)"/>
<use data-text="5" xlink:href="#font_49_8" transform="matrix(8.966,0,0,-8.966,260.64784,82.75201)"/>
<path transform="matrix(1,0,0,-1,266.6596,65.6947)" stroke-width=".398" stroke-linecap="butt" stroke-miterlimit="10" stroke-linejoin="miter" fill="none" stroke="#929292" d="M0 0H5.172"/>
<use data-text="1" xlink:href="#font_49_13" transform="matrix(8.966,0,0,-8.966,253.484,68.57801)"/>
<use data-text="." xlink:href="#font_49_15" transform="matrix(8.966,0,0,-8.966,258.09254,68.57801)"/>
<use data-text="0" xlink:href="#font_49_18" transform="matrix(8.966,0,0,-8.966,260.64784,68.57801)"/>
<path transform="matrix(1,0,0,-1,266.6596,51.5213)" stroke-width=".398" stroke-linecap="butt" stroke-miterlimit="10" stroke-linejoin="miter" fill="none" stroke="#929292" d="M0 0H5.172"/>
<use data-text="1" xlink:href="#font_49_13" transform="matrix(8.966,0,0,-8.966,253.484,54.405015)"/>
<use data-text="." xlink:href="#font_49_15" transform="matrix(8.966,0,0,-8.966,258.09254,54.405015)"/>
<use data-text="5" xlink:href="#font_49_8" transform="matrix(8.966,0,0,-8.966,260.64784,54.405015)"/>
<path transform="matrix(1,0,0,-1,269.4945,79.8681)" stroke-width=".996" stroke-linecap="butt" stroke-miterlimit="10" stroke-linejoin="miter" fill="none" stroke="#000000" d="M0 0H2.835L5.67-2.835 8.505-11.339 14.174-14.174H28.347L31.182-11.339 34.017 14.173 35.434 17.008 36.852-11.339 39.687-12.756H51.025L51.734-12.048 52.442-12.756 53.151-12.048 53.859-12.756 54.568-11.764 55.985-12.473 56.693-11.764 57.402-14.174H60.237 80.079L81.497-2.835 84.332 0 85.749-12.756 87.167-14.174 88.584-2.835 90.001-14.174H92.836L94.254-2.835 94.537 0 95.954-14.174H110.128L111.545-2.835 114.38-2.127 115.797-14.174H135.142"/>
<path transform="matrix(1,0,0,-1,214.6239,71.364009)" stroke-width="9.963" stroke-linecap="butt" stroke-miterlimit="10" stroke-linejoin="miter" fill="none" stroke="#929292" d="M0 0H18.533"/>
<path transform="matrix(-1,0,0,1,206.21239,71.364009)" d="M0 0-8.162 6.547V0-6.547Z" fill="#929292"/>
<path transform="matrix(-1,0,0,1,206.21239,71.364009)" stroke-width=".996" stroke-linecap="butt" stroke-linejoin="round" fill="none" stroke="#929292" d="M0 0-8.162 6.547V0-6.547Z"/>
<path transform="matrix(1,0,0,-1,241.56876,71.364009)" d="M0 0-8.162 6.547V0-6.547Z" fill="#929292"/>
<path transform="matrix(1,0,0,-1,241.56876,71.364009)" stroke-width=".996" stroke-linecap="butt" stroke-linejoin="round" fill="none" stroke="#929292" d="M0 0-8.162 6.547V0-6.547Z"/>
</svg>
