<svg xmlns="http://www.w3.org/2000/svg" xmlns:xlink="http://www.w3.org/1999/xlink" version="1.1" width="198.824pt" height="142.131pt" viewBox="0 0 198.824 142.131">
<defs>
<path id="font_33_1" d="M.42099 .55693057V.5859375H.067993167V.55693057H.42099Z"/>
<path id="font_34_3" d="M.47399903 .40820313C.44198609 .40219117 .42999269 .3781891 .42999269 .3591919 .42999269 .33518983 .44898988 .3271942 .46299745 .3271942 .49299623 .3271942 .5139923 .3531952 .5139923 .380188 .5139923 .4223938 .46598817 .44140626 .42399598 .44140626 .36299134 .44140626 .32899476 .38119508 .31999208 .36219789 .29699708 .4373932 .23498535 .44140626 .21699524 .44140626 .114990238 .44140626 .06098938 .31021119 .06098938 .28822328 .06098938 .28422547 .06498718 .27923585 .07199097 .27923585 .07998657 .27923585 .08198547 .28523255 .083999637 .2892151 .117996219 .40019227 .18499756 .42140199 .21398926 .42140199 .25898744 .42140199 .2679901 .37919618 .2679901 .3551941 .2679901 .33319093 .2619934 .31021119 .25 .26223756L.21598816 .12535095C.20098877 .06535339 .17199707 .010223389 .11898804 .010223389 .11399841 .010223389 .08898926 .010223389 .067993167 .023330689 .10398865 .03036499 .11199951 .06036377 .11199951 .07235718 .11199951 .09236145 .09700012 .10435486 .07798767 .10435486 .053985597 .10435486 .027999878 .083358768 .027999878 .051361085 .027999878 .009231567 .07499695-.009765625 .117996219-.009765625 .1659851-.009765625 .19999695 .028366089 .22099304 .069366458 .23699951 .010223389 .2869873-.009765625 .32398988-.009765625 .42599488-.009765625 .47999574 .12135315 .47999574 .1433258 .47999574 .14833069 .47599793 .15232849 .46998597 .15232849 .46099855 .15232849 .45999146 .14732361 .45700074 .139328 .42999269 .051361085 .37199403 .010223389 .32699586 .010223389 .2919922 .010223389 .272995 .036361696 .272995 .07736206 .272995 .099365238 .2769928 .115356449 .29299928 .18130493L.32798768 .3171997C.34298707 .37719728 .3769989 .42140199 .4229889 .42140199 .4249878 .42140199 .45298768 .42140199 .47399903 .40820313Z"/>
<path id="font_33_2" d="M.6749878 .32421876C.68899539 .32421876 .70700076 .32421876 .70700076 .34220887 .70700076 .36120606 .6899872 .36120606 .6749878 .36120606H.085998538C.07199097 .36120606 .053985597 .36120606 .053985597 .34321595 .053985597 .32421876 .070999149 .32421876 .085998538 .32421876H.6749878M.6749878 .13780213C.68899539 .13780213 .70700076 .13780213 .70700076 .15579224 .70700076 .17480469 .6899872 .17480469 .6749878 .17480469H.085998538C.07199097 .17480469 .053985597 .17480469 .053985597 .15679932 .053985597 .13780213 .070999149 .13780213 .085998538 .13780213H.6749878Z"/>
<path id="font_35_2" d="M.2939911 .64004519C.2939911 .66400149 .2939911 .6660156 .2709961 .6660156 .20899964 .60227969 .12098694 .60227969 .08898926 .60227969V.57128909C.10899353 .57128909 .16799927 .57128909 .21998596 .5972748V.07902527C.21998596 .042999269 .21699524 .0309906 .1269989 .0309906H.09498596V0C.12998963 .0029907227 .21699524 .0029907227 .25698854 .0029907227 .29699708 .0029907227 .38398744 .0029907227 .4189911 0V.0309906H.3869934C.29699708 .0309906 .2939911 .041992189 .2939911 .07902527V.64004519Z"/>
<path id="font_36_1" d="M.19198609 .052993776C.19198609 .08198547 .16799927 .10598755 .13899231 .10598755 .10998535 .10598755 .085998538 .08198547 .085998538 .052993776 .085998538 .023986817 .10998535 0 .13899231 0 .16799927 0 .19198609 .023986817 .19198609 .052993776Z"/>
<path id="font_35_4" d="M.2899933 .35191346C.37199403 .37893678 .42999269 .4490509 .42999269 .52809146 .42999269 .6100464 .34199525 .6660156 .24598694 .6660156 .14498902 .6660156 .068984989 .60606387 .068984989 .53009036 .068984989 .49710084 .09098816 .47808839 .11999512 .47808839 .15098572 .47808839 .17098999 .50009158 .17098999 .5290985 .17098999 .57910159 .12399292 .57910159 .10899353 .57910159 .13999939 .62802127 .20599365 .64100649 .24198914 .64100649 .2829895 .64100649 .33799745 .6190338 .33799745 .5290985 .33799745 .51708987 .33599855 .45906068 .30999757 .4149933 .27999879 .36691285 .24598694 .36390687 .22099304 .36291505 .21299744 .36190797 .18899536 .35990907 .18199158 .35990907 .17399597 .35890199 .16699219 .35791017 .16699219 .3479004 .16699219 .33691407 .17399597 .33691407 .19099427 .33691407H.23498535C.31698609 .33691407 .35398866 .2686615 .35398866 .17037964 .35398866 .034469606 .2849884 .0055389406 .24099732 .0055389406 .19799805 .0055389406 .12298584 .022491456 .08799744 .08137512 .12298584 .07637024 .1539917 .09837341 .1539917 .1363678 .1539917 .17237854 .1269989 .19238281 .09799194 .19238281 .07398987 .19238281 .041992189 .17837525 .041992189 .1343689 .041992189 .043441774 .1349945-.022460938 .24398804-.022460938 .3659973-.022460938 .45700074 .06838989 .45700074 .17037964 .45700074 .252594 .3939972 .33088685 .2899933 .35191346Z"/>
<path id="font_35_1" d="M.40899659 .23046875H.6879883C.70199587 .23046875 .72099307 .23046875 .72099307 .25045777 .72099307 .27046205 .70199587 .27046205 .6879883 .27046205H.40899659V.5500183C.40899659 .56399539 .40899659 .5830078 .3889923 .5830078 .36898805 .5830078 .36898805 .56399539 .36898805 .5500183V.27046205H.08898926C.07499695 .27046205 .055999757 .27046205 .055999757 .25045777 .055999757 .23046875 .07499695 .23046875 .08898926 .23046875H.36898805V-.05000305C.36898805-.06401062 .36898805-.08300781 .3889923-.08300781 .40899659-.08300781 .40899659-.06401062 .40899659-.05000305V.23046875Z"/>
<path id="font_35_5" d="M.44898988 .20022583C.44898988 .3193512 .36698915 .41944886 .25898744 .41944886 .21099854 .41944886 .16799927 .40345765 .13198853 .36842347V.5637665C.1519928 .5577698 .18499756 .55078127 .21699524 .55078127 .33999635 .55078127 .4099884 .6417694 .4099884 .6547699 .4099884 .6607666 .40699769 .6657715 .3999939 .6657715 .39898683 .6657715 .39698792 .6657715 .3919983 .66278079 .37199403 .6537781 .32299806 .6337738 .2559967 .6337738 .21598816 .6337738 .16999817 .6407776 .12298584 .6617737 .114990238 .66477969 .11299133 .66477969 .11099243 .66477969 .100997928 .66477969 .100997928 .6567688 .100997928 .6407776V.34439088C.100997928 .32637025 .100997928 .31835938 .114990238 .31835938 .12199402 .31835938 .12399292 .32136537 .12799073 .32736207 .13899231 .3433838 .17599488 .39746095 .25698854 .39746095 .30899049 .39746095 .33399964 .35139466 .34199525 .33337403 .35798646 .29632569 .3600006 .25727845 .3600006 .20722962 .3600006 .17222595 .3600006 .11222839 .33599855 .07035828 .31199647 .031463624 .2749939 .0055389406 .22898865 .0055389406 .1559906 .0055389406 .09899902 .058380128 .08198547 .11723328 .084991458 .1162262 .08799744 .115234378 .09899902 .115234378 .13198853 .115234378 .14898682 .14022827 .14898682 .16423035 .14898682 .18823242 .13198853 .21322632 .09899902 .21322632 .084991458 .21322632 .049987794 .20622254 .049987794 .16023255 .049987794 .07434082 .11898804-.022460938 .23098755-.022460938 .34700013-.022460938 .44898988 .073349 .44898988 .20022583Z"/>
<path id="font_35_3" d="M.1269989 .07699585 .23298645 .18003845C.3889923 .31811524 .44898988 .3721466 .44898988 .47216798 .44898988 .5860901 .35899354 .6660156 .23699951 .6660156 .12399292 .6660156 .049987794 .57411196 .049987794 .48516847 .049987794 .4291687 .099990848 .4291687 .102996829 .4291687 .11999512 .4291687 .15499878 .44117738 .15499878 .48217774 .15499878 .5081787 .13699341 .5341797 .101989749 .5341797 .09399414 .5341797 .09199524 .5341797 .08898926 .5331726 .11199951 .59806826 .1659851 .63500979 .22399903 .63500979 .31498719 .63500979 .35798646 .5541382 .35798646 .47216798 .35798646 .39215089 .30799867 .31311036 .25299073 .25108338L.06098938 .036987306C.049987794 .025985718 .049987794 .023986817 .049987794 0H.42099L.44898988 .17404175H.42399598C.4189911 .14402771 .4119873 .1000061 .4019928 .084991458 .394989 .07699585 .32899476 .07699585 .30699159 .07699585H.1269989Z"/>
<path id="font_37_3" d="M.037994386 .68652346V.6435089H.14399719V.06295776C.14399719 .04597473 .10398865 .04397583 .069992069 .04397583H.037994386V.0009765625H.2979889V.04397583C.28399659 .04397583 .2679901 .04296875 .25299073 .04296875 .21998596 .04296875 .19198609 .046966554 .19198609 .06794739V.60754397C.23399353 .5585785 .27398683 .5086212 .31498719 .45864869 .43798829 .30976869 .5589905 .16087342 .6839905 .012969971 .69099429 .003967285 .69599917 .0009765625 .70599368 .0009765625H.71199038C.7259979 .0009765625 .73399356 .0069732668 .73399356 .021972657V.62153628C.73399356 .64151 .7689972 .644516 .8019867 .644516 .81599429 .644516 .82899478 .6435089 .83999636 .6435089V.68652346H.5799866V.6435089C.59298709 .6435089 .6069946 .644516 .62098696 .644516 .6539917 .644516 .6859894 .64151 .6859894 .62153628V.19685364L.27999879 .6845093 .25698854 .68652346H.037994386Z"/>
<path id="font_37_1" d="M.037994386 .04397583V.0009765625H.27799989V.04397583C.24699402 .04397583 .19099427 .04496765 .19099427 .0579834 .19099427 .0599823 .19198609 .06298828 .19299317 .06498718L.20199585 .089019779C.21299744 .11505127 .22299195 .14009094 .23399353 .16610718L.24198914 .18713379C.24398804 .19514466 .24798584 .20014954 .25698854 .20014954H.5029907C.5239868 .20014954 .5569916 .09503174 .57699587 .04397583H.48399354V.0009765625H.80999758V.04397583H.71398928C.70899966 .067993167 .69200137 .09902954 .6819916 .12606812 .6119995 .29815675 .5419922 .469162 .47399903 .64115908L.45899964 .6771698C.45399476 .6911621 .44799806 .7011719 .42599488 .7011719 .394989 .7001648 .394989 .6921692 .37298585 .63816836L.32798768 .52716067C.269989 .38316346 .20799256 .239151 .1539917 .09503174 .14299011 .067993167 .14399719 .050979616 .10699463 .046966554 .083999637 .04397583 .06098938 .04397583 .037994386 .04397583M.2649994 .24316406 .3809967 .5301666 .49699403 .24316406H.2649994Z"/>
<path id="font_38_40" d="M.09098816 .602005V.57299807C.13598633 .57299807 .17399597 .58000186 .21798706 .598999V.07397461C.21798706 .034973146 .1789856 .02897644 .13999939 .02897644 .12399292 .02897644 .10899353 .029968262 .09599304 .029968262V.0009765625H.40899659V.029968262C.39698792 .029968262 .3809967 .02897644 .3659973 .02897644 .31599427 .02897644 .2869873 .033966066 .2869873 .07696533V.651001C.2869873 .65701296 .2849884 .6660156 .2749939 .6660156 .26098634 .6660156 .24899292 .6470032 .23599243 .6399994 .19299317 .6110077 .14199829 .602005 .09098816 .602005Z"/>
<path id="font_38_44" d="M.12799073 .09667969C.10699463 .092681888 .08699036 .07473755 .08699036 .049819948 .08699036 .023895264 .10899353 .0009765625 .1349945 .0009765625 .16099549 .0009765625 .18399048 .020904541 .18399048 .048812868 .18399048 .07472229 .1619873 .09765625 .13598633 .09765625 .1329956 .09767151 .1309967 .09667969 .12799073 .09667969Z"/>
<path id="font_38_29" d="M.07699585 .124435428C.08299255 .1234436 .08799744 .12243652 .09399414 .12243652 .11999512 .12243652 .13899231 .14143372 .13899231 .16743469 .13899231 .19242859 .11898804 .21142578 .09498596 .21142578 .07199097 .21142578 .049987794 .19541931 .04899597 .17042542V.16442871C.04899597 .06845093 .125-.01953125 .22698975-.01953125 .34700013-.01953125 .43899537 .08544922 .43899537 .20542908 .43899537 .30540467 .37298585 .41337586 .2659912 .42037965H.2559967C.21199036 .42037965 .15098572 .40338136 .12799073 .36639405L.1269989 .57377627C.1559906 .5647888 .18598938 .55978396 .21499634 .55978396 .27999879 .55978396 .34199525 .58477786 .3909912 .6378174 .394989 .64385989 .40098573 .64889529 .40098573 .6559601V.65797427C.3999939 .66300967 .3959961 .66503909 .3919983 .66503909 .3769989 .66503909 .35499574 .6509247 .33898927 .645874 .31098939 .6378174 .2809906 .63378909 .2519989 .63378909 .20698548 .63378909 .16899109 .64486697 .12599182 .6589813 .12098694 .6609955 .115997318 .6640167 .11099243 .66503909H.10899353C.10398865 .66503909 .100997928 .6609955 .099990848 .6559601V.33839417C.099990848 .33039857 .101989749 .32240296 .11199951 .32240296 .125 .32240296 .1309967 .34140016 .13899231 .34939576 .16799927 .38139344 .20899964 .40039063 .2519989 .40039063H.2579956C.34298707 .39639283 .35798646 .2834015 .35798646 .20942688 .35798646 .1404419 .35099793 .053451539 .2749939 .018463135 .2579956 .010467529 .24099732 .007461548 .22399903 .007461548 .1579895 .007461548 .09298706 .060455324 .07699585 .124435428Z"/>
<path id="font_38_51" d="M.101989749 .575058C.1269989 .61802676 .18299866 .64201357 .23399353 .64201357 .29299928 .64201357 .33599855 .6040344 .33599855 .5260925 .33599855 .46614076 .31098939 .38719178 .24798584 .36820985 .22898865 .36120606 .20599365 .36621095 .18798828 .36021424H.18399048C.1749878 .36021424 .16299439 .36021424 .16299439 .35021974 .16299439 .34121705 .16999817 .33921815 .1789856 .33921815H.18998719C.20199585 .33921815 .21499634 .34022523 .22698975 .34022523 .32099916 .34022523 .35398866 .25628663 .35398866 .18234253 .35398866 .118377689 .33898927 .007461548 .23899842 .007461548 .1749878 .007461548 .114990238 .035446168 .07899475 .09539795H.08799744C.11898804 .09539795 .14099121 .11437988 .14099121 .14535523 .14099121 .17533875 .117996219 .19432068 .08799744 .19432068H.083999637C.057998659 .19132996 .040985109 .16934204 .040985109 .1443634 .040985109 .04043579 .14399719-.01953125 .23899842-.01953125 .34700013-.01953125 .44699098 .060424806 .44699098 .17333985 .44699098 .26127626 .36799623 .34521485 .2769928 .35221864 .3619995 .38519288 .41999818 .44314576 .41999818 .53009036 .41999818 .62301638 .31498719 .6660156 .23899842 .6660156 .1639862 .6660156 .067993167 .62402346 .067993167 .53408816 .067993167 .5121002 .07899475 .48912049 .10699463 .4841156H.11399841C.13999939 .4841156 .1599884 .5041046 .1599884 .53009036 .1599884 .55506899 .14199829 .5760498 .11299133 .5760498 .10899353 .5760498 .10598755 .5760498 .101989749 .575058Z"/>
<path id="font_39_2" d="M.5359955 .4011383C.5 .3911438 .48199464 .35714723 .48199464 .33215333 .48199464 .31015016 .49899293 .28614808 .5319977 .28614808 .5669861 .28614808 .60398867 .31515504 .60398867 .364151 .60398867 .41714479 .5509949 .45214845 .48999024 .45214845 .43299867 .45214845 .3959961 .4091339 .3829956 .3911438 .35798646 .433136 .3019867 .45214845 .24499512 .45214845 .11898804 .45214845 .050994874 .32914735 .050994874 .29615785 .050994874 .28215028 .06599426 .28215028 .07499695 .28215028 .08699036 .28215028 .09399414 .28215028 .09799194 .29515077 .1269989 .38613893 .19898987 .4161377 .23999024 .4161377 .27799989 .4161377 .29599 .39814759 .29599 .3661499 .29599 .3471527 .28199769 .29216004 .272995 .2561493L.23899842 .11917114C.22399903 .058181764 .18798828 .028182984 .1539917 .028182984 .14898682 .028182984 .12599182 .028182984 .10598755 .043182374 .14199829 .05317688 .1599884 .08717346 .1599884 .11216736 .1599884 .13417053 .14299011 .1581726 .10998535 .1581726 .07499695 .1581726 .037994386 .12916565 .037994386 .08016968 .037994386 .027175904 .09098816-.0078125 .1519928-.0078125 .20899964-.0078125 .24598694 .035186769 .25898744 .05317688 .28399659 .011184692 .33999635-.0078125 .39698792-.0078125 .522995-.0078125 .59098818 .11517334 .59098818 .14816284 .59098818 .16217041 .57598879 .16217041 .5669861 .16217041 .5549927 .16217041 .5479889 .16217041 .5439911 .14916992 .5149994 .058181764 .44299317 .028182984 .4019928 .028182984 .3639984 .028182984 .34599305 .046173097 .34599305 .07817078 .34599305 .09916687 .35899354 .15216065 .36799623 .18916321 .375 .21516419 .397995 .30915834 .40299989 .32514955 .41799928 .3851471 .45298768 .4161377 .48799134 .4161377 .49299623 .4161377 .5159912 .4161377 .5359955 .4011383Z"/>
<path id="font_37_14" d="M.08699036 .5931854V.5501709C.13798523 .5501709 .18099976 .55618289 .23298645 .56918337V.04397583H.09399414V.0009765625H.48298646V.04397583H.34599305V.61720278C.34599305 .62120059 .34700013 .62719729 .34700013 .6332092 .34700013 .6462097 .34298707 .65722659 .32699586 .65722659H.31999208C.30799867 .65722659 .30099488 .6472168 .2919922 .6422119 .23298645 .6011963 .15699768 .5931854 .08699036 .5931854Z"/>
<path id="font_37_16" d="M.14698792 .14453125C.11099243 .13754273 .083999637 .1096344 .083999637 .07374573 .083999637 .035858156 .11299133 .0009765625 .1579895 .0009765625H.16499329C.20098877 .007949829 .22799683 .035858156 .22799683 .071746829 .22799683 .1096344 .19898987 .14453125 .1539917 .14453125H.14698792Z"/>
<path id="font_37_8" d="M.0309906 .15815735H.31498719V.04397583H.20599365V.0009765625H.5299988V.04397583H.43299867V.15815735H.5299988V.20117188H.43299867V.63816836C.43299867 .6531677 .42599488 .6591797 .4119873 .6591797H.40098573C.37799073 .6591797 .36999513 .63816836 .35798646 .62316897L.30999757 .5611725C.24198914 .47317506 .17298889 .38616944 .10598755 .298172L.039993287 .21316529C.034988405 .20716858 .0309906 .20117188 .0309906 .19316101V.15815735M.07798767 .20117188 .32299806 .5181732V.20117188H.07798767Z"/>
</defs>
<use data-text="&#x00af;" xlink:href="#font_33_1" transform="matrix(14.346,0,0,-14.346,69.042,74.627)"/>
<use data-text="x" xlink:href="#font_34_3" transform="matrix(14.346,0,0,-14.346,68.173,74.627)"/>
<use data-text="=" xlink:href="#font_33_2" transform="matrix(14.346,0,0,-14.346,80.14,74.627)"/>
<use data-text="1" xlink:href="#font_35_2" transform="matrix(9.963,0,0,-9.963,96.246,68.978)"/>
<use data-text="." xlink:href="#font_36_1" transform="matrix(9.963,0,0,-9.963,101.2275,68.978)"/>
<use data-text="3" xlink:href="#font_35_4" transform="matrix(9.963,0,0,-9.963,103.997219,68.978)"/>
<use data-text="+" xlink:href="#font_35_1" transform="matrix(9.963,0,0,-9.963,108.978717,68.978)"/>
<use data-text="1" xlink:href="#font_35_2" transform="matrix(9.963,0,0,-9.963,116.72993,68.978)"/>
<use data-text="." xlink:href="#font_36_1" transform="matrix(9.963,0,0,-9.963,121.711429,68.978)"/>
<use data-text="5" xlink:href="#font_35_5" transform="matrix(9.963,0,0,-9.963,124.48114,68.978)"/>
<path transform="matrix(1,0,0,-1,96.246,71.03999)" stroke-width=".574" stroke-linecap="butt" stroke-miterlimit="10" stroke-linejoin="miter" fill="none" stroke="#000000" d="M0 0H33.209"/>
<use data-text="2" xlink:href="#font_35_3" transform="matrix(9.963,0,0,-9.963,110.36,79.574)"/>
<path transform="matrix(1,0,0,-1,25.7117,99.411)" stroke-width="2.989" stroke-linecap="butt" stroke-miterlimit="10" stroke-linejoin="miter" fill="none" stroke="#a9a9a9" d="M0 0 33.055 13.704"/>
<path transform="matrix(.9237,-.38293,-.38293,-.9237,63.148515,83.89095)" d="M0 0-4.339 3.507V0-3.507Z" fill="#a9a9a9"/>
<path transform="matrix(.9237,-.38293,-.38293,-.9237,63.148515,83.89095)" stroke-width="1.619" stroke-linecap="butt" stroke-linejoin="round" fill="none" stroke="#a9a9a9" d="M0 0-4.339 3.507V0-3.507Z"/>
<path transform="matrix(1,0,0,-1,25.7117,42.7174)" stroke-width="2.989" stroke-linecap="butt" stroke-miterlimit="10" stroke-linejoin="miter" fill="none" stroke="#a9a9a9" d="M0 0 33.055-13.704"/>
<path transform="matrix(.9237,.38293,.38293,-.9237,63.148515,58.2374)" d="M0 0-4.339 3.507V0-3.507Z" fill="#a9a9a9"/>
<path transform="matrix(.9237,.38293,.38293,-.9237,63.148515,58.2374)" stroke-width="1.619" stroke-linecap="butt" stroke-linejoin="round" fill="none" stroke="#a9a9a9" d="M0 0-4.339 3.507V0-3.507Z"/>
<path transform="matrix(1,0,0,-1,134.4709,71.0642)" stroke-width="2.989" stroke-linecap="butt" stroke-miterlimit="10" stroke-linejoin="miter" fill="none" stroke="#a9a9a9" d="M0 0H26.924"/>
<path transform="matrix(1,0,0,-1,166.1382,71.06418)" d="M0 0-4.339 3.507V0-3.507Z" fill="#a9a9a9"/>
<path transform="matrix(1,0,0,-1,166.1382,71.06418)" stroke-width="1.619" stroke-linecap="butt" stroke-linejoin="round" fill="none" stroke="#a9a9a9" d="M0 0-4.339 3.507V0-3.507Z"/>
<path transform="matrix(1,0,0,-1,134.4709,83.3902)" stroke-width="2.989" stroke-linecap="butt" stroke-miterlimit="10" stroke-linejoin="miter" fill="none" stroke="#a9a9a9" d="M0 0 29.366-39.511"/>
<path transform="matrix(.59648,.80257,.80257,-.59648,166.66585,126.70839)" d="M0 0-4.339 3.507V0-3.507Z" fill="#a9a9a9"/>
<path transform="matrix(.59648,.80257,.80257,-.59648,166.66585,126.70839)" stroke-width="1.619" stroke-linecap="butt" stroke-linejoin="round" fill="none" stroke="#a9a9a9" d="M0 0-4.339 3.507V0-3.507Z"/>
<path transform="matrix(1,0,0,-1,.19980049,140.9349)" d="M0 0V26.354C0 26.904 .446 27.351 .996 27.351H27.351C27.901 27.351 28.347 26.904 28.347 26.354V0C28.347-.55 27.901-.996 27.351-.996H.996C.446-.996 0-.55 0 0Z" fill="#f3f5f8"/>
<path transform="matrix(1,0,0,-1,.19980049,140.9349)" stroke-width=".398" stroke-linecap="butt" stroke-miterlimit="10" stroke-linejoin="miter" fill="none" stroke="#000000" d="M0 0V26.354C0 26.904 .446 27.351 .996 27.351H27.351C27.901 27.351 28.347 26.904 28.347 26.354V0C28.347-.55 27.901-.996 27.351-.996H.996C.446-.996 0-.55 0 0Z"/>
<use data-text="N" xlink:href="#font_37_3" transform="matrix(11.955,0,0,-11.955,4.039,131.884)"/>
<use data-text="A" xlink:href="#font_37_1" transform="matrix(11.955,0,0,-11.955,14.547445,131.884)"/>
<path transform="matrix(1,0,0,-1,.19980049,112.588108)" d="M0 0V26.354C0 26.904 .446 27.351 .996 27.351H27.351C27.901 27.351 28.347 26.904 28.347 26.354V0C28.347-.55 27.901-.996 27.351-.996H.996C.446-.996 0-.55 0 0Z" fill="#ffffff"/>
<path transform="matrix(1,0,0,-1,.19980049,112.588108)" stroke-width=".398" stroke-linecap="butt" stroke-miterlimit="10" stroke-linejoin="miter" fill="none" stroke="#000000" d="M0 0V26.354C0 26.904 .446 27.351 .996 27.351H27.351C27.901 27.351 28.347 26.904 28.347 26.354V0C28.347-.55 27.901-.996 27.351-.996H.996C.446-.996 0-.55 0 0Z"/>
<use data-text="1" xlink:href="#font_38_40" transform="matrix(11.955,0,0,-11.955,6.895,103.26599)"/>
<use data-text="." xlink:href="#font_38_44" transform="matrix(11.955,0,0,-11.955,12.752951,103.26599)"/>
<use data-text="5" xlink:href="#font_38_29" transform="matrix(11.955,0,0,-11.955,16.004712,103.26599)"/>
<path transform="matrix(1,0,0,-1,.19980049,84.2413)" d="M0 0V26.354C0 26.905 .446 27.351 .996 27.351H27.351C27.901 27.351 28.347 26.905 28.347 26.354V0C28.347-.55 27.901-.996 27.351-.996H.996C.446-.996 0-.55 0 0Z" fill="#f3f5f8"/>
<path transform="matrix(1,0,0,-1,.19980049,84.2413)" stroke-width=".398" stroke-linecap="butt" stroke-miterlimit="10" stroke-linejoin="miter" fill="none" stroke="#000000" d="M0 0V26.354C0 26.905 .446 27.351 .996 27.351H27.351C27.901 27.351 28.347 26.905 28.347 26.354V0C28.347-.55 27.901-.996 27.351-.996H.996C.446-.996 0-.55 0 0Z"/>
<use data-text="N" xlink:href="#font_37_3" transform="matrix(11.955,0,0,-11.955,4.039,75.190998)"/>
<use data-text="A" xlink:href="#font_37_1" transform="matrix(11.955,0,0,-11.955,14.547445,75.190998)"/>
<path transform="matrix(1,0,0,-1,.19980049,55.8945)" d="M0 0V26.354C0 26.904 .446 27.351 .996 27.351H27.351C27.901 27.351 28.347 26.904 28.347 26.354V0C28.347-.55 27.901-.996 27.351-.996H.996C.446-.996 0-.55 0 0Z" fill="#ffffff"/>
<path transform="matrix(1,0,0,-1,.19980049,55.8945)" stroke-width=".398" stroke-linecap="butt" stroke-miterlimit="10" stroke-linejoin="miter" fill="none" stroke="#000000" d="M0 0V26.354C0 26.904 .446 27.351 .996 27.351H27.351C27.901 27.351 28.347 26.904 28.347 26.354V0C28.347-.55 27.901-.996 27.351-.996H.996C.446-.996 0-.55 0 0Z"/>
<use data-text="1" xlink:href="#font_38_40" transform="matrix(11.955,0,0,-11.955,6.895,46.572999)"/>
<use data-text="." xlink:href="#font_38_44" transform="matrix(11.955,0,0,-11.955,12.752951,46.572999)"/>
<use data-text="3" xlink:href="#font_38_51" transform="matrix(11.955,0,0,-11.955,16.004712,46.572999)"/>
<path transform="matrix(1,0,0,-1,.19980049,27.547699)" d="M0 0V26.354C0 26.904 .446 27.351 .996 27.351H27.351C27.901 27.351 28.347 26.904 28.347 26.354V0C28.347-.55 27.901-.996 27.351-.996H.996C.446-.996 0-.55 0 0Z" fill="#b3ccd6"/>
<path transform="matrix(1,0,0,-1,.19980049,27.547699)" stroke-width=".398" stroke-linecap="butt" stroke-miterlimit="10" stroke-linejoin="miter" fill="none" stroke="#000000" d="M0 0V26.354C0 26.904 .446 27.351 .996 27.351H27.351C27.901 27.351 28.347 26.904 28.347 26.354V0C28.347-.55 27.901-.996 27.351-.996H.996C.446-.996 0-.55 0 0Z"/>
<use data-text="x" xlink:href="#font_39_2" transform="matrix(11.955,0,0,-11.955,10.433,17.029)"/>
<path transform="matrix(1,0,0,-1,170.2807,140.9349)" d="M0 0V26.354C0 26.904 .446 27.351 .996 27.351H27.351C27.901 27.351 28.347 26.904 28.347 26.354V0C28.347-.55 27.901-.996 27.351-.996H.996C.446-.996 0-.55 0 0Z" fill="#f3f5f8"/>
<path transform="matrix(1,0,0,-1,170.2807,140.9349)" stroke-width=".398" stroke-linecap="butt" stroke-miterlimit="10" stroke-linejoin="miter" fill="none" stroke="#000000" d="M0 0V26.354C0 26.904 .446 27.351 .996 27.351H27.351C27.901 27.351 28.347 26.904 28.347 26.354V0C28.347-.55 27.901-.996 27.351-.996H.996C.446-.996 0-.55 0 0Z"/>
<use data-text="1" xlink:href="#font_37_14" transform="matrix(11.955,0,0,-11.955,175.86,131.635)" fill="#990000"/>
<use data-text="." xlink:href="#font_37_16" transform="matrix(11.955,0,0,-11.955,182.5787,131.635)" fill="#990000"/>
<use data-text="4" xlink:href="#font_37_8" transform="matrix(11.955,0,0,-11.955,186.30867,131.635)" fill="#990000"/>
<path transform="matrix(1,0,0,-1,170.2807,112.588108)" d="M0 0V26.354C0 26.904 .446 27.351 .996 27.351H27.351C27.901 27.351 28.347 26.904 28.347 26.354V0C28.347-.55 27.901-.996 27.351-.996H.996C.446-.996 0-.55 0 0Z" fill="#ffffff"/>
<path transform="matrix(1,0,0,-1,170.2807,112.588108)" stroke-width=".398" stroke-linecap="butt" stroke-miterlimit="10" stroke-linejoin="miter" fill="none" stroke="#000000" d="M0 0V26.354C0 26.904 .446 27.351 .996 27.351H27.351C27.901 27.351 28.347 26.904 28.347 26.354V0C28.347-.55 27.901-.996 27.351-.996H.996C.446-.996 0-.55 0 0Z"/>
<use data-text="1" xlink:href="#font_38_40" transform="matrix(11.955,0,0,-11.955,176.974,103.26599)"/>
<use data-text="." xlink:href="#font_38_44" transform="matrix(11.955,0,0,-11.955,182.83196,103.26599)"/>
<use data-text="5" xlink:href="#font_38_29" transform="matrix(11.955,0,0,-11.955,186.08371,103.26599)"/>
<path transform="matrix(1,0,0,-1,170.2807,84.2413)" d="M0 0V26.354C0 26.905 .446 27.351 .996 27.351H27.351C27.901 27.351 28.347 26.905 28.347 26.354V0C28.347-.55 27.901-.996 27.351-.996H.996C.446-.996 0-.55 0 0Z" fill="#f3f5f8"/>
<path transform="matrix(1,0,0,-1,170.2807,84.2413)" stroke-width=".398" stroke-linecap="butt" stroke-miterlimit="10" stroke-linejoin="miter" fill="none" stroke="#000000" d="M0 0V26.354C0 26.905 .446 27.351 .996 27.351H27.351C27.901 27.351 28.347 26.905 28.347 26.354V0C28.347-.55 27.901-.996 27.351-.996H.996C.446-.996 0-.55 0 0Z"/>
<use data-text="1" xlink:href="#font_37_14" transform="matrix(11.955,0,0,-11.955,175.86,74.94199)" fill="#990000"/>
<use data-text="." xlink:href="#font_37_16" transform="matrix(11.955,0,0,-11.955,182.5787,74.94199)" fill="#990000"/>
<use data-text="4" xlink:href="#font_37_8" transform="matrix(11.955,0,0,-11.955,186.30867,74.94199)" fill="#990000"/>
<path transform="matrix(1,0,0,-1,170.2807,55.8945)" d="M0 0V26.354C0 26.904 .446 27.351 .996 27.351H27.351C27.901 27.351 28.347 26.904 28.347 26.354V0C28.347-.55 27.901-.996 27.351-.996H.996C.446-.996 0-.55 0 0Z" fill="#ffffff"/>
<path transform="matrix(1,0,0,-1,170.2807,55.8945)" stroke-width=".398" stroke-linecap="butt" stroke-miterlimit="10" stroke-linejoin="miter" fill="none" stroke="#000000" d="M0 0V26.354C0 26.904 .446 27.351 .996 27.351H27.351C27.901 27.351 28.347 26.904 28.347 26.354V0C28.347-.55 27.901-.996 27.351-.996H.996C.446-.996 0-.55 0 0Z"/>
<use data-text="1" xlink:href="#font_38_40" transform="matrix(11.955,0,0,-11.955,176.974,46.572999)"/>
<use data-text="." xlink:href="#font_38_44" transform="matrix(11.955,0,0,-11.955,182.83196,46.572999)"/>
<use data-text="3" xlink:href="#font_38_51" transform="matrix(11.955,0,0,-11.955,186.08371,46.572999)"/>
<path transform="matrix(1,0,0,-1,170.2807,27.547699)" d="M0 0V26.354C0 26.904 .446 27.351 .996 27.351H27.351C27.901 27.351 28.347 26.904 28.347 26.354V0C28.347-.55 27.901-.996 27.351-.996H.996C.446-.996 0-.55 0 0Z" fill="#b3ccd6"/>
<path transform="matrix(1,0,0,-1,170.2807,27.547699)" stroke-width=".398" stroke-linecap="butt" stroke-miterlimit="10" stroke-linejoin="miter" fill="none" stroke="#000000" d="M0 0V26.354C0 26.904 .446 27.351 .996 27.351H27.351C27.901 27.351 28.347 26.904 28.347 26.354V0C28.347-.55 27.901-.996 27.351-.996H.996C.446-.996 0-.55 0 0Z"/>
<use data-text="x" xlink:href="#font_39_2" transform="matrix(11.955,0,0,-11.955,180.512,17.029)"/>
</svg>
