<?xml version="1.0" encoding="UTF-8"?>
<svg xmlns="http://www.w3.org/2000/svg" xmlns:xlink="http://www.w3.org/1999/xlink" width="400pt" height="300pt" viewBox="0 0 343 227" version="1.2">
<g id="surface1">
<rect x="0" y="0" width="343" height="227" style="fill:rgb(100%,100%,100%);fill-opacity:1;stroke:none;"/>
<path style="fill-rule:nonzero;fill:rgb(100%,100%,100%);fill-opacity:1;stroke-width:2;stroke-linecap:butt;stroke-linejoin:miter;stroke:rgb(0%,0%,0%);stroke-opacity:1;stroke-miterlimit:10;" d="M 120 345 C 120 342.196181 122.196181 340 125 340 L 275 340 C 277.803819 340 280 342.196181 280 345 L 280 460 C 253.298611 440 236.701389 440 226.701389 440 C 210.703125 440 189.296875 460 173.298611 460 C 163.298611 460 146.701389 460 120 440 Z M 120 345 " transform="matrix(0.45,0,0,0.45,-53,-62)"/>
<path style=" stroke:none;fill-rule:nonzero;fill:rgb(0%,0%,0%);fill-opacity:1;" d="M 16.097656 114.621094 L 16.097656 120.113281 L 15.246094 120.113281 L 15.246094 114.621094 L 13.125 114.621094 L 13.125 113.921875 L 18.21875 113.921875 L 18.21875 114.621094 L 16.097656 114.621094 "/>
<path style=" stroke:none;fill-rule:nonzero;fill:rgb(0%,0%,0%);fill-opacity:1;" d="M 20.917969 116.042969 C 18.96875 115.644531 19.59375 118.316406 19.492188 120.113281 L 18.695312 120.113281 L 18.667969 115.371094 L 19.417969 115.371094 C 19.445312 115.667969 19.394531 116.09375 19.46875 116.34375 C 19.617188 115.667969 20.042969 115.121094 20.917969 115.320312 L 20.917969 116.042969 "/>
<path style=" stroke:none;fill-rule:nonzero;fill:rgb(0%,0%,0%);fill-opacity:1;" d="M 24.5625 119.214844 C 24.1875 119.742188 23.789062 120.238281 22.863281 120.214844 C 21.964844 120.191406 21.417969 119.691406 21.417969 118.792969 C 21.390625 117.191406 22.988281 117.21875 24.539062 117.21875 C 24.613281 116.34375 24.3125 115.871094 23.515625 115.871094 C 22.914062 115.894531 22.492188 116.042969 22.464844 116.644531 L 21.640625 116.570312 C 21.765625 115.644531 22.464844 115.269531 23.539062 115.269531 C 24.664062 115.269531 25.335938 115.769531 25.335938 116.867188 L 25.335938 118.917969 C 25.3125 119.414062 25.511719 119.714844 26.035156 119.589844 L 26.035156 120.089844 C 25.261719 120.316406 24.511719 120.039062 24.5625 119.214844 Z M 22.242188 118.792969 C 22.242188 119.289062 22.539062 119.617188 23.039062 119.617188 C 24.0625 119.539062 24.613281 118.890625 24.539062 117.765625 C 23.464844 117.816406 22.242188 117.640625 22.242188 118.792969 "/>
<path style=" stroke:none;fill-rule:nonzero;fill:rgb(0%,0%,0%);fill-opacity:1;" d="M 26.636719 114.347656 L 26.636719 113.597656 L 27.433594 113.597656 L 27.433594 114.347656 Z M 26.636719 120.113281 L 26.636719 115.371094 L 27.433594 115.371094 L 27.433594 120.113281 L 26.636719 120.113281 "/>
<path style=" stroke:none;fill-rule:nonzero;fill:rgb(0%,0%,0%);fill-opacity:1;" d="M 30.933594 115.269531 C 33.15625 115.171875 32.253906 118.167969 32.429688 120.113281 L 31.632812 120.113281 L 31.632812 117.09375 C 31.632812 116.320312 31.429688 115.871094 30.65625 115.894531 C 28.859375 115.945312 29.558594 118.441406 29.433594 120.113281 L 28.632812 120.113281 L 28.609375 115.371094 L 29.359375 115.371094 C 29.382812 115.621094 29.332031 115.96875 29.410156 116.167969 C 29.683594 115.621094 30.132812 115.292969 30.933594 115.269531 "/>
<path style=" stroke:none;fill-rule:nonzero;fill:rgb(0%,0%,0%);fill-opacity:1;" d="M 33.605469 114.347656 L 33.605469 113.597656 L 34.402344 113.597656 L 34.402344 114.347656 Z M 33.605469 120.113281 L 33.605469 115.371094 L 34.402344 115.371094 L 34.402344 120.113281 L 33.605469 120.113281 "/>
<path style=" stroke:none;fill-rule:nonzero;fill:rgb(0%,0%,0%);fill-opacity:1;" d="M 37.898438 115.269531 C 40.121094 115.171875 39.222656 118.167969 39.398438 120.113281 L 38.597656 120.113281 L 38.597656 117.09375 C 38.597656 116.320312 38.398438 115.871094 37.625 115.894531 C 35.828125 115.945312 36.527344 118.441406 36.402344 120.113281 L 35.601562 120.113281 L 35.578125 115.371094 L 36.328125 115.371094 C 36.351562 115.621094 36.300781 115.96875 36.375 116.167969 C 36.652344 115.621094 37.101562 115.292969 37.898438 115.269531 "/>
<path style=" stroke:none;fill-rule:nonzero;fill:rgb(0%,0%,0%);fill-opacity:1;" d="M 44.394531 115.371094 C 44.144531 118.492188 45.417969 122.6875 41.644531 121.886719 C 41.070312 121.738281 40.695312 121.390625 40.546875 120.8125 L 41.347656 120.6875 C 41.722656 121.863281 43.84375 121.488281 43.570312 119.988281 L 43.570312 119.242188 C 43.292969 119.765625 42.84375 120.140625 42.046875 120.140625 C 40.695312 120.140625 40.347656 119.117188 40.347656 117.742188 C 40.347656 116.34375 40.746094 115.320312 42.121094 115.292969 C 42.84375 115.269531 43.320312 115.695312 43.59375 116.167969 C 43.621094 115.917969 43.59375 115.59375 43.644531 115.371094 Z M 42.320312 119.566406 C 43.21875 119.566406 43.570312 118.765625 43.570312 117.742188 C 43.570312 116.695312 43.21875 115.871094 42.320312 115.871094 C 41.347656 115.871094 41.171875 116.71875 41.171875 117.742188 C 41.171875 118.765625 41.320312 119.566406 42.320312 119.566406 "/>
<path style=" stroke:none;fill-rule:nonzero;fill:rgb(0%,0%,0%);fill-opacity:1;" d="M 52.148438 115.394531 C 52.027344 114.195312 49.078125 114.046875 49.054688 115.445312 C 49.402344 117.316406 53 115.792969 53.125 118.417969 C 53.199219 120.363281 50.101562 120.589844 48.753906 119.789062 C 48.328125 119.539062 48.054688 119.140625 47.929688 118.640625 L 48.753906 118.464844 C 48.878906 119.867188 52.273438 120.039062 52.273438 118.441406 C 52.273438 116.492188 48.402344 118.09375 48.230469 115.496094 C 48.105469 113.445312 51.851562 113.398438 52.699219 114.644531 C 52.824219 114.820312 52.898438 115.046875 52.972656 115.269531 "/>
<path style=" stroke:none;fill-rule:nonzero;fill:rgb(0%,0%,0%);fill-opacity:1;" d="M 56.023438 115.269531 C 57.59375 115.269531 58.167969 116.320312 58.121094 117.917969 L 54.746094 117.917969 C 54.746094 118.917969 55.097656 119.589844 56.070312 119.617188 C 56.722656 119.640625 57.144531 119.316406 57.296875 118.890625 L 57.996094 119.089844 C 57.71875 119.789062 57.070312 120.214844 56.070312 120.214844 C 54.621094 120.214844 53.875 119.289062 53.898438 117.71875 C 53.921875 116.195312 54.546875 115.269531 56.023438 115.269531 Z M 57.320312 117.292969 C 57.46875 115.792969 55.421875 115.371094 54.898438 116.59375 C 54.824219 116.769531 54.746094 117.019531 54.746094 117.292969 L 57.320312 117.292969 "/>
<path style=" stroke:none;fill-rule:nonzero;fill:rgb(0%,0%,0%);fill-opacity:1;" d="M 59.992188 118.941406 C 59.941406 119.539062 60.441406 119.664062 60.941406 119.492188 L 60.941406 120.089844 C 60.117188 120.339844 59.191406 120.214844 59.191406 119.117188 L 59.191406 115.945312 L 58.644531 115.945312 L 58.644531 115.371094 L 59.242188 115.371094 L 59.46875 114.296875 L 59.992188 114.296875 L 59.992188 115.371094 L 60.867188 115.371094 L 60.867188 115.945312 L 59.992188 115.945312 L 59.992188 118.941406 "/>
<path style="fill-rule:nonzero;fill:rgb(100%,100%,100%);fill-opacity:1;stroke-width:2;stroke-linecap:butt;stroke-linejoin:miter;stroke:rgb(0%,0%,0%);stroke-opacity:1;stroke-miterlimit:10;" d="M 195.998264 503.003472 C 198.203125 501.302083 201.796875 501.302083 204.001736 503.003472 L 275.998264 556.996528 C 278.203125 558.697917 278.203125 561.302083 275.998264 563.003472 L 204.001736 616.996528 C 201.796875 618.697917 198.203125 618.697917 195.998264 616.996528 L 124.001736 563.003472 C 121.796875 561.302083 121.796875 558.697917 124.001736 556.996528 Z M 195.998264 503.003472 " transform="matrix(0.45,0,0,0.45,-53,-62)"/>
<path style=" stroke:none;fill-rule:nonzero;fill:rgb(0%,0%,0%);fill-opacity:1;" d="M 22.269531 192.113281 L 22.269531 185.921875 L 23.09375 185.921875 L 23.09375 191.441406 L 26.214844 191.441406 L 26.214844 192.113281 L 22.269531 192.113281 "/>
<path style=" stroke:none;fill-rule:nonzero;fill:rgb(0%,0%,0%);fill-opacity:1;" d="M 29.011719 187.269531 C 30.585938 187.269531 31.160156 188.320312 31.109375 189.917969 L 27.738281 189.917969 C 27.738281 190.917969 28.089844 191.589844 29.0625 191.617188 C 29.710938 191.640625 30.136719 191.316406 30.285156 190.890625 L 30.984375 191.089844 C 30.710938 191.789062 30.0625 192.214844 29.0625 192.214844 C 27.613281 192.214844 26.863281 191.289062 26.890625 189.71875 C 26.914062 188.195312 27.539062 187.269531 29.011719 187.269531 Z M 30.3125 189.292969 C 30.460938 187.792969 28.414062 187.371094 27.886719 188.59375 C 27.8125 188.769531 27.738281 189.019531 27.738281 189.292969 L 30.3125 189.292969 "/>
<path style=" stroke:none;fill-rule:nonzero;fill:rgb(0%,0%,0%);fill-opacity:1;" d="M 35.03125 191.214844 C 34.65625 191.742188 34.257812 192.238281 33.332031 192.214844 C 32.433594 192.191406 31.882812 191.691406 31.882812 190.792969 C 31.859375 189.191406 33.457031 189.21875 35.007812 189.21875 C 35.082031 188.34375 34.78125 187.871094 33.984375 187.871094 C 33.382812 187.894531 32.957031 188.042969 32.933594 188.644531 L 32.109375 188.570312 C 32.234375 187.644531 32.933594 187.269531 34.007812 187.269531 C 35.132812 187.269531 35.804688 187.769531 35.804688 188.867188 L 35.804688 190.917969 C 35.78125 191.414062 35.980469 191.714844 36.503906 191.589844 L 36.503906 192.089844 C 35.730469 192.316406 34.980469 192.039062 35.03125 191.214844 Z M 32.707031 190.792969 C 32.707031 191.289062 33.007812 191.617188 33.507812 191.617188 C 34.53125 191.539062 35.082031 190.890625 35.007812 189.765625 C 33.933594 189.816406 32.707031 189.640625 32.707031 190.792969 "/>
<path style=" stroke:none;fill-rule:nonzero;fill:rgb(0%,0%,0%);fill-opacity:1;" d="M 39.351562 188.042969 C 37.402344 187.644531 38.027344 190.316406 37.929688 192.113281 L 37.128906 192.113281 L 37.105469 187.371094 L 37.855469 187.371094 C 37.878906 187.667969 37.828125 188.09375 37.902344 188.34375 C 38.054688 187.667969 38.476562 187.121094 39.351562 187.320312 L 39.351562 188.042969 "/>
<path style=" stroke:none;fill-rule:nonzero;fill:rgb(0%,0%,0%);fill-opacity:1;" d="M 42.398438 187.269531 C 44.621094 187.171875 43.722656 190.167969 43.898438 192.113281 L 43.097656 192.113281 L 43.097656 189.09375 C 43.097656 188.320312 42.898438 187.871094 42.125 187.894531 C 40.328125 187.945312 41.027344 190.441406 40.902344 192.113281 L 40.101562 192.113281 L 40.078125 187.371094 L 40.824219 187.371094 C 40.851562 187.621094 40.800781 187.96875 40.875 188.167969 C 41.148438 187.621094 41.601562 187.292969 42.398438 187.269531 "/>
<path style=" stroke:none;fill-rule:nonzero;fill:rgb(0%,0%,0%);fill-opacity:1;" d="M 46.96875 187.269531 C 48.542969 187.269531 49.117188 188.320312 49.066406 189.917969 L 45.695312 189.917969 C 45.695312 190.917969 46.046875 191.589844 47.019531 191.617188 C 47.667969 191.640625 48.09375 191.316406 48.242188 190.890625 L 48.941406 191.089844 C 48.667969 191.789062 48.019531 192.214844 47.019531 192.214844 C 45.570312 192.214844 44.820312 191.289062 44.847656 189.71875 C 44.871094 188.195312 45.496094 187.269531 46.96875 187.269531 Z M 48.269531 189.292969 C 48.417969 187.792969 46.371094 187.371094 45.84375 188.59375 C 45.769531 188.769531 45.695312 189.019531 45.695312 189.292969 L 48.269531 189.292969 "/>
<path style=" stroke:none;fill-rule:nonzero;fill:rgb(0%,0%,0%);fill-opacity:1;" d="M 52.3125 188.042969 C 50.367188 187.644531 50.992188 190.316406 50.890625 192.113281 L 50.089844 192.113281 L 50.066406 187.371094 L 50.816406 187.371094 C 50.839844 187.667969 50.789062 188.09375 50.867188 188.34375 C 51.015625 187.667969 51.441406 187.121094 52.3125 187.320312 L 52.3125 188.042969 "/>
<path style="fill-rule:nonzero;fill:rgb(100%,100%,100%);fill-opacity:1;stroke-width:2;stroke-linecap:butt;stroke-linejoin:miter;stroke:rgb(0%,0%,0%);stroke-opacity:1;stroke-miterlimit:10;" d="M 527.196181 344.401042 C 528.498264 341.996528 531.796875 340 534.600694 340 L 620.598958 340 C 623.402778 340 626.701389 341.996528 628.003472 344.401042 L 655.199653 395.598958 C 656.501736 398.003472 656.501736 401.996528 655.199653 404.401042 L 628.003472 455.598958 C 626.701389 458.003472 623.402778 460 620.598958 460 L 534.600694 460 C 531.796875 460 528.498264 458.003472 527.196181 455.598958 L 500 404.401042 C 498.697917 401.996528 498.697917 398.003472 500 395.598958 Z M 527.196181 344.401042 " transform="matrix(0.45,0,0,0.45,-53,-62)"/>
<path style=" stroke:none;fill-rule:nonzero;fill:rgb(0%,0%,0%);fill-opacity:1;" d="M 181.929688 108.882812 C 184.101562 108.90625 186.699219 108.507812 186.699219 110.753906 C 186.699219 112.703125 184.777344 112.753906 182.753906 112.652344 L 182.753906 115.074219 L 181.929688 115.074219 Z M 182.753906 112.003906 C 184.175781 112.003906 185.851562 112.277344 185.851562 110.753906 C 185.851562 109.28125 184.152344 109.582031 182.753906 109.554688 L 182.753906 112.003906 "/>
<path style=" stroke:none;fill-rule:nonzero;fill:rgb(0%,0%,0%);fill-opacity:1;" d="M 189.671875 110.230469 C 191.246094 110.230469 191.820312 111.277344 191.769531 112.878906 L 188.398438 112.878906 C 188.398438 113.875 188.746094 114.550781 189.722656 114.574219 C 190.371094 114.601562 190.796875 114.277344 190.945312 113.851562 L 191.644531 114.050781 C 191.371094 114.75 190.71875 115.175781 189.722656 115.175781 C 188.273438 115.175781 187.523438 114.25 187.546875 112.675781 C 187.574219 111.152344 188.199219 110.230469 189.671875 110.230469 Z M 190.96875 112.253906 C 191.121094 110.753906 189.070312 110.328125 188.546875 111.554688 C 188.472656 111.726562 188.398438 111.976562 188.398438 112.253906 L 190.96875 112.253906 "/>
<path style=" stroke:none;fill-rule:nonzero;fill:rgb(0%,0%,0%);fill-opacity:1;" d="M 195.015625 111.003906 C 193.066406 110.605469 193.691406 113.277344 193.59375 115.074219 L 192.792969 115.074219 L 192.769531 110.328125 L 193.519531 110.328125 C 193.542969 110.628906 193.492188 111.054688 193.566406 111.304688 C 193.71875 110.628906 194.140625 110.078125 195.015625 110.28125 L 195.015625 111.003906 "/>
<path style=" stroke:none;fill-rule:nonzero;fill:rgb(0%,0%,0%);fill-opacity:1;" d="M 197.664062 109.230469 C 196.890625 109.007812 196.613281 109.480469 196.714844 110.328125 L 197.664062 110.328125 L 197.664062 110.902344 L 196.714844 110.902344 L 196.714844 115.074219 L 195.941406 115.074219 L 195.941406 110.902344 L 195.265625 110.902344 L 195.265625 110.328125 L 195.941406 110.328125 C 195.765625 109.03125 196.363281 108.28125 197.664062 108.632812 L 197.664062 109.230469 "/>
<path style=" stroke:none;fill-rule:nonzero;fill:rgb(0%,0%,0%);fill-opacity:1;" d="M 200.136719 110.230469 C 201.683594 110.203125 202.257812 111.152344 202.257812 112.703125 C 202.285156 114.277344 201.585938 115.175781 200.109375 115.175781 C 198.636719 115.175781 198.039062 114.199219 198.011719 112.703125 C 198.011719 111.054688 198.710938 110.230469 200.136719 110.230469 Z M 200.109375 114.574219 C 201.210938 114.601562 201.433594 113.800781 201.433594 112.703125 C 201.433594 111.628906 201.234375 110.828125 200.160156 110.828125 C 199.085938 110.828125 198.835938 111.628906 198.835938 112.703125 C 198.835938 113.777344 199.085938 114.550781 200.109375 114.574219 "/>
<path style=" stroke:none;fill-rule:nonzero;fill:rgb(0%,0%,0%);fill-opacity:1;" d="M 205.480469 111.003906 C 203.53125 110.605469 204.15625 113.277344 204.058594 115.074219 L 203.257812 115.074219 L 203.234375 110.328125 L 203.980469 110.328125 C 204.007812 110.628906 203.957031 111.054688 204.03125 111.304688 C 204.183594 110.628906 204.605469 110.078125 205.480469 110.28125 L 205.480469 111.003906 "/>
<path style=" stroke:none;fill-rule:nonzero;fill:rgb(0%,0%,0%);fill-opacity:1;" d="M 210.851562 110.855469 C 209.175781 110.929688 209.902344 113.476562 209.75 115.074219 L 208.976562 115.074219 L 208.976562 112.054688 C 208.976562 111.328125 208.851562 110.804688 208.101562 110.855469 C 206.453125 110.953125 207.152344 113.453125 207.003906 115.074219 L 206.230469 115.074219 L 206.203125 110.328125 L 206.953125 110.328125 C 206.980469 110.578125 206.929688 110.929688 207.003906 111.128906 C 207.253906 110.03125 209.476562 109.878906 209.675781 111.128906 C 209.953125 110.605469 210.351562 110.253906 211.125 110.230469 C 213.246094 110.179688 212.300781 113.203125 212.5 115.074219 L 211.722656 115.074219 L 211.722656 112.054688 C 211.722656 111.328125 211.597656 110.828125 210.851562 110.855469 "/>
<path style=" stroke:none;fill-rule:nonzero;fill:rgb(0%,0%,0%);fill-opacity:1;" d="M 216.59375 114.175781 C 216.21875 114.699219 215.820312 115.199219 214.894531 115.175781 C 213.996094 115.148438 213.449219 114.652344 213.449219 113.75 C 213.421875 112.152344 215.019531 112.179688 216.570312 112.179688 C 216.644531 111.304688 216.34375 110.828125 215.546875 110.828125 C 214.945312 110.855469 214.523438 111.003906 214.496094 111.601562 L 213.671875 111.527344 C 213.796875 110.605469 214.496094 110.230469 215.570312 110.230469 C 216.695312 110.230469 217.367188 110.730469 217.367188 111.828125 L 217.367188 113.875 C 217.34375 114.375 217.542969 114.675781 218.066406 114.550781 L 218.066406 115.050781 C 217.292969 115.273438 216.542969 115 216.59375 114.175781 Z M 214.273438 113.75 C 214.273438 114.25 214.570312 114.574219 215.070312 114.574219 C 216.09375 114.5 216.644531 113.851562 216.570312 112.726562 C 215.496094 112.777344 214.273438 112.601562 214.273438 113.75 "/>
<path style=" stroke:none;fill-rule:nonzero;fill:rgb(0%,0%,0%);fill-opacity:1;" d="M 220.988281 110.230469 C 223.214844 110.128906 222.3125 113.125 222.488281 115.074219 L 221.6875 115.074219 L 221.6875 112.054688 C 221.6875 111.277344 221.488281 110.828125 220.714844 110.855469 C 218.917969 110.902344 219.617188 113.402344 219.492188 115.074219 L 218.691406 115.074219 L 218.667969 110.328125 L 219.417969 110.328125 C 219.441406 110.578125 219.390625 110.929688 219.464844 111.128906 C 219.742188 110.578125 220.191406 110.253906 220.988281 110.230469 "/>
<path style=" stroke:none;fill-rule:nonzero;fill:rgb(0%,0%,0%);fill-opacity:1;" d="M 225.460938 110.855469 C 224.460938 110.855469 224.261719 111.679688 224.261719 112.675781 C 224.261719 113.675781 224.488281 114.550781 225.460938 114.550781 C 226.058594 114.550781 226.484375 114.199219 226.535156 113.601562 L 227.332031 113.652344 C 227.183594 114.574219 226.558594 115.175781 225.484375 115.175781 C 224.011719 115.175781 223.585938 114.152344 223.4375 112.703125 C 223.1875 110.378906 225.960938 109.429688 227.109375 111.105469 C 227.207031 111.277344 227.234375 111.453125 227.285156 111.652344 L 226.484375 111.726562 C 226.382812 111.203125 226.085938 110.855469 225.460938 110.855469 "/>
<path style=" stroke:none;fill-rule:nonzero;fill:rgb(0%,0%,0%);fill-opacity:1;" d="M 230.054688 110.230469 C 231.628906 110.230469 232.203125 111.277344 232.152344 112.878906 L 228.78125 112.878906 C 228.78125 113.875 229.132812 114.550781 230.105469 114.574219 C 230.753906 114.601562 231.179688 114.277344 231.328125 113.851562 L 232.027344 114.050781 C 231.753906 114.75 231.105469 115.175781 230.105469 115.175781 C 228.65625 115.175781 227.910156 114.25 227.933594 112.675781 C 227.957031 111.152344 228.582031 110.230469 230.054688 110.230469 Z M 231.355469 112.253906 C 231.503906 110.753906 229.457031 110.328125 228.933594 111.554688 C 228.855469 111.726562 228.78125 111.976562 228.78125 112.253906 L 231.355469 112.253906 "/>
<path style=" stroke:none;fill-rule:nonzero;fill:rgb(0%,0%,0%);fill-opacity:1;" d="M 195.410156 125.875 L 195.457031 120.429688 C 194.882812 122.328125 194.109375 124.050781 193.460938 125.875 L 192.886719 125.875 L 190.863281 120.429688 L 190.886719 125.875 L 190.164062 125.875 L 190.164062 119.679688 L 191.261719 119.679688 L 193.1875 124.949219 C 193.710938 123.078125 194.460938 121.453125 195.085938 119.679688 L 196.160156 119.679688 L 196.160156 125.875 L 195.410156 125.875 "/>
<path style=" stroke:none;fill-rule:nonzero;fill:rgb(0%,0%,0%);fill-opacity:1;" d="M 199.378906 121.03125 C 200.953125 121.03125 201.527344 122.078125 201.476562 123.675781 L 198.105469 123.675781 C 198.105469 124.675781 198.457031 125.351562 199.429688 125.375 C 200.078125 125.402344 200.503906 125.074219 200.652344 124.652344 L 201.351562 124.851562 C 201.078125 125.550781 200.429688 125.976562 199.429688 125.976562 C 197.980469 125.976562 197.230469 125.050781 197.257812 123.476562 C 197.28125 121.953125 197.90625 121.03125 199.378906 121.03125 Z M 200.679688 123.054688 C 200.828125 121.554688 198.78125 121.128906 198.257812 122.355469 C 198.179688 122.527344 198.105469 122.777344 198.105469 123.054688 L 200.679688 123.054688 "/>
<path style=" stroke:none;fill-rule:nonzero;fill:rgb(0%,0%,0%);fill-opacity:1;" d="M 205.398438 124.976562 C 205.023438 125.5 204.625 126 203.699219 125.976562 C 202.800781 125.949219 202.253906 125.449219 202.253906 124.550781 C 202.226562 122.953125 203.824219 122.976562 205.375 122.976562 C 205.449219 122.105469 205.148438 121.628906 204.351562 121.628906 C 203.75 121.652344 203.324219 121.804688 203.300781 122.402344 L 202.476562 122.328125 C 202.601562 121.40625 203.300781 121.03125 204.375 121.03125 C 205.5 121.03125 206.171875 121.53125 206.171875 122.628906 L 206.171875 124.675781 C 206.148438 125.175781 206.347656 125.476562 206.871094 125.351562 L 206.871094 125.851562 C 206.097656 126.074219 205.347656 125.800781 205.398438 124.976562 Z M 203.078125 124.550781 C 203.078125 125.050781 203.375 125.375 203.875 125.375 C 204.898438 125.300781 205.449219 124.652344 205.375 123.527344 C 204.300781 123.578125 203.078125 123.402344 203.078125 124.550781 "/>
<path style=" stroke:none;fill-rule:nonzero;fill:rgb(0%,0%,0%);fill-opacity:1;" d="M 210.246094 122.304688 C 210.167969 121.453125 208.097656 121.355469 208.070312 122.304688 C 208.445312 123.628906 210.945312 122.601562 211.042969 124.550781 C 211.144531 126.5 207.296875 126.398438 207.121094 124.75 L 207.820312 124.625 C 207.921875 125.523438 210.246094 125.75 210.269531 124.625 C 210.019531 123.226562 207.445312 124.25 207.320312 122.378906 C 207.222656 120.953125 209.371094 120.804688 210.367188 121.328125 C 210.667969 121.503906 210.894531 121.804688 210.96875 122.203125 "/>
<path style=" stroke:none;fill-rule:nonzero;fill:rgb(0%,0%,0%);fill-opacity:1;" d="M 213.464844 125.976562 C 211.242188 126.074219 212.117188 123.078125 211.941406 121.128906 L 212.742188 121.128906 L 212.742188 124.125 C 212.742188 124.902344 212.917969 125.375 213.714844 125.351562 C 215.515625 125.300781 214.839844 122.828125 214.964844 121.128906 L 215.738281 121.128906 L 215.761719 125.875 L 215.015625 125.875 C 214.988281 125.625 215.039062 125.25 214.964844 125.050781 C 214.691406 125.601562 214.265625 125.949219 213.464844 125.976562 "/>
<path style=" stroke:none;fill-rule:nonzero;fill:rgb(0%,0%,0%);fill-opacity:1;" d="M 219.210938 121.804688 C 217.261719 121.40625 217.886719 124.078125 217.785156 125.875 L 216.988281 125.875 L 216.960938 121.128906 L 217.710938 121.128906 C 217.738281 121.429688 217.6875 121.855469 217.761719 122.105469 C 217.910156 121.429688 218.335938 120.878906 219.210938 121.078125 L 219.210938 121.804688 "/>
<path style=" stroke:none;fill-rule:nonzero;fill:rgb(0%,0%,0%);fill-opacity:1;" d="M 221.832031 121.03125 C 223.40625 121.03125 223.980469 122.078125 223.929688 123.675781 L 220.558594 123.675781 C 220.558594 124.675781 220.910156 125.351562 221.882812 125.375 C 222.53125 125.402344 222.957031 125.074219 223.105469 124.652344 L 223.804688 124.851562 C 223.53125 125.550781 222.882812 125.976562 221.882812 125.976562 C 220.433594 125.976562 219.683594 125.050781 219.710938 123.476562 C 219.734375 121.953125 220.359375 121.03125 221.832031 121.03125 Z M 223.132812 123.054688 C 223.28125 121.554688 221.234375 121.128906 220.707031 122.355469 C 220.632812 122.527344 220.558594 122.777344 220.558594 123.054688 L 223.132812 123.054688 "/>
<path style="fill:none;stroke-width:2;stroke-linecap:butt;stroke-linejoin:miter;stroke:rgb(0%,0%,0%);stroke-opacity:1;stroke-miterlimit:10;" d="M 200 449.800347 L 201.701389 453.498264 L 202.803819 456.901042 L 203.498264 460.199653 L 203.897569 463.602431 L 204.001736 467.5 L 203.498264 473.003472 L 200 498.003472 L 200 500 " transform="matrix(0.45,0,0,0.45,-53,-62)"/>
<path style=" stroke:none;fill-rule:nonzero;fill:rgb(0%,0%,0%);fill-opacity:1;" d="M 37.449219 140.273438 L 37.046875 140.410156 L 37.40625 140.230469 Z M 37.449219 140.273438 "/>
<path style=" stroke:none;fill-rule:nonzero;fill:rgb(0%,0%,0%);fill-opacity:1;" d="M 39.835938 156.878906 L 37 163 L 35.695312 156.386719 Z M 39.835938 156.878906 "/>
<path style=" stroke:none;fill-rule:nonzero;fill:rgb(0%,0%,0%);fill-opacity:1;" d="M 40.511719 156.519531 L 37.136719 163.808594 L 37 163.808594 L 36.683594 163.855469 L 35.15625 155.84375 Z M 37.179688 161.558594 L 39.203125 157.238281 L 36.28125 156.878906 Z M 37.179688 161.558594 "/>
<path style="fill-rule:nonzero;fill:rgb(100%,100%,100%);fill-opacity:1;stroke-width:2;stroke-linecap:butt;stroke-linejoin:miter;stroke:rgb(0%,0%,0%);stroke-opacity:1;stroke-miterlimit:10;" d="M 320 345 C 320 342.196181 322.196181 340 325 340 L 475 340 C 477.803819 340 480 342.196181 480 345 L 480 460 C 453.298611 440 436.701389 440 426.701389 440 C 410.703125 440 389.296875 460 373.298611 460 C 363.298611 460 346.701389 460 320 440 Z M 320 345 " transform="matrix(0.45,0,0,0.45,-53,-62)"/>
<path style=" stroke:none;fill-rule:nonzero;fill:rgb(0%,0%,0%);fill-opacity:1;" d="M 113.925781 114.621094 L 113.925781 120.113281 L 113.078125 120.113281 L 113.078125 114.621094 L 110.953125 114.621094 L 110.953125 113.921875 L 116.050781 113.921875 L 116.050781 114.621094 L 113.925781 114.621094 "/>
<path style=" stroke:none;fill-rule:nonzero;fill:rgb(0%,0%,0%);fill-opacity:1;" d="M 117.722656 115.269531 C 119.296875 115.269531 119.871094 116.320312 119.820312 117.917969 L 116.449219 117.917969 C 116.449219 118.917969 116.800781 119.589844 117.773438 119.617188 C 118.421875 119.640625 118.847656 119.316406 118.996094 118.890625 L 119.695312 119.089844 C 119.421875 119.789062 118.773438 120.214844 117.773438 120.214844 C 116.324219 120.214844 115.574219 119.289062 115.601562 117.71875 C 115.625 116.195312 116.25 115.269531 117.722656 115.269531 Z M 119.023438 117.292969 C 119.171875 115.792969 117.125 115.371094 116.597656 116.59375 C 116.523438 116.769531 116.449219 117.019531 116.449219 117.292969 L 119.023438 117.292969 "/>
<path style=" stroke:none;fill-rule:nonzero;fill:rgb(0%,0%,0%);fill-opacity:1;" d="M 123.59375 116.542969 C 123.515625 115.695312 121.445312 115.59375 121.417969 116.542969 C 121.792969 117.867188 124.292969 116.84375 124.390625 118.792969 C 124.492188 120.738281 120.644531 120.640625 120.46875 118.992188 L 121.167969 118.867188 C 121.269531 119.765625 123.59375 119.988281 123.617188 118.867188 C 123.367188 117.46875 120.796875 118.492188 120.671875 116.617188 C 120.570312 115.195312 122.71875 115.046875 123.71875 115.570312 C 124.015625 115.746094 124.242188 116.042969 124.316406 116.445312 "/>
<path style=" stroke:none;fill-rule:nonzero;fill:rgb(0%,0%,0%);fill-opacity:1;" d="M 126.191406 118.941406 C 126.140625 119.539062 126.640625 119.664062 127.136719 119.492188 L 127.136719 120.089844 C 126.3125 120.339844 125.390625 120.214844 125.390625 119.117188 L 125.390625 115.945312 L 124.839844 115.945312 L 124.839844 115.371094 L 125.441406 115.371094 L 125.664062 114.296875 L 126.191406 114.296875 L 126.191406 115.371094 L 127.0625 115.371094 L 127.0625 115.945312 L 126.191406 115.945312 L 126.191406 118.941406 "/>
<path style=" stroke:none;fill-rule:nonzero;fill:rgb(0%,0%,0%);fill-opacity:1;" d="M 134.320312 115.394531 C 134.195312 114.195312 131.25 114.046875 131.222656 115.445312 C 131.574219 117.316406 135.167969 115.792969 135.292969 118.417969 C 135.371094 120.363281 132.273438 120.589844 130.921875 119.789062 C 130.5 119.539062 130.222656 119.140625 130.097656 118.640625 L 130.921875 118.464844 C 131.046875 119.867188 134.445312 120.039062 134.445312 118.441406 C 134.445312 116.492188 130.574219 118.09375 130.398438 115.496094 C 130.273438 113.445312 134.019531 113.398438 134.871094 114.644531 C 134.996094 114.820312 135.070312 115.046875 135.144531 115.269531 "/>
<path style=" stroke:none;fill-rule:nonzero;fill:rgb(0%,0%,0%);fill-opacity:1;" d="M 138.191406 115.269531 C 139.765625 115.269531 140.339844 116.320312 140.289062 117.917969 L 136.917969 117.917969 C 136.917969 118.917969 137.265625 119.589844 138.242188 119.617188 C 138.890625 119.640625 139.316406 119.316406 139.464844 118.890625 L 140.164062 119.089844 C 139.890625 119.789062 139.242188 120.214844 138.242188 120.214844 C 136.792969 120.214844 136.042969 119.289062 136.070312 117.71875 C 136.09375 116.195312 136.71875 115.269531 138.191406 115.269531 Z M 139.488281 117.292969 C 139.640625 115.792969 137.59375 115.371094 137.066406 116.59375 C 136.992188 116.769531 136.917969 117.019531 136.917969 117.292969 L 139.488281 117.292969 "/>
<path style=" stroke:none;fill-rule:nonzero;fill:rgb(0%,0%,0%);fill-opacity:1;" d="M 142.164062 118.941406 C 142.113281 119.539062 142.613281 119.664062 143.113281 119.492188 L 143.113281 120.089844 C 142.289062 120.339844 141.363281 120.214844 141.363281 119.117188 L 141.363281 115.945312 L 140.8125 115.945312 L 140.8125 115.371094 L 141.414062 115.371094 L 141.636719 114.296875 L 142.164062 114.296875 L 142.164062 115.371094 L 143.035156 115.371094 L 143.035156 115.945312 L 142.164062 115.945312 L 142.164062 118.941406 "/>
<path style="fill-rule:nonzero;fill:rgb(100%,100%,100%);fill-opacity:1;stroke-width:2;stroke-linecap:butt;stroke-linejoin:miter;stroke:rgb(0%,0%,0%);stroke-opacity:1;stroke-miterlimit:10;" d="M 340 248.003472 C 340 254.600694 313.098958 260 280 260 C 246.901042 260 220 254.600694 220 248.003472 L 220 151.996528 C 220 145.399306 246.901042 140 280 140 C 313.098958 140 340 145.399306 340 151.996528 Z M 340 248.003472 " transform="matrix(0.45,0,0,0.45,-53,-62)"/>
<path style="fill:none;stroke-width:2;stroke-linecap:butt;stroke-linejoin:miter;stroke:rgb(0%,0%,0%);stroke-opacity:1;stroke-miterlimit:10;" d="M 340 151.996528 C 340 158.602431 313.098958 164.001736 280 164.001736 C 246.901042 164.001736 220 158.602431 220 151.996528 " transform="matrix(0.45,0,0,0.45,-53,-62)"/>
<path style=" stroke:none;fill-rule:nonzero;fill:rgb(0%,0%,0%);fill-opacity:1;" d="M 55.609375 30.925781 L 55.609375 35.875 L 54.84375 35.875 L 54.84375 30.925781 L 52.929688 30.925781 L 52.929688 30.296875 L 57.519531 30.296875 L 57.519531 30.925781 L 55.609375 30.925781 "/>
<path style=" stroke:none;fill-rule:nonzero;fill:rgb(0%,0%,0%);fill-opacity:1;" d="M 59.949219 35.066406 C 59.613281 35.539062 59.253906 35.988281 58.421875 35.964844 C 57.609375 35.941406 57.113281 35.492188 57.113281 34.683594 C 57.09375 33.242188 58.53125 33.265625 59.925781 33.265625 C 59.996094 32.476562 59.726562 32.050781 59.003906 32.050781 C 58.464844 32.074219 58.082031 32.207031 58.058594 32.746094 L 57.316406 32.679688 C 57.429688 31.847656 58.058594 31.511719 59.027344 31.511719 C 60.039062 31.511719 60.648438 31.960938 60.648438 32.949219 L 60.648438 34.796875 C 60.625 35.246094 60.804688 35.515625 61.277344 35.402344 L 61.277344 35.851562 C 60.578125 36.054688 59.90625 35.808594 59.949219 35.066406 Z M 57.859375 34.683594 C 57.859375 35.132812 58.128906 35.425781 58.578125 35.425781 C 59.5 35.359375 59.996094 34.773438 59.925781 33.761719 C 58.960938 33.804688 57.859375 33.648438 57.859375 34.683594 "/>
<path style=" stroke:none;fill-rule:nonzero;fill:rgb(0%,0%,0%);fill-opacity:1;" d="M 64.316406 32.65625 C 64.246094 31.890625 62.378906 31.800781 62.359375 32.65625 C 62.695312 33.851562 64.945312 32.925781 65.035156 34.683594 C 65.125 36.4375 61.660156 36.347656 61.503906 34.863281 L 62.132812 34.75 C 62.222656 35.558594 64.316406 35.761719 64.335938 34.75 C 64.113281 33.488281 61.796875 34.414062 61.683594 32.726562 C 61.59375 31.441406 63.527344 31.308594 64.425781 31.78125 C 64.699219 31.9375 64.898438 32.207031 64.96875 32.566406 "/>
<path style=" stroke:none;fill-rule:nonzero;fill:rgb(0%,0%,0%);fill-opacity:1;" d="M 68.546875 35.875 L 67.105469 33.917969 L 66.585938 34.34375 L 66.585938 35.875 L 65.867188 35.875 L 65.867188 30.003906 L 66.585938 30.003906 L 66.585938 33.671875 L 68.453125 31.601562 L 69.289062 31.601562 L 67.554688 33.445312 L 69.398438 35.875 L 68.546875 35.875 "/>
<path style=" stroke:none;fill-rule:nonzero;fill:rgb(0%,0%,0%);fill-opacity:1;" d="M 71.648438 35.964844 L 73.269531 30.003906 L 73.898438 30.003906 L 72.28125 35.964844 L 71.648438 35.964844 "/>
<path style=" stroke:none;fill-rule:nonzero;fill:rgb(0%,0%,0%);fill-opacity:1;" d="M 76.824219 30.296875 C 79.480469 30.136719 81.683594 30.476562 81.617188 33.039062 C 81.550781 34.796875 80.648438 35.875 78.894531 35.875 L 76.824219 35.875 Z M 77.566406 35.265625 C 79.570312 35.449219 80.851562 34.90625 80.851562 33.039062 C 80.851562 31.171875 79.503906 30.765625 77.566406 30.902344 L 77.566406 35.265625 "/>
<path style=" stroke:none;fill-rule:nonzero;fill:rgb(0%,0%,0%);fill-opacity:1;" d="M 85.148438 35.066406 C 84.8125 35.539062 84.453125 35.988281 83.621094 35.964844 C 82.808594 35.941406 82.316406 35.492188 82.316406 34.683594 C 82.292969 33.242188 83.734375 33.265625 85.128906 33.265625 C 85.195312 32.476562 84.925781 32.050781 84.203125 32.050781 C 83.664062 32.074219 83.28125 32.207031 83.261719 32.746094 L 82.515625 32.679688 C 82.628906 31.847656 83.261719 31.511719 84.226562 31.511719 C 85.238281 31.511719 85.847656 31.960938 85.847656 32.949219 L 85.847656 34.796875 C 85.824219 35.246094 86.003906 35.515625 86.476562 35.402344 L 86.476562 35.851562 C 85.78125 36.054688 85.105469 35.808594 85.148438 35.066406 Z M 83.058594 34.683594 C 83.058594 35.132812 83.328125 35.425781 83.777344 35.425781 C 84.699219 35.359375 85.195312 34.773438 85.128906 33.761719 C 84.160156 33.804688 83.058594 33.648438 83.058594 34.683594 "/>
<path style=" stroke:none;fill-rule:nonzero;fill:rgb(0%,0%,0%);fill-opacity:1;" d="M 87.804688 34.816406 C 87.761719 35.359375 88.210938 35.46875 88.660156 35.3125 L 88.660156 35.851562 C 87.917969 36.078125 87.085938 35.964844 87.085938 34.976562 L 87.085938 32.117188 L 86.589844 32.117188 L 86.589844 31.601562 L 87.128906 31.601562 L 87.332031 30.632812 L 87.804688 30.632812 L 87.804688 31.601562 L 88.59375 31.601562 L 88.59375 32.117188 L 87.804688 32.117188 L 87.804688 34.816406 "/>
<path style=" stroke:none;fill-rule:nonzero;fill:rgb(0%,0%,0%);fill-opacity:1;" d="M 91.898438 35.066406 C 91.5625 35.539062 91.203125 35.988281 90.371094 35.964844 C 89.558594 35.941406 89.066406 35.492188 89.066406 34.683594 C 89.042969 33.242188 90.484375 33.265625 91.878906 33.265625 C 91.945312 32.476562 91.675781 32.050781 90.953125 32.050781 C 90.414062 32.074219 90.03125 32.207031 90.011719 32.746094 L 89.265625 32.679688 C 89.378906 31.847656 90.011719 31.511719 90.976562 31.511719 C 91.988281 31.511719 92.597656 31.960938 92.597656 32.949219 L 92.597656 34.796875 C 92.574219 35.246094 92.753906 35.515625 93.226562 35.402344 L 93.226562 35.851562 C 92.53125 36.054688 91.855469 35.808594 91.898438 35.066406 Z M 89.808594 34.683594 C 89.808594 35.132812 90.078125 35.425781 90.527344 35.425781 C 91.449219 35.359375 91.945312 34.773438 91.878906 33.761719 C 90.910156 33.804688 89.808594 33.648438 89.808594 34.683594 "/>
<path style="fill:none;stroke-width:2;stroke-linecap:butt;stroke-linejoin:miter;stroke:rgb(0%,0%,0%);stroke-opacity:1;stroke-miterlimit:10;" d="M 280 260 L 279.895833 261.796875 L 279.800347 263.498264 L 279.496528 265.199653 L 279.201389 266.796875 L 278.697917 268.402778 L 278.203125 269.895833 L 277.5 271.501736 L 276.701389 273.003472 L 275.798611 274.600694 L 274.696181 276.197917 L 273.402778 277.899306 L 271.796875 279.696181 L 269.895833 281.597222 L 267.5 283.697917 L 264.496528 286.102431 L 260.303819 289.001736 L 253.697917 292.899306 L 219.696181 310.998264 L 215.503472 313.897569 L 212.5 316.302083 L 210.104167 318.402778 L 208.203125 320.303819 L 206.597222 322.100694 L 205.303819 323.802083 L 204.201389 325.399306 L 203.298611 326.996528 L 202.5 328.498264 L 201.796875 330.104167 L 201.302083 331.597222 L 200.798611 333.203125 L 200.503472 334.800347 L 200.199653 336.501736 L 200.104167 338.203125 L 200 340 " transform="matrix(0.45,0,0,0.45,-53,-62)"/>
<path style=" stroke:none;fill-rule:nonzero;fill:rgb(0%,0%,0%);fill-opacity:1;" d="M 73.449219 55.136719 L 73 55 L 73.449219 55 Z M 73.449219 55.136719 "/>
<path style=" stroke:none;fill-rule:nonzero;fill:rgb(0%,0%,0%);fill-opacity:1;" d="M 40.734375 85.375 L 37 91 L 36.730469 84.25 Z M 40.734375 85.375 "/>
<path style=" stroke:none;fill-rule:nonzero;fill:rgb(0%,0%,0%);fill-opacity:1;" d="M 41.453125 85.105469 L 37.539062 91 L 36.550781 91 L 36.28125 83.664062 Z M 37.40625 89.605469 L 40.015625 85.644531 L 37.226562 84.835938 Z M 37.40625 89.605469 "/>
<path style="fill:none;stroke-width:2;stroke-linecap:butt;stroke-linejoin:miter;stroke:rgb(0%,0%,0%);stroke-opacity:1;stroke-miterlimit:10;" d="M 290.798611 259.600694 L 290.902778 261.397569 L 290.998264 263.098958 L 291.302083 264.696181 L 291.597222 266.102431 L 291.901042 267.5 L 292.300347 268.897569 L 292.699653 270.104167 L 293.203125 271.397569 L 293.697917 272.604167 L 294.296875 273.697917 L 294.895833 274.800347 L 295.598958 275.902778 L 296.397569 276.996528 L 297.196181 278.098958 L 298.098958 279.201389 L 299.001736 280.199653 L 300.104167 281.302083 L 301.302083 282.395833 L 302.604167 283.498264 L 304.097222 284.600694 L 305.798611 285.798611 L 307.699653 286.901042 L 309.895833 288.203125 L 312.5 289.496528 L 315.703125 290.902778 L 319.600694 292.395833 L 325 294.296875 L 333.498264 296.701389 L 366.597222 305.303819 L 371.901042 307.100694 L 375.798611 308.602431 L 378.897569 310 L 381.397569 311.197917 L 383.602431 312.395833 L 385.503472 313.602431 L 387.100694 314.696181 L 388.498264 315.798611 L 389.800347 316.901042 L 390.998264 317.899306 L 391.996528 319.001736 L 393.003472 320 L 393.802083 320.998264 L 394.600694 322.100694 L 395.303819 323.098958 L 395.998264 324.201389 L 396.597222 325.303819 L 397.196181 326.397569 L 397.699653 327.5 L 398.098958 328.697917 L 398.602431 330 L 398.897569 331.197917 L 399.201389 332.604167 L 399.496528 334.001736 L 399.696181 335.503472 L 399.895833 337.100694 L 400 338.802083 L 400 340 " transform="matrix(0.45,0,0,0.45,-53,-62)"/>
<path style=" stroke:none;fill-rule:nonzero;fill:rgb(0%,0%,0%);fill-opacity:1;" d="M 77.410156 54.953125 L 77.410156 54.863281 L 77.859375 54.820312 Z M 77.410156 54.953125 "/>
<path style=" stroke:none;fill-rule:nonzero;fill:rgb(0%,0%,0%);fill-opacity:1;" d="M 127 91 L 123.535156 85.195312 L 127.628906 84.296875 Z M 127 91 "/>
<path style=" stroke:none;fill-rule:nonzero;fill:rgb(0%,0%,0%);fill-opacity:1;" d="M 127.449219 91 L 126.460938 91 L 122.859375 84.878906 L 128.125 83.710938 Z M 124.253906 85.511719 L 126.683594 89.558594 L 127.089844 84.835938 Z M 124.253906 85.511719 "/>
<path style="fill-rule:nonzero;fill:rgb(100%,100%,100%);fill-opacity:1;stroke-width:2;stroke-linecap:butt;stroke-linejoin:miter;stroke:rgb(0%,0%,0%);stroke-opacity:1;stroke-miterlimit:10;" d="M 625.998264 180 C 643.697917 180 658.003472 197.899306 658.003472 220 C 658.003472 242.100694 643.697917 260 625.998264 260 L 530 260 C 512.300347 260 498.003472 242.100694 498.003472 220 C 498.003472 197.899306 512.300347 180 530 180 Z M 625.998264 180 " transform="matrix(0.45,0,0,0.45,-53,-62)"/>
<path style=" stroke:none;fill-rule:nonzero;fill:rgb(0%,0%,0%);fill-opacity:1;" d="M 184.601562 33.398438 C 186.558594 33.421875 188.898438 33.0625 188.898438 35.085938 C 188.898438 36.84375 187.164062 36.886719 185.34375 36.796875 L 185.34375 38.980469 L 184.601562 38.980469 Z M 185.34375 36.210938 C 186.625 36.210938 188.132812 36.460938 188.132812 35.085938 C 188.132812 33.761719 186.601562 34.03125 185.34375 34.007812 L 185.34375 36.210938 "/>
<path style=" stroke:none;fill-rule:nonzero;fill:rgb(0%,0%,0%);fill-opacity:1;" d="M 191.574219 34.613281 C 192.992188 34.613281 193.511719 35.558594 193.464844 37 L 190.425781 37 C 190.425781 37.898438 190.742188 38.507812 191.621094 38.53125 C 192.203125 38.550781 192.585938 38.261719 192.722656 37.878906 L 193.351562 38.058594 C 193.105469 38.6875 192.519531 39.070312 191.621094 39.070312 C 190.316406 39.070312 189.640625 38.238281 189.664062 36.820312 C 189.683594 35.449219 190.246094 34.613281 191.574219 34.613281 Z M 192.746094 36.4375 C 192.878906 35.085938 191.035156 34.703125 190.5625 35.808594 C 190.496094 35.964844 190.425781 36.191406 190.425781 36.4375 L 192.746094 36.4375 "/>
<path style=" stroke:none;fill-rule:nonzero;fill:rgb(0%,0%,0%);fill-opacity:1;" d="M 196.390625 35.3125 C 194.636719 34.953125 195.199219 37.359375 195.109375 38.980469 L 194.386719 38.980469 L 194.363281 34.703125 L 195.039062 34.703125 C 195.0625 34.976562 195.015625 35.359375 195.085938 35.582031 C 195.21875 34.976562 195.601562 34.480469 196.390625 34.660156 L 196.390625 35.3125 "/>
<path style=" stroke:none;fill-rule:nonzero;fill:rgb(0%,0%,0%);fill-opacity:1;" d="M 198.773438 33.714844 C 198.078125 33.511719 197.828125 33.941406 197.921875 34.703125 L 198.773438 34.703125 L 198.773438 35.222656 L 197.921875 35.222656 L 197.921875 38.980469 L 197.222656 38.980469 L 197.222656 35.222656 L 196.613281 35.222656 L 196.613281 34.703125 L 197.222656 34.703125 C 197.066406 33.535156 197.605469 32.859375 198.773438 33.175781 L 198.773438 33.714844 "/>
<path style=" stroke:none;fill-rule:nonzero;fill:rgb(0%,0%,0%);fill-opacity:1;" d="M 201.003906 34.613281 C 202.398438 34.59375 202.914062 35.449219 202.914062 36.84375 C 202.9375 38.261719 202.308594 39.070312 200.980469 39.070312 C 199.652344 39.070312 199.113281 38.191406 199.089844 36.84375 C 199.089844 35.359375 199.71875 34.613281 201.003906 34.613281 Z M 200.980469 38.53125 C 201.96875 38.550781 202.171875 37.832031 202.171875 36.84375 C 202.171875 35.875 201.992188 35.15625 201.023438 35.15625 C 200.058594 35.15625 199.832031 35.875 199.832031 36.84375 C 199.832031 37.808594 200.058594 38.507812 200.980469 38.53125 "/>
<path style=" stroke:none;fill-rule:nonzero;fill:rgb(0%,0%,0%);fill-opacity:1;" d="M 205.816406 35.3125 C 204.0625 34.953125 204.625 37.359375 204.535156 38.980469 L 203.816406 38.980469 L 203.792969 34.703125 L 204.46875 34.703125 C 204.488281 34.976562 204.445312 35.359375 204.511719 35.582031 C 204.648438 34.976562 205.03125 34.480469 205.816406 34.660156 L 205.816406 35.3125 "/>
<path style=" stroke:none;fill-rule:nonzero;fill:rgb(0%,0%,0%);fill-opacity:1;" d="M 210.65625 35.175781 C 209.148438 35.246094 209.800781 37.539062 209.664062 38.980469 L 208.96875 38.980469 L 208.96875 36.257812 C 208.96875 35.605469 208.855469 35.132812 208.179688 35.175781 C 206.695312 35.265625 207.324219 37.515625 207.191406 38.980469 L 206.492188 38.980469 L 206.46875 34.703125 L 207.144531 34.703125 C 207.167969 34.929688 207.121094 35.246094 207.191406 35.425781 C 207.414062 34.433594 209.417969 34.300781 209.597656 35.425781 C 209.84375 34.953125 210.203125 34.636719 210.902344 34.613281 C 212.816406 34.570312 211.960938 37.292969 212.140625 38.980469 L 211.441406 38.980469 L 211.441406 36.257812 C 211.441406 35.605469 211.328125 35.15625 210.65625 35.175781 "/>
<path style=" stroke:none;fill-rule:nonzero;fill:rgb(0%,0%,0%);fill-opacity:1;" d="M 215.828125 38.171875 C 215.492188 38.640625 215.132812 39.09375 214.300781 39.070312 C 213.488281 39.046875 212.996094 38.597656 212.996094 37.789062 C 212.972656 36.347656 214.414062 36.371094 215.808594 36.371094 C 215.875 35.582031 215.605469 35.15625 214.886719 35.15625 C 214.34375 35.175781 213.960938 35.3125 213.941406 35.851562 L 213.199219 35.785156 C 213.308594 34.953125 213.941406 34.613281 214.90625 34.613281 C 215.921875 34.613281 216.527344 35.066406 216.527344 36.054688 L 216.527344 37.898438 C 216.503906 38.351562 216.683594 38.621094 217.15625 38.507812 L 217.15625 38.957031 C 216.460938 39.160156 215.785156 38.914062 215.828125 38.171875 Z M 213.738281 37.789062 C 213.738281 38.238281 214.007812 38.53125 214.457031 38.53125 C 215.378906 38.460938 215.875 37.878906 215.808594 36.863281 C 214.839844 36.910156 213.738281 36.753906 213.738281 37.789062 "/>
<path style=" stroke:none;fill-rule:nonzero;fill:rgb(0%,0%,0%);fill-opacity:1;" d="M 219.789062 34.613281 C 221.792969 34.523438 220.984375 37.226562 221.140625 38.980469 L 220.421875 38.980469 L 220.421875 36.257812 C 220.421875 35.558594 220.238281 35.15625 219.542969 35.175781 C 217.921875 35.222656 218.550781 37.472656 218.441406 38.980469 L 217.71875 38.980469 L 217.699219 34.703125 L 218.371094 34.703125 C 218.394531 34.929688 218.351562 35.246094 218.417969 35.425781 C 218.664062 34.929688 219.070312 34.636719 219.789062 34.613281 "/>
<path style=" stroke:none;fill-rule:nonzero;fill:rgb(0%,0%,0%);fill-opacity:1;" d="M 223.816406 35.175781 C 222.917969 35.175781 222.738281 35.921875 222.738281 36.820312 C 222.738281 37.71875 222.941406 38.507812 223.816406 38.507812 C 224.359375 38.507812 224.738281 38.191406 224.785156 37.652344 L 225.503906 37.699219 C 225.371094 38.53125 224.808594 39.070312 223.839844 39.070312 C 222.511719 39.070312 222.128906 38.148438 221.996094 36.84375 C 221.769531 34.75 224.265625 33.894531 225.300781 35.402344 C 225.390625 35.558594 225.414062 35.71875 225.460938 35.898438 L 224.738281 35.964844 C 224.648438 35.492188 224.378906 35.175781 223.816406 35.175781 "/>
<path style=" stroke:none;fill-rule:nonzero;fill:rgb(0%,0%,0%);fill-opacity:1;" d="M 227.957031 34.613281 C 229.375 34.613281 229.890625 35.558594 229.847656 37 L 226.808594 37 C 226.808594 37.898438 227.125 38.507812 228.003906 38.53125 C 228.585938 38.550781 228.96875 38.261719 229.105469 37.878906 L 229.734375 38.058594 C 229.488281 38.6875 228.902344 39.070312 228.003906 39.070312 C 226.699219 39.070312 226.023438 38.238281 226.046875 36.820312 C 226.066406 35.449219 226.628906 34.613281 227.957031 34.613281 Z M 229.128906 36.4375 C 229.261719 35.085938 227.417969 34.703125 226.945312 35.808594 C 226.878906 35.964844 226.808594 36.191406 226.808594 36.4375 L 229.128906 36.4375 "/>
<path style="fill:none;stroke-width:2;stroke-linecap:butt;stroke-linejoin:miter;stroke:rgb(0%,0%,0%);stroke-opacity:1;stroke-miterlimit:10;" d="M 280 560 L 320 560 " transform="matrix(0.45,0,0,0.45,-53,-62)"/>
<path style=" stroke:none;fill-rule:nonzero;fill:rgb(0%,0%,0%);fill-opacity:1;" d="M 73 190.449219 L 71.875 190.449219 L 71.875 189.550781 L 73 189.550781 Z M 73 190.449219 "/>
<path style="fill-rule:nonzero;fill:rgb(0%,0%,0%);fill-opacity:1;stroke-width:2;stroke-linecap:butt;stroke-linejoin:miter;stroke:rgb(0%,0%,0%);stroke-opacity:1;stroke-miterlimit:10;" d="M 320 560 L 305.703125 564.600694 L 305.703125 555.399306 Z M 320 560 " transform="matrix(0.45,0,0,0.45,-53,-62)"/>
<path style="fill:none;stroke-width:2;stroke-linecap:butt;stroke-linejoin:miter;stroke:rgb(0%,0%,0%);stroke-opacity:1;stroke-miterlimit:10;" d="M 577.604167 340 L 578.003472 260 " transform="matrix(0.45,0,0,0.45,-53,-62)"/>
<path style=" stroke:none;fill-rule:nonzero;fill:rgb(0%,0%,0%);fill-opacity:1;" d="M 209.171875 61.433594 L 204.984375 61.390625 L 207.101562 55 Z M 209.171875 61.433594 "/>
<path style=" stroke:none;fill-rule:nonzero;fill:rgb(0%,0%,0%);fill-opacity:1;" d="M 209.753906 61.886719 L 204.355469 61.839844 L 206.605469 55 L 207.550781 55 Z M 205.613281 60.941406 L 208.539062 60.984375 L 207.101562 56.441406 Z M 205.613281 60.941406 "/>
<path style="fill-rule:nonzero;fill:rgb(100%,100%,100%);fill-opacity:1;stroke-width:2;stroke-linecap:butt;stroke-linejoin:miter;stroke:rgb(0%,0%,0%);stroke-opacity:1;stroke-miterlimit:10;" d="M 320 515 C 320 512.196181 322.196181 510 325 510 L 453.402778 510 C 456.197917 510 458.402778 512.196181 458.402778 515 L 458.402778 605 C 458.402778 607.803819 456.197917 610 453.402778 610 L 325 610 C 322.196181 610 320 607.803819 320 605 Z M 320 515 " transform="matrix(0.45,0,0,0.45,-53,-62)"/>
<path style=" stroke:none;fill-rule:nonzero;fill:rgb(0%,0%,0%);fill-opacity:1;" d="M 116.425781 192.25 L 116.46875 187.34375 C 115.953125 189.054688 115.253906 190.609375 114.671875 192.25 L 114.152344 192.25 L 112.328125 187.34375 L 112.351562 192.25 L 111.699219 192.25 L 111.699219 186.671875 L 112.691406 186.671875 L 114.421875 191.417969 C 114.894531 189.730469 115.570312 188.265625 116.132812 186.671875 L 117.101562 186.671875 L 117.101562 192.25 L 116.425781 192.25 "/>
<path style=" stroke:none;fill-rule:nonzero;fill:rgb(0%,0%,0%);fill-opacity:1;" d="M 120.003906 187.886719 C 121.398438 187.863281 121.914062 188.71875 121.914062 190.113281 C 121.9375 191.53125 121.308594 192.339844 119.980469 192.339844 C 118.652344 192.339844 118.113281 191.460938 118.089844 190.113281 C 118.089844 188.628906 118.71875 187.886719 120.003906 187.886719 Z M 119.980469 191.800781 C 120.96875 191.824219 121.171875 191.101562 121.171875 190.113281 C 121.171875 189.144531 120.992188 188.425781 120.023438 188.425781 C 119.058594 188.425781 118.832031 189.144531 118.832031 190.113281 C 118.832031 191.078125 119.058594 191.777344 119.980469 191.800781 "/>
<path style=" stroke:none;fill-rule:nonzero;fill:rgb(0%,0%,0%);fill-opacity:1;" d="M 124.164062 187.886719 C 124.863281 187.886719 125.246094 188.175781 125.515625 188.628906 L 125.492188 186.378906 L 126.210938 186.378906 L 126.234375 192.25 L 125.558594 192.25 C 125.515625 192.023438 125.558594 191.734375 125.492188 191.550781 C 125.265625 192.070312 124.863281 192.339844 124.164062 192.339844 C 122.972656 192.339844 122.613281 191.460938 122.589844 190.136719 C 122.589844 188.648438 123.109375 187.886719 124.164062 187.886719 Z M 124.367188 188.425781 C 123.46875 188.425781 123.332031 189.191406 123.332031 190.113281 C 123.332031 191.011719 123.46875 191.777344 124.34375 191.777344 C 125.289062 191.777344 125.492188 191.058594 125.492188 190.066406 C 125.492188 189.121094 125.289062 188.402344 124.367188 188.425781 "/>
<path style=" stroke:none;fill-rule:nonzero;fill:rgb(0%,0%,0%);fill-opacity:1;" d="M 129.003906 187.886719 C 130.421875 187.886719 130.9375 188.828125 130.890625 190.269531 L 127.855469 190.269531 C 127.855469 191.171875 128.171875 191.777344 129.046875 191.800781 C 129.632812 191.824219 130.015625 191.53125 130.148438 191.148438 L 130.78125 191.328125 C 130.53125 191.957031 129.949219 192.339844 129.046875 192.339844 C 127.742188 192.339844 127.066406 191.507812 127.089844 190.089844 C 127.113281 188.71875 127.675781 187.886719 129.003906 187.886719 Z M 130.171875 189.707031 C 130.308594 188.359375 128.460938 187.976562 127.988281 189.078125 C 127.921875 189.234375 127.855469 189.460938 127.855469 189.707031 L 130.171875 189.707031 "/>
<path style=" stroke:none;fill-rule:nonzero;fill:rgb(0%,0%,0%);fill-opacity:1;" d="M 131.792969 192.25 L 131.792969 186.378906 L 132.511719 186.378906 L 132.511719 192.25 L 131.792969 192.25 "/>
<path style="fill:none;stroke-width:2;stroke-linecap:butt;stroke-linejoin:miter;stroke:rgb(0%,0%,0%);stroke-opacity:1;stroke-miterlimit:10;" d="M 458.402778 560 L 498.402778 560 " transform="matrix(0.45,0,0,0.45,-53,-62)"/>
<path style="fill-rule:nonzero;fill:rgb(0%,0%,0%);fill-opacity:1;stroke-width:2;stroke-linecap:butt;stroke-linejoin:miter;stroke:rgb(0%,0%,0%);stroke-opacity:1;stroke-miterlimit:10;" d="M 498.402778 560 L 484.097222 564.600694 L 484.097222 555.399306 Z M 498.402778 560 " transform="matrix(0.45,0,0,0.45,-53,-62)"/>
<path style="fill-rule:nonzero;fill:rgb(100%,100%,100%);fill-opacity:1;stroke-width:2;stroke-linecap:butt;stroke-linejoin:miter;stroke:rgb(0%,0%,0%);stroke-opacity:1;stroke-miterlimit:10;" d="M 498.402778 505 C 498.402778 502.196181 500.598958 500 503.402778 500 L 653.402778 500 C 656.197917 500 658.402778 502.196181 658.402778 505 L 658.402778 620 C 631.701389 600 615.104167 600 605.104167 600 C 589.097222 600 567.699653 620 551.701389 620 C 541.701389 620 525.104167 620 498.402778 600 Z M 498.402778 505 " transform="matrix(0.45,0,0,0.45,-53,-62)"/>
<path style=" stroke:none;fill-rule:nonzero;fill:rgb(0%,0%,0%);fill-opacity:1;" d="M 188.050781 185.921875 C 190.222656 185.945312 192.820312 185.546875 192.820312 187.792969 C 192.820312 189.742188 190.894531 189.792969 188.875 189.691406 L 188.875 192.113281 L 188.050781 192.113281 Z M 188.875 189.042969 C 190.296875 189.042969 191.96875 189.316406 191.96875 187.792969 C 191.96875 186.320312 190.273438 186.621094 188.875 186.59375 L 188.875 189.042969 "/>
<path style=" stroke:none;fill-rule:nonzero;fill:rgb(0%,0%,0%);fill-opacity:1;" d="M 196.140625 188.042969 C 194.191406 187.644531 194.816406 190.316406 194.71875 192.113281 L 193.917969 192.113281 L 193.894531 187.371094 L 194.644531 187.371094 C 194.667969 187.667969 194.617188 188.09375 194.691406 188.34375 C 194.84375 187.667969 195.265625 187.121094 196.140625 187.320312 L 196.140625 188.042969 "/>
<path style=" stroke:none;fill-rule:nonzero;fill:rgb(0%,0%,0%);fill-opacity:1;" d="M 198.761719 187.269531 C 200.335938 187.269531 200.910156 188.320312 200.863281 189.917969 L 197.488281 189.917969 C 197.488281 190.917969 197.839844 191.589844 198.8125 191.617188 C 199.460938 191.640625 199.886719 191.316406 200.039062 190.890625 L 200.738281 191.089844 C 200.460938 191.789062 199.8125 192.214844 198.8125 192.214844 C 197.363281 192.214844 196.617188 191.289062 196.640625 189.71875 C 196.664062 188.195312 197.289062 187.269531 198.761719 187.269531 Z M 200.0625 189.292969 C 200.210938 187.792969 198.164062 187.371094 197.640625 188.59375 C 197.566406 188.769531 197.488281 189.019531 197.488281 189.292969 L 200.0625 189.292969 "/>
<path style=" stroke:none;fill-rule:nonzero;fill:rgb(0%,0%,0%);fill-opacity:1;" d="M 203.382812 187.269531 C 204.15625 187.269531 204.582031 187.59375 204.882812 188.09375 L 204.859375 185.597656 L 205.65625 185.597656 L 205.679688 192.113281 L 204.933594 192.113281 C 204.882812 191.867188 204.933594 191.539062 204.859375 191.339844 C 204.609375 191.914062 204.15625 192.214844 203.382812 192.214844 C 202.058594 192.214844 201.660156 191.242188 201.636719 189.765625 C 201.636719 188.117188 202.210938 187.269531 203.382812 187.269531 Z M 203.609375 187.871094 C 202.609375 187.871094 202.460938 188.71875 202.460938 189.742188 C 202.460938 190.742188 202.609375 191.589844 203.582031 191.589844 C 204.632812 191.589844 204.859375 190.792969 204.859375 189.691406 C 204.859375 188.644531 204.632812 187.84375 203.609375 187.871094 "/>
<path style=" stroke:none;fill-rule:nonzero;fill:rgb(0%,0%,0%);fill-opacity:1;" d="M 206.855469 186.347656 L 206.855469 185.597656 L 207.65625 185.597656 L 207.65625 186.347656 Z M 206.855469 192.113281 L 206.855469 187.371094 L 207.65625 187.371094 L 207.65625 192.113281 L 206.855469 192.113281 "/>
<path style=" stroke:none;fill-rule:nonzero;fill:rgb(0%,0%,0%);fill-opacity:1;" d="M 210.625 187.894531 C 209.628906 187.894531 209.429688 188.71875 209.429688 189.71875 C 209.429688 190.714844 209.652344 191.589844 210.625 191.589844 C 211.226562 191.589844 211.652344 191.242188 211.699219 190.640625 L 212.5 190.691406 C 212.351562 191.617188 211.726562 192.214844 210.652344 192.214844 C 209.179688 192.214844 208.753906 191.191406 208.605469 189.742188 C 208.355469 187.417969 211.125 186.46875 212.273438 188.144531 C 212.375 188.320312 212.398438 188.492188 212.449219 188.695312 L 211.652344 188.769531 C 211.550781 188.242188 211.25 187.894531 210.625 187.894531 "/>
<path style=" stroke:none;fill-rule:nonzero;fill:rgb(0%,0%,0%);fill-opacity:1;" d="M 214.199219 190.941406 C 214.148438 191.539062 214.648438 191.664062 215.148438 191.492188 L 215.148438 192.089844 C 214.324219 192.339844 213.398438 192.214844 213.398438 191.117188 L 213.398438 187.945312 L 212.847656 187.945312 L 212.847656 187.371094 L 213.449219 187.371094 L 213.671875 186.296875 L 214.199219 186.296875 L 214.199219 187.371094 L 215.070312 187.371094 L 215.070312 187.945312 L 214.199219 187.945312 L 214.199219 190.941406 "/>
<path style=" stroke:none;fill-rule:nonzero;fill:rgb(0%,0%,0%);fill-opacity:1;" d="M 215.820312 186.347656 L 215.820312 185.597656 L 216.621094 185.597656 L 216.621094 186.347656 Z M 215.820312 192.113281 L 215.820312 187.371094 L 216.621094 187.371094 L 216.621094 192.113281 L 215.820312 192.113281 "/>
<path style=" stroke:none;fill-rule:nonzero;fill:rgb(0%,0%,0%);fill-opacity:1;" d="M 219.691406 187.269531 C 221.242188 187.246094 221.816406 188.195312 221.816406 189.742188 C 221.839844 191.316406 221.140625 192.214844 219.667969 192.214844 C 218.195312 192.214844 217.59375 191.242188 217.570312 189.742188 C 217.570312 188.09375 218.269531 187.269531 219.691406 187.269531 Z M 219.667969 191.617188 C 220.765625 191.640625 220.992188 190.839844 220.992188 189.742188 C 220.992188 188.667969 220.792969 187.871094 219.71875 187.871094 C 218.644531 187.871094 218.394531 188.667969 218.394531 189.742188 C 218.394531 190.816406 218.644531 191.589844 219.667969 191.617188 "/>
<path style=" stroke:none;fill-rule:nonzero;fill:rgb(0%,0%,0%);fill-opacity:1;" d="M 225.113281 187.269531 C 227.335938 187.171875 226.4375 190.167969 226.609375 192.113281 L 225.8125 192.113281 L 225.8125 189.09375 C 225.8125 188.320312 225.613281 187.871094 224.835938 187.894531 C 223.039062 187.945312 223.738281 190.441406 223.613281 192.113281 L 222.8125 192.113281 L 222.789062 187.371094 L 223.539062 187.371094 C 223.5625 187.621094 223.515625 187.96875 223.589844 188.167969 C 223.863281 187.621094 224.3125 187.292969 225.113281 187.269531 "/>
<path style="fill:none;stroke-width:2;stroke-linecap:butt;stroke-linejoin:miter;stroke:rgb(0%,0%,0%);stroke-opacity:1;stroke-miterlimit:10;" d="M 578.402778 500 L 577.604167 460 " transform="matrix(0.45,0,0,0.45,-53,-62)"/>
<path style=" stroke:none;fill-rule:nonzero;fill:rgb(0%,0%,0%);fill-opacity:1;" d="M 209.125 151.390625 L 204.984375 151.480469 L 206.921875 145 Z M 209.125 151.390625 "/>
<path style=" stroke:none;fill-rule:nonzero;fill:rgb(0%,0%,0%);fill-opacity:1;" d="M 209.753906 151.796875 L 204.355469 151.929688 L 206.46875 145 L 207.414062 145 Z M 205.570312 150.984375 L 208.496094 150.941406 L 206.964844 146.441406 Z M 205.570312 150.984375 "/>
<path style="fill:none;stroke-width:2;stroke-linecap:butt;stroke-linejoin:miter;stroke:rgb(0%,0%,0%);stroke-opacity:1;stroke-miterlimit:10;" d="M 400 449.800347 L 401.197917 452.5 L 402.100694 455 L 402.803819 457.395833 L 403.203125 459.800347 L 403.402778 462.196181 L 403.498264 464.600694 L 403.298611 467.300347 L 402.803819 470.503472 L 401.796875 474.600694 L 393.602431 500 L 392.899306 504.401042 L 392.604167 508.498264 L 392.604167 510 " transform="matrix(0.45,0,0,0.45,-53,-62)"/>
<path style=" stroke:none;fill-rule:nonzero;fill:rgb(0%,0%,0%);fill-opacity:1;" d="M 127.449219 140.320312 L 127.046875 140.410156 L 127.40625 140.230469 Z M 127.449219 140.320312 "/>
<path style=" stroke:none;fill-rule:nonzero;fill:rgb(0%,0%,0%);fill-opacity:1;" d="M 126.820312 161.515625 L 123.671875 167.5 L 122.679688 160.839844 Z M 126.820312 161.515625 "/>
<path style=" stroke:none;fill-rule:nonzero;fill:rgb(0%,0%,0%);fill-opacity:1;" d="M 127.496094 161.199219 L 124.164062 167.5 L 123.21875 167.5 L 122.140625 160.253906 Z M 123.894531 166.058594 L 126.101562 161.875 L 123.21875 161.378906 Z M 123.894531 166.058594 "/>
<path style="fill:none;stroke-width:2;stroke-linecap:butt;stroke-linejoin:miter;stroke:rgb(0%,0%,0%);stroke-opacity:1;stroke-miterlimit:10;" d="M 720 640 C 736.597222 640 750 626.597222 750 610 L 750 430 C 750 413.402778 763.402778 400 780 400 C 763.402778 400 750 386.597222 750 370 L 750 190 C 750 173.402778 736.597222 160 720 160 " transform="matrix(0.45,0,0,0.45,-53,-62)"/>
<path style=" stroke:none;fill-rule:nonzero;fill:rgb(0%,0%,0%);fill-opacity:1;" d="M 313.683594 110.777344 C 313.660156 111.699219 313.164062 112.21875 312.332031 112.351562 L 313.90625 114.761719 L 313.050781 114.761719 L 311.589844 112.441406 L 309.859375 112.441406 L 309.859375 114.761719 L 309.113281 114.761719 L 309.113281 109.179688 C 311.09375 109.246094 313.726562 108.707031 313.683594 110.777344 Z M 309.859375 111.859375 C 311.207031 111.8125 312.941406 112.148438 312.941406 110.800781 C 312.941406 109.425781 311.140625 109.855469 309.859375 109.789062 L 309.859375 111.859375 "/>
<path style=" stroke:none;fill-rule:nonzero;fill:rgb(0%,0%,0%);fill-opacity:1;" d="M 316.515625 110.394531 C 317.933594 110.394531 318.453125 111.339844 318.40625 112.78125 L 315.371094 112.78125 C 315.371094 113.679688 315.683594 114.289062 316.5625 114.308594 C 317.148438 114.332031 317.53125 114.039062 317.664062 113.65625 L 318.296875 113.835938 C 318.046875 114.46875 317.460938 114.851562 316.5625 114.851562 C 315.257812 114.851562 314.582031 114.015625 314.605469 112.601562 C 314.628906 111.226562 315.191406 110.394531 316.515625 110.394531 Z M 317.6875 112.21875 C 317.824219 110.867188 315.976562 110.484375 315.503906 111.585938 C 315.4375 111.746094 315.371094 111.96875 315.371094 112.21875 L 317.6875 112.21875 "/>
<path style=" stroke:none;fill-rule:nonzero;fill:rgb(0%,0%,0%);fill-opacity:1;" d="M 321.355469 110.394531 C 322.59375 110.417969 322.929688 111.316406 322.929688 112.601562 C 322.929688 113.882812 322.570312 114.804688 321.355469 114.851562 C 320.65625 114.851562 320.253906 114.558594 320.003906 114.085938 L 320.027344 116.449219 L 319.308594 116.449219 L 319.285156 110.484375 L 319.984375 110.484375 L 320.027344 111.160156 C 320.253906 110.6875 320.65625 110.394531 321.355469 110.394531 Z M 321.175781 114.308594 C 322.074219 114.308594 322.1875 113.546875 322.1875 112.621094 C 322.1875 111.699219 322.050781 110.980469 321.175781 110.957031 C 320.230469 110.957031 320.027344 111.675781 320.027344 112.667969 C 320.027344 113.636719 320.253906 114.308594 321.175781 114.308594 "/>
<path style=" stroke:none;fill-rule:nonzero;fill:rgb(0%,0%,0%);fill-opacity:1;" d="M 325.515625 110.394531 C 326.933594 110.394531 327.453125 111.339844 327.40625 112.78125 L 324.371094 112.78125 C 324.371094 113.679688 324.683594 114.289062 325.5625 114.308594 C 326.148438 114.332031 326.53125 114.039062 326.664062 113.65625 L 327.296875 113.835938 C 327.046875 114.46875 326.460938 114.851562 325.5625 114.851562 C 324.257812 114.851562 323.582031 114.015625 323.605469 112.601562 C 323.628906 111.226562 324.191406 110.394531 325.515625 110.394531 Z M 326.6875 112.21875 C 326.824219 110.867188 324.976562 110.484375 324.503906 111.585938 C 324.4375 111.746094 324.371094 111.96875 324.371094 112.21875 L 326.6875 112.21875 "/>
<path style=" stroke:none;fill-rule:nonzero;fill:rgb(0%,0%,0%);fill-opacity:1;" d="M 330.941406 113.949219 C 330.601562 114.421875 330.242188 114.871094 329.410156 114.851562 C 328.601562 114.828125 328.105469 114.378906 328.105469 113.566406 C 328.082031 112.128906 329.523438 112.148438 330.917969 112.148438 C 330.984375 111.363281 330.714844 110.933594 329.996094 110.933594 C 329.453125 110.957031 329.074219 111.09375 329.050781 111.632812 L 328.308594 111.566406 C 328.421875 110.734375 329.050781 110.394531 330.015625 110.394531 C 331.03125 110.394531 331.636719 110.84375 331.636719 111.835938 L 331.636719 113.679688 C 331.613281 114.128906 331.796875 114.398438 332.265625 114.289062 L 332.265625 114.738281 C 331.570312 114.941406 330.894531 114.691406 330.941406 113.949219 Z M 328.847656 113.566406 C 328.847656 114.015625 329.117188 114.308594 329.566406 114.308594 C 330.488281 114.242188 330.984375 113.65625 330.917969 112.644531 C 329.949219 112.691406 328.847656 112.53125 328.847656 113.566406 "/>
<path style=" stroke:none;fill-rule:nonzero;fill:rgb(0%,0%,0%);fill-opacity:1;" d="M 333.59375 113.703125 C 333.550781 114.242188 334 114.355469 334.449219 114.199219 L 334.449219 114.738281 C 333.707031 114.960938 332.875 114.851562 332.875 113.859375 L 332.875 111.003906 L 332.378906 111.003906 L 332.378906 110.484375 L 332.921875 110.484375 L 333.121094 109.515625 L 333.59375 109.515625 L 333.59375 110.484375 L 334.382812 110.484375 L 334.382812 111.003906 L 333.59375 111.003906 L 333.59375 113.703125 "/>
<path style=" stroke:none;fill-rule:nonzero;fill:rgb(0%,0%,0%);fill-opacity:1;" d="M 337.195312 111.386719 L 337.195312 110.800781 L 341.109375 110.800781 L 341.109375 111.386719 Z M 337.195312 113.410156 L 337.195312 112.824219 L 341.109375 112.824219 L 341.109375 113.410156 L 337.195312 113.410156 "/>
<path style=" stroke:none;fill-rule:nonzero;fill:rgb(0%,0%,0%);fill-opacity:1;" d="M 312.015625 120.496094 C 311.996094 121.421875 311.5 121.9375 310.667969 122.074219 L 312.242188 124.480469 L 311.386719 124.480469 L 309.925781 122.164062 L 308.191406 122.164062 L 308.191406 124.480469 L 307.449219 124.480469 L 307.449219 118.898438 C 309.429688 118.96875 312.0625 118.425781 312.015625 120.496094 Z M 308.191406 121.578125 C 309.542969 121.53125 311.273438 121.871094 311.273438 120.519531 C 311.273438 119.148438 309.476562 119.574219 308.191406 119.507812 L 308.191406 121.578125 "/>
<path style=" stroke:none;fill-rule:nonzero;fill:rgb(0%,0%,0%);fill-opacity:1;" d="M 314.851562 120.113281 C 316.269531 120.113281 316.789062 121.058594 316.742188 122.5 L 313.703125 122.5 C 313.703125 123.398438 314.019531 124.007812 314.898438 124.03125 C 315.484375 124.050781 315.863281 123.761719 316 123.378906 L 316.628906 123.558594 C 316.382812 124.1875 315.796875 124.570312 314.898438 124.570312 C 313.59375 124.570312 312.917969 123.738281 312.941406 122.320312 C 312.960938 120.949219 313.523438 120.113281 314.851562 120.113281 Z M 316.023438 121.9375 C 316.15625 120.585938 314.3125 120.203125 313.839844 121.308594 C 313.773438 121.464844 313.703125 121.691406 313.703125 121.9375 L 316.023438 121.9375 "/>
<path style=" stroke:none;fill-rule:nonzero;fill:rgb(0%,0%,0%);fill-opacity:1;" d="M 320.140625 121.261719 C 320.074219 120.496094 318.203125 120.40625 318.183594 121.261719 C 318.519531 122.453125 320.769531 121.53125 320.859375 123.289062 C 320.949219 125.042969 317.484375 124.953125 317.328125 123.46875 L 317.957031 123.355469 C 318.046875 124.164062 320.140625 124.367188 320.164062 123.355469 C 319.9375 122.09375 317.621094 123.015625 317.507812 121.328125 C 317.417969 120.046875 319.351562 119.914062 320.253906 120.386719 C 320.523438 120.542969 320.726562 120.8125 320.792969 121.171875 "/>
<path style=" stroke:none;fill-rule:nonzero;fill:rgb(0%,0%,0%);fill-opacity:1;" d="M 324.324219 123.671875 C 323.988281 124.140625 323.628906 124.59375 322.796875 124.570312 C 321.984375 124.546875 321.488281 124.097656 321.488281 123.289062 C 321.46875 121.847656 322.90625 121.871094 324.300781 121.871094 C 324.371094 121.082031 324.101562 120.65625 323.378906 120.65625 C 322.839844 120.675781 322.457031 120.8125 322.433594 121.351562 L 321.691406 121.285156 C 321.804688 120.453125 322.433594 120.113281 323.402344 120.113281 C 324.414062 120.113281 325.023438 120.566406 325.023438 121.554688 L 325.023438 123.398438 C 325 123.851562 325.179688 124.121094 325.652344 124.007812 L 325.652344 124.457031 C 324.953125 124.660156 324.28125 124.414062 324.324219 123.671875 Z M 322.234375 123.289062 C 322.234375 123.738281 322.503906 124.03125 322.953125 124.03125 C 323.875 123.960938 324.371094 123.378906 324.300781 122.363281 C 323.335938 122.410156 322.234375 122.253906 322.234375 123.289062 "/>
<path style=" stroke:none;fill-rule:nonzero;fill:rgb(0%,0%,0%);fill-opacity:1;" d="M 330.378906 120.675781 C 328.871094 120.746094 329.523438 123.039062 329.386719 124.480469 L 328.691406 124.480469 L 328.691406 121.757812 C 328.691406 121.105469 328.578125 120.632812 327.902344 120.675781 C 326.417969 120.765625 327.046875 123.015625 326.914062 124.480469 L 326.214844 124.480469 L 326.191406 120.203125 L 326.867188 120.203125 C 326.890625 120.429688 326.84375 120.746094 326.914062 120.925781 C 327.136719 119.933594 329.140625 119.800781 329.320312 120.925781 C 329.566406 120.453125 329.925781 120.136719 330.625 120.113281 C 332.539062 120.070312 331.683594 122.792969 331.863281 124.480469 L 331.164062 124.480469 L 331.164062 121.757812 C 331.164062 121.105469 331.050781 120.65625 330.378906 120.675781 "/>
<path style=" stroke:none;fill-rule:nonzero;fill:rgb(0%,0%,0%);fill-opacity:1;" d="M 334.96875 120.113281 C 336.203125 120.136719 336.542969 121.039062 336.542969 122.320312 C 336.542969 123.601562 336.183594 124.523438 334.96875 124.570312 C 334.269531 124.570312 333.863281 124.277344 333.617188 123.804688 L 333.640625 126.167969 L 332.921875 126.167969 L 332.898438 120.203125 L 333.59375 120.203125 L 333.640625 120.878906 C 333.863281 120.40625 334.269531 120.113281 334.96875 120.113281 Z M 334.789062 124.03125 C 335.6875 124.03125 335.800781 123.265625 335.800781 122.34375 C 335.800781 121.421875 335.664062 120.699219 334.789062 120.675781 C 333.84375 120.675781 333.640625 121.398438 333.640625 122.386719 C 333.640625 123.355469 333.863281 124.03125 334.789062 124.03125 "/>
<path style=" stroke:none;fill-rule:nonzero;fill:rgb(0%,0%,0%);fill-opacity:1;" d="M 337.421875 124.480469 L 337.421875 118.609375 L 338.140625 118.609375 L 338.140625 124.480469 L 337.421875 124.480469 "/>
<path style=" stroke:none;fill-rule:nonzero;fill:rgb(0%,0%,0%);fill-opacity:1;" d="M 340.90625 120.113281 C 342.324219 120.113281 342.84375 121.058594 342.796875 122.5 L 339.761719 122.5 C 339.761719 123.398438 340.074219 124.007812 340.953125 124.03125 C 341.539062 124.050781 341.921875 123.761719 342.054688 123.378906 L 342.683594 123.558594 C 342.4375 124.1875 341.851562 124.570312 340.953125 124.570312 C 339.648438 124.570312 338.972656 123.738281 338.996094 122.320312 C 339.015625 120.949219 339.578125 120.113281 340.90625 120.113281 Z M 342.078125 121.9375 C 342.210938 120.585938 340.367188 120.203125 339.894531 121.308594 C 339.828125 121.464844 339.761719 121.691406 339.761719 121.9375 L 342.078125 121.9375 "/>
</g>
</svg>
