<svg xmlns="http://www.w3.org/2000/svg" xmlns:xlink="http://www.w3.org/1999/xlink" version="1.1" width="580.264pt" height="394.985pt" viewBox="0 0 580.264 394.985">
<defs>
<path id="font_8_30" d="M.21699524 .3506775 .21598816 .39465333C.21598816 .4186554 .20698548 .43066407 .18199158 .43066407H.068984989C.049987794 .43066407 .034988405 .4226532 .034988405 .4016571 .034988405 .37965394 .049987794 .37265016 .07199097 .37265016H.15098572V.05897522H.068984989C.04798889 .05908203 .034988405 .049057008 .034988405 .030029297 .034988405 .014007568 .04699707 0 .066986087 0 .07199097-.000030517579 .07699585 .0009765625 .08198547 .0009765625H.2689972C.28399659 .0009918213 .29899598 0 .31399537 0 .34199525 0 .36099244 .005996704 .36099244 .031036377 .36099244 .048065187 .34799195 .060073854 .32598878 .060073854 .31799317 .05996704 .30999757 .05897522 .30299378 .05897522H.21598816V.17715454C.21598816 .2462616 .23298645 .3063507 .2939911 .3504181 .31999208 .36946107 .35299684 .37947084 .3849945 .37947084 .41099549 .37947084 .397995 .33946229 .43699647 .33946229 .45799256 .33940126 .47698976 .35543824 .47698976 .37947084 .47698976 .42947389 .41600038 .43847657 .3849945 .43847657 .32199098 .43847657 .24899292 .40446473 .21699524 .35142518V.3506775Z"/>
<path id="font_8_10" d="M.22799683 .616272C.1459961 .616272 .056991579 .5402374 .056991579 .4552002 .056991579 .3601532 .1459961 .30213929 .22799683 .29212953V.055023195C.18399048 .061019899 .13798523 .08703613 .1269989 .13406372V.13705445C.1269989 .14906311 .13798523 .15707398 .13798523 .17108155 .13798523 .19207764 .12199402 .21209717 .09799194 .21209717 .07499695 .21209717 .056991579 .19508362 .056991579 .16906739 .056991579 .075027469 .11898804 .019012452 .20599365-.0010070801 .21499634-.0030059815 .22799683 0 .22799683-.014007568V-.04801941C.22799683-.06602478 .23599243-.08203125 .25698854-.08203125 .2749939-.08203125 .28599549-.07003784 .28599549-.05203247V-.0030059815C.37599183 .007003784 .45599366 .07904053 .45599366 .17507935V.18408203C.44599916 .26911927 .38398744 .32014466 .2999878 .3431549 .2919922 .3451538 .28599549 .3431549 .28599549 .35716249V.5582428C.32598878 .554245 .36799623 .5342407 .38398744 .49421693 .3849945 .49221803 .38598634 .48921205 .38598634 .4862213V.4842224C.38198854 .47421266 .375 .46720887 .375 .45420838 .375 .43218995 .3929901 .4131775 .41600038 .4131775 .43598939 .41418458 .45298768 .42819215 .45599366 .4481964V.4552002C.45599366 .5582428 .37998963 .6042633 .28599549 .61727908V.66529849C.28599549 .6843109 .27398683 .6953125 .25698854 .6953125 .23999024 .6953125 .22799683 .6843109 .22799683 .6642914V.616272M.28599549 .056030275V.27912904C.33999635 .26911927 .394989 .23010254 .394989 .16706848 .394989 .11004639 .34199525 .062026979 .28599549 .056030275M.22799683 .5582428V.3581543C.18199158 .36917115 .116989139 .3941803 .116989139 .45820619 .116989139 .5172272 .18299866 .5492401 .22799683 .5582428Z"/>
<path id="font_8_25" d="M.16099549 .38365174V.3956604C.16099549 .41766358 .1519928 .43066407 .12799073 .43066407H.04798889C.02999878 .43066407 .01499939 .42166139 .01499939 .4016571 .01499939 .38365174 .026992798 .37265016 .04699707 .37265016H.09599304V-.16270447H.04598999C.027999878-.16270447 .01499939-.17370606 .01499939-.19171143 .01499939-.2137146 .02999878-.22070313 .050994874-.22070313H.20698548C.23098755-.22070313 .24198914-.2097168 .24198914-.19171143 .24198914-.17370606 .22898865-.16270447 .21099854-.16270447H.16099549V.050109865C.19400025 .017105103 .22999573-.0048828127 .27799989-.0048828127 .3929901-.0048828127 .47599793 .10202026 .47599793 .21780396 .47599793 .31962586 .4079895 .43652345 .2869873 .43652345 .23999024 .43652345 .19499207 .41551209 .16099549 .3835144V.38365174M.4099884 .20283509C.40299989 .12896729 .35299684 .053115846 .272995 .053115846 .20399475 .053115846 .1599884 .13096619 .1599884 .18986511 .1599884 .20283509 .16099549 .21481323 .16099549 .22679138 .16099549 .23876953 .1599884 .25074769 .1599884 .26272584 .1599884 .3256073 .22200012 .37850953 .28199769 .37850953 .36099244 .37850953 .41099549 .29267884 .41099549 .22080994 .41099549 .21481323 .41099549 .20883179 .4099884 .20283509Z"/>
<path id="font_8_11" d="M.12298584 .19433594H.397995C.4039917 .19433594 .41099549 .19332886 .4189911 .19332886 .44299317 .19332886 .45498658 .20532227 .45498658 .22732544 .45498658 .32939149 .4019928 .4404297 .2649994 .4404297 .14299011 .4404297 .055999757 .3323822 .055999757 .21832276 .055999757 .08917236 .16299439-.0048828127 .2809906-.0048828127 .34199525-.0048828127 .4099884 .021102906 .44198609 .07614136 .44799806 .08616638 .45498658 .10018921 .45498658 .112197879 .45298768 .13023377 .43998719 .13723755 .42099 .13723755 .3919983 .13723755 .3919983 .11520386 .3809967 .09817505 .35798646 .06813049 .32398988 .053115846 .28599549 .053115846 .20799256 .053115846 .13198853 .11520386 .12298584 .19433594M.12399292 .24932862C.13198853 .3193817 .19499207 .38241578 .2659912 .38241578 .2939911 .38241578 .32398988 .37242127 .34498597 .3534088 .375 .32737733 .38398744 .28735353 .3889923 .24932862H.12399292Z"/>
<path id="font_8_9" d="M.35198976 .5542908V.3875122C.31399537 .4195099 .28199769 .43652345 .23399353 .43652345 .11199951 .43652345 .036987306 .32162477 .036987306 .21382141 .036987306 .10700989 .11099243-.0048828127 .22698975-.0048828127H.23599243C.2829895-.0018920899 .31900025 .022109986 .35198976 .055099489 .35198976 .049102785 .35099793 .042114259 .35099793 .035110475 .35099793 .011962891 .36299134 .0009765625 .3849945 .0009765625H.46499635C.48298646 .0009765625 .49798585 .009963989 .49798585 .029968262 .49798585 .050964357 .48399354 .05897522 .46598817 .05897522H.4169922V.58029177C.4169922 .6013031 .4079895 .6123047 .38198854 .6123047H.3039856C.2869873 .6123047 .269989 .6042938 .269989 .58428958 .269989 .56829836 .2809906 .5542908 .30099488 .5542908H.35198976M.101989749 .20376587C.101989749 .2087555 .100997928 .2127533 .100997928 .21774292 .100997928 .29263307 .1579895 .37850953 .23999024 .37850953H.24499512C.30299378 .37652589 .35299684 .32260133 .35299684 .26467896 .35299684 .2527008 .35198976 .2407074 .35198976 .22972107V.19377136C.35198976 .12896729 .3039856 .053115846 .22999573 .053115846 .1499939 .053115846 .10899353 .13795471 .101989749 .20384217V.20376587Z"/>
<path id="font_8_19" d="M.23599243 .37265016V.05897522H.116989139C.09298706 .05897522 .08198547 .048965455 .08198547 .030975342 .08198547 .016967774 .08999634 .0029754639 .10499573 .0009765625H.40899659C.42999269 .0009765625 .43998719 .012969971 .43998719 .029968262 .43998719 .048965455 .42900086 .05897522 .40299989 .05897522H.30099488V.3976593C.30099488 .426651 .2829895 .43066407 .2659912 .43066407H.12998963C.11299133 .43066407 .08898926 .42965699 .08898926 .4016571 .08898926 .380661 .10598755 .37165834 .1289978 .37165834 .13699341 .37165834 .1459961 .37265016 .15299988 .37265016H.23599243M.24899292 .6123047C.22698975 .6123047 .21099854 .587204 .21099854 .5691376 .21099854 .5450592 .23098755 .52297976 .2559967 .52297976 .27999879 .52297976 .30099488 .5440521 .30099488 .5671387 .30099488 .5912018 .2809906 .61328127 .2559967 .61328127 .2539978 .6132965 .25099183 .6123047 .24899292 .6123047Z"/>
<path id="font_8_7" d="M.3639984 .3773651C.36299134 .3743744 .36299134 .3713684 .36299134 .3693695 .36299134 .3443451 .38398744 .33033753 .4039917 .33033753 .42199708 .33033753 .43998719 .3403473 .44400025 .36535646 .44400025 .4394226 .35699464 .4404297 .30599977 .4404297 .23799134 .4404297 .1789856 .42640687 .12799073 .3673706 .09199524 .32432557 .07398987 .27027894 .07398987 .21624756 .07398987 .106155399 .15299988-.0048828127 .2939911-.0048828127 .34799195-.0048828127 .4059906 .019104004 .43699647 .06512451 .44400025 .07713318 .45599366 .09414673 .45599366 .1101532 .45599366 .13017273 .43899537 .13616944 .4229889 .13616944 .3929901 .13616944 .3939972 .11715698 .3829956 .09915161 .36499024 .068115238 .33198548 .053115846 .29599 .053115846 .20698548 .053115846 .14199829 .12817383 .13798523 .20922852V.21824646C.13798523 .28529359 .1789856 .35534669 .24499512 .3763733 .2619934 .38137818 .27999879 .38237 .2979889 .38237 .31999208 .38237 .34199525 .3803711 .3639984 .3773651Z"/>
<path id="font_8_34" d="M.15098572 .43066407H.05999756C.035995485 .43066407 .023986817 .41966249 .023986817 .40065003 .023986817 .380661 .038986207 .37265016 .056991579 .37265016H.15098572V.13798523C.15098572 .080078128 .1659851-.0048828127 .2849884-.0048828127 .35499574-.0048828127 .43998719 .032104494 .43998719 .11701965 .43998719 .12301636 .44099427 .1289978 .44099427 .1349945 .44099427 .15896607 .42399598 .16595459 .40699769 .16595459 .3889923 .16595459 .375 .15795899 .375 .1349945V.12800598C.375 .07408142 .33299256 .053115846 .2919922 .053115846 .272995 .053115846 .2519989 .05810547 .23699951 .0690918 .21798706 .08306885 .21598816 .107040408 .21598816 .13000489V.37265016H.38198854C.3999939 .37265016 .41799928 .3766632 .41799928 .4016571 .41799928 .4146576 .4099884 .4286499 .394989 .43066407H.21598816V.5206909C.21598816 .547699 .20098877 .55371096 .18299866 .55371096 .16499329 .55371096 .15098572 .54670718 .15098572 .5206909V.43066407Z"/>
<path id="font_8_23" d="M.24299622 .4404297C.12199402 .4274292 .057998659 .31835938 .057998659 .21325684 .057998659 .10215759 .13999939-.0048828127 .25898744-.0048828127H.2689972C.3869934 .0061035158 .45498658 .11216736 .45498658 .21626282 .45498658 .32737733 .37599183 .4404297 .2539978 .4404297H.24299622M.12298584 .21026612C.12298584 .215271 .12199402 .2192688 .12199402 .22427368 .12199402 .29833985 .17399597 .38241578 .2579956 .38241578 .33898927 .38241578 .3909912 .29634095 .3909912 .22227478 .3909912 .14318848 .33699037 .053115846 .2559967 .053115846 .17399597 .053115846 .12998963 .14019776 .12298584 .21026612Z"/>
<path id="font_8_21" d="M.16099549 .380661V.39665223C.16099549 .41966249 .15098572 .43066407 .12799073 .43066407H.04798889C.02999878 .43066407 .01499939 .42166139 .01499939 .4016571 .01499939 .38365174 .026992798 .37265016 .04699707 .37265016H.09599304V.05897522H.04598999C.027999878 .05897522 .01499939 .047973634 .01499939 .029968262 .01499939 .007965088 .02999878 .0009765625 .050994874 .0009765625H.20698548C.23098755 .0009765625 .24198914 .011962891 .24198914 .029968262 .24198914 .047973634 .22898865 .05897522 .21099854 .05897522H.16099549V.23072815C.16099549 .26567079 .1659851 .29763795 .18699646 .32759095 .20899964 .35754396 .24398804 .37850953 .2809906 .37850953 .33599855 .37850953 .35198976 .34057618 .35198976 .29164125V.05897522H.3019867C.28399659 .05897522 .2709961 .047973634 .2709961 .029968262 .2709961 .011962891 .28199769 .0009765625 .30599977 .0009765625H.46199037C.48298646 .0009765625 .49798585 .007965088 .49798585 .029968262 .49798585 .047973634 .4850006 .05897522 .46699525 .05897522H.4169922V.2806549C.4169922 .3475647 .4019928 .43652345 .29100038 .43652345 .24099732 .43652345 .19599915 .41551209 .16099549 .38050843V.380661Z"/>
<path id="font_8_31" d="M.1329956 .036102296C.1749878 .008102417 .21299744-.0048828127 .2599945-.0048828127 .33898927-.0048828127 .44898988 .020111084 .44898988 .124176029 .44898988 .17321778 .4149933 .21125794 .37298585 .23127747 .2939911 .27131654 .12799073 .2532959 .12799073 .32336427 .12799073 .3704071 .19799805 .37942506 .23098755 .38142396 .23999024 .38142396 .24899292 .38241578 .2579956 .38241578 .29499818 .38241578 .34399415 .37242127 .35299684 .32937623 .35798646 .3044281 .35798646 .28842164 .3889923 .28842164 .4189911 .28842164 .41999818 .30741883 .41999818 .3244171V.40942384C.41999818 .4294281 .4099884 .4404297 .3919983 .4404297 .3769989 .4404297 .36698915 .4294281 .36299134 .4164276 .33198548 .4354248 .29499818 .4404297 .2579956 .4404297 .18798828 .4404297 .069992069 .42341615 .069992069 .3234253 .069992069 .27139283 .11199951 .23835755 .1579895 .22233582 .20999146 .20431519 .2659912 .205307 .31900025 .19029236 .34899903 .18127442 .3909912 .16125489 .3909912 .12519837L.3880005 .107177738C.36999513 .05911255 .29899598 .053115846 .2619934 .053115846 .20799256 .053115846 .16099549 .07814026 .14199829 .13320923 .13198853 .15811157 .1309967 .17510987 .101989749 .17510987 .070999149 .17510987 .069992069 .15411377 .069992069 .13711548V.050109865C.069992069 .04310608 .068984989 .036102296 .068984989 .02810669 .068984989 .0071105959 .07998657-.0048828127 .09799194-.0048828127 .12298584-.0048828127 .1269989 .018112183 .1329956 .036102296Z"/>
<path id="font_8_26" d="M.3889923 .6943054C.375 .6913147 .3619995 .67930606 .35099793 .67129519 .23298645 .59025576 .16999817 .44519044 .16999817 .30413819 .16999817 .15306092 .24398804 .012008667 .36999513-.07203674 .3789978-.077041629 .3880005-.08203125 .39898683-.08203125 .4149933-.08203125 .4269867-.07102966 .4269867-.056030275 .4269867-.039016725 .4119873-.03302002 .39898683-.024017334 .2919922 .05001831 .23498535 .17907715 .23498535 .3071289 .23498535 .43319703 .29299928 .56625369 .40499879 .6412811 .41600038 .6482849 .4269867 .6562958 .4269867 .67030337 .4269867 .6843109 .41600038 .6953125 .3999939 .6953125 .3959961 .6953125 .3919983 .6953125 .3889923 .6943054Z"/>
<path id="font_8_27" d="M.10699463 .6943054C.09498596 .6923065 .08699036 .68130496 .08699036 .66929629 .08699036 .6482849 .12098694 .6332855 .13598633 .6202698 .22898865 .5412445 .27799989 .42619325 .27799989 .3071289 .27799989 .19108582 .22898865 .07002258 .13798523-.005004883 .11898804-.022018433 .085998538-.03501892 .085998538-.056030275 .085998538-.07003784 .09799194-.08103943 .11299133-.08203125H.114990238C.1329956-.08203125 .147995-.07003784 .16099549-.059020997 .27799989 .022003174 .34298707 .16706848 .34298707 .3071289V.32514955C.33799745 .4571991 .27398683 .5892639 .1659851 .66830447 .15098572 .67930606 .1349945 .6953125 .114990238 .6953125 .11199951 .6953125 .10998535 .6953125 .10699463 .6943054Z"/>
<path id="font_8_4" d="M.10699463 .5542908V.05897522H.06399536C.04598999 .05897522 .032989503 .047973634 .032989503 .029968262 .032989503 .011993408 .04598999 0 .067993167 0 .07499695-.000030517579 .08198547 .0009765625 .08799744 .0009765625H.45399476C.47200013 .0029754639 .47898866 .019973755 .47898866 .035964967 .47898866 .04296875 .47799684 .048965455 .47799684 .05496216V.13201905C.47799684 .15002442 .46998597 .16403198 .44699098 .16403198 .43099977 .16403198 .4119873 .15904236 .4119873 .13301087 .4119873 .12802124 .41299439 .12301636 .41299439 .118011478V.05897522H.17199707V.5542908H.23199463C.2519989 .5542908 .2639923 .56529238 .2639923 .5832977 .2639923 .6022949 .25099183 .6123047 .22999573 .6123047H.06399536C.04499817 .6123047 .032989503 .600296 .032989503 .5832977 .032989503 .56529238 .04598999 .5542908 .06399536 .5542908H.10699463Z"/>
<path id="font_8_14" d="M.18099976 .43066407H.101989749C.09498596 .43066407 .08699036 .43165589 .07899475 .43165589 .055999757 .43165589 .041992189 .42166139 .041992189 .4016571 .041992189 .3786621 .05899048 .37265016 .07598877 .37265016H.18099976V.05897522H.08099365C.055999757 .05897522 .04598999 .048965455 .04598999 .029968262 .04598999 .0019836426 .070999149 0 .09498596 0 .11099243-.000030517579 .1269989 .0009765625 .14199829 .0009765625H.34799195C.36898805 .0009765625 .3809967 .011962891 .3809967 .029968262 .3809967 .051971437 .3659973 .05897522 .34399415 .05897522H.24598694V.37265016H.37098695C.3869934 .37265016 .40699769 .37565614 .40699769 .4016571 .40699769 .4186554 .394989 .43066407 .37599183 .43066407H.24598694V.48687745C.24598694 .5340576 .28599549 .56015017 .33499146 .56015017 .35198976 .56015017 .34899903 .5541382 .35299684 .5440979 .35899354 .53105166 .37298585 .52101138 .3880005 .52101138 .40899659 .52101138 .42799378 .53907778 .42799378 .56214907 .42599488 .6091614 .37399293 .61816409 .33699037 .61816409 .25898744 .61816409 .18099976 .5761566 .18099976 .47683717V.43066407Z"/>
<path id="font_8_5" d="M.09599304 .5542908V.05897522H.06399536C.042999269 .05897522 .027999878 .050964357 .027999878 .029968262 .027999878 .011993408 .041992189 0 .06399536 0 .070999149-.000030517579 .07798767 .0009765625 .083999637 .0009765625H.19400025C.21199036 .0009765625 .22898865 .009963989 .22898865 .029968262 .22898865 .050964357 .21398926 .05897522 .19299317 .05897522H.16099549V.24902344H.2809906C.3909912 .24902344 .46998597 .3300476 .46998597 .43115235V.4401703C.46398927 .5242615 .40299989 .5982971 .31498719 .6102905 .30099488 .6123047 .2869873 .6123047 .272995 .6123047H.06199646C.041992189 .6123047 .027999878 .603302 .027999878 .5832977 .027999878 .56230166 .042999269 .5542908 .06498718 .5542908H.09599304M.16099549 .3070221V.5542908H.2809906C.35099793 .54829409 .40499879 .4932251 .40499879 .42915345 .40499879 .3861084 .375 .33805848 .32998658 .31903077 .3019867 .3070221 .272995 .3070221 .24299622 .3070221H.16099549Z"/>
<path id="font_9_1" d="M.6749878 .22944641C.69299319 .22944641 .71199038 .22944641 .71199038 .25144959 .71199038 .27246095 .69200137 .27246095 .6749878 .27246095H.12298584C.10598755 .27246095 .085998538 .27246095 .085998538 .25144959 .085998538 .22944641 .10499573 .22944641 .12298584 .22944641H.6749878Z"/>
<path id="font_8_39" d="M.06399536 .37265016C.066986087 .33869935 .07598877 .30273438 .08198547 .2687683 .09599304 .19386292 .10699463 .11894226 .12298584 .044036867 .12799073 .015060425 .13198853-.00390625 .1659851-.00390625 .20999146-.00390625 .21699524 .008071899 .24899292 .14291382 .25299073 .15989685 .2579956 .17687989 .2579956 .19386292H.25898744C.26098634 .15290833 .27598573 .110961917 .28799439 .072006229L.2979889 .03703308C.30699159 .001083374 .32299806-.00390625 .34799195-.00390625 .37998963-.00390625 .3849945 .016067505 .3899994 .043029787 .4039917 .12094116 .41799928 .19985962 .43199159 .27775575 .43798829 .30873109 .44499208 .34069825 .44898988 .37265016H.46398927C.48599244 .37265016 .49798585 .3826599 .49798585 .4016571 .49798585 .42366029 .48298646 .43066407 .46199037 .43066407H.34098817C.31799317 .43066407 .30799867 .4186554 .30799867 .4016571 .30799867 .3846588 .31799317 .37265016 .33898927 .37265016H.394989L.34298707 .06600952C.33898927 .11694336 .31698609 .17687989 .3019867 .2208252 .29599 .24580384 .2829895 .25978089 .25898744 .25978089 .22499085 .25978089 .21798706 .23381043 .21199036 .20983887 .20298767 .1798706 .19400025 .14990235 .18598938 .11994934 .18099976 .10195923 .17399597 .083984378 .17199707 .06600952L.117996219 .37265016H.17399597C.19299317 .37265016 .20498657 .38365174 .20498657 .4016571 .20498657 .41966249 .19299317 .43066407 .17199707 .43066407H.050994874C.02999878 .43066407 .01499939 .42366029 .01499939 .4016571 .01499939 .3826599 .026992798 .37265016 .04899597 .37265016H.06399536Z"/>
<path id="font_8_38" d="M.08198547-.027801514C.06498718-.030807496 .055999757-.044799806 .055999757-.059799196 .055999757-.07980347 .070999149-.091796878 .09599304-.091796878H.41799928C.43899537-.091796878 .45799256-.08180237 .45799256-.060806276 .45799256-.044799806 .44699098-.028808594 .42900086-.026809693H.100997928C.09498596-.026809693 .08799744-.026809693 .08198547-.027801514Z"/>
<path id="font_8_24" d="M.23799134 .4889984V.05897522H.14399719C.11999512 .05897522 .10998535 .047973634 .10998535 .029968262 .10998535 .010971069 .12199402 .0009765625 .14399719 .0009765625H.33999635C.35499574 .0009918213 .36999513 0 .3849945 0 .41099549 0 .43099977 .004989624 .43099977 .0309906 .43099977 .048965455 .41799928 .05897522 .3959961 .05897522H.30299378V.56700137C.30299378 .5730133 .3039856 .5810089 .3039856 .5880127 .3039856 .6110077 .2939911 .62402346 .2749939 .62402346 .25099183 .62402346 .24598694 .6010132 .23899842 .5850067 .22099304 .55000308 .19198609 .5149994 .1519928 .5050049 .12998963 .4980011 .10398865 .503006 .10398865 .47099305V.46699525C.10699463 .44799806 .12399292 .44400025 .13999939 .44400025H.14498902C.18099976 .44799806 .21199036 .46499635 .23799134 .4889984Z"/>
<path id="font_8_15" d="M.1519928 .3610077V.5542908H.36499024C.37098695 .5542908 .3789978 .55329897 .3869934 .55329897 .4099884 .55329897 .4269867 .55729678 .4269867 .5883026 .42599488 .603302 .41299439 .6123047 .39698792 .6123047H.12298584C.101989749 .6123047 .08699036 .6092987 .08699036 .5753021V.30403138C.08699036 .28804017 .08999634 .26605226 .116989139 .26605226 .14099121 .26605226 .14898682 .28504945 .1619873 .2970276 .19198609 .32200624 .22898865 .3330078 .2679901 .3330078 .34700013 .3330078 .39698792 .2620697 .39698792 .19212342 .39698792 .10220337 .31799317 .04824829 .24299622 .04824829 .20599365 .04824829 .16499329 .06123352 .13899231 .09020996 .1329956 .097213748 .12298584 .10820007 .12298584 .1171875 .12298584 .127182 .13198853 .13217163 .13198853 .14717102 .13198853 .17015076 .11399841 .18812561 .09199524 .18812561 .067993167 .18812561 .050994874 .16914368 .050994874 .14317322 .050994874 .04324341 .1579895-.0107421879 .24299622-.0107421879 .34999085-.0107421879 .46199037 .067230228 .46199037 .19113159 .46199037 .2950287 .3849945 .39100648 .2679901 .39100648 .22399903 .39100648 .19198609 .3789978 .1519928 .3610077Z"/>
<path id="font_8_22" d="M.3939972 .27842713C.38398744 .18139649 .32998658 .04727173 .21299744 .04727173 .19299317 .04727173 .14299011 .05227661 .14299011 .06729126 .14299011 .075302127 .14898682 .08331299 .14898682 .091308597 .14898682 .11433411 .1309967 .13134766 .10798645 .13134766 .08299255 .13134766 .067993167 .112335208 .067993167 .08831787 .067993167 .011276245 .147995-.01171875 .21099854-.01171875 .37199403-.01171875 .45999146 .16238404 .45999146 .3033905 .45999146 .436203 .42900086 .62402346 .2559967 .62402346 .147995 .62402346 .052993776 .5350647 .052993776 .41921998 .052993776 .32235719 .12199402 .21542359 .23899842 .21542359H.25C.30499269 .21542359 .35499574 .23942566 .3939972 .27842713M.3829956 .4262085C.3829956 .41323854 .38598634 .4002533 .38598634 .38726808 .38598634 .31637574 .31199647 .2734375 .24899292 .2734375 .17298889 .2734375 .117996219 .34233094 .117996219 .42022706V.4282074C.12199402 .499115 .1789856 .5660095 .2559967 .5660095 .32798768 .5660095 .3600006 .5061035 .37998963 .44718934 .38198854 .44119264 .3829956 .436203 .3829956 .4302063V.4262085Z"/>
<path id="font_8_35" d="M.35398866 .3341217C.40499879 .3651123 .44198609 .42208863 .44198609 .48605348V.49404908C.43598939 .5830231 .33499146 .62402346 .25698854 .62402346 .18699646 .62402346 .070999149 .59802249 .070999149 .50505068 .070999149 .47706605 .08898926 .46006776 .11299133 .46006776 .13598633 .46006776 .1519928 .47805787 .1519928 .5000458V.50305178C.1499939 .50904849 .1459961 .51904299 .1459961 .5250397V.5260315C.1519928 .5580292 .23599243 .5660095 .2599945 .5660095 .30899049 .5660095 .375 .5410309 .3769989 .48506166V.48306275C.3769989 .42408753 .32499696 .371109 .2669983 .3651123 .22698975 .3631134 .17098999 .37010194 .17098999 .3321228 .17098999 .30613709 .18699646 .3011322 .21499634 .3011322 .22698975 .3011322 .23899842 .30213929 .25099183 .30213929 .32299806 .30213929 .40499879 .26115418 .40499879 .17419434 .40499879 .096221927 .32899476 .04725647 .25698854 .04725647 .20899964 .04725647 .14898682 .06124878 .11999512 .10421753 .117996219 .10722351 .115997318 .11022949 .114990238 .114227298 .114990238 .12321472 .12399292 .1322174 .12399292 .14221192 .12399292 .16719055 .10499573 .18418885 .08299255 .18418885 .056991579 .18418885 .042999269 .16220093 .042999269 .14120484 .042999269 .0332489 .16699219-.0107421879 .2559967-.0107421879 .35798646-.0107421879 .46899415 .055252077 .46899415 .17318726 .46899415 .22317505 .44599916 .27215577 .40299989 .30613709 .3889923 .3171234 .37199403 .3301239 .35398866 .3341217Z"/>
<path id="font_8_32" d="M.10798645 .5542908H.375C.24699402 .4132843 .16699219 .22827149 .16699219 .03125V.020248414C.16799927 .003250122 .18299866-.0107421879 .19999695-.0107421879H.20199585C.22399903-.008743286 .23199463 .010253906 .23199463 .03125V.043258668C.23999024 .23027039 .31199647 .4112854 .44599916 .5452881 .45799256 .55729678 .46998597 .56829836 .46998597 .58428958 .46998597 .6042938 .45498658 .6123047 .43699647 .6123047H.1309967C.1269989 .6123047 .12298584 .6112976 .117996219 .6112976 .100997928 .6109314 .09899902 .6279297 .07598877 .6279297 .04899597 .6279297 .042999269 .6109314 .042999269 .5899353V.53897097C.042999269 .51898196 .054992677 .5089874 .07398987 .5089874 .09199524 .5089874 .10798645 .51397708 .10798645 .54096987V.5542908Z"/>
<path id="font_8_16" d="M.31498719 .16992188V.05897522H.24798584C.22698975 .05897522 .21499634 .047973634 .21499634 .029968262 .21499634 .011962891 .22698975 .0009765625 .24598694 .0009765625H.43998719C.45700074 .0009765625 .46798707 .013961792 .46798707 .029968262 .46798707 .049972536 .45298768 .05897522 .43499757 .05897522H.36799623V.16992188H.43499757C.43998719 .16992188 .44499208 .1689148 .45098878 .1689148 .47299195 .1689148 .48399354 .1829071 .48399354 .19992066 .48399354 .21791077 .47200013 .22792053 .45199586 .22792053H.36799623V.5879669C.36799623 .6049652 .3659973 .62597659 .33799745 .62597659H.3039856C.2709961 .62597659 .2639923 .6059723 .24798584 .58096316L.20698548 .51394656C.16299439 .4439392 .11999512 .37393189 .07598877 .30392457L.04798889 .25891114C.037994386 .24191284 .0289917 .23490906 .0289917 .21090698V.20391846C.0289917 .17591858 .04399109 .16992188 .06498718 .16992188H.31498719M.09498596 .22792053 .31399537 .58096316V.22792053H.09498596Z"/>
<path id="font_8_36" d="M.39698792 .05897522H.1559906C.21899414 .113967899 .2849884 .16497803 .34599305 .22097779 .40699769 .27598573 .46199037 .34298707 .46199037 .4289856 .46199037 .5529938 .35398866 .625 .24598694 .625 .15299988 .625 .050994874 .5589905 .050994874 .45399476 .050994874 .4249878 .068984989 .4079895 .09199524 .4079895 .11399841 .4079895 .13198853 .4259796 .13198853 .4479828 .13198853 .46199037 .12098694 .47099305 .12098694 .48098756 .12098694 .49998475 .14698792 .5309906 .16799927 .54499819 .18899536 .55999758 .21398926 .5649872 .23899842 .5649872H.25299073C.32299806 .5609894 .39698792 .51498416 .39698792 .4289856 .39698792 .3249817 .2919922 .25198365 .22399903 .1929779 .19400025 .16796875 .16499329 .14297486 .13598633 .1179657L.068984989 .05996704C.05899048 .051971437 .050994874 .04397583 .050994874 .02897644 .050994874 .0049743654 .069992069 .0009765625 .085998538 .0009765625H.42599488C.44400025 .0009765625 .46199037 .0049743654 .46199037 .033966066V.066970828C.46199037 .08596802 .45700074 .10397339 .43099977 .10397339 .41299439 .10397339 .39698792 .098968509 .39698792 .07197571V.05897522Z"/>
<path id="font_8_37" d="M.09599304 .37265016V.1269989C.09599304 .09805298 .09599304 .06808472 .114990238 .042114259 .14099121 .0041046144 .18798828-.0048828127 .23098755-.0048828127 .2769928-.0048828127 .31498719 .009109497 .35198976 .037109376 .35198976 .003967285 .36898805 .0009765625 .3880005 .0009765625H.44099427C.44699098 .0009765625 .45399476-.000030517579 .46199037-.000030517579 .48098756-.000030517579 .49798585 .007965088 .49798585 .029968262 .49798585 .047973634 .48599244 .05897522 .46598817 .05897522H.4169922V.37464906C.4169922 .38165284 .41799928 .3896637 .41799928 .39665223 .41799928 .4206543 .4059906 .43066407 .37998963 .43066407H.30699159C.29100038 .43066407 .2709961 .42765809 .2709961 .4016571 .2709961 .38365174 .2829895 .37265016 .30099488 .37265016H.35198976V.16485596C.35198976 .08506775 .29699708 .053115846 .23799134 .053115846 .19999695 .053115846 .16099549 .05909729 .16099549 .121017459V.39865113C.16099549 .41966249 .1499939 .43066407 .12799073 .43066407H.04798889C.02999878 .43066407 .01499939 .42166139 .01499939 .4016571 .01499939 .38365174 .026992798 .37265016 .04699707 .37265016H.09599304Z"/>
<path id="font_8_18" d="M.09599304 .554245V.05897522H.04598999C.027999878 .05897522 .01499939 .047973634 .01499939 .029968262 .01499939 .007965088 .02999878 .0009765625 .050994874 .0009765625H.20698548C.23098755 .0009765625 .24198914 .011962891 .24198914 .029968262 .24198914 .047973634 .22898865 .05897522 .21099854 .05897522H.16099549V.23072815C.16099549 .26567079 .1659851 .29763795 .18699646 .32759095 .20899964 .35754396 .24398804 .37850953 .2809906 .37850953 .33599855 .37850953 .35198976 .34057618 .35198976 .29164125V.05897522H.3019867C.28399659 .05897522 .2709961 .047973634 .2709961 .029968262 .2709961 .011962891 .28199769 .0009765625 .30599977 .0009765625H.46199037C.48298646 .0009765625 .49798585 .007965088 .49798585 .029968262 .49798585 .047973634 .4850006 .05897522 .46699525 .05897522H.4169922V.2806549C.4169922 .3475647 .4019928 .43652345 .29100038 .43652345 .24099732 .43652345 .19599915 .41551209 .16099549 .38050843V.5822449C.16099549 .61024478 .13398743 .6142578 .10699463 .6142578 .09298706 .6142731 .07899475 .61328127 .068984989 .61328127H.06098938C.039993287 .61328127 .01499939 .6112671 .01499939 .58314517 .01499939 .56625369 .025985718 .554245 .04598999 .554245H.09599304Z"/>
<path id="font_8_1" d="M.1499939 .05897522 .1749878 .16992188H.33799745L.36299134 .05897522C.35699464 .05897522 .34999085 .05996704 .34298707 .05996704 .32199098 .05996704 .30899049 .048965455 .30899049 .029968262 .30899049 .011993408 .32199098 0 .34399415 0 .35099793-.000030517579 .35798646 .0009765625 .3639984 .0009765625H.43299867C.43899537 .0009918213 .44599916 0 .45298768 0 .47299195 0 .4869995 .011993408 .4869995 .030975342 .4869995 .05596924 .46499635 .05895996 .44999696 .05895996H.44099427C.42999269 .05895996 .42900086 .064956668 .4269867 .07295227L.42099 .096954349C.3929901 .22691345 .3600006 .35792542 .33099366 .48794557 .32099916 .529953 .31199647 .6049652 .2919922 .6189728 .28399659 .6249695 .272995 .62597659 .2619934 .62597659H.24398804C.20799256 .62597659 .20698548 .5939636 .20098877 .56695559 .16299439 .41093446 .12599182 .25491334 .09199524 .096954349L.085998538 .07295227C.083999637 .064956668 .08299255 .05895996 .07199097 .05895996H.06298828C.04798889 .05895996 .025985718 .05596924 .025985718 .030975342 .025985718 .011993408 .039993287 0 .05999756 0 .066986087-.000030517579 .07398987 .0009765625 .07998657 .0009765625H.14898682C.15499878 .0009918213 .1619873 0 .16899109 0 .18998719 0 .20399475 .010986328 .20399475 .02998352 .20399475 .048965455 .19099427 .05996704 .16999817 .05996704 .16299439 .05996704 .1559906 .05897522 .1499939 .05897522M.18899536 .22792053 .23899842 .45394898 .2559967 .5469513 .32398988 .22792053H.18899536Z"/>
<path id="font_8_20" d="M.22399903 .5542908V.05897522H.100997928C.07598877 .05897522 .06199646 .050964357 .06199646 .02897644 .06199646 .007965088 .07798767 .0009765625 .09599304 .0009765625H.42799378C.44299317 .0029754639 .45098878 .016967774 .45098878 .030975342 .45098878 .049972536 .43699647 .05897522 .4139862 .05897522H.2889862V.5832977C.2889862 .6082916 .269989 .6123047 .2519989 .6123047H.099990848C.08299255 .6123047 .06199646 .6102905 .06199646 .58428958 .06199646 .56729128 .07199097 .5542908 .09199524 .5542908H.22399903Z"/>
<path id="font_8_2" d="M.40499879 .5720215C.36999513 .60401919 .32398988 .62402346 .27598573 .62402346H.2649994C.19400025 .6200104 .1329956 .5720215 .09599304 .5140381 .055999757 .45207215 .038986207 .38009645 .038986207 .308136 .038986207 .17019654 .11399841-.002746582 .2649994-.0107421879H.27398683C.37199403-.0107421879 .47399903 .06324768 .47399903 .17219544 .47399903 .19618225 .45799256 .20217896 .43998719 .20217896 .38398744 .20217896 .43299867 .11222839 .34399415 .0642395 .32398988 .053253175 .30299378 .04725647 .27999879 .04725647 .1539917 .04925537 .10398865 .21118164 .10398865 .308136 .10398865 .36810304 .117996219 .42808534 .1499939 .47906495 .17799378 .5240326 .22599793 .5660095 .2809906 .5660095 .35499574 .5660095 .3959961 .49804688 .4079895 .43608094 .40899659 .42907716 .40899659 .42108155 .4119873 .41508485 .4189911 .40309144 .43099977 .4020996 .44299317 .4020996 .46998597 .4020996 .47399903 .41908265 .47399903 .43608094V.5900116C.47399903 .61102297 .46598817 .62402346 .44599916 .62402346 .42099 .62402346 .4119873 .5920105 .40499879 .5720215Z"/>
<path id="font_8_6" d="M.16299439 .37841798C.18299866 .38041688 .20399475 .38241578 .22499085 .38241578 .2709961 .38241578 .34899903 .3644104 .34899903 .2853241V.27331544C.24798584 .27030946 .054992677 .25630189 .054992677 .124176029 .054992677 .039108278 .14199829-.0048828127 .21499634-.0048828127 .2619934-.0048828127 .30799867 .0061035158 .34799195 .03010559 .34999085 .03111267 .35299684 .033111574 .35598756 .033111574 .3600006 .033111574 .37298585 .017105103 .38598634 .0121154789 .4099884 .0019683839 .43699647 .0009765625 .46299745 .0009765625H.47799684C.5019989 .0009765625 .5130005 .011962891 .5130005 .031967164V.034973146C.5119934 .050964357 .49798585 .05897522 .48199464 .05897522H.45999146C.43798829 .05897522 .41299439 .05996704 .41299439 .08099365 .41299439 .086013797 .4139862 .09101868 .4139862 .09501648V.2672577C.4139862 .35939027 .35899354 .4334259 .24798584 .4404297H.21199036C.1619873 .4404297 .08299255 .4354248 .08299255 .37141419 .08299255 .34536744 .102996829 .3293457 .12399292 .3293457 .1459961 .3293457 .1639862 .34736634 .1639862 .36940003 .1639862 .372406 .1639862 .375412 .16299439 .37841798M.34899903 .2191925V.13206482C.34899903 .06512451 .27198792 .053115846 .22399903 .053115846 .18798828 .053115846 .11999512 .06813049 .11999512 .124176029V.1251831C.11999512 .18223572 .20799256 .20425415 .25099183 .21125794 .2829895 .2172699 .31599427 .2192688 .34899903 .2192688V.2191925Z"/>
<path id="font_8_33" d="M.11898804 .3348236C.12098694 .34381105 .12098694 .35380555 .12298584 .36280824 .13699341 .45588685 .20599365 .5660095 .31498719 .5660095 .32899476 .5660095 .36999513 .56100466 .36999513 .54599 .36999513 .5379791 .3639984 .5319824 .3639984 .5229645 .3639984 .49893189 .38398744 .48191834 .4059906 .48191834 .42999269 .48191834 .44499208 .5009308 .44499208 .52397158 .44499208 .5970154 .37599183 .62402346 .31698609 .62402346 .1599884 .62402346 .052993776 .4669037 .052993776 .30885316 .052993776 .18104553 .08299255-.0107421879 .2630005-.0107421879 .37098695-.0107421879 .45999146 .081207279 .45999146 .19502259 .45999146 .2928772 .3899994 .3978119 .27398683 .3978119H.2630005C.20799256 .3978119 .1579895 .3738098 .11898804 .3348236M.1269989 .21699524V.22398377C.1269989 .29788209 .20199585 .3408203 .2649994 .3408203 .34298707 .3408203 .394989 .2629242 .394989 .19403076 .394989 .12313843 .34199525 .04725647 .2619934 .04725647 .18598938 .04725647 .14498902 .11514282 .12998963 .17904663V.18205261C.12998963 .18605042 .1309967 .19104004 .1309967 .19502259 .12998963 .20202637 .12799073 .21000672 .1269989 .21699524Z"/>
<path id="font_8_12" d="M.18099976 .3313446C.117996219 .30233766 .042999269 .2723236 .042999269 .17329407 .042999269 .06124878 .1539917-.0107421879 .25698854-.0107421879H.2659912C.36499024-.007751465 .46998597 .06425476 .46998597 .17230225 .46998597 .23931885 .4229889 .29133607 .3659973 .31834413 .35499574 .323349 .34298707 .32633973 .33198548 .3313446 .3919983 .3503418 .45599366 .3912964 .45599366 .46417237 .45599366 .5670166 .34700013 .62402346 .25498963 .62402346H.24598694C.15899658 .6220093 .056991579 .5630188 .056991579 .46318055 .056991579 .3942871 .12098694 .3503418 .18099976 .3313446M.10798645 .16529846V.17529297C.10798645 .2513275 .18699646 .30233766 .2559967 .30233766 .32499696 .30233766 .3919983 .26132203 .40499879 .18429566V.17430115C.40499879 .0962677 .32398988 .04725647 .2559967 .04725647 .18499756 .04725647 .12199402 .088272098 .10798645 .16529846M.12199402 .4552002V.46318055C.12199402 .5310669 .19898987 .5660095 .25698854 .5660095 .31599427 .5660095 .3829956 .532074 .3909912 .4711609V.46318055C.3909912 .396286 .31498719 .36035157 .25698854 .36035157 .19799805 .36035157 .13198853 .3922882 .12199402 .4552002Z"/>
<path id="font_8_42" d="M.24499512 .62402346C.102996829 .61001589 .049987794 .42507936 .049987794 .30413819 .049987794 .24417115 .05999756 .1842041 .084991458 .12922669 .114990238 .061264039 .1749878-.01171875 .25498963-.01171875 .32798768-.01171875 .3829956 .045272829 .41600038 .10424805 .44999696 .16621399 .46299745 .23918152 .46299745 .30914308 .46299745 .3691101 .45298768 .43008424 .42799378 .4850464 .397995 .5530243 .33699037 .625 .25698854 .625 .25299073 .62501528 .24899292 .62402346 .24499512 .62402346M.114990238 .29515077V.30914308C.114990238 .40109254 .14199829 .5310364 .22898865 .5610199 .23799134 .5640106 .24699402 .5660095 .2559967 .5660095 .36898805 .5660095 .39898683 .3821106 .39898683 .3121338 .39898683 .24517823 .38598634 .1782074 .35299684 .12123108 .33399964 .087249759 .30499269 .05227661 .2630005 .04727173H.25698854C.1499939 .04727173 .12399292 .22018433 .114990238 .29515077Z"/>
<path id="font_8_3" d="M.375 .04425049V.0332489C.375 .013244629 .3849945 .00024414063 .4059906 .00024414063 .4229889 .00024414063 .43998719 .0052490236 .43998719 .03125V.2109375H.45298768C.47299195 .2109375 .48599244 .220932 .48599244 .2399292 .48599244 .2609253 .46998597 .26893617 .45098878 .26893617H.32699586C.30299378 .26893617 .29299928 .25793458 .29299928 .2399292 .29299928 .22293091 .30299378 .2109375 .32299806 .2109375H.37399293C.37098695 .19995117 .37098695 .18797302 .36898805 .17599488 .35699464 .12010193 .32998658 .04725647 .25898744 .04725647 .20999146 .04725647 .16899109 .08917236 .1459961 .12908936 .11299133 .1829834 .101989749 .2479248 .101989749 .3089447 .101989749 .39796449 .1329956 .5209961 .22499085 .55900576 .23399353 .5620117 .24398804 .5650177 .2539978 .5660095H.2619934C.32699586 .5660095 .36499024 .49398805 .37298585 .4389801 .3769989 .41697694 .37998963 .40196229 .4099884 .40196229 .43798829 .40196229 .43998719 .41996766 .43998719 .43597413V.5890198C.43998719 .6120148 .43099977 .62402346 .4119873 .62402346 .3889923 .62402346 .37799073 .5950165 .37298585 .5760193 .33999635 .60601809 .2999878 .62402346 .25498963 .62402346H.24499512C.09599304 .6140137 .036987306 .42797853 .036987306 .3049469 .036987306 .1670227 .10998535-.0107421879 .2559967-.0107421879 .30699159-.0107421879 .34298707 .012252808 .375 .04425049Z"/>
<path id="font_8_28" d="M.24899292 .11328125C.21798706 .11027527 .19999695 .08227539 .19999695 .057266237 .19999695 .030975342 .22099304 .0009765625 .25498963 .0009765625 .29100038 .0009765625 .31298829 .029968262 .31298829 .05796814 .31298829 .083969119 .2919922 .113967899 .2579956 .113967899 .25498963 .11427307 .2519989 .11328125 .24899292 .11328125Z"/>
<path id="font_8_17" d="M.32398988 .40551759H.32299806C.29899598 .42851258 .2579956 .43652345 .22898865 .43652345 .147995 .43652345 .066986087 .3755188 .066986087 .278656 .066986087 .25068666 .07499695 .21974182 .08999634 .19577027 .09298706 .19177246 .09700012 .18678284 .09799194 .18179322 .09799194 .17579651 .08898926 .16479492 .085998538 .15579224 .08198547 .14279175 .07899475 .12779236 .07899475 .11380005 .07899475 .092803958 .084991458 .06782532 .09799194 .049835206 .09899902 .047821046 .099990848 .045822145 .099990848 .04283142 .099990848 .037826539 .068984989 .017822266 .057998659 .0028381348 .039993287-.021072388 .0289917-.050964357 .0289917-.08087158 .0289917-.18855286 .16699219-.22753906 .2539978-.22753906 .29699708-.22753906 .34098817-.22154236 .3809967-.20454407 .42900086-.1845398 .47999574-.14663697 .48399354-.09083557V-.082855228C.48399354 .036834718 .3600006 .060821535 .27799989 .060821535H.18199158C.14698792 .060821535 .1309967 .08880615 .1309967 .11779785V.122802738C.13198853 .13079834 .1349945 .13879395 .13798523 .14678955 .16499329 .12879944 .19599915 .11979675 .22698975 .11979675 .31199647 .11979675 .3889923 .18577576 .3889923 .27757264 .3889923 .3105011 .37799073 .33843995 .3619995 .36738587 .37998963 .3733673 .39698792 .38334657 .41799928 .38334657H.4229889C.42799378 .38134767 .42999269 .3703766 .43499757 .36538697 .44198609 .35740663 .45199586 .3534088 .46299745 .3534088 .48599244 .3534088 .49899293 .3713684 .49899293 .39035035 .49899293 .42634584 .46099855 .44335938 .4269867 .44335938 .3889923 .44335938 .34599305 .4273529 .32398988 .40534974V.40551759M.084991458-.08883667C.083999637-.08584595 .083999637-.0818634 .083999637-.07887268 .083999637-.019073487 .14399719 .0068359377 .19400025 .0068359377H.2599945C.32499696 .0068359377 .42900086 .0008544922 .42900086-.08087158 .42900086-.1625824 .27598573-.17254639 .25299073-.17254639 .19400025-.17254639 .09298706-.1506195 .084991458-.08883667M.13198853 .26966859V.278656C.13198853 .33058167 .17298889 .38052369 .22698975 .3815155 .27799989 .3815155 .31799317 .3395691 .32398988 .28564454V.2766571C.32398988 .22572327 .2829895 .17579651 .22999573 .17480469 .17799378 .17480469 .13798523 .21673584 .13198853 .26966859Z"/>
</defs>
<path transform="matrix(1,0,0,-1,.996,321.7041)" d="M0 0V-68.3C0-70.501 1.784-72.285 3.985-72.285H188.775C190.976-72.285 193.749-70.8 194.97-68.969L286.929 68.969C288.15 70.8 290.924 72.285 293.125 72.285H429.724C431.925 72.285 435.402 72.849 437.49 73.545L502.214 95.12C504.302 95.816 507.778 96.38 509.979 96.38H574.294C576.495 96.38 578.279 98.164 578.279 100.365V140.585C578.279 142.786 576.495 144.57 574.294 144.57H509.979C507.778 144.57 504.302 145.134 502.214 145.83L437.49 167.405C435.402 168.101 431.925 168.665 429.724 168.665H293.125C290.924 168.665 288.15 170.149 286.929 171.98L194.97 309.919C193.749 311.75 190.976 313.234 188.775 313.234H3.985C1.784 313.234 0 311.45 0 309.249V.498" fill="#f4f3f7"/>
<path transform="matrix(1,0,0,-1,.996,321.7041)" stroke-width="1.993" stroke-linecap="butt" stroke-miterlimit="10" stroke-linejoin="miter" fill="none" stroke="#9081af" d="M0 0V-68.3C0-70.501 1.784-72.285 3.985-72.285H188.775C190.976-72.285 193.749-70.8 194.97-68.969L286.929 68.969C288.15 70.8 290.924 72.285 293.125 72.285H429.724C431.925 72.285 435.402 72.849 437.49 73.545L502.214 95.12C504.302 95.816 507.778 96.38 509.979 96.38H574.294C576.495 96.38 578.279 98.164 578.279 100.365V140.585C578.279 142.786 576.495 144.57 574.294 144.57H509.979C507.778 144.57 504.302 145.134 502.214 145.83L437.49 167.405C435.402 168.101 431.925 168.665 429.724 168.665H293.125C290.924 168.665 288.15 170.149 286.929 171.98L194.97 309.919C193.749 311.75 190.976 313.234 188.775 313.234H3.985C1.784 313.234 0 311.45 0 309.249V.498"/>
<path transform="matrix(1,0,0,-1,101.8938,.991272)" d="M0 0H-81.321C-83.522 0-85.306-1.784-85.306-3.985V-10.971C-85.306-13.172-83.522-14.957-81.321-14.957H0C2.201-14.957 3.985-13.172 3.985-10.971V-3.985C3.985-1.784 2.201 0 0 0Z" fill="#ffffff"/>
<path transform="matrix(1,0,0,-1,101.8938,.991272)" stroke-width="1.993" stroke-linecap="butt" stroke-miterlimit="10" stroke-linejoin="miter" fill="none" stroke="#9081af" d="M0 0H-81.321C-83.522 0-85.306-1.784-85.306-3.985V-10.971C-85.306-13.172-83.522-14.957-81.321-14.957H0C2.201-14.957 3.985-13.172 3.985-10.971V-3.985C3.985-1.784 2.201 0 0 0Z"/>
<use data-text="r" xlink:href="#font_8_30" transform="matrix(10.16175,0,0,-10.16175,19.41,10.872986)"/>
<use data-text="r" xlink:href="#font_8_30" transform="matrix(10.16175,0,0,-10.16175,24.643301,10.872986)"/>
<use data-text="$" xlink:href="#font_8_10" transform="matrix(10.16175,0,0,-10.16175,29.876603,10.872986)"/>
<use data-text="p" xlink:href="#font_8_25" transform="matrix(10.16175,0,0,-10.16175,35.109907,10.872986)"/>
<use data-text="r" xlink:href="#font_8_30" transform="matrix(10.16175,0,0,-10.16175,40.34321,10.872986)"/>
<use data-text="e" xlink:href="#font_8_11" transform="matrix(10.16175,0,0,-10.16175,45.57651,10.872986)"/>
<use data-text="d" xlink:href="#font_8_9" transform="matrix(10.16175,0,0,-10.16175,50.809816,10.872986)"/>
<use data-text="i" xlink:href="#font_8_19" transform="matrix(10.16175,0,0,-10.16175,56.043119,10.872986)"/>
<use data-text="c" xlink:href="#font_8_7" transform="matrix(10.16175,0,0,-10.16175,61.27642,10.872986)"/>
<use data-text="t" xlink:href="#font_8_34" transform="matrix(10.16175,0,0,-10.16175,66.50972,10.872986)"/>
<use data-text="i" xlink:href="#font_8_19" transform="matrix(10.16175,0,0,-10.16175,71.74302,10.872986)"/>
<use data-text="o" xlink:href="#font_8_23" transform="matrix(10.16175,0,0,-10.16175,76.9159,10.872986)"/>
<use data-text="n" xlink:href="#font_8_21" transform="matrix(10.16175,0,0,-10.16175,82.1492,10.872986)"/>
<use data-text="s" xlink:href="#font_8_31" transform="matrix(10.16175,0,0,-10.16175,87.3825,10.872986)"/>
<use data-text="(" xlink:href="#font_8_26" transform="matrix(10.16175,0,0,-10.16175,92.6158,10.872986)"/>
<use data-text=")" xlink:href="#font_8_27" transform="matrix(10.16175,0,0,-10.16175,97.8491,10.872986)"/>
<path transform="matrix(1,0,0,-1,193.7557,393.98899)" stroke-width="1.993" stroke-linecap="butt" stroke-miterlimit="10" stroke-linejoin="miter" fill="none" stroke="#9081af" d="M0 0V385.021"/>
<path transform="matrix(1,0,0,-1,290.1355,249.41919)" stroke-width="1.993" stroke-linecap="butt" stroke-miterlimit="10" stroke-linejoin="miter" fill="none" stroke="#9081af" d="M0 0V95.882"/>
<path transform="matrix(1,0,0,-1,434.7053,249.41919)" stroke-width="1.993" stroke-linecap="butt" stroke-miterlimit="10" stroke-linejoin="miter" fill="none" stroke="#9081af" d="M0 0V95.882"/>
<path transform="matrix(1,0,0,-1,506.9902,225.32428)" stroke-width="1.993" stroke-linecap="butt" stroke-miterlimit="10" stroke-linejoin="miter" fill="none" stroke="#9081af" d="M0 0V47.692"/>
<use data-text="L" xlink:href="#font_8_4" transform="matrix(10.16175,0,0,-10.16175,47.71,29.649994)"/>
<use data-text="i" xlink:href="#font_8_19" transform="matrix(10.16175,0,0,-10.16175,52.943304,29.649994)"/>
<use data-text="s" xlink:href="#font_8_31" transform="matrix(10.16175,0,0,-10.16175,58.176607,29.649994)"/>
<use data-text="t" xlink:href="#font_8_34" transform="matrix(10.16175,0,0,-10.16175,63.40991,29.649994)"/>
<use data-text="o" xlink:href="#font_8_23" transform="matrix(10.16175,0,0,-10.16175,73.84666,29.649933)"/>
<use data-text="f" xlink:href="#font_8_14" transform="matrix(10.16175,0,0,-10.16175,79.079959,29.649933)"/>
<use data-text="P" xlink:href="#font_8_5" transform="matrix(10.16175,0,0,-10.16175,89.54654,29.649933)"/>
<use data-text="r" xlink:href="#font_8_30" transform="matrix(10.16175,0,0,-10.16175,94.77984,29.649933)"/>
<use data-text="e" xlink:href="#font_8_11" transform="matrix(10.16175,0,0,-10.16175,100.01314,29.649933)"/>
<use data-text="d" xlink:href="#font_8_9" transform="matrix(10.16175,0,0,-10.16175,105.24644,29.649933)"/>
<use data-text="i" xlink:href="#font_8_19" transform="matrix(10.16175,0,0,-10.16175,110.46963,29.649933)"/>
<use data-text="c" xlink:href="#font_8_7" transform="matrix(10.16175,0,0,-10.16175,115.70293,29.649933)"/>
<use data-text="t" xlink:href="#font_8_34" transform="matrix(10.16175,0,0,-10.16175,120.936229,29.649933)"/>
<use data-text="i" xlink:href="#font_8_19" transform="matrix(10.16175,0,0,-10.16175,126.169528,29.649933)"/>
<use data-text="o" xlink:href="#font_8_23" transform="matrix(10.16175,0,0,-10.16175,131.40283,29.649933)"/>
<use data-text="n" xlink:href="#font_8_21" transform="matrix(10.16175,0,0,-10.16175,136.63614,29.649933)"/>
<use data-text="s" xlink:href="#font_8_31" transform="matrix(10.16175,0,0,-10.16175,141.86945,29.649933)"/>
<use data-text="&#x2212;" xlink:href="#font_9_1" transform="matrix(7.6211,0,0,-7.6211,6.983101,94.71063)"/>
<use data-text="&#x2212;" xlink:href="#font_9_1" transform="matrix(7.6211,0,0,-7.6211,14.80985,94.711)"/>
<use data-text="&#x2212;" xlink:href="#font_9_1" transform="matrix(7.6211,0,0,-7.6211,22.644333,94.711)"/>
<use data-text="r" xlink:href="#font_8_30" transform="matrix(10.16175,0,0,-10.16175,30.8876,48.488008)"/>
<use data-text="o" xlink:href="#font_8_23" transform="matrix(10.16175,0,0,-10.16175,36.120904,48.488008)"/>
<use data-text="w" xlink:href="#font_8_39" transform="matrix(10.16175,0,0,-10.16175,41.354207,48.488008)"/>
<use data-text="_" xlink:href="#font_8_38" transform="matrix(10.16175,0,0,-10.16175,46.58751,48.488008)"/>
<use data-text="i" xlink:href="#font_8_19" transform="matrix(10.16175,0,0,-10.16175,51.820814,48.488008)"/>
<use data-text="d" xlink:href="#font_8_9" transform="matrix(10.16175,0,0,-10.16175,57.054117,48.488008)"/>
<use data-text="s" xlink:href="#font_8_31" transform="matrix(10.16175,0,0,-10.16175,62.28742,48.488008)"/>
<use data-text="1" xlink:href="#font_8_24" transform="matrix(10.16175,0,0,-10.16175,62.254304,60.34381)"/>
<use data-text="5" xlink:href="#font_8_15" transform="matrix(10.16175,0,0,-10.16175,62.254304,72.19876)"/>
<use data-text="9" xlink:href="#font_8_22" transform="matrix(10.16175,0,0,-10.16175,62.254304,84.054569)"/>
<use data-text="3" xlink:href="#font_8_35" transform="matrix(10.16175,0,0,-10.16175,51.7993,107.76532)"/>
<use data-text="3" xlink:href="#font_8_35" transform="matrix(10.16175,0,0,-10.16175,57.032606,107.76532)"/>
<use data-text="7" xlink:href="#font_8_32" transform="matrix(10.16175,0,0,-10.16175,62.265909,107.76532)"/>
<use data-text="3" xlink:href="#font_8_35" transform="matrix(10.16175,0,0,-10.16175,51.7993,119.621128)"/>
<use data-text="4" xlink:href="#font_8_16" transform="matrix(10.16175,0,0,-10.16175,57.032606,119.621128)"/>
<use data-text="2" xlink:href="#font_8_36" transform="matrix(10.16175,0,0,-10.16175,62.265909,119.621128)"/>
<use data-text="3" xlink:href="#font_8_35" transform="matrix(10.16175,0,0,-10.16175,51.7993,131.47693)"/>
<use data-text="4" xlink:href="#font_8_16" transform="matrix(10.16175,0,0,-10.16175,57.032606,131.47693)"/>
<use data-text="4" xlink:href="#font_8_16" transform="matrix(10.16175,0,0,-10.16175,62.265909,131.47693)"/>
<use data-text="t" xlink:href="#font_8_34" transform="matrix(10.16175,0,0,-10.16175,94.76,48.488039)"/>
<use data-text="r" xlink:href="#font_8_30" transform="matrix(10.16175,0,0,-10.16175,99.9933,48.488039)"/>
<use data-text="u" xlink:href="#font_8_37" transform="matrix(10.16175,0,0,-10.16175,105.2266,48.488039)"/>
<use data-text="t" xlink:href="#font_8_34" transform="matrix(10.16175,0,0,-10.16175,110.4599,48.488039)"/>
<use data-text="h" xlink:href="#font_8_18" transform="matrix(10.16175,0,0,-10.16175,115.6932,48.488039)"/>
<use data-text="A" xlink:href="#font_8_1" transform="matrix(10.16175,0,0,-10.16175,89.5325,60.34384)"/>
<use data-text="d" xlink:href="#font_8_9" transform="matrix(10.16175,0,0,-10.16175,94.7658,60.34384)"/>
<use data-text="e" xlink:href="#font_8_11" transform="matrix(10.16175,0,0,-10.16175,99.9991,60.34384)"/>
<use data-text="l" xlink:href="#font_8_20" transform="matrix(10.16175,0,0,-10.16175,105.2324,60.34384)"/>
<use data-text="i" xlink:href="#font_8_19" transform="matrix(10.16175,0,0,-10.16175,110.4657,60.34384)"/>
<use data-text="e" xlink:href="#font_8_11" transform="matrix(10.16175,0,0,-10.16175,115.699,60.34384)"/>
<use data-text="A" xlink:href="#font_8_1" transform="matrix(10.16175,0,0,-10.16175,89.5325,72.19879)"/>
<use data-text="d" xlink:href="#font_8_9" transform="matrix(10.16175,0,0,-10.16175,94.7658,72.19879)"/>
<use data-text="e" xlink:href="#font_8_11" transform="matrix(10.16175,0,0,-10.16175,99.9991,72.19879)"/>
<use data-text="l" xlink:href="#font_8_20" transform="matrix(10.16175,0,0,-10.16175,105.2324,72.19879)"/>
<use data-text="i" xlink:href="#font_8_19" transform="matrix(10.16175,0,0,-10.16175,110.4657,72.19879)"/>
<use data-text="e" xlink:href="#font_8_11" transform="matrix(10.16175,0,0,-10.16175,115.699,72.19879)"/>
<use data-text="A" xlink:href="#font_8_1" transform="matrix(10.16175,0,0,-10.16175,89.5325,84.054599)"/>
<use data-text="d" xlink:href="#font_8_9" transform="matrix(10.16175,0,0,-10.16175,94.7658,84.054599)"/>
<use data-text="e" xlink:href="#font_8_11" transform="matrix(10.16175,0,0,-10.16175,99.9991,84.054599)"/>
<use data-text="l" xlink:href="#font_8_20" transform="matrix(10.16175,0,0,-10.16175,105.2324,84.054599)"/>
<use data-text="i" xlink:href="#font_8_19" transform="matrix(10.16175,0,0,-10.16175,110.4657,84.054599)"/>
<use data-text="e" xlink:href="#font_8_11" transform="matrix(10.16175,0,0,-10.16175,115.699,84.054599)"/>
<use data-text="C" xlink:href="#font_8_2" transform="matrix(10.16175,0,0,-10.16175,73.8483,107.76535)"/>
<use data-text="h" xlink:href="#font_8_18" transform="matrix(10.16175,0,0,-10.16175,79.0816,107.76535)"/>
<use data-text="i" xlink:href="#font_8_19" transform="matrix(10.16175,0,0,-10.16175,84.314899,107.76535)"/>
<use data-text="n" xlink:href="#font_8_21" transform="matrix(10.16175,0,0,-10.16175,89.548198,107.76535)"/>
<use data-text="s" xlink:href="#font_8_31" transform="matrix(10.16175,0,0,-10.16175,94.781497,107.76535)"/>
<use data-text="t" xlink:href="#font_8_34" transform="matrix(10.16175,0,0,-10.16175,100.01479,107.76535)"/>
<use data-text="r" xlink:href="#font_8_30" transform="matrix(10.16175,0,0,-10.16175,105.24809,107.76535)"/>
<use data-text="a" xlink:href="#font_8_6" transform="matrix(10.16175,0,0,-10.16175,110.48139,107.76535)"/>
<use data-text="p" xlink:href="#font_8_25" transform="matrix(10.16175,0,0,-10.16175,115.71469,107.76535)"/>
<use data-text="C" xlink:href="#font_8_2" transform="matrix(10.16175,0,0,-10.16175,73.8483,119.621158)"/>
<use data-text="h" xlink:href="#font_8_18" transform="matrix(10.16175,0,0,-10.16175,79.0816,119.621158)"/>
<use data-text="i" xlink:href="#font_8_19" transform="matrix(10.16175,0,0,-10.16175,84.314899,119.621158)"/>
<use data-text="n" xlink:href="#font_8_21" transform="matrix(10.16175,0,0,-10.16175,89.548198,119.621158)"/>
<use data-text="s" xlink:href="#font_8_31" transform="matrix(10.16175,0,0,-10.16175,94.781497,119.621158)"/>
<use data-text="t" xlink:href="#font_8_34" transform="matrix(10.16175,0,0,-10.16175,100.01479,119.621158)"/>
<use data-text="r" xlink:href="#font_8_30" transform="matrix(10.16175,0,0,-10.16175,105.24809,119.621158)"/>
<use data-text="a" xlink:href="#font_8_6" transform="matrix(10.16175,0,0,-10.16175,110.48139,119.621158)"/>
<use data-text="p" xlink:href="#font_8_25" transform="matrix(10.16175,0,0,-10.16175,115.71469,119.621158)"/>
<use data-text="C" xlink:href="#font_8_2" transform="matrix(10.16175,0,0,-10.16175,73.8483,131.47696)"/>
<use data-text="h" xlink:href="#font_8_18" transform="matrix(10.16175,0,0,-10.16175,79.0816,131.47696)"/>
<use data-text="i" xlink:href="#font_8_19" transform="matrix(10.16175,0,0,-10.16175,84.314899,131.47696)"/>
<use data-text="n" xlink:href="#font_8_21" transform="matrix(10.16175,0,0,-10.16175,89.548198,131.47696)"/>
<use data-text="s" xlink:href="#font_8_31" transform="matrix(10.16175,0,0,-10.16175,94.781497,131.47696)"/>
<use data-text="t" xlink:href="#font_8_34" transform="matrix(10.16175,0,0,-10.16175,100.01479,131.47696)"/>
<use data-text="r" xlink:href="#font_8_30" transform="matrix(10.16175,0,0,-10.16175,105.24809,131.47696)"/>
<use data-text="a" xlink:href="#font_8_6" transform="matrix(10.16175,0,0,-10.16175,110.48139,131.47696)"/>
<use data-text="p" xlink:href="#font_8_25" transform="matrix(10.16175,0,0,-10.16175,115.71469,131.47696)"/>
<use data-text="r" xlink:href="#font_8_30" transform="matrix(10.16175,0,0,-10.16175,139.31275,47.570924)"/>
<use data-text="e" xlink:href="#font_8_11" transform="matrix(10.16175,0,0,-10.16175,144.54605,47.570924)"/>
<use data-text="s" xlink:href="#font_8_31" transform="matrix(10.16175,0,0,-10.16175,149.77936,47.570924)"/>
<use data-text="p" xlink:href="#font_8_25" transform="matrix(10.16175,0,0,-10.16175,155.01267,47.570924)"/>
<use data-text="o" xlink:href="#font_8_23" transform="matrix(10.16175,0,0,-10.16175,160.24597,47.570924)"/>
<use data-text="n" xlink:href="#font_8_21" transform="matrix(10.16175,0,0,-10.16175,165.47928,47.570924)"/>
<use data-text="s" xlink:href="#font_8_31" transform="matrix(10.16175,0,0,-10.16175,170.71259,47.570924)"/>
<use data-text="e" xlink:href="#font_8_11" transform="matrix(10.16175,0,0,-10.16175,175.94589,47.570924)"/>
<use data-text="A" xlink:href="#font_8_1" transform="matrix(10.16175,0,0,-10.16175,149.7686,59.425874)"/>
<use data-text="d" xlink:href="#font_8_9" transform="matrix(10.16175,0,0,-10.16175,155.0019,59.425874)"/>
<use data-text="e" xlink:href="#font_8_11" transform="matrix(10.16175,0,0,-10.16175,160.23522,59.425874)"/>
<use data-text="l" xlink:href="#font_8_20" transform="matrix(10.16175,0,0,-10.16175,165.46852,59.425874)"/>
<use data-text="i" xlink:href="#font_8_19" transform="matrix(10.16175,0,0,-10.16175,170.70183,59.425874)"/>
<use data-text="e" xlink:href="#font_8_11" transform="matrix(10.16175,0,0,-10.16175,175.93514,59.425874)"/>
<use data-text="A" xlink:href="#font_8_1" transform="matrix(10.16175,0,0,-10.16175,149.7686,71.28168)"/>
<use data-text="d" xlink:href="#font_8_9" transform="matrix(10.16175,0,0,-10.16175,155.0019,71.28168)"/>
<use data-text="e" xlink:href="#font_8_11" transform="matrix(10.16175,0,0,-10.16175,160.23522,71.28168)"/>
<use data-text="l" xlink:href="#font_8_20" transform="matrix(10.16175,0,0,-10.16175,165.46852,71.28168)"/>
<use data-text="i" xlink:href="#font_8_19" transform="matrix(10.16175,0,0,-10.16175,170.70183,71.28168)"/>
<use data-text="e" xlink:href="#font_8_11" transform="matrix(10.16175,0,0,-10.16175,175.93514,71.28168)"/>
<use data-text="A" xlink:href="#font_8_1" transform="matrix(10.16175,0,0,-10.16175,149.7686,83.13748)"/>
<use data-text="d" xlink:href="#font_8_9" transform="matrix(10.16175,0,0,-10.16175,155.0019,83.13748)"/>
<use data-text="e" xlink:href="#font_8_11" transform="matrix(10.16175,0,0,-10.16175,160.23522,83.13748)"/>
<use data-text="l" xlink:href="#font_8_20" transform="matrix(10.16175,0,0,-10.16175,165.46852,83.13748)"/>
<use data-text="i" xlink:href="#font_8_19" transform="matrix(10.16175,0,0,-10.16175,170.70183,83.13748)"/>
<use data-text="e" xlink:href="#font_8_11" transform="matrix(10.16175,0,0,-10.16175,175.93514,83.13748)"/>
<use data-text="C" xlink:href="#font_8_2" transform="matrix(10.16175,0,0,-10.16175,134.08525,106.848239)"/>
<use data-text="h" xlink:href="#font_8_18" transform="matrix(10.16175,0,0,-10.16175,139.31856,106.848239)"/>
<use data-text="i" xlink:href="#font_8_19" transform="matrix(10.16175,0,0,-10.16175,144.55187,106.848239)"/>
<use data-text="n" xlink:href="#font_8_21" transform="matrix(10.16175,0,0,-10.16175,149.78517,106.848239)"/>
<use data-text="s" xlink:href="#font_8_31" transform="matrix(10.16175,0,0,-10.16175,155.01848,106.848239)"/>
<use data-text="t" xlink:href="#font_8_34" transform="matrix(10.16175,0,0,-10.16175,160.25179,106.848239)"/>
<use data-text="r" xlink:href="#font_8_30" transform="matrix(10.16175,0,0,-10.16175,165.48509,106.848239)"/>
<use data-text="a" xlink:href="#font_8_6" transform="matrix(10.16175,0,0,-10.16175,170.7184,106.848239)"/>
<use data-text="p" xlink:href="#font_8_25" transform="matrix(10.16175,0,0,-10.16175,175.9517,106.848239)"/>
<use data-text="C" xlink:href="#font_8_2" transform="matrix(10.16175,0,0,-10.16175,134.08525,118.70404)"/>
<use data-text="h" xlink:href="#font_8_18" transform="matrix(10.16175,0,0,-10.16175,139.31856,118.70404)"/>
<use data-text="i" xlink:href="#font_8_19" transform="matrix(10.16175,0,0,-10.16175,144.55187,118.70404)"/>
<use data-text="n" xlink:href="#font_8_21" transform="matrix(10.16175,0,0,-10.16175,149.78517,118.70404)"/>
<use data-text="s" xlink:href="#font_8_31" transform="matrix(10.16175,0,0,-10.16175,155.01848,118.70404)"/>
<use data-text="t" xlink:href="#font_8_34" transform="matrix(10.16175,0,0,-10.16175,160.25179,118.70404)"/>
<use data-text="r" xlink:href="#font_8_30" transform="matrix(10.16175,0,0,-10.16175,165.48509,118.70404)"/>
<use data-text="a" xlink:href="#font_8_6" transform="matrix(10.16175,0,0,-10.16175,170.7184,118.70404)"/>
<use data-text="p" xlink:href="#font_8_25" transform="matrix(10.16175,0,0,-10.16175,175.9517,118.70404)"/>
<use data-text="C" xlink:href="#font_8_2" transform="matrix(10.16175,0,0,-10.16175,134.08525,130.55985)"/>
<use data-text="h" xlink:href="#font_8_18" transform="matrix(10.16175,0,0,-10.16175,139.31856,130.55985)"/>
<use data-text="i" xlink:href="#font_8_19" transform="matrix(10.16175,0,0,-10.16175,144.55187,130.55985)"/>
<use data-text="n" xlink:href="#font_8_21" transform="matrix(10.16175,0,0,-10.16175,149.78517,130.55985)"/>
<use data-text="s" xlink:href="#font_8_31" transform="matrix(10.16175,0,0,-10.16175,155.01848,130.55985)"/>
<use data-text="t" xlink:href="#font_8_34" transform="matrix(10.16175,0,0,-10.16175,160.25179,130.55985)"/>
<use data-text="r" xlink:href="#font_8_30" transform="matrix(10.16175,0,0,-10.16175,165.48509,130.55985)"/>
<use data-text="a" xlink:href="#font_8_6" transform="matrix(10.16175,0,0,-10.16175,170.7184,130.55985)"/>
<use data-text="p" xlink:href="#font_8_25" transform="matrix(10.16175,0,0,-10.16175,175.9517,130.55985)"/>
<use data-text="&#x2212;" xlink:href="#font_9_1" transform="matrix(7.6211,0,0,-7.6211,6.982193,215.18415)"/>
<use data-text="&#x2212;" xlink:href="#font_9_1" transform="matrix(7.6211,0,0,-7.6211,14.80985,215.18393)"/>
<use data-text="&#x2212;" xlink:href="#font_9_1" transform="matrix(7.6211,0,0,-7.6211,22.644333,215.18393)"/>
<use data-text="r" xlink:href="#font_8_30" transform="matrix(10.16175,0,0,-10.16175,30.8876,168.96092)"/>
<use data-text="o" xlink:href="#font_8_23" transform="matrix(10.16175,0,0,-10.16175,36.120904,168.96092)"/>
<use data-text="w" xlink:href="#font_8_39" transform="matrix(10.16175,0,0,-10.16175,41.354207,168.96092)"/>
<use data-text="_" xlink:href="#font_8_38" transform="matrix(10.16175,0,0,-10.16175,46.58751,168.96092)"/>
<use data-text="i" xlink:href="#font_8_19" transform="matrix(10.16175,0,0,-10.16175,51.820814,168.96092)"/>
<use data-text="d" xlink:href="#font_8_9" transform="matrix(10.16175,0,0,-10.16175,57.054117,168.96092)"/>
<use data-text="s" xlink:href="#font_8_31" transform="matrix(10.16175,0,0,-10.16175,62.28742,168.96092)"/>
<use data-text="3" xlink:href="#font_8_35" transform="matrix(10.16175,0,0,-10.16175,62.254304,180.81673)"/>
<use data-text="4" xlink:href="#font_8_16" transform="matrix(10.16175,0,0,-10.16175,62.254304,192.67168)"/>
<use data-text="6" xlink:href="#font_8_33" transform="matrix(10.16175,0,0,-10.16175,62.254304,204.52748)"/>
<use data-text="3" xlink:href="#font_8_35" transform="matrix(10.16175,0,0,-10.16175,51.7993,228.23908)"/>
<use data-text="2" xlink:href="#font_8_36" transform="matrix(10.16175,0,0,-10.16175,57.032606,228.23908)"/>
<use data-text="9" xlink:href="#font_8_22" transform="matrix(10.16175,0,0,-10.16175,62.265909,228.23908)"/>
<use data-text="3" xlink:href="#font_8_35" transform="matrix(10.16175,0,0,-10.16175,51.7993,240.09403)"/>
<use data-text="3" xlink:href="#font_8_35" transform="matrix(10.16175,0,0,-10.16175,57.032606,240.09403)"/>
<use data-text="9" xlink:href="#font_8_22" transform="matrix(10.16175,0,0,-10.16175,62.265909,240.09403)"/>
<use data-text="3" xlink:href="#font_8_35" transform="matrix(10.16175,0,0,-10.16175,51.7993,251.94983)"/>
<use data-text="4" xlink:href="#font_8_16" transform="matrix(10.16175,0,0,-10.16175,57.032606,251.94983)"/>
<use data-text="1" xlink:href="#font_8_24" transform="matrix(10.16175,0,0,-10.16175,62.265909,251.94983)"/>
<use data-text="t" xlink:href="#font_8_34" transform="matrix(10.16175,0,0,-10.16175,94.76,168.96092)"/>
<use data-text="r" xlink:href="#font_8_30" transform="matrix(10.16175,0,0,-10.16175,99.9933,168.96092)"/>
<use data-text="u" xlink:href="#font_8_37" transform="matrix(10.16175,0,0,-10.16175,105.2266,168.96092)"/>
<use data-text="t" xlink:href="#font_8_34" transform="matrix(10.16175,0,0,-10.16175,110.4599,168.96092)"/>
<use data-text="h" xlink:href="#font_8_18" transform="matrix(10.16175,0,0,-10.16175,115.6932,168.96092)"/>
<use data-text="A" xlink:href="#font_8_1" transform="matrix(10.16175,0,0,-10.16175,89.5325,180.81673)"/>
<use data-text="d" xlink:href="#font_8_9" transform="matrix(10.16175,0,0,-10.16175,94.7658,180.81673)"/>
<use data-text="e" xlink:href="#font_8_11" transform="matrix(10.16175,0,0,-10.16175,99.9991,180.81673)"/>
<use data-text="l" xlink:href="#font_8_20" transform="matrix(10.16175,0,0,-10.16175,105.2324,180.81673)"/>
<use data-text="i" xlink:href="#font_8_19" transform="matrix(10.16175,0,0,-10.16175,110.4657,180.81673)"/>
<use data-text="e" xlink:href="#font_8_11" transform="matrix(10.16175,0,0,-10.16175,115.699,180.81673)"/>
<use data-text="A" xlink:href="#font_8_1" transform="matrix(10.16175,0,0,-10.16175,89.5325,192.67168)"/>
<use data-text="d" xlink:href="#font_8_9" transform="matrix(10.16175,0,0,-10.16175,94.7658,192.67168)"/>
<use data-text="e" xlink:href="#font_8_11" transform="matrix(10.16175,0,0,-10.16175,99.9991,192.67168)"/>
<use data-text="l" xlink:href="#font_8_20" transform="matrix(10.16175,0,0,-10.16175,105.2324,192.67168)"/>
<use data-text="i" xlink:href="#font_8_19" transform="matrix(10.16175,0,0,-10.16175,110.4657,192.67168)"/>
<use data-text="e" xlink:href="#font_8_11" transform="matrix(10.16175,0,0,-10.16175,115.699,192.67168)"/>
<use data-text="A" xlink:href="#font_8_1" transform="matrix(10.16175,0,0,-10.16175,89.5325,204.52748)"/>
<use data-text="d" xlink:href="#font_8_9" transform="matrix(10.16175,0,0,-10.16175,94.7658,204.52748)"/>
<use data-text="e" xlink:href="#font_8_11" transform="matrix(10.16175,0,0,-10.16175,99.9991,204.52748)"/>
<use data-text="l" xlink:href="#font_8_20" transform="matrix(10.16175,0,0,-10.16175,105.2324,204.52748)"/>
<use data-text="i" xlink:href="#font_8_19" transform="matrix(10.16175,0,0,-10.16175,110.4657,204.52748)"/>
<use data-text="e" xlink:href="#font_8_11" transform="matrix(10.16175,0,0,-10.16175,115.699,204.52748)"/>
<use data-text="C" xlink:href="#font_8_2" transform="matrix(10.16175,0,0,-10.16175,73.8483,228.23908)"/>
<use data-text="h" xlink:href="#font_8_18" transform="matrix(10.16175,0,0,-10.16175,79.0816,228.23908)"/>
<use data-text="i" xlink:href="#font_8_19" transform="matrix(10.16175,0,0,-10.16175,84.314899,228.23908)"/>
<use data-text="n" xlink:href="#font_8_21" transform="matrix(10.16175,0,0,-10.16175,89.548198,228.23908)"/>
<use data-text="s" xlink:href="#font_8_31" transform="matrix(10.16175,0,0,-10.16175,94.781497,228.23908)"/>
<use data-text="t" xlink:href="#font_8_34" transform="matrix(10.16175,0,0,-10.16175,100.01479,228.23908)"/>
<use data-text="r" xlink:href="#font_8_30" transform="matrix(10.16175,0,0,-10.16175,105.24809,228.23908)"/>
<use data-text="a" xlink:href="#font_8_6" transform="matrix(10.16175,0,0,-10.16175,110.48139,228.23908)"/>
<use data-text="p" xlink:href="#font_8_25" transform="matrix(10.16175,0,0,-10.16175,115.71469,228.23908)"/>
<use data-text="C" xlink:href="#font_8_2" transform="matrix(10.16175,0,0,-10.16175,73.8483,240.09403)"/>
<use data-text="h" xlink:href="#font_8_18" transform="matrix(10.16175,0,0,-10.16175,79.0816,240.09403)"/>
<use data-text="i" xlink:href="#font_8_19" transform="matrix(10.16175,0,0,-10.16175,84.314899,240.09403)"/>
<use data-text="n" xlink:href="#font_8_21" transform="matrix(10.16175,0,0,-10.16175,89.548198,240.09403)"/>
<use data-text="s" xlink:href="#font_8_31" transform="matrix(10.16175,0,0,-10.16175,94.781497,240.09403)"/>
<use data-text="t" xlink:href="#font_8_34" transform="matrix(10.16175,0,0,-10.16175,100.01479,240.09403)"/>
<use data-text="r" xlink:href="#font_8_30" transform="matrix(10.16175,0,0,-10.16175,105.24809,240.09403)"/>
<use data-text="a" xlink:href="#font_8_6" transform="matrix(10.16175,0,0,-10.16175,110.48139,240.09403)"/>
<use data-text="p" xlink:href="#font_8_25" transform="matrix(10.16175,0,0,-10.16175,115.71469,240.09403)"/>
<use data-text="C" xlink:href="#font_8_2" transform="matrix(10.16175,0,0,-10.16175,73.8483,251.94983)"/>
<use data-text="h" xlink:href="#font_8_18" transform="matrix(10.16175,0,0,-10.16175,79.0816,251.94983)"/>
<use data-text="i" xlink:href="#font_8_19" transform="matrix(10.16175,0,0,-10.16175,84.314899,251.94983)"/>
<use data-text="n" xlink:href="#font_8_21" transform="matrix(10.16175,0,0,-10.16175,89.548198,251.94983)"/>
<use data-text="s" xlink:href="#font_8_31" transform="matrix(10.16175,0,0,-10.16175,94.781497,251.94983)"/>
<use data-text="t" xlink:href="#font_8_34" transform="matrix(10.16175,0,0,-10.16175,100.01479,251.94983)"/>
<use data-text="r" xlink:href="#font_8_30" transform="matrix(10.16175,0,0,-10.16175,105.24809,251.94983)"/>
<use data-text="a" xlink:href="#font_8_6" transform="matrix(10.16175,0,0,-10.16175,110.48139,251.94983)"/>
<use data-text="p" xlink:href="#font_8_25" transform="matrix(10.16175,0,0,-10.16175,115.71469,251.94983)"/>
<use data-text="r" xlink:href="#font_8_30" transform="matrix(10.16175,0,0,-10.16175,139.31275,168.04378)"/>
<use data-text="e" xlink:href="#font_8_11" transform="matrix(10.16175,0,0,-10.16175,144.54605,168.04378)"/>
<use data-text="s" xlink:href="#font_8_31" transform="matrix(10.16175,0,0,-10.16175,149.77936,168.04378)"/>
<use data-text="p" xlink:href="#font_8_25" transform="matrix(10.16175,0,0,-10.16175,155.01267,168.04378)"/>
<use data-text="o" xlink:href="#font_8_23" transform="matrix(10.16175,0,0,-10.16175,160.24597,168.04378)"/>
<use data-text="n" xlink:href="#font_8_21" transform="matrix(10.16175,0,0,-10.16175,165.47928,168.04378)"/>
<use data-text="s" xlink:href="#font_8_31" transform="matrix(10.16175,0,0,-10.16175,170.71259,168.04378)"/>
<use data-text="e" xlink:href="#font_8_11" transform="matrix(10.16175,0,0,-10.16175,175.94589,168.04378)"/>
<use data-text="A" xlink:href="#font_8_1" transform="matrix(10.16175,0,0,-10.16175,149.7686,179.89958)"/>
<use data-text="d" xlink:href="#font_8_9" transform="matrix(10.16175,0,0,-10.16175,155.0019,179.89958)"/>
<use data-text="e" xlink:href="#font_8_11" transform="matrix(10.16175,0,0,-10.16175,160.23522,179.89958)"/>
<use data-text="l" xlink:href="#font_8_20" transform="matrix(10.16175,0,0,-10.16175,165.46852,179.89958)"/>
<use data-text="i" xlink:href="#font_8_19" transform="matrix(10.16175,0,0,-10.16175,170.70183,179.89958)"/>
<use data-text="e" xlink:href="#font_8_11" transform="matrix(10.16175,0,0,-10.16175,175.93514,179.89958)"/>
<use data-text="A" xlink:href="#font_8_1" transform="matrix(10.16175,0,0,-10.16175,149.7686,191.75453)"/>
<use data-text="d" xlink:href="#font_8_9" transform="matrix(10.16175,0,0,-10.16175,155.0019,191.75453)"/>
<use data-text="e" xlink:href="#font_8_11" transform="matrix(10.16175,0,0,-10.16175,160.23522,191.75453)"/>
<use data-text="l" xlink:href="#font_8_20" transform="matrix(10.16175,0,0,-10.16175,165.46852,191.75453)"/>
<use data-text="i" xlink:href="#font_8_19" transform="matrix(10.16175,0,0,-10.16175,170.70183,191.75453)"/>
<use data-text="e" xlink:href="#font_8_11" transform="matrix(10.16175,0,0,-10.16175,175.93514,191.75453)"/>
<use data-text="A" xlink:href="#font_8_1" transform="matrix(10.16175,0,0,-10.16175,149.7686,203.61034)"/>
<use data-text="d" xlink:href="#font_8_9" transform="matrix(10.16175,0,0,-10.16175,155.0019,203.61034)"/>
<use data-text="e" xlink:href="#font_8_11" transform="matrix(10.16175,0,0,-10.16175,160.23522,203.61034)"/>
<use data-text="l" xlink:href="#font_8_20" transform="matrix(10.16175,0,0,-10.16175,165.46852,203.61034)"/>
<use data-text="i" xlink:href="#font_8_19" transform="matrix(10.16175,0,0,-10.16175,170.70183,203.61034)"/>
<use data-text="e" xlink:href="#font_8_11" transform="matrix(10.16175,0,0,-10.16175,175.93514,203.61034)"/>
<use data-text="C" xlink:href="#font_8_2" transform="matrix(10.16175,0,0,-10.16175,134.08525,227.32109)"/>
<use data-text="h" xlink:href="#font_8_18" transform="matrix(10.16175,0,0,-10.16175,139.31856,227.32109)"/>
<use data-text="i" xlink:href="#font_8_19" transform="matrix(10.16175,0,0,-10.16175,144.55187,227.32109)"/>
<use data-text="n" xlink:href="#font_8_21" transform="matrix(10.16175,0,0,-10.16175,149.78517,227.32109)"/>
<use data-text="s" xlink:href="#font_8_31" transform="matrix(10.16175,0,0,-10.16175,155.01848,227.32109)"/>
<use data-text="t" xlink:href="#font_8_34" transform="matrix(10.16175,0,0,-10.16175,160.25179,227.32109)"/>
<use data-text="r" xlink:href="#font_8_30" transform="matrix(10.16175,0,0,-10.16175,165.48509,227.32109)"/>
<use data-text="a" xlink:href="#font_8_6" transform="matrix(10.16175,0,0,-10.16175,170.7184,227.32109)"/>
<use data-text="p" xlink:href="#font_8_25" transform="matrix(10.16175,0,0,-10.16175,175.9517,227.32109)"/>
<use data-text="C" xlink:href="#font_8_2" transform="matrix(10.16175,0,0,-10.16175,134.08525,239.1769)"/>
<use data-text="h" xlink:href="#font_8_18" transform="matrix(10.16175,0,0,-10.16175,139.31856,239.1769)"/>
<use data-text="i" xlink:href="#font_8_19" transform="matrix(10.16175,0,0,-10.16175,144.55187,239.1769)"/>
<use data-text="n" xlink:href="#font_8_21" transform="matrix(10.16175,0,0,-10.16175,149.78517,239.1769)"/>
<use data-text="s" xlink:href="#font_8_31" transform="matrix(10.16175,0,0,-10.16175,155.01848,239.1769)"/>
<use data-text="t" xlink:href="#font_8_34" transform="matrix(10.16175,0,0,-10.16175,160.25179,239.1769)"/>
<use data-text="r" xlink:href="#font_8_30" transform="matrix(10.16175,0,0,-10.16175,165.48509,239.1769)"/>
<use data-text="a" xlink:href="#font_8_6" transform="matrix(10.16175,0,0,-10.16175,170.7184,239.1769)"/>
<use data-text="p" xlink:href="#font_8_25" transform="matrix(10.16175,0,0,-10.16175,175.9517,239.1769)"/>
<use data-text="A" xlink:href="#font_8_1" transform="matrix(10.16175,0,0,-10.16175,149.7686,251.0327)"/>
<use data-text="d" xlink:href="#font_8_9" transform="matrix(10.16175,0,0,-10.16175,155.0019,251.0327)"/>
<use data-text="e" xlink:href="#font_8_11" transform="matrix(10.16175,0,0,-10.16175,160.23522,251.0327)"/>
<use data-text="l" xlink:href="#font_8_20" transform="matrix(10.16175,0,0,-10.16175,165.46852,251.0327)"/>
<use data-text="i" xlink:href="#font_8_19" transform="matrix(10.16175,0,0,-10.16175,170.70183,251.0327)"/>
<use data-text="e" xlink:href="#font_8_11" transform="matrix(10.16175,0,0,-10.16175,175.93514,251.0327)"/>
<use data-text="&#x2212;" xlink:href="#font_9_1" transform="matrix(7.6211,0,0,-7.6211,6.9822084,335.65785)"/>
<use data-text="&#x2212;" xlink:href="#font_9_1" transform="matrix(7.6211,0,0,-7.6211,14.80985,335.65794)"/>
<use data-text="&#x2212;" xlink:href="#font_9_1" transform="matrix(7.6211,0,0,-7.6211,22.644333,335.65794)"/>
<use data-text="r" xlink:href="#font_8_30" transform="matrix(10.16175,0,0,-10.16175,30.8876,289.43409)"/>
<use data-text="o" xlink:href="#font_8_23" transform="matrix(10.16175,0,0,-10.16175,36.120904,289.43409)"/>
<use data-text="w" xlink:href="#font_8_39" transform="matrix(10.16175,0,0,-10.16175,41.354207,289.43409)"/>
<use data-text="_" xlink:href="#font_8_38" transform="matrix(10.16175,0,0,-10.16175,46.58751,289.43409)"/>
<use data-text="i" xlink:href="#font_8_19" transform="matrix(10.16175,0,0,-10.16175,51.820814,289.43409)"/>
<use data-text="d" xlink:href="#font_8_9" transform="matrix(10.16175,0,0,-10.16175,57.054117,289.43409)"/>
<use data-text="s" xlink:href="#font_8_31" transform="matrix(10.16175,0,0,-10.16175,62.28742,289.43409)"/>
<use data-text="2" xlink:href="#font_8_36" transform="matrix(10.16175,0,0,-10.16175,62.254304,301.2899)"/>
<use data-text="1" xlink:href="#font_8_24" transform="matrix(10.16175,0,0,-10.16175,57.026803,313.1457)"/>
<use data-text="4" xlink:href="#font_8_16" transform="matrix(10.16175,0,0,-10.16175,62.260107,313.1457)"/>
<use data-text="1" xlink:href="#font_8_24" transform="matrix(10.16175,0,0,-10.16175,57.026803,325.00065)"/>
<use data-text="5" xlink:href="#font_8_15" transform="matrix(10.16175,0,0,-10.16175,62.260107,325.00065)"/>
<use data-text="3" xlink:href="#font_8_35" transform="matrix(10.16175,0,0,-10.16175,51.7993,348.71226)"/>
<use data-text="3" xlink:href="#font_8_35" transform="matrix(10.16175,0,0,-10.16175,57.032606,348.71226)"/>
<use data-text="8" xlink:href="#font_8_12" transform="matrix(10.16175,0,0,-10.16175,62.265909,348.71226)"/>
<use data-text="3" xlink:href="#font_8_35" transform="matrix(10.16175,0,0,-10.16175,51.7993,360.56806)"/>
<use data-text="4" xlink:href="#font_8_16" transform="matrix(10.16175,0,0,-10.16175,57.032606,360.56806)"/>
<use data-text="0" xlink:href="#font_8_42" transform="matrix(10.16175,0,0,-10.16175,62.265909,360.56806)"/>
<use data-text="3" xlink:href="#font_8_35" transform="matrix(10.16175,0,0,-10.16175,51.7993,372.423)"/>
<use data-text="4" xlink:href="#font_8_16" transform="matrix(10.16175,0,0,-10.16175,57.032606,372.423)"/>
<use data-text="3" xlink:href="#font_8_35" transform="matrix(10.16175,0,0,-10.16175,62.265909,372.423)"/>
<use data-text="t" xlink:href="#font_8_34" transform="matrix(10.16175,0,0,-10.16175,94.76,289.43409)"/>
<use data-text="r" xlink:href="#font_8_30" transform="matrix(10.16175,0,0,-10.16175,99.9933,289.43409)"/>
<use data-text="u" xlink:href="#font_8_37" transform="matrix(10.16175,0,0,-10.16175,105.2266,289.43409)"/>
<use data-text="t" xlink:href="#font_8_34" transform="matrix(10.16175,0,0,-10.16175,110.4599,289.43409)"/>
<use data-text="h" xlink:href="#font_8_18" transform="matrix(10.16175,0,0,-10.16175,115.6932,289.43409)"/>
<use data-text="A" xlink:href="#font_8_1" transform="matrix(10.16175,0,0,-10.16175,89.5325,301.2899)"/>
<use data-text="d" xlink:href="#font_8_9" transform="matrix(10.16175,0,0,-10.16175,94.7658,301.2899)"/>
<use data-text="e" xlink:href="#font_8_11" transform="matrix(10.16175,0,0,-10.16175,99.9991,301.2899)"/>
<use data-text="l" xlink:href="#font_8_20" transform="matrix(10.16175,0,0,-10.16175,105.2324,301.2899)"/>
<use data-text="i" xlink:href="#font_8_19" transform="matrix(10.16175,0,0,-10.16175,110.4657,301.2899)"/>
<use data-text="e" xlink:href="#font_8_11" transform="matrix(10.16175,0,0,-10.16175,115.699,301.2899)"/>
<use data-text="A" xlink:href="#font_8_1" transform="matrix(10.16175,0,0,-10.16175,89.5325,313.1457)"/>
<use data-text="d" xlink:href="#font_8_9" transform="matrix(10.16175,0,0,-10.16175,94.7658,313.1457)"/>
<use data-text="e" xlink:href="#font_8_11" transform="matrix(10.16175,0,0,-10.16175,99.9991,313.1457)"/>
<use data-text="l" xlink:href="#font_8_20" transform="matrix(10.16175,0,0,-10.16175,105.2324,313.1457)"/>
<use data-text="i" xlink:href="#font_8_19" transform="matrix(10.16175,0,0,-10.16175,110.4657,313.1457)"/>
<use data-text="e" xlink:href="#font_8_11" transform="matrix(10.16175,0,0,-10.16175,115.699,313.1457)"/>
<use data-text="A" xlink:href="#font_8_1" transform="matrix(10.16175,0,0,-10.16175,89.5325,325.00065)"/>
<use data-text="d" xlink:href="#font_8_9" transform="matrix(10.16175,0,0,-10.16175,94.7658,325.00065)"/>
<use data-text="e" xlink:href="#font_8_11" transform="matrix(10.16175,0,0,-10.16175,99.9991,325.00065)"/>
<use data-text="l" xlink:href="#font_8_20" transform="matrix(10.16175,0,0,-10.16175,105.2324,325.00065)"/>
<use data-text="i" xlink:href="#font_8_19" transform="matrix(10.16175,0,0,-10.16175,110.4657,325.00065)"/>
<use data-text="e" xlink:href="#font_8_11" transform="matrix(10.16175,0,0,-10.16175,115.699,325.00065)"/>
<use data-text="C" xlink:href="#font_8_2" transform="matrix(10.16175,0,0,-10.16175,73.8483,348.71226)"/>
<use data-text="h" xlink:href="#font_8_18" transform="matrix(10.16175,0,0,-10.16175,79.0816,348.71226)"/>
<use data-text="i" xlink:href="#font_8_19" transform="matrix(10.16175,0,0,-10.16175,84.314899,348.71226)"/>
<use data-text="n" xlink:href="#font_8_21" transform="matrix(10.16175,0,0,-10.16175,89.548198,348.71226)"/>
<use data-text="s" xlink:href="#font_8_31" transform="matrix(10.16175,0,0,-10.16175,94.781497,348.71226)"/>
<use data-text="t" xlink:href="#font_8_34" transform="matrix(10.16175,0,0,-10.16175,100.01479,348.71226)"/>
<use data-text="r" xlink:href="#font_8_30" transform="matrix(10.16175,0,0,-10.16175,105.24809,348.71226)"/>
<use data-text="a" xlink:href="#font_8_6" transform="matrix(10.16175,0,0,-10.16175,110.48139,348.71226)"/>
<use data-text="p" xlink:href="#font_8_25" transform="matrix(10.16175,0,0,-10.16175,115.71469,348.71226)"/>
<use data-text="C" xlink:href="#font_8_2" transform="matrix(10.16175,0,0,-10.16175,73.8483,360.56806)"/>
<use data-text="h" xlink:href="#font_8_18" transform="matrix(10.16175,0,0,-10.16175,79.0816,360.56806)"/>
<use data-text="i" xlink:href="#font_8_19" transform="matrix(10.16175,0,0,-10.16175,84.314899,360.56806)"/>
<use data-text="n" xlink:href="#font_8_21" transform="matrix(10.16175,0,0,-10.16175,89.548198,360.56806)"/>
<use data-text="s" xlink:href="#font_8_31" transform="matrix(10.16175,0,0,-10.16175,94.781497,360.56806)"/>
<use data-text="t" xlink:href="#font_8_34" transform="matrix(10.16175,0,0,-10.16175,100.01479,360.56806)"/>
<use data-text="r" xlink:href="#font_8_30" transform="matrix(10.16175,0,0,-10.16175,105.24809,360.56806)"/>
<use data-text="a" xlink:href="#font_8_6" transform="matrix(10.16175,0,0,-10.16175,110.48139,360.56806)"/>
<use data-text="p" xlink:href="#font_8_25" transform="matrix(10.16175,0,0,-10.16175,115.71469,360.56806)"/>
<use data-text="C" xlink:href="#font_8_2" transform="matrix(10.16175,0,0,-10.16175,73.8483,372.423)"/>
<use data-text="h" xlink:href="#font_8_18" transform="matrix(10.16175,0,0,-10.16175,79.0816,372.423)"/>
<use data-text="i" xlink:href="#font_8_19" transform="matrix(10.16175,0,0,-10.16175,84.314899,372.423)"/>
<use data-text="n" xlink:href="#font_8_21" transform="matrix(10.16175,0,0,-10.16175,89.548198,372.423)"/>
<use data-text="s" xlink:href="#font_8_31" transform="matrix(10.16175,0,0,-10.16175,94.781497,372.423)"/>
<use data-text="t" xlink:href="#font_8_34" transform="matrix(10.16175,0,0,-10.16175,100.01479,372.423)"/>
<use data-text="r" xlink:href="#font_8_30" transform="matrix(10.16175,0,0,-10.16175,105.24809,372.423)"/>
<use data-text="a" xlink:href="#font_8_6" transform="matrix(10.16175,0,0,-10.16175,110.48139,372.423)"/>
<use data-text="p" xlink:href="#font_8_25" transform="matrix(10.16175,0,0,-10.16175,115.71469,372.423)"/>
<use data-text="r" xlink:href="#font_8_30" transform="matrix(10.16175,0,0,-10.16175,139.31275,288.51695)"/>
<use data-text="e" xlink:href="#font_8_11" transform="matrix(10.16175,0,0,-10.16175,144.54605,288.51695)"/>
<use data-text="s" xlink:href="#font_8_31" transform="matrix(10.16175,0,0,-10.16175,149.77936,288.51695)"/>
<use data-text="p" xlink:href="#font_8_25" transform="matrix(10.16175,0,0,-10.16175,155.01267,288.51695)"/>
<use data-text="o" xlink:href="#font_8_23" transform="matrix(10.16175,0,0,-10.16175,160.24597,288.51695)"/>
<use data-text="n" xlink:href="#font_8_21" transform="matrix(10.16175,0,0,-10.16175,165.47928,288.51695)"/>
<use data-text="s" xlink:href="#font_8_31" transform="matrix(10.16175,0,0,-10.16175,170.71259,288.51695)"/>
<use data-text="e" xlink:href="#font_8_11" transform="matrix(10.16175,0,0,-10.16175,175.94589,288.51695)"/>
<use data-text="A" xlink:href="#font_8_1" transform="matrix(10.16175,0,0,-10.16175,149.7686,300.37275)"/>
<use data-text="d" xlink:href="#font_8_9" transform="matrix(10.16175,0,0,-10.16175,155.0019,300.37275)"/>
<use data-text="e" xlink:href="#font_8_11" transform="matrix(10.16175,0,0,-10.16175,160.23522,300.37275)"/>
<use data-text="l" xlink:href="#font_8_20" transform="matrix(10.16175,0,0,-10.16175,165.46852,300.37275)"/>
<use data-text="i" xlink:href="#font_8_19" transform="matrix(10.16175,0,0,-10.16175,170.70183,300.37275)"/>
<use data-text="e" xlink:href="#font_8_11" transform="matrix(10.16175,0,0,-10.16175,175.93514,300.37275)"/>
<use data-text="A" xlink:href="#font_8_1" transform="matrix(10.16175,0,0,-10.16175,149.7686,312.22856)"/>
<use data-text="d" xlink:href="#font_8_9" transform="matrix(10.16175,0,0,-10.16175,155.0019,312.22856)"/>
<use data-text="e" xlink:href="#font_8_11" transform="matrix(10.16175,0,0,-10.16175,160.23522,312.22856)"/>
<use data-text="l" xlink:href="#font_8_20" transform="matrix(10.16175,0,0,-10.16175,165.46852,312.22856)"/>
<use data-text="i" xlink:href="#font_8_19" transform="matrix(10.16175,0,0,-10.16175,170.70183,312.22856)"/>
<use data-text="e" xlink:href="#font_8_11" transform="matrix(10.16175,0,0,-10.16175,175.93514,312.22856)"/>
<use data-text="A" xlink:href="#font_8_1" transform="matrix(10.16175,0,0,-10.16175,149.7686,324.0835)"/>
<use data-text="d" xlink:href="#font_8_9" transform="matrix(10.16175,0,0,-10.16175,155.0019,324.0835)"/>
<use data-text="e" xlink:href="#font_8_11" transform="matrix(10.16175,0,0,-10.16175,160.23522,324.0835)"/>
<use data-text="l" xlink:href="#font_8_20" transform="matrix(10.16175,0,0,-10.16175,165.46852,324.0835)"/>
<use data-text="i" xlink:href="#font_8_19" transform="matrix(10.16175,0,0,-10.16175,170.70183,324.0835)"/>
<use data-text="e" xlink:href="#font_8_11" transform="matrix(10.16175,0,0,-10.16175,175.93514,324.0835)"/>
<use data-text="C" xlink:href="#font_8_2" transform="matrix(10.16175,0,0,-10.16175,134.08525,347.7951)"/>
<use data-text="h" xlink:href="#font_8_18" transform="matrix(10.16175,0,0,-10.16175,139.31856,347.7951)"/>
<use data-text="i" xlink:href="#font_8_19" transform="matrix(10.16175,0,0,-10.16175,144.55187,347.7951)"/>
<use data-text="n" xlink:href="#font_8_21" transform="matrix(10.16175,0,0,-10.16175,149.78517,347.7951)"/>
<use data-text="s" xlink:href="#font_8_31" transform="matrix(10.16175,0,0,-10.16175,155.01848,347.7951)"/>
<use data-text="t" xlink:href="#font_8_34" transform="matrix(10.16175,0,0,-10.16175,160.25179,347.7951)"/>
<use data-text="r" xlink:href="#font_8_30" transform="matrix(10.16175,0,0,-10.16175,165.48509,347.7951)"/>
<use data-text="a" xlink:href="#font_8_6" transform="matrix(10.16175,0,0,-10.16175,170.7184,347.7951)"/>
<use data-text="p" xlink:href="#font_8_25" transform="matrix(10.16175,0,0,-10.16175,175.9517,347.7951)"/>
<use data-text="G" xlink:href="#font_8_3" transform="matrix(10.16175,0,0,-10.16175,149.7686,359.65007)"/>
<use data-text="e" xlink:href="#font_8_11" transform="matrix(10.16175,0,0,-10.16175,155.0019,359.65007)"/>
<use data-text="n" xlink:href="#font_8_21" transform="matrix(10.16175,0,0,-10.16175,160.23522,359.65007)"/>
<use data-text="t" xlink:href="#font_8_34" transform="matrix(10.16175,0,0,-10.16175,165.46852,359.65007)"/>
<use data-text="o" xlink:href="#font_8_23" transform="matrix(10.16175,0,0,-10.16175,170.70183,359.65007)"/>
<use data-text="o" xlink:href="#font_8_23" transform="matrix(10.16175,0,0,-10.16175,175.93514,359.65007)"/>
<use data-text="G" xlink:href="#font_8_3" transform="matrix(10.16175,0,0,-10.16175,149.7686,371.50587)"/>
<use data-text="e" xlink:href="#font_8_11" transform="matrix(10.16175,0,0,-10.16175,155.0019,371.50587)"/>
<use data-text="n" xlink:href="#font_8_21" transform="matrix(10.16175,0,0,-10.16175,160.23522,371.50587)"/>
<use data-text="t" xlink:href="#font_8_34" transform="matrix(10.16175,0,0,-10.16175,165.46852,371.50587)"/>
<use data-text="o" xlink:href="#font_8_23" transform="matrix(10.16175,0,0,-10.16175,170.70183,371.50587)"/>
<use data-text="o" xlink:href="#font_8_23" transform="matrix(10.16175,0,0,-10.16175,175.93514,371.50587)"/>
<use data-text="$" xlink:href="#font_8_10" transform="matrix(10.16175,0,0,-10.16175,221.03006,204.33548)"/>
<use data-text="s" xlink:href="#font_8_31" transform="matrix(10.16175,0,0,-10.16175,226.26337,204.33548)"/>
<use data-text="c" xlink:href="#font_8_7" transform="matrix(10.16175,0,0,-10.16175,231.49668,204.33548)"/>
<use data-text="o" xlink:href="#font_8_23" transform="matrix(10.16175,0,0,-10.16175,236.72998,204.33548)"/>
<use data-text="r" xlink:href="#font_8_30" transform="matrix(10.16175,0,0,-10.16175,241.96329,204.33548)"/>
<use data-text="e" xlink:href="#font_8_11" transform="matrix(10.16175,0,0,-10.16175,247.1966,204.33548)"/>
<use data-text="(" xlink:href="#font_8_26" transform="matrix(10.16175,0,0,-10.16175,252.4299,204.33548)"/>
<use data-text=")" xlink:href="#font_8_27" transform="matrix(10.16175,0,0,-10.16175,257.6632,204.33548)"/>
<use data-text="i" xlink:href="#font_8_19" transform="matrix(10.16175,0,0,-10.16175,302.74739,186.55178)"/>
<use data-text="t" xlink:href="#font_8_34" transform="matrix(10.16175,0,0,-10.16175,307.98069,186.55178)"/>
<use data-text="e" xlink:href="#font_8_11" transform="matrix(10.16175,0,0,-10.16175,313.214,186.55178)"/>
<use data-text="r" xlink:href="#font_8_30" transform="matrix(10.16175,0,0,-10.16175,318.4473,186.55178)"/>
<use data-text="a" xlink:href="#font_8_6" transform="matrix(10.16175,0,0,-10.16175,323.6806,186.55178)"/>
<use data-text="t" xlink:href="#font_8_34" transform="matrix(10.16175,0,0,-10.16175,328.9139,186.55178)"/>
<use data-text="i" xlink:href="#font_8_19" transform="matrix(10.16175,0,0,-10.16175,334.14723,186.55178)"/>
<use data-text="o" xlink:href="#font_8_23" transform="matrix(10.16175,0,0,-10.16175,339.38053,186.55178)"/>
<use data-text="n" xlink:href="#font_8_21" transform="matrix(10.16175,0,0,-10.16175,344.61384,186.55178)"/>
<use data-text="1" xlink:href="#font_8_24" transform="matrix(10.16175,0,0,-10.16175,323.6591,198.40758)"/>
<use data-text="3" xlink:href="#font_8_35" transform="matrix(10.16175,0,0,-10.16175,323.6591,210.26338)"/>
<use data-text="2" xlink:href="#font_8_36" transform="matrix(10.16175,0,0,-10.16175,323.6591,222.11833)"/>
<use data-text="c" xlink:href="#font_8_7" transform="matrix(10.16175,0,0,-10.16175,369.80305,186.55179)"/>
<use data-text="l" xlink:href="#font_8_20" transform="matrix(10.16175,0,0,-10.16175,375.03636,186.55179)"/>
<use data-text="a" xlink:href="#font_8_6" transform="matrix(10.16175,0,0,-10.16175,380.26966,186.55179)"/>
<use data-text="s" xlink:href="#font_8_31" transform="matrix(10.16175,0,0,-10.16175,385.50297,186.55179)"/>
<use data-text="s" xlink:href="#font_8_31" transform="matrix(10.16175,0,0,-10.16175,390.73628,186.55179)"/>
<use data-text="i" xlink:href="#font_8_19" transform="matrix(10.16175,0,0,-10.16175,395.96958,186.55179)"/>
<use data-text="f" xlink:href="#font_8_14" transform="matrix(10.16175,0,0,-10.16175,401.20289,186.55179)"/>
<use data-text="." xlink:href="#font_8_28" transform="matrix(10.16175,0,0,-10.16175,406.4362,186.55179)"/>
<use data-text="a" xlink:href="#font_8_6" transform="matrix(10.16175,0,0,-10.16175,411.6695,186.55179)"/>
<use data-text="c" xlink:href="#font_8_7" transform="matrix(10.16175,0,0,-10.16175,416.9028,186.55179)"/>
<use data-text="c" xlink:href="#font_8_7" transform="matrix(10.16175,0,0,-10.16175,422.1361,186.55179)"/>
<use data-text="0" xlink:href="#font_8_42" transform="matrix(10.16175,0,0,-10.16175,375.0314,198.4076)"/>
<use data-text="." xlink:href="#font_8_28" transform="matrix(10.16175,0,0,-10.16175,380.2647,198.4076)"/>
<use data-text="9" xlink:href="#font_8_22" transform="matrix(10.16175,0,0,-10.16175,385.49803,198.4076)"/>
<use data-text="3" xlink:href="#font_8_35" transform="matrix(10.16175,0,0,-10.16175,390.73133,198.4076)"/>
<use data-text="0" xlink:href="#font_8_42" transform="matrix(10.16175,0,0,-10.16175,395.96464,198.4076)"/>
<use data-text="4" xlink:href="#font_8_16" transform="matrix(10.16175,0,0,-10.16175,401.19795,198.4076)"/>
<use data-text="3" xlink:href="#font_8_35" transform="matrix(10.16175,0,0,-10.16175,406.43125,198.4076)"/>
<use data-text="4" xlink:href="#font_8_16" transform="matrix(10.16175,0,0,-10.16175,411.66456,198.4076)"/>
<use data-text="8" xlink:href="#font_8_12" transform="matrix(10.16175,0,0,-10.16175,416.89787,198.4076)"/>
<use data-text="0" xlink:href="#font_8_42" transform="matrix(10.16175,0,0,-10.16175,375.0314,210.2634)"/>
<use data-text="." xlink:href="#font_8_28" transform="matrix(10.16175,0,0,-10.16175,380.2647,210.2634)"/>
<use data-text="9" xlink:href="#font_8_22" transform="matrix(10.16175,0,0,-10.16175,385.49803,210.2634)"/>
<use data-text="5" xlink:href="#font_8_15" transform="matrix(10.16175,0,0,-10.16175,390.73133,210.2634)"/>
<use data-text="6" xlink:href="#font_8_33" transform="matrix(10.16175,0,0,-10.16175,395.96464,210.2634)"/>
<use data-text="5" xlink:href="#font_8_15" transform="matrix(10.16175,0,0,-10.16175,401.19795,210.2634)"/>
<use data-text="2" xlink:href="#font_8_36" transform="matrix(10.16175,0,0,-10.16175,406.43125,210.2634)"/>
<use data-text="1" xlink:href="#font_8_24" transform="matrix(10.16175,0,0,-10.16175,411.66456,210.2634)"/>
<use data-text="7" xlink:href="#font_8_32" transform="matrix(10.16175,0,0,-10.16175,416.89787,210.2634)"/>
<use data-text="0" xlink:href="#font_8_42" transform="matrix(10.16175,0,0,-10.16175,375.0314,222.11835)"/>
<use data-text="." xlink:href="#font_8_28" transform="matrix(10.16175,0,0,-10.16175,380.2647,222.11835)"/>
<use data-text="9" xlink:href="#font_8_22" transform="matrix(10.16175,0,0,-10.16175,385.49803,222.11835)"/>
<use data-text="2" xlink:href="#font_8_36" transform="matrix(10.16175,0,0,-10.16175,390.73133,222.11835)"/>
<use data-text="9" xlink:href="#font_8_22" transform="matrix(10.16175,0,0,-10.16175,395.96464,222.11835)"/>
<use data-text="0" xlink:href="#font_8_42" transform="matrix(10.16175,0,0,-10.16175,401.19795,222.11835)"/>
<use data-text="2" xlink:href="#font_8_36" transform="matrix(10.16175,0,0,-10.16175,406.43125,222.11835)"/>
<use data-text="4" xlink:href="#font_8_16" transform="matrix(10.16175,0,0,-10.16175,411.66456,222.11835)"/>
<use data-text="6" xlink:href="#font_8_33" transform="matrix(10.16175,0,0,-10.16175,416.89787,222.11835)"/>
<use data-text="$" xlink:href="#font_8_10" transform="matrix(10.16175,0,0,-10.16175,439.4733,203.62915)"/>
<use data-text="a" xlink:href="#font_8_6" transform="matrix(10.16175,0,0,-10.16175,444.7066,203.62915)"/>
<use data-text="g" xlink:href="#font_8_17" transform="matrix(10.16175,0,0,-10.16175,449.9399,203.62915)"/>
<use data-text="g" xlink:href="#font_8_17" transform="matrix(10.16175,0,0,-10.16175,455.17323,203.62915)"/>
<use data-text="r" xlink:href="#font_8_30" transform="matrix(10.16175,0,0,-10.16175,460.40653,203.62915)"/>
<use data-text="e" xlink:href="#font_8_11" transform="matrix(10.16175,0,0,-10.16175,465.63984,203.62915)"/>
<use data-text="g" xlink:href="#font_8_17" transform="matrix(10.16175,0,0,-10.16175,470.87315,203.62915)"/>
<use data-text="a" xlink:href="#font_8_6" transform="matrix(10.16175,0,0,-10.16175,476.10646,203.62915)"/>
<use data-text="t" xlink:href="#font_8_34" transform="matrix(10.16175,0,0,-10.16175,481.33976,203.62915)"/>
<use data-text="e" xlink:href="#font_8_11" transform="matrix(10.16175,0,0,-10.16175,486.57307,203.62915)"/>
<use data-text="(" xlink:href="#font_8_26" transform="matrix(10.16175,0,0,-10.16175,491.80638,203.62915)"/>
<use data-text=")" xlink:href="#font_8_27" transform="matrix(10.16175,0,0,-10.16175,497.03968,203.62915)"/>
<use data-text="c" xlink:href="#font_8_7" transform="matrix(10.16175,0,0,-10.16175,514.37106,198.4076)"/>
<use data-text="l" xlink:href="#font_8_20" transform="matrix(10.16175,0,0,-10.16175,519.6043,198.4076)"/>
<use data-text="a" xlink:href="#font_8_6" transform="matrix(10.16175,0,0,-10.16175,524.8376,198.4076)"/>
<use data-text="s" xlink:href="#font_8_31" transform="matrix(10.16175,0,0,-10.16175,530.07089,198.4076)"/>
<use data-text="s" xlink:href="#font_8_31" transform="matrix(10.16175,0,0,-10.16175,535.30416,198.4076)"/>
<use data-text="i" xlink:href="#font_8_19" transform="matrix(10.16175,0,0,-10.16175,540.5374,198.4076)"/>
<use data-text="f" xlink:href="#font_8_14" transform="matrix(10.16175,0,0,-10.16175,545.7707,198.4076)"/>
<use data-text="." xlink:href="#font_8_28" transform="matrix(10.16175,0,0,-10.16175,551.00399,198.4076)"/>
<use data-text="a" xlink:href="#font_8_6" transform="matrix(10.16175,0,0,-10.16175,556.23727,198.4076)"/>
<use data-text="c" xlink:href="#font_8_7" transform="matrix(10.16175,0,0,-10.16175,561.4705,198.4076)"/>
<use data-text="c" xlink:href="#font_8_7" transform="matrix(10.16175,0,0,-10.16175,566.7038,198.4076)"/>
<use data-text="0" xlink:href="#font_8_42" transform="matrix(10.16175,0,0,-10.16175,522.21316,210.2634)"/>
<use data-text="." xlink:href="#font_8_28" transform="matrix(10.16175,0,0,-10.16175,527.4464,210.2634)"/>
<use data-text="9" xlink:href="#font_8_22" transform="matrix(10.16175,0,0,-10.16175,532.6797,210.2634)"/>
<use data-text="3" xlink:href="#font_8_35" transform="matrix(10.16175,0,0,-10.16175,537.91299,210.2634)"/>
<use data-text="8" xlink:href="#font_8_12" transform="matrix(10.16175,0,0,-10.16175,543.14627,210.2634)"/>
<use data-text="9" xlink:href="#font_8_22" transform="matrix(10.16175,0,0,-10.16175,548.3795,210.2634)"/>
<use data-text="2" xlink:href="#font_8_36" transform="matrix(10.16175,0,0,-10.16175,553.6128,210.2634)"/>
<use data-text="7" xlink:href="#font_8_32" transform="matrix(10.16175,0,0,-10.16175,558.84609,210.2634)"/>
</svg>
