<svg xmlns="http://www.w3.org/2000/svg" xmlns:xlink="http://www.w3.org/1999/xlink" version="1.1" width="243.641pt" height="185.422pt" viewBox="0 0 243.641 185.422">
<defs>
<path id="font_51_57" d="M.23098755 .6660156C.040985109 .64801028 .039993287 .4111786 .039993287 .31524659 .039993287 .17832947 .067993167-.01953125 .24398804-.01953125H.2559967C.44599916-.0015411377 .44799806 .2303009 .44799806 .3282318 .44799806 .4641266 .4189911 .6669922 .24499512 .6669922 .23999024 .66700747 .23599243 .6660156 .23098755 .6660156M.116989139 .26127626C.115997318 .26927186 .115997318 .27827455 .115997318 .28625489 .115997318 .34822084 .115997318 .4121704 .12098694 .47413636 .12399292 .5140991 .1289978 .55807498 .1519928 .592041 .17298889 .62402346 .20799256 .64601138 .24499512 .64601138 .3809967 .64601138 .37199403 .43914796 .37199403 .34521485V.27127076C.37199403 .19732666 .36799623 .118377689 .34098817 .06642151 .32299806 .030441285 .28599549 .00045776368 .24398804 .00045776368H.23799134C.117996219 .0104522709 .12599182 .17034912 .116989139 .26127626Z"/>
<path id="font_51_40" d="M.09098816 .602005V.57299807C.13598633 .57299807 .17399597 .58000186 .21798706 .598999V.07397461C.21798706 .034973146 .1789856 .02897644 .13999939 .02897644 .12399292 .02897644 .10899353 .029968262 .09599304 .029968262V.0009765625H.40899659V.029968262C.39698792 .029968262 .3809967 .02897644 .3659973 .02897644 .31599427 .02897644 .2869873 .033966066 .2869873 .07696533V.651001C.2869873 .65701296 .2849884 .6660156 .2749939 .6660156 .26098634 .6660156 .24899292 .6470032 .23599243 .6399994 .19299317 .6110077 .14199829 .602005 .09098816 .602005Z"/>
</defs>
<path transform="matrix(1,0,0,-1,135.8469,170.5766)" d="M0 0H-28.054C-28.604 0-29.05-.446-29.05-.996V-13.351C-29.05-13.901-28.604-14.347-28.054-14.347H0C.55-14.347 .996-13.901 .996-13.351V-.996C.996-.446 .55 0 0 0Z" fill="#7dcdb3"/>
<path transform="matrix(1,0,0,-1,135.8469,170.5766)" stroke-width=".996" stroke-linecap="butt" stroke-miterlimit="10" stroke-linejoin="miter" fill="none" stroke="#3b528b" d="M0 0H-28.054C-28.604 0-29.05-.446-29.05-.996V-13.351C-29.05-13.901-28.604-14.347-28.054-14.347H0C.55-14.347 .996-13.901 .996-13.351V-.996C.996-.446 .55 0 0 0Z"/>
<use data-text="0" xlink:href="#font_51_57" transform="matrix(11.955,0,0,-11.955,110.117,181.604)"/>
<use data-text="0" xlink:href="#font_51_57" transform="matrix(11.955,0,0,-11.955,115.974948,181.604)"/>
<use data-text="0" xlink:href="#font_51_57" transform="matrix(11.955,0,0,-11.955,121.83289,181.604)"/>
<use data-text="0" xlink:href="#font_51_57" transform="matrix(11.955,0,0,-11.955,127.69084,181.604)"/>
<path transform="matrix(1,0,0,-1,50.806398,128.0563)" d="M0 0H-28.054C-28.604 0-29.05-.446-29.05-.996V-13.351C-29.05-13.901-28.604-14.347-28.054-14.347H0C.55-14.347 .996-13.901 .996-13.351V-.996C.996-.446 .55 0 0 0Z" fill="#7dcdb3"/>
<path transform="matrix(1,0,0,-1,50.806398,128.0563)" stroke-width=".996" stroke-linecap="butt" stroke-miterlimit="10" stroke-linejoin="miter" fill="none" stroke="#3b528b" d="M0 0H-28.054C-28.604 0-29.05-.446-29.05-.996V-13.351C-29.05-13.901-28.604-14.347-28.054-14.347H0C.55-14.347 .996-13.901 .996-13.351V-.996C.996-.446 .55 0 0 0Z"/>
<use data-text="1" xlink:href="#font_51_40" transform="matrix(11.955,0,0,-11.955,25.078,139.084)"/>
<use data-text="0" xlink:href="#font_51_57" transform="matrix(11.955,0,0,-11.955,30.93595,139.084)"/>
<use data-text="0" xlink:href="#font_51_57" transform="matrix(11.955,0,0,-11.955,36.7939,139.084)"/>
<use data-text="0" xlink:href="#font_51_57" transform="matrix(11.955,0,0,-11.955,42.651849,139.084)"/>
<path transform="matrix(1,0,0,-1,107.5001,128.0563)" d="M0 0H-28.054C-28.604 0-29.05-.446-29.05-.996V-13.351C-29.05-13.901-28.604-14.347-28.054-14.347H0C.55-14.347 .996-13.901 .996-13.351V-.996C.996-.446 .55 0 0 0Z" fill="#dbf0a9"/>
<path transform="matrix(1,0,0,-1,107.5001,128.0563)" stroke-width=".996" stroke-linecap="butt" stroke-miterlimit="10" stroke-linejoin="miter" fill="none" stroke="#3b528b" d="M0 0H-28.054C-28.604 0-29.05-.446-29.05-.996V-13.351C-29.05-13.901-28.604-14.347-28.054-14.347H0C.55-14.347 .996-13.901 .996-13.351V-.996C.996-.446 .55 0 0 0Z"/>
<use data-text="0" xlink:href="#font_51_57" transform="matrix(11.955,0,0,-11.955,81.771,139.084)"/>
<use data-text="1" xlink:href="#font_51_40" transform="matrix(11.955,0,0,-11.955,87.62895,139.084)"/>
<use data-text="0" xlink:href="#font_51_57" transform="matrix(11.955,0,0,-11.955,93.4869,139.084)"/>
<use data-text="0" xlink:href="#font_51_57" transform="matrix(11.955,0,0,-11.955,99.34485,139.084)"/>
<path transform="matrix(1,0,0,-1,164.1937,128.0563)" d="M0 0H-28.054C-28.604 0-29.05-.446-29.05-.996V-13.351C-29.05-13.901-28.604-14.347-28.054-14.347H0C.55-14.347 .996-13.901 .996-13.351V-.996C.996-.446 .55 0 0 0Z" fill="#dbf0a9"/>
<path transform="matrix(1,0,0,-1,164.1937,128.0563)" stroke-width=".996" stroke-linecap="butt" stroke-miterlimit="10" stroke-linejoin="miter" fill="none" stroke="#3b528b" d="M0 0H-28.054C-28.604 0-29.05-.446-29.05-.996V-13.351C-29.05-13.901-28.604-14.347-28.054-14.347H0C.55-14.347 .996-13.901 .996-13.351V-.996C.996-.446 .55 0 0 0Z"/>
<use data-text="0" xlink:href="#font_51_57" transform="matrix(11.955,0,0,-11.955,138.463,139.084)"/>
<use data-text="0" xlink:href="#font_51_57" transform="matrix(11.955,0,0,-11.955,144.32096,139.084)"/>
<use data-text="1" xlink:href="#font_51_40" transform="matrix(11.955,0,0,-11.955,150.17891,139.084)"/>
<use data-text="0" xlink:href="#font_51_57" transform="matrix(11.955,0,0,-11.955,156.03687,139.084)"/>
<path transform="matrix(1,0,0,-1,220.8873,128.0563)" d="M0 0H-28.054C-28.604 0-29.05-.446-29.05-.996V-13.351C-29.05-13.901-28.604-14.347-28.054-14.347H0C.55-14.347 .996-13.901 .996-13.351V-.996C.996-.446 .55 0 0 0Z" fill="#dbf0a9"/>
<path transform="matrix(1,0,0,-1,220.8873,128.0563)" stroke-width=".996" stroke-linecap="butt" stroke-miterlimit="10" stroke-linejoin="miter" fill="none" stroke="#3b528b" d="M0 0H-28.054C-28.604 0-29.05-.446-29.05-.996V-13.351C-29.05-13.901-28.604-14.347-28.054-14.347H0C.55-14.347 .996-13.901 .996-13.351V-.996C.996-.446 .55 0 0 0Z"/>
<use data-text="0" xlink:href="#font_51_57" transform="matrix(11.955,0,0,-11.955,195.156,139.084)"/>
<use data-text="0" xlink:href="#font_51_57" transform="matrix(11.955,0,0,-11.955,201.01396,139.084)"/>
<use data-text="0" xlink:href="#font_51_57" transform="matrix(11.955,0,0,-11.955,206.87192,139.084)"/>
<use data-text="1" xlink:href="#font_51_40" transform="matrix(11.955,0,0,-11.955,212.72988,139.084)"/>
<path transform="matrix(1,0,0,-1,29.546303,85.5361)" d="M0 0H-28.054C-28.604 0-29.05-.446-29.05-.996V-13.351C-29.05-13.901-28.604-14.347-28.054-14.347H0C.55-14.347 .996-13.901 .996-13.351V-.996C.996-.446 .55 0 0 0Z" fill="#dbf0a9"/>
<path transform="matrix(1,0,0,-1,29.546303,85.5361)" stroke-width=".996" stroke-linecap="butt" stroke-miterlimit="10" stroke-linejoin="miter" fill="none" stroke="#3b528b" d="M0 0H-28.054C-28.604 0-29.05-.446-29.05-.996V-13.351C-29.05-13.901-28.604-14.347-28.054-14.347H0C.55-14.347 .996-13.901 .996-13.351V-.996C.996-.446 .55 0 0 0Z"/>
<use data-text="1" xlink:href="#font_51_40" transform="matrix(11.955,0,0,-11.955,3.818,96.564998)"/>
<use data-text="1" xlink:href="#font_51_40" transform="matrix(11.955,0,0,-11.955,9.67595,96.564998)"/>
<use data-text="0" xlink:href="#font_51_57" transform="matrix(11.955,0,0,-11.955,15.5339,96.564998)"/>
<use data-text="0" xlink:href="#font_51_57" transform="matrix(11.955,0,0,-11.955,21.39185,96.564998)"/>
<path transform="matrix(1,0,0,-1,72.0665,85.5361)" d="M0 0H-28.054C-28.604 0-29.05-.446-29.05-.996V-13.351C-29.05-13.901-28.604-14.347-28.054-14.347H0C.55-14.347 .996-13.901 .996-13.351V-.996C.996-.446 .55 0 0 0Z" fill="#7dcdb3"/>
<path transform="matrix(1,0,0,-1,72.0665,85.5361)" stroke-width=".996" stroke-linecap="butt" stroke-miterlimit="10" stroke-linejoin="miter" fill="none" stroke="#3b528b" d="M0 0H-28.054C-28.604 0-29.05-.446-29.05-.996V-13.351C-29.05-13.901-28.604-14.347-28.054-14.347H0C.55-14.347 .996-13.901 .996-13.351V-.996C.996-.446 .55 0 0 0Z"/>
<use data-text="1" xlink:href="#font_51_40" transform="matrix(11.955,0,0,-11.955,46.337,96.564998)"/>
<use data-text="0" xlink:href="#font_51_57" transform="matrix(11.955,0,0,-11.955,52.194955,96.564998)"/>
<use data-text="1" xlink:href="#font_51_40" transform="matrix(11.955,0,0,-11.955,58.052904,96.564998)"/>
<use data-text="0" xlink:href="#font_51_57" transform="matrix(11.955,0,0,-11.955,63.91085,96.564998)"/>
<path transform="matrix(1,0,0,-1,114.5867,85.5361)" stroke-width=".996" stroke-linecap="butt" stroke-miterlimit="10" stroke-linejoin="miter" fill="none" stroke="#3b528b" d="M0 0H-28.054C-28.604 0-29.05-.446-29.05-.996V-13.351C-29.05-13.901-28.604-14.347-28.054-14.347H0C.55-14.347 .996-13.901 .996-13.351V-.996C.996-.446 .55 0 0 0Z"/>
<use data-text="0" xlink:href="#font_51_57" transform="matrix(11.955,0,0,-11.955,88.857,96.564998)"/>
<use data-text="1" xlink:href="#font_51_40" transform="matrix(11.955,0,0,-11.955,94.71495,96.564998)"/>
<use data-text="1" xlink:href="#font_51_40" transform="matrix(11.955,0,0,-11.955,100.5729,96.564998)"/>
<use data-text="0" xlink:href="#font_51_57" transform="matrix(11.955,0,0,-11.955,106.43085,96.564998)"/>
<path transform="matrix(1,0,0,-1,157.107,85.5361)" d="M0 0H-28.054C-28.604 0-29.05-.446-29.05-.996V-13.351C-29.05-13.901-28.604-14.347-28.054-14.347H0C.55-14.347 .996-13.901 .996-13.351V-.996C.996-.446 .55 0 0 0Z" fill="#dbf0a9"/>
<path transform="matrix(1,0,0,-1,157.107,85.5361)" stroke-width=".996" stroke-linecap="butt" stroke-miterlimit="10" stroke-linejoin="miter" fill="none" stroke="#3b528b" d="M0 0H-28.054C-28.604 0-29.05-.446-29.05-.996V-13.351C-29.05-13.901-28.604-14.347-28.054-14.347H0C.55-14.347 .996-13.901 .996-13.351V-.996C.996-.446 .55 0 0 0Z"/>
<use data-text="1" xlink:href="#font_51_40" transform="matrix(11.955,0,0,-11.955,131.377,96.564998)"/>
<use data-text="0" xlink:href="#font_51_57" transform="matrix(11.955,0,0,-11.955,137.23496,96.564998)"/>
<use data-text="0" xlink:href="#font_51_57" transform="matrix(11.955,0,0,-11.955,143.09291,96.564998)"/>
<use data-text="1" xlink:href="#font_51_40" transform="matrix(11.955,0,0,-11.955,148.95087,96.564998)"/>
<path transform="matrix(1,0,0,-1,199.6272,85.5361)" stroke-width=".996" stroke-linecap="butt" stroke-miterlimit="10" stroke-linejoin="miter" fill="none" stroke="#3b528b" d="M0 0H-28.054C-28.604 0-29.05-.446-29.05-.996V-13.351C-29.05-13.901-28.604-14.347-28.054-14.347H0C.55-14.347 .996-13.901 .996-13.351V-.996C.996-.446 .55 0 0 0Z"/>
<use data-text="0" xlink:href="#font_51_57" transform="matrix(11.955,0,0,-11.955,173.897,96.564998)"/>
<use data-text="1" xlink:href="#font_51_40" transform="matrix(11.955,0,0,-11.955,179.75496,96.564998)"/>
<use data-text="0" xlink:href="#font_51_57" transform="matrix(11.955,0,0,-11.955,185.61292,96.564998)"/>
<use data-text="1" xlink:href="#font_51_40" transform="matrix(11.955,0,0,-11.955,191.47087,96.564998)"/>
<path transform="matrix(1,0,0,-1,242.1474,85.5361)" stroke-width=".996" stroke-linecap="butt" stroke-miterlimit="10" stroke-linejoin="miter" fill="none" stroke="#3b528b" d="M0 0H-28.054C-28.604 0-29.05-.446-29.05-.996V-13.351C-29.05-13.901-28.604-14.347-28.054-14.347H0C.55-14.347 .996-13.901 .996-13.351V-.996C.996-.446 .55 0 0 0Z"/>
<use data-text="0" xlink:href="#font_51_57" transform="matrix(11.955,0,0,-11.955,216.416,96.564998)"/>
<use data-text="0" xlink:href="#font_51_57" transform="matrix(11.955,0,0,-11.955,222.27396,96.564998)"/>
<use data-text="1" xlink:href="#font_51_40" transform="matrix(11.955,0,0,-11.955,228.13191,96.564998)"/>
<use data-text="1" xlink:href="#font_51_40" transform="matrix(11.955,0,0,-11.955,233.98987,96.564998)"/>
<path transform="matrix(1,0,0,-1,50.806398,43.0159)" d="M0 0H-28.054C-28.604 0-29.05-.446-29.05-.996V-13.351C-29.05-13.901-28.604-14.347-28.054-14.347H0C.55-14.347 .996-13.901 .996-13.351V-.996C.996-.446 .55 0 0 0Z" fill="#dbf0a9"/>
<path transform="matrix(1,0,0,-1,50.806398,43.0159)" stroke-width=".996" stroke-linecap="butt" stroke-miterlimit="10" stroke-linejoin="miter" fill="none" stroke="#3b528b" d="M0 0H-28.054C-28.604 0-29.05-.446-29.05-.996V-13.351C-29.05-13.901-28.604-14.347-28.054-14.347H0C.55-14.347 .996-13.901 .996-13.351V-.996C.996-.446 .55 0 0 0Z"/>
<use data-text="1" xlink:href="#font_51_40" transform="matrix(11.955,0,0,-11.955,25.078,54.045)"/>
<use data-text="1" xlink:href="#font_51_40" transform="matrix(11.955,0,0,-11.955,30.93595,54.045)"/>
<use data-text="1" xlink:href="#font_51_40" transform="matrix(11.955,0,0,-11.955,36.7939,54.045)"/>
<use data-text="0" xlink:href="#font_51_57" transform="matrix(11.955,0,0,-11.955,42.651849,54.045)"/>
<path transform="matrix(1,0,0,-1,107.5001,43.0159)" stroke-width=".996" stroke-linecap="butt" stroke-miterlimit="10" stroke-linejoin="miter" fill="none" stroke="#3b528b" d="M0 0H-28.054C-28.604 0-29.05-.446-29.05-.996V-13.351C-29.05-13.901-28.604-14.347-28.054-14.347H0C.55-14.347 .996-13.901 .996-13.351V-.996C.996-.446 .55 0 0 0Z"/>
<use data-text="1" xlink:href="#font_51_40" transform="matrix(11.955,0,0,-11.955,81.771,54.045)"/>
<use data-text="1" xlink:href="#font_51_40" transform="matrix(11.955,0,0,-11.955,87.62895,54.045)"/>
<use data-text="0" xlink:href="#font_51_57" transform="matrix(11.955,0,0,-11.955,93.4869,54.045)"/>
<use data-text="1" xlink:href="#font_51_40" transform="matrix(11.955,0,0,-11.955,99.34485,54.045)"/>
<path transform="matrix(1,0,0,-1,164.1937,43.0159)" d="M0 0H-28.054C-28.604 0-29.05-.446-29.05-.996V-13.351C-29.05-13.901-28.604-14.347-28.054-14.347H0C.55-14.347 .996-13.901 .996-13.351V-.996C.996-.446 .55 0 0 0Z" fill="#7dcdb3"/>
<path transform="matrix(1,0,0,-1,164.1937,43.0159)" stroke-width=".996" stroke-linecap="butt" stroke-miterlimit="10" stroke-linejoin="miter" fill="none" stroke="#3b528b" d="M0 0H-28.054C-28.604 0-29.05-.446-29.05-.996V-13.351C-29.05-13.901-28.604-14.347-28.054-14.347H0C.55-14.347 .996-13.901 .996-13.351V-.996C.996-.446 .55 0 0 0Z"/>
<use data-text="1" xlink:href="#font_51_40" transform="matrix(11.955,0,0,-11.955,138.463,54.045)"/>
<use data-text="0" xlink:href="#font_51_57" transform="matrix(11.955,0,0,-11.955,144.32096,54.045)"/>
<use data-text="1" xlink:href="#font_51_40" transform="matrix(11.955,0,0,-11.955,150.17891,54.045)"/>
<use data-text="1" xlink:href="#font_51_40" transform="matrix(11.955,0,0,-11.955,156.03687,54.045)"/>
<path transform="matrix(1,0,0,-1,220.8873,43.0159)" stroke-width=".996" stroke-linecap="butt" stroke-miterlimit="10" stroke-linejoin="miter" fill="none" stroke="#3b528b" d="M0 0H-28.054C-28.604 0-29.05-.446-29.05-.996V-13.351C-29.05-13.901-28.604-14.347-28.054-14.347H0C.55-14.347 .996-13.901 .996-13.351V-.996C.996-.446 .55 0 0 0Z"/>
<use data-text="0" xlink:href="#font_51_57" transform="matrix(11.955,0,0,-11.955,195.156,54.045)"/>
<use data-text="1" xlink:href="#font_51_40" transform="matrix(11.955,0,0,-11.955,201.01396,54.045)"/>
<use data-text="1" xlink:href="#font_51_40" transform="matrix(11.955,0,0,-11.955,206.87192,54.045)"/>
<use data-text="1" xlink:href="#font_51_40" transform="matrix(11.955,0,0,-11.955,212.72988,54.045)"/>
<path transform="matrix(1,0,0,-1,135.8469,.49560548)" d="M0 0H-28.054C-28.604 0-29.05-.446-29.05-.996V-13.351C-29.05-13.901-28.604-14.347-28.054-14.347H0C.55-14.347 .996-13.901 .996-13.351V-.996C.996-.446 .55 0 0 0Z" fill="#7dcdb3"/>
<path transform="matrix(1,0,0,-1,135.8469,.49560548)" stroke-width=".996" stroke-linecap="butt" stroke-miterlimit="10" stroke-linejoin="miter" fill="none" stroke="#3b528b" d="M0 0H-28.054C-28.604 0-29.05-.446-29.05-.996V-13.351C-29.05-13.901-28.604-14.347-28.054-14.347H0C.55-14.347 .996-13.901 .996-13.351V-.996C.996-.446 .55 0 0 0Z"/>
<use data-text="1" xlink:href="#font_51_40" transform="matrix(11.955,0,0,-11.955,110.117,11.524994)"/>
<use data-text="1" xlink:href="#font_51_40" transform="matrix(11.955,0,0,-11.955,115.974948,11.524994)"/>
<use data-text="1" xlink:href="#font_51_40" transform="matrix(11.955,0,0,-11.955,121.83289,11.524994)"/>
<use data-text="1" xlink:href="#font_51_40" transform="matrix(11.955,0,0,-11.955,127.69084,11.524994)"/>
<path transform="matrix(1,0,0,-1,106.4805,170.0784)" stroke-width=".996" stroke-linecap="butt" stroke-miterlimit="10" stroke-linejoin="miter" fill="none" stroke="#3b528b" d="M0 0-54.363 27.177"/>
<path transform="matrix(1,0,0,-1,116.7069,170.0784)" stroke-width=".996" stroke-linecap="butt" stroke-miterlimit="10" stroke-linejoin="miter" fill="none" stroke="#3b528b" d="M0 0-18.121 27.177"/>
<path transform="matrix(1,0,0,-1,126.9331,170.0784)" stroke-width=".996" stroke-linecap="butt" stroke-miterlimit="10" stroke-linejoin="miter" fill="none" stroke="#3b528b" d="M0 0 18.121 27.177"/>
<path transform="matrix(1,0,0,-1,137.1595,170.0784)" stroke-width=".996" stroke-linecap="butt" stroke-miterlimit="10" stroke-linejoin="miter" fill="none" stroke="#3b528b" d="M0 0 54.363 27.177"/>
<path transform="matrix(1,0,0,-1,32.944704,127.5582)" stroke-width=".996" stroke-linecap="butt" stroke-miterlimit="10" stroke-linejoin="miter" fill="none" stroke="#3b528b" d="M0 0-13.591 27.177"/>
<path transform="matrix(1,0,0,-1,40.614404,127.5582)" stroke-width=".996" stroke-linecap="butt" stroke-miterlimit="10" stroke-linejoin="miter" fill="none" stroke="#3b528b" d="M0 0 13.591 27.177"/>
<path transform="matrix(1,0,0,-1,52.300798,129.023)" stroke-width=".996" stroke-linecap="butt" stroke-miterlimit="10" stroke-linejoin="miter" fill="none" stroke="#3b528b" d="M0 0 75.258 30.107"/>
<path transform="matrix(1,0,0,-1,79.411899,127.5582)" stroke-width=".996" stroke-linecap="butt" stroke-miterlimit="10" stroke-linejoin="miter" fill="none" stroke="#3b528b" d="M0 0-49.833 27.177"/>
<path transform="matrix(1,0,0,-1,94.751499,127.5582)" stroke-width=".996" stroke-linecap="butt" stroke-miterlimit="10" stroke-linejoin="miter" fill="none" stroke="#3b528b" d="M0 0 4.53 27.177"/>
<path transform="matrix(1,0,0,-1,108.9945,128.0674)" stroke-width=".996" stroke-linecap="butt" stroke-miterlimit="10" stroke-linejoin="miter" fill="none" stroke="#3b528b" d="M0 0 61.085 28.202"/>
<path transform="matrix(1,0,0,-1,134.6455,128.0674)" stroke-width=".996" stroke-linecap="butt" stroke-miterlimit="10" stroke-linejoin="miter" fill="none" stroke="#3b528b" d="M0 0-61.085 28.202"/>
<path transform="matrix(1,0,0,-1,141.2188,127.5582)" stroke-width=".996" stroke-linecap="butt" stroke-miterlimit="10" stroke-linejoin="miter" fill="none" stroke="#3b528b" d="M0 0-31.712 27.177"/>
<path transform="matrix(1,0,0,-1,164.2281,127.5582)" stroke-width=".996" stroke-linecap="butt" stroke-miterlimit="10" stroke-linejoin="miter" fill="none" stroke="#3b528b" d="M0 0 49.833 27.177"/>
<path transform="matrix(1,0,0,-1,195.3558,127.5582)" stroke-width=".996" stroke-linecap="butt" stroke-miterlimit="10" stroke-linejoin="miter" fill="none" stroke="#3b528b" d="M0 0-40.773 27.177"/>
<path transform="matrix(1,0,0,-1,203.0256,127.5582)" stroke-width=".996" stroke-linecap="butt" stroke-miterlimit="10" stroke-linejoin="miter" fill="none" stroke="#3b528b" d="M0 0-13.591 27.177"/>
<path transform="matrix(1,0,0,-1,210.6953,127.5582)" stroke-width=".996" stroke-linecap="butt" stroke-miterlimit="10" stroke-linejoin="miter" fill="none" stroke="#3b528b" d="M0 0 13.591 27.177"/>
<path transform="matrix(1,0,0,-1,32.944704,57.8609)" stroke-width=".996" stroke-linecap="butt" stroke-miterlimit="10" stroke-linejoin="miter" fill="none" stroke="#3b528b" d="M0 0-13.591-27.177"/>
<path transform="matrix(1,0,0,-1,40.614404,57.8609)" stroke-width=".996" stroke-linecap="butt" stroke-miterlimit="10" stroke-linejoin="miter" fill="none" stroke="#3b528b" d="M0 0 13.591-27.177"/>
<path transform="matrix(1,0,0,-1,48.284204,57.8609)" stroke-width=".996" stroke-linecap="butt" stroke-miterlimit="10" stroke-linejoin="miter" fill="none" stroke="#3b528b" d="M0 0 40.773-27.177"/>
<path transform="matrix(1,0,0,-1,79.411899,57.8609)" stroke-width=".996" stroke-linecap="butt" stroke-miterlimit="10" stroke-linejoin="miter" fill="none" stroke="#3b528b" d="M0 0-49.833-27.177"/>
<path transform="matrix(1,0,0,-1,102.4212,57.8609)" stroke-width=".996" stroke-linecap="butt" stroke-miterlimit="10" stroke-linejoin="miter" fill="none" stroke="#3b528b" d="M0 0 31.712-27.177"/>
<path transform="matrix(1,0,0,-1,108.9945,57.3517)" stroke-width=".996" stroke-linecap="butt" stroke-miterlimit="10" stroke-linejoin="miter" fill="none" stroke="#3b528b" d="M0 0 61.085-28.202"/>
<path transform="matrix(1,0,0,-1,134.6455,57.3517)" stroke-width=".996" stroke-linecap="butt" stroke-miterlimit="10" stroke-linejoin="miter" fill="none" stroke="#3b528b" d="M0 0-61.085-28.202"/>
<path transform="matrix(1,0,0,-1,148.8885,57.8609)" stroke-width=".996" stroke-linecap="butt" stroke-miterlimit="10" stroke-linejoin="miter" fill="none" stroke="#3b528b" d="M0 0-4.53-27.177"/>
<path transform="matrix(1,0,0,-1,164.2281,57.8609)" stroke-width=".996" stroke-linecap="butt" stroke-miterlimit="10" stroke-linejoin="miter" fill="none" stroke="#3b528b" d="M0 0 49.833-27.177"/>
<path transform="matrix(1,0,0,-1,191.3392,56.396104)" stroke-width=".996" stroke-linecap="butt" stroke-miterlimit="10" stroke-linejoin="miter" fill="none" stroke="#3b528b" d="M0 0-75.258-30.107"/>
<path transform="matrix(1,0,0,-1,203.0256,57.8609)" stroke-width=".996" stroke-linecap="butt" stroke-miterlimit="10" stroke-linejoin="miter" fill="none" stroke="#3b528b" d="M0 0-13.591-27.177"/>
<path transform="matrix(1,0,0,-1,210.6953,57.8609)" stroke-width=".996" stroke-linecap="butt" stroke-miterlimit="10" stroke-linejoin="miter" fill="none" stroke="#3b528b" d="M0 0 13.591-27.177"/>
<path transform="matrix(1,0,0,-1,106.4805,15.340698)" stroke-width=".996" stroke-linecap="butt" stroke-miterlimit="10" stroke-linejoin="miter" fill="none" stroke="#3b528b" d="M0 0-54.363-27.177"/>
<path transform="matrix(1,0,0,-1,116.7069,15.340698)" stroke-width=".996" stroke-linecap="butt" stroke-miterlimit="10" stroke-linejoin="miter" fill="none" stroke="#3b528b" d="M0 0-18.121-27.177"/>
<path transform="matrix(1,0,0,-1,126.9331,15.340698)" stroke-width=".996" stroke-linecap="butt" stroke-miterlimit="10" stroke-linejoin="miter" fill="none" stroke="#3b528b" d="M0 0 18.121-27.177"/>
<path transform="matrix(1,0,0,-1,137.1595,15.340698)" stroke-width=".996" stroke-linecap="butt" stroke-miterlimit="10" stroke-linejoin="miter" fill="none" stroke="#3b528b" d="M0 0 54.363-27.177"/>
</svg>
