<?xml version="1.0" encoding="UTF-8" standalone="no"?>
<svg
   version="1.1"
   viewBox="0 0 509.87399 77.590553"
   fill="none"
   stroke="none"
   stroke-linecap="square"
   stroke-miterlimit="10"
   id="svg71"
   sodipodi:docname="mlr3pipelines mlr3book graphics.svg"
   width="509.87399"
   height="77.590553"
   inkscape:version="1.1.2 (0a00cf5339, 2022-02-04)"
   xmlns:inkscape="http://www.inkscape.org/namespaces/inkscape"
   xmlns:sodipodi="http://sodipodi.sourceforge.net/DTD/sodipodi-0.dtd"
   xmlns="http://www.w3.org/2000/svg"
   xmlns:svg="http://www.w3.org/2000/svg">
  <defs
     id="defs75" />
  <sodipodi:namedview
     id="namedview73"
     pagecolor="#ffffff"
     bordercolor="#666666"
     borderopacity="1.0"
     inkscape:pageshadow="2"
     inkscape:pageopacity="0.0"
     inkscape:pagecheckerboard="0"
     showgrid="false"
     inkscape:zoom="1.3197917"
     inkscape:cx="197.75848"
     inkscape:cy="107.97159"
     inkscape:window-width="1918"
     inkscape:window-height="1198"
     inkscape:window-x="3840"
     inkscape:window-y="0"
     inkscape:window-maximized="1"
     inkscape:current-layer="svg71" />
  <clipPath
     id="g1fb832bab84_0_95.0">
    <path
       d="M 0,0 H 960 V 540 H 0 Z"
       clip-rule="nonzero"
       id="path2" />
  </clipPath>
  <path
     fill="#f3f3f3"
     d="m 1,13.59868 v 0 C 1,6.64061 6.64063,1 13.59866,1 h 482.6767 c 3.34137,0 6.5459,1.32735 8.90857,3.69006 2.36273,2.36272 3.69007,5.56723 3.69007,8.90862 v 50.39319 c 0,6.95805 -5.64063,12.59868 -12.59864,12.59868 H 13.59866 C 6.64062,76.59055 1,70.94992 1,63.99187 Z"
     fill-rule="evenodd"
     id="path7" />
  <path
     stroke="#000000"
     stroke-width="2"
     stroke-linejoin="round"
     stroke-linecap="butt"
     d="m 1,13.59868 v 0 C 1,6.64061 6.64063,1 13.59866,1 h 482.6767 c 3.34137,0 6.5459,1.32735 8.90857,3.69006 2.36273,2.36272 3.69007,5.56723 3.69007,8.90862 v 50.39319 c 0,6.95805 -5.64063,12.59868 -12.59864,12.59868 H 13.59866 C 6.64062,76.59055 1,70.94992 1,63.99187 Z"
     fill-rule="evenodd"
     id="path9" />
  <path
     fill="#d0e0e3"
     d="m 23.98427,22.81644 v 0 c 0,-4.45027 3.60764,-8.05791 8.05789,-8.05791 h 201.64801 c 2.13709,0 4.18665,0.84896 5.69776,2.36011 1.51117,1.51114 2.3601,3.5607 2.3601,5.6978 v 32.23064 c 0,4.45025 -3.6076,8.0579 -8.05786,8.0579 H 32.04216 c -4.45025,0 -8.05789,-3.60765 -8.05789,-8.0579 z"
     fill-rule="evenodd"
     id="path11" />
  <path
     stroke="#000000"
     stroke-width="2"
     stroke-linejoin="round"
     stroke-linecap="butt"
     d="m 23.98427,22.81644 v 0 c 0,-4.45027 3.60764,-8.05791 8.05789,-8.05791 h 201.64801 c 2.13709,0 4.18665,0.84896 5.69776,2.36011 1.51117,1.51114 2.3601,3.5607 2.3601,5.6978 v 32.23064 c 0,4.45025 -3.6076,8.0579 -8.05786,8.0579 H 32.04216 c -4.45025,0 -8.05789,-3.60765 -8.05789,-8.0579 z"
     fill-rule="evenodd"
     id="path13" />
  <path
     fill="#000000"
     d="m 47.2036,36.38612 q 1.54687,0 2.26562,1.10937 0.71875,1.10938 0.71875,3.10938 0,1.90625 -0.82812,3.07812 -0.82813,1.15625 -2.34375,1.15625 -1.35938,0 -2.125,-0.92187 v 3.82812 l -1.40625,0.17188 V 36.57362 h 1.21875 l 0.10937,1.09375 q 0.4375,-0.625 1.0625,-0.95313 0.625,-0.32812 1.32813,-0.32812 z m -0.53125,7.29687 q 2,0 2,-3.07812 0,-3.09375 -1.82813,-3.09375 -0.59375,0 -1.09375,0.35937 -0.48437,0.34375 -0.85937,0.89063 v 3.9375 q 0.3125,0.48437 0.76562,0.73437 0.46875,0.25 1.01563,0.25 z m 8.9487,-7.29687 q 1.70312,0 2.64062,1.14062 0.95313,1.125 0.95313,3.07813 0,1.25 -0.4375,2.21875 -0.42188,0.95312 -1.23438,1.48437 -0.8125,0.53125 -1.9375,0.53125 -1.6875,0 -2.64062,-1.125 -0.95313,-1.14062 -0.95313,-3.09375 0,-1.25 0.42188,-2.20312 0.4375,-0.96875 1.25,-1.5 0.8125,-0.53125 1.9375,-0.53125 z m 0,1.14062 q -2.09375,0 -2.09375,3.09375 0,3.07813 2.07812,3.07813 2.09375,0 2.09375,-3.09375 0,-3.07813 -2.07812,-3.07813 z m 8.82663,-5.21875 q -0.79688,1.1875 -1.26563,2.125 -0.46875,0.92188 -0.75,2.10938 -0.26562,1.17187 -0.26562,2.75 0,1.5625 0.26562,2.75 0.28125,1.17187 0.75,2.10937 0.46875,0.9375 1.26563,2.10938 l -0.89063,0.60937 q -1.01562,-1.4375 -1.5625,-2.35937 -0.54687,-0.9375 -0.92187,-2.21875 -0.375,-1.29688 -0.375,-3 0,-1.70313 0.375,-3 0.375,-1.29688 0.92187,-2.21875 0.54688,-0.9375 1.5625,-2.375 z m 5.09134,4.07813 q 1.70312,0 2.64062,1.14062 0.95313,1.125 0.95313,3.07813 0,1.25 -0.4375,2.21875 -0.42188,0.95312 -1.23438,1.48437 -0.8125,0.53125 -1.9375,0.53125 -1.6875,0 -2.64062,-1.125 -0.95313,-1.14062 -0.95313,-3.09375 0,-1.25 0.42188,-2.20312 0.4375,-0.96875 1.25,-1.5 0.8125,-0.53125 1.9375,-0.53125 z m 0,1.14062 q -2.09375,0 -2.09375,3.09375 0,3.07813 2.07812,3.07813 2.09375,0 2.09375,-3.09375 0,-3.07813 -2.07812,-3.07813 z m 9.63913,-1.14062 q 1.54687,0 2.26562,1.10937 0.71875,1.10938 0.71875,3.10938 0,1.90625 -0.82812,3.07812 -0.82813,1.15625 -2.34375,1.15625 -1.35938,0 -2.125,-0.92187 v 3.82812 L 75.4594,47.91737 V 36.57362 h 1.21875 l 0.10937,1.09375 q 0.4375,-0.625 1.0625,-0.95313 0.625,-0.32812 1.32813,-0.32812 z m -0.53125,7.29687 q 2,0 2,-3.07812 0,-3.09375 -1.82813,-3.09375 -0.59375,0 -1.09375,0.35937 -0.48437,0.34375 -0.85937,0.89063 v 3.9375 q 0.3125,0.48437 0.76562,0.73437 0.46875,0.25 1.01563,0.25 z m 8.65079,-9.28125 v 10.25 h -1.40625 v -8.75 l -2.39063,1.45313 -0.625,-1 3.17188,-1.95313 z m 3.51208,8.29688 q 0.45313,0 0.75,0.3125 0.3125,0.3125 0.3125,0.75 0,0.48437 -0.26562,1.09375 l -1.03125,2.34375 h -1.01563 l 0.625,-2.54688 q -0.20312,-0.15625 -0.32812,-0.375 -0.10938,-0.23437 -0.10938,-0.51562 0,-0.4375 0.29688,-0.75 0.3125,-0.3125 0.76562,-0.3125 z m 12.80322,0.0625 q 0,0.5 0.17188,0.73437 0.17187,0.23438 0.51562,0.35938 l -0.32812,0.98437 q -0.625,-0.0781 -1.01563,-0.34375 -0.375,-0.28125 -0.5625,-0.875 -0.8125,1.21875 -2.40625,1.21875 -1.20312,0 -1.89062,-0.67187 -0.6875,-0.6875 -0.6875,-1.76563 0,-1.29687 0.92187,-1.98437 0.9375,-0.6875 2.64063,-0.6875 h 1.23437 v -0.59375 q 0,-0.85938 -0.42187,-1.21875 -0.40625,-0.375 -1.26563,-0.375 -0.89062,0 -2.17187,0.42187 l -0.35938,-1.01562 q 1.51563,-0.5625 2.79688,-0.5625 1.42187,0 2.125,0.70312 0.70312,0.70313 0.70312,1.98438 z m -3.29687,1.01562 q 1.20312,0 1.89062,-1.25 v -1.85937 h -1.04687 q -2.25,0 -2.25,1.65625 0,0.71875 0.34375,1.09375 0.35937,0.35937 1.0625,0.35937 z m 8.94791,-9.48437 q -0.64063,0 -0.92188,0.28125 -0.28125,0.28125 -0.28125,0.875 v 1.125 h 1.96875 l -0.15625,1.09375 h -1.8125 v 6.98437 h -1.40625 v -6.98437 h -1.4375 v -1.09375 h 1.4375 v -1.10938 q 0,-1.03125 0.65625,-1.67187 0.67188,-0.64063 1.875,-0.64063 0.54688,0 0.98438,0.10938 0.4375,0.0937 0.9375,0.3125 l -0.4375,1.01562 q -0.6875,-0.29687 -1.40625,-0.29687 z m 5.13494,0 q -0.64062,0 -0.92187,0.28125 -0.28125,0.28125 -0.28125,0.875 v 1.125 h 1.96875 l -0.15625,1.09375 h -1.8125 v 6.98437 h -1.40625 v -6.98437 h -1.4375 v -1.09375 h 1.4375 v -1.10938 q 0,-1.03125 0.65625,-1.67187 0.67187,-0.64063 1.875,-0.64063 0.54687,0 0.98437,0.10938 0.4375,0.0937 0.9375,0.3125 l -0.4375,1.01562 q -0.6875,-0.29687 -1.40625,-0.29687 z m 8.34098,6.07812 q 0,0.35938 -0.0312,0.71875 h -5.15625 q 0.0937,1.34375 0.67187,1.96875 0.57813,0.625 1.5,0.625 0.59375,0 1.07813,-0.15625 0.48437,-0.17187 1.03125,-0.54687 l 0.60937,0.84375 q -1.28125,1.01562 -2.82812,1.01562 -1.67188,0 -2.625,-1.09375 -0.9375,-1.10937 -0.9375,-3.04687 0,-1.26563 0.40625,-2.23438 0.40625,-0.96875 1.15625,-1.51562 0.76562,-0.5625 1.79687,-0.5625 1.60938,0 2.46875,1.0625 0.85938,1.0625 0.85938,2.92187 z m -1.40625,-0.40625 q 0,-1.20312 -0.46875,-1.82812 -0.46875,-0.625 -1.42188,-0.625 -1.73437,0 -1.89062,2.54687 h 3.78125 z m 6.60385,-3.57812 q 0.71875,0 1.3125,0.21875 0.59375,0.20312 1.14062,0.65625 l -0.67187,0.89062 q -0.42188,-0.3125 -0.82813,-0.45312 -0.40625,-0.14063 -0.90625,-0.14063 -0.96875,0 -1.51562,0.78125 -0.54688,0.78125 -0.54688,2.3125 0,1.53125 0.53125,2.26563 0.54688,0.71875 1.53125,0.71875 0.48438,0 0.875,-0.14063 0.40625,-0.14062 0.89063,-0.46875 l 0.64062,0.92188 q -1.09375,0.89062 -2.45312,0.89062 -1.64063,0 -2.59375,-1.09375 -0.9375,-1.10937 -0.9375,-3.0625 0,-1.28125 0.42187,-2.25 0.4375,-0.96875 1.21875,-1.5 0.79688,-0.54687 1.89063,-0.54687 z m 8.45184,7.89062 q -0.79687,0.5625 -1.8125,0.5625 -1.01562,0 -1.59375,-0.59375 -0.57812,-0.59375 -0.57812,-1.70312 v -4.875 h -1.40625 v -1.09375 h 1.40625 v -1.82813 l 1.40625,-0.17187 v 2 h 1.92187 l -0.15625,1.09375 h -1.76562 v 4.8125 q 0,0.625 0.21875,0.90625 0.23437,0.28125 0.75,0.28125 0.48437,0 1.07812,-0.3125 z m 0.26785,2.54688 v -1.20313 h 7.4375 v 1.20313 z m 11.8046,-10.4375 q 0.71875,0 1.3125,0.21875 0.59375,0.20312 1.14063,0.65625 l -0.67188,0.89062 q -0.42187,-0.3125 -0.82812,-0.45312 -0.40625,-0.14063 -0.90625,-0.14063 -0.96875,0 -1.51563,0.78125 -0.54687,0.78125 -0.54687,2.3125 0,1.53125 0.53125,2.26563 0.54687,0.71875 1.53125,0.71875 0.48437,0 0.875,-0.14063 0.40625,-0.14062 0.89062,-0.46875 l 0.64063,0.92188 q -1.09375,0.89062 -2.45313,0.89062 -1.64062,0 -2.59375,-1.09375 -0.9375,-1.10937 -0.9375,-3.0625 0,-1.28125 0.42188,-2.25 0.4375,-0.96875 1.21875,-1.5 0.79687,-0.54687 1.89062,-0.54687 z m 7.0983,0 q 1.70312,0 2.64062,1.14062 0.95313,1.125 0.95313,3.07813 0,1.25 -0.4375,2.21875 -0.42188,0.95312 -1.23438,1.48437 -0.8125,0.53125 -1.9375,0.53125 -1.6875,0 -2.64062,-1.125 -0.95313,-1.14062 -0.95313,-3.09375 0,-1.25 0.42188,-2.20312 0.4375,-0.96875 1.25,-1.5 0.8125,-0.53125 1.9375,-0.53125 z m 0,1.14062 q -2.09375,0 -2.09375,3.09375 0,3.07813 2.07812,3.07813 2.09375,0 2.09375,-3.09375 0,-3.07813 -2.07812,-3.07813 z m 7.52978,7.3125 q -0.78125,0 -1.23437,-0.46875 -0.45313,-0.46875 -0.45313,-1.3125 v -9.73437 l 1.42188,-0.17188 v 9.875 q 0,0.34375 0.10937,0.5 0.10938,0.14063 0.39063,0.14063 0.29687,0 0.51562,-0.0937 l 0.375,0.98437 q -0.51562,0.28125 -1.125,0.28125 z m 8.8974,-0.1875 h -1.21875 l -0.10937,-1.25 q -0.45313,0.75 -1.0625,1.09375 -0.59375,0.34375 -1.45313,0.34375 -1.04687,0 -1.65625,-0.64062 -0.59375,-0.65625 -0.59375,-1.82813 v -5.79687 h 1.42188 v 5.64062 q 0,0.82813 0.28125,1.17188 0.29687,0.34375 0.95312,0.34375 1.1875,0 2.01563,-1.39063 v -5.76562 h 1.42187 z m 11.01474,-8.26562 q 1,0 1.59375,0.67187 0.59375,0.67188 0.59375,1.79688 v 5.79687 h -1.40625 v -5.59375 q 0,-1.5625 -1.125,-1.5625 -0.60937,0 -1.03125,0.34375 -0.40625,0.34375 -0.875,1.07813 v 5.73437 h -1.40625 v -5.59375 q 0,-1.5625 -1.14062,-1.5625 -0.60938,0 -1.03125,0.35938 -0.40625,0.34375 -0.875,1.0625 v 5.73437 h -1.40625 v -8.07812 h 1.21875 l 0.125,1.1875 q 0.89062,-1.375 2.32812,-1.375 0.75,0 1.26563,0.39062 0.53125,0.375 0.76562,1.0625 0.48438,-0.70312 1.04688,-1.07812 0.57812,-0.375 1.35937,-0.375 z m 8.82373,0 q 1.10938,0 1.73438,0.67187 0.625,0.65625 0.625,1.79688 v 5.79687 h -1.42188 v -5.59375 q 0,-0.85937 -0.32812,-1.20312 -0.3125,-0.35938 -0.9375,-0.35938 -0.64063,0 -1.14063,0.375 -0.48437,0.35938 -0.92187,1.04688 v 5.73437 h -1.40625 v -8.07812 h 1.21875 l 0.125,1.20312 q 0.42187,-0.65625 1.04687,-1.01562 0.64063,-0.375 1.40625,-0.375 z m 7.37293,0 q 0.82812,0 1.48437,0.23437 0.67188,0.23438 1.26563,0.6875 l -0.59375,0.89063 q -0.54688,-0.35938 -1.04688,-0.51563 -0.5,-0.17187 -1.0625,-0.17187 -0.6875,0 -1.09375,0.28125 -0.39062,0.28125 -0.39062,0.78125 0,0.48437 0.375,0.76562 0.375,0.26563 1.35937,0.53125 1.34375,0.34375 2.01563,0.92188 0.67187,0.57812 0.67187,1.59375 0,1.1875 -0.9375,1.82812 -0.92187,0.625 -2.25,0.625 -1.84375,0 -3.04687,-1.0625 l 0.75,-0.85937 q 1.01562,0.78125 2.26562,0.78125 0.79688,0 1.26563,-0.32813 0.46875,-0.32812 0.46875,-0.89062 0,-0.42188 -0.17188,-0.67188 -0.17187,-0.25 -0.59375,-0.4375 -0.40625,-0.20312 -1.20312,-0.40625 -1.28125,-0.34375 -1.85938,-0.90625 -0.57812,-0.57812 -0.57812,-1.45312 0,-0.625 0.375,-1.125 0.375,-0.51563 1.04687,-0.79688 0.67188,-0.29687 1.48438,-0.29687 z m 5.34576,6.3125 q 0.45313,0 0.75,0.3125 0.3125,0.3125 0.3125,0.75 0,0.45312 -0.3125,0.76562 -0.29687,0.3125 -0.75,0.3125 -0.45312,0 -0.76562,-0.3125 -0.29688,-0.3125 -0.29688,-0.76562 0,-0.4375 0.29688,-0.75 0.3125,-0.3125 0.76562,-0.3125 z m 0,-5.64063 q 0.45313,0 0.75,0.3125 0.3125,0.3125 0.3125,0.75 0,0.45313 -0.3125,0.76563 -0.29687,0.3125 -0.75,0.3125 -0.45312,0 -0.76562,-0.3125 -0.29688,-0.3125 -0.29688,-0.76563 0,-0.4375 0.29688,-0.75 0.3125,-0.3125 0.76562,-0.3125 z m 10.89697,1.89063 3.21875,5.70312 h -1.65625 l -2.4375,-4.67187 -2.46875,4.67187 h -1.5625 l 3.17188,-5.625 -2.89063,-4.9375 h 1.65625 l 2.125,3.96875 2.14063,-3.96875 h 1.5625 z m 4.79282,-7.25 q 1.01563,1.4375 1.5625,2.375 0.54688,0.92187 0.92188,2.21875 0.375,1.29687 0.375,3 0,1.70312 -0.375,3 -0.375,1.28125 -0.92188,2.21875 -0.54687,0.92187 -1.5625,2.35937 l -0.89062,-0.60937 q 0.79687,-1.17188 1.26562,-2.10938 0.46875,-0.9375 0.73438,-2.10937 0.26562,-1.1875 0.26562,-2.75 0,-1.57813 -0.26562,-2.75 -0.26563,-1.1875 -0.73438,-2.10938 -0.46875,-0.9375 -1.26562,-2.125 z"
     fill-rule="nonzero"
     id="path15" />
  <path
     fill="#d0e0e3"
     d="m 266.6846,22.81644 v 0 c 0,-4.45027 3.60767,-8.05791 8.05792,-8.05791 h 201.64801 c 2.13709,0 4.18665,0.84896 5.69776,2.36011 1.51117,1.51114 2.3601,3.5607 2.3601,5.6978 v 32.23064 c 0,4.45025 -3.6076,8.0579 -8.05786,8.0579 H 274.74252 c -4.45025,0 -8.05792,-3.60765 -8.05792,-8.0579 z"
     fill-rule="evenodd"
     id="path17" />
  <path
     stroke="#000000"
     stroke-width="2"
     stroke-linejoin="round"
     stroke-linecap="butt"
     d="m 266.6846,22.81644 v 0 c 0,-4.45027 3.60767,-8.05791 8.05792,-8.05791 h 201.64801 c 2.13709,0 4.18665,0.84896 5.69776,2.36011 1.51117,1.51114 2.3601,3.5607 2.3601,5.6978 v 32.23064 c 0,4.45025 -3.6076,8.0579 -8.05786,8.0579 H 274.74252 c -4.45025,0 -8.05792,-3.60765 -8.05792,-8.0579 z"
     fill-rule="evenodd"
     id="path19" />
  <path
     fill="#000000"
     d="m 285.36674,36.38612 q 1.54687,0 2.26562,1.10937 0.71875,1.10938 0.71875,3.10938 0,1.90625 -0.82812,3.07812 -0.82813,1.15625 -2.34375,1.15625 -1.35938,0 -2.125,-0.92187 v 3.82812 l -1.40625,0.17188 V 36.57362 h 1.21875 l 0.10937,1.09375 q 0.4375,-0.625 1.0625,-0.95313 0.625,-0.32812 1.32813,-0.32812 z m -0.53125,7.29687 q 2,0 2,-3.07812 0,-3.09375 -1.82813,-3.09375 -0.59375,0 -1.09375,0.35937 -0.48437,0.34375 -0.85937,0.89063 v 3.9375 q 0.3125,0.48437 0.76562,0.73437 0.46875,0.25 1.01563,0.25 z m 8.94873,-7.29687 q 1.70312,0 2.64062,1.14062 0.95313,1.125 0.95313,3.07813 0,1.25 -0.4375,2.21875 -0.42188,0.95312 -1.23438,1.48437 -0.8125,0.53125 -1.9375,0.53125 -1.6875,0 -2.64062,-1.125 -0.95313,-1.14062 -0.95313,-3.09375 0,-1.25 0.42188,-2.20312 0.4375,-0.96875 1.25,-1.5 0.8125,-0.53125 1.9375,-0.53125 z m 0,1.14062 q -2.09375,0 -2.09375,3.09375 0,3.07813 2.07812,3.07813 2.09375,0 2.09375,-3.09375 0,-3.07813 -2.07812,-3.07813 z m 8.8266,-5.21875 q -0.79688,1.1875 -1.26563,2.125 -0.46875,0.92188 -0.75,2.10938 -0.26562,1.17187 -0.26562,2.75 0,1.5625 0.26562,2.75 0.28125,1.17187 0.75,2.10937 0.46875,0.9375 1.26563,2.10938 l -0.89063,0.60937 q -1.01562,-1.4375 -1.5625,-2.35937 -0.54687,-0.9375 -0.92187,-2.21875 -0.375,-1.29688 -0.375,-3 0,-1.70313 0.375,-3 0.375,-1.29688 0.92187,-2.21875 0.54688,-0.9375 1.5625,-2.375 z m 5.09137,4.07813 q 1.70312,0 2.64062,1.14062 0.95313,1.125 0.95313,3.07813 0,1.25 -0.4375,2.21875 -0.42188,0.95312 -1.23438,1.48437 -0.8125,0.53125 -1.9375,0.53125 -1.6875,0 -2.64062,-1.125 -0.95313,-1.14062 -0.95313,-3.09375 0,-1.25 0.42188,-2.20312 0.4375,-0.96875 1.25,-1.5 0.8125,-0.53125 1.9375,-0.53125 z m 0,1.14062 q -2.09375,0 -2.09375,3.09375 0,3.07813 2.07812,3.07813 2.09375,0 2.09375,-3.09375 0,-3.07813 -2.07812,-3.07813 z m 9.6391,-1.14062 q 1.54687,0 2.26562,1.10937 0.71875,1.10938 0.71875,3.10938 0,1.90625 -0.82812,3.07812 -0.82813,1.15625 -2.34375,1.15625 -1.35938,0 -2.125,-0.92187 v 3.82812 l -1.40625,0.17188 V 36.57362 h 1.21875 l 0.10937,1.09375 q 0.4375,-0.625 1.0625,-0.95313 0.625,-0.32812 1.32813,-0.32812 z m -0.53125,7.29687 q 2,0 2,-3.07812 0,-3.09375 -1.82813,-3.09375 -0.59375,0 -1.09375,0.35937 -0.48437,0.34375 -0.85937,0.89063 v 3.9375 q 0.3125,0.48437 0.76562,0.73437 0.46875,0.25 1.01563,0.25 z m 7.65765,-9.4375 q 0.92188,0 1.60938,0.375 0.70312,0.35938 1.07812,1 0.39063,0.625 0.39063,1.42188 0,0.9375 -0.42188,1.79687 -0.42187,0.85938 -1.29687,1.85938 -0.875,1 -2.65625,2.76562 h 4.625 l -0.17188,1.1875 h -6.0625 v -1.125 q 2.0625,-2.125 2.92188,-3.10937 0.85937,-1 1.21875,-1.73438 0.375,-0.73437 0.375,-1.57812 0,-0.79688 -0.46875,-1.25 -0.45313,-0.45313 -1.21875,-0.45313 -0.625,0 -1.10938,0.26563 -0.46875,0.26562 -1.01562,0.85937 l -0.90625,-0.73437 q 0.625,-0.78125 1.39062,-1.15625 0.76563,-0.39063 1.71875,-0.39063 z m 5.91559,8.45313 q 0.45312,0 0.75,0.3125 0.3125,0.3125 0.3125,0.75 0,0.48437 -0.26563,1.09375 l -1.03125,2.34375 h -1.01562 l 0.625,-2.54688 q -0.20313,-0.15625 -0.32813,-0.375 -0.10937,-0.23437 -0.10937,-0.51562 0,-0.4375 0.29687,-0.75 0.3125,-0.3125 0.76563,-0.3125 z m 12.80322,0.0625 q 0,0.5 0.17188,0.73437 0.17187,0.23438 0.51562,0.35938 l -0.32812,0.98437 q -0.625,-0.0781 -1.01563,-0.34375 -0.375,-0.28125 -0.5625,-0.875 -0.8125,1.21875 -2.40625,1.21875 -1.20312,0 -1.89062,-0.67187 -0.6875,-0.6875 -0.6875,-1.76563 0,-1.29687 0.92187,-1.98437 0.9375,-0.6875 2.64063,-0.6875 h 1.23437 v -0.59375 q 0,-0.85938 -0.42187,-1.21875 -0.40625,-0.375 -1.26563,-0.375 -0.89062,0 -2.17187,0.42187 l -0.35938,-1.01562 q 1.51563,-0.5625 2.79688,-0.5625 1.42187,0 2.125,0.70312 0.70312,0.70313 0.70312,1.98438 z m -3.29687,1.01562 q 1.20312,0 1.89062,-1.25 v -1.85937 h -1.04687 q -2.25,0 -2.25,1.65625 0,0.71875 0.34375,1.09375 0.35937,0.35937 1.0625,0.35937 z m 8.94787,-9.48437 q -0.64062,0 -0.92187,0.28125 -0.28125,0.28125 -0.28125,0.875 v 1.125 h 1.96875 l -0.15625,1.09375 h -1.8125 v 6.98437 h -1.40625 v -6.98437 h -1.4375 v -1.09375 h 1.4375 v -1.10938 q 0,-1.03125 0.65625,-1.67187 0.67187,-0.64063 1.875,-0.64063 0.54687,0 0.98437,0.10938 0.4375,0.0937 0.9375,0.3125 l -0.4375,1.01562 q -0.6875,-0.29687 -1.40625,-0.29687 z m 5.13495,0 q -0.64062,0 -0.92187,0.28125 -0.28125,0.28125 -0.28125,0.875 v 1.125 h 1.96875 l -0.15625,1.09375 h -1.8125 v 6.98437 h -1.40625 v -6.98437 h -1.4375 v -1.09375 h 1.4375 v -1.10938 q 0,-1.03125 0.65625,-1.67187 0.67187,-0.64063 1.875,-0.64063 0.54687,0 0.98437,0.10938 0.4375,0.0937 0.9375,0.3125 l -0.4375,1.01562 q -0.6875,-0.29687 -1.40625,-0.29687 z m 8.34101,6.07812 q 0,0.35938 -0.0312,0.71875 h -5.15625 q 0.0937,1.34375 0.67187,1.96875 0.57813,0.625 1.5,0.625 0.59375,0 1.07813,-0.15625 0.48437,-0.17187 1.03125,-0.54687 l 0.60937,0.84375 q -1.28125,1.01562 -2.82812,1.01562 -1.67188,0 -2.625,-1.09375 -0.9375,-1.10937 -0.9375,-3.04687 0,-1.26563 0.40625,-2.23438 0.40625,-0.96875 1.15625,-1.51562 0.76562,-0.5625 1.79687,-0.5625 1.60938,0 2.46875,1.0625 0.85938,1.0625 0.85938,2.92187 z m -1.40625,-0.40625 q 0,-1.20312 -0.46875,-1.82812 -0.46875,-0.625 -1.42188,-0.625 -1.73437,0 -1.89062,2.54687 h 3.78125 z m 6.60382,-3.57812 q 0.71875,0 1.3125,0.21875 0.59375,0.20312 1.14062,0.65625 l -0.67187,0.89062 q -0.42188,-0.3125 -0.82813,-0.45312 -0.40625,-0.14063 -0.90625,-0.14063 -0.96875,0 -1.51562,0.78125 -0.54688,0.78125 -0.54688,2.3125 0,1.53125 0.53125,2.26563 0.54688,0.71875 1.53125,0.71875 0.48438,0 0.875,-0.14063 0.40625,-0.14062 0.89063,-0.46875 l 0.64062,0.92188 q -1.09375,0.89062 -2.45312,0.89062 -1.64063,0 -2.59375,-1.09375 -0.9375,-1.10937 -0.9375,-3.0625 0,-1.28125 0.42187,-2.25 0.4375,-0.96875 1.21875,-1.5 0.79688,-0.54687 1.89063,-0.54687 z m 8.45184,7.89062 q -0.79688,0.5625 -1.8125,0.5625 -1.01563,0 -1.59375,-0.59375 -0.57813,-0.59375 -0.57813,-1.70312 v -4.875 h -1.40625 v -1.09375 h 1.40625 v -1.82813 l 1.40625,-0.17187 v 2 h 1.92188 l -0.15625,1.09375 h -1.76563 v 4.8125 q 0,0.625 0.21875,0.90625 0.23438,0.28125 0.75,0.28125 0.48438,0 1.07813,-0.3125 z m 0.26788,2.54688 v -1.20313 h 7.4375 v 1.20313 z m 11.80457,-10.4375 q 0.71875,0 1.3125,0.21875 0.59375,0.20312 1.14062,0.65625 l -0.67187,0.89062 q -0.42188,-0.3125 -0.82813,-0.45312 -0.40625,-0.14063 -0.90625,-0.14063 -0.96875,0 -1.51562,0.78125 -0.54688,0.78125 -0.54688,2.3125 0,1.53125 0.53125,2.26563 0.54688,0.71875 1.53125,0.71875 0.48438,0 0.875,-0.14063 0.40625,-0.14062 0.89063,-0.46875 l 0.64062,0.92188 q -1.09375,0.89062 -2.45312,0.89062 -1.64063,0 -2.59375,-1.09375 -0.9375,-1.10937 -0.9375,-3.0625 0,-1.28125 0.42187,-2.25 0.4375,-0.96875 1.21875,-1.5 0.79688,-0.54687 1.89063,-0.54687 z m 7.09833,0 q 1.70312,0 2.64062,1.14062 0.95313,1.125 0.95313,3.07813 0,1.25 -0.4375,2.21875 -0.42188,0.95312 -1.23438,1.48437 -0.8125,0.53125 -1.9375,0.53125 -1.6875,0 -2.64062,-1.125 -0.95313,-1.14062 -0.95313,-3.09375 0,-1.25 0.42188,-2.20312 0.4375,-0.96875 1.25,-1.5 0.8125,-0.53125 1.9375,-0.53125 z m 0,1.14062 q -2.09375,0 -2.09375,3.09375 0,3.07813 2.07812,3.07813 2.09375,0 2.09375,-3.09375 0,-3.07813 -2.07812,-3.07813 z m 7.52972,7.3125 q -0.78125,0 -1.23438,-0.46875 -0.45312,-0.46875 -0.45312,-1.3125 v -9.73437 l 1.42187,-0.17188 v 9.875 q 0,0.34375 0.10938,0.5 0.10937,0.14063 0.39062,0.14063 0.29688,0 0.51563,-0.0937 l 0.375,0.98437 q -0.51563,0.28125 -1.125,0.28125 z m 8.8974,-0.1875 h -1.21875 l -0.10938,-1.25 q -0.45312,0.75 -1.0625,1.09375 -0.59375,0.34375 -1.45312,0.34375 -1.04688,0 -1.65625,-0.64062 -0.59375,-0.65625 -0.59375,-1.82813 v -5.79687 h 1.42187 v 5.64062 q 0,0.82813 0.28125,1.17188 0.29688,0.34375 0.95313,0.34375 1.1875,0 2.01562,-1.39063 v -5.76562 h 1.42188 z m 11.01477,-8.26562 q 1,0 1.59375,0.67187 0.59375,0.67188 0.59375,1.79688 v 5.79687 h -1.40625 v -5.59375 q 0,-1.5625 -1.125,-1.5625 -0.60937,0 -1.03125,0.34375 -0.40625,0.34375 -0.875,1.07813 v 5.73437 h -1.40625 v -5.59375 q 0,-1.5625 -1.14062,-1.5625 -0.60938,0 -1.03125,0.35938 -0.40625,0.34375 -0.875,1.0625 v 5.73437 h -1.40625 v -8.07812 h 1.21875 l 0.125,1.1875 q 0.89062,-1.375 2.32812,-1.375 0.75,0 1.26563,0.39062 0.53125,0.375 0.76562,1.0625 0.48438,-0.70312 1.04688,-1.07812 0.57812,-0.375 1.35937,-0.375 z m 8.82373,0 q 1.10938,0 1.73438,0.67187 0.625,0.65625 0.625,1.79688 v 5.79687 h -1.42188 v -5.59375 q 0,-0.85937 -0.32812,-1.20312 -0.3125,-0.35938 -0.9375,-0.35938 -0.64063,0 -1.14063,0.375 -0.48437,0.35938 -0.92187,1.04688 v 5.73437 h -1.40625 v -8.07812 h 1.21875 l 0.125,1.20312 q 0.42187,-0.65625 1.04687,-1.01562 0.64063,-0.375 1.40625,-0.375 z m 7.37293,0 q 0.82812,0 1.48437,0.23437 0.67188,0.23438 1.26563,0.6875 l -0.59375,0.89063 q -0.54688,-0.35938 -1.04688,-0.51563 -0.5,-0.17187 -1.0625,-0.17187 -0.6875,0 -1.09375,0.28125 -0.39062,0.28125 -0.39062,0.78125 0,0.48437 0.375,0.76562 0.375,0.26563 1.35937,0.53125 1.34375,0.34375 2.01563,0.92188 0.67187,0.57812 0.67187,1.59375 0,1.1875 -0.9375,1.82812 -0.92187,0.625 -2.25,0.625 -1.84375,0 -3.04687,-1.0625 l 0.75,-0.85937 q 1.01562,0.78125 2.26562,0.78125 0.79688,0 1.26563,-0.32813 0.46875,-0.32812 0.46875,-0.89062 0,-0.42188 -0.17188,-0.67188 -0.17187,-0.25 -0.59375,-0.4375 -0.40625,-0.20312 -1.20312,-0.40625 -1.28125,-0.34375 -1.85938,-0.90625 -0.57812,-0.57812 -0.57812,-1.45312 0,-0.625 0.375,-1.125 0.375,-0.51563 1.04687,-0.79688 0.67188,-0.29687 1.48438,-0.29687 z m 5.34576,6.3125 q 0.45312,0 0.75,0.3125 0.3125,0.3125 0.3125,0.75 0,0.45312 -0.3125,0.76562 -0.29688,0.3125 -0.75,0.3125 -0.45313,0 -0.76563,-0.3125 -0.29687,-0.3125 -0.29687,-0.76562 0,-0.4375 0.29687,-0.75 0.3125,-0.3125 0.76563,-0.3125 z m 0,-5.64063 q 0.45312,0 0.75,0.3125 0.3125,0.3125 0.3125,0.75 0,0.45313 -0.3125,0.76563 -0.29688,0.3125 -0.75,0.3125 -0.45313,0 -0.76563,-0.3125 -0.29687,-0.3125 -0.29687,-0.76563 0,-0.4375 0.29687,-0.75 0.3125,-0.3125 0.76563,-0.3125 z"
     fill-rule="nonzero"
     id="path21" />
  <path
     fill="#ff0000"
     d="m 456.7493,39.12049 v 3.375 h -1.28125 v -2.20313 h -4.48438 v -1.17187 z m 5.92969,-0.17188 3.21875,5.70313 h -1.65625 l -2.4375,-4.67188 -2.46875,4.67188 h -1.5625 l 3.17187,-5.625 -2.89062,-4.9375 h 1.65625 l 2.125,3.96875 2.14062,-3.96875 h 1.5625 z"
     fill-rule="nonzero"
     id="path23" />
  <path
     fill="#000000"
     d="m 467.47184,31.69862 q 1.01562,1.4375 1.5625,2.375 0.54687,0.92187 0.92187,2.21875 0.375,1.29687 0.375,3 0,1.70312 -0.375,3 -0.375,1.28125 -0.92187,2.21875 -0.54688,0.92187 -1.5625,2.35937 l -0.89063,-0.60937 q 0.79688,-1.17188 1.26563,-2.10938 0.46875,-0.9375 0.73437,-2.10937 0.26563,-1.1875 0.26563,-2.75 0,-1.57813 -0.26563,-2.75 -0.26562,-1.1875 -0.73437,-2.10938 -0.46875,-0.9375 -1.26563,-2.125 z"
     fill-rule="nonzero"
     id="path25" />
  <path
     fill="#eeeeee"
     d="m 267.23106,30.92546 h -13.6413 c -1.88348,0 -3.41034,3.58466 -3.41034,8.00656 0,4.42191 1.52686,8.00656 3.41034,8.00656 h 13.6413 v 0 c 1.88342,0 3.41028,-3.58465 3.41028,-8.00656 0,-4.4219 -1.52686,-8.00656 -3.41028,-8.00656 z"
     fill-rule="evenodd"
     id="path27" />
  <path
     fill="#000000"
     fill-opacity="0"
     d="m 253.58976,46.93858 c 1.88342,0 3.41028,-3.58466 3.41028,-8.00656 0,-4.42191 -1.52686,-8.00656 -3.41028,-8.00656"
     fill-rule="evenodd"
     id="path29" />
  <path
     fill="#000000"
     fill-opacity="0"
     d="m 267.23106,30.92546 h -13.6413 c -1.88348,0 -3.41034,3.58466 -3.41034,8.00656 0,4.42191 1.52686,8.00656 3.41034,8.00656 h 13.6413 v 0 c 1.88342,0 3.41028,-3.58465 3.41028,-8.00656 0,-4.4219 -1.52686,-8.00656 -3.41028,-8.00656 z"
     fill-rule="evenodd"
     id="path31" />
  <path
     stroke="#595959"
     stroke-width="1"
     stroke-linejoin="round"
     stroke-linecap="butt"
     d="m 253.58976,46.93858 c 1.88342,0 3.41028,-3.58466 3.41028,-8.00656 0,-4.42191 -1.52686,-8.00656 -3.41028,-8.00656"
     fill-rule="evenodd"
     id="path33" />
  <path
     stroke="#595959"
     stroke-width="1"
     stroke-linejoin="round"
     stroke-linecap="butt"
     d="m 267.23106,30.92546 h -13.6413 c -1.88348,0 -3.41034,3.58466 -3.41034,8.00656 0,4.42191 1.52686,8.00656 3.41034,8.00656 h 13.6413 v 0 c 1.88342,0 3.41028,-3.58465 3.41028,-8.00656 0,-4.4219 -1.52686,-8.00656 -3.41028,-8.00656 z"
     fill-rule="evenodd"
     id="path35" />
  <path
     fill="#eeeeee"
     d="m 240.5241,30.92546 h 13.6413 c 1.88348,0 3.41034,3.58466 3.41034,8.00656 0,4.42191 -1.52686,8.00656 -3.41034,8.00656 h -13.6413 v 0 c -1.88342,0 -3.41028,-3.58465 -3.41028,-8.00656 0,-4.4219 1.52686,-8.00656 3.41028,-8.00656 z"
     fill-rule="evenodd"
     id="path37" />
  <path
     fill="#000000"
     fill-opacity="0"
     d="m 254.1654,46.93858 c -1.88342,0 -3.41028,-3.58466 -3.41028,-8.00656 0,-4.42191 1.52686,-8.00656 3.41028,-8.00656"
     fill-rule="evenodd"
     id="path39" />
  <path
     fill="#000000"
     fill-opacity="0"
     d="m 240.5241,30.92546 h 13.6413 c 1.88348,0 3.41034,3.58466 3.41034,8.00656 0,4.42191 -1.52686,8.00656 -3.41034,8.00656 h -13.6413 v 0 c -1.88342,0 -3.41028,-3.58465 -3.41028,-8.00656 0,-4.4219 1.52686,-8.00656 3.41028,-8.00656 z"
     fill-rule="evenodd"
     id="path41" />
  <path
     stroke="#595959"
     stroke-width="1"
     stroke-linejoin="round"
     stroke-linecap="butt"
     d="m 254.1654,46.93858 c -1.88342,0 -3.41028,-3.58466 -3.41028,-8.00656 0,-4.42191 1.52686,-8.00656 3.41028,-8.00656"
     fill-rule="evenodd"
     id="path43" />
  <path
     stroke="#595959"
     stroke-width="1"
     stroke-linejoin="round"
     stroke-linecap="butt"
     d="m 240.5241,30.92546 h 13.6413 c 1.88348,0 3.41034,3.58466 3.41034,8.00656 0,4.42191 -1.52686,8.00656 -3.41034,8.00656 h -13.6413 v 0 c -1.88342,0 -3.41028,-3.58465 -3.41028,-8.00656 0,-4.4219 1.52686,-8.00656 3.41028,-8.00656 z"
     fill-rule="evenodd"
     id="path45" />
  <path
     fill="#efefef"
     d="M 262.6597,31.28109 H 246.53372 V 46.52518 H 262.6597 Z"
     fill-rule="evenodd"
     id="path47" />
  <path
     fill="#eeeeee"
     d="m 483.3981,31.79553 h 13.6413 c 1.88348,0 3.41034,3.58467 3.41034,8.00656 0,4.42191 -1.52686,8.00656 -3.41034,8.00656 h -13.6413 v 0 c -1.88342,0 -3.41028,-3.58465 -3.41028,-8.00656 0,-4.42189 1.52686,-8.00656 3.41028,-8.00656 z"
     fill-rule="evenodd"
     id="path49" />
  <path
     fill="#000000"
     fill-opacity="0"
     d="m 497.0394,47.80865 c -1.88348,0 -3.41034,-3.58466 -3.41034,-8.00656 0,-4.42189 1.52686,-8.00656 3.41034,-8.00656"
     fill-rule="evenodd"
     id="path51" />
  <path
     fill="#000000"
     fill-opacity="0"
     d="m 483.3981,31.79553 h 13.6413 c 1.88348,0 3.41034,3.58467 3.41034,8.00656 0,4.42191 -1.52686,8.00656 -3.41034,8.00656 h -13.6413 v 0 c -1.88342,0 -3.41028,-3.58465 -3.41028,-8.00656 0,-4.42189 1.52686,-8.00656 3.41028,-8.00656 z"
     fill-rule="evenodd"
     id="path53" />
  <path
     stroke="#595959"
     stroke-width="1"
     stroke-linejoin="round"
     stroke-linecap="butt"
     d="m 497.0394,47.80865 c -1.88348,0 -3.41034,-3.58466 -3.41034,-8.00656 0,-4.42189 1.52686,-8.00656 3.41034,-8.00656"
     fill-rule="evenodd"
     id="path55" />
  <path
     stroke="#595959"
     stroke-width="1"
     stroke-linejoin="round"
     stroke-linecap="butt"
     d="m 483.3981,31.79553 h 13.6413 c 1.88348,0 3.41034,3.58467 3.41034,8.00656 0,4.42191 -1.52686,8.00656 -3.41034,8.00656 h -13.6413 v 0 c -1.88342,0 -3.41028,-3.58465 -3.41028,-8.00656 0,-4.42189 1.52686,-8.00656 3.41028,-8.00656 z"
     fill-rule="evenodd"
     id="path57" />
  <path
     fill="#eeeeee"
     d="m 26.08854,31.79527 h -13.6413 c -1.88345,0 -3.4103,3.58466 -3.4103,8.00656 0,4.42191 1.52685,8.00656 3.4103,8.00656 h 13.6413 v 0 c 1.88348,0 3.41034,-3.58465 3.41034,-8.00656 0,-4.4219 -1.52686,-8.00656 -3.41034,-8.00656 z"
     fill-rule="evenodd"
     id="path59" />
  <path
     fill="#000000"
     fill-opacity="0"
     d="m 12.44725,47.80839 c 1.88348,0 3.41034,-3.58466 3.41034,-8.00656 0,-4.42191 -1.52686,-8.00656 -3.41034,-8.00656"
     fill-rule="evenodd"
     id="path61" />
  <path
     fill="#000000"
     fill-opacity="0"
     d="m 26.08854,31.79527 h -13.6413 c -1.88345,0 -3.4103,3.58466 -3.4103,8.00656 0,4.42191 1.52685,8.00656 3.4103,8.00656 h 13.6413 v 0 c 1.88348,0 3.41034,-3.58465 3.41034,-8.00656 0,-4.4219 -1.52686,-8.00656 -3.41034,-8.00656 z"
     fill-rule="evenodd"
     id="path63" />
  <path
     stroke="#595959"
     stroke-width="1"
     stroke-linejoin="round"
     stroke-linecap="butt"
     d="m 12.44725,47.80839 c 1.88348,0 3.41034,-3.58466 3.41034,-8.00656 0,-4.42191 -1.52686,-8.00656 -3.41034,-8.00656"
     fill-rule="evenodd"
     id="path65" />
  <path
     stroke="#595959"
     stroke-width="1"
     stroke-linejoin="round"
     stroke-linecap="butt"
     d="m 26.08854,31.79527 h -13.6413 c -1.88345,0 -3.4103,3.58466 -3.4103,8.00656 0,4.42191 1.52685,8.00656 3.4103,8.00656 h 13.6413 v 0 c 1.88348,0 3.41034,-3.58465 3.41034,-8.00656 0,-4.4219 -1.52686,-8.00656 -3.41034,-8.00656 z"
     fill-rule="evenodd"
     id="path67" />
</svg>
