<?xml version="1.0" encoding="UTF-8" standalone="no"?>
<svg
   version="1.1"
   viewBox="0 0 687.66663 231.86353"
   fill="none"
   stroke="none"
   stroke-linecap="square"
   stroke-miterlimit="10"
   id="svg277"
   sodipodi:docname="mlr3pipelines mlr3book graphics.svg"
   width="687.66663"
   height="231.86353"
   inkscape:version="1.1.2 (0a00cf5339, 2022-02-04)"
   xmlns:inkscape="http://www.inkscape.org/namespaces/inkscape"
   xmlns:sodipodi="http://sodipodi.sourceforge.net/DTD/sodipodi-0.dtd"
   xmlns="http://www.w3.org/2000/svg"
   xmlns:svg="http://www.w3.org/2000/svg">
  <defs
     id="defs281" />
  <sodipodi:namedview
     id="namedview279"
     pagecolor="#ffffff"
     bordercolor="#666666"
     borderopacity="1.0"
     inkscape:pageshadow="2"
     inkscape:pageopacity="0.0"
     inkscape:pagecheckerboard="0"
     showgrid="false"
     inkscape:zoom="0.90901"
     inkscape:cx="359.73202"
     inkscape:cy="14.851322"
     inkscape:window-width="1918"
     inkscape:window-height="1198"
     inkscape:window-x="3840"
     inkscape:window-y="0"
     inkscape:window-maximized="1"
     inkscape:current-layer="svg277" />
  <clipPath
     id="g5cc48913b2_0_12.0">
    <path
       d="M 0,0 H 960 V 540 H 0 Z"
       clip-rule="nonzero"
       id="path2" />
  </clipPath>
  <path
     fill="#f3f3f3"
     d="m 461.7808,63.56305 v 0 c 0,-13.229 10.72424,-23.95325 23.95325,-23.95325 h 177.47937 c 6.35278,0 12.44537,2.52365 16.9375,7.01575 4.49206,4.4921 7.01568,10.58472 7.01568,16.9375 v 95.81006 c 0,13.229 -10.72418,23.95325 -23.95318,23.95325 H 485.73405 c -13.22901,0 -23.95325,-10.72425 -23.95325,-23.95325 z"
     fill-rule="evenodd"
     id="path7" />
  <path
     stroke="#595959"
     stroke-width="1"
     stroke-linejoin="round"
     stroke-linecap="butt"
     d="m 461.7808,63.56305 v 0 c 0,-13.229 10.72424,-23.95325 23.95325,-23.95325 h 177.47937 c 6.35278,0 12.44537,2.52365 16.9375,7.01575 4.49206,4.4921 7.01568,10.58472 7.01568,16.9375 v 95.81006 c 0,13.229 -10.72418,23.95325 -23.95318,23.95325 H 485.73405 c -13.22901,0 -23.95325,-10.72425 -23.95325,-23.95325 z"
     fill-rule="evenodd"
     id="path9" />
  <path
     fill="#d0e0e3"
     d="m 598.67225,64.21892 v 0 c 0,-4.31689 -3.49951,-7.81644 -7.81641,-7.81644 h -31.26483 v 0 c -2.073,0 -4.06116,0.82352 -5.52704,2.28937 -1.46582,1.46588 -2.28936,3.45401 -2.28936,5.52707 v 32.71359 c 0,4.3169 3.49951,7.81644 7.8164,7.81644 h 31.26483 c 4.3169,0 7.81641,-3.49954 7.81641,-7.81644 z"
     fill-rule="evenodd"
     id="path11" />
  <path
     stroke="#000000"
     stroke-width="2"
     stroke-linejoin="round"
     stroke-linecap="butt"
     d="m 598.67225,64.21892 v 0 c 0,-4.31689 -3.49951,-7.81644 -7.81641,-7.81644 h -31.26483 v 0 c -2.073,0 -4.06116,0.82352 -5.52704,2.28937 -1.46582,1.46588 -2.28936,3.45401 -2.28936,5.52707 v 32.71359 c 0,4.3169 3.49951,7.81644 7.8164,7.81644 h 31.26483 c 4.3169,0 7.81641,-3.49954 7.81641,-7.81644 z"
     fill-rule="evenodd"
     id="path13" />
  <path
     fill="#d0e0e3"
     d="m 598.67225,131.47348 v 0 c 0,-4.31689 -3.49951,-7.81644 -7.81641,-7.81644 h -31.26477 v 0 c -2.07306,0 -4.06121,0.82352 -5.5271,2.2894 -1.46582,1.46585 -2.28936,3.45401 -2.28936,5.52704 v 32.71359 c 0,4.3169 3.49957,7.81644 7.81646,7.81644 h 31.26477 c 4.3169,0 7.81641,-3.49954 7.81641,-7.81644 z"
     fill-rule="evenodd"
     id="path15" />
  <path
     stroke="#000000"
     stroke-width="2"
     stroke-linejoin="round"
     stroke-linecap="butt"
     d="m 598.67225,131.47348 v 0 c 0,-4.31689 -3.49951,-7.81644 -7.81641,-7.81644 h -31.26477 v 0 c -2.07306,0 -4.06121,0.82352 -5.5271,2.2894 -1.46582,1.46585 -2.28936,3.45401 -2.28936,5.52704 v 32.71359 c 0,4.3169 3.49957,7.81644 7.81646,7.81644 h 31.26477 c 4.3169,0 7.81641,-3.49954 7.81641,-7.81644 z"
     fill-rule="evenodd"
     id="path17" />
  <path
     fill="#f3f3f3"
     d="m 239.14042,56.00385 v 0 c 0,-9.05417 7.33984,-16.39404 16.39401,-16.39404 h 65.57416 v 0 c 4.34796,0 8.51788,1.72723 11.59235,4.80169 3.07446,3.0745 4.8017,7.24439 4.8017,11.59235 v 110.92847 c 0,9.05417 -7.33985,16.39404 -16.39405,16.39404 h -65.57416 c -9.05417,0 -16.39401,-7.33987 -16.39401,-16.39404 z"
     fill-rule="evenodd"
     id="path19" />
  <path
     stroke="#595959"
     stroke-width="1"
     stroke-linejoin="round"
     stroke-linecap="butt"
     d="m 239.14042,56.00385 v 0 c 0,-9.05417 7.33984,-16.39404 16.39401,-16.39404 h 65.57416 v 0 c 4.34796,0 8.51788,1.72723 11.59235,4.80169 3.07446,3.0745 4.8017,7.24439 4.8017,11.59235 v 110.92847 c 0,9.05417 -7.33985,16.39404 -16.39405,16.39404 h -65.57416 c -9.05417,0 -16.39401,-7.33987 -16.39401,-16.39404 z"
     fill-rule="evenodd"
     id="path21" />
  <path
     fill="#d0e0e3"
     d="m 265.3635,62.85669 v 0 c 0,-4.31689 3.49954,-7.81644 7.81644,-7.81644 h 31.26477 v 0 c 2.07306,0 4.06118,0.82352 5.52707,2.2894 1.46585,1.46585 2.28936,3.45398 2.28936,5.52704 v 99.9577 c 0,4.31689 -3.49954,7.81641 -7.81643,7.81641 h -31.26477 c -4.3169,0 -7.81644,-3.49952 -7.81644,-7.81641 z"
     fill-rule="evenodd"
     id="path23" />
  <path
     stroke="#000000"
     stroke-width="2"
     stroke-linejoin="round"
     stroke-linecap="butt"
     d="m 265.3635,62.85669 v 0 c 0,-4.31689 3.49954,-7.81644 7.81644,-7.81644 h 31.26477 v 0 c 2.07306,0 4.06118,0.82352 5.52707,2.2894 1.46585,1.46585 2.28936,3.45398 2.28936,5.52704 v 99.9577 c 0,4.31689 -3.49954,7.81641 -7.81643,7.81641 h -31.26477 c -4.3169,0 -7.81644,-3.49952 -7.81644,-7.81641 z"
     fill-rule="evenodd"
     id="path25" />
  <path
     fill="#eeeeee"
     d="m 312.47724,103.46152 h 13.6413 c 1.88348,0 3.41034,3.58466 3.41034,8.00656 0,4.42191 -1.52686,8.00656 -3.41034,8.00656 h -13.6413 v 0 c -1.88345,0 -3.41031,-3.58465 -3.41031,-8.00656 0,-4.4219 1.52686,-8.00656 3.41031,-8.00656 z"
     fill-rule="evenodd"
     id="path27" />
  <path
     fill="#000000"
     fill-opacity="0"
     d="m 326.11854,119.47464 c -1.88345,0 -3.41031,-3.58466 -3.41031,-8.00656 0,-4.42191 1.52686,-8.00656 3.41031,-8.00656"
     fill-rule="evenodd"
     id="path29" />
  <path
     fill="#000000"
     fill-opacity="0"
     d="m 312.47724,103.46152 h 13.6413 c 1.88348,0 3.41034,3.58466 3.41034,8.00656 0,4.42191 -1.52686,8.00656 -3.41034,8.00656 h -13.6413 v 0 c -1.88345,0 -3.41031,-3.58465 -3.41031,-8.00656 0,-4.4219 1.52686,-8.00656 3.41031,-8.00656 z"
     fill-rule="evenodd"
     id="path31" />
  <path
     stroke="#595959"
     stroke-width="1"
     stroke-linejoin="round"
     stroke-linecap="butt"
     d="m 326.11854,119.47464 c -1.88345,0 -3.41031,-3.58466 -3.41031,-8.00656 0,-4.42191 1.52686,-8.00656 3.41031,-8.00656"
     fill-rule="evenodd"
     id="path33" />
  <path
     stroke="#595959"
     stroke-width="1"
     stroke-linejoin="round"
     stroke-linecap="butt"
     d="m 312.47724,103.46152 h 13.6413 c 1.88348,0 3.41034,3.58466 3.41034,8.00656 0,4.42191 -1.52686,8.00656 -3.41034,8.00656 h -13.6413 v 0 c -1.88345,0 -3.41031,-3.58465 -3.41031,-8.00656 0,-4.4219 1.52686,-8.00656 3.41031,-8.00656 z"
     fill-rule="evenodd"
     id="path35" />
  <path
     fill="#eeeeee"
     d="m 267.7012,138.46152 h -13.6413 c -1.88345,0 -3.4103,3.58466 -3.4103,8.00656 0,4.42191 1.52685,8.00656 3.4103,8.00656 h 13.6413 v 0 c 1.88348,0 3.41034,-3.58465 3.41034,-8.00656 0,-4.4219 -1.52686,-8.00656 -3.41034,-8.00656 z"
     fill-rule="evenodd"
     id="path37" />
  <path
     fill="#000000"
     fill-opacity="0"
     d="m 254.0599,154.47464 c 1.88348,0 3.41034,-3.58466 3.41034,-8.00656 0,-4.42191 -1.52686,-8.00656 -3.41034,-8.00656"
     fill-rule="evenodd"
     id="path39" />
  <path
     fill="#000000"
     fill-opacity="0"
     d="m 267.7012,138.46152 h -13.6413 c -1.88345,0 -3.4103,3.58466 -3.4103,8.00656 0,4.42191 1.52685,8.00656 3.4103,8.00656 h 13.6413 v 0 c 1.88348,0 3.41034,-3.58465 3.41034,-8.00656 0,-4.4219 -1.52686,-8.00656 -3.41034,-8.00656 z"
     fill-rule="evenodd"
     id="path41" />
  <path
     stroke="#595959"
     stroke-width="1"
     stroke-linejoin="round"
     stroke-linecap="butt"
     d="m 254.0599,154.47464 c 1.88348,0 3.41034,-3.58466 3.41034,-8.00656 0,-4.42191 -1.52686,-8.00656 -3.41034,-8.00656"
     fill-rule="evenodd"
     id="path43" />
  <path
     stroke="#595959"
     stroke-width="1"
     stroke-linejoin="round"
     stroke-linecap="butt"
     d="m 267.7012,138.46152 h -13.6413 c -1.88345,0 -3.4103,3.58466 -3.4103,8.00656 0,4.42191 1.52685,8.00656 3.4103,8.00656 h 13.6413 v 0 c 1.88348,0 3.41034,-3.58465 3.41034,-8.00656 0,-4.4219 -1.52686,-8.00656 -3.41034,-8.00656 z"
     fill-rule="evenodd"
     id="path45" />
  <path
     fill="#eeeeee"
     d="m 267.7012,71.20692 h -13.6413 c -1.88345,0 -3.4103,3.58469 -3.4103,8.00656 0,4.42191 1.52685,8.00656 3.4103,8.00656 h 13.6413 v 0 c 1.88348,0 3.41034,-3.58465 3.41034,-8.00656 0,-4.42187 -1.52686,-8.00656 -3.41034,-8.00656 z"
     fill-rule="evenodd"
     id="path47" />
  <path
     fill="#000000"
     fill-opacity="0"
     d="m 254.0599,87.22002 c 1.88348,0 3.41034,-3.58466 3.41034,-8.00656 0,-4.42188 -1.52686,-8.00656 -3.41034,-8.00656"
     fill-rule="evenodd"
     id="path49" />
  <path
     fill="#000000"
     fill-opacity="0"
     d="m 267.7012,71.20692 h -13.6413 c -1.88345,0 -3.4103,3.58469 -3.4103,8.00656 0,4.42191 1.52685,8.00656 3.4103,8.00656 h 13.6413 v 0 c 1.88348,0 3.41034,-3.58465 3.41034,-8.00656 0,-4.42187 -1.52686,-8.00656 -3.41034,-8.00656 z"
     fill-rule="evenodd"
     id="path51" />
  <path
     stroke="#595959"
     stroke-width="1"
     stroke-linejoin="round"
     stroke-linecap="butt"
     d="m 254.0599,87.22002 c 1.88348,0 3.41034,-3.58466 3.41034,-8.00656 0,-4.42188 -1.52686,-8.00656 -3.41034,-8.00656"
     fill-rule="evenodd"
     id="path53" />
  <path
     stroke="#595959"
     stroke-width="1"
     stroke-linejoin="round"
     stroke-linecap="butt"
     d="m 267.7012,71.20692 h -13.6413 c -1.88345,0 -3.4103,3.58469 -3.4103,8.00656 0,4.42191 1.52685,8.00656 3.4103,8.00656 h 13.6413 v 0 c 1.88348,0 3.41034,-3.58465 3.41034,-8.00656 0,-4.42187 -1.52686,-8.00656 -3.41034,-8.00656 z"
     fill-rule="evenodd"
     id="path55" />
  <path
     fill="#000000"
     fill-opacity="0"
     d="m 154.28455,97.83029 h 96.6929 v 27.27557 h -96.6929 z"
     fill-rule="evenodd"
     id="path57" />
  <path
     fill="#000000"
     d="m 177.98734,112.50809 q -1.01563,0 -1.82813,-0.48438 -0.8125,-0.5 -1.28125,-1.42187 -0.45312,-0.92188 -0.45312,-2.14063 0,-1.875 1.01562,-2.9375 1.03125,-1.07812 2.54688,-1.07812 1.53125,0 2.53125,1.07812 1.01562,1.0625 1.01562,2.9375 0,1.21875 -0.45312,2.14063 -0.45313,0.92187 -1.28125,1.42187 -0.8125,0.48438 -1.8125,0.48438 z m 0,-1.89063 q 0.45312,0 0.79687,-0.46875 0.35938,-0.46875 0.35938,-1.6875 0,-1.21875 -0.35938,-1.65625 -0.34375,-0.45312 -0.79687,-0.45312 -0.4375,0 -0.79688,0.45312 -0.35937,0.4375 -0.35937,1.65625 0,1.21875 0.35937,1.6875 0.35938,0.46875 0.79688,0.46875 z m -1.92188,8.71875 -1.79687,-1.75 4.46875,-4.15625 1.21875,1.125 z m 7.32813,-8.375 -1.23438,-1.15625 3.89063,-4.76562 1.79687,1.75 z m 0.6875,9.32813 q -1.01563,0 -1.82813,-0.48438 -0.8125,-0.5 -1.28125,-1.42187 -0.45312,-0.92188 -0.45312,-2.14063 0,-1.875 1.01562,-2.9375 1.03125,-1.07812 2.54688,-1.07812 1.53125,0 2.53125,1.07812 1.01562,1.0625 1.01562,2.9375 0,1.21875 -0.45312,2.14063 -0.45313,0.92187 -1.28125,1.42187 -0.8125,0.48438 -1.8125,0.48438 z m 0,-1.89063 q 0.45312,0 0.79687,-0.46875 0.35938,-0.46875 0.35938,-1.6875 0,-1.21875 -0.35938,-1.65625 -0.34375,-0.45312 -0.79687,-0.45312 -0.4375,0 -0.79688,0.45312 -0.35937,0.4375 -0.35937,1.65625 0,1.21875 0.35937,1.6875 0.35938,0.46875 0.79688,0.46875 z m 6.50934,0.85938 v -3.1875 l 6.35937,-3.98438 v -0.0937 l -6.35937,-3.98437 v -3.1875 l 9.25,6 v 2.4375 z m 14.39996,0 v -3.1875 l 6.35938,-3.98438 v -0.0937 l -6.35938,-3.98437 v -3.1875 l 9.25,6 v 2.4375 z m 16.19684,-6.75 q -1.01563,0 -1.82813,-0.48438 -0.8125,-0.5 -1.28125,-1.42187 -0.45312,-0.92188 -0.45312,-2.14063 0,-1.875 1.01562,-2.9375 1.03125,-1.07812 2.54688,-1.07812 1.53125,0 2.53125,1.07812 1.01562,1.0625 1.01562,2.9375 0,1.21875 -0.45312,2.14063 -0.45313,0.92187 -1.28125,1.42187 -0.8125,0.48438 -1.8125,0.48438 z m 0,-1.89063 q 0.45312,0 0.79687,-0.46875 0.35938,-0.46875 0.35938,-1.6875 0,-1.21875 -0.35938,-1.65625 -0.34375,-0.45312 -0.79687,-0.45312 -0.4375,0 -0.79688,0.45312 -0.35937,0.4375 -0.35937,1.65625 0,1.21875 0.35937,1.6875 0.35938,0.46875 0.79688,0.46875 z m -1.92188,8.71875 -1.79687,-1.75 4.46875,-4.15625 1.21875,1.125 z m 7.32813,-8.375 -1.23438,-1.15625 3.89063,-4.76562 1.79687,1.75 z m 0.6875,9.32813 q -1.01563,0 -1.82813,-0.48438 -0.8125,-0.5 -1.28125,-1.42187 -0.45312,-0.92188 -0.45312,-2.14063 0,-1.875 1.01562,-2.9375 1.03125,-1.07812 2.54688,-1.07812 1.53125,0 2.53125,1.07812 1.01562,1.0625 1.01562,2.9375 0,1.21875 -0.45312,2.14063 -0.45313,0.92187 -1.28125,1.42187 -0.8125,0.48438 -1.8125,0.48438 z m 0,-1.89063 q 0.45312,0 0.79687,-0.46875 0.35938,-0.46875 0.35938,-1.6875 0,-1.21875 -0.35938,-1.65625 -0.34375,-0.45312 -0.79687,-0.45312 -0.4375,0 -0.79688,0.45312 -0.35937,0.4375 -0.35937,1.65625 0,1.21875 0.35937,1.6875 0.35938,0.46875 0.79688,0.46875 z"
     fill-rule="nonzero"
     id="path59" />
  <path
     fill="#efefef"
     d="M 407.38843,142.70692 V 128.45497 H 377.34119 V 99.95103 h 30.04724 V 85.69905 l 28.50397,28.50393 z"
     fill-rule="evenodd"
     id="path61" />
  <path
     stroke="#cccccc"
     stroke-width="1"
     stroke-linejoin="round"
     stroke-linecap="butt"
     d="M 407.38843,142.70692 V 128.45497 H 377.34119 V 99.95103 h 30.04724 V 85.69905 l 28.50397,28.50393 z"
     fill-rule="evenodd"
     id="path63" />
  <path
     fill="#eeeeee"
     d="m 593.8237,71.20692 h 13.6413 c 1.88348,0 3.41034,3.58469 3.41034,8.00656 0,4.42191 -1.52686,8.00656 -3.41034,8.00656 h -13.6413 v 0 c -1.88342,0 -3.41028,-3.58465 -3.41028,-8.00656 0,-4.42187 1.52686,-8.00656 3.41028,-8.00656 z"
     fill-rule="evenodd"
     id="path65" />
  <path
     fill="#000000"
     fill-opacity="0"
     d="m 607.465,87.22002 c -1.88342,0 -3.41028,-3.58466 -3.41028,-8.00656 0,-4.42188 1.52686,-8.00656 3.41028,-8.00656"
     fill-rule="evenodd"
     id="path67" />
  <path
     fill="#000000"
     fill-opacity="0"
     d="m 593.8237,71.20692 h 13.6413 c 1.88348,0 3.41034,3.58469 3.41034,8.00656 0,4.42191 -1.52686,8.00656 -3.41034,8.00656 h -13.6413 v 0 c -1.88342,0 -3.41028,-3.58465 -3.41028,-8.00656 0,-4.42187 1.52686,-8.00656 3.41028,-8.00656 z"
     fill-rule="evenodd"
     id="path69" />
  <path
     stroke="#595959"
     stroke-width="1"
     stroke-linejoin="round"
     stroke-linecap="butt"
     d="m 607.465,87.22002 c -1.88342,0 -3.41028,-3.58466 -3.41028,-8.00656 0,-4.42188 1.52686,-8.00656 3.41028,-8.00656"
     fill-rule="evenodd"
     id="path71" />
  <path
     stroke="#595959"
     stroke-width="1"
     stroke-linejoin="round"
     stroke-linecap="butt"
     d="m 593.8237,71.20692 h 13.6413 c 1.88348,0 3.41034,3.58469 3.41034,8.00656 0,4.42191 -1.52686,8.00656 -3.41034,8.00656 h -13.6413 v 0 c -1.88342,0 -3.41028,-3.58465 -3.41028,-8.00656 0,-4.42187 1.52686,-8.00656 3.41028,-8.00656 z"
     fill-rule="evenodd"
     id="path73" />
  <path
     fill="#d0e0e3"
     d="m 618.19294,62.85669 v 0 c 0,-4.31689 3.49951,-7.81644 7.81641,-7.81644 h 31.26477 v 0 c 2.07306,0 4.06121,0.82352 5.52703,2.2894 1.46589,1.46585 2.28937,3.45398 2.28937,5.52704 v 99.9577 c 0,4.31689 -3.49951,7.81641 -7.8164,7.81641 h -31.26477 c -4.3169,0 -7.81641,-3.49952 -7.81641,-7.81641 z"
     fill-rule="evenodd"
     id="path75" />
  <path
     stroke="#000000"
     stroke-width="2"
     stroke-linejoin="round"
     stroke-linecap="butt"
     d="m 618.19294,62.85669 v 0 c 0,-4.31689 3.49951,-7.81644 7.81641,-7.81644 h 31.26477 v 0 c 2.07306,0 4.06121,0.82352 5.52703,2.2894 1.46589,1.46585 2.28937,3.45398 2.28937,5.52704 v 99.9577 c 0,4.31689 -3.49951,7.81641 -7.8164,7.81641 h -31.26477 c -4.3169,0 -7.81641,-3.49952 -7.81641,-7.81641 z"
     fill-rule="evenodd"
     id="path77" />
  <path
     fill="#eeeeee"
     d="m 663.12556,104.82898 h 13.6413 c 1.88348,0 3.41027,3.58466 3.41027,8.00656 0,4.42191 -1.52679,8.00656 -3.41027,8.00656 h -13.6413 v 0 c -1.88348,0 -3.41034,-3.58465 -3.41034,-8.00656 0,-4.4219 1.52686,-8.00656 3.41034,-8.00656 z"
     fill-rule="evenodd"
     id="path79" />
  <path
     fill="#000000"
     fill-opacity="0"
     d="m 676.76685,120.8421 c -1.88348,0 -3.41034,-3.58466 -3.41034,-8.00656 0,-4.42191 1.52686,-8.00656 3.41034,-8.00656"
     fill-rule="evenodd"
     id="path81" />
  <path
     fill="#000000"
     fill-opacity="0"
     d="m 663.12556,104.82898 h 13.6413 c 1.88348,0 3.41027,3.58466 3.41027,8.00656 0,4.42191 -1.52679,8.00656 -3.41027,8.00656 h -13.6413 v 0 c -1.88348,0 -3.41034,-3.58465 -3.41034,-8.00656 0,-4.4219 1.52686,-8.00656 3.41034,-8.00656 z"
     fill-rule="evenodd"
     id="path83" />
  <path
     stroke="#595959"
     stroke-width="1"
     stroke-linejoin="round"
     stroke-linecap="butt"
     d="m 676.76685,120.8421 c -1.88348,0 -3.41034,-3.58466 -3.41034,-8.00656 0,-4.42191 1.52686,-8.00656 3.41034,-8.00656"
     fill-rule="evenodd"
     id="path85" />
  <path
     stroke="#595959"
     stroke-width="1"
     stroke-linejoin="round"
     stroke-linecap="butt"
     d="m 663.12556,104.82898 h 13.6413 c 1.88348,0 3.41027,3.58466 3.41027,8.00656 0,4.42191 -1.52679,8.00656 -3.41027,8.00656 h -13.6413 v 0 c -1.88348,0 -3.41034,-3.58465 -3.41034,-8.00656 0,-4.4219 1.52686,-8.00656 3.41034,-8.00656 z"
     fill-rule="evenodd"
     id="path87" />
  <path
     fill="#eeeeee"
     d="m 620.53065,71.20692 h -13.6413 c -1.88348,0 -3.41034,3.58469 -3.41034,8.00656 0,4.42191 1.52686,8.00656 3.41034,8.00656 h 13.6413 v 0 c 1.88342,0 3.41028,-3.58465 3.41028,-8.00656 0,-4.42187 -1.52686,-8.00656 -3.41028,-8.00656 z"
     fill-rule="evenodd"
     id="path89" />
  <path
     fill="#000000"
     fill-opacity="0"
     d="m 606.88935,87.22002 c 1.88342,0 3.41028,-3.58466 3.41028,-8.00656 0,-4.42188 -1.52686,-8.00656 -3.41028,-8.00656"
     fill-rule="evenodd"
     id="path91" />
  <path
     fill="#000000"
     fill-opacity="0"
     d="m 620.53065,71.20692 h -13.6413 c -1.88348,0 -3.41034,3.58469 -3.41034,8.00656 0,4.42191 1.52686,8.00656 3.41034,8.00656 h 13.6413 v 0 c 1.88342,0 3.41028,-3.58465 3.41028,-8.00656 0,-4.42187 -1.52686,-8.00656 -3.41028,-8.00656 z"
     fill-rule="evenodd"
     id="path93" />
  <path
     stroke="#595959"
     stroke-width="1"
     stroke-linejoin="round"
     stroke-linecap="butt"
     d="m 606.88935,87.22002 c 1.88342,0 3.41028,-3.58466 3.41028,-8.00656 0,-4.42188 -1.52686,-8.00656 -3.41028,-8.00656"
     fill-rule="evenodd"
     id="path95" />
  <path
     stroke="#595959"
     stroke-width="1"
     stroke-linejoin="round"
     stroke-linecap="butt"
     d="m 620.53065,71.20692 h -13.6413 c -1.88348,0 -3.41034,3.58469 -3.41034,8.00656 0,4.42191 1.52686,8.00656 3.41034,8.00656 h 13.6413 v 0 c 1.88342,0 3.41028,-3.58465 3.41028,-8.00656 0,-4.42187 -1.52686,-8.00656 -3.41028,-8.00656 z"
     fill-rule="evenodd"
     id="path97" />
  <path
     fill="#efefef"
     d="m 598.395,71.56256 h 16.12598 V 86.80667 H 598.395 Z"
     fill-rule="evenodd"
     id="path99" />
  <path
     fill="#eeeeee"
     d="m 594.34864,138.46152 h 13.6413 c 1.88348,0 3.41034,3.58466 3.41034,8.00656 0,4.42191 -1.52686,8.00656 -3.41034,8.00656 h -13.6413 v 0 c -1.88348,0 -3.41034,-3.58465 -3.41034,-8.00656 0,-4.4219 1.52686,-8.00656 3.41034,-8.00656 z"
     fill-rule="evenodd"
     id="path101" />
  <path
     fill="#000000"
     fill-opacity="0"
     d="m 607.98994,154.47464 c -1.88348,0 -3.41034,-3.58466 -3.41034,-8.00656 0,-4.42191 1.52686,-8.00656 3.41034,-8.00656"
     fill-rule="evenodd"
     id="path103" />
  <path
     fill="#000000"
     fill-opacity="0"
     d="m 594.34864,138.46152 h 13.6413 c 1.88348,0 3.41034,3.58466 3.41034,8.00656 0,4.42191 -1.52686,8.00656 -3.41034,8.00656 h -13.6413 v 0 c -1.88348,0 -3.41034,-3.58465 -3.41034,-8.00656 0,-4.4219 1.52686,-8.00656 3.41034,-8.00656 z"
     fill-rule="evenodd"
     id="path105" />
  <path
     stroke="#595959"
     stroke-width="1"
     stroke-linejoin="round"
     stroke-linecap="butt"
     d="m 607.98994,154.47464 c -1.88348,0 -3.41034,-3.58466 -3.41034,-8.00656 0,-4.42191 1.52686,-8.00656 3.41034,-8.00656"
     fill-rule="evenodd"
     id="path107" />
  <path
     stroke="#595959"
     stroke-width="1"
     stroke-linejoin="round"
     stroke-linecap="butt"
     d="m 594.34864,138.46152 h 13.6413 c 1.88348,0 3.41034,3.58466 3.41034,8.00656 0,4.42191 -1.52686,8.00656 -3.41034,8.00656 h -13.6413 v 0 c -1.88348,0 -3.41034,-3.58465 -3.41034,-8.00656 0,-4.4219 1.52686,-8.00656 3.41034,-8.00656 z"
     fill-rule="evenodd"
     id="path109" />
  <path
     fill="#eeeeee"
     d="m 621.05555,138.46152 h -13.6413 c -1.88348,0 -3.41034,3.58466 -3.41034,8.00656 0,4.42191 1.52686,8.00656 3.41034,8.00656 h 13.6413 v 0 c 1.88348,0 3.41034,-3.58465 3.41034,-8.00656 0,-4.4219 -1.52686,-8.00656 -3.41034,-8.00656 z"
     fill-rule="evenodd"
     id="path111" />
  <path
     fill="#000000"
     fill-opacity="0"
     d="m 607.41425,154.47464 c 1.88348,0 3.41034,-3.58466 3.41034,-8.00656 0,-4.42191 -1.52686,-8.00656 -3.41034,-8.00656"
     fill-rule="evenodd"
     id="path113" />
  <path
     fill="#000000"
     fill-opacity="0"
     d="m 621.05555,138.46152 h -13.6413 c -1.88348,0 -3.41034,3.58466 -3.41034,8.00656 0,4.42191 1.52686,8.00656 3.41034,8.00656 h 13.6413 v 0 c 1.88348,0 3.41034,-3.58465 3.41034,-8.00656 0,-4.4219 -1.52686,-8.00656 -3.41034,-8.00656 z"
     fill-rule="evenodd"
     id="path115" />
  <path
     stroke="#595959"
     stroke-width="1"
     stroke-linejoin="round"
     stroke-linecap="butt"
     d="m 607.41425,154.47464 c 1.88348,0 3.41034,-3.58466 3.41034,-8.00656 0,-4.42191 -1.52686,-8.00656 -3.41034,-8.00656"
     fill-rule="evenodd"
     id="path117" />
  <path
     stroke="#595959"
     stroke-width="1"
     stroke-linejoin="round"
     stroke-linecap="butt"
     d="m 621.05555,138.46152 h -13.6413 c -1.88348,0 -3.41034,3.58466 -3.41034,8.00656 0,4.42191 1.52686,8.00656 3.41034,8.00656 h 13.6413 v 0 c 1.88348,0 3.41034,-3.58465 3.41034,-8.00656 0,-4.4219 -1.52686,-8.00656 -3.41034,-8.00656 z"
     fill-rule="evenodd"
     id="path119" />
  <path
     fill="#efefef"
     d="m 598.9199,138.81717 h 16.12598 v 15.24408 H 598.9199 Z"
     fill-rule="evenodd"
     id="path121" />
  <path
     fill="#f3f3f3"
     d="m 160.81495,63.56305 v 0 c 0,-13.229 -10.72421,-23.95325 -23.95322,-23.95325 H 24.45324 c -6.3528,0 -12.4454,2.52365 -16.9375,7.01575 C 3.02363,51.11765 0.5,57.21027 0.5,63.56305 v 95.81006 c 0,13.229 10.72422,23.95325 23.95324,23.95325 h 112.40849 c 13.22901,0 23.95322,-10.72425 23.95322,-23.95325 z"
     fill-rule="evenodd"
     id="path123" />
  <path
     stroke="#595959"
     stroke-width="1"
     stroke-linejoin="round"
     stroke-linecap="butt"
     d="m 160.81495,63.56305 v 0 c 0,-13.229 -10.72421,-23.95325 -23.95322,-23.95325 H 24.45324 c -6.3528,0 -12.4454,2.52365 -16.9375,7.01575 C 3.02363,51.11765 0.5,57.21027 0.5,63.56305 v 95.81006 c 0,13.229 10.72422,23.95325 23.95324,23.95325 h 112.40849 c 13.22901,0 23.95322,-10.72425 23.95322,-23.95325 z"
     fill-rule="evenodd"
     id="path125" />
  <path
     fill="#d0e0e3"
     d="m 136.9544,62.85669 v 0 c 0,-4.31689 -3.49954,-7.81644 -7.81644,-7.81644 h -31.2648 v 0 c -2.07303,0 -4.06115,0.82352 -5.52704,2.2894 -1.46585,1.46585 -2.28936,3.45398 -2.28936,5.52704 v 32.71359 c 0,4.3169 3.49951,7.81644 7.8164,7.81644 h 31.2648 c 4.3169,0 7.81644,-3.49954 7.81644,-7.81644 z"
     fill-rule="evenodd"
     id="path127" />
  <path
     stroke="#000000"
     stroke-width="2"
     stroke-linejoin="round"
     stroke-linecap="butt"
     d="m 136.9544,62.85669 v 0 c 0,-4.31689 -3.49954,-7.81644 -7.81644,-7.81644 h -31.2648 v 0 c -2.07303,0 -4.06115,0.82352 -5.52704,2.2894 -1.46585,1.46585 -2.28936,3.45398 -2.28936,5.52704 v 32.71359 c 0,4.3169 3.49951,7.81644 7.8164,7.81644 h 31.2648 c 4.3169,0 7.81644,-3.49954 7.81644,-7.81644 z"
     fill-rule="evenodd"
     id="path129" />
  <path
     fill="#eeeeee"
     d="m 92.39414,71.20692 h -13.6413 c -1.88348,0 -3.41034,3.58469 -3.41034,8.00656 0,4.42191 1.52686,8.00656 3.41034,8.00656 h 13.6413 v 0 c 1.88345,0 3.41031,-3.58465 3.41031,-8.00656 0,-4.42187 -1.52686,-8.00656 -3.41031,-8.00656 z"
     fill-rule="evenodd"
     id="path131" />
  <path
     fill="#000000"
     fill-opacity="0"
     d="m 78.75284,87.22002 c 1.88345,0 3.41031,-3.58466 3.41031,-8.00656 0,-4.42188 -1.52686,-8.00656 -3.41031,-8.00656"
     fill-rule="evenodd"
     id="path133" />
  <path
     fill="#000000"
     fill-opacity="0"
     d="m 92.39414,71.20692 h -13.6413 c -1.88348,0 -3.41034,3.58469 -3.41034,8.00656 0,4.42191 1.52686,8.00656 3.41034,8.00656 h 13.6413 v 0 c 1.88345,0 3.41031,-3.58465 3.41031,-8.00656 0,-4.42187 -1.52686,-8.00656 -3.41031,-8.00656 z"
     fill-rule="evenodd"
     id="path135" />
  <path
     stroke="#595959"
     stroke-width="1"
     stroke-linejoin="round"
     stroke-linecap="butt"
     d="m 78.75284,87.22002 c 1.88345,0 3.41031,-3.58466 3.41031,-8.00656 0,-4.42188 -1.52686,-8.00656 -3.41031,-8.00656"
     fill-rule="evenodd"
     id="path137" />
  <path
     stroke="#595959"
     stroke-width="1"
     stroke-linejoin="round"
     stroke-linecap="butt"
     d="m 92.39414,71.20692 h -13.6413 c -1.88348,0 -3.41034,3.58469 -3.41034,8.00656 0,4.42191 1.52686,8.00656 3.41034,8.00656 h 13.6413 v 0 c 1.88345,0 3.41031,-3.58465 3.41031,-8.00656 0,-4.42187 -1.52686,-8.00656 -3.41031,-8.00656 z"
     fill-rule="evenodd"
     id="path139" />
  <path
     fill="#eeeeee"
     d="m 135.25678,69.83422 h 13.6413 c 1.88345,0 3.4103,3.58466 3.4103,8.00656 0,4.42191 -1.52685,8.00656 -3.4103,8.00656 h -13.6413 v 0 c -1.88348,0 -3.41034,-3.58465 -3.41034,-8.00656 0,-4.4219 1.52686,-8.00656 3.41034,-8.00656 z"
     fill-rule="evenodd"
     id="path141" />
  <path
     fill="#000000"
     fill-opacity="0"
     d="m 148.89808,85.84735 c -1.88348,0 -3.41034,-3.58466 -3.41034,-8.00656 0,-4.42191 1.52686,-8.00656 3.41034,-8.00656"
     fill-rule="evenodd"
     id="path143" />
  <path
     fill="#000000"
     fill-opacity="0"
     d="m 135.25678,69.83422 h 13.6413 c 1.88345,0 3.4103,3.58466 3.4103,8.00656 0,4.42191 -1.52685,8.00656 -3.4103,8.00656 h -13.6413 v 0 c -1.88348,0 -3.41034,-3.58465 -3.41034,-8.00656 0,-4.4219 1.52686,-8.00656 3.41034,-8.00656 z"
     fill-rule="evenodd"
     id="path145" />
  <path
     stroke="#595959"
     stroke-width="1"
     stroke-linejoin="round"
     stroke-linecap="butt"
     d="m 148.89808,85.84735 c -1.88348,0 -3.41034,-3.58466 -3.41034,-8.00656 0,-4.42191 1.52686,-8.00656 3.41034,-8.00656"
     fill-rule="evenodd"
     id="path147" />
  <path
     stroke="#595959"
     stroke-width="1"
     stroke-linejoin="round"
     stroke-linecap="butt"
     d="m 135.25678,69.83422 h 13.6413 c 1.88345,0 3.4103,3.58466 3.4103,8.00656 0,4.42191 -1.52685,8.00656 -3.4103,8.00656 h -13.6413 v 0 c -1.88348,0 -3.41034,-3.58465 -3.41034,-8.00656 0,-4.4219 1.52686,-8.00656 3.41034,-8.00656 z"
     fill-rule="evenodd"
     id="path149" />
  <path
     fill="#d0e0e3"
     d="m 136.9544,130.11127 v 0 c 0,-4.31689 -3.49954,-7.81641 -7.81644,-7.81641 H 97.87319 v 0 c -2.07306,0 -4.06118,0.82352 -5.52707,2.28937 -1.46585,1.46588 -2.28936,3.45401 -2.28936,5.52704 v 32.71362 c 0,4.3169 3.49954,7.81641 7.81643,7.81641 h 31.26477 c 4.3169,0 7.81644,-3.49951 7.81644,-7.81641 z"
     fill-rule="evenodd"
     id="path151" />
  <path
     stroke="#000000"
     stroke-width="2"
     stroke-linejoin="round"
     stroke-linecap="butt"
     d="m 136.9544,130.11127 v 0 c 0,-4.31689 -3.49954,-7.81641 -7.81644,-7.81641 H 97.87319 v 0 c -2.07306,0 -4.06118,0.82352 -5.52707,2.28937 -1.46585,1.46588 -2.28936,3.45401 -2.28936,5.52704 v 32.71362 c 0,4.3169 3.49954,7.81641 7.81643,7.81641 h 31.26477 c 4.3169,0 7.81644,-3.49951 7.81644,-7.81641 z"
     fill-rule="evenodd"
     id="path153" />
  <path
     fill="#eeeeee"
     d="m 135.25678,137.08882 h 13.6413 c 1.88345,0 3.4103,3.58466 3.4103,8.00656 0,4.42191 -1.52685,8.00656 -3.4103,8.00656 h -13.6413 v 0 c -1.88348,0 -3.41034,-3.58465 -3.41034,-8.00656 0,-4.4219 1.52686,-8.00656 3.41034,-8.00656 z"
     fill-rule="evenodd"
     id="path155" />
  <path
     fill="#000000"
     fill-opacity="0"
     d="m 148.89808,153.10192 c -1.88348,0 -3.41034,-3.58466 -3.41034,-8.00656 0,-4.42191 1.52686,-8.00656 3.41034,-8.00656"
     fill-rule="evenodd"
     id="path157" />
  <path
     fill="#000000"
     fill-opacity="0"
     d="m 135.25678,137.08882 h 13.6413 c 1.88345,0 3.4103,3.58466 3.4103,8.00656 0,4.42191 -1.52685,8.00656 -3.4103,8.00656 h -13.6413 v 0 c -1.88348,0 -3.41034,-3.58465 -3.41034,-8.00656 0,-4.4219 1.52686,-8.00656 3.41034,-8.00656 z"
     fill-rule="evenodd"
     id="path159" />
  <path
     stroke="#595959"
     stroke-width="1"
     stroke-linejoin="round"
     stroke-linecap="butt"
     d="m 148.89808,153.10192 c -1.88348,0 -3.41034,-3.58466 -3.41034,-8.00656 0,-4.42191 1.52686,-8.00656 3.41034,-8.00656"
     fill-rule="evenodd"
     id="path161" />
  <path
     stroke="#595959"
     stroke-width="1"
     stroke-linejoin="round"
     stroke-linecap="butt"
     d="m 135.25678,137.08882 h 13.6413 c 1.88345,0 3.4103,3.58466 3.4103,8.00656 0,4.42191 -1.52685,8.00656 -3.4103,8.00656 h -13.6413 v 0 c -1.88348,0 -3.41034,-3.58465 -3.41034,-8.00656 0,-4.4219 1.52686,-8.00656 3.41034,-8.00656 z"
     fill-rule="evenodd"
     id="path163" />
  <path
     fill="#d0e0e3"
     d="m 68.02492,62.85669 v 0 c 0,-4.31689 -3.49953,-7.81644 -7.81642,-7.81644 H 28.94371 v 0 c -2.07304,0 -4.06119,0.82352 -5.52704,2.2894 -1.46586,1.46585 -2.28938,3.45398 -2.28938,5.52704 v 99.9577 c 0,4.31689 3.49953,7.81641 7.81642,7.81641 H 60.2085 c 4.31689,0 7.81642,-3.49952 7.81642,-7.81641 z"
     fill-rule="evenodd"
     id="path165" />
  <path
     stroke="#000000"
     stroke-width="2"
     stroke-linejoin="round"
     stroke-linecap="butt"
     d="m 68.02492,62.85669 v 0 c 0,-4.31689 -3.49953,-7.81644 -7.81642,-7.81644 H 28.94371 v 0 c -2.07304,0 -4.06119,0.82352 -5.52704,2.2894 -1.46586,1.46585 -2.28938,3.45398 -2.28938,5.52704 v 99.9577 c 0,4.31689 3.49953,7.81641 7.81642,7.81641 H 60.2085 c 4.31689,0 7.81642,-3.49952 7.81642,-7.81641 z"
     fill-rule="evenodd"
     id="path167" />
  <path
     fill="#eeeeee"
     d="M 23.09229,104.82898 H 9.45099 c -1.88346,0 -3.4103,3.58466 -3.4103,8.00656 0,4.42191 1.52684,8.00656 3.4103,8.00656 h 13.6413 v 0 c 1.88347,0 3.41032,-3.58465 3.41032,-8.00656 0,-4.4219 -1.52685,-8.00656 -3.41032,-8.00656 z"
     fill-rule="evenodd"
     id="path169" />
  <path
     fill="#000000"
     fill-opacity="0"
     d="m 9.451,120.8421 c 1.88348,0 3.41032,-3.58466 3.41032,-8.00656 0,-4.42191 -1.52684,-8.00656 -3.41032,-8.00656"
     fill-rule="evenodd"
     id="path171" />
  <path
     fill="#000000"
     fill-opacity="0"
     d="M 23.09229,104.82898 H 9.45099 c -1.88346,0 -3.4103,3.58466 -3.4103,8.00656 0,4.42191 1.52684,8.00656 3.4103,8.00656 h 13.6413 v 0 c 1.88347,0 3.41032,-3.58465 3.41032,-8.00656 0,-4.4219 -1.52685,-8.00656 -3.41032,-8.00656 z"
     fill-rule="evenodd"
     id="path173" />
  <path
     stroke="#595959"
     stroke-width="1"
     stroke-linejoin="round"
     stroke-linecap="butt"
     d="m 9.451,120.8421 c 1.88348,0 3.41032,-3.58466 3.41032,-8.00656 0,-4.42191 -1.52684,-8.00656 -3.41032,-8.00656"
     fill-rule="evenodd"
     id="path175" />
  <path
     stroke="#595959"
     stroke-width="1"
     stroke-linejoin="round"
     stroke-linecap="butt"
     d="M 23.09229,104.82898 H 9.45099 c -1.88346,0 -3.4103,3.58466 -3.4103,8.00656 0,4.42191 1.52684,8.00656 3.4103,8.00656 h 13.6413 v 0 c 1.88347,0 3.41032,-3.58465 3.41032,-8.00656 0,-4.4219 -1.52685,-8.00656 -3.41032,-8.00656 z"
     fill-rule="evenodd"
     id="path177" />
  <path
     fill="#eeeeee"
     d="m 65.68722,71.20692 h 13.64131 c 1.88346,0 3.41031,3.58469 3.41031,8.00656 0,4.42191 -1.52685,8.00656 -3.41031,8.00656 H 65.68722 v 0 c -1.88347,0 -3.41032,-3.58465 -3.41032,-8.00656 0,-4.42187 1.52685,-8.00656 3.41032,-8.00656 z"
     fill-rule="evenodd"
     id="path179" />
  <path
     fill="#000000"
     fill-opacity="0"
     d="m 79.32853,87.22002 c -1.88348,0 -3.41034,-3.58466 -3.41034,-8.00656 0,-4.42188 1.52686,-8.00656 3.41034,-8.00656"
     fill-rule="evenodd"
     id="path181" />
  <path
     fill="#000000"
     fill-opacity="0"
     d="m 65.68722,71.20692 h 13.64131 c 1.88346,0 3.41031,3.58469 3.41031,8.00656 0,4.42191 -1.52685,8.00656 -3.41031,8.00656 H 65.68722 v 0 c -1.88347,0 -3.41032,-3.58465 -3.41032,-8.00656 0,-4.42187 1.52685,-8.00656 3.41032,-8.00656 z"
     fill-rule="evenodd"
     id="path183" />
  <path
     stroke="#595959"
     stroke-width="1"
     stroke-linejoin="round"
     stroke-linecap="butt"
     d="m 79.32853,87.22002 c -1.88348,0 -3.41034,-3.58466 -3.41034,-8.00656 0,-4.42188 1.52686,-8.00656 3.41034,-8.00656"
     fill-rule="evenodd"
     id="path185" />
  <path
     stroke="#595959"
     stroke-width="1"
     stroke-linejoin="round"
     stroke-linecap="butt"
     d="m 65.68722,71.20692 h 13.64131 c 1.88346,0 3.41031,3.58469 3.41031,8.00656 0,4.42191 -1.52685,8.00656 -3.41031,8.00656 H 65.68722 v 0 c -1.88347,0 -3.41032,-3.58465 -3.41032,-8.00656 0,-4.42187 1.52685,-8.00656 3.41032,-8.00656 z"
     fill-rule="evenodd"
     id="path187" />
  <path
     fill="#efefef"
     d="M 87.82282,71.56256 H 71.69684 v 15.24411 h 16.12598 z"
     fill-rule="evenodd"
     id="path189" />
  <path
     fill="#eeeeee"
     d="M 91.8692,138.46152 H 78.2279 c -1.88348,0 -3.41034,3.58466 -3.41034,8.00656 0,4.42191 1.52686,8.00656 3.41034,8.00656 h 13.6413 v 0 c 1.88345,0 3.41031,-3.58465 3.41031,-8.00656 0,-4.4219 -1.52686,-8.00656 -3.41031,-8.00656 z"
     fill-rule="evenodd"
     id="path191" />
  <path
     fill="#000000"
     fill-opacity="0"
     d="m 78.2279,154.47464 c 1.88345,0 3.41031,-3.58466 3.41031,-8.00656 0,-4.42191 -1.52686,-8.00656 -3.41031,-8.00656"
     fill-rule="evenodd"
     id="path193" />
  <path
     fill="#000000"
     fill-opacity="0"
     d="M 91.8692,138.46152 H 78.2279 c -1.88348,0 -3.41034,3.58466 -3.41034,8.00656 0,4.42191 1.52686,8.00656 3.41034,8.00656 h 13.6413 v 0 c 1.88345,0 3.41031,-3.58465 3.41031,-8.00656 0,-4.4219 -1.52686,-8.00656 -3.41031,-8.00656 z"
     fill-rule="evenodd"
     id="path195" />
  <path
     stroke="#595959"
     stroke-width="1"
     stroke-linejoin="round"
     stroke-linecap="butt"
     d="m 78.2279,154.47464 c 1.88345,0 3.41031,-3.58466 3.41031,-8.00656 0,-4.42191 -1.52686,-8.00656 -3.41031,-8.00656"
     fill-rule="evenodd"
     id="path197" />
  <path
     stroke="#595959"
     stroke-width="1"
     stroke-linejoin="round"
     stroke-linecap="butt"
     d="M 91.8692,138.46152 H 78.2279 c -1.88348,0 -3.41034,3.58466 -3.41034,8.00656 0,4.42191 1.52686,8.00656 3.41034,8.00656 h 13.6413 v 0 c 1.88345,0 3.41031,-3.58465 3.41031,-8.00656 0,-4.4219 -1.52686,-8.00656 -3.41031,-8.00656 z"
     fill-rule="evenodd"
     id="path199" />
  <path
     fill="#eeeeee"
     d="m 65.16228,138.46152 h 13.64131 c 1.88346,0 3.41031,3.58466 3.41031,8.00656 0,4.42191 -1.52685,8.00656 -3.41031,8.00656 H 65.16228 v 0 c -1.88347,0 -3.41032,-3.58465 -3.41032,-8.00656 0,-4.4219 1.52685,-8.00656 3.41032,-8.00656 z"
     fill-rule="evenodd"
     id="path201" />
  <path
     fill="#000000"
     fill-opacity="0"
     d="m 78.8036,154.47464 c -1.88348,0 -3.41034,-3.58466 -3.41034,-8.00656 0,-4.42191 1.52686,-8.00656 3.41034,-8.00656"
     fill-rule="evenodd"
     id="path203" />
  <path
     fill="#000000"
     fill-opacity="0"
     d="m 65.16228,138.46152 h 13.64131 c 1.88346,0 3.41031,3.58466 3.41031,8.00656 0,4.42191 -1.52685,8.00656 -3.41031,8.00656 H 65.16228 v 0 c -1.88347,0 -3.41032,-3.58465 -3.41032,-8.00656 0,-4.4219 1.52685,-8.00656 3.41032,-8.00656 z"
     fill-rule="evenodd"
     id="path205" />
  <path
     stroke="#595959"
     stroke-width="1"
     stroke-linejoin="round"
     stroke-linecap="butt"
     d="m 78.8036,154.47464 c -1.88348,0 -3.41034,-3.58466 -3.41034,-8.00656 0,-4.42191 1.52686,-8.00656 3.41034,-8.00656"
     fill-rule="evenodd"
     id="path207" />
  <path
     stroke="#595959"
     stroke-width="1"
     stroke-linejoin="round"
     stroke-linecap="butt"
     d="m 65.16228,138.46152 h 13.64131 c 1.88346,0 3.41031,3.58466 3.41031,8.00656 0,4.42191 -1.52685,8.00656 -3.41031,8.00656 H 65.16228 v 0 c -1.88347,0 -3.41032,-3.58465 -3.41032,-8.00656 0,-4.4219 1.52685,-8.00656 3.41032,-8.00656 z"
     fill-rule="evenodd"
     id="path209" />
  <path
     fill="#efefef"
     d="M 87.2979,138.81717 H 71.17192 v 15.24408 H 87.2979 Z"
     fill-rule="evenodd"
     id="path211" />
  <path
     fill="#eeeeee"
     d="m 554.112,72.56912 h -13.6413 c -1.88348,0 -3.41034,3.58466 -3.41034,8.00656 0,4.42191 1.52686,8.00656 3.41034,8.00656 h 13.6413 v 0 c 1.88342,0 3.41028,-3.58465 3.41028,-8.00656 0,-4.4219 -1.52686,-8.00656 -3.41028,-8.00656 z"
     fill-rule="evenodd"
     id="path213" />
  <path
     fill="#000000"
     fill-opacity="0"
     d="m 540.4707,88.58225 c 1.88342,0 3.41028,-3.58466 3.41028,-8.00656 0,-4.42191 -1.52686,-8.00656 -3.41028,-8.00656"
     fill-rule="evenodd"
     id="path215" />
  <path
     fill="#000000"
     fill-opacity="0"
     d="m 554.112,72.56912 h -13.6413 c -1.88348,0 -3.41034,3.58466 -3.41034,8.00656 0,4.42191 1.52686,8.00656 3.41034,8.00656 h 13.6413 v 0 c 1.88342,0 3.41028,-3.58465 3.41028,-8.00656 0,-4.4219 -1.52686,-8.00656 -3.41028,-8.00656 z"
     fill-rule="evenodd"
     id="path217" />
  <path
     stroke="#595959"
     stroke-width="1"
     stroke-linejoin="round"
     stroke-linecap="butt"
     d="m 540.4707,88.58225 c 1.88342,0 3.41028,-3.58466 3.41028,-8.00656 0,-4.42191 -1.52686,-8.00656 -3.41028,-8.00656"
     fill-rule="evenodd"
     id="path219" />
  <path
     stroke="#595959"
     stroke-width="1"
     stroke-linejoin="round"
     stroke-linecap="butt"
     d="m 554.112,72.56912 h -13.6413 c -1.88348,0 -3.41034,3.58466 -3.41034,8.00656 0,4.42191 1.52686,8.00656 3.41034,8.00656 h 13.6413 v 0 c 1.88342,0 3.41028,-3.58465 3.41028,-8.00656 0,-4.4219 -1.52686,-8.00656 -3.41028,-8.00656 z"
     fill-rule="evenodd"
     id="path221" />
  <path
     fill="#d0e0e3"
     d="m 529.7428,64.21892 v 0 c 0,-4.31689 -3.49957,-7.81644 -7.81647,-7.81644 h -31.26477 v 0 c -2.07306,0 -4.06115,0.82352 -5.52704,2.28937 -1.46588,1.46588 -2.28936,3.45401 -2.28936,5.52707 v 99.95767 c 0,4.31689 3.49951,7.81644 7.8164,7.81644 h 31.26477 c 4.3169,0 7.81647,-3.49955 7.81647,-7.81644 z"
     fill-rule="evenodd"
     id="path223" />
  <path
     stroke="#000000"
     stroke-width="2"
     stroke-linejoin="round"
     stroke-linecap="butt"
     d="m 529.7428,64.21892 v 0 c 0,-4.31689 -3.49957,-7.81644 -7.81647,-7.81644 h -31.26477 v 0 c -2.07306,0 -4.06115,0.82352 -5.52704,2.28937 -1.46588,1.46588 -2.28936,3.45401 -2.28936,5.52707 v 99.95767 c 0,4.31689 3.49951,7.81644 7.8164,7.81644 h 31.26477 c 4.3169,0 7.81647,-3.49955 7.81647,-7.81644 z"
     fill-rule="evenodd"
     id="path225" />
  <path
     fill="#eeeeee"
     d="m 484.8101,106.19116 h -13.6413 c -1.88342,0 -3.41027,3.58469 -3.41027,8.00656 0,4.42191 1.52685,8.00656 3.41027,8.00656 h 13.6413 v 0 c 1.88348,0 3.41034,-3.58465 3.41034,-8.00656 0,-4.42187 -1.52686,-8.00656 -3.41034,-8.00656 z"
     fill-rule="evenodd"
     id="path227" />
  <path
     fill="#000000"
     fill-opacity="0"
     d="m 471.1688,122.20429 c 1.88348,0 3.41034,-3.58466 3.41034,-8.00656 0,-4.42188 -1.52686,-8.00656 -3.41034,-8.00656"
     fill-rule="evenodd"
     id="path229" />
  <path
     fill="#000000"
     fill-opacity="0"
     d="m 484.8101,106.19116 h -13.6413 c -1.88342,0 -3.41027,3.58469 -3.41027,8.00656 0,4.42191 1.52685,8.00656 3.41027,8.00656 h 13.6413 v 0 c 1.88348,0 3.41034,-3.58465 3.41034,-8.00656 0,-4.42187 -1.52686,-8.00656 -3.41034,-8.00656 z"
     fill-rule="evenodd"
     id="path231" />
  <path
     stroke="#595959"
     stroke-width="1"
     stroke-linejoin="round"
     stroke-linecap="butt"
     d="m 471.1688,122.20429 c 1.88348,0 3.41034,-3.58466 3.41034,-8.00656 0,-4.42188 -1.52686,-8.00656 -3.41034,-8.00656"
     fill-rule="evenodd"
     id="path233" />
  <path
     stroke="#595959"
     stroke-width="1"
     stroke-linejoin="round"
     stroke-linecap="butt"
     d="m 484.8101,106.19116 h -13.6413 c -1.88342,0 -3.41027,3.58469 -3.41027,8.00656 0,4.42191 1.52685,8.00656 3.41027,8.00656 h 13.6413 v 0 c 1.88348,0 3.41034,-3.58465 3.41034,-8.00656 0,-4.42187 -1.52686,-8.00656 -3.41034,-8.00656 z"
     fill-rule="evenodd"
     id="path235" />
  <path
     fill="#eeeeee"
     d="m 527.4051,72.56912 h 13.6413 c 1.88342,0 3.41027,3.58466 3.41027,8.00656 0,4.42191 -1.52685,8.00656 -3.41027,8.00656 h -13.6413 v 0 c -1.88348,0 -3.41034,-3.58465 -3.41034,-8.00656 0,-4.4219 1.52686,-8.00656 3.41034,-8.00656 z"
     fill-rule="evenodd"
     id="path237" />
  <path
     fill="#000000"
     fill-opacity="0"
     d="m 541.0464,88.58225 c -1.88348,0 -3.41034,-3.58466 -3.41034,-8.00656 0,-4.42191 1.52686,-8.00656 3.41034,-8.00656"
     fill-rule="evenodd"
     id="path239" />
  <path
     fill="#000000"
     fill-opacity="0"
     d="m 527.4051,72.56912 h 13.6413 c 1.88342,0 3.41027,3.58466 3.41027,8.00656 0,4.42191 -1.52685,8.00656 -3.41027,8.00656 h -13.6413 v 0 c -1.88348,0 -3.41034,-3.58465 -3.41034,-8.00656 0,-4.4219 1.52686,-8.00656 3.41034,-8.00656 z"
     fill-rule="evenodd"
     id="path241" />
  <path
     stroke="#595959"
     stroke-width="1"
     stroke-linejoin="round"
     stroke-linecap="butt"
     d="m 541.0464,88.58225 c -1.88348,0 -3.41034,-3.58466 -3.41034,-8.00656 0,-4.42191 1.52686,-8.00656 3.41034,-8.00656"
     fill-rule="evenodd"
     id="path243" />
  <path
     stroke="#595959"
     stroke-width="1"
     stroke-linejoin="round"
     stroke-linecap="butt"
     d="m 527.4051,72.56912 h 13.6413 c 1.88342,0 3.41027,3.58466 3.41027,8.00656 0,4.42191 -1.52685,8.00656 -3.41027,8.00656 h -13.6413 v 0 c -1.88348,0 -3.41034,-3.58465 -3.41034,-8.00656 0,-4.4219 1.52686,-8.00656 3.41034,-8.00656 z"
     fill-rule="evenodd"
     id="path245" />
  <path
     fill="#efefef"
     d="m 549.54066,72.92478 h -16.12598 v 15.24408 h 16.12598 z"
     fill-rule="evenodd"
     id="path247" />
  <path
     fill="#eeeeee"
     d="m 553.58704,139.82372 h -13.6413 c -1.88348,0 -3.41034,3.58466 -3.41034,8.00656 0,4.42191 1.52686,8.00656 3.41034,8.00656 h 13.6413 v 0 c 1.88348,0 3.41034,-3.58465 3.41034,-8.00656 0,-4.4219 -1.52686,-8.00656 -3.41034,-8.00656 z"
     fill-rule="evenodd"
     id="path249" />
  <path
     fill="#000000"
     fill-opacity="0"
     d="m 539.94575,155.83686 c 1.88348,0 3.41034,-3.58466 3.41034,-8.00656 0,-4.42191 -1.52686,-8.00656 -3.41034,-8.00656"
     fill-rule="evenodd"
     id="path251" />
  <path
     fill="#000000"
     fill-opacity="0"
     d="m 553.58704,139.82372 h -13.6413 c -1.88348,0 -3.41034,3.58466 -3.41034,8.00656 0,4.42191 1.52686,8.00656 3.41034,8.00656 h 13.6413 v 0 c 1.88348,0 3.41034,-3.58465 3.41034,-8.00656 0,-4.4219 -1.52686,-8.00656 -3.41034,-8.00656 z"
     fill-rule="evenodd"
     id="path253" />
  <path
     stroke="#595959"
     stroke-width="1"
     stroke-linejoin="round"
     stroke-linecap="butt"
     d="m 539.94575,155.83686 c 1.88348,0 3.41034,-3.58466 3.41034,-8.00656 0,-4.42191 -1.52686,-8.00656 -3.41034,-8.00656"
     fill-rule="evenodd"
     id="path255" />
  <path
     stroke="#595959"
     stroke-width="1"
     stroke-linejoin="round"
     stroke-linecap="butt"
     d="m 553.58704,139.82372 h -13.6413 c -1.88348,0 -3.41034,3.58466 -3.41034,8.00656 0,4.42191 1.52686,8.00656 3.41034,8.00656 h 13.6413 v 0 c 1.88348,0 3.41034,-3.58465 3.41034,-8.00656 0,-4.4219 -1.52686,-8.00656 -3.41034,-8.00656 z"
     fill-rule="evenodd"
     id="path257" />
  <path
     fill="#eeeeee"
     d="m 526.88013,139.82372 h 13.6413 c 1.88348,0 3.41034,3.58466 3.41034,8.00656 0,4.42191 -1.52686,8.00656 -3.41034,8.00656 h -13.6413 v 0 c -1.88348,0 -3.41034,-3.58465 -3.41034,-8.00656 0,-4.4219 1.52686,-8.00656 3.41034,-8.00656 z"
     fill-rule="evenodd"
     id="path259" />
  <path
     fill="#000000"
     fill-opacity="0"
     d="m 540.5214,155.83686 c -1.88348,0 -3.41034,-3.58466 -3.41034,-8.00656 0,-4.42191 1.52686,-8.00656 3.41034,-8.00656"
     fill-rule="evenodd"
     id="path261" />
  <path
     fill="#000000"
     fill-opacity="0"
     d="m 526.88013,139.82372 h 13.6413 c 1.88348,0 3.41034,3.58466 3.41034,8.00656 0,4.42191 -1.52686,8.00656 -3.41034,8.00656 h -13.6413 v 0 c -1.88348,0 -3.41034,-3.58465 -3.41034,-8.00656 0,-4.4219 1.52686,-8.00656 3.41034,-8.00656 z"
     fill-rule="evenodd"
     id="path263" />
  <path
     stroke="#595959"
     stroke-width="1"
     stroke-linejoin="round"
     stroke-linecap="butt"
     d="m 540.5214,155.83686 c -1.88348,0 -3.41034,-3.58466 -3.41034,-8.00656 0,-4.42191 1.52686,-8.00656 3.41034,-8.00656"
     fill-rule="evenodd"
     id="path265" />
  <path
     stroke="#595959"
     stroke-width="1"
     stroke-linejoin="round"
     stroke-linecap="butt"
     d="m 526.88013,139.82372 h 13.6413 c 1.88348,0 3.41034,3.58466 3.41034,8.00656 0,4.42191 -1.52686,8.00656 -3.41034,8.00656 h -13.6413 v 0 c -1.88348,0 -3.41034,-3.58465 -3.41034,-8.00656 0,-4.4219 1.52686,-8.00656 3.41034,-8.00656 z"
     fill-rule="evenodd"
     id="path267" />
  <path
     fill="#efefef"
     d="m 549.01575,140.17935 h -16.12598 v 15.24411 h 16.12598 z"
     fill-rule="evenodd"
     id="path269" />
  <path
     fill="#6aa84f"
     d="m 575.20997,0 31.0744,45.14719 6.07086,-4.1811 -3.78302,20.50635 -20.50042,-3.78195 6.07086,-4.18109 -31.0744,-45.14719 z"
     fill-rule="evenodd"
     id="path271" />
  <path
     fill="#6aa84f"
     d="m 575.20997,231.86352 31.0744,-45.14722 6.07086,4.18112 -3.78302,-20.50634 -20.50042,3.78192 6.07086,4.18112 -31.0744,45.14719 z"
     fill-rule="evenodd"
     id="path273" />
</svg>
