<?xml version="1.0" encoding="UTF-8" standalone="no"?>
<svg
   version="1.1"
   viewBox="0 0 689.0238 239.86353"
   fill="none"
   stroke="none"
   stroke-linecap="square"
   stroke-miterlimit="10"
   id="svg347"
   sodipodi:docname="mlr3pipelines mlr3book graphics(2).svg"
   width="689.0238"
   height="239.86353"
   inkscape:version="1.1.2 (0a00cf5339, 2022-02-04)"
   xmlns:inkscape="http://www.inkscape.org/namespaces/inkscape"
   xmlns:sodipodi="http://sodipodi.sourceforge.net/DTD/sodipodi-0.dtd"
   xmlns="http://www.w3.org/2000/svg"
   xmlns:svg="http://www.w3.org/2000/svg">
  <defs
     id="defs351" />
  <sodipodi:namedview
     id="namedview349"
     pagecolor="#ffffff"
     bordercolor="#666666"
     borderopacity="1.0"
     inkscape:pageshadow="2"
     inkscape:pageopacity="0.0"
     inkscape:pagecheckerboard="0"
     showgrid="false"
     inkscape:zoom="0.82734659"
     inkscape:cx="427.87388"
     inkscape:cy="145.64634"
     inkscape:window-width="1918"
     inkscape:window-height="1198"
     inkscape:window-x="3840"
     inkscape:window-y="0"
     inkscape:window-maximized="1"
     inkscape:current-layer="svg347" />
  <clipPath
     id="g1fb832bab84_0_464.0">
    <path
       d="M 0,0 H 960 V 540 H 0 Z"
       clip-rule="nonzero"
       id="path2" />
  </clipPath>
  <path
     fill="#f3f3f3"
     d="m 423.64194,71.56305 v 0 c 0,-13.229 10.72424,-23.95325 23.95325,-23.95325 h 216.9754 c 6.35284,0 12.44543,2.52365 16.9375,7.01575 4.49212,4.4921 7.01574,10.58472 7.01574,16.9375 v 95.81006 c 0,13.229 -10.72424,23.95325 -23.95324,23.95325 h -216.9754 c -13.22901,0 -23.95325,-10.72425 -23.95325,-23.95325 z"
     fill-rule="evenodd"
     id="path7" />
  <path
     stroke="#595959"
     stroke-width="1"
     stroke-linejoin="round"
     stroke-linecap="butt"
     d="m 423.64194,71.56305 v 0 c 0,-13.229 10.72424,-23.95325 23.95325,-23.95325 h 216.9754 c 6.35284,0 12.44543,2.52365 16.9375,7.01575 4.49212,4.4921 7.01574,10.58472 7.01574,16.9375 v 95.81006 c 0,13.229 -10.72424,23.95325 -23.95324,23.95325 h -216.9754 c -13.22901,0 -23.95325,-10.72425 -23.95325,-23.95325 z"
     fill-rule="evenodd"
     id="path9" />
  <path
     fill="#d0e0e3"
     d="m 600.03183,72.21892 v 0 c 0,-4.31689 -3.49951,-7.81644 -7.81641,-7.81644 h -31.26483 v 0 c -2.073,0 -4.06116,0.82352 -5.52704,2.28937 -1.46582,1.46588 -2.28936,3.45401 -2.28936,5.52707 v 32.71359 c 0,4.3169 3.49951,7.81644 7.8164,7.81644 h 31.26483 c 4.3169,0 7.81641,-3.49954 7.81641,-7.81644 z"
     fill-rule="evenodd"
     id="path11" />
  <path
     stroke="#000000"
     stroke-width="2"
     stroke-linejoin="round"
     stroke-linecap="butt"
     d="m 600.03183,72.21892 v 0 c 0,-4.31689 -3.49951,-7.81644 -7.81641,-7.81644 h -31.26483 v 0 c -2.073,0 -4.06116,0.82352 -5.52704,2.28937 -1.46582,1.46588 -2.28936,3.45401 -2.28936,5.52707 v 32.71359 c 0,4.3169 3.49951,7.81644 7.8164,7.81644 h 31.26483 c 4.3169,0 7.81641,-3.49954 7.81641,-7.81644 z"
     fill-rule="evenodd"
     id="path13" />
  <path
     fill="#d0e0e3"
     d="m 600.03183,139.47348 v 0 c 0,-4.31689 -3.49951,-7.81644 -7.81641,-7.81644 h -31.26477 v 0 c -2.07306,0 -4.06121,0.82352 -5.5271,2.2894 -1.46582,1.46585 -2.28936,3.45401 -2.28936,5.52704 v 32.71359 c 0,4.3169 3.49957,7.81644 7.81646,7.81644 h 31.26477 c 4.3169,0 7.81641,-3.49954 7.81641,-7.81644 z"
     fill-rule="evenodd"
     id="path15" />
  <path
     stroke="#000000"
     stroke-width="2"
     stroke-linejoin="round"
     stroke-linecap="butt"
     d="m 600.03183,139.47348 v 0 c 0,-4.31689 -3.49951,-7.81644 -7.81641,-7.81644 h -31.26477 v 0 c -2.07306,0 -4.06121,0.82352 -5.5271,2.2894 -1.46582,1.46585 -2.28936,3.45401 -2.28936,5.52704 v 32.71359 c 0,4.3169 3.49957,7.81644 7.81646,7.81644 h 31.26477 c 4.3169,0 7.81641,-3.49954 7.81641,-7.81644 z"
     fill-rule="evenodd"
     id="path17" />
  <path
     fill="#f3f3f3"
     d="m 0.5,64.00385 v 0 c 0,-9.05417 7.33986,-16.39404 16.39403,-16.39404 h 65.57414 v 0 c 4.34796,0 8.51785,1.72723 11.59234,4.80169 3.07447,3.0745 4.8017,7.24439 4.8017,11.59235 v 110.92847 c 0,9.05417 -7.33987,16.39404 -16.39404,16.39404 H 16.89403 C 7.83986,191.32636 0.5,183.98649 0.5,174.93232 Z"
     fill-rule="evenodd"
     id="path19" />
  <path
     stroke="#595959"
     stroke-width="1"
     stroke-linejoin="round"
     stroke-linecap="butt"
     d="m 0.5,64.00385 v 0 c 0,-9.05417 7.33986,-16.39404 16.39403,-16.39404 h 65.57414 v 0 c 4.34796,0 8.51785,1.72723 11.59234,4.80169 3.07447,3.0745 4.8017,7.24439 4.8017,11.59235 v 110.92847 c 0,9.05417 -7.33987,16.39404 -16.39404,16.39404 H 16.89403 C 7.83986,191.32636 0.5,183.98649 0.5,174.93232 Z"
     fill-rule="evenodd"
     id="path21" />
  <path
     fill="#d0e0e3"
     d="m 26.7231,70.85669 v 0 c 0,-4.31689 3.49953,-7.81644 7.81642,-7.81644 h 31.26477 v 0 c 2.07306,0 4.06119,0.82352 5.52707,2.2894 1.46585,1.46585 2.28937,3.45398 2.28937,5.52704 v 99.9577 c 0,4.31689 -3.49954,7.81641 -7.81644,7.81641 H 34.53952 c -4.31689,0 -7.81642,-3.49952 -7.81642,-7.81641 z"
     fill-rule="evenodd"
     id="path23" />
  <path
     stroke="#000000"
     stroke-width="2"
     stroke-linejoin="round"
     stroke-linecap="butt"
     d="m 26.7231,70.85669 v 0 c 0,-4.31689 3.49953,-7.81644 7.81642,-7.81644 h 31.26477 v 0 c 2.07306,0 4.06119,0.82352 5.52707,2.2894 1.46585,1.46585 2.28937,3.45398 2.28937,5.52704 v 99.9577 c 0,4.31689 -3.49954,7.81641 -7.81644,7.81641 H 34.53952 c -4.31689,0 -7.81642,-3.49952 -7.81642,-7.81641 z"
     fill-rule="evenodd"
     id="path25" />
  <path
     fill="#eeeeee"
     d="m 73.83682,111.46152 h 13.6413 c 1.88348,0 3.41034,3.58466 3.41034,8.00656 0,4.42191 -1.52686,8.00656 -3.41034,8.00656 h -13.6413 v 0 c -1.88345,0 -3.41031,-3.58465 -3.41031,-8.00656 0,-4.4219 1.52686,-8.00656 3.41031,-8.00656 z"
     fill-rule="evenodd"
     id="path27" />
  <path
     fill="#000000"
     fill-opacity="0"
     d="m 87.47812,127.47464 c -1.88345,0 -3.41031,-3.58466 -3.41031,-8.00656 0,-4.42191 1.52686,-8.00656 3.41031,-8.00656"
     fill-rule="evenodd"
     id="path29" />
  <path
     fill="#000000"
     fill-opacity="0"
     d="m 73.83682,111.46152 h 13.6413 c 1.88348,0 3.41034,3.58466 3.41034,8.00656 0,4.42191 -1.52686,8.00656 -3.41034,8.00656 h -13.6413 v 0 c -1.88345,0 -3.41031,-3.58465 -3.41031,-8.00656 0,-4.4219 1.52686,-8.00656 3.41031,-8.00656 z"
     fill-rule="evenodd"
     id="path31" />
  <path
     stroke="#595959"
     stroke-width="1"
     stroke-linejoin="round"
     stroke-linecap="butt"
     d="m 87.47812,127.47464 c -1.88345,0 -3.41031,-3.58466 -3.41031,-8.00656 0,-4.42191 1.52686,-8.00656 3.41031,-8.00656"
     fill-rule="evenodd"
     id="path33" />
  <path
     stroke="#595959"
     stroke-width="1"
     stroke-linejoin="round"
     stroke-linecap="butt"
     d="m 73.83682,111.46152 h 13.6413 c 1.88348,0 3.41034,3.58466 3.41034,8.00656 0,4.42191 -1.52686,8.00656 -3.41034,8.00656 h -13.6413 v 0 c -1.88345,0 -3.41031,-3.58465 -3.41031,-8.00656 0,-4.4219 1.52686,-8.00656 3.41031,-8.00656 z"
     fill-rule="evenodd"
     id="path35" />
  <path
     fill="#eeeeee"
     d="M 29.0608,146.46152 H 15.4195 c -1.88346,0 -3.41032,3.58466 -3.41032,8.00656 0,4.42191 1.52686,8.00656 3.41032,8.00656 h 13.6413 v 0 c 1.88347,0 3.41032,-3.58465 3.41032,-8.00656 0,-4.4219 -1.52685,-8.00656 -3.41032,-8.00656 z"
     fill-rule="evenodd"
     id="path37" />
  <path
     fill="#000000"
     fill-opacity="0"
     d="m 15.41951,162.47464 c 1.88347,0 3.41032,-3.58466 3.41032,-8.00656 0,-4.42191 -1.52685,-8.00656 -3.41032,-8.00656"
     fill-rule="evenodd"
     id="path39" />
  <path
     fill="#000000"
     fill-opacity="0"
     d="M 29.0608,146.46152 H 15.4195 c -1.88346,0 -3.41032,3.58466 -3.41032,8.00656 0,4.42191 1.52686,8.00656 3.41032,8.00656 h 13.6413 v 0 c 1.88347,0 3.41032,-3.58465 3.41032,-8.00656 0,-4.4219 -1.52685,-8.00656 -3.41032,-8.00656 z"
     fill-rule="evenodd"
     id="path41" />
  <path
     stroke="#595959"
     stroke-width="1"
     stroke-linejoin="round"
     stroke-linecap="butt"
     d="m 15.41951,162.47464 c 1.88347,0 3.41032,-3.58466 3.41032,-8.00656 0,-4.42191 -1.52685,-8.00656 -3.41032,-8.00656"
     fill-rule="evenodd"
     id="path43" />
  <path
     stroke="#595959"
     stroke-width="1"
     stroke-linejoin="round"
     stroke-linecap="butt"
     d="M 29.0608,146.46152 H 15.4195 c -1.88346,0 -3.41032,3.58466 -3.41032,8.00656 0,4.42191 1.52686,8.00656 3.41032,8.00656 h 13.6413 v 0 c 1.88347,0 3.41032,-3.58465 3.41032,-8.00656 0,-4.4219 -1.52685,-8.00656 -3.41032,-8.00656 z"
     fill-rule="evenodd"
     id="path45" />
  <path
     fill="#eeeeee"
     d="M 29.0608,79.20692 H 15.4195 c -1.88346,0 -3.41032,3.58469 -3.41032,8.00656 0,4.42191 1.52686,8.00656 3.41032,8.00656 h 13.6413 v 0 c 1.88347,0 3.41032,-3.58465 3.41032,-8.00656 0,-4.42187 -1.52685,-8.00656 -3.41032,-8.00656 z"
     fill-rule="evenodd"
     id="path47" />
  <path
     fill="#000000"
     fill-opacity="0"
     d="m 15.41951,95.22002 c 1.88347,0 3.41032,-3.58466 3.41032,-8.00656 0,-4.42188 -1.52685,-8.00656 -3.41032,-8.00656"
     fill-rule="evenodd"
     id="path49" />
  <path
     fill="#000000"
     fill-opacity="0"
     d="M 29.0608,79.20692 H 15.4195 c -1.88346,0 -3.41032,3.58469 -3.41032,8.00656 0,4.42191 1.52686,8.00656 3.41032,8.00656 h 13.6413 v 0 c 1.88347,0 3.41032,-3.58465 3.41032,-8.00656 0,-4.42187 -1.52685,-8.00656 -3.41032,-8.00656 z"
     fill-rule="evenodd"
     id="path51" />
  <path
     stroke="#595959"
     stroke-width="1"
     stroke-linejoin="round"
     stroke-linecap="butt"
     d="m 15.41951,95.22002 c 1.88347,0 3.41032,-3.58466 3.41032,-8.00656 0,-4.42188 -1.52685,-8.00656 -3.41032,-8.00656"
     fill-rule="evenodd"
     id="path53" />
  <path
     stroke="#595959"
     stroke-width="1"
     stroke-linejoin="round"
     stroke-linecap="butt"
     d="M 29.0608,79.20692 H 15.4195 c -1.88346,0 -3.41032,3.58469 -3.41032,8.00656 0,4.42191 1.52686,8.00656 3.41032,8.00656 h 13.6413 v 0 c 1.88347,0 3.41032,-3.58465 3.41032,-8.00656 0,-4.42187 -1.52685,-8.00656 -3.41032,-8.00656 z"
     fill-rule="evenodd"
     id="path55" />
  <path
     fill="#000000"
     fill-opacity="0"
     d="m 91.64413,105.83029 h 96.6929 v 27.27557 h -96.6929 z"
     fill-rule="evenodd"
     id="path57" />
  <path
     fill="#000000"
     d="m 115.34692,120.50809 q -1.01563,0 -1.82813,-0.48438 -0.8125,-0.5 -1.28125,-1.42187 -0.45312,-0.92188 -0.45312,-2.14063 0,-1.875 1.01562,-2.9375 1.03125,-1.07812 2.54688,-1.07812 1.53125,0 2.53125,1.07812 1.01562,1.0625 1.01562,2.9375 0,1.21875 -0.45312,2.14063 -0.45313,0.92187 -1.28125,1.42187 -0.8125,0.48438 -1.8125,0.48438 z m 0,-1.89063 q 0.45312,0 0.79687,-0.46875 0.35938,-0.46875 0.35938,-1.6875 0,-1.21875 -0.35938,-1.65625 -0.34375,-0.45312 -0.79687,-0.45312 -0.4375,0 -0.79688,0.45312 -0.35937,0.4375 -0.35937,1.65625 0,1.21875 0.35937,1.6875 0.35938,0.46875 0.79688,0.46875 z m -1.92188,8.71875 -1.79687,-1.75 4.46875,-4.15625 1.21875,1.125 z m 7.32813,-8.375 -1.23438,-1.15625 3.89063,-4.76562 1.79687,1.75 z m 0.6875,9.32813 q -1.01563,0 -1.82813,-0.48438 -0.8125,-0.5 -1.28125,-1.42187 -0.45312,-0.92188 -0.45312,-2.14063 0,-1.875 1.01562,-2.9375 1.03125,-1.07812 2.54688,-1.07812 1.53125,0 2.53125,1.07812 1.01562,1.0625 1.01562,2.9375 0,1.21875 -0.45312,2.14063 -0.45313,0.92187 -1.28125,1.42187 -0.8125,0.48438 -1.8125,0.48438 z m 0,-1.89063 q 0.45312,0 0.79687,-0.46875 0.35938,-0.46875 0.35938,-1.6875 0,-1.21875 -0.35938,-1.65625 -0.34375,-0.45312 -0.79687,-0.45312 -0.4375,0 -0.79688,0.45312 -0.35937,0.4375 -0.35937,1.65625 0,1.21875 0.35937,1.6875 0.35938,0.46875 0.79688,0.46875 z m 6.50934,0.85938 v -3.1875 l 6.35937,-3.98438 v -0.0937 l -6.35937,-3.98437 v -3.1875 l 9.25,6 v 2.4375 z m 14.39996,0 v -3.1875 l 6.35938,-3.98438 v -0.0937 l -6.35938,-3.98437 v -3.1875 l 9.25,6 v 2.4375 z m 16.19684,-6.75 q -1.01563,0 -1.82813,-0.48438 -0.8125,-0.5 -1.28125,-1.42187 -0.45312,-0.92188 -0.45312,-2.14063 0,-1.875 1.01562,-2.9375 1.03125,-1.07812 2.54688,-1.07812 1.53125,0 2.53125,1.07812 1.01562,1.0625 1.01562,2.9375 0,1.21875 -0.45312,2.14063 -0.45313,0.92187 -1.28125,1.42187 -0.8125,0.48438 -1.8125,0.48438 z m 0,-1.89063 q 0.45312,0 0.79687,-0.46875 0.35938,-0.46875 0.35938,-1.6875 0,-1.21875 -0.35938,-1.65625 -0.34375,-0.45312 -0.79687,-0.45312 -0.4375,0 -0.79688,0.45312 -0.35937,0.4375 -0.35937,1.65625 0,1.21875 0.35937,1.6875 0.35938,0.46875 0.79688,0.46875 z m -1.92188,8.71875 -1.79687,-1.75 4.46875,-4.15625 1.21875,1.125 z m 7.32813,-8.375 -1.23438,-1.15625 3.89063,-4.76562 1.79687,1.75 z m 0.6875,9.32813 q -1.01563,0 -1.82813,-0.48438 -0.8125,-0.5 -1.28125,-1.42187 -0.45312,-0.92188 -0.45312,-2.14063 0,-1.875 1.01562,-2.9375 1.03125,-1.07812 2.54688,-1.07812 1.53125,0 2.53125,1.07812 1.01562,1.0625 1.01562,2.9375 0,1.21875 -0.45312,2.14063 -0.45313,0.92187 -1.28125,1.42187 -0.8125,0.48438 -1.8125,0.48438 z m 0,-1.89063 q 0.45312,0 0.79687,-0.46875 0.35938,-0.46875 0.35938,-1.6875 0,-1.21875 -0.35938,-1.65625 -0.34375,-0.45312 -0.79687,-0.45312 -0.4375,0 -0.79688,0.45312 -0.35937,0.4375 -0.35937,1.65625 0,1.21875 0.35937,1.6875 0.35938,0.46875 0.79688,0.46875 z"
     fill-rule="nonzero"
     id="path59" />
  <path
     fill="#efefef"
     d="m 376.74801,150.70692 v -14.25195 h -30.04724 v -28.50394 h 30.04724 V 93.69905 l 28.50397,28.50393 z"
     fill-rule="evenodd"
     id="path61" />
  <path
     stroke="#cccccc"
     stroke-width="1"
     stroke-linejoin="round"
     stroke-linecap="butt"
     d="m 376.74801,150.70692 v -14.25195 h -30.04724 v -28.50394 h 30.04724 V 93.69905 l 28.50397,28.50393 z"
     fill-rule="evenodd"
     id="path63" />
  <path
     fill="#eeeeee"
     d="m 595.18328,79.20692 h 13.6413 c 1.88348,0 3.41034,3.58469 3.41034,8.00656 0,4.42191 -1.52686,8.00656 -3.41034,8.00656 h -13.6413 v 0 c -1.88342,0 -3.41028,-3.58465 -3.41028,-8.00656 0,-4.42187 1.52686,-8.00656 3.41028,-8.00656 z"
     fill-rule="evenodd"
     id="path65" />
  <path
     fill="#000000"
     fill-opacity="0"
     d="m 608.82458,95.22002 c -1.88342,0 -3.41028,-3.58466 -3.41028,-8.00656 0,-4.42188 1.52686,-8.00656 3.41028,-8.00656"
     fill-rule="evenodd"
     id="path67" />
  <path
     fill="#000000"
     fill-opacity="0"
     d="m 595.18328,79.20692 h 13.6413 c 1.88348,0 3.41034,3.58469 3.41034,8.00656 0,4.42191 -1.52686,8.00656 -3.41034,8.00656 h -13.6413 v 0 c -1.88342,0 -3.41028,-3.58465 -3.41028,-8.00656 0,-4.42187 1.52686,-8.00656 3.41028,-8.00656 z"
     fill-rule="evenodd"
     id="path69" />
  <path
     stroke="#595959"
     stroke-width="1"
     stroke-linejoin="round"
     stroke-linecap="butt"
     d="m 608.82458,95.22002 c -1.88342,0 -3.41028,-3.58466 -3.41028,-8.00656 0,-4.42188 1.52686,-8.00656 3.41028,-8.00656"
     fill-rule="evenodd"
     id="path71" />
  <path
     stroke="#595959"
     stroke-width="1"
     stroke-linejoin="round"
     stroke-linecap="butt"
     d="m 595.18328,79.20692 h 13.6413 c 1.88348,0 3.41034,3.58469 3.41034,8.00656 0,4.42191 -1.52686,8.00656 -3.41034,8.00656 h -13.6413 v 0 c -1.88342,0 -3.41028,-3.58465 -3.41028,-8.00656 0,-4.42187 1.52686,-8.00656 3.41028,-8.00656 z"
     fill-rule="evenodd"
     id="path73" />
  <path
     fill="#d0e0e3"
     d="m 619.55252,70.85669 v 0 c 0,-4.31689 3.49951,-7.81644 7.81641,-7.81644 h 31.26477 v 0 c 2.07306,0 4.06121,0.82352 5.52703,2.2894 1.46589,1.46585 2.28937,3.45398 2.28937,5.52704 v 99.9577 c 0,4.31689 -3.49951,7.81641 -7.8164,7.81641 h -31.26477 c -4.3169,0 -7.81641,-3.49952 -7.81641,-7.81641 z"
     fill-rule="evenodd"
     id="path75" />
  <path
     stroke="#000000"
     stroke-width="2"
     stroke-linejoin="round"
     stroke-linecap="butt"
     d="m 619.55252,70.85669 v 0 c 0,-4.31689 3.49951,-7.81644 7.81641,-7.81644 h 31.26477 v 0 c 2.07306,0 4.06121,0.82352 5.52703,2.2894 1.46589,1.46585 2.28937,3.45398 2.28937,5.52704 v 99.9577 c 0,4.31689 -3.49951,7.81641 -7.8164,7.81641 h -31.26477 c -4.3169,0 -7.81641,-3.49952 -7.81641,-7.81641 z"
     fill-rule="evenodd"
     id="path77" />
  <path
     fill="#eeeeee"
     d="m 664.48514,112.82898 h 13.6413 c 1.88348,0 3.41027,3.58466 3.41027,8.00656 0,4.42191 -1.52679,8.00656 -3.41027,8.00656 h -13.6413 v 0 c -1.88348,0 -3.41034,-3.58465 -3.41034,-8.00656 0,-4.4219 1.52686,-8.00656 3.41034,-8.00656 z"
     fill-rule="evenodd"
     id="path79" />
  <path
     fill="#000000"
     fill-opacity="0"
     d="m 678.12643,128.8421 c -1.88348,0 -3.41034,-3.58466 -3.41034,-8.00656 0,-4.42191 1.52686,-8.00656 3.41034,-8.00656"
     fill-rule="evenodd"
     id="path81" />
  <path
     fill="#000000"
     fill-opacity="0"
     d="m 664.48514,112.82898 h 13.6413 c 1.88348,0 3.41027,3.58466 3.41027,8.00656 0,4.42191 -1.52679,8.00656 -3.41027,8.00656 h -13.6413 v 0 c -1.88348,0 -3.41034,-3.58465 -3.41034,-8.00656 0,-4.4219 1.52686,-8.00656 3.41034,-8.00656 z"
     fill-rule="evenodd"
     id="path83" />
  <path
     stroke="#595959"
     stroke-width="1"
     stroke-linejoin="round"
     stroke-linecap="butt"
     d="m 678.12643,128.8421 c -1.88348,0 -3.41034,-3.58466 -3.41034,-8.00656 0,-4.42191 1.52686,-8.00656 3.41034,-8.00656"
     fill-rule="evenodd"
     id="path85" />
  <path
     stroke="#595959"
     stroke-width="1"
     stroke-linejoin="round"
     stroke-linecap="butt"
     d="m 664.48514,112.82898 h 13.6413 c 1.88348,0 3.41027,3.58466 3.41027,8.00656 0,4.42191 -1.52679,8.00656 -3.41027,8.00656 h -13.6413 v 0 c -1.88348,0 -3.41034,-3.58465 -3.41034,-8.00656 0,-4.4219 1.52686,-8.00656 3.41034,-8.00656 z"
     fill-rule="evenodd"
     id="path87" />
  <path
     fill="#eeeeee"
     d="m 621.89023,79.20692 h -13.6413 c -1.88348,0 -3.41034,3.58469 -3.41034,8.00656 0,4.42191 1.52686,8.00656 3.41034,8.00656 h 13.6413 v 0 c 1.88342,0 3.41028,-3.58465 3.41028,-8.00656 0,-4.42187 -1.52686,-8.00656 -3.41028,-8.00656 z"
     fill-rule="evenodd"
     id="path89" />
  <path
     fill="#000000"
     fill-opacity="0"
     d="m 608.24893,95.22002 c 1.88342,0 3.41028,-3.58466 3.41028,-8.00656 0,-4.42188 -1.52686,-8.00656 -3.41028,-8.00656"
     fill-rule="evenodd"
     id="path91" />
  <path
     fill="#000000"
     fill-opacity="0"
     d="m 621.89023,79.20692 h -13.6413 c -1.88348,0 -3.41034,3.58469 -3.41034,8.00656 0,4.42191 1.52686,8.00656 3.41034,8.00656 h 13.6413 v 0 c 1.88342,0 3.41028,-3.58465 3.41028,-8.00656 0,-4.42187 -1.52686,-8.00656 -3.41028,-8.00656 z"
     fill-rule="evenodd"
     id="path93" />
  <path
     stroke="#595959"
     stroke-width="1"
     stroke-linejoin="round"
     stroke-linecap="butt"
     d="m 608.24893,95.22002 c 1.88342,0 3.41028,-3.58466 3.41028,-8.00656 0,-4.42188 -1.52686,-8.00656 -3.41028,-8.00656"
     fill-rule="evenodd"
     id="path95" />
  <path
     stroke="#595959"
     stroke-width="1"
     stroke-linejoin="round"
     stroke-linecap="butt"
     d="m 621.89023,79.20692 h -13.6413 c -1.88348,0 -3.41034,3.58469 -3.41034,8.00656 0,4.42191 1.52686,8.00656 3.41034,8.00656 h 13.6413 v 0 c 1.88342,0 3.41028,-3.58465 3.41028,-8.00656 0,-4.42187 -1.52686,-8.00656 -3.41028,-8.00656 z"
     fill-rule="evenodd"
     id="path97" />
  <path
     fill="#efefef"
     d="m 599.75458,79.56256 h 16.12598 v 15.24411 h -16.12598 z"
     fill-rule="evenodd"
     id="path99" />
  <path
     fill="#eeeeee"
     d="m 595.70822,146.46152 h 13.6413 c 1.88348,0 3.41034,3.58466 3.41034,8.00656 0,4.42191 -1.52686,8.00656 -3.41034,8.00656 h -13.6413 v 0 c -1.88348,0 -3.41034,-3.58465 -3.41034,-8.00656 0,-4.4219 1.52686,-8.00656 3.41034,-8.00656 z"
     fill-rule="evenodd"
     id="path101" />
  <path
     fill="#000000"
     fill-opacity="0"
     d="m 609.34952,162.47464 c -1.88348,0 -3.41034,-3.58466 -3.41034,-8.00656 0,-4.42191 1.52686,-8.00656 3.41034,-8.00656"
     fill-rule="evenodd"
     id="path103" />
  <path
     fill="#000000"
     fill-opacity="0"
     d="m 595.70822,146.46152 h 13.6413 c 1.88348,0 3.41034,3.58466 3.41034,8.00656 0,4.42191 -1.52686,8.00656 -3.41034,8.00656 h -13.6413 v 0 c -1.88348,0 -3.41034,-3.58465 -3.41034,-8.00656 0,-4.4219 1.52686,-8.00656 3.41034,-8.00656 z"
     fill-rule="evenodd"
     id="path105" />
  <path
     stroke="#595959"
     stroke-width="1"
     stroke-linejoin="round"
     stroke-linecap="butt"
     d="m 609.34952,162.47464 c -1.88348,0 -3.41034,-3.58466 -3.41034,-8.00656 0,-4.42191 1.52686,-8.00656 3.41034,-8.00656"
     fill-rule="evenodd"
     id="path107" />
  <path
     stroke="#595959"
     stroke-width="1"
     stroke-linejoin="round"
     stroke-linecap="butt"
     d="m 595.70822,146.46152 h 13.6413 c 1.88348,0 3.41034,3.58466 3.41034,8.00656 0,4.42191 -1.52686,8.00656 -3.41034,8.00656 h -13.6413 v 0 c -1.88348,0 -3.41034,-3.58465 -3.41034,-8.00656 0,-4.4219 1.52686,-8.00656 3.41034,-8.00656 z"
     fill-rule="evenodd"
     id="path109" />
  <path
     fill="#eeeeee"
     d="m 622.41513,146.46152 h -13.6413 c -1.88348,0 -3.41034,3.58466 -3.41034,8.00656 0,4.42191 1.52686,8.00656 3.41034,8.00656 h 13.6413 v 0 c 1.88348,0 3.41034,-3.58465 3.41034,-8.00656 0,-4.4219 -1.52686,-8.00656 -3.41034,-8.00656 z"
     fill-rule="evenodd"
     id="path111" />
  <path
     fill="#000000"
     fill-opacity="0"
     d="m 608.77383,162.47464 c 1.88348,0 3.41034,-3.58466 3.41034,-8.00656 0,-4.42191 -1.52686,-8.00656 -3.41034,-8.00656"
     fill-rule="evenodd"
     id="path113" />
  <path
     fill="#000000"
     fill-opacity="0"
     d="m 622.41513,146.46152 h -13.6413 c -1.88348,0 -3.41034,3.58466 -3.41034,8.00656 0,4.42191 1.52686,8.00656 3.41034,8.00656 h 13.6413 v 0 c 1.88348,0 3.41034,-3.58465 3.41034,-8.00656 0,-4.4219 -1.52686,-8.00656 -3.41034,-8.00656 z"
     fill-rule="evenodd"
     id="path115" />
  <path
     stroke="#595959"
     stroke-width="1"
     stroke-linejoin="round"
     stroke-linecap="butt"
     d="m 608.77383,162.47464 c 1.88348,0 3.41034,-3.58466 3.41034,-8.00656 0,-4.42191 -1.52686,-8.00656 -3.41034,-8.00656"
     fill-rule="evenodd"
     id="path117" />
  <path
     stroke="#595959"
     stroke-width="1"
     stroke-linejoin="round"
     stroke-linecap="butt"
     d="m 622.41513,146.46152 h -13.6413 c -1.88348,0 -3.41034,3.58466 -3.41034,8.00656 0,4.42191 1.52686,8.00656 3.41034,8.00656 h 13.6413 v 0 c 1.88348,0 3.41034,-3.58465 3.41034,-8.00656 0,-4.4219 -1.52686,-8.00656 -3.41034,-8.00656 z"
     fill-rule="evenodd"
     id="path119" />
  <path
     fill="#efefef"
     d="m 600.27948,146.81717 h 16.12598 v 15.24408 h -16.12598 z"
     fill-rule="evenodd"
     id="path121" />
  <path
     fill="#f3f3f3"
     d="m 177.85958,71.56305 v 0 c 0,-13.229 10.72421,-23.95325 23.95322,-23.95325 h 112.40848 c 6.35284,0 12.44543,2.52365 16.9375,7.01575 4.49212,4.4921 7.01574,10.58472 7.01574,16.9375 v 95.81006 c 0,13.229 -10.72424,23.95325 -23.95324,23.95325 H 201.8128 c -13.22901,0 -23.95322,-10.72425 -23.95322,-23.95325 z"
     fill-rule="evenodd"
     id="path123" />
  <path
     stroke="#595959"
     stroke-width="1"
     stroke-linejoin="round"
     stroke-linecap="butt"
     d="m 177.85958,71.56305 v 0 c 0,-13.229 10.72421,-23.95325 23.95322,-23.95325 h 112.40848 c 6.35284,0 12.44543,2.52365 16.9375,7.01575 4.49212,4.4921 7.01574,10.58472 7.01574,16.9375 v 95.81006 c 0,13.229 -10.72424,23.95325 -23.95324,23.95325 H 201.8128 c -13.22901,0 -23.95322,-10.72425 -23.95322,-23.95325 z"
     fill-rule="evenodd"
     id="path125" />
  <path
     fill="#d0e0e3"
     d="m 201.72012,70.85669 v 0 c 0,-4.31689 3.49954,-7.81644 7.81644,-7.81644 h 31.26477 v 0 c 2.07306,0 4.06118,0.82352 5.52707,2.2894 1.46585,1.46585 2.28936,3.45398 2.28936,5.52704 v 32.71359 c 0,4.3169 -3.49954,7.81644 -7.81643,7.81644 h -31.26477 c -4.3169,0 -7.81644,-3.49954 -7.81644,-7.81644 z"
     fill-rule="evenodd"
     id="path127" />
  <path
     stroke="#000000"
     stroke-width="2"
     stroke-linejoin="round"
     stroke-linecap="butt"
     d="m 201.72012,70.85669 v 0 c 0,-4.31689 3.49954,-7.81644 7.81644,-7.81644 h 31.26477 v 0 c 2.07306,0 4.06118,0.82352 5.52707,2.2894 1.46585,1.46585 2.28936,3.45398 2.28936,5.52704 v 32.71359 c 0,4.3169 -3.49954,7.81644 -7.81643,7.81644 h -31.26477 c -4.3169,0 -7.81644,-3.49954 -7.81644,-7.81644 z"
     fill-rule="evenodd"
     id="path129" />
  <path
     fill="#eeeeee"
     d="m 246.28038,79.20692 h 13.6413 c 1.88348,0 3.41034,3.58469 3.41034,8.00656 0,4.42191 -1.52686,8.00656 -3.41034,8.00656 h -13.6413 v 0 c -1.88345,0 -3.41031,-3.58465 -3.41031,-8.00656 0,-4.42187 1.52686,-8.00656 3.41031,-8.00656 z"
     fill-rule="evenodd"
     id="path131" />
  <path
     fill="#000000"
     fill-opacity="0"
     d="m 259.92168,95.22002 c -1.88345,0 -3.41031,-3.58466 -3.41031,-8.00656 0,-4.42188 1.52686,-8.00656 3.41031,-8.00656"
     fill-rule="evenodd"
     id="path133" />
  <path
     fill="#000000"
     fill-opacity="0"
     d="m 246.28038,79.20692 h 13.6413 c 1.88348,0 3.41034,3.58469 3.41034,8.00656 0,4.42191 -1.52686,8.00656 -3.41034,8.00656 h -13.6413 v 0 c -1.88345,0 -3.41031,-3.58465 -3.41031,-8.00656 0,-4.42187 1.52686,-8.00656 3.41031,-8.00656 z"
     fill-rule="evenodd"
     id="path135" />
  <path
     stroke="#595959"
     stroke-width="1"
     stroke-linejoin="round"
     stroke-linecap="butt"
     d="m 259.92168,95.22002 c -1.88345,0 -3.41031,-3.58466 -3.41031,-8.00656 0,-4.42188 1.52686,-8.00656 3.41031,-8.00656"
     fill-rule="evenodd"
     id="path137" />
  <path
     stroke="#595959"
     stroke-width="1"
     stroke-linejoin="round"
     stroke-linecap="butt"
     d="m 246.28038,79.20692 h 13.6413 c 1.88348,0 3.41034,3.58469 3.41034,8.00656 0,4.42191 -1.52686,8.00656 -3.41034,8.00656 h -13.6413 v 0 c -1.88345,0 -3.41031,-3.58465 -3.41031,-8.00656 0,-4.42187 1.52686,-8.00656 3.41031,-8.00656 z"
     fill-rule="evenodd"
     id="path139" />
  <path
     fill="#eeeeee"
     d="m 203.41775,77.83422 h -13.6413 c -1.88345,0 -3.4103,3.58466 -3.4103,8.00656 0,4.42191 1.52685,8.00656 3.4103,8.00656 h 13.6413 v 0 c 1.88348,0 3.41034,-3.58465 3.41034,-8.00656 0,-4.4219 -1.52686,-8.00656 -3.41034,-8.00656 z"
     fill-rule="evenodd"
     id="path141" />
  <path
     fill="#000000"
     fill-opacity="0"
     d="m 189.77646,93.84735 c 1.88348,0 3.41034,-3.58466 3.41034,-8.00656 0,-4.42191 -1.52686,-8.00656 -3.41034,-8.00656"
     fill-rule="evenodd"
     id="path143" />
  <path
     fill="#000000"
     fill-opacity="0"
     d="m 203.41775,77.83422 h -13.6413 c -1.88345,0 -3.4103,3.58466 -3.4103,8.00656 0,4.42191 1.52685,8.00656 3.4103,8.00656 h 13.6413 v 0 c 1.88348,0 3.41034,-3.58465 3.41034,-8.00656 0,-4.4219 -1.52686,-8.00656 -3.41034,-8.00656 z"
     fill-rule="evenodd"
     id="path145" />
  <path
     stroke="#595959"
     stroke-width="1"
     stroke-linejoin="round"
     stroke-linecap="butt"
     d="m 189.77646,93.84735 c 1.88348,0 3.41034,-3.58466 3.41034,-8.00656 0,-4.42191 -1.52686,-8.00656 -3.41034,-8.00656"
     fill-rule="evenodd"
     id="path147" />
  <path
     stroke="#595959"
     stroke-width="1"
     stroke-linejoin="round"
     stroke-linecap="butt"
     d="m 203.41775,77.83422 h -13.6413 c -1.88345,0 -3.4103,3.58466 -3.4103,8.00656 0,4.42191 1.52685,8.00656 3.4103,8.00656 h 13.6413 v 0 c 1.88348,0 3.41034,-3.58465 3.41034,-8.00656 0,-4.4219 -1.52686,-8.00656 -3.41034,-8.00656 z"
     fill-rule="evenodd"
     id="path149" />
  <path
     fill="#d0e0e3"
     d="m 201.72012,138.11127 v 0 c 0,-4.31689 3.49954,-7.81641 7.81644,-7.81641 h 31.26477 v 0 c 2.07306,0 4.06118,0.82352 5.52707,2.28937 1.46585,1.46588 2.28936,3.45401 2.28936,5.52704 v 32.71362 c 0,4.3169 -3.49954,7.81641 -7.81643,7.81641 h -31.26477 c -4.3169,0 -7.81644,-3.49951 -7.81644,-7.81641 z"
     fill-rule="evenodd"
     id="path151" />
  <path
     stroke="#000000"
     stroke-width="2"
     stroke-linejoin="round"
     stroke-linecap="butt"
     d="m 201.72012,138.11127 v 0 c 0,-4.31689 3.49954,-7.81641 7.81644,-7.81641 h 31.26477 v 0 c 2.07306,0 4.06118,0.82352 5.52707,2.28937 1.46585,1.46588 2.28936,3.45401 2.28936,5.52704 v 32.71362 c 0,4.3169 -3.49954,7.81641 -7.81643,7.81641 h -31.26477 c -4.3169,0 -7.81644,-3.49951 -7.81644,-7.81641 z"
     fill-rule="evenodd"
     id="path153" />
  <path
     fill="#eeeeee"
     d="m 203.41775,145.08882 h -13.6413 c -1.88345,0 -3.4103,3.58466 -3.4103,8.00656 0,4.42191 1.52685,8.00656 3.4103,8.00656 h 13.6413 v 0 c 1.88348,0 3.41034,-3.58465 3.41034,-8.00656 0,-4.4219 -1.52686,-8.00656 -3.41034,-8.00656 z"
     fill-rule="evenodd"
     id="path155" />
  <path
     fill="#000000"
     fill-opacity="0"
     d="m 189.77646,161.10192 c 1.88348,0 3.41034,-3.58466 3.41034,-8.00656 0,-4.42191 -1.52686,-8.00656 -3.41034,-8.00656"
     fill-rule="evenodd"
     id="path157" />
  <path
     fill="#000000"
     fill-opacity="0"
     d="m 203.41775,145.08882 h -13.6413 c -1.88345,0 -3.4103,3.58466 -3.4103,8.00656 0,4.42191 1.52685,8.00656 3.4103,8.00656 h 13.6413 v 0 c 1.88348,0 3.41034,-3.58465 3.41034,-8.00656 0,-4.4219 -1.52686,-8.00656 -3.41034,-8.00656 z"
     fill-rule="evenodd"
     id="path159" />
  <path
     stroke="#595959"
     stroke-width="1"
     stroke-linejoin="round"
     stroke-linecap="butt"
     d="m 189.77646,161.10192 c 1.88348,0 3.41034,-3.58466 3.41034,-8.00656 0,-4.42191 -1.52686,-8.00656 -3.41034,-8.00656"
     fill-rule="evenodd"
     id="path161" />
  <path
     stroke="#595959"
     stroke-width="1"
     stroke-linejoin="round"
     stroke-linecap="butt"
     d="m 203.41775,145.08882 h -13.6413 c -1.88345,0 -3.4103,3.58466 -3.4103,8.00656 0,4.42191 1.52685,8.00656 3.4103,8.00656 h 13.6413 v 0 c 1.88348,0 3.41034,-3.58465 3.41034,-8.00656 0,-4.4219 -1.52686,-8.00656 -3.41034,-8.00656 z"
     fill-rule="evenodd"
     id="path163" />
  <path
     fill="#d0e0e3"
     d="m 270.6496,70.85669 v 0 c 0,-4.31689 3.49954,-7.81644 7.81644,-7.81644 h 31.26477 v 0 c 2.07306,0 4.06122,0.82352 5.52704,2.2894 1.46588,1.46585 2.28942,3.45398 2.28942,5.52704 v 99.9577 c 0,4.31689 -3.49957,7.81641 -7.81646,7.81641 h -31.26477 c -4.3169,0 -7.81644,-3.49952 -7.81644,-7.81641 z"
     fill-rule="evenodd"
     id="path165" />
  <path
     stroke="#000000"
     stroke-width="2"
     stroke-linejoin="round"
     stroke-linecap="butt"
     d="m 270.6496,70.85669 v 0 c 0,-4.31689 3.49954,-7.81644 7.81644,-7.81644 h 31.26477 v 0 c 2.07306,0 4.06122,0.82352 5.52704,2.2894 1.46588,1.46585 2.28942,3.45398 2.28942,5.52704 v 99.9577 c 0,4.31689 -3.49957,7.81641 -7.81646,7.81641 h -31.26477 c -4.3169,0 -7.81644,-3.49952 -7.81644,-7.81641 z"
     fill-rule="evenodd"
     id="path167" />
  <path
     fill="#eeeeee"
     d="m 315.58224,112.82898 h 13.6413 c 1.88348,0 3.41034,3.58466 3.41034,8.00656 0,4.42191 -1.52686,8.00656 -3.41034,8.00656 h -13.6413 v 0 c -1.88348,0 -3.41034,-3.58465 -3.41034,-8.00656 0,-4.4219 1.52686,-8.00656 3.41034,-8.00656 z"
     fill-rule="evenodd"
     id="path169" />
  <path
     fill="#000000"
     fill-opacity="0"
     d="m 329.22354,128.8421 c -1.88348,0 -3.41034,-3.58466 -3.41034,-8.00656 0,-4.42191 1.52686,-8.00656 3.41034,-8.00656"
     fill-rule="evenodd"
     id="path171" />
  <path
     fill="#000000"
     fill-opacity="0"
     d="m 315.58224,112.82898 h 13.6413 c 1.88348,0 3.41034,3.58466 3.41034,8.00656 0,4.42191 -1.52686,8.00656 -3.41034,8.00656 h -13.6413 v 0 c -1.88348,0 -3.41034,-3.58465 -3.41034,-8.00656 0,-4.4219 1.52686,-8.00656 3.41034,-8.00656 z"
     fill-rule="evenodd"
     id="path173" />
  <path
     stroke="#595959"
     stroke-width="1"
     stroke-linejoin="round"
     stroke-linecap="butt"
     d="m 329.22354,128.8421 c -1.88348,0 -3.41034,-3.58466 -3.41034,-8.00656 0,-4.42191 1.52686,-8.00656 3.41034,-8.00656"
     fill-rule="evenodd"
     id="path175" />
  <path
     stroke="#595959"
     stroke-width="1"
     stroke-linejoin="round"
     stroke-linecap="butt"
     d="m 315.58224,112.82898 h 13.6413 c 1.88348,0 3.41034,3.58466 3.41034,8.00656 0,4.42191 -1.52686,8.00656 -3.41034,8.00656 h -13.6413 v 0 c -1.88348,0 -3.41034,-3.58465 -3.41034,-8.00656 0,-4.4219 1.52686,-8.00656 3.41034,-8.00656 z"
     fill-rule="evenodd"
     id="path177" />
  <path
     fill="#eeeeee"
     d="M 272.9873,79.20692 H 259.346 c -1.88345,0 -3.4103,3.58469 -3.4103,8.00656 0,4.42191 1.52685,8.00656 3.4103,8.00656 h 13.6413 v 0 c 1.88348,0 3.41034,-3.58465 3.41034,-8.00656 0,-4.42187 -1.52686,-8.00656 -3.41034,-8.00656 z"
     fill-rule="evenodd"
     id="path179" />
  <path
     fill="#000000"
     fill-opacity="0"
     d="m 259.34601,95.22002 c 1.88348,0 3.41034,-3.58466 3.41034,-8.00656 0,-4.42188 -1.52686,-8.00656 -3.41034,-8.00656"
     fill-rule="evenodd"
     id="path181" />
  <path
     fill="#000000"
     fill-opacity="0"
     d="M 272.9873,79.20692 H 259.346 c -1.88345,0 -3.4103,3.58469 -3.4103,8.00656 0,4.42191 1.52685,8.00656 3.4103,8.00656 h 13.6413 v 0 c 1.88348,0 3.41034,-3.58465 3.41034,-8.00656 0,-4.42187 -1.52686,-8.00656 -3.41034,-8.00656 z"
     fill-rule="evenodd"
     id="path183" />
  <path
     stroke="#595959"
     stroke-width="1"
     stroke-linejoin="round"
     stroke-linecap="butt"
     d="m 259.34601,95.22002 c 1.88348,0 3.41034,-3.58466 3.41034,-8.00656 0,-4.42188 -1.52686,-8.00656 -3.41034,-8.00656"
     fill-rule="evenodd"
     id="path185" />
  <path
     stroke="#595959"
     stroke-width="1"
     stroke-linejoin="round"
     stroke-linecap="butt"
     d="M 272.9873,79.20692 H 259.346 c -1.88345,0 -3.4103,3.58469 -3.4103,8.00656 0,4.42191 1.52685,8.00656 3.4103,8.00656 h 13.6413 v 0 c 1.88348,0 3.41034,-3.58465 3.41034,-8.00656 0,-4.42187 -1.52686,-8.00656 -3.41034,-8.00656 z"
     fill-rule="evenodd"
     id="path187" />
  <path
     fill="#efefef"
     d="m 250.85171,79.56256 h 16.12598 v 15.24411 h -16.12598 z"
     fill-rule="evenodd"
     id="path189" />
  <path
     fill="#eeeeee"
     d="m 246.80533,146.46152 h 13.6413 c 1.88348,0 3.41034,3.58466 3.41034,8.00656 0,4.42191 -1.52686,8.00656 -3.41034,8.00656 h -13.6413 v 0 c -1.88345,0 -3.41031,-3.58465 -3.41031,-8.00656 0,-4.4219 1.52686,-8.00656 3.41031,-8.00656 z"
     fill-rule="evenodd"
     id="path191" />
  <path
     fill="#000000"
     fill-opacity="0"
     d="m 260.44662,162.47464 c -1.88345,0 -3.41031,-3.58466 -3.41031,-8.00656 0,-4.42191 1.52686,-8.00656 3.41031,-8.00656"
     fill-rule="evenodd"
     id="path193" />
  <path
     fill="#000000"
     fill-opacity="0"
     d="m 246.80533,146.46152 h 13.6413 c 1.88348,0 3.41034,3.58466 3.41034,8.00656 0,4.42191 -1.52686,8.00656 -3.41034,8.00656 h -13.6413 v 0 c -1.88345,0 -3.41031,-3.58465 -3.41031,-8.00656 0,-4.4219 1.52686,-8.00656 3.41031,-8.00656 z"
     fill-rule="evenodd"
     id="path195" />
  <path
     stroke="#595959"
     stroke-width="1"
     stroke-linejoin="round"
     stroke-linecap="butt"
     d="m 260.44662,162.47464 c -1.88345,0 -3.41031,-3.58466 -3.41031,-8.00656 0,-4.42191 1.52686,-8.00656 3.41031,-8.00656"
     fill-rule="evenodd"
     id="path197" />
  <path
     stroke="#595959"
     stroke-width="1"
     stroke-linejoin="round"
     stroke-linecap="butt"
     d="m 246.80533,146.46152 h 13.6413 c 1.88348,0 3.41034,3.58466 3.41034,8.00656 0,4.42191 -1.52686,8.00656 -3.41034,8.00656 h -13.6413 v 0 c -1.88345,0 -3.41031,-3.58465 -3.41031,-8.00656 0,-4.4219 1.52686,-8.00656 3.41031,-8.00656 z"
     fill-rule="evenodd"
     id="path199" />
  <path
     fill="#eeeeee"
     d="m 273.51224,146.46152 h -13.6413 c -1.88345,0 -3.4103,3.58466 -3.4103,8.00656 0,4.42191 1.52685,8.00656 3.4103,8.00656 h 13.6413 v 0 c 1.88348,0 3.41034,-3.58465 3.41034,-8.00656 0,-4.4219 -1.52686,-8.00656 -3.41034,-8.00656 z"
     fill-rule="evenodd"
     id="path201" />
  <path
     fill="#000000"
     fill-opacity="0"
     d="m 259.87094,162.47464 c 1.88348,0 3.41034,-3.58466 3.41034,-8.00656 0,-4.42191 -1.52686,-8.00656 -3.41034,-8.00656"
     fill-rule="evenodd"
     id="path203" />
  <path
     fill="#000000"
     fill-opacity="0"
     d="m 273.51224,146.46152 h -13.6413 c -1.88345,0 -3.4103,3.58466 -3.4103,8.00656 0,4.42191 1.52685,8.00656 3.4103,8.00656 h 13.6413 v 0 c 1.88348,0 3.41034,-3.58465 3.41034,-8.00656 0,-4.4219 -1.52686,-8.00656 -3.41034,-8.00656 z"
     fill-rule="evenodd"
     id="path205" />
  <path
     stroke="#595959"
     stroke-width="1"
     stroke-linejoin="round"
     stroke-linecap="butt"
     d="m 259.87094,162.47464 c 1.88348,0 3.41034,-3.58466 3.41034,-8.00656 0,-4.42191 -1.52686,-8.00656 -3.41034,-8.00656"
     fill-rule="evenodd"
     id="path207" />
  <path
     stroke="#595959"
     stroke-width="1"
     stroke-linejoin="round"
     stroke-linecap="butt"
     d="m 273.51224,146.46152 h -13.6413 c -1.88345,0 -3.4103,3.58466 -3.4103,8.00656 0,4.42191 1.52685,8.00656 3.4103,8.00656 h 13.6413 v 0 c 1.88348,0 3.41034,-3.58465 3.41034,-8.00656 0,-4.4219 -1.52686,-8.00656 -3.41034,-8.00656 z"
     fill-rule="evenodd"
     id="path209" />
  <path
     fill="#efefef"
     d="m 251.37665,146.81717 h 16.12598 v 15.24408 h -16.12598 z"
     fill-rule="evenodd"
     id="path211" />
  <path
     fill="#eeeeee"
     d="m 553.77858,79.24237 h -14.12006 c -1.94958,0 -3.52996,3.71042 -3.52996,8.28744 0,4.577 1.58038,8.28742 3.52996,8.28742 h 14.12006 v 0 c 1.94958,0 3.53003,-3.71042 3.53003,-8.28742 0,-4.57702 -1.58044,-8.28744 -3.53003,-8.28744 z"
     fill-rule="evenodd"
     id="path213" />
  <path
     fill="#000000"
     fill-opacity="0"
     d="m 539.65854,95.81722 c 1.94958,0 3.53003,-3.71042 3.53003,-8.28742 0,-4.57702 -1.58044,-8.28744 -3.53003,-8.28744"
     fill-rule="evenodd"
     id="path215" />
  <path
     fill="#000000"
     fill-opacity="0"
     d="m 553.77858,79.24237 h -14.12006 c -1.94958,0 -3.52996,3.71042 -3.52996,8.28744 0,4.577 1.58038,8.28742 3.52996,8.28742 h 14.12006 v 0 c 1.94958,0 3.53003,-3.71042 3.53003,-8.28742 0,-4.57702 -1.58044,-8.28744 -3.53003,-8.28744 z"
     fill-rule="evenodd"
     id="path217" />
  <path
     stroke="#595959"
     stroke-width="1"
     stroke-linejoin="round"
     stroke-linecap="butt"
     d="m 539.65854,95.81722 c 1.94958,0 3.53003,-3.71042 3.53003,-8.28742 0,-4.57702 -1.58044,-8.28744 -3.53003,-8.28744"
     fill-rule="evenodd"
     id="path219" />
  <path
     stroke="#595959"
     stroke-width="1"
     stroke-linejoin="round"
     stroke-linecap="butt"
     d="m 553.77858,79.24237 h -14.12006 c -1.94958,0 -3.52996,3.71042 -3.52996,8.28744 0,4.577 1.58038,8.28742 3.52996,8.28742 h 14.12006 v 0 c 1.94958,0 3.53003,-3.71042 3.53003,-8.28742 0,-4.57702 -1.58044,-8.28744 -3.53003,-8.28744 z"
     fill-rule="evenodd"
     id="path221" />
  <path
     fill="#d0e0e3"
     d="m 493.60238,72.21892 v 0 c 0,-4.31689 -3.49957,-7.81644 -7.81647,-7.81644 h -31.26477 v 0 c -2.07306,0 -4.06115,0.82352 -5.52704,2.28937 -1.46588,1.46588 -2.28936,3.45401 -2.28936,5.52707 v 99.95767 c 0,4.31689 3.49951,7.81644 7.8164,7.81644 h 31.26477 c 4.3169,0 7.81647,-3.49955 7.81647,-7.81644 z"
     fill-rule="evenodd"
     id="path223" />
  <path
     stroke="#000000"
     stroke-width="2"
     stroke-linejoin="round"
     stroke-linecap="butt"
     d="m 493.60238,72.21892 v 0 c 0,-4.31689 -3.49957,-7.81644 -7.81647,-7.81644 h -31.26477 v 0 c -2.07306,0 -4.06115,0.82352 -5.52704,2.28937 -1.46588,1.46588 -2.28936,3.45401 -2.28936,5.52707 v 99.95767 c 0,4.31689 3.49951,7.81644 7.8164,7.81644 h 31.26477 c 4.3169,0 7.81647,-3.49955 7.81647,-7.81644 z"
     fill-rule="evenodd"
     id="path225" />
  <path
     fill="#efefef"
     d="m 549.04684,79.61052 h -16.69287 v 15.77951 h 16.69287 z"
     fill-rule="evenodd"
     id="path227" />
  <path
     fill="#6aa84f"
     d="m 504.56955,0 31.0744,45.14719 6.07086,-4.1811 -3.78302,20.50635 -20.50042,-3.78195 6.07086,-4.18109 -31.0744,-45.14719 z"
     fill-rule="evenodd"
     id="path229" />
  <path
     fill="#6aa84f"
     d="m 504.56955,239.86352 31.0744,-45.14722 6.07086,4.18112 -3.78302,-20.50634 -20.50042,3.78192 6.07086,4.18112 -31.0744,45.14719 z"
     fill-rule="evenodd"
     id="path231" />
  <path
     fill="#eeeeee"
     d="m 448.64128,146.46152 h -13.6413 c -1.88348,0 -3.41034,3.58466 -3.41034,8.00656 0,4.42191 1.52686,8.00656 3.41034,8.00656 h 13.6413 v 0 c 1.88348,0 3.41034,-3.58465 3.41034,-8.00656 0,-4.4219 -1.52686,-8.00656 -3.41034,-8.00656 z"
     fill-rule="evenodd"
     id="path233" />
  <path
     fill="#000000"
     fill-opacity="0"
     d="m 434.99998,162.47464 c 1.88348,0 3.41034,-3.58466 3.41034,-8.00656 0,-4.42191 -1.52686,-8.00656 -3.41034,-8.00656"
     fill-rule="evenodd"
     id="path235" />
  <path
     fill="#000000"
     fill-opacity="0"
     d="m 448.64128,146.46152 h -13.6413 c -1.88348,0 -3.41034,3.58466 -3.41034,8.00656 0,4.42191 1.52686,8.00656 3.41034,8.00656 h 13.6413 v 0 c 1.88348,0 3.41034,-3.58465 3.41034,-8.00656 0,-4.4219 -1.52686,-8.00656 -3.41034,-8.00656 z"
     fill-rule="evenodd"
     id="path237" />
  <path
     stroke="#595959"
     stroke-width="1"
     stroke-linejoin="round"
     stroke-linecap="butt"
     d="m 434.99998,162.47464 c 1.88348,0 3.41034,-3.58466 3.41034,-8.00656 0,-4.42191 -1.52686,-8.00656 -3.41034,-8.00656"
     fill-rule="evenodd"
     id="path239" />
  <path
     stroke="#595959"
     stroke-width="1"
     stroke-linejoin="round"
     stroke-linecap="butt"
     d="m 448.64128,146.46152 h -13.6413 c -1.88348,0 -3.41034,3.58466 -3.41034,8.00656 0,4.42191 1.52686,8.00656 3.41034,8.00656 h 13.6413 v 0 c 1.88348,0 3.41034,-3.58465 3.41034,-8.00656 0,-4.4219 -1.52686,-8.00656 -3.41034,-8.00656 z"
     fill-rule="evenodd"
     id="path241" />
  <path
     fill="#eeeeee"
     d="m 448.64128,79.20692 h -13.6413 c -1.88348,0 -3.41034,3.58469 -3.41034,8.00656 0,4.42191 1.52686,8.00656 3.41034,8.00656 h 13.6413 v 0 c 1.88348,0 3.41034,-3.58465 3.41034,-8.00656 0,-4.42187 -1.52686,-8.00656 -3.41034,-8.00656 z"
     fill-rule="evenodd"
     id="path243" />
  <path
     fill="#000000"
     fill-opacity="0"
     d="m 434.99998,95.22002 c 1.88348,0 3.41034,-3.58466 3.41034,-8.00656 0,-4.42188 -1.52686,-8.00656 -3.41034,-8.00656"
     fill-rule="evenodd"
     id="path245" />
  <path
     fill="#000000"
     fill-opacity="0"
     d="m 448.64128,79.20692 h -13.6413 c -1.88348,0 -3.41034,3.58469 -3.41034,8.00656 0,4.42191 1.52686,8.00656 3.41034,8.00656 h 13.6413 v 0 c 1.88348,0 3.41034,-3.58465 3.41034,-8.00656 0,-4.42187 -1.52686,-8.00656 -3.41034,-8.00656 z"
     fill-rule="evenodd"
     id="path247" />
  <path
     stroke="#595959"
     stroke-width="1"
     stroke-linejoin="round"
     stroke-linecap="butt"
     d="m 434.99998,95.22002 c 1.88348,0 3.41034,-3.58466 3.41034,-8.00656 0,-4.42188 -1.52686,-8.00656 -3.41034,-8.00656"
     fill-rule="evenodd"
     id="path249" />
  <path
     stroke="#595959"
     stroke-width="1"
     stroke-linejoin="round"
     stroke-linecap="butt"
     d="m 448.64128,79.20692 h -13.6413 c -1.88348,0 -3.41034,3.58469 -3.41034,8.00656 0,4.42191 1.52686,8.00656 3.41034,8.00656 h 13.6413 v 0 c 1.88348,0 3.41034,-3.58465 3.41034,-8.00656 0,-4.42187 -1.52686,-8.00656 -3.41034,-8.00656 z"
     fill-rule="evenodd"
     id="path251" />
  <path
     fill="#eeeeee"
     d="m 493.84038,112.63385 h 14.12006 c 1.94958,0 3.53003,3.71042 3.53003,8.28744 0,4.577 -1.58045,8.28742 -3.53003,8.28742 h -14.12006 v 0 c -1.94958,0 -3.53003,-3.71042 -3.53003,-8.28742 0,-4.57702 1.58044,-8.28744 3.53003,-8.28744 z"
     fill-rule="evenodd"
     id="path253" />
  <path
     fill="#000000"
     fill-opacity="0"
     d="m 507.96042,129.20872 c -1.94958,0 -3.53003,-3.71042 -3.53003,-8.28742 0,-4.57702 1.58044,-8.28744 3.53003,-8.28744"
     fill-rule="evenodd"
     id="path255" />
  <path
     fill="#000000"
     fill-opacity="0"
     d="m 493.84038,112.63385 h 14.12006 c 1.94958,0 3.53003,3.71042 3.53003,8.28744 0,4.577 -1.58045,8.28742 -3.53003,8.28742 h -14.12006 v 0 c -1.94958,0 -3.53003,-3.71042 -3.53003,-8.28742 0,-4.57702 1.58044,-8.28744 3.53003,-8.28744 z"
     fill-rule="evenodd"
     id="path257" />
  <path
     stroke="#595959"
     stroke-width="1"
     stroke-linejoin="round"
     stroke-linecap="butt"
     d="m 507.96042,129.20872 c -1.94958,0 -3.53003,-3.71042 -3.53003,-8.28742 0,-4.57702 1.58044,-8.28744 3.53003,-8.28744"
     fill-rule="evenodd"
     id="path259" />
  <path
     stroke="#595959"
     stroke-width="1"
     stroke-linejoin="round"
     stroke-linecap="butt"
     d="m 493.84038,112.63385 h 14.12006 c 1.94958,0 3.53003,3.71042 3.53003,8.28744 0,4.577 -1.58045,8.28742 -3.53003,8.28742 h -14.12006 v 0 c -1.94958,0 -3.53003,-3.71042 -3.53003,-8.28742 0,-4.57702 1.58044,-8.28744 3.53003,-8.28744 z"
     fill-rule="evenodd"
     id="path261" />
  <path
     fill="#eeeeee"
     d="m 553.78164,79.24492 h -14.12012 c -1.94958,0 -3.53003,3.71048 -3.53003,8.2876 0,4.57712 1.58045,8.2876 3.53003,8.2876 h 14.12012 v 0 c 1.94958,0 3.53003,-3.71048 3.53003,-8.2876 0,-4.57712 -1.58044,-8.2876 -3.53003,-8.2876 z"
     fill-rule="evenodd"
     id="path263" />
  <path
     fill="#000000"
     fill-opacity="0"
     d="m 539.66153,95.8201 c 1.94958,0 3.53003,-3.71048 3.53003,-8.2876 0,-4.57712 -1.58044,-8.2876 -3.53003,-8.2876"
     fill-rule="evenodd"
     id="path265" />
  <path
     fill="#000000"
     fill-opacity="0"
     d="m 553.78164,79.24492 h -14.12012 c -1.94958,0 -3.53003,3.71048 -3.53003,8.2876 0,4.57712 1.58045,8.2876 3.53003,8.2876 h 14.12012 v 0 c 1.94958,0 3.53003,-3.71048 3.53003,-8.2876 0,-4.57712 -1.58044,-8.2876 -3.53003,-8.2876 z"
     fill-rule="evenodd"
     id="path267" />
  <path
     stroke="#595959"
     stroke-width="1"
     stroke-linejoin="round"
     stroke-linecap="butt"
     d="m 539.66153,95.8201 c 1.94958,0 3.53003,-3.71048 3.53003,-8.2876 0,-4.57712 -1.58044,-8.2876 -3.53003,-8.2876"
     fill-rule="evenodd"
     id="path269" />
  <path
     stroke="#595959"
     stroke-width="1"
     stroke-linejoin="round"
     stroke-linecap="butt"
     d="m 553.78164,79.24492 h -14.12012 c -1.94958,0 -3.53003,3.71048 -3.53003,8.2876 0,4.57712 1.58045,8.2876 3.53003,8.2876 h 14.12012 v 0 c 1.94958,0 3.53003,-3.71048 3.53003,-8.2876 0,-4.57712 -1.58044,-8.2876 -3.53003,-8.2876 z"
     fill-rule="evenodd"
     id="path271" />
  <path
     fill="#eeeeee"
     d="m 538.17038,79.24492 h 14.12012 c 1.94952,0 3.52997,3.71048 3.52997,8.2876 0,4.57712 -1.58045,8.2876 -3.52997,8.2876 h -14.12012 v 0 c -1.94958,0 -3.53003,-3.71048 -3.53003,-8.2876 0,-4.57712 1.58044,-8.2876 3.53003,-8.2876 z"
     fill-rule="evenodd"
     id="path273" />
  <path
     fill="#000000"
     fill-opacity="0"
     d="m 552.29048,95.8201 c -1.94958,0 -3.53003,-3.71048 -3.53003,-8.2876 0,-4.57712 1.58044,-8.2876 3.53003,-8.2876"
     fill-rule="evenodd"
     id="path275" />
  <path
     fill="#000000"
     fill-opacity="0"
     d="m 538.17038,79.24492 h 14.12012 c 1.94952,0 3.52997,3.71048 3.52997,8.2876 0,4.57712 -1.58045,8.2876 -3.52997,8.2876 h -14.12012 v 0 c -1.94958,0 -3.53003,-3.71048 -3.53003,-8.2876 0,-4.57712 1.58044,-8.2876 3.53003,-8.2876 z"
     fill-rule="evenodd"
     id="path277" />
  <path
     stroke="#595959"
     stroke-width="1"
     stroke-linejoin="round"
     stroke-linecap="butt"
     d="m 552.29048,95.8201 c -1.94958,0 -3.53003,-3.71048 -3.53003,-8.2876 0,-4.57712 1.58044,-8.2876 3.53003,-8.2876"
     fill-rule="evenodd"
     id="path279" />
  <path
     stroke="#595959"
     stroke-width="1"
     stroke-linejoin="round"
     stroke-linecap="butt"
     d="m 538.17038,79.24492 h 14.12012 c 1.94952,0 3.52997,3.71048 3.52997,8.2876 0,4.57712 -1.58045,8.2876 -3.52997,8.2876 h -14.12012 v 0 c -1.94958,0 -3.53003,-3.71048 -3.53003,-8.2876 0,-4.57712 1.58044,-8.2876 3.53003,-8.2876 z"
     fill-rule="evenodd"
     id="path281" />
  <path
     fill="#eeeeee"
     d="m 493.84318,112.63709 h 14.12012 c 1.94958,0 3.53003,3.71048 3.53003,8.28757 0,4.57711 -1.58045,8.2876 -3.53003,8.2876 h -14.12012 v 0 c -1.94958,0 -3.53003,-3.71048 -3.53003,-8.2876 0,-4.57709 1.58044,-8.28757 3.53003,-8.28757 z"
     fill-rule="evenodd"
     id="path283" />
  <path
     fill="#000000"
     fill-opacity="0"
     d="m 507.96328,129.21225 c -1.94959,0 -3.53003,-3.71048 -3.53003,-8.2876 0,-4.57709 1.58044,-8.28757 3.53003,-8.28757"
     fill-rule="evenodd"
     id="path285" />
  <path
     fill="#000000"
     fill-opacity="0"
     d="m 493.84318,112.63709 h 14.12012 c 1.94958,0 3.53003,3.71048 3.53003,8.28757 0,4.57711 -1.58045,8.2876 -3.53003,8.2876 h -14.12012 v 0 c -1.94958,0 -3.53003,-3.71048 -3.53003,-8.2876 0,-4.57709 1.58044,-8.28757 3.53003,-8.28757 z"
     fill-rule="evenodd"
     id="path287" />
  <path
     stroke="#595959"
     stroke-width="1"
     stroke-linejoin="round"
     stroke-linecap="butt"
     d="m 507.96328,129.21225 c -1.94959,0 -3.53003,-3.71048 -3.53003,-8.2876 0,-4.57709 1.58044,-8.28757 3.53003,-8.28757"
     fill-rule="evenodd"
     id="path289" />
  <path
     stroke="#595959"
     stroke-width="1"
     stroke-linejoin="round"
     stroke-linecap="butt"
     d="m 493.84318,112.63709 h 14.12012 c 1.94958,0 3.53003,3.71048 3.53003,8.28757 0,4.57711 -1.58045,8.2876 -3.53003,8.2876 h -14.12012 v 0 c -1.94958,0 -3.53003,-3.71048 -3.53003,-8.2876 0,-4.57709 1.58044,-8.28757 3.53003,-8.28757 z"
     fill-rule="evenodd"
     id="path291" />
  <path
     fill="#eeeeee"
     d="m 504.06418,112.73346 33.2265,-33.42249 h 16.5235 l -49.75,50.0434 z"
     fill-rule="evenodd"
     id="path293" />
  <path
     stroke="#595959"
     stroke-width="1"
     stroke-linejoin="round"
     stroke-linecap="butt"
     d="m 504.06418,112.73346 33.2265,-33.42249 h 16.5235 l -49.75,50.0434 z"
     fill-rule="evenodd"
     id="path295" />
  <path
     fill="#efefef"
     d="m 553.77848,86.50827 h -18.45245 v 8.80243 h 18.45245 z"
     fill-rule="evenodd"
     id="path297" />
  <path
     fill="#eeeeee"
     d="m 553.53168,79.80594 h -13.91907 c -1.92181,0 -3.47973,3.45929 -3.47973,7.72656 0,4.26728 1.55792,7.72657 3.47973,7.72657 h 13.91907 v 0 c 1.92181,0 3.47974,-3.45929 3.47974,-7.72657 0,-4.26727 -1.55793,-7.72656 -3.47974,-7.72656 z"
     fill-rule="evenodd"
     id="path299" />
  <path
     fill="#000000"
     fill-opacity="0"
     d="m 539.61264,95.25907 c 1.92181,0 3.4798,-3.45929 3.4798,-7.72656 0,-4.26728 -1.55799,-7.72657 -3.4798,-7.72657"
     fill-rule="evenodd"
     id="path301" />
  <path
     fill="#000000"
     fill-opacity="0"
     d="m 553.53168,79.80594 h -13.91907 c -1.92181,0 -3.47973,3.45929 -3.47973,7.72656 0,4.26728 1.55792,7.72657 3.47973,7.72657 h 13.91907 v 0 c 1.92181,0 3.47974,-3.45929 3.47974,-7.72657 0,-4.26727 -1.55793,-7.72656 -3.47974,-7.72656 z"
     fill-rule="evenodd"
     id="path303" />
  <path
     fill="#eeeeee"
     d="m 553.78164,162.47757 h -14.12012 c -1.94958,0 -3.53003,-3.71048 -3.53003,-8.2876 0,-4.57709 1.58045,-8.28757 3.53003,-8.28757 h 14.12012 v 0 c 1.94958,0 3.53003,3.71048 3.53003,8.28757 0,4.57712 -1.58044,8.2876 -3.53003,8.2876 z"
     fill-rule="evenodd"
     id="path305" />
  <path
     fill="#000000"
     fill-opacity="0"
     d="m 539.66153,145.90242 c 1.94958,0 3.53003,3.71048 3.53003,8.28757 0,4.57711 -1.58044,8.2876 -3.53003,8.2876"
     fill-rule="evenodd"
     id="path307" />
  <path
     fill="#000000"
     fill-opacity="0"
     d="m 553.78164,162.47757 h -14.12012 c -1.94958,0 -3.53003,-3.71048 -3.53003,-8.2876 0,-4.57709 1.58045,-8.28757 3.53003,-8.28757 h 14.12012 v 0 c 1.94958,0 3.53003,3.71048 3.53003,8.28757 0,4.57712 -1.58044,8.2876 -3.53003,8.2876 z"
     fill-rule="evenodd"
     id="path309" />
  <path
     stroke="#595959"
     stroke-width="1"
     stroke-linejoin="round"
     stroke-linecap="butt"
     d="m 539.66153,145.90242 c 1.94958,0 3.53003,3.71048 3.53003,8.28757 0,4.57711 -1.58044,8.2876 -3.53003,8.2876"
     fill-rule="evenodd"
     id="path311" />
  <path
     stroke="#595959"
     stroke-width="1"
     stroke-linejoin="round"
     stroke-linecap="butt"
     d="m 553.78164,162.47757 h -14.12012 c -1.94958,0 -3.53003,-3.71048 -3.53003,-8.2876 0,-4.57709 1.58045,-8.28757 3.53003,-8.28757 h 14.12012 v 0 c 1.94958,0 3.53003,3.71048 3.53003,8.28757 0,4.57712 -1.58044,8.2876 -3.53003,8.2876 z"
     fill-rule="evenodd"
     id="path313" />
  <path
     fill="#eeeeee"
     d="m 538.17038,162.47757 h 14.12012 c 1.94952,0 3.52997,-3.71048 3.52997,-8.2876 0,-4.57709 -1.58045,-8.28757 -3.52997,-8.28757 h -14.12012 v 0 c -1.94958,0 -3.53003,3.71048 -3.53003,8.28757 0,4.57712 1.58044,8.2876 3.53003,8.2876 z"
     fill-rule="evenodd"
     id="path315" />
  <path
     fill="#000000"
     fill-opacity="0"
     d="m 552.29048,145.90242 c -1.94958,0 -3.53003,3.71048 -3.53003,8.28757 0,4.57711 1.58044,8.2876 3.53003,8.2876"
     fill-rule="evenodd"
     id="path317" />
  <path
     fill="#000000"
     fill-opacity="0"
     d="m 538.17038,162.47757 h 14.12012 c 1.94952,0 3.52997,-3.71048 3.52997,-8.2876 0,-4.57709 -1.58045,-8.28757 -3.52997,-8.28757 h -14.12012 v 0 c -1.94958,0 -3.53003,3.71048 -3.53003,8.28757 0,4.57712 1.58044,8.2876 3.53003,8.2876 z"
     fill-rule="evenodd"
     id="path319" />
  <path
     stroke="#595959"
     stroke-width="1"
     stroke-linejoin="round"
     stroke-linecap="butt"
     d="m 552.29048,145.90242 c -1.94958,0 -3.53003,3.71048 -3.53003,8.28757 0,4.57711 1.58044,8.2876 3.53003,8.2876"
     fill-rule="evenodd"
     id="path321" />
  <path
     stroke="#595959"
     stroke-width="1"
     stroke-linejoin="round"
     stroke-linecap="butt"
     d="m 538.17038,162.47757 h 14.12012 c 1.94952,0 3.52997,-3.71048 3.52997,-8.2876 0,-4.57709 -1.58045,-8.28757 -3.52997,-8.28757 h -14.12012 v 0 c -1.94958,0 -3.53003,3.71048 -3.53003,8.28757 0,4.57712 1.58044,8.2876 3.53003,8.2876 z"
     fill-rule="evenodd"
     id="path323" />
  <path
     fill="#eeeeee"
     d="m 504.06418,129.05372 33.2265,33.42252 h 16.5235 l -49.75,-50.04343 z"
     fill-rule="evenodd"
     id="path325" />
  <path
     stroke="#595959"
     stroke-width="1"
     stroke-linejoin="round"
     stroke-linecap="butt"
     d="m 504.06418,129.05372 33.2265,33.42252 h 16.5235 l -49.75,-50.04343 z"
     fill-rule="evenodd"
     id="path327" />
  <path
     fill="#efefef"
     d="m 553.77848,155.21424 h -18.45667 v -8.78742 h 18.45667 z"
     fill-rule="evenodd"
     id="path329" />
  <path
     fill="#eeeeee"
     d="m 553.53198,161.9169 h -13.91956 c -1.92187,0 -3.47985,-3.43192 -3.47985,-7.66537 0,-4.23346 1.55798,-7.66535 3.47985,-7.66535 h 13.91956 v 0 c 1.92187,0 3.47986,3.43189 3.47986,7.66535 0,4.23345 -1.55799,7.66537 -3.47986,7.66537 z"
     fill-rule="evenodd"
     id="path331" />
  <path
     fill="#000000"
     fill-opacity="0"
     d="m 539.61238,146.58618 c 1.92194,0 3.47992,3.43188 3.47992,7.66534 0,4.23346 -1.55798,7.66538 -3.47992,7.66538"
     fill-rule="evenodd"
     id="path333" />
  <path
     fill="#000000"
     fill-opacity="0"
     d="m 553.53198,161.9169 h -13.91956 c -1.92187,0 -3.47985,-3.43192 -3.47985,-7.66537 0,-4.23346 1.55798,-7.66535 3.47985,-7.66535 h 13.91956 v 0 c 1.92187,0 3.47986,3.43189 3.47986,7.66535 0,4.23345 -1.55799,7.66537 -3.47986,7.66537 z"
     fill-rule="evenodd"
     id="path335" />
  <path
     fill="#eeeeee"
     d="m 505.59433,113.18994 h -11.33087 c -1.56446,0 -2.8327,3.45929 -2.8327,7.72656 0,4.26728 1.26824,7.7266 2.8327,7.7266 h 11.33087 v 0 c 1.56445,0 2.8327,-3.45932 2.8327,-7.7266 0,-4.26727 -1.26825,-7.72656 -2.8327,-7.72656 z"
     fill-rule="evenodd"
     id="path337" />
  <path
     fill="#000000"
     fill-opacity="0"
     d="m 494.26348,128.6431 c 1.56445,0 2.8327,-3.45932 2.8327,-7.72659 0,-4.26728 -1.26825,-7.72657 -2.8327,-7.72657"
     fill-rule="evenodd"
     id="path339" />
  <path
     fill="#000000"
     fill-opacity="0"
     d="m 505.59433,113.18994 h -11.33087 c -1.56446,0 -2.8327,3.45929 -2.8327,7.72656 0,4.26728 1.26824,7.7266 2.8327,7.7266 h 11.33087 v 0 c 1.56445,0 2.8327,-3.45932 2.8327,-7.7266 0,-4.26727 -1.26825,-7.72656 -2.8327,-7.72656 z"
     fill-rule="evenodd"
     id="path341" />
  <path
     fill="#efefef"
     d="m 507.24862,125.32602 13.04065,-13.04062 -7.5636,-7.56357 -13.04065,13.04065 z"
     fill-rule="evenodd"
     id="path343" />
</svg>
