<?xml version="1.0" encoding="UTF-8" standalone="no"?>
<svg
   xmlns:dc="http://purl.org/dc/elements/1.1/"
   xmlns:cc="http://creativecommons.org/ns#"
   xmlns:rdf="http://www.w3.org/1999/02/22-rdf-syntax-ns#"
   xmlns:svg="http://www.w3.org/2000/svg"
   xmlns="http://www.w3.org/2000/svg"
   xmlns:sodipodi="http://sodipodi.sourceforge.net/DTD/sodipodi-0.dtd"
   xmlns:inkscape="http://www.inkscape.org/namespaces/inkscape"
   version="1.1"
   viewBox="0 0 593.12067 264.16013"
   stroke-miterlimit="10"
   id="svg335"
   sodipodi:docname="mlr3Pipelines graphics user 2019.svg"
   width="593.12067"
   height="264.16013"
   style="fill:none;stroke:none;stroke-linecap:square;stroke-miterlimit:10"
   inkscape:version="0.92.4 5da689c313, 2019-01-14">
  <metadata
     id="metadata341">
    <rdf:RDF>
      <cc:Work
         rdf:about="">
        <dc:format>image/svg+xml</dc:format>
        <dc:type
           rdf:resource="http://purl.org/dc/dcmitype/StillImage" />
        <dc:title></dc:title>
      </cc:Work>
    </rdf:RDF>
  </metadata>
  <defs
     id="defs339" />
  <sodipodi:namedview
     pagecolor="#ffffff"
     bordercolor="#666666"
     borderopacity="1"
     objecttolerance="10"
     gridtolerance="10"
     guidetolerance="10"
     inkscape:pageopacity="0"
     inkscape:pageshadow="2"
     inkscape:window-width="2560"
     inkscape:window-height="1381"
     id="namedview337"
     showgrid="false"
     fit-margin-top="0"
     fit-margin-left="0"
     fit-margin-right="0"
     fit-margin-bottom="0"
     inkscape:zoom="1.122532"
     inkscape:cx="404.21125"
     inkscape:cy="93.263294"
     inkscape:window-x="0"
     inkscape:window-y="0"
     inkscape:window-maximized="1"
     inkscape:current-layer="svg335" />
  <clipPath
     id="g5cc48913b2_0_185.0">
    <path
       d="M 0,0 H 960 V 540 H 0 Z"
       id="path2"
       inkscape:connector-curvature="0"
       style="clip-rule:nonzero" />
  </clipPath>
  <path
     style="fill:#d0e0e3;fill-rule:evenodd"
     inkscape:connector-curvature="0"
     id="path7"
     d="m 378.21132,159.7694 v 0 c 0,-9.95584 8.0708,-18.02661 18.02661,-18.02661 h 72.10425 v 0 c 4.78095,0 9.36609,1.89923 12.74677,5.27988 3.38061,3.38064 5.27984,7.96575 5.27984,12.74673 v 85.36411 c 0,9.95581 -8.0708,18.02661 -18.02661,18.02661 h -72.10425 c -9.95581,0 -18.02661,-8.0708 -18.02661,-18.02661 z" />
  <path
     style="fill-rule:evenodd;stroke:#000000;stroke-width:2;stroke-linecap:butt;stroke-linejoin:round"
     inkscape:connector-curvature="0"
     id="path9"
     d="m 378.21132,159.7694 v 0 c 0,-9.95584 8.0708,-18.02661 18.02661,-18.02661 h 72.10425 v 0 c 4.78095,0 9.36609,1.89923 12.74677,5.27988 3.38061,3.38064 5.27984,7.96575 5.27984,12.74673 v 85.36411 c 0,9.95581 -8.0708,18.02661 -18.02661,18.02661 h -72.10425 c -9.95581,0 -18.02661,-8.0708 -18.02661,-18.02661 z" />
  <path
     style="fill:#000000;fill-rule:nonzero"
     inkscape:connector-curvature="0"
     id="path11"
     d="m 421.81468,199.17143 h -1.40625 l -0.35938,-4.76563 q -0.23437,-2.8125 -0.26562,-4.3125 l -2.28125,7.875 h -1.375 l -2.40625,-7.89062 q 0,1.92187 -0.1875,4.4375 l -0.35938,4.65625 h -1.375 l 0.875,-10.5625 h 1.95313 l 2.23437,7.6875 2.10938,-7.6875 h 1.96875 z m 5.44092,-8.26563 q 1.70312,0 2.64062,1.14063 0.95313,1.125 0.95313,3.07812 0,1.25 -0.4375,2.21875 -0.42188,0.95313 -1.23438,1.48438 -0.8125,0.53125 -1.9375,0.53125 -1.6875,0 -2.64062,-1.125 -0.95313,-1.14063 -0.95313,-3.09375 0,-1.25 0.42188,-2.20313 0.4375,-0.96875 1.25,-1.5 0.8125,-0.53125 1.9375,-0.53125 z m 0,1.14063 q -2.09375,0 -2.09375,3.09375 0,3.07812 2.07812,3.07812 2.09375,0 2.09375,-3.09375 0,-3.07812 -2.07812,-3.07812 z m 12.17041,-4.20313 v 11.32813 h -1.23438 l -0.14062,-1.125 q -0.39063,0.625 -1,0.96875 -0.59375,0.34375 -1.32813,0.34375 -1.4375,0 -2.25,-1.125 -0.79687,-1.14063 -0.79687,-3.0625 0,-1.25 0.375,-2.20313 0.39062,-0.96875 1.10937,-1.51562 0.71875,-0.54688 1.6875,-0.54688 1.23438,0 2.17188,1 v -4.23437 z m -3.39063,10.39063 q 0.64063,0 1.09375,-0.29688 0.46875,-0.29687 0.89063,-0.89062 v -3.95313 q -0.39063,-0.53125 -0.84375,-0.79687 -0.45313,-0.26563 -1.01563,-0.26563 -0.9375,0 -1.45312,0.78125 -0.51563,0.78125 -0.51563,2.32813 0,1.5625 0.46875,2.32812 0.48438,0.76563 1.375,0.76563 z m 12.41626,-3.34375 q 0,0.35937 -0.0312,0.71875 h -5.15625 q 0.0937,1.34375 0.67188,1.96875 0.57812,0.625 1.5,0.625 0.59375,0 1.07812,-0.15625 0.48438,-0.17188 1.03125,-0.54688 l 0.60938,0.84375 q -1.28125,1.01563 -2.82813,1.01563 -1.67187,0 -2.625,-1.09375 -0.9375,-1.10938 -0.9375,-3.04688 0,-1.26562 0.40625,-2.23437 0.40625,-0.96875 1.15625,-1.51563 0.76563,-0.5625 1.79688,-0.5625 1.60937,0 2.46875,1.0625 0.85937,1.0625 0.85937,2.92188 z m -1.40625,-0.40625 q 0,-1.20313 -0.46875,-1.82813 -0.46875,-0.625 -1.42187,-0.625 -1.73438,0 -1.89063,2.54688 h 3.78125 z m 5.26007,4.875 q -0.78125,0 -1.23437,-0.46875 -0.45313,-0.46875 -0.45313,-1.3125 v -9.73438 l 1.42188,-0.17187 v 9.875 q 0,0.34375 0.10937,0.5 0.10938,0.14062 0.39063,0.14062 0.29687,0 0.51562,-0.0937 l 0.375,0.98438 q -0.51562,0.28125 -1.125,0.28125 z" />
  <path
     style="fill:#000000;fill-rule:nonzero"
     inkscape:connector-curvature="0"
     id="path13"
     d="m 405.73212,217.17143 -0.79687,-2.65625 h -4 l -0.79688,2.65625 h -1.46875 l 3.39063,-10.5625 h 1.82812 l 3.375,10.5625 z m -4.4375,-3.82813 h 3.29688 l -1.64063,-5.51562 z m 13.45489,-4.25 -2.75,8.07813 h -1.70312 l -2.78125,-8.07813 h 1.53125 l 2.10937,6.82813 2.10938,-6.82813 z m 7.65204,3.79688 q 0,0.35937 -0.0312,0.71875 h -5.15625 q 0.0937,1.34375 0.67188,1.96875 0.57812,0.625 1.5,0.625 0.59375,0 1.07812,-0.15625 0.48438,-0.17188 1.03125,-0.54688 l 0.60938,0.84375 q -1.28125,1.01563 -2.82813,1.01563 -1.67187,0 -2.625,-1.09375 -0.9375,-1.10938 -0.9375,-3.04688 0,-1.26562 0.40625,-2.23437 0.40625,-0.96875 1.15625,-1.51563 0.76563,-0.5625 1.79688,-0.5625 1.60937,0 2.46875,1.0625 0.85937,1.0625 0.85937,2.92188 z m -1.40625,-0.40625 q 0,-1.20313 -0.46875,-1.82813 -0.46875,-0.625 -1.42187,-0.625 -1.73438,0 -1.89063,2.54688 h 3.78125 z m 7.16632,-3.57813 q 0.42188,0 0.79688,0.0937 l -0.26563,1.375 q -0.35937,-0.0781 -0.70312,-0.0781 -0.75,0 -1.21875,0.54687 -0.45313,0.54688 -0.71875,1.71875 v 4.60938 H 424.646 v -8.07813 h 1.21875 l 0.14062,1.64063 q 0.3125,-0.90625 0.85938,-1.35938 0.5625,-0.46875 1.29687,-0.46875 z m 7.30188,6.375 q 0,0.5 0.17188,0.73438 0.17187,0.23437 0.51562,0.35937 l -0.32812,0.98438 q -0.625,-0.0781 -1.01563,-0.34375 -0.375,-0.28125 -0.5625,-0.875 -0.8125,1.21875 -2.40625,1.21875 -1.20312,0 -1.89062,-0.67188 -0.6875,-0.6875 -0.6875,-1.76562 0,-1.29688 0.92187,-1.98438 0.9375,-0.6875 2.64063,-0.6875 h 1.23437 v -0.59375 q 0,-0.85937 -0.42187,-1.21875 -0.40625,-0.375 -1.26563,-0.375 -0.89062,0 -2.17187,0.42188 l -0.35938,-1.01563 q 1.51563,-0.5625 2.79688,-0.5625 1.42187,0 2.125,0.70313 0.70312,0.70312 0.70312,1.98437 z m -3.29687,1.01563 q 1.20312,0 1.89062,-1.25 v -1.85938 h -1.04687 q -2.25,0 -2.25,1.65625 0,0.71875 0.34375,1.09375 0.35937,0.35938 1.0625,0.35938 z m 12.56018,-6.82813 q -0.45312,0.14063 -1.01562,0.1875 -0.54688,0.0469 -1.34375,0.0469 1.42187,0.64062 1.42187,2.04687 0,1.20313 -0.82812,1.96875 -0.82813,0.76563 -2.25,0.76563 -0.54688,0 -1.03125,-0.14063 -0.17188,0.10938 -0.28125,0.32813 -0.10938,0.20312 -0.10938,0.42187 0,0.65625 1.0625,0.65625 h 1.28125 q 0.8125,0 1.4375,0.29688 0.625,0.28125 0.96875,0.79687 0.35938,0.5 0.35938,1.14063 0,1.1875 -0.96875,1.8125 -0.96875,0.64062 -2.82813,0.64062 -1.29687,0 -2.0625,-0.26562 -0.75,-0.26563 -1.07812,-0.8125 -0.3125,-0.53125 -0.3125,-1.375 h 1.26562 q 0,0.48437 0.17188,0.76562 0.1875,0.29688 0.65625,0.4375 0.48437,0.14063 1.35937,0.14063 1.28125,0 1.8125,-0.3125 0.54688,-0.3125 0.54688,-0.9375 0,-0.5625 -0.4375,-0.85938 -0.42188,-0.29687 -1.1875,-0.29687 h -1.26563 q -1.03125,0 -1.5625,-0.4375 -0.53125,-0.4375 -0.53125,-1.09375 0,-0.39063 0.23438,-0.75 0.23437,-0.375 0.65625,-0.67188 -0.70313,-0.375 -1.03125,-0.90625 -0.32813,-0.54687 -0.32813,-1.32812 0,-0.8125 0.40625,-1.45313 0.40625,-0.65625 1.10938,-1.01562 0.71875,-0.35938 1.59375,-0.35938 0.95312,0.0156 1.59375,-0.0625 0.64062,-0.0937 1.0625,-0.23437 0.42187,-0.14063 1.04687,-0.42188 z m -4.10937,0.45313 q -0.79688,0 -1.23438,0.5 -0.4375,0.5 -0.4375,1.3125 0,0.82812 0.4375,1.32812 0.45313,0.48438 1.26563,0.48438 0.82812,0 1.26562,-0.46875 0.4375,-0.48438 0.4375,-1.35938 0,-1.79687 -1.73437,-1.79687 z m 6.97064,-0.82813 v 8.07813 h -1.40625 v -8.07813 z m -0.70313,-3.875 q 0.4375,0 0.71875,0.28125 0.28125,0.26563 0.28125,0.6875 0,0.40625 -0.28125,0.67188 -0.28125,0.26562 -0.71875,0.26562 -0.4375,0 -0.71875,-0.26562 -0.26562,-0.26563 -0.26562,-0.67188 0,-0.42187 0.26562,-0.6875 0.28125,-0.28125 0.71875,-0.28125 z m 7.41632,3.6875 q 1.10938,0 1.73438,0.67188 0.625,0.65625 0.625,1.79687 v 5.79688 h -1.42188 v -5.59375 q 0,-0.85938 -0.32812,-1.20313 -0.3125,-0.35937 -0.9375,-0.35937 -0.64063,0 -1.14063,0.375 -0.48437,0.35937 -0.92187,1.04687 v 5.73438 h -1.40625 v -8.07813 h 1.21875 l 0.125,1.20313 q 0.42187,-0.65625 1.04687,-1.01563 0.64063,-0.375 1.40625,-0.375 z m 11.70105,0.5625 q -0.45312,0.14063 -1.01562,0.1875 -0.54688,0.0469 -1.34375,0.0469 1.42187,0.64062 1.42187,2.04687 0,1.20313 -0.82812,1.96875 -0.82813,0.76563 -2.25,0.76563 -0.54688,0 -1.03125,-0.14063 -0.17188,0.10938 -0.28125,0.32813 -0.10938,0.20312 -0.10938,0.42187 0,0.65625 1.0625,0.65625 h 1.28125 q 0.8125,0 1.4375,0.29688 0.625,0.28125 0.96875,0.79687 0.35938,0.5 0.35938,1.14063 0,1.1875 -0.96875,1.8125 -0.96875,0.64062 -2.82813,0.64062 -1.29687,0 -2.0625,-0.26562 -0.75,-0.26563 -1.07812,-0.8125 -0.3125,-0.53125 -0.3125,-1.375 h 1.26562 q 0,0.48437 0.17188,0.76562 0.1875,0.29688 0.65625,0.4375 0.48437,0.14063 1.35937,0.14063 1.28125,0 1.8125,-0.3125 0.54688,-0.3125 0.54688,-0.9375 0,-0.5625 -0.4375,-0.85938 -0.42188,-0.29687 -1.1875,-0.29687 h -1.26563 q -1.03125,0 -1.5625,-0.4375 -0.53125,-0.4375 -0.53125,-1.09375 0,-0.39063 0.23438,-0.75 0.23437,-0.375 0.65625,-0.67188 -0.70313,-0.375 -1.03125,-0.90625 -0.32813,-0.54687 -0.32813,-1.32812 0,-0.8125 0.40625,-1.45313 0.40625,-0.65625 1.10938,-1.01562 0.71875,-0.35938 1.59375,-0.35938 0.95312,0.0156 1.59375,-0.0625 0.64062,-0.0937 1.0625,-0.23437 0.42187,-0.14063 1.04687,-0.42188 z m -4.10937,0.45313 q -0.79688,0 -1.23438,0.5 -0.4375,0.5 -0.4375,1.3125 0,0.82812 0.4375,1.32812 0.45313,0.48438 1.26563,0.48438 0.82812,0 1.26562,-0.46875 0.4375,-0.48438 0.4375,-1.35938 0,-1.79687 -1.73437,-1.79687 z" />
  <path
     style="fill:#eeeeee;fill-rule:evenodd"
     inkscape:connector-curvature="0"
     id="path15"
     d="m 484.03105,194.44547 h 13.6413 c 1.88348,0 3.41034,3.58469 3.41034,8.00656 0,4.42191 -1.52686,8.00656 -3.41034,8.00656 h -13.6413 v 0 c -1.88348,0 -3.41034,-3.58465 -3.41034,-8.00656 0,-4.42187 1.52686,-8.00656 3.41034,-8.00656 z" />
  <path
     style="fill:#000000;fill-opacity:0;fill-rule:evenodd"
     inkscape:connector-curvature="0"
     id="path17"
     d="m 497.67232,210.4586 c -1.88348,0 -3.41034,-3.58466 -3.41034,-8.00656 0,-4.42188 1.52686,-8.00656 3.41034,-8.00656" />
  <path
     style="fill:#000000;fill-opacity:0;fill-rule:evenodd"
     inkscape:connector-curvature="0"
     id="path19"
     d="m 484.03105,194.44547 h 13.6413 c 1.88348,0 3.41034,3.58469 3.41034,8.00656 0,4.42191 -1.52686,8.00656 -3.41034,8.00656 h -13.6413 v 0 c -1.88348,0 -3.41034,-3.58465 -3.41034,-8.00656 0,-4.42187 1.52686,-8.00656 3.41034,-8.00656 z" />
  <path
     style="fill-rule:evenodd;stroke:#595959;stroke-width:1;stroke-linecap:butt;stroke-linejoin:round"
     inkscape:connector-curvature="0"
     id="path21"
     d="m 497.67232,210.4586 c -1.88348,0 -3.41034,-3.58466 -3.41034,-8.00656 0,-4.42188 1.52686,-8.00656 3.41034,-8.00656" />
  <path
     style="fill-rule:evenodd;stroke:#595959;stroke-width:1;stroke-linecap:butt;stroke-linejoin:round"
     inkscape:connector-curvature="0"
     id="path23"
     d="m 484.03105,194.44547 h 13.6413 c 1.88348,0 3.41034,3.58469 3.41034,8.00656 0,4.42191 -1.52686,8.00656 -3.41034,8.00656 h -13.6413 v 0 c -1.88348,0 -3.41034,-3.58465 -3.41034,-8.00656 0,-4.42187 1.52686,-8.00656 3.41034,-8.00656 z" />
  <path
     style="fill:#eeeeee;fill-rule:evenodd"
     inkscape:connector-curvature="0"
     id="path25"
     d="m 380.54902,194.44547 h -13.6413 c -1.88348,0 -3.41034,3.58469 -3.41034,8.00656 0,4.42191 1.52686,8.00656 3.41034,8.00656 h 13.6413 v 0 c 1.88348,0 3.41034,-3.58465 3.41034,-8.00656 0,-4.42187 -1.52686,-8.00656 -3.41034,-8.00656 z" />
  <path
     style="fill:#000000;fill-opacity:0;fill-rule:evenodd"
     inkscape:connector-curvature="0"
     id="path27"
     d="m 366.90772,210.4586 c 1.88348,0 3.41034,-3.58466 3.41034,-8.00656 0,-4.42188 -1.52686,-8.00656 -3.41034,-8.00656" />
  <path
     style="fill:#000000;fill-opacity:0;fill-rule:evenodd"
     inkscape:connector-curvature="0"
     id="path29"
     d="m 380.54902,194.44547 h -13.6413 c -1.88348,0 -3.41034,3.58469 -3.41034,8.00656 0,4.42191 1.52686,8.00656 3.41034,8.00656 h 13.6413 v 0 c 1.88348,0 3.41034,-3.58465 3.41034,-8.00656 0,-4.42187 -1.52686,-8.00656 -3.41034,-8.00656 z" />
  <path
     style="fill-rule:evenodd;stroke:#595959;stroke-width:1;stroke-linecap:butt;stroke-linejoin:round"
     inkscape:connector-curvature="0"
     id="path31"
     d="m 366.90772,210.4586 c 1.88348,0 3.41034,-3.58466 3.41034,-8.00656 0,-4.42188 -1.52686,-8.00656 -3.41034,-8.00656" />
  <path
     style="fill-rule:evenodd;stroke:#595959;stroke-width:1;stroke-linecap:butt;stroke-linejoin:round"
     inkscape:connector-curvature="0"
     id="path33"
     d="m 380.54902,194.44547 h -13.6413 c -1.88348,0 -3.41034,3.58469 -3.41034,8.00656 0,4.42191 1.52686,8.00656 3.41034,8.00656 h 13.6413 v 0 c 1.88348,0 3.41034,-3.58465 3.41034,-8.00656 0,-4.42187 -1.52686,-8.00656 -3.41034,-8.00656 z" />
  <path
     style="fill:#d0e0e3;fill-rule:evenodd"
     inkscape:connector-curvature="0"
     id="path35"
     d="m 15.21332,11.58122 v 0 c 0,-4.45026 3.60765,-8.05789 8.05791,-8.05789 h 92.04169 c 2.13708,0 4.18664,0.84895 5.69778,2.36011 1.51114,1.51113 2.36011,3.56069 2.36011,5.69778 v 32.23065 c 0,4.45026 -3.60764,8.05792 -8.05789,8.05792 H 23.27123 c -4.45026,0 -8.05791,-3.60766 -8.05791,-8.05792 z" />
  <path
     style="fill-rule:evenodd;stroke:#000000;stroke-width:2;stroke-linecap:butt;stroke-linejoin:round"
     inkscape:connector-curvature="0"
     id="path37"
     d="m 15.21332,11.58122 v 0 c 0,-4.45026 3.60765,-8.05789 8.05791,-8.05789 h 92.04169 c 2.13708,0 4.18664,0.84895 5.69778,2.36011 1.51114,1.51113 2.36011,3.56069 2.36011,5.69778 v 32.23065 c 0,4.45026 -3.60764,8.05792 -8.05789,8.05792 H 23.27123 c -4.45026,0 -8.05791,-3.60766 -8.05791,-8.05792 z" />
  <path
     style="fill:#000000;fill-rule:nonzero"
     inkscape:connector-curvature="0"
     id="path39"
     d="m 48.69309,22.66654 q 1.06252,0 1.81252,0.3125 0.75,0.29687 1.45312,0.92187 l -0.79687,0.89063 q -0.59375,-0.48438 -1.17188,-0.70313 -0.57812,-0.21875 -1.23439,-0.21875 -0.82813,0 -1.375,0.39063 -0.53125,0.375 -0.53125,1.10937 0,0.45313 0.1875,0.78125 0.1875,0.3125 0.67187,0.57813 0.5,0.25 1.45313,0.54687 1.00002,0.29688 1.65627,0.65625 0.65625,0.34375 1.0625,0.96875 0.40625,0.625 0.40625,1.57813 0,0.92187 -0.45313,1.625 -0.4375,0.70312 -1.29687,1.10937 -0.84375,0.39063 -2.01565,0.39063 -2.1875,0 -3.57812,-1.375 l 0.79687,-0.875 q 0.64063,0.51562 1.29688,0.78125 0.65625,0.26562 1.46875,0.26562 0.98439,0 1.62502,-0.48437 0.64062,-0.48438 0.64062,-1.39063 0,-0.53125 -0.20312,-0.875 -0.1875,-0.34375 -0.67188,-0.60937 -0.48437,-0.28125 -1.40627,-0.5625 -1.625,-0.48438 -2.375,-1.17188 -0.75,-0.70312 -0.75,-1.875 0,-0.79687 0.42188,-1.42187 0.42187,-0.64063 1.17187,-0.98438 0.76563,-0.35937 1.73438,-0.35937 z m 8.61949,2.48437 q 0.71875,0 1.3125,0.21875 0.59375,0.20313 1.14063,0.65625 l -0.67188,0.89063 q -0.42187,-0.3125 -0.82812,-0.45313 -0.40625,-0.14062 -0.90625,-0.14062 -0.96875,0 -1.51563,0.78125 -0.54687,0.78125 -0.54687,2.3125 0,1.53125 0.53125,2.26562 0.54687,0.71875 1.53125,0.71875 0.48437,0 0.875,-0.14062 0.40625,-0.14063 0.89062,-0.46875 l 0.64063,0.92187 q -1.09375,0.89063 -2.45313,0.89063 -1.64062,0 -2.59375,-1.09375 -0.9375,-1.10938 -0.9375,-3.0625 0,-1.28125 0.42188,-2.25 0.4375,-0.96875 1.21875,-1.5 0.79687,-0.54688 1.89062,-0.54688 z m 9.6579,6.375 q 0,0.5 0.17187,0.73438 0.17188,0.23437 0.51563,0.35937 l -0.32813,0.98438 q -0.625,-0.0781 -1.01562,-0.34375 -0.375,-0.28125 -0.5625,-0.875 -0.8125,1.21875 -2.40625,1.21875 -1.20313,0 -1.89063,-0.67188 -0.6875,-0.6875 -0.6875,-1.76562 0,-1.29688 0.92188,-1.98438 0.9375,-0.6875 2.64062,-0.6875 h 1.23438 v -0.59375 q 0,-0.85937 -0.42188,-1.21875 -0.40625,-0.375 -1.26562,-0.375 -0.89063,0 -2.17188,0.42188 l -0.35937,-1.01563 q 1.51562,-0.5625 2.79687,-0.5625 1.42188,0 2.125,0.70313 0.70313,0.70312 0.70313,1.98437 z m -3.29688,1.01563 q 1.20313,0 1.89063,-1.25 v -1.85938 h -1.04688 q -2.25,0 -2.25,1.65625 0,0.71875 0.34375,1.09375 0.35938,0.35938 1.0625,0.35938 z m 7.65394,1.0625 q -0.78125,0 -1.23438,-0.46875 -0.45312,-0.46875 -0.45312,-1.3125 v -9.73438 l 1.42187,-0.17187 v 9.875 q 0,0.34375 0.10938,0.5 0.10937,0.14062 0.39062,0.14062 0.29688,0 0.51563,-0.0937 l 0.375,0.98438 q -0.51563,0.28125 -1.125,0.28125 z m 4.28802,-8.26563 v 8.07813 h -1.40625 v -8.07813 z m -0.70312,-3.875 q 0.4375,0 0.71875,0.28125 0.28125,0.26563 0.28125,0.6875 0,0.40625 -0.28125,0.67188 -0.28125,0.26562 -0.71875,0.26562 -0.4375,0 -0.71875,-0.26562 -0.26563,-0.26563 -0.26563,-0.67188 0,-0.42187 0.26563,-0.6875 0.28125,-0.28125 0.71875,-0.28125 z m 7.41629,3.6875 q 1.10937,0 1.73437,0.67188 0.625,0.65625 0.625,1.79687 v 5.79688 h -1.42187 v -5.59375 q 0,-0.85938 -0.32813,-1.20313 -0.3125,-0.35937 -0.9375,-0.35937 -0.64062,0 -1.14062,0.375 -0.48438,0.35937 -0.92188,1.04687 v 5.73438 h -1.40625 v -8.07813 h 1.21875 l 0.125,1.20313 q 0.42188,-0.65625 1.04688,-1.01563 0.64062,-0.375 1.40625,-0.375 z m 11.70105,0.5625 q -0.45313,0.14063 -1.01563,0.1875 -0.54687,0.0469 -1.34375,0.0469 1.42188,0.64062 1.42188,2.04687 0,1.20313 -0.82813,1.96875 -0.82812,0.76563 -2.25,0.76563 -0.54687,0 -1.03125,-0.14063 -0.17187,0.10938 -0.28125,0.32813 -0.10937,0.20312 -0.10937,0.42187 0,0.65625 1.0625,0.65625 h 1.28125 q 0.8125,0 1.4375,0.29688 0.625,0.28125 0.96875,0.79687 0.35937,0.5 0.35937,1.14063 0,1.1875 -0.96875,1.8125 -0.96875,0.64062 -2.82812,0.64062 -1.29688,0 -2.0625,-0.26562 -0.75,-0.26563 -1.07813,-0.8125 -0.3125,-0.53125 -0.3125,-1.375 h 1.26563 q 0,0.48437 0.17187,0.76562 0.1875,0.29688 0.65625,0.4375 0.48438,0.14063 1.35938,0.14063 1.28125,0 1.8125,-0.3125 0.54687,-0.3125 0.54687,-0.9375 0,-0.5625 -0.4375,-0.85938 -0.42187,-0.29687 -1.1875,-0.29687 h -1.26562 q -1.03125,0 -1.5625,-0.4375 -0.53125,-0.4375 -0.53125,-1.09375 0,-0.39063 0.23437,-0.75 0.23438,-0.375 0.65625,-0.67188 -0.70312,-0.375 -1.03125,-0.90625 -0.32812,-0.54687 -0.32812,-1.32812 0,-0.8125 0.40625,-1.45313 0.40625,-0.65625 1.10937,-1.01562 0.71875,-0.35938 1.59375,-0.35938 0.95313,0.0156 1.59375,-0.0625 0.64063,-0.0937 1.0625,-0.23437 0.42188,-0.14063 1.04688,-0.42188 z m -4.10938,0.45313 q -0.79687,0 -1.23437,0.5 -0.4375,0.5 -0.4375,1.3125 0,0.82812 0.4375,1.32812 0.45312,0.48438 1.26562,0.48438 0.82813,0 1.26563,-0.46875 0.4375,-0.48438 0.4375,-1.35938 0,-1.79687 -1.73438,-1.79687 z" />
  <path
     style="fill:#eeeeee;fill-rule:evenodd"
     inkscape:connector-curvature="0"
     id="path41"
     d="m 121.03368,19.68958 h 13.6413 c 1.88348,0 3.41034,3.58466 3.41034,8.00656 0,4.42191 -1.52686,8.00656 -3.41034,8.00656 h -13.6413 v 0 c -1.88345,0 -3.41031,-3.58465 -3.41031,-8.00656 0,-4.4219 1.52686,-8.00656 3.41031,-8.00656 z" />
  <path
     style="fill:#000000;fill-opacity:0;fill-rule:evenodd"
     inkscape:connector-curvature="0"
     id="path43"
     d="m 134.67497,35.7027 c -1.88345,0 -3.41031,-3.58466 -3.41031,-8.00656 0,-4.42191 1.52686,-8.00656 3.41031,-8.00656" />
  <path
     style="fill:#000000;fill-opacity:0;fill-rule:evenodd"
     inkscape:connector-curvature="0"
     id="path45"
     d="m 121.03368,19.68958 h 13.6413 c 1.88348,0 3.41034,3.58466 3.41034,8.00656 0,4.42191 -1.52686,8.00656 -3.41034,8.00656 h -13.6413 v 0 c -1.88345,0 -3.41031,-3.58465 -3.41031,-8.00656 0,-4.4219 1.52686,-8.00656 3.41031,-8.00656 z" />
  <path
     style="fill-rule:evenodd;stroke:#595959;stroke-width:1;stroke-linecap:butt;stroke-linejoin:round"
     inkscape:connector-curvature="0"
     id="path47"
     d="m 134.67497,35.7027 c -1.88345,0 -3.41031,-3.58466 -3.41031,-8.00656 0,-4.42191 1.52686,-8.00656 3.41031,-8.00656" />
  <path
     style="fill-rule:evenodd;stroke:#595959;stroke-width:1;stroke-linecap:butt;stroke-linejoin:round"
     inkscape:connector-curvature="0"
     id="path49"
     d="m 121.03368,19.68958 h 13.6413 c 1.88348,0 3.41034,3.58466 3.41034,8.00656 0,4.42191 -1.52686,8.00656 -3.41034,8.00656 h -13.6413 v 0 c -1.88345,0 -3.41031,-3.58465 -3.41031,-8.00656 0,-4.4219 1.52686,-8.00656 3.41031,-8.00656 z" />
  <path
     style="fill:#eeeeee;fill-rule:evenodd"
     inkscape:connector-curvature="0"
     id="path51"
     d="M 17.55162,19.68958 H 3.91032 c -1.88346,0 -3.41032,3.58466 -3.41032,8.00656 0,4.42191 1.52686,8.00656 3.41032,8.00656 h 13.6413 v 0 c 1.88347,0 3.41032,-3.58465 3.41032,-8.00656 0,-4.4219 -1.52685,-8.00656 -3.41032,-8.00656 z" />
  <path
     style="fill:#000000;fill-opacity:0;fill-rule:evenodd"
     inkscape:connector-curvature="0"
     id="path53"
     d="m 3.91032,35.7027 c 1.88347,0 3.41032,-3.58466 3.41032,-8.00656 0,-4.42191 -1.52685,-8.00656 -3.41032,-8.00656" />
  <path
     style="fill:#000000;fill-opacity:0;fill-rule:evenodd"
     inkscape:connector-curvature="0"
     id="path55"
     d="M 17.55162,19.68958 H 3.91032 c -1.88346,0 -3.41032,3.58466 -3.41032,8.00656 0,4.42191 1.52686,8.00656 3.41032,8.00656 h 13.6413 v 0 c 1.88347,0 3.41032,-3.58465 3.41032,-8.00656 0,-4.4219 -1.52685,-8.00656 -3.41032,-8.00656 z" />
  <path
     style="fill-rule:evenodd;stroke:#595959;stroke-width:1;stroke-linecap:butt;stroke-linejoin:round"
     inkscape:connector-curvature="0"
     id="path57"
     d="m 3.91032,35.7027 c 1.88347,0 3.41032,-3.58466 3.41032,-8.00656 0,-4.42191 -1.52685,-8.00656 -3.41032,-8.00656" />
  <path
     style="fill-rule:evenodd;stroke:#595959;stroke-width:1;stroke-linecap:butt;stroke-linejoin:round"
     inkscape:connector-curvature="0"
     id="path59"
     d="M 17.55162,19.68958 H 3.91032 c -1.88346,0 -3.41032,3.58466 -3.41032,8.00656 0,4.42191 1.52686,8.00656 3.41032,8.00656 h 13.6413 v 0 c 1.88347,0 3.41032,-3.58465 3.41032,-8.00656 0,-4.4219 -1.52685,-8.00656 -3.41032,-8.00656 z" />
  <path
     style="fill:#eeeeee;fill-rule:evenodd"
     inkscape:connector-curvature="0"
     id="path61"
     d="m 380.54902,226.4586 h -13.6413 c -1.88348,0 -3.41034,3.58469 -3.41034,8.00656 0,4.42191 1.52686,8.00656 3.41034,8.00656 h 13.6413 v 0 c 1.88348,0 3.41034,-3.58465 3.41034,-8.00656 0,-4.42187 -1.52686,-8.00656 -3.41034,-8.00656 z" />
  <path
     style="fill:#000000;fill-opacity:0;fill-rule:evenodd"
     inkscape:connector-curvature="0"
     id="path63"
     d="m 366.90772,242.47172 c 1.88348,0 3.41034,-3.58466 3.41034,-8.00656 0,-4.42188 -1.52686,-8.00656 -3.41034,-8.00656" />
  <path
     style="fill:#000000;fill-opacity:0;fill-rule:evenodd"
     inkscape:connector-curvature="0"
     id="path65"
     d="m 380.54902,226.4586 h -13.6413 c -1.88348,0 -3.41034,3.58469 -3.41034,8.00656 0,4.42191 1.52686,8.00656 3.41034,8.00656 h 13.6413 v 0 c 1.88348,0 3.41034,-3.58465 3.41034,-8.00656 0,-4.42187 -1.52686,-8.00656 -3.41034,-8.00656 z" />
  <path
     style="fill-rule:evenodd;stroke:#595959;stroke-width:1;stroke-linecap:butt;stroke-linejoin:round"
     inkscape:connector-curvature="0"
     id="path67"
     d="m 366.90772,242.47172 c 1.88348,0 3.41034,-3.58466 3.41034,-8.00656 0,-4.42188 -1.52686,-8.00656 -3.41034,-8.00656" />
  <path
     style="fill-rule:evenodd;stroke:#595959;stroke-width:1;stroke-linecap:butt;stroke-linejoin:round"
     inkscape:connector-curvature="0"
     id="path69"
     d="m 380.54902,226.4586 h -13.6413 c -1.88348,0 -3.41034,3.58469 -3.41034,8.00656 0,4.42191 1.52686,8.00656 3.41034,8.00656 h 13.6413 v 0 c 1.88348,0 3.41034,-3.58465 3.41034,-8.00656 0,-4.42187 -1.52686,-8.00656 -3.41034,-8.00656 z" />
  <path
     style="fill:#eeeeee;fill-rule:evenodd"
     inkscape:connector-curvature="0"
     id="path71"
     d="m 380.54902,162.43235 h -13.6413 c -1.88348,0 -3.41034,3.58469 -3.41034,8.00656 0,4.42191 1.52686,8.00656 3.41034,8.00656 h 13.6413 v 0 c 1.88348,0 3.41034,-3.58465 3.41034,-8.00656 0,-4.42187 -1.52686,-8.00656 -3.41034,-8.00656 z" />
  <path
     style="fill:#000000;fill-opacity:0;fill-rule:evenodd"
     inkscape:connector-curvature="0"
     id="path73"
     d="m 366.90772,178.44547 c 1.88348,0 3.41034,-3.58466 3.41034,-8.00656 0,-4.42188 -1.52686,-8.00656 -3.41034,-8.00656" />
  <path
     style="fill:#000000;fill-opacity:0;fill-rule:evenodd"
     inkscape:connector-curvature="0"
     id="path75"
     d="m 380.54902,162.43235 h -13.6413 c -1.88348,0 -3.41034,3.58469 -3.41034,8.00656 0,4.42191 1.52686,8.00656 3.41034,8.00656 h 13.6413 v 0 c 1.88348,0 3.41034,-3.58465 3.41034,-8.00656 0,-4.42187 -1.52686,-8.00656 -3.41034,-8.00656 z" />
  <path
     style="fill-rule:evenodd;stroke:#595959;stroke-width:1;stroke-linecap:butt;stroke-linejoin:round"
     inkscape:connector-curvature="0"
     id="path77"
     d="m 366.90772,178.44547 c 1.88348,0 3.41034,-3.58466 3.41034,-8.00656 0,-4.42188 -1.52686,-8.00656 -3.41034,-8.00656" />
  <path
     style="fill-rule:evenodd;stroke:#595959;stroke-width:1;stroke-linecap:butt;stroke-linejoin:round"
     inkscape:connector-curvature="0"
     id="path79"
     d="m 380.54902,162.43235 h -13.6413 c -1.88348,0 -3.41034,3.58469 -3.41034,8.00656 0,4.42191 1.52686,8.00656 3.41034,8.00656 h 13.6413 v 0 c 1.88348,0 3.41034,-3.58465 3.41034,-8.00656 0,-4.42187 -1.52686,-8.00656 -3.41034,-8.00656 z" />
  <path
     style="fill:#d0e0e3;fill-rule:evenodd"
     inkscape:connector-curvature="0"
     id="path81"
     d="m 304.87007,19.0266 v 0 C 304.87007,9.07079 296.7993,1 286.84346,1 h -72.10425 v 0 c -4.78095,0 -9.36609,1.89922 -12.74674,5.27987 -3.38064,3.38064 -5.27987,7.96579 -5.27987,12.74673 v 85.36411 c 0,9.95584 8.0708,18.02661 18.02661,18.02661 h 72.10425 c 9.95584,0 18.02661,-8.07077 18.02661,-18.02661 z" />
  <path
     style="fill-rule:evenodd;stroke:#000000;stroke-width:2;stroke-linecap:butt;stroke-linejoin:round"
     inkscape:connector-curvature="0"
     id="path83"
     d="m 304.87007,19.0266 v 0 C 304.87007,9.07079 296.7993,1 286.84346,1 h -72.10425 v 0 c -4.78095,0 -9.36609,1.89922 -12.74674,5.27987 -3.38064,3.38064 -5.27987,7.96579 -5.27987,12.74673 v 85.36411 c 0,9.95584 8.0708,18.02661 18.02661,18.02661 h 72.10425 c 9.95584,0 18.02661,-8.07077 18.02661,-18.02661 z" />
  <path
     style="fill:#000000;fill-rule:nonzero"
     inkscape:connector-curvature="0"
     id="path85"
     d="m 239.64552,47.86616 q 1.95312,0 3.03125,0.82812 1.07812,0.8125 1.07812,2.4375 0,1.73438 -1.125,2.57813 -1.125,0.84375 -2.96875,0.84375 h -1.34375 v 3.875 h -1.45312 v -10.5625 z m -0.0469,5.53125 q 1.26563,0 1.92188,-0.48438 0.67187,-0.5 0.67187,-1.76562 0,-1.14063 -0.67187,-1.64063 -0.65625,-0.5 -1.89063,-0.5 h -1.3125 v 4.39063 z m 10.68735,3.14062 q 0,0.5 0.17188,0.73438 0.17187,0.23437 0.51562,0.35937 l -0.32812,0.98438 q -0.625,-0.0781 -1.01563,-0.34375 -0.375,-0.28125 -0.5625,-0.875 -0.8125,1.21875 -2.40625,1.21875 -1.20312,0 -1.89062,-0.67188 -0.6875,-0.6875 -0.6875,-1.76562 0,-1.29688 0.92187,-1.98438 0.9375,-0.6875 2.64063,-0.6875 h 1.23437 v -0.59375 q 0,-0.85937 -0.42187,-1.21875 -0.40625,-0.375 -1.26563,-0.375 -0.89062,0 -2.17187,0.42188 l -0.35938,-1.01563 q 1.51563,-0.5625 2.79688,-0.5625 1.42187,0 2.125,0.70313 0.70312,0.70312 0.70312,1.98437 z m -3.29687,1.01563 q 1.20312,0 1.89062,-1.25 v -1.85938 h -1.04687 q -2.25,0 -2.25,1.65625 0,0.71875 0.34375,1.09375 0.35937,0.35938 1.0625,0.35938 z m 10.27603,0.5 q -0.79688,0.5625 -1.8125,0.5625 -1.01563,0 -1.59375,-0.59375 -0.57813,-0.59375 -0.57813,-1.70313 v -4.875 h -1.40625 v -1.09375 h 1.40625 v -1.82812 l 1.40625,-0.17188 v 2 h 1.92188 l -0.15625,1.09375 H 254.687 v 4.8125 q 0,0.625 0.21875,0.90625 0.23438,0.28125 0.75,0.28125 0.48438,0 1.07813,-0.3125 z m 5.2522,-7.89063 q 1.10937,0 1.73437,0.67188 0.625,0.65625 0.625,1.79687 v 5.79688 h -1.42187 v -5.59375 q 0,-0.85938 -0.32813,-1.20313 -0.32812,-0.35937 -0.95312,-0.35937 -0.625,0 -1.125,0.375 -0.48438,0.35937 -0.92188,1.03125 v 5.75 h -1.40625 v -11.3125 l 1.40625,-0.15625 v 4.51562 q 0.95313,-1.3125 2.39063,-1.3125 z" />
  <path
     style="fill:#000000;fill-rule:nonzero"
     inkscape:connector-curvature="0"
     id="path87"
     d="m 222.17635,70.85053 q 1.09375,0.1875 1.76562,0.76562 0.67188,0.57813 0.67188,1.8125 0,3 -4.1875,3 h -2.90625 v -10.5625 h 2.5 q 2.01562,0 3.07812,0.65625 1.0625,0.65625 1.0625,2.01563 0,0.92187 -0.57812,1.53125 -0.57813,0.60937 -1.40625,0.78125 z m -3.20313,-3.82813 v 3.32813 h 1.59375 q 0.92188,0 1.51563,-0.4375 0.59375,-0.45313 0.59375,-1.26563 0,-0.92187 -0.625,-1.26562 -0.625,-0.35938 -1.875,-0.35938 z m 1.45313,8.23438 q 1.29687,0 1.96875,-0.375 0.6875,-0.39063 0.6875,-1.45313 0,-1.04687 -0.65625,-1.5 -0.65625,-0.46875 -1.71875,-0.46875 h -1.73438 v 3.79688 z m 9.85077,-7.09375 q 0.42187,0 0.79687,0.0937 l -0.26562,1.375 q -0.35938,-0.0781 -0.70313,-0.0781 -0.75,0 -1.21875,0.54688 -0.45312,0.54687 -0.71875,1.71875 v 4.60937 h -1.40625 v -8.07812 h 1.21875 l 0.14063,1.64062 q 0.3125,-0.90625 0.85937,-1.35937 0.5625,-0.46875 1.29688,-0.46875 z m 7.30188,6.375 q 0,0.5 0.17187,0.73437 0.17188,0.23438 0.51563,0.35938 l -0.32813,0.98437 q -0.625,-0.0781 -1.01562,-0.34375 -0.375,-0.28125 -0.5625,-0.875 -0.8125,1.21875 -2.40625,1.21875 -1.20313,0 -1.89063,-0.67187 -0.6875,-0.6875 -0.6875,-1.76563 0,-1.29687 0.92188,-1.98437 0.9375,-0.6875 2.64062,-0.6875 h 1.23438 v -0.59375 q 0,-0.85938 -0.42188,-1.21875 -0.40625,-0.375 -1.26562,-0.375 -0.89063,0 -2.17188,0.42187 L 231.954,68.72553 q 1.51562,-0.5625 2.79687,-0.5625 1.42188,0 2.125,0.70312 0.70313,0.70313 0.70313,1.98438 z m -3.29688,1.01562 q 1.20313,0 1.89063,-1.25 v -1.85937 h -1.04688 q -2.25,0 -2.25,1.65625 0,0.71875 0.34375,1.09375 0.35938,0.35937 1.0625,0.35937 z m 9.99479,-7.39062 q 1.10937,0 1.73437,0.67187 0.625,0.65625 0.625,1.79688 v 5.79687 h -1.42187 V 70.8349 q 0,-0.85937 -0.32813,-1.20312 -0.3125,-0.35938 -0.9375,-0.35938 -0.64062,0 -1.14062,0.375 -0.48438,0.35938 -0.92188,1.04688 v 5.73437 h -1.40625 v -8.07812 h 1.21875 l 0.125,1.20312 q 0.42188,-0.65625 1.04688,-1.01562 0.64062,-0.375 1.40625,-0.375 z m 8.13855,0 q 0.71875,0 1.3125,0.21875 0.59375,0.20312 1.14062,0.65625 l -0.67187,0.89062 q -0.42188,-0.3125 -0.82813,-0.45312 -0.40625,-0.14063 -0.90625,-0.14063 -0.96875,0 -1.51562,0.78125 -0.54688,0.78125 -0.54688,2.3125 0,1.53125 0.53125,2.26563 0.54688,0.71875 1.53125,0.71875 0.48438,0 0.875,-0.14063 0.40625,-0.14062 0.89063,-0.46875 l 0.64062,0.92188 q -1.09375,0.89062 -2.45312,0.89062 -1.64063,0 -2.59375,-1.09375 -0.9375,-1.10937 -0.9375,-3.0625 0,-1.28125 0.42187,-2.25 0.4375,-0.96875 1.21875,-1.5 0.79688,-0.54687 1.89063,-0.54687 z m 8.17062,0 q 1.10937,0 1.73437,0.67187 0.625,0.65625 0.625,1.79688 v 5.79687 h -1.42187 V 70.8349 q 0,-0.85937 -0.32813,-1.20312 -0.32812,-0.35938 -0.95312,-0.35938 -0.625,0 -1.125,0.375 -0.48438,0.35938 -0.92188,1.03125 v 5.75 h -1.40625 v -11.3125 l 1.40625,-0.15625 v 4.51563 q 0.95313,-1.3125 2.39063,-1.3125 z m 6.59167,0.1875 v 8.07812 h -1.40625 v -8.07812 z m -0.70312,-3.875 q 0.4375,0 0.71875,0.28125 0.28125,0.26562 0.28125,0.6875 0,0.40625 -0.28125,0.67187 -0.28125,0.26563 -0.71875,0.26563 -0.4375,0 -0.71875,-0.26563 -0.26563,-0.26562 -0.26563,-0.67187 0,-0.42188 0.26563,-0.6875 0.28125,-0.28125 0.71875,-0.28125 z m 7.41629,3.6875 q 1.10937,0 1.73437,0.67187 0.625,0.65625 0.625,1.79688 v 5.79687 h -1.42187 V 70.8349 q 0,-0.85937 -0.32813,-1.20312 -0.3125,-0.35938 -0.9375,-0.35938 -0.64062,0 -1.14062,0.375 -0.48438,0.35938 -0.92188,1.04688 v 5.73437 h -1.40625 v -8.07812 h 1.21875 l 0.125,1.20312 q 0.42188,-0.65625 1.04688,-1.01562 0.64062,-0.375 1.40625,-0.375 z m 11.70105,0.5625 q -0.45313,0.14062 -1.01563,0.1875 -0.54687,0.0469 -1.34375,0.0469 1.42188,0.64063 1.42188,2.04688 0,1.20312 -0.82813,1.96875 -0.82812,0.76562 -2.25,0.76562 -0.54687,0 -1.03125,-0.14062 -0.17187,0.10937 -0.28125,0.32812 -0.10937,0.20313 -0.10937,0.42188 0,0.65625 1.0625,0.65625 h 1.28125 q 0.8125,0 1.4375,0.29687 0.625,0.28125 0.96875,0.79688 0.35937,0.5 0.35937,1.14062 0,1.1875 -0.96875,1.8125 -0.96875,0.64063 -2.82812,0.64063 -1.29688,0 -2.0625,-0.26563 -0.75,-0.26562 -1.07813,-0.8125 -0.3125,-0.53125 -0.3125,-1.375 h 1.26563 q 0,0.48438 0.17187,0.76563 0.1875,0.29687 0.65625,0.4375 0.48438,0.14062 1.35938,0.14062 1.28125,0 1.8125,-0.3125 0.54687,-0.3125 0.54687,-0.9375 0,-0.5625 -0.4375,-0.85937 -0.42187,-0.29688 -1.1875,-0.29688 h -1.26562 q -1.03125,0 -1.5625,-0.4375 -0.53125,-0.4375 -0.53125,-1.09375 0,-0.39062 0.23437,-0.75 0.23438,-0.375 0.65625,-0.67187 -0.70312,-0.375 -1.03125,-0.90625 -0.32812,-0.54688 -0.32812,-1.32813 0,-0.8125 0.40625,-1.45312 0.40625,-0.65625 1.10937,-1.01563 0.71875,-0.35937 1.59375,-0.35937 0.95313,0.0156 1.59375,-0.0625 0.64063,-0.0937 1.0625,-0.23438 0.42188,-0.14062 1.04688,-0.42187 z m -4.10938,0.45312 q -0.79687,0 -1.23437,0.5 -0.4375,0.5 -0.4375,1.3125 0,0.82813 0.4375,1.32813 0.45312,0.48437 1.26562,0.48437 0.82813,0 1.26563,-0.46875 0.4375,-0.48437 0.4375,-1.35937 0,-1.79688 -1.73438,-1.79688 z" />
  <path
     style="fill:#eeeeee;fill-rule:evenodd"
     inkscape:connector-curvature="0"
     id="path89"
     d="m 199.05032,53.7027 h -13.6413 c -1.88345,0 -3.4103,3.58466 -3.4103,8.00656 0,4.42191 1.52685,8.00656 3.4103,8.00656 h 13.6413 v 0 c 1.88348,0 3.41034,-3.58465 3.41034,-8.00656 0,-4.4219 -1.52686,-8.00656 -3.41034,-8.00656 z" />
  <path
     style="fill:#000000;fill-opacity:0;fill-rule:evenodd"
     inkscape:connector-curvature="0"
     id="path91"
     d="m 185.40902,69.71583 c 1.88348,0 3.41034,-3.58466 3.41034,-8.00656 0,-4.42191 -1.52686,-8.00656 -3.41034,-8.00656" />
  <path
     style="fill:#000000;fill-opacity:0;fill-rule:evenodd"
     inkscape:connector-curvature="0"
     id="path93"
     d="m 199.05032,53.7027 h -13.6413 c -1.88345,0 -3.4103,3.58466 -3.4103,8.00656 0,4.42191 1.52685,8.00656 3.4103,8.00656 h 13.6413 v 0 c 1.88348,0 3.41034,-3.58465 3.41034,-8.00656 0,-4.4219 -1.52686,-8.00656 -3.41034,-8.00656 z" />
  <path
     style="fill-rule:evenodd;stroke:#595959;stroke-width:1;stroke-linecap:butt;stroke-linejoin:round"
     inkscape:connector-curvature="0"
     id="path95"
     d="m 185.40902,69.71583 c 1.88348,0 3.41034,-3.58466 3.41034,-8.00656 0,-4.42191 -1.52686,-8.00656 -3.41034,-8.00656" />
  <path
     style="fill-rule:evenodd;stroke:#595959;stroke-width:1;stroke-linecap:butt;stroke-linejoin:round"
     inkscape:connector-curvature="0"
     id="path97"
     d="m 199.05032,53.7027 h -13.6413 c -1.88345,0 -3.4103,3.58466 -3.4103,8.00656 0,4.42191 1.52685,8.00656 3.4103,8.00656 h 13.6413 v 0 c 1.88348,0 3.41034,-3.58465 3.41034,-8.00656 0,-4.4219 -1.52686,-8.00656 -3.41034,-8.00656 z" />
  <path
     style="fill:#eeeeee;fill-rule:evenodd"
     inkscape:connector-curvature="0"
     id="path99"
     d="m 302.53237,53.7027 h 13.64133 c 1.88342,0 3.41028,3.58466 3.41028,8.00656 0,4.42191 -1.52686,8.00656 -3.41028,8.00656 h -13.64133 v 0 c -1.88345,0 -3.41031,-3.58465 -3.41031,-8.00656 0,-4.4219 1.52686,-8.00656 3.41031,-8.00656 z" />
  <path
     style="fill:#000000;fill-opacity:0;fill-rule:evenodd"
     inkscape:connector-curvature="0"
     id="path101"
     d="m 316.17372,69.71583 c -1.88348,0 -3.41034,-3.58466 -3.41034,-8.00656 0,-4.42191 1.52686,-8.00656 3.41034,-8.00656" />
  <path
     style="fill:#000000;fill-opacity:0;fill-rule:evenodd"
     inkscape:connector-curvature="0"
     id="path103"
     d="m 302.53237,53.7027 h 13.64133 c 1.88342,0 3.41028,3.58466 3.41028,8.00656 0,4.42191 -1.52686,8.00656 -3.41028,8.00656 h -13.64133 v 0 c -1.88345,0 -3.41031,-3.58465 -3.41031,-8.00656 0,-4.4219 1.52686,-8.00656 3.41031,-8.00656 z" />
  <path
     style="fill-rule:evenodd;stroke:#595959;stroke-width:1;stroke-linecap:butt;stroke-linejoin:round"
     inkscape:connector-curvature="0"
     id="path105"
     d="m 316.17372,69.71583 c -1.88348,0 -3.41034,-3.58466 -3.41034,-8.00656 0,-4.42191 1.52686,-8.00656 3.41034,-8.00656" />
  <path
     style="fill-rule:evenodd;stroke:#595959;stroke-width:1;stroke-linecap:butt;stroke-linejoin:round"
     inkscape:connector-curvature="0"
     id="path107"
     d="m 302.53237,53.7027 h 13.64133 c 1.88342,0 3.41028,3.58466 3.41028,8.00656 0,4.42191 -1.52686,8.00656 -3.41028,8.00656 h -13.64133 v 0 c -1.88345,0 -3.41031,-3.58465 -3.41031,-8.00656 0,-4.4219 1.52686,-8.00656 3.41031,-8.00656 z" />
  <path
     style="fill:#eeeeee;fill-rule:evenodd"
     inkscape:connector-curvature="0"
     id="path109"
     d="m 302.53237,85.71583 h 13.64133 c 1.88342,0 3.41028,3.58466 3.41028,8.00656 0,4.42191 -1.52686,8.00656 -3.41028,8.00656 h -13.64133 v 0 c -1.88345,0 -3.41031,-3.58465 -3.41031,-8.00656 0,-4.4219 1.52686,-8.00656 3.41031,-8.00656 z" />
  <path
     style="fill:#000000;fill-opacity:0;fill-rule:evenodd"
     inkscape:connector-curvature="0"
     id="path111"
     d="m 316.17372,101.72895 c -1.88348,0 -3.41034,-3.58466 -3.41034,-8.00656 0,-4.42191 1.52686,-8.00656 3.41034,-8.00656" />
  <path
     style="fill:#000000;fill-opacity:0;fill-rule:evenodd"
     inkscape:connector-curvature="0"
     id="path113"
     d="m 302.53237,85.71583 h 13.64133 c 1.88342,0 3.41028,3.58466 3.41028,8.00656 0,4.42191 -1.52686,8.00656 -3.41028,8.00656 h -13.64133 v 0 c -1.88345,0 -3.41031,-3.58465 -3.41031,-8.00656 0,-4.4219 1.52686,-8.00656 3.41031,-8.00656 z" />
  <path
     style="fill-rule:evenodd;stroke:#595959;stroke-width:1;stroke-linecap:butt;stroke-linejoin:round"
     inkscape:connector-curvature="0"
     id="path115"
     d="m 316.17372,101.72895 c -1.88348,0 -3.41034,-3.58466 -3.41034,-8.00656 0,-4.42191 1.52686,-8.00656 3.41034,-8.00656" />
  <path
     style="fill-rule:evenodd;stroke:#595959;stroke-width:1;stroke-linecap:butt;stroke-linejoin:round"
     inkscape:connector-curvature="0"
     id="path117"
     d="m 302.53237,85.71583 h 13.64133 c 1.88342,0 3.41028,3.58466 3.41028,8.00656 0,4.42191 -1.52686,8.00656 -3.41028,8.00656 h -13.64133 v 0 c -1.88345,0 -3.41031,-3.58465 -3.41031,-8.00656 0,-4.4219 1.52686,-8.00656 3.41031,-8.00656 z" />
  <path
     style="fill:#eeeeee;fill-rule:evenodd"
     inkscape:connector-curvature="0"
     id="path119"
     d="m 302.53237,21.68958 h 13.64133 c 1.88342,0 3.41028,3.58466 3.41028,8.00656 0,4.42191 -1.52686,8.00656 -3.41028,8.00656 h -13.64133 v 0 c -1.88345,0 -3.41031,-3.58465 -3.41031,-8.00656 0,-4.4219 1.52686,-8.00656 3.41031,-8.00656 z" />
  <path
     style="fill:#000000;fill-opacity:0;fill-rule:evenodd"
     inkscape:connector-curvature="0"
     id="path121"
     d="m 316.17372,37.7027 c -1.88348,0 -3.41034,-3.58466 -3.41034,-8.00656 0,-4.42191 1.52686,-8.00656 3.41034,-8.00656" />
  <path
     style="fill:#000000;fill-opacity:0;fill-rule:evenodd"
     inkscape:connector-curvature="0"
     id="path123"
     d="m 302.53237,21.68958 h 13.64133 c 1.88342,0 3.41028,3.58466 3.41028,8.00656 0,4.42191 -1.52686,8.00656 -3.41028,8.00656 h -13.64133 v 0 c -1.88345,0 -3.41031,-3.58465 -3.41031,-8.00656 0,-4.4219 1.52686,-8.00656 3.41031,-8.00656 z" />
  <path
     style="fill-rule:evenodd;stroke:#595959;stroke-width:1;stroke-linecap:butt;stroke-linejoin:round"
     inkscape:connector-curvature="0"
     id="path125"
     d="m 316.17372,37.7027 c -1.88348,0 -3.41034,-3.58466 -3.41034,-8.00656 0,-4.42191 1.52686,-8.00656 3.41034,-8.00656" />
  <path
     style="fill-rule:evenodd;stroke:#595959;stroke-width:1;stroke-linecap:butt;stroke-linejoin:round"
     inkscape:connector-curvature="0"
     id="path127"
     d="m 302.53237,21.68958 h 13.64133 c 1.88342,0 3.41028,3.58466 3.41028,8.00656 0,4.42191 -1.52686,8.00656 -3.41028,8.00656 h -13.64133 v 0 c -1.88345,0 -3.41031,-3.58465 -3.41031,-8.00656 0,-4.4219 1.52686,-8.00656 3.41031,-8.00656 z" />
  <path
     style="fill:#d0e0e3;fill-rule:evenodd"
     inkscape:connector-curvature="0"
     id="path129"
     d="m 378.21002,19.0266 v 0 C 378.21002,9.07079 386.28076,1 396.23657,1 h 72.10431 v 0 c 4.78095,0 9.36609,1.89922 12.7467,5.27987 3.38068,3.38064 5.27991,7.96579 5.27991,12.74673 v 85.36411 c 0,9.95584 -8.0708,18.02661 -18.02661,18.02661 h -72.10431 c -9.95581,0 -18.02655,-8.07077 -18.02655,-18.02661 z" />
  <path
     style="fill-rule:evenodd;stroke:#000000;stroke-width:2;stroke-linecap:butt;stroke-linejoin:round"
     inkscape:connector-curvature="0"
     id="path131"
     d="m 378.21002,19.0266 v 0 C 378.21002,9.07079 386.28076,1 396.23657,1 h 72.10431 v 0 c 4.78095,0 9.36609,1.89922 12.7467,5.27987 3.38068,3.38064 5.27991,7.96579 5.27991,12.74673 v 85.36411 c 0,9.95584 -8.0708,18.02661 -18.02661,18.02661 h -72.10431 c -9.95581,0 -18.02655,-8.07077 -18.02655,-18.02661 z" />
  <path
     style="fill:#000000;fill-rule:nonzero"
     inkscape:connector-curvature="0"
     id="path133"
     d="m 421.14292,47.86616 q 1.95313,0 3.03125,0.82812 1.07813,0.8125 1.07813,2.4375 0,1.73438 -1.125,2.57813 -1.125,0.84375 -2.96875,0.84375 h -1.34375 v 3.875 h -1.45313 v -10.5625 z m -0.0469,5.53125 q 1.26562,0 1.92187,-0.48438 0.67188,-0.5 0.67188,-1.76562 0,-1.14063 -0.67188,-1.64063 -0.65625,-0.5 -1.89062,-0.5 h -1.3125 v 4.39063 z m 10.68731,3.14062 q 0,0.5 0.17188,0.73438 0.17187,0.23437 0.51562,0.35937 l -0.32812,0.98438 q -0.625,-0.0781 -1.01563,-0.34375 -0.375,-0.28125 -0.5625,-0.875 -0.8125,1.21875 -2.40625,1.21875 -1.20312,0 -1.89062,-0.67188 -0.6875,-0.6875 -0.6875,-1.76562 0,-1.29688 0.92187,-1.98438 0.9375,-0.6875 2.64063,-0.6875 h 1.23437 v -0.59375 q 0,-0.85937 -0.42187,-1.21875 -0.40625,-0.375 -1.26563,-0.375 -0.89062,0 -2.17187,0.42188 l -0.35938,-1.01563 q 1.51563,-0.5625 2.79688,-0.5625 1.42187,0 2.125,0.70313 0.70312,0.70312 0.70312,1.98437 z m -3.29687,1.01563 q 1.20312,0 1.89062,-1.25 v -1.85938 h -1.04687 q -2.25,0 -2.25,1.65625 0,0.71875 0.34375,1.09375 0.35937,0.35938 1.0625,0.35938 z m 10.276,0.5 q -0.79688,0.5625 -1.8125,0.5625 -1.01563,0 -1.59375,-0.59375 -0.57813,-0.59375 -0.57813,-1.70313 v -4.875 h -1.40625 v -1.09375 h 1.40625 v -1.82812 l 1.40625,-0.17188 v 2 h 1.92188 l -0.15625,1.09375 h -1.76563 v 4.8125 q 0,0.625 0.21875,0.90625 0.23438,0.28125 0.75,0.28125 0.48438,0 1.07813,-0.3125 z m 5.25226,-7.89063 q 1.10937,0 1.73437,0.67188 0.625,0.65625 0.625,1.79687 v 5.79688 h -1.42187 v -5.59375 q 0,-0.85938 -0.32813,-1.20313 -0.32812,-0.35937 -0.95312,-0.35937 -0.625,0 -1.125,0.375 -0.48438,0.35937 -0.92188,1.03125 v 5.75 h -1.40625 v -11.3125 l 1.40625,-0.15625 v 4.51562 q 0.95313,-1.3125 2.39063,-1.3125 z" />
  <path
     style="fill:#000000;fill-rule:nonzero"
     inkscape:connector-curvature="0"
     id="path135"
     d="m 393.59842,73.03803 q 0,1.0625 -0.4375,1.875 -0.4375,0.79687 -1.28125,1.25 -0.82812,0.45312 -1.98437,0.45312 -1.76563,0 -2.73438,-0.96875 -0.95312,-0.98437 -0.95312,-2.60937 v -7.17188 h 1.45312 v 7.0625 q 0,1.23438 0.54688,1.84375 0.5625,0.60938 1.6875,0.60938 1.125,0 1.67187,-0.59375 0.5625,-0.60938 0.5625,-1.85938 v -7.0625 h 1.46875 z m 6.63165,-4.875 q 1.10938,0 1.73438,0.67187 0.625,0.65625 0.625,1.79688 v 5.79687 h -1.42188 V 70.8349 q 0,-0.85937 -0.32812,-1.20312 -0.3125,-0.35938 -0.9375,-0.35938 -0.64063,0 -1.14063,0.375 -0.48437,0.35938 -0.92187,1.04688 v 5.73437 h -1.40625 v -8.07812 h 1.21875 l 0.125,1.20312 q 0.42187,-0.65625 1.04687,-1.01562 0.64063,-0.375 1.40625,-0.375 z m 4.65418,4.0625 v -1.1875 h 4.32812 v 1.1875 z m 11.44287,-1.375 q 1.09375,0.1875 1.76562,0.76562 0.67188,0.57813 0.67188,1.8125 0,3 -4.1875,3 h -2.90625 v -10.5625 h 2.5 q 2.01562,0 3.07812,0.65625 1.0625,0.65625 1.0625,2.01563 0,0.92187 -0.57812,1.53125 -0.57813,0.60937 -1.40625,0.78125 z m -3.20313,-3.82813 v 3.32813 h 1.59375 q 0.92188,0 1.51563,-0.4375 0.59375,-0.45313 0.59375,-1.26563 0,-0.92187 -0.625,-1.26562 -0.625,-0.35938 -1.875,-0.35938 z m 1.45313,8.23438 q 1.29687,0 1.96875,-0.375 0.6875,-0.39063 0.6875,-1.45313 0,-1.04687 -0.65625,-1.5 -0.65625,-0.46875 -1.71875,-0.46875 h -1.73438 v 3.79688 z m 9.85077,-7.09375 q 0.42187,0 0.79687,0.0937 l -0.26562,1.375 q -0.35938,-0.0781 -0.70313,-0.0781 -0.75,0 -1.21875,0.54688 -0.45312,0.54687 -0.71875,1.71875 v 4.60937 h -1.40625 v -8.07812 h 1.21875 l 0.14063,1.64062 q 0.3125,-0.90625 0.85937,-1.35937 0.5625,-0.46875 1.29688,-0.46875 z m 7.30188,6.375 q 0,0.5 0.17187,0.73437 0.17188,0.23438 0.51563,0.35938 l -0.32813,0.98437 q -0.625,-0.0781 -1.01562,-0.34375 -0.375,-0.28125 -0.5625,-0.875 -0.8125,1.21875 -2.40625,1.21875 -1.20313,0 -1.89063,-0.67187 -0.6875,-0.6875 -0.6875,-1.76563 0,-1.29687 0.92188,-1.98437 0.9375,-0.6875 2.64062,-0.6875 h 1.23438 v -0.59375 q 0,-0.85938 -0.42188,-1.21875 -0.40625,-0.375 -1.26562,-0.375 -0.89063,0 -2.17188,0.42187 l -0.35937,-1.01562 q 1.51562,-0.5625 2.79687,-0.5625 1.42188,0 2.125,0.70312 0.70313,0.70313 0.70313,1.98438 z m -3.29688,1.01562 q 1.20313,0 1.89063,-1.25 v -1.85937 h -1.04688 q -2.25,0 -2.25,1.65625 0,0.71875 0.34375,1.09375 0.35938,0.35937 1.0625,0.35937 z m 9.99475,-7.39062 q 1.10938,0 1.73438,0.67187 0.625,0.65625 0.625,1.79688 v 5.79687 h -1.42188 V 70.8349 q 0,-0.85937 -0.32812,-1.20312 -0.3125,-0.35938 -0.9375,-0.35938 -0.64063,0 -1.14063,0.375 -0.48437,0.35938 -0.92187,1.04688 v 5.73437 h -1.40625 v -8.07812 h 1.21875 l 0.125,1.20312 q 0.42187,-0.65625 1.04687,-1.01562 0.64063,-0.375 1.40625,-0.375 z m 8.13855,0 q 0.71875,0 1.3125,0.21875 0.59375,0.20312 1.14063,0.65625 l -0.67188,0.89062 q -0.42187,-0.3125 -0.82812,-0.45312 -0.40625,-0.14063 -0.90625,-0.14063 -0.96875,0 -1.51563,0.78125 -0.54687,0.78125 -0.54687,2.3125 0,1.53125 0.53125,2.26563 0.54687,0.71875 1.53125,0.71875 0.48437,0 0.875,-0.14063 0.40625,-0.14062 0.89062,-0.46875 l 0.64063,0.92188 q -1.09375,0.89062 -2.45313,0.89062 -1.64062,0 -2.59375,-1.09375 -0.9375,-1.10937 -0.9375,-3.0625 0,-1.28125 0.42188,-2.25 0.4375,-0.96875 1.21875,-1.5 0.79687,-0.54687 1.89062,-0.54687 z m 8.17066,0 q 1.10937,0 1.73437,0.67187 0.625,0.65625 0.625,1.79688 v 5.79687 h -1.42187 V 70.8349 q 0,-0.85937 -0.32813,-1.20312 -0.32812,-0.35938 -0.95312,-0.35938 -0.625,0 -1.125,0.375 -0.48438,0.35938 -0.92188,1.03125 v 5.75 h -1.40625 v -11.3125 l 1.40625,-0.15625 v 4.51563 q 0.95313,-1.3125 2.39063,-1.3125 z m 6.59167,0.1875 v 8.07812 h -1.40625 v -8.07812 z m -0.70312,-3.875 q 0.4375,0 0.71875,0.28125 0.28125,0.26562 0.28125,0.6875 0,0.40625 -0.28125,0.67187 -0.28125,0.26563 -0.71875,0.26563 -0.4375,0 -0.71875,-0.26563 -0.26563,-0.26562 -0.26563,-0.67187 0,-0.42188 0.26563,-0.6875 0.28125,-0.28125 0.71875,-0.28125 z m 7.41626,3.6875 q 1.10937,0 1.73437,0.67187 0.625,0.65625 0.625,1.79688 v 5.79687 h -1.42187 V 70.8349 q 0,-0.85937 -0.32813,-1.20312 -0.3125,-0.35938 -0.9375,-0.35938 -0.64062,0 -1.14062,0.375 -0.48438,0.35938 -0.92188,1.04688 v 5.73437 h -1.40625 v -8.07812 h 1.21875 l 0.125,1.20312 q 0.42188,-0.65625 1.04688,-1.01562 0.64062,-0.375 1.40625,-0.375 z m 11.70105,0.5625 q -0.45313,0.14062 -1.01563,0.1875 -0.54687,0.0469 -1.34375,0.0469 1.42188,0.64063 1.42188,2.04688 0,1.20312 -0.82813,1.96875 -0.82812,0.76562 -2.25,0.76562 -0.54687,0 -1.03125,-0.14062 -0.17187,0.10937 -0.28125,0.32812 -0.10937,0.20313 -0.10937,0.42188 0,0.65625 1.0625,0.65625 h 1.28125 q 0.8125,0 1.4375,0.29687 0.625,0.28125 0.96875,0.79688 0.35937,0.5 0.35937,1.14062 0,1.1875 -0.96875,1.8125 -0.96875,0.64063 -2.82812,0.64063 -1.29688,0 -2.0625,-0.26563 -0.75,-0.26562 -1.07813,-0.8125 -0.3125,-0.53125 -0.3125,-1.375 h 1.26563 q 0,0.48438 0.17187,0.76563 0.1875,0.29687 0.65625,0.4375 0.48438,0.14062 1.35938,0.14062 1.28125,0 1.8125,-0.3125 0.54687,-0.3125 0.54687,-0.9375 0,-0.5625 -0.4375,-0.85937 -0.42187,-0.29688 -1.1875,-0.29688 h -1.26562 q -1.03125,0 -1.5625,-0.4375 -0.53125,-0.4375 -0.53125,-1.09375 0,-0.39062 0.23437,-0.75 0.23438,-0.375 0.65625,-0.67187 -0.70312,-0.375 -1.03125,-0.90625 -0.32812,-0.54688 -0.32812,-1.32813 0,-0.8125 0.40625,-1.45312 0.40625,-0.65625 1.10937,-1.01563 0.71875,-0.35937 1.59375,-0.35937 0.95313,0.0156 1.59375,-0.0625 0.64063,-0.0937 1.0625,-0.23438 0.42188,-0.14062 1.04688,-0.42187 z m -4.10938,0.45312 q -0.79687,0 -1.23437,0.5 -0.4375,0.5 -0.4375,1.3125 0,0.82813 0.4375,1.32813 0.45312,0.48437 1.26562,0.48437 0.82813,0 1.26563,-0.46875 0.4375,-0.48437 0.4375,-1.35937 0,-1.79688 -1.73438,-1.79688 z" />
  <path
     style="fill:#eeeeee;fill-rule:evenodd"
     inkscape:connector-curvature="0"
     id="path137"
     d="m 484.02977,53.7027 h 13.6413 c 1.88342,0 3.41027,3.58466 3.41027,8.00656 0,4.42191 -1.52685,8.00656 -3.41027,8.00656 h -13.6413 v 0 c -1.88348,0 -3.41034,-3.58465 -3.41034,-8.00656 0,-4.4219 1.52686,-8.00656 3.41034,-8.00656 z" />
  <path
     style="fill:#000000;fill-opacity:0;fill-rule:evenodd"
     inkscape:connector-curvature="0"
     id="path139"
     d="m 497.67107,69.71583 c -1.88348,0 -3.41034,-3.58466 -3.41034,-8.00656 0,-4.42191 1.52686,-8.00656 3.41034,-8.00656" />
  <path
     style="fill:#000000;fill-opacity:0;fill-rule:evenodd"
     inkscape:connector-curvature="0"
     id="path141"
     d="m 484.02977,53.7027 h 13.6413 c 1.88342,0 3.41027,3.58466 3.41027,8.00656 0,4.42191 -1.52685,8.00656 -3.41027,8.00656 h -13.6413 v 0 c -1.88348,0 -3.41034,-3.58465 -3.41034,-8.00656 0,-4.4219 1.52686,-8.00656 3.41034,-8.00656 z" />
  <path
     style="fill-rule:evenodd;stroke:#595959;stroke-width:1;stroke-linecap:butt;stroke-linejoin:round"
     inkscape:connector-curvature="0"
     id="path143"
     d="m 497.67107,69.71583 c -1.88348,0 -3.41034,-3.58466 -3.41034,-8.00656 0,-4.42191 1.52686,-8.00656 3.41034,-8.00656" />
  <path
     style="fill-rule:evenodd;stroke:#595959;stroke-width:1;stroke-linecap:butt;stroke-linejoin:round"
     inkscape:connector-curvature="0"
     id="path145"
     d="m 484.02977,53.7027 h 13.6413 c 1.88342,0 3.41027,3.58466 3.41027,8.00656 0,4.42191 -1.52685,8.00656 -3.41027,8.00656 h -13.6413 v 0 c -1.88348,0 -3.41034,-3.58465 -3.41034,-8.00656 0,-4.4219 1.52686,-8.00656 3.41034,-8.00656 z" />
  <path
     style="fill:#eeeeee;fill-rule:evenodd"
     inkscape:connector-curvature="0"
     id="path147"
     d="m 380.54772,53.7027 h -13.6413 c -1.88348,0 -3.41034,3.58466 -3.41034,8.00656 0,4.42191 1.52686,8.00656 3.41034,8.00656 h 13.6413 v 0 c 1.88342,0 3.41028,-3.58465 3.41028,-8.00656 0,-4.4219 -1.52686,-8.00656 -3.41028,-8.00656 z" />
  <path
     style="fill:#000000;fill-opacity:0;fill-rule:evenodd"
     inkscape:connector-curvature="0"
     id="path149"
     d="m 366.90642,69.71583 c 1.88342,0 3.41028,-3.58466 3.41028,-8.00656 0,-4.42191 -1.52686,-8.00656 -3.41028,-8.00656" />
  <path
     style="fill:#000000;fill-opacity:0;fill-rule:evenodd"
     inkscape:connector-curvature="0"
     id="path151"
     d="m 380.54772,53.7027 h -13.6413 c -1.88348,0 -3.41034,3.58466 -3.41034,8.00656 0,4.42191 1.52686,8.00656 3.41034,8.00656 h 13.6413 v 0 c 1.88342,0 3.41028,-3.58465 3.41028,-8.00656 0,-4.4219 -1.52686,-8.00656 -3.41028,-8.00656 z" />
  <path
     style="fill-rule:evenodd;stroke:#595959;stroke-width:1;stroke-linecap:butt;stroke-linejoin:round"
     inkscape:connector-curvature="0"
     id="path153"
     d="m 366.90642,69.71583 c 1.88342,0 3.41028,-3.58466 3.41028,-8.00656 0,-4.42191 -1.52686,-8.00656 -3.41028,-8.00656" />
  <path
     style="fill-rule:evenodd;stroke:#595959;stroke-width:1;stroke-linecap:butt;stroke-linejoin:round"
     inkscape:connector-curvature="0"
     id="path155"
     d="m 380.54772,53.7027 h -13.6413 c -1.88348,0 -3.41034,3.58466 -3.41034,8.00656 0,4.42191 1.52686,8.00656 3.41034,8.00656 h 13.6413 v 0 c 1.88342,0 3.41028,-3.58465 3.41028,-8.00656 0,-4.4219 -1.52686,-8.00656 -3.41028,-8.00656 z" />
  <path
     style="fill:#eeeeee;fill-rule:evenodd"
     inkscape:connector-curvature="0"
     id="path157"
     d="m 380.54772,85.71583 h -13.6413 c -1.88348,0 -3.41034,3.58466 -3.41034,8.00656 0,4.42191 1.52686,8.00656 3.41034,8.00656 h 13.6413 v 0 c 1.88342,0 3.41028,-3.58465 3.41028,-8.00656 0,-4.4219 -1.52686,-8.00656 -3.41028,-8.00656 z" />
  <path
     style="fill:#000000;fill-opacity:0;fill-rule:evenodd"
     inkscape:connector-curvature="0"
     id="path159"
     d="m 366.90642,101.72895 c 1.88342,0 3.41028,-3.58466 3.41028,-8.00656 0,-4.42191 -1.52686,-8.00656 -3.41028,-8.00656" />
  <path
     style="fill:#000000;fill-opacity:0;fill-rule:evenodd"
     inkscape:connector-curvature="0"
     id="path161"
     d="m 380.54772,85.71583 h -13.6413 c -1.88348,0 -3.41034,3.58466 -3.41034,8.00656 0,4.42191 1.52686,8.00656 3.41034,8.00656 h 13.6413 v 0 c 1.88342,0 3.41028,-3.58465 3.41028,-8.00656 0,-4.4219 -1.52686,-8.00656 -3.41028,-8.00656 z" />
  <path
     style="fill-rule:evenodd;stroke:#595959;stroke-width:1;stroke-linecap:butt;stroke-linejoin:round"
     inkscape:connector-curvature="0"
     id="path163"
     d="m 366.90642,101.72895 c 1.88342,0 3.41028,-3.58466 3.41028,-8.00656 0,-4.42191 -1.52686,-8.00656 -3.41028,-8.00656" />
  <path
     style="fill-rule:evenodd;stroke:#595959;stroke-width:1;stroke-linecap:butt;stroke-linejoin:round"
     inkscape:connector-curvature="0"
     id="path165"
     d="m 380.54772,85.71583 h -13.6413 c -1.88348,0 -3.41034,3.58466 -3.41034,8.00656 0,4.42191 1.52686,8.00656 3.41034,8.00656 h 13.6413 v 0 c 1.88342,0 3.41028,-3.58465 3.41028,-8.00656 0,-4.4219 -1.52686,-8.00656 -3.41028,-8.00656 z" />
  <path
     style="fill:#eeeeee;fill-rule:evenodd"
     inkscape:connector-curvature="0"
     id="path167"
     d="m 380.54772,21.68958 h -13.6413 c -1.88348,0 -3.41034,3.58466 -3.41034,8.00656 0,4.42191 1.52686,8.00656 3.41034,8.00656 h 13.6413 v 0 c 1.88342,0 3.41028,-3.58465 3.41028,-8.00656 0,-4.4219 -1.52686,-8.00656 -3.41028,-8.00656 z" />
  <path
     style="fill:#000000;fill-opacity:0;fill-rule:evenodd"
     inkscape:connector-curvature="0"
     id="path169"
     d="m 366.90642,37.7027 c 1.88342,0 3.41028,-3.58466 3.41028,-8.00656 0,-4.42191 -1.52686,-8.00656 -3.41028,-8.00656" />
  <path
     style="fill:#000000;fill-opacity:0;fill-rule:evenodd"
     inkscape:connector-curvature="0"
     id="path171"
     d="m 380.54772,21.68958 h -13.6413 c -1.88348,0 -3.41034,3.58466 -3.41034,8.00656 0,4.42191 1.52686,8.00656 3.41034,8.00656 h 13.6413 v 0 c 1.88342,0 3.41028,-3.58465 3.41028,-8.00656 0,-4.4219 -1.52686,-8.00656 -3.41028,-8.00656 z" />
  <path
     style="fill-rule:evenodd;stroke:#595959;stroke-width:1;stroke-linecap:butt;stroke-linejoin:round"
     inkscape:connector-curvature="0"
     id="path173"
     d="m 366.90642,37.7027 c 1.88342,0 3.41028,-3.58466 3.41028,-8.00656 0,-4.42191 -1.52686,-8.00656 -3.41028,-8.00656" />
  <path
     style="fill-rule:evenodd;stroke:#595959;stroke-width:1;stroke-linecap:butt;stroke-linejoin:round"
     inkscape:connector-curvature="0"
     id="path175"
     d="m 380.54772,21.68958 h -13.6413 c -1.88348,0 -3.41034,3.58466 -3.41034,8.00656 0,4.42191 1.52686,8.00656 3.41034,8.00656 h 13.6413 v 0 c 1.88342,0 3.41028,-3.58465 3.41028,-8.00656 0,-4.4219 -1.52686,-8.00656 -3.41028,-8.00656 z" />
  <path
     style="fill:#d0e0e3;fill-rule:evenodd"
     inkscape:connector-curvature="0"
     id="path177"
     d="m 15.21332,79.60746 v 0 c 0,-4.45026 3.60765,-8.05789 8.05791,-8.05789 h 92.04169 c 2.13708,0 4.18664,0.84897 5.69778,2.36011 1.51114,1.51113 2.36011,3.56069 2.36011,5.69778 v 32.23065 c 0,4.45026 -3.60764,8.05792 -8.05789,8.05792 H 23.27123 c -4.45026,0 -8.05791,-3.60766 -8.05791,-8.05792 z" />
  <path
     style="fill-rule:evenodd;stroke:#000000;stroke-width:2;stroke-linecap:butt;stroke-linejoin:round"
     inkscape:connector-curvature="0"
     id="path179"
     d="m 15.21332,79.60746 v 0 c 0,-4.45026 3.60765,-8.05789 8.05791,-8.05789 h 92.04169 c 2.13708,0 4.18664,0.84897 5.69778,2.36011 1.51114,1.51113 2.36011,3.56069 2.36011,5.69778 v 32.23065 c 0,4.45026 -3.60764,8.05792 -8.05789,8.05792 H 23.27123 c -4.45026,0 -8.05791,-3.60766 -8.05791,-8.05792 z" />
  <path
     style="fill:#000000;fill-rule:nonzero"
     inkscape:connector-curvature="0"
     id="path181"
     d="m 60.46834,90.8803 q 1.95312,0 3.03125,0.82812 1.07812,0.8125 1.07812,2.4375 0,1.73438 -1.125,2.57813 -1.125,0.84375 -2.96875,0.84375 h -1.34375 v 3.875 H 57.68709 V 90.8803 Z m -0.0469,5.53125 q 1.26563,0 1.92188,-0.48438 0.67187,-0.5 0.67187,-1.76562 0,-1.14063 -0.67187,-1.64063 -0.65625,-0.5 -1.89063,-0.5 h -1.3125 v 4.39063 z m 9.87442,-5.71875 q 0.9375,0 1.59375,0.25 0.65625,0.25 1.32813,0.79687 l -0.79688,0.9375 q -0.96875,-0.78125 -2.04687,-0.78125 -1.3125,0 -2.125,1.01563 -0.79688,1 -0.79688,3.25 0,2.17187 0.79688,3.20312 0.79687,1.03125 2.10937,1.03125 0.6875,0 1.1875,-0.21875 0.5,-0.23437 1.07813,-0.65625 l 0.71875,0.92188 q -0.5,0.51562 -1.26563,0.85937 -0.76562,0.32813 -1.76562,0.32813 -1.28125,0 -2.28125,-0.64063 -1,-0.64062 -1.5625,-1.875 -0.5625,-1.23437 -0.5625,-2.95312 0,-1.73438 0.57812,-2.96875 0.59375,-1.23438 1.57813,-1.85938 1,-0.64062 2.23437,-0.64062 z m 10.50565,10.75 -0.79687,-2.65625 h -4 l -0.79688,2.65625 h -1.46875 l 3.39063,-10.5625 h 1.82812 l 3.375,10.5625 z m -4.4375,-3.82813 h 3.29688 l -1.64063,-5.51562 z" />
  <path
     style="fill:#eeeeee;fill-rule:evenodd"
     inkscape:connector-curvature="0"
     id="path183"
     d="m 121.03368,87.71583 h 13.6413 c 1.88348,0 3.41034,3.58466 3.41034,8.00656 0,4.42191 -1.52686,8.00656 -3.41034,8.00656 h -13.6413 v 0 c -1.88345,0 -3.41031,-3.58465 -3.41031,-8.00656 0,-4.4219 1.52686,-8.00656 3.41031,-8.00656 z" />
  <path
     style="fill:#000000;fill-opacity:0;fill-rule:evenodd"
     inkscape:connector-curvature="0"
     id="path185"
     d="m 134.67497,103.72895 c -1.88345,0 -3.41031,-3.58466 -3.41031,-8.00656 0,-4.42191 1.52686,-8.00656 3.41031,-8.00656" />
  <path
     style="fill:#000000;fill-opacity:0;fill-rule:evenodd"
     inkscape:connector-curvature="0"
     id="path187"
     d="m 121.03368,87.71583 h 13.6413 c 1.88348,0 3.41034,3.58466 3.41034,8.00656 0,4.42191 -1.52686,8.00656 -3.41034,8.00656 h -13.6413 v 0 c -1.88345,0 -3.41031,-3.58465 -3.41031,-8.00656 0,-4.4219 1.52686,-8.00656 3.41031,-8.00656 z" />
  <path
     style="fill-rule:evenodd;stroke:#595959;stroke-width:1;stroke-linecap:butt;stroke-linejoin:round"
     inkscape:connector-curvature="0"
     id="path189"
     d="m 134.67497,103.72895 c -1.88345,0 -3.41031,-3.58466 -3.41031,-8.00656 0,-4.42191 1.52686,-8.00656 3.41031,-8.00656" />
  <path
     style="fill-rule:evenodd;stroke:#595959;stroke-width:1;stroke-linecap:butt;stroke-linejoin:round"
     inkscape:connector-curvature="0"
     id="path191"
     d="m 121.03368,87.71583 h 13.6413 c 1.88348,0 3.41034,3.58466 3.41034,8.00656 0,4.42191 -1.52686,8.00656 -3.41034,8.00656 h -13.6413 v 0 c -1.88345,0 -3.41031,-3.58465 -3.41031,-8.00656 0,-4.4219 1.52686,-8.00656 3.41031,-8.00656 z" />
  <path
     style="fill:#eeeeee;fill-rule:evenodd"
     inkscape:connector-curvature="0"
     id="path193"
     d="M 17.55162,87.71583 H 3.91032 c -1.88346,0 -3.41032,3.58466 -3.41032,8.00656 0,4.42191 1.52686,8.00656 3.41032,8.00656 h 13.6413 v 0 c 1.88347,0 3.41032,-3.58465 3.41032,-8.00656 0,-4.4219 -1.52685,-8.00656 -3.41032,-8.00656 z" />
  <path
     style="fill:#000000;fill-opacity:0;fill-rule:evenodd"
     inkscape:connector-curvature="0"
     id="path195"
     d="m 3.91032,103.72895 c 1.88347,0 3.41032,-3.58466 3.41032,-8.00656 0,-4.42191 -1.52685,-8.00656 -3.41032,-8.00656" />
  <path
     style="fill:#000000;fill-opacity:0;fill-rule:evenodd"
     inkscape:connector-curvature="0"
     id="path197"
     d="M 17.55162,87.71583 H 3.91032 c -1.88346,0 -3.41032,3.58466 -3.41032,8.00656 0,4.42191 1.52686,8.00656 3.41032,8.00656 h 13.6413 v 0 c 1.88347,0 3.41032,-3.58465 3.41032,-8.00656 0,-4.4219 -1.52685,-8.00656 -3.41032,-8.00656 z" />
  <path
     style="fill-rule:evenodd;stroke:#595959;stroke-width:1;stroke-linecap:butt;stroke-linejoin:round"
     inkscape:connector-curvature="0"
     id="path199"
     d="m 3.91032,103.72895 c 1.88347,0 3.41032,-3.58466 3.41032,-8.00656 0,-4.42191 -1.52685,-8.00656 -3.41032,-8.00656" />
  <path
     style="fill-rule:evenodd;stroke:#595959;stroke-width:1;stroke-linecap:butt;stroke-linejoin:round"
     inkscape:connector-curvature="0"
     id="path201"
     d="M 17.55162,87.71583 H 3.91032 c -1.88346,0 -3.41032,3.58466 -3.41032,8.00656 0,4.42191 1.52686,8.00656 3.41032,8.00656 h 13.6413 v 0 c 1.88347,0 3.41032,-3.58465 3.41032,-8.00656 0,-4.4219 -1.52685,-8.00656 -3.41032,-8.00656 z" />
  <path
     style="fill:#d0e0e3;fill-rule:evenodd"
     inkscape:connector-curvature="0"
     id="path203"
     d="m 196.7126,159.7694 v 0 c 0,-9.95584 8.0708,-18.02661 18.02661,-18.02661 h 72.10428 v 0 c 4.78095,0 9.36609,1.89923 12.74674,5.27988 3.38064,3.38064 5.27984,7.96575 5.27984,12.74673 v 85.36411 c 0,9.95581 -8.07077,18.02661 -18.02658,18.02661 h -72.10428 c -9.95581,0 -18.02661,-8.0708 -18.02661,-18.02661 z" />
  <path
     style="fill-rule:evenodd;stroke:#000000;stroke-width:2;stroke-linecap:butt;stroke-linejoin:round"
     inkscape:connector-curvature="0"
     id="path205"
     d="m 196.7126,159.7694 v 0 c 0,-9.95584 8.0708,-18.02661 18.02661,-18.02661 h 72.10428 v 0 c 4.78095,0 9.36609,1.89923 12.74674,5.27988 3.38064,3.38064 5.27984,7.96575 5.27984,12.74673 v 85.36411 c 0,9.95581 -8.07077,18.02661 -18.02658,18.02661 h -72.10428 c -9.95581,0 -18.02661,-8.0708 -18.02661,-18.02661 z" />
  <path
     style="fill:#000000;fill-rule:nonzero"
     inkscape:connector-curvature="0"
     id="path207"
     d="m 226.42586,199.17143 v -10.5625 h 5.60938 l -0.17188,1.17187 h -3.98437 v 3.59375 h 3.45312 v 1.15625 h -3.45312 v 4.64063 z m 13.02072,-4.28125 q 0,0.35937 -0.0312,0.71875 h -5.15625 q 0.0937,1.34375 0.67188,1.96875 0.57812,0.625 1.5,0.625 0.59375,0 1.07812,-0.15625 0.48438,-0.17188 1.03125,-0.54688 l 0.60938,0.84375 q -1.28125,1.01563 -2.82813,1.01563 -1.67187,0 -2.625,-1.09375 -0.9375,-1.10938 -0.9375,-3.04688 0,-1.26562 0.40625,-2.23437 0.40625,-0.96875 1.15625,-1.51563 0.76563,-0.5625 1.79688,-0.5625 1.60937,0 2.46875,1.0625 0.85937,1.0625 0.85937,2.92188 z m -1.40625,-0.40625 q 0,-1.20313 -0.46875,-1.82813 -0.46875,-0.625 -1.42187,-0.625 -1.73438,0 -1.89063,2.54688 h 3.78125 z m 8.93488,2.79687 q 0,0.5 0.17187,0.73438 0.17188,0.23437 0.51563,0.35937 l -0.32813,0.98438 q -0.625,-0.0781 -1.01562,-0.34375 -0.375,-0.28125 -0.5625,-0.875 -0.8125,1.21875 -2.40625,1.21875 -1.20313,0 -1.89063,-0.67188 -0.6875,-0.6875 -0.6875,-1.76562 0,-1.29688 0.92188,-1.98438 0.9375,-0.6875 2.64062,-0.6875 h 1.23438 v -0.59375 q 0,-0.85937 -0.42188,-1.21875 -0.40625,-0.375 -1.26562,-0.375 -0.89063,0 -2.17188,0.42188 l -0.35937,-1.01563 q 1.51562,-0.5625 2.79687,-0.5625 1.42188,0 2.125,0.70313 0.70313,0.70312 0.70313,1.98437 z m -3.29688,1.01563 q 1.20313,0 1.89063,-1.25 v -1.85938 h -1.04688 q -2.25,0 -2.25,1.65625 0,0.71875 0.34375,1.09375 0.35938,0.35938 1.0625,0.35938 z m 10.27603,0.5 q -0.79687,0.5625 -1.8125,0.5625 -1.01562,0 -1.59375,-0.59375 -0.57812,-0.59375 -0.57812,-1.70313 v -4.875 h -1.40625 v -1.09375 h 1.40625 v -1.82812 l 1.40625,-0.17188 v 2 h 1.92187 l -0.15625,1.09375 h -1.76562 v 4.8125 q 0,0.625 0.21875,0.90625 0.23437,0.28125 0.75,0.28125 0.48437,0 1.07812,-0.3125 z m 7.47098,0.375 h -1.21875 l -0.10937,-1.25 q -0.45313,0.75 -1.0625,1.09375 -0.59375,0.34375 -1.45313,0.34375 -1.04687,0 -1.65625,-0.64063 -0.59375,-0.65625 -0.59375,-1.82812 v -5.79688 h 1.42188 v 5.64063 q 0,0.82812 0.28125,1.17187 0.29687,0.34375 0.95312,0.34375 1.1875,0 2.01563,-1.39062 v -5.76563 h 1.42187 z m 6.42099,-8.26563 q 0.42188,0 0.79688,0.0937 l -0.26563,1.375 q -0.35937,-0.0781 -0.70312,-0.0781 -0.75,0 -1.21875,0.54687 -0.45313,0.54688 -0.71875,1.71875 v 4.60938 h -1.40625 v -8.07813 h 1.21875 l 0.14062,1.64063 q 0.3125,-0.90625 0.85938,-1.35938 0.5625,-0.46875 1.29687,-0.46875 z m 8.05042,3.98438 q 0,0.35937 -0.0312,0.71875 h -5.15625 q 0.0937,1.34375 0.67187,1.96875 0.57813,0.625 1.5,0.625 0.59375,0 1.07813,-0.15625 0.48437,-0.17188 1.03125,-0.54688 l 0.60937,0.84375 q -1.28125,1.01563 -2.82812,1.01563 -1.67188,0 -2.625,-1.09375 -0.9375,-1.10938 -0.9375,-3.04688 0,-1.26562 0.40625,-2.23437 0.40625,-0.96875 1.15625,-1.51563 0.76562,-0.5625 1.79687,-0.5625 1.60938,0 2.46875,1.0625 0.85938,1.0625 0.85938,2.92188 z m -1.40625,-0.40625 q 0,-1.20313 -0.46875,-1.82813 -0.46875,-0.625 -1.42188,-0.625 -1.73437,0 -1.89062,2.54688 h 3.78125 z" />
  <path
     style="fill:#000000;fill-rule:nonzero"
     inkscape:connector-curvature="0"
     id="path209"
     d="m 238.86394,213.7808 q 0,1.0625 -0.4375,1.875 -0.4375,0.79687 -1.28125,1.25 -0.82813,0.45312 -1.98438,0.45312 -1.76562,0 -2.73437,-0.96875 -0.95313,-0.98437 -0.95313,-2.60937 v -7.17188 h 1.45313 v 7.0625 q 0,1.23438 0.54687,1.84375 0.5625,0.60938 1.6875,0.60938 1.125,0 1.67188,-0.59375 0.5625,-0.60938 0.5625,-1.85938 v -7.0625 h 1.46875 z m 6.63162,-4.875 q 1.10938,0 1.73438,0.67187 0.625,0.65625 0.625,1.79688 v 5.79687 h -1.42188 v -5.59375 q 0,-0.85937 -0.32812,-1.20312 -0.3125,-0.35938 -0.9375,-0.35938 -0.64063,0 -1.14063,0.375 -0.48437,0.35938 -0.92187,1.04688 v 5.73437 h -1.40625 v -8.07812 h 1.21875 l 0.125,1.20312 q 0.42187,-0.65625 1.04687,-1.01562 0.64063,-0.375 1.40625,-0.375 z m 6.59168,0.1875 v 8.07812 h -1.40625 v -8.07812 z m -0.70313,-3.875 q 0.4375,0 0.71875,0.28125 0.28125,0.26562 0.28125,0.6875 0,0.40625 -0.28125,0.67187 -0.28125,0.26563 -0.71875,0.26563 -0.4375,0 -0.71875,-0.26563 -0.26562,-0.26562 -0.26562,-0.67187 0,-0.42188 0.26562,-0.6875 0.28125,-0.28125 0.71875,-0.28125 z m 6.65067,3.6875 q 1.70312,0 2.64062,1.14062 0.95313,1.125 0.95313,3.07813 0,1.25 -0.4375,2.21875 -0.42188,0.95312 -1.23438,1.48437 -0.8125,0.53125 -1.9375,0.53125 -1.6875,0 -2.64062,-1.125 -0.95313,-1.14062 -0.95313,-3.09375 0,-1.25 0.42188,-2.20312 0.4375,-0.96875 1.25,-1.5 0.8125,-0.53125 1.9375,-0.53125 z m 0,1.14062 q -2.09375,0 -2.09375,3.09375 0,3.07813 2.07812,3.07813 2.09375,0 2.09375,-3.09375 0,-3.07813 -2.07812,-3.07813 z m 9.71728,-1.14062 q 1.10938,0 1.73438,0.67187 0.625,0.65625 0.625,1.79688 v 5.79687 h -1.42188 v -5.59375 q 0,-0.85937 -0.32812,-1.20312 -0.3125,-0.35938 -0.9375,-0.35938 -0.64063,0 -1.14063,0.375 -0.48437,0.35938 -0.92187,1.04688 v 5.73437 h -1.40625 v -8.07812 h 1.21875 l 0.125,1.20312 q 0.42187,-0.65625 1.04687,-1.01562 0.64063,-0.375 1.40625,-0.375 z" />
  <path
     style="fill:#eeeeee;fill-rule:evenodd"
     inkscape:connector-curvature="0"
     id="path211"
     d="m 302.53237,194.44547 h 13.64133 c 1.88342,0 3.41028,3.58469 3.41028,8.00656 0,4.42191 -1.52686,8.00656 -3.41028,8.00656 h -13.64133 v 0 c -1.88345,0 -3.41031,-3.58465 -3.41031,-8.00656 0,-4.42187 1.52686,-8.00656 3.41031,-8.00656 z" />
  <path
     style="fill:#000000;fill-opacity:0;fill-rule:evenodd"
     inkscape:connector-curvature="0"
     id="path213"
     d="m 316.17372,210.4586 c -1.88348,0 -3.41034,-3.58466 -3.41034,-8.00656 0,-4.42188 1.52686,-8.00656 3.41034,-8.00656" />
  <path
     style="fill:#000000;fill-opacity:0;fill-rule:evenodd"
     inkscape:connector-curvature="0"
     id="path215"
     d="m 302.53237,194.44547 h 13.64133 c 1.88342,0 3.41028,3.58469 3.41028,8.00656 0,4.42191 -1.52686,8.00656 -3.41028,8.00656 h -13.64133 v 0 c -1.88345,0 -3.41031,-3.58465 -3.41031,-8.00656 0,-4.42187 1.52686,-8.00656 3.41031,-8.00656 z" />
  <path
     style="fill-rule:evenodd;stroke:#595959;stroke-width:1;stroke-linecap:butt;stroke-linejoin:round"
     inkscape:connector-curvature="0"
     id="path217"
     d="m 316.17372,210.4586 c -1.88348,0 -3.41034,-3.58466 -3.41034,-8.00656 0,-4.42188 1.52686,-8.00656 3.41034,-8.00656" />
  <path
     style="fill-rule:evenodd;stroke:#595959;stroke-width:1;stroke-linecap:butt;stroke-linejoin:round"
     inkscape:connector-curvature="0"
     id="path219"
     d="m 302.53237,194.44547 h 13.64133 c 1.88342,0 3.41028,3.58469 3.41028,8.00656 0,4.42191 -1.52686,8.00656 -3.41028,8.00656 h -13.64133 v 0 c -1.88345,0 -3.41031,-3.58465 -3.41031,-8.00656 0,-4.42187 1.52686,-8.00656 3.41031,-8.00656 z" />
  <path
     style="fill:#eeeeee;fill-rule:evenodd"
     inkscape:connector-curvature="0"
     id="path221"
     d="m 199.05032,194.44547 h -13.6413 c -1.88345,0 -3.4103,3.58469 -3.4103,8.00656 0,4.42191 1.52685,8.00656 3.4103,8.00656 h 13.6413 v 0 c 1.88348,0 3.41034,-3.58465 3.41034,-8.00656 0,-4.42187 -1.52686,-8.00656 -3.41034,-8.00656 z" />
  <path
     style="fill:#000000;fill-opacity:0;fill-rule:evenodd"
     inkscape:connector-curvature="0"
     id="path223"
     d="m 185.40902,210.4586 c 1.88348,0 3.41034,-3.58466 3.41034,-8.00656 0,-4.42188 -1.52686,-8.00656 -3.41034,-8.00656" />
  <path
     style="fill:#000000;fill-opacity:0;fill-rule:evenodd"
     inkscape:connector-curvature="0"
     id="path225"
     d="m 199.05032,194.44547 h -13.6413 c -1.88345,0 -3.4103,3.58469 -3.4103,8.00656 0,4.42191 1.52685,8.00656 3.4103,8.00656 h 13.6413 v 0 c 1.88348,0 3.41034,-3.58465 3.41034,-8.00656 0,-4.42187 -1.52686,-8.00656 -3.41034,-8.00656 z" />
  <path
     style="fill-rule:evenodd;stroke:#595959;stroke-width:1;stroke-linecap:butt;stroke-linejoin:round"
     inkscape:connector-curvature="0"
     id="path227"
     d="m 185.40902,210.4586 c 1.88348,0 3.41034,-3.58466 3.41034,-8.00656 0,-4.42188 -1.52686,-8.00656 -3.41034,-8.00656" />
  <path
     style="fill-rule:evenodd;stroke:#595959;stroke-width:1;stroke-linecap:butt;stroke-linejoin:round"
     inkscape:connector-curvature="0"
     id="path229"
     d="m 199.05032,194.44547 h -13.6413 c -1.88345,0 -3.4103,3.58469 -3.4103,8.00656 0,4.42191 1.52685,8.00656 3.4103,8.00656 h 13.6413 v 0 c 1.88348,0 3.41034,-3.58465 3.41034,-8.00656 0,-4.42187 -1.52686,-8.00656 -3.41034,-8.00656 z" />
  <path
     style="fill:#eeeeee;fill-rule:evenodd"
     inkscape:connector-curvature="0"
     id="path231"
     d="m 199.05032,226.4586 h -13.6413 c -1.88345,0 -3.4103,3.58469 -3.4103,8.00656 0,4.42191 1.52685,8.00656 3.4103,8.00656 h 13.6413 v 0 c 1.88348,0 3.41034,-3.58465 3.41034,-8.00656 0,-4.42187 -1.52686,-8.00656 -3.41034,-8.00656 z" />
  <path
     style="fill:#000000;fill-opacity:0;fill-rule:evenodd"
     inkscape:connector-curvature="0"
     id="path233"
     d="m 185.40902,242.47172 c 1.88348,0 3.41034,-3.58466 3.41034,-8.00656 0,-4.42188 -1.52686,-8.00656 -3.41034,-8.00656" />
  <path
     style="fill:#000000;fill-opacity:0;fill-rule:evenodd"
     inkscape:connector-curvature="0"
     id="path235"
     d="m 199.05032,226.4586 h -13.6413 c -1.88345,0 -3.4103,3.58469 -3.4103,8.00656 0,4.42191 1.52685,8.00656 3.4103,8.00656 h 13.6413 v 0 c 1.88348,0 3.41034,-3.58465 3.41034,-8.00656 0,-4.42187 -1.52686,-8.00656 -3.41034,-8.00656 z" />
  <path
     style="fill-rule:evenodd;stroke:#595959;stroke-width:1;stroke-linecap:butt;stroke-linejoin:round"
     inkscape:connector-curvature="0"
     id="path237"
     d="m 185.40902,242.47172 c 1.88348,0 3.41034,-3.58466 3.41034,-8.00656 0,-4.42188 -1.52686,-8.00656 -3.41034,-8.00656" />
  <path
     style="fill-rule:evenodd;stroke:#595959;stroke-width:1;stroke-linecap:butt;stroke-linejoin:round"
     inkscape:connector-curvature="0"
     id="path239"
     d="m 199.05032,226.4586 h -13.6413 c -1.88345,0 -3.4103,3.58469 -3.4103,8.00656 0,4.42191 1.52685,8.00656 3.4103,8.00656 h 13.6413 v 0 c 1.88348,0 3.41034,-3.58465 3.41034,-8.00656 0,-4.42187 -1.52686,-8.00656 -3.41034,-8.00656 z" />
  <path
     style="fill:#eeeeee;fill-rule:evenodd"
     inkscape:connector-curvature="0"
     id="path241"
     d="m 199.05032,162.43235 h -13.6413 c -1.88345,0 -3.4103,3.58469 -3.4103,8.00656 0,4.42191 1.52685,8.00656 3.4103,8.00656 h 13.6413 v 0 c 1.88348,0 3.41034,-3.58465 3.41034,-8.00656 0,-4.42187 -1.52686,-8.00656 -3.41034,-8.00656 z" />
  <path
     style="fill:#000000;fill-opacity:0;fill-rule:evenodd"
     inkscape:connector-curvature="0"
     id="path243"
     d="m 185.40902,178.44547 c 1.88348,0 3.41034,-3.58466 3.41034,-8.00656 0,-4.42188 -1.52686,-8.00656 -3.41034,-8.00656" />
  <path
     style="fill:#000000;fill-opacity:0;fill-rule:evenodd"
     inkscape:connector-curvature="0"
     id="path245"
     d="m 199.05032,162.43235 h -13.6413 c -1.88345,0 -3.4103,3.58469 -3.4103,8.00656 0,4.42191 1.52685,8.00656 3.4103,8.00656 h 13.6413 v 0 c 1.88348,0 3.41034,-3.58465 3.41034,-8.00656 0,-4.42187 -1.52686,-8.00656 -3.41034,-8.00656 z" />
  <path
     style="fill-rule:evenodd;stroke:#595959;stroke-width:1;stroke-linecap:butt;stroke-linejoin:round"
     inkscape:connector-curvature="0"
     id="path247"
     d="m 185.40902,178.44547 c 1.88348,0 3.41034,-3.58466 3.41034,-8.00656 0,-4.42188 -1.52686,-8.00656 -3.41034,-8.00656" />
  <path
     style="fill-rule:evenodd;stroke:#595959;stroke-width:1;stroke-linecap:butt;stroke-linejoin:round"
     inkscape:connector-curvature="0"
     id="path249"
     d="m 199.05032,162.43235 h -13.6413 c -1.88345,0 -3.4103,3.58469 -3.4103,8.00656 0,4.42191 1.52685,8.00656 3.4103,8.00656 h 13.6413 v 0 c 1.88348,0 3.41034,-3.58465 3.41034,-8.00656 0,-4.42187 -1.52686,-8.00656 -3.41034,-8.00656 z" />
  <path
     style="fill:#d0e0e3;fill-rule:evenodd"
     inkscape:connector-curvature="0"
     id="path251"
     d="m 123.37138,159.6014 v 0 c 0,-9.95581 -8.07077,-18.02658 -18.02661,-18.02658 H 33.24052 v 0 c -4.78096,0 -9.36609,1.8992 -12.74674,5.27985 -3.38064,3.38064 -5.27987,7.96579 -5.27987,12.74673 v 85.36411 c 0,9.95584 8.07078,18.02664 18.02661,18.02664 h 72.10425 c 9.95584,0 18.02661,-8.0708 18.02661,-18.02664 z" />
  <path
     style="fill-rule:evenodd;stroke:#000000;stroke-width:2;stroke-linecap:butt;stroke-linejoin:round"
     inkscape:connector-curvature="0"
     id="path253"
     d="m 123.37138,159.6014 v 0 c 0,-9.95581 -8.07077,-18.02658 -18.02661,-18.02658 H 33.24052 v 0 c -4.78096,0 -9.36609,1.8992 -12.74674,5.27985 -3.38064,3.38064 -5.27987,7.96579 -5.27987,12.74673 v 85.36411 c 0,9.95584 8.07078,18.02664 18.02661,18.02664 h 72.10425 c 9.95584,0 18.02661,-8.0708 18.02661,-18.02664 z" />
  <path
     style="fill:#000000;fill-rule:nonzero"
     inkscape:connector-curvature="0"
     id="path255"
     d="m 57.62012,197.25346 q 0.9375,0 1.59375,0.25 0.65625,0.25 1.32812,0.79687 l -0.79687,0.9375 q -0.96875,-0.78125 -2.04688,-0.78125 -1.3125,0 -2.125,1.01563 -0.79687,1 -0.79687,3.25 0,2.17187 0.79687,3.20312 0.79688,1.03125 2.10938,1.03125 0.6875,0 1.1875,-0.21875 0.5,-0.23437 1.07812,-0.65625 l 0.71875,0.92188 q -0.5,0.51562 -1.26562,0.85937 -0.76563,0.32813 -1.76563,0.32813 -1.28125,0 -2.28125,-0.64063 -1,-0.64062 -1.5625,-1.875 -0.5625,-1.23437 -0.5625,-2.95312 0,-1.73438 0.57813,-2.96875 0.59375,-1.23438 1.57812,-1.85938 1,-0.64062 2.23438,-0.64062 z m 7.5271,2.48437 q 1.70312,0 2.64062,1.14063 0.95313,1.125 0.95313,3.07812 0,1.25 -0.4375,2.21875 -0.42188,0.95313 -1.23438,1.48438 -0.8125,0.53125 -1.9375,0.53125 -1.6875,0 -2.64062,-1.125 -0.95313,-1.14063 -0.95313,-3.09375 0,-1.25 0.42188,-2.20313 0.4375,-0.96875 1.25,-1.5 0.8125,-0.53125 1.9375,-0.53125 z m 0,1.14063 q -2.09375,0 -2.09375,3.09375 0,3.07812 2.07812,3.07812 2.09375,0 2.09375,-3.09375 0,-3.07812 -2.07812,-3.07812 z m 9.63913,-1.14063 q 1.54687,0 2.26562,1.10938 0.71875,1.10937 0.71875,3.10937 0,1.90625 -0.82812,3.07813 -0.82813,1.15625 -2.34375,1.15625 -1.35938,0 -2.125,-0.92188 v 3.82813 l -1.40625,0.17187 v -11.34375 h 1.21875 l 0.10937,1.09375 q 0.4375,-0.625 1.0625,-0.95312 0.625,-0.32813 1.32813,-0.32813 z m -0.53125,7.29688 q 2,0 2,-3.07813 0,-3.09375 -1.82813,-3.09375 -0.59375,0 -1.09375,0.35938 -0.48437,0.34375 -0.85937,0.89062 v 3.9375 q 0.3125,0.48438 0.76562,0.73438 0.46875,0.25 1.01563,0.25 z m 9.09048,1.01562 q -0.46875,1.40625 -1.32812,2.21875 -0.84375,0.82813 -2.42188,1 l -0.15625,-1.10937 q 0.79688,-0.14063 1.26563,-0.40625 0.48437,-0.25 0.76562,-0.65625 0.28125,-0.40625 0.53125,-1.09375 h -0.48437 l -2.70313,-8.07813 h 1.5 l 2.15625,7.04688 2.125,-7.04688 h 1.45313 z" />
  <path
     style="fill:#eeeeee;fill-rule:evenodd"
     inkscape:connector-curvature="0"
     id="path257"
     d="M 17.55162,194.2775 H 3.91032 c -1.88346,0 -3.41032,3.58466 -3.41032,8.00656 0,4.42191 1.52686,8.00656 3.41032,8.00656 h 13.6413 v 0 c 1.88347,0 3.41032,-3.58465 3.41032,-8.00656 0,-4.4219 -1.52685,-8.00656 -3.41032,-8.00656 z" />
  <path
     style="fill:#000000;fill-opacity:0;fill-rule:evenodd"
     inkscape:connector-curvature="0"
     id="path259"
     d="m 3.91032,210.29063 c 1.88347,0 3.41032,-3.58466 3.41032,-8.00656 0,-4.42191 -1.52685,-8.00656 -3.41032,-8.00656" />
  <path
     style="fill:#000000;fill-opacity:0;fill-rule:evenodd"
     inkscape:connector-curvature="0"
     id="path261"
     d="M 17.55162,194.2775 H 3.91032 c -1.88346,0 -3.41032,3.58466 -3.41032,8.00656 0,4.42191 1.52686,8.00656 3.41032,8.00656 h 13.6413 v 0 c 1.88347,0 3.41032,-3.58465 3.41032,-8.00656 0,-4.4219 -1.52685,-8.00656 -3.41032,-8.00656 z" />
  <path
     style="fill-rule:evenodd;stroke:#595959;stroke-width:1;stroke-linecap:butt;stroke-linejoin:round"
     inkscape:connector-curvature="0"
     id="path263"
     d="m 3.91032,210.29063 c 1.88347,0 3.41032,-3.58466 3.41032,-8.00656 0,-4.42191 -1.52685,-8.00656 -3.41032,-8.00656" />
  <path
     style="fill-rule:evenodd;stroke:#595959;stroke-width:1;stroke-linecap:butt;stroke-linejoin:round"
     inkscape:connector-curvature="0"
     id="path265"
     d="M 17.55162,194.2775 H 3.91032 c -1.88346,0 -3.41032,3.58466 -3.41032,8.00656 0,4.42191 1.52686,8.00656 3.41032,8.00656 h 13.6413 v 0 c 1.88347,0 3.41032,-3.58465 3.41032,-8.00656 0,-4.4219 -1.52685,-8.00656 -3.41032,-8.00656 z" />
  <path
     style="fill:#eeeeee;fill-rule:evenodd"
     inkscape:connector-curvature="0"
     id="path267"
     d="m 121.03368,194.2775 h 13.6413 c 1.88348,0 3.41034,3.58466 3.41034,8.00656 0,4.42191 -1.52686,8.00656 -3.41034,8.00656 h -13.6413 v 0 c -1.88345,0 -3.41031,-3.58465 -3.41031,-8.00656 0,-4.4219 1.52686,-8.00656 3.41031,-8.00656 z" />
  <path
     style="fill:#000000;fill-opacity:0;fill-rule:evenodd"
     inkscape:connector-curvature="0"
     id="path269"
     d="m 134.67497,210.29063 c -1.88345,0 -3.41031,-3.58466 -3.41031,-8.00656 0,-4.42191 1.52686,-8.00656 3.41031,-8.00656" />
  <path
     style="fill:#000000;fill-opacity:0;fill-rule:evenodd"
     inkscape:connector-curvature="0"
     id="path271"
     d="m 121.03368,194.2775 h 13.6413 c 1.88348,0 3.41034,3.58466 3.41034,8.00656 0,4.42191 -1.52686,8.00656 -3.41034,8.00656 h -13.6413 v 0 c -1.88345,0 -3.41031,-3.58465 -3.41031,-8.00656 0,-4.4219 1.52686,-8.00656 3.41031,-8.00656 z" />
  <path
     style="fill-rule:evenodd;stroke:#595959;stroke-width:1;stroke-linecap:butt;stroke-linejoin:round"
     inkscape:connector-curvature="0"
     id="path273"
     d="m 134.67497,210.29063 c -1.88345,0 -3.41031,-3.58466 -3.41031,-8.00656 0,-4.42191 1.52686,-8.00656 3.41031,-8.00656" />
  <path
     style="fill-rule:evenodd;stroke:#595959;stroke-width:1;stroke-linecap:butt;stroke-linejoin:round"
     inkscape:connector-curvature="0"
     id="path275"
     d="m 121.03368,194.2775 h 13.6413 c 1.88348,0 3.41034,3.58466 3.41034,8.00656 0,4.42191 -1.52686,8.00656 -3.41034,8.00656 h -13.6413 v 0 c -1.88345,0 -3.41031,-3.58465 -3.41031,-8.00656 0,-4.4219 1.52686,-8.00656 3.41031,-8.00656 z" />
  <path
     style="fill:#eeeeee;fill-rule:evenodd"
     inkscape:connector-curvature="0"
     id="path277"
     d="m 121.03368,226.29063 h 13.6413 c 1.88348,0 3.41034,3.58466 3.41034,8.00656 0,4.42191 -1.52686,8.00656 -3.41034,8.00656 h -13.6413 v 0 c -1.88345,0 -3.41031,-3.58465 -3.41031,-8.00656 0,-4.4219 1.52686,-8.00656 3.41031,-8.00656 z" />
  <path
     style="fill:#000000;fill-opacity:0;fill-rule:evenodd"
     inkscape:connector-curvature="0"
     id="path279"
     d="m 134.67497,242.30375 c -1.88345,0 -3.41031,-3.58466 -3.41031,-8.00656 0,-4.42191 1.52686,-8.00656 3.41031,-8.00656" />
  <path
     style="fill:#000000;fill-opacity:0;fill-rule:evenodd"
     inkscape:connector-curvature="0"
     id="path281"
     d="m 121.03368,226.29063 h 13.6413 c 1.88348,0 3.41034,3.58466 3.41034,8.00656 0,4.42191 -1.52686,8.00656 -3.41034,8.00656 h -13.6413 v 0 c -1.88345,0 -3.41031,-3.58465 -3.41031,-8.00656 0,-4.4219 1.52686,-8.00656 3.41031,-8.00656 z" />
  <path
     style="fill-rule:evenodd;stroke:#595959;stroke-width:1;stroke-linecap:butt;stroke-linejoin:round"
     inkscape:connector-curvature="0"
     id="path283"
     d="m 134.67497,242.30375 c -1.88345,0 -3.41031,-3.58466 -3.41031,-8.00656 0,-4.42191 1.52686,-8.00656 3.41031,-8.00656" />
  <path
     style="fill-rule:evenodd;stroke:#595959;stroke-width:1;stroke-linecap:butt;stroke-linejoin:round"
     inkscape:connector-curvature="0"
     id="path285"
     d="m 121.03368,226.29063 h 13.6413 c 1.88348,0 3.41034,3.58466 3.41034,8.00656 0,4.42191 -1.52686,8.00656 -3.41034,8.00656 h -13.6413 v 0 c -1.88345,0 -3.41031,-3.58465 -3.41031,-8.00656 0,-4.4219 1.52686,-8.00656 3.41031,-8.00656 z" />
  <path
     style="fill:#eeeeee;fill-rule:evenodd"
     inkscape:connector-curvature="0"
     id="path287"
     d="m 121.03368,162.26438 h 13.6413 c 1.88348,0 3.41034,3.58466 3.41034,8.00656 0,4.42191 -1.52686,8.00656 -3.41034,8.00656 h -13.6413 v 0 c -1.88345,0 -3.41031,-3.58465 -3.41031,-8.00656 0,-4.4219 1.52686,-8.00656 3.41031,-8.00656 z" />
  <path
     style="fill:#000000;fill-opacity:0;fill-rule:evenodd"
     inkscape:connector-curvature="0"
     id="path289"
     d="m 134.67497,178.2775 c -1.88345,0 -3.41031,-3.58466 -3.41031,-8.00656 0,-4.42191 1.52686,-8.00656 3.41031,-8.00656" />
  <path
     style="fill:#000000;fill-opacity:0;fill-rule:evenodd"
     inkscape:connector-curvature="0"
     id="path291"
     d="m 121.03368,162.26438 h 13.6413 c 1.88348,0 3.41034,3.58466 3.41034,8.00656 0,4.42191 -1.52686,8.00656 -3.41034,8.00656 h -13.6413 v 0 c -1.88345,0 -3.41031,-3.58465 -3.41031,-8.00656 0,-4.4219 1.52686,-8.00656 3.41031,-8.00656 z" />
  <path
     style="fill-rule:evenodd;stroke:#595959;stroke-width:1;stroke-linecap:butt;stroke-linejoin:round"
     inkscape:connector-curvature="0"
     id="path293"
     d="m 134.67497,178.2775 c -1.88345,0 -3.41031,-3.58466 -3.41031,-8.00656 0,-4.42191 1.52686,-8.00656 3.41031,-8.00656" />
  <path
     style="fill-rule:evenodd;stroke:#595959;stroke-width:1;stroke-linecap:butt;stroke-linejoin:round"
     inkscape:connector-curvature="0"
     id="path295"
     d="m 121.03368,162.26438 h 13.6413 c 1.88348,0 3.41034,3.58466 3.41034,8.00656 0,4.42191 -1.52686,8.00656 -3.41034,8.00656 h -13.6413 v 0 c -1.88345,0 -3.41031,-3.58465 -3.41031,-8.00656 0,-4.4219 1.52686,-8.00656 3.41031,-8.00656 z" />
  <path
     style="fill:#000000;fill-opacity:0;fill-rule:evenodd"
     inkscape:connector-curvature="0"
     id="path297"
     d="M 577.96062,61.83524 V 61.58329" />
  <path
     style="fill-rule:evenodd;stroke:#595959;stroke-width:4;stroke-linecap:butt;stroke-linejoin:round;stroke-dasharray:4, 12"
     inkscape:connector-curvature="0"
     id="path299"
     d="M 577.96062,61.83524 V 61.58329" />
  <path
     style="fill:#595959;fill-rule:nonzero;stroke:#595959;stroke-width:4;stroke-linecap:butt"
     inkscape:connector-curvature="0"
     id="path301"
     d="m 591.12065,61.5833 c 0,3.63403 -2.94598,6.57999 -6.58002,6.57999 -3.63403,0 -6.58001,-2.94596 -6.58001,-6.57999 0,-3.63403 2.94598,-6.58002 6.58001,-6.58002 3.63404,0 6.58002,2.94599 6.58002,6.58002 z" />
  <path
     style="fill:#000000;fill-opacity:0;fill-rule:evenodd"
     inkscape:connector-curvature="0"
     id="path303"
     d="M 541.71132,61.83524 V 61.58329" />
  <path
     style="fill-rule:evenodd;stroke:#595959;stroke-width:4;stroke-linecap:butt;stroke-linejoin:round;stroke-dasharray:4, 12"
     inkscape:connector-curvature="0"
     id="path305"
     d="M 541.71132,61.83524 V 61.58329" />
  <path
     style="fill:#595959;fill-rule:nonzero;stroke:#595959;stroke-width:4;stroke-linecap:butt"
     inkscape:connector-curvature="0"
     id="path307"
     d="m 554.87126,61.5833 c 0,3.63403 -2.94592,6.57999 -6.57996,6.57999 -3.63403,0 -6.58001,-2.94596 -6.58001,-6.57999 0,-3.63403 2.94598,-6.58002 6.58001,-6.58002 3.63404,0 6.57996,2.94599 6.57996,6.58002 z" />
  <path
     style="fill:#000000;fill-opacity:0;fill-rule:evenodd"
     inkscape:connector-curvature="0"
     id="path309"
     d="M 559.70867,61.83524 V 61.58329" />
  <path
     style="fill-rule:evenodd;stroke:#595959;stroke-width:4;stroke-linecap:butt;stroke-linejoin:round;stroke-dasharray:4, 12"
     inkscape:connector-curvature="0"
     id="path311"
     d="M 559.70867,61.83524 V 61.58329" />
  <path
     style="fill:#595959;fill-rule:nonzero;stroke:#595959;stroke-width:4;stroke-linecap:butt"
     inkscape:connector-curvature="0"
     id="path313"
     d="m 572.86862,61.5833 c 0,3.63403 -2.94592,6.57999 -6.57996,6.57999 -3.63403,0 -6.58001,-2.94596 -6.58001,-6.57999 0,-3.63403 2.94598,-6.58002 6.58001,-6.58002 3.63404,0 6.57996,2.94599 6.57996,6.58002 z" />
  <path
     style="fill:#000000;fill-opacity:0;fill-rule:evenodd"
     inkscape:connector-curvature="0"
     id="path315"
     d="m 577.96062,202.41004 v -0.25195" />
  <path
     style="fill-rule:evenodd;stroke:#595959;stroke-width:4;stroke-linecap:butt;stroke-linejoin:round;stroke-dasharray:4, 12"
     inkscape:connector-curvature="0"
     id="path317"
     d="m 577.96062,202.41004 v -0.25195" />
  <path
     style="fill:#595959;fill-rule:nonzero;stroke:#595959;stroke-width:4;stroke-linecap:butt"
     inkscape:connector-curvature="0"
     id="path319"
     d="m 591.12065,202.1581 c 0,3.63403 -2.94598,6.57999 -6.58002,6.57999 -3.63403,0 -6.58001,-2.94596 -6.58001,-6.57999 0,-3.63403 2.94598,-6.58002 6.58001,-6.58002 3.63404,0 6.58002,2.94599 6.58002,6.58002 z" />
  <path
     style="fill:#000000;fill-opacity:0;fill-rule:evenodd"
     inkscape:connector-curvature="0"
     id="path321"
     d="m 541.71132,202.41004 v -0.25195" />
  <path
     style="fill-rule:evenodd;stroke:#595959;stroke-width:4;stroke-linecap:butt;stroke-linejoin:round;stroke-dasharray:4, 12"
     inkscape:connector-curvature="0"
     id="path323"
     d="m 541.71132,202.41004 v -0.25195" />
  <path
     style="fill:#595959;fill-rule:nonzero;stroke:#595959;stroke-width:4;stroke-linecap:butt"
     inkscape:connector-curvature="0"
     id="path325"
     d="m 554.87126,202.1581 c 0,3.63403 -2.94592,6.57999 -6.57996,6.57999 -3.63403,0 -6.58001,-2.94596 -6.58001,-6.57999 0,-3.63403 2.94598,-6.58002 6.58001,-6.58002 3.63404,0 6.57996,2.94599 6.57996,6.58002 z" />
  <path
     style="fill:#000000;fill-opacity:0;fill-rule:evenodd"
     inkscape:connector-curvature="0"
     id="path327"
     d="m 559.70867,202.41004 v -0.25195" />
  <path
     style="fill-rule:evenodd;stroke:#595959;stroke-width:4;stroke-linecap:butt;stroke-linejoin:round;stroke-dasharray:4, 12"
     inkscape:connector-curvature="0"
     id="path329"
     d="m 559.70867,202.41004 v -0.25195" />
  <path
     style="fill:#595959;fill-rule:nonzero;stroke:#595959;stroke-width:4;stroke-linecap:butt"
     inkscape:connector-curvature="0"
     id="path331"
     d="m 572.86862,202.1581 c 0,3.63403 -2.94592,6.57999 -6.57996,6.57999 -3.63403,0 -6.58001,-2.94596 -6.58001,-6.57999 0,-3.63403 2.94598,-6.58002 6.58001,-6.58002 3.63404,0 6.57996,2.94599 6.57996,6.58002 z" />
</svg>
