<?xml version="1.0" encoding="UTF-8" standalone="no"?>
<svg
   version="1.1"
   viewBox="0 0 494.7323 128.99211"
   fill="none"
   stroke="none"
   stroke-linecap="square"
   stroke-miterlimit="10"
   id="svg73"
   sodipodi:docname="mlr3pipelines mlr3book graphics(1).svg"
   width="494.7323"
   height="128.99211"
   inkscape:version="1.1.2 (0a00cf5339, 2022-02-04)"
   xmlns:inkscape="http://www.inkscape.org/namespaces/inkscape"
   xmlns:sodipodi="http://sodipodi.sourceforge.net/DTD/sodipodi-0.dtd"
   xmlns="http://www.w3.org/2000/svg"
   xmlns:svg="http://www.w3.org/2000/svg">
  <defs
     id="defs77" />
  <sodipodi:namedview
     id="namedview75"
     pagecolor="#ffffff"
     bordercolor="#666666"
     borderopacity="1.0"
     inkscape:pageshadow="2"
     inkscape:pageopacity="0.0"
     inkscape:pagecheckerboard="0"
     showgrid="false"
     inkscape:zoom="0.6527243"
     inkscape:cx="572.98311"
     inkscape:cy="333.21879"
     inkscape:window-width="1918"
     inkscape:window-height="1198"
     inkscape:window-x="3840"
     inkscape:window-y="0"
     inkscape:window-maximized="1"
     inkscape:current-layer="svg73" />
  <clipPath
     id="g1fb832bab84_0_387.0">
    <path
       d="M 0,0 H 960 V 540 H 0 Z"
       clip-rule="nonzero"
       id="path2" />
  </clipPath>
  <path
     fill="#ffab40"
     d="m 171.65354,22.16577 v 0 C 171.65354,10.47624 181.12977,1 192.81931,1 h 279.74716 c 5.61353,0 10.99713,2.22996 14.96649,6.19931 3.96936,3.96936 6.19934,9.35295 6.19934,14.96646 v 84.66057 c 0,11.68955 -9.47625,21.16577 -21.16583,21.16577 H 192.81931 v 0 c -11.68954,0 -21.16577,-9.47623 -21.16577,-21.16577 z"
     fill-rule="evenodd"
     id="path7" />
  <path
     stroke="#000000"
     stroke-width="2"
     stroke-linejoin="round"
     stroke-linecap="butt"
     d="m 171.65354,22.16577 v 0 C 171.65354,10.47624 181.12977,1 192.81931,1 h 279.74716 c 5.61353,0 10.99713,2.22996 14.96649,6.19931 3.96936,3.96936 6.19934,9.35295 6.19934,14.96646 v 84.66057 c 0,11.68955 -9.47625,21.16577 -21.16583,21.16577 H 192.81931 v 0 c -11.68954,0 -21.16577,-9.47623 -21.16577,-21.16577 z"
     fill-rule="evenodd"
     id="path9" />
  <path
     fill="#f3f3f3"
     d="m 181.1601,26.36446 v 0 c 0,-10.60234 8.59491,-19.19724 19.19723,-19.19724 H 466.4353 c 5.09144,0 9.97431,2.02256 13.57453,5.62275 3.60016,3.60017 5.62268,8.48306 5.62268,13.57449 v 76.78662 c 0,10.60236 -8.59485,19.19723 -19.19721,19.19723 H 200.35733 v 0 c -10.60232,0 -19.19723,-8.59487 -19.19723,-19.19723 z"
     fill-rule="evenodd"
     id="path11" />
  <path
     stroke="#000000"
     stroke-width="2"
     stroke-linejoin="round"
     stroke-linecap="butt"
     d="m 181.1601,26.36446 v 0 c 0,-10.60234 8.59491,-19.19724 19.19723,-19.19724 H 466.4353 c 5.09144,0 9.97431,2.02256 13.57453,5.62275 3.60016,3.60017 5.62268,8.48306 5.62268,13.57449 v 76.78662 c 0,10.60236 -8.59485,19.19723 -19.19721,19.19723 H 200.35733 v 0 c -10.60232,0 -19.19723,-8.59487 -19.19723,-19.19723 z"
     fill-rule="evenodd"
     id="path13" />
  <path
     fill="#9fc5e8"
     d="m 115.57728,55.02625 h 34.37796 v -6.27559 l 12.55118,12.55118 -12.55118,12.55118 v -6.27559 h -34.37796 z"
     fill-rule="evenodd"
     id="path15" />
  <path
     stroke="#595959"
     stroke-width="1"
     stroke-linejoin="round"
     stroke-linecap="butt"
     d="m 115.57728,55.02625 h 34.37796 v -6.27559 l 12.55118,12.55118 -12.55118,12.55118 v -6.27559 h -34.37796 z"
     fill-rule="evenodd"
     id="path17" />
  <path
     fill="#6d9eeb"
     d="M 1,13.44824 H 97.66141 V 116.40886 H 1 Z"
     fill-rule="evenodd"
     id="path19" />
  <path
     stroke="#000000"
     stroke-width="2"
     stroke-linejoin="round"
     stroke-linecap="butt"
     d="M 1,13.44824 H 97.66141 V 116.40886 H 1 Z"
     fill-rule="evenodd"
     id="path21" />
  <path
     fill="#000000"
     d="m 24.84844,47.98918 -0.1875,1.51562 h -3.5625 V 60.84855 H 19.332815 V 49.5048 h -3.65625 v -1.51562 z m 5.67903,2.79687 q 0.51563,0 0.96875,0.125 l -0.3125,1.67188 q -0.45312,-0.10938 -0.85937,-0.10938 -0.92188,0 -1.48438,0.67188 -0.54687,0.67187 -0.875,2.09375 v 5.60937 h -1.71875 v -9.82812 h 1.48438 l 0.17187,2 q 0.39063,-1.10938 1.0625,-1.67188 0.67188,-0.5625 1.5625,-0.5625 z m 8.89173,7.76563 q 0,0.59375 0.20312,0.89062 0.21875,0.28125 0.625,0.4375 l -0.39062,1.1875 q -0.76563,-0.0937 -1.23438,-0.42187 -0.46875,-0.34375 -0.6875,-1.04688 -1,1.46875 -2.9375,1.46875 -1.45312,0 -2.29687,-0.8125 -0.82813,-0.82812 -0.82813,-2.15625 0,-1.5625 1.125,-2.39062 1.125,-0.84375 3.20313,-0.84375 h 1.5 V 54.1298 q 0,-1.04687 -0.5,-1.48437 -0.5,-0.45313 -1.54688,-0.45313 -1.07812,0 -2.64062,0.51563 l -0.4375,-1.25 q 1.82812,-0.67188 3.39062,-0.67188 1.73438,0 2.59375,0.85938 0.85938,0.84375 0.85938,2.40625 z m -4.03125,1.23437 q 1.48437,0 2.3125,-1.53125 v -2.25 H 36.4192 q -2.71875,0 -2.71875,2.01563 0,0.875 0.42187,1.32812 0.4375,0.4375 1.26563,0.4375 z m 9.274,-8.76562 v 9.82812 H 42.9432 v -9.82812 z m -0.85938,-4.71875 q 0.53125,0 0.85938,0.34375 0.34375,0.32812 0.34375,0.82812 0,0.5 -0.34375,0.82813 -0.32813,0.32812 -0.85938,0.32812 -0.53125,0 -0.875,-0.32812 -0.32812,-0.32813 -0.32812,-0.82813 0,-0.5 0.32812,-0.82812 0.34375,-0.34375 0.875,-0.34375 z m 9.04232,4.48437 q 1.34375,0 2.09375,0.8125 0.75,0.79688 0.75,2.20313 v 7.04687 h -1.71875 v -6.8125 q 0,-1.04687 -0.39063,-1.46875 -0.39062,-0.4375 -1.15625,-0.4375 -0.78125,0 -1.375,0.45313 -0.59375,0.45312 -1.125,1.28125 v 6.98437 h -1.71875 v -9.82812 h 1.48438 l 0.14062,1.45312 q 0.53125,-0.78125 1.29688,-1.23437 0.78125,-0.45313 1.71875,-0.45313 z m 8.01069,0.23438 v 9.82812 h -1.71875 v -9.82812 z m -0.85937,-4.71875 q 0.53125,0 0.85937,0.34375 0.34375,0.32812 0.34375,0.82812 0,0.5 -0.34375,0.82813 -0.32812,0.32812 -0.85937,0.32812 -0.53125,0 -0.875,-0.32812 -0.32813,-0.32813 -0.32813,-0.82813 0,-0.5 0.32813,-0.82812 0.34375,-0.34375 0.875,-0.34375 z m 9.04231,4.48437 q 1.34375,0 2.09375,0.8125 0.75,0.79688 0.75,2.20313 v 7.04687 h -1.71875 v -6.8125 q 0,-1.04687 -0.39063,-1.46875 -0.39062,-0.4375 -1.15625,-0.4375 -0.78125,0 -1.375,0.45313 -0.59375,0.45312 -1.125,1.28125 v 6.98437 h -1.71875 v -9.82812 h 1.48438 l 0.14062,1.45312 q 0.53125,-0.78125 1.29688,-1.23437 0.78125,-0.45313 1.71875,-0.45313 z m 14.22945,0.67188 q -0.5625,0.1875 -1.23438,0.25 -0.67187,0.0625 -1.64062,0.0625 1.73437,0.78125 1.73437,2.46875 0,1.48437 -1.01562,2.42187 -1,0.92188 -2.73438,0.92188 -0.67187,0 -1.25,-0.1875 -0.21875,0.15625 -0.35937,0.40625 -0.125,0.25 -0.125,0.51562 0,0.79688 1.28125,0.79688 h 1.57812 q 0.98438,0 1.75,0.35937 0.76563,0.34375 1.1875,0.96875 0.42188,0.60938 0.42188,1.39063 0,1.4375 -1.1875,2.20312 -1.17188,0.78125 -3.42188,0.78125 -1.59375,0 -2.51562,-0.32812 -0.92188,-0.3125 -1.3125,-0.96875 -0.39063,-0.65625 -0.39063,-1.6875 h 1.54688 q 0,0.59375 0.21875,0.9375 0.23437,0.35937 0.8125,0.53125 0.57812,0.17187 1.64062,0.17187 1.54688,0 2.20313,-0.39062 0.67187,-0.375 0.67187,-1.14063 0,-0.6875 -0.53125,-1.04687 -0.51562,-0.34375 -1.45312,-0.34375 h -1.54688 q -1.25,0 -1.89062,-0.53125 -0.64063,-0.53125 -0.64063,-1.34375 0,-0.48438 0.26563,-0.92188 0.28125,-0.45312 0.8125,-0.8125 -0.85938,-0.4375 -1.26563,-1.09375 -0.39062,-0.67187 -0.39062,-1.625 0,-0.98437 0.48437,-1.76562 0.5,-0.78125 1.35938,-1.21875 0.875,-0.45313 1.9375,-0.45313 1.15625,0.0312 1.9375,-0.0781 0.78125,-0.10938 1.29687,-0.28125 0.51563,-0.17188 1.26563,-0.51563 z m -5,0.5625 q -0.96875,0 -1.5,0.60937 -0.53125,0.60938 -0.53125,1.59375 0,1.01563 0.53125,1.625 0.54687,0.59375 1.53125,0.59375 1.01562,0 1.54687,-0.57812 0.53125,-0.59375 0.53125,-1.65625 0,-2.1875 -2.10937,-2.1875 z"
     fill-rule="nonzero"
     id="path23" />
  <path
     fill="#000000"
     d="m 34.51246,69.98918 q 2.92188,0 4.67188,1.35937 1.76562,1.34375 1.76562,5 0,3.57813 -1.76562,5.04688 -1.75,1.45312 -4.28125,1.45312 H 31.82496 V 69.98918 Z m -0.90625,1.42187 V 81.4423 h 1.4375 q 1.78125,0 2.90625,-1.09375 1.125,-1.09375 1.125,-4 0,-2.03125 -0.57812,-3.10937 -0.57813,-1.09375 -1.48438,-1.45313 -0.89062,-0.375 -2.10937,-0.375 z m 16.57798,9.14063 q 0,0.59375 0.20312,0.89062 0.21875,0.28125 0.625,0.4375 l -0.39062,1.1875 q -0.76563,-0.0937 -1.23438,-0.42187 -0.46875,-0.34375 -0.6875,-1.04688 -1,1.46875 -2.9375,1.46875 -1.45313,0 -2.29688,-0.8125 -0.82812,-0.82812 -0.82812,-2.15625 0,-1.5625 1.125,-2.39062 1.125,-0.84375 3.20312,-0.84375 h 1.5 V 76.1298 q 0,-1.04687 -0.5,-1.48437 -0.5,-0.45313 -1.54687,-0.45313 -1.07813,0 -2.64063,0.51563 l -0.4375,-1.25 q 1.82813,-0.67188 3.39063,-0.67188 1.73437,0 2.59375,0.85938 0.85938,0.84375 0.85938,2.40625 z m -4.03126,1.23437 q 1.48438,0 2.3125,-1.53125 v -2.25 h -1.28125 q -2.71875,0 -2.71875,2.01563 0,0.875 0.42188,1.32812 0.4375,0.4375 1.26562,0.4375 z m 12.52401,0.60938 q -0.96875,0.67187 -2.20312,0.67187 -1.25,0 -1.95313,-0.71875 -0.6875,-0.71875 -0.6875,-2.07812 v -5.92188 h -1.71875 v -1.32812 h 1.71875 v -2.21875 l 1.70313,-0.20313 v 2.42188 h 2.34375 l -0.1875,1.32812 h -2.15625 v 5.84375 q 0,0.76563 0.26562,1.125 0.28125,0.34375 0.92188,0.34375 0.57812,0 1.29687,-0.39062 z m 8.26049,-1.84375 q 0,0.59375 0.20312,0.89062 0.21875,0.28125 0.625,0.4375 l -0.39062,1.1875 q -0.76563,-0.0937 -1.23438,-0.42187 -0.46875,-0.34375 -0.6875,-1.04688 -0.99998,1.46875 -2.93748,1.46875 -1.45313,0 -2.29688,-0.8125 -0.82812,-0.82812 -0.82812,-2.15625 0,-1.5625 1.125,-2.39062 1.125,-0.84375 3.20312,-0.84375 h 1.49999 V 76.1298 q 0,-1.04687 -0.49999,-1.48437 -0.5,-0.45313 -1.54687,-0.45313 -1.07813,0 -2.64063,0.51563 l -0.4375,-1.25 q 1.82813,-0.67188 3.39063,-0.67188 1.73436,0 2.59373,0.85938 0.85938,0.84375 0.85938,2.40625 z m -4.03124,1.23437 q 1.48438,0 2.31249,-1.53125 v -2.25 h -1.28124 q -2.71875,0 -2.71875,2.01563 0,0.875 0.42188,1.32812 0.4375,0.4375 1.26562,0.4375 z"
     fill-rule="nonzero"
     id="path25" />
  <path
     fill="#d0e0e3"
     d="m 345.70603,31.49862 v 0 c 0,-9.26582 -7.51141,-16.77724 -16.77722,-16.77724 H 206.54627 c -4.44962,0 -8.71695,1.7676 -11.86331,4.91393 -3.14634,3.14635 -4.91394,7.41371 -4.91394,11.86331 v 67.10695 c 0,9.26581 7.51144,16.77722 16.77725,16.77722 h 122.38254 c 9.26581,0 16.77722,-7.51141 16.77722,-16.77722 z"
     fill-rule="evenodd"
     id="path27" />
  <path
     stroke="#000000"
     stroke-width="2"
     stroke-linejoin="round"
     stroke-linecap="butt"
     d="m 345.70603,31.49862 v 0 c 0,-9.26582 -7.51141,-16.77724 -16.77722,-16.77724 H 206.54627 c -4.44962,0 -8.71695,1.7676 -11.86331,4.91393 -3.14634,3.14635 -4.91394,7.41371 -4.91394,11.86331 v 67.10695 c 0,9.26581 7.51144,16.77722 16.77725,16.77722 h 122.38254 c 9.26581,0 16.77722,-7.51141 16.77722,-16.77722 z"
     fill-rule="evenodd"
     id="path29" />
  <path
     fill="#000000"
     d="m 235.03388,28.00647 q 1.54687,0 2.26562,1.10937 0.71875,1.10938 0.71875,3.10938 0,1.90625 -0.82812,3.07812 -0.82813,1.15625 -2.34375,1.15625 -1.35938,0 -2.125,-0.92187 v 3.82812 l -1.40625,0.17188 V 28.19397 h 1.21875 l 0.10937,1.09375 q 0.4375,-0.625 1.0625,-0.95313 0.625,-0.32812 1.32813,-0.32812 z m -0.53125,7.29687 q 2,0 2,-3.07812 0,-3.09375 -1.82813,-3.09375 -0.59375,0 -1.09375,0.35937 -0.48437,0.34375 -0.85937,0.89063 v 3.9375 q 0.3125,0.48437 0.76562,0.73437 0.46875,0.25 1.01563,0.25 z m 8.94867,-7.29687 q 1.70312,0 2.64062,1.14062 0.95313,1.125 0.95313,3.07813 0,1.25 -0.4375,2.21875 -0.42188,0.95312 -1.23438,1.48437 -0.8125,0.53125 -1.9375,0.53125 -1.6875,0 -2.64062,-1.125 -0.95313,-1.14062 -0.95313,-3.09375 0,-1.25 0.42188,-2.20312 0.4375,-0.96875 1.25,-1.5 0.8125,-0.53125 1.9375,-0.53125 z m 0,1.14062 q -2.09375,0 -2.09375,3.09375 0,3.07813 2.07812,3.07813 2.09375,0 2.09375,-3.09375 0,-3.07813 -2.07812,-3.07813 z m 8.82666,-5.21875 q -0.79688,1.1875 -1.26563,2.125 -0.46875,0.92188 -0.75,2.10938 -0.26562,1.17187 -0.26562,2.75 0,1.5625 0.26562,2.75 0.28125,1.17187 0.75,2.10937 0.46875,0.9375 1.26563,2.10938 l -0.89063,0.60937 q -1.01562,-1.4375 -1.5625,-2.35937 -0.54687,-0.9375 -0.92187,-2.21875 -0.375,-1.29688 -0.375,-3 0,-1.70313 0.375,-3 0.375,-1.29688 0.92187,-2.21875 0.54688,-0.9375 1.5625,-2.375 z m 1.76318,5.79688 -0.23437,-4.01563 h 1.51562 l -0.23437,4.01563 z m 2.76563,0 -0.23438,-4.01563 h 1.51563 l -0.23438,4.01563 z m 7.36593,-1.71875 q 1.54688,0 2.26563,1.10937 0.71875,1.10938 0.71875,3.10938 0,1.90625 -0.82813,3.07812 -0.82812,1.15625 -2.34375,1.15625 -1.35937,0 -2.125,-0.92187 v 3.82812 l -1.40625,0.17188 V 28.19397 h 1.21875 l 0.10938,1.09375 q 0.4375,-0.625 1.0625,-0.95313 0.625,-0.32812 1.32812,-0.32812 z m -0.53125,7.29687 q 2,0 2,-3.07812 0,-3.09375 -1.82812,-3.09375 -0.59375,0 -1.09375,0.35937 -0.48438,0.34375 -0.85938,0.89063 v 3.9375 q 0.3125,0.48437 0.76563,0.73437 0.46875,0.25 1.01562,0.25 z m 9.43308,-7.29687 q 0.42187,0 0.79687,0.0937 l -0.26562,1.375 q -0.35938,-0.0781 -0.70313,-0.0781 -0.75,0 -1.21875,0.54688 -0.45312,0.54687 -0.71875,1.71875 v 4.60937 h -1.40625 v -8.07812 h 1.21875 l 0.14063,1.64062 q 0.3125,-0.90625 0.85937,-1.35937 0.5625,-0.46875 1.29688,-0.46875 z m 4.97229,0 q 1.70312,0 2.64062,1.14062 0.95313,1.125 0.95313,3.07813 0,1.25 -0.4375,2.21875 -0.42188,0.95312 -1.23438,1.48437 -0.8125,0.53125 -1.9375,0.53125 -1.6875,0 -2.64062,-1.125 -0.95313,-1.14062 -0.95313,-3.09375 0,-1.25 0.42188,-2.20312 0.4375,-0.96875 1.25,-1.5 0.8125,-0.53125 1.9375,-0.53125 z m 0,1.14062 q -2.09375,0 -2.09375,3.09375 0,3.07813 2.07812,3.07813 2.09375,0 2.09375,-3.09375 0,-3.07813 -2.07812,-3.07813 z m 8.87613,2.79688 2.8125,4.32812 h -1.70313 l -1.98437,-3.42187 -2,3.42187 h -1.59375 l 2.8125,-4.26562 -2.48438,-3.8125 h 1.64063 l 1.6875,2.95312 1.70312,-2.95312 h 1.59375 z m 7.5748,4.375 q -0.46875,1.40625 -1.32813,2.21875 -0.84375,0.82812 -2.42187,1 l -0.15625,-1.10938 q 0.79687,-0.14062 1.26562,-0.40625 0.48438,-0.25 0.76563,-0.65625 0.28125,-0.40625 0.53125,-1.09375 h -0.48438 l -2.70312,-8.07812 h 1.5 l 2.15625,7.04687 2.125,-7.04687 h 1.45312 z m 4.01019,-6.59375 -0.23438,-4.01563 h 1.51563 l -0.23438,4.01563 z m 2.76562,0 -0.23437,-4.01563 h 1.51562 l -0.23437,4.01563 z m 2.48887,4.59375 q 0.45312,0 0.75,0.3125 0.3125,0.3125 0.3125,0.75 0,0.48437 -0.26563,1.09375 l -1.03125,2.34375 h -1.01562 l 0.625,-2.54688 q -0.20313,-0.15625 -0.32813,-0.375 -0.10937,-0.23437 -0.10937,-0.51562 0,-0.4375 0.29687,-0.75 0.3125,-0.3125 0.76563,-0.3125 z"
     fill-rule="nonzero"
     id="path31" />
  <path
     fill="#000000"
     d="m 239.71714,46.00647 q 0.71875,0 1.3125,0.21875 0.59375,0.20312 1.14062,0.65625 l -0.67187,0.89062 q -0.42188,-0.3125 -0.82813,-0.45312 -0.40625,-0.14063 -0.90625,-0.14063 -0.96875,0 -1.51562,0.78125 -0.54688,0.78125 -0.54688,2.3125 0,1.53125 0.53125,2.26563 0.54688,0.71875 1.53125,0.71875 0.48438,0 0.875,-0.14063 0.40625,-0.14062 0.89063,-0.46875 l 0.64062,0.92188 q -1.09375,0.89062 -2.45312,0.89062 -1.64063,0 -2.59375,-1.09375 -0.9375,-1.10937 -0.9375,-3.0625 0,-1.28125 0.42187,-2.25 0.4375,-0.96875 1.21875,-1.5 0.79688,-0.54687 1.89063,-0.54687 z m 7.09833,0 q 1.70312,0 2.64062,1.14062 0.95313,1.125 0.95313,3.07813 0,1.25 -0.4375,2.21875 -0.42188,0.95312 -1.23438,1.48437 -0.8125,0.53125 -1.9375,0.53125 -1.6875,0 -2.64062,-1.125 -0.95313,-1.14062 -0.95313,-3.09375 0,-1.25 0.42188,-2.20312 0.4375,-0.96875 1.25,-1.5 0.8125,-0.53125 1.9375,-0.53125 z m 0,1.14062 q -2.09375,0 -2.09375,3.09375 0,3.07813 2.07812,3.07813 2.09375,0 2.09375,-3.09375 0,-3.07813 -2.07812,-3.07813 z m 9.71725,-1.14062 q 1.10938,0 1.73438,0.67187 0.625,0.65625 0.625,1.79688 v 5.79687 h -1.42188 v -5.59375 q 0,-0.85937 -0.32812,-1.20312 -0.3125,-0.35938 -0.9375,-0.35938 -0.64063,0 -1.14063,0.375 -0.48437,0.35938 -0.92187,1.04688 v 5.73437 h -1.40625 v -8.07812 h 1.21875 l 0.125,1.20312 q 0.42187,-0.65625 1.04687,-1.01562 0.64063,-0.375 1.40625,-0.375 z m 9.26355,7.89062 q -0.79687,0.5625 -1.8125,0.5625 -1.01562,0 -1.59375,-0.59375 -0.57812,-0.59375 -0.57812,-1.70312 v -4.875 h -1.40625 v -1.09375 h 1.40625 v -1.82813 l 1.40625,-0.17187 v 2 h 1.92187 l -0.15625,1.09375 h -1.76562 v 4.8125 q 0,0.625 0.21875,0.90625 0.23437,0.28125 0.75,0.28125 0.48437,0 1.07812,-0.3125 z m 7.33472,-3.90625 q 0,0.35938 -0.0312,0.71875 h -5.15625 q 0.0937,1.34375 0.67187,1.96875 0.57813,0.625 1.5,0.625 0.59375,0 1.07813,-0.15625 0.48437,-0.17187 1.03125,-0.54687 l 0.60937,0.84375 q -1.28125,1.01562 -2.82812,1.01562 -1.67188,0 -2.625,-1.09375 -0.9375,-1.10937 -0.9375,-3.04687 0,-1.26563 0.40625,-2.23438 0.40625,-0.96875 1.15625,-1.51562 0.76562,-0.5625 1.79687,-0.5625 1.60938,0 2.46875,1.0625 0.85938,1.0625 0.85938,2.92187 z m -1.40625,-0.40625 q 0,-1.20312 -0.46875,-1.82812 -0.46875,-0.625 -1.42188,-0.625 -1.73437,0 -1.89062,2.54687 h 3.78125 z m 7.4476,-3.57812 q 1.10938,0 1.73438,0.67187 0.625,0.65625 0.625,1.79688 v 5.79687 h -1.42188 v -5.59375 q 0,-0.85937 -0.32812,-1.20312 -0.3125,-0.35938 -0.9375,-0.35938 -0.64063,0 -1.14063,0.375 -0.48437,0.35938 -0.92187,1.04688 v 5.73437 h -1.40625 v -8.07812 h 1.21875 l 0.125,1.20312 q 0.42187,-0.65625 1.04687,-1.01562 0.64063,-0.375 1.40625,-0.375 z m 9.26355,7.89062 q -0.79687,0.5625 -1.8125,0.5625 -1.01562,0 -1.59375,-0.59375 -0.57812,-0.59375 -0.57812,-1.70312 v -4.875 h -1.40625 v -1.09375 h 1.40625 v -1.82813 l 1.40625,-0.17187 v 2 h 1.92187 l -0.15625,1.09375 h -1.76562 v 4.8125 q 0,0.625 0.21875,0.90625 0.23437,0.28125 0.75,0.28125 0.48437,0 1.07812,-0.3125 z m 5.0173,-5.57812 v -1.1875 h 5.76563 v 1.1875 z m 0,2.95312 v -1.1875 h 5.76563 v 1.1875 z"
     fill-rule="nonzero"
     id="path33" />
  <path
     fill="#000000"
     d="m 323.6219,92.31896 q 1.01562,1.4375 1.5625,2.375 0.54687,0.92188 0.92187,2.21875 0.375,1.29688 0.375,3 0,1.70313 -0.375,3 -0.375,1.28125 -0.92187,2.21875 -0.54688,0.92188 -1.5625,2.35938 l -0.89063,-0.60938 q 0.79688,-1.17187 1.26563,-2.10937 0.46875,-0.9375 0.73437,-2.10938 0.26563,-1.1875 0.26563,-2.75 0,-1.57812 -0.26563,-2.75 -0.26562,-1.1875 -0.73437,-2.10937 -0.46875,-0.9375 -1.26563,-2.125 z"
     fill-rule="nonzero"
     id="path35" />
  <path
     fill="#f5f9fa"
     d="m 210.7988,67.48085 v 0 c 0,-4.45026 3.60764,-8.05789 8.05789,-8.05789 h 92.04169 c 2.13709,0 4.18665,0.84895 5.69779,2.36009 1.51117,1.51115 2.3601,3.56071 2.3601,5.6978 V 99.7115 c 0,4.45026 -3.60763,8.05789 -8.05789,8.05789 h -92.04169 c -4.45025,0 -8.05789,-3.60763 -8.05789,-8.05789 z"
     fill-rule="evenodd"
     id="path37" />
  <path
     stroke="#000000"
     stroke-width="2"
     stroke-linejoin="round"
     stroke-linecap="butt"
     d="m 210.7988,67.48085 v 0 c 0,-4.45026 3.60764,-8.05789 8.05789,-8.05789 h 92.04169 c 2.13709,0 4.18665,0.84895 5.69779,2.36009 1.51117,1.51115 2.3601,3.56071 2.3601,5.6978 V 99.7115 c 0,4.45026 -3.60763,8.05789 -8.05789,8.05789 h -92.04169 c -4.45025,0 -8.05789,-3.60763 -8.05789,-8.05789 z"
     fill-rule="evenodd"
     id="path39" />
  <path
     fill="#000000"
     d="m 256.0538,78.75368 q 1.95313,0 3.03125,0.82812 1.07813,0.8125 1.07813,2.4375 0,1.73438 -1.125,2.57813 -1.125,0.84375 -2.96875,0.84375 h -1.34375 v 3.875 h -1.45313 v -10.5625 z m -0.0469,5.53125 q 1.26562,0 1.92187,-0.48438 0.67188,-0.5 0.67188,-1.76562 0,-1.14063 -0.67188,-1.64063 -0.65625,-0.5 -1.89062,-0.5 h -1.3125 v 4.39063 z m 9.87441,-5.71875 q 0.9375,0 1.59375,0.25 0.65625,0.25 1.32813,0.79687 l -0.79688,0.9375 q -0.96875,-0.78125 -2.04687,-0.78125 -1.3125,0 -2.125,1.01563 -0.79688,1 -0.79688,3.25 0,2.17187 0.79688,3.20312 0.79687,1.03125 2.10937,1.03125 0.6875,0 1.1875,-0.21875 0.5,-0.23437 1.07813,-0.65625 l 0.71875,0.92188 q -0.5,0.51562 -1.26563,0.85937 -0.76562,0.32813 -1.76562,0.32813 -1.28125,0 -2.28125,-0.64063 -1,-0.64062 -1.5625,-1.875 -0.5625,-1.23437 -0.5625,-2.95312 0,-1.73438 0.57812,-2.96875 0.59375,-1.23438 1.57813,-1.85938 1,-0.64062 2.23437,-0.64062 z m 10.50565,10.75 -0.79687,-2.65625 h -4 l -0.79688,2.65625 h -1.46875 l 3.39063,-10.5625 h 1.82812 l 3.375,10.5625 z m -4.4375,-3.82813 h 3.29688 l -1.64063,-5.51562 z"
     fill-rule="nonzero"
     id="path41" />
  <path
     fill="#ffab40"
     d="m 477.2742,48.81317 v 0 c 0,-4.45026 -3.60767,-8.05791 -8.05792,-8.05791 h -92.04166 c -2.13709,0 -4.18665,0.84896 -5.69779,2.36011 -1.51117,1.51115 -2.3601,3.56072 -2.3601,5.6978 v 32.23065 c 0,4.45024 3.60763,8.05791 8.05789,8.05791 h 92.04166 c 4.45025,0 8.05792,-3.60767 8.05792,-8.05791 z"
     fill-rule="evenodd"
     id="path43" />
  <path
     stroke="#000000"
     stroke-width="2"
     stroke-linejoin="round"
     stroke-linecap="butt"
     d="m 477.2742,48.81317 v 0 c 0,-4.45026 -3.60767,-8.05791 -8.05792,-8.05791 h -92.04166 c -2.13709,0 -4.18665,0.84896 -5.69779,2.36011 -1.51117,1.51115 -2.3601,3.56072 -2.3601,5.6978 v 32.23065 c 0,4.45024 3.60763,8.05791 8.05789,8.05791 h 92.04166 c 4.45025,0 8.05792,-3.60767 8.05792,-8.05791 z"
     fill-rule="evenodd"
     id="path45" />
  <path
     fill="#000000"
     d="m 399.7005,60.086 v 9.29687 h 4.34375 l -0.17188,1.26563 h -5.625 V 60.086 Z m 11.82822,6.28125 q 0,0.35937 -0.0312,0.71875 h -5.15625 q 0.0937,1.34375 0.67187,1.96875 0.57813,0.625 1.5,0.625 0.59375,0 1.07813,-0.15625 0.48437,-0.17188 1.03125,-0.54688 l 0.60937,0.84375 q -1.28125,1.01563 -2.82812,1.01563 -1.67188,0 -2.625,-1.09375 -0.9375,-1.10938 -0.9375,-3.04688 0,-1.26562 0.40625,-2.23437 0.40625,-0.96875 1.15625,-1.51563 0.76562,-0.5625 1.79687,-0.5625 1.60938,0 2.46875,1.0625 0.85938,1.0625 0.85938,2.92188 z M 410.12247,65.961 q 0,-1.20313 -0.46875,-1.82813 -0.46875,-0.625 -1.42188,-0.625 -1.73437,0 -1.89062,2.54688 h 3.78125 z m 8.93487,2.79687 q 0,0.5 0.17188,0.73438 0.17187,0.23437 0.51562,0.35937 l -0.32812,0.98438 q -0.625,-0.0781 -1.01563,-0.34375 -0.375,-0.28125 -0.5625,-0.875 -0.8125,1.21875 -2.40625,1.21875 -1.20312,0 -1.89062,-0.67188 -0.6875,-0.6875 -0.6875,-1.76562 0,-1.29688 0.92187,-1.98438 0.9375,-0.6875 2.64063,-0.6875 h 1.23437 v -0.59375 q 0,-0.85937 -0.42187,-1.21875 -0.40625,-0.375 -1.26563,-0.375 -0.89062,0 -2.17187,0.42188 l -0.35938,-1.01563 q 1.51563,-0.5625 2.79688,-0.5625 1.42187,0 2.125,0.70313 0.70312,0.70312 0.70312,1.98437 z m -3.29687,1.01563 q 1.20312,0 1.89062,-1.25 v -1.85938 h -1.04687 q -2.25,0 -2.25,1.65625 0,0.71875 0.34375,1.09375 0.35937,0.35938 1.0625,0.35938 z m 9.71353,-7.39063 q 0.42187,0 0.79687,0.0937 l -0.26562,1.375 q -0.35938,-0.0781 -0.70313,-0.0781 -0.75,0 -1.21875,0.54687 -0.45312,0.54688 -0.71875,1.71875 v 4.60938 h -1.40625 v -8.07813 h 1.21875 l 0.14063,1.64063 q 0.3125,-0.90625 0.85937,-1.35938 0.5625,-0.46875 1.29688,-0.46875 z m 6.19794,0 q 1.10937,0 1.73437,0.67188 0.625,0.65625 0.625,1.79687 v 5.79688 h -1.42187 v -5.59375 q 0,-0.85938 -0.32813,-1.20313 -0.3125,-0.35937 -0.9375,-0.35937 -0.64062,0 -1.14062,0.375 -0.48438,0.35937 -0.92188,1.04687 v 5.73438 h -1.40625 v -8.07813 h 1.21875 l 0.125,1.20313 q 0.42188,-0.65625 1.04688,-1.01563 0.64062,-0.375 1.40625,-0.375 z m 11.2948,3.98438 q 0,0.35937 -0.0312,0.71875 h -5.15625 q 0.0937,1.34375 0.67187,1.96875 0.57813,0.625 1.5,0.625 0.59375,0 1.07813,-0.15625 0.48437,-0.17188 1.03125,-0.54688 l 0.60937,0.84375 q -1.28125,1.01563 -2.82812,1.01563 -1.67188,0 -2.625,-1.09375 -0.9375,-1.10938 -0.9375,-3.04688 0,-1.26562 0.40625,-2.23437 0.40625,-0.96875 1.15625,-1.51563 0.76562,-0.5625 1.79687,-0.5625 1.60938,0 2.46875,1.0625 0.85938,1.0625 0.85938,2.92188 z M 441.56049,65.961 q 0,-1.20313 -0.46875,-1.82813 -0.46875,-0.625 -1.42188,-0.625 -1.73437,0 -1.89062,2.54688 h 3.78125 z m 7.16632,-3.57813 q 0.42187,0 0.79687,0.0937 l -0.26562,1.375 q -0.35938,-0.0781 -0.70313,-0.0781 -0.75,0 -1.21875,0.54687 -0.45312,0.54688 -0.71875,1.71875 v 4.60938 h -1.40625 v -8.07813 h 1.21875 l 0.14063,1.64063 q 0.3125,-0.90625 0.85937,-1.35938 0.5625,-0.46875 1.29688,-0.46875 z"
     fill-rule="nonzero"
     id="path47" />
  <path
     fill="#eeeeee"
     d="m 344.11387,56.92284 h 13.6413 c 1.88345,0 3.4103,3.58466 3.4103,8.00656 0,4.42191 -1.52685,8.00656 -3.4103,8.00656 h -13.6413 v 0 c -1.88348,0 -3.41034,-3.58465 -3.41034,-8.00656 0,-4.4219 1.52686,-8.00656 3.41034,-8.00656 z"
     fill-rule="evenodd"
     id="path49" />
  <path
     fill="#000000"
     fill-opacity="0"
     d="m 357.75516,72.93596 c -1.88348,0 -3.41034,-3.58466 -3.41034,-8.00656 0,-4.42191 1.52686,-8.00656 3.41034,-8.00656"
     fill-rule="evenodd"
     id="path51" />
  <path
     fill="#000000"
     fill-opacity="0"
     d="m 344.11387,56.92284 h 13.6413 c 1.88345,0 3.4103,3.58466 3.4103,8.00656 0,4.42191 -1.52685,8.00656 -3.4103,8.00656 h -13.6413 v 0 c -1.88348,0 -3.41034,-3.58465 -3.41034,-8.00656 0,-4.4219 1.52686,-8.00656 3.41034,-8.00656 z"
     fill-rule="evenodd"
     id="path53" />
  <path
     stroke="#595959"
     stroke-width="1"
     stroke-linejoin="round"
     stroke-linecap="butt"
     d="m 357.75516,72.93596 c -1.88348,0 -3.41034,-3.58466 -3.41034,-8.00656 0,-4.42191 1.52686,-8.00656 3.41034,-8.00656"
     fill-rule="evenodd"
     id="path55" />
  <path
     stroke="#595959"
     stroke-width="1"
     stroke-linejoin="round"
     stroke-linecap="butt"
     d="m 344.11387,56.92284 h 13.6413 c 1.88345,0 3.4103,3.58466 3.4103,8.00656 0,4.42191 -1.52685,8.00656 -3.4103,8.00656 h -13.6413 v 0 c -1.88348,0 -3.41034,-3.58465 -3.41034,-8.00656 0,-4.4219 1.52686,-8.00656 3.41034,-8.00656 z"
     fill-rule="evenodd"
     id="path57" />
  <path
     fill="#eeeeee"
     d="m 370.82078,56.92284 h -13.6413 c -1.88348,0 -3.41034,3.58466 -3.41034,8.00656 0,4.42191 1.52686,8.00656 3.41034,8.00656 h 13.6413 v 0 c 1.88345,0 3.41031,-3.58465 3.41031,-8.00656 0,-4.4219 -1.52686,-8.00656 -3.41031,-8.00656 z"
     fill-rule="evenodd"
     id="path59" />
  <path
     fill="#000000"
     fill-opacity="0"
     d="m 357.17948,72.93596 c 1.88345,0 3.41031,-3.58466 3.41031,-8.00656 0,-4.42191 -1.52686,-8.00656 -3.41031,-8.00656"
     fill-rule="evenodd"
     id="path61" />
  <path
     fill="#000000"
     fill-opacity="0"
     d="m 370.82078,56.92284 h -13.6413 c -1.88348,0 -3.41034,3.58466 -3.41034,8.00656 0,4.42191 1.52686,8.00656 3.41034,8.00656 h 13.6413 v 0 c 1.88345,0 3.41031,-3.58465 3.41031,-8.00656 0,-4.4219 -1.52686,-8.00656 -3.41031,-8.00656 z"
     fill-rule="evenodd"
     id="path63" />
  <path
     stroke="#595959"
     stroke-width="1"
     stroke-linejoin="round"
     stroke-linecap="butt"
     d="m 357.17948,72.93596 c 1.88345,0 3.41031,-3.58466 3.41031,-8.00656 0,-4.42191 -1.52686,-8.00656 -3.41031,-8.00656"
     fill-rule="evenodd"
     id="path65" />
  <path
     stroke="#595959"
     stroke-width="1"
     stroke-linejoin="round"
     stroke-linecap="butt"
     d="m 370.82078,56.92284 h -13.6413 c -1.88348,0 -3.41034,3.58466 -3.41034,8.00656 0,4.42191 1.52686,8.00656 3.41034,8.00656 h 13.6413 v 0 c 1.88345,0 3.41031,-3.58465 3.41031,-8.00656 0,-4.4219 -1.52686,-8.00656 -3.41031,-8.00656 z"
     fill-rule="evenodd"
     id="path67" />
  <path
     fill="#efefef"
     d="m 348.68515,57.27849 h 16.12598 v 15.24409 h -16.12598 z"
     fill-rule="evenodd"
     id="path69" />
</svg>
