<?xml version="1.0" encoding="UTF-8" standalone="no"?>
<svg
   version="1.1"
   viewBox="0 0 531.13391 104.96064"
   fill="none"
   stroke="none"
   stroke-linecap="square"
   stroke-miterlimit="10"
   id="svg125"
   sodipodi:docname="single_pipe.svg"
   width="531.13391"
   height="104.96064"
   inkscape:version="1.1.2 (0a00cf5339, 2022-02-04)"
   xmlns:inkscape="http://www.inkscape.org/namespaces/inkscape"
   xmlns:sodipodi="http://sodipodi.sourceforge.net/DTD/sodipodi-0.dtd"
   xmlns="http://www.w3.org/2000/svg"
   xmlns:svg="http://www.w3.org/2000/svg">
  <defs
     id="defs129" />
  <sodipodi:namedview
     id="namedview127"
     pagecolor="#ffffff"
     bordercolor="#666666"
     borderopacity="1.0"
     inkscape:pageshadow="2"
     inkscape:pageopacity="0.0"
     inkscape:pagecheckerboard="0"
     showgrid="false"
     showguides="false"
     inkscape:zoom="1.3197917"
     inkscape:cx="179.5738"
     inkscape:cy="167.82952"
     inkscape:window-width="1918"
     inkscape:window-height="1198"
     inkscape:window-x="3840"
     inkscape:window-y="0"
     inkscape:window-maximized="1"
     inkscape:current-layer="svg125" />
  <clipPath
     id="g1fb832bab84_0_0.0">
    <path
       d="M 0,0 H 960 V 540 H 0 Z"
       clip-rule="nonzero"
       id="path2" />
  </clipPath>
  <path
     fill="#ffab40"
     d="m 1,18.16045 v 0 C 1,8.683 8.683,1 18.16045,1 h 494.813 c 4.5512,0 8.91607,1.80797 12.13427,5.02618 3.2182,3.21821 5.02619,7.58304 5.02619,12.13427 v 68.63974 c 0,9.47745 -7.68305,17.16045 -17.16046,17.16045 h -494.813 v 0 C 8.683,103.96064 1,96.27764 1,86.80019 Z"
     fill-rule="evenodd"
     id="path7" />
  <path
     stroke="#000000"
     stroke-width="2"
     stroke-linejoin="round"
     stroke-linecap="butt"
     d="m 1,18.16045 v 0 C 1,8.683 8.683,1 18.16045,1 h 494.813 c 4.5512,0 8.91607,1.80797 12.13427,5.02618 3.2182,3.21821 5.02619,7.58304 5.02619,12.13427 v 68.63974 c 0,9.47745 -7.68305,17.16045 -17.16046,17.16045 h -494.813 v 0 C 8.683,103.96064 1,96.27764 1,86.80019 Z"
     fill-rule="evenodd"
     id="path9" />
  <path
     fill="#f3f3f3"
     d="m 10.16273,23.49111 v 0 c 0,-8.03075 6.51021,-14.54097 14.54097,-14.54097 h 485.56372 c 3.85651,0 7.55505,1.53199 10.28204,4.25895 2.72693,2.72696 4.25891,6.42551 4.25891,10.28202 v 58.16216 c 0,8.03074 -6.51019,14.54097 -14.54095,14.54097 H 24.7037 c -8.03076,0 -14.54097,-6.51023 -14.54097,-14.54097 z"
     fill-rule="evenodd"
     id="path11" />
  <path
     stroke="#000000"
     stroke-width="2"
     stroke-linejoin="round"
     stroke-linecap="butt"
     d="m 10.16273,23.49111 v 0 c 0,-8.03075 6.51021,-14.54097 14.54097,-14.54097 h 485.56372 c 3.85651,0 7.55505,1.53199 10.28204,4.25895 2.72693,2.72696 4.25891,6.42551 4.25891,10.28202 v 58.16216 c 0,8.03074 -6.51019,14.54097 -14.54095,14.54097 H 24.7037 c -8.03076,0 -14.54097,-6.51023 -14.54097,-14.54097 z"
     fill-rule="evenodd"
     id="path13" />
  <path
     fill="#ffab40"
     d="m 411.39896,32.83223 v 0 c 0,-5.56065 4.50781,-10.06845 10.06842,-10.06845 h 84.7135 c 2.67035,0 5.23126,1.06078 7.11951,2.94898 1.88818,1.88819 2.94897,4.44915 2.94897,7.11947 v 40.27255 c 0,5.56066 -4.50781,10.06845 -10.06848,10.06845 h -84.7135 c -5.56061,0 -10.06842,-4.50779 -10.06842,-10.06845 z"
     fill-rule="evenodd"
     id="path15" />
  <path
     stroke="#000000"
     stroke-width="2"
     stroke-linejoin="round"
     stroke-linecap="butt"
     d="m 411.39896,32.83223 v 0 c 0,-5.56065 4.50781,-10.06845 10.06842,-10.06845 h 84.7135 c 2.67035,0 5.23126,1.06078 7.11951,2.94898 1.88818,1.88819 2.94897,4.44915 2.94897,7.11947 v 40.27255 c 0,5.56066 -4.50781,10.06845 -10.06848,10.06845 h -84.7135 c -5.56061,0 -10.06842,-4.50779 -10.06842,-10.06845 z"
     fill-rule="evenodd"
     id="path17" />
  <path
     fill="#000000"
     d="m 437.91385,39.12601 q 2.39063,0 3.84375,1.10937 1.45313,1.10938 1.45313,4.125 0,2.92188 -1.45313,4.125 -1.45312,1.20313 -3.51562,1.20313 h -2.53125 v -10.5625 z m -0.75,1.17187 v 8.23438 h 1.1875 q 1.46875,0 2.39063,-0.89063 0.92187,-0.90625 0.92187,-3.28125 0,-1.67187 -0.48437,-2.5625 -0.46875,-0.90625 -1.20313,-1.20312 -0.73437,-0.29688 -1.73437,-0.29688 z m 14.44946,5.10938 q 0,0.35937 -0.0312,0.71875 h -5.1563 q 0.0937,1.34375 0.67188,1.96875 0.57812,0.625 1.5,0.625 0.59375,0 1.07812,-0.15625 0.48438,-0.17188 1.03125,-0.54688 l 0.60938,0.84375 q -1.28125,1.01563 -2.82813,1.01563 -1.67187,0 -2.625,-1.09375 -0.9375,-1.10938 -0.9375,-3.04688 0,-1.26562 0.40625,-2.23437 0.40625,-0.96875 1.15625,-1.51563 0.76563,-0.5625 1.79688,-0.5625 1.60937,0 2.46875,1.0625 0.85937,1.0625 0.85937,2.92188 z m -1.40625,-0.40625 q 0,-1.20313 -0.46875,-1.82813 -0.46875,-0.625 -1.42187,-0.625 -1.73438,0 -1.89063,2.54688 h 3.78125 z m 6.60389,-3.57813 q 0.71875,0 1.3125,0.21875 0.59375,0.20313 1.14062,0.65625 l -0.67187,0.89063 q -0.42188,-0.3125 -0.82813,-0.45313 -0.40625,-0.14062 -0.90625,-0.14062 -0.96875,0 -1.51562,0.78125 -0.54688,0.78125 -0.54688,2.3125 0,1.53125 0.53125,2.26562 0.54688,0.71875 1.53125,0.71875 0.48438,0 0.875,-0.14062 0.40625,-0.14063 0.89063,-0.46875 l 0.64062,0.92187 q -1.09375,0.89063 -2.45312,0.89063 -1.64063,0 -2.59375,-1.09375 -0.9375,-1.10938 -0.9375,-3.0625 0,-1.28125 0.42187,-2.25 0.4375,-0.96875 1.21875,-1.5 0.79688,-0.54688 1.89063,-0.54688 z m 5.77996,0.1875 v 8.07813 h -1.40625 v -8.07813 z m -0.70312,-3.875 q 0.4375,0 0.71875,0.28125 0.28125,0.26563 0.28125,0.6875 0,0.40625 -0.28125,0.67188 -0.28125,0.26562 -0.71875,0.26562 -0.4375,0 -0.71875,-0.26562 -0.26563,-0.26563 -0.26563,-0.67188 0,-0.42187 0.26563,-0.6875 0.28125,-0.28125 0.71875,-0.28125 z m 5.80688,3.6875 q 0.82813,0 1.48438,0.23438 0.67187,0.23437 1.26562,0.6875 l -0.59375,0.89062 q -0.54687,-0.35937 -1.04687,-0.51562 -0.5,-0.17188 -1.0625,-0.17188 -0.6875,0 -1.09375,0.28125 -0.39063,0.28125 -0.39063,0.78125 0,0.48438 0.375,0.76563 0.375,0.26562 1.35938,0.53125 1.34375,0.34375 2.01562,0.92187 0.67188,0.57813 0.67188,1.59375 0,1.1875 -0.9375,1.82813 -0.92188,0.625 -2.25,0.625 -1.84375,0 -3.04688,-1.0625 l 0.75,-0.85938 q 1.01563,0.78125 2.26563,0.78125 0.79687,0 1.26562,-0.32812 0.46875,-0.32813 0.46875,-0.89063 0,-0.42187 -0.17187,-0.67187 -0.17188,-0.25 -0.59375,-0.4375 -0.40625,-0.20313 -1.20313,-0.40625 -1.28125,-0.34375 -1.85937,-0.90625 -0.57813,-0.57813 -0.57813,-1.45313 0,-0.625 0.375,-1.125 0.375,-0.51562 1.04688,-0.79687 0.67187,-0.29688 1.48437,-0.29688 z m 6.37702,0.1875 v 8.07813 h -1.40625 v -8.07813 z m -0.70313,-3.875 q 0.4375,0 0.71875,0.28125 0.28125,0.26563 0.28125,0.6875 0,0.40625 -0.28125,0.67188 -0.28125,0.26562 -0.71875,0.26562 -0.4375,0 -0.71875,-0.26562 -0.26562,-0.26563 -0.26562,-0.67188 0,-0.42187 0.26562,-0.6875 0.28125,-0.28125 0.71875,-0.28125 z m 6.6507,3.6875 q 1.70312,0 2.64062,1.14063 0.95313,1.125 0.95313,3.07812 0,1.25 -0.4375,2.21875 -0.42188,0.95313 -1.23438,1.48438 -0.8125,0.53125 -1.9375,0.53125 -1.6875,0 -2.64062,-1.125 -0.95313,-1.14063 -0.95313,-3.09375 0,-1.25 0.42188,-2.20313 0.4375,-0.96875 1.25,-1.5 0.8125,-0.53125 1.9375,-0.53125 z m 0,1.14063 q -2.09375,0 -2.09375,3.09375 0,3.07812 2.07812,3.07812 2.09375,0 2.09375,-3.09375 0,-3.07812 -2.07812,-3.07812 z m 9.71722,-1.14063 q 1.10938,0 1.73438,0.67188 0.625,0.65625 0.625,1.79687 v 5.79688 h -1.42188 v -5.59375 q 0,-0.85938 -0.32812,-1.20313 -0.3125,-0.35937 -0.9375,-0.35937 -0.64063,0 -1.14063,0.375 -0.48437,0.35937 -0.92187,1.04687 v 5.73438 h -1.40625 v -8.07813 h 1.21875 l 0.125,1.20313 q 0.42187,-0.65625 1.04687,-1.01563 0.64063,-0.375 1.40625,-0.375 z"
     fill-rule="nonzero"
     id="path19" />
  <path
     fill="#000000"
     d="m 456.77521,57.12601 -0.14062,1.25 h -2.9375 v 9.3125 h -1.45313 v -9.3125 h -3 v -1.25 z m 4.66779,2.29687 q 0.42187,0 0.79687,0.0937 l -0.26562,1.375 q -0.35938,-0.0781 -0.70313,-0.0781 -0.75,0 -1.21875,0.54687 -0.45312,0.54688 -0.71875,1.71875 v 4.60938 h -1.40625 v -8.07813 h 1.21875 l 0.14063,1.64063 q 0.3125,-0.90625 0.85937,-1.35938 0.5625,-0.46875 1.29688,-0.46875 z m 8.05041,3.98438 q 0,0.35937 -0.0312,0.71875 h -5.15625 q 0.0937,1.34375 0.67188,1.96875 0.57812,0.625 1.5,0.625 0.59375,0 1.07812,-0.15625 0.48438,-0.17188 1.03125,-0.54688 l 0.60938,0.84375 q -1.28125,1.01563 -2.82813,1.01563 -1.67187,0 -2.625,-1.09375 -0.9375,-1.10938 -0.9375,-3.04688 0,-1.26562 0.40625,-2.23437 0.40625,-0.96875 1.15625,-1.51563 0.76563,-0.5625 1.79688,-0.5625 1.60937,0 2.46875,1.0625 0.85937,1.0625 0.85937,2.92188 z m -1.40625,-0.40625 q 0,-1.20313 -0.46875,-1.82813 -0.46875,-0.625 -1.42187,-0.625 -1.73438,0 -1.89063,2.54688 h 3.78125 z m 9.76013,0.40625 q 0,0.35937 -0.0312,0.71875 h -5.15625 q 0.0937,1.34375 0.67188,1.96875 0.57812,0.625 1.5,0.625 0.59375,0 1.07812,-0.15625 0.48438,-0.17188 1.03125,-0.54688 l 0.60938,0.84375 q -1.28125,1.01563 -2.82813,1.01563 -1.67187,0 -2.625,-1.09375 -0.9375,-1.10938 -0.9375,-3.04688 0,-1.26562 0.40625,-2.23437 0.40625,-0.96875 1.15625,-1.51563 0.76563,-0.5625 1.79688,-0.5625 1.60937,0 2.46875,1.0625 0.85937,1.0625 0.85937,2.92188 z m -1.40625,-0.40625 q 0,-1.20313 -0.46875,-1.82813 -0.46875,-0.625 -1.42187,-0.625 -1.73438,0 -1.89063,2.54688 h 3.78125 z"
     fill-rule="nonzero"
     id="path21" />
  <path
     fill="#d0e0e3"
     d="m 150.72571,32.83223 v 0 c 0,-5.56065 4.50781,-10.06845 10.06845,-10.06845 h 84.7135 c 2.67032,0 5.23126,1.06078 7.11948,2.94898 1.88821,1.88819 2.94897,4.44915 2.94897,7.11947 v 40.27255 c 0,5.56066 -4.50778,10.06845 -10.06845,10.06845 h -84.7135 c -5.56064,0 -10.06845,-4.50779 -10.06845,-10.06845 z"
     fill-rule="evenodd"
     id="path23" />
  <path
     stroke="#000000"
     stroke-width="2"
     stroke-linejoin="round"
     stroke-linecap="butt"
     d="m 150.72571,32.83223 v 0 c 0,-5.56065 4.50781,-10.06845 10.06845,-10.06845 h 84.7135 c 2.67032,0 5.23126,1.06078 7.11948,2.94898 1.88821,1.88819 2.94897,4.44915 2.94897,7.11947 v 40.27255 c 0,5.56066 -4.50778,10.06845 -10.06845,10.06845 h -84.7135 c -5.56064,0 -10.06845,-4.50779 -10.06845,-10.06845 z"
     fill-rule="evenodd"
     id="path25" />
  <path
     fill="#000000"
     d="m 183.46051,49.68851 v -10.5625 h 5.60937 l -0.17187,1.17187 h -3.98438 v 3.59375 h 3.45313 v 1.15625 h -3.45313 v 4.64063 z m 11.96551,-1.89063 q 0,0.5 0.17188,0.73438 0.17187,0.23437 0.51562,0.35937 l -0.32812,0.98438 q -0.625,-0.0781 -1.01563,-0.34375 -0.375,-0.28125 -0.5625,-0.875 -0.8125,1.21875 -2.40625,1.21875 -1.20312,0 -1.89062,-0.67188 -0.6875,-0.6875 -0.6875,-1.76562 0,-1.29688 0.92187,-1.98438 0.9375,-0.6875 2.64063,-0.6875 h 1.23437 v -0.59375 q 0,-0.85937 -0.42187,-1.21875 -0.40625,-0.375 -1.26563,-0.375 -0.89062,0 -2.17187,0.42188 l -0.35938,-1.01563 q 1.51563,-0.5625 2.79688,-0.5625 1.42187,0 2.125,0.70313 0.70312,0.70312 0.70312,1.98437 z m -3.29687,1.01563 q 1.20312,0 1.89062,-1.25 v -1.85938 h -1.04687 q -2.25,0 -2.25,1.65625 0,0.71875 0.34375,1.09375 0.35937,0.35938 1.0625,0.35938 z m 9.15103,-7.39063 q 0.71875,0 1.3125,0.21875 0.59375,0.20313 1.14063,0.65625 l -0.67188,0.89063 q -0.42187,-0.3125 -0.82812,-0.45313 -0.40625,-0.14062 -0.90625,-0.14062 -0.96875,0 -1.51563,0.78125 -0.54687,0.78125 -0.54687,2.3125 0,1.53125 0.53125,2.26562 0.54687,0.71875 1.53125,0.71875 0.48437,0 0.875,-0.14062 0.40625,-0.14063 0.89062,-0.46875 l 0.64063,0.92187 q -1.09375,0.89063 -2.45313,0.89063 -1.64062,0 -2.59375,-1.09375 -0.9375,-1.10938 -0.9375,-3.0625 0,-1.28125 0.42188,-2.25 0.4375,-0.96875 1.21875,-1.5 0.79687,-0.54688 1.89062,-0.54688 z m 8.45184,7.89063 q -0.79687,0.5625 -1.8125,0.5625 -1.01562,0 -1.59375,-0.59375 -0.57812,-0.59375 -0.57812,-1.70313 v -4.875 h -1.40625 v -1.09375 h 1.40625 v -1.82812 l 1.40625,-0.17188 v 2 h 1.92187 l -0.15625,1.09375 h -1.76562 v 4.8125 q 0,0.625 0.21875,0.90625 0.23437,0.28125 0.75,0.28125 0.48437,0 1.07812,-0.3125 z m 4.2566,-7.89063 q 1.70312,0 2.64062,1.14063 0.95313,1.125 0.95313,3.07812 0,1.25 -0.4375,2.21875 -0.42188,0.95313 -1.23438,1.48438 -0.8125,0.53125 -1.9375,0.53125 -1.6875,0 -2.64062,-1.125 -0.95313,-1.14063 -0.95313,-3.09375 0,-1.25 0.42188,-2.20313 0.4375,-0.96875 1.25,-1.5 0.8125,-0.53125 1.9375,-0.53125 z m 0,1.14063 q -2.09375,0 -2.09375,3.09375 0,3.07812 2.07812,3.07812 2.09375,0 2.09375,-3.09375 0,-3.07812 -2.07812,-3.07812 z m 9.43603,-1.14063 q 0.42188,0 0.79688,0.0937 l -0.26563,1.375 q -0.35937,-0.0781 -0.70312,-0.0781 -0.75,0 -1.21875,0.54687 -0.45313,0.54688 -0.71875,1.71875 v 4.60938 h -1.40625 v -8.07813 h 1.21875 l 0.14062,1.64063 q 0.3125,-0.90625 0.85938,-1.35938 0.5625,-0.46875 1.29687,-0.46875 z"
     fill-rule="nonzero"
     id="path27" />
  <path
     fill="#000000"
     d="m 178.67935,57.12601 -0.17188,1.17187 h -4.09375 v 3.4375 h 3.5625 v 1.17188 h -3.5625 v 3.60937 h 4.39063 v 1.17188 h -5.84375 v -10.5625 z m 6.04724,2.29687 q 1.10938,0 1.73438,0.67188 0.625,0.65625 0.625,1.79687 v 5.79688 h -1.42188 v -5.59375 q 0,-0.85938 -0.32812,-1.20313 -0.3125,-0.35937 -0.9375,-0.35937 -0.64063,0 -1.14063,0.375 -0.48437,0.35937 -0.92187,1.04687 v 5.73438 h -1.40625 v -8.07813 h 1.21875 l 0.125,1.20313 q 0.42187,-0.65625 1.04687,-1.01563 0.64063,-0.375 1.40625,-0.375 z m 8.13855,0 q 0.71875,0 1.3125,0.21875 0.59375,0.20313 1.14063,0.65625 l -0.67188,0.89063 q -0.42187,-0.3125 -0.82812,-0.45313 -0.40625,-0.14062 -0.90625,-0.14062 -0.96875,0 -1.51563,0.78125 -0.54687,0.78125 -0.54687,2.3125 0,1.53125 0.53125,2.26562 0.54687,0.71875 1.53125,0.71875 0.48437,0 0.875,-0.14062 0.40625,-0.14063 0.89062,-0.46875 l 0.64063,0.92187 q -1.09375,0.89063 -2.45313,0.89063 -1.64062,0 -2.59375,-1.09375 -0.9375,-1.10938 -0.9375,-3.0625 0,-1.28125 0.42188,-2.25 0.4375,-0.96875 1.21875,-1.5 0.79687,-0.54688 1.89062,-0.54688 z m 7.09833,0 q 1.70312,0 2.64062,1.14063 0.95313,1.125 0.95313,3.07812 0,1.25 -0.4375,2.21875 -0.42188,0.95313 -1.23438,1.48438 -0.8125,0.53125 -1.9375,0.53125 -1.6875,0 -2.64062,-1.125 -0.95313,-1.14063 -0.95313,-3.09375 0,-1.25 0.42188,-2.20313 0.4375,-0.96875 1.25,-1.5 0.8125,-0.53125 1.9375,-0.53125 z m 0,1.14063 q -2.09375,0 -2.09375,3.09375 0,3.07812 2.07812,3.07812 2.09375,0 2.09375,-3.09375 0,-3.07812 -2.07812,-3.07812 z m 12.17038,-4.20313 v 11.32813 h -1.23438 l -0.14062,-1.125 q -0.39063,0.625 -1,0.96875 -0.59375,0.34375 -1.32813,0.34375 -1.4375,0 -2.25,-1.125 -0.79687,-1.14063 -0.79687,-3.0625 0,-1.25 0.375,-2.20313 0.39062,-0.96875 1.10937,-1.51562 0.71875,-0.54688 1.6875,-0.54688 1.23438,0 2.17188,1 v -4.23437 z m -3.39063,10.39063 q 0.64063,0 1.09375,-0.29688 0.46875,-0.29687 0.89063,-0.89062 v -3.95313 q -0.39063,-0.53125 -0.84375,-0.79687 -0.45313,-0.26563 -1.01563,-0.26563 -0.9375,0 -1.45312,0.78125 -0.51563,0.78125 -0.51563,2.32813 0,1.5625 0.46875,2.32812 0.48438,0.76563 1.375,0.76563 z m 7.71314,-7.14063 v 8.07813 h -1.40625 v -8.07813 z m -0.70313,-3.875 q 0.4375,0 0.71875,0.28125 0.28125,0.26563 0.28125,0.6875 0,0.40625 -0.28125,0.67188 -0.28125,0.26562 -0.71875,0.26562 -0.4375,0 -0.71875,-0.26562 -0.26562,-0.26563 -0.26562,-0.67188 0,-0.42187 0.26562,-0.6875 0.28125,-0.28125 0.71875,-0.28125 z m 7.41629,3.6875 q 1.10938,0 1.73438,0.67188 0.625,0.65625 0.625,1.79687 v 5.79688 h -1.42188 v -5.59375 q 0,-0.85938 -0.32812,-1.20313 -0.3125,-0.35937 -0.9375,-0.35937 -0.64063,0 -1.14063,0.375 -0.48437,0.35937 -0.92187,1.04687 v 5.73438 h -1.40625 v -8.07813 h 1.21875 l 0.125,1.20313 q 0.42187,-0.65625 1.04687,-1.01563 0.64063,-0.375 1.40625,-0.375 z m 11.70105,0.5625 q -0.45312,0.14063 -1.01562,0.1875 -0.54688,0.0469 -1.34375,0.0469 1.42187,0.64062 1.42187,2.04687 0,1.20313 -0.82812,1.96875 -0.82813,0.76563 -2.25,0.76563 -0.54688,0 -1.03125,-0.14063 -0.17188,0.10938 -0.28125,0.32813 -0.10938,0.20312 -0.10938,0.42187 0,0.65625 1.0625,0.65625 h 1.28125 q 0.8125,0 1.4375,0.29688 0.625,0.28125 0.96875,0.79687 0.35938,0.5 0.35938,1.14063 0,1.1875 -0.96875,1.8125 -0.96875,0.64062 -2.82813,0.64062 -1.29687,0 -2.0625,-0.26562 -0.75,-0.26563 -1.07812,-0.8125 -0.3125,-0.53125 -0.3125,-1.375 h 1.26562 q 0,0.48437 0.17188,0.76562 0.1875,0.29688 0.65625,0.4375 0.48437,0.14063 1.35937,0.14063 1.28125,0 1.8125,-0.3125 0.54688,-0.3125 0.54688,-0.9375 0,-0.5625 -0.4375,-0.85938 -0.42188,-0.29687 -1.1875,-0.29687 h -1.26563 q -1.03125,0 -1.5625,-0.4375 -0.53125,-0.4375 -0.53125,-1.09375 0,-0.39063 0.23438,-0.75 0.23437,-0.375 0.65625,-0.67188 -0.70313,-0.375 -1.03125,-0.90625 -0.32813,-0.54687 -0.32813,-1.32812 0,-0.8125 0.40625,-1.45313 0.40625,-0.65625 1.10938,-1.01562 0.71875,-0.35938 1.59375,-0.35938 0.95312,0.0156 1.59375,-0.0625 0.64062,-0.0937 1.0625,-0.23437 0.42187,-0.14063 1.04687,-0.42188 z m -4.10937,0.45313 q -0.79688,0 -1.23438,0.5 -0.4375,0.5 -0.4375,1.3125 0,0.82812 0.4375,1.32812 0.45313,0.48438 1.26563,0.48438 0.82812,0 1.26562,-0.46875 0.4375,-0.48438 0.4375,-1.35938 0,-1.79687 -1.73437,-1.79687 z"
     fill-rule="nonzero"
     id="path29" />
  <path
     fill="#d0e0e3"
     d="m 281.06299,32.4359 v 0 c 0,-5.56065 4.50781,-10.06844 10.06845,-10.06844 h 84.7135 c 2.67035,0 5.23126,1.06077 7.11945,2.94898 1.88824,1.8882 2.94897,4.44914 2.94897,7.11946 v 40.27257 c 0,5.56064 -4.50775,10.06843 -10.06842,10.06843 h -84.7135 c -5.56064,0 -10.06845,-4.50779 -10.06845,-10.06843 z"
     fill-rule="evenodd"
     id="path31" />
  <path
     stroke="#000000"
     stroke-width="2"
     stroke-linejoin="round"
     stroke-linecap="butt"
     d="m 281.06299,32.4359 v 0 c 0,-5.56065 4.50781,-10.06844 10.06845,-10.06844 h 84.7135 c 2.67035,0 5.23126,1.06077 7.11945,2.94898 1.88824,1.8882 2.94897,4.44914 2.94897,7.11946 v 40.27257 c 0,5.56064 -4.50775,10.06843 -10.06842,10.06843 h -84.7135 c -5.56064,0 -10.06845,-4.50779 -10.06845,-10.06843 z"
     fill-rule="evenodd"
     id="path33" />
  <path
     fill="#000000"
     d="m 318.91257,49.29218 h -1.40625 l -0.35938,-4.76563 q -0.23437,-2.8125 -0.26562,-4.3125 l -2.28125,7.875 h -1.375 l -2.40625,-7.89062 q 0,1.92187 -0.1875,4.4375 l -0.35938,4.65625 h -1.375 l 0.875,-10.5625 h 1.95313 l 2.23437,7.6875 2.10938,-7.6875 h 1.96875 z m 8.51904,-4.28125 q 0,0.35937 -0.0312,0.71875 h -5.15625 q 0.0937,1.34375 0.67188,1.96875 0.57812,0.625 1.5,0.625 0.59375,0 1.07812,-0.15625 0.48438,-0.17188 1.03125,-0.54688 l 0.60938,0.84375 q -1.28125,1.01563 -2.82813,1.01563 -1.67187,0 -2.625,-1.09375 -0.9375,-1.10938 -0.9375,-3.04688 0,-1.26562 0.40625,-2.23437 0.40625,-0.96875 1.15625,-1.51563 0.76563,-0.5625 1.79688,-0.5625 1.60937,0 2.46875,1.0625 0.85937,1.0625 0.85937,2.92188 z m -1.40625,-0.40625 q 0,-1.20313 -0.46875,-1.82813 -0.46875,-0.625 -1.42187,-0.625 -1.73438,0 -1.89063,2.54688 h 3.78125 z m 9.9007,-6.64063 v 11.32813 h -1.23438 l -0.14062,-1.125 q -0.39063,0.625 -1,0.96875 -0.59375,0.34375 -1.32813,0.34375 -1.4375,0 -2.25,-1.125 -0.79687,-1.14063 -0.79687,-3.0625 0,-1.25 0.375,-2.20313 0.39062,-0.96875 1.10937,-1.51562 0.71875,-0.54688 1.6875,-0.54688 1.23438,0 2.17188,1 v -4.23437 z m -3.39063,10.39063 q 0.64063,0 1.09375,-0.29688 0.46875,-0.29687 0.89063,-0.89062 v -3.95313 q -0.39063,-0.53125 -0.84375,-0.79687 -0.45313,-0.26563 -1.01563,-0.26563 -0.9375,0 -1.45312,0.78125 -0.51563,0.78125 -0.51563,2.32813 0,1.5625 0.46875,2.32812 0.48438,0.76563 1.375,0.76563 z m 7.71314,-7.14063 v 8.07813 h -1.40625 v -8.07813 z m -0.70313,-3.875 q 0.4375,0 0.71875,0.28125 0.28125,0.26563 0.28125,0.6875 0,0.40625 -0.28125,0.67188 -0.28125,0.26562 -0.71875,0.26562 -0.4375,0 -0.71875,-0.26562 -0.26562,-0.26563 -0.26562,-0.67188 0,-0.42187 0.26562,-0.6875 0.28125,-0.28125 0.71875,-0.28125 z m 9.05695,10.0625 q 0,0.5 0.17188,0.73438 0.17187,0.23437 0.51562,0.35937 l -0.32812,0.98438 q -0.625,-0.0781 -1.01563,-0.34375 -0.375,-0.28125 -0.5625,-0.875 -0.8125,1.21875 -2.40625,1.21875 -1.20312,0 -1.89062,-0.67188 -0.6875,-0.6875 -0.6875,-1.76562 0,-1.29688 0.92187,-1.98438 0.9375,-0.6875 2.64063,-0.6875 h 1.23437 v -0.59375 q 0,-0.85937 -0.42187,-1.21875 -0.40625,-0.375 -1.26563,-0.375 -0.89062,0 -2.17187,0.42188 l -0.35938,-1.01563 q 1.51563,-0.5625 2.79688,-0.5625 1.42187,0 2.125,0.70313 0.70312,0.70312 0.70312,1.98437 z m -3.29687,1.01563 q 1.20312,0 1.89062,-1.25 V 45.3078 h -1.04687 q -2.25,0 -2.25,1.65625 0,0.71875 0.34375,1.09375 0.35937,0.35938 1.0625,0.35938 z m 9.99475,-7.39063 q 1.10937,0 1.73437,0.67188 0.625,0.65625 0.625,1.79687 v 5.79688 h -1.42187 v -5.59375 q 0,-0.85938 -0.32813,-1.20313 -0.3125,-0.35937 -0.9375,-0.35937 -0.64062,0 -1.14062,0.375 -0.48438,0.35937 -0.92188,1.04687 v 5.73438 h -1.40625 v -8.07813 h 1.21875 l 0.125,1.20313 q 0.42188,-0.65625 1.04688,-1.01563 0.64062,-0.375 1.40625,-0.375 z"
     fill-rule="nonzero"
     id="path35" />
  <path
     fill="#000000"
     d="m 297.85327,56.72968 v 10.5625 h -1.45313 v -10.5625 z m 11.09995,2.29687 q 1,0 1.59375,0.67188 0.59375,0.67187 0.59375,1.79687 v 5.79688 h -1.40625 v -5.59375 q 0,-1.5625 -1.125,-1.5625 -0.60938,0 -1.03125,0.34375 -0.40625,0.34375 -0.875,1.07812 v 5.73438 h -1.40625 v -5.59375 q 0,-1.5625 -1.14063,-1.5625 -0.60937,0 -1.03125,0.35937 -0.40625,0.34375 -0.875,1.0625 v 5.73438 h -1.40625 v -8.07813 h 1.21875 l 0.125,1.1875 q 0.89063,-1.375 2.32813,-1.375 0.75,0 1.26562,0.39063 0.53125,0.375 0.76563,1.0625 0.48437,-0.70313 1.04687,-1.07813 0.57813,-0.375 1.35938,-0.375 z m 8.7456,0 q 1.54687,0 2.26562,1.10938 0.71875,1.10937 0.71875,3.10937 0,1.90625 -0.82812,3.07813 -0.82813,1.15625 -2.34375,1.15625 -1.35938,0 -2.125,-0.92188 v 3.82813 l -1.40625,0.17187 V 59.21405 h 1.21875 l 0.10937,1.09375 q 0.4375,-0.625 1.0625,-0.95312 0.625,-0.32813 1.32813,-0.32813 z m -0.53125,7.29688 q 2,0 2,-3.07813 0,-3.09375 -1.82813,-3.09375 -0.59375,0 -1.09375,0.35938 -0.48437,0.34375 -0.85937,0.89062 v 3.9375 q 0.3125,0.48438 0.76562,0.73438 0.46875,0.25 1.01563,0.25 z m 11.93304,0.96875 h -1.21875 l -0.10937,-1.25 q -0.45313,0.75 -1.0625,1.09375 -0.59375,0.34375 -1.45313,0.34375 -1.04687,0 -1.65625,-0.64063 -0.59375,-0.65625 -0.59375,-1.82812 v -5.79688 h 1.42188 v 5.64063 q 0,0.82812 0.28125,1.17187 0.29687,0.34375 0.95312,0.34375 1.1875,0 2.01563,-1.39062 v -5.76563 h 1.42187 z m 6.98352,-0.375 q -0.79687,0.5625 -1.8125,0.5625 -1.01562,0 -1.59375,-0.59375 -0.57812,-0.59375 -0.57812,-1.70313 v -4.875 h -1.40625 v -1.09375 h 1.40625 v -1.82812 l 1.40625,-0.17188 v 2 h 1.92187 l -0.15625,1.09375 h -1.76562 v 4.8125 q 0,0.625 0.21875,0.90625 0.23437,0.28125 0.75,0.28125 0.48437,0 1.07812,-0.3125 z m 6.78547,-1.51563 q 0,0.5 0.17187,0.73438 0.17188,0.23437 0.51563,0.35937 l -0.32813,0.98438 q -0.625,-0.0781 -1.01562,-0.34375 -0.375,-0.28125 -0.5625,-0.875 -0.8125,1.21875 -2.40625,1.21875 -1.20313,0 -1.89063,-0.67188 -0.6875,-0.6875 -0.6875,-1.76562 0,-1.29688 0.92188,-1.98438 0.9375,-0.6875 2.64062,-0.6875 h 1.23438 v -0.59375 q 0,-0.85937 -0.42188,-1.21875 -0.40625,-0.375 -1.26562,-0.375 -0.89063,0 -2.17188,0.42188 l -0.35937,-1.01563 q 1.51562,-0.5625 2.79687,-0.5625 1.42188,0 2.125,0.70313 0.70313,0.70312 0.70313,1.98437 z m -3.29688,1.01563 q 1.20313,0 1.89063,-1.25 V 63.3078 h -1.04688 q -2.25,0 -2.25,1.65625 0,0.71875 0.34375,1.09375 0.35938,0.35938 1.0625,0.35938 z m 10.27606,0.5 q -0.79687,0.5625 -1.8125,0.5625 -1.01562,0 -1.59375,-0.59375 -0.57812,-0.59375 -0.57812,-1.70313 v -4.875 h -1.40625 v -1.09375 h 1.40625 v -1.82812 l 1.40625,-0.17188 v 2 h 1.92187 l -0.15625,1.09375 h -1.76562 v 4.8125 q 0,0.625 0.21875,0.90625 0.23437,0.28125 0.75,0.28125 0.48437,0 1.07812,-0.3125 z m 2.86158,-7.70313 v 8.07813 h -1.40625 v -8.07813 z m -0.70313,-3.875 q 0.4375,0 0.71875,0.28125 0.28125,0.26563 0.28125,0.6875 0,0.40625 -0.28125,0.67188 -0.28125,0.26562 -0.71875,0.26562 -0.4375,0 -0.71875,-0.26562 -0.26562,-0.26563 -0.26562,-0.67188 0,-0.42187 0.26562,-0.6875 0.28125,-0.28125 0.71875,-0.28125 z m 6.6507,3.6875 q 1.70312,0 2.64062,1.14063 0.95313,1.125 0.95313,3.07812 0,1.25 -0.4375,2.21875 -0.42188,0.95313 -1.23438,1.48438 -0.8125,0.53125 -1.9375,0.53125 -1.6875,0 -2.64062,-1.125 -0.95313,-1.14063 -0.95313,-3.09375 0,-1.25 0.42188,-2.20313 0.4375,-0.96875 1.25,-1.5 0.8125,-0.53125 1.9375,-0.53125 z m 0,1.14063 q -2.09375,0 -2.09375,3.09375 0,3.07812 2.07812,3.07812 2.09375,0 2.09375,-3.09375 0,-3.07812 -2.07812,-3.07812 z m 9.71722,-1.14063 q 1.10938,0 1.73438,0.67188 0.625,0.65625 0.625,1.79687 v 5.79688 h -1.42188 v -5.59375 q 0,-0.85938 -0.32812,-1.20313 -0.3125,-0.35937 -0.9375,-0.35937 -0.64063,0 -1.14063,0.375 -0.48437,0.35937 -0.92187,1.04687 v 5.73438 h -1.40625 v -8.07813 h 1.21875 l 0.125,1.20313 q 0.42187,-0.65625 1.04687,-1.01563 0.64063,-0.375 1.40625,-0.375 z"
     fill-rule="nonzero"
     id="path37" />
  <path
     fill="#d0e0e3"
     d="m 20.39108,32.4359 v 0 c 0,-5.56065 4.50778,-10.06844 10.06844,-10.06844 h 84.71352 c 2.67031,0 5.23126,1.06077 7.11944,2.94898 1.88822,1.8882 2.94898,4.44914 2.94898,7.11946 v 40.27257 c 0,5.56064 -4.50779,10.06843 -10.06842,10.06843 H 30.45952 c -5.56066,0 -10.06844,-4.50779 -10.06844,-10.06843 z"
     fill-rule="evenodd"
     id="path39" />
  <path
     stroke="#000000"
     stroke-width="2"
     stroke-linejoin="round"
     stroke-linecap="butt"
     d="m 20.39108,32.4359 v 0 c 0,-5.56065 4.50778,-10.06844 10.06844,-10.06844 h 84.71352 c 2.67031,0 5.23126,1.06077 7.11944,2.94898 1.88822,1.8882 2.94898,4.44914 2.94898,7.11946 v 40.27257 c 0,5.56064 -4.50779,10.06843 -10.06842,10.06843 H 30.45952 c -5.56066,0 -10.06844,-4.50779 -10.06844,-10.06843 z"
     fill-rule="evenodd"
     id="path41" />
  <path
     fill="#000000"
     d="m 52.21728,47.54218 q 1.0625,0 1.8125,0.3125 0.75,0.29687 1.45312,0.92187 l -0.79687,0.89063 Q 54.09228,49.1828 53.51415,48.96405 52.93603,48.7453 52.27978,48.7453 q -0.82813,0 -1.375,0.39063 -0.53125,0.375 -0.53125,1.10937 0,0.45313 0.1875,0.78125 0.1875,0.3125 0.67187,0.57813 0.5,0.25 1.45313,0.54687 1,0.29688 1.65625,0.65625 0.65625,0.34375 1.0625,0.96875 0.40625,0.625 0.40625,1.57813 0,0.92187 -0.45313,1.625 -0.4375,0.70312 -1.29687,1.10937 -0.84375,0.39063 -2.01563,0.39063 -2.1875,0 -3.57812,-1.375 l 0.79687,-0.875 q 0.64063,0.51562 1.29688,0.78125 0.65625,0.26562 1.46875,0.26562 0.98437,0 1.625,-0.48437 0.64062,-0.48438 0.64062,-1.39063 0,-0.53125 -0.20312,-0.875 -0.1875,-0.34375 -0.67188,-0.60937 -0.48437,-0.28125 -1.40625,-0.5625 -1.625,-0.48438 -2.375,-1.17188 -0.75,-0.70312 -0.75,-1.875 0,-0.79687 0.42188,-1.42187 0.42187,-0.64063 1.17187,-0.98438 0.76563,-0.35937 1.73438,-0.35937 z m 8.61948,2.48437 q 0.71875,0 1.3125,0.21875 0.59375,0.20313 1.14062,0.65625 l -0.67187,0.89063 q -0.42188,-0.3125 -0.82813,-0.45313 -0.40625,-0.14062 -0.90625,-0.14062 -0.96875,0 -1.51562,0.78125 -0.54688,0.78125 -0.54688,2.3125 0,1.53125 0.53125,2.26562 0.54688,0.71875 1.53125,0.71875 0.48438,0 0.875,-0.14062 0.40625,-0.14063 0.89063,-0.46875 l 0.64062,0.92187 q -1.09375,0.89063 -2.45312,0.89063 -1.64063,0 -2.59375,-1.09375 -0.9375,-1.10938 -0.9375,-3.0625 0,-1.28125 0.42187,-2.25 0.4375,-0.96875 1.21875,-1.5 0.79688,-0.54688 1.89063,-0.54688 z m 9.65789,6.375 q 0,0.5 0.17188,0.73438 0.17187,0.23437 0.51562,0.35937 l -0.32812,0.98438 q -0.625,-0.0781 -1.01563,-0.34375 -0.375,-0.28125 -0.5625,-0.875 -0.8125,1.21875 -2.40625,1.21875 -1.20312,0 -1.89062,-0.67188 -0.6875,-0.6875 -0.6875,-1.76562 0,-1.29688 0.92187,-1.98438 0.9375,-0.6875 2.64063,-0.6875 h 1.23437 v -0.59375 q 0,-0.85937 -0.42187,-1.21875 -0.40625,-0.375 -1.26563,-0.375 -0.89062,0 -2.17187,0.42188 l -0.35938,-1.01563 q 1.51563,-0.5625 2.79688,-0.5625 1.42187,0 2.125,0.70313 0.70312,0.70312 0.70312,1.98437 z m -3.29687,1.01563 q 1.20312,0 1.89062,-1.25 V 54.3078 h -1.04687 q -2.25,0 -2.25,1.65625 0,0.71875 0.34375,1.09375 0.35937,0.35938 1.0625,0.35938 z m 7.65396,1.0625 q -0.78125,0 -1.23438,-0.46875 -0.45312,-0.46875 -0.45312,-1.3125 v -9.73438 l 1.42187,-0.17187 v 9.875 q 0,0.34375 0.10938,0.5 0.10937,0.14062 0.39062,0.14062 0.29688,0 0.51563,-0.0937 l 0.375,0.98438 q -0.51563,0.28125 -1.125,0.28125 z m 4.28802,-8.26563 v 8.07813 h -1.40625 v -8.07813 z m -0.70312,-3.875 q 0.4375,0 0.71875,0.28125 0.28125,0.26563 0.28125,0.6875 0,0.40625 -0.28125,0.67188 -0.28125,0.26562 -0.71875,0.26562 -0.4375,0 -0.71875,-0.26562 -0.26563,-0.26563 -0.26563,-0.67188 0,-0.42187 0.26563,-0.6875 0.28125,-0.28125 0.71875,-0.28125 z m 7.41629,3.6875 q 1.10938,0 1.73438,0.67188 0.625,0.65625 0.625,1.79687 v 5.79688 h -1.42188 v -5.59375 q 0,-0.85938 -0.32812,-1.20313 -0.3125,-0.35937 -0.9375,-0.35937 -0.64063,0 -1.14063,0.375 -0.48437,0.35937 -0.92187,1.04687 v 5.73438 h -1.40625 v -8.07813 h 1.21875 l 0.125,1.20313 q 0.42187,-0.65625 1.04687,-1.01563 0.64063,-0.375 1.40625,-0.375 z m 11.70105,0.5625 q -0.45312,0.14063 -1.01562,0.1875 -0.54688,0.0469 -1.34375,0.0469 1.42187,0.64062 1.42187,2.04687 0,1.20313 -0.82812,1.96875 -0.82813,0.76563 -2.25,0.76563 -0.54688,0 -1.03125,-0.14063 -0.17188,0.10938 -0.28125,0.32813 -0.10938,0.20312 -0.10938,0.42187 0,0.65625 1.0625,0.65625 h 1.28125 q 0.8125,0 1.4375,0.29688 0.625,0.28125 0.96875,0.79687 0.35938,0.5 0.35938,1.14063 0,1.1875 -0.96875,1.8125 -0.96875,0.64062 -2.82813,0.64062 -1.29687,0 -2.0625,-0.26562 -0.75,-0.26563 -1.07812,-0.8125 -0.3125,-0.53125 -0.3125,-1.375 h 1.26562 q 0,0.48437 0.17188,0.76562 0.1875,0.29688 0.65625,0.4375 0.48437,0.14063 1.35937,0.14063 1.28125,0 1.8125,-0.3125 0.54688,-0.3125 0.54688,-0.9375 0,-0.5625 -0.4375,-0.85938 -0.42188,-0.29687 -1.1875,-0.29687 h -1.26563 q -1.03125,0 -1.5625,-0.4375 -0.53125,-0.4375 -0.53125,-1.09375 0,-0.39063 0.23438,-0.75 0.23437,-0.375 0.65625,-0.67188 -0.70313,-0.375 -1.03125,-0.90625 -0.32813,-0.54687 -0.32813,-1.32812 0,-0.8125 0.40625,-1.45313 0.40625,-0.65625 1.10938,-1.01562 0.71875,-0.35938 1.59375,-0.35938 0.95312,0.0156 1.59375,-0.0625 0.64062,-0.0937 1.0625,-0.23437 0.42187,-0.14063 1.04687,-0.42188 z m -4.10937,0.45313 q -0.79688,0 -1.23438,0.5 -0.4375,0.5 -0.4375,1.3125 0,0.82812 0.4375,1.32812 0.45313,0.48438 1.26563,0.48438 0.82812,0 1.26562,-0.46875 0.4375,-0.48438 0.4375,-1.35938 0,-1.79687 -1.73437,-1.79687 z"
     fill-rule="nonzero"
     id="path43" />
  <path
     fill="#eeeeee"
     d="m 411.78131,44.96195 h -13.6413 c -1.88348,0 -3.41034,3.58466 -3.41034,8.00656 0,4.42191 1.52686,8.00656 3.41034,8.00656 h 13.6413 v 0 c 1.88348,0 3.41034,-3.58465 3.41034,-8.00656 0,-4.4219 -1.52686,-8.00656 -3.41034,-8.00656 z"
     fill-rule="evenodd"
     id="path45" />
  <path
     fill="#000000"
     fill-opacity="0"
     d="m 398.14001,60.97507 c 1.88348,0 3.41034,-3.58466 3.41034,-8.00656 0,-4.42191 -1.52686,-8.00656 -3.41034,-8.00656"
     fill-rule="evenodd"
     id="path47" />
  <path
     fill="#000000"
     fill-opacity="0"
     d="m 411.78131,44.96195 h -13.6413 c -1.88348,0 -3.41034,3.58466 -3.41034,8.00656 0,4.42191 1.52686,8.00656 3.41034,8.00656 h 13.6413 v 0 c 1.88348,0 3.41034,-3.58465 3.41034,-8.00656 0,-4.4219 -1.52686,-8.00656 -3.41034,-8.00656 z"
     fill-rule="evenodd"
     id="path49" />
  <path
     stroke="#595959"
     stroke-width="1"
     stroke-linejoin="round"
     stroke-linecap="butt"
     d="m 398.14001,60.97507 c 1.88348,0 3.41034,-3.58466 3.41034,-8.00656 0,-4.42191 -1.52686,-8.00656 -3.41034,-8.00656"
     fill-rule="evenodd"
     id="path51" />
  <path
     stroke="#595959"
     stroke-width="1"
     stroke-linejoin="round"
     stroke-linecap="butt"
     d="m 411.78131,44.96195 h -13.6413 c -1.88348,0 -3.41034,3.58466 -3.41034,8.00656 0,4.42191 1.52686,8.00656 3.41034,8.00656 h 13.6413 v 0 c 1.88348,0 3.41034,-3.58465 3.41034,-8.00656 0,-4.4219 -1.52686,-8.00656 -3.41034,-8.00656 z"
     fill-rule="evenodd"
     id="path53" />
  <path
     fill="#eeeeee"
     d="m 385.07437,44.96195 h 13.6413 c 1.88348,0 3.41034,3.58466 3.41034,8.00656 0,4.42191 -1.52686,8.00656 -3.41034,8.00656 h -13.6413 v 0 c -1.88348,0 -3.41034,-3.58465 -3.41034,-8.00656 0,-4.4219 1.52686,-8.00656 3.41034,-8.00656 z"
     fill-rule="evenodd"
     id="path55" />
  <path
     fill="#000000"
     fill-opacity="0"
     d="m 398.71567,60.97507 c -1.88348,0 -3.41034,-3.58466 -3.41034,-8.00656 0,-4.42191 1.52686,-8.00656 3.41034,-8.00656"
     fill-rule="evenodd"
     id="path57" />
  <path
     fill="#000000"
     fill-opacity="0"
     d="m 385.07437,44.96195 h 13.6413 c 1.88348,0 3.41034,3.58466 3.41034,8.00656 0,4.42191 -1.52686,8.00656 -3.41034,8.00656 h -13.6413 v 0 c -1.88348,0 -3.41034,-3.58465 -3.41034,-8.00656 0,-4.4219 1.52686,-8.00656 3.41034,-8.00656 z"
     fill-rule="evenodd"
     id="path59" />
  <path
     stroke="#595959"
     stroke-width="1"
     stroke-linejoin="round"
     stroke-linecap="butt"
     d="m 398.71567,60.97507 c -1.88348,0 -3.41034,-3.58466 -3.41034,-8.00656 0,-4.42191 1.52686,-8.00656 3.41034,-8.00656"
     fill-rule="evenodd"
     id="path61" />
  <path
     stroke="#595959"
     stroke-width="1"
     stroke-linejoin="round"
     stroke-linecap="butt"
     d="m 385.07437,44.96195 h 13.6413 c 1.88348,0 3.41034,3.58466 3.41034,8.00656 0,4.42191 -1.52686,8.00656 -3.41034,8.00656 h -13.6413 v 0 c -1.88348,0 -3.41034,-3.58465 -3.41034,-8.00656 0,-4.4219 1.52686,-8.00656 3.41034,-8.00656 z"
     fill-rule="evenodd"
     id="path63" />
  <path
     fill="#efefef"
     d="m 407.21001,45.31758 h -16.12598 v 15.24409 h 16.12598 z"
     fill-rule="evenodd"
     id="path65" />
  <path
     fill="#eeeeee"
     d="m 281.67368,44.56561 h -13.6413 c -1.88348,0 -3.41034,3.58467 -3.41034,8.00656 0,4.42191 1.52686,8.00656 3.41034,8.00656 h 13.6413 v 0 c 1.88345,0 3.41031,-3.58465 3.41031,-8.00656 0,-4.42189 -1.52686,-8.00656 -3.41031,-8.00656 z"
     fill-rule="evenodd"
     id="path67" />
  <path
     fill="#000000"
     fill-opacity="0"
     d="m 268.03238,60.57874 c 1.88345,0 3.41031,-3.58466 3.41031,-8.00656 0,-4.42189 -1.52686,-8.00656 -3.41031,-8.00656"
     fill-rule="evenodd"
     id="path69" />
  <path
     fill="#000000"
     fill-opacity="0"
     d="m 281.67368,44.56561 h -13.6413 c -1.88348,0 -3.41034,3.58467 -3.41034,8.00656 0,4.42191 1.52686,8.00656 3.41034,8.00656 h 13.6413 v 0 c 1.88345,0 3.41031,-3.58465 3.41031,-8.00656 0,-4.42189 -1.52686,-8.00656 -3.41031,-8.00656 z"
     fill-rule="evenodd"
     id="path71" />
  <path
     stroke="#595959"
     stroke-width="1"
     stroke-linejoin="round"
     stroke-linecap="butt"
     d="m 268.03238,60.57874 c 1.88345,0 3.41031,-3.58466 3.41031,-8.00656 0,-4.42189 -1.52686,-8.00656 -3.41031,-8.00656"
     fill-rule="evenodd"
     id="path73" />
  <path
     stroke="#595959"
     stroke-width="1"
     stroke-linejoin="round"
     stroke-linecap="butt"
     d="m 281.67368,44.56561 h -13.6413 c -1.88348,0 -3.41034,3.58467 -3.41034,8.00656 0,4.42191 1.52686,8.00656 3.41034,8.00656 h 13.6413 v 0 c 1.88345,0 3.41031,-3.58465 3.41031,-8.00656 0,-4.42189 -1.52686,-8.00656 -3.41031,-8.00656 z"
     fill-rule="evenodd"
     id="path75" />
  <path
     fill="#eeeeee"
     d="m 254.96677,44.56561 h 13.6413 c 1.88345,0 3.4103,3.58467 3.4103,8.00656 0,4.42191 -1.52685,8.00656 -3.4103,8.00656 h -13.6413 v 0 c -1.88348,0 -3.41034,-3.58465 -3.41034,-8.00656 0,-4.42189 1.52686,-8.00656 3.41034,-8.00656 z"
     fill-rule="evenodd"
     id="path77" />
  <path
     fill="#000000"
     fill-opacity="0"
     d="m 268.60806,60.57874 c -1.88348,0 -3.41034,-3.58466 -3.41034,-8.00656 0,-4.42189 1.52686,-8.00656 3.41034,-8.00656"
     fill-rule="evenodd"
     id="path79" />
  <path
     fill="#000000"
     fill-opacity="0"
     d="m 254.96677,44.56561 h 13.6413 c 1.88345,0 3.4103,3.58467 3.4103,8.00656 0,4.42191 -1.52685,8.00656 -3.4103,8.00656 h -13.6413 v 0 c -1.88348,0 -3.41034,-3.58465 -3.41034,-8.00656 0,-4.42189 1.52686,-8.00656 3.41034,-8.00656 z"
     fill-rule="evenodd"
     id="path81" />
  <path
     stroke="#595959"
     stroke-width="1"
     stroke-linejoin="round"
     stroke-linecap="butt"
     d="m 268.60806,60.57874 c -1.88348,0 -3.41034,-3.58466 -3.41034,-8.00656 0,-4.42189 1.52686,-8.00656 3.41034,-8.00656"
     fill-rule="evenodd"
     id="path83" />
  <path
     stroke="#595959"
     stroke-width="1"
     stroke-linejoin="round"
     stroke-linecap="butt"
     d="m 254.96677,44.56561 h 13.6413 c 1.88345,0 3.4103,3.58467 3.4103,8.00656 0,4.42191 -1.52685,8.00656 -3.4103,8.00656 h -13.6413 v 0 c -1.88348,0 -3.41034,-3.58465 -3.41034,-8.00656 0,-4.42189 1.52686,-8.00656 3.41034,-8.00656 z"
     fill-rule="evenodd"
     id="path85" />
  <path
     fill="#efefef"
     d="m 277.10236,44.92127 h -16.12598 v 15.24409 h 16.12598 z"
     fill-rule="evenodd"
     id="path87" />
  <path
     fill="#eeeeee"
     d="m 151.56604,44.96195 h -13.64127 c -1.88348,0 -3.41034,3.58466 -3.41034,8.00656 0,4.42191 1.52686,8.00656 3.41034,8.00656 h 13.64127 v 0 c 1.88348,0 3.41034,-3.58465 3.41034,-8.00656 0,-4.4219 -1.52686,-8.00656 -3.41034,-8.00656 z"
     fill-rule="evenodd"
     id="path89" />
  <path
     fill="#000000"
     fill-opacity="0"
     d="m 137.92477,60.97507 c 1.88345,0 3.41031,-3.58466 3.41031,-8.00656 0,-4.42191 -1.52686,-8.00656 -3.41031,-8.00656"
     fill-rule="evenodd"
     id="path91" />
  <path
     fill="#000000"
     fill-opacity="0"
     d="m 151.56604,44.96195 h -13.64127 c -1.88348,0 -3.41034,3.58466 -3.41034,8.00656 0,4.42191 1.52686,8.00656 3.41034,8.00656 h 13.64127 v 0 c 1.88348,0 3.41034,-3.58465 3.41034,-8.00656 0,-4.4219 -1.52686,-8.00656 -3.41034,-8.00656 z"
     fill-rule="evenodd"
     id="path93" />
  <path
     stroke="#595959"
     stroke-width="1"
     stroke-linejoin="round"
     stroke-linecap="butt"
     d="m 137.92477,60.97507 c 1.88345,0 3.41031,-3.58466 3.41031,-8.00656 0,-4.42191 -1.52686,-8.00656 -3.41031,-8.00656"
     fill-rule="evenodd"
     id="path95" />
  <path
     stroke="#595959"
     stroke-width="1"
     stroke-linejoin="round"
     stroke-linecap="butt"
     d="m 151.56604,44.96195 h -13.64127 c -1.88348,0 -3.41034,3.58466 -3.41034,8.00656 0,4.42191 1.52686,8.00656 3.41034,8.00656 h 13.64127 v 0 c 1.88348,0 3.41034,-3.58465 3.41034,-8.00656 0,-4.4219 -1.52686,-8.00656 -3.41034,-8.00656 z"
     fill-rule="evenodd"
     id="path97" />
  <path
     fill="#eeeeee"
     d="m 124.85913,44.96195 h 13.6413 c 1.88348,0 3.41034,3.58466 3.41034,8.00656 0,4.42191 -1.52686,8.00656 -3.41034,8.00656 h -13.6413 v 0 c -1.88345,0 -3.41031,-3.58465 -3.41031,-8.00656 0,-4.4219 1.52686,-8.00656 3.41031,-8.00656 z"
     fill-rule="evenodd"
     id="path99" />
  <path
     fill="#000000"
     fill-opacity="0"
     d="m 138.50043,60.97507 c -1.88345,0 -3.41031,-3.58466 -3.41031,-8.00656 0,-4.42191 1.52686,-8.00656 3.41031,-8.00656"
     fill-rule="evenodd"
     id="path101" />
  <path
     fill="#000000"
     fill-opacity="0"
     d="m 124.85913,44.96195 h 13.6413 c 1.88348,0 3.41034,3.58466 3.41034,8.00656 0,4.42191 -1.52686,8.00656 -3.41034,8.00656 h -13.6413 v 0 c -1.88345,0 -3.41031,-3.58465 -3.41031,-8.00656 0,-4.4219 1.52686,-8.00656 3.41031,-8.00656 z"
     fill-rule="evenodd"
     id="path103" />
  <path
     stroke="#595959"
     stroke-width="1"
     stroke-linejoin="round"
     stroke-linecap="butt"
     d="m 138.50043,60.97507 c -1.88345,0 -3.41031,-3.58466 -3.41031,-8.00656 0,-4.42191 1.52686,-8.00656 3.41031,-8.00656"
     fill-rule="evenodd"
     id="path105" />
  <path
     stroke="#595959"
     stroke-width="1"
     stroke-linejoin="round"
     stroke-linecap="butt"
     d="m 124.85913,44.96195 h 13.6413 c 1.88348,0 3.41034,3.58466 3.41034,8.00656 0,4.42191 -1.52686,8.00656 -3.41034,8.00656 h -13.6413 v 0 c -1.88345,0 -3.41031,-3.58465 -3.41031,-8.00656 0,-4.4219 1.52686,-8.00656 3.41031,-8.00656 z"
     fill-rule="evenodd"
     id="path107" />
  <path
     fill="#efefef"
     d="m 146.99475,45.31758 h -16.12598 v 15.24409 h 16.12598 z"
     fill-rule="evenodd"
     id="path109" />
  <path
     fill="#9fc5e8"
     d="m 115.47098,31.01837 h 34.37796 v -6.27559 l 12.55118,12.55118 -12.55118,12.55118 v -6.27559 h -34.37796 z"
     fill-rule="evenodd"
     id="path111" />
  <path
     stroke="#595959"
     stroke-width="1"
     stroke-linejoin="round"
     stroke-linecap="butt"
     d="m 115.47098,31.01837 h 34.37796 v -6.27559 l 12.55118,12.55118 -12.55118,12.55118 v -6.27559 h -34.37796 z"
     fill-rule="evenodd"
     id="path113" />
  <path
     fill="#9fc5e8"
     d="m 244.85681,31.01837 h 34.37796 v -6.27559 l 12.55118,12.55118 -12.55118,12.55118 v -6.27559 h -34.37796 z"
     fill-rule="evenodd"
     id="path115" />
  <path
     stroke="#595959"
     stroke-width="1"
     stroke-linejoin="round"
     stroke-linecap="butt"
     d="m 244.85681,31.01837 h 34.37796 v -6.27559 l 12.55118,12.55118 -12.55118,12.55118 v -6.27559 h -34.37796 z"
     fill-rule="evenodd"
     id="path117" />
  <path
     fill="#9fc5e8"
     d="m 374.24264,31.01837 h 34.37793 v -6.27559 l 12.55121,12.55118 -12.55121,12.55118 v -6.27559 h -34.37793 z"
     fill-rule="evenodd"
     id="path119" />
  <path
     stroke="#595959"
     stroke-width="1"
     stroke-linejoin="round"
     stroke-linecap="butt"
     d="m 374.24264,31.01837 h 34.37793 v -6.27559 l 12.55121,12.55118 -12.55121,12.55118 v -6.27559 h -34.37793 z"
     fill-rule="evenodd"
     id="path121" />
</svg>
