<?xml version="1.0" encoding="UTF-8" standalone="no"?>
<svg
   version="1.1"
   viewBox="0 0 585.01837 224.74014"
   fill="none"
   stroke="none"
   stroke-linecap="square"
   stroke-miterlimit="10"
   id="svg161"
   sodipodi:docname="stacking.svg"
   width="585.01837"
   height="224.74014"
   inkscape:version="1.1.2 (0a00cf5339, 2022-02-04)"
   xmlns:inkscape="http://www.inkscape.org/namespaces/inkscape"
   xmlns:sodipodi="http://sodipodi.sourceforge.net/DTD/sodipodi-0.dtd"
   xmlns="http://www.w3.org/2000/svg"
   xmlns:svg="http://www.w3.org/2000/svg">
  <defs
     id="defs165" />
  <sodipodi:namedview
     id="namedview163"
     pagecolor="#ffffff"
     bordercolor="#666666"
     borderopacity="1.0"
     inkscape:pageshadow="2"
     inkscape:pageopacity="0.0"
     inkscape:pagecheckerboard="0"
     showgrid="false"
     inkscape:zoom="0.73305278"
     inkscape:cx="380.60015"
     inkscape:cy="137.0979"
     inkscape:window-width="1918"
     inkscape:window-height="1198"
     inkscape:window-x="3840"
     inkscape:window-y="0"
     inkscape:window-maximized="1"
     inkscape:current-layer="svg161" />
  <clipPath
     id="g1fb832bab84_0_318.0">
    <path
       d="M 0,0 H 960 V 540 H 0 Z"
       clip-rule="nonzero"
       id="path2" />
  </clipPath>
  <g
     id="g1135"
     transform="translate(-78.54593,-154.41759)">
    <path
       fill="#ffab40"
       d="m 249.49344,192.54169 v 0 c 0,-20.50307 16.62103,-37.1241 37.12411,-37.1241 h 338.82263 c 9.84595,0 19.28858,3.91129 26.25074,10.8734 6.96209,6.96213 10.87341,16.40478 10.87341,26.2507 v 148.49197 c 0,20.50305 -16.62103,37.12408 -37.12415,37.12408 H 286.61755 c -20.50308,0 -37.12411,-16.62103 -37.12411,-37.12408 z"
       fill-rule="evenodd"
       id="path7" />
    <path
       stroke="#000000"
       stroke-width="2"
       stroke-linejoin="round"
       stroke-linecap="butt"
       d="m 249.49344,192.54169 v 0 c 0,-20.50307 16.62103,-37.1241 37.12411,-37.1241 h 338.82263 c 9.84595,0 19.28858,3.91129 26.25074,10.8734 6.96209,6.96213 10.87341,16.40478 10.87341,26.2507 v 148.49197 c 0,20.50305 -16.62103,37.12408 -37.12415,37.12408 H 286.61755 c -20.50308,0 -37.12411,-16.62103 -37.12411,-37.12408 z"
       fill-rule="evenodd"
       id="path9" />
    <path
       fill="#f3f3f3"
       d="m 259,197.94322 v 0 c 0,-19.20424 15.56811,-34.77235 34.77234,-34.77235 H 621.4245 c 9.22223,0 18.06671,3.66351 24.58777,10.18458 6.52106,6.52109 10.18457,15.36557 10.18457,24.58777 v 139.08522 c 0,19.20425 -15.56812,34.77234 -34.77234,34.77234 H 293.77234 C 274.56811,371.80078 259,356.2327 259,337.02844 Z"
       fill-rule="evenodd"
       id="path11" />
    <path
       stroke="#000000"
       stroke-width="2"
       stroke-linejoin="round"
       stroke-linecap="butt"
       d="m 259,197.94322 v 0 c 0,-19.20424 15.56811,-34.77235 34.77234,-34.77235 H 621.4245 c 9.22223,0 18.06671,3.66351 24.58777,10.18458 6.52106,6.52109 10.18457,15.36557 10.18457,24.58777 v 139.08522 c 0,19.20425 -15.56812,34.77234 -34.77234,34.77234 H 293.77234 C 274.56811,371.80078 259,356.2327 259,337.02844 Z"
       fill-rule="evenodd"
       id="path13" />
    <path
       fill="#ffab40"
       d="m 272.22726,184.9864 v 0 c 0,-4.45026 3.60764,-8.05791 8.05789,-8.05791 h 92.04169 c 2.13709,0 4.18665,0.84896 5.69779,2.36011 1.51114,1.51115 2.3601,3.5607 2.3601,5.6978 v 32.23065 c 0,4.45026 -3.60763,8.05789 -8.05789,8.05789 h -92.04169 c -4.45025,0 -8.05789,-3.60763 -8.05789,-8.05789 z"
       fill-rule="evenodd"
       id="path15" />
    <path
       stroke="#000000"
       stroke-width="2"
       stroke-linejoin="round"
       stroke-linecap="butt"
       d="m 272.22726,184.9864 v 0 c 0,-4.45026 3.60764,-8.05791 8.05789,-8.05791 h 92.04169 c 2.13709,0 4.18665,0.84896 5.69779,2.36011 1.51114,1.51115 2.3601,3.5607 2.3601,5.6978 v 32.23065 c 0,4.45026 -3.60763,8.05789 -8.05789,8.05789 h -92.04169 c -4.45025,0 -8.05789,-3.60763 -8.05789,-8.05789 z"
       fill-rule="evenodd"
       id="path17" />
    <path
       fill="#000000"
       d="m 307.59338,187.25922 v 9.29687 h 4.34375 l -0.17187,1.26563 h -5.625 v -10.5625 z m 7.50842,2.48437 v 8.07813 h -1.40625 v -8.07813 z m -0.70312,-3.875 q 0.4375,0 0.71875,0.28125 0.28125,0.26563 0.28125,0.6875 0,0.40625 -0.28125,0.67188 -0.28125,0.26562 -0.71875,0.26562 -0.4375,0 -0.71875,-0.26562 -0.26563,-0.26563 -0.26563,-0.67188 0,-0.42187 0.26563,-0.6875 0.28125,-0.28125 0.71875,-0.28125 z m 7.41629,3.6875 q 1.10937,0 1.73437,0.67188 0.625,0.65625 0.625,1.79687 v 5.79688 h -1.42187 v -5.59375 q 0,-0.85938 -0.32813,-1.20313 -0.3125,-0.35937 -0.9375,-0.35937 -0.64062,0 -1.14062,0.375 -0.48438,0.35937 -0.92188,1.04687 v 5.73438 h -1.40625 v -8.07813 h 1.21875 l 0.125,1.20313 q 0.42188,-0.65625 1.04688,-1.01563 0.64062,-0.375 1.40625,-0.375 z m 11.2948,3.98438 q 0,0.35937 -0.0312,0.71875 h -5.15625 q 0.0937,1.34375 0.67187,1.96875 0.57813,0.625 1.5,0.625 0.59375,0 1.07813,-0.15625 0.48437,-0.17188 1.03125,-0.54688 l 0.60937,0.84375 q -1.28125,1.01563 -2.82812,1.01563 -1.67188,0 -2.625,-1.09375 -0.9375,-1.10938 -0.9375,-3.04688 0,-1.26562 0.40625,-2.23437 0.40625,-0.96875 1.15625,-1.51563 0.76562,-0.5625 1.79687,-0.5625 1.60938,0 2.46875,1.0625 0.85938,1.0625 0.85938,2.92188 z m -1.40625,-0.40625 q 0,-1.20313 -0.46875,-1.82813 -0.46875,-0.625 -1.42188,-0.625 -1.73437,0 -1.89062,2.54688 h 3.78125 z m 8.93487,2.79687 q 0,0.5 0.17188,0.73438 0.17187,0.23437 0.51562,0.35937 l -0.32812,0.98438 q -0.625,-0.0781 -1.01563,-0.34375 -0.375,-0.28125 -0.5625,-0.875 -0.8125,1.21875 -2.40625,1.21875 -1.20312,0 -1.89062,-0.67188 -0.6875,-0.6875 -0.6875,-1.76562 0,-1.29688 0.92187,-1.98438 0.9375,-0.6875 2.64063,-0.6875 h 1.23437 v -0.59375 q 0,-0.85937 -0.42187,-1.21875 -0.40625,-0.375 -1.26563,-0.375 -0.89062,0 -2.17187,0.42188 l -0.35938,-1.01563 q 1.51563,-0.5625 2.79688,-0.5625 1.42187,0 2.125,0.70313 0.70312,0.70312 0.70312,1.98437 z m -3.29687,1.01563 q 1.20312,0 1.89062,-1.25 v -1.85938 h -1.04687 q -2.25,0 -2.25,1.65625 0,0.71875 0.34375,1.09375 0.35937,0.35938 1.0625,0.35938 z m 9.71353,-7.39063 q 0.42188,0 0.79688,0.0937 l -0.26563,1.375 q -0.35937,-0.0781 -0.70312,-0.0781 -0.75,0 -1.21875,0.54687 -0.45313,0.54688 -0.71875,1.71875 v 4.60938 h -1.40625 v -8.07813 h 1.21875 l 0.14062,1.64063 q 0.3125,-0.90625 0.85938,-1.35938 0.5625,-0.46875 1.29687,-0.46875 z"
       fill-rule="nonzero"
       id="path19" />
    <path
       fill="#000000"
       d="m 315.83066,215.82173 h -1.40625 l -0.35937,-4.76563 q -0.23438,-2.8125 -0.26563,-4.3125 l -2.28125,7.875 h -1.375 l -2.40625,-7.89062 q 0,1.92187 -0.1875,4.4375 l -0.35937,4.65625 h -1.375 l 0.875,-10.5625 h 1.95312 l 2.23438,7.6875 2.10937,-7.6875 h 1.96875 z m 5.44092,-8.26563 q 1.70312,0 2.64062,1.14063 0.95313,1.125 0.95313,3.07812 0,1.25 -0.4375,2.21875 -0.42188,0.95313 -1.23438,1.48438 -0.8125,0.53125 -1.9375,0.53125 -1.6875,0 -2.64062,-1.125 -0.95313,-1.14063 -0.95313,-3.09375 0,-1.25 0.42188,-2.20313 0.4375,-0.96875 1.25,-1.5 0.8125,-0.53125 1.9375,-0.53125 z m 0,1.14063 q -2.09375,0 -2.09375,3.09375 0,3.07812 2.07812,3.07812 2.09375,0 2.09375,-3.09375 0,-3.07812 -2.07812,-3.07812 z m 12.17041,-4.20313 v 11.32813 h -1.23438 l -0.14062,-1.125 q -0.39063,0.625 -1,0.96875 -0.59375,0.34375 -1.32813,0.34375 -1.4375,0 -2.25,-1.125 -0.79687,-1.14063 -0.79687,-3.0625 0,-1.25 0.375,-2.20313 0.39062,-0.96875 1.10937,-1.51562 0.71875,-0.54688 1.6875,-0.54688 1.23438,0 2.17188,1 v -4.23437 z m -3.39063,10.39063 q 0.64063,0 1.09375,-0.29688 0.46875,-0.29687 0.89063,-0.89062 v -3.95313 q -0.39063,-0.53125 -0.84375,-0.79687 -0.45313,-0.26563 -1.01563,-0.26563 -0.9375,0 -1.45312,0.78125 -0.51563,0.78125 -0.51563,2.32813 0,1.5625 0.46875,2.32812 0.48438,0.76563 1.375,0.76563 z m 12.41623,-3.34375 q 0,0.35937 -0.0312,0.71875 h -5.15625 q 0.0937,1.34375 0.67188,1.96875 0.57812,0.625 1.5,0.625 0.59375,0 1.07812,-0.15625 0.48438,-0.17188 1.03125,-0.54688 l 0.60938,0.84375 q -1.28125,1.01563 -2.82813,1.01563 -1.67187,0 -2.625,-1.09375 -0.9375,-1.10938 -0.9375,-3.04688 0,-1.26562 0.40625,-2.23437 0.40625,-0.96875 1.15625,-1.51563 0.76563,-0.5625 1.79688,-0.5625 1.60937,0 2.46875,1.0625 0.85937,1.0625 0.85937,2.92188 z m -1.40625,-0.40625 q 0,-1.20313 -0.46875,-1.82813 -0.46875,-0.625 -1.42187,-0.625 -1.73438,0 -1.89063,2.54688 h 3.78125 z m 5.2601,4.875 q -0.78125,0 -1.23437,-0.46875 -0.45313,-0.46875 -0.45313,-1.3125 v -9.73438 l 1.42188,-0.17187 v 9.875 q 0,0.34375 0.10937,0.5 0.10938,0.14062 0.39063,0.14062 0.29687,0 0.51562,-0.0937 l 0.375,0.98438 q -0.51562,0.28125 -1.125,0.28125 z"
       fill-rule="nonzero"
       id="path21" />
    <path
       fill="#ffab40"
       d="m 272.22726,254.87354 v 0 c 0,-4.45026 3.60764,-8.05791 8.05789,-8.05791 h 92.04169 c 2.13709,0 4.18665,0.84897 5.69779,2.36011 1.51114,1.51115 2.3601,3.56072 2.3601,5.6978 v 32.23065 c 0,4.45026 -3.60763,8.05789 -8.05789,8.05789 h -92.04169 c -4.45025,0 -8.05789,-3.60763 -8.05789,-8.05789 z"
       fill-rule="evenodd"
       id="path23" />
    <path
       stroke="#000000"
       stroke-width="2"
       stroke-linejoin="round"
       stroke-linecap="butt"
       d="m 272.22726,254.87354 v 0 c 0,-4.45026 3.60764,-8.05791 8.05789,-8.05791 h 92.04169 c 2.13709,0 4.18665,0.84897 5.69779,2.36011 1.51114,1.51115 2.3601,3.56072 2.3601,5.6978 v 32.23065 c 0,4.45026 -3.60763,8.05789 -8.05789,8.05789 h -92.04169 c -4.45025,0 -8.05789,-3.60763 -8.05789,-8.05789 z"
       fill-rule="evenodd"
       id="path25" />
    <path
       fill="#000000"
       d="m 316.2528,265.95886 q 1.0625,0 1.8125,0.3125 0.75,0.29688 1.45312,0.92188 l -0.79687,0.89062 q -0.59375,-0.48437 -1.17188,-0.70312 -0.57812,-0.21875 -1.23437,-0.21875 -0.82813,0 -1.375,0.39062 -0.53125,0.375 -0.53125,1.10938 0,0.45312 0.1875,0.78125 0.1875,0.3125 0.67187,0.57812 0.5,0.25 1.45313,0.54688 1,0.29687 1.65625,0.65625 0.65625,0.34375 1.0625,0.96875 0.40625,0.625 0.40625,1.57812 0,0.92188 -0.45313,1.625 -0.4375,0.70313 -1.29687,1.10938 -0.84375,0.39062 -2.01563,0.39062 -2.1875,0 -3.57812,-1.375 l 0.79687,-0.875 q 0.64063,0.51563 1.29688,0.78125 0.65625,0.26563 1.46875,0.26563 0.98437,0 1.625,-0.48438 0.64062,-0.48437 0.64062,-1.39062 0,-0.53125 -0.20312,-0.875 -0.1875,-0.34375 -0.67188,-0.60938 -0.48437,-0.28125 -1.40625,-0.5625 -1.625,-0.48437 -2.375,-1.17187 -0.75,-0.70313 -0.75,-1.875 0,-0.79688 0.42188,-1.42188 0.42187,-0.64062 1.17187,-0.98437 0.76563,-0.35938 1.73438,-0.35938 z m 12.34405,0.1875 -3.375,10.5625 h -1.5625 l -3.40625,-10.5625 h 1.5625 l 2.65625,8.98438 2.64063,-8.98438 z m 10.94639,10.5625 h -1.40625 l -0.35938,-4.76562 q -0.23437,-2.8125 -0.26562,-4.3125 l -2.28125,7.875 h -1.375 l -2.40625,-7.89063 q 0,1.92188 -0.1875,4.4375 l -0.35938,4.65625 h -1.375 l 0.875,-10.5625 h 1.95313 l 2.23437,7.6875 2.10938,-7.6875 h 1.96875 z"
       fill-rule="nonzero"
       id="path27" />
    <path
       fill="#ffffff"
       d="m 272.22726,320.9864 v 0 c 0,-4.45026 3.60764,-8.05789 8.05789,-8.05789 h 92.04169 c 2.13709,0 4.18665,0.84897 5.69779,2.36011 1.51114,1.51113 2.3601,3.56069 2.3601,5.69778 v 32.23065 c 0,4.45026 -3.60763,8.05792 -8.05789,8.05792 h -92.04169 c -4.45025,0 -8.05789,-3.60766 -8.05789,-8.05792 z"
       fill-rule="evenodd"
       id="path29" />
    <path
       stroke="#000000"
       stroke-width="2"
       stroke-linejoin="round"
       stroke-linecap="butt"
       d="m 272.22726,320.9864 v 0 c 0,-4.45026 3.60764,-8.05789 8.05789,-8.05789 h 92.04169 c 2.13709,0 4.18665,0.84897 5.69779,2.36011 1.51114,1.51113 2.3601,3.56069 2.3601,5.69778 v 32.23065 c 0,4.45026 -3.60763,8.05792 -8.05789,8.05792 h -92.04169 c -4.45025,0 -8.05789,-3.60766 -8.05789,-8.05792 z"
       fill-rule="evenodd"
       id="path31" />
    <path
       fill="#000000"
       d="m 291.15613,332.25922 q 1.95313,0 3.03125,0.82813 1.07813,0.8125 1.07813,2.4375 0,1.73437 -1.125,2.57812 -1.125,0.84375 -2.96875,0.84375 h -1.34375 v 3.875 h -1.45313 v -10.5625 z m -0.0469,5.53125 q 1.26562,0 1.92187,-0.48437 0.67188,-0.5 0.67188,-1.76563 0,-1.14062 -0.67188,-1.64062 -0.65625,-0.5 -1.89062,-0.5 h -1.3125 v 4.39062 z m 7.49941,-3.04687 v 8.07812 h -1.40625 v -8.07812 z m -0.70312,-3.875 q 0.4375,0 0.71875,0.28125 0.28125,0.26562 0.28125,0.6875 0,0.40625 -0.28125,0.67187 -0.28125,0.26563 -0.71875,0.26563 -0.4375,0 -0.71875,-0.26563 -0.26563,-0.26562 -0.26563,-0.67187 0,-0.42188 0.26563,-0.6875 0.28125,-0.28125 0.71875,-0.28125 z m 7.33817,3.6875 q 1.54687,0 2.26562,1.10937 0.71875,1.10938 0.71875,3.10938 0,1.90625 -0.82812,3.07812 -0.82813,1.15625 -2.34375,1.15625 -1.35938,0 -2.125,-0.92187 v 3.82812 l -1.40625,0.17188 V 334.7436 h 1.21875 l 0.10937,1.09375 q 0.4375,-0.625 1.0625,-0.95313 0.625,-0.32812 1.32813,-0.32812 z m -0.53125,7.29687 q 2,0 2,-3.07812 0,-3.09375 -1.82813,-3.09375 -0.59375,0 -1.09375,0.35937 -0.48437,0.34375 -0.85937,0.89063 v 3.9375 q 0.3125,0.48437 0.76562,0.73437 0.46875,0.25 1.01563,0.25 z m 12.02679,-3.3125 q 0,0.35938 -0.0312,0.71875 h -5.15625 q 0.0937,1.34375 0.67187,1.96875 0.57813,0.625 1.5,0.625 0.59375,0 1.07813,-0.15625 0.48437,-0.17187 1.03125,-0.54687 l 0.60937,0.84375 q -1.28125,1.01562 -2.82812,1.01562 -1.67188,0 -2.625,-1.09375 -0.9375,-1.10937 -0.9375,-3.04687 0,-1.26563 0.40625,-2.23438 0.40625,-0.96875 1.15625,-1.51562 0.76562,-0.5625 1.79687,-0.5625 1.60938,0 2.46875,1.0625 0.85938,1.0625 0.85938,2.92187 z m -1.40625,-0.40625 q 0,-1.20312 -0.46875,-1.82812 -0.46875,-0.625 -1.42188,-0.625 -1.73437,0 -1.89062,2.54687 h 3.78125 z m 7.49448,-6.0625 q 1.34375,0 2.34375,0.64063 1,0.64062 1.5625,1.875 0.5625,1.21875 0.5625,2.96875 0,1.70312 -0.5625,2.9375 -0.5625,1.21875 -1.5625,1.875 -1,0.64062 -2.34375,0.64062 -1.32813,0 -2.32813,-0.625 -1,-0.64062 -1.5625,-1.85937 -0.5625,-1.23438 -0.5625,-2.95313 0,-1.70312 0.5625,-2.9375 0.5625,-1.25 1.5625,-1.90625 1.01563,-0.65625 2.32813,-0.65625 z m 0,1.20313 q -1.375,0 -2.14063,1.04687 -0.76562,1.03125 -0.76562,3.25 0,2.1875 0.76562,3.21875 0.78125,1.01563 2.14063,1.01563 2.92187,0 2.92187,-4.25 0,-4.28125 -2.92187,-4.28125 z m 10.48208,1.28125 q 1.54688,0 2.26563,1.10937 0.71875,1.10938 0.71875,3.10938 0,1.90625 -0.82813,3.07812 -0.82812,1.15625 -2.34375,1.15625 -1.35937,0 -2.125,-0.92187 v 3.82812 l -1.40625,0.17188 V 334.7436 h 1.21875 l 0.10938,1.09375 q 0.4375,-0.625 1.0625,-0.95313 0.625,-0.32812 1.32812,-0.32812 z m -0.53125,7.29687 q 2,0 2,-3.07812 0,-3.09375 -1.82812,-3.09375 -0.59375,0 -1.09375,0.35937 -0.48438,0.34375 -0.85938,0.89063 v 3.9375 q 0.3125,0.48437 0.76563,0.73437 0.46875,0.25 1.01562,0.25 z m 13.40183,0.96875 h -1.95313 l -4.28125,-8.96875 q 0.0937,1.0625 0.14063,1.96875 0.0469,0.89063 0.0469,2.15625 v 4.84375 h -1.35937 v -10.5625 h 1.90625 l 4.32812,8.98438 q -0.0469,-0.40625 -0.125,-1.39063 -0.0625,-1 -0.0625,-1.82812 v -5.76563 h 1.35938 z m 6.01602,-8.26562 q 1.70312,0 2.64062,1.14062 0.95313,1.125 0.95313,3.07813 0,1.25 -0.4375,2.21875 -0.42188,0.95312 -1.23438,1.48437 -0.8125,0.53125 -1.9375,0.53125 -1.6875,0 -2.64062,-1.125 -0.95313,-1.14062 -0.95313,-3.09375 0,-1.25 0.42188,-2.20312 0.4375,-0.96875 1.25,-1.5 0.8125,-0.53125 1.9375,-0.53125 z m 0,1.14062 q -2.09375,0 -2.09375,3.09375 0,3.07813 2.07812,3.07813 2.09375,0 2.09375,-3.09375 0,-3.07813 -2.07812,-3.07813 z m 9.63913,-1.14062 q 1.54687,0 2.26562,1.10937 0.71875,1.10938 0.71875,3.10938 0,1.90625 -0.82812,3.07812 -0.82813,1.15625 -2.34375,1.15625 -1.35938,0 -2.125,-0.92187 v 3.82812 l -1.40625,0.17188 V 334.7436 h 1.21875 l 0.10937,1.09375 q 0.4375,-0.625 1.0625,-0.95313 0.625,-0.32812 1.32813,-0.32812 z m -0.53125,7.29687 q 2,0 2,-3.07812 0,-3.09375 -1.82813,-3.09375 -0.59375,0 -1.09375,0.35937 -0.48437,0.34375 -0.85937,0.89063 v 3.9375 q 0.3125,0.48437 0.76562,0.73437 0.46875,0.25 1.01563,0.25 z"
       fill-rule="nonzero"
       id="path33" />
    <path
       fill="#d0e0e3"
       d="m 405.67453,190.54396 v 0 c 0,-9.95583 8.0708,-18.02661 18.02661,-18.02661 h 72.10428 v 0 c 4.78095,0 9.36609,1.89923 12.74674,5.27988 3.38064,3.38063 5.27987,7.96577 5.27987,12.74673 v 156.5767 c 0,9.95581 -8.0708,18.02661 -18.02661,18.02661 h -72.10428 c -9.95581,0 -18.02661,-8.0708 -18.02661,-18.02661 z"
       fill-rule="evenodd"
       id="path35" />
    <path
       stroke="#000000"
       stroke-width="2"
       stroke-linejoin="round"
       stroke-linecap="butt"
       d="m 405.67453,190.54396 v 0 c 0,-9.95583 8.0708,-18.02661 18.02661,-18.02661 h 72.10428 v 0 c 4.78095,0 9.36609,1.89923 12.74674,5.27988 3.38064,3.38063 5.27987,7.96577 5.27987,12.74673 v 156.5767 c 0,9.95581 -8.0708,18.02661 -18.02661,18.02661 h -72.10428 c -9.95581,0 -18.02661,-8.0708 -18.02661,-18.02661 z"
       fill-rule="evenodd"
       id="path37" />
    <path
       fill="#000000"
       d="m 435.3878,265.5523 v -10.5625 h 5.60938 l -0.17188,1.17187 h -3.98437 v 3.59375 h 3.45312 v 1.15625 h -3.45312 v 4.64063 z m 13.02072,-4.28125 q 0,0.35937 -0.0312,0.71875 h -5.15625 q 0.0937,1.34375 0.67188,1.96875 0.57812,0.625 1.5,0.625 0.59375,0 1.07812,-0.15625 0.48438,-0.17188 1.03125,-0.54688 l 0.60938,0.84375 q -1.28125,1.01563 -2.82813,1.01563 -1.67187,0 -2.625,-1.09375 -0.9375,-1.10938 -0.9375,-3.04688 0,-1.26562 0.40625,-2.23437 0.40625,-0.96875 1.15625,-1.51563 0.76563,-0.5625 1.79688,-0.5625 1.60937,0 2.46875,1.0625 0.85937,1.0625 0.85937,2.92188 z m -1.40625,-0.40625 q 0,-1.20313 -0.46875,-1.82813 -0.46875,-0.625 -1.42187,-0.625 -1.73438,0 -1.89063,2.54688 h 3.78125 z m 8.93491,2.79687 q 0,0.5 0.17187,0.73438 0.17188,0.23437 0.51563,0.35937 l -0.32813,0.98438 q -0.625,-0.0781 -1.01562,-0.34375 -0.375,-0.28125 -0.5625,-0.875 -0.8125,1.21875 -2.40625,1.21875 -1.20313,0 -1.89063,-0.67188 -0.6875,-0.6875 -0.6875,-1.76562 0,-1.29688 0.92188,-1.98438 0.9375,-0.6875 2.64062,-0.6875 h 1.23438 v -0.59375 q 0,-0.85937 -0.42188,-1.21875 -0.40625,-0.375 -1.26562,-0.375 -0.89063,0 -2.17188,0.42188 l -0.35937,-1.01563 q 1.51562,-0.5625 2.79687,-0.5625 1.42188,0 2.125,0.70313 0.70313,0.70312 0.70313,1.98437 z m -3.29688,1.01563 q 1.20313,0 1.89063,-1.25 v -1.85938 h -1.04688 q -2.25,0 -2.25,1.65625 0,0.71875 0.34375,1.09375 0.35938,0.35938 1.0625,0.35938 z m 10.27603,0.5 q -0.79687,0.5625 -1.8125,0.5625 -1.01562,0 -1.59375,-0.59375 -0.57812,-0.59375 -0.57812,-1.70313 v -4.875 h -1.40625 v -1.09375 h 1.40625 v -1.82812 l 1.40625,-0.17188 v 2 h 1.92187 l -0.15625,1.09375 h -1.76562 v 4.8125 q 0,0.625 0.21875,0.90625 0.23437,0.28125 0.75,0.28125 0.48437,0 1.07812,-0.3125 z m 7.47095,0.375 h -1.21875 l -0.10937,-1.25 q -0.45313,0.75 -1.0625,1.09375 -0.59375,0.34375 -1.45313,0.34375 -1.04687,0 -1.65625,-0.64063 -0.59375,-0.65625 -0.59375,-1.82812 v -5.79688 h 1.42188 v 5.64063 q 0,0.82812 0.28125,1.17187 0.29687,0.34375 0.95312,0.34375 1.1875,0 2.01563,-1.39062 v -5.76563 h 1.42187 z m 6.42099,-8.26563 q 0.42188,0 0.79688,0.0937 l -0.26563,1.375 q -0.35937,-0.0781 -0.70312,-0.0781 -0.75,0 -1.21875,0.54687 -0.45313,0.54688 -0.71875,1.71875 v 4.60938 h -1.40625 v -8.07813 h 1.21875 l 0.14062,1.64063 q 0.3125,-0.90625 0.85938,-1.35938 0.5625,-0.46875 1.29687,-0.46875 z m 8.05042,3.98438 q 0,0.35937 -0.0312,0.71875 h -5.15625 q 0.0937,1.34375 0.67187,1.96875 0.57813,0.625 1.5,0.625 0.59375,0 1.07813,-0.15625 0.48437,-0.17188 1.03125,-0.54688 l 0.60937,0.84375 q -1.28125,1.01563 -2.82812,1.01563 -1.67188,0 -2.625,-1.09375 -0.9375,-1.10938 -0.9375,-3.04688 0,-1.26562 0.40625,-2.23437 0.40625,-0.96875 1.15625,-1.51563 0.76562,-0.5625 1.79687,-0.5625 1.60938,0 2.46875,1.0625 0.85938,1.0625 0.85938,2.92188 z m -1.40625,-0.40625 q 0,-1.20313 -0.46875,-1.82813 -0.46875,-0.625 -1.42188,-0.625 -1.73437,0 -1.89062,2.54688 h 3.78125 z"
       fill-rule="nonzero"
       id="path39" />
    <path
       fill="#000000"
       d="m 447.8259,280.16168 q 0,1.0625 -0.4375,1.875 -0.4375,0.79687 -1.28125,1.25 -0.82813,0.45312 -1.98438,0.45312 -1.76562,0 -2.73437,-0.96875 -0.95313,-0.98437 -0.95313,-2.60937 v -7.17188 h 1.45313 v 7.0625 q 0,1.23438 0.54687,1.84375 0.5625,0.60938 1.6875,0.60938 1.125,0 1.67188,-0.59375 0.5625,-0.60938 0.5625,-1.85938 v -7.0625 h 1.46875 z m 6.63162,-4.875 q 1.10938,0 1.73438,0.67187 0.625,0.65625 0.625,1.79688 v 5.79687 h -1.42188 v -5.59375 q 0,-0.85937 -0.32812,-1.20312 -0.3125,-0.35938 -0.9375,-0.35938 -0.64063,0 -1.14063,0.375 -0.48437,0.35938 -0.92187,1.04688 v 5.73437 h -1.40625 v -8.07812 h 1.21875 l 0.125,1.20312 q 0.42187,-0.65625 1.04687,-1.01562 0.64063,-0.375 1.40625,-0.375 z m 6.59168,0.1875 v 8.07812 h -1.40625 v -8.07812 z m -0.70313,-3.875 q 0.4375,0 0.71875,0.28125 0.28125,0.26562 0.28125,0.6875 0,0.40625 -0.28125,0.67187 -0.28125,0.26563 -0.71875,0.26563 -0.4375,0 -0.71875,-0.26563 -0.26562,-0.26562 -0.26562,-0.67187 0,-0.42188 0.26562,-0.6875 0.28125,-0.28125 0.71875,-0.28125 z m 6.65067,3.6875 q 1.70312,0 2.64062,1.14062 0.95313,1.125 0.95313,3.07813 0,1.25 -0.4375,2.21875 -0.42188,0.95312 -1.23438,1.48437 -0.8125,0.53125 -1.9375,0.53125 -1.6875,0 -2.64062,-1.125 -0.95313,-1.14062 -0.95313,-3.09375 0,-1.25 0.42188,-2.20312 0.4375,-0.96875 1.25,-1.5 0.8125,-0.53125 1.9375,-0.53125 z m 0,1.14062 q -2.09375,0 -2.09375,3.09375 0,3.07813 2.07812,3.07813 2.09375,0 2.09375,-3.09375 0,-3.07813 -2.07812,-3.07813 z m 9.71725,-1.14062 q 1.10938,0 1.73438,0.67187 0.625,0.65625 0.625,1.79688 v 5.79687 h -1.42188 v -5.59375 q 0,-0.85937 -0.32812,-1.20312 -0.3125,-0.35938 -0.9375,-0.35938 -0.64063,0 -1.14063,0.375 -0.48437,0.35938 -0.92187,1.04688 v 5.73437 h -1.40625 v -8.07812 h 1.21875 l 0.125,1.20312 q 0.42187,-0.65625 1.04687,-1.01562 0.64063,-0.375 1.40625,-0.375 z"
       fill-rule="nonzero"
       id="path41" />
    <path
       fill="#9fc5e8"
       d="m 191.51784,222.72714 35.14668,-19.10773 -3,-5.51181 17.02654,5.02898 -5.02654,17.01826 -3,-5.51181 -35.14668,19.10773 z"
       fill-rule="evenodd"
       id="path43" />
    <path
       stroke="#595959"
       stroke-width="1"
       stroke-linejoin="round"
       stroke-linecap="butt"
       d="m 191.51784,222.72714 35.14668,-19.10773 -3,-5.51181 17.02654,5.02898 -5.02654,17.01826 -3,-5.51181 -35.14668,19.10773 z"
       fill-rule="evenodd"
       id="path45" />
    <path
       fill="#9fc5e8"
       d="m 194.12321,260.0971 h 34.37796 v -6.27559 l 12.55118,12.55119 -12.55118,12.55118 v -6.2756 h -34.37796 z"
       fill-rule="evenodd"
       id="path47" />
    <path
       stroke="#595959"
       stroke-width="1"
       stroke-linejoin="round"
       stroke-linecap="butt"
       d="m 194.12321,260.0971 h 34.37796 v -6.27559 l 12.55118,12.55119 -12.55118,12.55118 v -6.2756 h -34.37796 z"
       fill-rule="evenodd"
       id="path49" />
    <path
       fill="#6d9eeb"
       d="m 79.54593,218.5191 h 96.66142 V 321.47973 H 79.54593 Z"
       fill-rule="evenodd"
       id="path51" />
    <path
       stroke="#000000"
       stroke-width="2"
       stroke-linejoin="round"
       stroke-linecap="butt"
       d="m 79.54593,218.5191 h 96.66142 V 321.47973 H 79.54593 Z"
       fill-rule="evenodd"
       id="path53" />
    <path
       fill="#000000"
       d="m 103.39438,253.06004 -0.1875,1.51562 h -3.5625 v 11.34377 h -1.765625 v -11.34377 h -3.65625 v -1.51562 z m 5.67903,2.79687 q 0.51563,0 0.96875,0.125 l -0.3125,1.6719 q -0.45312,-0.10938 -0.85937,-0.10938 -0.92188,0 -1.48438,0.67188 -0.54687,0.67187 -0.875,2.09375 v 5.60937 h -1.71875 v -9.82812 h 1.48438 l 0.17187,2 q 0.39063,-1.10938 1.0625,-1.67188 0.67188,-0.56251 1.5625,-0.56252 z m 8.89173,7.76565 q 0,0.59375 0.20312,0.89062 0.21875,0.28125 0.625,0.4375 l -0.39062,1.1875 q -0.76563,-0.0937 -1.23438,-0.42187 -0.46875,-0.34375 -0.6875,-1.04688 -1,1.46875 -2.9375,1.46875 -1.45312,0 -2.29687,-0.8125 -0.82813,-0.82812 -0.82813,-2.15625 0,-1.5625 1.125,-2.39062 1.125,-0.84375 3.20313,-0.84375 h 1.5 v -0.73438 q 0,-1.04687 -0.5,-1.48437 -0.5,-0.45313 -1.54688,-0.45313 -1.07812,0 -2.64062,0.51563 l -0.4375,-1.25 q 1.82812,-0.67189 3.39062,-0.67189 1.73438,0 2.59375,0.85939 0.85938,0.84375 0.85938,2.40625 z m -4.03125,1.23437 q 1.48437,0 2.3125,-1.53125 v -2.25 h -1.28125 q -2.71875,0 -2.71875,2.01563 0,0.875 0.42187,1.32812 0.4375,0.4375 1.26563,0.4375 z m 9.274,-8.76562 v 9.82812 h -1.71875 v -9.82812 z m -0.85938,-4.71877 q 0.53125,0 0.85938,0.34375 0.34375,0.32812 0.34375,0.82812 0,0.5 -0.34375,0.82813 -0.32813,0.32812 -0.85938,0.32812 -0.53125,0 -0.875,-0.32812 -0.32812,-0.32813 -0.32812,-0.82813 0,-0.5 0.32812,-0.82812 0.34375,-0.34375 0.875,-0.34375 z m 9.04232,4.48437 q 1.34375,0 2.09375,0.81252 0.75,0.79688 0.75,2.20313 v 7.04687 h -1.71875 v -6.8125 q 0,-1.04687 -0.39063,-1.46875 -0.39062,-0.4375 -1.15625,-0.4375 -0.78125,0 -1.375,0.45313 -0.59375,0.45312 -1.125,1.28125 v 6.98437 h -1.71875 v -9.82812 h 1.48438 l 0.14062,1.45312 q 0.53125,-0.78125 1.29688,-1.23437 0.78125,-0.45314 1.71875,-0.45315 z m 8.01069,0.2344 v 9.82812 h -1.71875 v -9.82812 z m -0.85937,-4.71877 q 0.53125,0 0.85937,0.34375 0.34375,0.32812 0.34375,0.82812 0,0.5 -0.34375,0.82813 -0.32812,0.32812 -0.85937,0.32812 -0.53125,0 -0.875,-0.32812 -0.32813,-0.32813 -0.32813,-0.82813 0,-0.5 0.32813,-0.82812 0.34375,-0.34375 0.875,-0.34375 z m 9.04231,4.48437 q 1.34375,0 2.09375,0.81252 0.75,0.79688 0.75,2.20313 v 7.04687 h -1.71875 v -6.8125 q 0,-1.04687 -0.39063,-1.46875 -0.39062,-0.4375 -1.15625,-0.4375 -0.78125,0 -1.375,0.45313 -0.59375,0.45312 -1.125,1.28125 v 6.98437 h -1.71875 v -9.82812 h 1.48438 l 0.14062,1.45312 q 0.53125,-0.78125 1.29688,-1.23437 0.78125,-0.45315 1.71875,-0.45315 z m 14.22945,0.6719 q -0.5625,0.1875 -1.23438,0.25 -0.67187,0.0625 -1.64062,0.0625 1.73437,0.78125 1.73437,2.46875 0,1.48437 -1.01562,2.42187 -1,0.92188 -2.73438,0.92188 -0.67187,0 -1.25,-0.1875 -0.21875,0.15625 -0.35937,0.40625 -0.125,0.25 -0.125,0.51562 0,0.79688 1.28125,0.79688 h 1.57812 q 0.98438,0 1.75,0.35937 0.76563,0.34375 1.1875,0.96875 0.42188,0.60938 0.42188,1.39063 0,1.4375 -1.1875,2.20312 -1.17188,0.78125 -3.42188,0.78125 -1.59375,0 -2.51562,-0.32812 -0.92188,-0.3125 -1.3125,-0.96875 -0.39063,-0.65625 -0.39063,-1.6875 h 1.54688 q 0,0.59375 0.21875,0.9375 0.23437,0.35937 0.8125,0.53125 0.57812,0.17187 1.64062,0.17187 1.54688,0 2.20313,-0.39062 0.67187,-0.375 0.67187,-1.14063 0,-0.6875 -0.53125,-1.04687 -0.51562,-0.34375 -1.45312,-0.34375 h -1.54688 q -1.25,0 -1.89062,-0.53125 -0.64063,-0.53125 -0.64063,-1.34375 0,-0.48438 0.26563,-0.92188 0.28125,-0.45312 0.8125,-0.8125 -0.85938,-0.4375 -1.26563,-1.09375 -0.39062,-0.67187 -0.39062,-1.625 0,-0.98437 0.48437,-1.76562 0.5,-0.78125 1.35938,-1.21875 0.875,-0.45315 1.9375,-0.45315 1.15625,0.0312 1.9375,-0.0781 0.78125,-0.10938 1.29687,-0.28125 0.51563,-0.17188 1.26563,-0.51563 z m -5,0.5625 q -0.96875,0 -1.5,0.60937 -0.53125,0.60938 -0.53125,1.59375 0,1.01563 0.53125,1.625 0.54687,0.59375 1.53125,0.59375 1.01562,0 1.54687,-0.57812 0.53125,-0.59375 0.53125,-1.65625 0,-2.1875 -2.10937,-2.1875 z"
       fill-rule="nonzero"
       id="path55" />
    <path
       fill="#000000"
       d="m 113.0584,275.06006 q 2.92188,0 4.67188,1.35938 1.76562,1.34375 1.76562,5 0,3.57812 -1.76562,5.04687 -1.75,1.45313 -4.28125,1.45313 h -3.07813 v -12.85938 z m -0.90625,1.42188 v 10.03125 h 1.4375 q 1.78125,0 2.90625,-1.09375 1.125,-1.09375 1.125,-4 0,-2.03125 -0.57812,-3.10938 -0.57813,-1.09375 -1.48438,-1.45312 -0.89062,-0.375 -2.10937,-0.375 z m 16.57796,9.14062 q 0,0.59375 0.20313,0.89063 0.21875,0.28125 0.625,0.4375 l -0.39063,1.1875 q -0.76562,-0.0937 -1.23436,-0.42188 -0.46875,-0.34375 -0.6875,-1.04687 -1,1.46875 -2.9375,1.46875 -1.45313,0 -2.29688,-0.8125 -0.82812,-0.82813 -0.82812,-2.15625 0,-1.5625 1.125,-2.39063 1.125,-0.84375 3.20312,-0.84375 h 1.5 v -0.73437 q 0,-1.04688 -0.5,-1.48438 -0.5,-0.45312 -1.54687,-0.45312 -1.07813,0 -2.64063,0.51562 l -0.4375,-1.25 q 1.82813,-0.67187 3.39063,-0.67187 1.73437,0 2.59375,0.85937 0.85936,0.84375 0.85936,2.40625 z m -4.03124,1.23438 q 1.48438,0 2.3125,-1.53125 v -2.25 h -1.28125 q -2.71875,0 -2.71875,2.01562 0,0.875 0.42188,1.32813 0.4375,0.4375 1.26562,0.4375 z m 12.524,0.60937 q -0.96875,0.67188 -2.20313,0.67188 -1.25,0 -1.95312,-0.71875 -0.6875,-0.71875 -0.6875,-2.07813 v -5.92187 h -1.71875 v -1.32813 h 1.71875 v -2.21875 l 1.70312,-0.20312 v 2.42187 h 2.34375 l -0.1875,1.32813 h -2.15625 v 5.84375 q 0,0.76562 0.26563,1.125 0.28125,0.34375 0.92187,0.34375 0.57813,0 1.29688,-0.39063 z m 8.26049,-1.84375 q 0,0.59375 0.20313,0.89063 0.21875,0.28125 0.625,0.4375 l -0.39063,1.1875 q -0.76562,-0.0937 -1.23437,-0.42188 -0.46875,-0.34375 -0.6875,-1.04687 -1,1.46875 -2.9375,1.46875 -1.45313,0 -2.29688,-0.8125 -0.82812,-0.82813 -0.82812,-2.15625 0,-1.5625 1.125,-2.39063 1.125,-0.84375 3.20312,-0.84375 h 1.5 v -0.73437 q 0,-1.04688 -0.5,-1.48438 -0.5,-0.45312 -1.54687,-0.45312 -1.07813,0 -2.64063,0.51562 l -0.4375,-1.25 q 1.82813,-0.67187 3.39063,-0.67187 1.73437,0 2.59375,0.85937 0.85937,0.84375 0.85937,2.40625 z m -4.03125,1.23438 q 1.48438,0 2.3125,-1.53125 v -2.25 h -1.28125 q -2.71875,0 -2.71875,2.01562 0,0.875 0.42188,1.32813 0.4375,0.4375 1.26562,0.4375 z"
       fill-rule="nonzero"
       id="path57" />
    <path
       fill="#eeeeee"
       d="m 405.38757,193.09607 h -13.6413 c -1.88345,0 -3.4103,3.58466 -3.4103,8.00656 0,4.42191 1.52685,8.00656 3.4103,8.00656 h 13.6413 v 0 c 1.88348,0 3.41034,-3.58465 3.41034,-8.00656 0,-4.4219 -1.52686,-8.00656 -3.41034,-8.00656 z"
       fill-rule="evenodd"
       id="path59" />
    <path
       fill="#000000"
       fill-opacity="0"
       d="m 391.74628,209.10919 c 1.88348,0 3.41034,-3.58466 3.41034,-8.00656 0,-4.42191 -1.52686,-8.00656 -3.41034,-8.00656"
       fill-rule="evenodd"
       id="path61" />
    <path
       fill="#000000"
       fill-opacity="0"
       d="m 405.38757,193.09607 h -13.6413 c -1.88345,0 -3.4103,3.58466 -3.4103,8.00656 0,4.42191 1.52685,8.00656 3.4103,8.00656 h 13.6413 v 0 c 1.88348,0 3.41034,-3.58465 3.41034,-8.00656 0,-4.4219 -1.52686,-8.00656 -3.41034,-8.00656 z"
       fill-rule="evenodd"
       id="path63" />
    <path
       stroke="#595959"
       stroke-width="1"
       stroke-linejoin="round"
       stroke-linecap="butt"
       d="m 391.74628,209.10919 c 1.88348,0 3.41034,-3.58466 3.41034,-8.00656 0,-4.42191 -1.52686,-8.00656 -3.41034,-8.00656"
       fill-rule="evenodd"
       id="path65" />
    <path
       stroke="#595959"
       stroke-width="1"
       stroke-linejoin="round"
       stroke-linecap="butt"
       d="m 405.38757,193.09607 h -13.6413 c -1.88345,0 -3.4103,3.58466 -3.4103,8.00656 0,4.42191 1.52685,8.00656 3.4103,8.00656 h 13.6413 v 0 c 1.88348,0 3.41034,-3.58465 3.41034,-8.00656 0,-4.4219 -1.52686,-8.00656 -3.41034,-8.00656 z"
       fill-rule="evenodd"
       id="path67" />
    <path
       fill="#eeeeee"
       d="m 378.68066,193.09607 h 13.6413 c 1.88348,0 3.4103,3.58466 3.4103,8.00656 0,4.42191 -1.52682,8.00656 -3.4103,8.00656 h -13.6413 v 0 c -1.88345,0 -3.41031,-3.58465 -3.41031,-8.00656 0,-4.4219 1.52686,-8.00656 3.41031,-8.00656 z"
       fill-rule="evenodd"
       id="path69" />
    <path
       fill="#000000"
       fill-opacity="0"
       d="m 392.32196,209.10919 c -1.88348,0 -3.41034,-3.58466 -3.41034,-8.00656 0,-4.42191 1.52686,-8.00656 3.41034,-8.00656"
       fill-rule="evenodd"
       id="path71" />
    <path
       fill="#000000"
       fill-opacity="0"
       d="m 378.68066,193.09607 h 13.6413 c 1.88348,0 3.4103,3.58466 3.4103,8.00656 0,4.42191 -1.52682,8.00656 -3.4103,8.00656 h -13.6413 v 0 c -1.88345,0 -3.41031,-3.58465 -3.41031,-8.00656 0,-4.4219 1.52686,-8.00656 3.41031,-8.00656 z"
       fill-rule="evenodd"
       id="path73" />
    <path
       stroke="#595959"
       stroke-width="1"
       stroke-linejoin="round"
       stroke-linecap="butt"
       d="m 392.32196,209.10919 c -1.88348,0 -3.41034,-3.58466 -3.41034,-8.00656 0,-4.42191 1.52686,-8.00656 3.41034,-8.00656"
       fill-rule="evenodd"
       id="path75" />
    <path
       stroke="#595959"
       stroke-width="1"
       stroke-linejoin="round"
       stroke-linecap="butt"
       d="m 378.68066,193.09607 h 13.6413 c 1.88348,0 3.4103,3.58466 3.4103,8.00656 0,4.42191 -1.52682,8.00656 -3.4103,8.00656 h -13.6413 v 0 c -1.88345,0 -3.41031,-3.58465 -3.41031,-8.00656 0,-4.4219 1.52686,-8.00656 3.41031,-8.00656 z"
       fill-rule="evenodd"
       id="path77" />
    <path
       fill="#efefef"
       d="m 400.81628,193.4517 h -16.12601 v 15.24409 h 16.12601 z"
       fill-rule="evenodd"
       id="path79" />
    <path
       fill="#eeeeee"
       d="m 405.38757,262.98322 h -13.6413 c -1.88345,0 -3.4103,3.58466 -3.4103,8.00656 0,4.42191 1.52685,8.00656 3.4103,8.00656 h 13.6413 v 0 c 1.88348,0 3.41034,-3.58465 3.41034,-8.00656 0,-4.4219 -1.52686,-8.00656 -3.41034,-8.00656 z"
       fill-rule="evenodd"
       id="path81" />
    <path
       fill="#000000"
       fill-opacity="0"
       d="m 391.74628,278.99634 c 1.88348,0 3.41034,-3.58466 3.41034,-8.00656 0,-4.42191 -1.52686,-8.00656 -3.41034,-8.00656"
       fill-rule="evenodd"
       id="path83" />
    <path
       fill="#000000"
       fill-opacity="0"
       d="m 405.38757,262.98322 h -13.6413 c -1.88345,0 -3.4103,3.58466 -3.4103,8.00656 0,4.42191 1.52685,8.00656 3.4103,8.00656 h 13.6413 v 0 c 1.88348,0 3.41034,-3.58465 3.41034,-8.00656 0,-4.4219 -1.52686,-8.00656 -3.41034,-8.00656 z"
       fill-rule="evenodd"
       id="path85" />
    <path
       stroke="#595959"
       stroke-width="1"
       stroke-linejoin="round"
       stroke-linecap="butt"
       d="m 391.74628,278.99634 c 1.88348,0 3.41034,-3.58466 3.41034,-8.00656 0,-4.42191 -1.52686,-8.00656 -3.41034,-8.00656"
       fill-rule="evenodd"
       id="path87" />
    <path
       stroke="#595959"
       stroke-width="1"
       stroke-linejoin="round"
       stroke-linecap="butt"
       d="m 405.38757,262.98322 h -13.6413 c -1.88345,0 -3.4103,3.58466 -3.4103,8.00656 0,4.42191 1.52685,8.00656 3.4103,8.00656 h 13.6413 v 0 c 1.88348,0 3.41034,-3.58465 3.41034,-8.00656 0,-4.4219 -1.52686,-8.00656 -3.41034,-8.00656 z"
       fill-rule="evenodd"
       id="path89" />
    <path
       fill="#eeeeee"
       d="m 378.68066,262.98322 h 13.6413 c 1.88348,0 3.4103,3.58466 3.4103,8.00656 0,4.42191 -1.52682,8.00656 -3.4103,8.00656 h -13.6413 v 0 c -1.88345,0 -3.41031,-3.58465 -3.41031,-8.00656 0,-4.4219 1.52686,-8.00656 3.41031,-8.00656 z"
       fill-rule="evenodd"
       id="path91" />
    <path
       fill="#000000"
       fill-opacity="0"
       d="m 392.32196,278.99634 c -1.88348,0 -3.41034,-3.58466 -3.41034,-8.00656 0,-4.42191 1.52686,-8.00656 3.41034,-8.00656"
       fill-rule="evenodd"
       id="path93" />
    <path
       fill="#000000"
       fill-opacity="0"
       d="m 378.68066,262.98322 h 13.6413 c 1.88348,0 3.4103,3.58466 3.4103,8.00656 0,4.42191 -1.52682,8.00656 -3.4103,8.00656 h -13.6413 v 0 c -1.88345,0 -3.41031,-3.58465 -3.41031,-8.00656 0,-4.4219 1.52686,-8.00656 3.41031,-8.00656 z"
       fill-rule="evenodd"
       id="path95" />
    <path
       stroke="#595959"
       stroke-width="1"
       stroke-linejoin="round"
       stroke-linecap="butt"
       d="m 392.32196,278.99634 c -1.88348,0 -3.41034,-3.58466 -3.41034,-8.00656 0,-4.42191 1.52686,-8.00656 3.41034,-8.00656"
       fill-rule="evenodd"
       id="path97" />
    <path
       stroke="#595959"
       stroke-width="1"
       stroke-linejoin="round"
       stroke-linecap="butt"
       d="m 378.68066,262.98322 h 13.6413 c 1.88348,0 3.4103,3.58466 3.4103,8.00656 0,4.42191 -1.52682,8.00656 -3.4103,8.00656 h -13.6413 v 0 c -1.88345,0 -3.41031,-3.58465 -3.41031,-8.00656 0,-4.4219 1.52686,-8.00656 3.41031,-8.00656 z"
       fill-rule="evenodd"
       id="path99" />
    <path
       fill="#efefef"
       d="m 400.81628,263.33884 h -16.12601 v 15.24411 h 16.12601 z"
       fill-rule="evenodd"
       id="path101" />
    <path
       fill="#eeeeee"
       d="m 405.38757,329.09607 h -13.6413 c -1.88345,0 -3.4103,3.58466 -3.4103,8.00656 0,4.42191 1.52685,8.00656 3.4103,8.00656 h 13.6413 v 0 c 1.88348,0 3.41034,-3.58465 3.41034,-8.00656 0,-4.4219 -1.52686,-8.00656 -3.41034,-8.00656 z"
       fill-rule="evenodd"
       id="path103" />
    <path
       fill="#000000"
       fill-opacity="0"
       d="m 391.74628,345.1092 c 1.88348,0 3.41034,-3.58466 3.41034,-8.00656 0,-4.42191 -1.52686,-8.00656 -3.41034,-8.00656"
       fill-rule="evenodd"
       id="path105" />
    <path
       fill="#000000"
       fill-opacity="0"
       d="m 405.38757,329.09607 h -13.6413 c -1.88345,0 -3.4103,3.58466 -3.4103,8.00656 0,4.42191 1.52685,8.00656 3.4103,8.00656 h 13.6413 v 0 c 1.88348,0 3.41034,-3.58465 3.41034,-8.00656 0,-4.4219 -1.52686,-8.00656 -3.41034,-8.00656 z"
       fill-rule="evenodd"
       id="path107" />
    <path
       stroke="#595959"
       stroke-width="1"
       stroke-linejoin="round"
       stroke-linecap="butt"
       d="m 391.74628,345.1092 c 1.88348,0 3.41034,-3.58466 3.41034,-8.00656 0,-4.42191 -1.52686,-8.00656 -3.41034,-8.00656"
       fill-rule="evenodd"
       id="path109" />
    <path
       stroke="#595959"
       stroke-width="1"
       stroke-linejoin="round"
       stroke-linecap="butt"
       d="m 405.38757,329.09607 h -13.6413 c -1.88345,0 -3.4103,3.58466 -3.4103,8.00656 0,4.42191 1.52685,8.00656 3.4103,8.00656 h 13.6413 v 0 c 1.88348,0 3.41034,-3.58465 3.41034,-8.00656 0,-4.4219 -1.52686,-8.00656 -3.41034,-8.00656 z"
       fill-rule="evenodd"
       id="path111" />
    <path
       fill="#eeeeee"
       d="m 378.68066,329.09607 h 13.6413 c 1.88348,0 3.4103,3.58466 3.4103,8.00656 0,4.42191 -1.52682,8.00656 -3.4103,8.00656 h -13.6413 v 0 c -1.88345,0 -3.41031,-3.58465 -3.41031,-8.00656 0,-4.4219 1.52686,-8.00656 3.41031,-8.00656 z"
       fill-rule="evenodd"
       id="path113" />
    <path
       fill="#000000"
       fill-opacity="0"
       d="m 392.32196,345.1092 c -1.88348,0 -3.41034,-3.58466 -3.41034,-8.00656 0,-4.42191 1.52686,-8.00656 3.41034,-8.00656"
       fill-rule="evenodd"
       id="path115" />
    <path
       fill="#000000"
       fill-opacity="0"
       d="m 378.68066,329.09607 h 13.6413 c 1.88348,0 3.4103,3.58466 3.4103,8.00656 0,4.42191 -1.52682,8.00656 -3.4103,8.00656 h -13.6413 v 0 c -1.88345,0 -3.41031,-3.58465 -3.41031,-8.00656 0,-4.4219 1.52686,-8.00656 3.41031,-8.00656 z"
       fill-rule="evenodd"
       id="path117" />
    <path
       stroke="#595959"
       stroke-width="1"
       stroke-linejoin="round"
       stroke-linecap="butt"
       d="m 392.32196,345.1092 c -1.88348,0 -3.41034,-3.58466 -3.41034,-8.00656 0,-4.42191 1.52686,-8.00656 3.41034,-8.00656"
       fill-rule="evenodd"
       id="path119" />
    <path
       stroke="#595959"
       stroke-width="1"
       stroke-linejoin="round"
       stroke-linecap="butt"
       d="m 378.68066,329.09607 h 13.6413 c 1.88348,0 3.4103,3.58466 3.4103,8.00656 0,4.42191 -1.52682,8.00656 -3.4103,8.00656 h -13.6413 v 0 c -1.88345,0 -3.41031,-3.58465 -3.41031,-8.00656 0,-4.4219 1.52686,-8.00656 3.41031,-8.00656 z"
       fill-rule="evenodd"
       id="path121" />
    <path
       fill="#efefef"
       d="m 400.81628,329.45172 h -16.12601 v 15.24408 h 16.12601 z"
       fill-rule="evenodd"
       id="path123" />
    <path
       fill="#ffab40"
       d="m 646.18945,254.87354 v 0 c 0,-4.45026 -3.60767,-8.05791 -8.05792,-8.05791 H 546.0899 c -2.13714,0 -4.1867,0.84897 -5.69781,2.36011 -1.51117,1.51115 -2.36011,3.56072 -2.36011,5.6978 v 32.23065 c 0,4.45026 3.6076,8.05789 8.05792,8.05789 h 92.04163 c 4.45025,0 8.05792,-3.60763 8.05792,-8.05789 z"
       fill-rule="evenodd"
       id="path125" />
    <path
       stroke="#000000"
       stroke-width="2"
       stroke-linejoin="round"
       stroke-linecap="butt"
       d="m 646.18945,254.87354 v 0 c 0,-4.45026 -3.60767,-8.05791 -8.05792,-8.05791 H 546.0899 c -2.13714,0 -4.1867,0.84897 -5.69781,2.36011 -1.51117,1.51115 -2.36011,3.56072 -2.36011,5.6978 v 32.23065 c 0,4.45026 3.6076,8.05789 8.05792,8.05789 h 92.04163 c 4.45025,0 8.05792,-3.60763 8.05792,-8.05789 z"
       fill-rule="evenodd"
       id="path127" />
    <path
       fill="#000000"
       d="m 567.8881,263.2401 h -1.64063 v 4.46875 h -1.45312 v -10.5625 h 2.78125 q 1.96875,0 2.98437,0.75 1.03125,0.75 1.03125,2.23437 0,1.10938 -0.57812,1.79688 -0.5625,0.6875 -1.70313,1.04687 l 2.84375,4.73438 h -1.73437 z m -0.17188,-1.125 q 1.15625,0 1.73438,-0.46875 0.59375,-0.46875 0.59375,-1.51563 0,-0.96875 -0.59375,-1.40625 -0.59375,-0.4375 -1.89063,-0.4375 h -1.3125 v 3.82813 z m 11.55774,3.70312 q 0,0.5 0.17188,0.73438 0.17187,0.23437 0.51562,0.35937 l -0.32812,0.98438 q -0.625,-0.0781 -1.01563,-0.34375 -0.375,-0.28125 -0.5625,-0.875 -0.8125,1.21875 -2.40625,1.21875 -1.20312,0 -1.89062,-0.67188 -0.6875,-0.6875 -0.6875,-1.76562 0,-1.29688 0.92187,-1.98438 0.9375,-0.6875 2.64063,-0.6875 h 1.23437 v -0.59375 q 0,-0.85937 -0.42187,-1.21875 -0.40625,-0.375 -1.26563,-0.375 -0.89062,0 -2.17187,0.42188 l -0.35938,-1.01563 q 1.51563,-0.5625 2.79688,-0.5625 1.42187,0 2.125,0.70313 0.70312,0.70312 0.70312,1.98437 z m -3.29687,1.01563 q 1.20312,0 1.89062,-1.25 v -1.85938 h -1.04687 q -2.25,0 -2.25,1.65625 0,0.71875 0.34375,1.09375 0.35937,0.35938 1.0625,0.35938 z m 9.99475,-7.39063 q 1.10937,0 1.73437,0.67188 0.625,0.65625 0.625,1.79687 v 5.79688 h -1.42187 v -5.59375 q 0,-0.85938 -0.32813,-1.20313 -0.3125,-0.35937 -0.9375,-0.35937 -0.64062,0 -1.14062,0.375 -0.48438,0.35937 -0.92188,1.04687 v 5.73438 h -1.40625 v -8.07813 h 1.21875 l 0.125,1.20313 q 0.42188,-0.65625 1.04688,-1.01563 0.64062,-0.375 1.40625,-0.375 z m 11.43542,-3.0625 v 11.32813 h -1.23437 l -0.14063,-1.125 q -0.39062,0.625 -1,0.96875 -0.59375,0.34375 -1.32812,0.34375 -1.4375,0 -2.25,-1.125 -0.79688,-1.14063 -0.79688,-3.0625 0,-1.25 0.375,-2.20313 0.39063,-0.96875 1.10938,-1.51562 0.71875,-0.54688 1.6875,-0.54688 1.23437,0 2.17187,1 v -4.23437 z m -3.39062,10.39063 q 0.64062,0 1.09375,-0.29688 0.46875,-0.29687 0.89062,-0.89062 v -3.95313 q -0.39062,-0.53125 -0.84375,-0.79687 -0.45312,-0.26563 -1.01562,-0.26563 -0.9375,0 -1.45313,0.78125 -0.51562,0.78125 -0.51562,2.32813 0,1.5625 0.46875,2.32812 0.48437,0.76563 1.375,0.76563 z m 9.33813,-7.32813 q 1.70313,0 2.64063,1.14063 0.95312,1.125 0.95312,3.07812 0,1.25 -0.4375,2.21875 -0.42187,0.95313 -1.23437,1.48438 -0.8125,0.53125 -1.9375,0.53125 -1.6875,0 -2.64063,-1.125 -0.95312,-1.14063 -0.95312,-3.09375 0,-1.25 0.42187,-2.20313 0.4375,-0.96875 1.25,-1.5 0.8125,-0.53125 1.9375,-0.53125 z m 0,1.14063 q -2.09375,0 -2.09375,3.09375 0,3.07812 2.07813,3.07812 2.09375,0 2.09375,-3.09375 0,-3.07812 -2.07813,-3.07812 z m 14.02979,-1.14063 q 1,0 1.59375,0.67188 0.59375,0.67187 0.59375,1.79687 v 5.79688 h -1.40625 v -5.59375 q 0,-1.5625 -1.125,-1.5625 -0.60938,0 -1.03125,0.34375 -0.40625,0.34375 -0.875,1.07812 v 5.73438 h -1.40625 v -5.59375 q 0,-1.5625 -1.14063,-1.5625 -0.60937,0 -1.03125,0.35937 -0.40625,0.34375 -0.875,1.0625 v 5.73438 h -1.40625 v -8.07813 h 1.21875 l 0.125,1.1875 q 0.89063,-1.375 2.32813,-1.375 0.75,0 1.26562,0.39063 0.53125,0.375 0.76563,1.0625 0.48437,-0.70313 1.04687,-1.07813 0.57813,-0.375 1.35938,-0.375 z"
       fill-rule="nonzero"
       id="path129" />
    <path
       fill="#000000"
       d="m 572.4203,285.70886 v -10.5625 h 5.60937 l -0.17187,1.17188 h -3.98438 v 3.59375 h 3.45313 v 1.15625 h -3.45313 v 4.64062 z m 9.94263,-8.26562 q 1.70312,0 2.64062,1.14062 0.95313,1.125 0.95313,3.07813 0,1.25 -0.4375,2.21875 -0.42188,0.95312 -1.23438,1.48437 -0.8125,0.53125 -1.9375,0.53125 -1.6875,0 -2.64062,-1.125 -0.95313,-1.14062 -0.95313,-3.09375 0,-1.25 0.42188,-2.20312 0.4375,-0.96875 1.25,-1.5 0.8125,-0.53125 1.9375,-0.53125 z m 0,1.14062 q -2.09375,0 -2.09375,3.09375 0,3.07813 2.07812,3.07813 2.09375,0 2.09375,-3.09375 0,-3.07813 -2.07812,-3.07813 z m 9.43597,-1.14062 q 0.42188,0 0.79688,0.0937 l -0.26563,1.375 q -0.35937,-0.0781 -0.70312,-0.0781 -0.75,0 -1.21875,0.54688 -0.45313,0.54687 -0.71875,1.71875 v 4.60937 h -1.40625 v -8.07812 h 1.21875 l 0.14062,1.64062 q 0.3125,-0.90625 0.85938,-1.35937 0.5625,-0.46875 1.29687,-0.46875 z m 8.05042,3.98437 q 0,0.35938 -0.0312,0.71875 h -5.15625 q 0.0937,1.34375 0.67187,1.96875 0.57813,0.625 1.5,0.625 0.59375,0 1.07813,-0.15625 0.48437,-0.17187 1.03125,-0.54687 l 0.60937,0.84375 q -1.28125,1.01562 -2.82812,1.01562 -1.67188,0 -2.625,-1.09375 -0.9375,-1.10937 -0.9375,-3.04687 0,-1.26563 0.40625,-2.23438 0.40625,-0.96875 1.15625,-1.51562 0.76562,-0.5625 1.79687,-0.5625 1.60938,0 2.46875,1.0625 0.85938,1.0625 0.85938,2.92187 z m -1.40625,-0.40625 q 0,-1.20312 -0.46875,-1.82812 -0.46875,-0.625 -1.42188,-0.625 -1.73437,0 -1.89062,2.54687 h 3.78125 z m 5.83825,-3.57812 q 0.82813,0 1.48438,0.23437 0.67187,0.23438 1.26562,0.6875 l -0.59375,0.89063 q -0.54687,-0.35938 -1.04687,-0.51563 -0.5,-0.17187 -1.0625,-0.17187 -0.6875,0 -1.09375,0.28125 -0.39063,0.28125 -0.39063,0.78125 0,0.48437 0.375,0.76562 0.375,0.26563 1.35938,0.53125 1.34375,0.34375 2.01562,0.92188 0.67188,0.57812 0.67188,1.59375 0,1.1875 -0.9375,1.82812 -0.92188,0.625 -2.25,0.625 -1.84375,0 -3.04688,-1.0625 l 0.75,-0.85937 q 1.01563,0.78125 2.26563,0.78125 0.79687,0 1.26562,-0.32813 0.46875,-0.32812 0.46875,-0.89062 0,-0.42188 -0.17187,-0.67188 -0.17188,-0.25 -0.59375,-0.4375 -0.40625,-0.20312 -1.20313,-0.40625 -1.28125,-0.34375 -1.85937,-0.90625 -0.57813,-0.57812 -0.57813,-1.45312 0,-0.625 0.375,-1.125 0.375,-0.51563 1.04688,-0.79688 0.67187,-0.29687 1.48437,-0.29687 z m 9.04889,7.89062 q -0.79687,0.5625 -1.8125,0.5625 -1.01562,0 -1.59375,-0.59375 -0.57812,-0.59375 -0.57812,-1.70312 v -4.875 h -1.40625 v -1.09375 h 1.40625 v -1.82813 l 1.40625,-0.17187 v 2 h 1.92187 l -0.15625,1.09375 h -1.76562 v 4.8125 q 0,0.625 0.21875,0.90625 0.23437,0.28125 0.75,0.28125 0.48437,0 1.07812,-0.3125 z"
       fill-rule="nonzero"
       id="path131" />
    <path
       fill="#eeeeee"
       d="m 513.0291,262.98322 h 13.6413 c 1.88348,0 3.41034,3.58466 3.41034,8.00656 0,4.42191 -1.52686,8.00656 -3.41034,8.00656 h -13.6413 v 0 c -1.88345,0 -3.41031,-3.58465 -3.41031,-8.00656 0,-4.4219 1.52686,-8.00656 3.41031,-8.00656 z"
       fill-rule="evenodd"
       id="path133" />
    <path
       fill="#000000"
       fill-opacity="0"
       d="m 526.6704,278.99634 c -1.88348,0 -3.41034,-3.58466 -3.41034,-8.00656 0,-4.42191 1.52686,-8.00656 3.41034,-8.00656"
       fill-rule="evenodd"
       id="path135" />
    <path
       fill="#000000"
       fill-opacity="0"
       d="m 513.0291,262.98322 h 13.6413 c 1.88348,0 3.41034,3.58466 3.41034,8.00656 0,4.42191 -1.52686,8.00656 -3.41034,8.00656 h -13.6413 v 0 c -1.88345,0 -3.41031,-3.58465 -3.41031,-8.00656 0,-4.4219 1.52686,-8.00656 3.41031,-8.00656 z"
       fill-rule="evenodd"
       id="path137" />
    <path
       stroke="#595959"
       stroke-width="1"
       stroke-linejoin="round"
       stroke-linecap="butt"
       d="m 526.6704,278.99634 c -1.88348,0 -3.41034,-3.58466 -3.41034,-8.00656 0,-4.42191 1.52686,-8.00656 3.41034,-8.00656"
       fill-rule="evenodd"
       id="path139" />
    <path
       stroke="#595959"
       stroke-width="1"
       stroke-linejoin="round"
       stroke-linecap="butt"
       d="m 513.0291,262.98322 h 13.6413 c 1.88348,0 3.41034,3.58466 3.41034,8.00656 0,4.42191 -1.52686,8.00656 -3.41034,8.00656 h -13.6413 v 0 c -1.88345,0 -3.41031,-3.58465 -3.41031,-8.00656 0,-4.4219 1.52686,-8.00656 3.41031,-8.00656 z"
       fill-rule="evenodd"
       id="path141" />
    <path
       fill="#eeeeee"
       d="m 539.736,262.98322 h -13.6413 c -1.88342,0 -3.41027,3.58466 -3.41027,8.00656 0,4.42191 1.52685,8.00656 3.41027,8.00656 h 13.6413 v 0 c 1.88348,0 3.41034,-3.58465 3.41034,-8.00656 0,-4.4219 -1.52686,-8.00656 -3.41034,-8.00656 z"
       fill-rule="evenodd"
       id="path143" />
    <path
       fill="#000000"
       fill-opacity="0"
       d="m 526.0947,278.99634 c 1.88348,0 3.41034,-3.58466 3.41034,-8.00656 0,-4.42191 -1.52686,-8.00656 -3.41034,-8.00656"
       fill-rule="evenodd"
       id="path145" />
    <path
       fill="#000000"
       fill-opacity="0"
       d="m 539.736,262.98322 h -13.6413 c -1.88342,0 -3.41027,3.58466 -3.41027,8.00656 0,4.42191 1.52685,8.00656 3.41027,8.00656 h 13.6413 v 0 c 1.88348,0 3.41034,-3.58465 3.41034,-8.00656 0,-4.4219 -1.52686,-8.00656 -3.41034,-8.00656 z"
       fill-rule="evenodd"
       id="path147" />
    <path
       stroke="#595959"
       stroke-width="1"
       stroke-linejoin="round"
       stroke-linecap="butt"
       d="m 526.0947,278.99634 c 1.88348,0 3.41034,-3.58466 3.41034,-8.00656 0,-4.42191 -1.52686,-8.00656 -3.41034,-8.00656"
       fill-rule="evenodd"
       id="path149" />
    <path
       stroke="#595959"
       stroke-width="1"
       stroke-linejoin="round"
       stroke-linecap="butt"
       d="m 539.736,262.98322 h -13.6413 c -1.88342,0 -3.41027,3.58466 -3.41027,8.00656 0,4.42191 1.52685,8.00656 3.41027,8.00656 h 13.6413 v 0 c 1.88348,0 3.41034,-3.58465 3.41034,-8.00656 0,-4.4219 -1.52686,-8.00656 -3.41034,-8.00656 z"
       fill-rule="evenodd"
       id="path151" />
    <path
       fill="#efefef"
       d="m 517.60046,263.33884 h 16.12598 v 15.24411 h -16.12598 z"
       fill-rule="evenodd"
       id="path153" />
    <path
       fill="#9fc5e8"
       d="m 189.40329,306.76462 35.1467,19.10773 -3,5.51181 17.02653,-5.02899 -5.02653,-17.01828 -3,5.51181 -35.1467,-19.1077 z"
       fill-rule="evenodd"
       id="path155" />
    <path
       stroke="#595959"
       stroke-width="1"
       stroke-linejoin="round"
       stroke-linecap="butt"
       d="m 189.40329,306.76462 35.1467,19.10773 -3,5.51181 17.02653,-5.02899 -5.02653,-17.01828 -3,5.51181 -35.1467,-19.1077 z"
       fill-rule="evenodd"
       id="path157" />
  </g>
</svg>
