<?xml version="1.0" encoding="UTF-8" standalone="no"?>
<svg
   version="1.1"
   viewBox="0 0 646.71094 299.62793"
   fill="none"
   stroke="none"
   stroke-linecap="square"
   stroke-miterlimit="10"
   id="svg133"
   sodipodi:docname="mlr3Pipelines graphics user 2019.svg"
   width="646.71094"
   height="299.62793"
   inkscape:version="1.1.2 (0a00cf5339, 2022-02-04)"
   xmlns:inkscape="http://www.inkscape.org/namespaces/inkscape"
   xmlns:sodipodi="http://sodipodi.sourceforge.net/DTD/sodipodi-0.dtd"
   xmlns="http://www.w3.org/2000/svg"
   xmlns:svg="http://www.w3.org/2000/svg">
  <defs
     id="defs137" />
  <sodipodi:namedview
     id="namedview135"
     pagecolor="#ffffff"
     bordercolor="#666666"
     borderopacity="1.0"
     inkscape:pageshadow="2"
     inkscape:pageopacity="0.0"
     inkscape:pagecheckerboard="0"
     showgrid="false"
     fit-margin-top="0"
     fit-margin-left="0"
     fit-margin-right="0"
     fit-margin-bottom="0"
     inkscape:zoom="1.259327"
     inkscape:cx="416.88935"
     inkscape:cy="381.55302"
     inkscape:window-width="1918"
     inkscape:window-height="1198"
     inkscape:window-x="3840"
     inkscape:window-y="0"
     inkscape:window-maximized="1"
     inkscape:current-layer="svg133" />
  <clipPath
     id="g4634b2f704_0_4.0">
    <path
       d="M 0,0 H 960 V 540 H 0 Z"
       clip-rule="nonzero"
       id="path2" />
  </clipPath>
  <path
     fill="#000000"
     fill-opacity="0"
     d="m 331.0097,295.55966 c -2.90915,0 -5.26752,-2.35834 -5.26752,-5.26752 v -21.07129 c 0,-2.90915 -2.35833,-5.26748 -5.26748,-5.26748 2.90915,0 5.26748,-2.35834 5.26748,-5.26752 v -21.07129 0 c 0,-2.90915 2.35837,-5.26749 5.26752,-5.26749 h 100.53626 c 1.39703,0 2.73687,0.55496 3.72473,1.54282 0.98785,0.98782 1.54278,2.32764 1.54278,3.72467 v 21.07129 c 0,2.90918 2.35834,5.26752 5.26752,5.26752 -2.90918,0 -5.26752,2.35833 -5.26752,5.26748 v 21.07129 c 0,2.90918 -2.35834,5.26752 -5.26751,5.26752 z"
     fill-rule="evenodd"
     id="path7" />
  <path
     fill="#000000"
     fill-opacity="0"
     d="m 331.0097,295.55966 c -2.90915,0 -5.26752,-2.35834 -5.26752,-5.26752 v -21.07129 c 0,-2.90915 -2.35833,-5.26748 -5.26748,-5.26748 2.90915,0 5.26748,-2.35834 5.26748,-5.26752 v -21.07129 0 c 0,-2.90915 2.35837,-5.26749 5.26752,-5.26749 m 100.53626,0 c 1.39703,0 2.73687,0.55496 3.72473,1.54282 0.98785,0.98782 1.54278,2.32764 1.54278,3.72467 v 21.07129 c 0,2.90918 2.35834,5.26752 5.26752,5.26752 -2.90918,0 -5.26752,2.35833 -5.26752,5.26748 v 21.07129 c 0,2.90918 -2.35834,5.26752 -5.26751,5.26752"
     fill-rule="evenodd"
     id="path9" />
  <path
     stroke="#595959"
     stroke-width="4"
     stroke-linejoin="round"
     stroke-linecap="butt"
     d="m 331.0097,295.55966 c -2.90915,0 -5.26752,-2.35834 -5.26752,-5.26752 v -21.07129 c 0,-2.90915 -2.35833,-5.26748 -5.26748,-5.26748 2.90915,0 5.26748,-2.35834 5.26748,-5.26752 v -21.07129 0 c 0,-2.90915 2.35837,-5.26749 5.26752,-5.26749 m 100.53626,0 c 1.39703,0 2.73687,0.55496 3.72473,1.54282 0.98785,0.98782 1.54278,2.32764 1.54278,3.72467 v 21.07129 c 0,2.90918 2.35834,5.26752 5.26752,5.26752 -2.90918,0 -5.26752,2.35833 -5.26752,5.26748 v 21.07129 c 0,2.90918 -2.35834,5.26752 -5.26751,5.26752"
     fill-rule="evenodd"
     id="path11" />
  <path
     fill="#efefef"
     d="m 385.081,133.06094 h 14.25195 V 103.0137 h 28.50397 v 30.04724 h 14.25195 l -28.5039,28.50394 z"
     fill-rule="evenodd"
     id="path13" />
  <path
     stroke="#cccccc"
     stroke-width="1"
     stroke-linejoin="round"
     stroke-linecap="butt"
     d="m 385.081,133.06094 h 14.25195 V 103.0137 h 28.50397 v 30.04724 h 14.25195 l -28.5039,28.50394 z"
     fill-rule="evenodd"
     id="path15" />
  <path
     fill="#9fc5e8"
     d="m 274.92222,48.20529 h 40.01575 v -6.27557 l 12.55117,12.55117 -12.55117,12.55118 v -6.2756 h -40.01575 z"
     fill-rule="evenodd"
     id="path17" />
  <path
     stroke="#595959"
     stroke-width="1"
     stroke-linejoin="round"
     stroke-linecap="butt"
     d="m 274.92222,48.20529 h 40.01575 v -6.27557 l 12.55117,12.55117 -12.55117,12.55118 v -6.2756 h -40.01575 z"
     fill-rule="evenodd"
     id="path19" />
  <path
     fill="#d0e0e3"
     d="m 353.41636,38.36596 v 0 c 0,-4.45026 3.60767,-8.05789 8.05792,-8.05789 h 92.04166 c 2.13709,0 4.18665,0.84895 5.69782,2.36011 1.51117,1.51113 2.3601,3.56069 2.3601,5.69778 v 32.23065 c 0,4.45026 -3.60766,8.05792 -8.05792,8.05792 h -92.04166 c -4.45025,0 -8.05792,-3.60766 -8.05792,-8.05792 z"
     fill-rule="evenodd"
     id="path21" />
  <path
     stroke="#000000"
     stroke-width="2"
     stroke-linejoin="round"
     stroke-linecap="butt"
     d="m 353.41636,38.36596 v 0 c 0,-4.45026 3.60767,-8.05789 8.05792,-8.05789 h 92.04166 c 2.13709,0 4.18665,0.84895 5.69782,2.36011 1.51117,1.51113 2.3601,3.56069 2.3601,5.69778 v 32.23065 c 0,4.45026 -3.60766,8.05792 -8.05792,8.05792 h -92.04166 c -4.45025,0 -8.05792,-3.60766 -8.05792,-8.05792 z"
     fill-rule="evenodd"
     id="path23" />
  <path
     fill="#000000"
     d="m 386.8961,49.45129 q 1.0625,0 1.8125,0.3125 0.75,0.29687 1.45313,0.92187 l -0.79688,0.89063 q -0.59375,-0.48438 -1.17187,-0.70313 -0.57813,-0.21875 -1.23438,-0.21875 -0.82812,0 -1.375,0.39063 -0.53125,0.375 -0.53125,1.10937 0,0.45313 0.1875,0.78125 0.1875,0.3125 0.67188,0.57813 0.5,0.25 1.45312,0.54687 1,0.29688 1.65625,0.65625 0.65625,0.34375 1.0625,0.96875 0.40625,0.625 0.40625,1.57813 0,0.92187 -0.45312,1.625 -0.4375,0.70312 -1.29688,1.10937 -0.84375,0.39063 -2.01562,0.39063 -2.1875,0 -3.57813,-1.375 l 0.79688,-0.875 q 0.64062,0.51562 1.29687,0.78125 0.65625,0.26562 1.46875,0.26562 0.98438,0 1.625,-0.48437 0.64063,-0.48438 0.64063,-1.39063 0,-0.53125 -0.20313,-0.875 -0.1875,-0.34375 -0.67187,-0.60937 -0.48438,-0.28125 -1.40625,-0.5625 -1.625,-0.48438 -2.375,-1.17188 -0.75,-0.70312 -0.75,-1.875 0,-0.79687 0.42187,-1.42187 0.42188,-0.64063 1.17188,-0.98438 0.76562,-0.35937 1.73437,-0.35937 z m 8.61951,2.48437 q 0.71875,0 1.3125,0.21875 0.59375,0.20313 1.14062,0.65625 l -0.67187,0.89063 q -0.42188,-0.3125 -0.82813,-0.45313 -0.40625,-0.14062 -0.90625,-0.14062 -0.96875,0 -1.51562,0.78125 -0.54688,0.78125 -0.54688,2.3125 0,1.53125 0.53125,2.26562 0.54688,0.71875 1.53125,0.71875 0.48438,0 0.875,-0.14062 0.40625,-0.14063 0.89063,-0.46875 l 0.64062,0.92187 q -1.09375,0.89063 -2.45312,0.89063 -1.64063,0 -2.59375,-1.09375 -0.9375,-1.10938 -0.9375,-3.0625 0,-1.28125 0.42187,-2.25 0.4375,-0.96875 1.21875,-1.5 0.79688,-0.54688 1.89063,-0.54688 z m 9.6579,6.375 q 0,0.5 0.17187,0.73438 0.17188,0.23437 0.51563,0.35937 l -0.32813,0.98438 q -0.625,-0.0781 -1.01562,-0.34375 -0.375,-0.28125 -0.5625,-0.875 -0.8125,1.21875 -2.40625,1.21875 -1.20313,0 -1.89063,-0.67188 -0.6875,-0.6875 -0.6875,-1.76562 0,-1.29688 0.92188,-1.98438 0.9375,-0.6875 2.64062,-0.6875 h 1.23438 v -0.59375 q 0,-0.85937 -0.42188,-1.21875 -0.40625,-0.375 -1.26562,-0.375 -0.89063,0 -2.17188,0.42188 l -0.35937,-1.01563 q 1.51562,-0.5625 2.79687,-0.5625 1.42188,0 2.125,0.70313 0.70313,0.70312 0.70313,1.98437 z m -3.29688,1.01563 q 1.20313,0 1.89063,-1.25 v -1.85938 h -1.04688 q -2.25,0 -2.25,1.65625 0,0.71875 0.34375,1.09375 0.35938,0.35938 1.0625,0.35938 z m 7.65393,1.0625 q -0.78125,0 -1.23437,-0.46875 -0.45313,-0.46875 -0.45313,-1.3125 v -9.73438 l 1.42188,-0.17187 v 9.875 q 0,0.34375 0.10937,0.5 0.10938,0.14062 0.39063,0.14062 0.29687,0 0.51562,-0.0937 l 0.375,0.98438 q -0.51562,0.28125 -1.125,0.28125 z m 4.28803,-8.26563 v 8.07813 h -1.40625 v -8.07813 z m -0.70313,-3.875 q 0.4375,0 0.71875,0.28125 0.28125,0.26563 0.28125,0.6875 0,0.40625 -0.28125,0.67188 -0.28125,0.26562 -0.71875,0.26562 -0.4375,0 -0.71875,-0.26562 -0.26562,-0.26563 -0.26562,-0.67188 0,-0.42187 0.26562,-0.6875 0.28125,-0.28125 0.71875,-0.28125 z m 7.41626,3.6875 q 1.10938,0 1.73438,0.67188 0.625,0.65625 0.625,1.79687 v 5.79688 h -1.42188 v -5.59375 q 0,-0.85938 -0.32812,-1.20313 -0.3125,-0.35937 -0.9375,-0.35937 -0.64063,0 -1.14063,0.375 -0.48437,0.35937 -0.92187,1.04687 v 5.73438 h -1.40625 v -8.07813 h 1.21875 l 0.125,1.20313 q 0.42187,-0.65625 1.04687,-1.01563 0.64063,-0.375 1.40625,-0.375 z m 11.70105,0.5625 q -0.45312,0.14063 -1.01562,0.1875 -0.54688,0.0469 -1.34375,0.0469 1.42187,0.64062 1.42187,2.04687 0,1.20313 -0.82812,1.96875 -0.82813,0.76563 -2.25,0.76563 -0.54688,0 -1.03125,-0.14063 -0.17188,0.10938 -0.28125,0.32813 -0.10938,0.20312 -0.10938,0.42187 0,0.65625 1.0625,0.65625 h 1.28125 q 0.8125,0 1.4375,0.29688 0.625,0.28125 0.96875,0.79687 0.35938,0.5 0.35938,1.14063 0,1.1875 -0.96875,1.8125 -0.96875,0.64062 -2.82813,0.64062 -1.29687,0 -2.0625,-0.26562 -0.75,-0.26563 -1.07812,-0.8125 -0.3125,-0.53125 -0.3125,-1.375 h 1.26562 q 0,0.48437 0.17188,0.76562 0.1875,0.29688 0.65625,0.4375 0.48437,0.14063 1.35937,0.14063 1.28125,0 1.8125,-0.3125 0.54688,-0.3125 0.54688,-0.9375 0,-0.5625 -0.4375,-0.85938 -0.42188,-0.29687 -1.1875,-0.29687 h -1.26563 q -1.03125,0 -1.5625,-0.4375 -0.53125,-0.4375 -0.53125,-1.09375 0,-0.39063 0.23438,-0.75 0.23437,-0.375 0.65625,-0.67188 -0.70313,-0.375 -1.03125,-0.90625 -0.32813,-0.54687 -0.32813,-1.32812 0,-0.8125 0.40625,-1.45313 0.40625,-0.65625 1.10938,-1.01562 0.71875,-0.35938 1.59375,-0.35938 0.95312,0.0156 1.59375,-0.0625 0.64062,-0.0937 1.0625,-0.23437 0.42187,-0.14063 1.04687,-0.42188 z m -4.10937,0.45313 q -0.79688,0 -1.23438,0.5 -0.4375,0.5 -0.4375,1.3125 0,0.82812 0.4375,1.32812 0.45313,0.48438 1.26563,0.48438 0.82812,0 1.26562,-0.46875 0.4375,-0.48438 0.4375,-1.35938 0,-1.79687 -1.73437,-1.79687 z"
     fill-rule="nonzero"
     id="path25" />
  <path
     fill="#d0e0e3"
     d="m 353.41697,196.08759 v 0 c 0,-9.95581 8.07077,-18.02658 18.02661,-18.02658 h 72.10428 v 0 c 4.78095,0 9.36609,1.8992 12.74671,5.27985 3.38067,3.38064 5.27984,7.96579 5.27984,12.74673 v 84.51373 c 0,9.95581 -8.07074,18.02661 -18.02655,18.02661 h -72.10428 c -9.95584,0 -18.02661,-8.0708 -18.02661,-18.02661 z"
     fill-rule="evenodd"
     id="path27" />
  <path
     stroke="#000000"
     stroke-width="2"
     stroke-linejoin="round"
     stroke-linecap="butt"
     d="m 353.41697,196.08759 v 0 c 0,-9.95581 8.07077,-18.02658 18.02661,-18.02658 h 72.10428 v 0 c 4.78095,0 9.36609,1.8992 12.74671,5.27985 3.38067,3.38064 5.27984,7.96579 5.27984,12.74673 v 84.51373 c 0,9.95581 -8.07074,18.02661 -18.02655,18.02661 h -72.10428 c -9.95584,0 -18.02661,-8.0708 -18.02661,-18.02661 z"
     fill-rule="evenodd"
     id="path29" />
  <path
     fill="#000000"
     d="m 386.89673,197.31446 q 1.0625,0 1.8125,0.3125 0.75,0.29687 1.45313,0.92187 l -0.79688,0.89063 q -0.59375,-0.48438 -1.17187,-0.70313 -0.57813,-0.21875 -1.23438,-0.21875 -0.82812,0 -1.375,0.39063 -0.53125,0.375 -0.53125,1.10937 0,0.45313 0.1875,0.78125 0.1875,0.3125 0.67188,0.57813 0.5,0.25 1.45312,0.54687 1,0.29688 1.65625,0.65625 0.65625,0.34375 1.0625,0.96875 0.40625,0.625 0.40625,1.57813 0,0.92187 -0.45312,1.625 -0.4375,0.70312 -1.29688,1.10937 -0.84375,0.39063 -2.01562,0.39063 -2.1875,0 -3.57813,-1.375 l 0.79688,-0.875 q 0.64062,0.51562 1.29687,0.78125 0.65625,0.26562 1.46875,0.26562 0.98438,0 1.625,-0.48437 0.64063,-0.48438 0.64063,-1.39063 0,-0.53125 -0.20313,-0.875 -0.1875,-0.34375 -0.67187,-0.60937 -0.48438,-0.28125 -1.40625,-0.5625 -1.625,-0.48438 -2.375,-1.17188 -0.75,-0.70312 -0.75,-1.875 0,-0.79687 0.42187,-1.42187 0.42188,-0.64063 1.17188,-0.98438 0.76562,-0.35937 1.73437,-0.35937 z m 8.61945,2.48437 q 0.71875,0 1.3125,0.21875 0.59375,0.20313 1.14062,0.65625 l -0.67187,0.89063 q -0.42188,-0.3125 -0.82813,-0.45313 -0.40625,-0.14062 -0.90625,-0.14062 -0.96875,0 -1.51562,0.78125 -0.54688,0.78125 -0.54688,2.3125 0,1.53125 0.53125,2.26562 0.54688,0.71875 1.53125,0.71875 0.48438,0 0.875,-0.14062 0.40625,-0.14063 0.89063,-0.46875 l 0.64062,0.92187 q -1.09375,0.89063 -2.45312,0.89063 -1.64063,0 -2.59375,-1.09375 -0.9375,-1.10938 -0.9375,-3.0625 0,-1.28125 0.42187,-2.25 0.4375,-0.96875 1.21875,-1.5 0.79688,-0.54688 1.89063,-0.54688 z m 9.65789,6.375 q 0,0.5 0.17188,0.73438 0.17187,0.23437 0.51562,0.35937 l -0.32812,0.98438 q -0.625,-0.0781 -1.01563,-0.34375 -0.375,-0.28125 -0.5625,-0.875 -0.8125,1.21875 -2.40625,1.21875 -1.20312,0 -1.89062,-0.67188 -0.6875,-0.6875 -0.6875,-1.76562 0,-1.29688 0.92187,-1.98438 0.9375,-0.6875 2.64063,-0.6875 h 1.23437 v -0.59375 q 0,-0.85937 -0.42187,-1.21875 -0.40625,-0.375 -1.26563,-0.375 -0.89062,0 -2.17187,0.42188 l -0.35938,-1.01563 q 1.51563,-0.5625 2.79688,-0.5625 1.42187,0 2.125,0.70313 0.70312,0.70312 0.70312,1.98437 z m -3.29687,1.01563 q 1.20312,0 1.89062,-1.25 v -1.85938 h -1.04687 q -2.25,0 -2.25,1.65625 0,0.71875 0.34375,1.09375 0.35937,0.35938 1.0625,0.35938 z m 7.65399,1.0625 q -0.78125,0 -1.23437,-0.46875 -0.45313,-0.46875 -0.45313,-1.3125 v -9.73438 l 1.42188,-0.17187 v 9.875 q 0,0.34375 0.10937,0.5 0.10938,0.14062 0.39063,0.14062 0.29687,0 0.51562,-0.0937 l 0.375,0.98438 q -0.51562,0.28125 -1.125,0.28125 z m 4.28803,-8.26563 v 8.07813 h -1.40625 v -8.07813 z m -0.70313,-3.875 q 0.4375,0 0.71875,0.28125 0.28125,0.26563 0.28125,0.6875 0,0.40625 -0.28125,0.67188 -0.28125,0.26562 -0.71875,0.26562 -0.4375,0 -0.71875,-0.26562 -0.26562,-0.26563 -0.26562,-0.67188 0,-0.42187 0.26562,-0.6875 0.28125,-0.28125 0.71875,-0.28125 z m 7.41626,3.6875 q 1.10938,0 1.73438,0.67188 0.625,0.65625 0.625,1.79687 v 5.79688 h -1.42188 v -5.59375 q 0,-0.85938 -0.32812,-1.20313 -0.3125,-0.35937 -0.9375,-0.35937 -0.64063,0 -1.14063,0.375 -0.48437,0.35937 -0.92187,1.04687 v 5.73438 h -1.40625 v -8.07813 h 1.21875 l 0.125,1.20313 q 0.42187,-0.65625 1.04687,-1.01563 0.64063,-0.375 1.40625,-0.375 z m 11.70105,0.5625 q -0.45312,0.14063 -1.01562,0.1875 -0.54688,0.0469 -1.34375,0.0469 1.42187,0.64062 1.42187,2.04687 0,1.20313 -0.82812,1.96875 -0.82813,0.76563 -2.25,0.76563 -0.54688,0 -1.03125,-0.14063 -0.17188,0.10938 -0.28125,0.32813 -0.10938,0.20312 -0.10938,0.42187 0,0.65625 1.0625,0.65625 h 1.28125 q 0.8125,0 1.4375,0.29688 0.625,0.28125 0.96875,0.79687 0.35938,0.5 0.35938,1.14063 0,1.1875 -0.96875,1.8125 -0.96875,0.64062 -2.82813,0.64062 -1.29687,0 -2.0625,-0.26562 -0.75,-0.26563 -1.07812,-0.8125 -0.3125,-0.53125 -0.3125,-1.375 h 1.26562 q 0,0.48437 0.17188,0.76562 0.1875,0.29688 0.65625,0.4375 0.48437,0.14063 1.35937,0.14063 1.28125,0 1.8125,-0.3125 0.54688,-0.3125 0.54688,-0.9375 0,-0.5625 -0.4375,-0.85938 -0.42188,-0.29687 -1.1875,-0.29687 h -1.26563 q -1.03125,0 -1.5625,-0.4375 -0.53125,-0.4375 -0.53125,-1.09375 0,-0.39063 0.23438,-0.75 0.23437,-0.375 0.65625,-0.67188 -0.70313,-0.375 -1.03125,-0.90625 -0.32813,-0.54687 -0.32813,-1.32812 0,-0.8125 0.40625,-1.45313 0.40625,-0.65625 1.10938,-1.01562 0.71875,-0.35938 1.59375,-0.35938 0.95312,0.0156 1.59375,-0.0625 0.64062,-0.0937 1.0625,-0.23437 0.42187,-0.14063 1.04687,-0.42188 z m -4.10937,0.45313 q -0.79688,0 -1.23438,0.5 -0.4375,0.5 -0.4375,1.3125 0,0.82812 0.4375,1.32812 0.45313,0.48438 1.26563,0.48438 0.82812,0 1.26562,-0.46875 0.4375,-0.48438 0.4375,-1.35938 0,-1.79687 -1.73437,-1.79687 z"
     fill-rule="nonzero"
     id="path31" />
  <path
     fill="#eeeeee"
     d="m 359.16498,239.31052 v 0 c 0,-6.21298 5.03662,-11.24957 11.24957,-11.24957 h 74.16229 c 2.98358,0 5.84491,1.18521 7.95465,3.29492 2.10968,2.10971 3.29493,4.97107 3.29493,7.95465 v 44.99692 c 0,6.21298 -5.03663,11.24957 -11.24958,11.24957 h -74.16229 c -6.21295,0 -11.24957,-5.03659 -11.24957,-11.24957 z"
     fill-rule="evenodd"
     id="path33" />
  <path
     stroke="#595959"
     stroke-width="1"
     stroke-linejoin="round"
     stroke-linecap="butt"
     d="m 359.16498,239.31052 v 0 c 0,-6.21298 5.03662,-11.24957 11.24957,-11.24957 h 74.16229 c 2.98358,0 5.84491,1.18521 7.95465,3.29492 2.10968,2.10971 3.29493,4.97107 3.29493,7.95465 v 44.99692 c 0,6.21298 -5.03663,11.24957 -11.24958,11.24957 h -74.16229 c -6.21295,0 -11.24957,-5.03659 -11.24957,-11.24957 z"
     fill-rule="evenodd"
     id="path35" />
  <path
     fill="#000000"
     d="m 383.0467,254.99771 1.375,-0.10937 q 0.0937,0.8125 0.4375,1.34375 0.35937,0.53125 1.10937,0.85937 0.75,0.32813 1.6875,0.32813 0.82813,0 1.46875,-0.25 0.64063,-0.25 0.9375,-0.67188 0.3125,-0.4375 0.3125,-0.95312 0,-0.51563 -0.29687,-0.89063 -0.29688,-0.39062 -0.98438,-0.65625 -0.4375,-0.17187 -1.95312,-0.53125 -1.51563,-0.35937 -2.10938,-0.6875 -0.79687,-0.40625 -1.1875,-1.01562 -0.375,-0.60938 -0.375,-1.375 0,-0.82813 0.46875,-1.54688 0.46875,-0.71875 1.375,-1.09375 0.90625,-0.375 2.01563,-0.375 1.21875,0 2.14062,0.39063 0.9375,0.39062 1.4375,1.15625 0.51563,0.76562 0.54688,1.73437 l -1.39063,0.0937 q -0.10937,-1.03125 -0.76562,-1.5625 -0.64063,-0.53125 -1.90625,-0.53125 -1.3125,0 -1.92188,0.48438 -0.60937,0.48437 -0.60937,1.15625 0,0.59375 0.4375,0.96875 0.42187,0.39062 2.1875,0.79687 1.76562,0.39063 2.42187,0.6875 0.96875,0.4375 1.42188,1.125 0.45312,0.67188 0.45312,1.5625 0,0.875 -0.5,1.65625 -0.5,0.76563 -1.4375,1.20313 -0.9375,0.42187 -2.125,0.42187 -1.48437,0 -2.5,-0.4375 -1,-0.4375 -1.57812,-1.29687 -0.5625,-0.875 -0.59375,-1.98438 z m 15.73938,0.625 1.3125,0.17188 q -0.20313,1.35937 -1.10938,2.14062 -0.89062,0.76563 -2.1875,0.76563 -1.64062,0 -2.64062,-1.0625 -0.98438,-1.0625 -0.98438,-3.04688 0,-1.29687 0.42188,-2.25 0.4375,-0.96875 1.3125,-1.45312 0.875,-0.48438 1.89062,-0.48438 1.29688,0 2.10938,0.65625 0.82812,0.65625 1.0625,1.85938 l -1.3125,0.20312 q -0.1875,-0.8125 -0.65625,-1.20312 -0.46875,-0.40625 -1.14063,-0.40625 -1.03125,0 -1.67187,0.73437 -0.625,0.71875 -0.625,2.29688 0,1.60937 0.60937,2.34375 0.60938,0.71875 1.60938,0.71875 0.78125,0 1.3125,-0.48438 0.54687,-0.5 0.6875,-1.5 z m 7.66406,1.92188 q -0.75,0.64062 -1.45312,0.90625 -0.6875,0.25 -1.48438,0.25 -1.3125,0 -2.01562,-0.625 -0.70313,-0.64063 -0.70313,-1.64063 0,-0.57812 0.26563,-1.0625 0.26562,-0.48437 0.70312,-0.78125 0.4375,-0.29687 0.96875,-0.4375 0.39063,-0.10937 1.20313,-0.20312 1.625,-0.20313 2.39062,-0.46875 0.0156,-0.28125 0.0156,-0.34375 0,-0.82813 -0.39063,-1.17188 -0.51562,-0.45312 -1.53125,-0.45312 -0.95312,0 -1.40625,0.34375 -0.45312,0.32812 -0.65625,1.17187 l -1.32812,-0.1875 q 0.1875,-0.84375 0.59375,-1.35937 0.40625,-0.51563 1.1875,-0.79688 0.78125,-0.28125 1.8125,-0.28125 1.01562,0 1.64062,0.23438 0.64063,0.23437 0.9375,0.60937 0.3125,0.35938 0.42188,0.90625 0.0781,0.34375 0.0781,1.25 v 1.79688 q 0,1.875 0.0781,2.375 0.0937,0.5 0.34375,0.95312 h -1.40625 q -0.21875,-0.42187 -0.26563,-0.98437 z m -0.125,-3 q -0.73437,0.29687 -2.1875,0.5 -0.84375,0.125 -1.1875,0.28125 -0.34375,0.14062 -0.53125,0.4375 -0.1875,0.28125 -0.1875,0.625 0,0.54687 0.40625,0.90625 0.42188,0.35937 1.20313,0.35937 0.78125,0 1.375,-0.34375 0.60937,-0.34375 0.90625,-0.92187 0.20312,-0.46875 0.20312,-1.35938 z m 3.43103,3.98437 v -10.96875 h 1.34375 v 10.96875 z m 3.43665,-9.42187 v -1.54688 h 1.34375 v 1.54688 z m 0,9.42187 v -7.95312 h 1.34375 v 7.95312 z m 3.40545,0 v -7.95312 h 1.20313 v 1.14062 q 0.875,-1.3125 2.53125,-1.3125 0.71875,0 1.3125,0.26563 0.60937,0.25 0.90625,0.67187 0.3125,0.42188 0.42187,0.98438 0.0781,0.375 0.0781,1.3125 v 4.89062 h -1.34375 v -4.82812 q 0,-0.82813 -0.15625,-1.23438 -0.15625,-0.40625 -0.5625,-0.64062 -0.40625,-0.25 -0.9375,-0.25 -0.85938,0 -1.48438,0.54687 -0.625,0.53125 -0.625,2.0625 v 4.34375 z m 8.27478,0.65625 1.3125,0.20313 q 0.0781,0.59375 0.45313,0.875 0.5,0.375 1.375,0.375 0.92187,0 1.4375,-0.375 0.51562,-0.375 0.6875,-1.04688 0.10937,-0.40625 0.0937,-1.73437 -0.875,1.04687 -2.20313,1.04687 -1.625,0 -2.53125,-1.17187 -0.89062,-1.1875 -0.89062,-2.84375 0,-1.14063 0.40625,-2.09375 0.40625,-0.96875 1.1875,-1.48438 0.78125,-0.53125 1.84375,-0.53125 1.40625,0 2.3125,1.14063 v -0.96875 h 1.25 v 6.875 q 0,1.85937 -0.375,2.625 -0.375,0.78125 -1.20313,1.21875 -0.8125,0.45312 -2.01562,0.45312 -1.42188,0 -2.29688,-0.64062 -0.875,-0.625 -0.84375,-1.92188 z m 1.10938,-4.76562 q 0,1.5625 0.625,2.28125 0.625,0.71875 1.5625,0.71875 0.92187,0 1.54687,-0.71875 0.625,-0.71875 0.625,-2.25 0,-1.45313 -0.64062,-2.1875 -0.64063,-0.75 -1.5625,-0.75 -0.89063,0 -1.53125,0.73437 -0.625,0.73438 -0.625,2.17188 z"
     fill-rule="nonzero"
     id="path37" />
  <path
     fill="#000000"
     d="m 383.1938,276.52896 v -10.96875 h 7.40625 v 1.29688 h -5.95313 v 3.39062 h 5.15625 v 1.29688 h -5.15625 v 4.98437 z m 14.31616,-0.98437 q -0.75,0.64062 -1.45312,0.90625 -0.6875,0.25 -1.48438,0.25 -1.3125,0 -2.01562,-0.625 -0.70313,-0.64063 -0.70313,-1.64063 0,-0.57812 0.26563,-1.0625 0.26562,-0.48437 0.70312,-0.78125 0.4375,-0.29687 0.96875,-0.4375 0.39063,-0.10937 1.20313,-0.20312 1.625,-0.20313 2.39062,-0.46875 0.0156,-0.28125 0.0156,-0.34375 0,-0.82813 -0.39063,-1.17188 -0.51562,-0.45312 -1.53125,-0.45312 -0.95312,0 -1.40625,0.34375 -0.45312,0.32812 -0.65625,1.17187 l -1.32812,-0.1875 q 0.1875,-0.84375 0.59375,-1.35937 0.40625,-0.51563 1.1875,-0.79688 0.78125,-0.28125 1.8125,-0.28125 1.01562,0 1.64062,0.23438 0.64063,0.23437 0.9375,0.60937 0.3125,0.35938 0.42188,0.90625 0.0781,0.34375 0.0781,1.25 v 1.79688 q 0,1.875 0.0781,2.375 0.0937,0.5 0.34375,0.95312 h -1.40625 q -0.21875,-0.42187 -0.26563,-0.98437 z m -0.125,-3 q -0.73437,0.29687 -2.1875,0.5 -0.84375,0.125 -1.1875,0.28125 -0.34375,0.14062 -0.53125,0.4375 -0.1875,0.28125 -0.1875,0.625 0,0.54687 0.40625,0.90625 0.42188,0.35937 1.20313,0.35937 0.78125,0 1.375,-0.34375 0.60937,-0.34375 0.90625,-0.92187 0.20312,-0.46875 0.20312,-1.35938 z m 8.64978,1.07812 1.3125,0.17188 q -0.20312,1.35937 -1.10937,2.14062 -0.89063,0.76563 -2.1875,0.76563 -1.64063,0 -2.64063,-1.0625 -0.98437,-1.0625 -0.98437,-3.04688 0,-1.29687 0.42187,-2.25 0.4375,-0.96875 1.3125,-1.45312 0.875,-0.48438 1.89063,-0.48438 1.29687,0 2.10937,0.65625 0.82813,0.65625 1.0625,1.85938 l -1.3125,0.20312 q -0.1875,-0.8125 -0.65625,-1.20312 -0.46875,-0.40625 -1.14062,-0.40625 -1.03125,0 -1.67188,0.73437 -0.625,0.71875 -0.625,2.29688 0,1.60937 0.60938,2.34375 0.60937,0.71875 1.60937,0.71875 0.78125,0 1.3125,-0.48438 0.54688,-0.5 0.6875,-1.5 z m 5.41406,1.70313 0.1875,1.1875 q -0.5625,0.125 -1.01562,0.125 -0.73438,0 -1.14063,-0.23438 -0.39062,-0.23437 -0.5625,-0.60937 -0.17187,-0.375 -0.17187,-1.59375 v -4.57813 h -0.98438 v -1.04687 h 0.98438 v -1.96875 l 1.34375,-0.79688 v 2.76563 h 1.35937 v 1.04687 h -1.35937 v 4.65625 q 0,0.57813 0.0625,0.75 0.0781,0.15625 0.23437,0.25 0.17188,0.0937 0.46875,0.0937 0.21875,0 0.59375,-0.0469 z m 0.82117,-2.76563 q 0,-2.21875 1.21875,-3.28125 1.03125,-0.875 2.5,-0.875 1.64063,0 2.67188,1.07813 1.04687,1.0625 1.04687,2.95312 0,1.54688 -0.46875,2.42188 -0.45312,0.875 -1.32812,1.35937 -0.875,0.48438 -1.92188,0.48438 -1.67187,0 -2.70312,-1.0625 -1.01563,-1.0625 -1.01563,-3.07813 z m 1.375,0 q 0,1.51563 0.65625,2.28125 0.67188,0.76563 1.6875,0.76563 1,0 1.67188,-0.76563 0.67187,-0.76562 0.67187,-2.32812 0,-1.48438 -0.67187,-2.23438 -0.67188,-0.76562 -1.67188,-0.76562 -1.01562,0 -1.6875,0.76562 -0.65625,0.75 -0.65625,2.28125 z m 7.63416,3.96875 v -7.95312 h 1.20312 v 1.20312 q 0.46875,-0.84375 0.85938,-1.10937 0.39062,-0.26563 0.85937,-0.26563 0.6875,0 1.39063,0.4375 l -0.46875,1.25 q -0.48438,-0.29687 -0.98438,-0.29687 -0.4375,0 -0.79687,0.26562 -0.34375,0.26563 -0.5,0.73438 -0.21875,0.71875 -0.21875,1.57812 v 4.15625 z m 4.57312,-2.375 1.32812,-0.20312 q 0.125,0.79687 0.625,1.23437 0.51563,0.42188 1.4375,0.42188 0.9375,0 1.375,-0.375 0.45313,-0.39063 0.45313,-0.89063 0,-0.46875 -0.39063,-0.71875 -0.28125,-0.1875 -1.375,-0.46875 -1.48437,-0.375 -2.0625,-0.64062 -0.57812,-0.26563 -0.875,-0.75 -0.28125,-0.48438 -0.28125,-1.07813 0,-0.53125 0.23438,-0.98437 0.25,-0.45313 0.67187,-0.75 0.3125,-0.23438 0.84375,-0.39063 0.54688,-0.15625 1.17188,-0.15625 0.9375,0 1.64062,0.26563 0.70313,0.26562 1.03125,0.73437 0.34375,0.45313 0.46875,1.23438 l -1.3125,0.17187 q -0.0937,-0.60937 -0.53125,-0.95312 -0.42187,-0.34375 -1.20312,-0.34375 -0.92188,0 -1.32813,0.3125 -0.39062,0.29687 -0.39062,0.70312 0,0.26563 0.15625,0.46875 0.17187,0.21875 0.51562,0.35938 0.20313,0.0781 1.20313,0.35937 1.42187,0.375 1.98437,0.625 0.5625,0.23438 0.89063,0.70313 0.32812,0.45312 0.32812,1.15625 0,0.67187 -0.40625,1.26562 -0.39062,0.59375 -1.125,0.92188 -0.73437,0.3125 -1.67187,0.3125 -1.5625,0 -2.375,-0.64063 -0.79688,-0.64062 -1.03125,-1.90625 z"
     fill-rule="nonzero"
     id="path39" />
  <path
     fill="#9fc5e8"
     d="m 486.38416,48.20529 h 40.01575 v -6.27557 l 12.55114,12.55117 -12.55114,12.55118 v -6.2756 h -40.01575 z"
     fill-rule="evenodd"
     id="path41" />
  <path
     stroke="#595959"
     stroke-width="1"
     stroke-linejoin="round"
     stroke-linecap="butt"
     d="m 486.38416,48.20529 h 40.01575 v -6.27557 l 12.55114,12.55117 -12.55114,12.55118 v -6.2756 h -40.01575 z"
     fill-rule="evenodd"
     id="path43" />
  <path
     fill="#6d9eeb"
     d="m 167.0495,1 h 96.66141 V 103.96063 H 167.0495 Z"
     fill-rule="evenodd"
     id="path45" />
  <path
     stroke="#000000"
     stroke-width="2"
     stroke-linejoin="round"
     stroke-linecap="butt"
     d="m 167.0495,1 h 96.66141 V 103.96063 H 167.0495 Z"
     fill-rule="evenodd"
     id="path47" />
  <path
     fill="#000000"
     d="m 190.89796,35.54092 -0.1875,1.51562 h -3.5625 v 11.34375 h -1.76563 V 37.05654 h -3.65625 v -1.51562 z m 5.67902,2.79687 q 0.51562,0 0.96875,0.125 l -0.3125,1.67188 q -0.45313,-0.10938 -0.85938,-0.10938 -0.92187,0 -1.48437,0.67188 -0.54688,0.67187 -0.875,2.09375 v 5.60937 h -1.71875 v -9.82812 h 1.48437 l 0.17188,2 q 0.39062,-1.10938 1.0625,-1.67188 0.67187,-0.5625 1.5625,-0.5625 z m 8.89172,7.76563 q 0,0.59375 0.20312,0.89062 0.21875,0.28125 0.625,0.4375 l -0.39062,1.1875 q -0.76563,-0.0937 -1.23438,-0.42187 -0.46875,-0.34375 -0.6875,-1.04688 -1,1.46875 -2.9375,1.46875 -1.45312,0 -2.29687,-0.8125 -0.82813,-0.82812 -0.82813,-2.15625 0,-1.5625 1.125,-2.39062 1.125,-0.84375 3.20313,-0.84375 h 1.5 v -0.73438 q 0,-1.04687 -0.5,-1.48437 -0.5,-0.45313 -1.54688,-0.45313 -1.07812,0 -2.64062,0.51563 l -0.4375,-1.25 q 1.82812,-0.67188 3.39062,-0.67188 1.73438,0 2.59375,0.85938 0.85938,0.84375 0.85938,2.40625 z m -4.03125,1.23437 q 1.48437,0 2.3125,-1.53125 v -2.25 h -1.28125 q -2.71875,0 -2.71875,2.01563 0,0.875 0.42187,1.32812 0.4375,0.4375 1.26563,0.4375 z m 9.27402,-8.76562 v 9.82812 h -1.71875 v -9.82812 z m -0.85938,-4.71873 q 0.53125,0 0.85938,0.34375 0.34375,0.32812 0.34375,0.82811 0,0.5 -0.34375,0.82812 -0.32813,0.32813 -0.85938,0.32813 -0.53125,0 -0.875,-0.32813 -0.32812,-0.32812 -0.32812,-0.82812 0,-0.49999 0.32812,-0.82811 0.34375,-0.34375 0.875,-0.34375 z m 9.0423,4.48435 q 1.34375,0 2.09375,0.8125 0.75,0.79688 0.75,2.20313 v 7.04687 h -1.71875 v -6.8125 q 0,-1.04687 -0.39063,-1.46875 -0.39062,-0.4375 -1.15625,-0.4375 -0.78125,0 -1.375,0.45313 -0.59375,0.45312 -1.125,1.28125 v 6.98437 h -1.71875 v -9.82812 h 1.48438 l 0.14062,1.45312 q 0.53125,-0.78125 1.29688,-1.23437 0.78125,-0.45313 1.71875,-0.45313 z m 8.01071,0.23438 v 9.82812 h -1.71875 v -9.82812 z m -0.85937,-4.71873 q 0.53125,0 0.85937,0.34375 0.34375,0.32812 0.34375,0.82811 0,0.5 -0.34375,0.82812 -0.32812,0.32813 -0.85937,0.32813 -0.53125,0 -0.875,-0.32813 -0.32813,-0.32812 -0.32813,-0.82812 0,-0.49999 0.32813,-0.82811 0.34375,-0.34375 0.875,-0.34375 z m 9.04229,4.48435 q 1.34375,0 2.09375,0.8125 0.75,0.79688 0.75,2.20313 v 7.04687 h -1.71875 v -6.8125 q 0,-1.04687 -0.39062,-1.46875 -0.39063,-0.4375 -1.15625,-0.4375 -0.78125,0 -1.375,0.45313 -0.59375,0.45312 -1.125,1.28125 v 6.98437 h -1.71875 v -9.82812 h 1.48437 l 0.14063,1.45312 q 0.53125,-0.78125 1.29687,-1.23437 0.78125,-0.45313 1.71875,-0.45313 z m 14.22947,0.67188 q -0.5625,0.1875 -1.23438,0.25 -0.67187,0.0625 -1.64062,0.0625 1.73437,0.78125 1.73437,2.46875 0,1.48437 -1.01562,2.42187 -1,0.92188 -2.73438,0.92188 -0.67187,0 -1.25,-0.1875 -0.21875,0.15625 -0.35937,0.40625 -0.125,0.25 -0.125,0.51562 0,0.79688 1.28125,0.79688 h 1.57812 q 0.98438,0 1.75,0.35937 0.76563,0.34375 1.1875,0.96875 0.42188,0.60938 0.42188,1.39063 0,1.4375 -1.1875,2.20312 -1.17188,0.78125 -3.42188,0.78125 -1.59375,0 -2.51562,-0.32812 -0.92188,-0.3125 -1.3125,-0.96875 -0.39063,-0.65625 -0.39063,-1.6875 h 1.54688 q 0,0.59375 0.21875,0.9375 0.23437,0.35937 0.8125,0.53125 0.57812,0.17187 1.64062,0.17187 1.54688,0 2.20313,-0.39062 0.67187,-0.375 0.67187,-1.14063 0,-0.6875 -0.53125,-1.04687 -0.51562,-0.34375 -1.45312,-0.34375 h -1.54688 q -1.25,0 -1.89062,-0.53125 -0.64063,-0.53125 -0.64063,-1.34375 0,-0.48438 0.26563,-0.92188 0.28125,-0.45312 0.8125,-0.8125 -0.85938,-0.4375 -1.26563,-1.09375 -0.39062,-0.67187 -0.39062,-1.625 0,-0.98437 0.48437,-1.76562 0.5,-0.78125 1.35938,-1.21875 0.875,-0.45313 1.9375,-0.45313 1.15625,0.0312 1.9375,-0.0781 0.78125,-0.10938 1.29687,-0.28125 0.51563,-0.17188 1.26563,-0.51563 z m -5,0.5625 q -0.96875,0 -1.5,0.60937 -0.53125,0.60938 -0.53125,1.59375 0,1.01563 0.53125,1.625 0.54687,0.59375 1.53125,0.59375 1.01562,0 1.54687,-0.57812 0.53125,-0.59375 0.53125,-1.65625 0,-2.1875 -2.10937,-2.1875 z"
     fill-rule="nonzero"
     id="path49" />
  <path
     fill="#000000"
     d="m 200.562,57.54092 q 2.92187,0 4.67187,1.35937 1.76563,1.34375 1.76563,5 0,3.57813 -1.76563,5.04688 -1.75,1.45312 -4.28125,1.45312 H 197.8745 V 57.54092 Z m -0.90625,1.42187 v 10.03125 h 1.4375 q 1.78125,0 2.90625,-1.09375 1.125,-1.09375 1.125,-4 0,-2.03125 -0.57813,-3.10937 -0.57812,-1.09375 -1.48437,-1.45313 -0.89063,-0.375 -2.10938,-0.375 z m 16.57797,9.14063 q 0,0.59375 0.20313,0.89062 0.21875,0.28125 0.625,0.4375 l -0.39063,1.1875 q -0.76562,-0.0937 -1.23437,-0.42187 -0.46875,-0.34375 -0.6875,-1.04688 -1,1.46875 -2.9375,1.46875 -1.45313,0 -2.29688,-0.8125 -0.82812,-0.82812 -0.82812,-2.15625 0,-1.5625 1.125,-2.39062 1.125,-0.84375 3.20312,-0.84375 h 1.5 v -0.73438 q 0,-1.04687 -0.5,-1.48437 -0.5,-0.45313 -1.54687,-0.45313 -1.07813,0 -2.64063,0.51563 l -0.4375,-1.25 q 1.82813,-0.67188 3.39063,-0.67188 1.73437,0 2.59375,0.85938 0.85937,0.84375 0.85937,2.40625 z m -4.03125,1.23437 q 1.48438,0 2.3125,-1.53125 v -2.25 h -1.28125 q -2.71875,0 -2.71875,2.01563 0,0.875 0.42188,1.32812 0.4375,0.4375 1.26562,0.4375 z m 12.52399,0.60938 q -0.96875,0.67187 -2.20313,0.67187 -1.25,0 -1.95312,-0.71875 -0.6875,-0.71875 -0.6875,-2.07812 v -5.92188 h -1.71875 v -1.32812 h 1.71875 v -2.21875 l 1.70312,-0.20313 v 2.42188 h 2.34375 l -0.1875,1.32812 h -2.15625 v 5.84375 q 0,0.76563 0.26563,1.125 0.28125,0.34375 0.92187,0.34375 0.57813,0 1.29688,-0.39062 z m 8.2605,-1.84375 q 0,0.59375 0.20312,0.89062 0.21875,0.28125 0.625,0.4375 l -0.39062,1.1875 q -0.76563,-0.0937 -1.23438,-0.42187 -0.46875,-0.34375 -0.6875,-1.04688 -1,1.46875 -2.9375,1.46875 -1.45312,0 -2.29687,-0.8125 -0.82813,-0.82812 -0.82813,-2.15625 0,-1.5625 1.125,-2.39062 1.125,-0.84375 3.20313,-0.84375 h 1.5 v -0.73438 q 0,-1.04687 -0.5,-1.48437 -0.5,-0.45313 -1.54688,-0.45313 -1.07812,0 -2.64062,0.51563 l -0.4375,-1.25 q 1.82812,-0.67188 3.39062,-0.67188 1.73438,0 2.59375,0.85938 0.85938,0.84375 0.85938,2.40625 z m -4.03125,1.23437 q 1.48437,0 2.3125,-1.53125 v -2.25 h -1.28125 q -2.71875,0 -2.71875,2.01563 0,0.875 0.42187,1.32812 0.4375,0.4375 1.26563,0.4375 z"
     fill-rule="nonzero"
     id="path51" />
  <path
     fill="#6d9eeb"
     d="m 549.0495,1 h 96.66144 V 103.96063 H 549.0495 Z"
     fill-rule="evenodd"
     id="path53" />
  <path
     stroke="#000000"
     stroke-width="2"
     stroke-linejoin="round"
     stroke-linecap="butt"
     d="m 549.0495,1 h 96.66144 V 103.96063 H 549.0495 Z"
     fill-rule="evenodd"
     id="path55" />
  <path
     fill="#000000"
     d="m 559.6495,37.80906 -0.15625,1.29688 h -3.0625 v 9.73437 h -1.51563 v -9.73437 h -3.14062 v -1.29688 z m 4.87018,2.40625 q 0.4375,0 0.82812,0.0937 l -0.26562,1.4375 q -0.39063,-0.0937 -0.73438,-0.0937 -0.79687,0 -1.28125,0.57813 -0.46875,0.57812 -0.75,1.79687 v 4.8125 h -1.46875 v -8.4375 h 1.26563 l 0.14062,1.71875 q 0.34375,-0.9375 0.92188,-1.42187 0.57812,-0.48438 1.34375,-0.48438 z m 7.63159,6.65625 q 0,0.51563 0.17187,0.76563 0.17188,0.25 0.53125,0.375 l -0.34375,1.01562 q -0.65625,-0.0781 -1.0625,-0.35937 -0.39062,-0.29688 -0.57812,-0.90625 -0.84375,1.26562 -2.51563,1.26562 -1.25,0 -1.96875,-0.70312 -0.71875,-0.70313 -0.71875,-1.84375 0,-1.34375 0.96875,-2.0625 0.96875,-0.71875 2.75,-0.71875 h 1.29688 v -0.625 q 0,-0.89063 -0.4375,-1.26563 -0.4375,-0.39062 -1.32813,-0.39062 -0.92187,0 -2.26562,0.45312 l -0.375,-1.07812 q 1.5625,-0.57813 2.90625,-0.57813 1.5,0 2.23437,0.73438 0.73438,0.71875 0.73438,2.0625 z m -3.45313,1.0625 q 1.26563,0 1.98438,-1.3125 v -1.9375 h -1.10938 q -2.34375,0 -2.34375,1.71875 0,0.75 0.375,1.14063 0.375,0.39062 1.09375,0.39062 z m 10.43842,-7.71875 q 1.15625,0 1.79688,0.6875 0.65625,0.6875 0.65625,1.89063 v 6.04687 h -1.46875 v -5.84375 q 0,-0.89062 -0.34375,-1.25 -0.32813,-0.375 -0.98438,-0.375 -0.67187,0 -1.1875,0.39063 -0.51562,0.375 -0.96875,1.09375 v 5.98437 h -1.46875 v -8.4375 h 1.26563 l 0.125,1.25 q 0.45312,-0.67187 1.10937,-1.04687 0.67188,-0.39063 1.46875,-0.39063 z m 7.70416,0 q 0.85938,0 1.54688,0.25 0.6875,0.23438 1.3125,0.71875 l -0.625,0.92188 q -0.57813,-0.375 -1.09375,-0.54688 -0.51563,-0.17187 -1.09375,-0.17187 -0.71875,0 -1.14063,0.29687 -0.42187,0.29688 -0.42187,0.79688 0,0.51562 0.39062,0.8125 0.40625,0.28125 1.42188,0.5625 1.40625,0.34375 2.09375,0.95312 0.70312,0.60938 0.70312,1.65625 0,1.25 -0.96875,1.90625 -0.96875,0.65625 -2.35937,0.65625 -1.92188,0 -3.17188,-1.09375 l 0.78125,-0.90625 q 1.0625,0.82813 2.35938,0.82813 0.84375,0 1.32812,-0.34375 0.48438,-0.35938 0.48438,-0.9375 0,-0.4375 -0.17188,-0.70313 -0.17187,-0.26562 -0.60937,-0.45312 -0.4375,-0.20313 -1.26563,-0.4375 -1.34375,-0.34375 -1.95312,-0.9375 -0.59375,-0.59375 -0.59375,-1.5 0,-0.65625 0.39062,-1.1875 0.39063,-0.54688 1.07813,-0.84375 0.70312,-0.29688 1.57812,-0.29688 z m 8.05011,-2.1875 q -0.67187,0 -0.96875,0.29688 -0.28125,0.29687 -0.28125,0.92187 v 1.15625 h 2.04688 l -0.15625,1.14063 h -1.89063 v 7.29687 h -1.48437 v -7.29687 h -1.5 v -1.14063 h 1.5 v -1.14062 q 0,-1.09375 0.70312,-1.75 0.70313,-0.67188 1.9375,-0.67188 0.57813,0 1.03125,0.10938 0.46875,0.0937 0.98438,0.32812 l -0.45313,1.0625 q -0.71875,-0.3125 -1.46875,-0.3125 z m 5.49689,2.1875 q 1.78125,0 2.76563,1.1875 0.98437,1.1875 0.98437,3.21875 0,1.3125 -0.45312,2.3125 -0.45313,1 -1.29688,1.54688 -0.84375,0.54687 -2.01562,0.54687 -1.78125,0 -2.78125,-1.17187 -0.98438,-1.1875 -0.98438,-3.21875 0,-1.3125 0.45313,-2.3125 0.45312,-1 1.29687,-1.54688 0.84375,-0.5625 2.03125,-0.5625 z m 0,1.1875 q -2.1875,0 -2.1875,3.23438 0,3.21875 2.17188,3.21875 2.17187,0 2.17187,-3.23438 0,-3.21875 -2.15625,-3.21875 z m 9.84406,-1.1875 q 0.4375,0 0.82812,0.0937 l -0.26562,1.4375 q -0.39063,-0.0937 -0.73438,-0.0937 -0.79687,0 -1.28125,0.57813 -0.46875,0.57812 -0.75,1.79687 v 4.8125 h -1.46875 v -8.4375 h 1.26563 l 0.14062,1.71875 q 0.34375,-0.9375 0.92188,-1.42187 0.57812,-0.48438 1.34375,-0.48438 z m 10.97283,0 q 1.04688,0 1.65625,0.70313 0.625,0.6875 0.625,1.875 v 6.04687 h -1.46875 v -5.84375 q 0,-1.625 -1.1875,-1.625 -0.625,0 -1.0625,0.35938 -0.42187,0.35937 -0.92187,1.125 v 5.98437 h -1.46875 v -5.84375 q 0,-1.625 -1.1875,-1.625 -0.625,0 -1.0625,0.375 -0.4375,0.35938 -0.92188,1.10938 v 5.98437 h -1.46868 v -8.4375 h 1.26556 l 0.125,1.23438 q 0.95312,-1.42188 2.4375,-1.42188 0.78125,0 1.32812,0.40625 0.5625,0.39063 0.79688,1.10938 0.5,-0.73438 1.09375,-1.125 0.60937,-0.39063 1.42187,-0.39063 z m 11.61829,4.15625 q 0,0.375 -0.0312,0.75 h -5.375 q 0.0937,1.40625 0.70313,2.0625 0.60937,0.64063 1.5625,0.64063 0.60937,0 1.125,-0.17188 0.51562,-0.17187 1.0625,-0.5625 l 0.64062,0.89063 q -1.34375,1.04687 -2.9375,1.04687 -1.76562,0 -2.75,-1.14062 -0.98437,-1.15625 -0.98437,-3.17188 0,-1.3125 0.42187,-2.32812 0.4375,-1.01563 1.21875,-1.59375 0.79688,-0.57813 1.875,-0.57813 1.67188,0 2.5625,1.10938 0.90625,1.09375 0.90625,3.04687 z m -1.45312,-0.42187 q 0,-1.25 -0.5,-1.90625 -0.5,-0.65625 -1.48438,-0.65625 -1.8125,0 -1.96875,2.65625 h 3.95313 z m 10.3294,-6.9375 v 11.82812 h -1.29687 l -0.14063,-1.17187 q -0.42187,0.64062 -1.04687,1 -0.625,0.35937 -1.39063,0.35937 -1.5,0 -2.34375,-1.17187 -0.84375,-1.1875 -0.84375,-3.1875 0,-1.29688 0.40625,-2.29688 0.40625,-1.01562 1.15625,-1.57812 0.75,-0.57813 1.75,-0.57813 1.29688,0 2.28125,1.04688 v -4.42188 z m -3.54687,10.85937 q 0.67187,0 1.14062,-0.3125 0.48438,-0.3125 0.9375,-0.9375 v -4.14062 q -0.42187,-0.53125 -0.89062,-0.8125 -0.46875,-0.28125 -1.0625,-0.28125 -0.98438,0 -1.51563,0.8125 -0.53125,0.8125 -0.53125,2.4375 0,1.625 0.48438,2.4375 0.5,0.79687 1.4375,0.79687 z"
     fill-rule="nonzero"
     id="path57" />
  <path
     fill="#000000"
     d="m 584.6784,56.80906 q 2.5,0 4,1.17188 1.51562,1.15625 1.51562,4.29687 0,3.04688 -1.51562,4.3125 -1.5,1.25 -3.67188,1.25 H 582.3659 V 56.80906 Z m -0.78125,1.21875 v 8.60938 h 1.23437 q 1.53125,0 2.48438,-0.9375 0.96875,-0.95313 0.96875,-3.42188 0,-1.75 -0.5,-2.6875 -0.5,-0.9375 -1.26563,-1.25 -0.76562,-0.3125 -1.8125,-0.3125 z m 14.22217,7.84375 q 0,0.51563 0.17187,0.76563 0.17188,0.25 0.53125,0.375 l -0.34375,1.01562 q -0.65625,-0.0781 -1.0625,-0.35937 -0.39062,-0.29688 -0.57812,-0.90625 -0.84375,1.26562 -2.51563,1.26562 -1.25,0 -1.96875,-0.70312 -0.71875,-0.70313 -0.71875,-1.84375 0,-1.34375 0.96875,-2.0625 0.96875,-0.71875 2.75,-0.71875 h 1.29688 v -0.625 q 0,-0.89063 -0.4375,-1.26563 -0.4375,-0.39062 -1.32813,-0.39062 -0.92187,0 -2.26562,0.45312 l -0.375,-1.07812 q 1.5625,-0.57813 2.90625,-0.57813 1.5,0 2.23437,0.73438 0.73438,0.71875 0.73438,2.0625 z m -3.45313,1.0625 q 1.26563,0 1.98438,-1.3125 v -1.9375 h -1.10938 q -2.34375,0 -2.34375,1.71875 0,0.75 0.375,1.14063 0.375,0.39062 1.09375,0.39062 z m 10.73523,0.51563 q -0.84375,0.57812 -1.89062,0.57812 -1.07813,0 -1.6875,-0.60937 -0.59375,-0.625 -0.59375,-1.78125 v -5.09375 h -1.46875 v -1.14063 h 1.46875 v -1.90625 l 1.48437,-0.17187 v 2.07812 h 2 l -0.17187,1.14063 h -1.82813 v 5.03125 q 0,0.65625 0.21875,0.95312 0.23438,0.28125 0.78125,0.28125 0.5,0 1.125,-0.32812 z m 7.08594,-1.57813 q 0,0.51563 0.17187,0.76563 0.17188,0.25 0.53125,0.375 l -0.34375,1.01562 q -0.65625,-0.0781 -1.0625,-0.35937 -0.39062,-0.29688 -0.57812,-0.90625 -0.84375,1.26562 -2.51563,1.26562 -1.25,0 -1.96875,-0.70312 -0.71875,-0.70313 -0.71875,-1.84375 0,-1.34375 0.96875,-2.0625 0.96875,-0.71875 2.75,-0.71875 h 1.29688 v -0.625 q 0,-0.89063 -0.4375,-1.26563 -0.4375,-0.39062 -1.32813,-0.39062 -0.92187,0 -2.26562,0.45312 l -0.375,-1.07812 q 1.5625,-0.57813 2.90625,-0.57813 1.5,0 2.23437,0.73438 0.73438,0.71875 0.73438,2.0625 z m -3.45313,1.0625 q 1.26563,0 1.98438,-1.3125 v -1.9375 h -1.10938 q -2.34375,0 -2.34375,1.71875 0,0.75 0.375,1.14063 0.375,0.39062 1.09375,0.39062 z"
     fill-rule="nonzero"
     id="path59" />
  <path
     fill="#000000"
     d="m 6.45313,26.6187 q 0.82812,0.0937 1.625,0.46875 0.1875,-0.10938 0.35937,-0.15625 0.17188,-0.0625 0.32813,-0.0625 0.54687,0 0.875,0.375 0.34375,0.35937 0.34375,1.23437 v 0.76563 q 0,0.875 -0.34375,1.25 -0.32813,0.35937 -0.85938,0.35937 -0.48437,0 -0.8125,-0.3125 -0.32812,-0.3125 -0.39062,-0.92187 -0.84375,-0.67188 -2.10938,-0.67188 -1.32812,0 -1.95312,0.48438 -0.60938,0.46875 -0.60938,1.03125 0,0.45312 0.375,0.79687 0.375,0.35938 1.57813,0.60938 l 1.59375,0.32812 Q 8.46875,32.6187 9.34375,33.4312 10.5,34.47807 10.5,36.18122 q 0,1.5 -1.0625,2.67187 -1.04687,1.17188 -2.98437,1.54688 v 2.03125 q 0,0.875 -0.34375,1.23437 -0.32813,0.375 -0.85938,0.375 -0.53125,0 -0.875,-0.375 -0.32812,-0.35937 -0.32812,-1.23437 v -2.03125 q -0.9375,-0.20313 -1.875,-0.625 -0.5,0.42187 -0.9375,0.42187 -0.57813,0 -0.90625,-0.35937 Q 0,39.46247 0,38.60309 v -1.51562 q 0,-0.85938 0.32813,-1.23438 0.32812,-0.375 0.875,-0.375 0.4375,0 0.71875,0.23438 0.29687,0.23437 0.42187,0.73437 0.14063,0.48438 0.375,0.71875 0.34375,0.375 1.0625,0.64063 0.71875,0.25 1.48438,0.25 1.34375,0 2.23437,-0.70313 0.59375,-0.45312 0.59375,-1.17187 0,-0.60938 -0.40625,-0.98438 -0.39062,-0.375 -1.67187,-0.64062 L 4.21875,34.19683 q -1.92187,-0.375 -2.8125,-1.375 -0.89062,-1 -0.89062,-2.39063 0,-1.375 0.95312,-2.45312 0.96875,-1.07813 2.57813,-1.35938 v -0.65625 q 0,-0.85937 0.32812,-1.21875 0.34375,-0.375 0.875,-0.375 0.53125,0 0.85938,0.375 0.34375,0.35938 0.34375,1.21875 z m 12.60547,6.1875 v 4.81252 q 0,0.76562 0.3125,1.01562 0.5,0.39063 1.76562,0.39063 1.84375,0 3.39063,-0.78125 0.60937,-0.3125 0.9375,-0.3125 0.46875,0 0.8125,0.35937 0.35937,0.34375 0.35937,0.84375 0,0.46875 -0.375,0.8125 -0.57812,0.54688 -2.28125,1.01563 -1.6875,0.46875 -2.84375,0.46875 -2.23437,0 -3.35937,-0.96875 -1.125,-0.96875 -1.125,-2.375 V 32.8062 h -0.85938 q -0.875,0 -1.25,-0.32813 -0.35937,-0.34375 -0.35937,-0.89062 0,-0.51563 0.35937,-0.84375 0.375,-0.34375 1.25,-0.34375 h 0.85938 v -2.17188 q 0,-0.85937 0.32812,-1.23437 0.34375,-0.375 0.89063,-0.375 0.51562,0 0.84375,0.375 0.34375,0.375 0.34375,1.23437 v 2.17188 h 4.4375 q 0.875,0 1.23437,0.34375 0.375,0.32812 0.375,0.85937 0,0.53125 -0.375,0.875 -0.35937,0.32813 -1.23437,0.32813 z m 14.49609,-2.40625 v 1.5 q 1.51563,-1.09375 2.39063,-1.45313 0.875,-0.35937 1.625,-0.35937 1.17187,0 2.28125,0.85937 0.75,0.59375 0.75,1.20313 0,0.51562 -0.35938,0.875 -0.35937,0.34375 -0.85937,0.34375 -0.45313,0 -0.95313,-0.4375 -0.48437,-0.45313 -0.85937,-0.45313 -0.51563,0 -1.51563,0.64063 -1,0.625 -2.5,1.89064 v 3.625 h 3.42188 q 0.875,0 1.23437,0.34375 0.375,0.32813 0.375,0.85938 0,0.53125 -0.375,0.875 -0.35937,0.32812 -1.23437,0.32812 h -7.25 q -0.875,0 -1.25,-0.32812 -0.35938,-0.34375 -0.35938,-0.875 0,-0.53125 0.35938,-0.85938 0.375,-0.34375 1.25,-0.34375 h 1.42187 V 32.8062 h -0.85937 q -0.875,0 -1.25,-0.32813 -0.35938,-0.34375 -0.35938,-0.89062 0,-0.51563 0.35938,-0.84375 0.375,-0.34375 1.25,-0.34375 z m 17.0586,10.64064 v -0.5625 q -0.89063,0.48437 -1.98438,0.71875 -1.09375,0.25 -1.98437,0.25 -1.9375,0 -3.14063,-1.03125 -1.20312,-1.03125 -1.20312,-2.26563 0,-1.51562 1.53125,-2.8125 1.54687,-1.29689 4.26562,-1.29689 1.09375,0 2.51563,0.23438 v -0.57813 q 0,-0.53125 -0.46875,-0.875 -0.45313,-0.34375 -1.75,-0.34375 -1.0625,0 -2.76563,0.42188 -0.64062,0.15625 -0.98437,0.15625 -0.48438,0 -0.82813,-0.34375 -0.32812,-0.34375 -0.32812,-0.89063 0,-0.29687 0.10937,-0.51562 0.125,-0.23438 0.32813,-0.35938 0.21875,-0.14062 0.89062,-0.32812 0.89063,-0.25 1.8125,-0.39063 0.9375,-0.14062 1.6875,-0.14062 2.23438,0 3.46875,0.96875 1.23438,0.95312 1.23438,2.64062 v 4.93752 h 0.40625 q 0.875,0 1.23437,0.34375 0.375,0.32812 0.375,0.85937 0,0.53125 -0.375,0.875 -0.35937,0.32813 -1.23437,0.32813 z m 0,-4.29688 q -1.4375,-0.28125 -2.65625,-0.28125 -1.46875,0 -2.51563,0.70313 -0.65625,0.46875 -0.65625,0.9375 0,0.32812 0.3125,0.54687 0.59375,0.39063 1.60938,0.39063 0.85937,0 1.95312,-0.34375 1.10938,-0.34375 1.95313,-0.92188 z M 63.71876,25.83745 v 2.54687 h -2.85938 v -2.54687 z m 0.32812,4.5625 v 8.23439 h 2.89063 q 0.85937,0 1.21875,0.34375 0.375,0.32812 0.375,0.85937 0,0.53125 -0.375,0.875 -0.35938,0.32813 -1.21875,0.32813 h -8.17188 q -0.875,0 -1.25,-0.32813 -0.35937,-0.34375 -0.35937,-0.875 0,-0.53125 0.35937,-0.85937 0.375,-0.34375 1.25,-0.34375 h 2.875 V 32.8062 h -1.92187 q -0.85938,0 -1.23438,-0.32813 -0.375,-0.34375 -0.375,-0.89062 0,-0.51563 0.35938,-0.84375 0.375,-0.34375 1.25,-0.34375 z m 10.77734,0 v 0.8125 q 0.65625,-0.5625 1.45313,-0.84375 0.79687,-0.28125 1.71875,-0.28125 2.125,0 3.375,1.3125 0.98437,1.0625 0.98437,2.76562 v 4.46877 q 0.76563,0 1.125,0.34375 0.35938,0.32813 0.35938,0.85938 0,0.53125 -0.375,0.875 -0.35938,0.32812 -1.23438,0.32812 h -2.15625 q -0.875,0 -1.25,-0.32812 -0.35937,-0.34375 -0.35937,-0.875 0,-0.53125 0.35937,-0.85938 0.35938,-0.34375 1.125,-0.34375 v -4.53127 q 0,-0.78125 -0.42187,-1.15625 -0.54688,-0.46875 -1.65625,-0.46875 -0.82813,0 -1.45313,0.32813 -0.625,0.32812 -1.59375,1.35937 v 4.46877 q 0.9375,0 1.20313,0.17188 0.57812,0.35937 0.57812,1.03125 0,0.53125 -0.375,0.875 -0.375,0.32812 -1.23437,0.32812 h -2.73438 q -0.85937,0 -1.23437,-0.32812 -0.375,-0.34375 -0.375,-0.875 0,-0.65625 0.5625,-1.03125 0.28125,-0.17188 1.21875,-0.17188 V 32.8062 q -0.76563,0 -1.14063,-0.34375 -0.35937,-0.34375 -0.35937,-0.875 0,-0.51563 0.375,-0.84375 0.375,-0.34375 1.23437,-0.34375 z m 15.98047,4.79689 q 0,-2.04689 0.67188,-4.14064 0.51562,-1.54688 1.5625,-3.45313 0.76562,-1.35937 1.125,-1.65625 0.35937,-0.3125 0.8125,-0.3125 0.51562,0 0.85937,0.35938 0.35938,0.34375 0.35938,0.82812 0,0.34375 -0.28125,0.8125 -1.26563,2.07813 -1.84375,3.89063 -0.57813,1.8125 -0.57813,3.67189 0,1.875 0.57813,3.70313 0.57812,1.8125 1.84375,3.89062 0.28125,0.45313 0.28125,0.8125 0,0.48438 -0.35938,0.82813 -0.34375,0.35937 -0.85937,0.35937 -0.4375,0 -0.76563,-0.28125 -0.46875,-0.40625 -1.23437,-1.84375 -1.125,-2.07812 -1.53125,-3.42187 -0.64063,-2.0625 -0.64063,-4.04688 z m 16.29297,0 q 0,2.0625 -0.6875,4.17188 -0.5,1.54687 -1.5625,3.4375 -0.75,1.35937 -1.125,1.67187 -0.35937,0.3125 -0.79687,0.3125 -0.51563,0 -0.875,-0.35937 -0.34375,-0.34375 -0.34375,-0.82813 0,-0.35937 0.28125,-0.8125 1.26562,-2.07812 1.84375,-3.89062 0.57812,-1.82813 0.57812,-3.70313 0,-1.85939 -0.57812,-3.67189 -0.57813,-1.8125 -1.84375,-3.89063 -0.28125,-0.46875 -0.28125,-0.8125 0,-0.48437 0.34375,-0.82812 0.35937,-0.35938 0.875,-0.35938 0.42187,0 0.75,0.28125 0.46875,0.39063 1.25,1.82813 1.10937,2.07812 1.51562,3.42187 0.65625,2.0625 0.65625,4.03127 z"
     fill-rule="nonzero"
     id="path63" />
  <path
     fill="#000000"
     fill-opacity="0"
     d="m 37.60856,177.53864 h 256.22046 v 50.99213 H 37.60856 Z"
     fill-rule="evenodd"
     id="path65" />
  <path
     fill="#000000"
     d="m 129.7969,209.89926 2.85937,-0.25 q 0.20313,1.71875 0.9375,2.82812 0.75,1.09375 2.3125,1.78125 1.5625,0.67188 3.51563,0.67188 1.73437,0 3.0625,-0.51563 1.32812,-0.51562 1.96875,-1.40625 0.65625,-0.90625 0.65625,-1.96875 0,-1.07812 -0.625,-1.875 -0.625,-0.8125 -2.0625,-1.35937 -0.92188,-0.35938 -4.07813,-1.10938 -3.15625,-0.76562 -4.42187,-1.4375 -1.64063,-0.85937 -2.45313,-2.125 -0.79687,-1.28125 -0.79687,-2.85937 0,-1.73438 0.98437,-3.23438 0.98438,-1.51562 2.875,-2.29687 1.89063,-0.78125 4.20313,-0.78125 2.54687,0 4.48437,0.82812 1.95313,0.8125 3,2.40625 1.04688,1.59375 1.125,3.60938 l -2.90625,0.21875 q -0.23437,-2.17188 -1.59375,-3.28125 -1.34375,-1.10938 -3.98437,-1.10938 -2.75,0 -4.01563,1.01563 -1.25,1 -1.25,2.42187 0,1.23438 0.89063,2.03125 0.875,0.79688 4.5625,1.64063 3.70312,0.82812 5.07812,1.45312 2,0.92188 2.95313,2.34375 0.95312,1.40625 0.95312,3.25 0,1.82813 -1.04687,3.45313 -1.04688,1.60937 -3.01563,2.51562 -1.95312,0.89063 -4.40625,0.89063 -3.10937,0 -5.21875,-0.90625 -2.09375,-0.90625 -3.29687,-2.71875 -1.1875,-1.82813 -1.25,-4.125 z m 28.15625,4.84375 0.40625,2.48437 q -1.1875,0.25 -2.125,0.25 -1.53125,0 -2.375,-0.48437 -0.84375,-0.48438 -1.1875,-1.26563 -0.34375,-0.79687 -0.34375,-3.32812 v -9.54688 h -2.0625 v -2.1875 h 2.0625 v -4.10937 l 2.79687,-1.6875 v 5.79687 h 2.82813 v 2.1875 h -2.82813 v 9.70313 q 0,1.20312 0.14063,1.54687 0.15625,0.34375 0.48437,0.54688 0.34375,0.20312 0.96875,0.20312 0.46875,0 1.23438,-0.10937 z m 13.57812,0.46875 q -1.5625,1.32812 -3.01562,1.875 -1.4375,0.54687 -3.09375,0.54687 -2.73438,0 -4.20313,-1.32812 -1.46875,-1.34375 -1.46875,-3.42188 0,-1.21875 0.54688,-2.21875 0.5625,-1.01562 1.45312,-1.625 0.90625,-0.60937 2.03125,-0.92187 0.82813,-0.21875 2.5,-0.42188 3.40625,-0.40625 5.01563,-0.96875 0.0156,-0.57812 0.0156,-0.73437 0,-1.71875 -0.79687,-2.42188 -1.07813,-0.95312 -3.20313,-0.95312 -1.98437,0 -2.9375,0.70312 -0.9375,0.6875 -1.39062,2.45313 l -2.75,-0.375 q 0.375,-1.76563 1.23437,-2.84375 0.85938,-1.09375 2.48438,-1.67188 1.625,-0.59375 3.76562,-0.59375 2.125,0 3.45313,0.5 1.32812,0.5 1.95312,1.26563 0.625,0.75 0.875,1.90625 0.14063,0.71875 0.14063,2.59375 v 3.75 q 0,3.92187 0.17187,4.96875 0.1875,1.03125 0.71875,1.98437 h -2.9375 q -0.4375,-0.875 -0.5625,-2.04687 z m -0.23437,-6.28125 q -1.53125,0.625 -4.59375,1.0625 -1.73438,0.25 -2.45313,0.5625 -0.71875,0.3125 -1.10937,0.92187 -0.39063,0.59375 -0.39063,1.32813 0,1.125 0.84375,1.875 0.85938,0.75 2.5,0.75 1.625,0 2.89063,-0.70313 1.26562,-0.71875 1.85937,-1.95312 0.45313,-0.95313 0.45313,-2.8125 z m 13.34375,5.8125 0.40625,2.48437 q -1.1875,0.25 -2.125,0.25 -1.53125,0 -2.375,-0.48437 -0.84375,-0.48438 -1.1875,-1.26563 -0.34375,-0.79687 -0.34375,-3.32812 v -9.54688 h -2.0625 v -2.1875 h 2.0625 v -4.10937 l 2.79687,-1.6875 v 5.79687 h 2.82813 v 2.1875 h -2.82813 v 9.70313 q 0,1.20312 0.14063,1.54687 0.15625,0.34375 0.48437,0.54688 0.34375,0.20312 0.96875,0.20312 0.46875,0 1.23438,-0.10937 z m 14.10937,-2.82813 2.90625,0.35938 q -0.6875,2.54687 -2.54687,3.95312 -1.85938,1.40625 -4.75,1.40625 -3.64063,0 -5.78125,-2.23437 -2.125,-2.25 -2.125,-6.29688 0,-4.1875 2.15625,-6.5 2.15625,-2.3125 5.59375,-2.3125 3.32812,0 5.4375,2.26563 2.10937,2.26562 2.10937,6.375 0,0.25 -0.0156,0.75 h -12.375 q 0.15625,2.73437 1.54687,4.1875 1.39063,1.45312 3.46875,1.45312 1.54688,0 2.64063,-0.8125 1.09375,-0.8125 1.73437,-2.59375 z m -9.23437,-4.54687 h 9.26562 q -0.1875,-2.09375 -1.0625,-3.14063 -1.34375,-1.625 -3.48437,-1.625 -1.9375,0 -3.26563,1.29688 -1.3125,1.29687 -1.45312,3.46875 z"
     fill-rule="nonzero"
     id="path67" />
  <path
     fill="#000000"
     d="m 63.27544,252.62552 q -1.73438,-2.20313 -2.95313,-5.15625 -1.20312,-2.95313 -1.20312,-6.10938 0,-2.79687 0.90625,-5.34375 1.04687,-2.96875 3.25,-5.90625 h 1.51562 q -1.42187,2.4375 -1.875,3.46875 -0.71875,1.625 -1.125,3.375 -0.5,2.20313 -0.5,4.40625 0,5.64063 3.5,11.26563 z m 3.91406,-5.04688 v -17.1875 h 2.10938 v 17.1875 z m 13.91016,-4.01562 2.17187,0.28125 q -0.51562,1.90625 -1.90625,2.96875 -1.39062,1.04687 -3.5625,1.04687 -2.73437,0 -4.34375,-1.67187 -1.59375,-1.6875 -1.59375,-4.73438 0,-3.14062 1.60938,-4.875 1.625,-1.73437 4.20312,-1.73437 2.5,0 4.07813,1.70312 1.59375,1.70313 1.59375,4.78125 0,0.1875 -0.0156,0.5625 h -9.28125 q 0.10938,2.04688 1.15625,3.14063 1.04688,1.09375 2.60938,1.09375 1.15625,0 1.96875,-0.60938 0.82812,-0.60937 1.3125,-1.95312 z m -6.9375,-3.40625 h 6.95312 q -0.14062,-1.5625 -0.79687,-2.35938 -1,-1.21875 -2.60938,-1.21875 -1.45312,0 -2.45312,0.98438 -0.98438,0.96875 -1.09375,2.59375 z m 19.8789,5.89062 q -1.17187,0.98438 -2.26562,1.40625 -1.07813,0.40625 -2.3125,0.40625 -2.04688,0 -3.15625,-1 -1.09375,-1 -1.09375,-2.5625 0,-0.92187 0.40625,-1.67187 0.42187,-0.75 1.09375,-1.20313 0.67187,-0.46875 1.51562,-0.70312 0.625,-0.15625 1.875,-0.3125 2.5625,-0.3125 3.76563,-0.73438 0.0156,-0.42187 0.0156,-0.54687 0,-1.28125 -0.60937,-1.8125 -0.79688,-0.71875 -2.39063,-0.71875 -1.5,0 -2.20312,0.53125 -0.70313,0.51562 -1.04688,1.84375 l -2.0625,-0.28125 q 0.28125,-1.32813 0.92188,-2.14063 0.64062,-0.8125 1.85937,-1.25 1.21875,-0.45312 2.82813,-0.45312 1.59375,0 2.59375,0.375 1,0.375 1.46875,0.95312 0.46875,0.5625 0.65625,1.4375 0.0937,0.53125 0.0937,1.9375 v 2.8125 q 0,2.9375 0.14062,3.71875 0.14063,0.78125 0.53125,1.5 h -2.20312 q -0.32813,-0.65625 -0.42188,-1.53125 z m -0.17187,-4.71875 q -1.15625,0.46875 -3.45313,0.79688 -1.29687,0.1875 -1.84375,0.42187 -0.53125,0.23438 -0.82812,0.6875 -0.28125,0.45313 -0.28125,1 0,0.84375 0.625,1.40625 0.64062,0.5625 1.875,0.5625 1.21875,0 2.17187,-0.53125 0.95313,-0.53125 1.39063,-1.45312 0.34375,-0.71875 0.34375,-2.10938 z m 5.37891,6.25 v -12.45312 h 1.89062 v 1.89062 q 0.73438,-1.32812 1.34375,-1.75 0.625,-0.42187 1.35938,-0.42187 1.0625,0 2.17187,0.6875 l -0.73437,1.95312 q -0.76563,-0.45312 -1.54688,-0.45312 -0.6875,0 -1.25,0.42187 -0.54687,0.40625 -0.78125,1.14063 -0.34375,1.125 -0.34375,2.46875 v 6.51562 z m 8.00781,0 v -12.45312 h 1.90625 v 1.78125 q 1.375,-2.0625 3.95312,-2.0625 1.125,0 2.0625,0.40625 0.95313,0.40625 1.42188,1.0625 0.46875,0.65625 0.65625,1.5625 0.125,0.57812 0.125,2.04687 v 7.65625 h -2.10938 v -7.57812 q 0,-1.28125 -0.25,-1.92188 -0.25,-0.64062 -0.875,-1.01562 -0.625,-0.39063 -1.46875,-0.39063 -1.34375,0 -2.32812,0.85938 -0.98438,0.85937 -0.98438,3.25 v 6.79687 z m 21.87889,-4.01562 2.17187,0.28125 q -0.51562,1.90625 -1.90625,2.96875 -1.39062,1.04687 -3.5625,1.04687 -2.73437,0 -4.34375,-1.67187 -1.59375,-1.6875 -1.59375,-4.73438 0,-3.14062 1.60938,-4.875 1.625,-1.73437 4.20312,-1.73437 2.5,0 4.07813,1.70312 1.59375,1.70313 1.59375,4.78125 0,0.1875 -0.0156,0.5625 h -9.28125 q 0.10938,2.04688 1.15625,3.14063 1.04688,1.09375 2.60938,1.09375 1.15625,0 1.96875,-0.60938 0.82812,-0.60937 1.3125,-1.95312 z m -6.9375,-3.40625 h 6.95312 q -0.14062,-1.5625 -0.79687,-2.35938 -1,-1.21875 -2.60938,-1.21875 -1.45312,0 -2.45312,0.98438 -0.98438,0.96875 -1.09375,2.59375 z m 19.83203,7.42187 v -1.57812 q -1.1875,1.85937 -3.48437,1.85937 -1.48438,0 -2.73438,-0.8125 -1.25,-0.82812 -1.9375,-2.29687 -0.67187,-1.46875 -0.67187,-3.39063 0,-1.85937 0.60937,-3.375 0.625,-1.51562 1.85938,-2.32812 1.25,-0.8125 2.78125,-0.8125 1.125,0 2,0.48437 0.89062,0.46875 1.4375,1.23438 v -6.17188 h 2.09375 v 17.1875 z m -6.67187,-6.21875 q 0,2.39063 1,3.57813 1.01562,1.1875 2.39062,1.1875 1.39063,0 2.34375,-1.125 0.96875,-1.14063 0.96875,-3.45313 0,-2.5625 -0.98437,-3.75 -0.98438,-1.20312 -2.42188,-1.20312 -1.40625,0 -2.35937,1.15625 -0.9375,1.14062 -0.9375,3.60937 z m 18.60937,10.98438 v -17.21875 h 1.92188 v 1.625 q 0.6875,-0.95313 1.53125,-1.42188 0.85937,-0.48437 2.07812,-0.48437 1.59375,0 2.8125,0.82812 1.21875,0.8125 1.84375,2.3125 0.625,1.5 0.625,3.28125 0,1.90625 -0.6875,3.4375 -0.6875,1.53125 -2,2.34375 -1.29687,0.8125 -2.73437,0.8125 -1.0625,0 -1.90625,-0.4375 -0.82813,-0.45312 -1.375,-1.14062 v 6.0625 z m 1.92188,-10.92188 q 0,2.40625 0.96875,3.5625 0.96875,1.14063 2.35937,1.14063 1.40625,0 2.40625,-1.1875 1,-1.1875 1,-3.6875 0,-2.375 -0.98437,-3.5625 -0.96875,-1.1875 -2.32813,-1.1875 -1.35937,0 -2.39062,1.26562 -1.03125,1.25 -1.03125,3.65625 z m 19.55078,4.625 q -1.17188,0.98438 -2.26563,1.40625 -1.07812,0.40625 -2.3125,0.40625 -2.04687,0 -3.15625,-1 -1.09375,-1 -1.09375,-2.5625 0,-0.92187 0.40625,-1.67187 0.42188,-0.75 1.09375,-1.20313 0.67188,-0.46875 1.51563,-0.70312 0.625,-0.15625 1.875,-0.3125 2.5625,-0.3125 3.76562,-0.73438 0.0156,-0.42187 0.0156,-0.54687 0,-1.28125 -0.60938,-1.8125 -0.79687,-0.71875 -2.39062,-0.71875 -1.5,0 -2.20313,0.53125 -0.70312,0.51562 -1.04687,1.84375 l -2.0625,-0.28125 q 0.28125,-1.32813 0.92187,-2.14063 0.64063,-0.8125 1.85938,-1.25 1.21875,-0.45312 2.82812,-0.45312 1.59375,0 2.59375,0.375 1,0.375 1.46875,0.95312 0.46875,0.5625 0.65625,1.4375 0.0937,0.53125 0.0937,1.9375 v 2.8125 q 0,2.9375 0.14063,3.71875 0.14062,0.78125 0.53125,1.5 h -2.20313 q -0.32812,-0.65625 -0.42187,-1.53125 z m -0.17188,-4.71875 q -1.15625,0.46875 -3.45312,0.79688 -1.29688,0.1875 -1.84375,0.42187 -0.53125,0.23438 -0.82813,0.6875 -0.28125,0.45313 -0.28125,1 0,0.84375 0.625,1.40625 0.64063,0.5625 1.875,0.5625 1.21875,0 2.17188,-0.53125 0.95312,-0.53125 1.39062,-1.45312 0.34375,-0.71875 0.34375,-2.10938 z m 5.37891,6.25 v -12.45312 h 1.89062 v 1.89062 q 0.73438,-1.32812 1.34375,-1.75 0.625,-0.42187 1.35938,-0.42187 1.0625,0 2.17187,0.6875 l -0.73437,1.95312 q -0.76563,-0.45312 -1.54688,-0.45312 -0.6875,0 -1.25,0.42187 -0.54687,0.40625 -0.78125,1.14063 -0.34375,1.125 -0.34375,2.46875 v 6.51562 z m 16.13281,-1.53125 q -1.17188,0.98438 -2.26563,1.40625 -1.07812,0.40625 -2.3125,0.40625 -2.04687,0 -3.15625,-1 -1.09375,-1 -1.09375,-2.5625 0,-0.92187 0.40625,-1.67187 0.42188,-0.75 1.09375,-1.20313 0.67188,-0.46875 1.51563,-0.70312 0.625,-0.15625 1.875,-0.3125 2.5625,-0.3125 3.76562,-0.73438 0.0156,-0.42187 0.0156,-0.54687 0,-1.28125 -0.60938,-1.8125 -0.79687,-0.71875 -2.39062,-0.71875 -1.5,0 -2.20313,0.53125 -0.70312,0.51562 -1.04687,1.84375 l -2.0625,-0.28125 q 0.28125,-1.32813 0.92187,-2.14063 0.64063,-0.8125 1.85938,-1.25 1.21875,-0.45312 2.82812,-0.45312 1.59375,0 2.59375,0.375 1,0.375 1.46875,0.95312 0.46875,0.5625 0.65625,1.4375 0.0937,0.53125 0.0937,1.9375 v 2.8125 q 0,2.9375 0.14063,3.71875 0.14062,0.78125 0.53125,1.5 h -2.20313 q -0.32812,-0.65625 -0.42187,-1.53125 z m -0.17188,-4.71875 q -1.15625,0.46875 -3.45312,0.79688 -1.29688,0.1875 -1.84375,0.42187 -0.53125,0.23438 -0.82813,0.6875 -0.28125,0.45313 -0.28125,1 0,0.84375 0.625,1.40625 0.64063,0.5625 1.875,0.5625 1.21875,0 2.17188,-0.53125 0.95312,-0.53125 1.39062,-1.45312 0.34375,-0.71875 0.34375,-2.10938 z m 5.39454,6.25 v -12.45312 h 1.89062 v 1.75 q 0.59375,-0.90625 1.5625,-1.46875 0.96875,-0.5625 2.21875,-0.5625 1.375,0 2.25,0.57812 0.89063,0.57813 1.26563,1.60938 1.46875,-2.1875 3.84375,-2.1875 1.84375,0 2.84375,1.03125 1,1.03125 1,3.15625 v 8.54687 h -2.10938 v -7.84375 q 0,-1.26562 -0.20312,-1.8125 -0.20313,-0.5625 -0.75,-0.90625 -0.53125,-0.34375 -1.25,-0.34375 -1.3125,0 -2.1875,0.875 -0.85938,0.875 -0.85938,2.79688 v 7.23437 h -2.10937 v -8.09375 q 0,-1.40625 -0.51563,-2.10937 -0.51562,-0.70313 -1.6875,-0.70313 -0.89062,0 -1.65625,0.46875 -0.75,0.46875 -1.09375,1.375 -0.34375,0.90625 -0.34375,2.60938 v 6.45312 z m 28.52343,-4.01562 2.17188,0.28125 q -0.51563,1.90625 -1.90625,2.96875 -1.39063,1.04687 -3.5625,1.04687 -2.73438,0 -4.34375,-1.67187 -1.59375,-1.6875 -1.59375,-4.73438 0,-3.14062 1.60937,-4.875 1.625,-1.73437 4.20313,-1.73437 2.5,0 4.07812,1.70312 1.59375,1.70313 1.59375,4.78125 0,0.1875 -0.0156,0.5625 h -9.28125 q 0.10937,2.04688 1.15625,3.14063 1.04687,1.09375 2.60937,1.09375 1.15625,0 1.96875,-0.60938 0.82813,-0.60937 1.3125,-1.95312 z m -6.9375,-3.40625 h 6.95313 q -0.14063,-1.5625 -0.79688,-2.35938 -1,-1.21875 -2.60937,-1.21875 -1.45313,0 -2.45313,0.98438 -0.98437,0.96875 -1.09375,2.59375 z m 16.36328,5.53125 0.3125,1.85937 q -0.89062,0.20313 -1.59375,0.20313 -1.15625,0 -1.79687,-0.35938 -0.625,-0.375 -0.89063,-0.96875 -0.25,-0.59375 -0.25,-2.48437 v -7.17188 h -1.54687 v -1.64062 h 1.54687 v -3.07813 l 2.09375,-1.26562 v 4.34375 h 2.125 v 1.64062 h -2.125 v 7.28125 q 0,0.90625 0.10938,1.17188 0.125,0.25 0.375,0.40625 0.25,0.14062 0.71875,0.14062 0.34375,0 0.92187,-0.0781 z m 10.58985,-2.125 2.17187,0.28125 q -0.51562,1.90625 -1.90625,2.96875 -1.39062,1.04687 -3.5625,1.04687 -2.73437,0 -4.34375,-1.67187 -1.59375,-1.6875 -1.59375,-4.73438 0,-3.14062 1.60938,-4.875 1.625,-1.73437 4.20312,-1.73437 2.5,0 4.07813,1.70312 1.59375,1.70313 1.59375,4.78125 0,0.1875 -0.0156,0.5625 h -9.28125 q 0.10938,2.04688 1.15625,3.14063 1.04688,1.09375 2.60938,1.09375 1.15625,0 1.96875,-0.60938 0.82812,-0.60937 1.3125,-1.95312 z m -6.9375,-3.40625 h 6.95312 q -0.14062,-1.5625 -0.79687,-2.35938 -1,-1.21875 -2.60938,-1.21875 -1.45312,0 -2.45312,0.98438 -0.98438,0.96875 -1.09375,2.59375 z m 11.73828,7.42187 v -12.45312 h 1.89062 v 1.89062 q 0.73438,-1.32812 1.34375,-1.75 0.625,-0.42187 1.35938,-0.42187 1.0625,0 2.17187,0.6875 l -0.73437,1.95312 q -0.76563,-0.45312 -1.54688,-0.45312 -0.6875,0 -1.25,0.42187 -0.54687,0.40625 -0.78125,1.14063 -0.34375,1.125 -0.34375,2.46875 v 6.51562 z m 7.16406,-3.71875 2.09375,-0.32812 q 0.17188,1.25 0.96875,1.92187 0.8125,0.67188 2.25,0.67188 1.45313,0 2.15625,-0.59375 0.70313,-0.59375 0.70313,-1.39063 0,-0.71875 -0.625,-1.125 -0.42188,-0.28125 -2.15625,-0.71875 -2.3125,-0.57812 -3.21875,-1 -0.89063,-0.4375 -1.35938,-1.1875 -0.45312,-0.76562 -0.45312,-1.67187 0,-0.82813 0.375,-1.53125 0.39062,-0.71875 1.04687,-1.1875 0.48438,-0.35938 1.32813,-0.60938 0.85937,-0.26562 1.82812,-0.26562 1.46875,0 2.57813,0.42187 1.10937,0.42188 1.625,1.15625 0.53125,0.71875 0.73437,1.92188 l -2.0625,0.28125 q -0.14062,-0.96875 -0.8125,-1.5 -0.67187,-0.54688 -1.90625,-0.54688 -1.45312,0 -2.07812,0.48438 -0.625,0.48437 -0.625,1.125 0,0.40625 0.26562,0.73437 0.25,0.34375 0.8125,0.5625 0.3125,0.125 1.85938,0.54688 2.23437,0.59375 3.10937,0.98437 0.89063,0.375 1.39063,1.10938 0.51562,0.71875 0.51562,1.79687 0,1.04688 -0.625,1.98438 -0.60937,0.9375 -1.76562,1.45312 -1.15625,0.5 -2.625,0.5 -2.42188,0 -3.70313,-1 -1.26562,-1.01562 -1.625,-3 z"
     fill-rule="nonzero"
     id="path69" />
  <path
     fill="#000000"
     d="m 99.13872,270.35989 q 0,-3.46875 1.92187,-5.125 1.60938,-1.39063 3.92188,-1.39063 2.5625,0 4.1875,1.6875 1.625,1.6875 1.625,4.64063 0,2.40625 -0.71875,3.78125 -0.71875,1.375 -2.09375,2.14062 -1.375,0.76563 -3,0.76563 -2.625,0 -4.23438,-1.67188 -1.60937,-1.6875 -1.60937,-4.82812 z m 2.17187,0 q 0,2.39062 1.03125,3.57812 1.04688,1.1875 2.64063,1.1875 1.5625,0 2.60937,-1.1875 1.04688,-1.20312 1.04688,-3.65625 0,-2.3125 -1.0625,-3.5 -1.04688,-1.1875 -2.59375,-1.1875 -1.59375,0 -2.64063,1.1875 -1.03125,1.1875 -1.03125,3.57813 z m 12.47266,6.21875 v -10.8125 h -1.875 v -1.64063 h 1.875 v -1.3125 q 0,-1.26562 0.21875,-1.875 0.29688,-0.8125 1.0625,-1.3125 0.78125,-0.51562 2.15625,-0.51562 0.89063,0 1.96874,0.20312 l -0.31249,1.84375 q -0.65625,-0.125 -1.25,-0.125 -0.95312,0 -1.35937,0.42188 -0.39063,0.40625 -0.39063,1.53125 v 1.14062 h 2.42188 v 1.64063 H 115.877 v 10.8125 z m 12.03905,-6.21875 q 0,-3.46875 1.92187,-5.125 1.60938,-1.39063 3.92188,-1.39063 2.5625,0 4.1875,1.6875 1.625,1.6875 1.625,4.64063 0,2.40625 -0.71875,3.78125 -0.71875,1.375 -2.09375,2.14062 -1.375,0.76563 -3,0.76563 -2.625,0 -4.23438,-1.67188 -1.60937,-1.6875 -1.60937,-4.82812 z m 2.17187,0 q 0,2.39062 1.03125,3.57812 1.04688,1.1875 2.64063,1.1875 1.5625,0 2.60937,-1.1875 1.04688,-1.20312 1.04688,-3.65625 0,-2.3125 -1.0625,-3.5 -1.04688,-1.1875 -2.59375,-1.1875 -1.59375,0 -2.64063,1.1875 -1.03125,1.1875 -1.03125,3.57813 z m 11.95703,10.98437 v -17.21875 h 1.92188 v 1.625 q 0.6875,-0.95312 1.53125,-1.42187 0.85937,-0.48438 2.07812,-0.48438 1.59375,0 2.8125,0.82813 1.21875,0.8125 1.84375,2.3125 0.625,1.5 0.625,3.28125 0,1.90625 -0.6875,3.4375 -0.6875,1.53125 -2,2.34375 -1.29687,0.8125 -2.73437,0.8125 -1.0625,0 -1.90625,-0.4375 -0.82813,-0.45313 -1.375,-1.14063 v 6.0625 z m 1.92188,-10.92187 q 0,2.40625 0.96875,3.5625 0.96875,1.14062 2.35937,1.14062 1.40625,0 2.40625,-1.1875 1,-1.1875 1,-3.6875 0,-2.375 -0.98437,-3.5625 -0.96875,-1.1875 -2.32813,-1.1875 -1.35937,0 -2.39062,1.26563 -1.03125,1.25 -1.03125,3.65625 z m 19.95703,2.14062 2.17187,0.28125 q -0.51562,1.90625 -1.90625,2.96875 -1.39062,1.04688 -3.5625,1.04688 -2.73437,0 -4.34375,-1.67188 -1.59375,-1.6875 -1.59375,-4.73437 0,-3.14063 1.60938,-4.875 1.625,-1.73438 4.20312,-1.73438 2.5,0 4.07813,1.70313 1.59375,1.70312 1.59375,4.78125 0,0.1875 -0.0156,0.5625 h -9.28125 q 0.10938,2.04687 1.15625,3.14062 1.04688,1.09375 2.60938,1.09375 1.15625,0 1.96875,-0.60937 0.82812,-0.60938 1.3125,-1.95313 z m -6.9375,-3.40625 h 6.95312 q -0.14062,-1.5625 -0.79687,-2.35937 -1,-1.21875 -2.60938,-1.21875 -1.45312,0 -2.45312,0.98437 -0.98438,0.96875 -1.09375,2.59375 z m 11.73828,7.42188 v -12.45313 h 1.89063 v 1.89063 q 0.73437,-1.32813 1.34375,-1.75 0.625,-0.42188 1.35937,-0.42188 1.0625,0 2.17188,0.6875 l -0.73438,1.95313 q -0.76562,-0.45313 -1.54687,-0.45313 -0.6875,0 -1.25,0.42188 -0.54688,0.40625 -0.78125,1.14062 -0.34375,1.125 -0.34375,2.46875 v 6.51563 z m 16.13281,-1.53125 q -1.17187,0.98437 -2.26562,1.40625 -1.07813,0.40625 -2.3125,0.40625 -2.04688,0 -3.15625,-1 -1.09375,-1 -1.09375,-2.5625 0,-0.92188 0.40625,-1.67188 0.42187,-0.75 1.09375,-1.20312 0.67187,-0.46875 1.51562,-0.70313 0.625,-0.15625 1.875,-0.3125 2.5625,-0.3125 3.76563,-0.73437 0.0156,-0.42188 0.0156,-0.54688 0,-1.28125 -0.60937,-1.8125 -0.79688,-0.71875 -2.39063,-0.71875 -1.5,0 -2.20312,0.53125 -0.70313,0.51563 -1.04688,1.84375 l -2.0625,-0.28125 q 0.28125,-1.32812 0.92188,-2.14062 0.64062,-0.8125 1.85937,-1.25 1.21875,-0.45313 2.82813,-0.45313 1.59375,0 2.59375,0.375 1,0.375 1.46875,0.95313 0.46875,0.5625 0.65625,1.4375 0.0937,0.53125 0.0937,1.9375 v 2.8125 q 0,2.9375 0.14062,3.71875 0.14063,0.78125 0.53125,1.5 h -2.20312 q -0.32813,-0.65625 -0.42188,-1.53125 z m -0.17187,-4.71875 q -1.15625,0.46875 -3.45313,0.79687 -1.29687,0.1875 -1.84375,0.42188 -0.53125,0.23437 -0.82812,0.6875 -0.28125,0.45312 -0.28125,1 0,0.84375 0.625,1.40625 0.64062,0.5625 1.875,0.5625 1.21875,0 2.17187,-0.53125 0.95313,-0.53125 1.39063,-1.45313 0.34375,-0.71875 0.34375,-2.10937 z m 10.0039,4.35937 0.3125,1.85938 q -0.89062,0.20312 -1.59375,0.20312 -1.15625,0 -1.79687,-0.35937 -0.625,-0.375 -0.89063,-0.96875 -0.25,-0.59375 -0.25,-2.48438 v -7.17187 h -1.54687 v -1.64063 h 1.54687 v -3.07812 l 2.09375,-1.26563 v 4.34375 h 2.125 v 1.64063 h -2.125 v 7.28125 q 0,0.90625 0.10938,1.17187 0.125,0.25 0.375,0.40625 0.25,0.14063 0.71875,0.14063 0.34375,0 0.92187,-0.0781 z m 2.07422,-12.85937 v -2.4375 h 2.10938 v 2.4375 z m 0,14.75 v -12.45313 h 2.10938 v 12.45313 z m 4.53516,-6.21875 q 0,-3.46875 1.92187,-5.125 1.60938,-1.39063 3.92188,-1.39063 2.5625,0 4.1875,1.6875 1.625,1.6875 1.625,4.64063 0,2.40625 -0.71875,3.78125 -0.71875,1.375 -2.09375,2.14062 -1.375,0.76563 -3,0.76563 -2.625,0 -4.23438,-1.67188 -1.60937,-1.6875 -1.60937,-4.82812 z m 2.17187,0 q 0,2.39062 1.03125,3.57812 1.04688,1.1875 2.64063,1.1875 1.5625,0 2.60937,-1.1875 1.04688,-1.20312 1.04688,-3.65625 0,-2.3125 -1.0625,-3.5 -1.04688,-1.1875 -2.59375,-1.1875 -1.59375,0 -2.64063,1.1875 -1.03125,1.1875 -1.03125,3.57813 z m 11.95703,6.21875 v -12.45313 h 1.90625 v 1.78125 q 1.375,-2.0625 3.95313,-2.0625 1.125,0 2.0625,0.40625 0.95312,0.40625 1.42187,1.0625 0.46875,0.65625 0.65625,1.5625 0.125,0.57813 0.125,2.04688 v 7.65625 h -2.10937 v -7.57813 q 0,-1.28125 -0.25,-1.92187 -0.25,-0.64063 -0.875,-1.01563 -0.625,-0.39062 -1.46875,-0.39062 -1.34375,0 -2.32813,0.85937 -0.98437,0.85938 -0.98437,3.25 v 6.79688 z m 14.73829,5.04687 h -1.51563 q 3.5,-5.625 3.5,-11.26562 0,-2.20313 -0.5,-4.35938 -0.39062,-1.76562 -1.10937,-3.375 -0.45313,-1.0625 -1.89063,-3.51562 h 1.51563 q 2.20312,2.9375 3.25,5.90625 0.90625,2.54687 0.90625,5.34375 0,3.15625 -1.21875,6.10937 -1.20313,2.95313 -2.9375,5.15625 z"
     fill-rule="nonzero"
     id="path71" />
  <path
     fill="#eeeeee"
     d="m 459.2367,46.47433 h 13.6413 c 1.88348,0 3.41034,3.58466 3.41034,8.00656 0,4.42191 -1.52686,8.00656 -3.41034,8.00656 h -13.6413 v 0 c -1.88342,0 -3.41028,-3.58465 -3.41028,-8.00656 0,-4.4219 1.52686,-8.00656 3.41028,-8.00656 z"
     fill-rule="evenodd"
     id="path87" />
  <path
     fill="#000000"
     fill-opacity="0"
     d="m 472.878,62.48746 c -1.88342,0 -3.41028,-3.58466 -3.41028,-8.00656 0,-4.42191 1.52686,-8.00656 3.41028,-8.00656"
     fill-rule="evenodd"
     id="path89" />
  <path
     fill="#000000"
     fill-opacity="0"
     d="m 459.2367,46.47433 h 13.6413 c 1.88348,0 3.41034,3.58466 3.41034,8.00656 0,4.42191 -1.52686,8.00656 -3.41034,8.00656 h -13.6413 v 0 c -1.88342,0 -3.41028,-3.58465 -3.41028,-8.00656 0,-4.4219 1.52686,-8.00656 3.41028,-8.00656 z"
     fill-rule="evenodd"
     id="path91" />
  <path
     stroke="#595959"
     stroke-width="1"
     stroke-linejoin="round"
     stroke-linecap="butt"
     d="m 472.878,62.48746 c -1.88342,0 -3.41028,-3.58466 -3.41028,-8.00656 0,-4.42191 1.52686,-8.00656 3.41028,-8.00656"
     fill-rule="evenodd"
     id="path93" />
  <path
     stroke="#595959"
     stroke-width="1"
     stroke-linejoin="round"
     stroke-linecap="butt"
     d="m 459.2367,46.47433 h 13.6413 c 1.88348,0 3.41034,3.58466 3.41034,8.00656 0,4.42191 -1.52686,8.00656 -3.41034,8.00656 h -13.6413 v 0 c -1.88342,0 -3.41028,-3.58465 -3.41028,-8.00656 0,-4.4219 1.52686,-8.00656 3.41028,-8.00656 z"
     fill-rule="evenodd"
     id="path95" />
  <path
     fill="#eeeeee"
     d="m 355.75468,46.47433 h -13.6413 c -1.88348,0 -3.41034,3.58466 -3.41034,8.00656 0,4.42191 1.52686,8.00656 3.41034,8.00656 h 13.6413 v 0 c 1.88345,0 3.41031,-3.58465 3.41031,-8.00656 0,-4.4219 -1.52686,-8.00656 -3.41031,-8.00656 z"
     fill-rule="evenodd"
     id="path97" />
  <path
     fill="#000000"
     fill-opacity="0"
     d="m 342.11338,62.48746 c 1.88345,0 3.41031,-3.58466 3.41031,-8.00656 0,-4.42191 -1.52686,-8.00656 -3.41031,-8.00656"
     fill-rule="evenodd"
     id="path99" />
  <path
     fill="#000000"
     fill-opacity="0"
     d="m 355.75468,46.47433 h -13.6413 c -1.88348,0 -3.41034,3.58466 -3.41034,8.00656 0,4.42191 1.52686,8.00656 3.41034,8.00656 h 13.6413 v 0 c 1.88345,0 3.41031,-3.58465 3.41031,-8.00656 0,-4.4219 -1.52686,-8.00656 -3.41031,-8.00656 z"
     fill-rule="evenodd"
     id="path101" />
  <path
     stroke="#595959"
     stroke-width="1"
     stroke-linejoin="round"
     stroke-linecap="butt"
     d="m 342.11338,62.48746 c 1.88345,0 3.41031,-3.58466 3.41031,-8.00656 0,-4.42191 -1.52686,-8.00656 -3.41031,-8.00656"
     fill-rule="evenodd"
     id="path103" />
  <path
     stroke="#595959"
     stroke-width="1"
     stroke-linejoin="round"
     stroke-linecap="butt"
     d="m 355.75468,46.47433 h -13.6413 c -1.88348,0 -3.41034,3.58466 -3.41034,8.00656 0,4.42191 1.52686,8.00656 3.41034,8.00656 h 13.6413 v 0 c 1.88345,0 3.41031,-3.58465 3.41031,-8.00656 0,-4.4219 -1.52686,-8.00656 -3.41031,-8.00656 z"
     fill-rule="evenodd"
     id="path105" />
  <path
     fill="#eeeeee"
     d="m 459.2367,195.02814 h 13.6413 c 1.88348,0 3.41034,3.58466 3.41034,8.00656 0,4.42191 -1.52686,8.00656 -3.41034,8.00656 h -13.6413 v 0 c -1.88342,0 -3.41028,-3.58465 -3.41028,-8.00656 0,-4.4219 1.52686,-8.00656 3.41028,-8.00656 z"
     fill-rule="evenodd"
     id="path107" />
  <path
     fill="#000000"
     fill-opacity="0"
     d="m 472.878,211.04126 c -1.88342,0 -3.41028,-3.58466 -3.41028,-8.00656 0,-4.42191 1.52686,-8.00656 3.41028,-8.00656"
     fill-rule="evenodd"
     id="path109" />
  <path
     fill="#000000"
     fill-opacity="0"
     d="m 459.2367,195.02814 h 13.6413 c 1.88348,0 3.41034,3.58466 3.41034,8.00656 0,4.42191 -1.52686,8.00656 -3.41034,8.00656 h -13.6413 v 0 c -1.88342,0 -3.41028,-3.58465 -3.41028,-8.00656 0,-4.4219 1.52686,-8.00656 3.41028,-8.00656 z"
     fill-rule="evenodd"
     id="path111" />
  <path
     stroke="#595959"
     stroke-width="1"
     stroke-linejoin="round"
     stroke-linecap="butt"
     d="m 472.878,211.04126 c -1.88342,0 -3.41028,-3.58466 -3.41028,-8.00656 0,-4.42191 1.52686,-8.00656 3.41028,-8.00656"
     fill-rule="evenodd"
     id="path113" />
  <path
     stroke="#595959"
     stroke-width="1"
     stroke-linejoin="round"
     stroke-linecap="butt"
     d="m 459.2367,195.02814 h 13.6413 c 1.88348,0 3.41034,3.58466 3.41034,8.00656 0,4.42191 -1.52686,8.00656 -3.41034,8.00656 h -13.6413 v 0 c -1.88342,0 -3.41028,-3.58465 -3.41028,-8.00656 0,-4.4219 1.52686,-8.00656 3.41028,-8.00656 z"
     fill-rule="evenodd"
     id="path115" />
  <path
     fill="#eeeeee"
     d="m 355.75468,195.02814 h -13.6413 c -1.88348,0 -3.41034,3.58466 -3.41034,8.00656 0,4.42191 1.52686,8.00656 3.41034,8.00656 h 13.6413 v 0 c 1.88345,0 3.41031,-3.58465 3.41031,-8.00656 0,-4.4219 -1.52686,-8.00656 -3.41031,-8.00656 z"
     fill-rule="evenodd"
     id="path117" />
  <path
     fill="#000000"
     fill-opacity="0"
     d="m 342.11338,211.04126 c 1.88345,0 3.41031,-3.58466 3.41031,-8.00656 0,-4.42191 -1.52686,-8.00656 -3.41031,-8.00656"
     fill-rule="evenodd"
     id="path119" />
  <path
     fill="#000000"
     fill-opacity="0"
     d="m 355.75468,195.02814 h -13.6413 c -1.88348,0 -3.41034,3.58466 -3.41034,8.00656 0,4.42191 1.52686,8.00656 3.41034,8.00656 h 13.6413 v 0 c 1.88345,0 3.41031,-3.58465 3.41031,-8.00656 0,-4.4219 -1.52686,-8.00656 -3.41031,-8.00656 z"
     fill-rule="evenodd"
     id="path121" />
  <path
     stroke="#595959"
     stroke-width="1"
     stroke-linejoin="round"
     stroke-linecap="butt"
     d="m 342.11338,211.04126 c 1.88345,0 3.41031,-3.58466 3.41031,-8.00656 0,-4.42191 -1.52686,-8.00656 -3.41031,-8.00656"
     fill-rule="evenodd"
     id="path123" />
  <path
     stroke="#595959"
     stroke-width="1"
     stroke-linejoin="round"
     stroke-linecap="butt"
     d="m 355.75468,195.02814 h -13.6413 c -1.88348,0 -3.41034,3.58466 -3.41034,8.00656 0,4.42191 1.52686,8.00656 3.41034,8.00656 h 13.6413 v 0 c 1.88345,0 3.41031,-3.58465 3.41031,-8.00656 0,-4.4219 -1.52686,-8.00656 -3.41031,-8.00656 z"
     fill-rule="evenodd"
     id="path125" />
  <path
     fill="#000000"
     fill-opacity="0"
     d="m 320.4747,263.95334 c -19.00906,0 -24.32519,-13.52756 -38.0181,-27.05512 -13.69293,-13.52755 -35.7626,-27.05511 -71.52521,-27.05511"
     fill-rule="evenodd"
     id="path127" />
  <path
     stroke="#595959"
     stroke-width="4"
     stroke-linejoin="round"
     stroke-linecap="butt"
     d="m 320.4747,263.95334 c -19.00906,0 -24.32519,-13.52756 -38.0181,-27.05512 -13.69293,-13.52755 -35.7626,-27.05511 -71.52521,-27.05511"
     fill-rule="evenodd"
     id="path129" />
</svg>
