<svg version="1.1" viewBox="0.0 0.0 642.5196850393701 264.56692913385825" fill="none" stroke="none" stroke-linecap="square" stroke-miterlimit="10" xmlns:xlink="http://www.w3.org/1999/xlink" xmlns="http://www.w3.org/2000/svg"><clipPath id="g20e2a186062_0_85.0"><path d="m0 0l642.5197 0l0 264.56693l-642.5197 0l0 -264.56693z" clip-rule="nonzero"/></clipPath><g clip-path="url(#g20e2a186062_0_85.0)"><path fill="#ffffff" d="m0 0l642.5197 0l0 264.56693l-642.5197 0z" fill-rule="evenodd"/><path fill="#ccccff" d="m10.908355 160.03658l0 0c-6.024518 -3.4790192 -8.0902815 -11.1844635 -4.6140113 -17.210571l76.16722 -132.0358c1.6693649 -2.8938403 4.4196243 -5.005478 7.645752 -5.8703766c3.2261353 -0.86489916 6.663872 -0.41221142 9.556946 1.2584772l43.63211 25.196598c6.024521 3.4790287 8.090286 11.184465 4.6140137 17.210577l-76.16722 132.03578l0 0c-3.4762726 6.026123 -11.178181 8.090927 -17.202702 4.611908z" fill-rule="evenodd"/><path stroke="#595959" stroke-width="1.0" stroke-linejoin="round" stroke-linecap="butt" d="m10.908355 160.03658l0 0c-6.024518 -3.4790192 -8.0902815 -11.1844635 -4.6140113 -17.210571l76.16722 -132.0358c1.6693649 -2.8938403 4.4196243 -5.005478 7.645752 -5.8703766c3.2261353 -0.86489916 6.663872 -0.41221142 9.556946 1.2584772l43.63211 25.196598c6.024521 3.4790287 8.090286 11.184465 4.6140137 17.210577l-76.16722 132.03578l0 0c-3.4762726 6.026123 -11.178181 8.090927 -17.202702 4.611908z" fill-rule="evenodd"/><path fill="#000000" d="m53.195538 99.64555l-8.240318 -4.758606l-1.7020569 2.9505157l-1.6778336 -0.9689102l4.551834 -7.8905945l1.6778336 0.9689102l-1.694252 2.9369812l8.240318 4.758606l-1.1555252 2.0030975zm4.1926804 -7.268013l-1.0930634 1.8948288l-7.184906 -4.149124l1.014988 -1.7594833l1.0148163 0.5860367q-0.45167923 -0.8743057 -0.47870636 -1.3590393q-0.019218445 -0.4982605 0.24623871 -0.95843506q0.3747673 -0.6496582 1.0779114 -1.0555496l1.3207664 1.5566177q-0.5844765 0.2939911 -0.8265114 0.7135544q-0.22642136 0.39250183 -0.17388916 0.80174255q0.060344696 0.3957138 0.548481 0.89411926q0.47460556 0.49059296 2.314808 1.5532684l2.2190666 1.2814636zm-2.1079903 -7.8842773l-1.310585 1.5526962q-0.87010956 -0.8994217 -0.9647598 -1.8923264q-0.08683777 -1.0064392 0.7173462 -2.4004898q0.7339134 -1.2722397 1.3907433 -1.7229233q0.65682983 -0.45067596 1.2787552 -0.43434906q0.6083946 0.008514404 1.8397064 0.71956635l2.203453 1.3085327q0.9471626 0.54696655 1.4618645 0.7178955q0.5011749 0.16311646 1.1558838 0.2164154l-1.0852547 1.8812943q-0.22847366 -0.04171753 -0.6697998 -0.15222931q-0.1935997 -0.039627075 -0.2555313 -0.05735016q0.1925087 0.7607269 0.11595154 1.4562836q-0.090084076 0.68775177 -0.4570427 1.3238678q-0.64022446 1.1098328 -1.6025391 1.4021454q-0.97584915 0.2844925 -1.8959503 -0.24684143q-0.60889053 -0.35162354 -0.91851044 -0.9093323q-0.31534576 -0.5790558 -0.26221466 -1.2340088q0.047409058 -0.6763077 0.42793274 -1.7737198q0.5158653 -1.4883728 0.5960617 -2.1277008l-0.18943405 -0.10939789q-0.5412369 -0.3125534 -0.92741394 -0.17469788q-0.3997078 0.13004303 -0.83693314 0.8879776q-0.2888794 0.50077057 -0.24987793 0.9022064q0.03900528 0.40142822 0.4381485 0.8664856zm3.010353 -1.6537094q-0.089027405 0.4357605 -0.37377548 1.3358688q-0.29047012 0.8787689 -0.2686348 1.216156q0.038471222 0.5274277 0.4444008 0.7618408q0.40592575 0.23441315 0.87537384 0.108558655q0.45591354 -0.13366699 0.7213745 -0.59384155q0.29668808 -0.51431274 0.23168182 -1.1833649q-0.061897278 -0.48682404 -0.3782997 -0.8138809q-0.1967125 -0.22185516 -0.8732567 -0.6125488l-0.3788643 -0.21878815zm-2.5499496 -6.461479l-1.759018 -1.0158005l1.0930634 -1.8948212l1.759018 1.0157928l-1.0930634 1.8948288zm8.15913 4.7117157l-7.184906 -4.149124l1.0930634 -1.8948288l7.18491 4.149132l-1.0930672 1.8948212zm5.9923363 -10.387703l-1.1008759 1.9083557l-3.66687 -2.1175385q-1.1636581 -0.6719818 -1.572197 -0.74552155q-0.42207336 -0.081344604 -0.76765823 0.079948425q-0.34558487 0.16130066 -0.5720062 0.55379486q-0.2810707 0.48724365 -0.23687363 1.0360184q0.044197083 0.5487747 0.40483093 0.955513q0.36063766 0.40673065 1.564888 1.1021576l3.2609482 1.8831253l-1.0930634 1.8948288l-7.18491 -4.149124l1.014988 -1.7594833l1.0554085 0.6094742q-0.6712456 -1.6506577 0.14855194 -3.0717773q0.36695862 -0.636116 0.89367294 -1.0175934q0.52098846 -0.4028244 1.0211372 -0.45681763q0.50795364 -0.06752777 1.0169334 0.08204651q0.5089798 0.14958191 1.3479004 0.63404083l4.4651947 2.5785522z" fill-rule="nonzero"/><path fill="#ffcccc" d="m40.305504 112.37683l0 0c0 -3.2180405 2.6580887 -5.8267746 5.937008 -5.8267746l0 0c1.5745926 0 3.084694 0.6138916 4.198097 1.7066193c1.1134071 1.0927353 1.7389107 2.5747986 1.7389107 4.1201553l0 0c0 3.2180328 -2.6580887 5.826767 -5.937008 5.826767l0 0c-3.2789192 0 -5.937008 -2.6087341 -5.937008 -5.826767z" fill-rule="evenodd"/><path stroke="#595959" stroke-width="1.0" stroke-linejoin="round" stroke-linecap="butt" d="m40.305504 112.37683l0 0c0 -3.2180405 2.6580887 -5.8267746 5.937008 -5.8267746l0 0c1.5745926 0 3.084694 0.6138916 4.198097 1.7066193c1.1134071 1.0927353 1.7389107 2.5747986 1.7389107 4.1201553l0 0c0 3.2180328 -2.6580887 5.826767 -5.937008 5.826767l0 0c-3.2789192 0 -5.937008 -2.6087341 -5.937008 -5.826767z" fill-rule="evenodd"/><path fill="#ffcccc" d="m50.823235 124.0445l0 0c0 -3.2180405 2.6580887 -5.8267746 5.937008 -5.8267746l0 0c1.5745926 0 3.084694 0.6138916 4.198097 1.7066269c1.1134071 1.0927277 1.7389107 2.574791 1.7389107 4.1201477l0 0c0 3.2180405 -2.6580887 5.8267746 -5.937008 5.8267746l0 0c-3.2789192 0 -5.937008 -2.6087341 -5.937008 -5.8267746z" fill-rule="evenodd"/><path stroke="#595959" stroke-width="1.0" stroke-linejoin="round" stroke-linecap="butt" d="m50.823235 124.0445l0 0c0 -3.2180405 2.6580887 -5.8267746 5.937008 -5.8267746l0 0c1.5745926 0 3.084694 0.6138916 4.198097 1.7066269c1.1134071 1.0927277 1.7389107 2.574791 1.7389107 4.1201477l0 0c0 3.2180405 -2.6580887 5.8267746 -5.937008 5.8267746l0 0c-3.2789192 0 -5.937008 -2.6087341 -5.937008 -5.8267746z" fill-rule="evenodd"/><path fill="#ffcccc" d="m40.305504 135.71217l0 0c0 -3.2180328 2.6580887 -5.826767 5.937008 -5.826767l0 0c1.5745926 0 3.084694 0.6138916 4.198097 1.7066193c1.1134071 1.0927277 1.7389107 2.5747986 1.7389107 4.1201477l0 0c0 3.218048 -2.6580887 5.826782 -5.937008 5.826782l0 0c-3.2789192 0 -5.937008 -2.6087341 -5.937008 -5.826782z" fill-rule="evenodd"/><path stroke="#595959" stroke-width="1.0" stroke-linejoin="round" stroke-linecap="butt" d="m40.305504 135.71217l0 0c0 -3.2180328 2.6580887 -5.826767 5.937008 -5.826767l0 0c1.5745926 0 3.084694 0.6138916 4.198097 1.7066193c1.1134071 1.0927277 1.7389107 2.5747986 1.7389107 4.1201477l0 0c0 3.218048 -2.6580887 5.826782 -5.937008 5.826782l0 0c-3.2789192 0 -5.937008 -2.6087341 -5.937008 -5.826782z" fill-rule="evenodd"/><path fill="#ffcccc" d="m62.686737 107.823906l0 0c0 -3.2180405 2.6580887 -5.8267746 5.937004 -5.8267746l0 0c1.5745926 0 3.084694 0.6138916 4.198105 1.7066269c1.1134033 1.0927277 1.7389069 2.574791 1.7389069 4.1201477l0 0c0 3.2180405 -2.6580887 5.8267746 -5.9370117 5.8267746l0 0c-3.2789154 0 -5.937004 -2.6087341 -5.937004 -5.8267746z" fill-rule="evenodd"/><path stroke="#595959" stroke-width="1.0" stroke-linejoin="round" stroke-linecap="butt" d="m62.686737 107.823906l0 0c0 -3.2180405 2.6580887 -5.8267746 5.937004 -5.8267746l0 0c1.5745926 0 3.084694 0.6138916 4.198105 1.7066269c1.1134033 1.0927277 1.7389069 2.574791 1.7389069 4.1201477l0 0c0 3.2180405 -2.6580887 5.8267746 -5.9370117 5.8267746l0 0c-3.2789154 0 -5.937004 -2.6087341 -5.937004 -5.8267746z" fill-rule="evenodd"/><path fill="#ffcccc" d="m58.14389 140.2651l0 0c0 -3.218048 2.6580887 -5.826782 5.9370117 -5.826782l0 0c1.5745926 0 3.084694 0.6138916 4.198097 1.7066193c1.1134033 1.0927429 1.7389069 2.5747986 1.7389069 4.120163l0 0c0 3.2180328 -2.6580887 5.826767 -5.937004 5.826767l0 0c-3.278923 0 -5.9370117 -2.6087341 -5.9370117 -5.826767z" fill-rule="evenodd"/><path stroke="#595959" stroke-width="1.0" stroke-linejoin="round" stroke-linecap="butt" d="m58.14389 140.2651l0 0c0 -3.218048 2.6580887 -5.826782 5.9370117 -5.826782l0 0c1.5745926 0 3.084694 0.6138916 4.198097 1.7066193c1.1134033 1.0927429 1.7389069 2.5747986 1.7389069 4.120163l0 0c0 3.2180328 -2.6580887 5.826767 -5.937004 5.826767l0 0c-3.278923 0 -5.9370117 -2.6087341 -5.9370117 -5.826767z" fill-rule="evenodd"/><path fill="#ffcccc" d="m70.00739 124.0445l0 0c0 -3.2180405 2.6580887 -5.8267746 5.9370117 -5.8267746l0 0c1.5745926 0 3.084694 0.6138916 4.198097 1.7066269c1.1134033 1.0927277 1.7389069 2.574791 1.7389069 4.1201477l0 0c0 3.2180405 -2.6580887 5.8267746 -5.937004 5.8267746l0 0c-3.278923 0 -5.9370117 -2.6087341 -5.9370117 -5.8267746z" fill-rule="evenodd"/><path stroke="#595959" stroke-width="1.0" stroke-linejoin="round" stroke-linecap="butt" d="m70.00739 124.0445l0 0c0 -3.2180405 2.6580887 -5.8267746 5.9370117 -5.8267746l0 0c1.5745926 0 3.084694 0.6138916 4.198097 1.7066269c1.1134033 1.0927277 1.7389069 2.574791 1.7389069 4.1201477l0 0c0 3.2180405 -2.6580887 5.8267746 -5.937004 5.8267746l0 0c-3.278923 0 -5.9370117 -2.6087341 -5.9370117 -5.8267746z" fill-rule="evenodd"/><path fill="#ffcccc" d="m28.442003 124.0445l0 0c0 -3.2180405 2.6580887 -5.8267746 5.937006 -5.8267746l0 0c1.5745926 0 3.084694 0.6138916 4.198101 1.7066269c1.1134033 1.0927277 1.7389069 2.574791 1.7389069 4.1201477l0 0c0 3.2180405 -2.6580887 5.8267746 -5.937008 5.8267746l0 0c-3.2789173 0 -5.937006 -2.6087341 -5.937006 -5.8267746z" fill-rule="evenodd"/><path stroke="#595959" stroke-width="1.0" stroke-linejoin="round" stroke-linecap="butt" d="m28.442003 124.0445l0 0c0 -3.2180405 2.6580887 -5.8267746 5.937006 -5.8267746l0 0c1.5745926 0 3.084694 0.6138916 4.198101 1.7066269c1.1134033 1.0927277 1.7389069 2.574791 1.7389069 4.1201477l0 0c0 3.2180405 -2.6580887 5.8267746 -5.937008 5.8267746l0 0c-3.2789173 0 -5.937006 -2.6087341 -5.937006 -5.8267746z" fill-rule="evenodd"/><path fill="#ffcccc" d="m75.98228 140.2651l0 0c0 -3.218048 2.6580887 -5.826782 5.9370117 -5.826782l0 0c1.5745926 0 3.084694 0.6138916 4.198097 1.7066193c1.1134033 1.0927429 1.7389069 2.5747986 1.7389069 4.120163l0 0c0 3.2180328 -2.6580887 5.826767 -5.937004 5.826767l0 0c-3.278923 0 -5.9370117 -2.6087341 -5.9370117 -5.826767z" fill-rule="evenodd"/><path stroke="#595959" stroke-width="1.0" stroke-linejoin="round" stroke-linecap="butt" d="m75.98228 140.2651l0 0c0 -3.218048 2.6580887 -5.826782 5.9370117 -5.826782l0 0c1.5745926 0 3.084694 0.6138916 4.198097 1.7066193c1.1134033 1.0927429 1.7389069 2.5747986 1.7389069 4.120163l0 0c0 3.2180328 -2.6580887 5.826767 -5.937004 5.826767l0 0c-3.278923 0 -5.9370117 -2.6087341 -5.9370117 -5.826767z" fill-rule="evenodd"/><path fill="#ffcccc" d="m46.280388 151.93277l0 0c0 -3.2180328 2.6580887 -5.826767 5.937008 -5.826767l0 0c1.5745926 0 3.084694 0.6138916 4.198101 1.7066193c1.1134033 1.0927277 1.7389069 2.5747986 1.7389069 4.1201477l0 0c0 3.218048 -2.6580887 5.826782 -5.937008 5.826782l0 0c-3.2789192 0 -5.937008 -2.6087341 -5.937008 -5.826782z" fill-rule="evenodd"/><path stroke="#595959" stroke-width="1.0" stroke-linejoin="round" stroke-linecap="butt" d="m46.280388 151.93277l0 0c0 -3.2180328 2.6580887 -5.826767 5.937008 -5.826767l0 0c1.5745926 0 3.084694 0.6138916 4.198101 1.7066193c1.1134033 1.0927277 1.7389069 2.5747986 1.7389069 4.1201477l0 0c0 3.218048 -2.6580887 5.826782 -5.937008 5.826782l0 0c-3.2789192 0 -5.937008 -2.6087341 -5.937008 -5.826782z" fill-rule="evenodd"/><path fill="#d9f2cc" d="m83.6242 38.01952l0 0c0 -3.2180367 2.6580887 -5.826771 5.9370117 -5.826771l0 0c1.574585 0 3.0846863 0.6138916 4.198097 1.7066231c1.1134033 1.0927315 1.7389069 2.5747948 1.7389069 4.1201477l0 0c0 3.2180367 -2.6580887 5.8267746 -5.937004 5.8267746l0 0c-3.278923 0 -5.9370117 -2.608738 -5.9370117 -5.8267746z" fill-rule="evenodd"/><path stroke="#595959" stroke-width="1.0" stroke-linejoin="round" stroke-linecap="butt" d="m83.6242 38.01952l0 0c0 -3.2180367 2.6580887 -5.826771 5.9370117 -5.826771l0 0c1.574585 0 3.0846863 0.6138916 4.198097 1.7066231c1.1134033 1.0927315 1.7389069 2.5747948 1.7389069 4.1201477l0 0c0 3.2180367 -2.6580887 5.8267746 -5.937004 5.8267746l0 0c-3.278923 0 -5.9370117 -2.608738 -5.9370117 -5.8267746z" fill-rule="evenodd"/><path fill="#d9f2cc" d="m94.14193 49.687195l0 0c0 -3.2180367 2.6580887 -5.826771 5.937004 -5.826771l0 0c1.5745926 0 3.084694 0.6138916 4.198105 1.7066231c1.1134033 1.0927315 1.7389069 2.5747948 1.7389069 4.1201477l0 0c0 3.2180367 -2.6580887 5.8267746 -5.9370117 5.8267746l0 0c-3.2789154 0 -5.937004 -2.608738 -5.937004 -5.8267746z" fill-rule="evenodd"/><path stroke="#595959" stroke-width="1.0" stroke-linejoin="round" stroke-linecap="butt" d="m94.14193 49.687195l0 0c0 -3.2180367 2.6580887 -5.826771 5.937004 -5.826771l0 0c1.5745926 0 3.084694 0.6138916 4.198105 1.7066231c1.1134033 1.0927315 1.7389069 2.5747948 1.7389069 4.1201477l0 0c0 3.2180367 -2.6580887 5.8267746 -5.9370117 5.8267746l0 0c-3.2789154 0 -5.937004 -2.608738 -5.937004 -5.8267746z" fill-rule="evenodd"/><path fill="#d9f2cc" d="m83.6242 61.35487l0 0c0 -3.2180367 2.6580887 -5.826771 5.9370117 -5.826771l0 0c1.574585 0 3.0846863 0.6138916 4.198097 1.7066231c1.1134033 1.0927315 1.7389069 2.5747948 1.7389069 4.1201477l0 0c0 3.2180367 -2.6580887 5.826771 -5.937004 5.826771l0 0c-3.278923 0 -5.9370117 -2.6087341 -5.9370117 -5.826771z" fill-rule="evenodd"/><path stroke="#595959" stroke-width="1.0" stroke-linejoin="round" stroke-linecap="butt" d="m83.6242 61.35487l0 0c0 -3.2180367 2.6580887 -5.826771 5.9370117 -5.826771l0 0c1.574585 0 3.0846863 0.6138916 4.198097 1.7066231c1.1134033 1.0927315 1.7389069 2.5747948 1.7389069 4.1201477l0 0c0 3.2180367 -2.6580887 5.826771 -5.937004 5.826771l0 0c-3.278923 0 -5.9370117 -2.6087341 -5.9370117 -5.826771z" fill-rule="evenodd"/><path fill="#d9f2cc" d="m106.00543 33.4666l0 0c0 -3.2180367 2.6580887 -5.826771 5.937004 -5.826771l0 0c1.5745926 0 3.084694 0.6138897 4.198105 1.7066212c1.1134033 1.0927334 1.7389069 2.5747948 1.7389069 4.1201496l0 0c0 3.2180367 -2.6580887 5.826771 -5.9370117 5.826771l0 0c-3.2789154 0 -5.937004 -2.6087341 -5.937004 -5.826771z" fill-rule="evenodd"/><path stroke="#595959" stroke-width="1.0" stroke-linejoin="round" stroke-linecap="butt" d="m106.00543 33.4666l0 0c0 -3.2180367 2.6580887 -5.826771 5.937004 -5.826771l0 0c1.5745926 0 3.084694 0.6138897 4.198105 1.7066212c1.1134033 1.0927334 1.7389069 2.5747948 1.7389069 4.1201496l0 0c0 3.2180367 -2.6580887 5.826771 -5.9370117 5.826771l0 0c-3.2789154 0 -5.937004 -2.6087341 -5.937004 -5.826771z" fill-rule="evenodd"/><path fill="#d9f2cc" d="m101.462585 65.90779l0 0c0 -3.2180367 2.6580887 -5.826771 5.9370117 -5.826771l0 0c1.5745926 0 3.084694 0.6138916 4.198097 1.7066231c1.1134033 1.0927315 1.7389069 2.574791 1.7389069 4.1201477l0 0c0 3.2180405 -2.6580887 5.8267746 -5.937004 5.8267746l0 0c-3.278923 0 -5.9370117 -2.6087341 -5.9370117 -5.8267746z" fill-rule="evenodd"/><path stroke="#595959" stroke-width="1.0" stroke-linejoin="round" stroke-linecap="butt" d="m101.462585 65.90779l0 0c0 -3.2180367 2.6580887 -5.826771 5.9370117 -5.826771l0 0c1.5745926 0 3.084694 0.6138916 4.198097 1.7066231c1.1134033 1.0927315 1.7389069 2.574791 1.7389069 4.1201477l0 0c0 3.2180405 -2.6580887 5.8267746 -5.937004 5.8267746l0 0c-3.278923 0 -5.9370117 -2.6087341 -5.9370117 -5.8267746z" fill-rule="evenodd"/><path fill="#d9f2cc" d="m113.32609 49.687195l0 0c0 -3.2180367 2.6580887 -5.826771 5.9370117 -5.826771l0 0c1.5745926 0 3.084694 0.6138916 4.198097 1.7066231c1.1134033 1.0927315 1.7389069 2.5747948 1.7389069 4.1201477l0 0c0 3.2180367 -2.6580887 5.8267746 -5.937004 5.8267746l0 0c-3.278923 0 -5.9370117 -2.608738 -5.9370117 -5.8267746z" fill-rule="evenodd"/><path stroke="#595959" stroke-width="1.0" stroke-linejoin="round" stroke-linecap="butt" d="m113.32609 49.687195l0 0c0 -3.2180367 2.6580887 -5.826771 5.9370117 -5.826771l0 0c1.5745926 0 3.084694 0.6138916 4.198097 1.7066231c1.1134033 1.0927315 1.7389069 2.5747948 1.7389069 4.1201477l0 0c0 3.2180367 -2.6580887 5.8267746 -5.937004 5.8267746l0 0c-3.278923 0 -5.9370117 -2.608738 -5.9370117 -5.8267746z" fill-rule="evenodd"/><path fill="#d9f2cc" d="m71.7607 49.687195l0 0c0 -3.2180367 2.6580887 -5.826771 5.9370117 -5.826771l0 0c1.5745926 0 3.084694 0.6138916 4.198097 1.7066231c1.1134033 1.0927315 1.7389069 2.5747948 1.7389069 4.1201477l0 0c0 3.2180367 -2.6580887 5.8267746 -5.937004 5.8267746l0 0c-3.278923 0 -5.9370117 -2.608738 -5.9370117 -5.8267746z" fill-rule="evenodd"/><path stroke="#595959" stroke-width="1.0" stroke-linejoin="round" stroke-linecap="butt" d="m71.7607 49.687195l0 0c0 -3.2180367 2.6580887 -5.826771 5.9370117 -5.826771l0 0c1.5745926 0 3.084694 0.6138916 4.198097 1.7066231c1.1134033 1.0927315 1.7389069 2.5747948 1.7389069 4.1201477l0 0c0 3.2180367 -2.6580887 5.8267746 -5.937004 5.8267746l0 0c-3.278923 0 -5.9370117 -2.608738 -5.9370117 -5.8267746z" fill-rule="evenodd"/><path fill="#d9f2cc" d="m119.30097 65.90779l0 0c0 -3.2180367 2.6580887 -5.826771 5.9370117 -5.826771l0 0c1.5745926 0 3.084694 0.6138916 4.198097 1.7066231c1.1134033 1.0927315 1.7389069 2.574791 1.7389069 4.1201477l0 0c0 3.2180405 -2.658081 5.8267746 -5.937004 5.8267746l0 0c-3.278923 0 -5.9370117 -2.6087341 -5.9370117 -5.8267746z" fill-rule="evenodd"/><path stroke="#595959" stroke-width="1.0" stroke-linejoin="round" stroke-linecap="butt" d="m119.30097 65.90779l0 0c0 -3.2180367 2.6580887 -5.826771 5.9370117 -5.826771l0 0c1.5745926 0 3.084694 0.6138916 4.198097 1.7066231c1.1134033 1.0927315 1.7389069 2.574791 1.7389069 4.1201477l0 0c0 3.2180405 -2.658081 5.8267746 -5.937004 5.8267746l0 0c-3.278923 0 -5.9370117 -2.6087341 -5.9370117 -5.8267746z" fill-rule="evenodd"/><path fill="#d9f2cc" d="m89.59908 77.57547l0 0c0 -3.2180405 2.6580887 -5.8267746 5.9370117 -5.8267746l0 0c1.5745926 0 3.084694 0.6138916 4.198097 1.7066269c1.1134033 1.0927277 1.7389069 2.574791 1.7389069 4.1201477l0 0c0 3.2180328 -2.6580887 5.826767 -5.937004 5.826767l0 0c-3.278923 0 -5.9370117 -2.6087341 -5.9370117 -5.826767z" fill-rule="evenodd"/><path stroke="#595959" stroke-width="1.0" stroke-linejoin="round" stroke-linecap="butt" d="m89.59908 77.57547l0 0c0 -3.2180405 2.6580887 -5.8267746 5.9370117 -5.8267746l0 0c1.5745926 0 3.084694 0.6138916 4.198097 1.7066269c1.1134033 1.0927277 1.7389069 2.574791 1.7389069 4.1201477l0 0c0 3.2180328 -2.6580887 5.826767 -5.937004 5.826767l0 0c-3.278923 0 -5.9370117 -2.6087341 -5.9370117 -5.826767z" fill-rule="evenodd"/><path fill="#fff1d0" d="m130.67607 112.30781l0 0c0 -3.2180405 2.6580963 -5.8267746 5.9370117 -5.8267746l0 0c1.574585 0 3.0846863 0.6138916 4.1980896 1.7066269c1.1134186 1.0927277 1.7389221 2.574791 1.7389221 4.1201477l0 0c0 3.2180328 -2.6580963 5.826767 -5.9370117 5.826767l0 0c-3.2789154 0 -5.9370117 -2.6087341 -5.9370117 -5.826767z" fill-rule="evenodd"/><path stroke="#595959" stroke-width="1.0" stroke-linejoin="round" stroke-linecap="butt" d="m130.67607 112.30781l0 0c0 -3.2180405 2.6580963 -5.8267746 5.9370117 -5.8267746l0 0c1.574585 0 3.0846863 0.6138916 4.1980896 1.7066269c1.1134186 1.0927277 1.7389221 2.574791 1.7389221 4.1201477l0 0c0 3.2180328 -2.6580963 5.826767 -5.9370117 5.826767l0 0c-3.2789154 0 -5.9370117 -2.6087341 -5.9370117 -5.826767z" fill-rule="evenodd"/><path fill="#fff1d0" d="m141.1938 123.97548l0 0c0 -3.2180328 2.6580963 -5.826767 5.9370117 -5.826767l0 0c1.574585 0 3.0846863 0.6138916 4.1980896 1.7066193c1.1134186 1.0927353 1.7389221 2.574791 1.7389221 4.1201477l0 0c0 3.2180405 -2.6580963 5.826767 -5.9370117 5.826767l0 0c-3.2789154 0 -5.9370117 -2.6087265 -5.9370117 -5.826767z" fill-rule="evenodd"/><path stroke="#595959" stroke-width="1.0" stroke-linejoin="round" stroke-linecap="butt" d="m141.1938 123.97548l0 0c0 -3.2180328 2.6580963 -5.826767 5.9370117 -5.826767l0 0c1.574585 0 3.0846863 0.6138916 4.1980896 1.7066193c1.1134186 1.0927353 1.7389221 2.574791 1.7389221 4.1201477l0 0c0 3.2180405 -2.6580963 5.826767 -5.9370117 5.826767l0 0c-3.2789154 0 -5.9370117 -2.6087265 -5.9370117 -5.826767z" fill-rule="evenodd"/><path fill="#fff1d0" d="m130.67607 135.64316l0 0c0 -3.2180328 2.6580963 -5.826767 5.9370117 -5.826767l0 0c1.574585 0 3.0846863 0.6138916 4.1980896 1.7066193c1.1134186 1.0927277 1.7389221 2.5747833 1.7389221 4.1201477l0 0c0 3.2180328 -2.6580963 5.826767 -5.9370117 5.826767l0 0c-3.2789154 0 -5.9370117 -2.6087341 -5.9370117 -5.826767z" fill-rule="evenodd"/><path stroke="#595959" stroke-width="1.0" stroke-linejoin="round" stroke-linecap="butt" d="m130.67607 135.64316l0 0c0 -3.2180328 2.6580963 -5.826767 5.9370117 -5.826767l0 0c1.574585 0 3.0846863 0.6138916 4.1980896 1.7066193c1.1134186 1.0927277 1.7389221 2.5747833 1.7389221 4.1201477l0 0c0 3.2180328 -2.6580963 5.826767 -5.9370117 5.826767l0 0c-3.2789154 0 -5.9370117 -2.6087341 -5.9370117 -5.826767z" fill-rule="evenodd"/><path fill="#fff1d0" d="m153.05731 107.75488l0 0c0 -3.2180328 2.658081 -5.826767 5.9369965 -5.826767l0 0c1.5746002 0 3.0847015 0.613884 4.198105 1.7066193c1.1134033 1.0927353 1.7389069 2.574791 1.7389069 4.1201477l0 0c0 3.2180405 -2.658081 5.8267746 -5.9370117 5.8267746l0 0c-3.2789154 0 -5.9369965 -2.6087341 -5.9369965 -5.8267746z" fill-rule="evenodd"/><path stroke="#595959" stroke-width="1.0" stroke-linejoin="round" stroke-linecap="butt" d="m153.05731 107.75488l0 0c0 -3.2180328 2.658081 -5.826767 5.9369965 -5.826767l0 0c1.5746002 0 3.0847015 0.613884 4.198105 1.7066193c1.1134033 1.0927353 1.7389069 2.574791 1.7389069 4.1201477l0 0c0 3.2180405 -2.658081 5.8267746 -5.9370117 5.8267746l0 0c-3.2789154 0 -5.9369965 -2.6087341 -5.9369965 -5.8267746z" fill-rule="evenodd"/><path fill="#fff1d0" d="m148.51447 140.19608l0 0c0 -3.2180328 2.658081 -5.826767 5.9369965 -5.826767l0 0c1.5746002 0 3.0847015 0.6138916 4.198105 1.7066193c1.1134033 1.0927277 1.7389069 2.5747986 1.7389069 4.1201477l0 0c0 3.2180328 -2.658081 5.826782 -5.9370117 5.826782l0 0c-3.2789154 0 -5.9369965 -2.6087494 -5.9369965 -5.826782z" fill-rule="evenodd"/><path stroke="#595959" stroke-width="1.0" stroke-linejoin="round" stroke-linecap="butt" d="m148.51447 140.19608l0 0c0 -3.2180328 2.658081 -5.826767 5.9369965 -5.826767l0 0c1.5746002 0 3.0847015 0.6138916 4.198105 1.7066193c1.1134033 1.0927277 1.7389069 2.5747986 1.7389069 4.1201477l0 0c0 3.2180328 -2.658081 5.826782 -5.9370117 5.826782l0 0c-3.2789154 0 -5.9369965 -2.6087494 -5.9369965 -5.826782z" fill-rule="evenodd"/><path fill="#fff1d0" d="m160.37796 123.97548l0 0c0 -3.2180328 2.6580963 -5.826767 5.9370117 -5.826767l0 0c1.574585 0 3.0846863 0.6138916 4.1980896 1.7066193c1.1134186 1.0927353 1.7389221 2.574791 1.7389221 4.1201477l0 0c0 3.2180405 -2.6580963 5.826767 -5.9370117 5.826767l0 0c-3.2789154 0 -5.9370117 -2.6087265 -5.9370117 -5.826767z" fill-rule="evenodd"/><path stroke="#595959" stroke-width="1.0" stroke-linejoin="round" stroke-linecap="butt" d="m160.37796 123.97548l0 0c0 -3.2180328 2.6580963 -5.826767 5.9370117 -5.826767l0 0c1.574585 0 3.0846863 0.6138916 4.1980896 1.7066193c1.1134186 1.0927353 1.7389221 2.574791 1.7389221 4.1201477l0 0c0 3.2180405 -2.6580963 5.826767 -5.9370117 5.826767l0 0c-3.2789154 0 -5.9370117 -2.6087265 -5.9370117 -5.826767z" fill-rule="evenodd"/><path fill="#fff1d0" d="m118.81257 123.97548l0 0c0 -3.2180328 2.6580887 -5.826767 5.9370117 -5.826767l0 0c1.5745926 0 3.084694 0.6138916 4.198097 1.7066193c1.1134033 1.0927353 1.7389069 2.574791 1.7389069 4.1201477l0 0c0 3.2180405 -2.658081 5.826767 -5.937004 5.826767l0 0c-3.278923 0 -5.9370117 -2.6087265 -5.9370117 -5.826767z" fill-rule="evenodd"/><path stroke="#595959" stroke-width="1.0" stroke-linejoin="round" stroke-linecap="butt" d="m118.81257 123.97548l0 0c0 -3.2180328 2.6580887 -5.826767 5.9370117 -5.826767l0 0c1.5745926 0 3.084694 0.6138916 4.198097 1.7066193c1.1134033 1.0927353 1.7389069 2.574791 1.7389069 4.1201477l0 0c0 3.2180405 -2.658081 5.826767 -5.937004 5.826767l0 0c-3.278923 0 -5.9370117 -2.6087265 -5.9370117 -5.826767z" fill-rule="evenodd"/><path fill="#fff1d0" d="m166.35284 140.19608l0 0c0 -3.2180328 2.6580963 -5.826767 5.9370117 -5.826767l0 0c1.574585 0 3.0846863 0.6138916 4.198105 1.7066193c1.1134033 1.0927277 1.7389069 2.5747986 1.7389069 4.1201477l0 0c0 3.2180328 -2.6580963 5.826782 -5.9370117 5.826782l0 0c-3.2789154 0 -5.9370117 -2.6087494 -5.9370117 -5.826782z" fill-rule="evenodd"/><path stroke="#595959" stroke-width="1.0" stroke-linejoin="round" stroke-linecap="butt" d="m166.35284 140.19608l0 0c0 -3.2180328 2.6580963 -5.826767 5.9370117 -5.826767l0 0c1.574585 0 3.0846863 0.6138916 4.198105 1.7066193c1.1134033 1.0927277 1.7389069 2.5747986 1.7389069 4.1201477l0 0c0 3.2180328 -2.6580963 5.826782 -5.9370117 5.826782l0 0c-3.2789154 0 -5.9370117 -2.6087494 -5.9370117 -5.826782z" fill-rule="evenodd"/><path fill="#fff1d0" d="m136.65096 151.86375l0 0c0 -3.2180328 2.6580963 -5.826767 5.9370117 -5.826767l0 0c1.574585 0 3.0846863 0.6138916 4.198105 1.7066193c1.1134033 1.0927277 1.7389069 2.5747833 1.7389069 4.1201477l0 0c0 3.2180328 -2.6580963 5.826767 -5.9370117 5.826767l0 0c-3.2789154 0 -5.9370117 -2.6087341 -5.9370117 -5.826767z" fill-rule="evenodd"/><path stroke="#595959" stroke-width="1.0" stroke-linejoin="round" stroke-linecap="butt" d="m136.65096 151.86375l0 0c0 -3.2180328 2.6580963 -5.826767 5.9370117 -5.826767l0 0c1.574585 0 3.0846863 0.6138916 4.198105 1.7066193c1.1134033 1.0927277 1.7389069 2.5747833 1.7389069 4.1201477l0 0c0 3.2180328 -2.6580963 5.826767 -5.9370117 5.826767l0 0c-3.2789154 0 -5.9370117 -2.6087341 -5.9370117 -5.826767z" fill-rule="evenodd"/><path fill="#000000" fill-opacity="0.0" d="m211.04146 17.212599l0 230.14172" fill-rule="evenodd"/><path stroke="#595959" stroke-width="2.0" stroke-linejoin="round" stroke-linecap="butt" stroke-dasharray="8.0,6.0" d="m211.04146 17.212599l0 230.14172" fill-rule="evenodd"/><path fill="#000000" fill-opacity="0.0" d="m431.73648 17.212599l0 230.14172" fill-rule="evenodd"/><path stroke="#595959" stroke-width="2.0" stroke-linejoin="round" stroke-linecap="butt" stroke-dasharray="8.0,6.0" d="m431.73648 17.212599l0 230.14172" fill-rule="evenodd"/><path fill="#ffffff" d="m48.09405 223.82152l103.968506 0l0 29.291336l-103.968506 0z" fill-rule="evenodd"/><path stroke="#595959" stroke-width="1.0" stroke-linejoin="round" stroke-linecap="butt" d="m48.09405 223.82152l103.968506 0l0 29.291336l-103.968506 0z" fill-rule="evenodd"/><path fill="#000000" d="m71.691414 243.2672l0 -9.546875l1.25 0l0 9.546875l-1.25 0zm5.8904877 -1.046875l0.171875 1.03125q-0.5 0.109375 -0.890625 0.109375q-0.640625 0 -1.0 -0.203125q-0.34375 -0.203125 -0.484375 -0.53125q-0.140625 -0.328125 -0.140625 -1.390625l0 -3.96875l-0.859375 0l0 -0.90625l0.859375 0l0 -1.71875l1.171875 -0.703125l0 2.421875l1.171875 0l0 0.90625l-1.171875 0l0 4.046875q0 0.5 0.046875 0.640625q0.0625 0.140625 0.203125 0.234375q0.140625 0.078125 0.40625 0.078125q0.203125 0 0.515625 -0.046875zm5.8748627 -1.171875l1.203125 0.140625q-0.28125 1.0625 -1.0625 1.65625q-0.765625 0.578125 -1.96875 0.578125q-1.515625 0 -2.40625 -0.9375q-0.890625 -0.9375 -0.890625 -2.609375q0 -1.75 0.890625 -2.703125q0.90625 -0.96875 2.34375 -0.96875q1.390625 0 2.265625 0.9375q0.875 0.9375 0.875 2.65625q0 0.109375 0 0.3125l-5.15625 0q0.0625 1.140625 0.640625 1.75q0.578125 0.59375 1.4375 0.59375q0.65625 0 1.109375 -0.328125q0.453125 -0.34375 0.71875 -1.078125zm-3.84375 -1.90625l3.859375 0q-0.078125 -0.859375 -0.4375 -1.296875q-0.5625 -0.6875 -1.453125 -0.6875q-0.8125 0 -1.359375 0.546875q-0.546875 0.53125 -0.609375 1.4375zm6.5062256 4.125l0 -6.90625l1.0625 0l0 1.046875q0.40625 -0.734375 0.734375 -0.96875q0.34375 -0.234375 0.765625 -0.234375q0.59375 0 1.203125 0.375l-0.40625 1.078125q-0.4375 -0.25 -0.859375 -0.25q-0.390625 0 -0.703125 0.234375q-0.296875 0.234375 -0.421875 0.640625q-0.203125 0.625 -0.203125 1.359375l0 3.625l-1.171875 0zm8.96962 -0.859375q-0.65625 0.5625 -1.265625 0.796875q-0.59375 0.21875 -1.28125 0.21875q-1.140625 0 -1.75 -0.546875q-0.609375 -0.5625 -0.609375 -1.4375q0 -0.5 0.21875 -0.921875q0.234375 -0.421875 0.609375 -0.671875q0.375 -0.25 0.84375 -0.390625q0.34375 -0.078125 1.046875 -0.171875q1.421875 -0.171875 2.09375 -0.40625q0 -0.234375 0 -0.296875q0 -0.71875 -0.328125 -1.015625q-0.453125 -0.390625 -1.34375 -0.390625q-0.8125 0 -1.21875 0.296875q-0.390625 0.28125 -0.578125 1.015625l-1.140625 -0.15625q0.15625 -0.734375 0.515625 -1.1875q0.359375 -0.453125 1.03125 -0.6875q0.671875 -0.25 1.5625 -0.25q0.890625 0 1.4375 0.203125q0.5625 0.203125 0.8125 0.53125q0.265625 0.3125 0.375 0.796875q0.046875 0.296875 0.046875 1.078125l0 1.5625q0 1.625 0.078125 2.0625q0.078125 0.4375 0.296875 0.828125l-1.21875 0q-0.1875 -0.359375 -0.234375 -0.859375zm-0.09375 -2.609375q-0.640625 0.265625 -1.921875 0.4375q-0.71875 0.109375 -1.015625 0.25q-0.296875 0.125 -0.46875 0.375q-0.15625 0.25 -0.15625 0.546875q0 0.46875 0.34375 0.78125q0.359375 0.3125 1.046875 0.3125q0.671875 0 1.203125 -0.296875q0.53125 -0.296875 0.78125 -0.8125q0.1875 -0.390625 0.1875 -1.171875l0 -0.421875zm5.5531006 2.421875l0.171875 1.03125q-0.5 0.109375 -0.890625 0.109375q-0.640625 0 -1.0 -0.203125q-0.34375 -0.203125 -0.484375 -0.53125q-0.140625 -0.328125 -0.140625 -1.390625l0 -3.96875l-0.859375 0l0 -0.90625l0.859375 0l0 -1.71875l1.171875 -0.703125l0 2.421875l1.171875 0l0 0.90625l-1.171875 0l0 4.046875q0 0.5 0.046875 0.640625q0.0625 0.140625 0.203125 0.234375q0.140625 0.078125 0.40625 0.078125q0.203125 0 0.515625 -0.046875zm1.1561127 -7.140625l0 -1.359375l1.171875 0l0 1.359375l-1.171875 0zm0 8.1875l0 -6.90625l1.171875 0l0 6.90625l-1.171875 0zm2.507965 -3.453125q0 -1.921875 1.078125 -2.84375q0.890625 -0.765625 2.171875 -0.765625q1.421875 0 2.328125 0.9375q0.90625 0.921875 0.90625 2.578125q0 1.328125 -0.40625 2.09375q-0.390625 0.765625 -1.15625 1.1875q-0.765625 0.421875 -1.671875 0.421875q-1.453125 0 -2.359375 -0.921875q-0.890625 -0.9375 -0.890625 -2.6875zm1.203125 0q0 1.328125 0.578125 1.984375q0.59375 0.65625 1.46875 0.65625q0.875 0 1.453125 -0.65625q0.578125 -0.671875 0.578125 -2.03125q0 -1.28125 -0.59375 -1.9375q-0.578125 -0.65625 -1.4375 -0.65625q-0.875 0 -1.46875 0.65625q-0.578125 0.65625 -0.578125 1.984375zm6.6468506 3.453125l0 -6.90625l1.0625 0l0 0.984375q0.75 -1.140625 2.1875 -1.140625q0.625 0 1.15625 0.21875q0.53125 0.21875 0.78125 0.59375q0.265625 0.359375 0.375 0.859375q0.0625 0.328125 0.0625 1.140625l0 4.25l-1.171875 0l0 -4.203125q0 -0.71875 -0.140625 -1.0625q-0.140625 -0.359375 -0.484375 -0.5625q-0.34375 -0.21875 -0.8125 -0.21875q-0.75 0 -1.296875 0.46875q-0.546875 0.46875 -0.546875 1.796875l0 3.78125l-1.171875 0zm15.209213 0l-1.171875 0l0 -7.46875q-0.421875 0.40625 -1.109375 0.8125q-0.6875 0.40625 -1.234375 0.609375l0 -1.140625q0.984375 -0.453125 1.71875 -1.109375q0.734375 -0.671875 1.03125 -1.28125l0.765625 0l0 9.578125z" fill-rule="nonzero"/><path fill="#ffffff" d="m267.6986 223.82152l103.968506 0l0 29.291336l-103.968506 0z" fill-rule="evenodd"/><path stroke="#595959" stroke-width="1.0" stroke-linejoin="round" stroke-linecap="butt" d="m267.6986 223.82152l103.968506 0l0 29.291336l-103.968506 0z" fill-rule="evenodd"/><path fill="#000000" d="m291.29596 243.2672l0 -9.546875l1.25 0l0 9.546875l-1.25 0zm5.890503 -1.046875l0.171875 1.03125q-0.5 0.109375 -0.890625 0.109375q-0.640625 0 -1.0 -0.203125q-0.34375 -0.203125 -0.484375 -0.53125q-0.140625 -0.328125 -0.140625 -1.390625l0 -3.96875l-0.859375 0l0 -0.90625l0.859375 0l0 -1.71875l1.171875 -0.703125l0 2.421875l1.171875 0l0 0.90625l-1.171875 0l0 4.046875q0 0.5 0.046875 0.640625q0.0625 0.140625 0.203125 0.234375q0.140625 0.078125 0.40625 0.078125q0.203125 0 0.515625 -0.046875zm5.8748474 -1.171875l1.203125 0.140625q-0.28125 1.0625 -1.0625 1.65625q-0.765625 0.578125 -1.96875 0.578125q-1.515625 0 -2.40625 -0.9375q-0.890625 -0.9375 -0.890625 -2.609375q0 -1.75 0.890625 -2.703125q0.90625 -0.96875 2.34375 -0.96875q1.390625 0 2.265625 0.9375q0.875 0.9375 0.875 2.65625q0 0.109375 0 0.3125l-5.15625 0q0.0625 1.140625 0.640625 1.75q0.578125 0.59375 1.4375 0.59375q0.65625 0 1.109375 -0.328125q0.453125 -0.34375 0.71875 -1.078125zm-3.84375 -1.90625l3.859375 0q-0.078125 -0.859375 -0.4375 -1.296875q-0.5625 -0.6875 -1.453125 -0.6875q-0.8125 0 -1.359375 0.546875q-0.546875 0.53125 -0.609375 1.4375zm6.5062256 4.125l0 -6.90625l1.0625 0l0 1.046875q0.40625 -0.734375 0.734375 -0.96875q0.34375 -0.234375 0.765625 -0.234375q0.59375 0 1.203125 0.375l-0.40625 1.078125q-0.4375 -0.25 -0.859375 -0.25q-0.390625 0 -0.703125 0.234375q-0.296875 0.234375 -0.421875 0.640625q-0.203125 0.625 -0.203125 1.359375l0 3.625l-1.171875 0zm8.969635 -0.859375q-0.65625 0.5625 -1.265625 0.796875q-0.59375 0.21875 -1.28125 0.21875q-1.140625 0 -1.75 -0.546875q-0.609375 -0.5625 -0.609375 -1.4375q0 -0.5 0.21875 -0.921875q0.234375 -0.421875 0.609375 -0.671875q0.375 -0.25 0.84375 -0.390625q0.34375 -0.078125 1.046875 -0.171875q1.421875 -0.171875 2.09375 -0.40625q0 -0.234375 0 -0.296875q0 -0.71875 -0.328125 -1.015625q-0.453125 -0.390625 -1.34375 -0.390625q-0.8125 0 -1.21875 0.296875q-0.390625 0.28125 -0.578125 1.015625l-1.140625 -0.15625q0.15625 -0.734375 0.515625 -1.1875q0.359375 -0.453125 1.03125 -0.6875q0.671875 -0.25 1.5625 -0.25q0.890625 0 1.4375 0.203125q0.5625 0.203125 0.8125 0.53125q0.265625 0.3125 0.375 0.796875q0.046875 0.296875 0.046875 1.078125l0 1.5625q0 1.625 0.078125 2.0625q0.078125 0.4375 0.296875 0.828125l-1.21875 0q-0.1875 -0.359375 -0.234375 -0.859375zm-0.09375 -2.609375q-0.640625 0.265625 -1.921875 0.4375q-0.71875 0.109375 -1.015625 0.25q-0.296875 0.125 -0.46875 0.375q-0.15625 0.25 -0.15625 0.546875q0 0.46875 0.34375 0.78125q0.359375 0.3125 1.046875 0.3125q0.671875 0 1.203125 -0.296875q0.53125 -0.296875 0.78125 -0.8125q0.1875 -0.390625 0.1875 -1.171875l0 -0.421875zm5.5531006 2.421875l0.171875 1.03125q-0.5 0.109375 -0.890625 0.109375q-0.640625 0 -1.0 -0.203125q-0.34375 -0.203125 -0.484375 -0.53125q-0.140625 -0.328125 -0.140625 -1.390625l0 -3.96875l-0.859375 0l0 -0.90625l0.859375 0l0 -1.71875l1.171875 -0.703125l0 2.421875l1.171875 0l0 0.90625l-1.171875 0l0 4.046875q0 0.5 0.046875 0.640625q0.0625 0.140625 0.203125 0.234375q0.140625 0.078125 0.40625 0.078125q0.203125 0 0.515625 -0.046875zm1.1560974 -7.140625l0 -1.359375l1.171875 0l0 1.359375l-1.171875 0zm0 8.1875l0 -6.90625l1.171875 0l0 6.90625l-1.171875 0zm2.507965 -3.453125q0 -1.921875 1.078125 -2.84375q0.890625 -0.765625 2.171875 -0.765625q1.421875 0 2.328125 0.9375q0.90625 0.921875 0.90625 2.578125q0 1.328125 -0.40625 2.09375q-0.390625 0.765625 -1.15625 1.1875q-0.765625 0.421875 -1.671875 0.421875q-1.453125 0 -2.359375 -0.921875q-0.890625 -0.9375 -0.890625 -2.6875zm1.203125 0q0 1.328125 0.578125 1.984375q0.59375 0.65625 1.46875 0.65625q0.875 0 1.453125 -0.65625q0.578125 -0.671875 0.578125 -2.03125q0 -1.28125 -0.59375 -1.9375q-0.578125 -0.65625 -1.4375 -0.65625q-0.875 0 -1.46875 0.65625q-0.578125 0.65625 -0.578125 1.984375zm6.6468506 3.453125l0 -6.90625l1.0625 0l0 0.984375q0.75 -1.140625 2.1875 -1.140625q0.625 0 1.15625 0.21875q0.53125 0.21875 0.78125 0.59375q0.265625 0.359375 0.375 0.859375q0.0625 0.328125 0.0625 1.140625l0 4.25l-1.171875 0l0 -4.203125q0 -0.71875 -0.140625 -1.0625q-0.140625 -0.359375 -0.484375 -0.5625q-0.34375 -0.21875 -0.8125 -0.21875q-0.75 0 -1.296875 0.46875q-0.546875 0.46875 -0.546875 1.796875l0 3.78125l-1.171875 0zm16.943604 -1.125l0 1.125l-6.296875 0q-0.015625 -0.421875 0.140625 -0.8125q0.234375 -0.640625 0.765625 -1.265625q0.53125 -0.625 1.53125 -1.453125q1.5625 -1.265625 2.109375 -2.015625q0.546875 -0.75 0.546875 -1.40625q0 -0.703125 -0.5 -1.171875q-0.5 -0.484375 -1.296875 -0.484375q-0.859375 0 -1.375 0.515625q-0.5 0.5 -0.5 1.390625l-1.203125 -0.109375q0.125 -1.359375 0.921875 -2.0625q0.8125 -0.703125 2.171875 -0.703125q1.375 0 2.171875 0.765625q0.8125 0.75 0.8125 1.875q0 0.578125 -0.234375 1.140625q-0.234375 0.546875 -0.78125 1.15625q-0.546875 0.609375 -1.8125 1.671875q-1.046875 0.890625 -1.359375 1.21875q-0.296875 0.3125 -0.484375 0.625l4.671875 0z" fill-rule="nonzero"/><path fill="#ffffff" d="m487.30054 223.93176l103.968506 0l0 29.291336l-103.968506 0z" fill-rule="evenodd"/><path stroke="#595959" stroke-width="1.0" stroke-linejoin="round" stroke-linecap="butt" d="m487.30054 223.93176l103.968506 0l0 29.291336l-103.968506 0z" fill-rule="evenodd"/><path fill="#000000" d="m510.8979 243.37743l0 -9.546875l1.25 0l0 9.546875l-1.25 0zm5.890503 -1.046875l0.171875 1.03125q-0.5 0.109375 -0.890625 0.109375q-0.640625 0 -1.0 -0.203125q-0.34375 -0.203125 -0.484375 -0.53125q-0.140625 -0.328125 -0.140625 -1.390625l0 -3.96875l-0.859375 0l0 -0.90625l0.859375 0l0 -1.71875l1.171875 -0.703125l0 2.421875l1.171875 0l0 0.90625l-1.171875 0l0 4.046875q0 0.5 0.046875 0.640625q0.0625 0.140625 0.203125 0.234375q0.140625 0.078125 0.40625 0.078125q0.203125 0 0.515625 -0.046875zm5.874817 -1.171875l1.203125 0.140625q-0.28125 1.0625 -1.0625 1.65625q-0.765625 0.578125 -1.96875 0.578125q-1.515625 0 -2.40625 -0.9375q-0.890625 -0.9375 -0.890625 -2.609375q0 -1.75 0.890625 -2.703125q0.90625 -0.96875 2.34375 -0.96875q1.390625 0 2.265625 0.9375q0.875 0.9375 0.875 2.65625q0 0.109375 0 0.3125l-5.15625 0q0.0625 1.140625 0.640625 1.75q0.578125 0.59375 1.4375 0.59375q0.65625 0 1.109375 -0.328125q0.453125 -0.34375 0.71875 -1.078125zm-3.84375 -1.90625l3.859375 0q-0.078125 -0.859375 -0.4375 -1.296875q-0.5625 -0.6875 -1.453125 -0.6875q-0.8125 0 -1.359375 0.546875q-0.546875 0.53125 -0.609375 1.4375zm6.5062256 4.125l0 -6.90625l1.0625 0l0 1.046875q0.40625 -0.734375 0.734375 -0.96875q0.34375 -0.234375 0.765625 -0.234375q0.59375 0 1.203125 0.375l-0.40625 1.078125q-0.4375 -0.25 -0.859375 -0.25q-0.390625 0 -0.703125 0.234375q-0.296875 0.234375 -0.421875 0.640625q-0.203125 0.625 -0.203125 1.359375l0 3.625l-1.171875 0zm8.969666 -0.859375q-0.65625 0.5625 -1.265625 0.796875q-0.59375 0.21875 -1.28125 0.21875q-1.140625 0 -1.75 -0.546875q-0.609375 -0.5625 -0.609375 -1.4375q0 -0.5 0.21875 -0.921875q0.234375 -0.421875 0.609375 -0.671875q0.375 -0.25 0.84375 -0.390625q0.34375 -0.078125 1.046875 -0.171875q1.421875 -0.171875 2.09375 -0.40625q0 -0.234375 0 -0.296875q0 -0.71875 -0.328125 -1.015625q-0.453125 -0.390625 -1.34375 -0.390625q-0.8125 0 -1.21875 0.296875q-0.390625 0.28125 -0.578125 1.015625l-1.140625 -0.15625q0.15625 -0.734375 0.515625 -1.1875q0.359375 -0.453125 1.03125 -0.6875q0.671875 -0.25 1.5625 -0.25q0.890625 0 1.4375 0.203125q0.5625 0.203125 0.8125 0.53125q0.265625 0.3125 0.375 0.796875q0.046875 0.296875 0.046875 1.078125l0 1.5625q0 1.625 0.078125 2.0625q0.078125 0.4375 0.296875 0.828125l-1.21875 0q-0.1875 -0.359375 -0.234375 -0.859375zm-0.09375 -2.609375q-0.640625 0.265625 -1.921875 0.4375q-0.71875 0.109375 -1.015625 0.25q-0.296875 0.125 -0.46875 0.375q-0.15625 0.25 -0.15625 0.546875q0 0.46875 0.34375 0.78125q0.359375 0.3125 1.046875 0.3125q0.671875 0 1.203125 -0.296875q0.53125 -0.296875 0.78125 -0.8125q0.1875 -0.390625 0.1875 -1.171875l0 -0.421875zm5.5531006 2.421875l0.171875 1.03125q-0.5 0.109375 -0.890625 0.109375q-0.640625 0 -1.0 -0.203125q-0.34375 -0.203125 -0.484375 -0.53125q-0.140625 -0.328125 -0.140625 -1.390625l0 -3.96875l-0.859375 0l0 -0.90625l0.859375 0l0 -1.71875l1.171875 -0.703125l0 2.421875l1.171875 0l0 0.90625l-1.171875 0l0 4.046875q0 0.5 0.046875 0.640625q0.0625 0.140625 0.203125 0.234375q0.140625 0.078125 0.40625 0.078125q0.203125 0 0.515625 -0.046875zm1.1560669 -7.140625l0 -1.359375l1.171875 0l0 1.359375l-1.171875 0zm0 8.1875l0 -6.90625l1.171875 0l0 6.90625l-1.171875 0zm2.5079956 -3.453125q0 -1.921875 1.078125 -2.84375q0.890625 -0.765625 2.171875 -0.765625q1.421875 0 2.328125 0.9375q0.90625 0.921875 0.90625 2.578125q0 1.328125 -0.40625 2.09375q-0.390625 0.765625 -1.15625 1.1875q-0.765625 0.421875 -1.671875 0.421875q-1.453125 0 -2.359375 -0.921875q-0.890625 -0.9375 -0.890625 -2.6875zm1.203125 0q0 1.328125 0.578125 1.984375q0.59375 0.65625 1.46875 0.65625q0.875 0 1.453125 -0.65625q0.578125 -0.671875 0.578125 -2.03125q0 -1.28125 -0.59375 -1.9375q-0.578125 -0.65625 -1.4375 -0.65625q-0.875 0 -1.46875 0.65625q-0.578125 0.65625 -0.578125 1.984375zm6.6468506 3.453125l0 -6.90625l1.0625 0l0 0.984375q0.75 -1.140625 2.1875 -1.140625q0.625 0 1.15625 0.21875q0.53125 0.21875 0.78125 0.59375q0.265625 0.359375 0.375 0.859375q0.0625 0.328125 0.0625 1.140625l0 4.25l-1.171875 0l0 -4.203125q0 -0.71875 -0.140625 -1.0625q-0.140625 -0.359375 -0.484375 -0.5625q-0.34375 -0.21875 -0.8125 -0.21875q-0.75 0 -1.296875 0.46875q-0.546875 0.46875 -0.546875 1.796875l0 3.78125l-1.171875 0zm10.8029785 -2.515625l1.171875 -0.15625q0.203125 1.0 0.6875 1.4375q0.484375 0.4375 1.171875 0.4375q0.828125 0 1.390625 -0.578125q0.578125 -0.578125 0.578125 -1.421875q0 -0.796875 -0.53125 -1.3125q-0.515625 -0.53125 -1.328125 -0.53125q-0.34375 0 -0.828125 0.125l0.125 -1.03125q0.125 0.015625 0.1875 0.015625q0.75 0 1.34375 -0.390625q0.609375 -0.390625 0.609375 -1.203125q0 -0.640625 -0.4375 -1.0625q-0.4375 -0.421875 -1.125 -0.421875q-0.6875 0 -1.140625 0.4375q-0.453125 0.421875 -0.59375 1.28125l-1.171875 -0.21875q0.21875 -1.171875 0.984375 -1.8125q0.765625 -0.65625 1.890625 -0.65625q0.78125 0 1.4375 0.34375q0.65625 0.328125 1.0 0.90625q0.359375 0.578125 0.359375 1.234375q0 0.609375 -0.34375 1.125q-0.328125 0.5 -0.96875 0.796875q0.84375 0.203125 1.3125 0.828125q0.46875 0.609375 0.46875 1.53125q0 1.25 -0.921875 2.125q-0.90625 0.859375 -2.296875 0.859375q-1.25 0 -2.09375 -0.75q-0.828125 -0.75 -0.9375 -1.9375z" fill-rule="nonzero"/><path fill="#ccccff" d="m324.80292 15.7481575l0 0c6.0274353 -3.4790287 13.734222 -1.4133139 17.213593 4.613903l76.21896 132.03178c1.6708374 2.8943787 2.1234436 6.3338776 1.2582092 9.561859c-0.86520386 3.2279816 -2.9773865 5.9800262 -5.8718567 7.6507263l-43.653107 25.196594c-6.027405 3.4790344 -13.734192 1.4133148 -17.213562 -4.613907l-76.21896 -132.03178c-3.47937 -6.027218 -1.4137878 -13.733551 4.613617 -17.212582z" fill-rule="evenodd"/><path stroke="#595959" stroke-width="1.0" stroke-linejoin="round" stroke-linecap="butt" d="m324.80292 15.7481575l0 0c6.0274353 -3.4790287 13.734222 -1.4133139 17.213593 4.613903l76.21896 132.03178c1.6708374 2.8943787 2.1234436 6.3338776 1.2582092 9.561859c-0.86520386 3.2279816 -2.9773865 5.9800262 -5.8718567 7.6507263l-43.653107 25.196594c-6.027405 3.4790344 -13.734192 1.4133148 -17.213562 -4.613907l-76.21896 -132.03178c-3.47937 -6.027218 -1.4137878 -13.733551 4.613617 -17.212582z" fill-rule="evenodd"/><path fill="#000000" d="m355.94363 82.59268l8.2413025 -4.7568893l-1.7029724 -2.9499893l1.6780396 -0.9685669l4.5542603 7.8891983l-1.6780396 0.9685669l-1.6951599 -2.9364624l-8.2413025 4.7568893l-1.1561279 -2.0027466zm4.194916 7.2667236l-1.0936584 -1.8944931l7.1857605 -4.147629l1.0155334 1.7591705l-1.0149231 0.58582306q0.9828186 0.04610443 1.4159851 0.26515198q0.4409485 0.23258209 0.70654297 0.6926727q0.37496948 0.64953613 0.3746643 1.4615631l-2.0082092 0.3653412q0.03781128 -0.65327454 -0.2043457 -1.0727692q-0.22653198 -0.39242554 -0.6071167 -0.5516281q-0.3727417 -0.1456604 -1.0483704 0.027824402q-0.6621094 0.1656723 -2.502533 1.2279663l-2.2193298 1.2810059zm7.879944 2.1178436l-0.68865967 -1.9117584q1.2138672 -0.30373383 2.120758 0.11092377q0.9147339 0.42819214 1.7193604 1.8219986q0.73428345 1.2720184 0.79592896 2.06633q0.06161499 0.79431915 -0.26361084 1.3248138q-0.31167603 0.5226822 -1.5431213 1.2334824l-2.2349548 1.2539368q-0.94729614 0.5467682 -1.3527222 0.90706635q-0.39187622 0.35248566 -0.7655029 0.8928833l-1.085846 -1.8809586q0.15042114 -0.17701721 0.4668274 -0.50398254q0.13113403 -0.14785767 0.17745972 -0.19263458q-0.7548523 -0.213768 -1.3187256 -0.6279907q-0.550354 -0.4220276 -0.91748047 -1.0580292q-0.64056396 -1.1096344 -0.41229248 -2.089325q0.24179077 -0.98750305 1.1620178 -1.5186462q0.60894775 -0.35149384 1.2466431 -0.34070587q0.6590271 0.01651001 1.1994629 0.3901291q0.5617676 0.37934113 1.3215027 1.2578354q1.0304871 1.1912613 1.5438538 1.5805054l0.18945312 -0.10935211q0.5412903 -0.31243896 0.6151123 -0.7158661q0.08734131 -0.41123962 -0.35012817 -1.1690369q-0.28903198 -0.50068665 -0.6560669 -0.6676941q-0.3670349 -0.16700745 -0.9692688 -0.05392456zm-0.07409668 3.4344864q-0.33273315 -0.29506683 -0.96954346 -0.9919205q-0.6154785 -0.69112396 -0.91845703 -0.8409729q-0.4758606 -0.23049164 -0.88183594 0.0038375854q-0.40597534 0.23432922 -0.53182983 0.7038803q-0.112335205 0.4617386 0.1532898 0.9218292q0.29684448 0.51421356 0.90856934 0.7925644q0.45239258 0.18989563 0.8937988 0.079444885q0.2904663 -0.059410095 0.96710205 -0.4499588l0.37890625 -0.21870422zm6.8692627 1.0233994l1.7592163 -1.0154343l1.0936584 1.8944931l-1.7592163 1.0154266l-1.0936584 -1.8944855zm-8.160126 4.7100143l7.185791 -4.147629l1.0936279 1.8944931l-7.1857605 4.147629l-1.0936584 -1.8944931zm5.9955444 10.385872l-1.101471 -1.9080276l3.667328 -2.1167755q1.1637878 -0.6717377 1.4317932 -0.9888077q0.28155518 -0.32486725 0.3147583 -0.7048645q0.033233643 -0.37999725 -0.19332886 -0.7724304q-0.28121948 -0.4871521 -0.77841187 -0.72335815q-0.49719238 -0.23621368 -1.0296936 -0.12730408q-0.5325012 0.10890961 -1.7368774 0.8040848l-3.2613525 1.8824463l-1.0936584 -1.8944855l7.185791 -4.1476364l1.0155334 1.7591705l-1.055542 0.60926056q1.76474 0.24425507 2.5849915 1.665123q0.36712646 0.6360092 0.43392944 1.2830124q0.088134766 0.6527252 -0.11526489 1.1129227q-0.19561768 0.47372437 -0.5797119 0.83974457q-0.38406372 0.3660202 -1.2230835 0.850296l-4.4657288 2.577629z" fill-rule="nonzero"/><path fill="#ffcccc" d="m259.90976 128.8882l0 0c0 -3.2180328 2.658081 -5.826767 5.9370117 -5.826767l0 0c1.574585 0 3.0846863 0.6138916 4.1980896 1.7066269c1.1134033 1.0927277 1.7389221 2.574791 1.7389221 4.12014l0 0c0 3.218048 -2.658081 5.826782 -5.9370117 5.826782l0 0c-3.2789307 0 -5.9370117 -2.6087341 -5.9370117 -5.826782z" fill-rule="evenodd"/><path stroke="#595959" stroke-width="1.0" stroke-linejoin="round" stroke-linecap="butt" d="m259.90976 128.8882l0 0c0 -3.2180328 2.658081 -5.826767 5.9370117 -5.826767l0 0c1.574585 0 3.0846863 0.6138916 4.1980896 1.7066269c1.1134033 1.0927277 1.7389221 2.574791 1.7389221 4.12014l0 0c0 3.218048 -2.658081 5.826782 -5.9370117 5.826782l0 0c-3.2789307 0 -5.9370117 -2.6087341 -5.9370117 -5.826782z" fill-rule="evenodd"/><path fill="#ffcccc" d="m270.4275 140.55588l0 0c0 -3.2180328 2.658081 -5.826767 5.9370117 -5.826767l0 0c1.574585 0 3.0846863 0.6138916 4.1980896 1.7066193c1.1134033 1.0927277 1.7389221 2.5747986 1.7389221 4.1201477l0 0c0 3.218048 -2.658081 5.826782 -5.9370117 5.826782l0 0c-3.2789307 0 -5.9370117 -2.6087341 -5.9370117 -5.826782z" fill-rule="evenodd"/><path stroke="#595959" stroke-width="1.0" stroke-linejoin="round" stroke-linecap="butt" d="m270.4275 140.55588l0 0c0 -3.2180328 2.658081 -5.826767 5.9370117 -5.826767l0 0c1.574585 0 3.0846863 0.6138916 4.1980896 1.7066193c1.1134033 1.0927277 1.7389221 2.5747986 1.7389221 4.1201477l0 0c0 3.218048 -2.658081 5.826782 -5.9370117 5.826782l0 0c-3.2789307 0 -5.9370117 -2.6087341 -5.9370117 -5.826782z" fill-rule="evenodd"/><path fill="#ffcccc" d="m259.90976 152.22356l0 0c0 -3.2180328 2.658081 -5.826767 5.9370117 -5.826767l0 0c1.574585 0 3.0846863 0.6138916 4.1980896 1.7066193c1.1134033 1.0927277 1.7389221 2.5747986 1.7389221 4.1201477l0 0c0 3.2180328 -2.658081 5.826767 -5.9370117 5.826767l0 0c-3.2789307 0 -5.9370117 -2.6087341 -5.9370117 -5.826767z" fill-rule="evenodd"/><path stroke="#595959" stroke-width="1.0" stroke-linejoin="round" stroke-linecap="butt" d="m259.90976 152.22356l0 0c0 -3.2180328 2.658081 -5.826767 5.9370117 -5.826767l0 0c1.574585 0 3.0846863 0.6138916 4.1980896 1.7066193c1.1134033 1.0927277 1.7389221 2.5747986 1.7389221 4.1201477l0 0c0 3.2180328 -2.658081 5.826767 -5.9370117 5.826767l0 0c-3.2789307 0 -5.9370117 -2.6087341 -5.9370117 -5.826767z" fill-rule="evenodd"/><path fill="#ffcccc" d="m282.291 124.33528l0 0c0 -3.2180328 2.6581116 -5.826767 5.9370117 -5.826767l0 0c1.5746155 0 3.0847168 0.6138916 4.19812 1.7066193c1.1134033 1.0927353 1.7388916 2.574791 1.7388916 4.1201477l0 0c0 3.2180405 -2.658081 5.826767 -5.9370117 5.826767l0 0c-3.2789001 0 -5.9370117 -2.6087265 -5.9370117 -5.826767z" fill-rule="evenodd"/><path stroke="#595959" stroke-width="1.0" stroke-linejoin="round" stroke-linecap="butt" d="m282.291 124.33528l0 0c0 -3.2180328 2.6581116 -5.826767 5.9370117 -5.826767l0 0c1.5746155 0 3.0847168 0.6138916 4.19812 1.7066193c1.1134033 1.0927353 1.7388916 2.574791 1.7388916 4.1201477l0 0c0 3.2180405 -2.658081 5.826767 -5.9370117 5.826767l0 0c-3.2789001 0 -5.9370117 -2.6087265 -5.9370117 -5.826767z" fill-rule="evenodd"/><path fill="#ffcccc" d="m277.74814 156.77647l0 0c0 -3.2180328 2.6581116 -5.826767 5.9370117 -5.826767l0 0c1.5746155 0 3.0847168 0.6138916 4.19812 1.7066193c1.1134033 1.0927277 1.7388916 2.5747986 1.7388916 4.1201477l0 0c0 3.218048 -2.658081 5.826782 -5.9370117 5.826782l0 0c-3.2789001 0 -5.9370117 -2.6087341 -5.9370117 -5.826782z" fill-rule="evenodd"/><path stroke="#595959" stroke-width="1.0" stroke-linejoin="round" stroke-linecap="butt" d="m277.74814 156.77647l0 0c0 -3.2180328 2.6581116 -5.826767 5.9370117 -5.826767l0 0c1.5746155 0 3.0847168 0.6138916 4.19812 1.7066193c1.1134033 1.0927277 1.7388916 2.5747986 1.7388916 4.1201477l0 0c0 3.218048 -2.658081 5.826782 -5.9370117 5.826782l0 0c-3.2789001 0 -5.9370117 -2.6087341 -5.9370117 -5.826782z" fill-rule="evenodd"/><path fill="#ffcccc" d="m289.61166 140.55588l0 0c0 -3.2180328 2.658081 -5.826767 5.9370117 -5.826767l0 0c1.574585 0 3.0846863 0.6138916 4.1980896 1.7066193c1.1134033 1.0927277 1.7388916 2.5747986 1.7388916 4.1201477l0 0c0 3.218048 -2.658081 5.826782 -5.936981 5.826782l0 0c-3.2789307 0 -5.9370117 -2.6087341 -5.9370117 -5.826782z" fill-rule="evenodd"/><path stroke="#595959" stroke-width="1.0" stroke-linejoin="round" stroke-linecap="butt" d="m289.61166 140.55588l0 0c0 -3.2180328 2.658081 -5.826767 5.9370117 -5.826767l0 0c1.574585 0 3.0846863 0.6138916 4.1980896 1.7066193c1.1134033 1.0927277 1.7388916 2.5747986 1.7388916 4.1201477l0 0c0 3.218048 -2.658081 5.826782 -5.936981 5.826782l0 0c-3.2789307 0 -5.9370117 -2.6087341 -5.9370117 -5.826782z" fill-rule="evenodd"/><path fill="#ffcccc" d="m248.04626 140.55588l0 0c0 -3.2180328 2.658081 -5.826767 5.9370117 -5.826767l0 0c1.574585 0 3.0846863 0.6138916 4.1980896 1.7066193c1.1134033 1.0927277 1.7389221 2.5747986 1.7389221 4.1201477l0 0c0 3.218048 -2.6581116 5.826782 -5.9370117 5.826782l0 0c-3.2789307 0 -5.9370117 -2.6087341 -5.9370117 -5.826782z" fill-rule="evenodd"/><path stroke="#595959" stroke-width="1.0" stroke-linejoin="round" stroke-linecap="butt" d="m248.04626 140.55588l0 0c0 -3.2180328 2.658081 -5.826767 5.9370117 -5.826767l0 0c1.574585 0 3.0846863 0.6138916 4.1980896 1.7066193c1.1134033 1.0927277 1.7389221 2.5747986 1.7389221 4.1201477l0 0c0 3.218048 -2.6581116 5.826782 -5.9370117 5.826782l0 0c-3.2789307 0 -5.9370117 -2.6087341 -5.9370117 -5.826782z" fill-rule="evenodd"/><path fill="#ffcccc" d="m295.58655 156.77647l0 0c0 -3.2180328 2.658081 -5.826767 5.9370117 -5.826767l0 0c1.574585 0 3.0846863 0.6138916 4.1980896 1.7066193c1.1134033 1.0927277 1.7388916 2.5747986 1.7388916 4.1201477l0 0c0 3.218048 -2.658081 5.826782 -5.936981 5.826782l0 0c-3.2789307 0 -5.9370117 -2.6087341 -5.9370117 -5.826782z" fill-rule="evenodd"/><path stroke="#595959" stroke-width="1.0" stroke-linejoin="round" stroke-linecap="butt" d="m295.58655 156.77647l0 0c0 -3.2180328 2.658081 -5.826767 5.9370117 -5.826767l0 0c1.574585 0 3.0846863 0.6138916 4.1980896 1.7066193c1.1134033 1.0927277 1.7388916 2.5747986 1.7388916 4.1201477l0 0c0 3.218048 -2.658081 5.826782 -5.936981 5.826782l0 0c-3.2789307 0 -5.9370117 -2.6087341 -5.9370117 -5.826782z" fill-rule="evenodd"/><path fill="#ffcccc" d="m265.88464 168.44415l0 0c0 -3.2180328 2.658081 -5.826767 5.9370117 -5.826767l0 0c1.574585 0 3.0846863 0.6138916 4.1980896 1.7066193c1.1134033 1.0927277 1.7389221 2.5747986 1.7389221 4.1201477l0 0c0 3.2180328 -2.658081 5.826767 -5.9370117 5.826767l0 0c-3.2789307 0 -5.9370117 -2.6087341 -5.9370117 -5.826767z" fill-rule="evenodd"/><path stroke="#595959" stroke-width="1.0" stroke-linejoin="round" stroke-linecap="butt" d="m265.88464 168.44415l0 0c0 -3.2180328 2.658081 -5.826767 5.9370117 -5.826767l0 0c1.574585 0 3.0846863 0.6138916 4.1980896 1.7066193c1.1134033 1.0927277 1.7389221 2.5747986 1.7389221 4.1201477l0 0c0 3.2180328 -2.658081 5.826767 -5.9370117 5.826767l0 0c-3.2789307 0 -5.9370117 -2.6087341 -5.9370117 -5.826767z" fill-rule="evenodd"/><path fill="#d9f2cc" d="m303.22845 54.5309l0 0c0 -3.2180367 2.658081 -5.826771 5.9370117 -5.826771l0 0c1.574585 0 3.0846863 0.6138916 4.1980896 1.7066231c1.1134033 1.0927315 1.7389221 2.574791 1.7389221 4.1201477l0 0c0 3.2180367 -2.658081 5.826771 -5.9370117 5.826771l0 0c-3.2789307 0 -5.9370117 -2.6087341 -5.9370117 -5.826771z" fill-rule="evenodd"/><path stroke="#595959" stroke-width="1.0" stroke-linejoin="round" stroke-linecap="butt" d="m303.22845 54.5309l0 0c0 -3.2180367 2.658081 -5.826771 5.9370117 -5.826771l0 0c1.574585 0 3.0846863 0.6138916 4.1980896 1.7066231c1.1134033 1.0927315 1.7389221 2.574791 1.7389221 4.1201477l0 0c0 3.2180367 -2.658081 5.826771 -5.9370117 5.826771l0 0c-3.2789307 0 -5.9370117 -2.6087341 -5.9370117 -5.826771z" fill-rule="evenodd"/><path fill="#d9f2cc" d="m313.7462 66.19858l0 0c0 -3.2180405 2.658081 -5.8267746 5.9370117 -5.8267746l0 0c1.574585 0 3.0846863 0.6138878 4.1980896 1.7066231c1.1134033 1.0927315 1.7389221 2.5747948 1.7389221 4.1201515l0 0c0 3.2180328 -2.658081 5.826767 -5.9370117 5.826767l0 0c-3.2789307 0 -5.9370117 -2.6087341 -5.9370117 -5.826767z" fill-rule="evenodd"/><path stroke="#595959" stroke-width="1.0" stroke-linejoin="round" stroke-linecap="butt" d="m313.7462 66.19858l0 0c0 -3.2180405 2.658081 -5.8267746 5.9370117 -5.8267746l0 0c1.574585 0 3.0846863 0.6138878 4.1980896 1.7066231c1.1134033 1.0927315 1.7389221 2.5747948 1.7389221 4.1201515l0 0c0 3.2180328 -2.658081 5.826767 -5.9370117 5.826767l0 0c-3.2789307 0 -5.9370117 -2.6087341 -5.9370117 -5.826767z" fill-rule="evenodd"/><path fill="#d9f2cc" d="m303.22845 77.86625l0 0c0 -3.2180405 2.658081 -5.8267746 5.9370117 -5.8267746l0 0c1.574585 0 3.0846863 0.6138916 4.1980896 1.7066269c1.1134033 1.0927277 1.7389221 2.574791 1.7389221 4.1201477l0 0c0 3.2180405 -2.658081 5.8267746 -5.9370117 5.8267746l0 0c-3.2789307 0 -5.9370117 -2.6087341 -5.9370117 -5.8267746z" fill-rule="evenodd"/><path stroke="#595959" stroke-width="1.0" stroke-linejoin="round" stroke-linecap="butt" d="m303.22845 77.86625l0 0c0 -3.2180405 2.658081 -5.8267746 5.9370117 -5.8267746l0 0c1.574585 0 3.0846863 0.6138916 4.1980896 1.7066269c1.1134033 1.0927277 1.7389221 2.574791 1.7389221 4.1201477l0 0c0 3.2180405 -2.658081 5.8267746 -5.9370117 5.8267746l0 0c-3.2789307 0 -5.9370117 -2.6087341 -5.9370117 -5.8267746z" fill-rule="evenodd"/><path fill="#d9f2cc" d="m325.60968 49.977978l0 0c0 -3.2180367 2.6581116 -5.826771 5.9370117 -5.826771l0 0c1.5746155 0 3.0847168 0.6138878 4.19812 1.7066193c1.1134033 1.0927315 1.7388916 2.5747948 1.7388916 4.1201515l0 0c0 3.2180367 -2.658081 5.826771 -5.9370117 5.826771l0 0c-3.2789001 0 -5.9370117 -2.6087341 -5.9370117 -5.826771z" fill-rule="evenodd"/><path stroke="#595959" stroke-width="1.0" stroke-linejoin="round" stroke-linecap="butt" d="m325.60968 49.977978l0 0c0 -3.2180367 2.6581116 -5.826771 5.9370117 -5.826771l0 0c1.5746155 0 3.0847168 0.6138878 4.19812 1.7066193c1.1134033 1.0927315 1.7388916 2.5747948 1.7388916 4.1201515l0 0c0 3.2180367 -2.658081 5.826771 -5.9370117 5.826771l0 0c-3.2789001 0 -5.9370117 -2.6087341 -5.9370117 -5.826771z" fill-rule="evenodd"/><path fill="#d9f2cc" d="m321.06683 82.419174l0 0c0 -3.2180405 2.6581116 -5.8267746 5.9370117 -5.8267746l0 0c1.5746155 0 3.0847168 0.6138916 4.19812 1.7066193c1.1134033 1.0927353 1.7388916 2.5747986 1.7388916 4.1201553l0 0c0 3.2180328 -2.658081 5.826767 -5.9370117 5.826767l0 0c-3.2789001 0 -5.9370117 -2.6087341 -5.9370117 -5.826767z" fill-rule="evenodd"/><path stroke="#595959" stroke-width="1.0" stroke-linejoin="round" stroke-linecap="butt" d="m321.06683 82.419174l0 0c0 -3.2180405 2.6581116 -5.8267746 5.9370117 -5.8267746l0 0c1.5746155 0 3.0847168 0.6138916 4.19812 1.7066193c1.1134033 1.0927353 1.7388916 2.5747986 1.7388916 4.1201553l0 0c0 3.2180328 -2.658081 5.826767 -5.9370117 5.826767l0 0c-3.2789001 0 -5.9370117 -2.6087341 -5.9370117 -5.826767z" fill-rule="evenodd"/><path fill="#d9f2cc" d="m332.93036 66.19858l0 0c0 -3.2180405 2.658081 -5.8267746 5.9370117 -5.8267746l0 0c1.574585 0 3.0846863 0.6138878 4.1980896 1.7066231c1.1134033 1.0927315 1.7388916 2.5747948 1.7388916 4.1201515l0 0c0 3.2180328 -2.658081 5.826767 -5.936981 5.826767l0 0c-3.2789307 0 -5.9370117 -2.6087341 -5.9370117 -5.826767z" fill-rule="evenodd"/><path stroke="#595959" stroke-width="1.0" stroke-linejoin="round" stroke-linecap="butt" d="m332.93036 66.19858l0 0c0 -3.2180405 2.658081 -5.8267746 5.9370117 -5.8267746l0 0c1.574585 0 3.0846863 0.6138878 4.1980896 1.7066231c1.1134033 1.0927315 1.7388916 2.5747948 1.7388916 4.1201515l0 0c0 3.2180328 -2.658081 5.826767 -5.936981 5.826767l0 0c-3.2789307 0 -5.9370117 -2.6087341 -5.9370117 -5.826767z" fill-rule="evenodd"/><path fill="#d9f2cc" d="m291.36496 66.19858l0 0c0 -3.2180405 2.658081 -5.8267746 5.9370117 -5.8267746l0 0c1.574585 0 3.0846863 0.6138878 4.1980896 1.7066231c1.1134033 1.0927315 1.7389221 2.5747948 1.7389221 4.1201515l0 0c0 3.2180328 -2.6581116 5.826767 -5.9370117 5.826767l0 0c-3.2789307 0 -5.9370117 -2.6087341 -5.9370117 -5.826767z" fill-rule="evenodd"/><path stroke="#595959" stroke-width="1.0" stroke-linejoin="round" stroke-linecap="butt" d="m291.36496 66.19858l0 0c0 -3.2180405 2.658081 -5.8267746 5.9370117 -5.8267746l0 0c1.574585 0 3.0846863 0.6138878 4.1980896 1.7066231c1.1134033 1.0927315 1.7389221 2.5747948 1.7389221 4.1201515l0 0c0 3.2180328 -2.6581116 5.826767 -5.9370117 5.826767l0 0c-3.2789307 0 -5.9370117 -2.6087341 -5.9370117 -5.826767z" fill-rule="evenodd"/><path fill="#d9f2cc" d="m338.90524 82.419174l0 0c0 -3.2180405 2.658081 -5.8267746 5.9370117 -5.8267746l0 0c1.574585 0 3.0846863 0.6138916 4.1980896 1.7066193c1.1134033 1.0927353 1.7388916 2.5747986 1.7388916 4.1201553l0 0c0 3.2180328 -2.658081 5.826767 -5.936981 5.826767l0 0c-3.2789307 0 -5.9370117 -2.6087341 -5.9370117 -5.826767z" fill-rule="evenodd"/><path stroke="#595959" stroke-width="1.0" stroke-linejoin="round" stroke-linecap="butt" d="m338.90524 82.419174l0 0c0 -3.2180405 2.658081 -5.8267746 5.9370117 -5.8267746l0 0c1.574585 0 3.0846863 0.6138916 4.1980896 1.7066193c1.1134033 1.0927353 1.7388916 2.5747986 1.7388916 4.1201553l0 0c0 3.2180328 -2.658081 5.826767 -5.936981 5.826767l0 0c-3.2789307 0 -5.9370117 -2.6087341 -5.9370117 -5.826767z" fill-rule="evenodd"/><path fill="#d9f2cc" d="m309.20334 94.086845l0 0c0 -3.2180328 2.658081 -5.8267746 5.9370117 -5.8267746l0 0c1.574585 0 3.0846863 0.6138916 4.1980896 1.7066269c1.1134033 1.0927277 1.7389221 2.574791 1.7389221 4.1201477l0 0c0 3.2180405 -2.658081 5.8267746 -5.9370117 5.8267746l0 0c-3.2789307 0 -5.9370117 -2.6087341 -5.9370117 -5.8267746z" fill-rule="evenodd"/><path stroke="#595959" stroke-width="1.0" stroke-linejoin="round" stroke-linecap="butt" d="m309.20334 94.086845l0 0c0 -3.2180328 2.658081 -5.8267746 5.9370117 -5.8267746l0 0c1.574585 0 3.0846863 0.6138916 4.1980896 1.7066269c1.1134033 1.0927277 1.7389221 2.574791 1.7389221 4.1201477l0 0c0 3.2180405 -2.658081 5.8267746 -5.9370117 5.8267746l0 0c-3.2789307 0 -5.9370117 -2.6087341 -5.9370117 -5.8267746z" fill-rule="evenodd"/><path fill="#fff1d0" d="m350.28033 128.81918l0 0c0 -3.2180328 2.658081 -5.826767 5.9370117 -5.826767l0 0c1.574585 0 3.0846863 0.613884 4.1980896 1.7066193c1.1134033 1.0927277 1.7389221 2.574791 1.7389221 4.1201477l0 0c0 3.2180328 -2.658081 5.826767 -5.9370117 5.826767l0 0c-3.2789307 0 -5.9370117 -2.6087341 -5.9370117 -5.826767z" fill-rule="evenodd"/><path stroke="#595959" stroke-width="1.0" stroke-linejoin="round" stroke-linecap="butt" d="m350.28033 128.81918l0 0c0 -3.2180328 2.658081 -5.826767 5.9370117 -5.826767l0 0c1.574585 0 3.0846863 0.613884 4.1980896 1.7066193c1.1134033 1.0927277 1.7389221 2.574791 1.7389221 4.1201477l0 0c0 3.2180328 -2.658081 5.826767 -5.9370117 5.826767l0 0c-3.2789307 0 -5.9370117 -2.6087341 -5.9370117 -5.826767z" fill-rule="evenodd"/><path fill="#fff1d0" d="m360.79807 140.48686l0 0c0 -3.2180328 2.658081 -5.826767 5.9370117 -5.826767l0 0c1.574585 0 3.0846863 0.61387634 4.1980896 1.7066193c1.1134033 1.0927277 1.7389221 2.5747833 1.7389221 4.1201477l0 0c0 3.2180328 -2.6581116 5.826767 -5.9370117 5.826767l0 0c-3.2789307 0 -5.9370117 -2.6087341 -5.9370117 -5.826767z" fill-rule="evenodd"/><path stroke="#595959" stroke-width="1.0" stroke-linejoin="round" stroke-linecap="butt" d="m360.79807 140.48686l0 0c0 -3.2180328 2.658081 -5.826767 5.9370117 -5.826767l0 0c1.574585 0 3.0846863 0.61387634 4.1980896 1.7066193c1.1134033 1.0927277 1.7389221 2.5747833 1.7389221 4.1201477l0 0c0 3.2180328 -2.6581116 5.826767 -5.9370117 5.826767l0 0c-3.2789307 0 -5.9370117 -2.6087341 -5.9370117 -5.826767z" fill-rule="evenodd"/><path fill="#fff1d0" d="m350.28033 152.15454l0 0c0 -3.218048 2.658081 -5.826782 5.9370117 -5.826782l0 0c1.574585 0 3.0846863 0.6138916 4.1980896 1.7066193c1.1134033 1.0927429 1.7389221 2.5747986 1.7389221 4.120163l0 0c0 3.2180328 -2.658081 5.826767 -5.9370117 5.826767l0 0c-3.2789307 0 -5.9370117 -2.6087341 -5.9370117 -5.826767z" fill-rule="evenodd"/><path stroke="#595959" stroke-width="1.0" stroke-linejoin="round" stroke-linecap="butt" d="m350.28033 152.15454l0 0c0 -3.218048 2.658081 -5.826782 5.9370117 -5.826782l0 0c1.574585 0 3.0846863 0.6138916 4.1980896 1.7066193c1.1134033 1.0927429 1.7389221 2.5747986 1.7389221 4.120163l0 0c0 3.2180328 -2.658081 5.826767 -5.9370117 5.826767l0 0c-3.2789307 0 -5.9370117 -2.6087341 -5.9370117 -5.826767z" fill-rule="evenodd"/><path fill="#fff1d0" d="m372.66156 124.266266l0 0c0 -3.2180405 2.658081 -5.8267746 5.9370117 -5.8267746l0 0c1.574585 0 3.0846863 0.6138916 4.1980896 1.7066193c1.1134033 1.0927353 1.7389221 2.5747986 1.7389221 4.1201553l0 0c0 3.2180328 -2.658081 5.826767 -5.9370117 5.826767l0 0c-3.2789307 0 -5.9370117 -2.6087341 -5.9370117 -5.826767z" fill-rule="evenodd"/><path stroke="#595959" stroke-width="1.0" stroke-linejoin="round" stroke-linecap="butt" d="m372.66156 124.266266l0 0c0 -3.2180405 2.658081 -5.8267746 5.9370117 -5.8267746l0 0c1.574585 0 3.0846863 0.6138916 4.1980896 1.7066193c1.1134033 1.0927353 1.7389221 2.5747986 1.7389221 4.1201553l0 0c0 3.2180328 -2.658081 5.826767 -5.9370117 5.826767l0 0c-3.2789307 0 -5.9370117 -2.6087341 -5.9370117 -5.826767z" fill-rule="evenodd"/><path fill="#fff1d0" d="m368.1187 156.70746l0 0c0 -3.2180328 2.6581116 -5.826767 5.9370117 -5.826767l0 0c1.574585 0 3.0846863 0.6138916 4.1980896 1.7066193c1.1134033 1.0927277 1.7389221 2.5747833 1.7389221 4.1201477l0 0c0 3.2180328 -2.658081 5.826767 -5.9370117 5.826767l0 0c-3.2789001 0 -5.9370117 -2.6087341 -5.9370117 -5.826767z" fill-rule="evenodd"/><path stroke="#595959" stroke-width="1.0" stroke-linejoin="round" stroke-linecap="butt" d="m368.1187 156.70746l0 0c0 -3.2180328 2.6581116 -5.826767 5.9370117 -5.826767l0 0c1.574585 0 3.0846863 0.6138916 4.1980896 1.7066193c1.1134033 1.0927277 1.7389221 2.5747833 1.7389221 4.1201477l0 0c0 3.2180328 -2.658081 5.826767 -5.9370117 5.826767l0 0c-3.2789001 0 -5.9370117 -2.6087341 -5.9370117 -5.826767z" fill-rule="evenodd"/><path fill="#fff1d0" d="m379.98224 140.48686l0 0c0 -3.2180328 2.658081 -5.826767 5.936981 -5.826767l0 0c1.5746155 0 3.0847168 0.61387634 4.19812 1.7066193c1.1134033 1.0927277 1.7388916 2.5747833 1.7388916 4.1201477l0 0c0 3.2180328 -2.658081 5.826767 -5.9370117 5.826767l0 0c-3.2789001 0 -5.936981 -2.6087341 -5.936981 -5.826767z" fill-rule="evenodd"/><path stroke="#595959" stroke-width="1.0" stroke-linejoin="round" stroke-linecap="butt" d="m379.98224 140.48686l0 0c0 -3.2180328 2.658081 -5.826767 5.936981 -5.826767l0 0c1.5746155 0 3.0847168 0.61387634 4.19812 1.7066193c1.1134033 1.0927277 1.7388916 2.5747833 1.7388916 4.1201477l0 0c0 3.2180328 -2.658081 5.826767 -5.9370117 5.826767l0 0c-3.2789001 0 -5.936981 -2.6087341 -5.936981 -5.826767z" fill-rule="evenodd"/><path fill="#fff1d0" d="m338.41684 140.48686l0 0c0 -3.2180328 2.658081 -5.826767 5.9370117 -5.826767l0 0c1.574585 0 3.0846863 0.61387634 4.1980896 1.7066193c1.1134033 1.0927277 1.7389221 2.5747833 1.7389221 4.1201477l0 0c0 3.2180328 -2.6581116 5.826767 -5.9370117 5.826767l0 0c-3.2789307 0 -5.9370117 -2.6087341 -5.9370117 -5.826767z" fill-rule="evenodd"/><path stroke="#595959" stroke-width="1.0" stroke-linejoin="round" stroke-linecap="butt" d="m338.41684 140.48686l0 0c0 -3.2180328 2.658081 -5.826767 5.9370117 -5.826767l0 0c1.574585 0 3.0846863 0.61387634 4.1980896 1.7066193c1.1134033 1.0927277 1.7389221 2.5747833 1.7389221 4.1201477l0 0c0 3.2180328 -2.6581116 5.826767 -5.9370117 5.826767l0 0c-3.2789307 0 -5.9370117 -2.6087341 -5.9370117 -5.826767z" fill-rule="evenodd"/><path fill="#fff1d0" d="m385.95712 156.70746l0 0c0 -3.2180328 2.658081 -5.826767 5.936981 -5.826767l0 0c1.5746155 0 3.0847168 0.6138916 4.19812 1.7066193c1.1134033 1.0927277 1.7388916 2.5747833 1.7388916 4.1201477l0 0c0 3.2180328 -2.658081 5.826767 -5.9370117 5.826767l0 0c-3.2789001 0 -5.936981 -2.6087341 -5.936981 -5.826767z" fill-rule="evenodd"/><path stroke="#595959" stroke-width="1.0" stroke-linejoin="round" stroke-linecap="butt" d="m385.95712 156.70746l0 0c0 -3.2180328 2.658081 -5.826767 5.936981 -5.826767l0 0c1.5746155 0 3.0847168 0.6138916 4.19812 1.7066193c1.1134033 1.0927277 1.7388916 2.5747833 1.7388916 4.1201477l0 0c0 3.2180328 -2.658081 5.826767 -5.9370117 5.826767l0 0c-3.2789001 0 -5.936981 -2.6087341 -5.936981 -5.826767z" fill-rule="evenodd"/><path fill="#fff1d0" d="m356.25522 168.37514l0 0c0 -3.218048 2.658081 -5.826782 5.9370117 -5.826782l0 0c1.574585 0 3.0846863 0.6138916 4.1980896 1.7066345c1.1134033 1.0927277 1.7389221 2.5747833 1.7389221 4.1201477l0 0c0 3.2180328 -2.658081 5.826767 -5.9370117 5.826767l0 0c-3.2789307 0 -5.9370117 -2.6087341 -5.9370117 -5.826767z" fill-rule="evenodd"/><path stroke="#595959" stroke-width="1.0" stroke-linejoin="round" stroke-linecap="butt" d="m356.25522 168.37514l0 0c0 -3.218048 2.658081 -5.826782 5.9370117 -5.826782l0 0c1.574585 0 3.0846863 0.6138916 4.1980896 1.7066345c1.1134033 1.0927277 1.7389221 2.5747833 1.7389221 4.1201477l0 0c0 3.2180328 -2.658081 5.826767 -5.9370117 5.826767l0 0c-3.2789307 0 -5.9370117 -2.6087341 -5.9370117 -5.826767z" fill-rule="evenodd"/><path fill="#ccccff" d="m453.5433 127.86902l0 0c0 -6.958061 5.640625 -12.597679 12.598694 -12.596443l152.4404 0.027030945c3.3414307 5.874634E-4 6.5458984 1.3285141 8.90863 3.6916428c2.362732 2.3631287 3.6900635 5.5678864 3.6900635 8.909264l0 50.393204c0 6.9580536 -5.640625 12.5976715 -12.598694 12.596436l-152.4404 -0.027023315c-6.958069 -0.0012359619 -12.598694 -5.642853 -12.598694 -12.600906z" fill-rule="evenodd"/><path stroke="#595959" stroke-width="1.0" stroke-linejoin="round" stroke-linecap="butt" d="m453.5433 127.86902l0 0c0 -6.958061 5.640625 -12.597679 12.598694 -12.596443l152.4404 0.027030945c3.3414307 5.874634E-4 6.5458984 1.3285141 8.90863 3.6916428c2.362732 2.3631287 3.6900635 5.5678864 3.6900635 8.909264l0 50.393204c0 6.9580536 -5.640625 12.5976715 -12.598694 12.596436l-152.4404 -0.027023315c-6.958069 -0.0012359619 -12.598694 -5.642853 -12.598694 -12.600906z" fill-rule="evenodd"/><path fill="#000000" d="m526.995 134.33339l0 -9.515625l-3.40625 -6.0272217E-4l0 -1.9375l9.109375 0.0016174316l0 1.9375l-3.390625 -6.0272217E-4l0 9.515625l-2.3125 -4.119873E-4zm8.390625 0.0014953613l-2.1875 -3.9672852E-4l0 -8.296875l2.03125 3.6621094E-4l0 1.171875q0.53125 -0.82803345 0.9375 -1.0935898q0.421875 -0.2655487 0.953125 -0.26544952q0.75 1.296997E-4 1.453125 0.40650177l-0.6875 1.9217606q-0.546875 -0.35947418 -1.03125 -0.35956573q-0.453125 -7.6293945E-5 -0.78125 0.2498703q-0.3125 0.24993896 -0.5 0.92178345q-0.1875 0.6562195 -0.1875 2.7812195l0 2.5625zm5.7734375 -5.7646027l-2.0 -0.3597412q0.34375 -1.2030563 1.15625 -1.7810364q0.828125 -0.57798004 2.4375 -0.57769775q1.46875 2.670288E-4 2.1875 0.3441391q0.71875 0.3438797 1.015625 0.8908081q0.296875 0.5313034 0.296875 1.9531784l-0.03125 2.5625q0 1.09375 0.109375 1.6250153q0.109375 0.51564026 0.390625 1.109436l-2.171875 -3.8146973E-4q-0.078125 -0.21876526 -0.203125 -0.6562805q-0.0625 -0.18751526 -0.078125 -0.25001526q-0.5625 0.5467682 -1.203125 0.8279114q-0.640625 0.26550293 -1.375 0.26538086q-1.28125 -2.2888184E-4 -2.015625 -0.6878662q-0.734375 -0.7032471 -0.734375 -1.7657471q0 -0.703125 0.328125 -1.249939q0.34375 -0.56243896 0.9375 -0.84358215q0.609375 -0.2967682 1.75 -0.5153198q1.546875 -0.29660034 2.140625 -0.54649353l0 -0.21875q0 -0.625 -0.3125 -0.89068604q-0.3125 -0.2813034 -1.1875 -0.281456q-0.578125 -1.0681152E-4 -0.90625 0.23421478q-0.328125 0.23431396 -0.53125 0.81240845zm2.9375 1.7817688q-0.421875 0.1405487 -1.34375 0.34350586q-0.90625 0.18734741 -1.1875 0.37478638q-0.4375 0.2967987 -0.4375 0.7655487q0 0.46875 0.34375 0.81256104q0.34375 0.32818604 0.875 0.3282776q0.59375 1.0681152E-4 1.140625 -0.39041138q0.390625 -0.29681396 0.515625 -0.73428345q0.09375 -0.28123474 0.09375 -1.0624847l0 -0.4375zm4.3203125 -5.436737l0 -2.03125l2.1875 3.8909912E-4l0 2.03125l-2.1875 -3.8909912E-4zm0 9.421875l0 -8.296875l2.1875 3.8909912E-4l0 8.296867l-2.1875 -3.8146973E-4zm11.9921875 0.0021209717l-2.203125 -3.8146973E-4l0 -4.234375q0 -1.34375 -0.140625 -1.7344055q-0.140625 -0.4062729 -0.453125 -0.6250763q-0.3125 -0.21881104 -0.765625 -0.21888733q-0.5625 -9.918213E-5 -1.015625 0.3123169q-0.453125 0.3124237 -0.625 0.8280182q-0.171875 0.5155945 -0.171875 1.9062195l0 3.765625l-2.1875 -3.8146973E-4l0 -8.296883l2.03125 3.5858154E-4l0 1.21875q1.09375 -1.4060516 2.734375 -1.4057617q0.734375 1.296997E-4 1.328125 0.2658615q0.609375 0.2501068 0.90625 0.6564102q0.3125 0.4063034 0.4375 0.9219513q0.125 0.51564026 0.125 1.4843903l0 5.15625z" fill-rule="nonzero"/><path fill="#ffcccc" d="m480.13812 139.09308l0 0c0 -3.2180328 2.658081 -5.826767 5.9370117 -5.826767l0 0c1.574585 0 3.0846863 0.6138916 4.1980896 1.7066193c1.1134033 1.0927429 1.7388916 2.5747986 1.7388916 4.1201477l0 0c0 3.218048 -2.658081 5.826782 -5.936981 5.826782l0 0c-3.2789307 0 -5.9370117 -2.6087341 -5.9370117 -5.826782z" fill-rule="evenodd"/><path stroke="#595959" stroke-width="1.0" stroke-linejoin="round" stroke-linecap="butt" d="m480.13812 139.09308l0 0c0 -3.2180328 2.658081 -5.826767 5.9370117 -5.826767l0 0c1.574585 0 3.0846863 0.6138916 4.1980896 1.7066193c1.1134033 1.0927429 1.7388916 2.5747986 1.7388916 4.1201477l0 0c0 3.218048 -2.658081 5.826782 -5.936981 5.826782l0 0c-3.2789307 0 -5.9370117 -2.6087341 -5.9370117 -5.826782z" fill-rule="evenodd"/><path fill="#ffcccc" d="m490.65585 150.76076l0 0c0 -3.2180328 2.658081 -5.826767 5.936981 -5.826767l0 0c1.5746155 0 3.0847168 0.6138916 4.19812 1.7066193c1.1134033 1.0927277 1.7388916 2.5747986 1.7388916 4.1201477l0 0c0 3.2180328 -2.658081 5.826782 -5.9370117 5.826782l0 0c-3.2789001 0 -5.936981 -2.6087494 -5.936981 -5.826782z" fill-rule="evenodd"/><path stroke="#595959" stroke-width="1.0" stroke-linejoin="round" stroke-linecap="butt" d="m490.65585 150.76076l0 0c0 -3.2180328 2.658081 -5.826767 5.936981 -5.826767l0 0c1.5746155 0 3.0847168 0.6138916 4.19812 1.7066193c1.1134033 1.0927277 1.7388916 2.5747986 1.7388916 4.1201477l0 0c0 3.2180328 -2.658081 5.826782 -5.9370117 5.826782l0 0c-3.2789001 0 -5.936981 -2.6087494 -5.936981 -5.826782z" fill-rule="evenodd"/><path fill="#ffcccc" d="m480.13812 162.42844l0 0c0 -3.2180328 2.658081 -5.826767 5.9370117 -5.826767l0 0c1.574585 0 3.0846863 0.6138916 4.1980896 1.7066193c1.1134033 1.0927277 1.7388916 2.5747833 1.7388916 4.1201477l0 0c0 3.2180328 -2.658081 5.826767 -5.936981 5.826767l0 0c-3.2789307 0 -5.9370117 -2.6087341 -5.9370117 -5.826767z" fill-rule="evenodd"/><path stroke="#595959" stroke-width="1.0" stroke-linejoin="round" stroke-linecap="butt" d="m480.13812 162.42844l0 0c0 -3.2180328 2.658081 -5.826767 5.9370117 -5.826767l0 0c1.574585 0 3.0846863 0.6138916 4.1980896 1.7066193c1.1134033 1.0927277 1.7388916 2.5747833 1.7388916 4.1201477l0 0c0 3.2180328 -2.658081 5.826767 -5.936981 5.826767l0 0c-3.2789307 0 -5.9370117 -2.6087341 -5.9370117 -5.826767z" fill-rule="evenodd"/><path fill="#ffcccc" d="m502.51935 134.54016l0 0c0 -3.2180328 2.658081 -5.826767 5.9370117 -5.826767l0 0c1.574585 0 3.0846863 0.6138916 4.19812 1.7066193c1.1134033 1.0927277 1.7388916 2.5747986 1.7388916 4.1201477l0 0c0 3.2180328 -2.6581116 5.826767 -5.9370117 5.826767l0 0c-3.2789307 0 -5.9370117 -2.6087341 -5.9370117 -5.826767z" fill-rule="evenodd"/><path stroke="#595959" stroke-width="1.0" stroke-linejoin="round" stroke-linecap="butt" d="m502.51935 134.54016l0 0c0 -3.2180328 2.658081 -5.826767 5.9370117 -5.826767l0 0c1.574585 0 3.0846863 0.6138916 4.19812 1.7066193c1.1134033 1.0927277 1.7388916 2.5747986 1.7388916 4.1201477l0 0c0 3.2180328 -2.6581116 5.826767 -5.9370117 5.826767l0 0c-3.2789307 0 -5.9370117 -2.6087341 -5.9370117 -5.826767z" fill-rule="evenodd"/><path fill="#ffcccc" d="m497.9765 166.98135l0 0c0 -3.2180328 2.658081 -5.826767 5.9370117 -5.826767l0 0c1.574585 0 3.0846863 0.6138916 4.1980896 1.7066193c1.1134033 1.0927277 1.7389221 2.5747986 1.7389221 4.1201477l0 0c0 3.218048 -2.6581116 5.826782 -5.9370117 5.826782l0 0c-3.2789307 0 -5.9370117 -2.6087341 -5.9370117 -5.826782z" fill-rule="evenodd"/><path stroke="#595959" stroke-width="1.0" stroke-linejoin="round" stroke-linecap="butt" d="m497.9765 166.98135l0 0c0 -3.2180328 2.658081 -5.826767 5.9370117 -5.826767l0 0c1.574585 0 3.0846863 0.6138916 4.1980896 1.7066193c1.1134033 1.0927277 1.7389221 2.5747986 1.7389221 4.1201477l0 0c0 3.218048 -2.6581116 5.826782 -5.9370117 5.826782l0 0c-3.2789307 0 -5.9370117 -2.6087341 -5.9370117 -5.826782z" fill-rule="evenodd"/><path fill="#ffcccc" d="m509.84 150.76076l0 0c0 -3.2180328 2.6581116 -5.826767 5.937042 -5.826767l0 0c1.574585 0 3.0846558 0.6138916 4.198059 1.7066193c1.1134033 1.0927277 1.7388916 2.5747986 1.7388916 4.1201477l0 0c0 3.2180328 -2.658081 5.826782 -5.9369507 5.826782l0 0c-3.2789307 0 -5.937042 -2.6087494 -5.937042 -5.826782z" fill-rule="evenodd"/><path stroke="#595959" stroke-width="1.0" stroke-linejoin="round" stroke-linecap="butt" d="m509.84 150.76076l0 0c0 -3.2180328 2.6581116 -5.826767 5.937042 -5.826767l0 0c1.574585 0 3.0846558 0.6138916 4.198059 1.7066193c1.1134033 1.0927277 1.7388916 2.5747986 1.7388916 4.1201477l0 0c0 3.2180328 -2.658081 5.826782 -5.9369507 5.826782l0 0c-3.2789307 0 -5.937042 -2.6087494 -5.937042 -5.826782z" fill-rule="evenodd"/><path fill="#ffcccc" d="m468.2746 150.76076l0 0c0 -3.2180328 2.6581116 -5.826767 5.9370117 -5.826767l0 0c1.5746155 0 3.0847168 0.6138916 4.19812 1.7066193c1.1134033 1.0927277 1.7388916 2.5747986 1.7388916 4.1201477l0 0c0 3.2180328 -2.658081 5.826782 -5.9370117 5.826782l0 0c-3.2789001 0 -5.9370117 -2.6087494 -5.9370117 -5.826782z" fill-rule="evenodd"/><path stroke="#595959" stroke-width="1.0" stroke-linejoin="round" stroke-linecap="butt" d="m468.2746 150.76076l0 0c0 -3.2180328 2.6581116 -5.826767 5.9370117 -5.826767l0 0c1.5746155 0 3.0847168 0.6138916 4.19812 1.7066193c1.1134033 1.0927277 1.7388916 2.5747986 1.7388916 4.1201477l0 0c0 3.2180328 -2.658081 5.826782 -5.9370117 5.826782l0 0c-3.2789001 0 -5.9370117 -2.6087494 -5.9370117 -5.826782z" fill-rule="evenodd"/><path fill="#ffcccc" d="m515.8149 166.98135l0 0c0 -3.2180328 2.658081 -5.826767 5.9370117 -5.826767l0 0c1.574585 0 3.0847168 0.6138916 4.19812 1.7066193c1.1134033 1.0927277 1.7388916 2.5747986 1.7388916 4.1201477l0 0c0 3.218048 -2.658081 5.826782 -5.9370117 5.826782l0 0c-3.2789307 0 -5.9370117 -2.6087341 -5.9370117 -5.826782z" fill-rule="evenodd"/><path stroke="#595959" stroke-width="1.0" stroke-linejoin="round" stroke-linecap="butt" d="m515.8149 166.98135l0 0c0 -3.2180328 2.658081 -5.826767 5.9370117 -5.826767l0 0c1.574585 0 3.0847168 0.6138916 4.19812 1.7066193c1.1134033 1.0927277 1.7388916 2.5747986 1.7388916 4.1201477l0 0c0 3.218048 -2.658081 5.826782 -5.9370117 5.826782l0 0c-3.2789307 0 -5.9370117 -2.6087341 -5.9370117 -5.826782z" fill-rule="evenodd"/><path fill="#ffcccc" d="m486.113 178.64903l0 0c0 -3.2180328 2.658081 -5.826767 5.9370117 -5.826767l0 0c1.574585 0 3.0846863 0.6138916 4.1980896 1.7066193c1.1134033 1.0927277 1.7388916 2.5747986 1.7388916 4.1201477l0 0c0 3.2180328 -2.658081 5.826767 -5.936981 5.826767l0 0c-3.2789307 0 -5.9370117 -2.6087341 -5.9370117 -5.826767z" fill-rule="evenodd"/><path stroke="#595959" stroke-width="1.0" stroke-linejoin="round" stroke-linecap="butt" d="m486.113 178.64903l0 0c0 -3.2180328 2.658081 -5.826767 5.9370117 -5.826767l0 0c1.574585 0 3.0846863 0.6138916 4.1980896 1.7066193c1.1134033 1.0927277 1.7388916 2.5747986 1.7388916 4.1201477l0 0c0 3.2180328 -2.658081 5.826767 -5.936981 5.826767l0 0c-3.2789307 0 -5.9370117 -2.6087341 -5.9370117 -5.826767z" fill-rule="evenodd"/><path fill="#d9f2cc" d="m523.4568 64.73578l0 0c0 -3.2180367 2.658081 -5.826771 5.9370117 -5.826771l0 0c1.574585 0 3.0847168 0.6138916 4.19812 1.7066231c1.1134033 1.0927315 1.7388916 2.574791 1.7388916 4.1201477l0 0c0 3.2180405 -2.658081 5.8267746 -5.9370117 5.8267746l0 0c-3.2789307 0 -5.9370117 -2.6087341 -5.9370117 -5.8267746z" fill-rule="evenodd"/><path stroke="#595959" stroke-width="1.0" stroke-linejoin="round" stroke-linecap="butt" d="m523.4568 64.73578l0 0c0 -3.2180367 2.658081 -5.826771 5.9370117 -5.826771l0 0c1.574585 0 3.0847168 0.6138916 4.19812 1.7066231c1.1134033 1.0927315 1.7388916 2.574791 1.7388916 4.1201477l0 0c0 3.2180405 -2.658081 5.8267746 -5.9370117 5.8267746l0 0c-3.2789307 0 -5.9370117 -2.6087341 -5.9370117 -5.8267746z" fill-rule="evenodd"/><path fill="#d9f2cc" d="m533.97455 76.40346l0 0c0 -3.2180405 2.658081 -5.8267746 5.9370117 -5.8267746l0 0c1.574585 0 3.0846558 0.6138916 4.198059 1.7066193c1.1134033 1.0927353 1.7389526 2.5747986 1.7389526 4.1201553l0 0c0 3.2180328 -2.658081 5.826767 -5.9370117 5.826767l0 0c-3.2789307 0 -5.9370117 -2.6087341 -5.9370117 -5.826767z" fill-rule="evenodd"/><path stroke="#595959" stroke-width="1.0" stroke-linejoin="round" stroke-linecap="butt" d="m533.97455 76.40346l0 0c0 -3.2180405 2.658081 -5.8267746 5.9370117 -5.8267746l0 0c1.574585 0 3.0846558 0.6138916 4.198059 1.7066193c1.1134033 1.0927353 1.7389526 2.5747986 1.7389526 4.1201553l0 0c0 3.2180328 -2.658081 5.826767 -5.9370117 5.826767l0 0c-3.2789307 0 -5.9370117 -2.6087341 -5.9370117 -5.826767z" fill-rule="evenodd"/><path fill="#d9f2cc" d="m523.4568 88.07113l0 0c0 -3.2180405 2.658081 -5.8267746 5.9370117 -5.8267746l0 0c1.574585 0 3.0847168 0.6138916 4.19812 1.7066269c1.1134033 1.0927277 1.7388916 2.574791 1.7388916 4.1201477l0 0c0 3.2180405 -2.658081 5.8267746 -5.9370117 5.8267746l0 0c-3.2789307 0 -5.9370117 -2.6087341 -5.9370117 -5.8267746z" fill-rule="evenodd"/><path stroke="#595959" stroke-width="1.0" stroke-linejoin="round" stroke-linecap="butt" d="m523.4568 88.07113l0 0c0 -3.2180405 2.658081 -5.8267746 5.9370117 -5.8267746l0 0c1.574585 0 3.0847168 0.6138916 4.19812 1.7066269c1.1134033 1.0927277 1.7388916 2.574791 1.7388916 4.1201477l0 0c0 3.2180405 -2.658081 5.8267746 -5.9370117 5.8267746l0 0c-3.2789307 0 -5.9370117 -2.6087341 -5.9370117 -5.8267746z" fill-rule="evenodd"/><path fill="#d9f2cc" d="m545.838 60.182858l0 0c0 -3.2180367 2.658142 -5.826771 5.9370117 -5.826771l0 0c1.574585 0 3.0847168 0.6138878 4.19812 1.7066193c1.1134033 1.0927315 1.7388916 2.5747948 1.7388916 4.1201515l0 0c0 3.2180367 -2.658081 5.826771 -5.9370117 5.826771l0 0c-3.2788696 0 -5.9370117 -2.6087341 -5.9370117 -5.826771z" fill-rule="evenodd"/><path stroke="#595959" stroke-width="1.0" stroke-linejoin="round" stroke-linecap="butt" d="m545.838 60.182858l0 0c0 -3.2180367 2.658142 -5.826771 5.9370117 -5.826771l0 0c1.574585 0 3.0847168 0.6138878 4.19812 1.7066193c1.1134033 1.0927315 1.7388916 2.5747948 1.7388916 4.1201515l0 0c0 3.2180367 -2.658081 5.826771 -5.9370117 5.826771l0 0c-3.2788696 0 -5.9370117 -2.6087341 -5.9370117 -5.826771z" fill-rule="evenodd"/><path fill="#d9f2cc" d="m541.29517 92.624054l0 0c0 -3.2180405 2.658142 -5.8267746 5.9370117 -5.8267746l0 0c1.574646 0 3.0847168 0.6138916 4.19812 1.7066193c1.1134033 1.0927353 1.7388916 2.5747986 1.7388916 4.1201553l0 0c0 3.2180328 -2.658081 5.826767 -5.9370117 5.826767l0 0c-3.2788696 0 -5.9370117 -2.6087341 -5.9370117 -5.826767z" fill-rule="evenodd"/><path stroke="#595959" stroke-width="1.0" stroke-linejoin="round" stroke-linecap="butt" d="m541.29517 92.624054l0 0c0 -3.2180405 2.658142 -5.8267746 5.9370117 -5.8267746l0 0c1.574646 0 3.0847168 0.6138916 4.19812 1.7066193c1.1134033 1.0927353 1.7388916 2.5747986 1.7388916 4.1201553l0 0c0 3.2180328 -2.658081 5.826767 -5.9370117 5.826767l0 0c-3.2788696 0 -5.9370117 -2.6087341 -5.9370117 -5.826767z" fill-rule="evenodd"/><path fill="#d9f2cc" d="m553.1587 76.40346l0 0c0 -3.2180405 2.658081 -5.8267746 5.9370117 -5.8267746l0 0c1.574585 0 3.0847168 0.6138916 4.19812 1.7066193c1.1134033 1.0927353 1.7388916 2.5747986 1.7388916 4.1201553l0 0c0 3.2180328 -2.658081 5.826767 -5.9370117 5.826767l0 0c-3.2789307 0 -5.9370117 -2.6087341 -5.9370117 -5.826767z" fill-rule="evenodd"/><path stroke="#595959" stroke-width="1.0" stroke-linejoin="round" stroke-linecap="butt" d="m553.1587 76.40346l0 0c0 -3.2180405 2.658081 -5.8267746 5.9370117 -5.8267746l0 0c1.574585 0 3.0847168 0.6138916 4.19812 1.7066193c1.1134033 1.0927353 1.7388916 2.5747986 1.7388916 4.1201553l0 0c0 3.2180328 -2.658081 5.826767 -5.9370117 5.826767l0 0c-3.2789307 0 -5.9370117 -2.6087341 -5.9370117 -5.826767z" fill-rule="evenodd"/><path fill="#d9f2cc" d="m511.5933 76.40346l0 0c0 -3.2180405 2.6581116 -5.8267746 5.937042 -5.8267746l0 0c1.574585 0 3.0846558 0.6138916 4.198059 1.7066193c1.1134033 1.0927353 1.7389526 2.5747986 1.7389526 4.1201553l0 0c0 3.2180328 -2.658142 5.826767 -5.9370117 5.826767l0 0c-3.2789307 0 -5.937042 -2.6087341 -5.937042 -5.826767z" fill-rule="evenodd"/><path stroke="#595959" stroke-width="1.0" stroke-linejoin="round" stroke-linecap="butt" d="m511.5933 76.40346l0 0c0 -3.2180405 2.6581116 -5.8267746 5.937042 -5.8267746l0 0c1.574585 0 3.0846558 0.6138916 4.198059 1.7066193c1.1134033 1.0927353 1.7389526 2.5747986 1.7389526 4.1201553l0 0c0 3.2180328 -2.658142 5.826767 -5.9370117 5.826767l0 0c-3.2789307 0 -5.937042 -2.6087341 -5.937042 -5.826767z" fill-rule="evenodd"/><path fill="#d9f2cc" d="m559.1336 92.624054l0 0c0 -3.2180405 2.658081 -5.8267746 5.9370117 -5.8267746l0 0c1.574585 0 3.0846558 0.6138916 4.198059 1.7066193c1.1134033 1.0927353 1.7388916 2.5747986 1.7388916 4.1201553l0 0c0 3.2180328 -2.658081 5.826767 -5.9369507 5.826767l0 0c-3.2789307 0 -5.9370117 -2.6087341 -5.9370117 -5.826767z" fill-rule="evenodd"/><path stroke="#595959" stroke-width="1.0" stroke-linejoin="round" stroke-linecap="butt" d="m559.1336 92.624054l0 0c0 -3.2180405 2.658081 -5.8267746 5.9370117 -5.8267746l0 0c1.574585 0 3.0846558 0.6138916 4.198059 1.7066193c1.1134033 1.0927353 1.7388916 2.5747986 1.7388916 4.1201553l0 0c0 3.2180328 -2.658081 5.826767 -5.9369507 5.826767l0 0c-3.2789307 0 -5.9370117 -2.6087341 -5.9370117 -5.826767z" fill-rule="evenodd"/><path fill="#d9f2cc" d="m529.4317 104.291725l0 0c0 -3.2180328 2.658081 -5.826767 5.9370117 -5.826767l0 0c1.574585 0 3.0846558 0.613884 4.198059 1.7066193c1.1134033 1.0927277 1.7389526 2.574791 1.7389526 4.1201477l0 0c0 3.2180405 -2.658081 5.8267746 -5.9370117 5.8267746l0 0c-3.2789307 0 -5.9370117 -2.6087341 -5.9370117 -5.8267746z" fill-rule="evenodd"/><path stroke="#595959" stroke-width="1.0" stroke-linejoin="round" stroke-linecap="butt" d="m529.4317 104.291725l0 0c0 -3.2180328 2.658081 -5.826767 5.9370117 -5.826767l0 0c1.574585 0 3.0846558 0.613884 4.198059 1.7066193c1.1134033 1.0927277 1.7389526 2.574791 1.7389526 4.1201477l0 0c0 3.2180405 -2.658081 5.8267746 -5.9370117 5.8267746l0 0c-3.2789307 0 -5.9370117 -2.6087341 -5.9370117 -5.8267746z" fill-rule="evenodd"/><path fill="#fff1d0" d="m570.50867 139.02406l0 0c0 -3.2180328 2.658081 -5.826767 5.9370117 -5.826767l0 0c1.574585 0 3.0847168 0.6138916 4.19812 1.7066193c1.1134033 1.0927277 1.7388916 2.5747986 1.7388916 4.1201477l0 0c0 3.2180328 -2.658081 5.826767 -5.9370117 5.826767l0 0c-3.2789307 0 -5.9370117 -2.6087341 -5.9370117 -5.826767z" fill-rule="evenodd"/><path stroke="#595959" stroke-width="1.0" stroke-linejoin="round" stroke-linecap="butt" d="m570.50867 139.02406l0 0c0 -3.2180328 2.658081 -5.826767 5.9370117 -5.826767l0 0c1.574585 0 3.0847168 0.6138916 4.19812 1.7066193c1.1134033 1.0927277 1.7388916 2.5747986 1.7388916 4.1201477l0 0c0 3.2180328 -2.658081 5.826767 -5.9370117 5.826767l0 0c-3.2789307 0 -5.9370117 -2.6087341 -5.9370117 -5.826767z" fill-rule="evenodd"/><path fill="#fff1d0" d="m581.0264 150.69174l0 0c0 -3.2180328 2.658081 -5.826767 5.9370117 -5.826767l0 0c1.574585 0 3.0846558 0.61387634 4.198059 1.7066193c1.1134033 1.0927277 1.7389526 2.5747833 1.7389526 4.1201477l0 0c0 3.2180328 -2.658142 5.826767 -5.9370117 5.826767l0 0c-3.2789307 0 -5.9370117 -2.6087341 -5.9370117 -5.826767z" fill-rule="evenodd"/><path stroke="#595959" stroke-width="1.0" stroke-linejoin="round" stroke-linecap="butt" d="m581.0264 150.69174l0 0c0 -3.2180328 2.658081 -5.826767 5.9370117 -5.826767l0 0c1.574585 0 3.0846558 0.61387634 4.198059 1.7066193c1.1134033 1.0927277 1.7389526 2.5747833 1.7389526 4.1201477l0 0c0 3.2180328 -2.658142 5.826767 -5.9370117 5.826767l0 0c-3.2789307 0 -5.9370117 -2.6087341 -5.9370117 -5.826767z" fill-rule="evenodd"/><path fill="#fff1d0" d="m570.50867 162.35942l0 0c0 -3.218048 2.658081 -5.826782 5.9370117 -5.826782l0 0c1.574585 0 3.0847168 0.6138916 4.19812 1.7066193c1.1134033 1.0927429 1.7388916 2.5747986 1.7388916 4.120163l0 0c0 3.2180328 -2.658081 5.826767 -5.9370117 5.826767l0 0c-3.2789307 0 -5.9370117 -2.6087341 -5.9370117 -5.826767z" fill-rule="evenodd"/><path stroke="#595959" stroke-width="1.0" stroke-linejoin="round" stroke-linecap="butt" d="m570.50867 162.35942l0 0c0 -3.218048 2.658081 -5.826782 5.9370117 -5.826782l0 0c1.574585 0 3.0847168 0.6138916 4.19812 1.7066193c1.1134033 1.0927429 1.7388916 2.5747986 1.7388916 4.120163l0 0c0 3.2180328 -2.658081 5.826767 -5.9370117 5.826767l0 0c-3.2789307 0 -5.9370117 -2.6087341 -5.9370117 -5.826767z" fill-rule="evenodd"/><path fill="#fff1d0" d="m592.8899 134.47115l0 0c0 -3.218048 2.658081 -5.826782 5.9370117 -5.826782l0 0c1.574585 0 3.0847168 0.6138916 4.19812 1.7066345c1.1134033 1.0927277 1.7388916 2.5747833 1.7388916 4.1201477l0 0c0 3.2180328 -2.658081 5.826767 -5.9370117 5.826767l0 0c-3.2789307 0 -5.9370117 -2.6087341 -5.9370117 -5.826767z" fill-rule="evenodd"/><path stroke="#595959" stroke-width="1.0" stroke-linejoin="round" stroke-linecap="butt" d="m592.8899 134.47115l0 0c0 -3.218048 2.658081 -5.826782 5.9370117 -5.826782l0 0c1.574585 0 3.0847168 0.6138916 4.19812 1.7066345c1.1134033 1.0927277 1.7388916 2.5747833 1.7388916 4.1201477l0 0c0 3.2180328 -2.658081 5.826767 -5.9370117 5.826767l0 0c-3.2789307 0 -5.9370117 -2.6087341 -5.9370117 -5.826767z" fill-rule="evenodd"/><path fill="#fff1d0" d="m588.34705 166.91234l0 0c0 -3.2180328 2.658081 -5.826767 5.9370117 -5.826767l0 0c1.574585 0 3.0847168 0.6138916 4.19812 1.7066193c1.1134033 1.0927277 1.7388916 2.5747833 1.7388916 4.1201477l0 0c0 3.2180328 -2.658081 5.826767 -5.9370117 5.826767l0 0c-3.2789307 0 -5.9370117 -2.6087341 -5.9370117 -5.826767z" fill-rule="evenodd"/><path stroke="#595959" stroke-width="1.0" stroke-linejoin="round" stroke-linecap="butt" d="m588.34705 166.91234l0 0c0 -3.2180328 2.658081 -5.826767 5.9370117 -5.826767l0 0c1.574585 0 3.0847168 0.6138916 4.19812 1.7066193c1.1134033 1.0927277 1.7388916 2.5747833 1.7388916 4.1201477l0 0c0 3.2180328 -2.658081 5.826767 -5.9370117 5.826767l0 0c-3.2789307 0 -5.9370117 -2.6087341 -5.9370117 -5.826767z" fill-rule="evenodd"/><path fill="#fff1d0" d="m600.2106 150.69174l0 0c0 -3.2180328 2.658081 -5.826767 5.9370117 -5.826767l0 0c1.574585 0 3.0847168 0.61387634 4.19812 1.7066193c1.1134033 1.0927277 1.7388916 2.5747833 1.7388916 4.1201477l0 0c0 3.2180328 -2.658081 5.826767 -5.9370117 5.826767l0 0c-3.2789307 0 -5.9370117 -2.6087341 -5.9370117 -5.826767z" fill-rule="evenodd"/><path stroke="#595959" stroke-width="1.0" stroke-linejoin="round" stroke-linecap="butt" d="m600.2106 150.69174l0 0c0 -3.2180328 2.658081 -5.826767 5.9370117 -5.826767l0 0c1.574585 0 3.0847168 0.61387634 4.19812 1.7066193c1.1134033 1.0927277 1.7388916 2.5747833 1.7388916 4.1201477l0 0c0 3.2180328 -2.658081 5.826767 -5.9370117 5.826767l0 0c-3.2789307 0 -5.9370117 -2.6087341 -5.9370117 -5.826767z" fill-rule="evenodd"/><path fill="#fff1d0" d="m558.6452 150.69174l0 0c0 -3.2180328 2.658081 -5.826767 5.9370117 -5.826767l0 0c1.574585 0 3.0846558 0.61387634 4.198059 1.7066193c1.1134033 1.0927277 1.7388916 2.5747833 1.7388916 4.1201477l0 0c0 3.2180328 -2.658081 5.826767 -5.9369507 5.826767l0 0c-3.2789307 0 -5.9370117 -2.6087341 -5.9370117 -5.826767z" fill-rule="evenodd"/><path stroke="#595959" stroke-width="1.0" stroke-linejoin="round" stroke-linecap="butt" d="m558.6452 150.69174l0 0c0 -3.2180328 2.658081 -5.826767 5.9370117 -5.826767l0 0c1.574585 0 3.0846558 0.61387634 4.198059 1.7066193c1.1134033 1.0927277 1.7388916 2.5747833 1.7388916 4.1201477l0 0c0 3.2180328 -2.658081 5.826767 -5.9369507 5.826767l0 0c-3.2789307 0 -5.9370117 -2.6087341 -5.9370117 -5.826767z" fill-rule="evenodd"/><path fill="#fff1d0" d="m606.1854 166.91234l0 0c0 -3.2180328 2.658142 -5.826767 5.9370117 -5.826767l0 0c1.574646 0 3.0847168 0.6138916 4.19812 1.7066193c1.1134033 1.0927277 1.7388916 2.5747833 1.7388916 4.1201477l0 0c0 3.2180328 -2.658081 5.826767 -5.9370117 5.826767l0 0c-3.2788696 0 -5.9370117 -2.6087341 -5.9370117 -5.826767z" fill-rule="evenodd"/><path stroke="#595959" stroke-width="1.0" stroke-linejoin="round" stroke-linecap="butt" d="m606.1854 166.91234l0 0c0 -3.2180328 2.658142 -5.826767 5.9370117 -5.826767l0 0c1.574646 0 3.0847168 0.6138916 4.19812 1.7066193c1.1134033 1.0927277 1.7388916 2.5747833 1.7388916 4.1201477l0 0c0 3.2180328 -2.658081 5.826767 -5.9370117 5.826767l0 0c-3.2788696 0 -5.9370117 -2.6087341 -5.9370117 -5.826767z" fill-rule="evenodd"/><path fill="#fff1d0" d="m576.4836 178.58002l0 0c0 -3.218048 2.658081 -5.826782 5.9370117 -5.826782l0 0c1.574585 0 3.0846558 0.6138916 4.198059 1.7066345c1.1134033 1.0927277 1.7389526 2.5747833 1.7389526 4.1201477l0 0c0 3.2180328 -2.658142 5.826767 -5.9370117 5.826767l0 0c-3.2789307 0 -5.9370117 -2.6087341 -5.9370117 -5.826767z" fill-rule="evenodd"/><path stroke="#595959" stroke-width="1.0" stroke-linejoin="round" stroke-linecap="butt" d="m576.4836 178.58002l0 0c0 -3.218048 2.658081 -5.826782 5.9370117 -5.826782l0 0c1.574585 0 3.0846558 0.6138916 4.198059 1.7066345c1.1134033 1.0927277 1.7389526 2.5747833 1.7389526 4.1201477l0 0c0 3.2180328 -2.658142 5.826767 -5.9370117 5.826767l0 0c-3.2789307 0 -5.9370117 -2.6087341 -5.9370117 -5.826767z" fill-rule="evenodd"/><path fill="#000000" fill-opacity="0.0" d="m129.37796 82.51312l36.850388 0l0 19.401573l-36.850388 0z" fill-rule="evenodd"/><path fill="#000000" d="m133.12796 97.87312l0 -9.515625l-3.40625 0l0 -1.9375l9.109375 0l0 1.9375l-3.390625 0l0 9.515625l-2.3125 0zm10.7890625 -2.640625l2.1875 0.359375q-0.421875 1.203125 -1.328125 1.84375q-0.90625 0.625 -2.28125 0.625q-2.15625 0 -3.203125 -1.421875q-0.8125 -1.125 -0.8125 -2.859375q0 -2.0625 1.078125 -3.21875q1.078125 -1.171875 2.71875 -1.171875q1.859375 0 2.921875 1.21875q1.078125 1.21875 1.03125 3.75l-5.5 0q0.015625 0.96875 0.515625 1.515625q0.515625 0.546875 1.28125 0.546875q0.515625 0 0.859375 -0.28125q0.359375 -0.28125 0.53125 -0.90625zm0.125 -2.21875q-0.015625 -0.953125 -0.484375 -1.453125q-0.46875 -0.5 -1.140625 -0.5q-0.71875 0 -1.1875 0.53125q-0.46875 0.515625 -0.46875 1.421875l3.28125 0zm3.1953125 2.484375l2.203125 -0.328125q0.140625 0.640625 0.5625 0.96875q0.4375 0.328125 1.21875 0.328125q0.84375 0 1.28125 -0.3125q0.28125 -0.21875 0.28125 -0.578125q0 -0.25 -0.15625 -0.421875q-0.15625 -0.15625 -0.734375 -0.28125q-2.65625 -0.59375 -3.359375 -1.078125q-0.984375 -0.671875 -0.984375 -1.859375q0 -1.078125 0.84375 -1.8125q0.859375 -0.734375 2.640625 -0.734375q1.703125 0 2.53125 0.5625q0.828125 0.546875 1.140625 1.625l-2.0625 0.390625q-0.140625 -0.484375 -0.515625 -0.734375q-0.359375 -0.265625 -1.046875 -0.265625q-0.875 0 -1.25 0.234375q-0.25 0.171875 -0.25 0.453125q0 0.234375 0.21875 0.390625q0.296875 0.21875 2.046875 0.625q1.765625 0.390625 2.453125 0.96875q0.6875 0.59375 0.6875 1.640625q0 1.140625 -0.953125 1.96875q-0.953125 0.8125 -2.8125 0.8125q-1.703125 0 -2.6875 -0.6875q-0.984375 -0.6875 -1.296875 -1.875zm13.4765625 -5.921875l0 1.75l-1.5 0l0 3.34375q0 1.015625 0.046875 1.1875q0.046875 0.15625 0.1875 0.265625q0.15625 0.109375 0.375 0.109375q0.3125 0 0.890625 -0.203125l0.1875 1.703125q-0.765625 0.328125 -1.734375 0.328125q-0.59375 0 -1.078125 -0.203125q-0.46875 -0.203125 -0.703125 -0.515625q-0.21875 -0.3125 -0.296875 -0.859375q-0.078125 -0.375 -0.078125 -1.546875l0 -3.609375l-1.0 0l0 -1.75l1.0 0l0 -1.65625l2.203125 -1.28125l0 2.9375l1.5 0z" fill-rule="nonzero"/><path fill="#000000" fill-opacity="0.0" d="m257.93964 99.09449l36.850403 0l0 19.401573l-36.850403 0z" fill-rule="evenodd"/><path fill="#000000" d="m261.68964 114.45449l0 -9.515625l-3.40625 0l0 -1.9375l9.109375 0l0 1.9375l-3.390625 0l0 9.515625l-2.3125 0zm10.7890625 -2.640625l2.1875 0.359375q-0.421875 1.203125 -1.328125 1.84375q-0.90625 0.625 -2.28125 0.625q-2.15625 0 -3.203125 -1.421875q-0.8125 -1.125 -0.8125 -2.859375q0 -2.0625 1.078125 -3.21875q1.078125 -1.171875 2.71875 -1.171875q1.859375 0 2.921875 1.21875q1.078125 1.21875 1.03125 3.75l-5.5 0q0.015625 0.96875 0.515625 1.515625q0.515625 0.546875 1.28125 0.546875q0.515625 0 0.859375 -0.28125q0.359375 -0.28125 0.53125 -0.90625zm0.125 -2.21875q-0.015625 -0.953125 -0.484375 -1.453125q-0.46875 -0.5 -1.140625 -0.5q-0.71875 0 -1.1875 0.53125q-0.46875 0.515625 -0.46875 1.421875l3.28125 0zm3.1953125 2.484375l2.203125 -0.328125q0.140625 0.640625 0.5625 0.96875q0.4375 0.328125 1.21875 0.328125q0.84375 0 1.28125 -0.3125q0.28125 -0.21875 0.28125 -0.578125q0 -0.25 -0.15625 -0.421875q-0.15625 -0.15625 -0.734375 -0.28125q-2.65625 -0.59375 -3.359375 -1.078125q-0.984375 -0.671875 -0.984375 -1.859375q0 -1.078125 0.84375 -1.8125q0.859375 -0.734375 2.640625 -0.734375q1.703125 0 2.53125 0.5625q0.828125 0.546875 1.140625 1.625l-2.0625 0.390625q-0.140625 -0.484375 -0.515625 -0.734375q-0.359375 -0.265625 -1.046875 -0.265625q-0.875 0 -1.25 0.234375q-0.25 0.171875 -0.25 0.453125q0 0.234375 0.21875 0.390625q0.296875 0.21875 2.046875 0.625q1.765625 0.390625 2.453125 0.96875q0.6875 0.59375 0.6875 1.640625q0 1.140625 -0.953125 1.96875q-0.953125 0.8125 -2.8125 0.8125q-1.703125 0 -2.6875 -0.6875q-0.984375 -0.6875 -1.296875 -1.875zm13.4765625 -5.921875l0 1.75l-1.5 0l0 3.34375q0 1.015625 0.046875 1.1875q0.046875 0.15625 0.1875 0.265625q0.15625 0.109375 0.375 0.109375q0.3125 0 0.890625 -0.203125l0.1875 1.703125q-0.765625 0.328125 -1.734375 0.328125q-0.59375 0 -1.078125 -0.203125q-0.46875 -0.203125 -0.703125 -0.515625q-0.21875 -0.3125 -0.296875 -0.859375q-0.078125 -0.375 -0.078125 -1.546875l0 -3.609375l-1.0 0l0 -1.75l1.0 0l0 -1.65625l2.203125 -1.28125l0 2.9375l1.5 0z" fill-rule="nonzero"/><path fill="#000000" fill-opacity="0.0" d="m521.48553 34.942257l36.850403 0l0 19.401577l-36.850403 0z" fill-rule="evenodd"/><path fill="#000000" d="m525.23553 50.302258l0 -9.515625l-3.40625 0l0 -1.9375l9.109375 0l0 1.9375l-3.390625 0l0 9.515625l-2.3125 0zm10.7890625 -2.640625l2.1875 0.359375q-0.421875 1.203125 -1.328125 1.84375q-0.90625 0.625 -2.28125 0.625q-2.15625 0 -3.203125 -1.421875q-0.8125 -1.125 -0.8125 -2.859375q0 -2.0625 1.078125 -3.21875q1.078125 -1.171875 2.71875 -1.171875q1.859375 0 2.921875 1.21875q1.078125 1.21875 1.03125 3.75l-5.5 0q0.015625 0.96875 0.515625 1.515625q0.515625 0.546875 1.28125 0.546875q0.515625 0 0.859375 -0.28125q0.359375 -0.28125 0.53125 -0.90625zm0.125 -2.21875q-0.015625 -0.953125 -0.484375 -1.453125q-0.46875 -0.5 -1.140625 -0.5q-0.71875 0 -1.1875 0.53125q-0.46875 0.515625 -0.46875 1.421875l3.28125 0zm3.1953125 2.484375l2.203125 -0.328125q0.140625 0.640625 0.5625 0.96875q0.4375 0.328125 1.21875 0.328125q0.84375 0 1.28125 -0.3125q0.28125 -0.21875 0.28125 -0.578125q0 -0.25 -0.15625 -0.421875q-0.15625 -0.15625 -0.734375 -0.28125q-2.65625 -0.59375 -3.359375 -1.078125q-0.984375 -0.671875 -0.984375 -1.859375q0 -1.078125 0.84375 -1.8125q0.859375 -0.734375 2.640625 -0.734375q1.703125 0 2.53125 0.5625q0.828125 0.546875 1.140625 1.625l-2.0625 0.390625q-0.140625 -0.484375 -0.515625 -0.734375q-0.359375 -0.265625 -1.046875 -0.265625q-0.875 0 -1.25 0.234375q-0.25 0.171875 -0.25 0.453125q0 0.234375 0.21875 0.390625q0.296875 0.21875 2.046875 0.625q1.765625 0.390625 2.453125 0.96875q0.6875 0.59375 0.6875 1.640625q0 1.140625 -0.953125 1.96875q-0.953125 0.8125 -2.8125 0.8125q-1.703125 0 -2.6875 -0.6875q-0.984375 -0.6875 -1.296875 -1.875zm13.4765625 -5.921875l0 1.75l-1.5 0l0 3.34375q0 1.015625 0.046875 1.1875q0.046875 0.15625 0.1875 0.265625q0.15625 0.109375 0.375 0.109375q0.3125 0 0.890625 -0.203125l0.1875 1.703125q-0.765625 0.328125 -1.734375 0.328125q-0.59375 0 -1.078125 -0.203125q-0.46875 -0.203125 -0.703125 -0.515625q-0.21875 -0.3125 -0.296875 -0.859375q-0.078125 -0.375 -0.078125 -1.546875l0 -3.609375l-1.0 0l0 -1.75l1.0 0l0 -1.65625l2.203125 -1.28125l0 2.9375l1.5 0z" fill-rule="nonzero"/></g></svg>