<svg xmlns="http://www.w3.org/2000/svg" xmlns:xlink="http://www.w3.org/1999/xlink" version="1.1" width="580.967pt" height="340.374pt" viewBox="0 0 580.967 340.374">
<defs>
<path id="font_7_11" d="M.040985109 .68359377V.6545868H.07398987C.10699463 .6545868 .13699341 .650589 .13699341 .61361697 .13699341 .60661318 .13598633 .60061648 .13598633 .59461978V.07394409C.13598633 .033966066 .10499573 .029968262 .07199097 .029968262H.040985109V.0009765625H.5439911L.56999209 .25683595H.5479889C.5379944 .16789246 .5299988 .06794739 .4139862 .036972047 .3849945 .029968262 .35598756 .029968262 .32598878 .029968262H.25299073C.23199463 .029968262 .21699524 .035964967 .21699524 .062942508V.61061099C.21699524 .64959719 .25299073 .6555786 .2889862 .6555786 .30599977 .6555786 .32299806 .6545868 .33599855 .6545868V.68359377H.040985109Z"/>
<path id="font_7_26" d="M.10598755 .23324585H.3919983C.4019928 .23324585 .40699769 .23724365 .40699769 .24725342 .40699769 .3502655 .35198976 .44628907 .23399353 .44628907 .11399841 .44628907 .0289917 .337265 .0289917 .22123719 .0289917 .13322449 .07598877 .044204713 .16299439 .0082092289 .18598938-.0018005371 .21099854-.0087890629 .23599243-.0087890629H.23899842C.31199647-.0087890629 .3829956 .035202028 .4039917 .10922241 .40499879 .11222839 .40699769 .1162262 .40699769 .120224 .40699769 .12522888 .40098573 .13023377 .3959961 .13023377 .38398744 .13023377 .3789978 .10322571 .37199403 .09022522 .34700013 .045211793 .2999878 .013198853 .24598694 .013198853 .20799256 .013198853 .17399597 .034210206 .1499939 .062210084 .10998535 .11022949 .10598755 .17323303 .10598755 .23324585M.10699463 .25224305C.10699463 .32826234 .14898682 .4262848 .23199463 .4262848 .31999208 .4262848 .34399415 .32325746 .34399415 .25224305H.10699463Z"/>
<path id="font_7_21" d="M.10499573 .36827088C.1289978 .40628053 .17298889 .4262848 .21699524 .4262848 .27398683 .4262848 .31999208 .36827088 .31999208 .31326295V.25926209C.21899414 .25926209 .042999269 .2312622 .042999269 .09423828V.084243778C.051986696 .016220093 .1349945-.009765625 .19400025-.009765625 .24598694-.009765625 .31098939 .022232056 .32598878 .07723999H.32699586C.32998658 .030090332 .3639984-.00390625 .4039917-.00390625 .44599916-.00390625 .47898866 .032089235 .48298646 .07310486V.14614868H.46099855V.09712219C.46099855 .068099979 .45599366 .02508545 .4229889 .02508545 .3909912 .02508545 .38398744 .068099979 .38398744 .09312439 .38398744 .10412598 .3849945 .11512756 .3849945 .12612915V.26519776C.3849945 .2762146 .38598634 .28822328 .38598634 .29922486 .38598634 .39326478 .29899598 .44628907 .21699524 .44628907 .15299988 .44628907 .07199097 .40827943 .07199097 .3302307 .07199097 .30122376 .09098816 .2852173 .114990238 .2852173 .13899231 .2852173 .1559906 .30422975 .1559906 .32724 .1559906 .35224916 .13699341 .36825563 .11299133 .36825563L.10499573 .36827088M.31999208 .24119568V.14614868C.31999208 .07524109 .2749939 .011230469 .20399475 .011230469 .1659851 .011230469 .114990238 .041229249 .114990238 .09223938 .114990238 .18025208 .19499207 .22525025 .27799989 .23725891 .2919922 .23925781 .30599977 .23825073 .31999208 .24125672V.24119568Z"/>
<path id="font_7_45" d="M.027999878 .4303894V.40135194H.04399109C.07398987 .40135194 .10398865 .3983612 .10398865 .3513031V.072006229C.10398865 .034973146 .084991458 .029968262 .027999878 .029968262V.0009765625H.2619934V.029968262C.25099183 .029968262 .23899842 .02897644 .22698975 .02897644 .19499207 .02897644 .16699219 .033966066 .16699219 .071014408V.20715332C.16699219 .28424073 .1789856 .39434815 .26098634 .41838075 .2689972 .42037965 .27598573 .42137147 .28399659 .42137147 .2889862 .42137147 .29299928 .42037965 .2979889 .42037965V.41937257C.2829895 .41337586 .27398683 .3983612 .27398683 .38233949 .27398683 .35931397 .29299928 .34329225 .31298829 .34329225 .33898927 .34329225 .35299684 .36331178 .35299684 .3833313 .35299684 .42037965 .31799317 .44140626 .28399659 .44140626 .23098755 .44140626 .19198609 .4033661 .17298889 .35931397 .16899109 .35029603 .1639862 .34028626 .16299439 .3302765L.1619873 .44140626 .027999878 .4303894Z"/>
<path id="font_7_37" d="M.03199768 .43040467V.40138246H.050994874C.07998657 .40138246 .10798645 .39736939 .10798645 .35131837V.072021488C.10798645 .034973146 .08898926 .029968262 .03199768 .029968262V.0009765625H.24899292V.029968262H.22599793C.19699097 .029968262 .17298889 .033966066 .17298889 .071014408V.25421144C.17298889 .32328797 .20799256 .42140199 .30599977 .42140199 .36698915 .42140199 .37998963 .3623352 .37998963 .30326844V.06800842C.37998963 .032974245 .35099793 .029968262 .32099916 .029968262H.3039856V.0009765625H.5209961V.029968262H.49798585C.47099305 .029968262 .44499208 .030975342 .44499208 .0690155V.29626466C.44499208 .32829286 .44400025 .35932923 .42799378 .38735963 .40499879 .42739869 .35699464 .44140626 .31399537 .44140626 .2649994 .44140626 .22299195 .42340089 .18899536 .37635804 .17999268 .3643341 .17298889 .35232545 .16899109 .3383026L.16799927 .44140626 .03199768 .43040467Z"/>
<path id="font_7_34" d="M.036987306 .43034364V.4013214H.052993776C.084991458 .4013214 .10899353 .39631654 .10899353 .35127259V.072006229C.10899353 .034973146 .08999634 .029968262 .032989503 .029968262V.0009765625H.23999024V.029968262H.22599793C.19699097 .029968262 .17199707 .031967164 .17199707 .06600952V.4413452L.036987306 .43034364M.117996219 .6640625C.09098816 .6600647 .07699585 .6381378 .07699585 .61720278 .07699585 .5962677 .09298706 .5683594 .12399292 .5683594 .15499878 .5683594 .17399597 .5922699 .17399597 .6161957 .17399597 .63713076 .1579895 .66503909 .1269989 .66503909 .12399292 .6650543 .12098694 .6640625 .117996219 .6640625Z"/>
<path id="font_7_31" d="M.32099916 .4053955H.31999208C.29299928 .43040467 .25299073 .44140626 .21798706 .44140626 .14299011 .44140626 .05999756 .38938905 .05999756 .29638673 .05999756 .26338197 .07199097 .23039246 .09399414 .2053833 .09700012 .20237732 .101989749 .1973877 .101989749 .19238281 .101989749 .18737793 .09599304 .18138123 .09399414 .17738343 .08198547 .15737915 .07499695 .133255 .07499695 .11009216 .07499695 .07785034 .08898926 .039764406 .117996219 .023757935V.022750855C.07199097 .010757446 .026992798-.028213501 .026992798-.077178958 .026992798-.16812134 .1579895-.20410156 .24299622-.20410156 .32398988-.20410156 .46099855-.17510987 .46099855-.076187137 .46099855 .04675293 .33898927 .0647583 .25698854 .0647583H.17999268C.13598633 .0647583 .102996829 .08792114 .102996829 .13124085V.13526917C.10398865 .15238953 .11099243 .16638184 .11898804 .18138123 .147995 .16539002 .17399597 .15238953 .20698548 .15039063H.21499634C.2939911 .15039063 .36099244 .19935608 .37399293 .2842865V.29527284C.37399293 .32925416 .3619995 .3532257 .34399415 .38220216 .34098817 .38519288 .33799745 .38819886 .33799745 .39219667V.39318849C.34498597 .4151764 .40098573 .43115235 .4229889 .43115235 .42799378 .43115235 .43199159 .43115235 .43699647 .43016053 .42799378 .4251709 .42099 .4161682 .42099 .40518189 .42099 .39019776 .43399049 .37921144 .44799806 .37921144 .46398927 .37921144 .47399903 .39118959 .47399903 .4071808V.4121704C.46998597 .43515016 .44999696 .45214845 .42599488 .45214845 .3899994 .45214845 .34498597 .43615724 .32099916 .40518189V.4053955M.07598877-.08418274V-.076187137C.07598877-.04220581 .099990848-.009231567 .13198853 .003768921 .1459961 .008758545 .1619873 .009765625 .1769867 .009765625H.24499512C.31098939 .009765625 .40098573 .004760742 .4119873-.07118225V-.078186038C.4119873-.15412903 .30599977-.18310547 .24598694-.18310547 .1789856-.18310547 .085998538-.15612793 .07598877-.08418274M.12998963 .27638246V.28938294C.12998963 .33738709 .13699341 .4203949 .21598816 .4203949 .27999879 .4203949 .3039856 .35739137 .3039856 .2953949 .3039856 .25138856 .29599 .17237854 .21798706 .17237854 .15899658 .17237854 .13598633 .22138977 .12998963 .27638246Z"/>
<path id="font_7_15" d="M.040985109 .68359377V.6545868H.07398987C.10699463 .6545868 .13699341 .650589 .13699341 .6136017 .13699341 .60661318 .13598633 .60061648 .13598633 .59461978V.07394409C.13598633 .033966066 .10499573 .029968262 .07199097 .029968262H.040985109V.0009765625H.31199647V.029968262H.2809906C.24198914 .029968262 .21699524 .032974245 .21699524 .07293701V.31877137H.4019928C.49699403 .32676698 .61099246 .38974 .61099246 .49768067V.5076752C.6029968 .6295929 .47099305 .6845703 .36698915 .6845703 .34799195 .6845856 .32899476 .68359377 .30999757 .68359377H.040985109M.21499634 .34277345V.6175995C.21499634 .6435852 .22499085 .6545868 .2519989 .6545868H.32699586C.4119873 .6545868 .5179901 .647583 .5179901 .49768067 .5179901 .46369935 .5139923 .42471314 .49198915 .39672853 .45700074 .35075379 .39898683 .34277345 .34599305 .34277345H.21499634Z"/>
<path id="font_7_39" d="M.22999573 .44628907C.12298584 .4362793 .0289917 .34326173 .0289917 .21624756 .0289917 .10221863 .11299133-.0087890629 .24499512-.0087890629 .36499024-.0087890629 .45899964 .097213748 .45899964 .2142334 .45899964 .32624818 .37599183 .44726563 .24299622 .44726563 .23899842 .44728089 .23399353 .44628907 .22999573 .44628907M.10598755 .1932373C.10499573 .20123291 .10499573 .20924378 .10499573 .21723938 .10499573 .28625489 .11199951 .37727357 .18899536 .41326905 .20599365 .42126466 .22499085 .42526246 .24299622 .42526246 .2809906 .42526246 .31799317 .40826417 .34298707 .37825013 .37799073 .33724977 .38198854 .28123475 .38198854 .22923279 .38198854 .17321778 .3809967 .10922241 .34298707 .062210084 .31799317 .031204224 .2809906 .013198853 .24299622 .013198853 .1599884 .013198853 .116989139 .08821106 .10899353 .16221619 .10699463 .17222595 .10699463 .18322754 .10598755 .19322205V.1932373Z"/>
<path id="font_7_23" d="M.36099244 .37226869C.35798646 .37226869 .35598756 .37327577 .35299684 .37327577 .32998658 .37327577 .31199647 .3542633 .31199647 .3312683 .31199647 .30625917 .33099366 .28926087 .35299684 .28926087 .37599183 .28926087 .3959961 .30526734 .3959961 .33226014 .3959961 .41427613 .30599977 .44628907 .24198914 .44628907 .12098694 .44628907 .034988405 .3332672 .034988405 .21723938 .034988405 .10221863 .12098694-.0087890629 .24499512-.0087890629 .31199647-.0087890629 .37098695 .02720642 .3999939 .096221927 .4019928 .10221863 .4059906 .11122131 .4059906 .11921692V.12322998C.40499879 .12722779 .40098573 .12922669 .39698792 .12922669 .38198854 .12922669 .38198854 .114227298 .3789978 .10421753 .3600006 .051208497 .30899049 .013198853 .25299073 .013198853 .14698792 .013198853 .11199951 .13223267 .11199951 .21524048 .11199951 .29725648 .13798523 .4242859 .25 .4242859 .2899933 .4242859 .33699037 .40628053 .36099244 .37226869Z"/>
<path id="font_7_46" d="M.28399659 .4152832C.2559967 .4382782 .22299195 .44628907 .18798828 .44628907 .115997318 .44628907 .032989503 .41827394 .032989503 .32226563V.31326295C.069992069 .14523316 .30699159 .24824524 .30699159 .10122681 .30699159 .039215089 .25099183 .011199951 .19799805 .011199951 .09799194 .011199951 .07299805 .09222412 .055999757 .16122437 .053985597 .16723633 .050994874 .17222595 .04399109 .17222595 .034988405 .17222595 .032989503 .16523743 .032989503 .15823365V.0032043458C.032989503-.0018005371 .034988405-.0087890629 .042999269-.0087890629 .05999756-.0087890629 .07398987 .034210206 .084991458 .034210206H.085998538C.09298706 .032211305 .09799194 .02420044 .10398865 .019210816 .1309967-.00079345706 .16299439-.0087890629 .19699097-.0087890629 .2709961-.0087890629 .35299684 .028213501 .35299684 .1282196 .35299684 .1872406 .30599977 .24024964 .25099183 .25724793 .19699097 .27424623 .07798767 .2702484 .07798767 .35125733 .07798767 .40827943 .13798523 .4282837 .18499756 .4282837 .24299622 .4282837 .30599977 .39727784 .30599977 .31225587 .30599977 .30325318 .30699159 .2962494 .31799317 .2962494 .32598878 .2962494 .32798768 .30226136 .32798768 .30924989V.4342804C.32798768 .43928529 .32499696 .44628907 .31900025 .44628907 .30599977 .44628907 .2899933 .42227174 .28399659 .4152832Z"/>
<path id="font_7_5" d="M.039993287 .6816406V.65263369H.070999149C.10499573 .65263369 .13598633 .64863589 .13598633 .61265566 .13598633 .60665896 .1349945 .5996704 .1349945 .5936737V.07394409C.1349945 .033966066 .10398865 .029968262 .070999149 .029968262H.039993287V.0009765625H.59799197L.6380005 .25686646H.6159973C.6049957 .19589234 .598999 .122924808 .55599978 .077941898 .5119934 .031967164 .44198609 .029968262 .38198854 .029968262H.2579956C.23399353 .029968262 .21598816 .032974245 .21598816 .06695557V.33984376H.30999757C.34399415 .33984376 .3809967 .3378296 .3999939 .30984498 .4139862 .28785707 .4149933 .25886537 .4149933 .23287964V.22288513H.43699647V.4857483H.4149933V.47575379C.4149933 .42478944 .40699769 .37982179 .34298707 .37083436 .32398988 .36883546 .30599977 .36883546 .2869873 .36883546H.21598816V.61865237C.21598816 .64964297 .23498535 .65263369 .2579956 .65263369H.38398744C.43798829 .65263369 .5049896 .65164187 .54299929 .60865786 .57899478 .56869509 .58099368 .5097351 .58898928 .45877076H.61099246L.58499148 .6816406H.039993287Z"/>
<path id="font_7_54" d="M.017990113 .43066407V.4016571H.036987306C.07199097 .4016571 .08699036 .38967896 .099990848 .3577118L.11999512 .30677796C.1579895 .20991516 .19599915 .11303711 .23599243 .017166138 .23999024 .0061798098 .24398804-.0087890629 .2579956-.0087890629 .27198792-.0087890629 .27598573 .0061798098 .27999879 .017166138 .31900025 .11604309 .35798646 .21490479 .397995 .31277467 .41999818 .36669923 .44400025 .4016571 .49798585 .4016571V.43066407H.34199525V.4016571C.3659973 .40066529 .3889923 .38467408 .3889923 .35871888 .3889923 .34474183 .38198854 .3317566 .3769989 .31976319 .35699464 .26683045 .33399964 .21391297 .31298829 .15997315L.29299928 .108047489C.2889862 .09806824 .2829895 .08807373 .2809906 .0770874 .2749939 .08407593 .272995 .094070438 .269989 .10205078L.25099183 .147995C.22399903 .21690369 .19699097 .28581239 .16899109 .35372926 .1659851 .36071778 .16299439 .3677063 .16299439 .37568666V.37968446C.16899109 .4016571 .19799805 .4016571 .21798706 .4016571V.43066407H.017990113Z"/>
<path id="font_7_35" d="M.032989503 .68429568V.6552887H.050994874C.08299255 .6552887 .10899353 .6512909 .10899353 .6042633V.07098389C.10899353 .033966066 .08299255 .029968262 .054992677 .029968262H.032989503V.0009765625H.24798584V.029968262H.22399903C.19499207 .029968262 .17199707 .032974245 .17199707 .068984989V.6953125L.032989503 .68429568Z"/>
<path id="font_7_53" d="M.03199768 .42956544V.40055848H.04499817C.08699036 .40055848 .10798645 .39656068 .10798645 .33666993V.13700867C.10798645 .10606384 .10899353 .0741272 .125 .047164918 .15098572 .0032196046 .20599365-.009765625 .25299073-.009765625 .30699159-.009765625 .3659973 .02520752 .3809967 .08010864L.38198854-.008773804 .5209961 .0012207031V.030197144H.5019989C.47299195 .030197144 .44499208 .034194948 .44499208 .07810974V.44140626L.3039856 .4303894V.40055848H.31599427C.34999085 .40055848 .37998963 .39855958 .37998963 .35064698V.15298462C.375 .083099368 .33599855 .01222229 .2579956 .01222229 .22099304 .01222229 .18499756 .021209717 .1749878 .0741272 .17298889 .09309387 .17298889 .11305237 .17298889 .13201905V.44140626L.03199768 .42956544Z"/>
<path id="font_7_50" d="M.1459961 .6152344C.1459961 .55044558 .11999512 .421875 .017990113 .421875V.40187074H.102996829V.17605591C.102996829 .16207886 .101989749 .14808655 .101989749 .13409424 .101989749 .044174196 .147995-.0087890629 .23098755-.0087890629 .30799867-.0087890629 .32598878 .07714844 .32598878 .13909912V.18205261H.3039856C.3039856 .16706848 .30499269 .15208435 .30499269 .13710022 .30499269 .09413147 .29699708 .013198853 .23599243 .013198853 .1789856 .013198853 .16799927 .08213806 .16799927 .13110352V.40187074H.30899049V.43066407H.16799927V.6152344H.1459961Z"/>
<path id="font_7_4" d="M.041992189 .68359377V.6545563H.07398987C.10699463 .6545563 .13798523 .6505585 .13798523 .6125946 .13798523 .6055908 .13699341 .5995941 .13699341 .5935974V.07394409C.13699341 .034957887 .10699463 .02897644 .07699585 .02897644 .06498718 .02897644 .052993776 .029968262 .041992189 .029968262V.0009765625H.31399537C.33399964 .0009918213 .35398866 0 .375 0 .44898988 0 .5159912 .018981934 .57899478 .07295227 .6549988 .13990784 .69299319 .23883057 .69299319 .33877564 .69299319 .5106659 .58099368 .6845703 .37098695 .6845703 .34999085 .6845856 .32899476 .68359377 .30899049 .68359377H.041992189M.6009979 .29881288C.59298709 .18287659 .55799868 .077941898 .43099977 .037963869 .40098573 .029968262 .37098695 .029968262 .33999635 .029968262H.25498963C.23498535 .029968262 .21499634 .031967164 .21499634 .063949588 .21499634 .07194519 .21598816 .078933719 .21598816 .0859375V.5816498C.21598816 .5906372 .21499634 .6006317 .21499634 .6106262 .21499634 .63656619 .21499634 .6545563 .2619934 .6545563H.34799195C.41799928 .6545563 .48799134 .63957217 .5439911 .5666199 .59498599 .49865724 .60198977 .41171266 .60198977 .33076478 .60198977 .31977845 .60198977 .30978395 .6009979 .2987976V.29881288Z"/>
<path id="font_7_17" d="M.11099243 .0544281C.15699768 .0034637452 .22499085-.01953125 .2939911-.01953125 .397995-.01953125 .4889984 .063430789 .4889984 .18435669 .4889984 .2662964 .43998719 .35523988 .35699464 .38023377 .24598694 .413208 .11999512 .4122162 .11199951 .5381317V.5461273C.11199951 .62008669 .1769867 .67803958 .24899292 .67803958 .34399415 .67803958 .41600038 .611084 .43598939 .49516297 .43798829 .48316957 .43399049 .45718385 .45098878 .45718385 .45999146 .45718385 .46199037 .46318055 .46199037 .47016908V.6960449C.46099855 .70106509 .45799256 .70407107 .45298768 .7050781 .43798829 .7050781 .41999818 .65509036 .4039917 .6311035 .37399293 .6800537 .3039856 .7060547 .24798584 .7060547 .1459961 .7060547 .053985597 .6260834 .053985597 .5141449 .053985597 .43719483 .101989749 .36523438 .17399597 .33724977 .19099427 .33026124 .20799256 .32725526 .22499085 .32226563L.29599 .3052826C.36299134 .28929139 .43099977 .25730897 .43099977 .15237427 .43099977 .08241272 .3769989 .015457153 .30599977 .009460449H.29699708C.19699097 .009460449 .09899902 .061431886 .07899475 .17835999 .07798767 .18835449 .07699585 .19734192 .07598877 .20733643V.22033692C.07499695 .22532654 .069992069 .22831726 .06498718 .22831726 .054992677 .22831726 .053985597 .22233582 .053985597 .21533203V-.0045318605C.053985597-.009536743 .054992677-.01953125 .06298828-.01953125 .07798767-.01953125 .10798645 .048431398 .11099243 .0544281Z"/>
<path id="font_7_41" d="M.027999878 .43040467V.4013977H.04598999C.07598877 .4013977 .10398865 .39839173 .10398865 .35636903V-.104141239C.10398865-.11016846 .10499573-.1171875 .10499573-.1242218 .10499573-.16235352 .07499695-.16436768 .041992189-.16436768H.027999878V-.19335938H.24499512V-.16436768H.22299195C.19499207-.16436768 .16899109-.16035462 .16899109-.1242218L.16999817 .055221559C.19499207 .013198853 .25-.0087890629 .29599-.0087890629 .4169922-.0087890629 .5079956 .100250247 .5079956 .2183075 .5079956 .33035279 .42399598 .44140626 .30299378 .44140626 .24798584 .44140626 .20298767 .4143982 .16699219 .3743744V.44140626L.027999878 .43040467M.42999269 .20028687C.4249878 .133255 .40098573 .05822754 .33399964 .022201539 .31900025 .015197754 .30299378 .011199951 .28599549 .011199951 .23899842 .011199951 .16899109 .05722046 .16899109 .10824585V.2753296C.16899109 .28833009 .16799927 .30033876 .16799927 .3133545 .16799927 .3693695 .23599243 .41940309 .29499818 .41940309 .3959961 .41940309 .43099977 .28733827 .43099977 .2183075 .43099977 .21229553 .43099977 .20629883 .42999269 .20028687Z"/>
<path id="font_7_49" d="M.42099 .75C.41099549 .746994 .40499879 .71798709 .397995 .70098879 .31098939 .4559784 .21798706 .21195984 .1289978-.032043458 .10899353-.08705139 .08898926-.14305115 .067993167-.19805908L.05899048-.2220459C.057998659-.22705078 .054992677-.23205567 .054992677-.23706055V-.23905945C.054992677-.24404907 .057998659-.24804688 .06298828-.24804688H.06599426C.07598877-.24604798 .083999637-.21205139 .09098816-.1950531 .18099976 .05696106 .27799989 .30796815 .36799623 .5599823 .3880005 .61598208 .40699769 .6719818 .42999269 .72698977 .43099977 .73098757 .43299867 .73599246 .43299867 .73999026V.74198916C.43299867 .746994 .42900086 .75 .42399598 .75H.42099Z"/>
<path id="font_7_16" d="M.040985109 .68359377V.6545868H.07398987C.10699463 .6545868 .13699341 .650589 .13699341 .61364749 .13699341 .60665896 .13598633 .60066226 .13598633 .5946655V.07397461C.13598633 .033966066 .10499573 .029968262 .07199097 .029968262H.040985109V.0009765625H.30999757V.029968262H.2789917C.23999024 .029968262 .21499634 .032974245 .21499634 .07296753V.3330078H.32398988C.37998963 .3330078 .42199708 .31500245 .45098878 .2709961 .46699525 .24499512 .46798707 .21699524 .46798707 .18798828V.13998413C.46798707 .08097839 .47698976-.0065460207 .6139984-.01953125H.6230011C.68299868-.01953125 .71598818 .033966066 .71598818 .0869751 .71598818 .0929718 .71598818 .10298157 .70599368 .10298157 .69099429 .10298157 .69299319 .07698059 .69099429 .064971927 .68499758 .033966066 .6619873 .00045776368 .6279907 .00045776368 .57299807 .00045776368 .56599429 .07698059 .56199648 .115982059 .5509949 .19798279 .5519867 .272995 .47299195 .32000733 .45700074 .32899476 .43899537 .33700563 .42099 .34100343 .48599244 .36198426 .5970001 .39593507 .5970001 .50180056 .5970001 .6236267 .45599366 .67858889 .35499574 .68359377H.040985109M.21499634 .35299684V.61763C.21499634 .64360049 .22499085 .6545868 .25099183 .6545868H.32398988C.40899659 .6545868 .5039978 .63061526 .5039978 .50180056 .5039978 .4209137 .45599366 .37297059 .3789978 .35699464 .35299684 .35299684 .32798768 .35299684 .3019867 .35299684H.21499634Z"/>
<path id="font_7_36" d="M.03199768 .43040467V.40138246H.050994874C.07998657 .40138246 .10798645 .39736939 .10798645 .35131837V.072021488C.10798645 .034973146 .08898926 .029968262 .03199768 .029968262V.0009765625H.24899292V.029968262H.22599793C.19699097 .029968262 .17298889 .033966066 .17298889 .071014408V.25421144C.17298889 .32328797 .20799256 .42140199 .30599977 .42140199 .36698915 .42140199 .37998963 .3623352 .37998963 .30326844V.06800842C.37998963 .032974245 .35099793 .029968262 .32099916 .029968262H.3039856V.0009765625H.5209961V.029968262H.49798585C.46899415 .029968262 .44499208 .033966066 .44499208 .071014408V.25421144C.44499208 .32328797 .47999574 .42140199 .5779877 .42140199 .6389923 .42140199 .6519928 .3623352 .6519928 .30326844V.06800842C.6519928 .032974245 .6230011 .029968262 .59298709 .029968262H.57598879V.0009765625H.79299929V.029968262H.769989C.7429962 .029968262 .71699526 .030975342 .71699526 .0690155V.29626466C.71699526 .32730104 .71598818 .3583374 .69999697 .3863678 .6769867 .42739869 .6299896 .44140626 .58499148 .44140626 .5239868 .44140626 .46099855 .40338136 .44299317 .3433075H.44198609C.43499757 .41238404 .37399293 .44140626 .30799867 .44140626 .24598694 .44140626 .18499756 .39537049 .16899109 .3383026L.16799927 .44140626 .03199768 .43040467Z"/>
<path id="font_7_56" d="M.017990113 .43066407V.4016571H.036987306C.09199524 .4016571 .09799194 .3646698 .12098694 .30769349 .1579895 .21572876 .19499207 .12176514 .23399353 .029785157 .23799134 .02178955 .24398804 .008804321 .24398804 .0018005371V-.0021972657C.23999024-.027191163 .22299195-.059173585 .21299744-.0791626 .19400025-.12416077 .16499329-.18313599 .10798645-.18313599 .08699036-.18313599 .07598877-.1741333 .057998659-.16514588V-.1641388C.07899475-.1621399 .09498596-.14814759 .09498596-.12615967 .09498596-.105163577 .07998657-.08816528 .057998659-.08816528 .035995485-.08816528 .018997193-.10316467 .018997193-.12615967 .018997193-.1761322 .06599426-.203125 .10699463-.203125 .20599365-.203125 .24299622-.06517029 .2689972-.0011901856L.3769989 .26271058C.4019928 .32469178 .4169922 .40066529 .49798585 .4016571V.43066407H.34199525V.4016571C.36499024 .40066529 .3869934 .3866577 .3880005 .36167909 .3880005 .3416748 .3769989 .3236847 .36999513 .3046875 .33799745 .23171997 .31098939 .15774536 .27999879 .08477783 .23999024 .17173767 .20899964 .26470948 .16999817 .3526764 .16799927 .35968019 .16299439 .3666687 .16299439 .3746643 .16299439 .40066529 .19699097 .4016571 .21798706 .4016571V.43066407H.017990113Z"/>
<path id="font_7_18" d="M.052993776 .67871096 .034988405 .45578004H.056991579C.06098938 .5057678 .06298828 .57673647 .09199524 .6087189 .12298584 .646698 .18099976 .6506958 .22698975 .6506958H.27198792C.2919922 .6506958 .31298829 .6486969 .31298829 .61572268V.07594299C.31298829 .034973146 .27598573 .02897644 .24099732 .02897644 .22999573 .02897644 .21798706 .029968262 .20899964 .029968262H.1789856V.0009765625H.5279999V.029968262H.46798707C.42999269 .029968262 .3939972 .033966066 .3939972 .07495117V.59872439C.3939972 .60472109 .3929901 .6107178 .3929901 .6167145 .3929901 .6457062 .41099549 .6506958 .44400025 .6506958H.47599793C.5439911 .6506958 .61499026 .6446991 .6359863 .55874636 .6439972 .52474978 .6459961 .4897766 .6489868 .45578004H.67099L.6529999 .67871096H.052993776Z"/>
<path id="font_7_42" d="M.31098939 .7499695C.27598573 .736969 .20999146 .6499634 .1789856 .5939636 .12199402 .4889679 .09899902 .36897279 .09899902 .24998474 .09899902 .065979007 .15499878-.118011478 .2999878-.2420044 .30499269-.24501038 .31098939-.25 .31698609-.25 .32199098-.25 .32499696-.24501038 .32499696-.2420044 .32499696-.23100281 .29699708-.2090149 .2869873-.1960144 .18699646-.07701111 .15299988 .08699036 .15299988 .24197388 .15299988 .40898133 .18499756 .5979614 .30999757 .7229614 .31599427 .72895815 .32499696 .7359619 .32499696 .7429657 .32499696 .7479706 .31999208 .75097659 .31498719 .75097659 .31298829 .75097659 .31199647 .75097659 .31098939 .7499695Z"/>
<path id="font_7_43" d="M.05899048 .7499695C.055999757 .74897769 .054992677 .7469635 .054992677 .7439728 .054992677 .7309723 .08099365 .7119751 .09199524 .6989746 .19499207 .5739746 .22698975 .40496827 .22698975 .24397278 .22698975 .0929718 .19499207-.07003784 .09799194-.19102478L.07398987-.21803284C.066986087-.22503662 .054992677-.23303223 .054992677-.24203491 .054992677-.24603272 .05899048-.24902344 .06399536-.24902344H.066986087C.07899475-.24702454 .09700012-.22703552 .10998535-.21403504 .23199463-.09202576 .2809906 .07997131 .2809906 .2489624 .2809906 .43296815 .22499085 .6189728 .07899475 .7429657 .07499695 .7469635 .069992069 .75097659 .06399536 .75097659 .06199646 .75097659 .06098938 .75097659 .05899048 .7499695Z"/>
<path id="font_7_9" d="M.035995485 .68359377V.6545868H.069992069C.10499573 .6545868 .13598633 .650589 .13598633 .61260989V.07293701C.13598633 .034957887 .10499573 .02897644 .07299805 .02897644 .05999756 .02897644 .04699707 .029968262 .035995485 .029968262V.0009765625H.31698609V.029968262C.30499269 .029968262 .29299928 .02897644 .2809906 .02897644 .24699402 .02897644 .21699524 .033966066 .21699524 .07293701V.61260989C.21699524 .650589 .25099183 .6545868 .2849884 .6545868H.31698609V.68359377H.035995485Z"/>
<path id="font_7_25" d="M.2999878 .6843109V.6553192H.31199647C.35198976 .6553192 .37599183 .6533203 .37599183 .593338V.3783722C.34399415 .41740418 .30099488 .44140626 .25 .44140626 .12799073 .44140626 .034988405 .33535768 .034988405 .21530152 .034988405 .10925293 .11099243-.0087890629 .24099732-.0087890629 .29499818-.0087890629 .33299256 .014205933 .37399293 .05921936V-.0087890629L.5149994 .0012054443V.030212403H.49899293C.46899415 .030212403 .43899537 .033218385 .43899537 .08023071V.6953125L.2999878 .6843109M.11199951 .19229126V.20729065C.11199951 .28033448 .12098694 .35636903 .18998719 .40238954 .20999146 .4143982 .23199463 .4203949 .2539978 .4203949 .3039856 .4203949 .375 .38038636 .375 .3173523 .375 .30433656 .37399293 .29133607 .37399293 .27833558V.11325073C.37399293 .056228639 .29499818 .011199951 .24598694 .011199951 .17199707 .011199951 .125 .08123779 .115997318 .15327454 .11399841 .16627503 .11399841 .17929077 .11199951 .19229126Z"/>
<path id="font_7_12" d="M.04399109 .68359377V.6545868H.07699585C.10998535 .6545868 .13999939 .650589 .13999939 .61361697 .13999939 .60661318 .13899231 .60061648 .13899231 .59461978V.10092163C.13899231 .036972047 .085998538 .029968262 .04399109 .029968262V.0009765625H.2579956V.029968262C.21199036 .029968262 .16299439 .038970949 .16299439 .10592651L.1639862 .650589C.16899109 .63360598 .1769867 .61660769 .18299866 .59962466 .24099732 .4507141 .29599 .3027954 .35299684 .15390015L.397995 .036972047C.4019928 .023971558 .4059906 .003967285 .42099 .0009765625H.42199708C.43699647 .0009765625 .44099427 .023971558 .44499208 .034973146L.621994 .49668885C.6349945 .531662 .647995 .56663516 .6619873 .60162356L.673996 .6345978C.6769867 .64160159 .6799927 .6485901 .6819916 .6565857L.68299868 .09692383C.68299868 .08892822 .6839905 .079940799 .6839905 .07194519 .6839905 .033966066 .6529999 .02897644 .621994 .02897644 .6100006 .02897644 .59799197 .029968262 .58799746 .029968262V.0009765625H.85198977V.029968262H.81999209C.7869873 .029968262 .7559967 .033966066 .7559967 .07194519 .7559967 .078933719 .7569885 .08493042 .7569885 .090927127V.61061099C.7569885 .64959719 .7869873 .6555786 .81700137 .6555786 .82899478 .6555786 .84098818 .6545868 .85198977 .6545868V.68359377H.69200137L.6749878 .68058779 .6549988 .63760378 .44898988 .09692383H.44699098L.24099732 .63760378 .22099304 .68058779 .20399475 .68359377H.04399109Z"/>
<path id="font_7_28" d="M.10899353 .43066407H.0309906V.4016571H.10899353V.06793213C.10899353 .032958986 .07998657 .029968262 .049987794 .029968262H.032989503V.0009765625H.2669983V.029968262H.23599243C.19599915 .029968262 .17199707 .032958986 .17199707 .075927738V.4016571H.2849884V.43066407H.16999817V.5258026C.16999817 .55885317 .16999817 .5908966 .18299866 .62194827 .19599915 .6519928 .22099304 .68403628 .2559967 .68504336 .2689972 .68504336 .2809906 .68203738 .29299928 .6770325 .2769928 .6700134 .2630005 .66000369 .2630005 .63797 .2630005 .6159363 .2789917 .59791567 .3019867 .59791567 .32899476 .59791567 .34298707 .61694338 .34298707 .63897708 .34298707 .6830292 .29699708 .7050781 .25898744 .7050781 .19299317 .7050781 .13598633 .6609955 .115997318 .59991458 .10998535 .57987979 .10899353 .559845 .10899353 .53881838V.43066407Z"/>
<path id="font_7_19" d="M.017990113 .68359377V.6545868H.038986207C.06098938 .6545868 .08299255 .6525879 .09700012 .63960269 .10899353 .62661746 .11399841 .60565188 .12098694 .5886688L.15699768 .49279786C.21699524 .3350067 .27598573 .17720032 .33699037 .02041626L.34498597-.0015563965C.34899903-.012542725 .35398866-.01953125 .36698915-.01953125 .3869934-.01953125 .3899994 .004425049 .3959961 .01940918 .46499635 .20417786 .5399933 .38793946 .60598757 .5726929 .621994 .6126404 .6399994 .6545868 .71499636 .6545868V.68359377H.5219879V.6545868C.54299929 .6545868 .56199648 .64759829 .57699587 .63261416L.58299258 .6236267C.58599856 .6186371 .58699038 .6126404 .58699038 .60765078 .58699038 .5946655 .5799866 .5816803 .57598879 .56869509L.5569916 .51976016C.5089874 .39292909 .46199037 .26509095 .4119873 .13925171 .4059906 .12327576 .40098573 .107299808 .3939972 .092315677 .32798768 .2541046 .2669983 .42088319 .20599365 .5856781L.19599915 .61164858C.19400025 .6156311 .19299317 .620636 .19299317 .6256256V.62861636C.19799805 .6545868 .24099732 .6545868 .2669983 .6545868V.68359377H.017990113Z"/>
<path id="font_7_8" d="M.040985109 .68359377V.6545868H.07299805C.10598755 .6545868 .13699341 .650589 .13699341 .61260989 .13699341 .60562136 .13598633 .59962466 .13598633 .5936279V.07394409C.13598633 .034973146 .10598755 .02897644 .07598877 .02897644 .06399536 .02897644 .051986696 .029968262 .040985109 .029968262V.0009765625H.31199647V.029968262C.2999878 .029968262 .28799439 .02897644 .27598573 .02897644 .24398804 .02897644 .21699524 .034973146 .21699524 .07394409V.34179688H.5159912V.07394409C.5159912 .031967164 .48999024 .029968262 .42099 .029968262V.0009765625H.69200137V.029968262H.6599884C.6269989 .029968262 .59599307 .033966066 .59599307 .07194519 .59599307 .078933719 .5970001 .08493042 .5970001 .090927127V.61061099C.5970001 .64959719 .6269989 .6555786 .6569977 .6555786 .6689911 .6555786 .68099978 .6545868 .69200137 .6545868V.68359377H.42099V.6545868C.43299867 .6545868 .44499208 .6555786 .45599366 .6555786 .4889984 .6555786 .5159912 .650589 .5159912 .61161807V.37078858H.21699524V.61161807C.21699524 .6525879 .25 .6545868 .2939911 .6545868H.31199647V.68359377H.040985109Z"/>
<path id="font_7_33" d="M.010986328 .24316406V.18916321H.2709961V.24316406H.010986328Z"/>
<path id="font_7_1" d="M.0309906 .029968262V.0009765625H.22898865V.029968262C.20199585 .029968262 .1619873 .043945314 .1619873 .07789612 .1619873 .08988953 .16799927 .101867679 .17199707 .114852908 .17799378 .13381958 .18499756 .15280152 .19198609 .17176819 .20098877 .19673157 .20498657 .23368836 .22299195 .23368836H.45498658C.46798707 .23368836 .46899415 .22270203 .47200013 .2137146L.49299623 .15379334C.5009918 .13082886 .5089874 .1068573 .5169983 .08389282 .519989 .0769043 .5239868 .06791687 .5239868 .059921266 .5239868 .030960083 .47599793 .029968262 .44898988 .029968262V.0009765625H.70199587V.029968262H.67900088C.6559906 .029968262 .6329956 .030960083 .6199951 .043945314 .60798647 .056930543 .6029968 .0769043 .59799197 .09388733 .5269928 .2866974 .46199037 .48075868 .394989 .6738281 .3899994 .6918335 .3869934 .71484377 .3659973 .71484377 .35398866 .71484377 .34799195 .70783999 .34599305 .6968384L.33799745 .67481997C.27598573 .48876954 .20899964 .30270387 .14299011 .11685181 .12799073 .07090759 .10798645 .029968262 .0309906 .029968262M.22299195 .2626953 .33898927 .59480288 .45498658 .2626953H.22299195Z"/>
</defs>
<path transform="matrix(1,0,0,-1,229.8953,165.4074)" d="M0 0V152.26C0 154.46 1.784 156.245 3.985 156.245H346.097C348.298 156.245 350.082 154.46 350.082 152.26V0C350.082-2.201 348.298-3.985 346.097-3.985H3.985C1.784-3.985 0-2.201 0 0Z" fill="#bcdedd"/>
<path transform="matrix(1,0,0,-1,229.8953,165.4074)" stroke-width="1.993" stroke-linecap="butt" stroke-miterlimit="10" stroke-linejoin="miter" fill="none" stroke="#79bcba" d="M0 0V152.26C0 154.46 1.784 156.245 3.985 156.245H346.097C348.298 156.245 350.082 154.46 350.082 152.26V0C350.082-2.201 348.298-3.985 346.097-3.985H3.985C1.784-3.985 0-2.201 0 0Z"/>
<path transform="matrix(1,0,0,-1,325.7134,.9938965)" d="M0 0H-81.226C-83.427 0-85.211-1.784-85.211-3.985V-12.352C-85.211-14.553-83.427-16.338-81.226-16.338H0C2.201-16.338 3.985-14.553 3.985-12.352V-3.985C3.985-1.784 2.201 0 0 0Z" fill="#ffffff"/>
<path transform="matrix(1,0,0,-1,325.7134,.9938965)" stroke-width="1.993" stroke-linecap="butt" stroke-miterlimit="10" stroke-linejoin="miter" fill="none" stroke="#79bcba" d="M0 0H-81.226C-83.427 0-85.211-1.784-85.211-3.985V-12.352C-85.211-14.553-83.427-16.338-81.226-16.338H0C2.201-16.338 3.985-14.553 3.985-12.352V-3.985C3.985-1.784 2.201 0 0 0Z"/>
<use data-text="L" xlink:href="#font_7_11" transform="matrix(11.35725,0,0,-11.35725,243.654,11.971985)"/>
<use data-text="e" xlink:href="#font_7_26" transform="matrix(11.35725,0,0,-11.35725,250.60465,11.971985)"/>
<use data-text="a" xlink:href="#font_7_21" transform="matrix(11.35725,0,0,-11.35725,255.54505,11.971985)"/>
<use data-text="r" xlink:href="#font_7_45" transform="matrix(11.35725,0,0,-11.35725,261.1101,11.971985)"/>
<use data-text="n" xlink:href="#font_7_37" transform="matrix(11.35725,0,0,-11.35725,265.43724,11.971985)"/>
<use data-text="i" xlink:href="#font_7_34" transform="matrix(11.35725,0,0,-11.35725,271.61558,11.971985)"/>
<use data-text="n" xlink:href="#font_7_37" transform="matrix(11.35725,0,0,-11.35725,274.70475,11.971985)"/>
<use data-text="g" xlink:href="#font_7_31" transform="matrix(11.35725,0,0,-11.35725,280.8831,11.971985)"/>
<use data-text="P" xlink:href="#font_7_15" transform="matrix(11.35725,0,0,-11.35725,290.12898,11.971985)"/>
<use data-text="r" xlink:href="#font_7_45" transform="matrix(11.35725,0,0,-11.35725,297.6929,11.971985)"/>
<use data-text="o" xlink:href="#font_7_39" transform="matrix(11.35725,0,0,-11.35725,302.02003,11.971985)"/>
<use data-text="c" xlink:href="#font_7_23" transform="matrix(11.35725,0,0,-11.35725,307.89176,11.971985)"/>
<use data-text="e" xlink:href="#font_7_26" transform="matrix(11.35725,0,0,-11.35725,312.83216,11.971985)"/>
<use data-text="s" xlink:href="#font_7_46" transform="matrix(11.35725,0,0,-11.35725,317.77256,11.971985)"/>
<use data-text="s" xlink:href="#font_7_46" transform="matrix(11.35725,0,0,-11.35725,322.15647,11.971985)"/>
<path transform="matrix(1,0,0,-1,229.8953,176.0706)" d="M0 0V-152.26C0-154.46 1.784-156.245 3.985-156.245H346.097C348.298-156.245 350.082-154.46 350.082-152.26V0C350.082 2.201 348.298 3.985 346.097 3.985H3.985C1.784 3.985 0 2.201 0 0Z" fill="#e6f5c2"/>
<path transform="matrix(1,0,0,-1,229.8953,176.0706)" stroke-width="1.993" stroke-linecap="butt" stroke-miterlimit="10" stroke-linejoin="miter" fill="none" stroke="#ccea84" d="M0 0V-152.26C0-154.46 1.784-156.245 3.985-156.245H346.097C348.298-156.245 350.082-154.46 350.082-152.26V0C350.082 2.201 348.298 3.985 346.097 3.985H3.985C1.784 3.985 0 2.201 0 0Z"/>
<path transform="matrix(1,0,0,-1,335.8862,325.2505)" d="M0 0H-90.799C-93 0-94.785-1.784-94.785-3.985V-10.145C-94.785-12.345-93-14.13-90.799-14.13H0C2.201-14.13 3.985-12.345 3.985-10.145V-3.985C3.985-1.784 2.201 0 0 0Z" fill="#ffffff"/>
<path transform="matrix(1,0,0,-1,335.8862,325.2505)" stroke-width="1.993" stroke-linecap="butt" stroke-miterlimit="10" stroke-linejoin="miter" fill="none" stroke="#ccea84" d="M0 0H-90.799C-93 0-94.785-1.784-94.785-3.985V-10.145C-94.785-12.345-93-14.13-90.799-14.13H0C2.201-14.13 3.985-12.345 3.985-10.145V-3.985C3.985-1.784 2.201 0 0 0Z"/>
<use data-text="E" xlink:href="#font_7_5" transform="matrix(11.35725,0,0,-11.35725,244.253,336.224)"/>
<use data-text="v" xlink:href="#font_7_54" transform="matrix(11.35725,0,0,-11.35725,251.81694,336.224)"/>
<use data-text="a" xlink:href="#font_7_21" transform="matrix(11.35725,0,0,-11.35725,257.0751,336.224)"/>
<use data-text="l" xlink:href="#font_7_35" transform="matrix(11.35725,0,0,-11.35725,262.64018,336.224)"/>
<use data-text="u" xlink:href="#font_7_53" transform="matrix(11.35725,0,0,-11.35725,265.72935,336.224)"/>
<use data-text="a" xlink:href="#font_7_21" transform="matrix(11.35725,0,0,-11.35725,271.90769,336.224)"/>
<use data-text="t" xlink:href="#font_7_50" transform="matrix(11.35725,0,0,-11.35725,277.47276,336.224)"/>
<use data-text="i" xlink:href="#font_7_34" transform="matrix(11.35725,0,0,-11.35725,281.79988,336.224)"/>
<use data-text="o" xlink:href="#font_7_39" transform="matrix(11.35725,0,0,-11.35725,284.88905,336.224)"/>
<use data-text="n" xlink:href="#font_7_37" transform="matrix(11.35725,0,0,-11.35725,290.4541,336.224)"/>
<use data-text="P" xlink:href="#font_7_15" transform="matrix(11.35725,0,0,-11.35725,300.3349,336.224)"/>
<use data-text="r" xlink:href="#font_7_45" transform="matrix(11.35725,0,0,-11.35725,307.89884,336.224)"/>
<use data-text="o" xlink:href="#font_7_39" transform="matrix(11.35725,0,0,-11.35725,312.22596,336.224)"/>
<use data-text="c" xlink:href="#font_7_23" transform="matrix(11.35725,0,0,-11.35725,318.0977,336.224)"/>
<use data-text="e" xlink:href="#font_7_26" transform="matrix(11.35725,0,0,-11.35725,323.0381,336.224)"/>
<use data-text="s" xlink:href="#font_7_46" transform="matrix(11.35725,0,0,-11.35725,327.9785,336.224)"/>
<use data-text="s" xlink:href="#font_7_46" transform="matrix(11.35725,0,0,-11.35725,332.3624,336.224)"/>
<path transform="matrix(1,0,0,-1,.99560168,254.2744)" d="M0 0V153.606C0 155.807 1.784 157.591 3.985 157.591H339.364C341.565 157.591 343.35 155.807 343.35 153.606V0C343.35-2.201 341.565-3.985 339.364-3.985H3.985C1.784-3.985 0-2.201 0 0Z" fill="#80aabb" fill-opacity=".5"/>
<path transform="matrix(1,0,0,-1,.99560168,254.2744)" stroke-width="1.993" stroke-linecap="butt" stroke-miterlimit="10" stroke-linejoin="miter" fill="none" stroke="#80aabb" d="M0 0V153.606C0 155.807 1.784 157.591 3.985 157.591H339.364C341.565 157.591 343.35 155.807 343.35 153.606V0C343.35-2.201 341.565-3.985 339.364-3.985H3.985C1.784-3.985 0-2.201 0 0Z"/>
<path transform="matrix(1,0,0,-1,193.41809,87.8521)" d="M0 0H-177.488C-179.689 0-181.474-1.784-181.474-3.985V-13.677C-181.474-15.878-179.689-17.662-177.488-17.662H0C2.201-17.662 3.985-15.878 3.985-13.677V-3.985C3.985-1.784 2.201 0 0 0Z" fill="#ffffff"/>
<path transform="matrix(1,0,0,-1,193.41809,87.8521)" stroke-width="1.993" stroke-linecap="butt" stroke-miterlimit="10" stroke-linejoin="miter" fill="none" stroke="#80aabb" d="M0 0H-177.488C-179.689 0-181.474-1.784-181.474-3.985V-13.677C-181.474-15.878-179.689-17.662-177.488-17.662H0C2.201-17.662 3.985-15.878 3.985-13.677V-3.985C3.985-1.784 2.201 0 0 0Z"/>
<use data-text="D" xlink:href="#font_7_4" transform="matrix(11.35725,0,0,-11.35725,15.099,99.522998)"/>
<use data-text="a" xlink:href="#font_7_21" transform="matrix(11.35725,0,0,-11.35725,23.594223,99.522998)"/>
<use data-text="t" xlink:href="#font_7_50" transform="matrix(11.35725,0,0,-11.35725,29.159276,99.522998)"/>
<use data-text="a" xlink:href="#font_7_21" transform="matrix(11.35725,0,0,-11.35725,33.48639,99.522998)"/>
<use data-text="S" xlink:href="#font_7_17" transform="matrix(11.35725,0,0,-11.35725,42.731599,99.52295)"/>
<use data-text="p" xlink:href="#font_7_41" transform="matrix(11.35725,0,0,-11.35725,48.909944,99.52295)"/>
<use data-text="l" xlink:href="#font_7_35" transform="matrix(11.35725,0,0,-11.35725,55.088289,99.52295)"/>
<use data-text="i" xlink:href="#font_7_34" transform="matrix(11.35725,0,0,-11.35725,58.17746,99.52295)"/>
<use data-text="t" xlink:href="#font_7_50" transform="matrix(11.35725,0,0,-11.35725,61.266633,99.52295)"/>
<use data-text="t" xlink:href="#font_7_50" transform="matrix(11.35725,0,0,-11.35725,65.59374,99.52295)"/>
<use data-text="i" xlink:href="#font_7_34" transform="matrix(11.35725,0,0,-11.35725,69.92085,99.52295)"/>
<use data-text="n" xlink:href="#font_7_37" transform="matrix(11.35725,0,0,-11.35725,73.010028,99.52295)"/>
<use data-text="g" xlink:href="#font_7_31" transform="matrix(11.35725,0,0,-11.35725,79.18837,99.52295)"/>
<use data-text="/" xlink:href="#font_7_49" transform="matrix(11.35725,0,0,-11.35725,88.46729,99.52295)"/>
<use data-text="R" xlink:href="#font_7_16" transform="matrix(11.35725,0,0,-11.35725,97.73472,99.52295)"/>
<use data-text="e" xlink:href="#font_7_26" transform="matrix(11.35725,0,0,-11.35725,105.91194,99.52295)"/>
<use data-text="s" xlink:href="#font_7_46" transform="matrix(11.35725,0,0,-11.35725,110.85235,99.52295)"/>
<use data-text="a" xlink:href="#font_7_21" transform="matrix(11.35725,0,0,-11.35725,115.236248,99.52295)"/>
<use data-text="m" xlink:href="#font_7_36" transform="matrix(11.35725,0,0,-11.35725,120.8013,99.52295)"/>
<use data-text="p" xlink:href="#font_7_41" transform="matrix(11.35725,0,0,-11.35725,130.06882,99.52295)"/>
<use data-text="l" xlink:href="#font_7_35" transform="matrix(11.35725,0,0,-11.35725,136.24716,99.52295)"/>
<use data-text="i" xlink:href="#font_7_34" transform="matrix(11.35725,0,0,-11.35725,139.33634,99.52295)"/>
<use data-text="n" xlink:href="#font_7_37" transform="matrix(11.35725,0,0,-11.35725,142.4255,99.52295)"/>
<use data-text="g" xlink:href="#font_7_31" transform="matrix(11.35725,0,0,-11.35725,148.60385,99.52295)"/>
<use data-text="P" xlink:href="#font_7_15" transform="matrix(11.35725,0,0,-11.35725,157.87137,99.52295)"/>
<use data-text="r" xlink:href="#font_7_45" transform="matrix(11.35725,0,0,-11.35725,165.4353,99.52295)"/>
<use data-text="o" xlink:href="#font_7_39" transform="matrix(11.35725,0,0,-11.35725,169.76242,99.52295)"/>
<use data-text="c" xlink:href="#font_7_23" transform="matrix(11.35725,0,0,-11.35725,175.64553,99.52295)"/>
<use data-text="e" xlink:href="#font_7_26" transform="matrix(11.35725,0,0,-11.35725,180.57453,99.52295)"/>
<use data-text="s" xlink:href="#font_7_46" transform="matrix(11.35725,0,0,-11.35725,185.51493,99.52295)"/>
<use data-text="s" xlink:href="#font_7_46" transform="matrix(11.35725,0,0,-11.35725,189.91022,99.52295)"/>
<path transform="matrix(1,0,0,-1,82.2562,173.1625)" stroke-width="1.993" stroke-linecap="butt" stroke-miterlimit="10" stroke-linejoin="miter" fill="none" stroke="#a9a9a9" d="M0 0H42.731"/>
<path transform="matrix(1,0,0,-1,128.6609,173.16246)" d="M0 0-3.362 2.817V0-2.817Z" fill="#a9a9a9"/>
<path transform="matrix(1,0,0,-1,128.6609,173.16246)" stroke-width="1.245" stroke-linecap="butt" stroke-linejoin="round" fill="none" stroke="#a9a9a9" d="M0 0-3.362 2.817V0-2.817Z"/>
<path transform="matrix(1,0,0,-1,316.5343,227.0187)" stroke-width="1.993" stroke-linecap="butt" stroke-miterlimit="10" stroke-linejoin="miter" fill="none" stroke="#a9a9a9" d="M0 0H45.419"/>
<path transform="matrix(1,0,0,-1,365.62696,227.01865)" d="M0 0-3.362 2.817V0-2.817Z" fill="#a9a9a9"/>
<path transform="matrix(1,0,0,-1,365.62696,227.01865)" stroke-width="1.245" stroke-linecap="butt" stroke-linejoin="round" fill="none" stroke="#a9a9a9" d="M0 0-3.362 2.817V0-2.817Z"/>
<path transform="matrix(1,0,0,-1,489.5195,227.0187)" stroke-width="1.993" stroke-linecap="butt" stroke-miterlimit="10" stroke-linejoin="miter" fill="none" stroke="#a9a9a9" d="M0 0H-38.938"/>
<path transform="matrix(-1,0,0,1,446.90849,227.01865)" d="M0 0-3.362 2.817V0-2.817Z" fill="#a9a9a9"/>
<path transform="matrix(-1,0,0,1,446.90849,227.01865)" stroke-width="1.245" stroke-linecap="butt" stroke-linejoin="round" fill="none" stroke="#a9a9a9" d="M0 0-3.362 2.817V0-2.817Z"/>
<path transform="matrix(1,0,0,-1,437.70133,299.72669)" stroke-width="1.993" stroke-linecap="butt" stroke-dasharray="2.989,2.989" stroke-miterlimit="10" stroke-linejoin="miter" fill="none" stroke="#a9a9a9" d="M0 0H50.802"/>
<path transform="matrix(1,0,0,-1,492.17698,299.72669)" d="M0 0-3.362 2.817V0-2.817Z" fill="#a9a9a9"/>
<path transform="matrix(1,0,0,-1,492.17698,299.72669)" stroke-width="1.245" stroke-linecap="butt" stroke-linejoin="round" fill="none" stroke="#a9a9a9" d="M0 0-3.362 2.817V0-2.817Z"/>
<path transform="matrix(1,0,0,-1,493.29783,46.5989)" stroke-width="1.993" stroke-linecap="butt" stroke-dasharray="2.989,2.989" stroke-miterlimit="10" stroke-linejoin="miter" fill="none" stroke="#a9a9a9" d="M0 0H-42.724"/>
<path transform="matrix(-1,0,0,1,446.90083,46.598909)" d="M0 0-3.362 2.817V0-2.817Z" fill="#a9a9a9"/>
<path transform="matrix(-1,0,0,1,446.90083,46.598909)" stroke-width="1.245" stroke-linecap="butt" stroke-linejoin="round" fill="none" stroke="#a9a9a9" d="M0 0-3.362 2.817V0-2.817Z"/>
<path transform="matrix(1,0,0,-1,282.40013,111.7726)" stroke-width="1.993" stroke-linecap="butt" stroke-miterlimit="10" stroke-linejoin="miter" fill="none" stroke="#a9a9a9" d="M0 0C15.802 38.522 43.078 59.598 79.589 64.532"/>
<path transform="matrix(.99095,-.1339,-.1339,-.99095,365.62947,46.748964)" d="M0 0-3.362 2.817V0-2.817Z" fill="#a9a9a9"/>
<path transform="matrix(.99095,-.1339,-.1339,-.99095,365.62947,46.748964)" stroke-width="1.245" stroke-linecap="butt" stroke-linejoin="round" fill="none" stroke="#a9a9a9" d="M0 0-3.362 2.817V0-2.817Z"/>
<path transform="matrix(1,0,0,-1,316.5343,227.0199)" stroke-width="1.993" stroke-linecap="butt" stroke-miterlimit="10" stroke-linejoin="miter" fill="none" stroke="#a9a9a9" d="M0 0C50.214 0 0 99.635 45.419 99.635"/>
<path transform="matrix(1,0,0,-1,365.62696,127.3844)" d="M0 0-3.362 2.817V0-2.817Z" fill="#a9a9a9"/>
<path transform="matrix(1,0,0,-1,365.62696,127.3844)" stroke-width="1.245" stroke-linecap="butt" stroke-linejoin="round" fill="none" stroke="#a9a9a9" d="M0 0-3.362 2.817V0-2.817Z"/>
<path transform="matrix(1,0,0,-1,406.2601,71.3081)" stroke-width="5.978" stroke-linecap="butt" stroke-miterlimit="10" stroke-linejoin="miter" fill="none" stroke="#a9a9a9" d="M0 0V-21.554"/>
<path transform="matrix(0,1,1,0,406.26005,100.80717)" d="M0 0-7.26 5.573V0-5.573Z" fill="#a9a9a9"/>
<path transform="matrix(0,1,1,0,406.26005,100.80717)" stroke-width="2.74" stroke-linecap="butt" stroke-linejoin="round" fill="none" stroke="#a9a9a9" d="M0 0-7.26 5.573V0-5.573Z"/>
<path transform="matrix(1,0,0,-1,406.2677,251.7278)" stroke-width="5.978" stroke-linecap="butt" stroke-miterlimit="10" stroke-linejoin="miter" fill="none" stroke="#a9a9a9" d="M0 0V-21.517"/>
<path transform="matrix(0,1,1,0,406.2677,281.18998)" d="M0 0-7.26 5.573V0-5.573Z" fill="#a9a9a9"/>
<path transform="matrix(0,1,1,0,406.2677,281.18998)" stroke-width="2.74" stroke-linecap="butt" stroke-linejoin="round" fill="none" stroke="#a9a9a9" d="M0 0-7.26 5.573V0-5.573Z"/>
<path transform="matrix(1,0,0,-1,208.8215,173.1625)" stroke-width="5.978" stroke-linecap="butt" stroke-miterlimit="10" stroke-linejoin="miter" fill="none" stroke="#a9a9a9" d="M0 0 31.65 24.207"/>
<path transform="matrix(.79428,-.60748,-.60748,-.79428,246.7821,144.1291)" d="M0 0-7.26 5.573V0-5.573Z" fill="#a9a9a9"/>
<path transform="matrix(.79428,-.60748,-.60748,-.79428,246.7821,144.1291)" stroke-width="2.74" stroke-linecap="butt" stroke-linejoin="round" fill="none" stroke="#a9a9a9" d="M0 0-7.26 5.573V0-5.573Z"/>
<path transform="matrix(1,0,0,-1,208.8215,173.1625)" stroke-width="5.978" stroke-linecap="butt" stroke-miterlimit="10" stroke-linejoin="miter" fill="none" stroke="#a9a9a9" d="M0 0 32.399-31.416"/>
<path transform="matrix(.71791,.6961,.6961,-.71791,246.92478,210.10863)" d="M0 0-7.26 5.573V0-5.573Z" fill="#a9a9a9"/>
<path transform="matrix(.71791,.6961,.6961,-.71791,246.92478,210.10863)" stroke-width="2.74" stroke-linecap="butt" stroke-linejoin="round" fill="none" stroke="#a9a9a9" d="M0 0-7.26 5.573V0-5.573Z"/>
<path transform="matrix(1,0,0,-1,440.3334,125.8386)" stroke-width="5.978" stroke-linecap="butt" stroke-miterlimit="10" stroke-linejoin="miter" fill="none" stroke="#a9a9a9" d="M0 0C49.484-14.025 75.89-41.198 83.776-72.416"/>
<path transform="matrix(.24489,.96951,.96951,-.24489,526.0553,205.95742)" d="M0 0-7.26 5.573V0-5.573Z" fill="#a9a9a9"/>
<path transform="matrix(.24489,.96951,.96951,-.24489,526.0553,205.95742)" stroke-width="2.74" stroke-linecap="butt" stroke-linejoin="round" fill="none" stroke="#a9a9a9" d="M0 0-7.26 5.573V0-5.573Z"/>
<path transform="matrix(1,0,0,-1,441.33793,103.146999)" d="M0 0H-70.125C-72.326 0-74.11-1.784-74.11-3.985V-44.488C-74.11-46.689-72.326-48.473-70.125-48.473H0C2.201-48.473 3.985-46.689 3.985-44.488V-3.985C3.985-1.784 2.201 0 0 0Z" fill="#79bcba"/>
<path transform="matrix(1,0,0,-1,441.33793,103.146999)" stroke-width=".996" stroke-linecap="butt" stroke-miterlimit="10" stroke-linejoin="miter" fill="none" stroke="#000000" d="M0 0H-70.125C-72.326 0-74.11-1.784-74.11-3.985V-44.488C-74.11-46.689-72.326-48.473-70.125-48.473H0C2.201-48.473 3.985-46.689 3.985-44.488V-3.985C3.985-1.784 2.201 0 0 0Z"/>
<path transform="matrix(1,0,0,-1,14.4603,170.739)" d="M0 0V15.138H67.323V-15.138-17.504C58.028-14.349 42.957-14.349 33.662-17.504 24.366-20.659 9.295-20.659 0-17.504Z" fill="#e4f1f1"/>
<path transform="matrix(1,0,0,-1,14.4603,170.739)" stroke-width=".996" stroke-linecap="butt" stroke-miterlimit="10" stroke-linejoin="miter" fill="none" stroke="#000000" d="M0 0V15.138H67.323V-15.138-17.504C58.028-14.349 42.957-14.349 33.662-17.504 24.366-20.659 9.295-20.659 0-17.504Z"/>
<use data-text="D" xlink:href="#font_7_4" transform="matrix(11.35725,0,0,-11.35725,36.156,174.65)"/>
<use data-text="a" xlink:href="#font_7_21" transform="matrix(11.35725,0,0,-11.35725,44.651224,174.65)"/>
<use data-text="t" xlink:href="#font_7_50" transform="matrix(11.35725,0,0,-11.35725,50.216276,174.65)"/>
<use data-text="a" xlink:href="#font_7_21" transform="matrix(11.35725,0,0,-11.35725,54.54339,174.65)"/>
<path transform="matrix(1,0,0,-1,204.3667,148.9261)" d="M0 0H-70.125C-72.326 0-74.11-1.784-74.11-3.985V-44.488C-74.11-46.689-72.326-48.473-70.125-48.473H0C2.201-48.473 3.985-46.689 3.985-44.488V-3.985C3.985-1.784 2.201 0 0 0Z" fill="#79bcba"/>
<path transform="matrix(1,0,0,-1,204.3667,148.9261)" stroke-width=".996" stroke-linecap="butt" stroke-miterlimit="10" stroke-linejoin="miter" fill="none" stroke="#000000" d="M0 0H-70.125C-72.326 0-74.11-1.784-74.11-3.985V-44.488C-74.11-46.689-72.326-48.473-70.125-48.473H0C2.201-48.473 3.985-46.689 3.985-44.488V-3.985C3.985-1.784 2.201 0 0 0Z"/>
<use data-text="R" xlink:href="#font_7_16" transform="matrix(11.35725,0,0,-11.35725,141.092,169.34439)" fill="#ffffff"/>
<use data-text="e" xlink:href="#font_7_26" transform="matrix(11.35725,0,0,-11.35725,149.26921,169.34439)" fill="#ffffff"/>
<use data-text="s" xlink:href="#font_7_46" transform="matrix(11.35725,0,0,-11.35725,154.20961,169.34439)" fill="#ffffff"/>
<use data-text="a" xlink:href="#font_7_21" transform="matrix(11.35725,0,0,-11.35725,158.5935,169.34439)" fill="#ffffff"/>
<use data-text="m" xlink:href="#font_7_36" transform="matrix(11.35725,0,0,-11.35725,164.15856,169.34439)" fill="#ffffff"/>
<use data-text="p" xlink:href="#font_7_41" transform="matrix(11.35725,0,0,-11.35725,173.42607,169.34439)" fill="#ffffff"/>
<use data-text="l" xlink:href="#font_7_35" transform="matrix(11.35725,0,0,-11.35725,179.60442,169.34439)" fill="#ffffff"/>
<use data-text="i" xlink:href="#font_7_34" transform="matrix(11.35725,0,0,-11.35725,182.69359,169.34439)" fill="#ffffff"/>
<use data-text="n" xlink:href="#font_7_37" transform="matrix(11.35725,0,0,-11.35725,185.78276,169.34439)" fill="#ffffff"/>
<use data-text="g" xlink:href="#font_7_31" transform="matrix(11.35725,0,0,-11.35725,191.9611,169.34439)" fill="#ffffff"/>
<use data-text="S" xlink:href="#font_7_17" transform="matrix(11.35725,0,0,-11.35725,148.76515,182.59499)" fill="#ffffff"/>
<use data-text="t" xlink:href="#font_7_50" transform="matrix(11.35725,0,0,-11.35725,154.9435,182.59499)" fill="#ffffff"/>
<use data-text="r" xlink:href="#font_7_45" transform="matrix(11.35725,0,0,-11.35725,159.27062,182.59499)" fill="#ffffff"/>
<use data-text="a" xlink:href="#font_7_21" transform="matrix(11.35725,0,0,-11.35725,163.59774,182.59499)" fill="#ffffff"/>
<use data-text="t" xlink:href="#font_7_50" transform="matrix(11.35725,0,0,-11.35725,169.16278,182.59499)" fill="#ffffff"/>
<use data-text="e" xlink:href="#font_7_26" transform="matrix(11.35725,0,0,-11.35725,173.4899,182.59499)" fill="#ffffff"/>
<use data-text="g" xlink:href="#font_7_31" transform="matrix(11.35725,0,0,-11.35725,178.4303,182.59499)" fill="#ffffff"/>
<use data-text="y" xlink:href="#font_7_56" transform="matrix(11.35725,0,0,-11.35725,183.99535,182.59499)" fill="#ffffff"/>
<path transform="matrix(1,0,0,-1,254.12921,121.9966)" d="M0 0V15.138H67.323V-15.138-17.504C58.028-14.349 42.957-14.349 33.662-17.504 24.366-20.659 9.295-20.659 0-17.504Z" fill="#e4f1f1"/>
<path transform="matrix(1,0,0,-1,254.12921,121.9966)" stroke-width=".996" stroke-linecap="butt" stroke-miterlimit="10" stroke-linejoin="miter" fill="none" stroke="#000000" d="M0 0V15.138H67.323V-15.138-17.504C58.028-14.349 42.957-14.349 33.662-17.504 24.366-20.659 9.295-20.659 0-17.504Z"/>
<use data-text="T" xlink:href="#font_7_18" transform="matrix(11.35725,0,0,-11.35725,274.6625,117.86339)"/>
<use data-text="r" xlink:href="#font_7_45" transform="matrix(11.35725,0,0,-11.35725,281.76084,117.8634)"/>
<use data-text="a" xlink:href="#font_7_21" transform="matrix(11.35725,0,0,-11.35725,286.08796,117.8634)"/>
<use data-text="i" xlink:href="#font_7_34" transform="matrix(11.35725,0,0,-11.35725,291.653,117.8634)"/>
<use data-text="n" xlink:href="#font_7_37" transform="matrix(11.35725,0,0,-11.35725,294.7422,117.8634)"/>
<use data-text="S" xlink:href="#font_7_17" transform="matrix(11.35725,0,0,-11.35725,273.55094,131.114)"/>
<use data-text="e" xlink:href="#font_7_26" transform="matrix(11.35725,0,0,-11.35725,279.72929,131.114)"/>
<use data-text="t" xlink:href="#font_7_50" transform="matrix(11.35725,0,0,-11.35725,284.66969,131.114)"/>
<use data-text="(" xlink:href="#font_7_42" transform="matrix(11.35725,0,0,-11.35725,288.9968,131.114)"/>
<use data-text="s" xlink:href="#font_7_46" transform="matrix(11.35725,0,0,-11.35725,293.3239,131.114)"/>
<use data-text=")" xlink:href="#font_7_43" transform="matrix(11.35725,0,0,-11.35725,297.70783,131.114)"/>
<path transform="matrix(1,0,0,-1,254.12921,221.6352)" d="M0 0V15.138H67.323V-15.138-17.504C58.028-14.349 42.957-14.349 33.662-17.504 24.366-20.659 9.295-20.659 0-17.504Z" fill="#e4f1f1"/>
<path transform="matrix(1,0,0,-1,254.12921,221.6352)" stroke-width=".996" stroke-linecap="butt" stroke-miterlimit="10" stroke-linejoin="miter" fill="none" stroke="#000000" d="M0 0V15.138H67.323V-15.138-17.504C58.028-14.349 42.957-14.349 33.662-17.504 24.366-20.659 9.295-20.659 0-17.504Z"/>
<use data-text="T" xlink:href="#font_7_18" transform="matrix(11.35725,0,0,-11.35725,277.4108,217.5014)"/>
<use data-text="e" xlink:href="#font_7_26" transform="matrix(11.35725,0,0,-11.35725,284.5092,217.5014)"/>
<use data-text="s" xlink:href="#font_7_46" transform="matrix(11.35725,0,0,-11.35725,289.4496,217.5014)"/>
<use data-text="t" xlink:href="#font_7_50" transform="matrix(11.35725,0,0,-11.35725,293.8335,217.5014)"/>
<use data-text="S" xlink:href="#font_7_17" transform="matrix(11.35725,0,0,-11.35725,273.55094,230.75104)"/>
<use data-text="e" xlink:href="#font_7_26" transform="matrix(11.35725,0,0,-11.35725,279.72929,230.75104)"/>
<use data-text="t" xlink:href="#font_7_50" transform="matrix(11.35725,0,0,-11.35725,284.66969,230.75104)"/>
<use data-text="(" xlink:href="#font_7_42" transform="matrix(11.35725,0,0,-11.35725,288.9968,230.75104)"/>
<use data-text="s" xlink:href="#font_7_46" transform="matrix(11.35725,0,0,-11.35725,293.3239,230.75104)"/>
<use data-text=")" xlink:href="#font_7_43" transform="matrix(11.35725,0,0,-11.35725,297.70783,230.75104)"/>
<path transform="matrix(1,0,0,-1,374.9324,121.997699)" d="M0 0V15.138H68.071V-15.138-17.504C58.672-14.349 43.434-14.349 34.036-17.504 24.637-20.659 9.399-20.659 0-17.504Z" fill="#e4f1f1"/>
<path transform="matrix(1,0,0,-1,374.9324,121.997699)" stroke-width=".996" stroke-linecap="butt" stroke-miterlimit="10" stroke-linejoin="miter" fill="none" stroke="#000000" d="M0 0V15.138H68.071V-15.138-17.504C58.672-14.349 43.434-14.349 34.036-17.504 24.637-20.659 9.399-20.659 0-17.504Z"/>
<use data-text="I" xlink:href="#font_7_9" transform="matrix(11.35725,0,0,-11.35725,378.082,117.864398)"/>
<use data-text="n" xlink:href="#font_7_37" transform="matrix(11.35725,0,0,-11.35725,382.09114,117.864398)"/>
<use data-text="t" xlink:href="#font_7_50" transform="matrix(11.35725,0,0,-11.35725,387.96296,117.86435)"/>
<use data-text="e" xlink:href="#font_7_26" transform="matrix(11.35725,0,0,-11.35725,392.29008,117.86435)"/>
<use data-text="r" xlink:href="#font_7_45" transform="matrix(11.35725,0,0,-11.35725,397.23048,117.86435)"/>
<use data-text="m" xlink:href="#font_7_36" transform="matrix(11.35725,0,0,-11.35725,401.5576,117.86435)"/>
<use data-text="e" xlink:href="#font_7_26" transform="matrix(11.35725,0,0,-11.35725,410.8251,117.86435)"/>
<use data-text="d" xlink:href="#font_7_25" transform="matrix(11.35725,0,0,-11.35725,415.7655,117.86435)"/>
<use data-text="i" xlink:href="#font_7_34" transform="matrix(11.35725,0,0,-11.35725,421.94386,117.86435)"/>
<use data-text="a" xlink:href="#font_7_21" transform="matrix(11.35725,0,0,-11.35725,425.03303,117.86435)"/>
<use data-text="t" xlink:href="#font_7_50" transform="matrix(11.35725,0,0,-11.35725,430.59809,117.86435)"/>
<use data-text="e" xlink:href="#font_7_26" transform="matrix(11.35725,0,0,-11.35725,434.9252,117.86435)"/>
<use data-text="M" xlink:href="#font_7_12" transform="matrix(11.35725,0,0,-11.35725,387.316,131.11495)"/>
<use data-text="o" xlink:href="#font_7_39" transform="matrix(11.35725,0,0,-11.35725,397.50346,131.11495)"/>
<use data-text="d" xlink:href="#font_7_25" transform="matrix(11.35725,0,0,-11.35725,403.37519,131.11495)"/>
<use data-text="e" xlink:href="#font_7_26" transform="matrix(11.35725,0,0,-11.35725,409.55354,131.11495)"/>
<use data-text="l" xlink:href="#font_7_35" transform="matrix(11.35725,0,0,-11.35725,414.49394,131.11495)"/>
<use data-text="(" xlink:href="#font_7_42" transform="matrix(11.35725,0,0,-11.35725,417.5831,131.11495)"/>
<use data-text="s" xlink:href="#font_7_46" transform="matrix(11.35725,0,0,-11.35725,421.91023,131.11495)"/>
<use data-text=")" xlink:href="#font_7_43" transform="matrix(11.35725,0,0,-11.35725,426.29414,131.11495)"/>
<path transform="matrix(1,0,0,-1,495.388,221.6341)" d="M0 0V15.138H69.525V-15.138-17.504C59.925-14.349 44.362-14.349 34.762-17.504 25.163-20.659 9.599-20.659 0-17.504Z" fill="#e4f1f1"/>
<path transform="matrix(1,0,0,-1,495.388,221.6341)" stroke-width=".996" stroke-linecap="butt" stroke-miterlimit="10" stroke-linejoin="miter" fill="none" stroke="#000000" d="M0 0V15.138H69.525V-15.138-17.504C59.925-14.349 44.362-14.349 34.762-17.504 25.163-20.659 9.599-20.659 0-17.504Z"/>
<use data-text="P" xlink:href="#font_7_15" transform="matrix(11.35725,0,0,-11.35725,498.536,224.47199)"/>
<use data-text="r" xlink:href="#font_7_45" transform="matrix(11.35725,0,0,-11.35725,506.09996,224.47199)"/>
<use data-text="e" xlink:href="#font_7_26" transform="matrix(11.35725,0,0,-11.35725,510.42707,224.47199)"/>
<use data-text="d" xlink:href="#font_7_25" transform="matrix(11.35725,0,0,-11.35725,515.3675,224.47199)"/>
<use data-text="i" xlink:href="#font_7_34" transform="matrix(11.35725,0,0,-11.35725,521.54586,224.47199)"/>
<use data-text="c" xlink:href="#font_7_23" transform="matrix(11.35725,0,0,-11.35725,524.635,224.47199)"/>
<use data-text="t" xlink:href="#font_7_50" transform="matrix(11.35725,0,0,-11.35725,529.57546,224.47199)"/>
<use data-text="i" xlink:href="#font_7_34" transform="matrix(11.35725,0,0,-11.35725,533.9025,224.47199)"/>
<use data-text="o" xlink:href="#font_7_39" transform="matrix(11.35725,0,0,-11.35725,536.9917,224.47199)"/>
<use data-text="n" xlink:href="#font_7_37" transform="matrix(11.35725,0,0,-11.35725,542.55679,224.47199)"/>
<use data-text="(" xlink:href="#font_7_42" transform="matrix(11.35725,0,0,-11.35725,548.7351,224.47199)"/>
<use data-text="s" xlink:href="#font_7_46" transform="matrix(11.35725,0,0,-11.35725,553.0622,224.47199)"/>
<use data-text=")" xlink:href="#font_7_43" transform="matrix(11.35725,0,0,-11.35725,557.4461,224.47199)"/>
<path transform="matrix(1,0,0,-1,375.29853,297.0398)" d="M0 0V15.138H67.323V-15.138-17.504C58.028-14.349 42.957-14.349 33.662-17.504 24.366-20.659 9.295-20.659 0-17.504Z" fill="#e4f1f1"/>
<path transform="matrix(1,0,0,-1,375.29853,297.0398)" stroke-width=".996" stroke-linecap="butt" stroke-miterlimit="10" stroke-linejoin="miter" fill="none" stroke="#000000" d="M0 0V15.138H67.323V-15.138-17.504C58.028-14.349 42.957-14.349 33.662-17.504 24.366-20.659 9.295-20.659 0-17.504Z"/>
<use data-text="P" xlink:href="#font_7_15" transform="matrix(11.35725,0,0,-11.35725,378.614,292.9044)"/>
<use data-text="e" xlink:href="#font_7_26" transform="matrix(11.35725,0,0,-11.35725,385.87104,292.90446)"/>
<use data-text="r" xlink:href="#font_7_45" transform="matrix(11.35725,0,0,-11.35725,390.81144,292.90446)"/>
<use data-text="f" xlink:href="#font_7_28" transform="matrix(11.35725,0,0,-11.35725,395.13856,292.90446)"/>
<use data-text="o" xlink:href="#font_7_39" transform="matrix(11.35725,0,0,-11.35725,398.53437,292.90446)"/>
<use data-text="r" xlink:href="#font_7_45" transform="matrix(11.35725,0,0,-11.35725,404.09944,292.90446)"/>
<use data-text="m" xlink:href="#font_7_36" transform="matrix(11.35725,0,0,-11.35725,408.42655,292.90446)"/>
<use data-text="a" xlink:href="#font_7_21" transform="matrix(11.35725,0,0,-11.35725,417.69407,292.90446)"/>
<use data-text="n" xlink:href="#font_7_37" transform="matrix(11.35725,0,0,-11.35725,423.25914,292.90446)"/>
<use data-text="c" xlink:href="#font_7_23" transform="matrix(11.35725,0,0,-11.35725,429.43748,292.90446)"/>
<use data-text="e" xlink:href="#font_7_26" transform="matrix(11.35725,0,0,-11.35725,434.37788,292.90446)"/>
<use data-text="V" xlink:href="#font_7_19" transform="matrix(11.35725,0,0,-11.35725,388.85215,306.15504)"/>
<use data-text="a" xlink:href="#font_7_21" transform="matrix(11.35725,0,0,-11.35725,396.2684,306.15504)"/>
<use data-text="l" xlink:href="#font_7_35" transform="matrix(11.35725,0,0,-11.35725,401.82218,306.15504)"/>
<use data-text="u" xlink:href="#font_7_53" transform="matrix(11.35725,0,0,-11.35725,404.91136,306.15504)"/>
<use data-text="e" xlink:href="#font_7_26" transform="matrix(11.35725,0,0,-11.35725,411.10099,306.15504)"/>
<use data-text="(" xlink:href="#font_7_42" transform="matrix(11.35725,0,0,-11.35725,416.04139,306.15504)"/>
<use data-text="s" xlink:href="#font_7_46" transform="matrix(11.35725,0,0,-11.35725,420.3685,306.15504)"/>
<use data-text=")" xlink:href="#font_7_43" transform="matrix(11.35725,0,0,-11.35725,424.7524,306.15504)"/>
<path transform="matrix(1,0,0,-1,251.43631,124.6896)" d="M0 0V15.138H67.323V-15.138-17.504C58.028-14.349 42.957-14.349 33.662-17.504 24.366-20.659 9.295-20.659 0-17.504Z" fill="#e4f1f1"/>
<path transform="matrix(1,0,0,-1,251.43631,124.6896)" stroke-width=".996" stroke-linecap="butt" stroke-miterlimit="10" stroke-linejoin="miter" fill="none" stroke="#000000" d="M0 0V15.138H67.323V-15.138-17.504C58.028-14.349 42.957-14.349 33.662-17.504 24.366-20.659 9.295-20.659 0-17.504Z"/>
<use data-text="T" xlink:href="#font_7_18" transform="matrix(11.35725,0,0,-11.35725,271.9695,120.5564)"/>
<use data-text="r" xlink:href="#font_7_45" transform="matrix(11.35725,0,0,-11.35725,279.0679,120.55635)"/>
<use data-text="a" xlink:href="#font_7_21" transform="matrix(11.35725,0,0,-11.35725,283.39503,120.55635)"/>
<use data-text="i" xlink:href="#font_7_34" transform="matrix(11.35725,0,0,-11.35725,288.96009,120.55635)"/>
<use data-text="n" xlink:href="#font_7_37" transform="matrix(11.35725,0,0,-11.35725,292.04927,120.55635)"/>
<use data-text="S" xlink:href="#font_7_17" transform="matrix(11.35725,0,0,-11.35725,270.858,133.80695)"/>
<use data-text="e" xlink:href="#font_7_26" transform="matrix(11.35725,0,0,-11.35725,277.03636,133.80695)"/>
<use data-text="t" xlink:href="#font_7_50" transform="matrix(11.35725,0,0,-11.35725,281.97676,133.80695)"/>
<use data-text="(" xlink:href="#font_7_42" transform="matrix(11.35725,0,0,-11.35725,286.30387,133.80695)"/>
<use data-text="s" xlink:href="#font_7_46" transform="matrix(11.35725,0,0,-11.35725,290.63099,133.80695)"/>
<use data-text=")" xlink:href="#font_7_43" transform="matrix(11.35725,0,0,-11.35725,295.0149,133.80695)"/>
<path transform="matrix(1,0,0,-1,251.43631,224.3282)" d="M0 0V15.138H67.323V-15.138-17.504C58.028-14.349 42.957-14.349 33.662-17.504 24.366-20.659 9.295-20.659 0-17.504Z" fill="#e4f1f1"/>
<path transform="matrix(1,0,0,-1,251.43631,224.3282)" stroke-width=".996" stroke-linecap="butt" stroke-miterlimit="10" stroke-linejoin="miter" fill="none" stroke="#000000" d="M0 0V15.138H67.323V-15.138-17.504C58.028-14.349 42.957-14.349 33.662-17.504 24.366-20.659 9.295-20.659 0-17.504Z"/>
<use data-text="T" xlink:href="#font_7_18" transform="matrix(11.35725,0,0,-11.35725,274.7178,220.1944)"/>
<use data-text="e" xlink:href="#font_7_26" transform="matrix(11.35725,0,0,-11.35725,281.81626,220.19435)"/>
<use data-text="s" xlink:href="#font_7_46" transform="matrix(11.35725,0,0,-11.35725,286.75666,220.19435)"/>
<use data-text="t" xlink:href="#font_7_50" transform="matrix(11.35725,0,0,-11.35725,291.14057,220.19435)"/>
<use data-text="S" xlink:href="#font_7_17" transform="matrix(11.35725,0,0,-11.35725,270.858,233.444)"/>
<use data-text="e" xlink:href="#font_7_26" transform="matrix(11.35725,0,0,-11.35725,277.03636,233.444)"/>
<use data-text="t" xlink:href="#font_7_50" transform="matrix(11.35725,0,0,-11.35725,281.97676,233.444)"/>
<use data-text="(" xlink:href="#font_7_42" transform="matrix(11.35725,0,0,-11.35725,286.30387,233.444)"/>
<use data-text="s" xlink:href="#font_7_46" transform="matrix(11.35725,0,0,-11.35725,290.63099,233.444)"/>
<use data-text=")" xlink:href="#font_7_43" transform="matrix(11.35725,0,0,-11.35725,295.0149,233.444)"/>
<path transform="matrix(1,0,0,-1,372.23963,124.6906)" d="M0 0V15.138H68.071V-15.138-17.504C58.672-14.349 43.434-14.349 34.036-17.504 24.637-20.659 9.399-20.659 0-17.504Z" fill="#e4f1f1"/>
<path transform="matrix(1,0,0,-1,372.23963,124.6906)" stroke-width=".996" stroke-linecap="butt" stroke-miterlimit="10" stroke-linejoin="miter" fill="none" stroke="#000000" d="M0 0V15.138H68.071V-15.138-17.504C58.672-14.349 43.434-14.349 34.036-17.504 24.637-20.659 9.399-20.659 0-17.504Z"/>
<use data-text="I" xlink:href="#font_7_9" transform="matrix(11.35725,0,0,-11.35725,375.389,120.55739)"/>
<use data-text="n" xlink:href="#font_7_37" transform="matrix(11.35725,0,0,-11.35725,379.39814,120.55739)"/>
<use data-text="t" xlink:href="#font_7_50" transform="matrix(11.35725,0,0,-11.35725,385.27,120.55737)"/>
<use data-text="e" xlink:href="#font_7_26" transform="matrix(11.35725,0,0,-11.35725,389.5971,120.55737)"/>
<use data-text="r" xlink:href="#font_7_45" transform="matrix(11.35725,0,0,-11.35725,394.5375,120.55737)"/>
<use data-text="m" xlink:href="#font_7_36" transform="matrix(11.35725,0,0,-11.35725,398.86463,120.55737)"/>
<use data-text="e" xlink:href="#font_7_26" transform="matrix(11.35725,0,0,-11.35725,408.13215,120.55737)"/>
<use data-text="d" xlink:href="#font_7_25" transform="matrix(11.35725,0,0,-11.35725,413.07255,120.55737)"/>
<use data-text="i" xlink:href="#font_7_34" transform="matrix(11.35725,0,0,-11.35725,419.2509,120.55737)"/>
<use data-text="a" xlink:href="#font_7_21" transform="matrix(11.35725,0,0,-11.35725,422.34007,120.55737)"/>
<use data-text="t" xlink:href="#font_7_50" transform="matrix(11.35725,0,0,-11.35725,427.90513,120.55737)"/>
<use data-text="e" xlink:href="#font_7_26" transform="matrix(11.35725,0,0,-11.35725,432.23225,120.55737)"/>
<use data-text="M" xlink:href="#font_7_12" transform="matrix(11.35725,0,0,-11.35725,384.62306,133.80797)"/>
<use data-text="o" xlink:href="#font_7_39" transform="matrix(11.35725,0,0,-11.35725,394.8105,133.80797)"/>
<use data-text="d" xlink:href="#font_7_25" transform="matrix(11.35725,0,0,-11.35725,400.68223,133.80797)"/>
<use data-text="e" xlink:href="#font_7_26" transform="matrix(11.35725,0,0,-11.35725,406.86058,133.80797)"/>
<use data-text="l" xlink:href="#font_7_35" transform="matrix(11.35725,0,0,-11.35725,411.80097,133.80797)"/>
<use data-text="(" xlink:href="#font_7_42" transform="matrix(11.35725,0,0,-11.35725,414.89015,133.80797)"/>
<use data-text="s" xlink:href="#font_7_46" transform="matrix(11.35725,0,0,-11.35725,419.21726,133.80797)"/>
<use data-text=")" xlink:href="#font_7_43" transform="matrix(11.35725,0,0,-11.35725,423.60118,133.80797)"/>
<path transform="matrix(1,0,0,-1,492.6951,224.327)" d="M0 0V15.138H69.525V-15.138-17.504C59.925-14.349 44.362-14.349 34.762-17.504 25.163-20.659 9.599-20.659 0-17.504Z" fill="#e4f1f1"/>
<path transform="matrix(1,0,0,-1,492.6951,224.327)" stroke-width=".996" stroke-linecap="butt" stroke-miterlimit="10" stroke-linejoin="miter" fill="none" stroke="#000000" d="M0 0V15.138H69.525V-15.138-17.504C59.925-14.349 44.362-14.349 34.762-17.504 25.163-20.659 9.599-20.659 0-17.504Z"/>
<use data-text="P" xlink:href="#font_7_15" transform="matrix(11.35725,0,0,-11.35725,495.843,227.165)"/>
<use data-text="r" xlink:href="#font_7_45" transform="matrix(11.35725,0,0,-11.35725,503.40693,227.165)"/>
<use data-text="e" xlink:href="#font_7_26" transform="matrix(11.35725,0,0,-11.35725,507.73405,227.165)"/>
<use data-text="d" xlink:href="#font_7_25" transform="matrix(11.35725,0,0,-11.35725,512.67446,227.165)"/>
<use data-text="i" xlink:href="#font_7_34" transform="matrix(11.35725,0,0,-11.35725,518.8528,227.165)"/>
<use data-text="c" xlink:href="#font_7_23" transform="matrix(11.35725,0,0,-11.35725,521.94198,227.165)"/>
<use data-text="t" xlink:href="#font_7_50" transform="matrix(11.35725,0,0,-11.35725,526.8824,227.165)"/>
<use data-text="i" xlink:href="#font_7_34" transform="matrix(11.35725,0,0,-11.35725,531.2095,227.165)"/>
<use data-text="o" xlink:href="#font_7_39" transform="matrix(11.35725,0,0,-11.35725,534.29867,227.165)"/>
<use data-text="n" xlink:href="#font_7_37" transform="matrix(11.35725,0,0,-11.35725,539.8637,227.165)"/>
<use data-text="(" xlink:href="#font_7_42" transform="matrix(11.35725,0,0,-11.35725,546.04208,227.165)"/>
<use data-text="s" xlink:href="#font_7_46" transform="matrix(11.35725,0,0,-11.35725,550.36917,227.165)"/>
<use data-text=")" xlink:href="#font_7_43" transform="matrix(11.35725,0,0,-11.35725,554.75308,227.165)"/>
<path transform="matrix(1,0,0,-1,372.6058,299.7326)" d="M0 0V15.138H67.323V-15.138-17.504C58.028-14.349 42.957-14.349 33.662-17.504 24.366-20.659 9.295-20.659 0-17.504Z" fill="#e4f1f1"/>
<path transform="matrix(1,0,0,-1,372.6058,299.7326)" stroke-width=".996" stroke-linecap="butt" stroke-miterlimit="10" stroke-linejoin="miter" fill="none" stroke="#000000" d="M0 0V15.138H67.323V-15.138-17.504C58.028-14.349 42.957-14.349 33.662-17.504 24.366-20.659 9.295-20.659 0-17.504Z"/>
<use data-text="P" xlink:href="#font_7_15" transform="matrix(11.35725,0,0,-11.35725,375.921,295.59739)"/>
<use data-text="e" xlink:href="#font_7_26" transform="matrix(11.35725,0,0,-11.35725,383.1781,295.59739)"/>
<use data-text="r" xlink:href="#font_7_45" transform="matrix(11.35725,0,0,-11.35725,388.1185,295.59739)"/>
<use data-text="f" xlink:href="#font_7_28" transform="matrix(11.35725,0,0,-11.35725,392.44563,295.59739)"/>
<use data-text="o" xlink:href="#font_7_39" transform="matrix(11.35725,0,0,-11.35725,395.84144,295.59739)"/>
<use data-text="r" xlink:href="#font_7_45" transform="matrix(11.35725,0,0,-11.35725,401.4065,295.59739)"/>
<use data-text="m" xlink:href="#font_7_36" transform="matrix(11.35725,0,0,-11.35725,405.7336,295.59739)"/>
<use data-text="a" xlink:href="#font_7_21" transform="matrix(11.35725,0,0,-11.35725,415.00114,295.59739)"/>
<use data-text="n" xlink:href="#font_7_37" transform="matrix(11.35725,0,0,-11.35725,420.5662,295.59739)"/>
<use data-text="c" xlink:href="#font_7_23" transform="matrix(11.35725,0,0,-11.35725,426.74455,295.59739)"/>
<use data-text="e" xlink:href="#font_7_26" transform="matrix(11.35725,0,0,-11.35725,431.68495,295.59739)"/>
<use data-text="V" xlink:href="#font_7_19" transform="matrix(11.35725,0,0,-11.35725,386.16017,308.848)"/>
<use data-text="a" xlink:href="#font_7_21" transform="matrix(11.35725,0,0,-11.35725,393.5651,308.848)"/>
<use data-text="l" xlink:href="#font_7_35" transform="matrix(11.35725,0,0,-11.35725,399.13017,308.848)"/>
<use data-text="u" xlink:href="#font_7_53" transform="matrix(11.35725,0,0,-11.35725,402.21934,308.848)"/>
<use data-text="e" xlink:href="#font_7_26" transform="matrix(11.35725,0,0,-11.35725,408.39768,308.848)"/>
<use data-text="(" xlink:href="#font_7_42" transform="matrix(11.35725,0,0,-11.35725,413.33808,308.848)"/>
<use data-text="s" xlink:href="#font_7_46" transform="matrix(11.35725,0,0,-11.35725,417.6652,308.848)"/>
<use data-text=")" xlink:href="#font_7_43" transform="matrix(11.35725,0,0,-11.35725,422.0491,308.848)"/>
<path transform="matrix(1,0,0,-1,248.74341,127.3825)" d="M0 0V15.138H67.323V-15.138-17.504C58.028-14.349 42.957-14.349 33.662-17.504 24.366-20.659 9.295-20.659 0-17.504Z" fill="#e4f1f1"/>
<path transform="matrix(1,0,0,-1,248.74341,127.3825)" stroke-width=".996" stroke-linecap="butt" stroke-miterlimit="10" stroke-linejoin="miter" fill="none" stroke="#000000" d="M0 0V15.138H67.323V-15.138-17.504C58.028-14.349 42.957-14.349 33.662-17.504 24.366-20.659 9.295-20.659 0-17.504Z"/>
<use data-text="T" xlink:href="#font_7_18" transform="matrix(11.35725,0,0,-11.35725,269.2765,123.24939)"/>
<use data-text="r" xlink:href="#font_7_45" transform="matrix(11.35725,0,0,-11.35725,276.37495,123.24939)"/>
<use data-text="a" xlink:href="#font_7_21" transform="matrix(11.35725,0,0,-11.35725,280.70207,123.24939)"/>
<use data-text="i" xlink:href="#font_7_34" transform="matrix(11.35725,0,0,-11.35725,286.26713,123.24939)"/>
<use data-text="n" xlink:href="#font_7_37" transform="matrix(11.35725,0,0,-11.35725,289.3563,123.24939)"/>
<use data-text="S" xlink:href="#font_7_17" transform="matrix(11.35725,0,0,-11.35725,268.16505,136.49999)"/>
<use data-text="e" xlink:href="#font_7_26" transform="matrix(11.35725,0,0,-11.35725,274.34339,136.49999)"/>
<use data-text="t" xlink:href="#font_7_50" transform="matrix(11.35725,0,0,-11.35725,279.28379,136.49999)"/>
<use data-text="(" xlink:href="#font_7_42" transform="matrix(11.35725,0,0,-11.35725,283.6109,136.49999)"/>
<use data-text="s" xlink:href="#font_7_46" transform="matrix(11.35725,0,0,-11.35725,287.93803,136.49999)"/>
<use data-text=")" xlink:href="#font_7_43" transform="matrix(11.35725,0,0,-11.35725,292.32194,136.49999)"/>
<path transform="matrix(1,0,0,-1,248.74341,227.0211)" d="M0 0V15.138H67.323V-15.138-17.504C58.028-14.349 42.957-14.349 33.662-17.504 24.366-20.659 9.295-20.659 0-17.504Z" fill="#e4f1f1"/>
<path transform="matrix(1,0,0,-1,248.74341,227.0211)" stroke-width=".996" stroke-linecap="butt" stroke-miterlimit="10" stroke-linejoin="miter" fill="none" stroke="#000000" d="M0 0V15.138H67.323V-15.138-17.504C58.028-14.349 42.957-14.349 33.662-17.504 24.366-20.659 9.295-20.659 0-17.504Z"/>
<use data-text="T" xlink:href="#font_7_18" transform="matrix(11.35725,0,0,-11.35725,272.0258,222.88639)"/>
<use data-text="e" xlink:href="#font_7_26" transform="matrix(11.35725,0,0,-11.35725,279.12425,222.88645)"/>
<use data-text="s" xlink:href="#font_7_46" transform="matrix(11.35725,0,0,-11.35725,284.06465,222.88645)"/>
<use data-text="t" xlink:href="#font_7_50" transform="matrix(11.35725,0,0,-11.35725,288.44856,222.88645)"/>
<use data-text="S" xlink:href="#font_7_17" transform="matrix(11.35725,0,0,-11.35725,268.16505,236.13706)"/>
<use data-text="e" xlink:href="#font_7_26" transform="matrix(11.35725,0,0,-11.35725,274.34339,236.13706)"/>
<use data-text="t" xlink:href="#font_7_50" transform="matrix(11.35725,0,0,-11.35725,279.28379,236.13706)"/>
<use data-text="(" xlink:href="#font_7_42" transform="matrix(11.35725,0,0,-11.35725,283.6109,236.13706)"/>
<use data-text="s" xlink:href="#font_7_46" transform="matrix(11.35725,0,0,-11.35725,287.93803,236.13706)"/>
<use data-text=")" xlink:href="#font_7_43" transform="matrix(11.35725,0,0,-11.35725,292.32194,236.13706)"/>
<path transform="matrix(1,0,0,-1,369.54673,127.3834)" d="M0 0V15.138H68.071V-15.138-17.504C58.672-14.349 43.434-14.349 34.036-17.504 24.637-20.659 9.399-20.659 0-17.504Z" fill="#e4f1f1"/>
<path transform="matrix(1,0,0,-1,369.54673,127.3834)" stroke-width=".996" stroke-linecap="butt" stroke-miterlimit="10" stroke-linejoin="miter" fill="none" stroke="#000000" d="M0 0V15.138H68.071V-15.138-17.504C58.672-14.349 43.434-14.349 34.036-17.504 24.637-20.659 9.399-20.659 0-17.504Z"/>
<use data-text="I" xlink:href="#font_7_9" transform="matrix(11.35725,0,0,-11.35725,372.696,123.2504)"/>
<use data-text="n" xlink:href="#font_7_37" transform="matrix(11.35725,0,0,-11.35725,376.70515,123.2504)"/>
<use data-text="t" xlink:href="#font_7_50" transform="matrix(11.35725,0,0,-11.35725,382.57695,123.25035)"/>
<use data-text="e" xlink:href="#font_7_26" transform="matrix(11.35725,0,0,-11.35725,386.90406,123.25035)"/>
<use data-text="r" xlink:href="#font_7_45" transform="matrix(11.35725,0,0,-11.35725,391.84446,123.25035)"/>
<use data-text="m" xlink:href="#font_7_36" transform="matrix(11.35725,0,0,-11.35725,396.17158,123.25035)"/>
<use data-text="e" xlink:href="#font_7_26" transform="matrix(11.35725,0,0,-11.35725,405.4391,123.25035)"/>
<use data-text="d" xlink:href="#font_7_25" transform="matrix(11.35725,0,0,-11.35725,410.3795,123.25035)"/>
<use data-text="i" xlink:href="#font_7_34" transform="matrix(11.35725,0,0,-11.35725,416.55784,123.25035)"/>
<use data-text="a" xlink:href="#font_7_21" transform="matrix(11.35725,0,0,-11.35725,419.647,123.25035)"/>
<use data-text="t" xlink:href="#font_7_50" transform="matrix(11.35725,0,0,-11.35725,425.21208,123.25035)"/>
<use data-text="e" xlink:href="#font_7_26" transform="matrix(11.35725,0,0,-11.35725,429.53919,123.25035)"/>
<use data-text="M" xlink:href="#font_7_12" transform="matrix(11.35725,0,0,-11.35725,381.93095,136.50095)"/>
<use data-text="o" xlink:href="#font_7_39" transform="matrix(11.35725,0,0,-11.35725,392.11839,136.50095)"/>
<use data-text="d" xlink:href="#font_7_25" transform="matrix(11.35725,0,0,-11.35725,397.9901,136.50095)"/>
<use data-text="e" xlink:href="#font_7_26" transform="matrix(11.35725,0,0,-11.35725,404.16847,136.50095)"/>
<use data-text="l" xlink:href="#font_7_35" transform="matrix(11.35725,0,0,-11.35725,409.10887,136.50095)"/>
<use data-text="(" xlink:href="#font_7_42" transform="matrix(11.35725,0,0,-11.35725,412.19804,136.50095)"/>
<use data-text="s" xlink:href="#font_7_46" transform="matrix(11.35725,0,0,-11.35725,416.52516,136.50095)"/>
<use data-text=")" xlink:href="#font_7_43" transform="matrix(11.35725,0,0,-11.35725,420.90907,136.50095)"/>
<path transform="matrix(1,0,0,-1,490.0022,227.0199)" d="M0 0V15.138H69.525V-15.138-17.504C59.925-14.349 44.362-14.349 34.762-17.504 25.163-20.659 9.599-20.659 0-17.504Z" fill="#e4f1f1"/>
<path transform="matrix(1,0,0,-1,490.0022,227.0199)" stroke-width=".996" stroke-linecap="butt" stroke-miterlimit="10" stroke-linejoin="miter" fill="none" stroke="#000000" d="M0 0V15.138H69.525V-15.138-17.504C59.925-14.349 44.362-14.349 34.762-17.504 25.163-20.659 9.599-20.659 0-17.504Z"/>
<use data-text="P" xlink:href="#font_7_15" transform="matrix(11.35725,0,0,-11.35725,493.15,229.858)"/>
<use data-text="r" xlink:href="#font_7_45" transform="matrix(11.35725,0,0,-11.35725,500.71394,229.858)"/>
<use data-text="e" xlink:href="#font_7_26" transform="matrix(11.35725,0,0,-11.35725,505.04106,229.858)"/>
<use data-text="d" xlink:href="#font_7_25" transform="matrix(11.35725,0,0,-11.35725,509.98146,229.858)"/>
<use data-text="i" xlink:href="#font_7_34" transform="matrix(11.35725,0,0,-11.35725,516.1598,229.858)"/>
<use data-text="c" xlink:href="#font_7_23" transform="matrix(11.35725,0,0,-11.35725,519.24899,229.858)"/>
<use data-text="t" xlink:href="#font_7_50" transform="matrix(11.35725,0,0,-11.35725,524.1894,229.858)"/>
<use data-text="i" xlink:href="#font_7_34" transform="matrix(11.35725,0,0,-11.35725,528.5165,229.858)"/>
<use data-text="o" xlink:href="#font_7_39" transform="matrix(11.35725,0,0,-11.35725,531.60568,229.858)"/>
<use data-text="n" xlink:href="#font_7_37" transform="matrix(11.35725,0,0,-11.35725,537.1707,229.858)"/>
<use data-text="(" xlink:href="#font_7_42" transform="matrix(11.35725,0,0,-11.35725,543.34909,229.858)"/>
<use data-text="s" xlink:href="#font_7_46" transform="matrix(11.35725,0,0,-11.35725,547.67617,229.858)"/>
<use data-text=")" xlink:href="#font_7_43" transform="matrix(11.35725,0,0,-11.35725,552.06008,229.858)"/>
<path transform="matrix(1,0,0,-1,369.913,302.4254)" d="M0 0V15.138H67.323V-15.138-17.504C58.028-14.349 42.957-14.349 33.662-17.504 24.366-20.659 9.295-20.659 0-17.504Z" fill="#e4f1f1"/>
<path transform="matrix(1,0,0,-1,369.913,302.4254)" stroke-width=".996" stroke-linecap="butt" stroke-miterlimit="10" stroke-linejoin="miter" fill="none" stroke="#000000" d="M0 0V15.138H67.323V-15.138-17.504C58.028-14.349 42.957-14.349 33.662-17.504 24.366-20.659 9.295-20.659 0-17.504Z"/>
<use data-text="P" xlink:href="#font_7_15" transform="matrix(11.35725,0,0,-11.35725,373.228,298.2904)"/>
<use data-text="e" xlink:href="#font_7_26" transform="matrix(11.35725,0,0,-11.35725,380.48506,298.29035)"/>
<use data-text="r" xlink:href="#font_7_45" transform="matrix(11.35725,0,0,-11.35725,385.42546,298.29035)"/>
<use data-text="f" xlink:href="#font_7_28" transform="matrix(11.35725,0,0,-11.35725,389.75257,298.29035)"/>
<use data-text="o" xlink:href="#font_7_39" transform="matrix(11.35725,0,0,-11.35725,393.14839,298.29035)"/>
<use data-text="r" xlink:href="#font_7_45" transform="matrix(11.35725,0,0,-11.35725,398.71345,298.29035)"/>
<use data-text="m" xlink:href="#font_7_36" transform="matrix(11.35725,0,0,-11.35725,403.04057,298.29035)"/>
<use data-text="a" xlink:href="#font_7_21" transform="matrix(11.35725,0,0,-11.35725,412.30809,298.29035)"/>
<use data-text="n" xlink:href="#font_7_37" transform="matrix(11.35725,0,0,-11.35725,417.87315,298.29035)"/>
<use data-text="c" xlink:href="#font_7_23" transform="matrix(11.35725,0,0,-11.35725,424.05149,298.29035)"/>
<use data-text="e" xlink:href="#font_7_26" transform="matrix(11.35725,0,0,-11.35725,428.99189,298.29035)"/>
<use data-text="V" xlink:href="#font_7_19" transform="matrix(11.35725,0,0,-11.35725,383.4671,311.54096)"/>
<use data-text="a" xlink:href="#font_7_21" transform="matrix(11.35725,0,0,-11.35725,390.87205,311.54096)"/>
<use data-text="l" xlink:href="#font_7_35" transform="matrix(11.35725,0,0,-11.35725,396.4371,311.54096)"/>
<use data-text="u" xlink:href="#font_7_53" transform="matrix(11.35725,0,0,-11.35725,399.52629,311.54096)"/>
<use data-text="e" xlink:href="#font_7_26" transform="matrix(11.35725,0,0,-11.35725,405.70463,311.54096)"/>
<use data-text="(" xlink:href="#font_7_42" transform="matrix(11.35725,0,0,-11.35725,410.64503,311.54096)"/>
<use data-text="s" xlink:href="#font_7_46" transform="matrix(11.35725,0,0,-11.35725,414.97215,311.54096)"/>
<use data-text=")" xlink:href="#font_7_43" transform="matrix(11.35725,0,0,-11.35725,419.35606,311.54096)"/>
<path transform="matrix(1,0,0,-1,441.33793,202.7834)" d="M0 0H-70.125C-72.326 0-74.11-1.784-74.11-3.985V-44.488C-74.11-46.689-72.326-48.473-70.125-48.473H0C2.201-48.473 3.985-46.689 3.985-44.488V-3.985C3.985-1.784 2.201 0 0 0Z" fill="#79bcba"/>
<path transform="matrix(1,0,0,-1,441.33793,202.7834)" stroke-width=".996" stroke-linecap="butt" stroke-miterlimit="10" stroke-linejoin="miter" fill="none" stroke="#000000" d="M0 0H-70.125C-72.326 0-74.11-1.784-74.11-3.985V-44.488C-74.11-46.689-72.326-48.473-70.125-48.473H0C2.201-48.473 3.985-46.689 3.985-44.488V-3.985C3.985-1.784 2.201 0 0 0Z"/>
<use data-text="P" xlink:href="#font_7_15" transform="matrix(11.35725,0,0,-11.35725,375.929,224.30539)" fill="#ffffff"/>
<use data-text="e" xlink:href="#font_7_26" transform="matrix(11.35725,0,0,-11.35725,383.1861,224.30539)" fill="#ffffff"/>
<use data-text="r" xlink:href="#font_7_45" transform="matrix(11.35725,0,0,-11.35725,388.1265,224.30539)" fill="#ffffff"/>
<use data-text="f" xlink:href="#font_7_28" transform="matrix(11.35725,0,0,-11.35725,392.4536,224.30539)" fill="#ffffff"/>
<use data-text="o" xlink:href="#font_7_39" transform="matrix(11.35725,0,0,-11.35725,395.84944,224.30539)" fill="#ffffff"/>
<use data-text="r" xlink:href="#font_7_45" transform="matrix(11.35725,0,0,-11.35725,401.4145,224.30539)" fill="#ffffff"/>
<use data-text="m" xlink:href="#font_7_36" transform="matrix(11.35725,0,0,-11.35725,405.7416,224.30539)" fill="#ffffff"/>
<use data-text="a" xlink:href="#font_7_21" transform="matrix(11.35725,0,0,-11.35725,415.00914,224.30539)" fill="#ffffff"/>
<use data-text="n" xlink:href="#font_7_37" transform="matrix(11.35725,0,0,-11.35725,420.5742,224.30539)" fill="#ffffff"/>
<use data-text="c" xlink:href="#font_7_23" transform="matrix(11.35725,0,0,-11.35725,426.75254,224.30539)" fill="#ffffff"/>
<use data-text="e" xlink:href="#font_7_26" transform="matrix(11.35725,0,0,-11.35725,431.69294,224.30539)" fill="#ffffff"/>
<use data-text="M" xlink:href="#font_7_12" transform="matrix(11.35725,0,0,-11.35725,386.0133,237.55506)" fill="#ffffff"/>
<use data-text="e" xlink:href="#font_7_26" transform="matrix(11.35725,0,0,-11.35725,396.20075,237.55506)" fill="#ffffff"/>
<use data-text="a" xlink:href="#font_7_21" transform="matrix(11.35725,0,0,-11.35725,401.14115,237.55506)" fill="#ffffff"/>
<use data-text="s" xlink:href="#font_7_46" transform="matrix(11.35725,0,0,-11.35725,406.7062,237.55506)" fill="#ffffff"/>
<use data-text="u" xlink:href="#font_7_53" transform="matrix(11.35725,0,0,-11.35725,411.09013,237.55506)" fill="#ffffff"/>
<use data-text="r" xlink:href="#font_7_45" transform="matrix(11.35725,0,0,-11.35725,417.26847,237.55506)" fill="#ffffff"/>
<use data-text="e" xlink:href="#font_7_26" transform="matrix(11.35725,0,0,-11.35725,421.59559,237.55506)" fill="#ffffff"/>
<path transform="matrix(1,0,0,-1,441.3302,22.359696)" d="M0 0H-70.125C-72.326 0-74.11-1.784-74.11-3.985V-44.488C-74.11-46.689-72.326-48.473-70.125-48.473H0C2.201-48.473 3.985-46.689 3.985-44.488V-3.985C3.985-1.784 2.201 0 0 0Z" fill="#79bcba"/>
<path transform="matrix(1,0,0,-1,441.3302,22.359696)" stroke-width=".996" stroke-linecap="butt" stroke-miterlimit="10" stroke-linejoin="miter" fill="none" stroke="#000000" d="M0 0H-70.125C-72.326 0-74.11-1.784-74.11-3.985V-44.488C-74.11-46.689-72.326-48.473-70.125-48.473H0C2.201-48.473 3.985-46.689 3.985-44.488V-3.985C3.985-1.784 2.201 0 0 0Z"/>
<use data-text="L" xlink:href="#font_7_11" transform="matrix(11.35725,0,0,-11.35725,387.657,50.509004)" fill="#ffffff"/>
<use data-text="e" xlink:href="#font_7_26" transform="matrix(11.35725,0,0,-11.35725,394.60765,50.509004)" fill="#ffffff"/>
<use data-text="a" xlink:href="#font_7_21" transform="matrix(11.35725,0,0,-11.35725,399.54804,50.509004)" fill="#ffffff"/>
<use data-text="r" xlink:href="#font_7_45" transform="matrix(11.35725,0,0,-11.35725,405.1131,50.509004)" fill="#ffffff"/>
<use data-text="n" xlink:href="#font_7_37" transform="matrix(11.35725,0,0,-11.35725,409.44023,50.509004)" fill="#ffffff"/>
<use data-text="e" xlink:href="#font_7_26" transform="matrix(11.35725,0,0,-11.35725,415.61857,50.509004)" fill="#ffffff"/>
<use data-text="r" xlink:href="#font_7_45" transform="matrix(11.35725,0,0,-11.35725,420.55897,50.509004)" fill="#ffffff"/>
<path transform="matrix(1,0,0,-1,493.7806,44.1754)" d="M0 0V15.138H67.323V-15.138-17.504C58.028-14.349 42.957-14.349 33.662-17.504 24.366-20.659 9.296-20.659 0-17.504Z" fill="#e4f1f1"/>
<path transform="matrix(1,0,0,-1,493.7806,44.1754)" stroke-width=".996" stroke-linecap="butt" stroke-dasharray="2.989,2.989" stroke-miterlimit="10" stroke-linejoin="miter" fill="none" stroke="#000000" d="M0 0V15.138H67.323V-15.138-17.504C58.028-14.349 42.957-14.349 33.662-17.504 24.366-20.659 9.296-20.659 0-17.504Z"/>
<use data-text="H" xlink:href="#font_7_8" transform="matrix(11.35725,0,0,-11.35725,510.607,40.359285)"/>
<use data-text="y" xlink:href="#font_7_56" transform="matrix(11.35725,0,0,-11.35725,518.94326,40.359285)"/>
<use data-text="p" xlink:href="#font_7_41" transform="matrix(11.35725,0,0,-11.35725,524.81497,40.359285)"/>
<use data-text="e" xlink:href="#font_7_26" transform="matrix(11.35725,0,0,-11.35725,531.2885,40.359315)"/>
<use data-text="r" xlink:href="#font_7_45" transform="matrix(11.35725,0,0,-11.35725,536.22897,40.359315)"/>
<use data-text="-" xlink:href="#font_7_33" transform="matrix(11.35725,0,0,-11.35725,540.556,40.359315)"/>
<use data-text="p" xlink:href="#font_7_41" transform="matrix(11.35725,0,0,-11.35725,500.53703,53.60898)"/>
<use data-text="a" xlink:href="#font_7_21" transform="matrix(11.35725,0,0,-11.35725,506.71537,53.60898)"/>
<use data-text="r" xlink:href="#font_7_45" transform="matrix(11.35725,0,0,-11.35725,512.2804,53.60898)"/>
<use data-text="a" xlink:href="#font_7_21" transform="matrix(11.35725,0,0,-11.35725,516.6075,53.60898)"/>
<use data-text="m" xlink:href="#font_7_36" transform="matrix(11.35725,0,0,-11.35725,522.17257,53.60898)"/>
<use data-text="e" xlink:href="#font_7_26" transform="matrix(11.35725,0,0,-11.35725,531.44009,53.60898)"/>
<use data-text="t" xlink:href="#font_7_50" transform="matrix(11.35725,0,0,-11.35725,536.3805,53.60898)"/>
<use data-text="e" xlink:href="#font_7_26" transform="matrix(11.35725,0,0,-11.35725,540.7076,53.60898)"/>
<use data-text="r" xlink:href="#font_7_45" transform="matrix(11.35725,0,0,-11.35725,545.648,53.60898)"/>
<use data-text="s" xlink:href="#font_7_46" transform="matrix(11.35725,0,0,-11.35725,549.9751,53.60898)"/>
<path transform="matrix(1,0,0,-1,493.7807,299.7295)" d="M0 0V15.138H67.323V-15.138-17.504C58.028-14.349 42.957-14.349 33.662-17.504 24.366-20.659 9.295-20.659 0-17.504Z" fill="#e4f1f1"/>
<path transform="matrix(1,0,0,-1,493.7807,299.7295)" stroke-width=".996" stroke-linecap="butt" stroke-dasharray="2.989,2.989" stroke-miterlimit="10" stroke-linejoin="miter" fill="none" stroke="#000000" d="M0 0V15.138H67.323V-15.138-17.504C58.028-14.349 42.957-14.349 33.662-17.504 24.366-20.659 9.295-20.659 0-17.504Z"/>
<use data-text="A" xlink:href="#font_7_1" transform="matrix(11.35725,0,0,-11.35725,499.7977,297.0134)"/>
<use data-text="g" xlink:href="#font_7_31" transform="matrix(11.35725,0,0,-11.35725,508.1339,297.0134)"/>
<use data-text="g" xlink:href="#font_7_31" transform="matrix(11.35725,0,0,-11.35725,513.699,297.0134)"/>
<use data-text="r" xlink:href="#font_7_45" transform="matrix(11.35725,0,0,-11.35725,519.26406,297.0134)"/>
<use data-text="e" xlink:href="#font_7_26" transform="matrix(11.35725,0,0,-11.35725,523.5911,297.0134)"/>
<use data-text="g" xlink:href="#font_7_31" transform="matrix(11.35725,0,0,-11.35725,528.53158,297.0134)"/>
<use data-text="a" xlink:href="#font_7_21" transform="matrix(11.35725,0,0,-11.35725,534.0966,297.0134)"/>
<use data-text="t" xlink:href="#font_7_50" transform="matrix(11.35725,0,0,-11.35725,539.6617,297.0134)"/>
<use data-text="e" xlink:href="#font_7_26" transform="matrix(11.35725,0,0,-11.35725,543.9888,297.0134)"/>
<use data-text="d" xlink:href="#font_7_25" transform="matrix(11.35725,0,0,-11.35725,548.9292,297.0134)"/>
<use data-text="P" xlink:href="#font_7_15" transform="matrix(11.35725,0,0,-11.35725,497.094,310.26399)"/>
<use data-text="e" xlink:href="#font_7_26" transform="matrix(11.35725,0,0,-11.35725,504.35105,310.26399)"/>
<use data-text="r" xlink:href="#font_7_45" transform="matrix(11.35725,0,0,-11.35725,509.29145,310.26399)"/>
<use data-text="f" xlink:href="#font_7_28" transform="matrix(11.35725,0,0,-11.35725,513.6185,310.26399)"/>
<use data-text="o" xlink:href="#font_7_39" transform="matrix(11.35725,0,0,-11.35725,517.01437,310.26399)"/>
<use data-text="r" xlink:href="#font_7_45" transform="matrix(11.35725,0,0,-11.35725,522.5794,310.26399)"/>
<use data-text="m" xlink:href="#font_7_36" transform="matrix(11.35725,0,0,-11.35725,526.9065,310.26399)"/>
<use data-text="a" xlink:href="#font_7_21" transform="matrix(11.35725,0,0,-11.35725,536.174,310.26399)"/>
<use data-text="n" xlink:href="#font_7_37" transform="matrix(11.35725,0,0,-11.35725,541.7391,310.26399)"/>
<use data-text="c" xlink:href="#font_7_23" transform="matrix(11.35725,0,0,-11.35725,547.9174,310.26399)"/>
<use data-text="e" xlink:href="#font_7_26" transform="matrix(11.35725,0,0,-11.35725,552.85787,310.26399)"/>
</svg>
