<svg xmlns="http://www.w3.org/2000/svg" xmlns:xlink="http://www.w3.org/1999/xlink" version="1.1" width="534.397pt" height="230.104pt" viewBox="0 0 534.397 230.104">
<defs>
<path id="font_14_2" d="M.20399475 0C.43699647 0 .7659912 .17791748 .7659912 .45072938 .7659912 .53967288 .723999 .59562686 .6749878 .62661746 .58898928 .6826172 .49699403 .6826172 .4019928 .6826172 .31599427 .6826172 .25698854 .6826172 .17298889 .64660647 .039993287 .5876312 .020996094 .50468447 .020996094 .4967041 .020996094 .4907074 .024993897 .4887085 .0309906 .4887085 .04699707 .4887085 .069992069 .50268557 .07798767 .5076904 .09899902 .52168276 .101989749 .52767947 .10798645 .5466614 .12199402 .5866394 .1499939 .62161257 .27598573 .62760928 .2599945 .41874696 .20899964 .22787476 .13899231 .052993776 .101989749 .039993287 .07798767 .016998291 .07798767 .0069885256 .07798767 .0009918213 .07899475 0 .100997928 0H.20399475M.20899964 .054992677C.32299806 .33380128 .34399415 .5076904 .35798646 .62760928 .4249878 .62760928 .68099978 .62760928 .68099978 .40776063 .68099978 .21188355 .5049896 .054992677 .2630005 .054992677H.20899964Z"/>
<path id="font_15_41" d="M.13999939 .6152344C.13999939 .55236819 .11898804 .4206543 .017990113 .4206543V.40264894H.102996829V.17695618C.102996829 .16297913 .101989749 .14900208 .101989749 .13500977 .101989749 .056121828 .13798523-.0078125 .22099304-.0078125 .30099488-.0078125 .31599427 .082092288 .31599427 .14399719V.1819458H.29599C.29599 .16697693 .29699708 .1519928 .29699708 .13700867 .29699708 .09307861 .28799439 .012176514 .22799683 .012176514 .16899109 .012176514 .1599884 .082092288 .1599884 .13002014V.40264894H.2999878V.43066407H.1599884V.6152344H.13999939Z"/>
<path id="font_15_39" d="M.033996583 .42941285V.40138246H.04899597C.07699585 .40138246 .10398865 .39837647 .10398865 .35131837V.06300354C.10398865 .030975342 .07699585 .02897644 .04798889 .02897644H.033996583V.0009765625H.24598694V.02897644C.23599243 .02897644 .22499085 .02796936 .21499634 .02796936 .18598938 .02796936 .15899658 .032974245 .15899658 .070007327V.15110779C.15899658 .1721344 .1579895 .19314575 .1579895 .21417237 .1579895 .29426576 .1769867 .42140199 .27398683 .42140199 .27999879 .42140199 .2869873 .42140199 .29299928 .4203949V.41940309C.2789917 .4143982 .2689972 .40037538 .2689972 .38536073 .2689972 .36634828 .28399659 .34732057 .30699159 .34732057 .32899476 .34732057 .34298707 .3673401 .34298707 .38435365 .34298707 .4203949 .30799867 .4404297 .2749939 .4404297 .21199036 .4404297 .16899109 .38336183 .1559906 .32829286L.15499878 .4404297 .033996583 .42941285Z"/>
<path id="font_15_19" d="M.09899902 .35827638C.116989139 .399292 .1639862 .42730714 .20899964 .42730714 .2829895 .42730714 .31498719 .35627748 .31498719 .29125978V.25724793C.21099854 .25724793 .07899475 .23223877 .04699707 .12121582 .04499817 .112213138 .04399109 .10321045 .04399109 .09320068V.0861969C.049987794 .018173218 .1309967-.0078125 .18598938-.0078125 .24099732-.0078125 .2979889 .019180298 .31999208 .079193118H.32099916C.32099916 .03718567 .35099793-.0038146973 .394989-.0038146973 .43499757-.0038146973 .46598817 .031188965 .46998597 .07319641V.14620972H.44999696V.095199588C.44999696 .06619263 .44400025 .02218628 .41099549 .02218628 .37799073 .02218628 .37098695 .06518555 .37098695 .0921936 .37098695 .10321045 .37199403 .113204959 .37199403 .12321472V.29325868C.37199403 .3902893 .29599 .4453125 .21398926 .4453125 .1579895 .4453125 .101989749 .41729737 .07798767 .36128236 .07398987 .35028077 .069992069 .3362732 .069992069 .3232727 .069992069 .29826356 .08898926 .28025819 .11099243 .28025819 .13198853 .28025819 .1499939 .29826356 .1499939 .3192749 .1499939 .34127809 .13398743 .35928346 .10899353 .35928346 .10499573 .35928346 .101989749 .35928346 .09899902 .35827638M.31498719 .24024964V.1412201C.31498719 .07620239 .27198792 .012176514 .20199585 .010177612H.19799805C.1539917 .010177612 .10998535 .044189454 .10998535 .09420776 .10998535 .19822693 .22698975 .24024964 .31498719 .24024964Z"/>
<path id="font_15_27" d="M.041992189 .42926026V.40122987H.052993776C.083999637 .40122987 .10798645 .39622499 .10798645 .3511963V.06298828C.10798645 .030975342 .08099365 .02897644 .051986696 .02897644H.037994386V.0009765625H.22599793V.02897644H.20899964C.18598938 .02897644 .16299439 .031967164 .16299439 .06399536V.44026185L.041992189 .42926026M.11399841 .66015627C.08999634 .65615847 .07699585 .6361847 .07699585 .6161957 .07699585 .5962219 .09298706 .5722656 .11999512 .5722656 .14698792 .5722656 .1659851 .5932312 .1659851 .6161957 .1659851 .6381531 .147995 .6611328 .12298584 .6611328 .11999512 .6611481 .116989139 .66015627 .11399841 .66015627Z"/>
<path id="font_15_31" d="M.037994386 .42941285V.40138246H.052993776C.08099365 .40138246 .10798645 .39837647 .10798645 .35131837V.06300354C.10798645 .031967164 .08198547 .02897644 .056991579 .02897644H.037994386V.0009765625H.23498535V.02897644H.21798706C.18998719 .02897644 .16499329 .031967164 .16499329 .06401062V.2572174C.16499329 .32530213 .19799805 .42240907 .2939911 .42240907 .35198976 .42240907 .37098695 .37135316 .37098695 .3042755V.06600952C.37098695 .031967164 .34498597 .02897644 .31698609 .02897644H.30099488V.0009765625H.49798585V.02897644H.47499085C.45298768 .02897644 .43199159 .031967164 .42799378 .055999757V.29226686C.42799378 .32629396 .4269867 .36134339 .40899659 .3903656 .38598634 .42941285 .33999635 .4404297 .29699708 .4404297 .23599243 .4404297 .1749878 .39337159 .1619873 .3363037L.16099549 .4404297 .10798645 .4354248 .037994386 .42941285Z"/>
<path id="font_15_23" d="M.100997928 .23524475H.38198854C.3919983 .23524475 .3959961 .23825073 .3959961 .24824524 .3959961 .3422699 .34899903 .4453125 .22898865 .4453125 .10899353 .4453125 .0309906 .3322754 .0309906 .22123719 .0309906 .114212039 .100997928-.0008239746 .22799683-.0078125H.23399353C.3039856-.0078125 .37298585 .03819275 .3929901 .10820007 .3939972 .111206058 .3959961 .11520386 .3959961 .11921692 .3959961 .12321472 .3909912 .1282196 .3869934 .1282196 .37298585 .1282196 .36799623 .096206668 .35899354 .08119202 .33599855 .04118347 .29100038 .012176514 .24398804 .012176514H.23799134C.20999146 .014175415 .18499756 .025177002 .16299439 .043182374 .10598755 .0901947 .100997928 .16722107 .100997928 .23524475M.101989749 .25224305C.101989749 .3282776 .14099121 .42630006 .22499085 .42630006 .31199647 .42630006 .33699037 .32626344 .33699037 .25224305H.101989749Z"/>
<path id="font_15_40" d="M.08099365 .04219055C.10398865 .008178711 .14698792-.0078125 .18598938-.0078125 .2579956-.0078125 .34199525 .021194458 .34199525 .12721253 .34199525 .17422486 .31399537 .21624756 .27398683 .23924256 .21499634 .2732544 .08699036 .2542572 .07199097 .34327699 .07199097 .4072876 .125 .42929078 .18199158 .42929078 .24398804 .42929078 .28599549 .3972931 .2979889 .3212738V.31326295C.2979889 .30426026 .29899598 .29325868 .30899049 .29325868 .31698609 .29325868 .31900025 .30026246 .31900025 .30625917V.43429566C.31900025 .43930055 .31698609 .4453125 .31098939 .4453125 .29899598 .4453125 .2809906 .41729737 .27799989 .41229249 .25099183 .43530274 .21899414 .4453125 .18399048 .4453125 .117996219 .4453125 .03199768 .41929627 .03199768 .32626344 .03199768 .2102356 .17799378 .2122345 .23899842 .19023133 .272995 .17422486 .3019867 .14422608 .3019867 .10520935 .3019867 .032196046 .23899842 .010177612 .18798828 .010177612 .08898926 .010177612 .07199097 .09820557 .051986696 .16923523 .050994874 .17323303 .04598999 .17622376 .041992189 .17622376 .034988405 .17622376 .03199768 .17022705 .03199768 .16423035V.00018310547C.032989503-.0038452149 .034988405-.0068359377 .038986207-.0068359377H.040985109C.04699707-.0068359377 .049987794-.0008392334 .053985597 .0031585694L.08099365 .04219055Z"/>
<path id="font_15_7" d="M.042999269 .68359377V.6555939C.052993776 .6555939 .06399536 .6565857 .07499695 .6565857 .10699463 .6565857 .13598633 .65159609 .13598633 .61660769 .13598633 .60961917 .1349945 .60261538 .1349945 .59661868V.08892822C.1349945 .08293152 .13598633 .076934818 .13598633 .06994629 .13598633 .032958986 .10598755 .02796936 .07499695 .02796936 .06399536 .02796936 .052993776 .028961182 .042999269 .028961182V.0009765625H.2999878V.028961182C.2899933 .028961182 .2789917 .02796936 .2679901 .02796936 .23599243 .02796936 .20698548 .032958986 .20698548 .06794739 .20698548 .07493591 .20799256 .0819397 .20799256 .0879364V.59562686C.20799256 .60162356 .20698548 .60762026 .20698548 .61460879 .20698548 .65159609 .23699951 .6565857 .2679901 .6565857 .2789917 .6565857 .2899933 .6555939 .2999878 .6555939V.68359377H.042999269Z"/>
<path id="font_15_32" d="M.22399903 .4453125C.102996829 .42829896 .0309906 .3292694 .0309906 .2162323V.20323181C.037994386 .09220886 .11999512-.0078125 .23899842-.0078125H.25C.2749939-.0048217775 .2979889 .00018310547 .32099916 .011184692 .39898683 .048187257 .44400025 .1322174 .44400025 .21723938V.22523499C.43998719 .3352661 .35798646 .4453125 .23599243 .4453125H.22399903M.100997928 .19422913C.100997928 .20223999 .099990848 .21124268 .099990848 .22024536 .099990848 .29226686 .10899353 .37728883 .18699646 .41629029 .20298767 .42329408 .21998596 .42729188 .23699951 .42729188 .34399415 .42729188 .37399293 .31626893 .37399293 .22924805 .37399293 .1532135 .36799623 .04118347 .2649994 .015182495 .2559967 .013183594 .24798584 .012176514 .23899842 .012176514 .1619873 .012176514 .114990238 .080200199 .10499573 .15522766 .102996829 .16822815 .102996829 .18122864 .100997928 .19422913Z"/>
<path id="font_15_33" d="M.09098816 .59906008V.5710602C.13398743 .5710602 .1769867 .57806399 .21499634 .59906008V.07197571C.21499634 .033966066 .17799378 .02796936 .14099121 .02796936 .125 .02796936 .10899353 .02897644 .09599304 .02897644V.0009765625H.394989V.02897644C.37998963 .02897644 .3639984 .02796936 .34799195 .02796936 .30999757 .02796936 .27598573 .033966066 .27598573 .07096863V.64907839C.27598573 .654068 .2749939 .66308596 .2659912 .66308596 .2630005 .66308596 .2599945 .66207888 .2579956 .6610718L.24798584 .6510773C.20298767 .61206057 .147995 .59906008 .09098816 .59906008Z"/>
<path id="font_15_43" d="M.07598877 .51805117C.09599304 .57806399 .13699341 .6350708 .21299744 .6350708 .2979889 .6350708 .35198976 .5590668 .35198976 .47705079V.4640503C.33999635 .32902528 .22799683 .23300171 .14698792 .13798523 .11399841 .10298157 .04699707 .036972047 .04699707 .011962891V.0009765625H.40299989L.42799378 .16099549H.4079895C.3999939 .114974979 .4019928 .065963748 .36099244 .065963748 .33299256 .065963748 .30499269 .063964847 .2769928 .063964847H.10598755C.15899658 .11697388 .21199036 .17199707 .2669983 .22399903 .33599855 .28800965 .42799378 .36302186 .42799378 .4680481 .42799378 .5970764 .32998658 .66308596 .22099304 .66308596H.21099854C.12199402 .65408328 .04699707 .57507327 .04699707 .48205567 .04699707 .4570465 .055999757 .43104554 .09199524 .43104554 .116989139 .43104554 .13699341 .4490509 .13699341 .4740448 .13699341 .49705506 .11999512 .5200653 .09199524 .5200653 .08699036 .5200653 .08099365 .5190582 .07598877 .51805117Z"/>
<path id="font_15_42" d="M.09599304 .5691223C.12298584 .61709597 .17999268 .63908389 .23199463 .63908389 .28199769 .63908389 .33198548 .60710147 .33198548 .5231323 .33198548 .46116639 .30299378 .38520814 .24299622 .36721803 .22099304 .36021424 .1579895 .36421205 .1579895 .35021974 .1579895 .34222413 .1659851 .34022523 .17399597 .34022523H.18499756C.19699097 .34022523 .20999146 .3412323 .22200012 .3412323 .31599427 .3412323 .34899903 .25827027 .34999085 .18530274V.17730713C.34999085 .1023407 .32199098 .009384155 .22799683 .009384155 .16099549 .009384155 .10598755 .04537964 .07299805 .10134888 .07798767 .1003418 .08198547 .099349979 .08699036 .099349979 .11299133 .099349979 .1349945 .11933899 .1349945 .14631653 .1349945 .17631531 .11299133 .19430542 .07998657 .19430542 .049987794 .18830872 .039993287 .16531372 .039993287 .14231873 .039993287 .042373659 .14498902-.016601563 .23498535-.016601563 .33999635-.016601563 .43499757 .06536865 .43499757 .17330933 .43499757 .2632599 .36099244 .3412323 .2659912 .35221864 .34199525 .37521363 .40899659 .43917848 .40899659 .5241394 .40899659 .60009768 .33599855 .66308596 .23799134 .66308596 .1639862 .66308596 .06599426 .62309268 .06599426 .5301361 .06599426 .5101471 .07598877 .48416139 .10798645 .48416139 .1329956 .48416139 .15299988 .5011444 .15299988 .5271301 .15299988 .552124 .13398743 .5711212 .10899353 .5711212 .10398865 .5711212 .099990848 .57011416 .09599304 .5691223Z"/>
</defs>
<path transform="matrix(1,0,0,-1,69.3724,16.027398)" d="M0 0-66.882-115.843C-67.982-117.749-67.329-120.187-65.423-121.287L-5.25-156.028C-3.343-157.129-.906-156.476 .194-154.57L67.076-38.726C68.177-36.82 67.524-34.383 65.617-33.283L5.444 1.459C3.538 2.559 1.1 1.906 0 0Z" fill="#cbebe1"/>
<path transform="matrix(1,0,0,-1,69.3724,16.027398)" stroke-width=".996" stroke-linecap="butt" stroke-miterlimit="10" stroke-linejoin="miter" fill="none" stroke="#000000" d="M0 0-66.882-115.843C-67.982-117.749-67.329-120.187-65.423-121.287L-5.25-156.028C-3.343-157.129-.906-156.476 .194-154.57L67.076-38.726C68.177-36.82 67.524-34.383 65.617-33.283L5.444 1.459C3.538 2.559 1.1 1.906 0 0Z"/>
<use data-text="D" xlink:href="#font_14_2" transform="matrix(10.3315,-17.894158,-17.894158,-10.3315,39.719,102.267009)"/>
<use data-text="t" xlink:href="#font_15_41" transform="matrix(7.173,-12.4236359,-12.4236359,-7.173,50.3731,90.013828)"/>
<use data-text="r" xlink:href="#font_15_39" transform="matrix(7.173,-12.4236359,-12.4236359,-7.173,53.02711,85.41708)"/>
<use data-text="a" xlink:href="#font_15_19" transform="matrix(7.173,-12.4236359,-12.4236359,-7.173,55.68112,80.82034)"/>
<use data-text="i" xlink:href="#font_15_27" transform="matrix(7.173,-12.4236359,-12.4236359,-7.173,59.09547,74.90669)"/>
<use data-text="n" xlink:href="#font_15_31" transform="matrix(7.173,-12.4236359,-12.4236359,-7.173,60.989145,71.62685)"/>
<path transform="matrix(1,0,0,-1,351.9777,131.8707)" d="M0 0-66.882 115.843C-67.982 117.749-70.42 118.402-72.326 117.302L-132.5 82.561C-134.406 81.46-135.059 79.023-133.958 77.117L-67.076-38.726C-65.976-40.632-63.539-41.285-61.632-40.185L-1.459-5.444C.447-4.343 1.1-1.906 0 0Z" fill="#cbebe1"/>
<path transform="matrix(1,0,0,-1,351.9777,131.8707)" stroke-width=".996" stroke-linecap="butt" stroke-miterlimit="10" stroke-linejoin="miter" fill="none" stroke="#000000" d="M0 0-66.882 115.843C-67.982 117.749-70.42 118.402-72.326 117.302L-132.5 82.561C-134.406 81.46-135.059 79.023-133.958 77.117L-67.076-38.726C-65.976-40.632-63.539-41.285-61.632-40.185L-1.459-5.444C.447-4.343 1.1-1.906 0 0Z"/>
<use data-text="D" xlink:href="#font_14_2" transform="matrix(10.3315,17.894158,17.894158,-10.3315,292.115,63.071)"/>
<use data-text="t" xlink:href="#font_15_41" transform="matrix(7.173,12.4236359,12.4236359,-7.173,297.40077,78.423679)"/>
<use data-text="r" xlink:href="#font_15_39" transform="matrix(7.173,12.4236359,12.4236359,-7.173,300.05479,83.02042)"/>
<use data-text="a" xlink:href="#font_15_19" transform="matrix(7.173,12.4236359,12.4236359,-7.173,302.7088,87.61716)"/>
<use data-text="i" xlink:href="#font_15_27" transform="matrix(7.173,12.4236359,12.4236359,-7.173,306.12315,93.53081)"/>
<use data-text="n" xlink:href="#font_15_31" transform="matrix(7.173,12.4236359,12.4236359,-7.173,308.0168,96.81065)"/>
<path transform="matrix(1,0,0,-1,527.5841,102.5449)" d="M0 0H-133.764C-135.965 0-137.749-1.784-137.749-3.985V-73.468C-137.749-75.669-135.965-77.453-133.764-77.453H0C2.201-77.453 3.985-75.669 3.985-73.468V-3.985C3.985-1.784 2.201 0 0 0Z" fill="#cbebe1"/>
<path transform="matrix(1,0,0,-1,527.5841,102.5449)" stroke-width=".996" stroke-linecap="butt" stroke-miterlimit="10" stroke-linejoin="miter" fill="none" stroke="#000000" d="M0 0H-133.764C-135.965 0-137.749-1.784-137.749-3.985V-73.468C-137.749-75.669-135.965-77.453-133.764-77.453H0C2.201-77.453 3.985-75.669 3.985-73.468V-3.985C3.985-1.784 2.201 0 0 0Z"/>
<use data-text="D" xlink:href="#font_14_2" transform="matrix(20.663,0,0,-20.663,438.066,119.984)"/>
<use data-text="t" xlink:href="#font_15_41" transform="matrix(14.346,0,0,-14.346,454.005,123.083)"/>
<use data-text="r" xlink:href="#font_15_39" transform="matrix(14.346,0,0,-14.346,459.31303,123.083)"/>
<use data-text="a" xlink:href="#font_15_19" transform="matrix(14.346,0,0,-14.346,464.62104,123.083)"/>
<use data-text="i" xlink:href="#font_15_27" transform="matrix(14.346,0,0,-14.346,471.44975,123.083)"/>
<use data-text="n" xlink:href="#font_15_31" transform="matrix(14.346,0,0,-14.346,475.2371,123.083)"/>
<use data-text="D" xlink:href="#font_14_2" transform="matrix(20.663,0,0,-20.663,119.70999,101.888)"/>
<use data-text="t" xlink:href="#font_15_41" transform="matrix(14.346,0,0,-14.346,135.64899,104.987)"/>
<use data-text="e" xlink:href="#font_15_23" transform="matrix(14.346,0,0,-14.346,140.957,104.987)"/>
<use data-text="s" xlink:href="#font_15_40" transform="matrix(14.346,0,0,-14.346,147.02536,104.987)"/>
<use data-text="t" xlink:href="#font_15_41" transform="matrix(14.346,0,0,-14.346,152.4051,104.987)"/>
<use data-text="D" xlink:href="#font_14_2" transform="matrix(20.663,0,0,-20.663,200.49698,104.722)"/>
<use data-text="t" xlink:href="#font_15_41" transform="matrix(14.346,0,0,-14.346,216.43598,107.821)"/>
<use data-text="e" xlink:href="#font_15_23" transform="matrix(14.346,0,0,-14.346,221.74399,107.821)"/>
<use data-text="s" xlink:href="#font_15_40" transform="matrix(14.346,0,0,-14.346,227.81235,107.821)"/>
<use data-text="t" xlink:href="#font_15_41" transform="matrix(14.346,0,0,-14.346,233.1921,107.821)"/>
<use data-text="D" xlink:href="#font_14_2" transform="matrix(20.663,0,0,-20.663,444.27699,33.856004)"/>
<use data-text="t" xlink:href="#font_15_41" transform="matrix(14.346,0,0,-14.346,460.21598,36.955)"/>
<use data-text="e" xlink:href="#font_15_23" transform="matrix(14.346,0,0,-14.346,465.524,36.955)"/>
<use data-text="s" xlink:href="#font_15_40" transform="matrix(14.346,0,0,-14.346,471.59236,36.955)"/>
<use data-text="t" xlink:href="#font_15_41" transform="matrix(14.346,0,0,-14.346,476.9721,36.955)"/>
<path transform="matrix(1,0,0,-1,130.7287,201.26059)" d="M0 0H-77.07C-79.271 0-81.055-1.784-81.055-3.985V-24.362C-81.055-26.563-79.271-28.347-77.07-28.347H0C2.201-28.347 3.985-26.563 3.985-24.362V-3.985C3.985-1.784 2.201 0 0 0Z" fill="#ffffff"/>
<path transform="matrix(1,0,0,-1,130.7287,201.26059)" stroke-width=".996" stroke-linecap="butt" stroke-miterlimit="10" stroke-linejoin="miter" fill="none" stroke="#000000" d="M0 0H-77.07C-79.271 0-81.055-1.784-81.055-3.985V-24.362C-81.055-26.563-79.271-28.347-77.07-28.347H0C2.201-28.347 3.985-26.563 3.985-24.362V-3.985C3.985-1.784 2.201 0 0 0Z"/>
<use data-text="I" xlink:href="#font_15_7" transform="matrix(14.346,0,0,-14.346,60.526,220.37201)"/>
<use data-text="t" xlink:href="#font_15_41" transform="matrix(14.346,0,0,-14.346,65.44668,220.37201)"/>
<use data-text="e" xlink:href="#font_15_23" transform="matrix(14.346,0,0,-14.346,70.7547,220.37201)"/>
<use data-text="r" xlink:href="#font_15_39" transform="matrix(14.346,0,0,-14.346,76.82306,220.37201)"/>
<use data-text="a" xlink:href="#font_15_19" transform="matrix(14.346,0,0,-14.346,82.13108,220.37201)"/>
<use data-text="t" xlink:href="#font_15_41" transform="matrix(14.346,0,0,-14.346,88.95978,220.37201)"/>
<use data-text="i" xlink:href="#font_15_27" transform="matrix(14.346,0,0,-14.346,94.2678,220.37201)"/>
<use data-text="o" xlink:href="#font_15_32" transform="matrix(14.346,0,0,-14.346,98.055149,220.37201)"/>
<use data-text="n" xlink:href="#font_15_31" transform="matrix(14.346,0,0,-14.346,104.88384,220.37201)"/>
<use data-text="1" xlink:href="#font_15_33" transform="matrix(14.346,0,0,-14.346,117.036,220.37201)"/>
<path transform="matrix(1,0,0,-1,314.983,201.26059)" d="M0 0H-77.07C-79.271 0-81.055-1.784-81.055-3.985V-24.362C-81.055-26.563-79.271-28.347-77.07-28.347H0C2.201-28.347 3.985-26.563 3.985-24.362V-3.985C3.985-1.784 2.201 0 0 0Z" fill="#ffffff"/>
<path transform="matrix(1,0,0,-1,314.983,201.26059)" stroke-width=".996" stroke-linecap="butt" stroke-miterlimit="10" stroke-linejoin="miter" fill="none" stroke="#000000" d="M0 0H-77.07C-79.271 0-81.055-1.784-81.055-3.985V-24.362C-81.055-26.563-79.271-28.347-77.07-28.347H0C2.201-28.347 3.985-26.563 3.985-24.362V-3.985C3.985-1.784 2.201 0 0 0Z"/>
<use data-text="I" xlink:href="#font_15_7" transform="matrix(14.346,0,0,-14.346,244.778,220.37201)"/>
<use data-text="t" xlink:href="#font_15_41" transform="matrix(14.346,0,0,-14.346,249.69869,220.37201)"/>
<use data-text="e" xlink:href="#font_15_23" transform="matrix(14.346,0,0,-14.346,255.0067,220.37201)"/>
<use data-text="r" xlink:href="#font_15_39" transform="matrix(14.346,0,0,-14.346,261.07505,220.37201)"/>
<use data-text="a" xlink:href="#font_15_19" transform="matrix(14.346,0,0,-14.346,266.38307,220.37201)"/>
<use data-text="t" xlink:href="#font_15_41" transform="matrix(14.346,0,0,-14.346,273.21177,220.37201)"/>
<use data-text="i" xlink:href="#font_15_27" transform="matrix(14.346,0,0,-14.346,278.51979,220.37201)"/>
<use data-text="o" xlink:href="#font_15_32" transform="matrix(14.346,0,0,-14.346,282.30714,220.37201)"/>
<use data-text="n" xlink:href="#font_15_31" transform="matrix(14.346,0,0,-14.346,289.13584,220.37201)"/>
<use data-text="2" xlink:href="#font_15_43" transform="matrix(14.346,0,0,-14.346,301.27253,220.37201)"/>
<path transform="matrix(1,0,0,-1,499.2373,201.26059)" d="M0 0H-77.07C-79.271 0-81.055-1.784-81.055-3.985V-24.362C-81.055-26.563-79.271-28.347-77.07-28.347H0C2.201-28.347 3.985-26.563 3.985-24.362V-3.985C3.985-1.784 2.201 0 0 0Z" fill="#ffffff"/>
<path transform="matrix(1,0,0,-1,499.2373,201.26059)" stroke-width=".996" stroke-linecap="butt" stroke-miterlimit="10" stroke-linejoin="miter" fill="none" stroke="#000000" d="M0 0H-77.07C-79.271 0-81.055-1.784-81.055-3.985V-24.362C-81.055-26.563-79.271-28.347-77.07-28.347H0C2.201-28.347 3.985-26.563 3.985-24.362V-3.985C3.985-1.784 2.201 0 0 0Z"/>
<use data-text="I" xlink:href="#font_15_7" transform="matrix(14.346,0,0,-14.346,429.03,220.37201)"/>
<use data-text="t" xlink:href="#font_15_41" transform="matrix(14.346,0,0,-14.346,433.95069,220.37201)"/>
<use data-text="e" xlink:href="#font_15_23" transform="matrix(14.346,0,0,-14.346,439.2587,220.37201)"/>
<use data-text="r" xlink:href="#font_15_39" transform="matrix(14.346,0,0,-14.346,445.32707,220.37201)"/>
<use data-text="a" xlink:href="#font_15_19" transform="matrix(14.346,0,0,-14.346,450.63508,220.37201)"/>
<use data-text="t" xlink:href="#font_15_41" transform="matrix(14.346,0,0,-14.346,457.46379,220.37201)"/>
<use data-text="i" xlink:href="#font_15_27" transform="matrix(14.346,0,0,-14.346,462.7718,220.37201)"/>
<use data-text="o" xlink:href="#font_15_32" transform="matrix(14.346,0,0,-14.346,466.55915,220.37201)"/>
<use data-text="n" xlink:href="#font_15_31" transform="matrix(14.346,0,0,-14.346,473.38786,220.37201)"/>
<use data-text="3" xlink:href="#font_15_42" transform="matrix(14.346,0,0,-14.346,485.52455,220.37201)"/>
<path transform="matrix(1,0,0,-1,177.234,2.8330003)" stroke-width="1.993" stroke-linecap="butt" stroke-dasharray="2.989,2.989" stroke-miterlimit="10" stroke-linejoin="miter" fill="none" stroke="#000000" d="M0 0V-183.756"/>
<path transform="matrix(1,0,0,-1,368.575,2.8330003)" stroke-width="1.993" stroke-linecap="butt" stroke-dasharray="2.989,2.989" stroke-miterlimit="10" stroke-linejoin="miter" fill="none" stroke="#000000" d="M0 0V-183.756"/>
<path transform="matrix(1,0,0,-1,40.004899,113.7482)" d="M0 0C0 3.131-2.538 5.669-5.669 5.669-8.8 5.669-11.339 3.131-11.339 0-11.339-3.131-8.8-5.669-5.669-5.669-2.538-5.669 0-3.131 0 0Z" fill="#80aabb"/>
<path transform="matrix(1,0,0,-1,40.004899,113.7482)" stroke-width=".398" stroke-linecap="butt" stroke-miterlimit="10" stroke-linejoin="miter" fill="none" stroke="#4d6670" d="M0 0C0 3.131-2.538 5.669-5.669 5.669-8.8 5.669-11.339 3.131-11.339 0-11.339-3.131-8.8-5.669-5.669-5.669-2.538-5.669 0-3.131 0 0Z"/>
<path transform="matrix(1,0,0,-1,207.2509,122.252399)" d="M0 0C0 3.131-2.538 5.669-5.669 5.669-8.8 5.669-11.339 3.131-11.339 0-11.339-3.131-8.8-5.669-5.669-5.669-2.538-5.669 0-3.131 0 0Z" fill="#80aabb"/>
<path transform="matrix(1,0,0,-1,207.2509,122.252399)" stroke-width=".398" stroke-linecap="butt" stroke-miterlimit="10" stroke-linejoin="miter" fill="none" stroke="#4d6670" d="M0 0C0 3.131-2.538 5.669-5.669 5.669-8.8 5.669-11.339 3.131-11.339 0-11.339-3.131-8.8-5.669-5.669-5.669-2.538-5.669 0-3.131 0 0Z"/>
<path transform="matrix(1,0,0,-1,412.7652,137.8432)" d="M0 0C0 3.131-2.538 5.669-5.669 5.669-8.8 5.669-11.339 3.131-11.339 0-11.339-3.131-8.8-5.669-5.669-5.669-2.538-5.669 0-3.131 0 0Z" fill="#80aabb"/>
<path transform="matrix(1,0,0,-1,412.7652,137.8432)" stroke-width=".398" stroke-linecap="butt" stroke-miterlimit="10" stroke-linejoin="miter" fill="none" stroke="#4d6670" d="M0 0C0 3.131-2.538 5.669-5.669 5.669-8.8 5.669-11.339 3.131-11.339 0-11.339-3.131-8.8-5.669-5.669-5.669-2.538-5.669 0-3.131 0 0Z"/>
<path transform="matrix(1,0,0,-1,82.5251,51.3854)" d="M0 0C0 3.131-2.538 5.669-5.669 5.669-8.8 5.669-11.339 3.131-11.339 0-11.339-3.131-8.8-5.669-5.669-5.669-2.538-5.669 0-3.131 0 0Z" fill="#fdf07c"/>
<path transform="matrix(1,0,0,-1,82.5251,51.3854)" stroke-width=".398" stroke-linecap="butt" stroke-miterlimit="10" stroke-linejoin="miter" fill="none" stroke="#4d6670" d="M0 0C0 3.131-2.538 5.669-5.669 5.669-8.8 5.669-11.339 3.131-11.339 0-11.339-3.131-8.8-5.669-5.669-5.669-2.538-5.669 0-3.131 0 0Z"/>
<path transform="matrix(1,0,0,-1,252.6059,49.967996)" d="M0 0C0 3.131-2.538 5.669-5.669 5.669-8.8 5.669-11.339 3.131-11.339 0-11.339-3.131-8.8-5.669-5.669-5.669-2.538-5.669 0-3.131 0 0Z" fill="#fdf07c"/>
<path transform="matrix(1,0,0,-1,252.6059,49.967996)" stroke-width=".398" stroke-linecap="butt" stroke-miterlimit="10" stroke-linejoin="miter" fill="none" stroke="#4d6670" d="M0 0C0 3.131-2.538 5.669-5.669 5.669-8.8 5.669-11.339 3.131-11.339 0-11.339-3.131-8.8-5.669-5.669-5.669-2.538-5.669 0-3.131 0 0Z"/>
<path transform="matrix(1,0,0,-1,451.0336,51.3854)" d="M0 0C0 3.131-2.538 5.669-5.669 5.669-8.8 5.669-11.339 3.131-11.339 0-11.339-3.131-8.8-5.669-5.669-5.669-2.538-5.669 0-3.131 0 0Z" fill="#fdf07c"/>
<path transform="matrix(1,0,0,-1,451.0336,51.3854)" stroke-width=".398" stroke-linecap="butt" stroke-miterlimit="10" stroke-linejoin="miter" fill="none" stroke="#4d6670" d="M0 0C0 3.131-2.538 5.669-5.669 5.669-8.8 5.669-11.339 3.131-11.339 0-11.339-3.131-8.8-5.669-5.669-5.669-2.538-5.669 0-3.131 0 0Z"/>
<path transform="matrix(1,0,0,-1,122.2104,119.417499)" d="M0 0C0 3.131-2.538 5.669-5.669 5.669-8.8 5.669-11.339 3.131-11.339 0-11.339-3.131-8.8-5.669-5.669-5.669-2.538-5.669 0-3.131 0 0Z" fill="#8e6698"/>
<path transform="matrix(1,0,0,-1,122.2104,119.417499)" stroke-width=".398" stroke-linecap="butt" stroke-miterlimit="10" stroke-linejoin="miter" fill="none" stroke="#4d6670" d="M0 0C0 3.131-2.538 5.669-5.669 5.669-8.8 5.669-11.339 3.131-11.339 0-11.339-3.131-8.8-5.669-5.669-5.669-2.538-5.669 0-3.131 0 0Z"/>
<path transform="matrix(1,0,0,-1,289.45649,118.00009)" d="M0 0C0 3.131-2.538 5.669-5.669 5.669-8.8 5.669-11.339 3.131-11.339 0-11.339-3.131-8.8-5.669-5.669-5.669-2.538-5.669 0-3.131 0 0Z" fill="#8e6698"/>
<path transform="matrix(1,0,0,-1,289.45649,118.00009)" stroke-width=".398" stroke-linecap="butt" stroke-miterlimit="10" stroke-linejoin="miter" fill="none" stroke="#4d6670" d="M0 0C0 3.131-2.538 5.669-5.669 5.669-8.8 5.669-11.339 3.131-11.339 0-11.339-3.131-8.8-5.669-5.669-5.669-2.538-5.669 0-3.131 0 0Z"/>
<path transform="matrix(1,0,0,-1,483.6323,137.8432)" d="M0 0C0 3.131-2.538 5.669-5.669 5.669-8.8 5.669-11.339 3.131-11.339 0-11.339-3.131-8.8-5.669-5.669-5.669-2.538-5.669 0-3.131 0 0Z" fill="#8e6698"/>
<path transform="matrix(1,0,0,-1,483.6323,137.8432)" stroke-width=".398" stroke-linecap="butt" stroke-miterlimit="10" stroke-linejoin="miter" fill="none" stroke="#4d6670" d="M0 0C0 3.131-2.538 5.669-5.669 5.669-8.8 5.669-11.339 3.131-11.339 0-11.339-3.131-8.8-5.669-5.669-5.669-2.538-5.669 0-3.131 0 0Z"/>
<path transform="matrix(1,0,0,-1,36.7505,129.4818)" d="M0 0C0 3.131-2.538 5.669-5.669 5.669-8.8 5.669-11.339 3.131-11.339 0-11.339-3.131-8.8-5.669-5.669-5.669-2.538-5.669 0-3.131 0 0Z" fill="#80aabb"/>
<path transform="matrix(1,0,0,-1,36.7505,129.4818)" stroke-width=".398" stroke-linecap="butt" stroke-miterlimit="10" stroke-linejoin="miter" fill="none" stroke="#4d6670" d="M0 0C0 3.131-2.538 5.669-5.669 5.669-8.8 5.669-11.339 3.131-11.339 0-11.339-3.131-8.8-5.669-5.669-5.669-2.538-5.669 0-3.131 0 0Z"/>
<path transform="matrix(1,0,0,-1,203.9965,137.9859)" d="M0 0C0 3.131-2.538 5.669-5.669 5.669-8.8 5.669-11.339 3.131-11.339 0-11.339-3.131-8.8-5.669-5.669-5.669-2.538-5.669 0-3.131 0 0Z" fill="#80aabb"/>
<path transform="matrix(1,0,0,-1,203.9965,137.9859)" stroke-width=".398" stroke-linecap="butt" stroke-miterlimit="10" stroke-linejoin="miter" fill="none" stroke="#4d6670" d="M0 0C0 3.131-2.538 5.669-5.669 5.669-8.8 5.669-11.339 3.131-11.339 0-11.339-3.131-8.8-5.669-5.669-5.669-2.538-5.669 0-3.131 0 0Z"/>
<path transform="matrix(1,0,0,-1,409.5108,153.5768)" d="M0 0C0 3.131-2.538 5.669-5.669 5.669-8.8 5.669-11.339 3.131-11.339 0-11.339-3.131-8.8-5.669-5.669-5.669-2.538-5.669 0-3.131 0 0Z" fill="#80aabb"/>
<path transform="matrix(1,0,0,-1,409.5108,153.5768)" stroke-width=".398" stroke-linecap="butt" stroke-miterlimit="10" stroke-linejoin="miter" fill="none" stroke="#4d6670" d="M0 0C0 3.131-2.538 5.669-5.669 5.669-8.8 5.669-11.339 3.131-11.339 0-11.339-3.131-8.8-5.669-5.669-5.669-2.538-5.669 0-3.131 0 0Z"/>
<path transform="matrix(1,0,0,-1,79.2707,67.118999)" d="M0 0C0 3.131-2.538 5.669-5.669 5.669-8.8 5.669-11.339 3.131-11.339 0-11.339-3.131-8.8-5.669-5.669-5.669-2.538-5.669 0-3.131 0 0Z" fill="#fdf07c"/>
<path transform="matrix(1,0,0,-1,79.2707,67.118999)" stroke-width=".398" stroke-linecap="butt" stroke-miterlimit="10" stroke-linejoin="miter" fill="none" stroke="#4d6670" d="M0 0C0 3.131-2.538 5.669-5.669 5.669-8.8 5.669-11.339 3.131-11.339 0-11.339-3.131-8.8-5.669-5.669-5.669-2.538-5.669 0-3.131 0 0Z"/>
<path transform="matrix(1,0,0,-1,249.3515,65.7015)" d="M0 0C0 3.131-2.538 5.669-5.669 5.669-8.8 5.669-11.339 3.131-11.339 0-11.339-3.131-8.8-5.669-5.669-5.669-2.538-5.669 0-3.131 0 0Z" fill="#fdf07c"/>
<path transform="matrix(1,0,0,-1,249.3515,65.7015)" stroke-width=".398" stroke-linecap="butt" stroke-miterlimit="10" stroke-linejoin="miter" fill="none" stroke="#4d6670" d="M0 0C0 3.131-2.538 5.669-5.669 5.669-8.8 5.669-11.339 3.131-11.339 0-11.339-3.131-8.8-5.669-5.669-5.669-2.538-5.669 0-3.131 0 0Z"/>
<path transform="matrix(1,0,0,-1,447.7792,67.118999)" d="M0 0C0 3.131-2.538 5.669-5.669 5.669-8.8 5.669-11.339 3.131-11.339 0-11.339-3.131-8.8-5.669-5.669-5.669-2.538-5.669 0-3.131 0 0Z" fill="#fdf07c"/>
<path transform="matrix(1,0,0,-1,447.7792,67.118999)" stroke-width=".398" stroke-linecap="butt" stroke-miterlimit="10" stroke-linejoin="miter" fill="none" stroke="#4d6670" d="M0 0C0 3.131-2.538 5.669-5.669 5.669-8.8 5.669-11.339 3.131-11.339 0-11.339-3.131-8.8-5.669-5.669-5.669-2.538-5.669 0-3.131 0 0Z"/>
<path transform="matrix(1,0,0,-1,118.956,135.1511)" d="M0 0C0 3.131-2.538 5.669-5.669 5.669-8.8 5.669-11.339 3.131-11.339 0-11.339-3.131-8.8-5.669-5.669-5.669-2.538-5.669 0-3.131 0 0Z" fill="#8e6698"/>
<path transform="matrix(1,0,0,-1,118.956,135.1511)" stroke-width=".398" stroke-linecap="butt" stroke-miterlimit="10" stroke-linejoin="miter" fill="none" stroke="#4d6670" d="M0 0C0 3.131-2.538 5.669-5.669 5.669-8.8 5.669-11.339 3.131-11.339 0-11.339-3.131-8.8-5.669-5.669-5.669-2.538-5.669 0-3.131 0 0Z"/>
<path transform="matrix(1,0,0,-1,286.202,133.7337)" d="M0 0C0 3.131-2.538 5.669-5.669 5.669-8.8 5.669-11.339 3.131-11.339 0-11.339-3.131-8.8-5.669-5.669-5.669-2.538-5.669 0-3.131 0 0Z" fill="#8e6698"/>
<path transform="matrix(1,0,0,-1,286.202,133.7337)" stroke-width=".398" stroke-linecap="butt" stroke-miterlimit="10" stroke-linejoin="miter" fill="none" stroke="#4d6670" d="M0 0C0 3.131-2.538 5.669-5.669 5.669-8.8 5.669-11.339 3.131-11.339 0-11.339-3.131-8.8-5.669-5.669-5.669-2.538-5.669 0-3.131 0 0Z"/>
<path transform="matrix(1,0,0,-1,480.3778,153.5768)" d="M0 0C0 3.131-2.538 5.669-5.669 5.669-8.8 5.669-11.339 3.131-11.339 0-11.339-3.131-8.8-5.669-5.669-5.669-2.538-5.669 0-3.131 0 0Z" fill="#8e6698"/>
<path transform="matrix(1,0,0,-1,480.3778,153.5768)" stroke-width=".398" stroke-linecap="butt" stroke-miterlimit="10" stroke-linejoin="miter" fill="none" stroke="#4d6670" d="M0 0C0 3.131-2.538 5.669-5.669 5.669-8.8 5.669-11.339 3.131-11.339 0-11.339-3.131-8.8-5.669-5.669-5.669-2.538-5.669 0-3.131 0 0Z"/>
<path transform="matrix(1,0,0,-1,38.5775,142.90259)" d="M0 0C0 3.131-2.538 5.669-5.669 5.669-8.8 5.669-11.339 3.131-11.339 0-11.339-3.131-8.8-5.669-5.669-5.669-2.538-5.669 0-3.131 0 0Z" fill="#80aabb"/>
<path transform="matrix(1,0,0,-1,38.5775,142.90259)" stroke-width=".398" stroke-linecap="butt" stroke-miterlimit="10" stroke-linejoin="miter" fill="none" stroke="#4d6670" d="M0 0C0 3.131-2.538 5.669-5.669 5.669-8.8 5.669-11.339 3.131-11.339 0-11.339-3.131-8.8-5.669-5.669-5.669-2.538-5.669 0-3.131 0 0Z"/>
<path transform="matrix(1,0,0,-1,205.8235,151.40671)" d="M0 0C0 3.131-2.538 5.669-5.669 5.669-8.8 5.669-11.339 3.131-11.339 0-11.339-3.131-8.8-5.669-5.669-5.669-2.538-5.669 0-3.131 0 0Z" fill="#80aabb"/>
<path transform="matrix(1,0,0,-1,205.8235,151.40671)" stroke-width=".398" stroke-linecap="butt" stroke-miterlimit="10" stroke-linejoin="miter" fill="none" stroke="#4d6670" d="M0 0C0 3.131-2.538 5.669-5.669 5.669-8.8 5.669-11.339 3.131-11.339 0-11.339-3.131-8.8-5.669-5.669-5.669-2.538-5.669 0-3.131 0 0Z"/>
<path transform="matrix(1,0,0,-1,411.3379,166.99759)" d="M0 0C0 3.131-2.538 5.669-5.669 5.669-8.8 5.669-11.339 3.131-11.339 0-11.339-3.131-8.8-5.669-5.669-5.669-2.538-5.669 0-3.131 0 0Z" fill="#80aabb"/>
<path transform="matrix(1,0,0,-1,411.3379,166.99759)" stroke-width=".398" stroke-linecap="butt" stroke-miterlimit="10" stroke-linejoin="miter" fill="none" stroke="#4d6670" d="M0 0C0 3.131-2.538 5.669-5.669 5.669-8.8 5.669-11.339 3.131-11.339 0-11.339-3.131-8.8-5.669-5.669-5.669-2.538-5.669 0-3.131 0 0Z"/>
<path transform="matrix(1,0,0,-1,81.0977,80.539699)" d="M0 0C0 3.131-2.538 5.669-5.669 5.669-8.8 5.669-11.339 3.131-11.339 0-11.339-3.131-8.8-5.669-5.669-5.669-2.538-5.669 0-3.131 0 0Z" fill="#fdf07c"/>
<path transform="matrix(1,0,0,-1,81.0977,80.539699)" stroke-width=".398" stroke-linecap="butt" stroke-miterlimit="10" stroke-linejoin="miter" fill="none" stroke="#4d6670" d="M0 0C0 3.131-2.538 5.669-5.669 5.669-8.8 5.669-11.339 3.131-11.339 0-11.339-3.131-8.8-5.669-5.669-5.669-2.538-5.669 0-3.131 0 0Z"/>
<path transform="matrix(1,0,0,-1,251.1786,79.1223)" d="M0 0C0 3.131-2.538 5.669-5.669 5.669-8.8 5.669-11.339 3.131-11.339 0-11.339-3.131-8.8-5.669-5.669-5.669-2.538-5.669 0-3.131 0 0Z" fill="#fdf07c"/>
<path transform="matrix(1,0,0,-1,251.1786,79.1223)" stroke-width=".398" stroke-linecap="butt" stroke-miterlimit="10" stroke-linejoin="miter" fill="none" stroke="#4d6670" d="M0 0C0 3.131-2.538 5.669-5.669 5.669-8.8 5.669-11.339 3.131-11.339 0-11.339-3.131-8.8-5.669-5.669-5.669-2.538-5.669 0-3.131 0 0Z"/>
<path transform="matrix(1,0,0,-1,449.6062,80.539699)" d="M0 0C0 3.131-2.538 5.669-5.669 5.669-8.8 5.669-11.339 3.131-11.339 0-11.339-3.131-8.8-5.669-5.669-5.669-2.538-5.669 0-3.131 0 0Z" fill="#fdf07c"/>
<path transform="matrix(1,0,0,-1,449.6062,80.539699)" stroke-width=".398" stroke-linecap="butt" stroke-miterlimit="10" stroke-linejoin="miter" fill="none" stroke="#4d6670" d="M0 0C0 3.131-2.538 5.669-5.669 5.669-8.8 5.669-11.339 3.131-11.339 0-11.339-3.131-8.8-5.669-5.669-5.669-2.538-5.669 0-3.131 0 0Z"/>
<path transform="matrix(1,0,0,-1,120.7831,148.5719)" d="M0 0C0 3.131-2.538 5.669-5.669 5.669-8.8 5.669-11.339 3.131-11.339 0-11.339-3.131-8.8-5.669-5.669-5.669-2.538-5.669 0-3.131 0 0Z" fill="#8e6698"/>
<path transform="matrix(1,0,0,-1,120.7831,148.5719)" stroke-width=".398" stroke-linecap="butt" stroke-miterlimit="10" stroke-linejoin="miter" fill="none" stroke="#4d6670" d="M0 0C0 3.131-2.538 5.669-5.669 5.669-8.8 5.669-11.339 3.131-11.339 0-11.339-3.131-8.8-5.669-5.669-5.669-2.538-5.669 0-3.131 0 0Z"/>
<path transform="matrix(1,0,0,-1,288.0291,147.1545)" d="M0 0C0 3.131-2.538 5.669-5.669 5.669-8.8 5.669-11.339 3.131-11.339 0-11.339-3.131-8.8-5.669-5.669-5.669-2.538-5.669 0-3.131 0 0Z" fill="#8e6698"/>
<path transform="matrix(1,0,0,-1,288.0291,147.1545)" stroke-width=".398" stroke-linecap="butt" stroke-miterlimit="10" stroke-linejoin="miter" fill="none" stroke="#4d6670" d="M0 0C0 3.131-2.538 5.669-5.669 5.669-8.8 5.669-11.339 3.131-11.339 0-11.339-3.131-8.8-5.669-5.669-5.669-2.538-5.669 0-3.131 0 0Z"/>
<path transform="matrix(1,0,0,-1,482.2049,166.99759)" d="M0 0C0 3.131-2.538 5.669-5.669 5.669-8.8 5.669-11.339 3.131-11.339 0-11.339-3.131-8.8-5.669-5.669-5.669-2.538-5.669 0-3.131 0 0Z" fill="#8e6698"/>
<path transform="matrix(1,0,0,-1,482.2049,166.99759)" stroke-width=".398" stroke-linecap="butt" stroke-miterlimit="10" stroke-linejoin="miter" fill="none" stroke="#4d6670" d="M0 0C0 3.131-2.538 5.669-5.669 5.669-8.8 5.669-11.339 3.131-11.339 0-11.339-3.131-8.8-5.669-5.669-5.669-2.538-5.669 0-3.131 0 0Z"/>
<path transform="matrix(1,0,0,-1,60.9038,110.5937)" d="M0 0C0 3.131-2.538 5.669-5.669 5.669-8.8 5.669-11.339 3.131-11.339 0-11.339-3.131-8.8-5.669-5.669-5.669-2.538-5.669 0-3.131 0 0Z" fill="#80aabb"/>
<path transform="matrix(1,0,0,-1,60.9038,110.5937)" stroke-width=".398" stroke-linecap="butt" stroke-miterlimit="10" stroke-linejoin="miter" fill="none" stroke="#4d6670" d="M0 0C0 3.131-2.538 5.669-5.669 5.669-8.8 5.669-11.339 3.131-11.339 0-11.339-3.131-8.8-5.669-5.669-5.669-2.538-5.669 0-3.131 0 0Z"/>
<path transform="matrix(1,0,0,-1,228.1498,119.0979)" d="M0 0C0 3.131-2.538 5.669-5.669 5.669-8.8 5.669-11.339 3.131-11.339 0-11.339-3.131-8.8-5.669-5.669-5.669-2.538-5.669 0-3.131 0 0Z" fill="#80aabb"/>
<path transform="matrix(1,0,0,-1,228.1498,119.0979)" stroke-width=".398" stroke-linecap="butt" stroke-miterlimit="10" stroke-linejoin="miter" fill="none" stroke="#4d6670" d="M0 0C0 3.131-2.538 5.669-5.669 5.669-8.8 5.669-11.339 3.131-11.339 0-11.339-3.131-8.8-5.669-5.669-5.669-2.538-5.669 0-3.131 0 0Z"/>
<path transform="matrix(1,0,0,-1,433.6642,134.68869)" d="M0 0C0 3.131-2.538 5.669-5.669 5.669-8.8 5.669-11.339 3.131-11.339 0-11.339-3.131-8.8-5.669-5.669-5.669-2.538-5.669 0-3.131 0 0Z" fill="#80aabb"/>
<path transform="matrix(1,0,0,-1,433.6642,134.68869)" stroke-width=".398" stroke-linecap="butt" stroke-miterlimit="10" stroke-linejoin="miter" fill="none" stroke="#4d6670" d="M0 0C0 3.131-2.538 5.669-5.669 5.669-8.8 5.669-11.339 3.131-11.339 0-11.339-3.131-8.8-5.669-5.669-5.669-2.538-5.669 0-3.131 0 0Z"/>
<path transform="matrix(1,0,0,-1,103.424,48.230897)" d="M0 0C0 3.131-2.538 5.669-5.669 5.669-8.8 5.669-11.339 3.131-11.339 0-11.339-3.131-8.8-5.669-5.669-5.669-2.538-5.669 0-3.131 0 0Z" fill="#fdf07c"/>
<path transform="matrix(1,0,0,-1,103.424,48.230897)" stroke-width=".398" stroke-linecap="butt" stroke-miterlimit="10" stroke-linejoin="miter" fill="none" stroke="#4d6670" d="M0 0C0 3.131-2.538 5.669-5.669 5.669-8.8 5.669-11.339 3.131-11.339 0-11.339-3.131-8.8-5.669-5.669-5.669-2.538-5.669 0-3.131 0 0Z"/>
<path transform="matrix(1,0,0,-1,273.50489,46.813398)" d="M0 0C0 3.131-2.538 5.669-5.669 5.669-8.8 5.669-11.339 3.131-11.339 0-11.339-3.131-8.8-5.669-5.669-5.669-2.538-5.669 0-3.131 0 0Z" fill="#fdf07c"/>
<path transform="matrix(1,0,0,-1,273.50489,46.813398)" stroke-width=".398" stroke-linecap="butt" stroke-miterlimit="10" stroke-linejoin="miter" fill="none" stroke="#4d6670" d="M0 0C0 3.131-2.538 5.669-5.669 5.669-8.8 5.669-11.339 3.131-11.339 0-11.339-3.131-8.8-5.669-5.669-5.669-2.538-5.669 0-3.131 0 0Z"/>
<path transform="matrix(1,0,0,-1,471.9325,48.230897)" d="M0 0C0 3.131-2.538 5.669-5.669 5.669-8.8 5.669-11.339 3.131-11.339 0-11.339-3.131-8.8-5.669-5.669-5.669-2.538-5.669 0-3.131 0 0Z" fill="#fdf07c"/>
<path transform="matrix(1,0,0,-1,471.9325,48.230897)" stroke-width=".398" stroke-linecap="butt" stroke-miterlimit="10" stroke-linejoin="miter" fill="none" stroke="#4d6670" d="M0 0C0 3.131-2.538 5.669-5.669 5.669-8.8 5.669-11.339 3.131-11.339 0-11.339-3.131-8.8-5.669-5.669-5.669-2.538-5.669 0-3.131 0 0Z"/>
<path transform="matrix(1,0,0,-1,143.1094,116.263)" d="M0 0C0 3.131-2.538 5.669-5.669 5.669-8.8 5.669-11.339 3.131-11.339 0-11.339-3.131-8.8-5.669-5.669-5.669-2.538-5.669 0-3.131 0 0Z" fill="#8e6698"/>
<path transform="matrix(1,0,0,-1,143.1094,116.263)" stroke-width=".398" stroke-linecap="butt" stroke-miterlimit="10" stroke-linejoin="miter" fill="none" stroke="#4d6670" d="M0 0C0 3.131-2.538 5.669-5.669 5.669-8.8 5.669-11.339 3.131-11.339 0-11.339-3.131-8.8-5.669-5.669-5.669-2.538-5.669 0-3.131 0 0Z"/>
<path transform="matrix(1,0,0,-1,310.3554,114.8456)" d="M0 0C0 3.131-2.538 5.669-5.669 5.669-8.8 5.669-11.339 3.131-11.339 0-11.339-3.131-8.8-5.669-5.669-5.669-2.538-5.669 0-3.131 0 0Z" fill="#8e6698"/>
<path transform="matrix(1,0,0,-1,310.3554,114.8456)" stroke-width=".398" stroke-linecap="butt" stroke-miterlimit="10" stroke-linejoin="miter" fill="none" stroke="#4d6670" d="M0 0C0 3.131-2.538 5.669-5.669 5.669-8.8 5.669-11.339 3.131-11.339 0-11.339-3.131-8.8-5.669-5.669-5.669-2.538-5.669 0-3.131 0 0Z"/>
<path transform="matrix(1,0,0,-1,504.5312,134.68869)" d="M0 0C0 3.131-2.538 5.669-5.669 5.669-8.8 5.669-11.339 3.131-11.339 0-11.339-3.131-8.8-5.669-5.669-5.669-2.538-5.669 0-3.131 0 0Z" fill="#8e6698"/>
<path transform="matrix(1,0,0,-1,504.5312,134.68869)" stroke-width=".398" stroke-linecap="butt" stroke-miterlimit="10" stroke-linejoin="miter" fill="none" stroke="#4d6670" d="M0 0C0 3.131-2.538 5.669-5.669 5.669-8.8 5.669-11.339 3.131-11.339 0-11.339-3.131-8.8-5.669-5.669-5.669-2.538-5.669 0-3.131 0 0Z"/>
<path transform="matrix(1,0,0,-1,55.122903,127.42639)" d="M0 0C0 3.131-2.538 5.669-5.669 5.669-8.8 5.669-11.339 3.131-11.339 0-11.339-3.131-8.8-5.669-5.669-5.669-2.538-5.669 0-3.131 0 0Z" fill="#80aabb"/>
<path transform="matrix(1,0,0,-1,55.122903,127.42639)" stroke-width=".398" stroke-linecap="butt" stroke-miterlimit="10" stroke-linejoin="miter" fill="none" stroke="#4d6670" d="M0 0C0 3.131-2.538 5.669-5.669 5.669-8.8 5.669-11.339 3.131-11.339 0-11.339-3.131-8.8-5.669-5.669-5.669-2.538-5.669 0-3.131 0 0Z"/>
<path transform="matrix(1,0,0,-1,222.3689,135.9305)" d="M0 0C0 3.131-2.538 5.669-5.669 5.669-8.8 5.669-11.339 3.131-11.339 0-11.339-3.131-8.8-5.669-5.669-5.669-2.538-5.669 0-3.131 0 0Z" fill="#80aabb"/>
<path transform="matrix(1,0,0,-1,222.3689,135.9305)" stroke-width=".398" stroke-linecap="butt" stroke-miterlimit="10" stroke-linejoin="miter" fill="none" stroke="#4d6670" d="M0 0C0 3.131-2.538 5.669-5.669 5.669-8.8 5.669-11.339 3.131-11.339 0-11.339-3.131-8.8-5.669-5.669-5.669-2.538-5.669 0-3.131 0 0Z"/>
<path transform="matrix(1,0,0,-1,427.8833,151.5214)" d="M0 0C0 3.131-2.538 5.669-5.669 5.669-8.8 5.669-11.339 3.131-11.339 0-11.339-3.131-8.8-5.669-5.669-5.669-2.538-5.669 0-3.131 0 0Z" fill="#80aabb"/>
<path transform="matrix(1,0,0,-1,427.8833,151.5214)" stroke-width=".398" stroke-linecap="butt" stroke-miterlimit="10" stroke-linejoin="miter" fill="none" stroke="#4d6670" d="M0 0C0 3.131-2.538 5.669-5.669 5.669-8.8 5.669-11.339 3.131-11.339 0-11.339-3.131-8.8-5.669-5.669-5.669-2.538-5.669 0-3.131 0 0Z"/>
<path transform="matrix(1,0,0,-1,97.6432,65.0635)" d="M0 0C0 3.131-2.538 5.669-5.669 5.669-8.8 5.669-11.339 3.131-11.339 0-11.339-3.131-8.8-5.669-5.669-5.669-2.538-5.669 0-3.131 0 0Z" fill="#fdf07c"/>
<path transform="matrix(1,0,0,-1,97.6432,65.0635)" stroke-width=".398" stroke-linecap="butt" stroke-miterlimit="10" stroke-linejoin="miter" fill="none" stroke="#4d6670" d="M0 0C0 3.131-2.538 5.669-5.669 5.669-8.8 5.669-11.339 3.131-11.339 0-11.339-3.131-8.8-5.669-5.669-5.669-2.538-5.669 0-3.131 0 0Z"/>
<path transform="matrix(1,0,0,-1,267.724,63.646097)" d="M0 0C0 3.131-2.538 5.669-5.669 5.669-8.8 5.669-11.339 3.131-11.339 0-11.339-3.131-8.8-5.669-5.669-5.669-2.538-5.669 0-3.131 0 0Z" fill="#fdf07c"/>
<path transform="matrix(1,0,0,-1,267.724,63.646097)" stroke-width=".398" stroke-linecap="butt" stroke-miterlimit="10" stroke-linejoin="miter" fill="none" stroke="#4d6670" d="M0 0C0 3.131-2.538 5.669-5.669 5.669-8.8 5.669-11.339 3.131-11.339 0-11.339-3.131-8.8-5.669-5.669-5.669-2.538-5.669 0-3.131 0 0Z"/>
<path transform="matrix(1,0,0,-1,466.1517,65.0635)" d="M0 0C0 3.131-2.538 5.669-5.669 5.669-8.8 5.669-11.339 3.131-11.339 0-11.339-3.131-8.8-5.669-5.669-5.669-2.538-5.669 0-3.131 0 0Z" fill="#fdf07c"/>
<path transform="matrix(1,0,0,-1,466.1517,65.0635)" stroke-width=".398" stroke-linecap="butt" stroke-miterlimit="10" stroke-linejoin="miter" fill="none" stroke="#4d6670" d="M0 0C0 3.131-2.538 5.669-5.669 5.669-8.8 5.669-11.339 3.131-11.339 0-11.339-3.131-8.8-5.669-5.669-5.669-2.538-5.669 0-3.131 0 0Z"/>
<path transform="matrix(1,0,0,-1,137.32849,133.0957)" d="M0 0C0 3.131-2.538 5.669-5.669 5.669-8.8 5.669-11.339 3.131-11.339 0-11.339-3.131-8.8-5.669-5.669-5.669-2.538-5.669 0-3.131 0 0Z" fill="#8e6698"/>
<path transform="matrix(1,0,0,-1,137.32849,133.0957)" stroke-width=".398" stroke-linecap="butt" stroke-miterlimit="10" stroke-linejoin="miter" fill="none" stroke="#4d6670" d="M0 0C0 3.131-2.538 5.669-5.669 5.669-8.8 5.669-11.339 3.131-11.339 0-11.339-3.131-8.8-5.669-5.669-5.669-2.538-5.669 0-3.131 0 0Z"/>
<path transform="matrix(1,0,0,-1,304.5745,131.67819)" d="M0 0C0 3.131-2.538 5.669-5.669 5.669-8.8 5.669-11.339 3.131-11.339 0-11.339-3.131-8.8-5.669-5.669-5.669-2.538-5.669 0-3.131 0 0Z" fill="#8e6698"/>
<path transform="matrix(1,0,0,-1,304.5745,131.67819)" stroke-width=".398" stroke-linecap="butt" stroke-miterlimit="10" stroke-linejoin="miter" fill="none" stroke="#4d6670" d="M0 0C0 3.131-2.538 5.669-5.669 5.669-8.8 5.669-11.339 3.131-11.339 0-11.339-3.131-8.8-5.669-5.669-5.669-2.538-5.669 0-3.131 0 0Z"/>
<path transform="matrix(1,0,0,-1,498.7503,151.5214)" d="M0 0C0 3.131-2.538 5.669-5.669 5.669-8.8 5.669-11.339 3.131-11.339 0-11.339-3.131-8.8-5.669-5.669-5.669-2.538-5.669 0-3.131 0 0Z" fill="#8e6698"/>
<path transform="matrix(1,0,0,-1,498.7503,151.5214)" stroke-width=".398" stroke-linecap="butt" stroke-miterlimit="10" stroke-linejoin="miter" fill="none" stroke="#4d6670" d="M0 0C0 3.131-2.538 5.669-5.669 5.669-8.8 5.669-11.339 3.131-11.339 0-11.339-3.131-8.8-5.669-5.669-5.669-2.538-5.669 0-3.131 0 0Z"/>
<path transform="matrix(1,0,0,-1,58.5915,140.3761)" d="M0 0C0 3.131-2.538 5.669-5.669 5.669-8.8 5.669-11.339 3.131-11.339 0-11.339-3.131-8.8-5.669-5.669-5.669-2.538-5.669 0-3.131 0 0Z" fill="#80aabb"/>
<path transform="matrix(1,0,0,-1,58.5915,140.3761)" stroke-width=".398" stroke-linecap="butt" stroke-miterlimit="10" stroke-linejoin="miter" fill="none" stroke="#4d6670" d="M0 0C0 3.131-2.538 5.669-5.669 5.669-8.8 5.669-11.339 3.131-11.339 0-11.339-3.131-8.8-5.669-5.669-5.669-2.538-5.669 0-3.131 0 0Z"/>
<path transform="matrix(1,0,0,-1,225.8375,148.8803)" d="M0 0C0 3.131-2.538 5.669-5.669 5.669-8.8 5.669-11.339 3.131-11.339 0-11.339-3.131-8.8-5.669-5.669-5.669-2.538-5.669 0-3.131 0 0Z" fill="#80aabb"/>
<path transform="matrix(1,0,0,-1,225.8375,148.8803)" stroke-width=".398" stroke-linecap="butt" stroke-miterlimit="10" stroke-linejoin="miter" fill="none" stroke="#4d6670" d="M0 0C0 3.131-2.538 5.669-5.669 5.669-8.8 5.669-11.339 3.131-11.339 0-11.339-3.131-8.8-5.669-5.669-5.669-2.538-5.669 0-3.131 0 0Z"/>
<path transform="matrix(1,0,0,-1,431.3518,164.4711)" d="M0 0C0 3.131-2.538 5.669-5.669 5.669-8.8 5.669-11.339 3.131-11.339 0-11.339-3.131-8.8-5.669-5.669-5.669-2.538-5.669 0-3.131 0 0Z" fill="#80aabb"/>
<path transform="matrix(1,0,0,-1,431.3518,164.4711)" stroke-width=".398" stroke-linecap="butt" stroke-miterlimit="10" stroke-linejoin="miter" fill="none" stroke="#4d6670" d="M0 0C0 3.131-2.538 5.669-5.669 5.669-8.8 5.669-11.339 3.131-11.339 0-11.339-3.131-8.8-5.669-5.669-5.669-2.538-5.669 0-3.131 0 0Z"/>
<path transform="matrix(1,0,0,-1,101.1117,78.0133)" d="M0 0C0 3.131-2.538 5.669-5.669 5.669-8.8 5.669-11.339 3.131-11.339 0-11.339-3.131-8.8-5.669-5.669-5.669-2.538-5.669 0-3.131 0 0Z" fill="#fdf07c"/>
<path transform="matrix(1,0,0,-1,101.1117,78.0133)" stroke-width=".398" stroke-linecap="butt" stroke-miterlimit="10" stroke-linejoin="miter" fill="none" stroke="#4d6670" d="M0 0C0 3.131-2.538 5.669-5.669 5.669-8.8 5.669-11.339 3.131-11.339 0-11.339-3.131-8.8-5.669-5.669-5.669-2.538-5.669 0-3.131 0 0Z"/>
<path transform="matrix(1,0,0,-1,271.1925,76.595798)" d="M0 0C0 3.131-2.538 5.669-5.669 5.669-8.8 5.669-11.339 3.131-11.339 0-11.339-3.131-8.8-5.669-5.669-5.669-2.538-5.669 0-3.131 0 0Z" fill="#fdf07c"/>
<path transform="matrix(1,0,0,-1,271.1925,76.595798)" stroke-width=".398" stroke-linecap="butt" stroke-miterlimit="10" stroke-linejoin="miter" fill="none" stroke="#4d6670" d="M0 0C0 3.131-2.538 5.669-5.669 5.669-8.8 5.669-11.339 3.131-11.339 0-11.339-3.131-8.8-5.669-5.669-5.669-2.538-5.669 0-3.131 0 0Z"/>
<path transform="matrix(1,0,0,-1,469.6202,78.0133)" d="M0 0C0 3.131-2.538 5.669-5.669 5.669-8.8 5.669-11.339 3.131-11.339 0-11.339-3.131-8.8-5.669-5.669-5.669-2.538-5.669 0-3.131 0 0Z" fill="#fdf07c"/>
<path transform="matrix(1,0,0,-1,469.6202,78.0133)" stroke-width=".398" stroke-linecap="butt" stroke-miterlimit="10" stroke-linejoin="miter" fill="none" stroke="#4d6670" d="M0 0C0 3.131-2.538 5.669-5.669 5.669-8.8 5.669-11.339 3.131-11.339 0-11.339-3.131-8.8-5.669-5.669-5.669-2.538-5.669 0-3.131 0 0Z"/>
<path transform="matrix(1,0,0,-1,140.797,146.0454)" d="M0 0C0 3.131-2.538 5.669-5.669 5.669-8.8 5.669-11.339 3.131-11.339 0-11.339-3.131-8.8-5.669-5.669-5.669-2.538-5.669 0-3.131 0 0Z" fill="#8e6698"/>
<path transform="matrix(1,0,0,-1,140.797,146.0454)" stroke-width=".398" stroke-linecap="butt" stroke-miterlimit="10" stroke-linejoin="miter" fill="none" stroke="#4d6670" d="M0 0C0 3.131-2.538 5.669-5.669 5.669-8.8 5.669-11.339 3.131-11.339 0-11.339-3.131-8.8-5.669-5.669-5.669-2.538-5.669 0-3.131 0 0Z"/>
<path transform="matrix(1,0,0,-1,308.043,144.62799)" d="M0 0C0 3.131-2.538 5.669-5.669 5.669-8.8 5.669-11.339 3.131-11.339 0-11.339-3.131-8.8-5.669-5.669-5.669-2.538-5.669 0-3.131 0 0Z" fill="#8e6698"/>
<path transform="matrix(1,0,0,-1,308.043,144.62799)" stroke-width=".398" stroke-linecap="butt" stroke-miterlimit="10" stroke-linejoin="miter" fill="none" stroke="#4d6670" d="M0 0C0 3.131-2.538 5.669-5.669 5.669-8.8 5.669-11.339 3.131-11.339 0-11.339-3.131-8.8-5.669-5.669-5.669-2.538-5.669 0-3.131 0 0Z"/>
<path transform="matrix(1,0,0,-1,502.2189,164.4711)" d="M0 0C0 3.131-2.538 5.669-5.669 5.669-8.8 5.669-11.339 3.131-11.339 0-11.339-3.131-8.8-5.669-5.669-5.669-2.538-5.669 0-3.131 0 0Z" fill="#8e6698"/>
<path transform="matrix(1,0,0,-1,502.2189,164.4711)" stroke-width=".398" stroke-linecap="butt" stroke-miterlimit="10" stroke-linejoin="miter" fill="none" stroke="#4d6670" d="M0 0C0 3.131-2.538 5.669-5.669 5.669-8.8 5.669-11.339 3.131-11.339 0-11.339-3.131-8.8-5.669-5.669-5.669-2.538-5.669 0-3.131 0 0Z"/>
<path transform="matrix(1,0,0,-1,80.132709,109.4947)" d="M0 0C0 3.131-2.538 5.669-5.669 5.669-8.8 5.669-11.339 3.131-11.339 0-11.339-3.131-8.8-5.669-5.669-5.669-2.538-5.669 0-3.131 0 0Z" fill="#80aabb"/>
<path transform="matrix(1,0,0,-1,80.132709,109.4947)" stroke-width=".398" stroke-linecap="butt" stroke-miterlimit="10" stroke-linejoin="miter" fill="none" stroke="#4d6670" d="M0 0C0 3.131-2.538 5.669-5.669 5.669-8.8 5.669-11.339 3.131-11.339 0-11.339-3.131-8.8-5.669-5.669-5.669-2.538-5.669 0-3.131 0 0Z"/>
<path transform="matrix(1,0,0,-1,247.3787,117.998798)" d="M0 0C0 3.131-2.538 5.669-5.669 5.669-8.8 5.669-11.339 3.131-11.339 0-11.339-3.131-8.8-5.669-5.669-5.669-2.538-5.669 0-3.131 0 0Z" fill="#80aabb"/>
<path transform="matrix(1,0,0,-1,247.3787,117.998798)" stroke-width=".398" stroke-linecap="butt" stroke-miterlimit="10" stroke-linejoin="miter" fill="none" stroke="#4d6670" d="M0 0C0 3.131-2.538 5.669-5.669 5.669-8.8 5.669-11.339 3.131-11.339 0-11.339-3.131-8.8-5.669-5.669-5.669-2.538-5.669 0-3.131 0 0Z"/>
<path transform="matrix(1,0,0,-1,452.8931,133.5896)" d="M0 0C0 3.131-2.538 5.669-5.669 5.669-8.8 5.669-11.339 3.131-11.339 0-11.339-3.131-8.8-5.669-5.669-5.669-2.538-5.669 0-3.131 0 0Z" fill="#80aabb"/>
<path transform="matrix(1,0,0,-1,452.8931,133.5896)" stroke-width=".398" stroke-linecap="butt" stroke-miterlimit="10" stroke-linejoin="miter" fill="none" stroke="#4d6670" d="M0 0C0 3.131-2.538 5.669-5.669 5.669-8.8 5.669-11.339 3.131-11.339 0-11.339-3.131-8.8-5.669-5.669-5.669-2.538-5.669 0-3.131 0 0Z"/>
<path transform="matrix(1,0,0,-1,122.6529,47.131799)" d="M0 0C0 3.131-2.538 5.669-5.669 5.669-8.8 5.669-11.339 3.131-11.339 0-11.339-3.131-8.8-5.669-5.669-5.669-2.538-5.669 0-3.131 0 0Z" fill="#fdf07c"/>
<path transform="matrix(1,0,0,-1,122.6529,47.131799)" stroke-width=".398" stroke-linecap="butt" stroke-miterlimit="10" stroke-linejoin="miter" fill="none" stroke="#4d6670" d="M0 0C0 3.131-2.538 5.669-5.669 5.669-8.8 5.669-11.339 3.131-11.339 0-11.339-3.131-8.8-5.669-5.669-5.669-2.538-5.669 0-3.131 0 0Z"/>
<path transform="matrix(1,0,0,-1,292.7338,45.714399)" d="M0 0C0 3.131-2.538 5.669-5.669 5.669-8.8 5.669-11.339 3.131-11.339 0-11.339-3.131-8.8-5.669-5.669-5.669-2.538-5.669 0-3.131 0 0Z" fill="#fdf07c"/>
<path transform="matrix(1,0,0,-1,292.7338,45.714399)" stroke-width=".398" stroke-linecap="butt" stroke-miterlimit="10" stroke-linejoin="miter" fill="none" stroke="#4d6670" d="M0 0C0 3.131-2.538 5.669-5.669 5.669-8.8 5.669-11.339 3.131-11.339 0-11.339-3.131-8.8-5.669-5.669-5.669-2.538-5.669 0-3.131 0 0Z"/>
<path transform="matrix(1,0,0,-1,491.1615,47.131799)" d="M0 0C0 3.131-2.538 5.669-5.669 5.669-8.8 5.669-11.339 3.131-11.339 0-11.339-3.131-8.8-5.669-5.669-5.669-2.538-5.669 0-3.131 0 0Z" fill="#fdf07c"/>
<path transform="matrix(1,0,0,-1,491.1615,47.131799)" stroke-width=".398" stroke-linecap="butt" stroke-miterlimit="10" stroke-linejoin="miter" fill="none" stroke="#4d6670" d="M0 0C0 3.131-2.538 5.669-5.669 5.669-8.8 5.669-11.339 3.131-11.339 0-11.339-3.131-8.8-5.669-5.669-5.669-2.538-5.669 0-3.131 0 0Z"/>
<path transform="matrix(1,0,0,-1,162.3383,115.163898)" d="M0 0C0 3.131-2.538 5.669-5.669 5.669-8.8 5.669-11.339 3.131-11.339 0-11.339-3.131-8.8-5.669-5.669-5.669-2.538-5.669 0-3.131 0 0Z" fill="#8e6698"/>
<path transform="matrix(1,0,0,-1,162.3383,115.163898)" stroke-width=".398" stroke-linecap="butt" stroke-miterlimit="10" stroke-linejoin="miter" fill="none" stroke="#4d6670" d="M0 0C0 3.131-2.538 5.669-5.669 5.669-8.8 5.669-11.339 3.131-11.339 0-11.339-3.131-8.8-5.669-5.669-5.669-2.538-5.669 0-3.131 0 0Z"/>
<path transform="matrix(1,0,0,-1,329.5843,113.7465)" d="M0 0C0 3.131-2.538 5.669-5.669 5.669-8.8 5.669-11.339 3.131-11.339 0-11.339-3.131-8.8-5.669-5.669-5.669-2.538-5.669 0-3.131 0 0Z" fill="#8e6698"/>
<path transform="matrix(1,0,0,-1,329.5843,113.7465)" stroke-width=".398" stroke-linecap="butt" stroke-miterlimit="10" stroke-linejoin="miter" fill="none" stroke="#4d6670" d="M0 0C0 3.131-2.538 5.669-5.669 5.669-8.8 5.669-11.339 3.131-11.339 0-11.339-3.131-8.8-5.669-5.669-5.669-2.538-5.669 0-3.131 0 0Z"/>
<path transform="matrix(1,0,0,-1,523.76016,133.5896)" d="M0 0C0 3.131-2.538 5.669-5.669 5.669-8.8 5.669-11.339 3.131-11.339 0-11.339-3.131-8.8-5.669-5.669-5.669-2.538-5.669 0-3.131 0 0Z" fill="#8e6698"/>
<path transform="matrix(1,0,0,-1,523.76016,133.5896)" stroke-width=".398" stroke-linecap="butt" stroke-miterlimit="10" stroke-linejoin="miter" fill="none" stroke="#4d6670" d="M0 0C0 3.131-2.538 5.669-5.669 5.669-8.8 5.669-11.339 3.131-11.339 0-11.339-3.131-8.8-5.669-5.669-5.669-2.538-5.669 0-3.131 0 0Z"/>
<path transform="matrix(1,0,0,-1,78.6625,122.8445)" d="M0 0C0 3.131-2.538 5.669-5.669 5.669-8.8 5.669-11.339 3.131-11.339 0-11.339-3.131-8.8-5.669-5.669-5.669-2.538-5.669 0-3.131 0 0Z" fill="#80aabb"/>
<path transform="matrix(1,0,0,-1,78.6625,122.8445)" stroke-width=".398" stroke-linecap="butt" stroke-miterlimit="10" stroke-linejoin="miter" fill="none" stroke="#4d6670" d="M0 0C0 3.131-2.538 5.669-5.669 5.669-8.8 5.669-11.339 3.131-11.339 0-11.339-3.131-8.8-5.669-5.669-5.669-2.538-5.669 0-3.131 0 0Z"/>
<path transform="matrix(1,0,0,-1,245.9085,131.3487)" d="M0 0C0 3.131-2.538 5.669-5.669 5.669-8.8 5.669-11.339 3.131-11.339 0-11.339-3.131-8.8-5.669-5.669-5.669-2.538-5.669 0-3.131 0 0Z" fill="#80aabb"/>
<path transform="matrix(1,0,0,-1,245.9085,131.3487)" stroke-width=".398" stroke-linecap="butt" stroke-miterlimit="10" stroke-linejoin="miter" fill="none" stroke="#4d6670" d="M0 0C0 3.131-2.538 5.669-5.669 5.669-8.8 5.669-11.339 3.131-11.339 0-11.339-3.131-8.8-5.669-5.669-5.669-2.538-5.669 0-3.131 0 0Z"/>
<path transform="matrix(1,0,0,-1,451.4229,146.9395)" d="M0 0C0 3.131-2.538 5.669-5.669 5.669-8.8 5.669-11.339 3.131-11.339 0-11.339-3.131-8.8-5.669-5.669-5.669-2.538-5.669 0-3.131 0 0Z" fill="#80aabb"/>
<path transform="matrix(1,0,0,-1,451.4229,146.9395)" stroke-width=".398" stroke-linecap="butt" stroke-miterlimit="10" stroke-linejoin="miter" fill="none" stroke="#4d6670" d="M0 0C0 3.131-2.538 5.669-5.669 5.669-8.8 5.669-11.339 3.131-11.339 0-11.339-3.131-8.8-5.669-5.669-5.669-2.538-5.669 0-3.131 0 0Z"/>
<path transform="matrix(1,0,0,-1,121.1827,60.481698)" d="M0 0C0 3.131-2.538 5.669-5.669 5.669-8.8 5.669-11.339 3.131-11.339 0-11.339-3.131-8.8-5.669-5.669-5.669-2.538-5.669 0-3.131 0 0Z" fill="#fdf07c"/>
<path transform="matrix(1,0,0,-1,121.1827,60.481698)" stroke-width=".398" stroke-linecap="butt" stroke-miterlimit="10" stroke-linejoin="miter" fill="none" stroke="#4d6670" d="M0 0C0 3.131-2.538 5.669-5.669 5.669-8.8 5.669-11.339 3.131-11.339 0-11.339-3.131-8.8-5.669-5.669-5.669-2.538-5.669 0-3.131 0 0Z"/>
<path transform="matrix(1,0,0,-1,291.2636,59.064199)" d="M0 0C0 3.131-2.538 5.669-5.669 5.669-8.8 5.669-11.339 3.131-11.339 0-11.339-3.131-8.8-5.669-5.669-5.669-2.538-5.669 0-3.131 0 0Z" fill="#fdf07c"/>
<path transform="matrix(1,0,0,-1,291.2636,59.064199)" stroke-width=".398" stroke-linecap="butt" stroke-miterlimit="10" stroke-linejoin="miter" fill="none" stroke="#4d6670" d="M0 0C0 3.131-2.538 5.669-5.669 5.669-8.8 5.669-11.339 3.131-11.339 0-11.339-3.131-8.8-5.669-5.669-5.669-2.538-5.669 0-3.131 0 0Z"/>
<path transform="matrix(1,0,0,-1,489.6913,60.481698)" d="M0 0C0 3.131-2.538 5.669-5.669 5.669-8.8 5.669-11.339 3.131-11.339 0-11.339-3.131-8.8-5.669-5.669-5.669-2.538-5.669 0-3.131 0 0Z" fill="#fdf07c"/>
<path transform="matrix(1,0,0,-1,489.6913,60.481698)" stroke-width=".398" stroke-linecap="butt" stroke-miterlimit="10" stroke-linejoin="miter" fill="none" stroke="#4d6670" d="M0 0C0 3.131-2.538 5.669-5.669 5.669-8.8 5.669-11.339 3.131-11.339 0-11.339-3.131-8.8-5.669-5.669-5.669-2.538-5.669 0-3.131 0 0Z"/>
<path transform="matrix(1,0,0,-1,160.8681,128.5138)" d="M0 0C0 3.131-2.538 5.669-5.669 5.669-8.8 5.669-11.339 3.131-11.339 0-11.339-3.131-8.8-5.669-5.669-5.669-2.538-5.669 0-3.131 0 0Z" fill="#8e6698"/>
<path transform="matrix(1,0,0,-1,160.8681,128.5138)" stroke-width=".398" stroke-linecap="butt" stroke-miterlimit="10" stroke-linejoin="miter" fill="none" stroke="#4d6670" d="M0 0C0 3.131-2.538 5.669-5.669 5.669-8.8 5.669-11.339 3.131-11.339 0-11.339-3.131-8.8-5.669-5.669-5.669-2.538-5.669 0-3.131 0 0Z"/>
<path transform="matrix(1,0,0,-1,328.1141,127.0964)" d="M0 0C0 3.131-2.538 5.669-5.669 5.669-8.8 5.669-11.339 3.131-11.339 0-11.339-3.131-8.8-5.669-5.669-5.669-2.538-5.669 0-3.131 0 0Z" fill="#8e6698"/>
<path transform="matrix(1,0,0,-1,328.1141,127.0964)" stroke-width=".398" stroke-linecap="butt" stroke-miterlimit="10" stroke-linejoin="miter" fill="none" stroke="#4d6670" d="M0 0C0 3.131-2.538 5.669-5.669 5.669-8.8 5.669-11.339 3.131-11.339 0-11.339-3.131-8.8-5.669-5.669-5.669-2.538-5.669 0-3.131 0 0Z"/>
<path transform="matrix(1,0,0,-1,522.2899,146.9395)" d="M0 0C0 3.131-2.538 5.669-5.669 5.669-8.8 5.669-11.339 3.131-11.339 0-11.339-3.131-8.8-5.669-5.669-5.669-2.538-5.669 0-3.131 0 0Z" fill="#8e6698"/>
<path transform="matrix(1,0,0,-1,522.2899,146.9395)" stroke-width=".398" stroke-linecap="butt" stroke-miterlimit="10" stroke-linejoin="miter" fill="none" stroke="#4d6670" d="M0 0C0 3.131-2.538 5.669-5.669 5.669-8.8 5.669-11.339 3.131-11.339 0-11.339-3.131-8.8-5.669-5.669-5.669-2.538-5.669 0-3.131 0 0Z"/>
<path transform="matrix(1,0,0,-1,75.593708,141.6322)" d="M0 0C0 3.131-2.538 5.669-5.669 5.669-8.8 5.669-11.339 3.131-11.339 0-11.339-3.131-8.8-5.669-5.669-5.669-2.538-5.669 0-3.131 0 0Z" fill="#80aabb"/>
<path transform="matrix(1,0,0,-1,75.593708,141.6322)" stroke-width=".398" stroke-linecap="butt" stroke-miterlimit="10" stroke-linejoin="miter" fill="none" stroke="#4d6670" d="M0 0C0 3.131-2.538 5.669-5.669 5.669-8.8 5.669-11.339 3.131-11.339 0-11.339-3.131-8.8-5.669-5.669-5.669-2.538-5.669 0-3.131 0 0Z"/>
<path transform="matrix(1,0,0,-1,242.8397,150.1364)" d="M0 0C0 3.131-2.538 5.669-5.669 5.669-8.8 5.669-11.339 3.131-11.339 0-11.339-3.131-8.8-5.669-5.669-5.669-2.538-5.669 0-3.131 0 0Z" fill="#80aabb"/>
<path transform="matrix(1,0,0,-1,242.8397,150.1364)" stroke-width=".398" stroke-linecap="butt" stroke-miterlimit="10" stroke-linejoin="miter" fill="none" stroke="#4d6670" d="M0 0C0 3.131-2.538 5.669-5.669 5.669-8.8 5.669-11.339 3.131-11.339 0-11.339-3.131-8.8-5.669-5.669-5.669-2.538-5.669 0-3.131 0 0Z"/>
<path transform="matrix(1,0,0,-1,448.354,165.7272)" d="M0 0C0 3.131-2.538 5.669-5.669 5.669-8.8 5.669-11.339 3.131-11.339 0-11.339-3.131-8.8-5.669-5.669-5.669-2.538-5.669 0-3.131 0 0Z" fill="#80aabb"/>
<path transform="matrix(1,0,0,-1,448.354,165.7272)" stroke-width=".398" stroke-linecap="butt" stroke-miterlimit="10" stroke-linejoin="miter" fill="none" stroke="#4d6670" d="M0 0C0 3.131-2.538 5.669-5.669 5.669-8.8 5.669-11.339 3.131-11.339 0-11.339-3.131-8.8-5.669-5.669-5.669-2.538-5.669 0-3.131 0 0Z"/>
<path transform="matrix(1,0,0,-1,118.1139,79.269298)" d="M0 0C0 3.131-2.538 5.669-5.669 5.669-8.8 5.669-11.339 3.131-11.339 0-11.339-3.131-8.8-5.669-5.669-5.669-2.538-5.669 0-3.131 0 0Z" fill="#fdf07c"/>
<path transform="matrix(1,0,0,-1,118.1139,79.269298)" stroke-width=".398" stroke-linecap="butt" stroke-miterlimit="10" stroke-linejoin="miter" fill="none" stroke="#4d6670" d="M0 0C0 3.131-2.538 5.669-5.669 5.669-8.8 5.669-11.339 3.131-11.339 0-11.339-3.131-8.8-5.669-5.669-5.669-2.538-5.669 0-3.131 0 0Z"/>
<path transform="matrix(1,0,0,-1,288.1947,77.8519)" d="M0 0C0 3.131-2.538 5.669-5.669 5.669-8.8 5.669-11.339 3.131-11.339 0-11.339-3.131-8.8-5.669-5.669-5.669-2.538-5.669 0-3.131 0 0Z" fill="#fdf07c"/>
<path transform="matrix(1,0,0,-1,288.1947,77.8519)" stroke-width=".398" stroke-linecap="butt" stroke-miterlimit="10" stroke-linejoin="miter" fill="none" stroke="#4d6670" d="M0 0C0 3.131-2.538 5.669-5.669 5.669-8.8 5.669-11.339 3.131-11.339 0-11.339-3.131-8.8-5.669-5.669-5.669-2.538-5.669 0-3.131 0 0Z"/>
<path transform="matrix(1,0,0,-1,486.6224,79.269298)" d="M0 0C0 3.131-2.538 5.669-5.669 5.669-8.8 5.669-11.339 3.131-11.339 0-11.339-3.131-8.8-5.669-5.669-5.669-2.538-5.669 0-3.131 0 0Z" fill="#fdf07c"/>
<path transform="matrix(1,0,0,-1,486.6224,79.269298)" stroke-width=".398" stroke-linecap="butt" stroke-miterlimit="10" stroke-linejoin="miter" fill="none" stroke="#4d6670" d="M0 0C0 3.131-2.538 5.669-5.669 5.669-8.8 5.669-11.339 3.131-11.339 0-11.339-3.131-8.8-5.669-5.669-5.669-2.538-5.669 0-3.131 0 0Z"/>
<path transform="matrix(1,0,0,-1,157.7992,147.3015)" d="M0 0C0 3.131-2.538 5.669-5.669 5.669-8.8 5.669-11.339 3.131-11.339 0-11.339-3.131-8.8-5.669-5.669-5.669-2.538-5.669 0-3.131 0 0Z" fill="#8e6698"/>
<path transform="matrix(1,0,0,-1,157.7992,147.3015)" stroke-width=".398" stroke-linecap="butt" stroke-miterlimit="10" stroke-linejoin="miter" fill="none" stroke="#4d6670" d="M0 0C0 3.131-2.538 5.669-5.669 5.669-8.8 5.669-11.339 3.131-11.339 0-11.339-3.131-8.8-5.669-5.669-5.669-2.538-5.669 0-3.131 0 0Z"/>
<path transform="matrix(1,0,0,-1,325.0452,145.8841)" d="M0 0C0 3.131-2.538 5.669-5.669 5.669-8.8 5.669-11.339 3.131-11.339 0-11.339-3.131-8.8-5.669-5.669-5.669-2.538-5.669 0-3.131 0 0Z" fill="#8e6698"/>
<path transform="matrix(1,0,0,-1,325.0452,145.8841)" stroke-width=".398" stroke-linecap="butt" stroke-miterlimit="10" stroke-linejoin="miter" fill="none" stroke="#4d6670" d="M0 0C0 3.131-2.538 5.669-5.669 5.669-8.8 5.669-11.339 3.131-11.339 0-11.339-3.131-8.8-5.669-5.669-5.669-2.538-5.669 0-3.131 0 0Z"/>
<path transform="matrix(1,0,0,-1,519.221,165.7272)" d="M0 0C0 3.131-2.538 5.669-5.669 5.669-8.8 5.669-11.339 3.131-11.339 0-11.339-3.131-8.8-5.669-5.669-5.669-2.538-5.669 0-3.131 0 0Z" fill="#8e6698"/>
<path transform="matrix(1,0,0,-1,519.221,165.7272)" stroke-width=".398" stroke-linecap="butt" stroke-miterlimit="10" stroke-linejoin="miter" fill="none" stroke="#4d6670" d="M0 0C0 3.131-2.538 5.669-5.669 5.669-8.8 5.669-11.339 3.131-11.339 0-11.339-3.131-8.8-5.669-5.669-5.669-2.538-5.669 0-3.131 0 0Z"/>
</svg>
