<svg xmlns="http://www.w3.org/2000/svg" xmlns:xlink="http://www.w3.org/1999/xlink" version="1.1" width="572.512pt" height="171.475pt" viewBox="0 0 572.512 171.475">
<defs>
<path id="font_10_1" d="M.027999878 .025970459V.0009765625H.18199158V.025970459C.1559906 .02696228 .13398743 .04597473 .13398743 .070999149 .13398743 .088012699 .14299011 .105026248 .147995 .120025638 .15899658 .15005493 .16999817 .18107605 .18099976 .21109009 .18499756 .22209168 .18998719 .23310852 .19198609 .24511719H.44699098C.46699525 .24511719 .5089874 .09701538 .519989 .067993167 .5219879 .06298828 .5239868 .056991579 .5239868 .051986696 .5239868 .02796936 .4909973 .025970459 .47299195 .025970459H.46798707V.0009765625H.6649933V.025970459H.647995C.60198977 .025970459 .59298709 .04298401 .58200076 .07400513 .5139923 .2711029 .43899537 .4670868 .37098695 .66607668 .36499024 .68006899 .3619995 .7050781 .34599305 .7050781 .33198548 .7050781 .32598878 .67907717 .32299806 .6670685L.27799989 .5410919C.22999573 .4100952 .18399048 .27911378 .13798523 .14804077L.12298584 .10601807C.10699463 .06599426 .09098816 .025970459 .027999878 .025970459M.20199585 .27011109 .32499696 .6150818 .44799806 .27011109H.20199585Z"/>
<path id="font_10_23" d="M.01499939 .43066407V.4056549H.027999878C.07998657 .4056549 .084991458 .37069703 .10998535 .3067627 .147995 .21087647 .18399048 .11399841 .22499085 .019104004 .22799683 .010116577 .23098755-.005859375 .24398804-.005859375 .2599945-.0048675539 .27999879 .0640564 .2939911 .09901428 .32499696 .17591858 .35598756 .25283814 .38598634 .32974244 .3999939 .36669923 .42199708 .4056549 .47200013 .4056549V.43066407H.34199525V.4056549C.3619995 .4056549 .37799073 .38867188 .37799073 .36869813 .37799073 .35272218 .37098695 .33573915 .36499024 .32174684L.29699708 .1509552C.2849884 .12098694 .2709961 .090026859 .26098634 .059051515H.2599945C.2519989 .090026859 .23599243 .12098694 .22399903 .14994812 .20298767 .20489502 .18099976 .25881959 .15899658 .31376649L.14199829 .3577118C.13798523 .3657074 .13398743 .37469483 .13398743 .38368226 .13598633 .4046631 .16299439 .4056549 .1789856 .4056549V.43066407H.01499939Z"/>
<path id="font_10_6" d="M.09399414 .3393097C.11099243 .39035035 .15299988 .42736817 .20399475 .42736817 .2789917 .42736817 .30899049 .35331727 .30899049 .2902832V.25326539C.20899964 .25326539 .04699707 .22224427 .04699707 .09017944V.08216858C.054992677 .020126343 .12799073-.005859375 .18199158-.005859375 .23199463-.005859375 .29899598 .023132325 .31199647 .08016968H.31298829C.31298829 .039138795 .34199525-.0028686524 .3849945-.0028686524H.3919983C.42900086 .0021362305 .45298768 .037139894 .45700074 .07215881V.14620972H.44099427V.09617615C.44099427 .06416321 .43499757 .019134522 .39898683 .019134522 .36499024 .019134522 .35798646 .062164308 .35798646 .08917236V.28327943C.35798646 .30929566 .35699464 .33631898 .34498597 .36032105 .31999208 .4113617 .2639923 .4423828 .20799256 .4423828 .13899231 .4423828 .07398987 .38934327 .07398987 .30830384 .07398987 .2862854 .08999634 .27427674 .10899353 .27427674 .1269989 .27427674 .14199829 .28929139 .14199829 .30729676 .14199829 .3263092 .12799073 .34231568 .10899353 .34231568 .10398865 .34231568 .09899902 .3413086 .09399414 .3393097M.30899049 .23925781V.13920594C.30899049 .07316589 .2649994 .015136719 .19898987 .009140015H.19400025C.14698792 .009140015 .10398865 .045150758 .10398865 .093170169V.09617615C.11099243 .19622803 .20698548 .23326111 .30899049 .23925781Z"/>
<path id="font_10_13" d="M.04598999 .4271698V.40216065H.055999757C.08699036 .40216065 .10699463 .39715577 .10699463 .35113526V.06098938C.10699463 .029968262 .083999637 .025970459 .042999269 .025970459V.0009765625H.21299744V.025970459H.19599915C.17599488 .025970459 .15499878 .02897644 .15499878 .06098938V.4381714L.04598999 .4271698M.11199951 .6542969C.09399414 .6502838 .07998657 .63627627 .07998657 .6172638 .07998657 .5972595 .09700012 .5782471 .117996219 .5782471 .13899231 .5782471 .15699768 .5952606 .15699768 .616272 .15699768 .636261 .13999939 .65527346 .11898804 .65527346 .116989139 .6552887 .11399841 .6542969 .11199951 .6542969Z"/>
<path id="font_10_14" d="M.042999269 .6843109V.6592865H.055999757C.08999634 .6592865 .10699463 .64727786 .10699463 .6112671V.085998538C.10699463 .07899475 .10798645 .070999149 .10798645 .06298828 .10798645 .02796936 .083999637 .025970459 .055999757 .025970459H.042999269V.0009765625H.21899414V.025970459H.19898987C.17599488 .025970459 .15499878 .02897644 .15499878 .0619812V.6953125L.042999269 .6843109Z"/>
<path id="font_10_7" d="M.039993287 .68429568V.65930178H.053985597C.08999634 .65930178 .10398865 .6472931 .10398865 .61128237V.001159668L.11898804 .0031585694 .147995 .076171878C.17298889 .03517151 .21299744-.0068359377 .27799989-.0068359377 .3959961-.0068359377 .47399903 .108184818 .47399903 .21820069 .47399903 .32522584 .3999939 .43824769 .2869873 .43824769H.27799989C.23098755 .43525697 .17199707 .40524293 .15299988 .36323548L.1519928 .6953125 .039993287 .68429568M.41299439 .19319153C.40899659 .14718628 .40299989 .10017395 .37298585 .062164308 .34799195 .030166626 .31098939 .009155273 .2709961 .009155273 .22099304 .009155273 .15299988 .057174684 .15299988 .1151886V.27922059C.15299988 .29022218 .1519928 .30122376 .1519928 .31222535 .1519928 .37823487 .22999573 .4232483 .27999879 .4232483 .3939972 .4232483 .4139862 .2872162 .4139862 .21520996 .4139862 .20820618 .4139862 .20019531 .41299439 .19319153Z"/>
<path id="font_10_10" d="M.09399414 .23626709H.37298585C.3809967 .23626709 .38398744 .23925781 .38398744 .24726868 .38398744 .34532167 .33499146 .4423828 .22200012 .4423828 .102996829 .4423828 .033996583 .32731629 .033996583 .22026062 .033996583 .12019348 .09498596 .0011291504 .21998596-.005859375H.22999573C.2999878-.005859375 .35699464 .041152955 .3809967 .10820007 .38198854 .111190799 .38398744 .11520386 .38398744 .11920166 .38398744 .12319946 .3809967 .12620545 .3769989 .12620545 .3659973 .12620545 .3659973 .11419678 .36299134 .10618591 .34298707 .05316162 .29499818 .010147095 .23599243 .010147095H.22799683C.10998535 .030151368 .09399414 .1452179 .09399414 .23626709M.09498596 .25126649C.09498596 .32130433 .13198853 .42736817 .21699524 .42736817 .30599977 .42736817 .33198548 .32531739 .33198548 .25126649H.09498596Z"/>
<path id="font_10_2" d="M.06199646 .68359377V.65856936H.083999637C.11199951 .65856936 .13798523 .65457156 .13798523 .6175842 .13798523 .6095886 .13699341 .6026001 .13699341 .5956116V.06594849C.13699341 .028961182 .11199951 .025970459 .08198547 .025970459H.06199646V.0009765625H.29899598C.31799317 .0009918213 .33699037 0 .35699464 0 .5399933 0 .6549988 .16288758 .6549988 .33477784 .6549988 .5006714 .55599978 .6845703 .35699464 .6845703 .33699037 .6845856 .31799317 .68359377 .2979889 .68359377H.06199646M.58599856 .30081178C.57899478 .19487 .5419922 .07194519 .4189911 .035964967 .3869934 .025970459 .35398866 .025970459 .32099916 .025970459H.22999573C.21398926 .025970459 .20098877 .02796936 .19699097 .049957277V.5866394C.19699097 .5966339 .19599915 .6066284 .19599915 .6166229 .19599915 .65356448 .20899964 .65856936 .23399353 .65856936H.34999085C.5369873 .65856936 .58799746 .46868897 .58799746 .32977296 .58799746 .31977845 .58699038 .31079103 .58599856 .3007965V.30081178Z"/>
<path id="font_10_21" d="M.13699341 .6152344C.13699341 .53541567 .10899353 .4206543 .016998291 .4206543V.4056549H.10398865V.17892456C.10398865 .16493225 .102996829 .1509552 .102996829 .13597107 .102996829 .0660553 .12998963-.005859375 .21598816-.005859375 .29100038-.005859375 .30799867 .077041629 .30799867 .13796997V.18191529H.2919922C.2919922 .16693115 .29299928 .15194702 .29299928 .13597107 .29299928 .09202576 .2829895 .010116577 .22200012 .010116577 .1639862 .010116577 .15299988 .08003235 .15299988 .12797547V.4056549H.2919922V.43066407H.15299988V.6152344H.13699341Z"/>
<path id="font_11_7" d="M.042999269 .68359377V.6555939C.052993776 .6555939 .06399536 .6565857 .07499695 .6565857 .10699463 .6565857 .13598633 .65159609 .13598633 .61660769 .13598633 .60961917 .1349945 .60261538 .1349945 .59661868V.08892822C.1349945 .08293152 .13598633 .076934818 .13598633 .06994629 .13598633 .032958986 .10598755 .02796936 .07499695 .02796936 .06399536 .02796936 .052993776 .028961182 .042999269 .028961182V.0009765625H.2999878V.028961182C.2899933 .028961182 .2789917 .02796936 .2679901 .02796936 .23599243 .02796936 .20698548 .032958986 .20698548 .06794739 .20698548 .07493591 .20799256 .0819397 .20799256 .0879364V.59562686C.20799256 .60162356 .20698548 .60762026 .20698548 .61460879 .20698548 .65159609 .23699951 .6565857 .2679901 .6565857 .2789917 .6565857 .2899933 .6555939 .2999878 .6555939V.68359377H.042999269Z"/>
<path id="font_11_41" d="M.13999939 .6152344C.13999939 .55236819 .11898804 .4206543 .017990113 .4206543V.40264894H.102996829V.17695618C.102996829 .16297913 .101989749 .14900208 .101989749 .13500977 .101989749 .056121828 .13798523-.0078125 .22099304-.0078125 .30099488-.0078125 .31599427 .082092288 .31599427 .14399719V.1819458H.29599C.29599 .16697693 .29699708 .1519928 .29699708 .13700867 .29699708 .09307861 .28799439 .012176514 .22799683 .012176514 .16899109 .012176514 .1599884 .082092288 .1599884 .13002014V.40264894H.2999878V.43066407H.1599884V.6152344H.13999939Z"/>
<path id="font_11_23" d="M.100997928 .23524475H.38198854C.3919983 .23524475 .3959961 .23825073 .3959961 .24824524 .3959961 .3422699 .34899903 .4453125 .22898865 .4453125 .10899353 .4453125 .0309906 .3322754 .0309906 .22123719 .0309906 .114212039 .100997928-.0008239746 .22799683-.0078125H.23399353C.3039856-.0078125 .37298585 .03819275 .3929901 .10820007 .3939972 .111206058 .3959961 .11520386 .3959961 .11921692 .3959961 .12321472 .3909912 .1282196 .3869934 .1282196 .37298585 .1282196 .36799623 .096206668 .35899354 .08119202 .33599855 .04118347 .29100038 .012176514 .24398804 .012176514H.23799134C.20999146 .014175415 .18499756 .025177002 .16299439 .043182374 .10598755 .0901947 .100997928 .16722107 .100997928 .23524475M.101989749 .25224305C.101989749 .3282776 .14099121 .42630006 .22499085 .42630006 .31199647 .42630006 .33699037 .32626344 .33699037 .25224305H.101989749Z"/>
<path id="font_11_39" d="M.033996583 .42941285V.40138246H.04899597C.07699585 .40138246 .10398865 .39837647 .10398865 .35131837V.06300354C.10398865 .030975342 .07699585 .02897644 .04798889 .02897644H.033996583V.0009765625H.24598694V.02897644C.23599243 .02897644 .22499085 .02796936 .21499634 .02796936 .18598938 .02796936 .15899658 .032974245 .15899658 .070007327V.15110779C.15899658 .1721344 .1579895 .19314575 .1579895 .21417237 .1579895 .29426576 .1769867 .42140199 .27398683 .42140199 .27999879 .42140199 .2869873 .42140199 .29299928 .4203949V.41940309C.2789917 .4143982 .2689972 .40037538 .2689972 .38536073 .2689972 .36634828 .28399659 .34732057 .30699159 .34732057 .32899476 .34732057 .34298707 .3673401 .34298707 .38435365 .34298707 .4203949 .30799867 .4404297 .2749939 .4404297 .21199036 .4404297 .16899109 .38336183 .1559906 .32829286L.15499878 .4404297 .033996583 .42941285Z"/>
<path id="font_11_19" d="M.09899902 .35827638C.116989139 .399292 .1639862 .42730714 .20899964 .42730714 .2829895 .42730714 .31498719 .35627748 .31498719 .29125978V.25724793C.21099854 .25724793 .07899475 .23223877 .04699707 .12121582 .04499817 .112213138 .04399109 .10321045 .04399109 .09320068V.0861969C.049987794 .018173218 .1309967-.0078125 .18598938-.0078125 .24099732-.0078125 .2979889 .019180298 .31999208 .079193118H.32099916C.32099916 .03718567 .35099793-.0038146973 .394989-.0038146973 .43499757-.0038146973 .46598817 .031188965 .46998597 .07319641V.14620972H.44999696V.095199588C.44999696 .06619263 .44400025 .02218628 .41099549 .02218628 .37799073 .02218628 .37098695 .06518555 .37098695 .0921936 .37098695 .10321045 .37199403 .113204959 .37199403 .12321472V.29325868C.37199403 .3902893 .29599 .4453125 .21398926 .4453125 .1579895 .4453125 .101989749 .41729737 .07798767 .36128236 .07398987 .35028077 .069992069 .3362732 .069992069 .3232727 .069992069 .29826356 .08898926 .28025819 .11099243 .28025819 .13198853 .28025819 .1499939 .29826356 .1499939 .3192749 .1499939 .34127809 .13398743 .35928346 .10899353 .35928346 .10499573 .35928346 .101989749 .35928346 .09899902 .35827638M.31498719 .24024964V.1412201C.31498719 .07620239 .27198792 .012176514 .20199585 .010177612H.19799805C.1539917 .010177612 .10998535 .044189454 .10998535 .09420776 .10998535 .19822693 .22698975 .24024964 .31498719 .24024964Z"/>
<path id="font_11_27" d="M.041992189 .42926026V.40122987H.052993776C.083999637 .40122987 .10798645 .39622499 .10798645 .3511963V.06298828C.10798645 .030975342 .08099365 .02897644 .051986696 .02897644H.037994386V.0009765625H.22599793V.02897644H.20899964C.18598938 .02897644 .16299439 .031967164 .16299439 .06399536V.44026185L.041992189 .42926026M.11399841 .66015627C.08999634 .65615847 .07699585 .6361847 .07699585 .6161957 .07699585 .5962219 .09298706 .5722656 .11999512 .5722656 .14698792 .5722656 .1659851 .5932312 .1659851 .6161957 .1659851 .6381531 .147995 .6611328 .12298584 .6611328 .11999512 .6611481 .116989139 .66015627 .11399841 .66015627Z"/>
<path id="font_11_32" d="M.22399903 .4453125C.102996829 .42829896 .0309906 .3292694 .0309906 .2162323V.20323181C.037994386 .09220886 .11999512-.0078125 .23899842-.0078125H.25C.2749939-.0048217775 .2979889 .00018310547 .32099916 .011184692 .39898683 .048187257 .44400025 .1322174 .44400025 .21723938V.22523499C.43998719 .3352661 .35798646 .4453125 .23599243 .4453125H.22399903M.100997928 .19422913C.100997928 .20223999 .099990848 .21124268 .099990848 .22024536 .099990848 .29226686 .10899353 .37728883 .18699646 .41629029 .20298767 .42329408 .21998596 .42729188 .23699951 .42729188 .34399415 .42729188 .37399293 .31626893 .37399293 .22924805 .37399293 .1532135 .36799623 .04118347 .2649994 .015182495 .2559967 .013183594 .24798584 .012176514 .23899842 .012176514 .1619873 .012176514 .114990238 .080200199 .10499573 .15522766 .102996829 .16822815 .102996829 .18122864 .100997928 .19422913Z"/>
<path id="font_11_31" d="M.037994386 .42941285V.40138246H.052993776C.08099365 .40138246 .10798645 .39837647 .10798645 .35131837V.06300354C.10798645 .031967164 .08198547 .02897644 .056991579 .02897644H.037994386V.0009765625H.23498535V.02897644H.21798706C.18998719 .02897644 .16499329 .031967164 .16499329 .06401062V.2572174C.16499329 .32530213 .19799805 .42240907 .2939911 .42240907 .35198976 .42240907 .37098695 .37135316 .37098695 .3042755V.06600952C.37098695 .031967164 .34498597 .02897644 .31698609 .02897644H.30099488V.0009765625H.49798585V.02897644H.47499085C.45298768 .02897644 .43199159 .031967164 .42799378 .055999757V.29226686C.42799378 .32629396 .4269867 .36134339 .40899659 .3903656 .38598634 .42941285 .33999635 .4404297 .29699708 .4404297 .23599243 .4404297 .1749878 .39337159 .1619873 .3363037L.16099549 .4404297 .10798645 .4354248 .037994386 .42941285Z"/>
<path id="font_11_33" d="M.09098816 .59906008V.5710602C.13398743 .5710602 .1769867 .57806399 .21499634 .59906008V.07197571C.21499634 .033966066 .17799378 .02796936 .14099121 .02796936 .125 .02796936 .10899353 .02897644 .09599304 .02897644V.0009765625H.394989V.02897644C.37998963 .02897644 .3639984 .02796936 .34799195 .02796936 .30999757 .02796936 .27598573 .033966066 .27598573 .07096863V.64907839C.27598573 .654068 .2749939 .66308596 .2659912 .66308596 .2630005 .66308596 .2599945 .66207888 .2579956 .6610718L.24798584 .6510773C.20298767 .61206057 .147995 .59906008 .09098816 .59906008Z"/>
<path id="font_11_43" d="M.07598877 .51805117C.09599304 .57806399 .13699341 .6350708 .21299744 .6350708 .2979889 .6350708 .35198976 .5590668 .35198976 .47705079V.4640503C.33999635 .32902528 .22799683 .23300171 .14698792 .13798523 .11399841 .10298157 .04699707 .036972047 .04699707 .011962891V.0009765625H.40299989L.42799378 .16099549H.4079895C.3999939 .114974979 .4019928 .065963748 .36099244 .065963748 .33299256 .065963748 .30499269 .063964847 .2769928 .063964847H.10598755C.15899658 .11697388 .21199036 .17199707 .2669983 .22399903 .33599855 .28800965 .42799378 .36302186 .42799378 .4680481 .42799378 .5970764 .32998658 .66308596 .22099304 .66308596H.21099854C.12199402 .65408328 .04699707 .57507327 .04699707 .48205567 .04699707 .4570465 .055999757 .43104554 .09199524 .43104554 .116989139 .43104554 .13699341 .4490509 .13699341 .4740448 .13699341 .49705506 .11999512 .5200653 .09199524 .5200653 .08699036 .5200653 .08099365 .5190582 .07598877 .51805117Z"/>
<path id="font_11_42" d="M.09599304 .5691223C.12298584 .61709597 .17999268 .63908389 .23199463 .63908389 .28199769 .63908389 .33198548 .60710147 .33198548 .5231323 .33198548 .46116639 .30299378 .38520814 .24299622 .36721803 .22099304 .36021424 .1579895 .36421205 .1579895 .35021974 .1579895 .34222413 .1659851 .34022523 .17399597 .34022523H.18499756C.19699097 .34022523 .20999146 .3412323 .22200012 .3412323 .31599427 .3412323 .34899903 .25827027 .34999085 .18530274V.17730713C.34999085 .1023407 .32199098 .009384155 .22799683 .009384155 .16099549 .009384155 .10598755 .04537964 .07299805 .10134888 .07798767 .1003418 .08198547 .099349979 .08699036 .099349979 .11299133 .099349979 .1349945 .11933899 .1349945 .14631653 .1349945 .17631531 .11299133 .19430542 .07998657 .19430542 .049987794 .18830872 .039993287 .16531372 .039993287 .14231873 .039993287 .042373659 .14498902-.016601563 .23498535-.016601563 .33999635-.016601563 .43499757 .06536865 .43499757 .17330933 .43499757 .2632599 .36099244 .3412323 .2659912 .35221864 .34199525 .37521363 .40899659 .43917848 .40899659 .5241394 .40899659 .60009768 .33599855 .66308596 .23799134 .66308596 .1639862 .66308596 .06599426 .62309268 .06599426 .5301361 .06599426 .5101471 .07598877 .48416139 .10798645 .48416139 .1329956 .48416139 .15299988 .5011444 .15299988 .5271301 .15299988 .552124 .13398743 .5711212 .10899353 .5711212 .10398865 .5711212 .099990848 .57011416 .09599304 .5691223Z"/>
<path id="font_12_11" d="M.040985109 .68359377V.6545868H.07398987C.10699463 .6545868 .13699341 .650589 .13699341 .61361697 .13699341 .60661318 .13598633 .60061648 .13598633 .59461978V.07394409C.13598633 .033966066 .10499573 .029968262 .07199097 .029968262H.040985109V.0009765625H.5439911L.56999209 .25683595H.5479889C.5379944 .16789246 .5299988 .06794739 .4139862 .036972047 .3849945 .029968262 .35598756 .029968262 .32598878 .029968262H.25299073C.23199463 .029968262 .21699524 .035964967 .21699524 .062942508V.61061099C.21699524 .64959719 .25299073 .6555786 .2889862 .6555786 .30599977 .6555786 .32299806 .6545868 .33599855 .6545868V.68359377H.040985109Z"/>
<path id="font_12_21" d="M.10499573 .36827088C.1289978 .40628053 .17298889 .4262848 .21699524 .4262848 .27398683 .4262848 .31999208 .36827088 .31999208 .31326295V.25926209C.21899414 .25926209 .042999269 .2312622 .042999269 .09423828V.084243778C.051986696 .016220093 .1349945-.009765625 .19400025-.009765625 .24598694-.009765625 .31098939 .022232056 .32598878 .07723999H.32699586C.32998658 .030090332 .3639984-.00390625 .4039917-.00390625 .44599916-.00390625 .47898866 .032089235 .48298646 .07310486V.14614868H.46099855V.09712219C.46099855 .068099979 .45599366 .02508545 .4229889 .02508545 .3909912 .02508545 .38398744 .068099979 .38398744 .09312439 .38398744 .10412598 .3849945 .11512756 .3849945 .12612915V.26519776C.3849945 .2762146 .38598634 .28822328 .38598634 .29922486 .38598634 .39326478 .29899598 .44628907 .21699524 .44628907 .15299988 .44628907 .07199097 .40827943 .07199097 .3302307 .07199097 .30122376 .09098816 .2852173 .114990238 .2852173 .13899231 .2852173 .1559906 .30422975 .1559906 .32724 .1559906 .35224916 .13699341 .36825563 .11299133 .36825563L.10499573 .36827088M.31999208 .24119568V.14614868C.31999208 .07524109 .2749939 .011230469 .20399475 .011230469 .1659851 .011230469 .114990238 .041229249 .114990238 .09223938 .114990238 .18025208 .19499207 .22525025 .27799989 .23725891 .2919922 .23925781 .30599977 .23825073 .31999208 .24125672V.24119568Z"/>
<path id="font_12_22" d="M.027999878 .6843109V.6553192H.04399109C.07398987 .6553192 .10398865 .65231326 .10398865 .6053314V.0012054443L.125 .0032043458 .13699341 .020202637 .16099549 .066223148C.19499207 .023208619 .23399353-.0087890629 .29299928-.0087890629 .41099549-.0087890629 .5079956 .09423828 .5079956 .21730042 .5079956 .33335877 .41999818 .44140626 .3039856 .44140626 .2539978 .44140626 .19099427 .41740418 .16799927 .3743744L.16699219 .6953125 .027999878 .6843109M.42999269 .19328308C.42599488 .14526367 .42099 .102249149 .3919983 .06523132 .3659973 .032211305 .32699586 .011199951 .2869873 .011199951 .24598694 .011199951 .20799256 .035217287 .18399048 .070236209 .1769867 .08224487 .16899109 .09324646 .16899109 .10925293V.2753296C.16899109 .28833009 .16799927 .30134584 .16799927 .3143463 .16799927 .3743744 .23799134 .4203949 .29699708 .4203949 .40699769 .4203949 .43099977 .29833985 .43099977 .21530152 .43099977 .20829773 .43099977 .20028687 .42999269 .19328308Z"/>
<path id="font_12_26" d="M.10598755 .23324585H.3919983C.4019928 .23324585 .40699769 .23724365 .40699769 .24725342 .40699769 .3502655 .35198976 .44628907 .23399353 .44628907 .11399841 .44628907 .0289917 .337265 .0289917 .22123719 .0289917 .13322449 .07598877 .044204713 .16299439 .0082092289 .18598938-.0018005371 .21099854-.0087890629 .23599243-.0087890629H.23899842C.31199647-.0087890629 .3829956 .035202028 .4039917 .10922241 .40499879 .11222839 .40699769 .1162262 .40699769 .120224 .40699769 .12522888 .40098573 .13023377 .3959961 .13023377 .38398744 .13023377 .3789978 .10322571 .37199403 .09022522 .34700013 .045211793 .2999878 .013198853 .24598694 .013198853 .20799256 .013198853 .17399597 .034210206 .1499939 .062210084 .10998535 .11022949 .10598755 .17323303 .10598755 .23324585M.10699463 .25224305C.10699463 .32826234 .14898682 .4262848 .23199463 .4262848 .31999208 .4262848 .34399415 .32325746 .34399415 .25224305H.10699463Z"/>
<path id="font_12_35" d="M.032989503 .68429568V.6552887H.050994874C.08299255 .6552887 .10899353 .6512909 .10899353 .6042633V.07098389C.10899353 .033966066 .08299255 .029968262 .054992677 .029968262H.032989503V.0009765625H.24798584V.029968262H.22399903C.19499207 .029968262 .17199707 .032974245 .17199707 .068984989V.6953125L.032989503 .68429568Z"/>
<path id="font_12_46" d="M.28399659 .4152832C.2559967 .4382782 .22299195 .44628907 .18798828 .44628907 .115997318 .44628907 .032989503 .41827394 .032989503 .32226563V.31326295C.069992069 .14523316 .30699159 .24824524 .30699159 .10122681 .30699159 .039215089 .25099183 .011199951 .19799805 .011199951 .09799194 .011199951 .07299805 .09222412 .055999757 .16122437 .053985597 .16723633 .050994874 .17222595 .04399109 .17222595 .034988405 .17222595 .032989503 .16523743 .032989503 .15823365V.0032043458C.032989503-.0018005371 .034988405-.0087890629 .042999269-.0087890629 .05999756-.0087890629 .07398987 .034210206 .084991458 .034210206H.085998538C.09298706 .032211305 .09799194 .02420044 .10398865 .019210816 .1309967-.00079345706 .16299439-.0087890629 .19699097-.0087890629 .2709961-.0087890629 .35299684 .028213501 .35299684 .1282196 .35299684 .1872406 .30599977 .24024964 .25099183 .25724793 .19699097 .27424623 .07798767 .2702484 .07798767 .35125733 .07798767 .40827943 .13798523 .4282837 .18499756 .4282837 .24299622 .4282837 .30599977 .39727784 .30599977 .31225587 .30599977 .30325318 .30699159 .2962494 .31799317 .2962494 .32598878 .2962494 .32798768 .30226136 .32798768 .30924989V.4342804C.32798768 .43928529 .32499696 .44628907 .31900025 .44628907 .30599977 .44628907 .2899933 .42227174 .28399659 .4152832Z"/>
<path id="font_12_6" d="M.040985109 .6816406V.65263369H.07199097C.10598755 .65263369 .13699341 .64863589 .13699341 .6127014 .13699341 .6067047 .13598633 .5997162 .13598633 .59373477V.07398987C.13598633 .033966066 .10499573 .029968262 .07199097 .029968262H.040985109V.0009765625H.33599855V.029968262C.32299806 .029968262 .30799867 .02897644 .2919922 .02897644 .24398804 .02897644 .21699524 .033966066 .21699524 .07699585V.32714845H.30099488C.35398866 .32714845 .4099884 .32313539 .4099884 .22808838V.21006775H.43199159V.47294618H.4099884V.4549713C.4099884 .38009645 .3829956 .35614015 .28599549 .35614015H.21699524V.6166992C.21699524 .6446533 .22898865 .65263369 .2559967 .65263369H.37199403C.42799378 .65263369 .49598695 .65164187 .5339966 .603714 .5649872 .56378176 .56900027 .50787356 .57499697 .45896913H.5970001L.57099917 .6816406H.040985109Z"/>
<path id="font_12_50" d="M.1459961 .6152344C.1459961 .55044558 .11999512 .421875 .017990113 .421875V.40187074H.102996829V.17605591C.102996829 .16207886 .101989749 .14808655 .101989749 .13409424 .101989749 .044174196 .147995-.0087890629 .23098755-.0087890629 .30799867-.0087890629 .32598878 .07714844 .32598878 .13909912V.18205261H.3039856C.3039856 .16706848 .30499269 .15208435 .30499269 .13710022 .30499269 .09413147 .29699708 .013198853 .23599243 .013198853 .1789856 .013198853 .16799927 .08213806 .16799927 .13110352V.40187074H.30899049V.43066407H.16799927V.6152344H.1459961Z"/>
<path id="font_12_53" d="M.03199768 .42956544V.40055848H.04499817C.08699036 .40055848 .10798645 .39656068 .10798645 .33666993V.13700867C.10798645 .10606384 .10899353 .0741272 .125 .047164918 .15098572 .0032196046 .20599365-.009765625 .25299073-.009765625 .30699159-.009765625 .3659973 .02520752 .3809967 .08010864L.38198854-.008773804 .5209961 .0012207031V.030197144H.5019989C.47299195 .030197144 .44499208 .034194948 .44499208 .07810974V.44140626L.3039856 .4303894V.40055848H.31599427C.34999085 .40055848 .37998963 .39855958 .37998963 .35064698V.15298462C.375 .083099368 .33599855 .01222229 .2579956 .01222229 .22099304 .01222229 .18499756 .021209717 .1749878 .0741272 .17298889 .09309387 .17298889 .11305237 .17298889 .13201905V.44140626L.03199768 .42956544Z"/>
<path id="font_12_45" d="M.027999878 .4303894V.40135194H.04399109C.07398987 .40135194 .10398865 .3983612 .10398865 .3513031V.072006229C.10398865 .034973146 .084991458 .029968262 .027999878 .029968262V.0009765625H.2619934V.029968262C.25099183 .029968262 .23899842 .02897644 .22698975 .02897644 .19499207 .02897644 .16699219 .033966066 .16699219 .071014408V.20715332C.16699219 .28424073 .1789856 .39434815 .26098634 .41838075 .2689972 .42037965 .27598573 .42137147 .28399659 .42137147 .2889862 .42137147 .29299928 .42037965 .2979889 .42037965V.41937257C.2829895 .41337586 .27398683 .3983612 .27398683 .38233949 .27398683 .35931397 .29299928 .34329225 .31298829 .34329225 .33898927 .34329225 .35299684 .36331178 .35299684 .3833313 .35299684 .42037965 .31799317 .44140626 .28399659 .44140626 .23098755 .44140626 .19198609 .4033661 .17298889 .35931397 .16899109 .35029603 .1639862 .34028626 .16299439 .3302765L.1619873 .44140626 .027999878 .4303894Z"/>
<path id="font_10_19" d="M.039993287 .42745973V.40242005H.050994874C.08198547 .40242005 .10398865 .39842225 .10398865 .35136415V.06100464C.10398865 .029968262 .08099365 .025970459 .039993287 .025970459V.0009765625H.23298645V.025970459H.20999146C.17399597 .025970459 .1519928 .02897644 .1519928 .0670166V.2111969C.1519928 .29328919 .16799927 .42344667 .2689972 .42344667 .2769928 .42344667 .2849884 .42144776 .29299928 .41844178 .2789917 .4124298 .269989 .40242005 .269989 .3874054 .269989 .37039186 .2829895 .35536195 .30299378 .35536195 .32398988 .35536195 .33399964 .37239076 .33399964 .3874054 .33399964 .42245484 .2979889 .43847657 .2679901 .43847657 .20698548 .43847657 .15899658 .38139344 .1499939 .32533265L.14898682 .43847657 .039993287 .42745973Z"/>
<path id="font_10_12" d="M.10398865 .19084168V.18984986C.083999637 .16981507 .07499695 .13674927 .07499695 .10870361 .07499695 .071640018 .09199524 .050613405 .116989139 .025604248 .069992069 .018615723 .025985718-.030334473 .025985718-.07829285V-.08627319C.035995485-.17417908 .1579895-.20214844 .23098755-.20214844 .31298829-.20214844 .43598939-.17019654 .43598939-.073287967 .43598939-.015350342 .397995 .026611329 .34498597 .0446167 .30599977 .056610109 .2659912 .057617189 .22599793 .057617189H.16899109C.12098694 .057617189 .09599304 .08665466 .09599304 .12773133 .09599304 .14978028 .10699463 .1638031 .11399841 .18083191 .13999939 .15878296 .17298889 .14776612 .20599365 .14776612 .2869873 .14776612 .34899903 .2158966 .34899903 .2930298 .34899903 .32609559 .33599855 .36616517 .31199647 .39019776V.39120484C.34098817 .4142456 .3659973 .4292755 .4019928 .4292755 .4079895 .4292755 .41299439 .4292755 .4189911 .42826844 .4139862 .42326356 .4079895 .4192505 .40699769 .41123963V.40823365C.40699769 .39620973 .4169922 .38719178 .42900086 .38719178 .44299317 .38719178 .44898988 .39822389 .44898988 .40724183 .44898988 .43327333 .42599488 .4453125 .4039917 .4453125 .36999513 .4453125 .33699037 .4312744 .31098939 .41023255 .30799867 .40724183 .30599977 .40423585 .3019867 .40423585H.30099488C.29499818 .40423585 .27598573 .42025758 .2630005 .42626954 .24499512 .4342804 .22499085 .43829347 .20498657 .43829347 .11999512 .43829347 .06199646 .36515809 .06199646 .2920227 .06199646 .2559662 .07598877 .21488953 .10398865 .19084168M.06298828-.08528137V-.07728577C.06298828-.019348145 .11099243 .016616822 .17098999 .016616822H.23399353C.28799439 .016616822 .3889923 .015609741 .39898683-.07029724V-.07829285C.39898683-.1552124 .29499818-.18617249 .23298645-.18617249 .16499329-.18617249 .070999149-.1552124 .06298828-.08528137M.117996219 .272995V.28601075C.117996219 .3421173 .1309967 .42225648 .20599365 .42225648 .27398683 .42225648 .29299928 .34913636 .29299928 .2930298 .29299928 .24293518 .27999879 .1638031 .20698548 .1638031 .18199158 .1638031 .15699768 .17782593 .13999939 .1988678 .12399292 .22090149 .12098694 .24694824 .117996219 .272995Z"/>
<path id="font_10_9" d="M.29699708 .68429568V.6592865H.30899049C.34199525 .6592865 .36099244 .6502838 .36099244 .61227419L.3600006 .36721803C.33499146 .41123963 .2829895 .43823243 .23498535 .43823243 .12098694 .43823243 .038986207 .32920838 .038986207 .21618653 .038986207 .11416626 .10499573-.005859375 .22499085-.005859375 .2769928-.005859375 .33699037 .024139405 .35899354 .07115173L.3600006-.005859375 .47299195 .0011291504V.026138306H.45899964C.4229889 .026138306 .40899659 .038146974 .40899659 .074157718V.6953125L.29699708 .68429568M.09899902 .19218445V.20718384C.09899902 .27920533 .10998535 .35821534 .17399597 .40223695 .19400025 .41622926 .21699524 .42323304 .24099732 .42323304 .2939911 .42323304 .36099244 .3762207 .36099244 .31420899 .36099244 .30220033 .3600006 .2902069 .3600006 .27920533V.11715698C.3600006 .06515503 .2889862 .009140015 .23298645 .009140015 .15899658 .009140015 .11299133 .08015442 .102996829 .150177 .100997928 .16416931 .100997928 .17817688 .09899902 .19218445Z"/>
<path id="font_10_5" d="M.06199646 .68359377V.6585846H.083999637C.11199951 .6585846 .13798523 .6545868 .13798523 .61761477 .13798523 .60961917 .13699341 .60261538 .13699341 .59562686V.06594849C.13699341 .028961182 .11199951 .025970459 .08198547 .025970459H.06199646V.0009765625H.272995V.025970459H.2519989C.22200012 .025970459 .19799805 .028961182 .19799805 .06594849V.32276917H.34700013C.43299867 .32276917 .55599978 .3527527 .57699587 .48068238 .5779877 .48667909 .5779877 .49267579 .5779877 .4986725 .5779877 .6175995 .45899964 .6845703 .34799195 .6845703 .32998658 .6845856 .31199647 .68359377 .2939911 .68359377H.06199646M.19699097 .34277345V.62361147C.19699097 .6465912 .20399475 .6585846 .22799683 .6585846H.33898927C.4189911 .6585846 .5089874 .6246033 .5089874 .50367739 .5089874 .46469117 .5019989 .4237213 .47499085 .3927307 .43798829 .35176087 .38198854 .34277345 .32998658 .34277345H.19699097Z"/>
<path id="font_10_11" d="M.10699463 .43066407H.027999878V.4056549H.10699463V.059936525C.10699463 .02696228 .07699585 .025970459 .04798889 .025970459H.042999269V.0009765625H.23599243V.025970459H.21099854C.18099976 .025970459 .15499878 .028961182 .15499878 .063934329V.4056549H.2679901V.43066407H.1539917V.5288391C.1539917 .56188967 .1539917 .59394839 .16699219 .625 .17799378 .65405276 .20199585 .68711856 .23599243 .68711856H.23799134C.2519989 .68711856 .2639923 .6820984 .27598573 .6761017 .2630005 .6700897 .24699402 .66407778 .24699402 .6430359 .24699402 .6260071 .2599945 .6109772 .27799989 .6109772 .2999878 .6109772 .31098939 .628006 .31098939 .64404299 .31098939 .68110659 .27198792 .70214846 .23899842 .70214846 .15098572 .70214846 .10699463 .61898806 .10699463 .53985598V.43066407Z"/>
<path id="font_10_17" d="M.21798706 .4423828C.10398865 .42836 .033996583 .32531739 .033996583 .21624756 .033996583 .111190799 .10398865-.005859375 .23298645-.005859375 .35598756-.005859375 .42799378 .112197879 .42799378 .21725464 .42799378 .3283081 .35099793 .4423828 .22799683 .4423828H.21798706M.09399414 .1972351V.21325684C.09399414 .28529359 .099990848 .3753357 .17799378 .41435243 .19499207 .42337037 .21199036 .42736817 .22999573 .42736817 .32899476 .42736817 .36799623 .3223114 .36799623 .23426819 .36799623 .15222168 .36099244 .047164918 .2579956 .013137817 .25 .011138916 .24099732 .010147095 .23298645 .010147095 .13398743 .010147095 .102996829 .109191898 .09399414 .1972351Z"/>
<path id="font_10_15" d="M.041992189 .42745973V.40242005H.056991579C.09098816 .40242005 .10699463 .3914032 .10699463 .35235597V.06100464C.10699463 .029968262 .084991458 .025970459 .041992189 .025970459V.0009765625H.22099304V.025970459H.20498657C.17999268 .025970459 .1559906 .02897644 .1559906 .060012819V.23622132C.1559906 .2692566 .1559906 .30130006 .16699219 .33233644 .18499756 .38139344 .22698975 .42344667 .2809906 .42344667 .34498597 .42344667 .3639984 .3683777 .3639984 .30430604V.060012819C.3639984 .026977539 .33499146 .025970459 .3039856 .025970459H.29899598V.0009765625H.47799684V.025970459H.46199037C.43699647 .025970459 .41299439 .02897644 .41299439 .060012819V.23622132C.41299439 .2692566 .41299439 .30130006 .42399598 .33233644 .44198609 .38139344 .48399354 .42344667 .5379944 .42344667 .60198977 .42344667 .62098696 .3683777 .62098696 .30430604V.060012819C.62098696 .026977539 .59199526 .025970459 .5609894 .025970459H.55599978V.0009765625H.7350006V.025970459H.7200012C.69599917 .025970459 .673996 .02796936 .66999819 .053009035V.2952881C.66999819 .37239076 .644989 .43847657 .54499819 .43847657 .4850006 .43847657 .42900086 .39642335 .4119873 .3373413H.41099549C.40499879 .40742494 .35198976 .43847657 .28399659 .43847657 .23199463 .43847657 .18899536 .4064331 .16499329 .3613739 .16099549 .35235597 .1559906 .34436036 .1539917 .33433534L.15299988 .43847657 .041992189 .42745973Z"/>
<path id="font_10_16" d="M.042999269 .42745973V.40242005H.053985597C.084991458 .40242005 .10699463 .39842225 .10699463 .35136415V.06100464C.10699463 .029968262 .083999637 .025970459 .042999269 .025970459V.0009765625H.21998596V.025970459H.20498657C.17999268 .025970459 .1559906 .02897644 .1559906 .06100464V.23622132C.1559906 .27026368 .1559906 .30329896 .16799927 .3353424 .18598938 .3824005 .22698975 .42344667 .27999879 .42344667 .34098817 .42344667 .36299134 .37338258 .36299134 .30430604V.060012819C.36299134 .026977539 .33299256 .025970459 .3039856 .025970459H.29899598V.0009765625H.47599793V.025970459H.46099855C.43598939 .025970459 .4119873 .02897644 .4119873 .060012819V.29129029C.4119873 .3613739 .39698792 .43847657 .28599549 .43847657 .22099304 .43847657 .16999817 .3914032 .1539917 .33433534L.15299988 .43847657 .042999269 .42745973Z"/>
<path id="font_10_8" d="M.35299684 .34231568C.34799195 .34332276 .34399415 .34431459 .33898927 .34431459 .31900025 .34431459 .30599977 .3263092 .30599977 .30929566 .30599977 .28929139 .32199098 .2762909 .34199525 .2762909H.34599305C.36799623 .28329469 .37399293 .29629518 .37399293 .31430055 .37399293 .39535523 .29599 .4423828 .22698975 .4423828 .10899353 .4423828 .038986207 .3203125 .038986207 .21525574 .038986207 .1131897 .10699463-.005859375 .23199463-.005859375 .2979889-.005859375 .35299684 .03315735 .37799073 .09918213 .37998963 .10418701 .3829956 .112197879 .3829956 .11819458V.12120056C.38198854 .12420654 .37998963 .12519837 .37799073 .12519837 .3659973 .12519837 .3639984 .10719299 .3600006 .09718323 .34298707 .047164918 .2919922 .010147095 .24099732 .010147095 .13398743 .010147095 .09899902 .13520813 .09899902 .22225952V.2312622C.09899902 .3113098 .13398743 .42636109 .23498535 .42636109 .28599549 .42636109 .33599855 .39134217 .35299684 .34231568Z"/>
<path id="font_13_2" d="M.20399475 0C.43699647 0 .7659912 .17791748 .7659912 .45072938 .7659912 .53967288 .723999 .59562686 .6749878 .62661746 .58898928 .6826172 .49699403 .6826172 .4019928 .6826172 .31599427 .6826172 .25698854 .6826172 .17298889 .64660647 .039993287 .5876312 .020996094 .50468447 .020996094 .4967041 .020996094 .4907074 .024993897 .4887085 .0309906 .4887085 .04699707 .4887085 .069992069 .50268557 .07798767 .5076904 .09899902 .52168276 .101989749 .52767947 .10798645 .5466614 .12199402 .5866394 .1499939 .62161257 .27598573 .62760928 .2599945 .41874696 .20899964 .22787476 .13899231 .052993776 .101989749 .039993287 .07798767 .016998291 .07798767 .0069885256 .07798767 .0009918213 .07899475 0 .100997928 0H.20399475M.20899964 .054992677C.32299806 .33380128 .34399415 .5076904 .35798646 .62760928 .4249878 .62760928 .68099978 .62760928 .68099978 .40776063 .68099978 .21188355 .5049896 .054992677 .2630005 .054992677H.20899964Z"/>
<path id="font_11_40" d="M.08099365 .04219055C.10398865 .008178711 .14698792-.0078125 .18598938-.0078125 .2579956-.0078125 .34199525 .021194458 .34199525 .12721253 .34199525 .17422486 .31399537 .21624756 .27398683 .23924256 .21499634 .2732544 .08699036 .2542572 .07199097 .34327699 .07199097 .4072876 .125 .42929078 .18199158 .42929078 .24398804 .42929078 .28599549 .3972931 .2979889 .3212738V.31326295C.2979889 .30426026 .29899598 .29325868 .30899049 .29325868 .31698609 .29325868 .31900025 .30026246 .31900025 .30625917V.43429566C.31900025 .43930055 .31698609 .4453125 .31098939 .4453125 .29899598 .4453125 .2809906 .41729737 .27799989 .41229249 .25099183 .43530274 .21899414 .4453125 .18399048 .4453125 .117996219 .4453125 .03199768 .41929627 .03199768 .32626344 .03199768 .2102356 .17799378 .2122345 .23899842 .19023133 .272995 .17422486 .3019867 .14422608 .3019867 .10520935 .3019867 .032196046 .23899842 .010177612 .18798828 .010177612 .08898926 .010177612 .07199097 .09820557 .051986696 .16923523 .050994874 .17323303 .04598999 .17622376 .041992189 .17622376 .034988405 .17622376 .03199768 .17022705 .03199768 .16423035V.00018310547C.032989503-.0038452149 .034988405-.0068359377 .038986207-.0068359377H.040985109C.04699707-.0068359377 .049987794-.0008392334 .053985597 .0031585694L.08099365 .04219055Z"/>
<path id="font_10_4" d="M.06298828 .68359377V.6585846H.08299255C.11199951 .6585846 .13899231 .6555786 .13899231 .62060549 .13899231 .61460879 .13798523 .60861209 .13798523 .60261538V.09692383C.13798523 .06893921 .1349945 .025970459 .06298828 .025970459V.0009765625H.22999573V.025970459C.20999146 .025970459 .18598938 .028961182 .17098999 .04396057 .1559906 .059951784 .15499878 .079940799 .15499878 .09992981L.1559906 .6585846C.16099549 .6385956 .16999817 .61860659 .1769867 .59861758L.21899414 .48469544C.272995 .3357849 .32499696 .18586731 .38198854 .037963869 .38598634 .025970459 .3899994 .0029754639 .4019928 .0009765625 .41799928 .0009765625 .44799806 .10392761 .46598817 .15388489 .5069885 .26481629 .5469971 .37475587 .58699038 .48568727L.6289978 .59962466C.6359863 .61961367 .6459961 .6405945 .651001 .6615906L.6519928 .06794739C.6519928 .02696228 .6259918 .025970459 .57699587 .025970459V.0009765625H.7839966V.025970459H.7619934C.73399356 .025970459 .70799258 .029968262 .70799258 .06594849 .70799258 .07394409 .70899966 .0819397 .70899966 .08892822V.61860659C.70899966 .6555786 .73399356 .6585846 .7639923 .6585846H.7839966V.68359377H.6589966L.6459961 .6815796 .6380005 .6675873 .42399598 .077941898 .20899964 .6675873 .20098877 .6815796 .18798828 .68359377H.06298828Z"/>
<path id="font_10_20" d="M.07398987 .05116272C.09399414 .010147095 .14498902-.005859375 .18798828-.005859375 .25698854-.005859375 .33299256 .029159546 .33299256 .12121582 .33299256 .17024231 .30699159 .21226502 .2579956 .23927307 .20298767 .26930238 .09298706 .25228883 .067993167 .32533265 .06599426 .33132936 .06399536 .3373413 .06399536 .343338V.346344C.06399536 .40138246 .117996219 .4283905 .17599488 .4283905 .23298645 .4283905 .2829895 .39637757 .2919922 .32032777V.3083191C.2919922 .29830934 .29299928 .28831483 .3019867 .28831483 .30899049 .28831483 .30999757 .29330445 .30999757 .3003235V.43139649C.30999757 .4353943 .30999757 .44140626 .30499269 .44140626 .29499818 .44140626 .27999879 .41638185 .2749939 .40437318H.272995C.25299073 .43136598 .21299744 .4423828 .18099976 .4423828 .11898804 .4423828 .0309906 .42137147 .0309906 .32730104 .0309906 .27127076 .07899475 .23225403 .12998963 .21824646 .19898987 .20022583 .2899933 .19923401 .2999878 .11317444V.106170658C.2999878 .040130617 .24499512 .009124756 .18199158 .009124756 .08999634 .009124756 .06199646 .09516907 .04899597 .16720581 .04699707 .17321778 .04499817 .18022156 .038986207 .18022156 .03199768 .18022156 .0309906 .17321778 .0309906 .16821289V.0011138916C.03199768-.0018920899 .032989503-.0048828127 .036987306-.0048828127 .04798889-.0048828127 .06098938 .03413391 .07398987 .05114746V.05116272Z"/>
<path id="font_10_22" d="M.042999269 .42663575V.4016266H.056991579C.08999634 .4016266 .10798645 .39364625 .10798645 .34170533 .10798645 .32572938 .10699463 .30975343 .10699463 .2947693V.13995362C.10699463 .06904602 .12199402-.005859375 .23899842-.005859375 .2939911-.005859375 .34999085 .034088136 .36299134 .088012699L.3639984-.005859375 .47599793 .0011291504V.02609253H.46598817C.43499757 .02609253 .4119873 .030090332 .4119873 .075027469V.43847657L.29899598 .42745973V.4016266H.30999757C.34298707 .4016266 .36299134 .39463807 .36299134 .35069276V.16792298C.36299134 .09501648 .32699586 .009109497 .24198914 .009109497 .21598816 .009109497 .18598938 .016113282 .16999817 .03907776 .15699768 .057052614 .1559906 .08203125 .1559906 .10600281V.43847657L.042999269 .42663575Z"/>
<path id="font_10_3" d="M.06098938 .68359377V.6585846H.08299255C.11099243 .6585846 .13699341 .6545868 .13699341 .61761477 .13699341 .60961917 .13598633 .60261538 .13598633 .59562686V.06594849C.13598633 .028961182 .11099243 .025970459 .08099365 .025970459H.06098938V.0009765625H.5159912L.5389862 .25283814H.522995C.5169983 .16088867 .5039978 .06893921 .394989 .032958986 .3659973 .025970459 .33699037 .025970459 .30699159 .025970459H.23298645C.21299744 .025970459 .19599915 .028961182 .19599915 .05795288 .19599915 .063949588 .19699097 .07093811 .19699097 .076934818V.59661868C.19699097 .60261538 .19599915 .61061099 .19599915 .61761477 .19599915 .6545868 .22698975 .6595917 .2579956 .6595917 .2689972 .6595917 .27999879 .6585846 .2899933 .6585846V.68359377H.06098938Z"/>
</defs>
<path transform="matrix(1,0,0,-1,59.927,22.522505)" d="M0 0V17.542C0 19.743 1.784 21.527 3.985 21.527H200.114C202.315 21.527 204.099 19.743 204.099 17.542V0C204.099-2.201 202.315-3.985 200.114-3.985H3.985C1.784-3.985 0-2.201 0 0Z" fill="#7399a8"/>
<path transform="matrix(1,0,0,-1,59.927,22.522505)" stroke-width="1.993" stroke-linecap="butt" stroke-miterlimit="10" stroke-linejoin="miter" fill="none" stroke="#4d6670" d="M0 0V17.542C0 19.743 1.784 21.527 3.985 21.527H200.114C202.315 21.527 204.099 19.743 204.099 17.542V0C204.099-2.201 202.315-3.985 200.114-3.985H3.985C1.784-3.985 0-2.201 0 0Z"/>
<use data-text="A" xlink:href="#font_10_1" transform="matrix(12.3978,0,0,-12.3978,125.104,18.021012)" fill="#ffffff"/>
<use data-text="v" xlink:href="#font_10_23" transform="matrix(12.3978,0,0,-12.3978,132.4312,18.020997)" fill="#ffffff"/>
<use data-text="a" xlink:href="#font_10_6" transform="matrix(12.3978,0,0,-12.3978,137.84903,18.020997)" fill="#ffffff"/>
<use data-text="i" xlink:href="#font_10_13" transform="matrix(12.3978,0,0,-12.3978,143.58922,18.020997)" fill="#ffffff"/>
<use data-text="l" xlink:href="#font_10_14" transform="matrix(12.3978,0,0,-12.3978,146.77545,18.020997)" fill="#ffffff"/>
<use data-text="a" xlink:href="#font_10_6" transform="matrix(12.3978,0,0,-12.3978,149.96169,18.020997)" fill="#ffffff"/>
<use data-text="b" xlink:href="#font_10_7" transform="matrix(12.3978,0,0,-12.3978,155.70188,18.020997)" fill="#ffffff"/>
<use data-text="l" xlink:href="#font_10_14" transform="matrix(12.3978,0,0,-12.3978,162.07434,18.020997)" fill="#ffffff"/>
<use data-text="e" xlink:href="#font_10_10" transform="matrix(12.3978,0,0,-12.3978,165.26058,18.020997)" fill="#ffffff"/>
<use data-text="D" xlink:href="#font_10_2" transform="matrix(12.3978,0,0,-12.3978,174.1746,18.020997)" fill="#ffffff"/>
<use data-text="a" xlink:href="#font_10_6" transform="matrix(12.3978,0,0,-12.3978,182.93985,18.020997)" fill="#ffffff"/>
<use data-text="t" xlink:href="#font_10_21" transform="matrix(12.3978,0,0,-12.3978,188.68004,18.020997)" fill="#ffffff"/>
<use data-text="a" xlink:href="#font_10_6" transform="matrix(12.3978,0,0,-12.3978,193.14325,18.020997)" fill="#ffffff"/>
<path transform="matrix(1,0,0,-1,.398098,48.034906)" d="M0 0V9.038C0 11.239 1.784 13.023 3.985 13.023H47.04C49.241 13.023 51.025 11.239 51.025 9.038V0C51.025-2.201 49.241-3.985 47.04-3.985H3.985C1.784-3.985 0-2.201 0 0Z" fill="#ffffff"/>
<path transform="matrix(1,0,0,-1,.398098,48.034906)" stroke-width=".797" stroke-linecap="butt" stroke-miterlimit="10" stroke-linejoin="miter" fill="none" stroke="#4d6670" d="M0 0V9.038C0 11.239 1.784 13.023 3.985 13.023H47.04C49.241 13.023 51.025 11.239 51.025 9.038V0C51.025-2.201 49.241-3.985 47.04-3.985H3.985C1.784-3.985 0-2.201 0 0Z"/>
<use data-text="I" xlink:href="#font_11_7" transform="matrix(8.6076,0,0,-8.6076,6.91,46.480005)" fill="#40555e"/>
<use data-text="t" xlink:href="#font_11_41" transform="matrix(8.6076,0,0,-8.6076,9.862407,46.480005)" fill="#40555e"/>
<use data-text="e" xlink:href="#font_11_23" transform="matrix(8.6076,0,0,-8.6076,13.047219,46.480005)" fill="#40555e"/>
<use data-text="r" xlink:href="#font_11_39" transform="matrix(8.6076,0,0,-8.6076,16.688235,46.480005)" fill="#40555e"/>
<use data-text="a" xlink:href="#font_11_19" transform="matrix(8.6076,0,0,-8.6076,19.873047,46.480005)" fill="#40555e"/>
<use data-text="t" xlink:href="#font_11_41" transform="matrix(8.6076,0,0,-8.6076,23.970265,46.480005)" fill="#40555e"/>
<use data-text="i" xlink:href="#font_11_27" transform="matrix(8.6076,0,0,-8.6076,27.155077,46.480005)" fill="#40555e"/>
<use data-text="o" xlink:href="#font_11_32" transform="matrix(8.6076,0,0,-8.6076,29.427483,46.480005)" fill="#40555e"/>
<use data-text="n" xlink:href="#font_11_31" transform="matrix(8.6076,0,0,-8.6076,33.5247,46.480005)" fill="#40555e"/>
<use data-text="1" xlink:href="#font_11_33" transform="matrix(8.6076,0,0,-8.6076,40.816,46.480005)" fill="#40555e"/>
<path transform="matrix(1,0,0,-1,.398098,133.0762)" d="M0 0V9.038C0 11.239 1.784 13.023 3.985 13.023H47.04C49.241 13.023 51.025 11.239 51.025 9.038V0C51.025-2.201 49.241-3.985 47.04-3.985H3.985C1.784-3.985 0-2.201 0 0Z" fill="#ffffff"/>
<path transform="matrix(1,0,0,-1,.398098,133.0762)" stroke-width=".797" stroke-linecap="butt" stroke-miterlimit="10" stroke-linejoin="miter" fill="none" stroke="#4d6670" d="M0 0V9.038C0 11.239 1.784 13.023 3.985 13.023H47.04C49.241 13.023 51.025 11.239 51.025 9.038V0C51.025-2.201 49.241-3.985 47.04-3.985H3.985C1.784-3.985 0-2.201 0 0Z"/>
<use data-text="I" xlink:href="#font_11_7" transform="matrix(8.6076,0,0,-8.6076,6.91,131.52)" fill="#40555e"/>
<use data-text="t" xlink:href="#font_11_41" transform="matrix(8.6076,0,0,-8.6076,9.862407,131.52)" fill="#40555e"/>
<use data-text="e" xlink:href="#font_11_23" transform="matrix(8.6076,0,0,-8.6076,13.047219,131.52)" fill="#40555e"/>
<use data-text="r" xlink:href="#font_11_39" transform="matrix(8.6076,0,0,-8.6076,16.688235,131.52)" fill="#40555e"/>
<use data-text="a" xlink:href="#font_11_19" transform="matrix(8.6076,0,0,-8.6076,19.873047,131.52)" fill="#40555e"/>
<use data-text="t" xlink:href="#font_11_41" transform="matrix(8.6076,0,0,-8.6076,23.970265,131.52)" fill="#40555e"/>
<use data-text="i" xlink:href="#font_11_27" transform="matrix(8.6076,0,0,-8.6076,27.155077,131.52)" fill="#40555e"/>
<use data-text="o" xlink:href="#font_11_32" transform="matrix(8.6076,0,0,-8.6076,29.427483,131.52)" fill="#40555e"/>
<use data-text="n" xlink:href="#font_11_31" transform="matrix(8.6076,0,0,-8.6076,33.5247,131.52)" fill="#40555e"/>
<use data-text="2" xlink:href="#font_11_43" transform="matrix(8.6076,0,0,-8.6076,40.816,131.52)" fill="#40555e"/>
<path transform="matrix(1,0,0,-1,.398098,167.09272)" d="M0 0V9.038C0 11.239 1.784 13.023 3.985 13.023H47.04C49.241 13.023 51.025 11.239 51.025 9.038V0C51.025-2.201 49.241-3.985 47.04-3.985H3.985C1.784-3.985 0-2.201 0 0Z" fill="#ffffff"/>
<path transform="matrix(1,0,0,-1,.398098,167.09272)" stroke-width=".797" stroke-linecap="butt" stroke-miterlimit="10" stroke-linejoin="miter" fill="none" stroke="#4d6670" d="M0 0V9.038C0 11.239 1.784 13.023 3.985 13.023H47.04C49.241 13.023 51.025 11.239 51.025 9.038V0C51.025-2.201 49.241-3.985 47.04-3.985H3.985C1.784-3.985 0-2.201 0 0Z"/>
<use data-text="I" xlink:href="#font_11_7" transform="matrix(8.6076,0,0,-8.6076,6.91,165.53601)" fill="#40555e"/>
<use data-text="t" xlink:href="#font_11_41" transform="matrix(8.6076,0,0,-8.6076,9.862407,165.53601)" fill="#40555e"/>
<use data-text="e" xlink:href="#font_11_23" transform="matrix(8.6076,0,0,-8.6076,13.047219,165.53601)" fill="#40555e"/>
<use data-text="r" xlink:href="#font_11_39" transform="matrix(8.6076,0,0,-8.6076,16.688235,165.53601)" fill="#40555e"/>
<use data-text="a" xlink:href="#font_11_19" transform="matrix(8.6076,0,0,-8.6076,19.873047,165.53601)" fill="#40555e"/>
<use data-text="t" xlink:href="#font_11_41" transform="matrix(8.6076,0,0,-8.6076,23.970265,165.53601)" fill="#40555e"/>
<use data-text="i" xlink:href="#font_11_27" transform="matrix(8.6076,0,0,-8.6076,27.155077,165.53601)" fill="#40555e"/>
<use data-text="o" xlink:href="#font_11_32" transform="matrix(8.6076,0,0,-8.6076,29.427483,165.53601)" fill="#40555e"/>
<use data-text="n" xlink:href="#font_11_31" transform="matrix(8.6076,0,0,-8.6076,33.5247,165.53601)" fill="#40555e"/>
<use data-text="3" xlink:href="#font_11_42" transform="matrix(8.6076,0,0,-8.6076,40.816,165.53601)" fill="#40555e"/>
<path transform="matrix(1,0,0,-1,264.0261,43.515905)" stroke-width="1.993" stroke-linecap="butt" stroke-miterlimit="10" stroke-linejoin="miter" fill="none" stroke="#000000" d="M0 0H29.222"/>
<path transform="matrix(1,0,0,-1,296.92179,43.515886)" d="M0 0-3.362 2.817V0-2.817Z"/>
<path transform="matrix(1,0,0,-1,296.92179,43.515886)" stroke-width="1.245" stroke-linecap="butt" stroke-linejoin="round" fill="none" stroke="#000000" d="M0 0-3.362 2.817V0-2.817Z"/>
<use data-text="L" xlink:href="#font_12_11" transform="matrix(7.1730005,0,0,-7.1730005,267.711,40.927003)"/>
<use data-text="a" xlink:href="#font_12_21" transform="matrix(7.1730005,0,0,-7.1730005,272.10087,40.927003)"/>
<use data-text="b" xlink:href="#font_12_22" transform="matrix(7.1730005,0,0,-7.1730005,275.61564,40.927003)"/>
<use data-text="e" xlink:href="#font_12_26" transform="matrix(7.1730005,0,0,-7.1730005,279.7044,40.927003)"/>
<use data-text="l" xlink:href="#font_12_35" transform="matrix(7.1730005,0,0,-7.1730005,282.82469,40.927003)"/>
<use data-text="s" xlink:href="#font_12_46" transform="matrix(7.1730005,0,0,-7.1730005,284.77574,40.927003)"/>
<path transform="matrix(1,0,0,-1,366.0757,43.515905)" stroke-width="2.989" stroke-linecap="butt" stroke-miterlimit="10" stroke-linejoin="miter" fill="none" stroke="#929292" d="M0 0H27.965"/>
<path transform="matrix(1,0,0,-1,398.78459,43.515886)" d="M0 0-4.339 3.507V0-3.507Z" fill="#929292"/>
<path transform="matrix(1,0,0,-1,398.78459,43.515886)" stroke-width="1.619" stroke-linecap="butt" stroke-linejoin="round" fill="none" stroke="#929292" d="M0 0-4.339 3.507V0-3.507Z"/>
<path transform="matrix(1,0,0,-1,93.9435,52.020006)" stroke-width="1.993" stroke-linecap="butt" stroke-miterlimit="10" stroke-linejoin="miter" fill="none" stroke="#000000" d="M0 0 30.627-30.627"/>
<path transform="matrix(.7071,.7071,.7071,-.7071,127.16747,85.24395)" d="M0 0-3.362 2.817V0-2.817Z"/>
<path transform="matrix(.7071,.7071,.7071,-.7071,127.16747,85.24395)" stroke-width="1.245" stroke-linecap="butt" stroke-linejoin="round" fill="none" stroke="#000000" d="M0 0-3.362 2.817V0-2.817Z"/>
<path transform="matrix(1,0,0,-1,161.9765,52.020006)" stroke-width="1.993" stroke-linecap="butt" stroke-miterlimit="10" stroke-linejoin="miter" fill="none" stroke="#000000" d="M0 0-30.627-30.627"/>
<path transform="matrix(-.7071,.7071,.7071,.7071,128.7526,85.24395)" d="M0 0-3.362 2.817V0-2.817Z"/>
<path transform="matrix(-.7071,.7071,.7071,.7071,128.7526,85.24395)" stroke-width="1.245" stroke-linecap="butt" stroke-linejoin="round" fill="none" stroke="#000000" d="M0 0-3.362 2.817V0-2.817Z"/>
<path transform="matrix(1,0,0,-1,161.9765,94.5406)" stroke-width="1.993" stroke-linecap="butt" stroke-miterlimit="10" stroke-linejoin="miter" fill="none" stroke="#000000" d="M0 0H29.222"/>
<path transform="matrix(1,0,0,-1,194.87224,94.540637)" d="M0 0-3.362 2.817V0-2.817Z"/>
<path transform="matrix(1,0,0,-1,194.87224,94.540637)" stroke-width="1.245" stroke-linecap="butt" stroke-linejoin="round" fill="none" stroke="#000000" d="M0 0-3.362 2.817V0-2.817Z"/>
<path transform="matrix(1,0,0,-1,264.0261,94.5406)" stroke-width="1.993" stroke-linecap="butt" stroke-miterlimit="10" stroke-linejoin="miter" fill="none" stroke="#000000" d="M0 0H29.222"/>
<path transform="matrix(1,0,0,-1,296.92179,94.540637)" d="M0 0-3.362 2.817V0-2.817Z"/>
<path transform="matrix(1,0,0,-1,296.92179,94.540637)" stroke-width="1.245" stroke-linecap="butt" stroke-linejoin="round" fill="none" stroke="#000000" d="M0 0-3.362 2.817V0-2.817Z"/>
<path transform="matrix(1,0,0,-1,230.0096,52.020006)" stroke-width="1.993" stroke-linecap="butt" stroke-miterlimit="10" stroke-linejoin="miter" fill="none" stroke="#000000" d="M0 0V-29.222"/>
<path transform="matrix(0,1,1,0,230.00957,84.91568)" d="M0 0-3.362 2.817V0-2.817Z"/>
<path transform="matrix(0,1,1,0,230.00957,84.91568)" stroke-width="1.245" stroke-linecap="butt" stroke-linejoin="round" fill="none" stroke="#000000" d="M0 0-3.362 2.817V0-2.817Z"/>
<use data-text="F" xlink:href="#font_12_6" transform="matrix(7.1730005,0,0,-7.1730005,232.895,71.49801)"/>
<use data-text="e" xlink:href="#font_12_26" transform="matrix(7.1730005,0,0,-7.1730005,236.89762,71.498)"/>
<use data-text="a" xlink:href="#font_12_21" transform="matrix(7.1730005,0,0,-7.1730005,240.01067,71.498)"/>
<use data-text="t" xlink:href="#font_12_50" transform="matrix(7.1730005,0,0,-7.1730005,243.52544,71.498)"/>
<use data-text="u" xlink:href="#font_12_53" transform="matrix(7.1730005,0,0,-7.1730005,246.25835,71.498)"/>
<use data-text="r" xlink:href="#font_12_45" transform="matrix(7.1730005,0,0,-7.1730005,250.16046,71.498)"/>
<use data-text="e" xlink:href="#font_12_26" transform="matrix(7.1730005,0,0,-7.1730005,252.89337,71.498)"/>
<use data-text="s" xlink:href="#font_12_46" transform="matrix(7.1730005,0,0,-7.1730005,256.01365,71.498)"/>
<path transform="matrix(1,0,0,-1,332.0591,86.0365)" stroke-width="1.993" stroke-linecap="butt" stroke-miterlimit="10" stroke-linejoin="miter" fill="none" stroke="#000000" d="M0 0V29.222"/>
<path transform="matrix(0,-1,-1,-0,332.05915,53.140829)" d="M0 0-3.362 2.817V0-2.817Z"/>
<path transform="matrix(0,-1,-1,-0,332.05915,53.140829)" stroke-width="1.245" stroke-linecap="butt" stroke-linejoin="round" fill="none" stroke="#000000" d="M0 0-3.362 2.817V0-2.817Z"/>
<path transform="matrix(1,0,0,-1,572.1203,103.0448)" d="M0 0C0 19.862-16.1 35.962-35.962 35.962-55.824 35.962-71.924 19.862-71.924 0-71.924-19.862-55.824-35.962-35.962-35.962-16.1-35.962 0-19.862 0 0Z" fill="#fdf07c"/>
<path transform="matrix(1,0,0,-1,572.1203,103.0448)" stroke-width=".797" stroke-linecap="butt" stroke-miterlimit="10" stroke-linejoin="miter" fill="none" stroke="#000000" d="M0 0C0 19.862-16.1 35.962-35.962 35.962-55.824 35.962-71.924 19.862-71.924 0-71.924-19.862-55.824-35.962-35.962-35.962-16.1-35.962 0-19.862 0 0Z"/>
<use data-text="A" xlink:href="#font_10_1" transform="matrix(12.3978,0,0,-12.3978,513.3746,99.840808)"/>
<use data-text="v" xlink:href="#font_10_23" transform="matrix(12.3978,0,0,-12.3978,520.7018,99.840808)"/>
<use data-text="e" xlink:href="#font_10_10" transform="matrix(12.3978,0,0,-12.3978,526.42959,99.840808)"/>
<use data-text="r" xlink:href="#font_10_19" transform="matrix(12.3978,0,0,-12.3978,531.5251,99.840808)"/>
<use data-text="a" xlink:href="#font_10_6" transform="matrix(12.3978,0,0,-12.3978,535.9883,99.840808)"/>
<use data-text="g" xlink:href="#font_10_12" transform="matrix(12.3978,0,0,-12.3978,541.72848,99.840808)"/>
<use data-text="e" xlink:href="#font_10_10" transform="matrix(12.3978,0,0,-12.3978,547.4686,99.840808)"/>
<use data-text="d" xlink:href="#font_10_9" transform="matrix(12.3978,0,0,-12.3978,552.56417,99.840808)"/>
<use data-text="P" xlink:href="#font_10_5" transform="matrix(12.3978,0,0,-12.3978,504.85099,114.785)"/>
<use data-text="e" xlink:href="#font_10_10" transform="matrix(12.3978,0,0,-12.3978,512.3393,114.785)"/>
<use data-text="r" xlink:href="#font_10_19" transform="matrix(12.3978,0,0,-12.3978,517.4348,114.785)"/>
<use data-text="f" xlink:href="#font_10_11" transform="matrix(12.3978,0,0,-12.3978,521.898,114.785)"/>
<use data-text="o" xlink:href="#font_10_17" transform="matrix(12.3978,0,0,-12.3978,525.4066,114.785)"/>
<use data-text="r" xlink:href="#font_10_19" transform="matrix(12.3978,0,0,-12.3978,531.1468,114.785)"/>
<use data-text="m" xlink:href="#font_10_15" transform="matrix(12.3978,0,0,-12.3978,535.61,114.785)"/>
<use data-text="a" xlink:href="#font_10_6" transform="matrix(12.3978,0,0,-12.3978,545.1687,114.785)"/>
<use data-text="n" xlink:href="#font_10_16" transform="matrix(12.3978,0,0,-12.3978,550.9089,114.785)"/>
<use data-text="c" xlink:href="#font_10_8" transform="matrix(12.3978,0,0,-12.3978,557.2814,114.785)"/>
<use data-text="e" xlink:href="#font_10_10" transform="matrix(12.3978,0,0,-12.3978,562.3769,114.785)"/>
<path transform="matrix(1,0,0,-1,468.1252,43.515905)" stroke-width="2.989" stroke-linecap="butt" stroke-miterlimit="10" stroke-linejoin="miter" fill="none" stroke="#929292" d="M0 0 36.261-31.709"/>
<path transform="matrix(.75276,.65825,.65825,-.75276,507.95729,78.34742)" d="M0 0-4.339 3.507V0-3.507Z" fill="#929292"/>
<path transform="matrix(.75276,.65825,.65825,-.75276,507.95729,78.34742)" stroke-width="1.619" stroke-linecap="butt" stroke-linejoin="round" fill="none" stroke="#929292" d="M0 0-4.339 3.507V0-3.507Z"/>
<path transform="matrix(1,0,0,-1,468.1252,128.5572)" stroke-width="2.989" stroke-linecap="butt" stroke-miterlimit="10" stroke-linejoin="miter" fill="none" stroke="#929292" d="M0 0 28.498 10.676"/>
<path transform="matrix(.93642,-.35077,-.35077,-.93642,501.06553,116.21756)" d="M0 0-4.339 3.507V0-3.507Z" fill="#929292"/>
<path transform="matrix(.93642,-.35077,-.35077,-.93642,501.06553,116.21756)" stroke-width="1.619" stroke-linecap="butt" stroke-linejoin="round" fill="none" stroke="#929292" d="M0 0-4.339 3.507V0-3.507Z"/>
<path transform="matrix(1,0,0,-1,468.1252,162.5737)" stroke-width="2.989" stroke-linecap="butt" stroke-miterlimit="10" stroke-linejoin="miter" fill="none" stroke="#929292" d="M0 0 36.262 31.704"/>
<path transform="matrix(.7528,-.65819,-.65819,-.7528,507.95777,127.747447)" d="M0 0-4.339 3.507V0-3.507Z" fill="#929292"/>
<path transform="matrix(.7528,-.65819,-.65819,-.7528,507.95777,127.747447)" stroke-width="1.619" stroke-linecap="butt" stroke-linejoin="round" fill="none" stroke="#929292" d="M0 0-4.339 3.507V0-3.507Z"/>
<path transform="matrix(1,0,0,-1,59.927,48.034906)" d="M0 0V9.038C0 11.239 1.784 13.023 3.985 13.023H64.048C66.249 13.023 68.033 11.239 68.033 9.038V0C68.033-2.201 66.249-3.985 64.048-3.985H3.985C1.784-3.985 0-2.201 0 0Z" fill="#cbebe1"/>
<path transform="matrix(1,0,0,-1,59.927,48.034906)" stroke-width=".398" stroke-linecap="butt" stroke-miterlimit="10" stroke-linejoin="miter" fill="none" stroke="#000000" d="M0 0V9.038C0 11.239 1.784 13.023 3.985 13.023H64.048C66.249 13.023 68.033 11.239 68.033 9.038V0C68.033-2.201 66.249-3.985 64.048-3.985H3.985C1.784-3.985 0-2.201 0 0Z"/>
<use data-text="D" xlink:href="#font_13_2" transform="matrix(12.3978,0,0,-12.3978,80.364,46.822008)"/>
<use data-text="t" xlink:href="#font_11_41" transform="matrix(8.6076,0,0,-8.6076,89.9274,48.681406)"/>
<use data-text="r" xlink:href="#font_11_39" transform="matrix(8.6076,0,0,-8.6076,93.11221,48.681406)"/>
<use data-text="a" xlink:href="#font_11_19" transform="matrix(8.6076,0,0,-8.6076,96.29703,48.681406)"/>
<use data-text="i" xlink:href="#font_11_27" transform="matrix(8.6076,0,0,-8.6076,100.39425,48.681406)"/>
<use data-text="n" xlink:href="#font_11_31" transform="matrix(8.6076,0,0,-8.6076,102.66666,48.681406)"/>
<path transform="matrix(1,0,0,-1,127.95999,48.034906)" d="M0 0V9.038C0 11.239 1.784 13.023 3.985 13.023H64.048C66.249 13.023 68.033 11.239 68.033 9.038V0C68.033-2.201 66.249-3.985 64.048-3.985H3.985C1.784-3.985 0-2.201 0 0Z" fill="#cbebe1"/>
<path transform="matrix(1,0,0,-1,127.95999,48.034906)" stroke-width=".398" stroke-linecap="butt" stroke-miterlimit="10" stroke-linejoin="miter" fill="none" stroke="#000000" d="M0 0V9.038C0 11.239 1.784 13.023 3.985 13.023H64.048C66.249 13.023 68.033 11.239 68.033 9.038V0C68.033-2.201 66.249-3.985 64.048-3.985H3.985C1.784-3.985 0-2.201 0 0Z"/>
<use data-text="D" xlink:href="#font_13_2" transform="matrix(12.3978,0,0,-12.3978,148.397,46.822008)"/>
<use data-text="t" xlink:href="#font_11_41" transform="matrix(8.6076,0,0,-8.6076,157.95981,48.681406)"/>
<use data-text="r" xlink:href="#font_11_39" transform="matrix(8.6076,0,0,-8.6076,161.14463,48.681406)"/>
<use data-text="a" xlink:href="#font_11_19" transform="matrix(8.6076,0,0,-8.6076,164.32944,48.681406)"/>
<use data-text="i" xlink:href="#font_11_27" transform="matrix(8.6076,0,0,-8.6076,168.42665,48.681406)"/>
<use data-text="n" xlink:href="#font_11_31" transform="matrix(8.6076,0,0,-8.6076,170.69905,48.681406)"/>
<path transform="matrix(1,0,0,-1,195.9931,48.034906)" d="M0 0V9.038C0 11.239 1.784 13.023 3.985 13.023H64.048C66.249 13.023 68.033 11.239 68.033 9.038V0C68.033-2.201 66.249-3.985 64.048-3.985H3.985C1.784-3.985 0-2.201 0 0Z" fill="#3b528b"/>
<path transform="matrix(1,0,0,-1,195.9931,48.034906)" stroke-width=".398" stroke-linecap="butt" stroke-miterlimit="10" stroke-linejoin="miter" fill="none" stroke="#000000" d="M0 0V9.038C0 11.239 1.784 13.023 3.985 13.023H64.048C66.249 13.023 68.033 11.239 68.033 9.038V0C68.033-2.201 66.249-3.985 64.048-3.985H3.985C1.784-3.985 0-2.201 0 0Z"/>
<use data-text="D" xlink:href="#font_13_2" transform="matrix(12.3978,0,0,-12.3978,218.454,46.822008)" fill="#ffffff"/>
<use data-text="t" xlink:href="#font_11_41" transform="matrix(8.6076,0,0,-8.6076,228.0174,48.681406)" fill="#ffffff"/>
<use data-text="e" xlink:href="#font_11_23" transform="matrix(8.6076,0,0,-8.6076,231.20221,48.681406)" fill="#ffffff"/>
<use data-text="s" xlink:href="#font_11_40" transform="matrix(8.6076,0,0,-8.6076,234.84323,48.681406)" fill="#ffffff"/>
<use data-text="t" xlink:href="#font_11_41" transform="matrix(8.6076,0,0,-8.6076,238.07108,48.681406)" fill="#ffffff"/>
<path transform="matrix(1,0,0,-1,298.0426,48.034906)" d="M0 0V9.038C0 11.239 1.784 13.023 3.985 13.023H64.048C66.249 13.023 68.033 11.239 68.033 9.038V0C68.033-2.201 66.249-3.985 64.048-3.985H3.985C1.784-3.985 0-2.201 0 0Z" fill="#9ddea1"/>
<path transform="matrix(1,0,0,-1,298.0426,48.034906)" stroke-width=".398" stroke-linecap="butt" stroke-miterlimit="10" stroke-linejoin="miter" fill="none" stroke="#000000" d="M0 0V9.038C0 11.239 1.784 13.023 3.985 13.023H64.048C66.249 13.023 68.033 11.239 68.033 9.038V0C68.033-2.201 66.249-3.985 64.048-3.985H3.985C1.784-3.985 0-2.201 0 0Z"/>
<use data-text="M" xlink:href="#font_10_4" transform="matrix(12.3978,0,0,-12.3978,311.157,47.785005)"/>
<use data-text="e" xlink:href="#font_10_10" transform="matrix(12.3978,0,0,-12.3978,321.67036,47.785005)"/>
<use data-text="a" xlink:href="#font_10_6" transform="matrix(12.3978,0,0,-12.3978,326.76585,47.785005)"/>
<use data-text="s" xlink:href="#font_10_20" transform="matrix(12.3978,0,0,-12.3978,332.506,47.785005)"/>
<use data-text="u" xlink:href="#font_10_22" transform="matrix(12.3978,0,0,-12.3978,337.03123,47.785005)"/>
<use data-text="r" xlink:href="#font_10_19" transform="matrix(12.3978,0,0,-12.3978,343.4037,47.785005)"/>
<use data-text="e" xlink:href="#font_10_10" transform="matrix(12.3978,0,0,-12.3978,347.86689,47.785005)"/>
<path transform="matrix(1,0,0,-1,400.0922,48.034906)" d="M0 0V9.038C0 11.239 1.784 13.023 3.985 13.023H64.048C66.249 13.023 68.033 11.239 68.033 9.038V0C68.033-2.201 66.249-3.985 64.048-3.985H3.985C1.784-3.985 0-2.201 0 0Z" fill="#ccea84"/>
<path transform="matrix(1,0,0,-1,400.0922,48.034906)" stroke-width=".398" stroke-linecap="butt" stroke-miterlimit="10" stroke-linejoin="miter" fill="none" stroke="#000000" d="M0 0V9.038C0 11.239 1.784 13.023 3.985 13.023H64.048C66.249 13.023 68.033 11.239 68.033 9.038V0C68.033-2.201 66.249-3.985 64.048-3.985H3.985C1.784-3.985 0-2.201 0 0Z"/>
<use data-text="P" xlink:href="#font_10_5" transform="matrix(12.3978,0,0,-12.3978,402.803,47.785005)"/>
<use data-text="e" xlink:href="#font_10_10" transform="matrix(12.3978,0,0,-12.3978,410.29103,47.785005)"/>
<use data-text="r" xlink:href="#font_10_19" transform="matrix(12.3978,0,0,-12.3978,415.3865,47.785005)"/>
<use data-text="f" xlink:href="#font_10_11" transform="matrix(12.3978,0,0,-12.3978,419.8497,47.785005)"/>
<use data-text="o" xlink:href="#font_10_17" transform="matrix(12.3978,0,0,-12.3978,423.35829,47.785005)"/>
<use data-text="r" xlink:href="#font_10_19" transform="matrix(12.3978,0,0,-12.3978,429.09846,47.785005)"/>
<use data-text="m" xlink:href="#font_10_15" transform="matrix(12.3978,0,0,-12.3978,433.56166,47.785005)"/>
<use data-text="a" xlink:href="#font_10_6" transform="matrix(12.3978,0,0,-12.3978,443.12037,47.785005)"/>
<use data-text="n" xlink:href="#font_10_16" transform="matrix(12.3978,0,0,-12.3978,448.86054,47.785005)"/>
<use data-text="c" xlink:href="#font_10_8" transform="matrix(12.3978,0,0,-12.3978,455.233,47.785005)"/>
<use data-text="e" xlink:href="#font_10_10" transform="matrix(12.3978,0,0,-12.3978,460.3285,47.785005)"/>
<path transform="matrix(1,0,0,-1,93.9435,99.05971)" d="M0 0V9.038C0 11.239 1.784 13.023 3.985 13.023H64.048C66.249 13.023 68.033 11.239 68.033 9.038V0C68.033-2.201 66.249-3.985 64.048-3.985H3.985C1.784-3.985 0-2.201 0 0Z" fill="#79bcba"/>
<path transform="matrix(1,0,0,-1,93.9435,99.05971)" stroke-width=".398" stroke-linecap="butt" stroke-miterlimit="10" stroke-linejoin="miter" fill="none" stroke="#000000" d="M0 0V9.038C0 11.239 1.784 13.023 3.985 13.023H64.048C66.249 13.023 68.033 11.239 68.033 9.038V0C68.033-2.201 66.249-3.985 64.048-3.985H3.985C1.784-3.985 0-2.201 0 0Z"/>
<use data-text="L" xlink:href="#font_10_3" transform="matrix(12.3978,0,0,-12.3978,108.765,98.809009)" fill="#ffffff"/>
<use data-text="e" xlink:href="#font_10_10" transform="matrix(12.3978,0,0,-12.3978,115.93093,98.809009)" fill="#ffffff"/>
<use data-text="a" xlink:href="#font_10_6" transform="matrix(12.3978,0,0,-12.3978,121.02643,98.809009)" fill="#ffffff"/>
<use data-text="r" xlink:href="#font_10_19" transform="matrix(12.3978,0,0,-12.3978,126.76661,98.809009)" fill="#ffffff"/>
<use data-text="n" xlink:href="#font_10_16" transform="matrix(12.3978,0,0,-12.3978,131.22982,98.809009)" fill="#ffffff"/>
<use data-text="e" xlink:href="#font_10_10" transform="matrix(12.3978,0,0,-12.3978,137.60228,98.809009)" fill="#ffffff"/>
<use data-text="r" xlink:href="#font_10_19" transform="matrix(12.3978,0,0,-12.3978,142.69777,98.809009)" fill="#ffffff"/>
<path transform="matrix(1,0,0,-1,195.9931,99.05971)" d="M0 0V9.038C0 11.239 1.784 13.023 3.985 13.023H64.048C66.249 13.023 68.033 11.239 68.033 9.038V0C68.033-2.201 66.249-3.985 64.048-3.985H3.985C1.784-3.985 0-2.201 0 0Z" fill="#79bcba"/>
<path transform="matrix(1,0,0,-1,195.9931,99.05971)" stroke-width=".398" stroke-linecap="butt" stroke-miterlimit="10" stroke-linejoin="miter" fill="none" stroke="#000000" d="M0 0V9.038C0 11.239 1.784 13.023 3.985 13.023H64.048C66.249 13.023 68.033 11.239 68.033 9.038V0C68.033-2.201 66.249-3.985 64.048-3.985H3.985C1.784-3.985 0-2.201 0 0Z"/>
<use data-text="M" xlink:href="#font_10_4" transform="matrix(12.3978,0,0,-12.3978,214.397,98.809009)" fill="#ffffff"/>
<use data-text="o" xlink:href="#font_10_17" transform="matrix(12.3978,0,0,-12.3978,224.91034,98.809009)" fill="#ffffff"/>
<use data-text="d" xlink:href="#font_10_9" transform="matrix(12.3978,0,0,-12.3978,230.9726,98.809009)" fill="#ffffff"/>
<use data-text="e" xlink:href="#font_10_10" transform="matrix(12.3978,0,0,-12.3978,237.34506,98.809009)" fill="#ffffff"/>
<use data-text="l" xlink:href="#font_10_14" transform="matrix(12.3978,0,0,-12.3978,242.44055,98.809009)" fill="#ffffff"/>
<path transform="matrix(1,0,0,-1,298.0426,99.05971)" d="M0 0V9.038C0 11.239 1.784 13.023 3.985 13.023H64.048C66.249 13.023 68.033 11.239 68.033 9.038V0C68.033-2.201 66.249-3.985 64.048-3.985H3.985C1.784-3.985 0-2.201 0 0Z" fill="#9081af"/>
<path transform="matrix(1,0,0,-1,298.0426,99.05971)" stroke-width=".398" stroke-linecap="butt" stroke-miterlimit="10" stroke-linejoin="miter" fill="none" stroke="#000000" d="M0 0V9.038C0 11.239 1.784 13.023 3.985 13.023H64.048C66.249 13.023 68.033 11.239 68.033 9.038V0C68.033-2.201 66.249-3.985 64.048-3.985H3.985C1.784-3.985 0-2.201 0 0Z"/>
<use data-text="P" xlink:href="#font_10_5" transform="matrix(12.3978,0,0,-12.3978,306.173,98.809009)" fill="#ffffff"/>
<use data-text="r" xlink:href="#font_10_19" transform="matrix(12.3978,0,0,-12.3978,313.9836,98.809009)" fill="#ffffff"/>
<use data-text="e" xlink:href="#font_10_10" transform="matrix(12.3978,0,0,-12.3978,318.4468,98.809009)" fill="#ffffff"/>
<use data-text="d" xlink:href="#font_10_9" transform="matrix(12.3978,0,0,-12.3978,323.5423,98.809009)" fill="#ffffff"/>
<use data-text="i" xlink:href="#font_10_13" transform="matrix(12.3978,0,0,-12.3978,329.91477,98.809009)" fill="#ffffff"/>
<use data-text="c" xlink:href="#font_10_8" transform="matrix(12.3978,0,0,-12.3978,333.101,98.809009)" fill="#ffffff"/>
<use data-text="t" xlink:href="#font_10_21" transform="matrix(12.3978,0,0,-12.3978,338.1965,98.809009)" fill="#ffffff"/>
<use data-text="i" xlink:href="#font_10_13" transform="matrix(12.3978,0,0,-12.3978,342.6597,98.809009)" fill="#ffffff"/>
<use data-text="o" xlink:href="#font_10_17" transform="matrix(12.3978,0,0,-12.3978,345.84596,98.809009)" fill="#ffffff"/>
<use data-text="n" xlink:href="#font_10_16" transform="matrix(12.3978,0,0,-12.3978,351.58613,98.809009)" fill="#ffffff"/>
<path transform="matrix(1,0,0,-1,264.0261,128.5572)" stroke-width="2.989" stroke-linecap="butt" stroke-miterlimit="10" stroke-linejoin="miter" fill="none" stroke="#929292" d="M0 0H130.015"/>
<path transform="matrix(1,0,0,-1,398.78459,128.55716)" d="M0 0-4.339 3.507V0-3.507Z" fill="#929292"/>
<path transform="matrix(1,0,0,-1,398.78459,128.55716)" stroke-width="1.619" stroke-linecap="butt" stroke-linejoin="round" fill="none" stroke="#929292" d="M0 0-4.339 3.507V0-3.507Z"/>
<path transform="matrix(1,0,0,-1,59.927,133.0762)" d="M0 0V9.038C0 11.239 1.784 13.023 3.985 13.023H64.048C66.249 13.023 68.033 11.239 68.033 9.038V0C68.033-2.201 66.249-3.985 64.048-3.985H3.985C1.784-3.985 0-2.201 0 0Z" fill="#cbebe1"/>
<path transform="matrix(1,0,0,-1,59.927,133.0762)" stroke-width=".398" stroke-linecap="butt" stroke-miterlimit="10" stroke-linejoin="miter" fill="none" stroke="#000000" d="M0 0V9.038C0 11.239 1.784 13.023 3.985 13.023H64.048C66.249 13.023 68.033 11.239 68.033 9.038V0C68.033-2.201 66.249-3.985 64.048-3.985H3.985C1.784-3.985 0-2.201 0 0Z"/>
<use data-text="D" xlink:href="#font_13_2" transform="matrix(12.3978,0,0,-12.3978,80.364,131.862)"/>
<use data-text="t" xlink:href="#font_11_41" transform="matrix(8.6076,0,0,-8.6076,89.9274,133.72202)"/>
<use data-text="r" xlink:href="#font_11_39" transform="matrix(8.6076,0,0,-8.6076,93.11221,133.72202)"/>
<use data-text="a" xlink:href="#font_11_19" transform="matrix(8.6076,0,0,-8.6076,96.29703,133.72202)"/>
<use data-text="i" xlink:href="#font_11_27" transform="matrix(8.6076,0,0,-8.6076,100.39425,133.72202)"/>
<use data-text="n" xlink:href="#font_11_31" transform="matrix(8.6076,0,0,-8.6076,102.66666,133.72202)"/>
<path transform="matrix(1,0,0,-1,127.95999,133.0762)" d="M0 0V9.038C0 11.239 1.784 13.023 3.985 13.023H64.048C66.249 13.023 68.033 11.239 68.033 9.038V0C68.033-2.201 66.249-3.985 64.048-3.985H3.985C1.784-3.985 0-2.201 0 0Z" fill="#3b528b"/>
<path transform="matrix(1,0,0,-1,127.95999,133.0762)" stroke-width=".398" stroke-linecap="butt" stroke-miterlimit="10" stroke-linejoin="miter" fill="none" stroke="#000000" d="M0 0V9.038C0 11.239 1.784 13.023 3.985 13.023H64.048C66.249 13.023 68.033 11.239 68.033 9.038V0C68.033-2.201 66.249-3.985 64.048-3.985H3.985C1.784-3.985 0-2.201 0 0Z"/>
<use data-text="D" xlink:href="#font_13_2" transform="matrix(12.3978,0,0,-12.3978,150.422,131.862)" fill="#ffffff"/>
<use data-text="t" xlink:href="#font_11_41" transform="matrix(8.6076,0,0,-8.6076,159.9854,133.72202)" fill="#ffffff"/>
<use data-text="e" xlink:href="#font_11_23" transform="matrix(8.6076,0,0,-8.6076,163.17021,133.72202)" fill="#ffffff"/>
<use data-text="s" xlink:href="#font_11_40" transform="matrix(8.6076,0,0,-8.6076,166.81124,133.72202)" fill="#ffffff"/>
<use data-text="t" xlink:href="#font_11_41" transform="matrix(8.6076,0,0,-8.6076,170.03908,133.72202)" fill="#ffffff"/>
<path transform="matrix(1,0,0,-1,195.9931,133.0762)" d="M0 0V9.038C0 11.239 1.784 13.023 3.985 13.023H64.048C66.249 13.023 68.033 11.239 68.033 9.038V0C68.033-2.201 66.249-3.985 64.048-3.985H3.985C1.784-3.985 0-2.201 0 0Z" fill="#cbebe1"/>
<path transform="matrix(1,0,0,-1,195.9931,133.0762)" stroke-width=".398" stroke-linecap="butt" stroke-miterlimit="10" stroke-linejoin="miter" fill="none" stroke="#000000" d="M0 0V9.038C0 11.239 1.784 13.023 3.985 13.023H64.048C66.249 13.023 68.033 11.239 68.033 9.038V0C68.033-2.201 66.249-3.985 64.048-3.985H3.985C1.784-3.985 0-2.201 0 0Z"/>
<use data-text="D" xlink:href="#font_13_2" transform="matrix(12.3978,0,0,-12.3978,216.429,131.862)"/>
<use data-text="t" xlink:href="#font_11_41" transform="matrix(8.6076,0,0,-8.6076,225.9924,133.72202)"/>
<use data-text="r" xlink:href="#font_11_39" transform="matrix(8.6076,0,0,-8.6076,229.17722,133.72202)"/>
<use data-text="a" xlink:href="#font_11_19" transform="matrix(8.6076,0,0,-8.6076,232.36203,133.72202)"/>
<use data-text="i" xlink:href="#font_11_27" transform="matrix(8.6076,0,0,-8.6076,236.45925,133.72202)"/>
<use data-text="n" xlink:href="#font_11_31" transform="matrix(8.6076,0,0,-8.6076,238.73165,133.72202)"/>
<path transform="matrix(1,0,0,-1,400.0922,133.0762)" d="M0 0V9.038C0 11.239 1.784 13.023 3.985 13.023H64.048C66.249 13.023 68.033 11.239 68.033 9.038V0C68.033-2.201 66.249-3.985 64.048-3.985H3.985C1.784-3.985 0-2.201 0 0Z" fill="#ccea84"/>
<path transform="matrix(1,0,0,-1,400.0922,133.0762)" stroke-width=".398" stroke-linecap="butt" stroke-miterlimit="10" stroke-linejoin="miter" fill="none" stroke="#000000" d="M0 0V9.038C0 11.239 1.784 13.023 3.985 13.023H64.048C66.249 13.023 68.033 11.239 68.033 9.038V0C68.033-2.201 66.249-3.985 64.048-3.985H3.985C1.784-3.985 0-2.201 0 0Z"/>
<use data-text="P" xlink:href="#font_10_5" transform="matrix(12.3978,0,0,-12.3978,402.803,132.82501)"/>
<use data-text="e" xlink:href="#font_10_10" transform="matrix(12.3978,0,0,-12.3978,410.29103,132.82501)"/>
<use data-text="r" xlink:href="#font_10_19" transform="matrix(12.3978,0,0,-12.3978,415.3865,132.82501)"/>
<use data-text="f" xlink:href="#font_10_11" transform="matrix(12.3978,0,0,-12.3978,419.8497,132.82501)"/>
<use data-text="o" xlink:href="#font_10_17" transform="matrix(12.3978,0,0,-12.3978,423.35829,132.82501)"/>
<use data-text="r" xlink:href="#font_10_19" transform="matrix(12.3978,0,0,-12.3978,429.09846,132.82501)"/>
<use data-text="m" xlink:href="#font_10_15" transform="matrix(12.3978,0,0,-12.3978,433.56166,132.82501)"/>
<use data-text="a" xlink:href="#font_10_6" transform="matrix(12.3978,0,0,-12.3978,443.12037,132.82501)"/>
<use data-text="n" xlink:href="#font_10_16" transform="matrix(12.3978,0,0,-12.3978,448.86054,132.82501)"/>
<use data-text="c" xlink:href="#font_10_8" transform="matrix(12.3978,0,0,-12.3978,455.233,132.82501)"/>
<use data-text="e" xlink:href="#font_10_10" transform="matrix(12.3978,0,0,-12.3978,460.3285,132.82501)"/>
<path transform="matrix(1,0,0,-1,264.0261,162.5737)" stroke-width="2.989" stroke-linecap="butt" stroke-miterlimit="10" stroke-linejoin="miter" fill="none" stroke="#929292" d="M0 0H130.015"/>
<path transform="matrix(1,0,0,-1,398.78459,162.57367)" d="M0 0-4.339 3.507V0-3.507Z" fill="#929292"/>
<path transform="matrix(1,0,0,-1,398.78459,162.57367)" stroke-width="1.619" stroke-linecap="butt" stroke-linejoin="round" fill="none" stroke="#929292" d="M0 0-4.339 3.507V0-3.507Z"/>
<path transform="matrix(1,0,0,-1,59.927,167.09272)" d="M0 0V9.038C0 11.239 1.784 13.023 3.985 13.023H64.048C66.249 13.023 68.033 11.239 68.033 9.038V0C68.033-2.201 66.249-3.985 64.048-3.985H3.985C1.784-3.985 0-2.201 0 0Z" fill="#3b528b"/>
<path transform="matrix(1,0,0,-1,59.927,167.09272)" stroke-width=".398" stroke-linecap="butt" stroke-miterlimit="10" stroke-linejoin="miter" fill="none" stroke="#000000" d="M0 0V9.038C0 11.239 1.784 13.023 3.985 13.023H64.048C66.249 13.023 68.033 11.239 68.033 9.038V0C68.033-2.201 66.249-3.985 64.048-3.985H3.985C1.784-3.985 0-2.201 0 0Z"/>
<use data-text="D" xlink:href="#font_13_2" transform="matrix(12.3978,0,0,-12.3978,82.39,165.878)" fill="#ffffff"/>
<use data-text="t" xlink:href="#font_11_41" transform="matrix(8.6076,0,0,-8.6076,91.9534,167.738)" fill="#ffffff"/>
<use data-text="e" xlink:href="#font_11_23" transform="matrix(8.6076,0,0,-8.6076,95.138217,167.738)" fill="#ffffff"/>
<use data-text="s" xlink:href="#font_11_40" transform="matrix(8.6076,0,0,-8.6076,98.77923,167.738)" fill="#ffffff"/>
<use data-text="t" xlink:href="#font_11_41" transform="matrix(8.6076,0,0,-8.6076,102.00708,167.738)" fill="#ffffff"/>
<path transform="matrix(1,0,0,-1,127.95999,167.09272)" d="M0 0V9.038C0 11.239 1.784 13.023 3.985 13.023H64.048C66.249 13.023 68.033 11.239 68.033 9.038V0C68.033-2.201 66.249-3.985 64.048-3.985H3.985C1.784-3.985 0-2.201 0 0Z" fill="#cbebe1"/>
<path transform="matrix(1,0,0,-1,127.95999,167.09272)" stroke-width=".398" stroke-linecap="butt" stroke-miterlimit="10" stroke-linejoin="miter" fill="none" stroke="#000000" d="M0 0V9.038C0 11.239 1.784 13.023 3.985 13.023H64.048C66.249 13.023 68.033 11.239 68.033 9.038V0C68.033-2.201 66.249-3.985 64.048-3.985H3.985C1.784-3.985 0-2.201 0 0Z"/>
<use data-text="D" xlink:href="#font_13_2" transform="matrix(12.3978,0,0,-12.3978,148.397,165.878)"/>
<use data-text="t" xlink:href="#font_11_41" transform="matrix(8.6076,0,0,-8.6076,157.95981,167.738)"/>
<use data-text="r" xlink:href="#font_11_39" transform="matrix(8.6076,0,0,-8.6076,161.14463,167.738)"/>
<use data-text="a" xlink:href="#font_11_19" transform="matrix(8.6076,0,0,-8.6076,164.32944,167.738)"/>
<use data-text="i" xlink:href="#font_11_27" transform="matrix(8.6076,0,0,-8.6076,168.42665,167.738)"/>
<use data-text="n" xlink:href="#font_11_31" transform="matrix(8.6076,0,0,-8.6076,170.69905,167.738)"/>
<path transform="matrix(1,0,0,-1,195.9931,167.09272)" d="M0 0V9.038C0 11.239 1.784 13.023 3.985 13.023H64.048C66.249 13.023 68.033 11.239 68.033 9.038V0C68.033-2.201 66.249-3.985 64.048-3.985H3.985C1.784-3.985 0-2.201 0 0Z" fill="#cbebe1"/>
<path transform="matrix(1,0,0,-1,195.9931,167.09272)" stroke-width=".398" stroke-linecap="butt" stroke-miterlimit="10" stroke-linejoin="miter" fill="none" stroke="#000000" d="M0 0V9.038C0 11.239 1.784 13.023 3.985 13.023H64.048C66.249 13.023 68.033 11.239 68.033 9.038V0C68.033-2.201 66.249-3.985 64.048-3.985H3.985C1.784-3.985 0-2.201 0 0Z"/>
<use data-text="D" xlink:href="#font_13_2" transform="matrix(12.3978,0,0,-12.3978,216.429,165.878)"/>
<use data-text="t" xlink:href="#font_11_41" transform="matrix(8.6076,0,0,-8.6076,225.9924,167.738)"/>
<use data-text="r" xlink:href="#font_11_39" transform="matrix(8.6076,0,0,-8.6076,229.17722,167.738)"/>
<use data-text="a" xlink:href="#font_11_19" transform="matrix(8.6076,0,0,-8.6076,232.36203,167.738)"/>
<use data-text="i" xlink:href="#font_11_27" transform="matrix(8.6076,0,0,-8.6076,236.45925,167.738)"/>
<use data-text="n" xlink:href="#font_11_31" transform="matrix(8.6076,0,0,-8.6076,238.73165,167.738)"/>
<path transform="matrix(1,0,0,-1,400.0922,167.09272)" d="M0 0V9.038C0 11.239 1.784 13.023 3.985 13.023H64.048C66.249 13.023 68.033 11.239 68.033 9.038V0C68.033-2.201 66.249-3.985 64.048-3.985H3.985C1.784-3.985 0-2.201 0 0Z" fill="#ccea84"/>
<path transform="matrix(1,0,0,-1,400.0922,167.09272)" stroke-width=".398" stroke-linecap="butt" stroke-miterlimit="10" stroke-linejoin="miter" fill="none" stroke="#000000" d="M0 0V9.038C0 11.239 1.784 13.023 3.985 13.023H64.048C66.249 13.023 68.033 11.239 68.033 9.038V0C68.033-2.201 66.249-3.985 64.048-3.985H3.985C1.784-3.985 0-2.201 0 0Z"/>
<use data-text="P" xlink:href="#font_10_5" transform="matrix(12.3978,0,0,-12.3978,402.803,166.841)"/>
<use data-text="e" xlink:href="#font_10_10" transform="matrix(12.3978,0,0,-12.3978,410.29103,166.841)"/>
<use data-text="r" xlink:href="#font_10_19" transform="matrix(12.3978,0,0,-12.3978,415.3865,166.841)"/>
<use data-text="f" xlink:href="#font_10_11" transform="matrix(12.3978,0,0,-12.3978,419.8497,166.841)"/>
<use data-text="o" xlink:href="#font_10_17" transform="matrix(12.3978,0,0,-12.3978,423.35829,166.841)"/>
<use data-text="r" xlink:href="#font_10_19" transform="matrix(12.3978,0,0,-12.3978,429.09846,166.841)"/>
<use data-text="m" xlink:href="#font_10_15" transform="matrix(12.3978,0,0,-12.3978,433.56166,166.841)"/>
<use data-text="a" xlink:href="#font_10_6" transform="matrix(12.3978,0,0,-12.3978,443.12037,166.841)"/>
<use data-text="n" xlink:href="#font_10_16" transform="matrix(12.3978,0,0,-12.3978,448.86054,166.841)"/>
<use data-text="c" xlink:href="#font_10_8" transform="matrix(12.3978,0,0,-12.3978,455.233,166.841)"/>
<use data-text="e" xlink:href="#font_10_10" transform="matrix(12.3978,0,0,-12.3978,460.3285,166.841)"/>
</svg>
