<svg xmlns="http://www.w3.org/2000/svg" xmlns:xlink="http://www.w3.org/1999/xlink" version="1.1" width="490.23pt" height="139.894pt" viewBox="0 0 490.23 139.894">
<defs>
<path id="font_101_1" d="M.18399048 .04798889C.18399048 .07699585 .1599884 .09700012 .13598633 .09700012 .10699463 .09700012 .08699036 .07299805 .08699036 .04899597 .08699036 .019989014 .11099243 0 .1349945 0 .1639862 0 .18399048 .023986817 .18399048 .04798889Z"/>
<path id="font_102_36" d="M.036987306 .430542V.3995819H.055999757C.084991458 .3995819 .11099243 .3955841 .11099243 .34962464V.07292175C.11099243 .037963869 .09298706 .031967164 .032989503 .031967164V.0009765625H.24798584V.031967164H.22799683C.20199585 .031967164 .17799378 .034973146 .17799378 .06692505V.44154359L.036987306 .430542M.12098694 .6689453C.09599304 .66589358 .07598877 .64382937 .07598877 .61672976 .07598877 .5876312 .100997928 .5635376 .1289978 .5635376 .1559906 .5635376 .18199158 .58561709 .18199158 .61672976 .18199158 .64582827 .15699768 .6699219 .1289978 .6699219 .12599182 .66993716 .12399292 .6689453 .12098694 .6689453Z"/>
<path id="font_102_41" d="M.03199768 .43138124V.4003601H.04699707C.07998657 .4003601 .10998535 .39735414 .10998535 .35029603V.074020389C.10998535 .032974245 .08198547 .031967164 .037994386 .031967164H.03199768V.0009765625H.2579956V.031967164H.23199463C.20399475 .031967164 .17999268 .035980226 .17999268 .073013309V.25621034C.17999268 .3282776 .21699524 .42037965 .31599427 .42037965 .37998963 .42037965 .38598634 .3513031 .38598634 .30825807V.069000247C.38598634 .034973146 .35699464 .031967164 .32598878 .031967164H.30799867V.0009765625H.5339966V.031967164H.5089874C.48199464 .031967164 .45599366 .035980226 .45599366 .070007327V.28923036C.45599366 .32226563 .45498658 .35630799 .43899537 .38633729 .41600038 .43037416 .36499024 .4423828 .31900025 .4423828 .2579956 .4423828 .19499207 .4003601 .1749878 .34028626L.17399597 .4423828 .03199768 .43138124Z"/>
<path id="font_102_50" d="M.17599488 .4482422C.13899231 .44422914 .099990848 .4372406 .070999149 .41223146 .04699707 .39123536 .032989503 .35723878 .032989503 .32522584 .032989503 .15423584 .31098939 .25123597 .31098939 .10122681 .31098939 .040222169 .2559967 .01222229 .20098877 .01222229 .125 .01222229 .07398987 .066223148 .05999756 .15222168 .057998659 .16122437 .056991579 .17022705 .04499817 .17022705 .036987306 .17022705 .032989503 .16423035 .032989503 .15722656V-.00077819827C.033996583-.0057678224 .036987306-.008773804 .041992189-.009765625H.04399109C.05999756-.009765625 .07598877 .02722168 .08799744 .030227662H.08898926C.09700012 .030227662 .12399292 .0052337648 .14498902-.0017700195 .1619873-.0077667238 .17999268-.009765625 .19799805-.009765625 .2809906-.009765625 .3600006 .034225465 .3600006 .12623596 .3600006 .19223023 .31199647 .24623108 .24598694 .26322938 .18399048 .28022767 .08198547 .28022767 .08198547 .3532257 .08198547 .4142151 .14898682 .42921449 .19299317 .42921449 .24198914 .42921449 .30999757 .40220643 .30999757 .3162079 .30999757 .30722047 .31098939 .2992096 .32199098 .2992096 .33198548 .2992096 .33599855 .30722047 .33599855 .31721498 .33599855 .32221986 .33499146 .32720948 .33499146 .33120729V.4342041C.33499146 .44023133 .33198548 .4482422 .32398988 .4482422 .30799867 .4482422 .2979889 .42323304 .2869873 .42323304H.28599549C.27799989 .42323304 .2619934 .43623353 .25 .44023133 .23199463 .44621278 .21199036 .44921876 .19299317 .44921876 .18699646 .449234 .18199158 .4482422 .17599488 .4482422Z"/>
<path id="font_102_51" d="M.14898682 .6152344C.14898682 .54644778 .11999512 .421875 .017990113 .421875V.39987184H.10398865V.1421051C.10398865 .10914612 .10598755 .076171878 .12199402 .047195436 .14399719 .007232666 .19099427-.009765625 .23498535-.009765625 .31698609-.009765625 .33299256 .08216858 .33299256 .14511109V.18206787H.30799867C.30799867 .16708374 .30899049 .15209961 .30899049 .1361084 .30899049 .09214783 .29899598 .0152282719 .23999024 .0152282719 .18299866 .0152282719 .17399597 .08416748 .17399597 .12911988V.39987184H.31599427V.43066407H.17399597V.6152344H.14898682Z"/>
<path id="font_102_23" d="M.11199951 .3812256C.13699341 .41223146 .18099976 .426239 .21798706 .426239 .2919922 .426239 .32499696 .3592224 .32499696 .288208V.26220704C.20999146 .26220704 .040985109 .22619629 .040985109 .095214847V.08721924C.04899597 .010223389 .1459961-.009765625 .20298767-.009765625 .2539978-.009765625 .31900025 .024230957 .33198548 .07522583H.33299256C.33898927 .032226564 .3659973-.004776001 .41099549-.004776001 .45199586-.004776001 .48799134 .02822876 .49299623 .07322693V.14620972H.46798707V.095214847C.46798707 .068222049 .46299745 .02722168 .43199159 .02722168 .3999939 .02722168 .394989 .066223148 .394989 .09321594V.26020814C.394989 .27320863 .3959961 .28520204 .3959961 .29821778 .3959961 .39523316 .30499269 .4482422 .22200012 .4482422 .15899658 .4482422 .069992069 .41723634 .069992069 .33721925 .069992069 .30822755 .09098816 .28923036 .116989139 .28923036 .14498902 .28923036 .1619873 .31123353 .1619873 .3352356 .1619873 .3642273 .13899231 .38124085 .11199951 .38124085V.3812256M.32499696 .24121094V.14021302C.32499696 .07122803 .2769928 .016220093 .21199036 .01222229H.20799256C.16099549 .01222229 .11898804 .049224855 .11898804 .097213748V.10221863C.12599182 .2032013 .23899842 .23820496 .32499696 .24121094Z"/>
<path id="font_102_25" d="M.35899354 .38723756C.33299256 .38523866 .31199647 .36923219 .31199647 .3412323 .31199647 .3142395 .33099366 .29522706 .35798646 .29522706 .3880005 .29522706 .4039917 .31723023 .4039917 .3452301V.3512268C.3939972 .4242401 .30899049 .4482422 .25099183 .4482422 .1289978 .4482422 .032989503 .3412323 .032989503 .21723938 .032989503 .10423279 .12098694-.009765625 .25-.009765625 .31599427-.009765625 .3809967 .026229859 .4079895 .096221927 .4099884 .10223389 .4149933 .11123657 .4149933 .1182251 .4149933 .12522888 .4099884 .13023377 .40299989 .13023377 .3880005 .13023377 .3789978 .09222412 .37199403 .07922363 .34799195 .040222169 .30699159 .016220093 .2619934 .0152282719 .15499878 .0152282719 .12199402 .1222229 .116989139 .20123291V.21322632C.116989139 .29322816 .13598633 .41323854 .24598694 .42323304H.2539978C.29100038 .42323304 .32998658 .41223146 .35899354 .38723756Z"/>
<path id="font_102_29" d="M.11199951 .23242188H.3999939C.41099549 .23242188 .41600038 .2394104 .41600038 .250412 .41600038 .35630799 .35099793 .4482422 .23899842 .4482422 .115997318 .4482422 .027999878 .33932496 .027999878 .22039795 .027999878 .12832642 .07899475 .04624939 .16699219 .006225586 .18998719-.003768921 .21699524-.009765625 .24198914-.009765625H.24499512C.32199098-.009765625 .38598634 .0332489 .41299439 .110305789 .4139862 .11331177 .4139862 .11730957 .4139862 .12031555 .4139862 .12731934 .4099884 .13232422 .40299989 .13232422 .3880005 .13232422 .38198854 .0993042 .37599183 .08828735 .35099793 .04425049 .30299378 .0152282719 .25099183 .0152282719 .21398926 .0152282719 .18199158 .036239625 .15499878 .06326294 .114990238 .109313968 .11199951 .17436219 .11199951 .23242188M.11299133 .25341798C.11299133 .33033753 .1539917 .426239 .23599243 .426239H.24099732C.33898927 .41723634 .33799745 .3133545 .34799195 .25341798H.11299133Z"/>
<path id="font_102_44" d="M.026992798 .43138124V.4003601H.04598999C.07598877 .4003601 .10499573 .39736939 .10499573 .35734559V-.12220764C.10499573-.15835572 .07899475-.16236878 .049987794-.16236878H.026992798V-.19335938H.25299073V-.16236878H.22898865C.19898987-.16236878 .1749878-.15835572 .1749878-.12220764L.17599488 .051239015C.19898987 .010223389 .25498963-.009765625 .2979889-.009765625 .42199708-.009765625 .5209961 .09625244 .5209961 .21730042 .5209961 .3373413 .42799378 .4423828 .31098939 .4423828 .2559967 .4423828 .20799256 .41838075 .17199707 .3773651V.4423828L.026992798 .43138124M.43598939 .19929505C.43099977 .12626648 .3919983 .021224976 .30099488 .01222229H.29499818C.2519989 .01222229 .21299744 .036239625 .18899536 .072250369 .18099976 .08325195 .1749878 .09326172 .1749878 .10725403V.27531434C.1749878 .28833009 .17399597 .30133058 .17399597 .31433106 .17399597 .36735536 .24198914 .41737367 .30099488 .41737367 .4019928 .41737367 .43699647 .28633119 .43699647 .21530152 .43699647 .21029663 .43699647 .20429993 .43598939 .19929505Z"/>
<path id="font_102_49" d="M.026992798 .43138124V.4003601H.041992189C.07499695 .4003601 .10499573 .39735414 .10499573 .35029603V.074020389C.10499573 .032974245 .07699585 .031967164 .032989503 .031967164H.026992798V.0009765625H.2689972V.031967164C.25698854 .031967164 .24299622 .030975342 .23098755 .030975342 .19898987 .030975342 .17199707 .035980226 .17199707 .073013309V.20614624C.17199707 .2912445 .19198609 .42037965 .2899933 .42037965 .2939911 .42037965 .29699708 .42037965 .30099488 .41937257V.41836549C.28599549 .41236878 .27799989 .39634706 .27799989 .38032533 .27799989 .35731507 .29299928 .34129334 .31599427 .33728028 .34498597 .33728028 .3639984 .3553009 .3639984 .38032533 .3639984 .42037965 .32598878 .4423828 .2899933 .4423828 .23098755 .4423828 .17799378 .38934327 .16799927 .33528138L.16699219 .4423828 .026992798 .43138124Z"/>
<path id="font_102_42" d="M.23498535 .4482422C.10899353 .43522645 .027999878 .3292389 .027999878 .21322632 .027999878 .100234989 .116989139-.009765625 .25-.009765625 .36999513-.009765625 .47099305 .08822632 .47099305 .2142334 .47099305 .33320619 .3809967 .44921876 .24798584 .44921876 .24398804 .449234 .23899842 .4482422 .23498535 .4482422M.11199951 .19023133V.23423767C.11199951 .31021119 .13598633 .4262085 .24899292 .4262085 .32998658 .4262085 .37599183 .35821534 .3849945 .2822113 .3869934 .2602234 .3869934 .23921204 .3869934 .21722412 .3869934 .15222168 .37998963 .07122803 .31599427 .034225465 .29599 .021224976 .27398683 .0152282719 .25099183 .0152282719 .17799378 .0152282719 .1269989 .07221985 .115997318 .15022278 .11399841 .16322327 .11399841 .17721558 .11199951 .19021607V.19023133Z"/>
<path id="font_102_24" d="M.026992798 .6843109V.6533203H.04399109C.07499695 .6533203 .10499573 .65031436 .10499573 .6033325V.0012207031L.1289978 .0032196046 .14199829 .020233155 .1659851 .0622406H.16799927C.19198609 .014221191 .25099183-.009765625 .30099488-.009765625 .4249878-.009765625 .5209961 .09825134 .5209961 .21730042 .5209961 .33233644 .43299867 .4423828 .30499269 .4423828 .25299073 .4423828 .20698548 .41737367 .17199707 .37835694V.6953125L.026992798 .6843109M.43598939 .19229126C.43199159 .14427185 .4269867 .102264408 .39698792 .06524658 .37199403 .033233644 .33399964 .01222229 .2939911 .01222229 .25099183 .01222229 .21199036 .037231447 .18899536 .07324219 .18099976 .08425903 .1749878 .09326172 .1749878 .10826111V.27531434C.1749878 .28833009 .17399597 .30133058 .17399597 .31433106 .17399597 .37435914 .24699402 .42037965 .30299378 .42037965 .41099549 .42037965 .43699647 .29432679 .43699647 .21530152 .43699647 .20729065 .43699647 .20028687 .43598939 .19229126Z"/>
<path id="font_102_39" d="M.032989503 .68429568V.6532898H.04798889C.084991458 .6532898 .11099243 .64927676 .11099243 .6012573V.0960083C.11099243 .08900452 .11199951 .08200073 .11199951 .07398987 .11199951 .035964967 .084991458 .031967164 .056991579 .031967164H.032989503V.0009765625H.2559967V.031967164H.23098755C.20199585 .031967164 .17799378 .035964967 .17799378 .07499695V.6953125L.032989503 .68429568Z"/>
<path id="font_102_40" d="M.03199768 .43138124V.4003601H.04699707C.07998657 .4003601 .10998535 .39735414 .10998535 .35029603V.074020389C.10998535 .032974245 .08198547 .031967164 .037994386 .031967164H.03199768V.0009765625H.2579956V.031967164H.23199463C.20399475 .031967164 .17999268 .035980226 .17999268 .073013309V.25621034C.17999268 .32928468 .21998596 .42037965 .31599427 .42037965 .37998963 .42037965 .3869934 .35430909 .3869934 .30825807V.070007327C.3869934 .033966066 .35699464 .031967164 .32398988 .031967164H.30899049V.0009765625H.5349884V.031967164H.5089874C.48098756 .031967164 .45700074 .035980226 .45700074 .073013309V.25621034C.45700074 .32928468 .49699403 .42037965 .59298709 .42037965 .6569977 .42037965 .6639862 .35430909 .6639862 .30825807V.070007327C.6639862 .033966066 .6339874 .031967164 .6009979 .031967164H.58599856V.0009765625H.81199648V.031967164H.79100039C.7609863 .031967164 .73399356 .034973146 .73399356 .070007327V.2962494C.73399356 .33328248 .7319946 .36631776 .70799258 .4003601 .6819916 .43338014 .6389923 .4423828 .598999 .4423828 .5339966 .4423828 .48098756 .4043579 .45399476 .34629823 .43499757 .41737367 .3899994 .4423828 .32099916 .4423828 .25698854 .4423828 .19599915 .402359 .1749878 .34028626L.17399597 .4423828 .03199768 .43138124Z"/>
<path id="font_103_6" d="M.35798646 .55130007V.3925171C.32598878 .417511 .28799439 .43652345 .24699402 .43652345 .12399292 .43652345 .035995485 .33358766 .035995485 .21481323 .035995485 .10601807 .11099243 .0041046144 .22099304-.0048828127H.23098755C.2789917-.0048828127 .32299806 .015106201 .35798646 .050109865V.035110475C.35798646 .012969971 .36898805 .0009765625 .3919983 .0009765625H.47599793C.49499513 .0009765625 .5130005 .008972168 .5130005 .030975342 .5130005 .051971437 .49798585 .061965944 .47799684 .061965944H.42799378V.5791321C.42799378 .59921267 .41799928 .61328127 .3929901 .61328127 .3869934 .6132965 .3809967 .6123047 .375 .6123047H.30799867C.2899933 .6123047 .272995 .603302 .272995 .58229067 .272995 .56430056 .2849884 .55130007 .30599977 .55130007H.35798646M.10598755 .20483399C.10598755 .20982361 .10499573 .21382141 .10499573 .21881104 .10499573 .29566957 .16499329 .3755188 .24598694 .3755188H.2519989C.30299378 .37251283 .35099793 .3276062 .35798646 .28068543V.2297821C.35798646 .21881104 .35899354 .20683289 .35899354 .19485474 .35899354 .12298584 .29899598 .056106569 .23498535 .056106569 .15699768 .056106569 .11299133 .13595581 .10598755 .20483399Z"/>
<path id="font_103_2" d="M.16899109 .375412C.18699646 .37841798 .20698548 .38041688 .22599793 .38041688 .2849884 .38041688 .35398866 .35740663 .35398866 .2783203 .23399353 .2783203 .054992677 .2492981 .054992677 .12817383 .054992677 .035110475 .147995-.0048828127 .22200012-.0048828127 .269989-.0048828127 .31698609 .0041046144 .35499574 .027114869 .35699464 .02810669 .35899354 .03010559 .3619995 .03010559H.3639984C.36898805 .03010559 .3829956 .015106201 .3959961 .010116577 .42399598 .00010681152 .46099855 .00010681152 .48999024 .00010681152 .5139923 .00010681152 .5239868 .015106201 .5239868 .033111574V.036102296C.522995 .053115846 .5089874 .06210327 .49198915 .06210327H.46199037C.44299317 .06210327 .4229889 .06411743 .4229889 .08312988 .4229889 .088134769 .42399598 .09213257 .42399598 .09614563V.2783203C.42399598 .3734131 .35099793 .43441773 .25299073 .4404297H.21699524C.1639862 .4404297 .08099365 .43441773 .08099365 .36741639 .08099365 .3383789 .102996829 .32136537 .12599182 .32136537 .15098572 .32136537 .16999817 .3413849 .16999817 .36540223 .16999817 .3684082 .16999817 .37242127 .16899109 .375412M.35398866 .21826172V.13317871C.35398866 .068115238 .27999879 .056106569 .22999573 .056106569 .18798828 .056106569 .125 .07513428 .125 .12817383 .125 .1852417 .21699524 .20324707 .25698854 .21026612 .2889862 .215271 .32199098 .21826172 .35398866 .21826172Z"/>
<path id="font_103_24" d="M.1519928 .43066407H.06098938C.036987306 .43066407 .024993897 .4186554 .024993897 .3996582 .024993897 .37965394 .040985109 .36965943 .05999756 .36965943H.1519928V.11003113C.15899658 .037109376 .21598816-.0048828127 .2939911-.0048828127 .36799623-.0048828127 .44898988 .041107179 .44898988 .12301636V.1349945C.44898988 .16195679 .43099977 .16595459 .41299439 .16595459 .3909912 .16595459 .3789978 .15396118 .3789978 .1309967V.12400818C.3789978 .07807922 .33399964 .056106569 .2979889 .056106569 .24198914 .056106569 .22200012 .09005737 .22200012 .13600159V.36965943H.3869934C.40499879 .36965943 .4269867 .37265016 .4269867 .3996582 .4269867 .4186554 .4149933 .43066407 .3929901 .43066407H.22200012V.518692C.22200012 .547699 .20599365 .55371096 .18699646 .55371096 .16799927 .55371096 .1519928 .54670718 .1519928 .51768496V.43066407Z"/>
<path id="font_102_28" d="M.3039856 .6843109V.6533203H.31999208C.35499574 .6533203 .38198854 .6493225 .38198854 .5913391L.3809967 .38136292C.35699464 .42137147 .2999878 .4423828 .2539978 .4423828 .1309967 .4423828 .032989503 .3363495 .032989503 .21530152 .032989503 .10826111 .114990238-.009765625 .24699402-.009765625 .29899598-.009765625 .34599305 .0152282719 .3789978 .055236818V-.009765625L.5269928 .0012207031V.032226564H.5099945C.47898866 .032226564 .44898988 .035232545 .44898988 .08224487V.6953125L.3039856 .6843109M.116989139 .19128418V.20629883C.116989139 .2803192 .12599182 .35534669 .19499207 .4013672 .21499634 .41337586 .23799134 .42037965 .26098634 .42037965 .30999757 .42037965 .37998963 .38035584 .37998963 .31733705 .37998963 .30433656 .3789978 .2913208 .3789978 .2783203V.11225891C.3789978 .09925842 .37399293 .09025574 .36698915 .08024597 .34098817 .041244508 .2979889 .01222229 .25099183 .01222229 .17799378 .01222229 .13198853 .07925415 .12098694 .14826966 .11898804 .16227722 .11898804 .17729187 .116989139 .19128418Z"/>
<path id="font_102_57" d="M.018997193 .43066407V.3996582H.034988405C.06298828 .3996582 .084991458 .39665223 .101989749 .3586731 .147995 .24871826 .19198609 .13775635 .23899842 .027801514 .24198914 .019805909 .24899292 .00881958 .24899292-.00018310547 .24899292-.0011749268 .24798584-.0031738282 .24798584-.004180908 .24099732-.025177002 .23098755-.045166017 .22200012-.06515503 .20199585-.11413574 .17298889-.18211365 .11099243-.18211365 .09599304-.18211365 .07598877-.17611695 .06399536-.16412354 .08299255-.16111756 .102996829-.15011597 .102996829-.12213135 .102996829-.10014343 .08799744-.08215332 .06599426-.08015442 .034988405-.08015442 .018997193-.09814453 .018997193-.12313843 .018997193-.17311096 .06599426-.20410156 .11099243-.20410156H.11199951C.18399048-.20410156 .22200012-.13012696 .24699402-.07115173L.2769928 .0008239746C.31199647 .08677673 .34799195 .17274475 .38398744 .25871278L.4079895 .3156891C.4249878 .3626709 .45098878 .3996582 .5079956 .3996582V.43066407H.34700013V.3996582C.36999513 .3996582 .3929901 .383667 .3929901 .3586731 .3929901 .3456726 .3869934 .33268739 .38198854 .32069398 .35299684 .25271607 .32699586 .18374634 .29699708 .11576843 .2939911 .106781009 .2889862 .09777832 .2869873 .088775638H.28599549C.2789917 .11177063 .2679901 .13276673 .25898744 .15475464 .23298645 .21972656 .20199585 .28570558 .17799378 .35168458 .1749878 .3586731 .17098999 .36567689 .17098999 .3736725V.3776703C.1769867 .3996582 .20599365 .3996582 .22599793 .3996582V.43066407H.018997193Z"/>
<path id="font_102_30" d="M.11099243 .43066407H.032989503V.3996582H.11099243V.06893921C.11099243 .034973146 .08198547 .031967164 .051986696 .031967164H.033996583V.0009765625H.2749939V.031967164H.24299622C.22099304 .031967164 .19799805 .032974245 .18598938 .04396057 .17799378 .052947999 .17799378 .06593323 .17799378 .077926639V.3996582H.2919922V.43066407H.1749878V.56185916C.1749878 .61694338 .21299744 .6840515 .2669983 .6840515 .2769928 .6840515 .29100038 .68203738 .29899598 .6760254 .27999879 .6710205 .2689972 .6529999 .2689972 .63397219 .2689972 .6079254 .2889862 .5908966 .31298829 .5908966 .33898927 .5908966 .35798646 .6109314 .35798646 .6329651 .35798646 .68104556 .30799867 .7060547 .2669983 .7060547 .17599488 .7060547 .11099243 .634964 .11099243 .53782656V.43066407Z"/>
<path id="font_102_54" d="M.03199768 .430542V.39953614H.04598999C.07398987 .39953614 .102996829 .3975525 .10899353 .3675995 .10998535 .35661317 .10998535 .3466339 .10998535 .33566285V.13702393C.10998535 .1040802 .11099243 .073135379 .1289978 .044189454 .1559906 .0012512207 .21299744-.0107421879 .2599945-.0107421879 .30499269-.0107421879 .34599305 .009246826 .37098695 .046188356 .37799073 .056167604 .3849945 .06614685 .3880005 .078125L.3889923-.009750366 .5339966 .0012512207V.032211305H.5189972C.48599244 .032211305 .45599366 .035217287 .45599366 .0801239V.4423828L.30799867 .43136598V.39953614H.32299806C.35598756 .39953614 .38598634 .3965454 .38598634 .3496399V.16896057C.38598634 .09509277 .34799195 .013244629 .2649994 .013244629 .20899964 .013244629 .17999268 .02722168 .17999268 .13302613V.4423828L.03199768 .430542Z"/>
<path id="font_103_9" d="M.18299866 .43066407H.102996829C.09599304 .43066407 .08799744 .43165589 .07998657 .43165589 .055999757 .43165589 .042999269 .4186554 .042999269 .39865113 .042999269 .3766632 .06098938 .36965943 .07899475 .36965943H.18299866V.061965944H.09899902C.09199524 .061965944 .084991458 .06297302 .07699585 .06297302 .052993776 .06297302 .041992189 .048965455 .041992189 .031967164 .041992189 .016967774 .050994874 .0029754639 .066986087 .0009765625H.36299134C.3829956 .0009765625 .3939972 .013961792 .3939972 .030975342 .3939972 .050964357 .3809967 .06297302 .35798646 .06297302 .34999085 .06297302 .34298707 .061965944 .33599855 .061965944H.25299073V.36965943H.3849945C.4039917 .36965943 .4169922 .3826599 .4169922 .40065003 .4169922 .426651 .3939972 .43066407 .37799073 .43066407H.25299073V.48687745C.25299073 .53707888 .29599 .5571594 .33699037 .5571594 .35798646 .5571594 .35099793 .5481262 .35699464 .5360718 .36499024 .52201846 .37998963 .5139923 .394989 .5139923 .42099 .5139923 .43699647 .5350647 .43699647 .56015017 .43699647 .6131592 .36898805 .61816409 .34098817 .61816409 .269989 .61816409 .18299866 .5781555 .18299866 .4908905V.43066407Z"/>
<path id="font_103_26" d="M.09599304 .36965943V.12501526C.09599304 .09605408 .09700012 .07408142 .11399841 .04510498 .14099121 .0041046144 .19299317-.0048828127 .23899842-.0048828127 .27999879-.0048828127 .32398988 .0061035158 .35798646 .032104494 .35798646 .011962891 .36999513 .0009765625 .3939972 .0009765625H.47698976C.49699403 .0009765625 .5130005 .009963989 .5130005 .031967164 .5130005 .051971437 .49798585 .061965944 .47898866 .061965944H.42799378V.3936615C.42799378 .4156494 .42199708 .43066407 .3889923 .43066407H.31199647C.29499818 .43066407 .272995 .4286499 .272995 .40065003 .272995 .3826599 .28399659 .36965943 .30599977 .36965943H.35798646V.16487122C.35798646 .08605957 .30099488 .056106569 .24198914 .056106569 .20498657 .056106569 .1659851 .06109619 .1659851 .12200928V.3916626C.1659851 .4126587 .16099549 .43066407 .13198853 .43066407H.04798889C.027999878 .43066407 .010986328 .42166139 .010986328 .3996582 .010986328 .3786621 .026992798 .36965943 .04499817 .36965943H.09599304Z"/>
<path id="font_103_14" d="M.1659851 .3846588V.3956604C.1659851 .4156494 .15699768 .43066407 .1309967 .43066407H.04399109C.025985718 .43066407 .010986328 .41966249 .010986328 .3996582 .010986328 .3786621 .026992798 .36965943 .04598999 .36965943H.09599304V.061965944H.04399109C.023986817 .061965944 .010986328 .048965455 .010986328 .031967164 .010986328 .010971069 .025985718 .0009765625 .04798889 .0009765625H.21199036C.23498535 .0009765625 .25099183 .008972168 .25099183 .030975342 .25099183 .050964357 .23699951 .061965944 .21798706 .061965944H.1659851V.22872925C.1659851 .3066101 .21199036 .3755188 .29299928 .3755188 .34498597 .3755188 .35798646 .33657838 .35798646 .29263307V.061965944H.30999757C.2889862 .061965944 .27799989 .046966554 .27799989 .030975342 .27799989 .007965088 .29599 .0009765625 .31599427 .0009765625H.47599793C.49798585 .0009765625 .5130005 .010971069 .5130005 .031967164 .5130005 .048965455 .5 .061965944 .47999574 .061965944H.42799378V.2806549C.42799378 .34855653 .4099884 .43652345 .2979889 .43652345 .25 .43652345 .20098877 .417511 .1659851 .38452149V.3846588Z"/>
<path id="font_103_18" d="M.397995 .6943054C.3849945 .69229128 .36898805 .6792908 .35798646 .67129519 .23999024 .58226016 .17399597 .4472046 .17399597 .30413819V.2871399C.17999268 .14508057 .25498963 .0010223389 .3789978-.073013309 .3880005-.07801819 .39698792-.08300781 .40699769-.08300781 .42399598-.08300781 .43699647-.0690155 .43699647-.054000856 .43699647-.037002565 .41999818-.02999878 .4079895-.019989014 .3019867 .05303955 .24398804 .1790924 .24398804 .30714417 .24398804 .43618775 .30299378 .5632477 .4139862 .6372833 .4249878 .64328 .43699647 .65127566 .43699647 .6662903 .43699647 .6832886 .42399598 .6953125 .4059906 .6953125 .40299989 .6953125 .40098573 .6953125 .397995 .6943054Z"/>
<path id="font_103_5" d="M.28199769 .004119873C.2769928-.025848389 .25498963-.05281067 .22898865-.0677948 .21199036-.07777405 .17999268-.07878113 .17999268-.10574341 .17999268-.12171936 .19400025-.13670349 .20999146-.13769531 .2749939-.13769531 .34599305-.05281067 .34599305 .023101807 .34599305 .07203674 .31799317 .12496948 .2639923 .12597656 .22599793 .12597656 .19999695 .0980072 .19999695 .06404114 .19999695 .031082154 .22200012 .0061187746 .25498963 .0011291504H.2619934C.2689972 .0011291504 .2749939 .0021209717 .28199769 .004119873Z"/>
<path id="font_104_1" d="M.19198609 .052993776C.19198609 .08198547 .16799927 .10598755 .13899231 .10598755 .10998535 .10598755 .085998538 .08198547 .085998538 .052993776 .085998538 .023986817 .10998535 0 .13899231 0 .16799927 0 .19198609 .023986817 .19198609 .052993776Z"/>
<path id="font_103_19" d="M.10998535 .6943054C.09599304 .69229128 .08699036 .68029788 .08699036 .6672821 .08699036 .6482849 .10598755 .6392822 .12098694 .62927249 .22499085 .551239 .27999879 .43218995 .27999879 .30613709 .27999879 .1790924 .22200012 .05404663 .11399841-.021987915 .099990848-.0309906 .08699036-.039001466 .08699036-.055007936 .08699036-.071014408 .099990848-.08300781 .115997318-.08300781 .15499878-.08300781 .22200012-.014984131 .25698854 .029037476 .31900025 .108062747 .34999085 .20710755 .34999085 .30613709 .34999085 .4461975 .2849884 .58325198 .16799927 .66929629 .1539917 .68029788 .13699341 .6953125 .117996219 .6953125 .114990238 .6953125 .11299133 .6953125 .10998535 .6943054Z"/>
<path id="font_102_33" d="M.11898804 .02281189V.02180481C.07199097 .012802124 .027999878-.032165529 .027999878-.07914734 .027999878-.1730957 .17199707-.20507813 .24899292-.20507813 .33299256-.20507813 .47099305-.1750946 .47099305-.072143558 .47099305-.0071868898 .4249878 .03781128 .36499024 .05480957 .32899476 .06581116 .2919922 .06680298 .2539978 .06680298H.16299439C.1309967 .06982422 .10598755 .10205078 .10598755 .13427735V.13931275C.10699463 .15238953 .11399841 .17837525 .12399292 .17837525 .13699341 .17538452 .15098572 .16438294 .1659851 .15937805 .18399048 .15338135 .20399475 .15039063 .22299195 .15039063 .30499269 .15039063 .3849945 .21134949 .3849945 .29626466 .3849945 .3302307 .37098695 .37019349 .34399415 .3921814V.39317323C.37098695 .41316224 .39698792 .43113709 .43299867 .43113709 .43598939 .43113709 .43899537 .43113709 .44198609 .43014527 .43299867 .42414857 .4269867 .41714479 .4269867 .40415956 .4269867 .3881836 .43998719 .37419129 .45599366 .37419129 .47299195 .37419129 .4850006 .3881836 .4850006 .40415956 .4850006 .43113709 .46299745 .453125 .43499757 .453125 .3999939 .453125 .3659973 .4391327 .33999635 .41714479 .33699037 .41415406 .33299256 .41015626 .32899476 .40916444H.32798768C.32199098 .40916444 .31399537 .41714479 .30899049 .42015077 .2829895 .43437196 .25299073 .4423828 .22299195 .4423828 .14399719 .4423828 .05899048 .38737489 .05899048 .29638673 .05899048 .26338197 .07199097 .23338318 .09199524 .2073822 .09599304 .2033844 .102996829 .19837952 .102996829 .1933899 .102996829 .18838501 .09700012 .18338013 .09498596 .17938233 .08198547 .15937805 .07499695 .13427735 .07499695 .11010742 .07499695 .07888794 .08898926 .03781128 .11898804 .02281189M.08099365-.08413696V-.07614136C.08099365-.0231781 .1269989 .0078125 .18099976 .0078125H.25898744C.32199098 .0078125 .41799928-.0011901856 .41799928-.07814026 .41799928-.15110779 .31098939-.18208313 .24899292-.18208313 .18299866-.18208313 .09098816-.15209961 .08099365-.08413696M.1349945 .27638246V.28938294C.1349945 .3443756 .147995 .41838075 .22200012 .41838075 .28399659 .41838075 .30899049 .36038209 .30899049 .29638673 .30899049 .25538636 .30099488 .17437744 .22299195 .17437744 .19699097 .17437744 .17199707 .18638611 .15499878 .20838928 .13999939 .2283783 .13798523 .25238038 .1349945 .27638246Z"/>
<path id="font_103_1" d="M.09599304 .55130007V.061965944H.06298828C.040985109 .061965944 .024993897 .052963258 .024993897 .031967164 .024993897 .011993408 .040985109 0 .06199646 0 .068984989-.000030517579 .07598877 .0009765625 .08299255 .0009765625H.47698976C.49499513 .0029754639 .5029907 .020965577 .5029907 .036972047 .5029907 .04397583 .5019989 .050964357 .5019989 .05796814V.13801575C.5019989 .16001892 .4909973 .17202759 .46798707 .17202759 .44999696 .17202759 .43099977 .1670227 .43099977 .13900757 .43099977 .13301087 .43199159 .12800598 .43199159 .1230011V.061965944H.1659851V.28710938H.29699708C.29699708 .2810974 .29599 .27308656 .29599 .26608277 .29599 .23606873 .31399537 .23007202 .33198548 .23007202 .34999085 .23007202 .36698915 .23606873 .36698915 .26408387V.35009767C.36698915 .35610963 .36799623 .3631134 .36799623 .3701172 .36799623 .39915467 .34899903 .40515138 .33198548 .40515138 .31399537 .40515138 .29599 .39915467 .29599 .36912538 .29599 .36212159 .29699708 .35411073 .29699708 .34809876H.1659851V.55130007H.4099884V.49223329C.4099884 .46220399 .4269867 .4571991 .44599916 .4571991 .46899415 .4571991 .47999574 .46922303 .47999574 .49424745V.5733032C.47999574 .59529116 .47599793 .6123047 .44400025 .6123047H.06399536C.038986207 .6123047 .024993897 .603302 .024993897 .5812988 .024993897 .55830386 .042999269 .55130007 .06298828 .55130007H.09599304Z"/>
<path id="font_103_29" d="M.17298889 .061965944 .25898744 .18484497 .34799195 .061965944H.33198548C.30999757 .061965944 .2979889 .049972536 .2979889 .030975342 .2979889 .009963989 .31298829 .0009765625 .33198548 .0009765625H.45999146C.4850006 .0009765625 .49499513 .012969971 .49499513 .031967164 .49499513 .05897522 .47499085 .06297302 .45599366 .06297302 .44799806 .06297302 .43998719 .061965944 .43399049 .061965944H.4269867C.4139862 .061965944 .4099884 .06895447 .40299989 .07795715L.38198854 .10392761C.36099244 .12989807 .33999635 .15687561 .31900025 .18284607 .30899049 .1958313 .29899598 .21081543 .2869873 .22180176V.22280884C.2979889 .23280335 .30699159 .2467804 .31599427 .2587738 .34399415 .29273988 .3919983 .36965943 .4119873 .36965943H.42099C.4269867 .36965943 .43399049 .36865235 .44198609 .36865235 .45999146 .36865235 .48098756 .37265016 .48098756 .3996582 .48098756 .4186554 .47099305 .43066407 .44599916 .43066407H.31799317C.29899598 .43066407 .28399659 .42166139 .28399659 .40065003 .28399659 .380661 .2979889 .36965943 .31900025 .36965943H.33299256L.2599945 .26976014 .18299866 .36965943H.19799805C.21998596 .36965943 .23098755 .3826599 .23098755 .40065003 .23098755 .42263795 .21398926 .43164063 .19400025 .43164063 .18699646 .43165589 .1789856 .43066407 .17298889 .43066407H.09498596C.08799744 .43063355 .07998657 .43164063 .07199097 .43164063 .04798889 .43164063 .032989503 .42063905 .032989503 .3996582 .032989503 .37368775 .054992677 .36869813 .07398987 .36869813 .08198547 .36865235 .08898926 .36965943 .09599304 .36965943H.10398865C.11999512 .36965943 .1289978 .3496704 .13999939 .33668519L.20399475 .2567749C.21199036 .24578858 .22898865 .22979737 .22898865 .22280884V.22080994C.22698975 .21182251 .20899964 .1938324 .19999695 .18185425 .17799378 .15386963 .15699768 .12590027 .1349945 .09793091L.116989139 .07495117C.10998535 .065963748 .10699463 .061965944 .09599304 .061965944H.06399536C.041992189 .061965944 .027999878 .051971437 .027999878 .030975342 .027999878 .0059661867 .04798889 .0009765625 .06399536 .0009765625H.16899109C.1749878 .0009918213 .18199158 0 .18798828 0 .20799256 0 .22499085 .009979248 .22499085 .030960083 .22499085 .050964357 .21099854 .061965944 .18798828 .061965944H.17298889Z"/>
<path id="font_103_17" d="M.1659851 .38865663V.39665223C.1659851 .42965699 .14498902 .43066407 .1269989 .43066407H.04798889C.027999878 .43066407 .010986328 .4226532 .010986328 .3996582 .010986328 .37965394 .025985718 .36965943 .04499817 .36965943H.09599304V-.15971375H.04399109C.023986817-.15971375 .010986328-.17271424 .010986328-.18971253 .010986328-.21070862 .025985718-.22070313 .04798889-.22070313H.21199036C.23498535-.22070313 .25099183-.21270752 .25099183-.19070435 .25099183-.17071533 .23699951-.15971375 .21798706-.15971375H.1659851V.04510498C.19999695 .0131073 .23799134-.0048828127 .28399659-.0048828127 .39898683-.0048828127 .48799134 .10102844 .48799134 .21580506 .48799134 .32261659 .4139862 .43652345 .2899933 .43652345 .24499512 .43652345 .19999695 .41851808 .1659851 .3885193V.38865663M.4169922 .2038269C.4099884 .12997437 .35899354 .056106569 .27799989 .056106569 .20999146 .056106569 .16499329 .13496399 .16499329 .19186402 .16499329 .2038269 .1659851 .21580506 .1659851 .2277832 .1659851 .23876953 .16499329 .25074769 .16499329 .26272584 .16499329 .3256073 .22898865 .3755188 .28799439 .3755188 .37298585 .3755188 .41799928 .28567506 .41799928 .21780396 .41799928 .21281433 .41799928 .20883179 .4169922 .2038269Z"/>
<path id="font_103_8" d="M.1269989 .19238281H.4249878C.44599916 .19238281 .46398927 .19737244 .46398927 .22737122 .46398927 .28138734 .44898988 .33840943 .41600038 .37841798 .37998963 .42042542 .32598878 .4404297 .27198792 .4404297 .15899658 .4404297 .054992677 .3504181 .054992677 .21537781V.20637512C.05999756 .08717346 .1659851-.0048828127 .28599549-.0048828127H.29599C.35099793-.0028839112 .4099884 .018112183 .44400025 .06413269 .45199586 .07614136 .46398927 .094177249 .46398927 .11021423 .46398927 .1312561 .44599916 .13827515 .42799378 .13827515 .397995 .13827515 .39698792 .11923218 .3869934 .10220337 .3659973 .07014465 .32798768 .056106569 .29100038 .056106569 .20999146 .056106569 .147995 .11122131 .1269989 .19238281M.12799073 .25238038C.14698792 .31739808 .18998719 .37942506 .27198792 .37942506 .34498597 .37942506 .3880005 .32139588 .3919983 .25238038H.12799073Z"/>
<path id="font_103_22" d="M.22200012 .3566742V.39265443C.22200012 .41766358 .21199036 .43066407 .18598938 .43066407H.06498718C.04598999 .43066407 .0309906 .42166139 .0309906 .40065003 .0309906 .37965394 .04399109 .36965943 .067993167 .36965943H.1519928V.061965944H.06599426C.042999269 .062088014 .0309906 .050064088 .0309906 .032043458 .0309906 .015014648 .042999269 0 .06399536 0 .068984989-.000030517579 .07499695 .0009765625 .07998657 .0009765625H.2769928C.2919922 .0009918213 .30799867 0 .32398988 0 .35398866 0 .37298585 .005004883 .37298585 .032043458 .37298585 .049972536 .3619995 .061965944 .33699037 .061965944H.22200012V.17715454C.22200012 .2672882 .2709961 .37747193 .3929901 .37747193 .40699769 .37747193 .4059906 .33247376 .44499208 .33247376 .46699525 .33247376 .4869995 .34947206 .4869995 .37547303 .4869995 .4234619 .42999269 .43847657 .3919983 .43847657 .32499696 .43847657 .2669983 .4054718 .22200012 .35746766V.3566742Z"/>
<path id="font_103_11" d="M.23999024 .36965943V.061965944H.115997318C.09098816 .061965944 .07798767 .050964357 .07798767 .031967164 .07798767 .017974854 .08699036 .0029754639 .102996829 .0009765625H.42199708C.44299317 .0009765625 .45498658 .011962891 .45498658 .030975342 .45498658 .050964357 .44198609 .06297302 .4189911 .06297302 .41099549 .06297302 .40299989 .061965944 .3959961 .061965944H.30999757V.39665223C.30999757 .42565919 .2919922 .43066407 .272995 .43066407H.12399292C.10699463 .43066407 .085998538 .426651 .085998538 .3996582 .085998538 .37765504 .100997928 .36965943 .125 .36965943H.23999024M.25299073 .6123047C.22599793 .60827639 .20999146 .5852051 .20999146 .5631256 .20999146 .54104617 .22799683 .51293948 .25698854 .51293948 .28799439 .51293948 .30999757 .5370331 .30999757 .5631256 .30999757 .58517459 .2919922 .61328127 .2619934 .61328127 .25898744 .6132965 .2559967 .6123047 .25299073 .6123047Z"/>
<path id="font_103_13" d="M.10798645 .39863587C.10798645 .42663575 .08799744 .43164063 .067993167 .43164063 .05899048 .43164063 .049987794 .43063355 .042999269 .43063355H.0309906C.0129852299 .43063355-.005004883 .42362977-.005004883 .40063478-.005004883 .38563539 .004989624 .37164308 .020996094 .36964417H.051986696V.061965944C.04598999 .061965944 .039993287 .06297302 .032989503 .06297302 .0129852299 .06297302-.005004883 .053970338-.005004883 .031967164-.005004883 .011962891 .008987427 .0009765625 .02999878 .0009765625H.12799073C.14898682 .0009765625 .16499329 .009963989 .16499329 .031967164 .16499329 .053970338 .14698792 .06297302 .1269989 .06297302 .11999512 .06297302 .11399841 .061965944 .10798645 .061965944V.21879578C.10798645 .2767334 .115997318 .35665895 .17799378 .3726349 .18299866 .3746338 .18899536 .3756256 .19400025 .3756256 .23399353 .3756256 .23399353 .3196869 .23399353 .2887268V.061965944H.21899414C.19799805 .061965944 .18299866 .052963258 .18299866 .031967164 .18299866 .011962891 .19499207 .0009765625 .21798706 .0009765625H.31199647C.33299256 .0009765625 .34700013 .011962891 .34700013 .031967164 .34700013 .053970338 .32899476 .06297302 .30899049 .06297302 .3019867 .06297302 .29599 .061965944 .2899933 .061965944V.21879578C.2899933 .2767334 .2979889 .35665895 .3600006 .3726349 .36499024 .3746338 .37098695 .3756256 .37599183 .3756256 .41600038 .3756256 .41600038 .3196869 .41600038 .2887268V.061965944H.40098573C.37998963 .061965944 .36499024 .052963258 .36499024 .031967164 .36499024 .011962891 .3769989 .0009765625 .3999939 .0009765625H.49398805C.5149994 .0009765625 .5289917 .011962891 .5289917 .031967164 .5289917 .053970338 .5109863 .06297302 .4909973 .06297302 .48399354 .06297302 .47799684 .061965944 .47200013 .061965944V.29371644C.47200013 .35043336 .46199037 .43847657 .3789978 .43847657 .33898927 .43847657 .29499818 .4134674 .2769928 .38346864 .2599945 .41455079 .23498535 .43652345 .19699097 .43652345 .1639862 .43652345 .1309967 .42053224 .10798645 .39855958V.39863587Z"/>
<path id="font_103_23" d="M.13899231 .033111574C.17599488 .0051116945 .22099304-.0048828127 .2669983-.0048828127 .35198976-.0048828127 .45899964 .025115967 .45899964 .12617493 .45899964 .25730897 .269989 .25730897 .20298767 .2723236 .1749878 .2793274 .1329956 .29333497 .1329956 .32336427 .1329956 .3684082 .20599365 .37641908 .23699951 .37841798 .24598694 .37841798 .25498963 .37942506 .2649994 .37942506 .29599 .37942506 .34999085 .37242127 .35699464 .3323822 .3639984 .306427 .36299134 .29042054 .3959961 .29042054 .4249878 .29042054 .42900086 .30941773 .42900086 .32841493V.40742494C.42900086 .4274292 .41799928 .4404297 .39898683 .4404297 .3849945 .4404297 .37399293 .431427 .36898805 .41941834 .33499146 .4334259 .30499269 .4404297 .2669983 .4404297 .18499756 .4404297 .07199097 .4184265 .07199097 .3214264 .07199097 .15924073 .397995 .23434448 .397995 .12719727V.12420654C.397995 .06011963 .29499818 .056106569 .272995 .056106569H.2689972C.21699524 .056106569 .16899109 .07713318 .147995 .1322174 .13598633 .15811157 .13598633 .17311096 .10598755 .17311096 .07598877 .17311096 .07199097 .15510559 .07199097 .13711548V.050109865C.07199097 .04411316 .070999149 .037109376 .070999149 .03010559 .070999149 .008102417 .08299255-.0048828127 .101989749-.0048828127 .12599182-.0048828127 .13198853 .015106201 .13899231 .033111574Z"/>
<path id="font_102_34" d="M.03199768 .6843109V.6533203H.04699707C.083999637 .6533203 .10998535 .6493225 .10998535 .6013336V.09603882C.10998535 .089035037 .11099243 .08201599 .11099243 .074020389 .11099243 .035980226 .083999637 .031967164 .055999757 .031967164H.03199768V.0009765625H.2579956V.031967164H.23199463C.20399475 .031967164 .17999268 .035980226 .17999268 .073013309V.25621034C.17999268 .3282776 .21699524 .42037965 .31599427 .42037965 .37998963 .42037965 .38598634 .3513031 .38598634 .30825807V.069000247C.38598634 .034973146 .35699464 .031967164 .32598878 .031967164H.30799867V.0009765625H.5339966V.031967164H.5089874C.48199464 .031967164 .45599366 .035980226 .45599366 .070007327V.28923036C.45599366 .32226563 .45498658 .3553009 .43998719 .38534547 .41600038 .42938233 .3659973 .4423828 .31999208 .4423828 .2619934 .4423828 .19699097 .40335084 .17799378 .3473053L.1769867 .6953125 .03199768 .6843109Z"/>
<path id="font_103_3" d="M.3659973 .375412C.3659973 .37242127 .36499024 .36941529 .36499024 .3664093 .36499024 .33738709 .3889923 .32136537 .41099549 .32136537 .43099977 .32136537 .44898988 .33337403 .45399476 .35940553 .45399476 .43641664 .37098695 .4404297 .31199647 .4404297 .22898865 .4404297 .1599884 .41542054 .11099243 .3433838 .085998538 .3063507 .07299805 .26130677 .07299805 .2172699 .07299805 .11216736 .1539917-.0048828127 .29100038-.0048828127 .3600006-.0048828127 .42799378 .021102906 .45899964 .087142948 .46199037 .09414673 .46499635 .103149417 .46499635 .11116028 .46499635 .12918091 .45098878 .1381836 .43299867 .1381836H.4229889C.4019928 .1381836 .39698792 .11717224 .3909912 .104156497 .375 .071121219 .33499146 .056106569 .30099488 .056106569 .21199036 .056106569 .14299011 .13117981 .14299011 .21626282 .14299011 .30334474 .20599365 .37942506 .30299378 .37942506 .32398988 .37942506 .34498597 .37742616 .3659973 .375412Z"/>
</defs>
<path transform="matrix(1,0,0,-1,114.3828,68.53)" stroke-width="2.989" stroke-linecap="butt" stroke-miterlimit="10" stroke-linejoin="miter" fill="none" stroke="#a9a9a9" d="M0 0H59.908"/>
<path transform="matrix(1,0,0,-1,179.03409,68.53)" d="M0 0-4.339 3.507V0-3.507Z" fill="#a9a9a9"/>
<path transform="matrix(1,0,0,-1,179.03409,68.53)" stroke-width="1.619" stroke-linecap="butt" stroke-linejoin="round" fill="none" stroke="#a9a9a9" d="M0 0-4.339 3.507V0-3.507Z"/>
<path transform="matrix(1,0,0,-1,241.44532,110.55209)" stroke-width="2.989" stroke-linecap="butt" stroke-miterlimit="10" stroke-linejoin="miter" fill="none" stroke="#a9a9a9" d="M0 0V21.3"/>
<path transform="matrix(0,-1,-1,-0,241.44532,84.50912)" d="M0 0-4.339 3.507V0-3.507Z" fill="#a9a9a9"/>
<path transform="matrix(0,-1,-1,-0,241.44532,84.50912)" stroke-width="1.619" stroke-linecap="butt" stroke-linejoin="round" fill="none" stroke="#a9a9a9" d="M0 0-4.339 3.507V0-3.507Z"/>
<use data-text="." xlink:href="#font_101_1" transform="matrix(11.955,0,0,-11.955,219.902,97.457)"/>
<use data-text="." xlink:href="#font_101_1" transform="matrix(11.955,0,0,-11.955,225.15,97.457)"/>
<use data-text="." xlink:href="#font_101_1" transform="matrix(11.955,0,0,-11.955,230.38632,97.457)"/>
<path transform="matrix(1,0,0,-1,425.69963,110.55209)" stroke-width="2.989" stroke-linecap="butt" stroke-miterlimit="10" stroke-linejoin="miter" fill="none" stroke="#a9a9a9" d="M0 0V21.3"/>
<path transform="matrix(0,-1,-1,-0,425.69966,84.50912)" d="M0 0-4.339 3.507V0-3.507Z" fill="#a9a9a9"/>
<path transform="matrix(0,-1,-1,-0,425.69966,84.50912)" stroke-width="1.619" stroke-linecap="butt" stroke-linejoin="round" fill="none" stroke="#a9a9a9" d="M0 0-4.339 3.507V0-3.507Z"/>
<use data-text="." xlink:href="#font_101_1" transform="matrix(11.955,0,0,-11.955,404.154,97.457)"/>
<use data-text="." xlink:href="#font_101_1" transform="matrix(11.955,0,0,-11.955,409.402,97.457)"/>
<use data-text="." xlink:href="#font_101_1" transform="matrix(11.955,0,0,-11.955,414.63835,97.457)"/>
<path transform="matrix(1,0,0,-1,111.9278,55.2758)" stroke-width="2.989" stroke-linecap="butt" stroke-miterlimit="10" stroke-linejoin="miter" fill="none" stroke="#a9a9a9" d="M0 0C85.799 49.536 165.892 49.536 245.655 3.485"/>
<path transform="matrix(.86601,.49998,.49998,-.86601,361.69035,54.162439)" d="M0 0-4.339 3.507V0-3.507Z" fill="#a9a9a9"/>
<path transform="matrix(.86601,.49998,.49998,-.86601,361.69035,54.162439)" stroke-width="1.619" stroke-linecap="butt" stroke-linejoin="round" fill="none" stroke="#a9a9a9" d="M0 0-4.339 3.507V0-3.507Z"/>
<path transform="matrix(1,0,0,-1,302.549,68.53)" stroke-width="2.989" stroke-linecap="butt" stroke-miterlimit="10" stroke-linejoin="miter" fill="none" stroke="#a9a9a9" d="M0 0H2.989C4.234 0 4.857 2.491 6.102 2.491 7.004 2.491 7.781 1.275 8.593 0 9.405-1.275 10.182-2.491 11.084-2.491 11.985-2.491 12.762-1.275 13.574 0 14.386 1.275 15.163 2.491 16.065 2.491 16.967 2.491 17.744 1.275 18.556 0 19.368-1.275 20.145-2.491 21.046-2.491 21.948-2.491 22.725-1.275 23.537 0 24.349 1.275 25.126 2.491 26.028 2.491 26.929 2.491 27.706 1.275 28.518 0 29.33-1.275 30.108-2.491 31.009-2.491 31.911-2.491 32.688-1.275 33.5 0 34.312 1.275 35.089 2.491 35.991 2.491 36.892 2.491 37.669 1.275 38.481 0 39.293-1.275 40.07-2.491 40.972-2.491 41.874-2.491 42.651-1.275 43.463 0 44.275 1.275 45.052 2.491 45.953 2.491 47.199 2.491 47.821 0 49.067 0H52.564"/>
<path transform="matrix(1,0,0,-1,359.85624,68.53)" d="M0 0-4.339 3.507V0-3.507Z" fill="#a9a9a9"/>
<path transform="matrix(1,0,0,-1,359.85624,68.53)" stroke-width="1.619" stroke-linecap="butt" stroke-linejoin="round" fill="none" stroke="#a9a9a9" d="M0 0-4.339 3.507V0-3.507Z"/>
<use data-text="i" xlink:href="#font_102_36" transform="matrix(9.963,0,0,-9.963,314.118,62.832)"/>
<use data-text="n" xlink:href="#font_102_41" transform="matrix(9.963,0,0,-9.963,316.88774,62.832)"/>
<use data-text="s" xlink:href="#font_102_50" transform="matrix(9.963,0,0,-9.963,322.4172,62.832)"/>
<use data-text="t" xlink:href="#font_102_51" transform="matrix(9.963,0,0,-9.963,326.34263,62.832)"/>
<use data-text="a" xlink:href="#font_102_23" transform="matrix(9.963,0,0,-9.963,330.21824,62.832)"/>
<use data-text="n" xlink:href="#font_102_41" transform="matrix(9.963,0,0,-9.963,335.19975,62.832)"/>
<use data-text="c" xlink:href="#font_102_25" transform="matrix(9.963,0,0,-9.963,340.72923,62.832)"/>
<use data-text="e" xlink:href="#font_102_29" transform="matrix(9.963,0,0,-9.963,345.1528,62.832)"/>
<path transform="matrix(1,0,0,-1,425.69963,53.858499)" stroke-width="2.989" stroke-linecap="butt" stroke-miterlimit="10" stroke-linejoin="miter" fill="none" stroke="#a9a9a9" d="M0 0V2.989C0 4.234-2.491 4.857-2.491 6.102-2.491 7.004-1.275 7.781 0 8.593 1.275 9.405 2.491 10.182 2.491 11.084 2.491 11.985 1.275 12.762 0 13.574-1.275 14.386-2.491 15.163-2.491 16.065-2.491 17.31 0 17.933 0 19.178V24.134"/>
<path transform="matrix(0,-1,-1,-0,425.69966,24.980858)" d="M0 0-4.339 3.507V0-3.507Z" fill="#a9a9a9"/>
<path transform="matrix(0,-1,-1,-0,425.69966,24.980858)" stroke-width="1.619" stroke-linecap="butt" stroke-linejoin="round" fill="none" stroke="#a9a9a9" d="M0 0-4.339 3.507V0-3.507Z"/>
<path transform="matrix(1,0,0,-1,109.899509,54.356599)" d="M0 0H-105.417C-107.618 0-109.402-1.784-109.402-3.985V-24.362C-109.402-26.563-107.618-28.347-105.417-28.347H0C2.201-28.347 3.985-26.563 3.985-24.362V-3.985C3.985-1.784 2.201 0 0 0Z" fill="#e4f1f1"/>
<path transform="matrix(1,0,0,-1,109.899509,54.356599)" stroke-width=".996" stroke-linecap="butt" stroke-miterlimit="10" stroke-linejoin="miter" fill="none" stroke="#000000" d="M0 0H-105.417C-107.618 0-109.402-1.784-109.402-3.985V-24.362C-109.402-26.563-107.618-28.347-105.417-28.347H0C2.201-28.347 3.985-26.563 3.985-24.362V-3.985C3.985-1.784 2.201 0 0 0Z"/>
<use data-text="s" xlink:href="#font_102_50" transform="matrix(9.963,0,0,-9.963,15.081,65.982997)"/>
<use data-text="t" xlink:href="#font_102_51" transform="matrix(9.963,0,0,-9.963,19.006422,65.982997)"/>
<use data-text="a" xlink:href="#font_102_23" transform="matrix(9.963,0,0,-9.963,22.88203,65.982997)"/>
<use data-text="t" xlink:href="#font_102_51" transform="matrix(9.963,0,0,-9.963,27.863532,65.982997)"/>
<use data-text="i" xlink:href="#font_102_36" transform="matrix(9.963,0,0,-9.963,31.73914,65.982997)"/>
<use data-text="c" xlink:href="#font_102_25" transform="matrix(9.963,0,0,-9.963,34.508855,65.982997)"/>
<use data-text="p" xlink:href="#font_102_44" transform="matrix(9.963,0,0,-9.963,42.249,65.982997)"/>
<use data-text="r" xlink:href="#font_102_49" transform="matrix(9.963,0,0,-9.963,47.778467,65.982997)"/>
<use data-text="o" xlink:href="#font_102_42" transform="matrix(9.963,0,0,-9.963,51.68396,65.982997)"/>
<use data-text="b" xlink:href="#font_102_24" transform="matrix(9.963,0,0,-9.963,56.66546,65.982997)"/>
<use data-text="l" xlink:href="#font_102_39" transform="matrix(9.963,0,0,-9.963,62.194925,65.982997)"/>
<use data-text="e" xlink:href="#font_102_29" transform="matrix(9.963,0,0,-9.963,64.96464,65.982997)"/>
<use data-text="m" xlink:href="#font_102_40" transform="matrix(9.963,0,0,-9.963,69.388217,65.982997)"/>
<use data-text="p" xlink:href="#font_102_44" transform="matrix(9.963,0,0,-9.963,81.01502,65.982997)"/>
<use data-text="a" xlink:href="#font_102_23" transform="matrix(9.963,0,0,-9.963,86.54449,65.982997)"/>
<use data-text="r" xlink:href="#font_102_49" transform="matrix(9.963,0,0,-9.963,91.525989,65.982997)"/>
<use data-text="t" xlink:href="#font_102_51" transform="matrix(9.963,0,0,-9.963,95.43148,65.982997)"/>
<use data-text="d" xlink:href="#font_103_6" transform="matrix(9.963,0,0,-9.963,46.733,77.937999)"/>
<use data-text="a" xlink:href="#font_103_2" transform="matrix(9.963,0,0,-9.963,51.963579,77.937999)"/>
<use data-text="t" xlink:href="#font_103_24" transform="matrix(9.963,0,0,-9.963,57.194154,77.937999)"/>
<use data-text="a" xlink:href="#font_103_2" transform="matrix(9.963,0,0,-9.963,62.42473,77.937999)"/>
<path transform="matrix(1,0,0,-1,298.0657,54.356599)" d="M0 0H-113.241C-115.442 0-117.226-1.784-117.226-3.985V-24.362C-117.226-26.563-115.442-28.347-113.241-28.347H0C2.201-28.347 3.985-26.563 3.985-24.362V-3.985C3.985-1.784 2.201 0 0 0Z" fill="#e4f1f1"/>
<path transform="matrix(1,0,0,-1,298.0657,54.356599)" stroke-width=".996" stroke-linecap="butt" stroke-miterlimit="10" stroke-linejoin="miter" fill="none" stroke="#000000" d="M0 0H-113.241C-115.442 0-117.226-1.784-117.226-3.985V-24.362C-117.226-26.563-115.442-28.347-113.241-28.347H0C2.201-28.347 3.985-26.563 3.985-24.362V-3.985C3.985-1.784 2.201 0 0 0Z"/>
<use data-text="d" xlink:href="#font_102_28" transform="matrix(9.963,0,0,-9.963,184.158,65.291)"/>
<use data-text="y" xlink:href="#font_102_57" transform="matrix(9.963,0,0,-9.963,189.68747,65.291)"/>
<use data-text="n" xlink:href="#font_102_41" transform="matrix(9.963,0,0,-9.963,194.94794,65.291)"/>
<use data-text="a" xlink:href="#font_102_23" transform="matrix(9.963,0,0,-9.963,200.4774,65.291)"/>
<use data-text="m" xlink:href="#font_102_40" transform="matrix(9.963,0,0,-9.963,205.45891,65.291)"/>
<use data-text="i" xlink:href="#font_102_36" transform="matrix(9.963,0,0,-9.963,213.75809,65.291)"/>
<use data-text="c" xlink:href="#font_102_25" transform="matrix(9.963,0,0,-9.963,216.5278,65.291)"/>
<use data-text="p" xlink:href="#font_102_44" transform="matrix(9.963,0,0,-9.963,224.277,65.291)"/>
<use data-text="r" xlink:href="#font_102_49" transform="matrix(9.963,0,0,-9.963,229.80646,65.291)"/>
<use data-text="o" xlink:href="#font_102_42" transform="matrix(9.963,0,0,-9.963,233.71196,65.291)"/>
<use data-text="b" xlink:href="#font_102_24" transform="matrix(9.963,0,0,-9.963,238.69347,65.291)"/>
<use data-text="l" xlink:href="#font_102_39" transform="matrix(9.963,0,0,-9.963,244.22293,65.291)"/>
<use data-text="e" xlink:href="#font_102_29" transform="matrix(9.963,0,0,-9.963,246.99265,65.291)"/>
<use data-text="m" xlink:href="#font_102_40" transform="matrix(9.963,0,0,-9.963,251.41622,65.291)"/>
<use data-text="f" xlink:href="#font_102_30" transform="matrix(9.963,0,0,-9.963,263.04304,65.291)"/>
<use data-text="u" xlink:href="#font_102_54" transform="matrix(9.963,0,0,-9.963,266.0917,65.291)"/>
<use data-text="n" xlink:href="#font_102_41" transform="matrix(9.963,0,0,-9.963,271.6212,65.291)"/>
<use data-text="c" xlink:href="#font_102_25" transform="matrix(9.963,0,0,-9.963,277.15068,65.291)"/>
<use data-text="t" xlink:href="#font_102_51" transform="matrix(9.963,0,0,-9.963,281.57426,65.291)"/>
<use data-text="i" xlink:href="#font_102_36" transform="matrix(9.963,0,0,-9.963,285.44987,65.291)"/>
<use data-text="o" xlink:href="#font_102_42" transform="matrix(9.963,0,0,-9.963,288.21958,65.291)"/>
<use data-text="n" xlink:href="#font_102_41" transform="matrix(9.963,0,0,-9.963,293.20109,65.291)"/>
<use data-text="f" xlink:href="#font_103_9" transform="matrix(9.963,0,0,-9.963,206.87099,77.246)"/>
<use data-text="u" xlink:href="#font_103_26" transform="matrix(9.963,0,0,-9.963,212.10157,77.246)"/>
<use data-text="n" xlink:href="#font_103_14" transform="matrix(9.963,0,0,-9.963,217.33214,77.246)"/>
<use data-text="(" xlink:href="#font_103_18" transform="matrix(9.963,0,0,-9.963,222.56272,77.246)"/>
<use data-text="d" xlink:href="#font_103_6" transform="matrix(9.963,0,0,-9.963,227.79329,77.246)"/>
<use data-text="a" xlink:href="#font_103_2" transform="matrix(9.963,0,0,-9.963,233.02387,77.246)"/>
<use data-text="t" xlink:href="#font_103_24" transform="matrix(9.963,0,0,-9.963,238.25444,77.246)"/>
<use data-text="a" xlink:href="#font_103_2" transform="matrix(9.963,0,0,-9.963,243.48502,77.246)"/>
<use data-text="," xlink:href="#font_103_5" transform="matrix(9.963,0,0,-9.963,248.71559,77.246)"/>
<use data-text="." xlink:href="#font_104_1" transform="matrix(9.963,0,0,-9.963,259.162,77.246)"/>
<use data-text="." xlink:href="#font_104_1" transform="matrix(9.963,0,0,-9.963,263.59559,77.246)"/>
<use data-text="." xlink:href="#font_104_1" transform="matrix(9.963,0,0,-9.963,268.01918,77.246)"/>
<use data-text=")" xlink:href="#font_103_19" transform="matrix(9.963,0,0,-9.963,270.78889,77.246)"/>
<path transform="matrix(1,0,0,-1,294.1538,111.0502)" d="M0 0H-105.417C-107.618 0-109.402-1.784-109.402-3.985V-24.362C-109.402-26.563-107.618-28.347-105.417-28.347H0C2.201-28.347 3.985-26.563 3.985-24.362V-3.985C3.985-1.784 2.201 0 0 0Z" fill="#e4f1f1"/>
<path transform="matrix(1,0,0,-1,294.1538,111.0502)" stroke-width=".996" stroke-linecap="butt" stroke-miterlimit="10" stroke-linejoin="miter" fill="none" stroke="#000000" d="M0 0H-105.417C-107.618 0-109.402-1.784-109.402-3.985V-24.362C-109.402-26.563-107.618-28.347-105.417-28.347H0C2.201-28.347 3.985-26.563 3.985-24.362V-3.985C3.985-1.784 2.201 0 0 0Z"/>
<use data-text="p" xlink:href="#font_102_44" transform="matrix(9.963,0,0,-9.963,208.477,121.569)"/>
<use data-text="r" xlink:href="#font_102_49" transform="matrix(9.963,0,0,-9.963,214.00647,121.569)"/>
<use data-text="o" xlink:href="#font_102_42" transform="matrix(9.963,0,0,-9.963,217.91197,121.569)"/>
<use data-text="b" xlink:href="#font_102_24" transform="matrix(9.963,0,0,-9.963,222.89348,121.569)"/>
<use data-text="l" xlink:href="#font_102_39" transform="matrix(9.963,0,0,-9.963,228.42295,121.569)"/>
<use data-text="e" xlink:href="#font_102_29" transform="matrix(9.963,0,0,-9.963,231.19266,121.569)"/>
<use data-text="m" xlink:href="#font_102_40" transform="matrix(9.963,0,0,-9.963,235.61623,121.569)"/>
<use data-text="d" xlink:href="#font_102_28" transform="matrix(9.963,0,0,-9.963,247.232,121.569)"/>
<use data-text="e" xlink:href="#font_102_29" transform="matrix(9.963,0,0,-9.963,252.76146,121.569)"/>
<use data-text="s" xlink:href="#font_102_50" transform="matrix(9.963,0,0,-9.963,257.18504,121.569)"/>
<use data-text="i" xlink:href="#font_102_36" transform="matrix(9.963,0,0,-9.963,261.11045,121.569)"/>
<use data-text="g" xlink:href="#font_102_33" transform="matrix(9.963,0,0,-9.963,263.88017,121.569)"/>
<use data-text="n" xlink:href="#font_102_41" transform="matrix(9.963,0,0,-9.963,268.86167,121.569)"/>
<use data-text="(" xlink:href="#font_103_18" transform="matrix(9.963,0,0,-9.963,199.60999,133.524)"/>
<use data-text="a" xlink:href="#font_103_2" transform="matrix(9.963,0,0,-9.963,204.84056,133.524)"/>
<use data-text="d" xlink:href="#font_103_6" transform="matrix(9.963,0,0,-9.963,210.07114,133.524)"/>
<use data-text="d" xlink:href="#font_103_6" transform="matrix(9.963,0,0,-9.963,215.30171,133.524)"/>
<use data-text="E" xlink:href="#font_103_1" transform="matrix(9.963,0,0,-9.963,220.53229,133.524)"/>
<use data-text="x" xlink:href="#font_103_29" transform="matrix(9.963,0,0,-9.963,225.76287,133.524)"/>
<use data-text="p" xlink:href="#font_103_17" transform="matrix(9.963,0,0,-9.963,230.99344,133.524)"/>
<use data-text="e" xlink:href="#font_103_8" transform="matrix(9.963,0,0,-9.963,236.22402,133.524)"/>
<use data-text="r" xlink:href="#font_103_22" transform="matrix(9.963,0,0,-9.963,241.45459,133.524)"/>
<use data-text="i" xlink:href="#font_103_11" transform="matrix(9.963,0,0,-9.963,246.68517,133.524)"/>
<use data-text="m" xlink:href="#font_103_13" transform="matrix(9.963,0,0,-9.963,251.91574,133.524)"/>
<use data-text="e" xlink:href="#font_103_8" transform="matrix(9.963,0,0,-9.963,257.1463,133.524)"/>
<use data-text="n" xlink:href="#font_103_14" transform="matrix(9.963,0,0,-9.963,262.3769,133.524)"/>
<use data-text="t" xlink:href="#font_103_24" transform="matrix(9.963,0,0,-9.963,267.60749,133.524)"/>
<use data-text="s" xlink:href="#font_103_23" transform="matrix(9.963,0,0,-9.963,272.83808,133.524)"/>
<use data-text=")" xlink:href="#font_103_19" transform="matrix(9.963,0,0,-9.963,278.06867,133.524)"/>
<path transform="matrix(1,0,0,-1,485.7522,54.356599)" d="M0 0H-120.105C-122.306 0-124.09-1.784-124.09-3.985V-24.362C-124.09-26.563-122.306-28.347-120.105-28.347H0C2.201-28.347 3.985-26.563 3.985-24.362V-3.985C3.985-1.784 2.201 0 0 0Z" fill="#e4f1f1"/>
<path transform="matrix(1,0,0,-1,485.7522,54.356599)" stroke-width=".996" stroke-linecap="butt" stroke-miterlimit="10" stroke-linejoin="miter" fill="none" stroke="#000000" d="M0 0H-120.105C-122.306 0-124.09-1.784-124.09-3.985V-24.362C-124.09-26.563-122.306-28.347-120.105-28.347H0C2.201-28.347 3.985-26.563 3.985-24.362V-3.985C3.985-1.784 2.201 0 0 0Z"/>
<use data-text="a" xlink:href="#font_102_23" transform="matrix(9.963,0,0,-9.963,385.149,65.291)"/>
<use data-text="l" xlink:href="#font_102_39" transform="matrix(9.963,0,0,-9.963,390.1305,65.291)"/>
<use data-text="g" xlink:href="#font_102_33" transform="matrix(9.963,0,0,-9.963,392.9002,65.291)"/>
<use data-text="o" xlink:href="#font_102_42" transform="matrix(9.963,0,0,-9.963,397.8817,65.291)"/>
<use data-text="r" xlink:href="#font_102_49" transform="matrix(9.963,0,0,-9.963,402.86323,65.291)"/>
<use data-text="i" xlink:href="#font_102_36" transform="matrix(9.963,0,0,-9.963,406.7687,65.291)"/>
<use data-text="t" xlink:href="#font_102_51" transform="matrix(9.963,0,0,-9.963,409.53843,65.291)"/>
<use data-text="h" xlink:href="#font_102_34" transform="matrix(9.963,0,0,-9.963,413.41404,65.291)"/>
<use data-text="m" xlink:href="#font_102_40" transform="matrix(9.963,0,0,-9.963,418.9435,65.291)"/>
<use data-text="f" xlink:href="#font_102_30" transform="matrix(9.963,0,0,-9.963,430.549,65.291)"/>
<use data-text="u" xlink:href="#font_102_54" transform="matrix(9.963,0,0,-9.963,433.5977,65.291)"/>
<use data-text="n" xlink:href="#font_102_41" transform="matrix(9.963,0,0,-9.963,439.12718,65.291)"/>
<use data-text="c" xlink:href="#font_102_25" transform="matrix(9.963,0,0,-9.963,444.65666,65.291)"/>
<use data-text="t" xlink:href="#font_102_51" transform="matrix(9.963,0,0,-9.963,449.08024,65.291)"/>
<use data-text="i" xlink:href="#font_102_36" transform="matrix(9.963,0,0,-9.963,452.95585,65.291)"/>
<use data-text="o" xlink:href="#font_102_42" transform="matrix(9.963,0,0,-9.963,455.72557,65.291)"/>
<use data-text="n" xlink:href="#font_102_41" transform="matrix(9.963,0,0,-9.963,460.70707,65.291)"/>
<use data-text="f" xlink:href="#font_103_9" transform="matrix(9.963,0,0,-9.963,364.97804,77.246)"/>
<use data-text="u" xlink:href="#font_103_26" transform="matrix(9.963,0,0,-9.963,370.20863,77.246)"/>
<use data-text="n" xlink:href="#font_103_14" transform="matrix(9.963,0,0,-9.963,375.4392,77.246)"/>
<use data-text="(" xlink:href="#font_103_18" transform="matrix(9.963,0,0,-9.963,380.6698,77.246)"/>
<use data-text="d" xlink:href="#font_103_6" transform="matrix(9.963,0,0,-9.963,385.9004,77.246)"/>
<use data-text="a" xlink:href="#font_103_2" transform="matrix(9.963,0,0,-9.963,391.13099,77.246)"/>
<use data-text="t" xlink:href="#font_103_24" transform="matrix(9.963,0,0,-9.963,396.36158,77.246)"/>
<use data-text="a" xlink:href="#font_103_2" transform="matrix(9.963,0,0,-9.963,401.59217,77.246)"/>
<use data-text="," xlink:href="#font_103_5" transform="matrix(9.963,0,0,-9.963,406.82276,77.246)"/>
<use data-text="i" xlink:href="#font_103_11" transform="matrix(9.963,0,0,-9.963,417.28395,77.246)"/>
<use data-text="n" xlink:href="#font_103_14" transform="matrix(9.963,0,0,-9.963,422.51454,77.246)"/>
<use data-text="s" xlink:href="#font_103_23" transform="matrix(9.963,0,0,-9.963,427.74513,77.246)"/>
<use data-text="t" xlink:href="#font_103_24" transform="matrix(9.963,0,0,-9.963,432.9757,77.246)"/>
<use data-text="a" xlink:href="#font_103_2" transform="matrix(9.963,0,0,-9.963,438.2063,77.246)"/>
<use data-text="n" xlink:href="#font_103_14" transform="matrix(9.963,0,0,-9.963,443.42689,77.246)"/>
<use data-text="c" xlink:href="#font_103_3" transform="matrix(9.963,0,0,-9.963,448.65748,77.246)"/>
<use data-text="e" xlink:href="#font_103_8" transform="matrix(9.963,0,0,-9.963,453.88807,77.246)"/>
<use data-text="," xlink:href="#font_103_5" transform="matrix(9.963,0,0,-9.963,459.11866,77.246)"/>
<use data-text="." xlink:href="#font_104_1" transform="matrix(9.963,0,0,-9.963,469.56004,77.246)"/>
<use data-text="." xlink:href="#font_104_1" transform="matrix(9.963,0,0,-9.963,473.99363,77.246)"/>
<use data-text="." xlink:href="#font_104_1" transform="matrix(9.963,0,0,-9.963,478.4172,77.246)"/>
<use data-text=")" xlink:href="#font_103_19" transform="matrix(9.963,0,0,-9.963,481.18693,77.246)"/>
<path transform="matrix(1,0,0,-1,478.4082,111.0502)" d="M0 0H-105.417C-107.618 0-109.402-1.784-109.402-3.985V-24.362C-109.402-26.563-107.618-28.347-105.417-28.347H0C2.201-28.347 3.985-26.563 3.985-24.362V-3.985C3.985-1.784 2.201 0 0 0Z" fill="#e4f1f1"/>
<path transform="matrix(1,0,0,-1,478.4082,111.0502)" stroke-width=".996" stroke-linecap="butt" stroke-miterlimit="10" stroke-linejoin="miter" fill="none" stroke="#000000" d="M0 0H-105.417C-107.618 0-109.402-1.784-109.402-3.985V-24.362C-109.402-26.563-107.618-28.347-105.417-28.347H0C2.201-28.347 3.985-26.563 3.985-24.362V-3.985C3.985-1.784 2.201 0 0 0Z"/>
<use data-text="a" xlink:href="#font_102_23" transform="matrix(9.963,0,0,-9.963,389.409,121.569)"/>
<use data-text="l" xlink:href="#font_102_39" transform="matrix(9.963,0,0,-9.963,394.3905,121.569)"/>
<use data-text="g" xlink:href="#font_102_33" transform="matrix(9.963,0,0,-9.963,397.16023,121.569)"/>
<use data-text="o" xlink:href="#font_102_42" transform="matrix(9.963,0,0,-9.963,402.14173,121.569)"/>
<use data-text="r" xlink:href="#font_102_49" transform="matrix(9.963,0,0,-9.963,407.12324,121.569)"/>
<use data-text="i" xlink:href="#font_102_36" transform="matrix(9.963,0,0,-9.963,411.02873,121.569)"/>
<use data-text="t" xlink:href="#font_102_51" transform="matrix(9.963,0,0,-9.963,413.79844,121.569)"/>
<use data-text="h" xlink:href="#font_102_34" transform="matrix(9.963,0,0,-9.963,417.67405,121.569)"/>
<use data-text="m" xlink:href="#font_102_40" transform="matrix(9.963,0,0,-9.963,423.20353,121.569)"/>
<use data-text="d" xlink:href="#font_102_28" transform="matrix(9.963,0,0,-9.963,434.809,121.569)"/>
<use data-text="e" xlink:href="#font_102_29" transform="matrix(9.963,0,0,-9.963,440.33848,121.569)"/>
<use data-text="s" xlink:href="#font_102_50" transform="matrix(9.963,0,0,-9.963,444.76206,121.569)"/>
<use data-text="i" xlink:href="#font_102_36" transform="matrix(9.963,0,0,-9.963,448.68748,121.569)"/>
<use data-text="g" xlink:href="#font_102_33" transform="matrix(9.963,0,0,-9.963,451.45719,121.569)"/>
<use data-text="n" xlink:href="#font_102_41" transform="matrix(9.963,0,0,-9.963,456.4387,121.569)"/>
<use data-text="(" xlink:href="#font_103_18" transform="matrix(9.963,0,0,-9.963,383.862,133.524)"/>
<use data-text="a" xlink:href="#font_103_2" transform="matrix(9.963,0,0,-9.963,389.0926,133.524)"/>
<use data-text="d" xlink:href="#font_103_6" transform="matrix(9.963,0,0,-9.963,394.32319,133.524)"/>
<use data-text="d" xlink:href="#font_103_6" transform="matrix(9.963,0,0,-9.963,399.55378,133.524)"/>
<use data-text="E" xlink:href="#font_103_1" transform="matrix(9.963,0,0,-9.963,404.78437,133.524)"/>
<use data-text="x" xlink:href="#font_103_29" transform="matrix(9.963,0,0,-9.963,410.01496,133.524)"/>
<use data-text="p" xlink:href="#font_103_17" transform="matrix(9.963,0,0,-9.963,415.24555,133.524)"/>
<use data-text="e" xlink:href="#font_103_8" transform="matrix(9.963,0,0,-9.963,420.47615,133.524)"/>
<use data-text="r" xlink:href="#font_103_22" transform="matrix(9.963,0,0,-9.963,425.70674,133.524)"/>
<use data-text="i" xlink:href="#font_103_11" transform="matrix(9.963,0,0,-9.963,430.93733,133.524)"/>
<use data-text="m" xlink:href="#font_103_13" transform="matrix(9.963,0,0,-9.963,436.1679,133.524)"/>
<use data-text="e" xlink:href="#font_103_8" transform="matrix(9.963,0,0,-9.963,441.3985,133.524)"/>
<use data-text="n" xlink:href="#font_103_14" transform="matrix(9.963,0,0,-9.963,446.6291,133.524)"/>
<use data-text="t" xlink:href="#font_103_24" transform="matrix(9.963,0,0,-9.963,451.85969,133.524)"/>
<use data-text="s" xlink:href="#font_103_23" transform="matrix(9.963,0,0,-9.963,457.09028,133.524)"/>
<use data-text=")" xlink:href="#font_103_19" transform="matrix(9.963,0,0,-9.963,462.32087,133.524)"/>
<path transform="matrix(1,0,0,-1,468.2199,11.836399)" d="M0 0C0 6.262-19.037 11.339-42.52 11.339-66.004 11.339-85.04 6.262-85.04 0-85.04-6.262-66.004-11.339-42.52-11.339-19.037-11.339 0-6.262 0 0Z" fill="#ffffff"/>
<path transform="matrix(1,0,0,-1,468.2199,11.836399)" stroke-width=".996" stroke-linecap="butt" stroke-miterlimit="10" stroke-linejoin="miter" fill="none" stroke="#000000" d="M0 0C0 6.262-19.037 11.339-42.52 11.339-66.004 11.339-85.04 6.262-85.04 0-85.04-6.262-66.004-11.339-42.52-11.339-19.037-11.339 0-6.262 0 0Z"/>
<use data-text="r" xlink:href="#font_102_49" transform="matrix(9.963,0,0,-9.963,413.48,15.267998)"/>
<use data-text="e" xlink:href="#font_102_29" transform="matrix(9.963,0,0,-9.963,417.3855,15.267998)"/>
<use data-text="s" xlink:href="#font_102_50" transform="matrix(9.963,0,0,-9.963,421.80909,15.267998)"/>
<use data-text="u" xlink:href="#font_102_54" transform="matrix(9.963,0,0,-9.963,425.7345,15.267998)"/>
<use data-text="l" xlink:href="#font_102_39" transform="matrix(9.963,0,0,-9.963,431.26399,15.267998)"/>
<use data-text="t" xlink:href="#font_102_51" transform="matrix(9.963,0,0,-9.963,434.0337,15.267998)"/>
</svg>
