<svg xmlns="http://www.w3.org/2000/svg" xmlns:xlink="http://www.w3.org/1999/xlink" version="1.1" width="348.952pt" height="316.637pt" viewBox="0 0 348.952 316.637">
<defs>
<path id="font_3_7" d="M.23199463 .616272C.14898682 .61027529 .057998659 .5462494 .057998659 .4532013 .057998659 .36616517 .13699341 .3071289 .21798706 .29212953 .22599793 .29013063 .23298645 .29013063 .23298645 .27812196 .23298645 .27412416 .23199463 .27012635 .23199463 .26712037V.058029176C.19499207 .06503296 .13999939 .08703613 .13398743 .13305664V.13505554C.13398743 .14605713 .14698792 .15507508 .14698792 .17108155 .14698792 .19508362 .12998963 .21609497 .102996829 .21609497 .07899475 .21609497 .057998659 .1980896 .057998659 .17007447 .057998659 .07702637 .11999512 .020004273 .20899964-.0010070801 .21798706-.0030059815 .23199463 0 .23199463-.014007568V-.023010254C.23199463-.029022217 .23098755-.036010744 .23098755-.043014528 .23098755-.06402588 .23999024-.08203125 .2630005-.08203125 .27999879-.08203125 .29299928-.07102966 .29299928-.05102539V-.0030059815C.3829956 .007003784 .46598817 .07803345 .46598817 .17507935V.18507385C.45700074 .26712037 .3899994 .33114625 .30699159 .3451538 .2999878 .3471527 .29299928 .3461609 .29299928 .35916139V.5552521C.32998658 .5502472 .37998963 .53123477 .3889923 .49121095V.48921205C.3889923 .48121644 .3809967 .47320558 .3789978 .46620179 .37799073 .46220399 .3769989 .4571991 .3769989 .4532013 .3769989 .42718507 .3959961 .4091797 .42599488 .4091797 .45399476 .41018678 .46598817 .43618775 .46598817 .46121217 .46598817 .551239 .3929901 .6002655 .31599427 .6142731 .30799867 .61528018 .29299928 .61227419 .29299928 .62628176V.6602936C.29299928 .68130496 .2829895 .6953125 .2619934 .6953125 .24598694 .6953125 .23199463 .6843109 .23199463 .6642914V.616272M.29299928 .059020997V.27612306C.34799195 .26611329 .4019928 .22610474 .4019928 .16607666 .4019928 .11004639 .34498597 .06802368 .29299928 .059020997M.23199463 .5552521V.36116029C.18399048 .37016297 .12199402 .400177 .12199402 .459198 .12199402 .5192261 .18899536 .5442352 .23199463 .5552521Z"/>
<path id="font_3_24" d="M.1519928 .43066407H.06098938C.036987306 .43066407 .024993897 .4186554 .024993897 .3996582 .024993897 .37965394 .040985109 .36965943 .05999756 .36965943H.1519928V.11003113C.15899658 .037109376 .21598816-.0048828127 .2939911-.0048828127 .36799623-.0048828127 .44898988 .041107179 .44898988 .12301636V.1349945C.44898988 .16195679 .43099977 .16595459 .41299439 .16595459 .3909912 .16595459 .3789978 .15396118 .3789978 .1309967V.12400818C.3789978 .07807922 .33399964 .056106569 .2979889 .056106569 .24198914 .056106569 .22200012 .09005737 .22200012 .13600159V.36965943H.3869934C.40499879 .36965943 .4269867 .37265016 .4269867 .3996582 .4269867 .4186554 .4149933 .43066407 .3929901 .43066407H.22200012V.518692C.22200012 .547699 .20599365 .55371096 .18699646 .55371096 .16799927 .55371096 .1519928 .54670718 .1519928 .51768496V.43066407Z"/>
<path id="font_3_22" d="M.22200012 .3566742V.39265443C.22200012 .41766358 .21199036 .43066407 .18598938 .43066407H.06498718C.04598999 .43066407 .0309906 .42166139 .0309906 .40065003 .0309906 .37965394 .04399109 .36965943 .067993167 .36965943H.1519928V.061965944H.06599426C.042999269 .062088014 .0309906 .050064088 .0309906 .032043458 .0309906 .015014648 .042999269 0 .06399536 0 .068984989-.000030517579 .07499695 .0009765625 .07998657 .0009765625H.2769928C.2919922 .0009918213 .30799867 0 .32398988 0 .35398866 0 .37298585 .005004883 .37298585 .032043458 .37298585 .049972536 .3619995 .061965944 .33699037 .061965944H.22200012V.17715454C.22200012 .2672882 .2709961 .37747193 .3929901 .37747193 .40699769 .37747193 .4059906 .33247376 .44499208 .33247376 .46699525 .33247376 .4869995 .34947206 .4869995 .37547303 .4869995 .4234619 .42999269 .43847657 .3919983 .43847657 .32499696 .43847657 .2669983 .4054718 .22200012 .35746766V.3566742Z"/>
<path id="font_3_2" d="M.16899109 .375412C.18699646 .37841798 .20698548 .38041688 .22599793 .38041688 .2849884 .38041688 .35398866 .35740663 .35398866 .2783203 .23399353 .2783203 .054992677 .2492981 .054992677 .12817383 .054992677 .035110475 .147995-.0048828127 .22200012-.0048828127 .269989-.0048828127 .31698609 .0041046144 .35499574 .027114869 .35699464 .02810669 .35899354 .03010559 .3619995 .03010559H.3639984C.36898805 .03010559 .3829956 .015106201 .3959961 .010116577 .42399598 .00010681152 .46099855 .00010681152 .48999024 .00010681152 .5139923 .00010681152 .5239868 .015106201 .5239868 .033111574V.036102296C.522995 .053115846 .5089874 .06210327 .49198915 .06210327H.46199037C.44299317 .06210327 .4229889 .06411743 .4229889 .08312988 .4229889 .088134769 .42399598 .09213257 .42399598 .09614563V.2783203C.42399598 .3734131 .35099793 .43441773 .25299073 .4404297H.21699524C.1639862 .4404297 .08099365 .43441773 .08099365 .36741639 .08099365 .3383789 .102996829 .32136537 .12599182 .32136537 .15098572 .32136537 .16999817 .3413849 .16999817 .36540223 .16999817 .3684082 .16999817 .37242127 .16899109 .375412M.35398866 .21826172V.13317871C.35398866 .068115238 .27999879 .056106569 .22999573 .056106569 .18798828 .056106569 .125 .07513428 .125 .12817383 .125 .1852417 .21699524 .20324707 .25698854 .21026612 .2889862 .215271 .32199098 .21826172 .35398866 .21826172Z"/>
<path id="font_3_11" d="M.23999024 .36965943V.061965944H.115997318C.09098816 .061965944 .07798767 .050964357 .07798767 .031967164 .07798767 .017974854 .08699036 .0029754639 .102996829 .0009765625H.42199708C.44299317 .0009765625 .45498658 .011962891 .45498658 .030975342 .45498658 .050964357 .44198609 .06297302 .4189911 .06297302 .41099549 .06297302 .40299989 .061965944 .3959961 .061965944H.30999757V.39665223C.30999757 .42565919 .2919922 .43066407 .272995 .43066407H.12399292C.10699463 .43066407 .085998538 .426651 .085998538 .3996582 .085998538 .37765504 .100997928 .36965943 .125 .36965943H.23999024M.25299073 .6123047C.22599793 .60827639 .20999146 .5852051 .20999146 .5631256 .20999146 .54104617 .22799683 .51293948 .25698854 .51293948 .28799439 .51293948 .30999757 .5370331 .30999757 .5631256 .30999757 .58517459 .2919922 .61328127 .2619934 .61328127 .25898744 .6132965 .2559967 .6123047 .25299073 .6123047Z"/>
<path id="font_3_14" d="M.1659851 .3846588V.3956604C.1659851 .4156494 .15699768 .43066407 .1309967 .43066407H.04399109C.025985718 .43066407 .010986328 .41966249 .010986328 .3996582 .010986328 .3786621 .026992798 .36965943 .04598999 .36965943H.09599304V.061965944H.04399109C.023986817 .061965944 .010986328 .048965455 .010986328 .031967164 .010986328 .010971069 .025985718 .0009765625 .04798889 .0009765625H.21199036C.23498535 .0009765625 .25099183 .008972168 .25099183 .030975342 .25099183 .050964357 .23699951 .061965944 .21798706 .061965944H.1659851V.22872925C.1659851 .3066101 .21199036 .3755188 .29299928 .3755188 .34498597 .3755188 .35798646 .33657838 .35798646 .29263307V.061965944H.30999757C.2889862 .061965944 .27799989 .046966554 .27799989 .030975342 .27799989 .007965088 .29599 .0009765625 .31599427 .0009765625H.47599793C.49798585 .0009765625 .5130005 .010971069 .5130005 .031967164 .5130005 .048965455 .5 .061965944 .47999574 .061965944H.42799378V.2806549C.42799378 .34855653 .4099884 .43652345 .2979889 .43652345 .25 .43652345 .20098877 .417511 .1659851 .38452149V.3846588Z"/>
<path id="font_3_18" d="M.397995 .6943054C.3849945 .69229128 .36898805 .6792908 .35798646 .67129519 .23999024 .58226016 .17399597 .4472046 .17399597 .30413819V.2871399C.17999268 .14508057 .25498963 .0010223389 .3789978-.073013309 .3880005-.07801819 .39698792-.08300781 .40699769-.08300781 .42399598-.08300781 .43699647-.0690155 .43699647-.054000856 .43699647-.037002565 .41999818-.02999878 .4079895-.019989014 .3019867 .05303955 .24398804 .1790924 .24398804 .30714417 .24398804 .43618775 .30299378 .5632477 .4139862 .6372833 .4249878 .64328 .43699647 .65127566 .43699647 .6662903 .43699647 .6832886 .42399598 .6953125 .4059906 .6953125 .40299989 .6953125 .40098573 .6953125 .397995 .6943054Z"/>
<path id="font_3_19" d="M.10998535 .6943054C.09599304 .69229128 .08699036 .68029788 .08699036 .6672821 .08699036 .6482849 .10598755 .6392822 .12098694 .62927249 .22499085 .551239 .27999879 .43218995 .27999879 .30613709 .27999879 .1790924 .22200012 .05404663 .11399841-.021987915 .099990848-.0309906 .08699036-.039001466 .08699036-.055007936 .08699036-.071014408 .099990848-.08300781 .115997318-.08300781 .15499878-.08300781 .22200012-.014984131 .25698854 .029037476 .31900025 .108062747 .34999085 .20710755 .34999085 .30613709 .34999085 .4461975 .2849884 .58325198 .16799927 .66929629 .1539917 .68029788 .13699341 .6953125 .117996219 .6953125 .114990238 .6953125 .11299133 .6953125 .10998535 .6943054Z"/>
<path id="font_4_42" d="M.23498535 .4482422C.10899353 .43522645 .027999878 .3292389 .027999878 .21322632 .027999878 .100234989 .116989139-.009765625 .25-.009765625 .36999513-.009765625 .47099305 .08822632 .47099305 .2142334 .47099305 .33320619 .3809967 .44921876 .24798584 .44921876 .24398804 .449234 .23899842 .4482422 .23498535 .4482422M.11199951 .19023133V.23423767C.11199951 .31021119 .13598633 .4262085 .24899292 .4262085 .32998658 .4262085 .37599183 .35821534 .3849945 .2822113 .3869934 .2602234 .3869934 .23921204 .3869934 .21722412 .3869934 .15222168 .37998963 .07122803 .31599427 .034225465 .29599 .021224976 .27398683 .0152282719 .25099183 .0152282719 .17799378 .0152282719 .1269989 .07221985 .115997318 .15022278 .11399841 .16322327 .11399841 .17721558 .11199951 .19021607V.19023133Z"/>
<path id="font_4_41" d="M.03199768 .43138124V.4003601H.04699707C.07998657 .4003601 .10998535 .39735414 .10998535 .35029603V.074020389C.10998535 .032974245 .08198547 .031967164 .037994386 .031967164H.03199768V.0009765625H.2579956V.031967164H.23199463C.20399475 .031967164 .17999268 .035980226 .17999268 .073013309V.25621034C.17999268 .3282776 .21699524 .42037965 .31599427 .42037965 .37998963 .42037965 .38598634 .3513031 .38598634 .30825807V.069000247C.38598634 .034973146 .35699464 .031967164 .32598878 .031967164H.30799867V.0009765625H.5339966V.031967164H.5089874C.48199464 .031967164 .45599366 .035980226 .45599366 .070007327V.28923036C.45599366 .32226563 .45498658 .35630799 .43899537 .38633729 .41600038 .43037416 .36499024 .4423828 .31900025 .4423828 .2579956 .4423828 .19499207 .4003601 .1749878 .34028626L.17399597 .4423828 .03199768 .43138124Z"/>
<path id="font_4_19" d="M.054992677 .6777344 .035995485 .45280458H.06098938C.06498718 .50479128 .067993167 .5757599 .09899902 .6097412 .1329956 .6447296 .18998719 .64772036 .23599243 .64772036H.26098634C.28799439 .64772036 .31599427 .64772036 .31599427 .613739V.07695007C.31599427 .036972047 .27598573 .030975342 .23999024 .030975342 .22698975 .030975342 .21398926 .031967164 .20399475 .031967164H.17098999V.0009765625H.5499878V.031967164H.48199464C.44299317 .031967164 .40499879 .035964967 .40499879 .07695007V.613739C.40499879 .6427307 .42199708 .64772036 .45999146 .64772036H.4850006C.5309906 .64772036 .58799746 .6447296 .621994 .6097412 .6529999 .5757599 .6559906 .50479128 .6599884 .45280458H.68499758L.66600039 .6777344H.054992677Z"/>
<path id="font_4_49" d="M.026992798 .43138124V.4003601H.041992189C.07499695 .4003601 .10499573 .39735414 .10499573 .35029603V.074020389C.10499573 .032974245 .07699585 .031967164 .032989503 .031967164H.026992798V.0009765625H.2689972V.031967164C.25698854 .031967164 .24299622 .030975342 .23098755 .030975342 .19898987 .030975342 .17199707 .035980226 .17199707 .073013309V.20614624C.17199707 .2912445 .19198609 .42037965 .2899933 .42037965 .2939911 .42037965 .29699708 .42037965 .30099488 .41937257V.41836549C.28599549 .41236878 .27799989 .39634706 .27799989 .38032533 .27799989 .35731507 .29299928 .34129334 .31599427 .33728028 .34498597 .33728028 .3639984 .3553009 .3639984 .38032533 .3639984 .42037965 .32598878 .4423828 .2899933 .4423828 .23098755 .4423828 .17799378 .38934327 .16799927 .33528138L.16699219 .4423828 .026992798 .43138124Z"/>
<path id="font_4_23" d="M.11199951 .3812256C.13699341 .41223146 .18099976 .426239 .21798706 .426239 .2919922 .426239 .32499696 .3592224 .32499696 .288208V.26220704C.20999146 .26220704 .040985109 .22619629 .040985109 .095214847V.08721924C.04899597 .010223389 .1459961-.009765625 .20298767-.009765625 .2539978-.009765625 .31900025 .024230957 .33198548 .07522583H.33299256C.33898927 .032226564 .3659973-.004776001 .41099549-.004776001 .45199586-.004776001 .48799134 .02822876 .49299623 .07322693V.14620972H.46798707V.095214847C.46798707 .068222049 .46299745 .02722168 .43199159 .02722168 .3999939 .02722168 .394989 .066223148 .394989 .09321594V.26020814C.394989 .27320863 .3959961 .28520204 .3959961 .29821778 .3959961 .39523316 .30499269 .4482422 .22200012 .4482422 .15899658 .4482422 .069992069 .41723634 .069992069 .33721925 .069992069 .30822755 .09098816 .28923036 .116989139 .28923036 .14498902 .28923036 .1619873 .31123353 .1619873 .3352356 .1619873 .3642273 .13899231 .38124085 .11199951 .38124085V.3812256M.32499696 .24121094V.14021302C.32499696 .07122803 .2769928 .016220093 .21199036 .01222229H.20799256C.16099549 .01222229 .11898804 .049224855 .11898804 .097213748V.10221863C.12599182 .2032013 .23899842 .23820496 .32499696 .24121094Z"/>
<path id="font_4_36" d="M.036987306 .430542V.3995819H.055999757C.084991458 .3995819 .11099243 .3955841 .11099243 .34962464V.07292175C.11099243 .037963869 .09298706 .031967164 .032989503 .031967164V.0009765625H.24798584V.031967164H.22799683C.20199585 .031967164 .17799378 .034973146 .17799378 .06692505V.44154359L.036987306 .430542M.12098694 .6689453C.09599304 .66589358 .07598877 .64382937 .07598877 .61672976 .07598877 .5876312 .100997928 .5635376 .1289978 .5635376 .1559906 .5635376 .18199158 .58561709 .18199158 .61672976 .18199158 .64582827 .15699768 .6699219 .1289978 .6699219 .12599182 .66993716 .12399292 .6689453 .12098694 .6689453Z"/>
<path id="font_4_33" d="M.11898804 .02281189V.02180481C.07199097 .012802124 .027999878-.032165529 .027999878-.07914734 .027999878-.1730957 .17199707-.20507813 .24899292-.20507813 .33299256-.20507813 .47099305-.1750946 .47099305-.072143558 .47099305-.0071868898 .4249878 .03781128 .36499024 .05480957 .32899476 .06581116 .2919922 .06680298 .2539978 .06680298H.16299439C.1309967 .06982422 .10598755 .10205078 .10598755 .13427735V.13931275C.10699463 .15238953 .11399841 .17837525 .12399292 .17837525 .13699341 .17538452 .15098572 .16438294 .1659851 .15937805 .18399048 .15338135 .20399475 .15039063 .22299195 .15039063 .30499269 .15039063 .3849945 .21134949 .3849945 .29626466 .3849945 .3302307 .37098695 .37019349 .34399415 .3921814V.39317323C.37098695 .41316224 .39698792 .43113709 .43299867 .43113709 .43598939 .43113709 .43899537 .43113709 .44198609 .43014527 .43299867 .42414857 .4269867 .41714479 .4269867 .40415956 .4269867 .3881836 .43998719 .37419129 .45599366 .37419129 .47299195 .37419129 .4850006 .3881836 .4850006 .40415956 .4850006 .43113709 .46299745 .453125 .43499757 .453125 .3999939 .453125 .3659973 .4391327 .33999635 .41714479 .33699037 .41415406 .33299256 .41015626 .32899476 .40916444H.32798768C.32199098 .40916444 .31399537 .41714479 .30899049 .42015077 .2829895 .43437196 .25299073 .4423828 .22299195 .4423828 .14399719 .4423828 .05899048 .38737489 .05899048 .29638673 .05899048 .26338197 .07199097 .23338318 .09199524 .2073822 .09599304 .2033844 .102996829 .19837952 .102996829 .1933899 .102996829 .18838501 .09700012 .18338013 .09498596 .17938233 .08198547 .15937805 .07499695 .13427735 .07499695 .11010742 .07499695 .07888794 .08898926 .03781128 .11898804 .02281189M.08099365-.08413696V-.07614136C.08099365-.0231781 .1269989 .0078125 .18099976 .0078125H.25898744C.32199098 .0078125 .41799928-.0011901856 .41799928-.07814026 .41799928-.15110779 .31098939-.18208313 .24899292-.18208313 .18299866-.18208313 .09098816-.15209961 .08099365-.08413696M.1349945 .27638246V.28938294C.1349945 .3443756 .147995 .41838075 .22200012 .41838075 .28399659 .41838075 .30899049 .36038209 .30899049 .29638673 .30899049 .25538636 .30099488 .17437744 .22299195 .17437744 .19699097 .17437744 .17199707 .18638611 .15499878 .20838928 .13999939 .2283783 .13798523 .25238038 .1349945 .27638246Z"/>
<path id="font_4_4" d="M.033996583 .68359377V.6525879C.04699707 .6525879 .05999756 .6535797 .07199097 .6535797 .10798645 .6535797 .13699341 .6485901 .13699341 .60861209V.07493591C.13699341 .036972047 .10398865 .030975342 .069992069 .030975342 .056991579 .030975342 .04499817 .031967164 .033996583 .031967164V.0009765625H.3809967C.5099945 .0009765625 .6289978 .062942508 .6859894 .2088623 .70098879 .24983216 .70799258 .29281617 .70799258 .33677674 .70799258 .49269105 .6100006 .6605835 .43099977 .68258669 .4149933 .68359377 .397995 .68359377 .38198854 .68359377H.033996583M.6069946 .3117981V.29180909C.59799197 .18487549 .56399539 .07394409 .43899537 .04096985 .40899659 .031967164 .37998963 .031967164 .34899903 .031967164H.2630005C.23999024 .031967164 .22200012 .036972047 .22200012 .06794739 .22200012 .07493591 .22299195 .0819397 .22299195 .0879364V.58062747C.22299195 .5896301 .22200012 .59962466 .22200012 .60861209 .22200012 .64759829 .23699951 .6535797 .2649994 .6535797 .272995 .6535797 .2809906 .6525879 .2869873 .6525879H.35299684C.4229889 .6525879 .49198915 .63760378 .5419922 .57662966 .59599307 .511673 .60798647 .42773438 .60798647 .34477235V.33477784C.60798647 .32678224 .60798647 .3197937 .6069946 .3117981Z"/>
<path id="font_4_51" d="M.14898682 .6152344C.14898682 .54644778 .11999512 .421875 .017990113 .421875V.39987184H.10398865V.1421051C.10398865 .10914612 .10598755 .076171878 .12199402 .047195436 .14399719 .007232666 .19099427-.009765625 .23498535-.009765625 .31698609-.009765625 .33299256 .08216858 .33299256 .14511109V.18206787H.30799867C.30799867 .16708374 .30899049 .15209961 .30899049 .1361084 .30899049 .09214783 .29899598 .0152282719 .23999024 .0152282719 .18299866 .0152282719 .17399597 .08416748 .17399597 .12911988V.39987184H.31599427V.43066407H.17399597V.6152344H.14898682Z"/>
<path id="font_3_17" d="M.1659851 .38865663V.39665223C.1659851 .42965699 .14498902 .43066407 .1269989 .43066407H.04798889C.027999878 .43066407 .010986328 .4226532 .010986328 .3996582 .010986328 .37965394 .025985718 .36965943 .04499817 .36965943H.09599304V-.15971375H.04399109C.023986817-.15971375 .010986328-.17271424 .010986328-.18971253 .010986328-.21070862 .025985718-.22070313 .04798889-.22070313H.21199036C.23498535-.22070313 .25099183-.21270752 .25099183-.19070435 .25099183-.17071533 .23699951-.15971375 .21798706-.15971375H.1659851V.04510498C.19999695 .0131073 .23799134-.0048828127 .28399659-.0048828127 .39898683-.0048828127 .48799134 .10102844 .48799134 .21580506 .48799134 .32261659 .4139862 .43652345 .2899933 .43652345 .24499512 .43652345 .19999695 .41851808 .1659851 .3885193V.38865663M.4169922 .2038269C.4099884 .12997437 .35899354 .056106569 .27799989 .056106569 .20999146 .056106569 .16499329 .13496399 .16499329 .19186402 .16499329 .2038269 .1659851 .21580506 .1659851 .2277832 .1659851 .23876953 .16499329 .25074769 .16499329 .26272584 .16499329 .3256073 .22898865 .3755188 .28799439 .3755188 .37298585 .3755188 .41799928 .28567506 .41799928 .21780396 .41799928 .21281433 .41799928 .20883179 .4169922 .2038269Z"/>
<path id="font_3_8" d="M.1269989 .19238281H.4249878C.44599916 .19238281 .46398927 .19737244 .46398927 .22737122 .46398927 .28138734 .44898988 .33840943 .41600038 .37841798 .37998963 .42042542 .32598878 .4404297 .27198792 .4404297 .15899658 .4404297 .054992677 .3504181 .054992677 .21537781V.20637512C.05999756 .08717346 .1659851-.0048828127 .28599549-.0048828127H.29599C.35099793-.0028839112 .4099884 .018112183 .44400025 .06413269 .45199586 .07614136 .46398927 .094177249 .46398927 .11021423 .46398927 .1312561 .44599916 .13827515 .42799378 .13827515 .397995 .13827515 .39698792 .11923218 .3869934 .10220337 .3659973 .07014465 .32798768 .056106569 .29100038 .056106569 .20999146 .056106569 .147995 .11122131 .1269989 .19238281M.12799073 .25238038C.14698792 .31739808 .18998719 .37942506 .27198792 .37942506 .34498597 .37942506 .3880005 .32139588 .3919983 .25238038H.12799073Z"/>
<path id="font_3_6" d="M.35798646 .55130007V.3925171C.32598878 .417511 .28799439 .43652345 .24699402 .43652345 .12399292 .43652345 .035995485 .33358766 .035995485 .21481323 .035995485 .10601807 .11099243 .0041046144 .22099304-.0048828127H.23098755C.2789917-.0048828127 .32299806 .015106201 .35798646 .050109865V.035110475C.35798646 .012969971 .36898805 .0009765625 .3919983 .0009765625H.47599793C.49499513 .0009765625 .5130005 .008972168 .5130005 .030975342 .5130005 .051971437 .49798585 .061965944 .47799684 .061965944H.42799378V.5791321C.42799378 .59921267 .41799928 .61328127 .3929901 .61328127 .3869934 .6132965 .3809967 .6123047 .375 .6123047H.30799867C.2899933 .6123047 .272995 .603302 .272995 .58229067 .272995 .56430056 .2849884 .55130007 .30599977 .55130007H.35798646M.10598755 .20483399C.10598755 .20982361 .10499573 .21382141 .10499573 .21881104 .10499573 .29566957 .16499329 .3755188 .24598694 .3755188H.2519989C.30299378 .37251283 .35099793 .3276062 .35798646 .28068543V.2297821C.35798646 .21881104 .35899354 .20683289 .35899354 .19485474 .35899354 .12298584 .29899598 .056106569 .23498535 .056106569 .15699768 .056106569 .11299133 .13595581 .10598755 .20483399Z"/>
<path id="font_3_3" d="M.3659973 .375412C.3659973 .37242127 .36499024 .36941529 .36499024 .3664093 .36499024 .33738709 .3889923 .32136537 .41099549 .32136537 .43099977 .32136537 .44898988 .33337403 .45399476 .35940553 .45399476 .43641664 .37098695 .4404297 .31199647 .4404297 .22898865 .4404297 .1599884 .41542054 .11099243 .3433838 .085998538 .3063507 .07299805 .26130677 .07299805 .2172699 .07299805 .11216736 .1539917-.0048828127 .29100038-.0048828127 .3600006-.0048828127 .42799378 .021102906 .45899964 .087142948 .46199037 .09414673 .46499635 .103149417 .46499635 .11116028 .46499635 .12918091 .45098878 .1381836 .43299867 .1381836H.4229889C.4019928 .1381836 .39698792 .11717224 .3909912 .104156497 .375 .071121219 .33499146 .056106569 .30099488 .056106569 .21199036 .056106569 .14299011 .13117981 .14299011 .21626282 .14299011 .30334474 .20599365 .37942506 .30299378 .37942506 .32398988 .37942506 .34498597 .37742616 .3659973 .375412Z"/>
<path id="font_4_13" d="M.032989503 .68359377V.6525879C.04699707 .6525879 .06298828 .6535797 .07899475 .6535797 .10899353 .6535797 .13598633 .650589 .13598633 .63560488V.106918338C.13598633 .036972047 .07798767 .031967164 .032989503 .031967164V.0009765625H.2669983V.031967164C.22399903 .031967164 .16299439 .037963869 .16299439 .10491943 .16299439 .11392212 .1639862 .123916629 .1639862 .13191223V.62561038C.17999268 .60762026 .19299317 .5856323 .20599365 .5656433 .32899476 .38674928 .44898988 .20585633 .57199099 .02696228 .57899478 .016967774 .58599856 .0009765625 .59999087 .0009765625 .6100006 .0009765625 .61299136 .007965088 .61299136 .016967774V.58062747C.61299136 .64759829 .6729889 .6525879 .71598818 .6525879V.68359377H.48199464V.6525879C.5249939 .6525879 .58499148 .64759829 .58499148 .5816345V.15289307L.22299195 .6815796 .20498657 .68359377H.032989503Z"/>
<path id="font_4_29" d="M.11199951 .23242188H.3999939C.41099549 .23242188 .41600038 .2394104 .41600038 .250412 .41600038 .35630799 .35099793 .4482422 .23899842 .4482422 .115997318 .4482422 .027999878 .33932496 .027999878 .22039795 .027999878 .12832642 .07899475 .04624939 .16699219 .006225586 .18998719-.003768921 .21699524-.009765625 .24198914-.009765625H.24499512C.32199098-.009765625 .38598634 .0332489 .41299439 .110305789 .4139862 .11331177 .4139862 .11730957 .4139862 .12031555 .4139862 .12731934 .4099884 .13232422 .40299989 .13232422 .3880005 .13232422 .38198854 .0993042 .37599183 .08828735 .35099793 .04425049 .30299378 .0152282719 .25099183 .0152282719 .21398926 .0152282719 .18199158 .036239625 .15499878 .06326294 .114990238 .109313968 .11199951 .17436219 .11199951 .23242188M.11299133 .25341798C.11299133 .33033753 .1539917 .426239 .23599243 .426239H.24099732C.33898927 .41723634 .33799745 .3133545 .34799195 .25341798H.11299133Z"/>
<path id="font_4_56" d="M.017990113 .43066407V.3996582H.032989503C.084991458 .3996582 .08699036 .37768556 .11199951 .3067932 .13699341 .23788452 .16299439 .16897583 .18699646 .10006714L.21699524 .016189576C.22099304 .005203247 .22399903-.008773804 .23799134-.009765625H.23999024C.2619934-.009765625 .27598573 .057128908 .2889862 .09008789 .30699159 .14302063 .32598878 .19593811 .34599305 .24887085 .35099793 .2628479 .35699464 .27682496 .3600006 .29081727H.36099244C.3639984 .27682496 .36999513 .2628479 .375 .24887085L.4039917 .16798401C.42199708 .11605835 .44198609 .06512451 .45999146 .013198853 .46398927 .0022125245 .46798707-.009765625 .48199464-.009765625 .5039978-.009765625 .5209961 .06112671 .5329895 .097076419L.58999636 .25585938C.61299136 .31877137 .6269989 .3996582 .7029877 .3996582V.43066407H.5379944V.3996582C.56399539 .39866639 .59199526 .38467408 .59498599 .35671998 .59498599 .3287506 .5779877 .2967987 .56900027 .2708435 .5529938 .22789002 .5379944 .18495178 .522995 .14201355 .5149994 .12104797 .5049896 .09907532 .5 .07710266H.49899293C.49398805 .10107422 .48098756 .13102722 .47099305 .1559906 .44799806 .22090149 .42399598 .28482057 .4019928 .35072328 .39898683 .3577118 .3959961 .3657074 .3959961 .373703V.37768556C.40098573 .3996582 .43399049 .3996582 .45399476 .3996582V.43066407H.2599945V.3996582H.27799989C.31698609 .3996582 .32598878 .38467408 .33898927 .35072328 .34098817 .34373475 .34599305 .3347473 .34599305 .32676698 .34498597 .31777955 .33999635 .30778504 .33699037 .2998047L.27999879 .14102173C.27398683 .1240387 .2689972 .10707092 .2619934 .09107971 .25 .11705017 .24198914 .14601135 .23199463 .17297364 .21699524 .21591187 .20098877 .2588501 .18598938 .30178834L.16799927 .35272218C.1659851 .35871888 .1619873 .3657074 .1619873 .37269593 .1619873 .39866639 .19898987 .3996582 .22099304 .3996582V.43066407H.017990113Z"/>
<path id="font_4_7" d="M.59399417 .06349182C.6069946 .038497926 .6439972 .00050354006 .6569977 .00050354006 .6629944 .00050354006 .66600039 .006515503 .66600039 .014511108V.1844635C.66600039 .1904602 .6649933 .19746399 .6649933 .20446778 .6649933 .23945618 .69099429 .24145508 .7350006 .24145508V.27246095H.45199586V.24145508C.46499635 .24145508 .48098756 .2424469 .49699403 .2424469 .54499819 .2424469 .57699587 .23945618 .57699587 .19445801V.16847229C.57699587 .15647888 .5779877 .1454773 .5779877 .13348389 .5779877 .04849243 .5 .009506226 .42099 .009506226 .32899476 .009506226 .24198914 .0644989 .19898987 .1454773 .1659851 .2074585 .1579895 .27746583 .1579895 .34655763 .1579895 .44470216 .17799378 .5478668 .25898744 .6159668 .3019867 .65200808 .35899354 .6750488 .4149933 .6750488 .5249939 .6750488 .59999087 .5839081 .6269989 .4747467 .6329956 .45472718 .6269989 .41867066 .651001 .41867066 .6619873 .41867066 .66600039 .42567445 .66600039 .43569947V.6900482C.66600039 .697052 .6649933 .7060547 .6539917 .7060547 .6389923 .7060547 .59199526 .62698367 .58898928 .6199646 .57299807 .63298037 .55999758 .64801028 .5439911 .661026 .5009918 .6920471 .45199586 .7060547 .39898683 .7060547 .20399475 .7060547 .054992677 .5288391 .054992677 .34155274V.3265381C.06199646 .14247132 .21199036-.021484375 .4059906-.021484375 .47898866-.021484375 .5469971-.00048828127 .59399417 .06349182Z"/>
<path id="font_4_15" d="M.033996583 .68359377V.6525879C.04699707 .6525879 .05999756 .6535797 .07199097 .6535797 .10798645 .6535797 .13699341 .6485901 .13699341 .60861209V.07493591C.13699341 .036972047 .10398865 .030975342 .069992069 .030975342 .056991579 .030975342 .04499817 .031967164 .033996583 .031967164V.0009765625H.32899476V.031967164H.29499818C.25299073 .031967164 .22599793 .033966066 .22599793 .07594299V.31677247H.4099884C.5049896 .323761 .6239929 .38174439 .6239929 .49667359 .6239929 .60261538 .5189972 .67259219 .41799928 .68258669 .40299989 .68356326 .3889923 .6845703 .37399293 .6845703 .35398866 .6845856 .33399964 .68359377 .31498719 .68359377H.033996583M.22299195 .34277345V.62060549C.22299195 .647583 .23999024 .650589 .25898744 .6525879H.33399964C.3899994 .6525879 .45498658 .650589 .49398805 .6036072 .5179901 .57463076 .5209961 .5346527 .5209961 .4986725 .5209961 .46269227 .5179901 .42471314 .49598695 .3947296 .46199037 .35176087 .4039917 .34277345 .35299684 .34277345H.22299195Z"/>
<path id="font_4_28" d="M.3039856 .6843109V.6533203H.31999208C.35499574 .6533203 .38198854 .6493225 .38198854 .5913391L.3809967 .38136292C.35699464 .42137147 .2999878 .4423828 .2539978 .4423828 .1309967 .4423828 .032989503 .3363495 .032989503 .21530152 .032989503 .10826111 .114990238-.009765625 .24699402-.009765625 .29899598-.009765625 .34599305 .0152282719 .3789978 .055236818V-.009765625L.5269928 .0012207031V.032226564H.5099945C.47898866 .032226564 .44898988 .035232545 .44898988 .08224487V.6953125L.3039856 .6843109M.116989139 .19128418V.20629883C.116989139 .2803192 .12599182 .35534669 .19499207 .4013672 .21499634 .41337586 .23799134 .42037965 .26098634 .42037965 .30999757 .42037965 .37998963 .38035584 .37998963 .31733705 .37998963 .30433656 .3789978 .2913208 .3789978 .2783203V.11225891C.3789978 .09925842 .37399293 .09025574 .36698915 .08024597 .34098817 .041244508 .2979889 .01222229 .25099183 .01222229 .17799378 .01222229 .13198853 .07925415 .12098694 .14826966 .11898804 .16227722 .11898804 .17729187 .116989139 .19128418Z"/>
<path id="font_4_25" d="M.35899354 .38723756C.33299256 .38523866 .31199647 .36923219 .31199647 .3412323 .31199647 .3142395 .33099366 .29522706 .35798646 .29522706 .3880005 .29522706 .4039917 .31723023 .4039917 .3452301V.3512268C.3939972 .4242401 .30899049 .4482422 .25099183 .4482422 .1289978 .4482422 .032989503 .3412323 .032989503 .21723938 .032989503 .10423279 .12098694-.009765625 .25-.009765625 .31599427-.009765625 .3809967 .026229859 .4079895 .096221927 .4099884 .10223389 .4149933 .11123657 .4149933 .1182251 .4149933 .12522888 .4099884 .13023377 .40299989 .13023377 .3880005 .13023377 .3789978 .09222412 .37199403 .07922363 .34799195 .040222169 .30699159 .016220093 .2619934 .0152282719 .15499878 .0152282719 .12199402 .1222229 .116989139 .20123291V.21322632C.116989139 .29322816 .13598633 .41323854 .24598694 .42323304H.2539978C.29100038 .42323304 .32998658 .41223146 .35899354 .38723756Z"/>
<path id="font_4_50" d="M.17599488 .4482422C.13899231 .44422914 .099990848 .4372406 .070999149 .41223146 .04699707 .39123536 .032989503 .35723878 .032989503 .32522584 .032989503 .15423584 .31098939 .25123597 .31098939 .10122681 .31098939 .040222169 .2559967 .01222229 .20098877 .01222229 .125 .01222229 .07398987 .066223148 .05999756 .15222168 .057998659 .16122437 .056991579 .17022705 .04499817 .17022705 .036987306 .17022705 .032989503 .16423035 .032989503 .15722656V-.00077819827C.033996583-.0057678224 .036987306-.008773804 .041992189-.009765625H.04399109C.05999756-.009765625 .07598877 .02722168 .08799744 .030227662H.08898926C.09700012 .030227662 .12399292 .0052337648 .14498902-.0017700195 .1619873-.0077667238 .17999268-.009765625 .19799805-.009765625 .2809906-.009765625 .3600006 .034225465 .3600006 .12623596 .3600006 .19223023 .31199647 .24623108 .24598694 .26322938 .18399048 .28022767 .08198547 .28022767 .08198547 .3532257 .08198547 .4142151 .14898682 .42921449 .19299317 .42921449 .24198914 .42921449 .30999757 .40220643 .30999757 .3162079 .30999757 .30722047 .31098939 .2992096 .32199098 .2992096 .33198548 .2992096 .33599855 .30722047 .33599855 .31721498 .33599855 .32221986 .33499146 .32720948 .33499146 .33120729V.4342041C.33499146 .44023133 .33198548 .4482422 .32398988 .4482422 .30799867 .4482422 .2979889 .42323304 .2869873 .42323304H.28599549C.27799989 .42323304 .2619934 .43623353 .25 .44023133 .23199463 .44621278 .21199036 .44921876 .19299317 .44921876 .18699646 .449234 .18199158 .4482422 .17599488 .4482422Z"/>
<path id="font_4_11" d="M.032989503 .68359377V.6525879C.04598999 .6525879 .05899048 .6535797 .070999149 .6535797 .10699463 .6535797 .13598633 .6485901 .13598633 .60861209V.07493591C.13598633 .036972047 .102996829 .030975342 .068984989 .030975342 .055999757 .030975342 .04399109 .031967164 .032989503 .031967164V.0009765625H.55400088L.58200076 .25883485H.5569916C.548996 .17788697 .5359955 .061950685 .42099 .03996277 .3919983 .031967164 .36299134 .031967164 .33399964 .031967164H.2599945C.23999024 .033966066 .22499085 .038970949 .22499085 .06594849V.60861209C.22499085 .6485901 .26098634 .6535797 .2939911 .6535797 .30499269 .6535797 .31498719 .6525879 .32398988 .6525879H.35299684V.68359377H.032989503Z"/>
<path id="font_3_13" d="M.10798645 .39863587C.10798645 .42663575 .08799744 .43164063 .067993167 .43164063 .05899048 .43164063 .049987794 .43063355 .042999269 .43063355H.0309906C.0129852299 .43063355-.005004883 .42362977-.005004883 .40063478-.005004883 .38563539 .004989624 .37164308 .020996094 .36964417H.051986696V.061965944C.04598999 .061965944 .039993287 .06297302 .032989503 .06297302 .0129852299 .06297302-.005004883 .053970338-.005004883 .031967164-.005004883 .011962891 .008987427 .0009765625 .02999878 .0009765625H.12799073C.14898682 .0009765625 .16499329 .009963989 .16499329 .031967164 .16499329 .053970338 .14698792 .06297302 .1269989 .06297302 .11999512 .06297302 .11399841 .061965944 .10798645 .061965944V.21879578C.10798645 .2767334 .115997318 .35665895 .17799378 .3726349 .18299866 .3746338 .18899536 .3756256 .19400025 .3756256 .23399353 .3756256 .23399353 .3196869 .23399353 .2887268V.061965944H.21899414C.19799805 .061965944 .18299866 .052963258 .18299866 .031967164 .18299866 .011962891 .19499207 .0009765625 .21798706 .0009765625H.31199647C.33299256 .0009765625 .34700013 .011962891 .34700013 .031967164 .34700013 .053970338 .32899476 .06297302 .30899049 .06297302 .3019867 .06297302 .29599 .061965944 .2899933 .061965944V.21879578C.2899933 .2767334 .2979889 .35665895 .3600006 .3726349 .36499024 .3746338 .37098695 .3756256 .37599183 .3756256 .41600038 .3756256 .41600038 .3196869 .41600038 .2887268V.061965944H.40098573C.37998963 .061965944 .36499024 .052963258 .36499024 .031967164 .36499024 .011962891 .3769989 .0009765625 .3999939 .0009765625H.49398805C.5149994 .0009765625 .5289917 .011962891 .5289917 .031967164 .5289917 .053970338 .5109863 .06297302 .4909973 .06297302 .48399354 .06297302 .47799684 .061965944 .47200013 .061965944V.29371644C.47200013 .35043336 .46199037 .43847657 .3789978 .43847657 .33898927 .43847657 .29499818 .4134674 .2769928 .38346864 .2599945 .41455079 .23498535 .43652345 .19699097 .43652345 .1639862 .43652345 .1309967 .42053224 .10798645 .39855958V.39863587Z"/>
<path id="font_3_15" d="M.24798584 .4404297C.1289978 .4294281 .056991579 .32237245 .056991579 .215271V.20526123C.06098938 .09614563 .1459961-.0048828127 .2630005-.0048828127H.2749939C.3939972 .0051116945 .46699525 .11016846 .46699525 .21626282V.22727967C.46299745 .3383789 .3769989 .4404297 .25898744 .4404297H.24798584M.1269989 .21125794C.1269989 .215271 .12599182 .22027588 .12599182 .22427368 .12599182 .29833985 .17999268 .37942506 .2639923 .37942506 .34098817 .37942506 .3889923 .3073578 .39698792 .23628235V.22727967C.39698792 .15220642 .34999085 .056106569 .2619934 .056106569H.2579956C.18299866 .06211853 .1349945 .13117981 .1269989 .21125794Z"/>
<path id="font_3_12" d="M.22698975 .55130007V.061965944H.08799744C.068984989 .061965944 .056991579 .048965455 .056991579 .030975342 .056991579 .008972168 .07398987 .0009765625 .09399414 .0009765625H.44299317C.45899964 .003967285 .46699525 .017974854 .46699525 .031967164 .46699525 .048965455 .45599366 .061965944 .43699647 .061965944H.29699708V.57429507C.29699708 .6082916 .27999879 .6123047 .25898744 .6123047H.09498596C.07899475 .6123047 .056991579 .6092987 .056991579 .58229067 .056991579 .56430056 .068984989 .55130007 .08898926 .55130007H.22698975Z"/>
</defs>
<path transform="matrix(1,0,0,-1,12.904297,9.497696)" d="M0 0H-7.921C-10.122 0-11.906-1.784-11.906-3.985V-132.079C-11.906-134.28-10.122-136.064-7.921-136.064H331.073C333.274-136.064 335.058-134.28 335.058-132.079V-3.985C335.058-1.784 333.274 0 331.073 0H134.862" fill="#e9f4f4"/>
<path transform="matrix(1,0,0,-1,12.904297,9.497696)" stroke-width="1.993" stroke-linecap="butt" stroke-miterlimit="10" stroke-linejoin="miter" fill="none" stroke="#21908c" d="M0 0H-7.921C-10.122 0-11.906-1.784-11.906-3.985V-132.079C-11.906-134.28-10.122-136.064-7.921-136.064H331.073C333.274-136.064 335.058-134.28 335.058-132.079V-3.985C335.058-1.784 333.274 0 331.073 0H134.862"/>
<path transform="matrix(1,0,0,-1,12.904297,179.5781)" d="M0 0H-7.921C-10.122 0-11.906-1.784-11.906-3.985V-132.079C-11.906-134.28-10.122-136.064-7.921-136.064H331.073C333.274-136.064 335.058-134.28 335.058-132.079V-3.985C335.058-1.784 333.274 0 331.073 0H134.862" fill="#f4f3f7"/>
<path transform="matrix(1,0,0,-1,12.904297,179.5781)" stroke-width="1.993" stroke-linecap="butt" stroke-miterlimit="10" stroke-linejoin="miter" fill="none" stroke="#9081af" d="M0 0H-7.921C-10.122 0-11.906-1.784-11.906-3.985V-132.079C-11.906-134.28-10.122-136.064-7.921-136.064H331.073C333.274-136.064 335.058-134.28 335.058-132.079V-3.985C335.058-1.784 333.274 0 331.073 0H134.862"/>
<path transform="matrix(1,0,0,-1,11.2034,14.016602)" d="M0 0V9.038C0 11.239 1.784 13.023 3.985 13.023H149.087C151.288 13.023 153.072 11.239 153.072 9.038V0C153.072-2.201 151.288-3.985 149.087-3.985H3.985C1.784-3.985 0-2.201 0 0Z" fill="#ffffff"/>
<path transform="matrix(1,0,0,-1,11.2034,14.016602)" stroke-width="1.993" stroke-linecap="butt" stroke-miterlimit="10" stroke-linejoin="miter" fill="none" stroke="#21908c" d="M0 0V9.038C0 11.239 1.784 13.023 3.985 13.023H149.087C151.288 13.023 153.072 11.239 153.072 9.038V0C153.072-2.201 151.288-3.985 149.087-3.985H3.985C1.784-3.985 0-2.201 0 0Z"/>
<use data-text="$" xlink:href="#font_3_7" transform="matrix(11.955601,0,0,-11.955601,15.392,12.488007)"/>
<use data-text="t" xlink:href="#font_3_24" transform="matrix(11.955601,0,0,-11.955601,21.668692,12.488007)"/>
<use data-text="r" xlink:href="#font_3_22" transform="matrix(11.955601,0,0,-11.955601,27.945384,12.488007)"/>
<use data-text="a" xlink:href="#font_3_2" transform="matrix(11.955601,0,0,-11.955601,34.222074,12.488007)"/>
<use data-text="i" xlink:href="#font_3_11" transform="matrix(11.955601,0,0,-11.955601,40.498765,12.488007)"/>
<use data-text="n" xlink:href="#font_3_14" transform="matrix(11.955601,0,0,-11.955601,46.775457,12.488007)"/>
<use data-text="(" xlink:href="#font_3_18" transform="matrix(11.955601,0,0,-11.955601,53.052148,12.488007)"/>
<use data-text=")" xlink:href="#font_3_19" transform="matrix(11.955601,0,0,-11.955601,59.32884,12.488007)"/>
<use data-text="o" xlink:href="#font_4_42" transform="matrix(11.955601,0,0,-11.955601,69.5756,12.488007)"/>
<use data-text="n" xlink:href="#font_4_41" transform="matrix(11.955601,0,0,-11.955601,75.5534,12.488007)"/>
<use data-text="T" xlink:href="#font_4_19" transform="matrix(11.955601,0,0,-11.955601,86.169208,12.488007)"/>
<use data-text="r" xlink:href="#font_4_49" transform="matrix(11.955601,0,0,-11.955601,93.80883,12.488007)"/>
<use data-text="a" xlink:href="#font_4_23" transform="matrix(11.955601,0,0,-11.955601,98.49542,12.488007)"/>
<use data-text="i" xlink:href="#font_4_36" transform="matrix(11.955601,0,0,-11.955601,104.47322,12.488007)"/>
<use data-text="n" xlink:href="#font_4_41" transform="matrix(11.955601,0,0,-11.955601,107.796878,12.488007)"/>
<use data-text="i" xlink:href="#font_4_36" transform="matrix(11.955601,0,0,-11.955601,114.432239,12.488007)"/>
<use data-text="n" xlink:href="#font_4_41" transform="matrix(11.955601,0,0,-11.955601,117.75589,12.488007)"/>
<use data-text="g" xlink:href="#font_4_33" transform="matrix(11.955601,0,0,-11.955601,124.39125,12.488007)"/>
<use data-text="D" xlink:href="#font_4_4" transform="matrix(11.955601,0,0,-11.955601,134.35033,12.488007)"/>
<use data-text="a" xlink:href="#font_4_23" transform="matrix(11.955601,0,0,-11.955601,143.4844,12.488007)"/>
<use data-text="t" xlink:href="#font_4_51" transform="matrix(11.955601,0,0,-11.955601,149.4622,12.488007)"/>
<use data-text="a" xlink:href="#font_4_23" transform="matrix(11.955601,0,0,-11.955601,154.11293,12.488007)"/>
<path transform="matrix(1,0,0,-1,11.2034,184.097)" d="M0 0V9.038C0 11.239 1.784 13.023 3.985 13.023H244.332C246.533 13.023 248.318 11.239 248.318 9.038V0C248.318-2.201 246.533-3.985 244.332-3.985H3.985C1.784-3.985 0-2.201 0 0Z" fill="#ffffff"/>
<path transform="matrix(1,0,0,-1,11.2034,184.097)" stroke-width="1.993" stroke-linecap="butt" stroke-miterlimit="10" stroke-linejoin="miter" fill="none" stroke="#9081af" d="M0 0V9.038C0 11.239 1.784 13.023 3.985 13.023H244.332C246.533 13.023 248.318 11.239 248.318 9.038V0C248.318-2.201 246.533-3.985 244.332-3.985H3.985C1.784-3.985 0-2.201 0 0Z"/>
<use data-text="$" xlink:href="#font_3_7" transform="matrix(11.955601,0,0,-11.955601,17.073,182.39899)"/>
<use data-text="p" xlink:href="#font_3_17" transform="matrix(11.955601,0,0,-11.955601,23.349692,182.39899)"/>
<use data-text="r" xlink:href="#font_3_22" transform="matrix(11.955601,0,0,-11.955601,29.626383,182.39899)"/>
<use data-text="e" xlink:href="#font_3_8" transform="matrix(11.955601,0,0,-11.955601,35.903074,182.39899)"/>
<use data-text="d" xlink:href="#font_3_6" transform="matrix(11.955601,0,0,-11.955601,42.179765,182.39899)"/>
<use data-text="i" xlink:href="#font_3_11" transform="matrix(11.955601,0,0,-11.955601,48.456457,182.39899)"/>
<use data-text="c" xlink:href="#font_3_3" transform="matrix(11.955601,0,0,-11.955601,54.733148,182.39899)"/>
<use data-text="t" xlink:href="#font_3_24" transform="matrix(11.955601,0,0,-11.955601,61.00984,182.39899)"/>
<use data-text="(" xlink:href="#font_3_18" transform="matrix(11.955601,0,0,-11.955601,67.28653,182.39899)"/>
<use data-text=")" xlink:href="#font_3_19" transform="matrix(11.955601,0,0,-11.955601,73.56322,182.39899)"/>
<use data-text="o" xlink:href="#font_4_42" transform="matrix(11.955601,0,0,-11.955601,83.8062,182.39899)"/>
<use data-text="n" xlink:href="#font_4_41" transform="matrix(11.955601,0,0,-11.955601,89.784,182.39899)"/>
<use data-text="N" xlink:href="#font_4_13" transform="matrix(11.955601,0,0,-11.955601,100.39981,182.39899)"/>
<use data-text="e" xlink:href="#font_4_29" transform="matrix(11.955601,0,0,-11.955601,109.366519,182.39899)"/>
<use data-text="w" xlink:href="#font_4_56" transform="matrix(11.955601,0,0,-11.955601,114.674808,182.39899)"/>
<use data-text="D" xlink:href="#font_4_4" transform="matrix(11.955601,0,0,-11.955601,127.299907,182.39899)"/>
<use data-text="a" xlink:href="#font_4_23" transform="matrix(11.955601,0,0,-11.955601,136.43399,182.39899)"/>
<use data-text="t" xlink:href="#font_4_51" transform="matrix(11.955601,0,0,-11.955601,142.41179,182.39899)"/>
<use data-text="a" xlink:href="#font_4_23" transform="matrix(11.955601,0,0,-11.955601,147.06252,182.39899)"/>
<use data-text="t" xlink:href="#font_4_51" transform="matrix(11.955601,0,0,-11.955601,157.02159,182.39899)"/>
<use data-text="o" xlink:href="#font_4_42" transform="matrix(11.955601,0,0,-11.955601,161.67232,182.39899)"/>
<use data-text="G" xlink:href="#font_4_7" transform="matrix(11.955601,0,0,-11.955601,171.63127,182.39899)"/>
<use data-text="e" xlink:href="#font_4_29" transform="matrix(11.955601,0,0,-11.955601,181.01642,182.39899)"/>
<use data-text="t" xlink:href="#font_4_51" transform="matrix(11.955601,0,0,-11.955601,186.3247,182.39899)"/>
<use data-text="P" xlink:href="#font_4_15" transform="matrix(11.955601,0,0,-11.955601,194.95671,182.39899)"/>
<use data-text="r" xlink:href="#font_4_49" transform="matrix(11.955601,0,0,-11.955601,203.08652,182.39899)"/>
<use data-text="e" xlink:href="#font_4_29" transform="matrix(11.955601,0,0,-11.955601,207.77312,182.39899)"/>
<use data-text="d" xlink:href="#font_4_28" transform="matrix(11.955601,0,0,-11.955601,213.0814,182.39899)"/>
<use data-text="i" xlink:href="#font_4_36" transform="matrix(11.955601,0,0,-11.955601,219.71677,182.39899)"/>
<use data-text="c" xlink:href="#font_4_25" transform="matrix(11.955601,0,0,-11.955601,223.04042,182.39899)"/>
<use data-text="t" xlink:href="#font_4_51" transform="matrix(11.955601,0,0,-11.955601,228.34871,182.39899)"/>
<use data-text="i" xlink:href="#font_4_36" transform="matrix(11.955601,0,0,-11.955601,232.99944,182.39899)"/>
<use data-text="o" xlink:href="#font_4_42" transform="matrix(11.955601,0,0,-11.955601,236.32309,182.39899)"/>
<use data-text="n" xlink:href="#font_4_41" transform="matrix(11.955601,0,0,-11.955601,242.30089,182.39899)"/>
<use data-text="s" xlink:href="#font_4_50" transform="matrix(11.955601,0,0,-11.955601,248.93625,182.39899)"/>
<path transform="matrix(1,0,0,-1,113.2516,298.6344)" d="M0 0H-99.059C-100.71 0-102.048 1.338-102.048 2.989V99.059C-102.048 100.71-100.71 102.048-99.059 102.048H-.498" fill="#9abbc9"/>
<path transform="matrix(1,0,0,-1,113.2516,298.6344)" stroke-width="1.494" stroke-linecap="butt" stroke-miterlimit="10" stroke-linejoin="miter" fill="none" stroke="#80aabb" d="M0 0H-99.059C-100.71 0-102.048 1.338-102.048 2.989V99.059C-102.048 100.71-100.71 102.048-99.059 102.048H-.498"/>
<path transform="matrix(1,0,0,-1,155.77169,247.6102)" stroke-width="19.926" stroke-linecap="butt" stroke-miterlimit="10" stroke-linejoin="miter" fill="none" stroke="#c4cbdc" d="M0 0H15.698"/>
<path transform="matrix(1,0,0,-1,188.29334,247.61025)" d="M0 0-16.325 13.094V0-13.094Z" fill="#c4cbdc"/>
<path transform="matrix(1,0,0,-1,188.29334,247.61025)" stroke-width="1.993" stroke-linecap="butt" stroke-linejoin="round" fill="none" stroke="#c4cbdc" d="M0 0-16.325 13.094V0-13.094Z"/>
<path transform="matrix(1,0,0,-1,257.82,247.6102)" stroke-width="19.926" stroke-linecap="butt" stroke-miterlimit="10" stroke-linejoin="miter" fill="none" stroke="#c4cbdc" d="M0 0H15.698"/>
<path transform="matrix(1,0,0,-1,290.34159,247.61025)" d="M0 0-16.325 13.094V0-13.094Z" fill="#c4cbdc"/>
<path transform="matrix(1,0,0,-1,290.34159,247.61025)" stroke-width="1.993" stroke-linecap="butt" stroke-linejoin="round" fill="none" stroke="#c4cbdc" d="M0 0-16.325 13.094V0-13.094Z"/>
<path transform="matrix(1,0,0,-1,113.2516,128.554)" d="M0 0H-99.059C-100.71 0-102.048 1.338-102.048 2.989V99.059C-102.048 100.71-100.71 102.048-99.059 102.048H-.498" fill="#9abbc9"/>
<path transform="matrix(1,0,0,-1,113.2516,128.554)" stroke-width="1.494" stroke-linecap="butt" stroke-miterlimit="10" stroke-linejoin="miter" fill="none" stroke="#80aabb" d="M0 0H-99.059C-100.71 0-102.048 1.338-102.048 2.989V99.059C-102.048 100.71-100.71 102.048-99.059 102.048H-.498"/>
<path transform="matrix(1,0,0,-1,155.77169,77.52979)" stroke-width="19.926" stroke-linecap="butt" stroke-miterlimit="10" stroke-linejoin="miter" fill="none" stroke="#c4cbdc" d="M0 0H15.698"/>
<path transform="matrix(1,0,0,-1,188.29334,77.52983)" d="M0 0-16.325 13.094V0-13.094Z" fill="#c4cbdc"/>
<path transform="matrix(1,0,0,-1,188.29334,77.52983)" stroke-width="1.993" stroke-linecap="butt" stroke-linejoin="round" fill="none" stroke="#c4cbdc" d="M0 0-16.325 13.094V0-13.094Z"/>
<path transform="matrix(1,0,0,-1,257.82,247.6102)" stroke-width="19.926" stroke-linecap="butt" stroke-miterlimit="10" stroke-linejoin="miter" fill="none" stroke="#c4cbdc" d="M0 0H15.698"/>
<path transform="matrix(1,0,0,-1,290.34159,247.61025)" d="M0 0-16.325 13.094V0-13.094Z" fill="#c4cbdc"/>
<path transform="matrix(1,0,0,-1,290.34159,247.61025)" stroke-width="1.993" stroke-linecap="butt" stroke-linejoin="round" fill="none" stroke="#c4cbdc" d="M0 0-16.325 13.094V0-13.094Z"/>
<path transform="matrix(1,0,0,-1,109.84979,128.554)" d="M0 0H34.429C36.08 0 37.418 1.338 37.418 2.989V99.059C37.418 100.71 36.08 102.048 34.429 102.048H.498" fill="#c4ebc7"/>
<path transform="matrix(1,0,0,-1,109.84979,128.554)" stroke-width="1.494" stroke-linecap="butt" stroke-miterlimit="10" stroke-linejoin="miter" fill="none" stroke="#8dc891" d="M0 0H34.429C36.08 0 37.418 1.338 37.418 2.989V99.059C37.418 100.71 36.08 102.048 34.429 102.048H.498"/>
<path transform="matrix(1,0,0,-1,300.3401,298.6344)" d="M0 0H34.429C36.08 0 37.418 1.338 37.418 2.989V99.059C37.418 100.71 36.08 102.048 34.429 102.048H.498" fill="#bcb4cf"/>
<path transform="matrix(1,0,0,-1,300.3401,298.6344)" stroke-width="1.494" stroke-linecap="butt" stroke-miterlimit="10" stroke-linejoin="miter" fill="none" stroke="#73678c" d="M0 0H34.429C36.08 0 37.418 1.338 37.418 2.989V99.059C37.418 100.71 36.08 102.048 34.429 102.048H.498"/>
<path transform="matrix(1,0,0,-1,18.0065,205.09009)" stroke-width="1.494" stroke-linecap="butt" stroke-miterlimit="10" stroke-linejoin="miter" fill="none" stroke="#80aabb" d="M0 0H19.912"/>
<path transform="matrix(1,0,0,-1,18.0065,35.009698)" stroke-width="1.494" stroke-linecap="butt" stroke-miterlimit="10" stroke-linejoin="miter" fill="none" stroke="#80aabb" d="M0 0H19.912"/>
<path transform="matrix(1,0,0,-1,52.0226,205.09009)" stroke-width="1.494" stroke-linecap="butt" stroke-miterlimit="10" stroke-linejoin="miter" fill="none" stroke="#80aabb" d="M0 0H19.912"/>
<path transform="matrix(1,0,0,-1,52.0226,35.009698)" stroke-width="1.494" stroke-linecap="butt" stroke-miterlimit="10" stroke-linejoin="miter" fill="none" stroke="#80aabb" d="M0 0H19.912"/>
<path transform="matrix(1,0,0,-1,86.03859,205.09009)" stroke-width="1.494" stroke-linecap="butt" stroke-miterlimit="10" stroke-linejoin="miter" fill="none" stroke="#80aabb" d="M0 0H19.912"/>
<path transform="matrix(1,0,0,-1,86.03859,35.009698)" stroke-width="1.494" stroke-linecap="butt" stroke-miterlimit="10" stroke-linejoin="miter" fill="none" stroke="#80aabb" d="M0 0H19.912"/>
<path transform="matrix(1,0,0,-1,120.0547,35.009698)" stroke-width="1.494" stroke-linecap="butt" stroke-miterlimit="10" stroke-linejoin="miter" fill="none" stroke="#8dc891" d="M0 0H19.912"/>
<path transform="matrix(1,0,0,-1,310.54499,205.09009)" stroke-width="1.494" stroke-linecap="butt" stroke-miterlimit="10" stroke-linejoin="miter" fill="none" stroke="#73678c" d="M0 0H19.911"/>
<path transform="matrix(1,0,0,-1,303.74189,213.59421)" stroke-width=".498" stroke-linecap="butt" stroke-miterlimit="10" stroke-linejoin="miter" fill="none" stroke="#e0e0e0" d="M0 0H30.116"/>
<path transform="matrix(1,0,0,-1,45.21939,199.9879)" stroke-width=".498" stroke-linecap="butt" stroke-miterlimit="10" stroke-linejoin="miter" fill="none" stroke="#e0e0e0" d="M0 0V-94.746"/>
<path transform="matrix(1,0,0,-1,79.235507,199.9879)" stroke-width=".498" stroke-linecap="butt" stroke-miterlimit="10" stroke-linejoin="miter" fill="none" stroke="#e0e0e0" d="M0 0V-94.746"/>
<path transform="matrix(1,0,0,-1,45.21939,29.907494)" stroke-width=".498" stroke-linecap="butt" stroke-miterlimit="10" stroke-linejoin="miter" fill="none" stroke="#e0e0e0" d="M0 0V-94.746"/>
<path transform="matrix(1,0,0,-1,79.235507,29.907494)" stroke-width=".498" stroke-linecap="butt" stroke-miterlimit="10" stroke-linejoin="miter" fill="none" stroke="#e0e0e0" d="M0 0V-94.746"/>
<path transform="matrix(1,0,0,-1,14.605194,213.59421)" stroke-width=".498" stroke-linecap="butt" stroke-miterlimit="10" stroke-linejoin="miter" fill="none" stroke="#e0e0e0" d="M0 0H94.747"/>
<path transform="matrix(1,0,0,-1,14.605194,43.513795)" stroke-width=".498" stroke-linecap="butt" stroke-miterlimit="10" stroke-linejoin="miter" fill="none" stroke="#e0e0e0" d="M0 0H128.763"/>
<path transform="matrix(1,0,0,-1,198.2918,90.552799)" d="M0 0V26.046C0 28.247 1.784 30.031 3.985 30.031H47.039C49.24 30.031 51.024 28.247 51.024 26.046V0C51.024-2.201 49.24-3.985 47.039-3.985H3.985C1.784-3.985 0-2.201 0 0Z" fill="#79bcba"/>
<path transform="matrix(1,0,0,-1,198.2918,90.552799)" stroke-width=".398" stroke-linecap="butt" stroke-miterlimit="10" stroke-linejoin="miter" fill="none" stroke="#000000" d="M0 0V26.046C0 28.247 1.784 30.031 3.985 30.031H47.039C49.24 30.031 51.024 28.247 51.024 26.046V0C51.024-2.201 49.24-3.985 47.039-3.985H3.985C1.784-3.985 0-2.201 0 0Z"/>
<use data-text="L" xlink:href="#font_4_11" transform="matrix(11.955601,0,0,-11.955601,203.762,81.647998)" fill="#ffffff"/>
<use data-text="e" xlink:href="#font_4_29" transform="matrix(11.955601,0,0,-11.955601,211.23424,81.647998)" fill="#ffffff"/>
<use data-text="a" xlink:href="#font_4_23" transform="matrix(11.955601,0,0,-11.955601,216.54253,81.647998)" fill="#ffffff"/>
<use data-text="r" xlink:href="#font_4_49" transform="matrix(11.955601,0,0,-11.955601,222.52033,81.647998)" fill="#ffffff"/>
<use data-text="n" xlink:href="#font_4_41" transform="matrix(11.955601,0,0,-11.955601,227.20693,81.647998)" fill="#ffffff"/>
<use data-text="e" xlink:href="#font_4_29" transform="matrix(11.955601,0,0,-11.955601,233.84229,81.647998)" fill="#ffffff"/>
<use data-text="r" xlink:href="#font_4_49" transform="matrix(11.955601,0,0,-11.955601,239.15058,81.647998)" fill="#ffffff"/>
<path transform="matrix(1,0,0,-1,198.2918,277.64118)" d="M0 0V60.062C0 62.263 1.784 64.047 3.985 64.047H47.039C49.24 64.047 51.024 62.263 51.024 60.062V0C51.024-2.201 49.24-3.985 47.039-3.985H3.985C1.784-3.985 0-2.201 0 0Z" fill="#79bcba"/>
<path transform="matrix(1,0,0,-1,198.2918,277.64118)" stroke-width=".398" stroke-linecap="butt" stroke-miterlimit="10" stroke-linejoin="miter" fill="none" stroke="#000000" d="M0 0V60.062C0 62.263 1.784 64.047 3.985 64.047H47.039C49.24 64.047 51.024 62.263 51.024 60.062V0C51.024-2.201 49.24-3.985 47.039-3.985H3.985C1.784-3.985 0-2.201 0 0Z"/>
<use data-text="L" xlink:href="#font_4_11" transform="matrix(11.955601,0,0,-11.955601,203.762,234.71799)" fill="#ffffff"/>
<use data-text="e" xlink:href="#font_4_29" transform="matrix(11.955601,0,0,-11.955601,211.23424,234.71799)" fill="#ffffff"/>
<use data-text="a" xlink:href="#font_4_23" transform="matrix(11.955601,0,0,-11.955601,216.54253,234.71799)" fill="#ffffff"/>
<use data-text="r" xlink:href="#font_4_49" transform="matrix(11.955601,0,0,-11.955601,222.52033,234.71799)" fill="#ffffff"/>
<use data-text="n" xlink:href="#font_4_41" transform="matrix(11.955601,0,0,-11.955601,227.20693,234.71799)" fill="#ffffff"/>
<use data-text="e" xlink:href="#font_4_29" transform="matrix(11.955601,0,0,-11.955601,233.84229,234.71799)" fill="#ffffff"/>
<use data-text="r" xlink:href="#font_4_49" transform="matrix(11.955601,0,0,-11.955601,239.15058,234.71799)" fill="#ffffff"/>
<path transform="matrix(1,0,0,-1,201.69371,270.8381)" d="M0 0V26.046C0 28.247 1.784 30.031 3.985 30.031H40.236C42.437 30.031 44.221 28.247 44.221 26.046V0C44.221-2.201 42.437-3.985 40.236-3.985H3.985C1.784-3.985 0-2.201 0 0Z" fill="#ebebeb"/>
<path transform="matrix(1,0,0,-1,201.69371,270.8381)" stroke-width=".398" stroke-linecap="butt" stroke-miterlimit="10" stroke-linejoin="miter" fill="none" stroke="#000000" d="M0 0V26.046C0 28.247 1.784 30.031 3.985 30.031H40.236C42.437 30.031 44.221 28.247 44.221 26.046V0C44.221-2.201 42.437-3.985 40.236-3.985H3.985C1.784-3.985 0-2.201 0 0Z"/>
<use data-text="$" xlink:href="#font_3_7" transform="matrix(11.955601,0,0,-11.955601,204.974,261.466)"/>
<use data-text="m" xlink:href="#font_3_13" transform="matrix(11.955601,0,0,-11.955601,211.25069,261.466)"/>
<use data-text="o" xlink:href="#font_3_15" transform="matrix(11.955601,0,0,-11.955601,217.52738,261.466)"/>
<use data-text="d" xlink:href="#font_3_6" transform="matrix(11.955601,0,0,-11.955601,223.80406,261.466)"/>
<use data-text="e" xlink:href="#font_3_8" transform="matrix(11.955601,0,0,-11.955601,230.08075,261.466)"/>
<use data-text="l" xlink:href="#font_3_12" transform="matrix(11.955601,0,0,-11.955601,236.35744,261.466)"/>
<path transform="matrix(1,0,0,-1,239.11101,87.734798)" stroke-width="2.989" stroke-linecap="butt" stroke-miterlimit="10" stroke-linejoin="miter" fill="none" stroke="#a9a9a9" d="M0 0C58.971-22.88 56.48-141.197 2.327-159.627"/>
<path transform="matrix(-.94664,.32216,.32216,.94664,236.94754,248.88986)" d="M0 0-4.339 3.507V0-3.507Z" fill="#a9a9a9"/>
<path transform="matrix(-.94664,.32216,.32216,.94664,236.94754,248.88986)" stroke-width="1.619" stroke-linecap="butt" stroke-linejoin="round" fill="none" stroke="#a9a9a9" d="M0 0-4.339 3.507V0-3.507Z"/>
<path transform="matrix(1,0,0,-1,239.11101,87.734798)" stroke-width="2.989" stroke-linecap="butt" stroke-miterlimit="10" stroke-linejoin="miter" fill="none" stroke="#a9a9a9" d="M0 0C58.971-22.88 56.48-141.197 2.327-159.627"/>
<path transform="matrix(-.94664,.32216,.32216,.94664,236.94754,248.88986)" d="M0 0-4.339 3.507V0-3.507Z" fill="#a9a9a9"/>
<path transform="matrix(-.94664,.32216,.32216,.94664,236.94754,248.88986)" stroke-width="1.619" stroke-linecap="butt" stroke-linejoin="round" fill="none" stroke="#a9a9a9" d="M0 0-4.339 3.507V0-3.507Z"/>
</svg>
