<svg xmlns="http://www.w3.org/2000/svg" xmlns:xlink="http://www.w3.org/1999/xlink" version="1.1" width="603.58pt" height="199.222pt" viewBox="0 0 603.58 199.222">
<defs>
<path id="font_0_8" d="M.04699707 .68359377V.6555786H.07199097C.10499573 .6555786 .13598633 .65159609 .13598633 .61460879 .13598633 .60762026 .1349945 .60061648 .1349945 .59461978V.090927127C.1349945 .08493042 .13598633 .076934818 .13598633 .06994629 .13598633 .032958986 .10499573 .02897644 .07398987 .02897644H.04699707V.0009765625H.5289917L.55400088 .25582887H.5339966C.526001 .17088318 .5189972 .064941409 .39898683 .034957887 .37199403 .02897644 .34399415 .02897644 .31599427 .02897644H.24299622C.22299195 .02897644 .20698548 .033966066 .20698548 .060943605 .20698548 .06694031 .20799256 .07394409 .20799256 .078933719V.59562686C.20799256 .60162356 .20698548 .60762026 .20698548 .61361697 .20698548 .650589 .24198914 .6565857 .2769928 .6565857 .29100038 .6565857 .30499269 .6555786 .31698609 .6555786V.68359377H.04699707Z"/>
<path id="font_0_19" d="M.09899902 .35827638C.116989139 .399292 .1639862 .42730714 .20899964 .42730714 .2829895 .42730714 .31498719 .35627748 .31498719 .29125978V.25724793C.21099854 .25724793 .07899475 .23223877 .04699707 .12121582 .04499817 .112213138 .04399109 .10321045 .04399109 .09320068V.0861969C.049987794 .018173218 .1309967-.0078125 .18598938-.0078125 .24099732-.0078125 .2979889 .019180298 .31999208 .079193118H.32099916C.32099916 .03718567 .35099793-.0038146973 .394989-.0038146973 .43499757-.0038146973 .46598817 .031188965 .46998597 .07319641V.14620972H.44999696V.095199588C.44999696 .06619263 .44400025 .02218628 .41099549 .02218628 .37799073 .02218628 .37098695 .06518555 .37098695 .0921936 .37098695 .10321045 .37199403 .113204959 .37199403 .12321472V.29325868C.37199403 .3902893 .29599 .4453125 .21398926 .4453125 .1579895 .4453125 .101989749 .41729737 .07798767 .36128236 .07398987 .35028077 .069992069 .3362732 .069992069 .3232727 .069992069 .29826356 .08898926 .28025819 .11099243 .28025819 .13198853 .28025819 .1499939 .29826356 .1499939 .3192749 .1499939 .34127809 .13398743 .35928346 .10899353 .35928346 .10499573 .35928346 .101989749 .35928346 .09899902 .35827638M.31498719 .24024964V.1412201C.31498719 .07620239 .27198792 .012176514 .20199585 .010177612H.19799805C.1539917 .010177612 .10998535 .044189454 .10998535 .09420776 .10998535 .19822693 .22698975 .24024964 .31498719 .24024964Z"/>
<path id="font_0_20" d="M.034988405 .6843109V.6562958H.049987794C.07699585 .6562958 .10499573 .65330508 .10499573 .6082916V.0011749268L.12399292 .003189087 .15499878 .06919861H.15699768C.17999268 .020187378 .23399353-.0078125 .28599549-.0078125 .40699769-.0078125 .49198915 .10420227 .49198915 .21922302 .49198915 .33224488 .4079895 .44026185 .2939911 .44026185 .23799134 .44026185 .19400025 .41226197 .1599884 .37025453V.6953125L.034988405 .6843109M.42099 .19322205C.4169922 .14720154 .41099549 .10020447 .3809967 .063186649 .35598756 .031188965 .31900025 .010177612 .27999879 .010177612 .22599793 .010177612 .1619873 .060195924 .1619873 .112197879V.27622987C.1619873 .28823854 .16099549 .301239 .16099549 .31323243 .16099549 .37025453 .22799683 .42225648 .2889862 .42225648 .31199647 .42225648 .33299256 .41426087 .35198976 .4022522 .4119873 .36024476 .42199708 .28222657 .42199708 .21522522 .42199708 .20822144 .42199708 .20021057 .42099 .19322205Z"/>
<path id="font_0_23" d="M.100997928 .23524475H.38198854C.3919983 .23524475 .3959961 .23825073 .3959961 .24824524 .3959961 .3422699 .34899903 .4453125 .22898865 .4453125 .10899353 .4453125 .0309906 .3322754 .0309906 .22123719 .0309906 .114212039 .100997928-.0008239746 .22799683-.0078125H.23399353C.3039856-.0078125 .37298585 .03819275 .3929901 .10820007 .3939972 .111206058 .3959961 .11520386 .3959961 .11921692 .3959961 .12321472 .3909912 .1282196 .3869934 .1282196 .37298585 .1282196 .36799623 .096206668 .35899354 .08119202 .33599855 .04118347 .29100038 .012176514 .24398804 .012176514H.23799134C.20999146 .014175415 .18499756 .025177002 .16299439 .043182374 .10598755 .0901947 .100997928 .16722107 .100997928 .23524475M.101989749 .25224305C.101989749 .3282776 .14099121 .42630006 .22499085 .42630006 .31199647 .42630006 .33699037 .32626344 .33699037 .25224305H.101989749Z"/>
<path id="font_0_29" d="M.037994386 .68429568V.6562805H.050994874C.083999637 .6562805 .10798645 .6522827 .10798645 .6032562V.067993167C.10798645 .031967164 .08198547 .02897644 .053985597 .02897644H.037994386V.0009765625H.23298645V.02897644H.21099854C.18499756 .02897644 .16299439 .031967164 .16299439 .06599426V.6953125L.037994386 .68429568Z"/>
<path id="font_0_40" d="M.08099365 .04219055C.10398865 .008178711 .14698792-.0078125 .18598938-.0078125 .2579956-.0078125 .34199525 .021194458 .34199525 .12721253 .34199525 .17422486 .31399537 .21624756 .27398683 .23924256 .21499634 .2732544 .08699036 .2542572 .07199097 .34327699 .07199097 .4072876 .125 .42929078 .18199158 .42929078 .24398804 .42929078 .28599549 .3972931 .2979889 .3212738V.31326295C.2979889 .30426026 .29899598 .29325868 .30899049 .29325868 .31698609 .29325868 .31900025 .30026246 .31900025 .30625917V.43429566C.31900025 .43930055 .31698609 .4453125 .31098939 .4453125 .29899598 .4453125 .2809906 .41729737 .27799989 .41229249 .25099183 .43530274 .21899414 .4453125 .18399048 .4453125 .117996219 .4453125 .03199768 .41929627 .03199768 .32626344 .03199768 .2102356 .17799378 .2122345 .23899842 .19023133 .272995 .17422486 .3019867 .14422608 .3019867 .10520935 .3019867 .032196046 .23899842 .010177612 .18798828 .010177612 .08898926 .010177612 .07199097 .09820557 .051986696 .16923523 .050994874 .17323303 .04598999 .17622376 .041992189 .17622376 .034988405 .17622376 .03199768 .17022705 .03199768 .16423035V.00018310547C.032989503-.0038452149 .034988405-.0068359377 .038986207-.0068359377H.040985109C.04699707-.0068359377 .049987794-.0008392334 .053985597 .0031585694L.08099365 .04219055Z"/>
<path id="font_0_5" d="M.04798889 .6816406V.6536255H.07499695C.10598755 .6536255 .13598633 .64964297 .13598633 .6127014 .13598633 .6057129 .1349945 .5977173 .1349945 .59173586V.08999634C.1349945 .083999637 .13598633 .07699585 .13598633 .069992069 .13598633 .032974245 .10499573 .02897644 .07398987 .02897644H.04798889V.0009765625H.31698609V.02897644H.2809906C.23699951 .02897644 .20799256 .029968262 .20799256 .07398987V.328125H.29100038C.34498597 .328125 .39898683 .32411195 .39898683 .22807312V.21105957H.4189911V.4729309H.39898683V.45594789C.39898683 .40504457 .38598634 .36410523 .32998658 .35810853 .31199647 .35612489 .2939911 .35612489 .27598573 .35612489H.20799256V.61968997C.20799256 .64863589 .22200012 .6536255 .24699402 .6536255H.3659973C.4169922 .6536255 .47698976 .65164187 .5139923 .6127014 .5509949 .57276919 .5529938 .51086428 .55999758 .45994569H.5799866L.5549927 .6816406H.04798889Z"/>
<path id="font_0_41" d="M.13999939 .6152344C.13999939 .55236819 .11898804 .4206543 .017990113 .4206543V.40264894H.102996829V.17695618C.102996829 .16297913 .101989749 .14900208 .101989749 .13500977 .101989749 .056121828 .13798523-.0078125 .22099304-.0078125 .30099488-.0078125 .31599427 .082092288 .31599427 .14399719V.1819458H.29599C.29599 .16697693 .29699708 .1519928 .29699708 .13700867 .29699708 .09307861 .28799439 .012176514 .22799683 .012176514 .16899109 .012176514 .1599884 .082092288 .1599884 .13002014V.40264894H.2999878V.43066407H.1599884V.6152344H.13999939Z"/>
<path id="font_0_44" d="M.037994386 .42858888V.400589H.053985597C.084991458 .400589 .10899353 .3965912 .10899353 .33468629 .10899353 .32070924 .10798645 .30673219 .10798645 .29275514V.1309967C.10798645 .10203552 .10998535 .07307434 .12399292 .04711914 .147995 .0051879885 .19999695-.0087890629 .24598694-.0087890629 .3019867-.0087890629 .35699464 .030151368 .37199403 .08406067L.37298585-.007797241 .49798585 .0011901856V.029144288H.48298646C.45498658 .029144288 .42799378 .03213501 .42799378 .07807922V.4404297L.30099488 .42941285V.400589H.31199647C.34298707 .400589 .37098695 .3985901 .37098695 .35165406V.15196228C.3659973 .08206177 .32598878 .010177612 .24899292 .010177612 .21099854 .010177612 .1749878 .024154664 .16699219 .07608032 .16499329 .094055179 .16499329 .11302185 .16499329 .1309967V.4404297L.037994386 .42858888Z"/>
<path id="font_0_39" d="M.033996583 .42941285V.40138246H.04899597C.07699585 .40138246 .10398865 .39837647 .10398865 .35131837V.06300354C.10398865 .030975342 .07699585 .02897644 .04798889 .02897644H.033996583V.0009765625H.24598694V.02897644C.23599243 .02897644 .22499085 .02796936 .21499634 .02796936 .18598938 .02796936 .15899658 .032974245 .15899658 .070007327V.15110779C.15899658 .1721344 .1579895 .19314575 .1579895 .21417237 .1579895 .29426576 .1769867 .42140199 .27398683 .42140199 .27999879 .42140199 .2869873 .42140199 .29299928 .4203949V.41940309C.2789917 .4143982 .2689972 .40037538 .2689972 .38536073 .2689972 .36634828 .28399659 .34732057 .30699159 .34732057 .32899476 .34732057 .34298707 .3673401 .34298707 .38435365 .34298707 .4203949 .30799867 .4404297 .2749939 .4404297 .21199036 .4404297 .16899109 .38336183 .1559906 .32829286L.15499878 .4404297 .033996583 .42941285Z"/>
<path id="font_0_13" d="M.04798889 .68359377V.6555786H.07299805C.10598755 .6555786 .13699341 .65159609 .13699341 .61460879 .13699341 .60762026 .13598633 .60061648 .13598633 .59461978V.090927127C.13598633 .08493042 .13699341 .076934818 .13699341 .06994629 .13699341 .032958986 .10598755 .02897644 .07499695 .02897644H.04798889V.0009765625H.29499818V.02897644H.2639923C.23298645 .02897644 .20698548 .032958986 .20698548 .07093811V.333786H.31399537C.3919983 .333786 .46199037 .2928009 .46199037 .19087219 .46199037 .17088318 .45999146 .15089417 .45999146 .13090515 .45999146 .051315309 .49899293-.0066223146 .59999087-.016601563H.60899356C.6649933-.016601563 .69699099 .035324098 .69699099 .08526611 .69699099 .090270999 .69699099 .100250247 .6879883 .100250247 .66799929 .09992981 .6799927 .0009765625 .6119995 .0009765625 .56399539 .0009765625 .5529938 .063949588 .5479889 .11091614 .5339966 .19487 .5399933 .27082826 .45899964 .31878663 .44299317 .3277893 .42399598 .33677674 .4059906 .34077455 .4229889 .34677125 .43998719 .34977723 .45599366 .35577394 .5209961 .38275147 .58099368 .43371583 .58099368 .50668337 .58099368 .62260439 .44099427 .67858889 .34498597 .68359377H.04798889M.20698548 .35177613V.6266022C.20698548 .653595 .22599793 .6555786 .24299622 .6555786H.31900025C.4039917 .6555786 .49598695 .62561038 .49598695 .50068667 .49598695 .4167328 .44198609 .36976625 .36698915 .35577394 .34298707 .35177613 .31900025 .35177613 .29499818 .35177613H.20698548Z"/>
<path id="font_0_34" d="M.034988405 .4294281V.4013977H.04899597C.07899475 .4013977 .10499573 .39738465 .10499573 .35533143V-.105285648C.10499573-.11228943 .10598755-.11930847 .10598755-.12731934 .10598755-.16236878 .07899475-.1653595 .052993776-.1653595H.034988405V-.19335938H.23199463V-.1653595H.20999146C.18399048-.1653595 .1619873-.16236878 .1619873-.12831116L.16299439 .058929445C.18699646 .014877319 .23999024-.008163452 .2869873-.008163452 .4079895-.008163452 .49198915 .10499573 .49198915 .2181549 .49198915 .32730104 .4139862 .4404297 .29499818 .4404297 .24598694 .4404297 .18499756 .41441346 .16099549 .36935426L.1599884 .4404297 .034988405 .4294281M.42099 .1991272C.4169922 .12802124 .3769989 .0098724369 .27799989 .0098724369 .22399903 .0098724369 .1619873 .063934329 .1619873 .11100769V.27522279C.1619873 .2872467 .16099549 .30026246 .16099549 .31227113 .16099549 .36935426 .22898865 .42042542 .2869873 .42042542 .3899994 .42042542 .42199708 .28424073 .42199708 .2181549 .42199708 .21214295 .42199708 .2051239 .42099 .1991272Z"/>
<path id="font_0_24" d="M.05899048 .3534546C.055999757 .3514557 .053985597 .34846498 .053985597 .34545899 .053985597 .33946229 .06098938 .3364563 .06599426 .3364563H.6719971C.6769867 .3364563 .6859894 .33746339 .6859894 .34545899 .6859894 .35246278 .6779938 .35546876 .66999819 .35546876 .6649933 .35450746 .6599884 .35351563 .6559906 .35351563H.06599426C.06298828 .35351563 .06098938 .35351563 .05899048 .35250855V.3534546M.05899048 .16438294C.055999757 .16238404 .053985597 .15939331 .053985597 .15641785 .053985597 .1504364 .06098938 .14746094 .06599426 .14746094H.6719971C.6769867 .14746094 .6859894 .14845276 .6859894 .15641785 .6859894 .16337586 .6779938 .16636658 .66999819 .16636658 .6649933 .16636658 .6599884 .16537476 .6559906 .16537476H.06599426C.06298828 .16537476 .06098938 .16537476 .05899048 .16438294Z"/>
<path id="font_0_30" d="M.037994386 .42941285V.40138246H.052993776C.08099365 .40138246 .10798645 .39837647 .10798645 .35131837V.06300354C.10798645 .030975342 .07998657 .02897644 .051986696 .02897644H.037994386V.0009765625H.23498535V.02897644H.21798706C.19099427 .02897644 .16499329 .031967164 .16499329 .06401062V.2572174C.16499329 .32029725 .18699646 .38536073 .2519989 .4143982 .2659912 .41940309 .27999879 .42240907 .29499818 .42240907 .35299684 .42240907 .37199403 .37234498 .37199403 .30326844V.06600952C.37199403 .029968262 .34298707 .02897644 .30799867 .02897644H.3019867V.0009765625H.49899293V.02897644H.48199464C.45498658 .02897644 .42900086 .031967164 .42900086 .06401062V.2572174C.42900086 .32029725 .45098878 .38536073 .5159912 .4143982 .5299988 .41940309 .5439911 .42240907 .5589905 .42240907 .61698916 .42240907 .6359863 .37234498 .6359863 .30326844V.06600952C.6359863 .029968262 .6069946 .02897644 .57199099 .02897644H.56599429V.0009765625H.7630005V.02897644H.7449951C.71899417 .02897644 .69299319 .031967164 .69299319 .06600952V.30026246C.69299319 .369339 .66999819 .4404297 .5649872 .4404297 .49699403 .4404297 .45199586 .39637757 .4269867 .3413086 .4119873 .40737916 .37399293 .4404297 .29599 .4404297 .23599243 .4404297 .1749878 .3923645 .1619873 .3363037L.16099549 .4404297 .10798645 .4354248 .037994386 .42941285Z"/>
<path id="font_0_27" d="M.041992189 .42926026V.40122987H.052993776C.083999637 .40122987 .10798645 .39622499 .10798645 .3511963V.06298828C.10798645 .030975342 .08099365 .02897644 .051986696 .02897644H.037994386V.0009765625H.22599793V.02897644H.20899964C.18598938 .02897644 .16299439 .031967164 .16299439 .06399536V.44026185L.041992189 .42926026M.11399841 .66015627C.08999634 .65615847 .07699585 .6361847 .07699585 .6161957 .07699585 .5962219 .09298706 .5722656 .11999512 .5722656 .14698792 .5722656 .1659851 .5932312 .1659851 .6161957 .1659851 .6381531 .147995 .6611328 .12298584 .6611328 .11999512 .6611481 .116989139 .66015627 .11399841 .66015627Z"/>
<path id="font_0_31" d="M.037994386 .42941285V.40138246H.052993776C.08099365 .40138246 .10798645 .39837647 .10798645 .35131837V.06300354C.10798645 .031967164 .08198547 .02897644 .056991579 .02897644H.037994386V.0009765625H.23498535V.02897644H.21798706C.18998719 .02897644 .16499329 .031967164 .16499329 .06401062V.2572174C.16499329 .32530213 .19799805 .42240907 .2939911 .42240907 .35198976 .42240907 .37098695 .37135316 .37098695 .3042755V.06600952C.37098695 .031967164 .34498597 .02897644 .31698609 .02897644H.30099488V.0009765625H.49798585V.02897644H.47499085C.45298768 .02897644 .43199159 .031967164 .42799378 .055999757V.29226686C.42799378 .32629396 .4269867 .36134339 .40899659 .3903656 .38598634 .42941285 .33999635 .4404297 .29699708 .4404297 .23599243 .4404297 .1749878 .39337159 .1619873 .3363037L.16099549 .4404297 .10798645 .4354248 .037994386 .42941285Z"/>
<path id="font_0_26" d="M.31199647 .40315248H.31098939C.2869873 .42918397 .24699402 .4402008 .21199036 .4402008 .12998963 .4402008 .05999756 .3771057 .05999756 .29400636 .05999756 .2589569 .07499695 .21488953 .10398865 .19186402V.19085694C.084991458 .17184448 .07398987 .13778687 .07398987 .10975647 .07398987 .07369995 .08999634 .047683717 .116989139 .02368164 .07199097 .014694214 .025985718-.028274537 .025985718-.07823181 .025985718-.16816712 .1539917-.203125 .23599243-.203125 .31599427-.203125 .44898988-.17416382 .44898988-.07324219 .44898988-.013290405 .41099549 .027694703 .35699464 .046691896 .31599427 .059692384 .272995 .060684205 .22999573 .060684205H.17298889C.12399292 .060684205 .09899902 .08972168 .09899902 .13078308V.13778687C.101989749 .1538086 .10798645 .16682434 .115997318 .18084717H.116989139C.14099121 .15782166 .17999268 .14880371 .21099854 .14880371 .2849884 .14880371 .34999085 .1968689 .3619995 .28398133V.29400636C.3619995 .3260498 .35099793 .35908509 .32998658 .38412477 .32798768 .38612367 .32699586 .38912965 .32699586 .39213563V.39413453C.33999635 .4161682 .3899994 .43118287 .4139862 .43118287 .41799928 .43118287 .42199708 .43017579 .4269867 .42918397 .4189911 .42417909 .41299439 .4161682 .41299439 .40615846 .41299439 .39213563 .4249878 .38111878 .43798829 .38111878 .45199586 .38111878 .46199037 .39413453 .46199037 .40715028 .46199037 .43118287 .43998719 .44921876 .4149933 .44921876 .3809967 .44921876 .33499146 .43418885 .31199647 .40315248M.068984989-.085235599V-.07723999C.068984989-.01928711 .117996219 .0126953129 .1749878 .0126953129H.23899842C.2889862 .0126953129 .4059906 .0126953129 .4059906-.07923889 .4059906-.16516114 .2709961-.18414307 .23799134-.18414307 .17298889-.18414307 .07899475-.1561737 .068984989-.085235599M.12399292 .27497865V.28799439C.12399292 .34207154 .13598633 .4211731 .21199036 .4211731 .27799989 .4211731 .2979889 .35307313 .2979889 .29400636 .2979889 .25094605 .29299928 .20187378 .24699402 .17684937 .23599243 .1708374 .22399903 .16783142 .21199036 .16783142 .18598938 .16783142 .16099549 .18084717 .14498902 .20288086 .1289978 .22390747 .1269989 .24993897 .12399292 .27497865Z"/>
<path id="font_1_2" d="M.06199646 .68359377V.65856936H.083999637C.11199951 .65856936 .13798523 .65457156 .13798523 .6175842 .13798523 .6095886 .13699341 .6026001 .13699341 .5956116V.06594849C.13699341 .028961182 .11199951 .025970459 .08198547 .025970459H.06199646V.0009765625H.29899598C.31799317 .0009918213 .33699037 0 .35699464 0 .5399933 0 .6549988 .16288758 .6549988 .33477784 .6549988 .5006714 .55599978 .6845703 .35699464 .6845703 .33699037 .6845856 .31799317 .68359377 .2979889 .68359377H.06199646M.58599856 .30081178C.57899478 .19487 .5419922 .07194519 .4189911 .035964967 .3869934 .025970459 .35398866 .025970459 .32099916 .025970459H.22999573C.21398926 .025970459 .20098877 .02796936 .19699097 .049957277V.5866394C.19699097 .5966339 .19599915 .6066284 .19599915 .6166229 .19599915 .65356448 .20899964 .65856936 .23399353 .65856936H.34999085C.5369873 .65856936 .58799746 .46868897 .58799746 .32977296 .58799746 .31977845 .58699038 .31079103 .58599856 .3007965V.30081178Z"/>
<path id="font_1_6" d="M.09399414 .3393097C.11099243 .39035035 .15299988 .42736817 .20399475 .42736817 .2789917 .42736817 .30899049 .35331727 .30899049 .2902832V.25326539C.20899964 .25326539 .04699707 .22224427 .04699707 .09017944V.08216858C.054992677 .020126343 .12799073-.005859375 .18199158-.005859375 .23199463-.005859375 .29899598 .023132325 .31199647 .08016968H.31298829C.31298829 .039138795 .34199525-.0028686524 .3849945-.0028686524H.3919983C.42900086 .0021362305 .45298768 .037139894 .45700074 .07215881V.14620972H.44099427V.09617615C.44099427 .06416321 .43499757 .019134522 .39898683 .019134522 .36499024 .019134522 .35798646 .062164308 .35798646 .08917236V.28327943C.35798646 .30929566 .35699464 .33631898 .34498597 .36032105 .31999208 .4113617 .2639923 .4423828 .20799256 .4423828 .13899231 .4423828 .07398987 .38934327 .07398987 .30830384 .07398987 .2862854 .08999634 .27427674 .10899353 .27427674 .1269989 .27427674 .14199829 .28929139 .14199829 .30729676 .14199829 .3263092 .12799073 .34231568 .10899353 .34231568 .10398865 .34231568 .09899902 .3413086 .09399414 .3393097M.30899049 .23925781V.13920594C.30899049 .07316589 .2649994 .015136719 .19898987 .009140015H.19400025C.14698792 .009140015 .10398865 .045150758 .10398865 .093170169V.09617615C.11099243 .19622803 .20698548 .23326111 .30899049 .23925781Z"/>
<path id="font_1_21" d="M.13699341 .6152344C.13699341 .53541567 .10899353 .4206543 .016998291 .4206543V.4056549H.10398865V.17892456C.10398865 .16493225 .102996829 .1509552 .102996829 .13597107 .102996829 .0660553 .12998963-.005859375 .21598816-.005859375 .29100038-.005859375 .30799867 .077041629 .30799867 .13796997V.18191529H.2919922C.2919922 .16693115 .29299928 .15194702 .29299928 .13597107 .29299928 .09202576 .2829895 .010116577 .22200012 .010116577 .1639862 .010116577 .15299988 .08003235 .15299988 .12797547V.4056549H.2919922V.43066407H.15299988V.6152344H.13699341Z"/>
<path id="font_2_2" d="M.20399475 0C.43699647 0 .7659912 .17791748 .7659912 .45072938 .7659912 .53967288 .723999 .59562686 .6749878 .62661746 .58898928 .6826172 .49699403 .6826172 .4019928 .6826172 .31599427 .6826172 .25698854 .6826172 .17298889 .64660647 .039993287 .5876312 .020996094 .50468447 .020996094 .4967041 .020996094 .4907074 .024993897 .4887085 .0309906 .4887085 .04699707 .4887085 .069992069 .50268557 .07798767 .5076904 .09899902 .52168276 .101989749 .52767947 .10798645 .5466614 .12199402 .5866394 .1499939 .62161257 .27598573 .62760928 .2599945 .41874696 .20899964 .22787476 .13899231 .052993776 .101989749 .039993287 .07798767 .016998291 .07798767 .0069885256 .07798767 .0009918213 .07899475 0 .100997928 0H.20399475M.20899964 .054992677C.32299806 .33380128 .34399415 .5076904 .35798646 .62760928 .4249878 .62760928 .68099978 .62760928 .68099978 .40776063 .68099978 .21188355 .5049896 .054992677 .2630005 .054992677H.20899964Z"/>
<path id="font_1_4" d="M.06298828 .68359377V.6585846H.08299255C.11199951 .6585846 .13899231 .6555786 .13899231 .62060549 .13899231 .61460879 .13798523 .60861209 .13798523 .60261538V.09692383C.13798523 .06893921 .1349945 .025970459 .06298828 .025970459V.0009765625H.22999573V.025970459C.20999146 .025970459 .18598938 .028961182 .17098999 .04396057 .1559906 .059951784 .15499878 .079940799 .15499878 .09992981L.1559906 .6585846C.16099549 .6385956 .16999817 .61860659 .1769867 .59861758L.21899414 .48469544C.272995 .3357849 .32499696 .18586731 .38198854 .037963869 .38598634 .025970459 .3899994 .0029754639 .4019928 .0009765625 .41799928 .0009765625 .44799806 .10392761 .46598817 .15388489 .5069885 .26481629 .5469971 .37475587 .58699038 .48568727L.6289978 .59962466C.6359863 .61961367 .6459961 .6405945 .651001 .6615906L.6519928 .06794739C.6519928 .02696228 .6259918 .025970459 .57699587 .025970459V.0009765625H.7839966V.025970459H.7619934C.73399356 .025970459 .70799258 .029968262 .70799258 .06594849 .70799258 .07394409 .70899966 .0819397 .70899966 .08892822V.61860659C.70899966 .6555786 .73399356 .6585846 .7639923 .6585846H.7839966V.68359377H.6589966L.6459961 .6815796 .6380005 .6675873 .42399598 .077941898 .20899964 .6675873 .20098877 .6815796 .18798828 .68359377H.06298828Z"/>
<path id="font_1_10" d="M.09399414 .23626709H.37298585C.3809967 .23626709 .38398744 .23925781 .38398744 .24726868 .38398744 .34532167 .33499146 .4423828 .22200012 .4423828 .102996829 .4423828 .033996583 .32731629 .033996583 .22026062 .033996583 .12019348 .09498596 .0011291504 .21998596-.005859375H.22999573C.2999878-.005859375 .35699464 .041152955 .3809967 .10820007 .38198854 .111190799 .38398744 .11520386 .38398744 .11920166 .38398744 .12319946 .3809967 .12620545 .3769989 .12620545 .3659973 .12620545 .3659973 .11419678 .36299134 .10618591 .34298707 .05316162 .29499818 .010147095 .23599243 .010147095H.22799683C.10998535 .030151368 .09399414 .1452179 .09399414 .23626709M.09498596 .25126649C.09498596 .32130433 .13198853 .42736817 .21699524 .42736817 .30599977 .42736817 .33198548 .32531739 .33198548 .25126649H.09498596Z"/>
<path id="font_1_20" d="M.07398987 .05116272C.09399414 .010147095 .14498902-.005859375 .18798828-.005859375 .25698854-.005859375 .33299256 .029159546 .33299256 .12121582 .33299256 .17024231 .30699159 .21226502 .2579956 .23927307 .20298767 .26930238 .09298706 .25228883 .067993167 .32533265 .06599426 .33132936 .06399536 .3373413 .06399536 .343338V.346344C.06399536 .40138246 .117996219 .4283905 .17599488 .4283905 .23298645 .4283905 .2829895 .39637757 .2919922 .32032777V.3083191C.2919922 .29830934 .29299928 .28831483 .3019867 .28831483 .30899049 .28831483 .30999757 .29330445 .30999757 .3003235V.43139649C.30999757 .4353943 .30999757 .44140626 .30499269 .44140626 .29499818 .44140626 .27999879 .41638185 .2749939 .40437318H.272995C.25299073 .43136598 .21299744 .4423828 .18099976 .4423828 .11898804 .4423828 .0309906 .42137147 .0309906 .32730104 .0309906 .27127076 .07899475 .23225403 .12998963 .21824646 .19898987 .20022583 .2899933 .19923401 .2999878 .11317444V.106170658C.2999878 .040130617 .24499512 .009124756 .18199158 .009124756 .08999634 .009124756 .06199646 .09516907 .04899597 .16720581 .04699707 .17321778 .04499817 .18022156 .038986207 .18022156 .03199768 .18022156 .0309906 .17321778 .0309906 .16821289V.0011138916C.03199768-.0018920899 .032989503-.0048828127 .036987306-.0048828127 .04798889-.0048828127 .06098938 .03413391 .07398987 .05114746V.05116272Z"/>
<path id="font_1_22" d="M.042999269 .42663575V.4016266H.056991579C.08999634 .4016266 .10798645 .39364625 .10798645 .34170533 .10798645 .32572938 .10699463 .30975343 .10699463 .2947693V.13995362C.10699463 .06904602 .12199402-.005859375 .23899842-.005859375 .2939911-.005859375 .34999085 .034088136 .36299134 .088012699L.3639984-.005859375 .47599793 .0011291504V.02609253H.46598817C.43499757 .02609253 .4119873 .030090332 .4119873 .075027469V.43847657L.29899598 .42745973V.4016266H.30999757C.34298707 .4016266 .36299134 .39463807 .36299134 .35069276V.16792298C.36299134 .09501648 .32699586 .009109497 .24198914 .009109497 .21598816 .009109497 .18598938 .016113282 .16999817 .03907776 .15699768 .057052614 .1559906 .08203125 .1559906 .10600281V.43847657L.042999269 .42663575Z"/>
<path id="font_1_19" d="M.039993287 .42745973V.40242005H.050994874C.08198547 .40242005 .10398865 .39842225 .10398865 .35136415V.06100464C.10398865 .029968262 .08099365 .025970459 .039993287 .025970459V.0009765625H.23298645V.025970459H.20999146C.17399597 .025970459 .1519928 .02897644 .1519928 .0670166V.2111969C.1519928 .29328919 .16799927 .42344667 .2689972 .42344667 .2769928 .42344667 .2849884 .42144776 .29299928 .41844178 .2789917 .4124298 .269989 .40242005 .269989 .3874054 .269989 .37039186 .2829895 .35536195 .30299378 .35536195 .32398988 .35536195 .33399964 .37239076 .33399964 .3874054 .33399964 .42245484 .2979889 .43847657 .2679901 .43847657 .20698548 .43847657 .15899658 .38139344 .1499939 .32533265L.14898682 .43847657 .039993287 .42745973Z"/>
<path id="font_1_5" d="M.06199646 .68359377V.6585846H.083999637C.11199951 .6585846 .13798523 .6545868 .13798523 .61761477 .13798523 .60961917 .13699341 .60261538 .13699341 .59562686V.06594849C.13699341 .028961182 .11199951 .025970459 .08198547 .025970459H.06199646V.0009765625H.272995V.025970459H.2519989C.22200012 .025970459 .19799805 .028961182 .19799805 .06594849V.32276917H.34700013C.43299867 .32276917 .55599978 .3527527 .57699587 .48068238 .5779877 .48667909 .5779877 .49267579 .5779877 .4986725 .5779877 .6175995 .45899964 .6845703 .34799195 .6845703 .32998658 .6845856 .31199647 .68359377 .2939911 .68359377H.06199646M.19699097 .34277345V.62361147C.19699097 .6465912 .20399475 .6585846 .22799683 .6585846H.33898927C.4189911 .6585846 .5089874 .6246033 .5089874 .50367739 .5089874 .46469117 .5019989 .4237213 .47499085 .3927307 .43798829 .35176087 .38198854 .34277345 .32998658 .34277345H.19699097Z"/>
<path id="font_1_11" d="M.10699463 .43066407H.027999878V.4056549H.10699463V.059936525C.10699463 .02696228 .07699585 .025970459 .04798889 .025970459H.042999269V.0009765625H.23599243V.025970459H.21099854C.18099976 .025970459 .15499878 .028961182 .15499878 .063934329V.4056549H.2679901V.43066407H.1539917V.5288391C.1539917 .56188967 .1539917 .59394839 .16699219 .625 .17799378 .65405276 .20199585 .68711856 .23599243 .68711856H.23799134C.2519989 .68711856 .2639923 .6820984 .27598573 .6761017 .2630005 .6700897 .24699402 .66407778 .24699402 .6430359 .24699402 .6260071 .2599945 .6109772 .27799989 .6109772 .2999878 .6109772 .31098939 .628006 .31098939 .64404299 .31098939 .68110659 .27198792 .70214846 .23899842 .70214846 .15098572 .70214846 .10699463 .61898806 .10699463 .53985598V.43066407Z"/>
<path id="font_1_17" d="M.21798706 .4423828C.10398865 .42836 .033996583 .32531739 .033996583 .21624756 .033996583 .111190799 .10398865-.005859375 .23298645-.005859375 .35598756-.005859375 .42799378 .112197879 .42799378 .21725464 .42799378 .3283081 .35099793 .4423828 .22799683 .4423828H.21798706M.09399414 .1972351V.21325684C.09399414 .28529359 .099990848 .3753357 .17799378 .41435243 .19499207 .42337037 .21199036 .42736817 .22999573 .42736817 .32899476 .42736817 .36799623 .3223114 .36799623 .23426819 .36799623 .15222168 .36099244 .047164918 .2579956 .013137817 .25 .011138916 .24099732 .010147095 .23298645 .010147095 .13398743 .010147095 .102996829 .109191898 .09399414 .1972351Z"/>
<path id="font_1_15" d="M.041992189 .42745973V.40242005H.056991579C.09098816 .40242005 .10699463 .3914032 .10699463 .35235597V.06100464C.10699463 .029968262 .084991458 .025970459 .041992189 .025970459V.0009765625H.22099304V.025970459H.20498657C.17999268 .025970459 .1559906 .02897644 .1559906 .060012819V.23622132C.1559906 .2692566 .1559906 .30130006 .16699219 .33233644 .18499756 .38139344 .22698975 .42344667 .2809906 .42344667 .34498597 .42344667 .3639984 .3683777 .3639984 .30430604V.060012819C.3639984 .026977539 .33499146 .025970459 .3039856 .025970459H.29899598V.0009765625H.47799684V.025970459H.46199037C.43699647 .025970459 .41299439 .02897644 .41299439 .060012819V.23622132C.41299439 .2692566 .41299439 .30130006 .42399598 .33233644 .44198609 .38139344 .48399354 .42344667 .5379944 .42344667 .60198977 .42344667 .62098696 .3683777 .62098696 .30430604V.060012819C.62098696 .026977539 .59199526 .025970459 .5609894 .025970459H.55599978V.0009765625H.7350006V.025970459H.7200012C.69599917 .025970459 .673996 .02796936 .66999819 .053009035V.2952881C.66999819 .37239076 .644989 .43847657 .54499819 .43847657 .4850006 .43847657 .42900086 .39642335 .4119873 .3373413H.41099549C.40499879 .40742494 .35198976 .43847657 .28399659 .43847657 .23199463 .43847657 .18899536 .4064331 .16499329 .3613739 .16099549 .35235597 .1559906 .34436036 .1539917 .33433534L.15299988 .43847657 .041992189 .42745973Z"/>
<path id="font_1_16" d="M.042999269 .42745973V.40242005H.053985597C.084991458 .40242005 .10699463 .39842225 .10699463 .35136415V.06100464C.10699463 .029968262 .083999637 .025970459 .042999269 .025970459V.0009765625H.21998596V.025970459H.20498657C.17999268 .025970459 .1559906 .02897644 .1559906 .06100464V.23622132C.1559906 .27026368 .1559906 .30329896 .16799927 .3353424 .18598938 .3824005 .22698975 .42344667 .27999879 .42344667 .34098817 .42344667 .36299134 .37338258 .36299134 .30430604V.060012819C.36299134 .026977539 .33299256 .025970459 .3039856 .025970459H.29899598V.0009765625H.47599793V.025970459H.46099855C.43598939 .025970459 .4119873 .02897644 .4119873 .060012819V.29129029C.4119873 .3613739 .39698792 .43847657 .28599549 .43847657 .22099304 .43847657 .16999817 .3914032 .1539917 .33433534L.15299988 .43847657 .042999269 .42745973Z"/>
<path id="font_1_8" d="M.35299684 .34231568C.34799195 .34332276 .34399415 .34431459 .33898927 .34431459 .31900025 .34431459 .30599977 .3263092 .30599977 .30929566 .30599977 .28929139 .32199098 .2762909 .34199525 .2762909H.34599305C.36799623 .28329469 .37399293 .29629518 .37399293 .31430055 .37399293 .39535523 .29599 .4423828 .22698975 .4423828 .10899353 .4423828 .038986207 .3203125 .038986207 .21525574 .038986207 .1131897 .10699463-.005859375 .23199463-.005859375 .2979889-.005859375 .35299684 .03315735 .37799073 .09918213 .37998963 .10418701 .3829956 .112197879 .3829956 .11819458V.12120056C.38198854 .12420654 .37998963 .12519837 .37799073 .12519837 .3659973 .12519837 .3639984 .10719299 .3600006 .09718323 .34298707 .047164918 .2919922 .010147095 .24099732 .010147095 .13398743 .010147095 .09899902 .13520813 .09899902 .22225952V.2312622C.09899902 .3113098 .13398743 .42636109 .23498535 .42636109 .28599549 .42636109 .33599855 .39134217 .35299684 .34231568Z"/>
<path id="font_1_3" d="M.06098938 .68359377V.6585846H.08299255C.11099243 .6585846 .13699341 .6545868 .13699341 .61761477 .13699341 .60961917 .13598633 .60261538 .13598633 .59562686V.06594849C.13598633 .028961182 .11099243 .025970459 .08099365 .025970459H.06098938V.0009765625H.5159912L.5389862 .25283814H.522995C.5169983 .16088867 .5039978 .06893921 .394989 .032958986 .3659973 .025970459 .33699037 .025970459 .30699159 .025970459H.23298645C.21299744 .025970459 .19599915 .028961182 .19599915 .05795288 .19599915 .063949588 .19699097 .07093811 .19699097 .076934818V.59661868C.19699097 .60261538 .19599915 .61061099 .19599915 .61761477 .19599915 .6545868 .22698975 .6595917 .2579956 .6595917 .2689972 .6595917 .27999879 .6585846 .2899933 .6585846V.68359377H.06098938Z"/>
<path id="font_1_9" d="M.29699708 .68429568V.6592865H.30899049C.34199525 .6592865 .36099244 .6502838 .36099244 .61227419L.3600006 .36721803C.33499146 .41123963 .2829895 .43823243 .23498535 .43823243 .12098694 .43823243 .038986207 .32920838 .038986207 .21618653 .038986207 .11416626 .10499573-.005859375 .22499085-.005859375 .2769928-.005859375 .33699037 .024139405 .35899354 .07115173L.3600006-.005859375 .47299195 .0011291504V.026138306H.45899964C.4229889 .026138306 .40899659 .038146974 .40899659 .074157718V.6953125L.29699708 .68429568M.09899902 .19218445V.20718384C.09899902 .27920533 .10998535 .35821534 .17399597 .40223695 .19400025 .41622926 .21699524 .42323304 .24099732 .42323304 .2939911 .42323304 .36099244 .3762207 .36099244 .31420899 .36099244 .30220033 .3600006 .2902069 .3600006 .27920533V.11715698C.3600006 .06515503 .2889862 .009140015 .23298645 .009140015 .15899658 .009140015 .11299133 .08015442 .102996829 .150177 .100997928 .16416931 .100997928 .17817688 .09899902 .19218445Z"/>
<path id="font_1_14" d="M.042999269 .6843109V.6592865H.055999757C.08999634 .6592865 .10699463 .64727786 .10699463 .6112671V.085998538C.10699463 .07899475 .10798645 .070999149 .10798645 .06298828 .10798645 .02796936 .083999637 .025970459 .055999757 .025970459H.042999269V.0009765625H.21899414V.025970459H.19898987C.17599488 .025970459 .15499878 .02897644 .15499878 .0619812V.6953125L.042999269 .6843109Z"/>
<path id="font_1_13" d="M.04598999 .4271698V.40216065H.055999757C.08699036 .40216065 .10699463 .39715577 .10699463 .35113526V.06098938C.10699463 .029968262 .083999637 .025970459 .042999269 .025970459V.0009765625H.21299744V.025970459H.19599915C.17599488 .025970459 .15499878 .02897644 .15499878 .06098938V.4381714L.04598999 .4271698M.11199951 .6542969C.09399414 .6502838 .07998657 .63627627 .07998657 .6172638 .07998657 .5972595 .09700012 .5782471 .117996219 .5782471 .13899231 .5782471 .15699768 .5952606 .15699768 .616272 .15699768 .636261 .13999939 .65527346 .11898804 .65527346 .116989139 .6552887 .11399841 .6542969 .11199951 .6542969Z"/>
</defs>
<path transform="matrix(1,0,0,-1,232.0422,57.091798)" stroke-width="1.993" stroke-linecap="butt" stroke-miterlimit="10" stroke-linejoin="miter" fill="none" stroke="#000000" d="M0 0 55.628 39.734"/>
<path transform="matrix(.81369,-.58119,-.58119,-.81369,290.6586,15.223024)" d="M0 0-3.362 2.817V0-2.817Z"/>
<path transform="matrix(.81369,-.58119,-.58119,-.81369,290.6586,15.223024)" stroke-width="1.245" stroke-linecap="butt" stroke-linejoin="round" fill="none" stroke="#000000" d="M0 0-3.362 2.817V0-2.817Z"/>
<path transform="matrix(1,0,0,-1,232.0422,57.091798)" stroke-width="1.993" stroke-linecap="butt" stroke-miterlimit="10" stroke-linejoin="miter" fill="none" stroke="#000000" d="M0 0 55.628-39.734"/>
<path transform="matrix(.81369,.58119,.58119,-.81369,290.6586,98.960597)" d="M0 0-3.362 2.817V0-2.817Z"/>
<path transform="matrix(.81369,.58119,.58119,-.81369,290.6586,98.960597)" stroke-width="1.245" stroke-linecap="butt" stroke-linejoin="round" fill="none" stroke="#000000" d="M0 0-3.362 2.817V0-2.817Z"/>
<path transform="matrix(1,0,0,-1,239.3953,145.3595)" stroke-width="2.989" stroke-linecap="butt" stroke-miterlimit="10" stroke-linejoin="miter" fill="none" stroke="#929292" d="M0 0 54.605-39.003"/>
<path transform="matrix(-.81369,-.58119,-.58119,.81369,235.53563,142.6027)" d="M0 0-4.339 3.507V0-3.507Z" fill="#929292"/>
<path transform="matrix(-.81369,-.58119,-.58119,.81369,235.53563,142.6027)" stroke-width="1.619" stroke-linecap="butt" stroke-linejoin="round" fill="none" stroke="#929292" d="M0 0-4.339 3.507V0-3.507Z"/>
<path transform="matrix(1,0,0,-1,348.2642,110.95059)" stroke-width="1.993" stroke-linecap="butt" stroke-miterlimit="10" stroke-linejoin="miter" fill="none" stroke="#000000" d="M0 0V-54.734"/>
<path transform="matrix(0,1,1,0,348.26426,169.35823)" d="M0 0-3.362 2.817V0-2.817Z"/>
<path transform="matrix(0,1,1,0,348.26426,169.35823)" stroke-width="1.245" stroke-linecap="butt" stroke-linejoin="round" fill="none" stroke="#000000" d="M0 0-3.362 2.817V0-2.817Z"/>
<use data-text="L" xlink:href="#font_0_8" transform="matrix(14.346,0,0,-14.346,352.579,145.653)"/>
<use data-text="a" xlink:href="#font_0_19" transform="matrix(14.346,0,0,-14.346,361.11488,145.653)"/>
<use data-text="b" xlink:href="#font_0_20" transform="matrix(14.346,0,0,-14.346,367.94358,145.653)"/>
<use data-text="e" xlink:href="#font_0_23" transform="matrix(14.346,0,0,-14.346,375.91993,145.653)"/>
<use data-text="l" xlink:href="#font_0_29" transform="matrix(14.346,0,0,-14.346,381.98829,145.653)"/>
<use data-text="s" xlink:href="#font_0_40" transform="matrix(14.346,0,0,-14.346,385.77565,145.653)"/>
<path transform="matrix(1,0,0,-1,402.123,14.571595)" stroke-width="1.993" stroke-linecap="butt" stroke-miterlimit="10" stroke-linejoin="miter" fill="none" stroke="#000000" d="M0 0H83.081"/>
<path transform="matrix(1,0,0,-1,488.87745,14.5716099)" d="M0 0-3.362 2.817V0-2.817Z"/>
<path transform="matrix(1,0,0,-1,488.87745,14.5716099)" stroke-width="1.245" stroke-linecap="butt" stroke-linejoin="round" fill="none" stroke="#000000" d="M0 0-3.362 2.817V0-2.817Z"/>
<path transform="matrix(1,0,0,-1,402.123,99.61199)" stroke-width="1.993" stroke-linecap="butt" stroke-miterlimit="10" stroke-linejoin="miter" fill="none" stroke="#000000" d="M0 0H83.081"/>
<path transform="matrix(1,0,0,-1,488.87745,99.612)" d="M0 0-3.362 2.817V0-2.817Z"/>
<path transform="matrix(1,0,0,-1,488.87745,99.612)" stroke-width="1.245" stroke-linecap="butt" stroke-linejoin="round" fill="none" stroke="#000000" d="M0 0-3.362 2.817V0-2.817Z"/>
<use data-text="F" xlink:href="#font_0_5" transform="matrix(14.346,0,0,-14.346,416.498,95.295)"/>
<use data-text="e" xlink:href="#font_0_23" transform="matrix(14.346,0,0,-14.346,424.274,95.295)"/>
<use data-text="a" xlink:href="#font_0_19" transform="matrix(14.346,0,0,-14.346,430.34236,95.295)"/>
<use data-text="t" xlink:href="#font_0_41" transform="matrix(14.346,0,0,-14.346,437.17106,95.295)"/>
<use data-text="u" xlink:href="#font_0_44" transform="matrix(14.346,0,0,-14.346,442.47908,95.295)"/>
<use data-text="r" xlink:href="#font_0_39" transform="matrix(14.346,0,0,-14.346,450.06809,95.295)"/>
<use data-text="e" xlink:href="#font_0_23" transform="matrix(14.346,0,0,-14.346,455.3761,95.295)"/>
<use data-text="s" xlink:href="#font_0_40" transform="matrix(14.346,0,0,-14.346,461.44447,95.295)"/>
<path transform="matrix(1,0,0,-1,409.25379,184.65239)" stroke-width="1.993" stroke-linecap="butt" stroke-miterlimit="10" stroke-linejoin="miter" fill="none" stroke="#000000" d="M0 0H83.081"/>
<path transform="matrix(-1,0,0,1,405.58058,184.65244)" d="M0 0-3.362 2.817V0-2.817Z"/>
<path transform="matrix(-1,0,0,1,405.58058,184.65244)" stroke-width="1.245" stroke-linecap="butt" stroke-linejoin="round" fill="none" stroke="#000000" d="M0 0-3.362 2.817V0-2.817Z"/>
<path transform="matrix(1,0,0,-1,546.6919,25.910195)" stroke-width="1.993" stroke-linecap="butt" stroke-miterlimit="10" stroke-linejoin="miter" fill="none" stroke="#000000" d="M0 0V-54.734"/>
<path transform="matrix(0,1,1,0,546.6919,84.31778)" d="M0 0-3.362 2.817V0-2.817Z"/>
<path transform="matrix(0,1,1,0,546.6919,84.31778)" stroke-width="1.245" stroke-linecap="butt" stroke-linejoin="round" fill="none" stroke="#000000" d="M0 0-3.362 2.817V0-2.817Z"/>
<path transform="matrix(1,0,0,-1,546.6919,110.95059)" stroke-width="1.993" stroke-linecap="butt" stroke-miterlimit="10" stroke-linejoin="miter" fill="none" stroke="#000000" d="M0 0V-54.734"/>
<path transform="matrix(0,1,1,0,546.6919,169.35823)" d="M0 0-3.362 2.817V0-2.817Z"/>
<path transform="matrix(0,1,1,0,546.6919,169.35823)" stroke-width="1.245" stroke-linecap="butt" stroke-linejoin="round" fill="none" stroke="#000000" d="M0 0-3.362 2.817V0-2.817Z"/>
<path transform="matrix(1,0,0,-1,107.3164,.39819528)" stroke-width=".797" stroke-linecap="butt" stroke-miterlimit="10" stroke-linejoin="miter" fill="none" stroke="#000000" d="M0 0C-1.793-.897-2.989-2.989-2.989-5.978V-93.236C-2.989-96.225-4.184-98.317-5.978-99.214-4.184-100.11-2.989-102.203-2.989-105.191V-192.45C-2.989-195.439-1.793-197.531-.446-198.205"/>
<use data-text="R" xlink:href="#font_0_13" transform="matrix(14.346,0,0,-14.346,45.502,94.19)"/>
<use data-text="e" xlink:href="#font_0_23" transform="matrix(14.346,0,0,-14.346,55.558546,94.19)"/>
<use data-text="p" xlink:href="#font_0_34" transform="matrix(14.346,0,0,-14.346,61.626905,94.19)"/>
<use data-text="e" xlink:href="#font_0_23" transform="matrix(14.346,0,0,-14.346,69.589,94.19)"/>
<use data-text="a" xlink:href="#font_0_19" transform="matrix(14.346,0,0,-14.346,75.65736,94.19)"/>
<use data-text="t" xlink:href="#font_0_41" transform="matrix(14.346,0,0,-14.346,82.50046,94.19)"/>
<use data-text="=" xlink:href="#font_0_24" transform="matrix(14.346,0,0,-14.346,3.3199998,112.122)"/>
<use data-text="R" xlink:href="#font_0_13" transform="matrix(14.346,0,0,-14.346,18.498126,112.122)"/>
<use data-text="e" xlink:href="#font_0_23" transform="matrix(14.346,0,0,-14.346,28.554673,112.122)"/>
<use data-text="s" xlink:href="#font_0_40" transform="matrix(14.346,0,0,-14.346,34.62303,112.122)"/>
<use data-text="a" xlink:href="#font_0_19" transform="matrix(14.346,0,0,-14.346,40.00278,112.122)"/>
<use data-text="m" xlink:href="#font_0_30" transform="matrix(14.346,0,0,-14.346,46.83148,112.122)"/>
<use data-text="p" xlink:href="#font_0_34" transform="matrix(14.346,0,0,-14.346,58.222204,112.122)"/>
<use data-text="l" xlink:href="#font_0_29" transform="matrix(14.346,0,0,-14.346,65.81123,112.122)"/>
<use data-text="i" xlink:href="#font_0_27" transform="matrix(14.346,0,0,-14.346,69.59858,112.122)"/>
<use data-text="n" xlink:href="#font_0_31" transform="matrix(14.346,0,0,-14.346,73.385929,112.122)"/>
<use data-text="g" xlink:href="#font_0_26" transform="matrix(14.346,0,0,-14.346,80.97496,112.122)"/>
<path transform="matrix(1,0,0,-1,121.4898,67.28009)" d="M0 0V20.377C0 22.578 1.784 24.362 3.985 24.362H109.402C111.603 24.362 113.387 22.578 113.387 20.377V0C113.387-2.201 111.603-3.985 109.402-3.985H3.985C1.784-3.985 0-2.201 0 0Z" fill="#80aabb"/>
<path transform="matrix(1,0,0,-1,121.4898,67.28009)" stroke-width=".398" stroke-linecap="butt" stroke-miterlimit="10" stroke-linejoin="miter" fill="none" stroke="#000000" d="M0 0V20.377C0 22.578 1.784 24.362 3.985 24.362H109.402C111.603 24.362 113.387 22.578 113.387 20.377V0C113.387-2.201 111.603-3.985 109.402-3.985H3.985C1.784-3.985 0-2.201 0 0Z"/>
<use data-text="D" xlink:href="#font_1_2" transform="matrix(20.663,0,0,-20.663,146.168,64.20599)" fill="#ffffff"/>
<use data-text="a" xlink:href="#font_1_6" transform="matrix(20.663,0,0,-20.663,160.77674,64.20599)" fill="#ffffff"/>
<use data-text="t" xlink:href="#font_1_21" transform="matrix(20.663,0,0,-20.663,170.3437,64.20599)" fill="#ffffff"/>
<use data-text="a" xlink:href="#font_1_6" transform="matrix(20.663,0,0,-20.663,177.78238,64.20599)" fill="#ffffff"/>
<use data-text="D" xlink:href="#font_2_2" transform="matrix(20.663,0,0,-20.663,193.687,64.20599)" fill="#ffffff"/>
<path transform="matrix(1,0,0,-1,291.5706,24.759896)" d="M0 0V20.377C0 22.578 1.784 24.362 3.985 24.362H109.402C111.603 24.362 113.387 22.578 113.387 20.377V0C113.387-2.201 111.603-3.985 109.402-3.985H3.985C1.784-3.985 0-2.201 0 0Z" fill="#cbebe1"/>
<path transform="matrix(1,0,0,-1,291.5706,24.759896)" stroke-width=".398" stroke-linecap="butt" stroke-miterlimit="10" stroke-linejoin="miter" fill="none" stroke="#000000" d="M0 0V20.377C0 22.578 1.784 24.362 3.985 24.362H109.402C111.603 24.362 113.387 22.578 113.387 20.377V0C113.387-2.201 111.603-3.985 109.402-3.985H3.985C1.784-3.985 0-2.201 0 0Z"/>
<use data-text="D" xlink:href="#font_2_2" transform="matrix(20.663,0,0,-20.663,325.633,20.082)"/>
<use data-text="t" xlink:href="#font_0_41" transform="matrix(14.346,0,0,-14.346,341.57099,23.181)"/>
<use data-text="r" xlink:href="#font_0_39" transform="matrix(14.346,0,0,-14.346,346.879,23.181)"/>
<use data-text="a" xlink:href="#font_0_19" transform="matrix(14.346,0,0,-14.346,352.187,23.181)"/>
<use data-text="i" xlink:href="#font_0_27" transform="matrix(14.346,0,0,-14.346,359.01573,23.181)"/>
<use data-text="n" xlink:href="#font_0_31" transform="matrix(14.346,0,0,-14.346,362.80308,23.181)"/>
<path transform="matrix(1,0,0,-1,291.5706,109.80029)" d="M0 0V20.377C0 22.578 1.784 24.362 3.985 24.362H109.402C111.603 24.362 113.387 22.578 113.387 20.377V0C113.387-2.201 111.603-3.985 109.402-3.985H3.985C1.784-3.985 0-2.201 0 0Z" fill="#3b528b"/>
<path transform="matrix(1,0,0,-1,291.5706,109.80029)" stroke-width=".398" stroke-linecap="butt" stroke-miterlimit="10" stroke-linejoin="miter" fill="none" stroke="#000000" d="M0 0V20.377C0 22.578 1.784 24.362 3.985 24.362H109.402C111.603 24.362 113.387 22.578 113.387 20.377V0C113.387-2.201 111.603-3.985 109.402-3.985H3.985C1.784-3.985 0-2.201 0 0Z"/>
<use data-text="D" xlink:href="#font_2_2" transform="matrix(20.663,0,0,-20.663,329.009,105.121)" fill="#ffffff"/>
<use data-text="t" xlink:href="#font_0_41" transform="matrix(14.346,0,0,-14.346,344.947,108.22)" fill="#ffffff"/>
<use data-text="e" xlink:href="#font_0_23" transform="matrix(14.346,0,0,-14.346,350.255,108.22)" fill="#ffffff"/>
<use data-text="s" xlink:href="#font_0_40" transform="matrix(14.346,0,0,-14.346,356.32337,108.22)" fill="#ffffff"/>
<use data-text="t" xlink:href="#font_0_41" transform="matrix(14.346,0,0,-14.346,361.70314,108.22)" fill="#ffffff"/>
<path transform="matrix(1,0,0,-1,291.5706,194.8407)" d="M0 0V20.377C0 22.578 1.784 24.362 3.985 24.362H109.402C111.603 24.362 113.387 22.578 113.387 20.377V0C113.387-2.201 111.603-3.985 109.402-3.985H3.985C1.784-3.985 0-2.201 0 0Z" fill="#9ddea1"/>
<path transform="matrix(1,0,0,-1,291.5706,194.8407)" stroke-width=".398" stroke-linecap="butt" stroke-miterlimit="10" stroke-linejoin="miter" fill="none" stroke="#000000" d="M0 0V20.377C0 22.578 1.784 24.362 3.985 24.362H109.402C111.603 24.362 113.387 22.578 113.387 20.377V0C113.387-2.201 111.603-3.985 109.402-3.985H3.985C1.784-3.985 0-2.201 0 0Z"/>
<use data-text="M" xlink:href="#font_1_4" transform="matrix(20.663,0,0,-20.663,313.433,191.765)"/>
<use data-text="e" xlink:href="#font_1_10" transform="matrix(20.663,0,0,-20.663,330.95524,191.765)"/>
<use data-text="a" xlink:href="#font_1_6" transform="matrix(20.663,0,0,-20.663,339.44773,191.765)"/>
<use data-text="s" xlink:href="#font_1_20" transform="matrix(20.663,0,0,-20.663,349.01469,191.765)"/>
<use data-text="u" xlink:href="#font_1_22" transform="matrix(20.663,0,0,-20.663,356.55668,191.765)"/>
<use data-text="r" xlink:href="#font_1_19" transform="matrix(20.663,0,0,-20.663,367.17747,191.765)"/>
<use data-text="e" xlink:href="#font_1_10" transform="matrix(20.663,0,0,-20.663,374.61616,191.765)"/>
<path transform="matrix(1,0,0,-1,121.4898,152.3205)" d="M0 0V20.377C0 22.578 1.784 24.362 3.985 24.362H109.402C111.603 24.362 113.387 22.578 113.387 20.377V0C113.387-2.201 111.603-3.985 109.402-3.985H3.985C1.784-3.985 0-2.201 0 0Z" fill="#ccea84"/>
<path transform="matrix(1,0,0,-1,121.4898,152.3205)" stroke-width=".398" stroke-linecap="butt" stroke-miterlimit="10" stroke-linejoin="miter" fill="none" stroke="#000000" d="M0 0V20.377C0 22.578 1.784 24.362 3.985 24.362H109.402C111.603 24.362 113.387 22.578 113.387 20.377V0C113.387-2.201 111.603-3.985 109.402-3.985H3.985C1.784-3.985 0-2.201 0 0Z"/>
<use data-text="P" xlink:href="#font_1_5" transform="matrix(20.663,0,0,-20.663,126.017,149.245)"/>
<use data-text="e" xlink:href="#font_1_10" transform="matrix(20.663,0,0,-20.663,138.497,149.245)"/>
<use data-text="r" xlink:href="#font_1_19" transform="matrix(20.663,0,0,-20.663,146.98949,149.245)"/>
<use data-text="f" xlink:href="#font_1_11" transform="matrix(20.663,0,0,-20.663,154.42816,149.245)"/>
<use data-text="o" xlink:href="#font_1_17" transform="matrix(20.663,0,0,-20.663,160.27579,149.245)"/>
<use data-text="r" xlink:href="#font_1_19" transform="matrix(20.663,0,0,-20.663,169.84276,149.245)"/>
<use data-text="m" xlink:href="#font_1_15" transform="matrix(20.663,0,0,-20.663,177.28144,149.245)"/>
<use data-text="a" xlink:href="#font_1_6" transform="matrix(20.663,0,0,-20.663,193.2126,149.245)"/>
<use data-text="n" xlink:href="#font_1_16" transform="matrix(20.663,0,0,-20.663,202.77957,149.245)"/>
<use data-text="c" xlink:href="#font_1_8" transform="matrix(20.663,0,0,-20.663,213.40036,149.245)"/>
<use data-text="e" xlink:href="#font_1_10" transform="matrix(20.663,0,0,-20.663,221.89286,149.245)"/>
<path transform="matrix(1,0,0,-1,489.9983,24.759896)" d="M0 0V20.377C0 22.578 1.784 24.362 3.985 24.362H109.402C111.603 24.362 113.387 22.578 113.387 20.377V0C113.387-2.201 111.603-3.985 109.402-3.985H3.985C1.784-3.985 0-2.201 0 0Z" fill="#79bcba"/>
<path transform="matrix(1,0,0,-1,489.9983,24.759896)" stroke-width=".398" stroke-linecap="butt" stroke-miterlimit="10" stroke-linejoin="miter" fill="none" stroke="#000000" d="M0 0V20.377C0 22.578 1.784 24.362 3.985 24.362H109.402C111.603 24.362 113.387 22.578 113.387 20.377V0C113.387-2.201 111.603-3.985 109.402-3.985H3.985C1.784-3.985 0-2.201 0 0Z"/>
<use data-text="L" xlink:href="#font_1_3" transform="matrix(20.663,0,0,-20.663,514.699,21.686005)" fill="#ffffff"/>
<use data-text="e" xlink:href="#font_1_10" transform="matrix(20.663,0,0,-20.663,526.6422,21.686005)" fill="#ffffff"/>
<use data-text="a" xlink:href="#font_1_6" transform="matrix(20.663,0,0,-20.663,535.1347,21.686005)" fill="#ffffff"/>
<use data-text="r" xlink:href="#font_1_19" transform="matrix(20.663,0,0,-20.663,544.70169,21.686005)" fill="#ffffff"/>
<use data-text="n" xlink:href="#font_1_16" transform="matrix(20.663,0,0,-20.663,552.1403,21.686005)" fill="#ffffff"/>
<use data-text="e" xlink:href="#font_1_10" transform="matrix(20.663,0,0,-20.663,562.7611,21.686005)" fill="#ffffff"/>
<use data-text="r" xlink:href="#font_1_19" transform="matrix(20.663,0,0,-20.663,571.2536,21.686005)" fill="#ffffff"/>
<path transform="matrix(1,0,0,-1,489.9983,109.80029)" d="M0 0V20.377C0 22.578 1.784 24.362 3.985 24.362H109.402C111.603 24.362 113.387 22.578 113.387 20.377V0C113.387-2.201 111.603-3.985 109.402-3.985H3.985C1.784-3.985 0-2.201 0 0Z" fill="#79bcba"/>
<path transform="matrix(1,0,0,-1,489.9983,109.80029)" stroke-width=".398" stroke-linecap="butt" stroke-miterlimit="10" stroke-linejoin="miter" fill="none" stroke="#000000" d="M0 0V20.377C0 22.578 1.784 24.362 3.985 24.362H109.402C111.603 24.362 113.387 22.578 113.387 20.377V0C113.387-2.201 111.603-3.985 109.402-3.985H3.985C1.784-3.985 0-2.201 0 0Z"/>
<use data-text="M" xlink:href="#font_1_4" transform="matrix(20.663,0,0,-20.663,520.672,106.725)" fill="#ffffff"/>
<use data-text="o" xlink:href="#font_1_17" transform="matrix(20.663,0,0,-20.663,538.1942,106.725)" fill="#ffffff"/>
<use data-text="d" xlink:href="#font_1_9" transform="matrix(20.663,0,0,-20.663,548.2984,106.725)" fill="#ffffff"/>
<use data-text="e" xlink:href="#font_1_10" transform="matrix(20.663,0,0,-20.663,558.9192,106.725)" fill="#ffffff"/>
<use data-text="l" xlink:href="#font_1_14" transform="matrix(20.663,0,0,-20.663,567.4117,106.725)" fill="#ffffff"/>
<path transform="matrix(1,0,0,-1,489.9983,194.8407)" d="M0 0V20.377C0 22.578 1.784 24.362 3.985 24.362H109.402C111.603 24.362 113.387 22.578 113.387 20.377V0C113.387-2.201 111.603-3.985 109.402-3.985H3.985C1.784-3.985 0-2.201 0 0Z" fill="#9081af"/>
<path transform="matrix(1,0,0,-1,489.9983,194.8407)" stroke-width=".398" stroke-linecap="butt" stroke-miterlimit="10" stroke-linejoin="miter" fill="none" stroke="#000000" d="M0 0V20.377C0 22.578 1.784 24.362 3.985 24.362H109.402C111.603 24.362 113.387 22.578 113.387 20.377V0C113.387-2.201 111.603-3.985 109.402-3.985H3.985C1.784-3.985 0-2.201 0 0Z"/>
<use data-text="P" xlink:href="#font_1_5" transform="matrix(20.663,0,0,-20.663,503.551,191.765)" fill="#ffffff"/>
<use data-text="r" xlink:href="#font_1_19" transform="matrix(20.663,0,0,-20.663,516.56869,191.765)" fill="#ffffff"/>
<use data-text="e" xlink:href="#font_1_10" transform="matrix(20.663,0,0,-20.663,524.0073,191.765)" fill="#ffffff"/>
<use data-text="d" xlink:href="#font_1_9" transform="matrix(20.663,0,0,-20.663,532.4998,191.765)" fill="#ffffff"/>
<use data-text="i" xlink:href="#font_1_13" transform="matrix(20.663,0,0,-20.663,543.1206,191.765)" fill="#ffffff"/>
<use data-text="c" xlink:href="#font_1_8" transform="matrix(20.663,0,0,-20.663,548.43099,191.765)" fill="#ffffff"/>
<use data-text="t" xlink:href="#font_1_21" transform="matrix(20.663,0,0,-20.663,556.92349,191.765)" fill="#ffffff"/>
<use data-text="i" xlink:href="#font_1_13" transform="matrix(20.663,0,0,-20.663,564.3621,191.765)" fill="#ffffff"/>
<use data-text="o" xlink:href="#font_1_17" transform="matrix(20.663,0,0,-20.663,569.6725,191.765)" fill="#ffffff"/>
<use data-text="n" xlink:href="#font_1_16" transform="matrix(20.663,0,0,-20.663,579.23947,191.765)" fill="#ffffff"/>
</svg>
