<?xml version="1.0" encoding="utf-8"?>
<!-- Generator: Adobe Illustrator 27.6.1, SVG Export Plug-In . SVG Version: 6.00 Build 0)  -->
<svg version="1.1" id="Layer_1" xmlns="http://www.w3.org/2000/svg" xmlns:xlink="http://www.w3.org/1999/xlink" x="0px" y="0px"
	 viewBox="0 0 1117 786" style="enable-background:new 0 0 1117 786;" xml:space="preserve">
<style type="text/css">
	.st0{fill:none;stroke:#4B5C6B;stroke-width:4;stroke-linecap:round;stroke-linejoin:round;}
	.st1{fill:#293845;}
	.st2{font-family:'Helvetica';}
	.st3{font-size:21px;}
	.st4{fill:#C3CFD9;}
	.st5{font-family:'Courier';}
	.st6{font-size:15.3px;}
	.st7{fill:none;stroke:#C3CFD9;stroke-width:4;stroke-linecap:round;stroke-linejoin:round;stroke-dasharray:12,10;}
	.st8{fill:#C3CFD9;stroke:#C3CFD9;stroke-miterlimit:10;}
	.st9{font-size:22.95px;}
</style>
<g>
	<g>
		<g>
			<path class="st0" d="M608.4,355c39.8-65.5,40.1-235,104.6-235"/>
			<g>
				<g>
					<g>
						<g>
							<g>
								<text transform="matrix(1 0 0 1 722 127.5)" class="st1 st2 st3">Learners</text>
							</g>
						</g>
					</g>
				</g>
			</g>
		</g>
		<g>
			<g>
				<g>
					<path class="st0" d="M814,120h10c40,0,36-52,76-52h10"/>
					<g>
						<g>
							<g>
								<g>
									<g>
										<g>
											<path class="st4" d="M1037.2,57.5l2,2v18c0,1-1,2-2,2l0,0H921c-1,0-2-1-2-2l0,0v-18c0-1,1-2,2-2l0,0H1037.2c1,0,2,1,2,2
												l0,0L1037.2,57.5z"/>
										</g>
										<text transform="matrix(1 0 0 1 924 73.5)" class="st1 st5 st6">mlr3learners</text>
									</g>
								</g>
							</g>
						</g>
					</g>
				</g>
			</g>
			<g>
				<g>
					<path class="st0" d="M814,120h10c40,0,36-1,76-1h10"/>
					<g>
						<g>
							<g>
								<g>
									<g>
										<g>
											<path class="st4" d="M1083.1,108.5l2,2v18c0,1-1,2-2,2l0,0H921c-1,0-2-1-2-2l0,0v-18c0-1,1-2,2-2l0,0H1083.1c1,0,2,1,2,2
												l0,0L1083.1,108.5z"/>
										</g>
										<text transform="matrix(1 0 0 1 924 124.5)" class="st1 st5 st6">mlr3extralearners</text>
									</g>
								</g>
							</g>
						</g>
					</g>
				</g>
			</g>
			<g>
				<g>
					<path class="st7" d="M814,120h10c40,0,36,50,76,50h10"/>
					<g>
						<g>
							<g>
								<g>
									<g>
										<g>
											<path class="st4" d="M1009.6,159.5l2,2v18c0,1-1,2-2,2l0,0H921c-1,0-2-1-2-2l0,0v-18c0-1,1-2,2-2l0,0H1009.6c1,0,2,1,2,2
												l0,0L1009.6,159.5z"/>
										</g>
										<text transform="matrix(1 0 0 1 924 175.5)" class="st1 st5 st6">mlr3torch</text>
									</g>
								</g>
							</g>
						</g>
					</g>
				</g>
			</g>
		</g>
	</g>
	<g>
		<g>
			<path class="st0" d="M617,368.5c32.9-35.3,35-109.5,96-109.5"/>
			<g>
				<g>
					<g>
						<g>
							<g>
								<text transform="matrix(1 0 0 1 722 266.5)" class="st1 st2 st3">Evaluation</text>
							</g>
						</g>
					</g>
				</g>
			</g>
		</g>
		<g>
			<g>
				<g>
					<path class="st0" d="M826,259h10c40,0,36-26,76-26h10"/>
					<g>
						<g>
							<g>
								<g>
									<g>
										<g>
											<path class="st4" d="M1049.2,222.5l2,2v18c0,1-1,2-2,2l0,0H933c-1,0-2-1-2-2l0,0v-18c0-1,1-2,2-2l0,0H1049.2c1,0,2,1,2,2
												l0,0L1049.2,222.5z"/>
										</g>
										<text transform="matrix(1 0 0 1 936 238.5)" class="st1 st5 st6">mlr3measures</text>
									</g>
								</g>
							</g>
						</g>
					</g>
				</g>
			</g>
			<g>
				<g>
					<path class="st0" d="M826,259h10c40,0,36,25,76,25h10"/>
					<g>
						<g>
							<g>
								<g>
									<g>
										<g>
											<path class="st4" d="M1058.3,273.5l2,2v18c0,1-1,2-2,2l0,0H933c-1,0-2-1-2-2l0,0v-18c0-1,1-2,2-2l0,0H1058.3c1,0,2,1,2,2
												l0,0L1058.3,273.5z"/>
										</g>
										<text transform="matrix(1 0 0 1 936 289.5)" class="st1 st5 st6">mlr3benchmark</text>
									</g>
								</g>
							</g>
						</g>
					</g>
				</g>
			</g>
		</g>
	</g>
	<g>
		<g>
			<path class="st0" d="M617,407.4c33.5,21.4,34.5,67.6,96,67.6"/>
			<g>
				<g>
					<g>
						<g>
							<g>
								<text transform="matrix(1 0 0 1 722 482.5)" class="st1 st2 st3">Tuning</text>
							</g>
						</g>
					</g>
				</g>
			</g>
		</g>
		<g>
			<g>
				<g>
					<path class="st0" d="M792,475h10c40,0,36-128,76-128h10"/>
					<g>
						<g>
							<g>
								<g>
									<g>
										<g>
											<path class="st4" d="M996.8,336.5l2,2v18c0,1-1,2-2,2l0,0H899c-1,0-2-1-2-2l0,0v-18c0-1,1-2,2-2l0,0H996.8c1,0,2,1,2,2
												l0,0L996.8,336.5z"/>
										</g>
										<text transform="matrix(1 0 0 1 902 352.5)" class="st1 st5 st6">mlr3tuning</text>
									</g>
								</g>
							</g>
						</g>
					</g>
				</g>
			</g>
			<g>
				<g>
					<path class="st0" d="M792,475h10c40,0,36-77,76-77h10"/>
					<g>
						<g>
							<g>
								<g>
									<g>
										<g>
											<path class="st4" d="M1006,387.5l2,2v18c0,1-1,2-2,2l0,0H899c-1,0-2-1-2-2l0,0v-18c0-1,1-2,2-2l0,0H1006c1,0,2,1,2,2l0,0
												L1006,387.5z"/>
										</g>
										<text transform="matrix(1 0 0 1 902 403.5)" class="st1 st5 st6">miesmuschel</text>
									</g>
								</g>
							</g>
						</g>
					</g>
				</g>
			</g>
			<g>
				<g>
					<path class="st0" d="M792,475h10c40,0,36-26,76-26h10"/>
					<g>
						<g>
							<g>
								<g>
									<g>
										<g>
											<path class="st4" d="M1024.3,438.5l2,2v18c0,1-1,2-2,2l0,0H899c-1,0-2-1-2-2l0,0v-18c0-1,1-2,2-2l0,0H1024.3c1,0,2,1,2,2
												l0,0L1024.3,438.5z"/>
										</g>
										<text transform="matrix(1 0 0 1 902 454.5)" class="st1 st5 st6">mlr3hyperband</text>
									</g>
								</g>
							</g>
						</g>
					</g>
				</g>
			</g>
			<g>
				<g>
					<path class="st0" d="M792,475h10c40,0,36,25,76,25h10"/>
					<g>
						<g>
							<g>
								<g>
									<g>
										<g>
											<path class="st4" d="M969.3,489.5l2,2v18c0,1-1,2-2,2l0,0H899c-1,0-2-1-2-2l0,0v-18c0-1,1-2,2-2l0,0H969.3c1,0,2,1,2,2
												l0,0L969.3,489.5z"/>
										</g>
										<text transform="matrix(1 0 0 1 902 505.5)" class="st1 st5 st6">mlr3mbo</text>
									</g>
								</g>
							</g>
						</g>
					</g>
				</g>
			</g>
			<g>
				<g>
					<path class="st0" d="M792,475h10c40,0,36,76,76,76h10"/>
					<g>
						<g>
							<g>
								<g>
									<g>
										<g>
											<path class="st4" d="M950.9,540.5l2,2v18c0,1-1,2-2,2l0,0H899c-1,0-2-1-2-2l0,0v-18c0-1,1-2,2-2l0,0H950.9c1,0,2,1,2,2
												l0,0L950.9,540.5z"/>
										</g>
										<text transform="matrix(1 0 0 1 902 556.5)" class="st1 st5 st6">bbotk</text>
									</g>
								</g>
							</g>
						</g>
					</g>
				</g>
			</g>
			<g>
				<g>
					<path class="st0" d="M792,475h10c40,0,36,127,76,127h10"/>
					<g>
						<g>
							<g>
								<g>
									<g>
										<g>
											<path class="st4" d="M1051.9,591.5l2,2v18c0,1-1,2-2,2l0,0H899c-1,0-2-1-2-2l0,0v-18c0-1,1-2,2-2l0,0H1051.9c1,0,2,1,2,2
												l0,0L1051.9,591.5z"/>
										</g>
										<text transform="matrix(1 0 0 1 902 607.5)" class="st1 st5 st6">mlr3tuningspaces</text>
									</g>
								</g>
							</g>
						</g>
					</g>
				</g>
			</g>
		</g>
	</g>
	<g>
		<g>
			<path class="st0" d="M605.9,431c41.9,68.7,41.5,260,107.1,260"/>
			<g>
				<g>
					<g>
						<g>
							<g>
								<text transform="matrix(1 0 0 1 722 698.5)" class="st1 st2 st3">Feature Selection</text>
							</g>
						</g>
					</g>
				</g>
			</g>
		</g>
		<g>
			<g>
				<g>
					<path class="st0" d="M890,691h10c40,0,36-26,76-26h10"/>
					<g>
						<g>
							<g>
								<g>
									<g>
										<g>
											<path class="st4" d="M1104,654.5l2,2v18c0,1-1,2-2,2l0,0H997c-1,0-2-1-2-2l0,0v-18c0-1,1-2,2-2l0,0H1104c1,0,2,1,2,2l0,0
												L1104,654.5z"/>
										</g>
										<text transform="matrix(1 0 0 1 1000 670.5)" class="st1 st5 st6">mlr3filters</text>
									</g>
								</g>
							</g>
						</g>
					</g>
				</g>
			</g>
			<g>
				<g>
					<path class="st0" d="M890,691h10c40,0,36,25,76,25h10"/>
					<g>
						<g>
							<g>
								<g>
									<g>
										<g>
											<path class="st4" d="M1104,705.5l2,2v18c0,1-1,2-2,2l0,0H997c-1,0-2-1-2-2l0,0v-18c0-1,1-2,2-2l0,0H1104c1,0,2,1,2,2l0,0
												L1104,705.5z"/>
										</g>
										<text transform="matrix(1 0 0 1 1000 721.5)" class="st1 st5 st6">mlr3fselect</text>
									</g>
								</g>
							</g>
						</g>
					</g>
				</g>
			</g>
		</g>
	</g>
	<g>
		<g>
			<path class="st0" d="M527.9,355C480.2,278.8,482.3,18,414,18"/>
			<g>
				<g>
					<g>
						<g>
							<g>
								<text transform="matrix(1 0 0 1 321 25.5)" class="st1 st2 st3">Pipelines</text>
							</g>
						</g>
					</g>
				</g>
			</g>
		</g>
		<g>
			<g>
				<g>
					<path class="st0" d="M312,18h-10c-40,0-36-1-76-1h-10"/>
					<g>
						<g>
							<g>
								<g>
									<g>
										<g>
											<path class="st4" d="M203.3,6.5l2,2v18c0,1-1,2-2,2l0,0H78c-1,0-2-1-2-2l0,0v-18c0-1,1-2,2-2l0,0H203.3c1,0,2,1,2,2l0,0
												L203.3,6.5z"/>
										</g>
										<text transform="matrix(1 0 0 1 81 22.5)" class="st1 st5 st6">mlr3pipelines</text>
									</g>
								</g>
							</g>
						</g>
					</g>
				</g>
			</g>
		</g>
	</g>
	<g>
		<g>
			<path class="st0" d="M516.9,355c-38.2-63-39.1-218-102.9-218"/>
			<g>
				<g>
					<g>
						<g>
							<g>
								<text transform="matrix(1 0 0 1 363 144.5)" class="st1 st2 st3">Data</text>
							</g>
						</g>
					</g>
				</g>
			</g>
		</g>
		<g>
			<g>
				<g>
					<path class="st0" d="M354,137h-10c-40,0-36-52-76-52h-10"/>
					<g>
						<g>
							<g>
								<g>
									<g>
										<g>
											<path class="st4" d="M245.1,74.5l2,2v18c0,1-1,2-2,2l0,0H184c-1,0-2-1-2-2l0,0v-18c0-1,1-2,2-2l0,0H245.1c1,0,2,1,2,2
												l0,0L245.1,74.5z"/>
										</g>
										<text transform="matrix(1 0 0 1 187 90.5)" class="st1 st5 st6">mlr3db</text>
									</g>
								</g>
							</g>
						</g>
					</g>
				</g>
			</g>
			<g>
				<g>
					<path class="st0" d="M354,137h-10c-40,0-36-1-76-1h-10"/>
					<g>
						<g>
							<g>
								<g>
									<g>
										<g>
											<path class="st4" d="M245.3,125.5l2,2v18c0,1-1,2-2,2l0,0H175c-1,0-2-1-2-2l0,0v-18c0-1,1-2,2-2l0,0H245.3c1,0,2,1,2,2
												l0,0L245.3,125.5z"/>
										</g>
										<text transform="matrix(1 0 0 1 178 141.5)" class="st1 st5 st6">mlr3oml</text>
									</g>
								</g>
							</g>
						</g>
					</g>
				</g>
			</g>
			<g>
				<g>
					<path class="st0" d="M354,137h-10c-40,0-36,50-76,50h-10"/>
					<g>
						<g>
							<g>
								<g>
									<g>
										<g>
											<path class="st4" d="M245.4,176.5l2,2v18c0,1-1,2-2,2l0,0H166c-1,0-2-1-2-2l0,0v-18c0-1,1-2,2-2l0,0H245.4c1,0,2,1,2,2
												l0,0L245.4,176.5z"/>
										</g>
										<text transform="matrix(1 0 0 1 169 192.5)" class="st1 st5 st6">mlr3data</text>
									</g>
								</g>
							</g>
						</g>
					</g>
				</g>
			</g>
		</g>
	</g>
	<g>
		<g>
			<path class="st0" d="M510,390.5c-34.3-3.8-33.8-12.5-96-12.5"/>
			<g>
				<g>
					<g>
						<g>
							<g>
								<text transform="matrix(1 0 0 1 281 385.5)" class="st1 st2 st3">Special Tasks</text>
							</g>
						</g>
					</g>
				</g>
			</g>
		</g>
		<g>
			<g>
				<g>
					<path class="st0" d="M272,378h-10c-40,0-36-128-76-128h-10"/>
					<g>
						<g>
							<g>
								<g>
									<g>
										<g>
											<path class="st4" d="M163.9,239.5l2,2v18c0,1-1,2-2,2l0,0H11c-1,0-2-1-2-2l0,0v-18c0-1,1-2,2-2l0,0H163.9c1,0,2,1,2,2
												l0,0L163.9,239.5z"/>
										</g>
										<text transform="matrix(1 0 0 1 14 255.5)" class="st1 st5 st6">mlr3spatiotempcv</text>
									</g>
								</g>
							</g>
						</g>
					</g>
				</g>
			</g>
			<g>
				<g>
					<path class="st0" d="M272,378h-10c-40,0-37-77-77-77h-10"/>
					<g>
						<g>
							<g>
								<g>
									<g>
										<g>
											<path class="st4" d="M163,290.5l2,2v18c0,1-1,2-2,2l0,0H56c-1,0-2-1-2-2l0,0v-18c0-1,1-2,2-2l0,0H163c1,0,2,1,2,2l0,0
												L163,290.5z"/>
										</g>
										<text transform="matrix(1 0 0 1 59 306.5)" class="st1 st5 st6">mlr3spatial</text>
									</g>
								</g>
							</g>
						</g>
					</g>
				</g>
			</g>
			<g>
				<g>
					<path class="st0" d="M272,378h-10c-40,0-36-26-76-26h-10"/>
					<g>
						<g>
							<g>
								<g>
									<g>
										<g>
											<path class="st4" d="M163.6,341.5l2,2v18c0,1-1,2-2,2l0,0H75c-1,0-2-1-2-2l0,0v-18c0-1,1-2,2-2l0,0H163.6c1,0,2,1,2,2
												l0,0L163.6,341.5z"/>
										</g>
										<text transform="matrix(1 0 0 1 78 357.5)" class="st1 st5 st6">mlr3proba</text>
									</g>
								</g>
							</g>
						</g>
					</g>
				</g>
			</g>
			<g>
				<g>
					<path class="st0" d="M272,378h-10c-40,0-37,25-77,25h-10"/>
					<g>
						<g>
							<g>
								<g>
									<g>
										<g>
											<path class="st4" d="M163,392.5l2,2v18c0,1-1,2-2,2l0,0H56c-1,0-2-1-2-2l0,0v-18c0-1,1-2,2-2l0,0H163c1,0,2,1,2,2l0,0
												L163,392.5z"/>
										</g>
										<text transform="matrix(1 0 0 1 59 408.5)" class="st1 st5 st6">mlr3cluster</text>
									</g>
								</g>
							</g>
						</g>
					</g>
				</g>
			</g>
			<g>
				<g>
					<path class="st7" d="M272,378h-10c-40,0-36,76-76,76h-10"/>
					<g>
						<g>
							<g>
								<g>
									<g>
										<g>
											<path class="st8" d="M163.3,443.5l2,2v18c0,1-1,2-2,2l0,0H93c-1,0-2-1-2-2l0,0v-18c0-1,1-2,2-2l0,0H163.3c1,0,2,1,2,2
												l0,0L163.3,443.5z"/>
										</g>
										<text transform="matrix(1 0 0 1 96 459.5)" class="st1 st5 st6">mlr3fda</text>
									</g>
								</g>
							</g>
						</g>
					</g>
				</g>
			</g>
			<g>
				<g>
					<path class="st0" d="M272,378h-10c-40,0-36,127-76,127h-10"/>
					<g>
						<g>
							<g>
								<g>
									<g>
										<g>
											<path class="st4" d="M163.2,494.5l2,2v18c0,1-1,2-2,2l0,0H47c-1,0-2-1-2-2l0,0v-18c0-1,1-2,2-2l0,0H163.2c1,0,2,1,2,2
												l0,0L163.2,494.5z"/>
										</g>
										<text transform="matrix(1 0 0 1 50 510.5)" class="st1 st5 st6">mlr3fairness</text>
									</g>
								</g>
							</g>
						</g>
					</g>
				</g>
			</g>
		</g>
	</g>
	<g>
		<g>
			<path class="st0" d="M519.2,431C479,497.2,478.8,671,414,671"/>
			<g>
				<g>
					<g>
						<g>
							<g>
								<text transform="matrix(1 0 0 1 335 678.5)" class="st1 st2 st3">Utilities</text>
							</g>
						</g>
					</g>
				</g>
			</g>
		</g>
		<g>
			<g>
				<g>
					<path class="st0" d="M326,671h-10c-40,0-36-103-76-103h-10"/>
					<g>
						<g>
							<g>
								<g>
									<g>
										<g>
											<path class="st4" d="M217.4,557.5l2,2v18c0,1-1,2-2,2l0,0H138c-1,0-2-1-2-2l0,0v-18c0-1,1-2,2-2l0,0H217.4c1,0,2,1,2,2
												l0,0L217.4,557.5z"/>
										</g>
										<text transform="matrix(1 0 0 1 141 573.5)" class="st1 st5 st6">mlr3misc</text>
									</g>
								</g>
							</g>
						</g>
					</g>
				</g>
			</g>
			<g>
				<g>
					<path class="st0" d="M326,671h-10c-40,0-36-52-76-52h-10"/>
					<g>
						<g>
							<g>
								<g>
									<g>
										<g>
											<path class="st4" d="M217.3,608.5l2,2v18c0,1-1,2-2,2l0,0H147c-1,0-2-1-2-2l0,0v-18c0-1,1-2,2-2l0,0H217.3c1,0,2,1,2,2
												l0,0L217.3,608.5z"/>
										</g>
										<text transform="matrix(1 0 0 1 150 624.5)" class="st1 st5 st6">mlr3viz</text>
									</g>
								</g>
							</g>
						</g>
					</g>
				</g>
			</g>
			<g>
				<g>
					<path class="st0" d="M326,671h-10c-40,0-36-1-76-1h-10"/>
					<g>
						<g>
							<g>
								<g>
									<g>
										<g>
											<path class="st4" d="M217.6,659.5l2,2v18c0,1-1,2-2,2l0,0H129c-1,0-2-1-2-2l0,0v-18c0-1,1-2,2-2l0,0H217.6c1,0,2,1,2,2
												l0,0L217.6,659.5z"/>
										</g>
										<text transform="matrix(1 0 0 1 132 675.5)" class="st1 st5 st6">mlr3verse</text>
									</g>
								</g>
							</g>
						</g>
					</g>
				</g>
			</g>
			<g>
				<g>
					<path class="st0" d="M326,671h-10c-40,0-36,50-76,50h-10"/>
					<g>
						<g>
							<g>
								<g>
									<g>
										<g>
											<path class="st4" d="M217.3,710.5l2,2v18c0,1-1,2-2,2l0,0H92c-1,0-2-1-2-2l0,0v-18c0-1,1-2,2-2l0,0H217.3c1,0,2,1,2,2
												l0,0L217.3,710.5z"/>
										</g>
										<text transform="matrix(1 0 0 1 95 726.5)" class="st1 st5 st6">mlr3batchmark</text>
									</g>
								</g>
							</g>
						</g>
					</g>
				</g>
			</g>
			<g>
				<g>
					<path class="st0" d="M326,671h-10c-40,0-36,101-76,101h-10"/>
					<g>
						<g>
							<g>
								<g>
									<g>
										<g>
											<path class="st4" d="M217.3,761.5l2,2v18c0,1-1,2-2,2l0,0H147c-1,0-2-1-2-2l0,0v-18c0-1,1-2,2-2l0,0H217.3c1,0,2,1,2,2
												l0,0L217.3,761.5z"/>
										</g>
										<text transform="matrix(1 0 0 1 150 777.5)" class="st1 st5 st6">paradox</text>
									</g>
								</g>
							</g>
						</g>
					</g>
				</g>
			</g>
		</g>
	</g>
</g>
<g>
	<g>
		<g>
			<g>
				<g>
					<g>
						<g>
							<path class="st4" d="M593.1,377.5l2,2v27c0,1-1,2-2,2l0,0H532c-1,0-2-1-2-2l0,0v-27c0-1,1-2,2-2l0,0H593.1c1,0,2,1,2,2l0,0
								L593.1,377.5z"/>
						</g>
						<text transform="matrix(1 0 0 1 535 400.5)" class="st1 st5 st9">mlr3</text>
					</g>
				</g>
			</g>
		</g>
	</g>
</g>
</svg>
