<?xml version="1.0" encoding="UTF-8" standalone="no"?>
<svg
   xmlns:dc="http://purl.org/dc/elements/1.1/"
   xmlns:cc="http://creativecommons.org/ns#"
   xmlns:rdf="http://www.w3.org/1999/02/22-rdf-syntax-ns#"
   xmlns:svg="http://www.w3.org/2000/svg"
   xmlns="http://www.w3.org/2000/svg"
   xmlns:sodipodi="http://sodipodi.sourceforge.net/DTD/sodipodi-0.dtd"
   xmlns:inkscape="http://www.inkscape.org/namespaces/inkscape"
   version="1.1"
   viewBox="0 0 597.45929 239.16534"
   stroke-miterlimit="10"
   id="svg219"
   sodipodi:docname="mlr3Pipelines graphics user 2019.svg"
   width="597.45929"
   height="239.16534"
   style="fill:none;stroke:none;stroke-linecap:square;stroke-miterlimit:10"
   inkscape:version="0.92.4 5da689c313, 2019-01-14">
  <metadata
     id="metadata225">
    <rdf:RDF>
      <cc:Work
         rdf:about="">
        <dc:format>image/svg+xml</dc:format>
        <dc:type
           rdf:resource="http://purl.org/dc/dcmitype/StillImage" />
        <dc:title></dc:title>
      </cc:Work>
    </rdf:RDF>
  </metadata>
  <defs
     id="defs223" />
  <sodipodi:namedview
     pagecolor="#ffffff"
     bordercolor="#666666"
     borderopacity="1"
     objecttolerance="10"
     gridtolerance="10"
     guidetolerance="10"
     inkscape:pageopacity="0"
     inkscape:pageshadow="2"
     inkscape:window-width="2560"
     inkscape:window-height="1381"
     id="namedview221"
     showgrid="false"
     fit-margin-top="0"
     fit-margin-left="0"
     fit-margin-right="0"
     fit-margin-bottom="0"
     inkscape:zoom="1.122532"
     inkscape:cx="436.54307"
     inkscape:cy="73.337775"
     inkscape:window-x="0"
     inkscape:window-y="0"
     inkscape:window-maximized="1"
     inkscape:current-layer="svg219" />
  <clipPath
     id="g5cc48913b2_0_1339.0">
    <path
       d="M 0,0 H 960 V 540 H 0 Z"
       id="path2"
       inkscape:connector-curvature="0"
       style="clip-rule:nonzero" />
  </clipPath>
  <path
     style="fill:#000000;fill-opacity:0;fill-rule:evenodd"
     inkscape:connector-curvature="0"
     id="path5"
     d="m -78.54593,-150.41733 h 960 v 540 h -960 z" />
  <path
     style="fill:#ffab40;fill-rule:evenodd"
     inkscape:connector-curvature="0"
     id="path7"
     d="m 170.94751,40.52835 v 0 C 170.94751,18.69743 188.64496,1 210.47586,1 H 556.931 c 10.48352,0 20.53772,4.16458 27.95075,11.57758 7.41296,7.41301 11.57757,17.46719 11.57757,27.95077 v 158.10864 c 0,21.8309 -17.69745,39.52835 -39.52832,39.52835 H 210.47586 c -21.8309,0 -39.52835,-17.69745 -39.52835,-39.52835 z" />
  <path
     style="fill-rule:evenodd;stroke:#000000;stroke-width:2;stroke-linecap:butt;stroke-linejoin:round"
     inkscape:connector-curvature="0"
     id="path9"
     d="m 170.94751,40.52835 v 0 C 170.94751,18.69743 188.64496,1 210.47586,1 H 556.931 c 10.48352,0 20.53772,4.16458 27.95075,11.57758 7.41296,7.41301 11.57757,17.46719 11.57757,27.95077 v 158.10864 c 0,21.8309 -17.69745,39.52835 -39.52832,39.52835 H 210.47586 c -21.8309,0 -39.52835,-17.69745 -39.52835,-39.52835 z" />
  <path
     style="fill:#f3f3f3;fill-rule:evenodd"
     inkscape:connector-curvature="0"
     id="path11"
     d="m 180.45407,44.84324 v 0 c 0,-20.21025 16.38364,-36.5939 36.5939,-36.5939 h 336.8279 c 9.70532,0 19.01313,3.8554 25.87586,10.71811 6.86267,6.86268 10.71808,16.17048 10.71808,25.87579 v 146.37123 c 0,20.21026 -16.38367,36.5939 -36.59394,36.5939 h -336.8279 c -20.21026,0 -36.5939,-16.38363 -36.5939,-36.5939 z" />
  <path
     style="fill-rule:evenodd;stroke:#000000;stroke-width:2;stroke-linecap:butt;stroke-linejoin:round"
     inkscape:connector-curvature="0"
     id="path13"
     d="m 180.45407,44.84324 v 0 c 0,-20.21025 16.38364,-36.5939 36.5939,-36.5939 h 336.8279 c 9.70532,0 19.01313,3.8554 25.87586,10.71811 6.86267,6.86268 10.71808,16.17048 10.71808,25.87579 v 146.37123 c 0,20.21026 -16.38367,36.5939 -36.59394,36.5939 h -336.8279 c -20.21026,0 -36.5939,-16.38363 -36.5939,-36.5939 z" />
  <path
     style="fill:#ffab40;fill-rule:evenodd"
     inkscape:connector-curvature="0"
     id="path15"
     d="m 329.68133,33.32208 v 0 c 0,-4.45026 3.60764,-8.05791 8.05789,-8.05791 h 92.04169 c 2.13709,0 4.18665,0.84897 5.69782,2.36011 1.51111,1.51115 2.3601,3.56072 2.3601,5.6978 v 32.23065 c 0,4.45026 -3.60766,8.05791 -8.05792,8.05791 h -92.04169 c -4.45025,0 -8.05789,-3.60765 -8.05789,-8.05791 z" />
  <path
     style="fill-rule:evenodd;stroke:#000000;stroke-width:2;stroke-linecap:butt;stroke-linejoin:round"
     inkscape:connector-curvature="0"
     id="path17"
     d="m 329.68133,33.32208 v 0 c 0,-4.45026 3.60764,-8.05791 8.05789,-8.05791 h 92.04169 c 2.13709,0 4.18665,0.84897 5.69782,2.36011 1.51111,1.51115 2.3601,3.56072 2.3601,5.6978 v 32.23065 c 0,4.45026 -3.60766,8.05791 -8.05792,8.05791 h -92.04169 c -4.45025,0 -8.05789,-3.60765 -8.05789,-8.05791 z" />
  <path
     style="fill:#000000;fill-rule:nonzero"
     inkscape:connector-curvature="0"
     id="path19"
     d="m 357.84979,35.59491 q 2.39062,0 3.84375,1.10937 1.45312,1.10938 1.45312,4.125 0,2.92188 -1.45312,4.125 -1.45313,1.20313 -3.51563,1.20313 h -2.53125 v -10.5625 z m -0.75,1.17187 v 8.23438 h 1.1875 q 1.46875,0 2.39062,-0.89063 0.92188,-0.90625 0.92188,-3.28125 0,-1.67187 -0.48438,-2.5625 -0.46875,-0.90625 -1.20312,-1.20312 -0.73438,-0.29688 -1.73438,-0.29688 z m 14.44946,5.10938 q 0,0.35937 -0.0312,0.71875 h -5.15625 q 0.0937,1.34375 0.67188,1.96875 0.57812,0.625 1.5,0.625 0.59375,0 1.07812,-0.15625 0.48438,-0.17188 1.03125,-0.54688 l 0.60938,0.84375 q -1.28125,1.01563 -2.82813,1.01563 -1.67187,0 -2.625,-1.09375 -0.9375,-1.10938 -0.9375,-3.04688 0,-1.26562 0.40625,-2.23437 0.40625,-0.96875 1.15625,-1.51563 0.76563,-0.5625 1.79688,-0.5625 1.60937,0 2.46875,1.0625 0.85937,1.0625 0.85937,2.92188 z M 370.143,41.46991 q 0,-1.20313 -0.46875,-1.82813 -0.46875,-0.625 -1.42187,-0.625 -1.73438,0 -1.89063,2.54688 h 3.78125 z m 6.60385,-3.57813 q 0.71875,0 1.3125,0.21875 0.59375,0.20313 1.14063,0.65625 l -0.67188,0.89063 q -0.42187,-0.3125 -0.82812,-0.45313 -0.40625,-0.14062 -0.90625,-0.14062 -0.96875,0 -1.51563,0.78125 -0.54687,0.78125 -0.54687,2.3125 0,1.53125 0.53125,2.26562 0.54687,0.71875 1.53125,0.71875 0.48437,0 0.875,-0.14062 0.40625,-0.14063 0.89062,-0.46875 l 0.64063,0.92187 q -1.09375,0.89063 -2.45313,0.89063 -1.64062,0 -2.59375,-1.09375 -0.9375,-1.10938 -0.9375,-3.0625 0,-1.28125 0.42188,-2.25 0.4375,-0.96875 1.21875,-1.5 0.79687,-0.54688 1.89062,-0.54688 z m 5.77997,0.1875 v 8.07813 h -1.40625 v -8.07813 z m -0.70312,-3.875 q 0.4375,0 0.71875,0.28125 0.28125,0.26563 0.28125,0.6875 0,0.40625 -0.28125,0.67188 -0.28125,0.26562 -0.71875,0.26562 -0.4375,0 -0.71875,-0.26562 -0.26563,-0.26563 -0.26563,-0.67188 0,-0.42187 0.26563,-0.6875 0.28125,-0.28125 0.71875,-0.28125 z m 5.80691,3.6875 q 0.82813,0 1.48438,0.23438 0.67187,0.23437 1.26562,0.6875 l -0.59375,0.89062 q -0.54687,-0.35937 -1.04687,-0.51562 -0.5,-0.17188 -1.0625,-0.17188 -0.6875,0 -1.09375,0.28125 -0.39063,0.28125 -0.39063,0.78125 0,0.48438 0.375,0.76563 0.375,0.26562 1.35938,0.53125 1.34375,0.34375 2.01562,0.92187 0.67188,0.57813 0.67188,1.59375 0,1.1875 -0.9375,1.82813 -0.92188,0.625 -2.25,0.625 -1.84375,0 -3.04688,-1.0625 l 0.75,-0.85938 q 1.01563,0.78125 2.26563,0.78125 0.79687,0 1.26562,-0.32812 0.46875,-0.32813 0.46875,-0.89063 0,-0.42187 -0.17187,-0.67187 -0.17188,-0.25 -0.59375,-0.4375 -0.40625,-0.20313 -1.20313,-0.40625 -1.28125,-0.34375 -1.85937,-0.90625 -0.57813,-0.57813 -0.57813,-1.45313 0,-0.625 0.375,-1.125 0.375,-0.51562 1.04688,-0.79687 0.67187,-0.29688 1.48437,-0.29688 z m 6.37702,0.1875 v 8.07813 h -1.40625 v -8.07813 z m -0.70313,-3.875 q 0.4375,0 0.71875,0.28125 0.28125,0.26563 0.28125,0.6875 0,0.40625 -0.28125,0.67188 -0.28125,0.26562 -0.71875,0.26562 -0.4375,0 -0.71875,-0.26562 -0.26562,-0.26563 -0.26562,-0.67188 0,-0.42187 0.26562,-0.6875 0.28125,-0.28125 0.71875,-0.28125 z m 6.65067,3.6875 q 1.70312,0 2.64062,1.14063 0.95313,1.125 0.95313,3.07812 0,1.25 -0.4375,2.21875 -0.42188,0.95313 -1.23438,1.48438 -0.8125,0.53125 -1.9375,0.53125 -1.6875,0 -2.64062,-1.125 -0.95313,-1.14063 -0.95313,-3.09375 0,-1.25 0.42188,-2.20313 0.4375,-0.96875 1.25,-1.5 0.8125,-0.53125 1.9375,-0.53125 z m 0,1.14063 q -2.09375,0 -2.09375,3.09375 0,3.07812 2.07812,3.07812 2.09375,0 2.09375,-3.09375 0,-3.07812 -2.07812,-3.07812 z m 9.71725,-1.14063 q 1.10938,0 1.73438,0.67188 0.625,0.65625 0.625,1.79687 v 5.79688 h -1.42188 v -5.59375 q 0,-0.85938 -0.32812,-1.20313 -0.3125,-0.35937 -0.9375,-0.35937 -0.64063,0 -1.14063,0.375 -0.48437,0.35937 -0.92187,1.04687 v 5.73438 h -1.40625 v -8.07813 h 1.21875 l 0.125,1.20313 q 0.42187,-0.65625 1.04687,-1.01563 0.64063,-0.375 1.40625,-0.375 z" />
  <path
     style="fill:#000000;fill-rule:nonzero"
     inkscape:connector-curvature="0"
     id="path21"
     d="m 376.71117,53.59491 -0.14063,1.25 h -2.9375 v 9.3125 h -1.45312 v -9.3125 h -3 v -1.25 z m 4.66779,2.29687 q 0.42187,0 0.79687,0.0937 l -0.26562,1.375 q -0.35938,-0.0781 -0.70313,-0.0781 -0.75,0 -1.21875,0.54687 -0.45312,0.54688 -0.71875,1.71875 v 4.60938 h -1.40625 v -8.07813 h 1.21875 l 0.14063,1.64063 q 0.3125,-0.90625 0.85937,-1.35938 0.5625,-0.46875 1.29688,-0.46875 z m 8.05041,3.98438 q 0,0.35937 -0.0312,0.71875 h -5.15625 q 0.0937,1.34375 0.67188,1.96875 0.57812,0.625 1.5,0.625 0.59375,0 1.07812,-0.15625 0.48438,-0.17188 1.03125,-0.54688 l 0.60938,0.84375 q -1.28125,1.01563 -2.82813,1.01563 -1.67187,0 -2.625,-1.09375 -0.9375,-1.10938 -0.9375,-3.04688 0,-1.26562 0.40625,-2.23437 0.40625,-0.96875 1.15625,-1.51563 0.76563,-0.5625 1.79688,-0.5625 1.60937,0 2.46875,1.0625 0.85937,1.0625 0.85937,2.92188 z m -1.40625,-0.40625 q 0,-1.20313 -0.46875,-1.82813 -0.46875,-0.625 -1.42187,-0.625 -1.73438,0 -1.89063,2.54688 h 3.78125 z m 9.7601,0.40625 q 0,0.35937 -0.0312,0.71875 h -5.15625 q 0.0937,1.34375 0.67188,1.96875 0.57812,0.625 1.5,0.625 0.59375,0 1.07812,-0.15625 0.48438,-0.17188 1.03125,-0.54688 l 0.60938,0.84375 q -1.28125,1.01563 -2.82813,1.01563 -1.67187,0 -2.625,-1.09375 -0.9375,-1.10938 -0.9375,-3.04688 0,-1.26562 0.40625,-2.23437 0.40625,-0.96875 1.15625,-1.51563 0.76563,-0.5625 1.79688,-0.5625 1.60937,0 2.46875,1.0625 0.85937,1.0625 0.85937,2.92188 z m -1.40625,-0.40625 q 0,-1.20313 -0.46875,-1.82813 -0.46875,-0.625 -1.42187,-0.625 -1.73438,0 -1.89063,2.54688 h 3.78125 z" />
  <path
     style="fill:#d0e0e3;fill-rule:evenodd"
     inkscape:connector-curvature="0"
     id="path23"
     d="m 196.23575,33.32339 v 0 c 0,-4.45026 3.60764,-8.05791 8.05789,-8.05791 h 92.04169 c 2.13709,0 4.18665,0.84897 5.69779,2.36011 1.51117,1.51115 2.3601,3.56072 2.3601,5.6978 v 32.23065 c 0,4.45026 -3.60763,8.05791 -8.05789,8.05791 h -92.04169 c -4.45025,0 -8.05789,-3.60765 -8.05789,-8.05791 z" />
  <path
     style="fill-rule:evenodd;stroke:#000000;stroke-width:2;stroke-linecap:butt;stroke-linejoin:round"
     inkscape:connector-curvature="0"
     id="path25"
     d="m 196.23575,33.32339 v 0 c 0,-4.45026 3.60764,-8.05791 8.05789,-8.05791 h 92.04169 c 2.13709,0 4.18665,0.84897 5.69779,2.36011 1.51117,1.51115 2.3601,3.56072 2.3601,5.6978 v 32.23065 c 0,4.45026 -3.60763,8.05791 -8.05789,8.05791 h -92.04169 c -4.45025,0 -8.05789,-3.60765 -8.05789,-8.05791 z" />
  <path
     style="fill:#000000;fill-rule:nonzero"
     inkscape:connector-curvature="0"
     id="path27"
     d="m 216.08874,44.40872 q 1.0625,0 1.8125,0.3125 0.75,0.29687 1.45313,0.92187 l -0.79688,0.89063 q -0.59375,-0.48438 -1.17187,-0.70313 -0.57813,-0.21875 -1.23438,-0.21875 -0.82812,0 -1.375,0.39063 -0.53125,0.375 -0.53125,1.10937 0,0.45313 0.1875,0.78125 0.1875,0.3125 0.67188,0.57813 0.5,0.25 1.45312,0.54687 1,0.29688 1.65625,0.65625 0.65625,0.34375 1.0625,0.96875 0.40625,0.625 0.40625,1.57813 0,0.92187 -0.45312,1.625 -0.4375,0.70312 -1.29688,1.10937 -0.84375,0.39063 -2.01562,0.39063 -2.1875,0 -3.57813,-1.375 l 0.79688,-0.875 q 0.64062,0.51562 1.29687,0.78125 0.65625,0.26562 1.46875,0.26562 0.98438,0 1.625,-0.48437 0.64063,-0.48438 0.64063,-1.39063 0,-0.53125 -0.20313,-0.875 -0.1875,-0.34375 -0.67187,-0.60937 -0.48438,-0.28125 -1.40625,-0.5625 -1.625,-0.48438 -2.375,-1.17188 -0.75,-0.70312 -0.75,-1.875 0,-0.79687 0.42187,-1.42187 0.42188,-0.64063 1.17188,-0.98438 0.76562,-0.35937 1.73437,-0.35937 z m 11.68198,10.75 h -1.21875 l -0.10938,-1.25 q -0.45312,0.75 -1.0625,1.09375 -0.59375,0.34375 -1.45312,0.34375 -1.04688,0 -1.65625,-0.64063 -0.59375,-0.65625 -0.59375,-1.82812 v -5.79688 h 1.42187 v 5.64063 q 0,0.82812 0.28125,1.17187 0.29688,0.34375 0.95313,0.34375 1.1875,0 2.01562,-1.39062 v -5.76563 h 1.42188 z m 6.60849,-8.26563 q 1.375,0 2.1875,1.10938 0.8125,1.10937 0.8125,3.10937 0,1.25 -0.39063,2.21875 -0.375,0.95313 -1.09375,1.48438 -0.71875,0.53125 -1.6875,0.53125 -1.28125,0 -2.15625,-1.07813 l -0.125,0.89063 h -1.25 V 43.83059 l 1.40625,-0.17187 v 4.4375 q 0.875,-1.20313 2.29688,-1.20313 z m -0.51563,7.32813 q 0.9375,0 1.46875,-0.75 0.53125,-0.76563 0.53125,-2.35938 0,-1.64062 -0.5,-2.35937 -0.48437,-0.73438 -1.39062,-0.73438 -1.07813,0 -1.89063,1.25 v 3.875 q 0.32813,0.5 0.79688,0.79688 0.46875,0.28125 0.98437,0.28125 z m 8.10492,-7.32813 q 0.82813,0 1.48438,0.23438 0.67187,0.23437 1.26562,0.6875 l -0.59375,0.89062 q -0.54687,-0.35937 -1.04687,-0.51562 -0.5,-0.17188 -1.0625,-0.17188 -0.6875,0 -1.09375,0.28125 -0.39063,0.28125 -0.39063,0.78125 0,0.48438 0.375,0.76563 0.375,0.26562 1.35938,0.53125 1.34375,0.34375 2.01562,0.92187 0.67188,0.57813 0.67188,1.59375 0,1.1875 -0.9375,1.82813 -0.92188,0.625 -2.25,0.625 -1.84375,0 -3.04688,-1.0625 l 0.75,-0.85938 q 1.01563,0.78125 2.26563,0.78125 0.79687,0 1.26562,-0.32812 0.46875,-0.32813 0.46875,-0.89063 0,-0.42187 -0.17187,-0.67187 -0.17188,-0.25 -0.59375,-0.4375 -0.40625,-0.20313 -1.20313,-0.40625 -1.28125,-0.34375 -1.85937,-0.90625 -0.57813,-0.57813 -0.57813,-1.45313 0,-0.625 0.375,-1.125 0.375,-0.51562 1.04688,-0.79687 0.67187,-0.29688 1.48437,-0.29688 z m 10.25491,6.375 q 0,0.5 0.17188,0.73438 0.17187,0.23437 0.51562,0.35937 l -0.32812,0.98438 q -0.625,-0.0781 -1.01563,-0.34375 -0.375,-0.28125 -0.5625,-0.875 -0.8125,1.21875 -2.40625,1.21875 -1.20312,0 -1.89062,-0.67188 -0.6875,-0.6875 -0.6875,-1.76562 0,-1.29688 0.92187,-1.98438 0.9375,-0.6875 2.64063,-0.6875 h 1.23437 v -0.59375 q 0,-0.85937 -0.42187,-1.21875 -0.40625,-0.375 -1.26563,-0.375 -0.89062,0 -2.17187,0.42188 l -0.35938,-1.01563 q 1.51563,-0.5625 2.79688,-0.5625 1.42187,0 2.125,0.70313 0.70312,0.70312 0.70312,1.98437 z m -3.29687,1.01563 q 1.20312,0 1.89062,-1.25 v -1.85938 h -1.04687 q -2.25,0 -2.25,1.65625 0,0.71875 0.34375,1.09375 0.35937,0.35938 1.0625,0.35938 z m 14.30731,-7.39063 q 1,0 1.59375,0.67188 0.59375,0.67187 0.59375,1.79687 v 5.79688 h -1.40625 v -5.59375 q 0,-1.5625 -1.125,-1.5625 -0.60941,0 -1.03128,0.34375 -0.40625,0.34375 -0.875,1.07812 v 5.73438 h -1.40625 v -5.59375 q 0,-1.5625 -1.14063,-1.5625 -0.60937,0 -1.03125,0.35937 -0.40625,0.34375 -0.875,1.0625 v 5.73438 h -1.40625 v -8.07813 h 1.21875 l 0.125,1.1875 q 0.89063,-1.375 2.32813,-1.375 0.75,0 1.26562,0.39063 0.53125,0.375 0.76563,1.0625 0.48437,-0.70313 1.04687,-1.07813 0.57813,-0.375 1.35941,-0.375 z m 8.74561,0 q 1.54687,0 2.26562,1.10938 0.71875,1.10937 0.71875,3.10937 0,1.90625 -0.82812,3.07813 -0.82813,1.15625 -2.34375,1.15625 -1.35938,0 -2.125,-0.92188 v 3.82813 l -1.40625,0.17187 V 47.08059 h 1.21875 l 0.10937,1.09375 q 0.4375,-0.625 1.0625,-0.95312 0.625,-0.32813 1.32813,-0.32813 z m -0.53125,7.29688 q 2,0 2,-3.07813 0,-3.09375 -1.82813,-3.09375 -0.59375,0 -1.09375,0.35938 -0.48437,0.34375 -0.85937,0.89062 v 3.9375 q 0.3125,0.48438 0.76562,0.73438 0.46875,0.25 1.01563,0.25 z m 7.52682,1.15625 q -0.78125,0 -1.23437,-0.46875 -0.45313,-0.46875 -0.45313,-1.3125 v -9.73438 l 1.42188,-0.17187 v 9.875 q 0,0.34375 0.10937,0.5 0.10938,0.14062 0.39063,0.14062 0.29687,0 0.51562,-0.0937 l 0.375,0.98438 q -0.51562,0.28125 -1.125,0.28125 z m 8.91449,-4.46875 q 0,0.35937 -0.0312,0.71875 h -5.15625 q 0.0937,1.34375 0.67188,1.96875 0.57812,0.625 1.5,0.625 0.59375,0 1.07812,-0.15625 0.48438,-0.17188 1.03125,-0.54688 l 0.60938,0.84375 q -1.28125,1.01563 -2.82813,1.01563 -1.67187,0 -2.625,-1.09375 -0.9375,-1.10938 -0.9375,-3.04688 0,-1.26562 0.40625,-2.23437 0.40625,-0.96875 1.15625,-1.51563 0.76563,-0.5625 1.79688,-0.5625 1.60937,0 2.46875,1.0625 0.85937,1.0625 0.85937,2.92188 z m -1.40625,-0.40625 q 0,-1.20313 -0.46875,-1.82813 -0.46875,-0.625 -1.42187,-0.625 -1.73438,0 -1.89063,2.54688 h 3.78125 z" />
  <path
     style="fill:#ffab40;fill-rule:evenodd"
     inkscape:connector-curvature="0"
     id="path29"
     d="m 329.68133,103.20923 v 0 c 0,-4.45026 3.60764,-8.05791 8.05789,-8.05791 h 92.04169 c 2.13709,0 4.18665,0.84896 5.69782,2.36011 1.51111,1.51115 2.3601,3.5607 2.3601,5.6978 v 32.23065 c 0,4.45026 -3.60766,8.05789 -8.05792,8.05789 h -92.04169 c -4.45025,0 -8.05789,-3.60763 -8.05789,-8.05789 z" />
  <path
     style="fill-rule:evenodd;stroke:#000000;stroke-width:2;stroke-linecap:butt;stroke-linejoin:round"
     inkscape:connector-curvature="0"
     id="path31"
     d="m 329.68133,103.20923 v 0 c 0,-4.45026 3.60764,-8.05791 8.05789,-8.05791 h 92.04169 c 2.13709,0 4.18665,0.84896 5.69782,2.36011 1.51111,1.51115 2.3601,3.5607 2.3601,5.6978 v 32.23065 c 0,4.45026 -3.60766,8.05789 -8.05792,8.05789 h -92.04169 c -4.45025,0 -8.05789,-3.60763 -8.05789,-8.05789 z" />
  <path
     style="fill:#000000;fill-rule:nonzero"
     inkscape:connector-curvature="0"
     id="path33"
     d="m 357.84979,105.48204 q 2.39062,0 3.84375,1.10939 1.45312,1.10938 1.45312,4.125 0,2.92188 -1.45312,4.125 -1.45313,1.20313 -3.51563,1.20313 h -2.53125 v -10.56252 z m -0.75,1.17189 v 8.23438 h 1.1875 q 1.46875,0 2.39062,-0.89063 0.92188,-0.90625 0.92188,-3.28125 0,-1.67187 -0.48438,-2.5625 -0.46875,-0.90625 -1.20312,-1.20312 -0.73438,-0.29688 -1.73438,-0.29688 z m 14.44946,5.10938 q 0,0.35937 -0.0312,0.71875 h -5.15625 q 0.0937,1.34375 0.67188,1.96875 0.57812,0.625 1.5,0.625 0.59375,0 1.07812,-0.15625 0.48438,-0.17188 1.03125,-0.54688 l 0.60938,0.84375 q -1.28125,1.01563 -2.82813,1.01563 -1.67187,0 -2.625,-1.09375 -0.9375,-1.10938 -0.9375,-3.04688 0,-1.26562 0.40625,-2.23437 0.40625,-0.96875 1.15625,-1.51563 0.76563,-0.5625 1.79688,-0.5625 1.60937,0 2.46875,1.0625 0.85937,1.0625 0.85937,2.92188 z m -1.40625,-0.40625 q 0,-1.20313 -0.46875,-1.82813 -0.46875,-0.625 -1.42187,-0.625 -1.73438,0 -1.89063,2.54688 h 3.78125 z m 6.60385,-3.57813 q 0.71875,0 1.3125,0.21875 0.59375,0.20313 1.14063,0.65625 l -0.67188,0.89063 q -0.42187,-0.3125 -0.82812,-0.45313 -0.40625,-0.14062 -0.90625,-0.14062 -0.96875,0 -1.51563,0.78125 -0.54687,0.78125 -0.54687,2.3125 0,1.53125 0.53125,2.26562 0.54687,0.71875 1.53125,0.71875 0.48437,0 0.875,-0.14062 0.40625,-0.14063 0.89062,-0.46875 l 0.64063,0.92187 q -1.09375,0.89063 -2.45313,0.89063 -1.64062,0 -2.59375,-1.09375 -0.9375,-1.10938 -0.9375,-3.0625 0,-1.28125 0.42188,-2.25 0.4375,-0.96875 1.21875,-1.5 0.79687,-0.54688 1.89062,-0.54688 z m 5.77997,0.1875 v 8.07813 h -1.40625 v -8.07813 z m -0.70312,-3.87502 q 0.4375,0 0.71875,0.28125 0.28125,0.26563 0.28125,0.6875 0,0.40625 -0.28125,0.6719 -0.28125,0.26562 -0.71875,0.26562 -0.4375,0 -0.71875,-0.26562 -0.26563,-0.26564 -0.26563,-0.67189 0,-0.42188 0.26563,-0.6875 0.28125,-0.28125 0.71875,-0.28126 z m 5.80691,3.68752 q 0.82813,0 1.48438,0.23438 0.67187,0.23437 1.26562,0.6875 l -0.59375,0.89062 q -0.54687,-0.35937 -1.04687,-0.51562 -0.5,-0.17188 -1.0625,-0.17188 -0.6875,0 -1.09375,0.28125 -0.39063,0.28125 -0.39063,0.78125 0,0.48438 0.375,0.76563 0.375,0.26562 1.35938,0.53125 1.34375,0.34375 2.01562,0.92187 0.67188,0.57813 0.67188,1.59375 0,1.1875 -0.9375,1.82813 -0.92188,0.625 -2.25,0.625 -1.84375,0 -3.04688,-1.0625 l 0.75,-0.85938 q 1.01563,0.78125 2.26563,0.78125 0.79687,0 1.26562,-0.32812 0.46875,-0.32813 0.46875,-0.89063 0,-0.42187 -0.17187,-0.67187 -0.17188,-0.25 -0.59375,-0.4375 -0.40625,-0.20313 -1.20313,-0.40625 -1.28125,-0.34375 -1.85937,-0.90625 -0.57813,-0.57813 -0.57813,-1.45313 0,-0.625 0.375,-1.125 0.375,-0.51562 1.04688,-0.79687 0.67187,-0.29688 1.48437,-0.29688 z m 6.37702,0.1875 v 8.07813 h -1.40625 v -8.07813 z m -0.70313,-3.87502 q 0.4375,0 0.71875,0.28125 0.28125,0.26563 0.28125,0.6875 0,0.40625 -0.28125,0.6719 -0.28125,0.26562 -0.71875,0.26562 -0.4375,0 -0.71875,-0.26562 -0.26562,-0.26564 -0.26562,-0.67189 0,-0.42188 0.26562,-0.6875 0.28125,-0.28125 0.71875,-0.28126 z m 6.65067,3.68752 q 1.70312,0 2.64062,1.14063 0.95313,1.125 0.95313,3.07812 0,1.25 -0.4375,2.21875 -0.42188,0.95313 -1.23438,1.48438 -0.8125,0.53125 -1.9375,0.53125 -1.6875,0 -2.64062,-1.125 -0.95313,-1.14063 -0.95313,-3.09375 0,-1.25 0.42188,-2.20313 0.4375,-0.96875 1.25,-1.5 0.8125,-0.53125 1.9375,-0.53125 z m 0,1.14063 q -2.09375,0 -2.09375,3.09375 0,3.07812 2.07812,3.07812 2.09375,0 2.09375,-3.09375 0,-3.07812 -2.07812,-3.07812 z m 9.71725,-1.14063 q 1.10938,0 1.73438,0.67188 0.625,0.65625 0.625,1.79687 v 5.79688 h -1.42188 v -5.59375 q 0,-0.85938 -0.32812,-1.20313 -0.3125,-0.35937 -0.9375,-0.35937 -0.64063,0 -1.14063,0.375 -0.48437,0.35937 -0.92187,1.04687 v 5.73438 h -1.40625 v -8.07813 h 1.21875 l 0.125,1.20313 q 0.42187,-0.65625 1.04687,-1.01563 0.64063,-0.375 1.40625,-0.375 z" />
  <path
     style="fill:#000000;fill-rule:nonzero"
     inkscape:connector-curvature="0"
     id="path35"
     d="m 376.71117,123.48205 -0.14063,1.25 h -2.9375 v 9.3125 h -1.45312 v -9.3125 h -3 v -1.25 z m 4.66779,2.29687 q 0.42187,0 0.79687,0.0937 l -0.26562,1.375 q -0.35938,-0.0781 -0.70313,-0.0781 -0.75,0 -1.21875,0.54687 -0.45312,0.54688 -0.71875,1.71875 v 4.60938 h -1.40625 v -8.07813 h 1.21875 l 0.14063,1.64063 q 0.3125,-0.90625 0.85937,-1.35938 0.5625,-0.46875 1.29688,-0.46875 z m 8.05041,3.98438 q 0,0.35937 -0.0312,0.71875 h -5.15625 q 0.0937,1.34375 0.67188,1.96875 0.57812,0.625 1.5,0.625 0.59375,0 1.07812,-0.15625 0.48438,-0.17188 1.03125,-0.54688 l 0.60938,0.84375 q -1.28125,1.01563 -2.82813,1.01563 -1.67187,0 -2.625,-1.09375 -0.9375,-1.10938 -0.9375,-3.04688 0,-1.26562 0.40625,-2.23437 0.40625,-0.96875 1.15625,-1.51563 0.76563,-0.5625 1.79688,-0.5625 1.60937,0 2.46875,1.0625 0.85937,1.0625 0.85937,2.92188 z m -1.40625,-0.40625 q 0,-1.20313 -0.46875,-1.82813 -0.46875,-0.625 -1.42187,-0.625 -1.73438,0 -1.89063,2.54688 h 3.78125 z m 9.7601,0.40625 q 0,0.35937 -0.0312,0.71875 h -5.15625 q 0.0937,1.34375 0.67188,1.96875 0.57812,0.625 1.5,0.625 0.59375,0 1.07812,-0.15625 0.48438,-0.17188 1.03125,-0.54688 l 0.60938,0.84375 q -1.28125,1.01563 -2.82813,1.01563 -1.67187,0 -2.625,-1.09375 -0.9375,-1.10938 -0.9375,-3.04688 0,-1.26562 0.40625,-2.23437 0.40625,-0.96875 1.15625,-1.51563 0.76563,-0.5625 1.79688,-0.5625 1.60937,0 2.46875,1.0625 0.85937,1.0625 0.85937,2.92188 z m -1.40625,-0.40625 q 0,-1.20313 -0.46875,-1.82813 -0.46875,-0.625 -1.42187,-0.625 -1.73438,0 -1.89063,2.54688 h 3.78125 z" />
  <path
     style="fill:#d0e0e3;fill-rule:evenodd"
     inkscape:connector-curvature="0"
     id="path37"
     d="m 196.23575,103.21054 v 0 c 0,-4.45026 3.60764,-8.05791 8.05789,-8.05791 h 92.04169 c 2.13709,0 4.18665,0.84896 5.69779,2.36011 1.51117,1.51115 2.3601,3.5607 2.3601,5.6978 v 32.23065 c 0,4.45026 -3.60763,8.05789 -8.05789,8.05789 h -92.04169 c -4.45025,0 -8.05789,-3.60763 -8.05789,-8.05789 z" />
  <path
     style="fill-rule:evenodd;stroke:#000000;stroke-width:2;stroke-linecap:butt;stroke-linejoin:round"
     inkscape:connector-curvature="0"
     id="path39"
     d="m 196.23575,103.21054 v 0 c 0,-4.45026 3.60764,-8.05791 8.05789,-8.05791 h 92.04169 c 2.13709,0 4.18665,0.84896 5.69779,2.36011 1.51117,1.51115 2.3601,3.5607 2.3601,5.6978 v 32.23065 c 0,4.45026 -3.60763,8.05789 -8.05789,8.05789 h -92.04169 c -4.45025,0 -8.05789,-3.60763 -8.05789,-8.05789 z" />
  <path
     style="fill:#000000;fill-rule:nonzero"
     inkscape:connector-curvature="0"
     id="path41"
     d="m 216.08874,114.29587 q 1.0625,0 1.8125,0.3125 0.75,0.29687 1.45313,0.92187 l -0.79688,0.89063 q -0.59375,-0.48438 -1.17187,-0.70313 -0.57813,-0.21875 -1.23438,-0.21875 -0.82812,0 -1.375,0.39063 -0.53125,0.375 -0.53125,1.10937 0,0.45313 0.1875,0.78125 0.1875,0.3125 0.67188,0.57813 0.5,0.25 1.45312,0.54687 1,0.29688 1.65625,0.65625 0.65625,0.34375 1.0625,0.96875 0.40625,0.625 0.40625,1.57813 0,0.92187 -0.45312,1.625 -0.4375,0.70312 -1.29688,1.10937 -0.84375,0.39063 -2.01562,0.39063 -2.1875,0 -3.57813,-1.375 l 0.79688,-0.875 q 0.64062,0.51562 1.29687,0.78125 0.65625,0.26562 1.46875,0.26562 0.98438,0 1.625,-0.48437 0.64063,-0.48438 0.64063,-1.39063 0,-0.53125 -0.20313,-0.875 -0.1875,-0.34375 -0.67187,-0.60937 -0.48438,-0.28125 -1.40625,-0.5625 -1.625,-0.48438 -2.375,-1.17188 -0.75,-0.70312 -0.75,-1.875 0,-0.79687 0.42187,-1.42187 0.42188,-0.64063 1.17188,-0.98438 0.76562,-0.35937 1.73437,-0.35937 z m 11.68198,10.75 h -1.21875 l -0.10938,-1.25 q -0.45312,0.75 -1.0625,1.09375 -0.59375,0.34375 -1.45312,0.34375 -1.04688,0 -1.65625,-0.64063 -0.59375,-0.65625 -0.59375,-1.82812 v -5.79688 h 1.42187 v 5.64063 q 0,0.82812 0.28125,1.17187 0.29688,0.34375 0.95313,0.34375 1.1875,0 2.01562,-1.39062 v -5.76563 h 1.42188 z m 6.60849,-8.26563 q 1.375,0 2.1875,1.10938 0.8125,1.10937 0.8125,3.10937 0,1.25 -0.39063,2.21875 -0.375,0.95313 -1.09375,1.48438 -0.71875,0.53125 -1.6875,0.53125 -1.28125,0 -2.15625,-1.07813 l -0.125,0.89063 h -1.25 v -11.32813 l 1.40625,-0.17187 v 4.4375 q 0.875,-1.20313 2.29688,-1.20313 z m -0.51563,7.32813 q 0.9375,0 1.46875,-0.75 0.53125,-0.76563 0.53125,-2.35938 0,-1.64062 -0.5,-2.35937 -0.48437,-0.73438 -1.39062,-0.73438 -1.07813,0 -1.89063,1.25 v 3.875 q 0.32813,0.5 0.79688,0.79688 0.46875,0.28125 0.98437,0.28125 z m 8.10492,-7.32813 q 0.82813,0 1.48438,0.23438 0.67187,0.23437 1.26562,0.6875 l -0.59375,0.89062 q -0.54687,-0.35937 -1.04687,-0.51562 -0.5,-0.17188 -1.0625,-0.17188 -0.6875,0 -1.09375,0.28125 -0.39063,0.28125 -0.39063,0.78125 0,0.48438 0.375,0.76563 0.375,0.26562 1.35938,0.53125 1.34375,0.34375 2.01562,0.92187 0.67188,0.57813 0.67188,1.59375 0,1.1875 -0.9375,1.82813 -0.92188,0.625 -2.25,0.625 -1.84375,0 -3.04688,-1.0625 l 0.75,-0.85938 q 1.01563,0.78125 2.26563,0.78125 0.79687,0 1.26562,-0.32812 0.46875,-0.32813 0.46875,-0.89063 0,-0.42187 -0.17187,-0.67187 -0.17188,-0.25 -0.59375,-0.4375 -0.40625,-0.20313 -1.20313,-0.40625 -1.28125,-0.34375 -1.85937,-0.90625 -0.57813,-0.57813 -0.57813,-1.45313 0,-0.625 0.375,-1.125 0.375,-0.51562 1.04688,-0.79687 0.67187,-0.29688 1.48437,-0.29688 z m 10.25491,6.375 q 0,0.5 0.17188,0.73438 0.17187,0.23437 0.51562,0.35937 l -0.32812,0.98438 q -0.625,-0.0781 -1.01563,-0.34375 -0.375,-0.28125 -0.5625,-0.875 -0.8125,1.21875 -2.40625,1.21875 -1.20312,0 -1.89062,-0.67188 -0.6875,-0.6875 -0.6875,-1.76562 0,-1.29688 0.92187,-1.98438 0.9375,-0.6875 2.64063,-0.6875 h 1.23437 v -0.59375 q 0,-0.85937 -0.42187,-1.21875 -0.40625,-0.375 -1.26563,-0.375 -0.89062,0 -2.17187,0.42188 l -0.35938,-1.01563 q 1.51563,-0.5625 2.79688,-0.5625 1.42187,0 2.125,0.70313 0.70312,0.70312 0.70312,1.98437 z m -3.29687,1.01563 q 1.20312,0 1.89062,-1.25 v -1.85938 h -1.04687 q -2.25,0 -2.25,1.65625 0,0.71875 0.34375,1.09375 0.35937,0.35938 1.0625,0.35938 z m 14.30731,-7.39063 q 1,0 1.59375,0.67188 0.59375,0.67187 0.59375,1.79687 v 5.79688 h -1.40625 v -5.59375 q 0,-1.5625 -1.125,-1.5625 -0.60941,0 -1.03128,0.34375 -0.40625,0.34375 -0.875,1.07812 v 5.73438 h -1.40625 v -5.59375 q 0,-1.5625 -1.14063,-1.5625 -0.60937,0 -1.03125,0.35937 -0.40625,0.34375 -0.875,1.0625 v 5.73438 h -1.40625 v -8.07813 h 1.21875 l 0.125,1.1875 q 0.89063,-1.375 2.32813,-1.375 0.75,0 1.26562,0.39063 0.53125,0.375 0.76563,1.0625 0.48437,-0.70313 1.04687,-1.07813 0.57813,-0.375 1.35941,-0.375 z m 8.74561,0 q 1.54687,0 2.26562,1.10938 0.71875,1.10937 0.71875,3.10937 0,1.90625 -0.82812,3.07813 -0.82813,1.15625 -2.34375,1.15625 -1.35938,0 -2.125,-0.92188 v 3.82813 l -1.40625,0.17187 v -11.34375 h 1.21875 l 0.10937,1.09375 q 0.4375,-0.625 1.0625,-0.95312 0.625,-0.32813 1.32813,-0.32813 z m -0.53125,7.29688 q 2,0 2,-3.07813 0,-3.09375 -1.82813,-3.09375 -0.59375,0 -1.09375,0.35938 -0.48437,0.34375 -0.85937,0.89062 v 3.9375 q 0.3125,0.48438 0.76562,0.73438 0.46875,0.25 1.01563,0.25 z m 7.52682,1.15625 q -0.78125,0 -1.23437,-0.46875 -0.45313,-0.46875 -0.45313,-1.3125 v -9.73438 l 1.42188,-0.17187 v 9.875 q 0,0.34375 0.10937,0.5 0.10938,0.14062 0.39063,0.14062 0.29687,0 0.51562,-0.0937 l 0.375,0.98438 q -0.51562,0.28125 -1.125,0.28125 z m 8.91449,-4.46875 q 0,0.35937 -0.0312,0.71875 h -5.15625 q 0.0937,1.34375 0.67188,1.96875 0.57812,0.625 1.5,0.625 0.59375,0 1.07812,-0.15625 0.48438,-0.17188 1.03125,-0.54688 l 0.60938,0.84375 q -1.28125,1.01563 -2.82813,1.01563 -1.67187,0 -2.625,-1.09375 -0.9375,-1.10938 -0.9375,-3.04688 0,-1.26562 0.40625,-2.23437 0.40625,-0.96875 1.15625,-1.51563 0.76563,-0.5625 1.79688,-0.5625 1.60937,0 2.46875,1.0625 0.85937,1.0625 0.85937,2.92188 z m -1.40625,-0.40625 q 0,-1.20313 -0.46875,-1.82813 -0.46875,-0.625 -1.42187,-0.625 -1.73438,0 -1.89063,2.54688 h 3.78125 z" />
  <path
     style="fill:#ffab40;fill-rule:evenodd"
     inkscape:connector-curvature="0"
     id="path43"
     d="m 329.68133,173.09637 v 0 c 0,-4.45026 3.60764,-8.05792 8.05789,-8.05792 h 92.04169 c 2.13709,0 4.18665,0.84897 5.69782,2.36011 1.51111,1.51116 2.3601,3.56073 2.3601,5.69781 v 32.23065 c 0,4.45026 -3.60766,8.05789 -8.05792,8.05789 h -92.04169 c -4.45025,0 -8.05789,-3.60763 -8.05789,-8.05789 z" />
  <path
     style="fill-rule:evenodd;stroke:#000000;stroke-width:2;stroke-linecap:butt;stroke-linejoin:round"
     inkscape:connector-curvature="0"
     id="path45"
     d="m 329.68133,173.09637 v 0 c 0,-4.45026 3.60764,-8.05792 8.05789,-8.05792 h 92.04169 c 2.13709,0 4.18665,0.84897 5.69782,2.36011 1.51111,1.51116 2.3601,3.56073 2.3601,5.69781 v 32.23065 c 0,4.45026 -3.60766,8.05789 -8.05792,8.05789 h -92.04169 c -4.45025,0 -8.05789,-3.60763 -8.05789,-8.05789 z" />
  <path
     style="fill:#000000;fill-rule:nonzero"
     inkscape:connector-curvature="0"
     id="path47"
     d="m 357.84979,175.3692 q 2.39062,0 3.84375,1.10938 1.45312,1.10937 1.45312,4.125 0,2.92187 -1.45312,4.125 -1.45313,1.20312 -3.51563,1.20312 h -2.53125 v -10.5625 z m -0.75,1.17188 v 8.23437 h 1.1875 q 1.46875,0 2.39062,-0.89062 0.92188,-0.90625 0.92188,-3.28125 0,-1.67188 -0.48438,-2.5625 -0.46875,-0.90625 -1.20312,-1.20313 -0.73438,-0.29687 -1.73438,-0.29687 z m 14.44946,5.10937 q 0,0.35938 -0.0312,0.71875 h -5.15625 q 0.0937,1.34375 0.67188,1.96875 0.57812,0.625 1.5,0.625 0.59375,0 1.07812,-0.15625 0.48438,-0.17187 1.03125,-0.54687 l 0.60938,0.84375 q -1.28125,1.01562 -2.82813,1.01562 -1.67187,0 -2.625,-1.09375 -0.9375,-1.10937 -0.9375,-3.04687 0,-1.26563 0.40625,-2.23438 0.40625,-0.96875 1.15625,-1.51562 0.76563,-0.5625 1.79688,-0.5625 1.60937,0 2.46875,1.0625 0.85937,1.0625 0.85937,2.92187 z M 370.143,181.2442 q 0,-1.20312 -0.46875,-1.82812 -0.46875,-0.625 -1.42187,-0.625 -1.73438,0 -1.89063,2.54687 h 3.78125 z m 6.60385,-3.57812 q 0.71875,0 1.3125,0.21875 0.59375,0.20312 1.14063,0.65625 l -0.67188,0.89062 q -0.42187,-0.3125 -0.82812,-0.45312 -0.40625,-0.14063 -0.90625,-0.14063 -0.96875,0 -1.51563,0.78125 -0.54687,0.78125 -0.54687,2.3125 0,1.53125 0.53125,2.26563 0.54687,0.71875 1.53125,0.71875 0.48437,0 0.875,-0.14063 0.40625,-0.14062 0.89062,-0.46875 l 0.64063,0.92188 q -1.09375,0.89062 -2.45313,0.89062 -1.64062,0 -2.59375,-1.09375 -0.9375,-1.10937 -0.9375,-3.0625 0,-1.28125 0.42188,-2.25 0.4375,-0.96875 1.21875,-1.5 0.79687,-0.54687 1.89062,-0.54687 z m 5.77997,0.1875 v 8.07812 h -1.40625 v -8.07812 z m -0.70312,-3.875 q 0.4375,0 0.71875,0.28125 0.28125,0.26562 0.28125,0.6875 0,0.40625 -0.28125,0.67187 -0.28125,0.26563 -0.71875,0.26563 -0.4375,0 -0.71875,-0.26563 -0.26563,-0.26562 -0.26563,-0.67187 0,-0.42188 0.26563,-0.6875 0.28125,-0.28125 0.71875,-0.28125 z m 5.80691,3.6875 q 0.82813,0 1.48438,0.23437 0.67187,0.23438 1.26562,0.6875 l -0.59375,0.89063 q -0.54687,-0.35938 -1.04687,-0.51563 -0.5,-0.17187 -1.0625,-0.17187 -0.6875,0 -1.09375,0.28125 -0.39063,0.28125 -0.39063,0.78125 0,0.48437 0.375,0.76562 0.375,0.26563 1.35938,0.53125 1.34375,0.34375 2.01562,0.92188 0.67188,0.57812 0.67188,1.59375 0,1.1875 -0.9375,1.82812 -0.92188,0.625 -2.25,0.625 -1.84375,0 -3.04688,-1.0625 l 0.75,-0.85937 q 1.01563,0.78125 2.26563,0.78125 0.79687,0 1.26562,-0.32813 0.46875,-0.32812 0.46875,-0.89062 0,-0.42188 -0.17187,-0.67188 -0.17188,-0.25 -0.59375,-0.4375 -0.40625,-0.20312 -1.20313,-0.40625 -1.28125,-0.34375 -1.85937,-0.90625 -0.57813,-0.57812 -0.57813,-1.45312 0,-0.625 0.375,-1.125 0.375,-0.51563 1.04688,-0.79688 0.67187,-0.29687 1.48437,-0.29687 z m 6.37702,0.1875 v 8.07812 h -1.40625 v -8.07812 z m -0.70313,-3.875 q 0.4375,0 0.71875,0.28125 0.28125,0.26562 0.28125,0.6875 0,0.40625 -0.28125,0.67187 -0.28125,0.26563 -0.71875,0.26563 -0.4375,0 -0.71875,-0.26563 -0.26562,-0.26562 -0.26562,-0.67187 0,-0.42188 0.26562,-0.6875 0.28125,-0.28125 0.71875,-0.28125 z m 6.65067,3.6875 q 1.70312,0 2.64062,1.14062 0.95313,1.125 0.95313,3.07813 0,1.25 -0.4375,2.21875 -0.42188,0.95312 -1.23438,1.48437 -0.8125,0.53125 -1.9375,0.53125 -1.6875,0 -2.64062,-1.125 -0.95313,-1.14062 -0.95313,-3.09375 0,-1.25 0.42188,-2.20312 0.4375,-0.96875 1.25,-1.5 0.8125,-0.53125 1.9375,-0.53125 z m 0,1.14062 q -2.09375,0 -2.09375,3.09375 0,3.07813 2.07812,3.07813 2.09375,0 2.09375,-3.09375 0,-3.07813 -2.07812,-3.07813 z m 9.71725,-1.14062 q 1.10938,0 1.73438,0.67187 0.625,0.65625 0.625,1.79688 v 5.79687 h -1.42188 v -5.59375 q 0,-0.85937 -0.32812,-1.20312 -0.3125,-0.35938 -0.9375,-0.35938 -0.64063,0 -1.14063,0.375 -0.48437,0.35938 -0.92187,1.04688 v 5.73437 h -1.40625 v -8.07812 h 1.21875 l 0.125,1.20312 q 0.42187,-0.65625 1.04687,-1.01562 0.64063,-0.375 1.40625,-0.375 z" />
  <path
     style="fill:#000000;fill-rule:nonzero"
     inkscape:connector-curvature="0"
     id="path49"
     d="m 376.71117,193.3692 -0.14063,1.25 h -2.9375 v 9.3125 h -1.45312 v -9.3125 h -3 v -1.25 z m 4.66779,2.29688 q 0.42187,0 0.79687,0.0937 l -0.26562,1.375 q -0.35938,-0.0781 -0.70313,-0.0781 -0.75,0 -1.21875,0.54688 -0.45312,0.54687 -0.71875,1.71875 v 4.60937 h -1.40625 v -8.07812 h 1.21875 l 0.14063,1.64062 q 0.3125,-0.90625 0.85937,-1.35937 0.5625,-0.46875 1.29688,-0.46875 z m 8.05041,3.98437 q 0,0.35938 -0.0312,0.71875 h -5.15625 q 0.0937,1.34375 0.67188,1.96875 0.57812,0.625 1.5,0.625 0.59375,0 1.07812,-0.15625 0.48438,-0.17187 1.03125,-0.54687 l 0.60938,0.84375 q -1.28125,1.01562 -2.82813,1.01562 -1.67187,0 -2.625,-1.09375 -0.9375,-1.10937 -0.9375,-3.04687 0,-1.26563 0.40625,-2.23438 0.40625,-0.96875 1.15625,-1.51562 0.76563,-0.5625 1.79688,-0.5625 1.60937,0 2.46875,1.0625 0.85937,1.0625 0.85937,2.92187 z m -1.40625,-0.40625 q 0,-1.20312 -0.46875,-1.82812 -0.46875,-0.625 -1.42187,-0.625 -1.73438,0 -1.89063,2.54687 h 3.78125 z m 9.7601,0.40625 q 0,0.35938 -0.0312,0.71875 h -5.15625 q 0.0937,1.34375 0.67188,1.96875 0.57812,0.625 1.5,0.625 0.59375,0 1.07812,-0.15625 0.48438,-0.17187 1.03125,-0.54687 l 0.60938,0.84375 q -1.28125,1.01562 -2.82813,1.01562 -1.67187,0 -2.625,-1.09375 -0.9375,-1.10937 -0.9375,-3.04687 0,-1.26563 0.40625,-2.23438 0.40625,-0.96875 1.15625,-1.51562 0.76563,-0.5625 1.79688,-0.5625 1.60937,0 2.46875,1.0625 0.85937,1.0625 0.85937,2.92187 z m -1.40625,-0.40625 q 0,-1.20312 -0.46875,-1.82812 -0.46875,-0.625 -1.42187,-0.625 -1.73438,0 -1.89063,2.54687 h 3.78125 z" />
  <path
     style="fill:#d0e0e3;fill-rule:evenodd"
     inkscape:connector-curvature="0"
     id="path51"
     d="m 196.23575,173.09767 v 0 c 0,-4.45026 3.60764,-8.05792 8.05789,-8.05792 h 92.04169 c 2.13709,0 4.18665,0.84897 5.69779,2.36011 1.51117,1.51116 2.3601,3.56073 2.3601,5.69781 v 32.23065 c 0,4.45026 -3.60763,8.05789 -8.05789,8.05789 h -92.04169 c -4.45025,0 -8.05789,-3.60763 -8.05789,-8.05789 z" />
  <path
     style="fill-rule:evenodd;stroke:#000000;stroke-width:2;stroke-linecap:butt;stroke-linejoin:round"
     inkscape:connector-curvature="0"
     id="path53"
     d="m 196.23575,173.09767 v 0 c 0,-4.45026 3.60764,-8.05792 8.05789,-8.05792 h 92.04169 c 2.13709,0 4.18665,0.84897 5.69779,2.36011 1.51117,1.51116 2.3601,3.56073 2.3601,5.69781 v 32.23065 c 0,4.45026 -3.60763,8.05789 -8.05789,8.05789 h -92.04169 c -4.45025,0 -8.05789,-3.60763 -8.05789,-8.05789 z" />
  <path
     style="fill:#000000;fill-rule:nonzero"
     inkscape:connector-curvature="0"
     id="path55"
     d="m 216.08874,184.18301 q 1.0625,0 1.8125,0.3125 0.75,0.29688 1.45313,0.92188 l -0.79688,0.89062 q -0.59375,-0.48437 -1.17187,-0.70312 -0.57813,-0.21875 -1.23438,-0.21875 -0.82812,0 -1.375,0.39062 -0.53125,0.375 -0.53125,1.10938 0,0.45312 0.1875,0.78125 0.1875,0.3125 0.67188,0.57812 0.5,0.25 1.45312,0.54688 1,0.29687 1.65625,0.65625 0.65625,0.34375 1.0625,0.96875 0.40625,0.625 0.40625,1.57812 0,0.92188 -0.45312,1.625 -0.4375,0.70313 -1.29688,1.10938 -0.84375,0.39062 -2.01562,0.39062 -2.1875,0 -3.57813,-1.375 l 0.79688,-0.875 q 0.64062,0.51563 1.29687,0.78125 0.65625,0.26563 1.46875,0.26563 0.98438,0 1.625,-0.48438 0.64063,-0.48437 0.64063,-1.39062 0,-0.53125 -0.20313,-0.875 -0.1875,-0.34375 -0.67187,-0.60938 -0.48438,-0.28125 -1.40625,-0.5625 -1.625,-0.48437 -2.375,-1.17187 -0.75,-0.70313 -0.75,-1.875 0,-0.79688 0.42187,-1.42188 0.42188,-0.64062 1.17188,-0.98437 0.76562,-0.35938 1.73437,-0.35938 z m 11.68198,10.75 h -1.21875 l -0.10938,-1.25 q -0.45312,0.75 -1.0625,1.09375 -0.59375,0.34375 -1.45312,0.34375 -1.04688,0 -1.65625,-0.64062 -0.59375,-0.65625 -0.59375,-1.82813 v -5.79687 h 1.42187 v 5.64062 q 0,0.82813 0.28125,1.17188 0.29688,0.34375 0.95313,0.34375 1.1875,0 2.01562,-1.39063 v -5.76562 h 1.42188 z m 6.60849,-8.26562 q 1.375,0 2.1875,1.10937 0.8125,1.10938 0.8125,3.10938 0,1.25 -0.39063,2.21875 -0.375,0.95312 -1.09375,1.48437 -0.71875,0.53125 -1.6875,0.53125 -1.28125,0 -2.15625,-1.07812 l -0.125,0.89062 h -1.25 v -11.32812 l 1.40625,-0.17188 v 4.4375 q 0.875,-1.20312 2.29688,-1.20312 z m -0.51563,7.32812 q 0.9375,0 1.46875,-0.75 0.53125,-0.76562 0.53125,-2.35937 0,-1.64063 -0.5,-2.35938 -0.48437,-0.73437 -1.39062,-0.73437 -1.07813,0 -1.89063,1.25 v 3.875 q 0.32813,0.5 0.79688,0.79687 0.46875,0.28125 0.98437,0.28125 z m 8.10492,-7.32812 q 0.82813,0 1.48438,0.23437 0.67187,0.23438 1.26562,0.6875 l -0.59375,0.89063 q -0.54687,-0.35938 -1.04687,-0.51563 -0.5,-0.17187 -1.0625,-0.17187 -0.6875,0 -1.09375,0.28125 -0.39063,0.28125 -0.39063,0.78125 0,0.48437 0.375,0.76562 0.375,0.26563 1.35938,0.53125 1.34375,0.34375 2.01562,0.92188 0.67188,0.57812 0.67188,1.59375 0,1.1875 -0.9375,1.82812 -0.92188,0.625 -2.25,0.625 -1.84375,0 -3.04688,-1.0625 l 0.75,-0.85937 q 1.01563,0.78125 2.26563,0.78125 0.79687,0 1.26562,-0.32813 0.46875,-0.32812 0.46875,-0.89062 0,-0.42188 -0.17187,-0.67188 -0.17188,-0.25 -0.59375,-0.4375 -0.40625,-0.20312 -1.20313,-0.40625 -1.28125,-0.34375 -1.85937,-0.90625 -0.57813,-0.57812 -0.57813,-1.45312 0,-0.625 0.375,-1.125 0.375,-0.51563 1.04688,-0.79688 0.67187,-0.29687 1.48437,-0.29687 z m 10.25491,6.375 q 0,0.5 0.17188,0.73437 0.17187,0.23438 0.51562,0.35938 l -0.32812,0.98437 q -0.625,-0.0781 -1.01563,-0.34375 -0.375,-0.28125 -0.5625,-0.875 -0.8125,1.21875 -2.40625,1.21875 -1.20312,0 -1.89062,-0.67187 -0.6875,-0.6875 -0.6875,-1.76563 0,-1.29687 0.92187,-1.98437 0.9375,-0.6875 2.64063,-0.6875 h 1.23437 v -0.59375 q 0,-0.85938 -0.42187,-1.21875 -0.40625,-0.375 -1.26563,-0.375 -0.89062,0 -2.17187,0.42187 l -0.35938,-1.01562 q 1.51563,-0.5625 2.79688,-0.5625 1.42187,0 2.125,0.70312 0.70312,0.70313 0.70312,1.98438 z m -3.29687,1.01562 q 1.20312,0 1.89062,-1.25 v -1.85937 h -1.04687 q -2.25,0 -2.25,1.65625 0,0.71875 0.34375,1.09375 0.35937,0.35937 1.0625,0.35937 z m 14.30731,-7.39062 q 1,0 1.59375,0.67187 0.59375,0.67188 0.59375,1.79688 v 5.79687 h -1.40625 v -5.59375 q 0,-1.5625 -1.125,-1.5625 -0.60941,0 -1.03128,0.34375 -0.40625,0.34375 -0.875,1.07813 v 5.73437 h -1.40625 v -5.59375 q 0,-1.5625 -1.14063,-1.5625 -0.60937,0 -1.03125,0.35938 -0.40625,0.34375 -0.875,1.0625 v 5.73437 h -1.40625 v -8.07812 h 1.21875 l 0.125,1.1875 q 0.89063,-1.375 2.32813,-1.375 0.75,0 1.26562,0.39062 0.53125,0.375 0.76563,1.0625 0.48437,-0.70312 1.04687,-1.07812 0.57813,-0.375 1.35941,-0.375 z m 8.74561,0 q 1.54687,0 2.26562,1.10937 0.71875,1.10938 0.71875,3.10938 0,1.90625 -0.82812,3.07812 -0.82813,1.15625 -2.34375,1.15625 -1.35938,0 -2.125,-0.92187 v 3.82812 l -1.40625,0.17188 v -11.34375 h 1.21875 l 0.10937,1.09375 q 0.4375,-0.625 1.0625,-0.95313 0.625,-0.32812 1.32813,-0.32812 z m -0.53125,7.29687 q 2,0 2,-3.07812 0,-3.09375 -1.82813,-3.09375 -0.59375,0 -1.09375,0.35937 -0.48437,0.34375 -0.85937,0.89063 v 3.9375 q 0.3125,0.48437 0.76562,0.73437 0.46875,0.25 1.01563,0.25 z m 7.52682,1.15625 q -0.78125,0 -1.23437,-0.46875 -0.45313,-0.46875 -0.45313,-1.3125 v -9.73437 l 1.42188,-0.17188 v 9.875 q 0,0.34375 0.10937,0.5 0.10938,0.14063 0.39063,0.14063 0.29687,0 0.51562,-0.0937 l 0.375,0.98437 q -0.51562,0.28125 -1.125,0.28125 z m 8.91449,-4.46875 q 0,0.35938 -0.0312,0.71875 h -5.15625 q 0.0937,1.34375 0.67188,1.96875 0.57812,0.625 1.5,0.625 0.59375,0 1.07812,-0.15625 0.48438,-0.17187 1.03125,-0.54687 l 0.60938,0.84375 q -1.28125,1.01562 -2.82813,1.01562 -1.67187,0 -2.625,-1.09375 -0.9375,-1.10937 -0.9375,-3.04687 0,-1.26563 0.40625,-2.23438 0.40625,-0.96875 1.15625,-1.51562 0.76563,-0.5625 1.79688,-0.5625 1.60937,0 2.46875,1.0625 0.85937,1.0625 0.85937,2.92187 z m -1.40625,-0.40625 q 0,-1.20312 -0.46875,-1.82812 -0.46875,-0.625 -1.42187,-0.625 -1.73438,0 -1.89063,2.54687 h 3.78125 z" />
  <path
     style="fill:#d0e0e3;fill-rule:evenodd"
     inkscape:connector-curvature="0"
     id="path57"
     d="m 463.12863,38.87964 v 0 c 0,-9.95583 8.07074,-18.02661 18.02661,-18.02661 h 72.10425 v 0 c 4.78095,0 9.36609,1.89923 12.74671,5.27988 3.38067,3.38064 5.2799,7.96579 5.2799,12.74673 v 160.10428 c 0,9.95581 -8.0708,18.02658 -18.02661,18.02658 h -72.10425 c -9.95587,0 -18.02661,-8.07077 -18.02661,-18.02658 z" />
  <path
     style="fill-rule:evenodd;stroke:#000000;stroke-width:2;stroke-linecap:butt;stroke-linejoin:round"
     inkscape:connector-curvature="0"
     id="path59"
     d="m 463.12863,38.87964 v 0 c 0,-9.95583 8.07074,-18.02661 18.02661,-18.02661 h 72.10425 v 0 c 4.78095,0 9.36609,1.89923 12.74671,5.27988 3.38067,3.38064 5.2799,7.96579 5.2799,12.74673 v 160.10428 c 0,9.95581 -8.0708,18.02658 -18.02661,18.02658 h -72.10425 c -9.95587,0 -18.02661,-8.07077 -18.02661,-18.02658 z" />
  <path
     style="fill:#000000;fill-rule:nonzero"
     inkscape:connector-curvature="0"
     id="path61"
     d="m 499.88037,115.65177 h -1.40625 l -0.35938,-4.76563 q -0.23437,-2.8125 -0.26562,-4.3125 l -2.28125,7.875 h -1.375 l -2.40625,-7.89062 q 0,1.92187 -0.1875,4.4375 l -0.35938,4.65625 h -1.375 l 0.875,-10.56249 h 1.95313 l 2.23437,7.68749 2.10938,-7.68749 h 1.96875 z m 7.84717,-1.89063 q 0,0.5 0.17187,0.73438 0.17188,0.23437 0.51563,0.35937 l -0.32813,0.98438 q -0.625,-0.0781 -1.01562,-0.34375 -0.375,-0.28125 -0.5625,-0.875 -0.8125,1.21875 -2.40625,1.21875 -1.20313,0 -1.89063,-0.67188 -0.6875,-0.6875 -0.6875,-1.76562 0,-1.29688 0.92188,-1.98438 0.9375,-0.6875 2.64062,-0.6875 h 1.23438 v -0.59375 q 0,-0.85937 -0.42188,-1.21875 -0.40625,-0.375 -1.26562,-0.375 -0.89063,0 -2.17188,0.42188 l -0.35937,-1.01563 q 1.51562,-0.5625 2.79687,-0.5625 1.42188,0 2.125,0.70313 0.70313,0.70312 0.70313,1.98437 z m -3.29688,1.01563 q 1.20313,0 1.89063,-1.25 v -1.85938 h -1.04688 q -2.25,0 -2.25,1.65625 0,0.71875 0.34375,1.09375 0.35938,0.35938 1.0625,0.35938 z m 7.41962,0.39062 q 0,1.10938 -0.28125,1.78125 -0.26563,0.6875 -0.79688,1.10938 -0.53125,0.42187 -1.46875,0.84375 l -0.42187,-1.03125 q 0.59375,-0.26563 0.92187,-0.54688 0.32813,-0.26562 0.48438,-0.75 0.15625,-0.48437 0.15625,-1.32812 v -7.67188 h 1.40625 z m -0.6875,-11.46873 q 0.4375,0 0.71875,0.28125 0.28125,0.26562 0.28125,0.6875 0,0.40625 -0.28125,0.67187 -0.28125,0.26561 -0.71875,0.26561 -0.4375,0 -0.71875,-0.26561 -0.26563,-0.26562 -0.26563,-0.67187 0,-0.42188 0.26563,-0.6875 0.28125,-0.28125 0.71875,-0.28125 z m 6.63562,3.68748 q 1.70312,0 2.64062,1.14063 0.95313,1.125 0.95313,3.07812 0,1.25 -0.4375,2.21875 -0.42188,0.95313 -1.23438,1.48438 -0.8125,0.53125 -1.9375,0.53125 -1.6875,0 -2.64062,-1.125 -0.95313,-1.14063 -0.95313,-3.09375 0,-1.25 0.42188,-2.20313 0.4375,-0.96875 1.25,-1.5 0.8125,-0.53125 1.9375,-0.53125 z m 0,1.14063 q -2.09375,0 -2.09375,3.09375 0,3.07812 2.07812,3.07812 2.09375,0 2.09375,-3.09375 0,-3.07812 -2.07812,-3.07812 z m 9.43603,-1.14063 q 0.42188,0 0.79688,0.0937 l -0.26563,1.375 q -0.35937,-0.0781 -0.70312,-0.0781 -0.75,0 -1.21875,0.54687 -0.45313,0.54688 -0.71875,1.71875 v 4.60938 h -1.40625 v -8.07813 h 1.21875 l 0.14062,1.64063 q 0.3125,-0.90625 0.85938,-1.35938 0.5625,-0.46875 1.29687,-0.46875 z m 3.80726,0.1875 v 8.07813 h -1.40625 v -8.07813 z m -0.70313,-3.87498 q 0.4375,0 0.71875,0.28125 0.28125,0.26562 0.28125,0.6875 0,0.40625 -0.28125,0.67187 -0.28125,0.26561 -0.71875,0.26561 -0.4375,0 -0.71875,-0.26561 -0.26562,-0.26562 -0.26562,-0.67187 0,-0.42188 0.26562,-0.6875 0.28125,-0.28125 0.71875,-0.28125 z m 7.69757,11.57811 q -0.79687,0.5625 -1.8125,0.5625 -1.01562,0 -1.59375,-0.59375 -0.57812,-0.59375 -0.57812,-1.70313 v -4.875 h -1.40625 v -1.09375 h 1.40625 v -1.82812 l 1.40625,-0.17186 v 1.99998 h 1.92187 l -0.15625,1.09375 h -1.76562 v 4.8125 q 0,0.625 0.21875,0.90625 0.23437,0.28125 0.75,0.28125 0.48437,0 1.07812,-0.3125 z m 4.61304,0.42187 q -0.46875,1.40625 -1.32813,2.21875 -0.84375,0.82813 -2.42187,1 l -0.15625,-1.10937 q 0.79687,-0.14063 1.26562,-0.40625 0.48438,-0.25 0.76563,-0.65625 0.28125,-0.40625 0.53125,-1.09375 h -0.48438 l -2.70312,-8.07813 h 1.5 l 2.15625,7.04688 2.125,-7.04688 h 1.45312 z" />
  <path
     style="fill:#000000;fill-rule:nonzero"
     inkscape:connector-curvature="0"
     id="path63"
     d="m 510.27077,123.08927 -3.375,10.5625 h -1.5625 l -3.40625,-10.5625 h 1.5625 l 2.65625,8.98437 2.64062,-8.98437 z m 4.18603,2.29687 q 1.70313,0 2.64063,1.14063 0.95312,1.125 0.95312,3.07812 0,1.25 -0.4375,2.21875 -0.42187,0.95313 -1.23437,1.48438 -0.8125,0.53125 -1.9375,0.53125 -1.6875,0 -2.64063,-1.125 -0.95312,-1.14063 -0.95312,-3.09375 0,-1.25 0.42187,-2.20313 0.4375,-0.96875 1.25,-1.5 0.8125,-0.53125 1.9375,-0.53125 z m 0,1.14063 q -2.09375,0 -2.09375,3.09375 0,3.07812 2.07813,3.07812 2.09375,0 2.09375,-3.09375 0,-3.07812 -2.07813,-3.07812 z m 9.99854,6.75 q -0.79688,0.5625 -1.8125,0.5625 -1.01563,0 -1.59375,-0.59375 -0.57813,-0.59375 -0.57813,-1.70313 v -4.875 h -1.40625 v -1.09375 h 1.40625 v -1.82812 l 1.40625,-0.17188 v 2 h 1.92188 l -0.15625,1.09375 h -1.76563 v 4.8125 q 0,0.625 0.21875,0.90625 0.23438,0.28125 0.75,0.28125 0.48438,0 1.07813,-0.3125 z m 7.33472,-3.90625 q 0,0.35937 -0.0312,0.71875 h -5.15625 q 0.0937,1.34375 0.67187,1.96875 0.57813,0.625 1.5,0.625 0.59375,0 1.07813,-0.15625 0.48437,-0.17188 1.03125,-0.54688 l 0.60937,0.84375 q -1.28125,1.01563 -2.82812,1.01563 -1.67188,0 -2.625,-1.09375 -0.9375,-1.10938 -0.9375,-3.04688 0,-1.26562 0.40625,-2.23437 0.40625,-0.96875 1.15625,-1.51563 0.76562,-0.5625 1.79687,-0.5625 1.60938,0 2.46875,1.0625 0.85938,1.0625 0.85938,2.92188 z m -1.40625,-0.40625 q 0,-1.20313 -0.46875,-1.82813 -0.46875,-0.625 -1.42188,-0.625 -1.73437,0 -1.89062,2.54688 h 3.78125 z" />
  <path
     style="fill:#9fc5e8;fill-rule:evenodd"
     inkscape:connector-curvature="0"
     id="path65"
     d="m 112.97191,72.30981 35.14668,-19.10773 -3,-5.51181 17.02654,5.02898 -5.02654,17.01826 -3,-5.51181 -35.14668,19.10773 z" />
  <path
     style="fill-rule:evenodd;stroke:#595959;stroke-width:1;stroke-linecap:butt;stroke-linejoin:round"
     inkscape:connector-curvature="0"
     id="path67"
     d="m 112.97191,72.30981 35.14668,-19.10773 -3,-5.51181 17.02654,5.02898 -5.02654,17.01826 -3,-5.51181 -35.14668,19.10773 z" />
  <path
     style="fill:#9fc5e8;fill-rule:evenodd"
     inkscape:connector-curvature="0"
     id="path69"
     d="m 115.57728,109.67977 h 34.37796 v -6.27559 l 12.55118,12.55119 -12.55118,12.55118 v -6.2756 h -34.37796 z" />
  <path
     style="fill-rule:evenodd;stroke:#595959;stroke-width:1;stroke-linecap:butt;stroke-linejoin:round"
     inkscape:connector-curvature="0"
     id="path71"
     d="m 115.57728,109.67977 h 34.37796 v -6.27559 l 12.55118,12.55119 -12.55118,12.55118 v -6.2756 h -34.37796 z" />
  <path
     style="fill:#6d9eeb;fill-rule:evenodd"
     inkscape:connector-curvature="0"
     id="path73"
     d="M 1,68.10177 H 97.66142 V 171.0624 H 1 Z" />
  <path
     style="fill-rule:evenodd;stroke:#000000;stroke-width:2;stroke-linecap:butt;stroke-linejoin:round"
     inkscape:connector-curvature="0"
     id="path75"
     d="M 1,68.10177 H 97.66142 V 171.0624 H 1 Z" />
  <path
     style="fill:#000000;fill-rule:nonzero"
     inkscape:connector-curvature="0"
     id="path77"
     d="m 24.84845,102.64271 -0.1875,1.51562 h -3.5625 v 11.34377 h -1.765625 v -11.34377 h -3.65625 v -1.51562 z m 5.67903,2.79687 q 0.51563,0 0.96875,0.125 l -0.3125,1.6719 q -0.45312,-0.10938 -0.85937,-0.10938 -0.92188,0 -1.48438,0.67188 -0.54687,0.67187 -0.875,2.09375 v 5.60937 h -1.71875 v -9.82812 h 1.48438 l 0.17187,2 q 0.39063,-1.10938 1.0625,-1.67188 0.67188,-0.56251 1.5625,-0.56252 z m 8.89173,7.76565 q 0,0.59375 0.20312,0.89062 0.21875,0.28125 0.625,0.4375 l -0.39062,1.1875 q -0.76563,-0.0937 -1.23438,-0.42187 -0.46875,-0.34375 -0.6875,-1.04688 -1,1.46875 -2.9375,1.46875 -1.45312,0 -2.29687,-0.8125 -0.82813,-0.82812 -0.82813,-2.15625 0,-1.5625 1.125,-2.39062 1.125,-0.84375 3.20313,-0.84375 h 1.5 v -0.73438 q 0,-1.04687 -0.5,-1.48437 -0.5,-0.45313 -1.54688,-0.45313 -1.07812,0 -2.64062,0.51563 l -0.4375,-1.25 q 1.82812,-0.67189 3.39062,-0.67189 1.73438,0 2.59375,0.85939 0.85938,0.84375 0.85938,2.40625 z m -4.03125,1.23437 q 1.48437,0 2.3125,-1.53125 v -2.25 h -1.28125 q -2.71875,0 -2.71875,2.01563 0,0.875 0.42187,1.32812 0.4375,0.4375 1.26563,0.4375 z m 9.274,-8.76562 v 9.82812 h -1.71875 v -9.82812 z m -0.85938,-4.71877 q 0.53125,0 0.85938,0.34375 0.34375,0.32812 0.34375,0.82812 0,0.5 -0.34375,0.82813 -0.32813,0.32812 -0.85938,0.32812 -0.53125,0 -0.875,-0.32812 -0.32812,-0.32813 -0.32812,-0.82813 0,-0.5 0.32812,-0.82812 0.34375,-0.34375 0.875,-0.34375 z m 9.04232,4.48437 q 1.34375,0 2.09375,0.81252 0.75,0.79688 0.75,2.20313 v 7.04687 H 53.9699 v -6.8125 q 0,-1.04687 -0.39063,-1.46875 -0.39062,-0.4375 -1.15625,-0.4375 -0.78125,0 -1.375,0.45313 -0.59375,0.45312 -1.125,1.28125 v 6.98437 h -1.71875 v -9.82812 h 1.48438 l 0.14062,1.45312 q 0.53125,-0.78125 1.29688,-1.23437 0.78125,-0.45314 1.71875,-0.45315 z m 8.01069,0.2344 v 9.82812 h -1.71875 v -9.82812 z m -0.85937,-4.71877 q 0.53125,0 0.85937,0.34375 0.34375,0.32812 0.34375,0.82812 0,0.5 -0.34375,0.82813 -0.32812,0.32812 -0.85937,0.32812 -0.53125,0 -0.875,-0.32812 -0.32813,-0.32813 -0.32813,-0.82813 0,-0.5 0.32813,-0.82812 0.34375,-0.34375 0.875,-0.34375 z m 9.04231,4.48437 q 1.34375,0 2.09375,0.81252 0.75,0.79688 0.75,2.20313 v 7.04687 h -1.71875 v -6.8125 q 0,-1.04687 -0.39063,-1.46875 -0.39062,-0.4375 -1.15625,-0.4375 -0.78125,0 -1.375,0.45313 -0.59375,0.45312 -1.125,1.28125 v 6.98437 H 64.3979 v -9.82812 h 1.48438 l 0.14062,1.45312 q 0.53125,-0.78125 1.29688,-1.23437 0.78125,-0.45315 1.71875,-0.45315 z m 14.22945,0.6719 q -0.5625,0.1875 -1.23438,0.25 -0.67187,0.0625 -1.64062,0.0625 1.73437,0.78125 1.73437,2.46875 0,1.48437 -1.01562,2.42187 -1,0.92188 -2.73438,0.92188 -0.67187,0 -1.25,-0.1875 -0.21875,0.15625 -0.35937,0.40625 -0.125,0.25 -0.125,0.51562 0,0.79688 1.28125,0.79688 h 1.57812 q 0.98438,0 1.75,0.35937 0.76563,0.34375 1.1875,0.96875 0.42188,0.60938 0.42188,1.39063 0,1.4375 -1.1875,2.20312 -1.17188,0.78125 -3.42188,0.78125 -1.59375,0 -2.51562,-0.32812 -0.92188,-0.3125 -1.3125,-0.96875 -0.39063,-0.65625 -0.39063,-1.6875 h 1.54688 q 0,0.59375 0.21875,0.9375 0.23437,0.35937 0.8125,0.53125 0.57812,0.17187 1.64062,0.17187 1.54688,0 2.20313,-0.39062 0.67187,-0.375 0.67187,-1.14063 0,-0.6875 -0.53125,-1.04687 -0.51562,-0.34375 -1.45312,-0.34375 H 77.5961 q -1.25,0 -1.89062,-0.53125 -0.64063,-0.53125 -0.64063,-1.34375 0,-0.48438 0.26563,-0.92188 0.28125,-0.45312 0.8125,-0.8125 -0.85938,-0.4375 -1.26563,-1.09375 -0.39062,-0.67187 -0.39062,-1.625 0,-0.98437 0.48437,-1.76562 0.5,-0.78125 1.35938,-1.21875 0.875,-0.45315 1.9375,-0.45315 1.15625,0.0312 1.9375,-0.0781 0.78125,-0.10938 1.29687,-0.28125 0.51563,-0.17188 1.26563,-0.51563 z m -5,0.5625 q -0.96875,0 -1.5,0.60937 -0.53125,0.60938 -0.53125,1.59375 0,1.01563 0.53125,1.625 0.54687,0.59375 1.53125,0.59375 1.01562,0 1.54687,-0.57812 0.53125,-0.59375 0.53125,-1.65625 0,-2.1875 -2.10937,-2.1875 z" />
  <path
     style="fill:#000000;fill-rule:nonzero"
     inkscape:connector-curvature="0"
     id="path79"
     d="m 34.51247,124.64273 q 2.92188,0 4.67188,1.35938 1.76562,1.34375 1.76562,5 0,3.57812 -1.76562,5.04687 -1.75,1.45313 -4.28125,1.45313 h -3.07813 v -12.85938 z m -0.90625,1.42188 v 10.03125 h 1.4375 q 1.78125,0 2.90625,-1.09375 1.125,-1.09375 1.125,-4 0,-2.03125 -0.57812,-3.10938 -0.57813,-1.09375 -1.48438,-1.45312 -0.89062,-0.375 -2.10937,-0.375 z m 16.57796,9.14062 q 0,0.59375 0.20313,0.89063 0.21875,0.28125 0.625,0.4375 l -0.39063,1.1875 q -0.76562,-0.0937 -1.23436,-0.42188 -0.46875,-0.34375 -0.6875,-1.04687 -1,1.46875 -2.9375,1.46875 -1.45313,0 -2.29688,-0.8125 -0.82812,-0.82813 -0.82812,-2.15625 0,-1.5625 1.125,-2.39063 1.125,-0.84375 3.20312,-0.84375 h 1.5 v -0.73437 q 0,-1.04688 -0.5,-1.48438 -0.5,-0.45312 -1.54687,-0.45312 -1.07813,0 -2.64063,0.51562 l -0.4375,-1.25 q 1.82813,-0.67187 3.39063,-0.67187 1.73437,0 2.59375,0.85937 0.85936,0.84375 0.85936,2.40625 z m -4.03124,1.23438 q 1.48438,0 2.3125,-1.53125 v -2.25 h -1.28125 q -2.71875,0 -2.71875,2.01562 0,0.875 0.42188,1.32813 0.4375,0.4375 1.26562,0.4375 z m 12.524,0.60937 q -0.96875,0.67188 -2.20313,0.67188 -1.25,0 -1.95312,-0.71875 -0.6875,-0.71875 -0.6875,-2.07813 v -5.92187 h -1.71875 v -1.32813 h 1.71875 v -2.21875 l 1.70312,-0.20312 v 2.42187 h 2.34375 l -0.1875,1.32813 h -2.15625 v 5.84375 q 0,0.76562 0.26563,1.125 0.28125,0.34375 0.92187,0.34375 0.57813,0 1.29688,-0.39063 z m 8.26049,-1.84375 q 0,0.59375 0.20313,0.89063 0.21875,0.28125 0.625,0.4375 l -0.39063,1.1875 q -0.76562,-0.0937 -1.23437,-0.42188 -0.46875,-0.34375 -0.6875,-1.04687 -1,1.46875 -2.9375,1.46875 -1.45313,0 -2.29688,-0.8125 -0.82812,-0.82813 -0.82812,-2.15625 0,-1.5625 1.125,-2.39063 1.125,-0.84375 3.20312,-0.84375 h 1.5 v -0.73437 q 0,-1.04688 -0.5,-1.48438 -0.5,-0.45312 -1.54687,-0.45312 -1.07813,0 -2.64063,0.51562 l -0.4375,-1.25 q 1.82813,-0.67187 3.39063,-0.67187 1.73437,0 2.59375,0.85937 0.85937,0.84375 0.85937,2.40625 z m -4.03125,1.23438 q 1.48438,0 2.3125,-1.53125 v -2.25 h -1.28125 q -2.71875,0 -2.71875,2.01562 0,0.875 0.42188,1.32813 0.4375,0.4375 1.26562,0.4375 z" />
  <path
     style="fill:#eeeeee;fill-rule:evenodd"
     inkscape:connector-curvature="0"
     id="path81"
     d="m 462.84167,41.43175 h -13.6413 c -1.88348,0 -3.41034,3.58467 -3.41034,8.00656 0,4.42191 1.52686,8.00656 3.41034,8.00656 h 13.6413 v 0 c 1.88348,0 3.41034,-3.58465 3.41034,-8.00656 0,-4.42189 -1.52686,-8.00656 -3.41034,-8.00656 z" />
  <path
     style="fill:#000000;fill-opacity:0;fill-rule:evenodd"
     inkscape:connector-curvature="0"
     id="path83"
     d="m 449.20037,57.44487 c 1.88348,0 3.41034,-3.58466 3.41034,-8.00656 0,-4.42189 -1.52686,-8.00656 -3.41034,-8.00656" />
  <path
     style="fill:#000000;fill-opacity:0;fill-rule:evenodd"
     inkscape:connector-curvature="0"
     id="path85"
     d="m 462.84167,41.43175 h -13.6413 c -1.88348,0 -3.41034,3.58467 -3.41034,8.00656 0,4.42191 1.52686,8.00656 3.41034,8.00656 h 13.6413 v 0 c 1.88348,0 3.41034,-3.58465 3.41034,-8.00656 0,-4.42189 -1.52686,-8.00656 -3.41034,-8.00656 z" />
  <path
     style="fill-rule:evenodd;stroke:#595959;stroke-width:1;stroke-linecap:butt;stroke-linejoin:round"
     inkscape:connector-curvature="0"
     id="path87"
     d="m 449.20037,57.44487 c 1.88348,0 3.41034,-3.58466 3.41034,-8.00656 0,-4.42189 -1.52686,-8.00656 -3.41034,-8.00656" />
  <path
     style="fill-rule:evenodd;stroke:#595959;stroke-width:1;stroke-linecap:butt;stroke-linejoin:round"
     inkscape:connector-curvature="0"
     id="path89"
     d="m 462.84167,41.43175 h -13.6413 c -1.88348,0 -3.41034,3.58467 -3.41034,8.00656 0,4.42191 1.52686,8.00656 3.41034,8.00656 h 13.6413 v 0 c 1.88348,0 3.41034,-3.58465 3.41034,-8.00656 0,-4.42189 -1.52686,-8.00656 -3.41034,-8.00656 z" />
  <path
     style="fill:#eeeeee;fill-rule:evenodd"
     inkscape:connector-curvature="0"
     id="path91"
     d="m 436.13473,41.43175 h 13.6413 c 1.88348,0 3.41034,3.58467 3.41034,8.00656 0,4.42191 -1.52686,8.00656 -3.41034,8.00656 h -13.6413 v 0 c -1.88348,0 -3.41031,-3.58465 -3.41031,-8.00656 0,-4.42189 1.52683,-8.00656 3.41031,-8.00656 z" />
  <path
     style="fill:#000000;fill-opacity:0;fill-rule:evenodd"
     inkscape:connector-curvature="0"
     id="path93"
     d="m 449.77603,57.44487 c -1.88348,0 -3.41034,-3.58466 -3.41034,-8.00656 0,-4.42189 1.52686,-8.00656 3.41034,-8.00656" />
  <path
     style="fill:#000000;fill-opacity:0;fill-rule:evenodd"
     inkscape:connector-curvature="0"
     id="path95"
     d="m 436.13473,41.43175 h 13.6413 c 1.88348,0 3.41034,3.58467 3.41034,8.00656 0,4.42191 -1.52686,8.00656 -3.41034,8.00656 h -13.6413 v 0 c -1.88348,0 -3.41031,-3.58465 -3.41031,-8.00656 0,-4.42189 1.52683,-8.00656 3.41031,-8.00656 z" />
  <path
     style="fill-rule:evenodd;stroke:#595959;stroke-width:1;stroke-linecap:butt;stroke-linejoin:round"
     inkscape:connector-curvature="0"
     id="path97"
     d="m 449.77603,57.44487 c -1.88348,0 -3.41034,-3.58466 -3.41034,-8.00656 0,-4.42189 1.52686,-8.00656 3.41034,-8.00656" />
  <path
     style="fill-rule:evenodd;stroke:#595959;stroke-width:1;stroke-linecap:butt;stroke-linejoin:round"
     inkscape:connector-curvature="0"
     id="path99"
     d="m 436.13473,41.43175 h 13.6413 c 1.88348,0 3.41034,3.58467 3.41034,8.00656 0,4.42191 -1.52686,8.00656 -3.41034,8.00656 h -13.6413 v 0 c -1.88348,0 -3.41031,-3.58465 -3.41031,-8.00656 0,-4.42189 1.52683,-8.00656 3.41031,-8.00656 z" />
  <path
     style="fill:#efefef;fill-rule:evenodd"
     inkscape:connector-curvature="0"
     id="path101"
     d="m 458.27037,41.7874 h -16.12598 v 15.24409 h 16.12598 z" />
  <path
     style="fill:#eeeeee;fill-rule:evenodd"
     inkscape:connector-curvature="0"
     id="path103"
     d="m 462.84167,111.31887 h -13.6413 c -1.88348,0 -3.41034,3.58469 -3.41034,8.00656 0,4.42191 1.52686,8.00656 3.41034,8.00656 h 13.6413 v 0 c 1.88348,0 3.41034,-3.58465 3.41034,-8.00656 0,-4.42187 -1.52686,-8.00656 -3.41034,-8.00656 z" />
  <path
     style="fill:#000000;fill-opacity:0;fill-rule:evenodd"
     inkscape:connector-curvature="0"
     id="path105"
     d="m 449.20037,127.332 c 1.88348,0 3.41034,-3.58466 3.41034,-8.00656 0,-4.42188 -1.52686,-8.00656 -3.41034,-8.00656" />
  <path
     style="fill:#000000;fill-opacity:0;fill-rule:evenodd"
     inkscape:connector-curvature="0"
     id="path107"
     d="m 462.84167,111.31887 h -13.6413 c -1.88348,0 -3.41034,3.58469 -3.41034,8.00656 0,4.42191 1.52686,8.00656 3.41034,8.00656 h 13.6413 v 0 c 1.88348,0 3.41034,-3.58465 3.41034,-8.00656 0,-4.42187 -1.52686,-8.00656 -3.41034,-8.00656 z" />
  <path
     style="fill-rule:evenodd;stroke:#595959;stroke-width:1;stroke-linecap:butt;stroke-linejoin:round"
     inkscape:connector-curvature="0"
     id="path109"
     d="m 449.20037,127.332 c 1.88348,0 3.41034,-3.58466 3.41034,-8.00656 0,-4.42188 -1.52686,-8.00656 -3.41034,-8.00656" />
  <path
     style="fill-rule:evenodd;stroke:#595959;stroke-width:1;stroke-linecap:butt;stroke-linejoin:round"
     inkscape:connector-curvature="0"
     id="path111"
     d="m 462.84167,111.31887 h -13.6413 c -1.88348,0 -3.41034,3.58469 -3.41034,8.00656 0,4.42191 1.52686,8.00656 3.41034,8.00656 h 13.6413 v 0 c 1.88348,0 3.41034,-3.58465 3.41034,-8.00656 0,-4.42187 -1.52686,-8.00656 -3.41034,-8.00656 z" />
  <path
     style="fill:#eeeeee;fill-rule:evenodd"
     inkscape:connector-curvature="0"
     id="path113"
     d="m 436.13473,111.31887 h 13.6413 c 1.88348,0 3.41034,3.58469 3.41034,8.00656 0,4.42191 -1.52686,8.00656 -3.41034,8.00656 h -13.6413 v 0 c -1.88348,0 -3.41031,-3.58465 -3.41031,-8.00656 0,-4.42187 1.52683,-8.00656 3.41031,-8.00656 z" />
  <path
     style="fill:#000000;fill-opacity:0;fill-rule:evenodd"
     inkscape:connector-curvature="0"
     id="path115"
     d="m 449.77603,127.332 c -1.88348,0 -3.41034,-3.58466 -3.41034,-8.00656 0,-4.42188 1.52686,-8.00656 3.41034,-8.00656" />
  <path
     style="fill:#000000;fill-opacity:0;fill-rule:evenodd"
     inkscape:connector-curvature="0"
     id="path117"
     d="m 436.13473,111.31887 h 13.6413 c 1.88348,0 3.41034,3.58469 3.41034,8.00656 0,4.42191 -1.52686,8.00656 -3.41034,8.00656 h -13.6413 v 0 c -1.88348,0 -3.41031,-3.58465 -3.41031,-8.00656 0,-4.42187 1.52683,-8.00656 3.41031,-8.00656 z" />
  <path
     style="fill-rule:evenodd;stroke:#595959;stroke-width:1;stroke-linecap:butt;stroke-linejoin:round"
     inkscape:connector-curvature="0"
     id="path119"
     d="m 449.77603,127.332 c -1.88348,0 -3.41034,-3.58466 -3.41034,-8.00656 0,-4.42188 1.52686,-8.00656 3.41034,-8.00656" />
  <path
     style="fill-rule:evenodd;stroke:#595959;stroke-width:1;stroke-linecap:butt;stroke-linejoin:round"
     inkscape:connector-curvature="0"
     id="path121"
     d="m 436.13473,111.31887 h 13.6413 c 1.88348,0 3.41034,3.58469 3.41034,8.00656 0,4.42191 -1.52686,8.00656 -3.41034,8.00656 h -13.6413 v 0 c -1.88348,0 -3.41031,-3.58465 -3.41031,-8.00656 0,-4.42187 1.52683,-8.00656 3.41031,-8.00656 z" />
  <path
     style="fill:#efefef;fill-rule:evenodd"
     inkscape:connector-curvature="0"
     id="path123"
     d="m 458.27037,111.67453 h -16.12598 v 15.24411 h 16.12598 z" />
  <path
     style="fill:#eeeeee;fill-rule:evenodd"
     inkscape:connector-curvature="0"
     id="path125"
     d="m 462.84167,181.20602 h -13.6413 c -1.88348,0 -3.41034,3.58466 -3.41034,8.00656 0,4.42191 1.52686,8.00656 3.41034,8.00656 h 13.6413 v 0 c 1.88348,0 3.41034,-3.58465 3.41034,-8.00656 0,-4.4219 -1.52686,-8.00656 -3.41034,-8.00656 z" />
  <path
     style="fill:#000000;fill-opacity:0;fill-rule:evenodd"
     inkscape:connector-curvature="0"
     id="path127"
     d="m 449.20037,197.21914 c 1.88348,0 3.41034,-3.58466 3.41034,-8.00656 0,-4.42191 -1.52686,-8.00656 -3.41034,-8.00656" />
  <path
     style="fill:#000000;fill-opacity:0;fill-rule:evenodd"
     inkscape:connector-curvature="0"
     id="path129"
     d="m 462.84167,181.20602 h -13.6413 c -1.88348,0 -3.41034,3.58466 -3.41034,8.00656 0,4.42191 1.52686,8.00656 3.41034,8.00656 h 13.6413 v 0 c 1.88348,0 3.41034,-3.58465 3.41034,-8.00656 0,-4.4219 -1.52686,-8.00656 -3.41034,-8.00656 z" />
  <path
     style="fill-rule:evenodd;stroke:#595959;stroke-width:1;stroke-linecap:butt;stroke-linejoin:round"
     inkscape:connector-curvature="0"
     id="path131"
     d="m 449.20037,197.21914 c 1.88348,0 3.41034,-3.58466 3.41034,-8.00656 0,-4.42191 -1.52686,-8.00656 -3.41034,-8.00656" />
  <path
     style="fill-rule:evenodd;stroke:#595959;stroke-width:1;stroke-linecap:butt;stroke-linejoin:round"
     inkscape:connector-curvature="0"
     id="path133"
     d="m 462.84167,181.20602 h -13.6413 c -1.88348,0 -3.41034,3.58466 -3.41034,8.00656 0,4.42191 1.52686,8.00656 3.41034,8.00656 h 13.6413 v 0 c 1.88348,0 3.41034,-3.58465 3.41034,-8.00656 0,-4.4219 -1.52686,-8.00656 -3.41034,-8.00656 z" />
  <path
     style="fill:#eeeeee;fill-rule:evenodd"
     inkscape:connector-curvature="0"
     id="path135"
     d="m 436.13473,181.20602 h 13.6413 c 1.88348,0 3.41034,3.58466 3.41034,8.00656 0,4.42191 -1.52686,8.00656 -3.41034,8.00656 h -13.6413 v 0 c -1.88348,0 -3.41031,-3.58465 -3.41031,-8.00656 0,-4.4219 1.52683,-8.00656 3.41031,-8.00656 z" />
  <path
     style="fill:#000000;fill-opacity:0;fill-rule:evenodd"
     inkscape:connector-curvature="0"
     id="path137"
     d="m 449.77603,197.21914 c -1.88348,0 -3.41034,-3.58466 -3.41034,-8.00656 0,-4.42191 1.52686,-8.00656 3.41034,-8.00656" />
  <path
     style="fill:#000000;fill-opacity:0;fill-rule:evenodd"
     inkscape:connector-curvature="0"
     id="path139"
     d="m 436.13473,181.20602 h 13.6413 c 1.88348,0 3.41034,3.58466 3.41034,8.00656 0,4.42191 -1.52686,8.00656 -3.41034,8.00656 h -13.6413 v 0 c -1.88348,0 -3.41031,-3.58465 -3.41031,-8.00656 0,-4.4219 1.52683,-8.00656 3.41031,-8.00656 z" />
  <path
     style="fill-rule:evenodd;stroke:#595959;stroke-width:1;stroke-linecap:butt;stroke-linejoin:round"
     inkscape:connector-curvature="0"
     id="path141"
     d="m 449.77603,197.21914 c -1.88348,0 -3.41034,-3.58466 -3.41034,-8.00656 0,-4.42191 1.52686,-8.00656 3.41034,-8.00656" />
  <path
     style="fill-rule:evenodd;stroke:#595959;stroke-width:1;stroke-linecap:butt;stroke-linejoin:round"
     inkscape:connector-curvature="0"
     id="path143"
     d="m 436.13473,181.20602 h 13.6413 c 1.88348,0 3.41034,3.58466 3.41034,8.00656 0,4.42191 -1.52686,8.00656 -3.41034,8.00656 h -13.6413 v 0 c -1.88348,0 -3.41031,-3.58465 -3.41031,-8.00656 0,-4.4219 1.52683,-8.00656 3.41031,-8.00656 z" />
  <path
     style="fill:#efefef;fill-rule:evenodd"
     inkscape:connector-curvature="0"
     id="path145"
     d="m 458.27037,181.56167 h -16.12598 v 15.24408 h 16.12598 z" />
  <path
     style="fill:#eeeeee;fill-rule:evenodd"
     inkscape:connector-curvature="0"
     id="path147"
     d="m 330.40069,181.20602 h -13.6413 c -1.88345,0 -3.4103,3.58466 -3.4103,8.00656 0,4.42191 1.52685,8.00656 3.4103,8.00656 h 13.6413 v 0 c 1.88348,0 3.41034,-3.58465 3.41034,-8.00656 0,-4.4219 -1.52686,-8.00656 -3.41034,-8.00656 z" />
  <path
     style="fill:#000000;fill-opacity:0;fill-rule:evenodd"
     inkscape:connector-curvature="0"
     id="path149"
     d="m 316.7594,197.21914 c 1.88348,0 3.41034,-3.58466 3.41034,-8.00656 0,-4.42191 -1.52686,-8.00656 -3.41034,-8.00656" />
  <path
     style="fill:#000000;fill-opacity:0;fill-rule:evenodd"
     inkscape:connector-curvature="0"
     id="path151"
     d="m 330.40069,181.20602 h -13.6413 c -1.88345,0 -3.4103,3.58466 -3.4103,8.00656 0,4.42191 1.52685,8.00656 3.4103,8.00656 h 13.6413 v 0 c 1.88348,0 3.41034,-3.58465 3.41034,-8.00656 0,-4.4219 -1.52686,-8.00656 -3.41034,-8.00656 z" />
  <path
     style="fill-rule:evenodd;stroke:#595959;stroke-width:1;stroke-linecap:butt;stroke-linejoin:round"
     inkscape:connector-curvature="0"
     id="path153"
     d="m 316.7594,197.21914 c 1.88348,0 3.41034,-3.58466 3.41034,-8.00656 0,-4.42191 -1.52686,-8.00656 -3.41034,-8.00656" />
  <path
     style="fill-rule:evenodd;stroke:#595959;stroke-width:1;stroke-linecap:butt;stroke-linejoin:round"
     inkscape:connector-curvature="0"
     id="path155"
     d="m 330.40069,181.20602 h -13.6413 c -1.88345,0 -3.4103,3.58466 -3.4103,8.00656 0,4.42191 1.52685,8.00656 3.4103,8.00656 h 13.6413 v 0 c 1.88348,0 3.41034,-3.58465 3.41034,-8.00656 0,-4.4219 -1.52686,-8.00656 -3.41034,-8.00656 z" />
  <path
     style="fill:#eeeeee;fill-rule:evenodd"
     inkscape:connector-curvature="0"
     id="path157"
     d="m 303.69379,181.20602 h 13.6413 c 1.88348,0 3.41034,3.58466 3.41034,8.00656 0,4.42191 -1.52686,8.00656 -3.41034,8.00656 h -13.6413 v 0 c -1.88345,0 -3.41031,-3.58465 -3.41031,-8.00656 0,-4.4219 1.52686,-8.00656 3.41031,-8.00656 z" />
  <path
     style="fill:#000000;fill-opacity:0;fill-rule:evenodd"
     inkscape:connector-curvature="0"
     id="path159"
     d="m 317.33507,197.21914 c -1.88345,0 -3.41031,-3.58466 -3.41031,-8.00656 0,-4.42191 1.52686,-8.00656 3.41031,-8.00656" />
  <path
     style="fill:#000000;fill-opacity:0;fill-rule:evenodd"
     inkscape:connector-curvature="0"
     id="path161"
     d="m 303.69379,181.20602 h 13.6413 c 1.88348,0 3.41034,3.58466 3.41034,8.00656 0,4.42191 -1.52686,8.00656 -3.41034,8.00656 h -13.6413 v 0 c -1.88345,0 -3.41031,-3.58465 -3.41031,-8.00656 0,-4.4219 1.52686,-8.00656 3.41031,-8.00656 z" />
  <path
     style="fill-rule:evenodd;stroke:#595959;stroke-width:1;stroke-linecap:butt;stroke-linejoin:round"
     inkscape:connector-curvature="0"
     id="path163"
     d="m 317.33507,197.21914 c -1.88345,0 -3.41031,-3.58466 -3.41031,-8.00656 0,-4.42191 1.52686,-8.00656 3.41031,-8.00656" />
  <path
     style="fill-rule:evenodd;stroke:#595959;stroke-width:1;stroke-linecap:butt;stroke-linejoin:round"
     inkscape:connector-curvature="0"
     id="path165"
     d="m 303.69379,181.20602 h 13.6413 c 1.88348,0 3.41034,3.58466 3.41034,8.00656 0,4.42191 -1.52686,8.00656 -3.41034,8.00656 h -13.6413 v 0 c -1.88345,0 -3.41031,-3.58465 -3.41031,-8.00656 0,-4.4219 1.52686,-8.00656 3.41031,-8.00656 z" />
  <path
     style="fill:#efefef;fill-rule:evenodd"
     inkscape:connector-curvature="0"
     id="path167"
     d="M 325.82941,181.56167 H 309.7034 v 15.24408 h 16.12601 z" />
  <path
     style="fill:#eeeeee;fill-rule:evenodd"
     inkscape:connector-curvature="0"
     id="path169"
     d="m 328.98993,111.31887 h -13.6413 c -1.88345,0 -3.4103,3.58469 -3.4103,8.00656 0,4.42191 1.52685,8.00656 3.4103,8.00656 h 13.6413 v 0 c 1.88348,0 3.41034,-3.58465 3.41034,-8.00656 0,-4.42187 -1.52686,-8.00656 -3.41034,-8.00656 z" />
  <path
     style="fill:#000000;fill-opacity:0;fill-rule:evenodd"
     inkscape:connector-curvature="0"
     id="path171"
     d="m 315.34863,127.332 c 1.88348,0 3.41034,-3.58466 3.41034,-8.00656 0,-4.42188 -1.52686,-8.00656 -3.41034,-8.00656" />
  <path
     style="fill:#000000;fill-opacity:0;fill-rule:evenodd"
     inkscape:connector-curvature="0"
     id="path173"
     d="m 328.98993,111.31887 h -13.6413 c -1.88345,0 -3.4103,3.58469 -3.4103,8.00656 0,4.42191 1.52685,8.00656 3.4103,8.00656 h 13.6413 v 0 c 1.88348,0 3.41034,-3.58465 3.41034,-8.00656 0,-4.42187 -1.52686,-8.00656 -3.41034,-8.00656 z" />
  <path
     style="fill-rule:evenodd;stroke:#595959;stroke-width:1;stroke-linecap:butt;stroke-linejoin:round"
     inkscape:connector-curvature="0"
     id="path175"
     d="m 315.34863,127.332 c 1.88348,0 3.41034,-3.58466 3.41034,-8.00656 0,-4.42188 -1.52686,-8.00656 -3.41034,-8.00656" />
  <path
     style="fill-rule:evenodd;stroke:#595959;stroke-width:1;stroke-linecap:butt;stroke-linejoin:round"
     inkscape:connector-curvature="0"
     id="path177"
     d="m 328.98993,111.31887 h -13.6413 c -1.88345,0 -3.4103,3.58469 -3.4103,8.00656 0,4.42191 1.52685,8.00656 3.4103,8.00656 h 13.6413 v 0 c 1.88348,0 3.41034,-3.58465 3.41034,-8.00656 0,-4.42187 -1.52686,-8.00656 -3.41034,-8.00656 z" />
  <path
     style="fill:#eeeeee;fill-rule:evenodd"
     inkscape:connector-curvature="0"
     id="path179"
     d="m 302.28302,111.31887 h 13.6413 c 1.88348,0 3.41034,3.58469 3.41034,8.00656 0,4.42191 -1.52686,8.00656 -3.41034,8.00656 h -13.6413 v 0 c -1.88345,0 -3.41031,-3.58465 -3.41031,-8.00656 0,-4.42187 1.52686,-8.00656 3.41031,-8.00656 z" />
  <path
     style="fill:#000000;fill-opacity:0;fill-rule:evenodd"
     inkscape:connector-curvature="0"
     id="path181"
     d="m 315.92432,127.332 c -1.88345,0 -3.41031,-3.58466 -3.41031,-8.00656 0,-4.42188 1.52686,-8.00656 3.41031,-8.00656" />
  <path
     style="fill:#000000;fill-opacity:0;fill-rule:evenodd"
     inkscape:connector-curvature="0"
     id="path183"
     d="m 302.28302,111.31887 h 13.6413 c 1.88348,0 3.41034,3.58469 3.41034,8.00656 0,4.42191 -1.52686,8.00656 -3.41034,8.00656 h -13.6413 v 0 c -1.88345,0 -3.41031,-3.58465 -3.41031,-8.00656 0,-4.42187 1.52686,-8.00656 3.41031,-8.00656 z" />
  <path
     style="fill-rule:evenodd;stroke:#595959;stroke-width:1;stroke-linecap:butt;stroke-linejoin:round"
     inkscape:connector-curvature="0"
     id="path185"
     d="m 315.92432,127.332 c -1.88345,0 -3.41031,-3.58466 -3.41031,-8.00656 0,-4.42188 1.52686,-8.00656 3.41031,-8.00656" />
  <path
     style="fill-rule:evenodd;stroke:#595959;stroke-width:1;stroke-linecap:butt;stroke-linejoin:round"
     inkscape:connector-curvature="0"
     id="path187"
     d="m 302.28302,111.31887 h 13.6413 c 1.88348,0 3.41034,3.58469 3.41034,8.00656 0,4.42191 -1.52686,8.00656 -3.41034,8.00656 h -13.6413 v 0 c -1.88345,0 -3.41031,-3.58465 -3.41031,-8.00656 0,-4.42187 1.52686,-8.00656 3.41031,-8.00656 z" />
  <path
     style="fill:#efefef;fill-rule:evenodd"
     inkscape:connector-curvature="0"
     id="path189"
     d="m 324.41864,111.67453 h -16.12598 v 15.24411 h 16.12598 z" />
  <path
     style="fill:#eeeeee;fill-rule:evenodd"
     inkscape:connector-curvature="0"
     id="path191"
     d="m 330.40069,41.43175 h -13.6413 c -1.88345,0 -3.4103,3.58467 -3.4103,8.00656 0,4.42191 1.52685,8.00656 3.4103,8.00656 h 13.6413 v 0 c 1.88348,0 3.41034,-3.58465 3.41034,-8.00656 0,-4.42189 -1.52686,-8.00656 -3.41034,-8.00656 z" />
  <path
     style="fill:#000000;fill-opacity:0;fill-rule:evenodd"
     inkscape:connector-curvature="0"
     id="path193"
     d="m 316.7594,57.44487 c 1.88348,0 3.41034,-3.58466 3.41034,-8.00656 0,-4.42189 -1.52686,-8.00656 -3.41034,-8.00656" />
  <path
     style="fill:#000000;fill-opacity:0;fill-rule:evenodd"
     inkscape:connector-curvature="0"
     id="path195"
     d="m 330.40069,41.43175 h -13.6413 c -1.88345,0 -3.4103,3.58467 -3.4103,8.00656 0,4.42191 1.52685,8.00656 3.4103,8.00656 h 13.6413 v 0 c 1.88348,0 3.41034,-3.58465 3.41034,-8.00656 0,-4.42189 -1.52686,-8.00656 -3.41034,-8.00656 z" />
  <path
     style="fill-rule:evenodd;stroke:#595959;stroke-width:1;stroke-linecap:butt;stroke-linejoin:round"
     inkscape:connector-curvature="0"
     id="path197"
     d="m 316.7594,57.44487 c 1.88348,0 3.41034,-3.58466 3.41034,-8.00656 0,-4.42189 -1.52686,-8.00656 -3.41034,-8.00656" />
  <path
     style="fill-rule:evenodd;stroke:#595959;stroke-width:1;stroke-linecap:butt;stroke-linejoin:round"
     inkscape:connector-curvature="0"
     id="path199"
     d="m 330.40069,41.43175 h -13.6413 c -1.88345,0 -3.4103,3.58467 -3.4103,8.00656 0,4.42191 1.52685,8.00656 3.4103,8.00656 h 13.6413 v 0 c 1.88348,0 3.41034,-3.58465 3.41034,-8.00656 0,-4.42189 -1.52686,-8.00656 -3.41034,-8.00656 z" />
  <path
     style="fill:#eeeeee;fill-rule:evenodd"
     inkscape:connector-curvature="0"
     id="path201"
     d="m 303.69379,41.43175 h 13.6413 c 1.88348,0 3.41034,3.58467 3.41034,8.00656 0,4.42191 -1.52686,8.00656 -3.41034,8.00656 h -13.6413 v 0 c -1.88345,0 -3.41031,-3.58465 -3.41031,-8.00656 0,-4.42189 1.52686,-8.00656 3.41031,-8.00656 z" />
  <path
     style="fill:#000000;fill-opacity:0;fill-rule:evenodd"
     inkscape:connector-curvature="0"
     id="path203"
     d="m 317.33507,57.44487 c -1.88345,0 -3.41031,-3.58466 -3.41031,-8.00656 0,-4.42189 1.52686,-8.00656 3.41031,-8.00656" />
  <path
     style="fill:#000000;fill-opacity:0;fill-rule:evenodd"
     inkscape:connector-curvature="0"
     id="path205"
     d="m 303.69379,41.43175 h 13.6413 c 1.88348,0 3.41034,3.58467 3.41034,8.00656 0,4.42191 -1.52686,8.00656 -3.41034,8.00656 h -13.6413 v 0 c -1.88345,0 -3.41031,-3.58465 -3.41031,-8.00656 0,-4.42189 1.52686,-8.00656 3.41031,-8.00656 z" />
  <path
     style="fill-rule:evenodd;stroke:#595959;stroke-width:1;stroke-linecap:butt;stroke-linejoin:round"
     inkscape:connector-curvature="0"
     id="path207"
     d="m 317.33507,57.44487 c -1.88345,0 -3.41031,-3.58466 -3.41031,-8.00656 0,-4.42189 1.52686,-8.00656 3.41031,-8.00656" />
  <path
     style="fill-rule:evenodd;stroke:#595959;stroke-width:1;stroke-linecap:butt;stroke-linejoin:round"
     inkscape:connector-curvature="0"
     id="path209"
     d="m 303.69379,41.43175 h 13.6413 c 1.88348,0 3.41034,3.58467 3.41034,8.00656 0,4.42191 -1.52686,8.00656 -3.41034,8.00656 h -13.6413 v 0 c -1.88345,0 -3.41031,-3.58465 -3.41031,-8.00656 0,-4.42189 1.52686,-8.00656 3.41031,-8.00656 z" />
  <path
     style="fill:#efefef;fill-rule:evenodd"
     inkscape:connector-curvature="0"
     id="path211"
     d="M 325.82941,41.7874 H 309.7034 v 15.24409 h 16.12601 z" />
  <path
     style="fill:#9fc5e8;fill-rule:evenodd"
     inkscape:connector-curvature="0"
     id="path213"
     d="m 110.85736,156.34729 35.1467,19.10773 -3,5.51181 17.02653,-5.02899 -5.02653,-17.01828 -3,5.51181 -35.1467,-19.1077 z" />
  <path
     style="fill-rule:evenodd;stroke:#595959;stroke-width:1;stroke-linecap:butt;stroke-linejoin:round"
     inkscape:connector-curvature="0"
     id="path215"
     d="m 110.85736,156.34729 35.1467,19.10773 -3,5.51181 17.02653,-5.02899 -5.02653,-17.01828 -3,5.51181 -35.1467,-19.1077 z" />
</svg>
