<?xml version="1.0" encoding="UTF-8" standalone="no"?>
<svg
   xmlns:dc="http://purl.org/dc/elements/1.1/"
   xmlns:cc="http://creativecommons.org/ns#"
   xmlns:rdf="http://www.w3.org/1999/02/22-rdf-syntax-ns#"
   xmlns:svg="http://www.w3.org/2000/svg"
   xmlns="http://www.w3.org/2000/svg"
   xmlns:sodipodi="http://sodipodi.sourceforge.net/DTD/sodipodi-0.dtd"
   xmlns:inkscape="http://www.inkscape.org/namespaces/inkscape"
   version="1.1"
   viewBox="0 0 524.17322 146.85039"
   stroke-miterlimit="10"
   id="svg275"
   sodipodi:docname="mlr3Pipelines graphics user 2019.svg"
   width="524.17322"
   height="146.85039"
   style="fill:none;stroke:none;stroke-linecap:square;stroke-miterlimit:10"
   inkscape:version="0.92.4 5da689c313, 2019-01-14">
  <metadata
     id="metadata281">
    <rdf:RDF>
      <cc:Work
         rdf:about="">
        <dc:format>image/svg+xml</dc:format>
        <dc:type
           rdf:resource="http://purl.org/dc/dcmitype/StillImage" />
        <dc:title></dc:title>
      </cc:Work>
    </rdf:RDF>
  </metadata>
  <defs
     id="defs279" />
  <sodipodi:namedview
     pagecolor="#ffffff"
     bordercolor="#666666"
     borderopacity="1"
     objecttolerance="10"
     gridtolerance="10"
     guidetolerance="10"
     inkscape:pageopacity="0"
     inkscape:pageshadow="2"
     inkscape:window-width="2560"
     inkscape:window-height="1381"
     id="namedview277"
     showgrid="false"
     fit-margin-top="0"
     fit-margin-left="0"
     fit-margin-right="0"
     fit-margin-bottom="0"
     inkscape:zoom="0.79375"
     inkscape:cx="89.410016"
     inkscape:cy="-80.845538"
     inkscape:window-x="0"
     inkscape:window-y="0"
     inkscape:window-maximized="1"
     inkscape:current-layer="svg275" />
  <clipPath
     id="g708d2af702_0_0.0">
    <path
       d="M 0,0 H 960 V 540 H 0 Z"
       id="path2"
       inkscape:connector-curvature="0"
       style="clip-rule:nonzero" />
  </clipPath>
  <path
     style="fill:#000000;fill-opacity:0;fill-rule:evenodd"
     inkscape:connector-curvature="0"
     id="path5"
     d="m -252.87138,-162.17061 h 960 v 540 h -960 z" />
  <path
     style="fill:#f3f3f3;fill-rule:evenodd"
     inkscape:connector-curvature="0"
     id="path7"
     d="m 1,25.14221 v 0 C 1,11.80884 11.80885,1 25.14223,1 h 473.8888 c 6.40289,0 12.54358,2.54355 17.0711,7.07109 4.52759,4.52754 7.07111,10.66821 7.07111,17.07112 v 96.56596 c 0,13.33337 -10.80884,24.14221 -24.14221,24.14221 H 25.14223 C 11.80885,145.85038 1,135.04154 1,121.70817 Z" />
  <path
     style="fill-rule:evenodd;stroke:#000000;stroke-width:2;stroke-linecap:butt;stroke-linejoin:round"
     inkscape:connector-curvature="0"
     id="path9"
     d="m 1,25.14221 v 0 C 1,11.80884 11.80885,1 25.14223,1 h 473.8888 c 6.40289,0 12.54358,2.54355 17.0711,7.07109 4.52759,4.52754 7.07111,10.66821 7.07111,17.07112 v 96.56596 c 0,13.33337 -10.80884,24.14221 -24.14221,24.14221 H 25.14223 C 11.80885,145.85038 1,135.04154 1,121.70817 Z" />
  <path
     style="fill:#d0e0e3;fill-rule:evenodd"
     inkscape:connector-curvature="0"
     id="path11"
     d="m 113.59672,22.81579 v 0 c 0,-4.45026 3.60767,-8.05791 8.05792,-8.05791 h 92.04166 c 2.13709,0 4.18665,0.84896 5.69782,2.36011 1.51114,1.51115 2.36007,3.5607 2.36007,5.6978 v 32.23065 c 0,4.45026 -3.60763,8.05789 -8.05789,8.05789 h -92.04166 c -4.45025,0 -8.05792,-3.60763 -8.05792,-8.05789 z" />
  <path
     style="fill-rule:evenodd;stroke:#000000;stroke-width:2;stroke-linecap:butt;stroke-linejoin:round"
     inkscape:connector-curvature="0"
     id="path13"
     d="m 113.59672,22.81579 v 0 c 0,-4.45026 3.60767,-8.05791 8.05792,-8.05791 h 92.04166 c 2.13709,0 4.18665,0.84896 5.69782,2.36011 1.51114,1.51115 2.36007,3.5607 2.36007,5.6978 v 32.23065 c 0,4.45026 -3.60763,8.05789 -8.05789,8.05789 h -92.04166 c -4.45025,0 -8.05792,-3.60763 -8.05792,-8.05789 z" />
  <path
     style="fill:#000000;fill-rule:nonzero"
     inkscape:connector-curvature="0"
     id="path15"
     d="m 139.40465,33.90111 q 1.0625,0 1.8125,0.3125 0.75,0.29687 1.45312,0.92187 l -0.79687,0.89063 q -0.59375,-0.48438 -1.17188,-0.70313 -0.57812,-0.21875 -1.23437,-0.21875 -0.82813,0 -1.375,0.39063 -0.53125,0.375 -0.53125,1.10937 0,0.45313 0.1875,0.78125 0.1875,0.3125 0.67187,0.57813 0.5,0.25 1.45313,0.54687 1,0.29688 1.65625,0.65625 0.65625,0.34375 1.0625,0.96875 0.40625,0.625 0.40625,1.57813 0,0.92187 -0.45313,1.625 -0.4375,0.70312 -1.29687,1.10937 -0.84375,0.39063 -2.01563,0.39063 -2.1875,0 -3.57812,-1.375 l 0.79687,-0.875 q 0.64063,0.51562 1.29688,0.78125 0.65625,0.26562 1.46875,0.26562 0.98437,0 1.625,-0.48437 0.64062,-0.48438 0.64062,-1.39063 0,-0.53125 -0.20312,-0.875 -0.1875,-0.34375 -0.67188,-0.60937 -0.48437,-0.28125 -1.40625,-0.5625 -1.625,-0.48438 -2.375,-1.17188 -0.75,-0.70312 -0.75,-1.875 0,-0.79687 0.42188,-1.42187 0.42187,-0.64063 1.17187,-0.98438 0.76563,-0.35937 1.73438,-0.35937 z m 11.77573,6.46875 q 0,0.35937 -0.0312,0.71875 h -5.15625 q 0.0937,1.34375 0.67187,1.96875 0.57813,0.625 1.5,0.625 0.59375,0 1.07813,-0.15625 0.48437,-0.17188 1.03125,-0.54688 l 0.60937,0.84375 q -1.28125,1.01563 -2.82812,1.01563 -1.67188,0 -2.625,-1.09375 -0.9375,-1.10938 -0.9375,-3.04688 0,-1.26562 0.40625,-2.23437 0.40625,-0.96875 1.15625,-1.51563 0.76562,-0.5625 1.79687,-0.5625 1.60938,0 2.46875,1.0625 0.85938,1.0625 0.85938,2.92188 z m -1.40625,-0.40625 q 0,-1.20313 -0.46875,-1.82813 -0.46875,-0.625 -1.42188,-0.625 -1.73437,0 -1.89062,2.54688 h 3.78125 z m 5.2601,4.875 q -0.78125,0 -1.23438,-0.46875 -0.45312,-0.46875 -0.45312,-1.3125 v -9.73438 l 1.42187,-0.17187 v 9.875 q 0,0.34375 0.10938,0.5 0.10937,0.14062 0.39062,0.14062 0.29688,0 0.51563,-0.0937 l 0.375,0.98438 q -0.51563,0.28125 -1.125,0.28125 z m 8.91449,-4.46875 q 0,0.35937 -0.0312,0.71875 h -5.15625 q 0.0937,1.34375 0.67187,1.96875 0.57813,0.625 1.5,0.625 0.59375,0 1.07813,-0.15625 0.48437,-0.17188 1.03125,-0.54688 l 0.60937,0.84375 q -1.28125,1.01563 -2.82812,1.01563 -1.67188,0 -2.625,-1.09375 -0.9375,-1.10938 -0.9375,-3.04688 0,-1.26562 0.40625,-2.23437 0.40625,-0.96875 1.15625,-1.51563 0.76562,-0.5625 1.79687,-0.5625 1.60938,0 2.46875,1.0625 0.85938,1.0625 0.85938,2.92188 z m -1.40625,-0.40625 q 0,-1.20313 -0.46875,-1.82813 -0.46875,-0.625 -1.42188,-0.625 -1.73437,0 -1.89062,2.54688 h 3.78125 z m 6.60385,-3.57813 q 0.71875,0 1.3125,0.21875 0.59375,0.20313 1.14062,0.65625 l -0.67187,0.89063 q -0.42188,-0.3125 -0.82813,-0.45313 -0.40625,-0.14062 -0.90625,-0.14062 -0.96875,0 -1.51562,0.78125 -0.54688,0.78125 -0.54688,2.3125 0,1.53125 0.53125,2.26562 0.54688,0.71875 1.53125,0.71875 0.48438,0 0.875,-0.14062 0.40625,-0.14063 0.89063,-0.46875 l 0.64062,0.92187 q -1.09375,0.89063 -2.45312,0.89063 -1.64063,0 -2.59375,-1.09375 -0.9375,-1.10938 -0.9375,-3.0625 0,-1.28125 0.42187,-2.25 0.4375,-0.96875 1.21875,-1.5 0.79688,-0.54688 1.89063,-0.54688 z m 8.45187,7.89063 q -0.79687,0.5625 -1.8125,0.5625 -1.01562,0 -1.59375,-0.59375 -0.57812,-0.59375 -0.57812,-1.70313 v -4.875 h -1.40625 v -1.09375 h 1.40625 v -1.82812 l 1.40625,-0.17188 v 2 h 1.92187 l -0.15625,1.09375 h -1.76562 v 4.8125 q 0,0.625 0.21875,0.90625 0.23437,0.28125 0.75,0.28125 0.48437,0 1.07812,-0.3125 z m 8.23606,-12.125 v 1.17187 h -1.84375 v 11.9375 h 1.84375 v 1.17188 h -3.17188 V 32.15111 Z m 5.88616,6.79687 3.21875,5.70313 h -1.65625 l -2.4375,-4.67188 -2.46875,4.67188 h -1.5625 l 3.17188,-5.625 -2.89063,-4.9375 h 1.65625 l 2.125,3.96875 2.14063,-3.96875 h 1.5625 z m 7.36832,-6.79687 v 14.28125 h -3.17187 v -1.17188 h 1.84375 v -11.9375 h -1.84375 v -1.17187 z" />
  <path
     style="fill:#d0e0e3;fill-rule:evenodd"
     inkscape:connector-curvature="0"
     id="path17"
     d="m 113.59672,92.70293 v 0 c 0,-4.45026 3.60767,-8.05791 8.05792,-8.05791 h 92.04166 c 2.13709,0 4.18665,0.84897 5.69782,2.36011 1.51114,1.51115 2.36007,3.56072 2.36007,5.6978 v 32.23065 c 0,4.45026 -3.60763,8.05789 -8.05789,8.05789 h -92.04166 c -4.45025,0 -8.05792,-3.60763 -8.05792,-8.05789 z" />
  <path
     style="fill-rule:evenodd;stroke:#000000;stroke-width:2;stroke-linecap:butt;stroke-linejoin:round"
     inkscape:connector-curvature="0"
     id="path19"
     d="m 113.59672,92.70293 v 0 c 0,-4.45026 3.60767,-8.05791 8.05792,-8.05791 h 92.04166 c 2.13709,0 4.18665,0.84897 5.69782,2.36011 1.51114,1.51115 2.36007,3.56072 2.36007,5.6978 v 32.23065 c 0,4.45026 -3.60763,8.05789 -8.05789,8.05789 h -92.04166 c -4.45025,0 -8.05792,-3.60763 -8.05792,-8.05789 z" />
  <path
     style="fill:#000000;fill-rule:nonzero"
     inkscape:connector-curvature="0"
     id="path21"
     d="m 135.71062,103.78825 q 1.0625,0 1.8125,0.3125 0.75,0.29688 1.45312,0.92188 l -0.79687,0.89062 q -0.59375,-0.48437 -1.17188,-0.70312 -0.57812,-0.21875 -1.23437,-0.21875 -0.82813,0 -1.375,0.39062 -0.53125,0.375 -0.53125,1.10938 0,0.45312 0.1875,0.78125 0.1875,0.3125 0.67187,0.57812 0.5,0.25 1.45313,0.54688 1,0.29687 1.65625,0.65625 0.65625,0.34375 1.0625,0.96875 0.40625,0.625 0.40625,1.57812 0,0.92188 -0.45313,1.625 -0.4375,0.70313 -1.29687,1.10938 -0.84375,0.39062 -2.01563,0.39062 -2.1875,0 -3.57812,-1.375 l 0.79687,-0.875 q 0.64063,0.51563 1.29688,0.78125 0.65625,0.26563 1.46875,0.26563 0.98437,0 1.625,-0.48438 0.64062,-0.48437 0.64062,-1.39062 0,-0.53125 -0.20312,-0.875 -0.1875,-0.34375 -0.67188,-0.60938 -0.48437,-0.28125 -1.40625,-0.5625 -1.625,-0.48437 -2.375,-1.17187 -0.75,-0.70313 -0.75,-1.875 0,-0.79688 0.42188,-1.42188 0.42187,-0.64062 1.17187,-0.98437 0.76563,-0.35938 1.73438,-0.35938 z m 11.77573,6.46875 q 0,0.35938 -0.0312,0.71875 h -5.15625 q 0.0937,1.34375 0.67187,1.96875 0.57813,0.625 1.5,0.625 0.59375,0 1.07813,-0.15625 0.48437,-0.17187 1.03125,-0.54687 l 0.60937,0.84375 q -1.28125,1.01562 -2.82812,1.01562 -1.67188,0 -2.625,-1.09375 -0.9375,-1.10937 -0.9375,-3.04687 0,-1.26563 0.40625,-2.23438 0.40625,-0.96875 1.15625,-1.51562 0.76562,-0.5625 1.79687,-0.5625 1.60938,0 2.46875,1.0625 0.85938,1.0625 0.85938,2.92187 z m -1.40625,-0.40625 q 0,-1.20312 -0.46875,-1.82812 -0.46875,-0.625 -1.42188,-0.625 -1.73437,0 -1.89062,2.54687 h 3.78125 z m 5.2601,4.875 q -0.78125,0 -1.23438,-0.46875 -0.45312,-0.46875 -0.45312,-1.3125 v -9.73437 l 1.42187,-0.17188 v 9.875 q 0,0.34375 0.10938,0.5 0.10937,0.14063 0.39062,0.14063 0.29688,0 0.51563,-0.0937 l 0.375,0.98437 q -0.51563,0.28125 -1.125,0.28125 z m 8.91449,-4.46875 q 0,0.35938 -0.0312,0.71875 h -5.15625 q 0.0937,1.34375 0.67187,1.96875 0.57813,0.625 1.5,0.625 0.59375,0 1.07813,-0.15625 0.48437,-0.17187 1.03125,-0.54687 l 0.60937,0.84375 q -1.28125,1.01562 -2.82812,1.01562 -1.67188,0 -2.625,-1.09375 -0.9375,-1.10937 -0.9375,-3.04687 0,-1.26563 0.40625,-2.23438 0.40625,-0.96875 1.15625,-1.51562 0.76562,-0.5625 1.79687,-0.5625 1.60938,0 2.46875,1.0625 0.85938,1.0625 0.85938,2.92187 z m -1.40625,-0.40625 q 0,-1.20312 -0.46875,-1.82812 -0.46875,-0.625 -1.42188,-0.625 -1.73437,0 -1.89062,2.54687 h 3.78125 z m 6.60385,-3.57812 q 0.71875,0 1.3125,0.21875 0.59375,0.20312 1.14062,0.65625 l -0.67187,0.89062 q -0.42188,-0.3125 -0.82813,-0.45312 -0.40625,-0.14063 -0.90625,-0.14063 -0.96875,0 -1.51562,0.78125 -0.54688,0.78125 -0.54688,2.3125 0,1.53125 0.53125,2.26563 0.54688,0.71875 1.53125,0.71875 0.48438,0 0.875,-0.14063 0.40625,-0.14062 0.89063,-0.46875 l 0.64062,0.92188 q -1.09375,0.89062 -2.45312,0.89062 -1.64063,0 -2.59375,-1.09375 -0.9375,-1.10937 -0.9375,-3.0625 0,-1.28125 0.42187,-2.25 0.4375,-0.96875 1.21875,-1.5 0.79688,-0.54687 1.89063,-0.54687 z m 8.45187,7.89062 q -0.79687,0.5625 -1.8125,0.5625 -1.01562,0 -1.59375,-0.59375 -0.57812,-0.59375 -0.57812,-1.70312 v -4.875 h -1.40625 v -1.09375 h 1.40625 V 104.632 l 1.40625,-0.17187 v 2 h 1.92187 l -0.15625,1.09375 h -1.76562 v 4.8125 q 0,0.625 0.21875,0.90625 0.23437,0.28125 0.75,0.28125 0.48437,0 1.07812,-0.3125 z m 8.23606,-12.125 v 1.17188 h -1.84375 v 11.9375 h 1.84375 v 1.17187 h -3.17188 v -14.28125 z" />
  <path
     style="fill:#ff0000;fill-rule:nonzero"
     inkscape:connector-curvature="0"
     id="path23"
     d="m 189.62276,109.00699 v 3.375 h -1.28125 v -2.20313 h -4.48437 v -1.17187 z m 5.92969,-0.17188 3.21875,5.70313 h -1.65625 l -2.4375,-4.67188 -2.46875,4.67188 h -1.5625 l 3.17187,-5.625 -2.89062,-4.9375 h 1.65625 l 2.125,3.96875 2.14062,-3.96875 h 1.5625 z" />
  <path
     style="fill:#000000;fill-rule:nonzero"
     inkscape:connector-curvature="0"
     id="path25"
     d="m 202.78279,102.03825 v 14.28125 h -3.17187 v -1.17187 h 1.84375 v -11.9375 h -1.84375 v -1.17188 z" />
  <path
     style="fill:#d0e0e3;fill-rule:evenodd"
     inkscape:connector-curvature="0"
     id="path27"
     d="m 378.55052,28.37306 v 0 c 0,-9.95583 8.0708,-18.02661 18.02661,-18.02661 h 72.10431 v 0 c 4.78095,0 9.36609,1.89923 12.74671,5.27986 3.38067,3.38065 5.27984,7.96579 5.27984,12.74675 v 90.2775 c 0,9.95581 -8.07074,18.02661 -18.02655,18.02661 h -72.10431 c -9.95581,0 -18.02661,-8.0708 -18.02661,-18.02661 z" />
  <path
     style="fill-rule:evenodd;stroke:#000000;stroke-width:2;stroke-linecap:butt;stroke-linejoin:round"
     inkscape:connector-curvature="0"
     id="path29"
     d="m 378.55052,28.37306 v 0 c 0,-9.95583 8.0708,-18.02661 18.02661,-18.02661 h 72.10431 v 0 c 4.78095,0 9.36609,1.89923 12.74671,5.27986 3.38067,3.38065 5.27984,7.96579 5.27984,12.74675 v 90.2775 c 0,9.95581 -8.07074,18.02661 -18.02655,18.02661 h -72.10431 c -9.95581,0 -18.02661,-8.0708 -18.02661,-18.02661 z" />
  <path
     style="fill:#000000;fill-rule:nonzero"
     inkscape:connector-curvature="0"
     id="path31"
     d="m 408.26375,70.23179 v -10.5625 h 5.60937 l -0.17187,1.17187 h -3.98438 v 3.59375 H 413.17 v 1.15625 h -3.45313 v 4.64063 z m 13.02075,-4.28125 q 0,0.35937 -0.0312,0.71875 h -5.15625 q 0.0937,1.34375 0.67188,1.96875 0.57812,0.625 1.5,0.625 0.59375,0 1.07812,-0.15625 0.48438,-0.17188 1.03125,-0.54688 l 0.60938,0.84375 q -1.28125,1.01563 -2.82813,1.01563 -1.67187,0 -2.625,-1.09375 -0.9375,-1.10938 -0.9375,-3.04688 0,-1.26562 0.40625,-2.23437 0.40625,-0.96875 1.15625,-1.51563 0.76563,-0.5625 1.79688,-0.5625 1.60937,0 2.46875,1.0625 0.85937,1.0625 0.85937,2.92188 z m -1.40625,-0.40625 q 0,-1.20313 -0.46875,-1.82813 -0.46875,-0.625 -1.42187,-0.625 -1.73438,0 -1.89063,2.54688 h 3.78125 z m 8.93488,2.79687 q 0,0.5 0.17187,0.73438 0.17188,0.23437 0.51563,0.35937 l -0.32813,0.98438 q -0.625,-0.0781 -1.01562,-0.34375 -0.375,-0.28125 -0.5625,-0.875 -0.8125,1.21875 -2.40625,1.21875 -1.20313,0 -1.89063,-0.67188 -0.6875,-0.6875 -0.6875,-1.76562 0,-1.29688 0.92188,-1.98438 0.9375,-0.6875 2.64062,-0.6875 h 1.23438 v -0.59375 q 0,-0.85937 -0.42188,-1.21875 -0.40625,-0.375 -1.26562,-0.375 -0.89063,0 -2.17188,0.42188 l -0.35937,-1.01563 q 1.51562,-0.5625 2.79687,-0.5625 1.42188,0 2.125,0.70313 0.70313,0.70312 0.70313,1.98437 z m -3.29688,1.01563 q 1.20313,0 1.89063,-1.25 V 66.24741 H 426.36 q -2.25,0 -2.25,1.65625 0,0.71875 0.34375,1.09375 0.35938,0.35938 1.0625,0.35938 z m 10.276,0.5 q -0.79687,0.5625 -1.8125,0.5625 -1.01562,0 -1.59375,-0.59375 -0.57812,-0.59375 -0.57812,-1.70313 v -4.875 h -1.40625 v -1.09375 h 1.40625 v -1.82812 l 1.40625,-0.17188 v 2 h 1.92187 l -0.15625,1.09375 h -1.76562 v 4.8125 q 0,0.625 0.21875,0.90625 0.23437,0.28125 0.75,0.28125 0.48437,0 1.07812,-0.3125 z m 7.47101,0.375 h -1.21875 l -0.10937,-1.25 q -0.45313,0.75 -1.0625,1.09375 -0.59375,0.34375 -1.45313,0.34375 -1.04687,0 -1.65625,-0.64063 -0.59375,-0.65625 -0.59375,-1.82812 v -5.79688 h 1.42188 v 5.64063 q 0,0.82812 0.28125,1.17187 0.29687,0.34375 0.95312,0.34375 1.1875,0 2.01563,-1.39062 v -5.76563 h 1.42187 z m 6.42096,-8.26563 q 0.42188,0 0.79688,0.0937 l -0.26563,1.375 q -0.35937,-0.0781 -0.70312,-0.0781 -0.75,0 -1.21875,0.54687 -0.45313,0.54688 -0.71875,1.71875 v 4.60938 h -1.40625 v -8.07813 h 1.21875 l 0.14062,1.64063 q 0.3125,-0.90625 0.85938,-1.35938 0.5625,-0.46875 1.29687,-0.46875 z m 8.05042,3.98438 q 0,0.35937 -0.0312,0.71875 h -5.15625 q 0.0937,1.34375 0.67187,1.96875 0.57813,0.625 1.5,0.625 0.59375,0 1.07813,-0.15625 0.48437,-0.17188 1.03125,-0.54688 l 0.60937,0.84375 q -1.28125,1.01563 -2.82812,1.01563 -1.67188,0 -2.625,-1.09375 -0.9375,-1.10938 -0.9375,-3.04688 0,-1.26562 0.40625,-2.23437 0.40625,-0.96875 1.15625,-1.51563 0.76562,-0.5625 1.79687,-0.5625 1.60938,0 2.46875,1.0625 0.85938,1.0625 0.85938,2.92188 z m -1.40625,-0.40625 q 0,-1.20313 -0.46875,-1.82813 -0.46875,-0.625 -1.42188,-0.625 -1.73437,0 -1.89062,2.54688 h 3.78125 z" />
  <path
     style="fill:#000000;fill-rule:nonzero"
     inkscape:connector-curvature="0"
     id="path33"
     d="m 420.70186,84.84117 q 0,1.0625 -0.4375,1.875 -0.4375,0.79687 -1.28125,1.25 -0.82812,0.45312 -1.98437,0.45312 -1.76563,0 -2.73438,-0.96875 -0.95312,-0.98437 -0.95312,-2.60937 v -7.17188 h 1.45312 v 7.0625 q 0,1.23438 0.54688,1.84375 0.5625,0.60938 1.6875,0.60938 1.125,0 1.67187,-0.59375 0.5625,-0.60938 0.5625,-1.85938 v -7.0625 h 1.46875 z m 6.63159,-4.875 q 1.10938,0 1.73438,0.67187 0.625,0.65625 0.625,1.79688 v 5.79687 h -1.42188 v -5.59375 q 0,-0.85937 -0.32812,-1.20312 -0.3125,-0.35938 -0.9375,-0.35938 -0.64063,0 -1.14063,0.375 -0.48437,0.35938 -0.92187,1.04688 v 5.73437 h -1.40625 v -8.07812 h 1.21875 l 0.125,1.20312 q 0.42187,-0.65625 1.04687,-1.01562 0.64063,-0.375 1.40625,-0.375 z m 6.59168,0.1875 v 8.07812 h -1.40625 v -8.07812 z m -0.70313,-3.875 q 0.4375,0 0.71875,0.28125 0.28125,0.26562 0.28125,0.6875 0,0.40625 -0.28125,0.67187 -0.28125,0.26563 -0.71875,0.26563 -0.4375,0 -0.71875,-0.26563 -0.26562,-0.26562 -0.26562,-0.67187 0,-0.42188 0.26562,-0.6875 0.28125,-0.28125 0.71875,-0.28125 z m 6.6507,3.6875 q 1.70312,0 2.64062,1.14062 0.95313,1.125 0.95313,3.07813 0,1.25 -0.4375,2.21875 -0.42188,0.95312 -1.23438,1.48437 -0.8125,0.53125 -1.9375,0.53125 -1.6875,0 -2.64062,-1.125 -0.95313,-1.14062 -0.95313,-3.09375 0,-1.25 0.42188,-2.20312 0.4375,-0.96875 1.25,-1.5 0.8125,-0.53125 1.9375,-0.53125 z m 0,1.14062 q -2.09375,0 -2.09375,3.09375 0,3.07813 2.07812,3.07813 2.09375,0 2.09375,-3.09375 0,-3.07813 -2.07812,-3.07813 z m 9.71728,-1.14062 q 1.10938,0 1.73438,0.67187 0.625,0.65625 0.625,1.79688 v 5.79687 h -1.42188 v -5.59375 q 0,-0.85937 -0.32812,-1.20312 -0.3125,-0.35938 -0.9375,-0.35938 -0.64063,0 -1.14063,0.375 -0.48437,0.35938 -0.92187,1.04688 v 5.73437 h -1.40625 v -8.07812 h 1.21875 l 0.125,1.20312 q 0.42187,-0.65625 1.04687,-1.01562 0.64063,-0.375 1.40625,-0.375 z" />
  <path
     style="fill:#eeeeee;fill-rule:evenodd"
     inkscape:connector-curvature="0"
     id="path35"
     d="m 485.20168,65.50551 h 13.6413 c 1.88348,0 3.41034,3.58466 3.41034,8.00656 0,4.42191 -1.52686,8.00656 -3.41034,8.00656 h -13.6413 v 0 c -1.88348,0 -3.41034,-3.58465 -3.41034,-8.00656 0,-4.4219 1.52686,-8.00656 3.41034,-8.00656 z" />
  <path
     style="fill:#000000;fill-opacity:0;fill-rule:evenodd"
     inkscape:connector-curvature="0"
     id="path37"
     d="m 498.84298,81.51863 c -1.88348,0 -3.41034,-3.58466 -3.41034,-8.00656 0,-4.42191 1.52686,-8.00656 3.41034,-8.00656" />
  <path
     style="fill:#000000;fill-opacity:0;fill-rule:evenodd"
     inkscape:connector-curvature="0"
     id="path39"
     d="m 485.20168,65.50551 h 13.6413 c 1.88348,0 3.41034,3.58466 3.41034,8.00656 0,4.42191 -1.52686,8.00656 -3.41034,8.00656 h -13.6413 v 0 c -1.88348,0 -3.41034,-3.58465 -3.41034,-8.00656 0,-4.4219 1.52686,-8.00656 3.41034,-8.00656 z" />
  <path
     style="fill-rule:evenodd;stroke:#595959;stroke-width:1;stroke-linecap:butt;stroke-linejoin:round"
     inkscape:connector-curvature="0"
     id="path41"
     d="m 498.84298,81.51863 c -1.88348,0 -3.41034,-3.58466 -3.41034,-8.00656 0,-4.42191 1.52686,-8.00656 3.41034,-8.00656" />
  <path
     style="fill-rule:evenodd;stroke:#595959;stroke-width:1;stroke-linecap:butt;stroke-linejoin:round"
     inkscape:connector-curvature="0"
     id="path43"
     d="m 485.20168,65.50551 h 13.6413 c 1.88348,0 3.41034,3.58466 3.41034,8.00656 0,4.42191 -1.52686,8.00656 -3.41034,8.00656 h -13.6413 v 0 c -1.88348,0 -3.41034,-3.58465 -3.41034,-8.00656 0,-4.4219 1.52686,-8.00656 3.41034,-8.00656 z" />
  <path
     style="fill:#eeeeee;fill-rule:evenodd"
     inkscape:connector-curvature="0"
     id="path45"
     d="m 511.90859,65.50551 h -13.6413 c -1.88348,0 -3.41027,3.58466 -3.41027,8.00656 0,4.42191 1.52679,8.00656 3.41027,8.00656 h 13.6413 v 0 c 1.88348,0 3.41034,-3.58465 3.41034,-8.00656 0,-4.4219 -1.52686,-8.00656 -3.41034,-8.00656 z" />
  <path
     style="fill:#000000;fill-opacity:0;fill-rule:evenodd"
     inkscape:connector-curvature="0"
     id="path47"
     d="m 498.26732,81.51863 c 1.88348,0 3.41034,-3.58466 3.41034,-8.00656 0,-4.42191 -1.52686,-8.00656 -3.41034,-8.00656" />
  <path
     style="fill:#000000;fill-opacity:0;fill-rule:evenodd"
     inkscape:connector-curvature="0"
     id="path49"
     d="m 511.90859,65.50551 h -13.6413 c -1.88348,0 -3.41027,3.58466 -3.41027,8.00656 0,4.42191 1.52679,8.00656 3.41027,8.00656 h 13.6413 v 0 c 1.88348,0 3.41034,-3.58465 3.41034,-8.00656 0,-4.4219 -1.52686,-8.00656 -3.41034,-8.00656 z" />
  <path
     style="fill-rule:evenodd;stroke:#595959;stroke-width:1;stroke-linecap:butt;stroke-linejoin:round"
     inkscape:connector-curvature="0"
     id="path51"
     d="m 498.26732,81.51863 c 1.88348,0 3.41034,-3.58466 3.41034,-8.00656 0,-4.42191 -1.52686,-8.00656 -3.41034,-8.00656" />
  <path
     style="fill-rule:evenodd;stroke:#595959;stroke-width:1;stroke-linecap:butt;stroke-linejoin:round"
     inkscape:connector-curvature="0"
     id="path53"
     d="m 511.90859,65.50551 h -13.6413 c -1.88348,0 -3.41027,3.58466 -3.41027,8.00656 0,4.42191 1.52679,8.00656 3.41027,8.00656 h 13.6413 v 0 c 1.88348,0 3.41034,-3.58465 3.41034,-8.00656 0,-4.4219 -1.52686,-8.00656 -3.41034,-8.00656 z" />
  <path
     style="fill:#efefef;fill-rule:evenodd"
     inkscape:connector-curvature="0"
     id="path55"
     d="m 489.77297,65.86116 h 16.12604 v 15.24409 h -16.12604 z" />
  <path
     style="fill:#d0e0e3;fill-rule:evenodd"
     inkscape:connector-curvature="0"
     id="path57"
     d="m 249.14952,21.13661 v 0 c 0,-3.52252 2.85556,-6.37808 6.37808,-6.37808 h 25.51154 v 0 c 1.69159,0 3.3139,0.67196 4.51001,1.86809 1.1961,1.19612 1.8681,2.81842 1.8681,4.50999 V 56.7269 c 0,3.52252 -2.85559,6.37808 -6.37811,6.37808 H 255.5276 c -3.52252,0 -6.37808,-2.85556 -6.37808,-6.37808 z" />
  <path
     style="fill-rule:evenodd;stroke:#000000;stroke-width:2;stroke-linecap:butt;stroke-linejoin:round"
     inkscape:connector-curvature="0"
     id="path59"
     d="m 249.14952,21.13661 v 0 c 0,-3.52252 2.85556,-6.37808 6.37808,-6.37808 h 25.51154 v 0 c 1.69159,0 3.3139,0.67196 4.51001,1.86809 1.1961,1.19612 1.8681,2.81842 1.8681,4.50999 V 56.7269 c 0,3.52252 -2.85559,6.37808 -6.37811,6.37808 H 255.5276 c -3.52252,0 -6.37808,-2.85556 -6.37808,-6.37808 z" />
  <path
     style="fill:#000000;fill-rule:nonzero"
     inkscape:connector-curvature="0"
     id="path61"
     d="m 264.59332,42.69862 q 0.45312,0 0.75,0.3125 0.3125,0.3125 0.3125,0.75 0,0.45312 -0.3125,0.76562 -0.29688,0.3125 -0.75,0.3125 -0.45313,0 -0.76563,-0.3125 -0.29687,-0.3125 -0.29687,-0.76562 0,-0.4375 0.29687,-0.75 0.3125,-0.3125 0.76563,-0.3125 z m 3.67877,0 q 0.45313,0 0.75,0.3125 0.3125,0.3125 0.3125,0.75 0,0.45312 -0.3125,0.76562 -0.29687,0.3125 -0.75,0.3125 -0.45312,0 -0.76562,-0.3125 -0.29688,-0.3125 -0.29688,-0.76562 0,-0.4375 0.29688,-0.75 0.3125,-0.3125 0.76562,-0.3125 z m 3.67877,0 q 0.45313,0 0.75,0.3125 0.3125,0.3125 0.3125,0.75 0,0.45312 -0.3125,0.76562 -0.29687,0.3125 -0.75,0.3125 -0.45312,0 -0.76562,-0.3125 -0.29688,-0.3125 -0.29688,-0.76562 0,-0.4375 0.29688,-0.75 0.3125,-0.3125 0.76562,-0.3125 z" />
  <path
     style="fill:#d0e0e3;fill-rule:evenodd"
     inkscape:connector-curvature="0"
     id="path63"
     d="m 249.14952,91.02374 v 0 c 0,-3.52252 2.85556,-6.37808 6.37808,-6.37808 h 25.51154 v 0 c 1.69159,0 3.3139,0.67198 4.51001,1.8681 1.1961,1.19612 1.8681,2.81841 1.8681,4.50998 v 35.59029 c 0,3.52252 -2.85559,6.37808 -6.37811,6.37808 H 255.5276 c -3.52252,0 -6.37808,-2.85556 -6.37808,-6.37808 z" />
  <path
     style="fill-rule:evenodd;stroke:#000000;stroke-width:2;stroke-linecap:butt;stroke-linejoin:round"
     inkscape:connector-curvature="0"
     id="path65"
     d="m 249.14952,91.02374 v 0 c 0,-3.52252 2.85556,-6.37808 6.37808,-6.37808 h 25.51154 v 0 c 1.69159,0 3.3139,0.67198 4.51001,1.8681 1.1961,1.19612 1.8681,2.81841 1.8681,4.50998 v 35.59029 c 0,3.52252 -2.85559,6.37808 -6.37811,6.37808 H 255.5276 c -3.52252,0 -6.37808,-2.85556 -6.37808,-6.37808 z" />
  <path
     style="fill:#000000;fill-rule:nonzero"
     inkscape:connector-curvature="0"
     id="path67"
     d="m 264.59332,112.58577 q 0.45312,0 0.75,0.3125 0.3125,0.3125 0.3125,0.75 0,0.45312 -0.3125,0.76562 -0.29688,0.3125 -0.75,0.3125 -0.45313,0 -0.76563,-0.3125 -0.29687,-0.3125 -0.29687,-0.76562 0,-0.4375 0.29687,-0.75 0.3125,-0.3125 0.76563,-0.3125 z m 3.67877,0 q 0.45313,0 0.75,0.3125 0.3125,0.3125 0.3125,0.75 0,0.45312 -0.3125,0.76562 -0.29687,0.3125 -0.75,0.3125 -0.45312,0 -0.76562,-0.3125 -0.29688,-0.3125 -0.29688,-0.76562 0,-0.4375 0.29688,-0.75 0.3125,-0.3125 0.76562,-0.3125 z m 3.67877,0 q 0.45313,0 0.75,0.3125 0.3125,0.3125 0.3125,0.75 0,0.45312 -0.3125,0.76562 -0.29687,0.3125 -0.75,0.3125 -0.45312,0 -0.76562,-0.3125 -0.29688,-0.3125 -0.29688,-0.76562 0,-0.4375 0.29688,-0.75 0.3125,-0.3125 0.76562,-0.3125 z" />
  <path
     style="fill:#eeeeee;fill-rule:evenodd"
     inkscape:connector-curvature="0"
     id="path69"
     d="m 248.86095,30.92546 h -13.6413 c -1.88345,0 -3.4103,3.58466 -3.4103,8.00656 0,4.42191 1.52685,8.00656 3.4103,8.00656 h 13.6413 v 0 c 1.88348,0 3.41034,-3.58465 3.41034,-8.00656 0,-4.4219 -1.52686,-8.00656 -3.41034,-8.00656 z" />
  <path
     style="fill:#000000;fill-opacity:0;fill-rule:evenodd"
     inkscape:connector-curvature="0"
     id="path71"
     d="m 235.21965,46.93858 c 1.88348,0 3.41034,-3.58466 3.41034,-8.00656 0,-4.42191 -1.52686,-8.00656 -3.41034,-8.00656" />
  <path
     style="fill:#000000;fill-opacity:0;fill-rule:evenodd"
     inkscape:connector-curvature="0"
     id="path73"
     d="m 248.86095,30.92546 h -13.6413 c -1.88345,0 -3.4103,3.58466 -3.4103,8.00656 0,4.42191 1.52685,8.00656 3.4103,8.00656 h 13.6413 v 0 c 1.88348,0 3.41034,-3.58465 3.41034,-8.00656 0,-4.4219 -1.52686,-8.00656 -3.41034,-8.00656 z" />
  <path
     style="fill-rule:evenodd;stroke:#595959;stroke-width:1;stroke-linecap:butt;stroke-linejoin:round"
     inkscape:connector-curvature="0"
     id="path75"
     d="m 235.21965,46.93858 c 1.88348,0 3.41034,-3.58466 3.41034,-8.00656 0,-4.42191 -1.52686,-8.00656 -3.41034,-8.00656" />
  <path
     style="fill-rule:evenodd;stroke:#595959;stroke-width:1;stroke-linecap:butt;stroke-linejoin:round"
     inkscape:connector-curvature="0"
     id="path77"
     d="m 248.86095,30.92546 h -13.6413 c -1.88345,0 -3.4103,3.58466 -3.4103,8.00656 0,4.42191 1.52685,8.00656 3.4103,8.00656 h 13.6413 v 0 c 1.88348,0 3.41034,-3.58465 3.41034,-8.00656 0,-4.4219 -1.52686,-8.00656 -3.41034,-8.00656 z" />
  <path
     style="fill:#eeeeee;fill-rule:evenodd"
     inkscape:connector-curvature="0"
     id="path79"
     d="m 222.15404,30.92546 h 13.6413 c 1.88345,0 3.4103,3.58466 3.4103,8.00656 0,4.42191 -1.52685,8.00656 -3.4103,8.00656 h -13.6413 v 0 c -1.88348,0 -3.41034,-3.58465 -3.41034,-8.00656 0,-4.4219 1.52686,-8.00656 3.41034,-8.00656 z" />
  <path
     style="fill:#000000;fill-opacity:0;fill-rule:evenodd"
     inkscape:connector-curvature="0"
     id="path81"
     d="m 235.79534,46.93858 c -1.88348,0 -3.41034,-3.58466 -3.41034,-8.00656 0,-4.42191 1.52686,-8.00656 3.41034,-8.00656" />
  <path
     style="fill:#000000;fill-opacity:0;fill-rule:evenodd"
     inkscape:connector-curvature="0"
     id="path83"
     d="m 222.15404,30.92546 h 13.6413 c 1.88345,0 3.4103,3.58466 3.4103,8.00656 0,4.42191 -1.52685,8.00656 -3.4103,8.00656 h -13.6413 v 0 c -1.88348,0 -3.41034,-3.58465 -3.41034,-8.00656 0,-4.4219 1.52686,-8.00656 3.41034,-8.00656 z" />
  <path
     style="fill-rule:evenodd;stroke:#595959;stroke-width:1;stroke-linecap:butt;stroke-linejoin:round"
     inkscape:connector-curvature="0"
     id="path85"
     d="m 235.79534,46.93858 c -1.88348,0 -3.41034,-3.58466 -3.41034,-8.00656 0,-4.42191 1.52686,-8.00656 3.41034,-8.00656" />
  <path
     style="fill-rule:evenodd;stroke:#595959;stroke-width:1;stroke-linecap:butt;stroke-linejoin:round"
     inkscape:connector-curvature="0"
     id="path87"
     d="m 222.15404,30.92546 h 13.6413 c 1.88345,0 3.4103,3.58466 3.4103,8.00656 0,4.42191 -1.52685,8.00656 -3.4103,8.00656 h -13.6413 v 0 c -1.88348,0 -3.41034,-3.58465 -3.41034,-8.00656 0,-4.4219 1.52686,-8.00656 3.41034,-8.00656 z" />
  <path
     style="fill:#efefef;fill-rule:evenodd"
     inkscape:connector-curvature="0"
     id="path89"
     d="m 244.28966,31.28109 h -16.12601 v 15.24409 h 16.12601 z" />
  <path
     style="fill:#eeeeee;fill-rule:evenodd"
     inkscape:connector-curvature="0"
     id="path91"
     d="m 248.86095,100.81261 h -13.6413 c -1.88345,0 -3.4103,3.58466 -3.4103,8.00656 0,4.42191 1.52685,8.00656 3.4103,8.00656 h 13.6413 v 0 c 1.88348,0 3.41034,-3.58465 3.41034,-8.00656 0,-4.4219 -1.52686,-8.00656 -3.41034,-8.00656 z" />
  <path
     style="fill:#000000;fill-opacity:0;fill-rule:evenodd"
     inkscape:connector-curvature="0"
     id="path93"
     d="m 235.21965,116.82573 c 1.88348,0 3.41034,-3.58466 3.41034,-8.00656 0,-4.42191 -1.52686,-8.00656 -3.41034,-8.00656" />
  <path
     style="fill:#000000;fill-opacity:0;fill-rule:evenodd"
     inkscape:connector-curvature="0"
     id="path95"
     d="m 248.86095,100.81261 h -13.6413 c -1.88345,0 -3.4103,3.58466 -3.4103,8.00656 0,4.42191 1.52685,8.00656 3.4103,8.00656 h 13.6413 v 0 c 1.88348,0 3.41034,-3.58465 3.41034,-8.00656 0,-4.4219 -1.52686,-8.00656 -3.41034,-8.00656 z" />
  <path
     style="fill-rule:evenodd;stroke:#595959;stroke-width:1;stroke-linecap:butt;stroke-linejoin:round"
     inkscape:connector-curvature="0"
     id="path97"
     d="m 235.21965,116.82573 c 1.88348,0 3.41034,-3.58466 3.41034,-8.00656 0,-4.42191 -1.52686,-8.00656 -3.41034,-8.00656" />
  <path
     style="fill-rule:evenodd;stroke:#595959;stroke-width:1;stroke-linecap:butt;stroke-linejoin:round"
     inkscape:connector-curvature="0"
     id="path99"
     d="m 248.86095,100.81261 h -13.6413 c -1.88345,0 -3.4103,3.58466 -3.4103,8.00656 0,4.42191 1.52685,8.00656 3.4103,8.00656 h 13.6413 v 0 c 1.88348,0 3.41034,-3.58465 3.41034,-8.00656 0,-4.4219 -1.52686,-8.00656 -3.41034,-8.00656 z" />
  <path
     style="fill:#eeeeee;fill-rule:evenodd"
     inkscape:connector-curvature="0"
     id="path101"
     d="m 222.15404,100.81261 h 13.6413 c 1.88345,0 3.4103,3.58466 3.4103,8.00656 0,4.42191 -1.52685,8.00656 -3.4103,8.00656 h -13.6413 v 0 c -1.88348,0 -3.41034,-3.58465 -3.41034,-8.00656 0,-4.4219 1.52686,-8.00656 3.41034,-8.00656 z" />
  <path
     style="fill:#000000;fill-opacity:0;fill-rule:evenodd"
     inkscape:connector-curvature="0"
     id="path103"
     d="m 235.79534,116.82573 c -1.88348,0 -3.41034,-3.58466 -3.41034,-8.00656 0,-4.42191 1.52686,-8.00656 3.41034,-8.00656" />
  <path
     style="fill:#000000;fill-opacity:0;fill-rule:evenodd"
     inkscape:connector-curvature="0"
     id="path105"
     d="m 222.15404,100.81261 h 13.6413 c 1.88345,0 3.4103,3.58466 3.4103,8.00656 0,4.42191 -1.52685,8.00656 -3.4103,8.00656 h -13.6413 v 0 c -1.88348,0 -3.41034,-3.58465 -3.41034,-8.00656 0,-4.4219 1.52686,-8.00656 3.41034,-8.00656 z" />
  <path
     style="fill-rule:evenodd;stroke:#595959;stroke-width:1;stroke-linecap:butt;stroke-linejoin:round"
     inkscape:connector-curvature="0"
     id="path107"
     d="m 235.79534,116.82573 c -1.88348,0 -3.41034,-3.58466 -3.41034,-8.00656 0,-4.42191 1.52686,-8.00656 3.41034,-8.00656" />
  <path
     style="fill-rule:evenodd;stroke:#595959;stroke-width:1;stroke-linecap:butt;stroke-linejoin:round"
     inkscape:connector-curvature="0"
     id="path109"
     d="m 222.15404,100.81261 h 13.6413 c 1.88345,0 3.4103,3.58466 3.4103,8.00656 0,4.42191 -1.52685,8.00656 -3.4103,8.00656 h -13.6413 v 0 c -1.88348,0 -3.41034,-3.58465 -3.41034,-8.00656 0,-4.4219 1.52686,-8.00656 3.41034,-8.00656 z" />
  <path
     style="fill:#efefef;fill-rule:evenodd"
     inkscape:connector-curvature="0"
     id="path111"
     d="m 244.28966,101.16823 h -16.12601 v 15.24411 h 16.12601 z" />
  <path
     style="fill:#d0e0e3;fill-rule:evenodd"
     inkscape:connector-curvature="0"
     id="path113"
     d="m 313.14952,21.13661 v 0 c 0,-3.52252 2.85559,-6.37808 6.37811,-6.37808 h 25.51154 v 0 c 1.69159,0 3.3139,0.67196 4.51001,1.86809 1.1961,1.19612 1.8681,2.81842 1.8681,4.50999 V 56.7269 c 0,3.52252 -2.85559,6.37808 -6.37811,6.37808 h -25.51154 c -3.52252,0 -6.37811,-2.85556 -6.37811,-6.37808 z" />
  <path
     style="fill-rule:evenodd;stroke:#000000;stroke-width:2;stroke-linecap:butt;stroke-linejoin:round"
     inkscape:connector-curvature="0"
     id="path115"
     d="m 313.14952,21.13661 v 0 c 0,-3.52252 2.85559,-6.37808 6.37811,-6.37808 h 25.51154 v 0 c 1.69159,0 3.3139,0.67196 4.51001,1.86809 1.1961,1.19612 1.8681,2.81842 1.8681,4.50999 V 56.7269 c 0,3.52252 -2.85559,6.37808 -6.37811,6.37808 h -25.51154 c -3.52252,0 -6.37811,-2.85556 -6.37811,-6.37808 z" />
  <path
     style="fill:#000000;fill-rule:nonzero"
     inkscape:connector-curvature="0"
     id="path117"
     d="m 328.59332,42.69862 q 0.45312,0 0.75,0.3125 0.3125,0.3125 0.3125,0.75 0,0.45312 -0.3125,0.76562 -0.29688,0.3125 -0.75,0.3125 -0.45313,0 -0.76563,-0.3125 -0.29687,-0.3125 -0.29687,-0.76562 0,-0.4375 0.29687,-0.75 0.3125,-0.3125 0.76563,-0.3125 z m 3.67877,0 q 0.45313,0 0.75,0.3125 0.3125,0.3125 0.3125,0.75 0,0.45312 -0.3125,0.76562 -0.29687,0.3125 -0.75,0.3125 -0.45312,0 -0.76562,-0.3125 -0.29688,-0.3125 -0.29688,-0.76562 0,-0.4375 0.29688,-0.75 0.3125,-0.3125 0.76562,-0.3125 z m 3.67877,0 q 0.45313,0 0.75,0.3125 0.3125,0.3125 0.3125,0.75 0,0.45312 -0.3125,0.76562 -0.29687,0.3125 -0.75,0.3125 -0.45312,0 -0.76562,-0.3125 -0.29688,-0.3125 -0.29688,-0.76562 0,-0.4375 0.29688,-0.75 0.3125,-0.3125 0.76562,-0.3125 z" />
  <path
     style="fill:#d0e0e3;fill-rule:evenodd"
     inkscape:connector-curvature="0"
     id="path119"
     d="m 313.14952,91.02374 v 0 c 0,-3.52252 2.85559,-6.37808 6.37811,-6.37808 h 25.51154 v 0 c 1.69159,0 3.3139,0.67198 4.51001,1.8681 1.1961,1.19612 1.8681,2.81841 1.8681,4.50998 v 35.59029 c 0,3.52252 -2.85559,6.37808 -6.37811,6.37808 h -25.51154 c -3.52252,0 -6.37811,-2.85556 -6.37811,-6.37808 z" />
  <path
     style="fill-rule:evenodd;stroke:#000000;stroke-width:2;stroke-linecap:butt;stroke-linejoin:round"
     inkscape:connector-curvature="0"
     id="path121"
     d="m 313.14952,91.02374 v 0 c 0,-3.52252 2.85559,-6.37808 6.37811,-6.37808 h 25.51154 v 0 c 1.69159,0 3.3139,0.67198 4.51001,1.8681 1.1961,1.19612 1.8681,2.81841 1.8681,4.50998 v 35.59029 c 0,3.52252 -2.85559,6.37808 -6.37811,6.37808 h -25.51154 c -3.52252,0 -6.37811,-2.85556 -6.37811,-6.37808 z" />
  <path
     style="fill:#000000;fill-rule:nonzero"
     inkscape:connector-curvature="0"
     id="path123"
     d="m 328.59332,112.58577 q 0.45312,0 0.75,0.3125 0.3125,0.3125 0.3125,0.75 0,0.45312 -0.3125,0.76562 -0.29688,0.3125 -0.75,0.3125 -0.45313,0 -0.76563,-0.3125 -0.29687,-0.3125 -0.29687,-0.76562 0,-0.4375 0.29687,-0.75 0.3125,-0.3125 0.76563,-0.3125 z m 3.67877,0 q 0.45313,0 0.75,0.3125 0.3125,0.3125 0.3125,0.75 0,0.45312 -0.3125,0.76562 -0.29687,0.3125 -0.75,0.3125 -0.45312,0 -0.76562,-0.3125 -0.29688,-0.3125 -0.29688,-0.76562 0,-0.4375 0.29688,-0.75 0.3125,-0.3125 0.76562,-0.3125 z m 3.67877,0 q 0.45313,0 0.75,0.3125 0.3125,0.3125 0.3125,0.75 0,0.45312 -0.3125,0.76562 -0.29687,0.3125 -0.75,0.3125 -0.45312,0 -0.76562,-0.3125 -0.29688,-0.3125 -0.29688,-0.76562 0,-0.4375 0.29688,-0.75 0.3125,-0.3125 0.76562,-0.3125 z" />
  <path
     style="fill:#eeeeee;fill-rule:evenodd"
     inkscape:connector-curvature="0"
     id="path125"
     d="m 378.26357,30.92546 h -13.6413 c -1.88348,0 -3.41034,3.58466 -3.41034,8.00656 0,4.42191 1.52686,8.00656 3.41034,8.00656 h 13.6413 v 0 c 1.88342,0 3.41028,-3.58465 3.41028,-8.00656 0,-4.4219 -1.52686,-8.00656 -3.41028,-8.00656 z" />
  <path
     style="fill:#000000;fill-opacity:0;fill-rule:evenodd"
     inkscape:connector-curvature="0"
     id="path127"
     d="m 364.62227,46.93858 c 1.88342,0 3.41028,-3.58466 3.41028,-8.00656 0,-4.42191 -1.52686,-8.00656 -3.41028,-8.00656" />
  <path
     style="fill:#000000;fill-opacity:0;fill-rule:evenodd"
     inkscape:connector-curvature="0"
     id="path129"
     d="m 378.26357,30.92546 h -13.6413 c -1.88348,0 -3.41034,3.58466 -3.41034,8.00656 0,4.42191 1.52686,8.00656 3.41034,8.00656 h 13.6413 v 0 c 1.88342,0 3.41028,-3.58465 3.41028,-8.00656 0,-4.4219 -1.52686,-8.00656 -3.41028,-8.00656 z" />
  <path
     style="fill-rule:evenodd;stroke:#595959;stroke-width:1;stroke-linecap:butt;stroke-linejoin:round"
     inkscape:connector-curvature="0"
     id="path131"
     d="m 364.62227,46.93858 c 1.88342,0 3.41028,-3.58466 3.41028,-8.00656 0,-4.42191 -1.52686,-8.00656 -3.41028,-8.00656" />
  <path
     style="fill-rule:evenodd;stroke:#595959;stroke-width:1;stroke-linecap:butt;stroke-linejoin:round"
     inkscape:connector-curvature="0"
     id="path133"
     d="m 378.26357,30.92546 h -13.6413 c -1.88348,0 -3.41034,3.58466 -3.41034,8.00656 0,4.42191 1.52686,8.00656 3.41034,8.00656 h 13.6413 v 0 c 1.88342,0 3.41028,-3.58465 3.41028,-8.00656 0,-4.4219 -1.52686,-8.00656 -3.41028,-8.00656 z" />
  <path
     style="fill:#eeeeee;fill-rule:evenodd"
     inkscape:connector-curvature="0"
     id="path135"
     d="m 351.55666,30.92546 h 13.6413 c 1.88342,0 3.41027,3.58466 3.41027,8.00656 0,4.42191 -1.52685,8.00656 -3.41027,8.00656 h -13.6413 v 0 c -1.88348,0 -3.41034,-3.58465 -3.41034,-8.00656 0,-4.4219 1.52686,-8.00656 3.41034,-8.00656 z" />
  <path
     style="fill:#000000;fill-opacity:0;fill-rule:evenodd"
     inkscape:connector-curvature="0"
     id="path137"
     d="m 365.19796,46.93858 c -1.88348,0 -3.41034,-3.58466 -3.41034,-8.00656 0,-4.42191 1.52686,-8.00656 3.41034,-8.00656" />
  <path
     style="fill:#000000;fill-opacity:0;fill-rule:evenodd"
     inkscape:connector-curvature="0"
     id="path139"
     d="m 351.55666,30.92546 h 13.6413 c 1.88342,0 3.41027,3.58466 3.41027,8.00656 0,4.42191 -1.52685,8.00656 -3.41027,8.00656 h -13.6413 v 0 c -1.88348,0 -3.41034,-3.58465 -3.41034,-8.00656 0,-4.4219 1.52686,-8.00656 3.41034,-8.00656 z" />
  <path
     style="fill-rule:evenodd;stroke:#595959;stroke-width:1;stroke-linecap:butt;stroke-linejoin:round"
     inkscape:connector-curvature="0"
     id="path141"
     d="m 365.19796,46.93858 c -1.88348,0 -3.41034,-3.58466 -3.41034,-8.00656 0,-4.42191 1.52686,-8.00656 3.41034,-8.00656" />
  <path
     style="fill-rule:evenodd;stroke:#595959;stroke-width:1;stroke-linecap:butt;stroke-linejoin:round"
     inkscape:connector-curvature="0"
     id="path143"
     d="m 351.55666,30.92546 h 13.6413 c 1.88342,0 3.41027,3.58466 3.41027,8.00656 0,4.42191 -1.52685,8.00656 -3.41027,8.00656 h -13.6413 v 0 c -1.88348,0 -3.41034,-3.58465 -3.41034,-8.00656 0,-4.4219 1.52686,-8.00656 3.41034,-8.00656 z" />
  <path
     style="fill:#efefef;fill-rule:evenodd"
     inkscape:connector-curvature="0"
     id="path145"
     d="m 373.69222,31.28109 h -16.12598 v 15.24409 h 16.12598 z" />
  <path
     style="fill:#eeeeee;fill-rule:evenodd"
     inkscape:connector-curvature="0"
     id="path147"
     d="m 378.26357,100.81261 h -13.6413 c -1.88348,0 -3.41034,3.58466 -3.41034,8.00656 0,4.42191 1.52686,8.00656 3.41034,8.00656 h 13.6413 v 0 c 1.88342,0 3.41028,-3.58465 3.41028,-8.00656 0,-4.4219 -1.52686,-8.00656 -3.41028,-8.00656 z" />
  <path
     style="fill:#000000;fill-opacity:0;fill-rule:evenodd"
     inkscape:connector-curvature="0"
     id="path149"
     d="m 364.62227,116.82573 c 1.88342,0 3.41028,-3.58466 3.41028,-8.00656 0,-4.42191 -1.52686,-8.00656 -3.41028,-8.00656" />
  <path
     style="fill:#000000;fill-opacity:0;fill-rule:evenodd"
     inkscape:connector-curvature="0"
     id="path151"
     d="m 378.26357,100.81261 h -13.6413 c -1.88348,0 -3.41034,3.58466 -3.41034,8.00656 0,4.42191 1.52686,8.00656 3.41034,8.00656 h 13.6413 v 0 c 1.88342,0 3.41028,-3.58465 3.41028,-8.00656 0,-4.4219 -1.52686,-8.00656 -3.41028,-8.00656 z" />
  <path
     style="fill-rule:evenodd;stroke:#595959;stroke-width:1;stroke-linecap:butt;stroke-linejoin:round"
     inkscape:connector-curvature="0"
     id="path153"
     d="m 364.62227,116.82573 c 1.88342,0 3.41028,-3.58466 3.41028,-8.00656 0,-4.42191 -1.52686,-8.00656 -3.41028,-8.00656" />
  <path
     style="fill-rule:evenodd;stroke:#595959;stroke-width:1;stroke-linecap:butt;stroke-linejoin:round"
     inkscape:connector-curvature="0"
     id="path155"
     d="m 378.26357,100.81261 h -13.6413 c -1.88348,0 -3.41034,3.58466 -3.41034,8.00656 0,4.42191 1.52686,8.00656 3.41034,8.00656 h 13.6413 v 0 c 1.88342,0 3.41028,-3.58465 3.41028,-8.00656 0,-4.4219 -1.52686,-8.00656 -3.41028,-8.00656 z" />
  <path
     style="fill:#eeeeee;fill-rule:evenodd"
     inkscape:connector-curvature="0"
     id="path157"
     d="m 351.55666,100.81261 h 13.6413 c 1.88342,0 3.41027,3.58466 3.41027,8.00656 0,4.42191 -1.52685,8.00656 -3.41027,8.00656 h -13.6413 v 0 c -1.88348,0 -3.41034,-3.58465 -3.41034,-8.00656 0,-4.4219 1.52686,-8.00656 3.41034,-8.00656 z" />
  <path
     style="fill:#000000;fill-opacity:0;fill-rule:evenodd"
     inkscape:connector-curvature="0"
     id="path159"
     d="m 365.19796,116.82573 c -1.88348,0 -3.41034,-3.58466 -3.41034,-8.00656 0,-4.42191 1.52686,-8.00656 3.41034,-8.00656" />
  <path
     style="fill:#000000;fill-opacity:0;fill-rule:evenodd"
     inkscape:connector-curvature="0"
     id="path161"
     d="m 351.55666,100.81261 h 13.6413 c 1.88342,0 3.41027,3.58466 3.41027,8.00656 0,4.42191 -1.52685,8.00656 -3.41027,8.00656 h -13.6413 v 0 c -1.88348,0 -3.41034,-3.58465 -3.41034,-8.00656 0,-4.4219 1.52686,-8.00656 3.41034,-8.00656 z" />
  <path
     style="fill-rule:evenodd;stroke:#595959;stroke-width:1;stroke-linecap:butt;stroke-linejoin:round"
     inkscape:connector-curvature="0"
     id="path163"
     d="m 365.19796,116.82573 c -1.88348,0 -3.41034,-3.58466 -3.41034,-8.00656 0,-4.42191 1.52686,-8.00656 3.41034,-8.00656" />
  <path
     style="fill-rule:evenodd;stroke:#595959;stroke-width:1;stroke-linecap:butt;stroke-linejoin:round"
     inkscape:connector-curvature="0"
     id="path165"
     d="m 351.55666,100.81261 h 13.6413 c 1.88342,0 3.41027,3.58466 3.41027,8.00656 0,4.42191 -1.52685,8.00656 -3.41027,8.00656 h -13.6413 v 0 c -1.88348,0 -3.41034,-3.58465 -3.41034,-8.00656 0,-4.4219 1.52686,-8.00656 3.41034,-8.00656 z" />
  <path
     style="fill:#efefef;fill-rule:evenodd"
     inkscape:connector-curvature="0"
     id="path167"
     d="m 373.69222,101.16823 h -16.12598 v 15.24411 h 16.12598 z" />
  <path
     style="fill:#eeeeee;fill-rule:evenodd"
     inkscape:connector-curvature="0"
     id="path169"
     d="m 313.56276,100.44909 h -13.6413 c -1.88348,0 -3.41034,3.58466 -3.41034,8.00656 0,4.42191 1.52686,8.00656 3.41034,8.00656 h 13.6413 v 0 c 1.88348,0 3.41034,-3.58465 3.41034,-8.00656 0,-4.4219 -1.52686,-8.00656 -3.41034,-8.00656 z" />
  <path
     style="fill:#000000;fill-opacity:0;fill-rule:evenodd"
     inkscape:connector-curvature="0"
     id="path171"
     d="m 299.92147,116.46219 c 1.88348,0 3.41034,-3.58466 3.41034,-8.00656 0,-4.42191 -1.52686,-8.00656 -3.41034,-8.00656" />
  <path
     style="fill:#000000;fill-opacity:0;fill-rule:evenodd"
     inkscape:connector-curvature="0"
     id="path173"
     d="m 313.56276,100.44909 h -13.6413 c -1.88348,0 -3.41034,3.58466 -3.41034,8.00656 0,4.42191 1.52686,8.00656 3.41034,8.00656 h 13.6413 v 0 c 1.88348,0 3.41034,-3.58465 3.41034,-8.00656 0,-4.4219 -1.52686,-8.00656 -3.41034,-8.00656 z" />
  <path
     style="fill-rule:evenodd;stroke:#595959;stroke-width:1;stroke-linecap:butt;stroke-linejoin:round"
     inkscape:connector-curvature="0"
     id="path175"
     d="m 299.92147,116.46219 c 1.88348,0 3.41034,-3.58466 3.41034,-8.00656 0,-4.42191 -1.52686,-8.00656 -3.41034,-8.00656" />
  <path
     style="fill-rule:evenodd;stroke:#595959;stroke-width:1;stroke-linecap:butt;stroke-linejoin:round"
     inkscape:connector-curvature="0"
     id="path177"
     d="m 313.56276,100.44909 h -13.6413 c -1.88348,0 -3.41034,3.58466 -3.41034,8.00656 0,4.42191 1.52686,8.00656 3.41034,8.00656 h 13.6413 v 0 c 1.88348,0 3.41034,-3.58465 3.41034,-8.00656 0,-4.4219 -1.52686,-8.00656 -3.41034,-8.00656 z" />
  <path
     style="fill:#eeeeee;fill-rule:evenodd"
     inkscape:connector-curvature="0"
     id="path179"
     d="m 286.85585,100.44909 h 13.6413 c 1.88348,0 3.41034,3.58466 3.41034,8.00656 0,4.42191 -1.52686,8.00656 -3.41034,8.00656 h -13.6413 v 0 c -1.88348,0 -3.41034,-3.58465 -3.41034,-8.00656 0,-4.4219 1.52686,-8.00656 3.41034,-8.00656 z" />
  <path
     style="fill:#000000;fill-opacity:0;fill-rule:evenodd"
     inkscape:connector-curvature="0"
     id="path181"
     d="m 300.49712,116.46219 c -1.88348,0 -3.41034,-3.58466 -3.41034,-8.00656 0,-4.42191 1.52686,-8.00656 3.41034,-8.00656" />
  <path
     style="fill:#000000;fill-opacity:0;fill-rule:evenodd"
     inkscape:connector-curvature="0"
     id="path183"
     d="m 286.85585,100.44909 h 13.6413 c 1.88348,0 3.41034,3.58466 3.41034,8.00656 0,4.42191 -1.52686,8.00656 -3.41034,8.00656 h -13.6413 v 0 c -1.88348,0 -3.41034,-3.58465 -3.41034,-8.00656 0,-4.4219 1.52686,-8.00656 3.41034,-8.00656 z" />
  <path
     style="fill-rule:evenodd;stroke:#595959;stroke-width:1;stroke-linecap:butt;stroke-linejoin:round"
     inkscape:connector-curvature="0"
     id="path185"
     d="m 300.49712,116.46219 c -1.88348,0 -3.41034,-3.58466 -3.41034,-8.00656 0,-4.42191 1.52686,-8.00656 3.41034,-8.00656" />
  <path
     style="fill-rule:evenodd;stroke:#595959;stroke-width:1;stroke-linecap:butt;stroke-linejoin:round"
     inkscape:connector-curvature="0"
     id="path187"
     d="m 286.85585,100.44909 h 13.6413 c 1.88348,0 3.41034,3.58466 3.41034,8.00656 0,4.42191 -1.52686,8.00656 -3.41034,8.00656 h -13.6413 v 0 c -1.88348,0 -3.41034,-3.58465 -3.41034,-8.00656 0,-4.4219 1.52686,-8.00656 3.41034,-8.00656 z" />
  <path
     style="fill:#efefef;fill-rule:evenodd"
     inkscape:connector-curvature="0"
     id="path189"
     d="m 308.99147,100.80473 h -16.12598 v 15.24408 h 16.12598 z" />
  <path
     style="fill:#eeeeee;fill-rule:evenodd"
     inkscape:connector-curvature="0"
     id="path191"
     d="m 313.56276,30.56193 h -13.6413 c -1.88348,0 -3.41034,3.58467 -3.41034,8.00656 0,4.42191 1.52686,8.00656 3.41034,8.00656 h 13.6413 v 0 c 1.88348,0 3.41034,-3.58465 3.41034,-8.00656 0,-4.42189 -1.52686,-8.00656 -3.41034,-8.00656 z" />
  <path
     style="fill:#000000;fill-opacity:0;fill-rule:evenodd"
     inkscape:connector-curvature="0"
     id="path193"
     d="m 299.92147,46.57506 c 1.88348,0 3.41034,-3.58466 3.41034,-8.00656 0,-4.42189 -1.52686,-8.00656 -3.41034,-8.00656" />
  <path
     style="fill:#000000;fill-opacity:0;fill-rule:evenodd"
     inkscape:connector-curvature="0"
     id="path195"
     d="m 313.56276,30.56193 h -13.6413 c -1.88348,0 -3.41034,3.58467 -3.41034,8.00656 0,4.42191 1.52686,8.00656 3.41034,8.00656 h 13.6413 v 0 c 1.88348,0 3.41034,-3.58465 3.41034,-8.00656 0,-4.42189 -1.52686,-8.00656 -3.41034,-8.00656 z" />
  <path
     style="fill-rule:evenodd;stroke:#595959;stroke-width:1;stroke-linecap:butt;stroke-linejoin:round"
     inkscape:connector-curvature="0"
     id="path197"
     d="m 299.92147,46.57506 c 1.88348,0 3.41034,-3.58466 3.41034,-8.00656 0,-4.42189 -1.52686,-8.00656 -3.41034,-8.00656" />
  <path
     style="fill-rule:evenodd;stroke:#595959;stroke-width:1;stroke-linecap:butt;stroke-linejoin:round"
     inkscape:connector-curvature="0"
     id="path199"
     d="m 313.56276,30.56193 h -13.6413 c -1.88348,0 -3.41034,3.58467 -3.41034,8.00656 0,4.42191 1.52686,8.00656 3.41034,8.00656 h 13.6413 v 0 c 1.88348,0 3.41034,-3.58465 3.41034,-8.00656 0,-4.42189 -1.52686,-8.00656 -3.41034,-8.00656 z" />
  <path
     style="fill:#eeeeee;fill-rule:evenodd"
     inkscape:connector-curvature="0"
     id="path201"
     d="m 286.85585,30.56193 h 13.6413 c 1.88348,0 3.41034,3.58467 3.41034,8.00656 0,4.42191 -1.52686,8.00656 -3.41034,8.00656 h -13.6413 v 0 c -1.88348,0 -3.41034,-3.58465 -3.41034,-8.00656 0,-4.42189 1.52686,-8.00656 3.41034,-8.00656 z" />
  <path
     style="fill:#000000;fill-opacity:0;fill-rule:evenodd"
     inkscape:connector-curvature="0"
     id="path203"
     d="m 300.49712,46.57506 c -1.88348,0 -3.41034,-3.58466 -3.41034,-8.00656 0,-4.42189 1.52686,-8.00656 3.41034,-8.00656" />
  <path
     style="fill:#000000;fill-opacity:0;fill-rule:evenodd"
     inkscape:connector-curvature="0"
     id="path205"
     d="m 286.85585,30.56193 h 13.6413 c 1.88348,0 3.41034,3.58467 3.41034,8.00656 0,4.42191 -1.52686,8.00656 -3.41034,8.00656 h -13.6413 v 0 c -1.88348,0 -3.41034,-3.58465 -3.41034,-8.00656 0,-4.42189 1.52686,-8.00656 3.41034,-8.00656 z" />
  <path
     style="fill-rule:evenodd;stroke:#595959;stroke-width:1;stroke-linecap:butt;stroke-linejoin:round"
     inkscape:connector-curvature="0"
     id="path207"
     d="m 300.49712,46.57506 c -1.88348,0 -3.41034,-3.58466 -3.41034,-8.00656 0,-4.42189 1.52686,-8.00656 3.41034,-8.00656" />
  <path
     style="fill-rule:evenodd;stroke:#595959;stroke-width:1;stroke-linecap:butt;stroke-linejoin:round"
     inkscape:connector-curvature="0"
     id="path209"
     d="m 286.85585,30.56193 h 13.6413 c 1.88348,0 3.41034,3.58467 3.41034,8.00656 0,4.42191 -1.52686,8.00656 -3.41034,8.00656 h -13.6413 v 0 c -1.88348,0 -3.41034,-3.58465 -3.41034,-8.00656 0,-4.42189 1.52686,-8.00656 3.41034,-8.00656 z" />
  <path
     style="fill:#efefef;fill-rule:evenodd"
     inkscape:connector-curvature="0"
     id="path211"
     d="m 308.99147,30.91759 h -16.12598 v 15.24409 h 16.12598 z" />
  <path
     style="fill:#eeeeee;fill-rule:evenodd"
     inkscape:connector-curvature="0"
     id="path213"
     d="m 114.39327,31.79659 h -13.6413 c -1.88345,0 -3.4103,3.58466 -3.4103,8.00656 0,4.42191 1.52685,8.00656 3.4103,8.00656 h 13.6413 v 0 c 1.88348,0 3.41034,-3.58465 3.41034,-8.00656 0,-4.4219 -1.52686,-8.00656 -3.41034,-8.00656 z" />
  <path
     style="fill:#000000;fill-opacity:0;fill-rule:evenodd"
     inkscape:connector-curvature="0"
     id="path215"
     d="m 100.75197,47.80971 c 1.88348,0 3.41034,-3.58466 3.41034,-8.00656 0,-4.42191 -1.52686,-8.00656 -3.41034,-8.00656" />
  <path
     style="fill:#000000;fill-opacity:0;fill-rule:evenodd"
     inkscape:connector-curvature="0"
     id="path217"
     d="m 114.39327,31.79659 h -13.6413 c -1.88345,0 -3.4103,3.58466 -3.4103,8.00656 0,4.42191 1.52685,8.00656 3.4103,8.00656 h 13.6413 v 0 c 1.88348,0 3.41034,-3.58465 3.41034,-8.00656 0,-4.4219 -1.52686,-8.00656 -3.41034,-8.00656 z" />
  <path
     style="fill-rule:evenodd;stroke:#595959;stroke-width:1;stroke-linecap:butt;stroke-linejoin:round"
     inkscape:connector-curvature="0"
     id="path219"
     d="m 100.75197,47.80971 c 1.88348,0 3.41034,-3.58466 3.41034,-8.00656 0,-4.42191 -1.52686,-8.00656 -3.41034,-8.00656" />
  <path
     style="fill-rule:evenodd;stroke:#595959;stroke-width:1;stroke-linecap:butt;stroke-linejoin:round"
     inkscape:connector-curvature="0"
     id="path221"
     d="m 114.39327,31.79659 h -13.6413 c -1.88345,0 -3.4103,3.58466 -3.4103,8.00656 0,4.42191 1.52685,8.00656 3.4103,8.00656 h 13.6413 v 0 c 1.88348,0 3.41034,-3.58465 3.41034,-8.00656 0,-4.4219 -1.52686,-8.00656 -3.41034,-8.00656 z" />
  <path
     style="fill:#d0e0e3;fill-rule:evenodd"
     inkscape:connector-curvature="0"
     id="path223"
     d="m 90.02364,26.20755 v 0 c 0,-5.84186 -4.73578,-10.57764 -10.57764,-10.57764 H 37.13671 v 0 c -2.80536,0 -5.49582,1.11443 -7.47953,3.09813 -1.9837,1.98369 -3.09811,4.67415 -3.09811,7.47951 v 94.43529 c 0,5.84186 4.73578,10.57764 10.57764,10.57764 H 79.446 c 5.84186,0 10.57764,-4.73578 10.57764,-10.57764 z" />
  <path
     style="fill-rule:evenodd;stroke:#000000;stroke-width:2;stroke-linecap:butt;stroke-linejoin:round"
     inkscape:connector-curvature="0"
     id="path225"
     d="m 90.02364,26.20755 v 0 c 0,-5.84186 -4.73578,-10.57764 -10.57764,-10.57764 H 37.13671 v 0 c -2.80536,0 -5.49582,1.11443 -7.47953,3.09813 -1.9837,1.98369 -3.09811,4.67415 -3.09811,7.47951 v 94.43529 c 0,5.84186 4.73578,10.57764 10.57764,10.57764 H 79.446 c 5.84186,0 10.57764,-4.73578 10.57764,-10.57764 z" />
  <path
     style="fill:#000000;fill-rule:nonzero"
     inkscape:connector-curvature="0"
     id="path227"
     d="m 46.61882,68.39519 q 0.9375,0 1.59375,0.25 0.65625,0.25 1.32813,0.79687 l -0.79688,0.9375 q -0.96875,-0.78125 -2.04687,-0.78125 -1.3125,0 -2.125,1.01563 -0.79688,1 -0.79688,3.25 0,2.17187 0.79688,3.20312 0.79687,1.03125 2.10937,1.03125 0.6875,0 1.1875,-0.21875 0.5,-0.23437 1.07813,-0.65625 l 0.71875,0.92188 q -0.5,0.51562 -1.26563,0.85937 -0.76562,0.32813 -1.76562,0.32813 -1.28125,0 -2.28125,-0.64063 -1,-0.64062 -1.5625,-1.875 -0.5625,-1.23437 -0.5625,-2.95312 0,-1.73438 0.57812,-2.96875 0.59375,-1.23438 1.57813,-1.85938 1,-0.64062 2.23437,-0.64062 z m 7.5271,2.48437 q 1.70312,0 2.64062,1.14063 0.95313,1.125 0.95313,3.07812 0,1.25 -0.4375,2.21875 -0.42188,0.95313 -1.23438,1.48438 -0.8125,0.53125 -1.9375,0.53125 -1.6875,0 -2.64062,-1.125 -0.95313,-1.14063 -0.95313,-3.09375 0,-1.25 0.42188,-2.20313 0.4375,-0.96875 1.25,-1.5 0.8125,-0.53125 1.9375,-0.53125 z m 0,1.14063 q -2.09375,0 -2.09375,3.09375 0,3.07812 2.07812,3.07812 2.09375,0 2.09375,-3.09375 0,-3.07812 -2.07812,-3.07812 z m 9.63916,-1.14063 q 1.54687,0 2.26562,1.10938 0.71875,1.10937 0.71875,3.10937 0,1.90625 -0.82812,3.07813 -0.82813,1.15625 -2.34375,1.15625 -1.35938,0 -2.125,-0.92188 v 3.82813 l -1.40625,0.17187 V 71.06706 h 1.21875 l 0.10937,1.09375 q 0.4375,-0.625 1.0625,-0.95312 0.625,-0.32813 1.32813,-0.32813 z m -0.53125,7.29688 q 2,0 2,-3.07813 0,-3.09375 -1.82813,-3.09375 -0.59375,0 -1.09375,0.35938 -0.48437,0.34375 -0.85937,0.89062 v 3.9375 q 0.3125,0.48438 0.76562,0.73438 0.46875,0.25 1.01563,0.25 z m 9.09045,1.01562 q -0.46875,1.40625 -1.32812,2.21875 -0.84375,0.82813 -2.42188,1 l -0.15625,-1.10937 q 0.79688,-0.14063 1.26563,-0.40625 0.48437,-0.25 0.76562,-0.65625 0.28125,-0.40625 0.53125,-1.09375 h -0.48437 l -2.70313,-8.07813 h 1.5 l 2.15625,7.04688 2.125,-7.04688 h 1.45313 z" />
  <path
     style="fill:#eeeeee;fill-rule:evenodd"
     inkscape:connector-curvature="0"
     id="path229"
     d="m 26.98754,65.41862 h -13.6413 c -1.88345,0 -3.4103,3.58467 -3.4103,8.00656 0,4.42191 1.52685,8.00656 3.4103,8.00656 h 13.6413 v 0 c 1.88348,0 3.41034,-3.58465 3.41034,-8.00656 0,-4.42189 -1.52686,-8.00656 -3.41034,-8.00656 z" />
  <path
     style="fill:#000000;fill-opacity:0;fill-rule:evenodd"
     inkscape:connector-curvature="0"
     id="path231"
     d="m 13.34624,81.43175 c 1.88348,0 3.41034,-3.58466 3.41034,-8.00656 0,-4.42189 -1.52686,-8.00656 -3.41034,-8.00656" />
  <path
     style="fill:#000000;fill-opacity:0;fill-rule:evenodd"
     inkscape:connector-curvature="0"
     id="path233"
     d="m 26.98754,65.41862 h -13.6413 c -1.88345,0 -3.4103,3.58467 -3.4103,8.00656 0,4.42191 1.52685,8.00656 3.4103,8.00656 h 13.6413 v 0 c 1.88348,0 3.41034,-3.58465 3.41034,-8.00656 0,-4.42189 -1.52686,-8.00656 -3.41034,-8.00656 z" />
  <path
     style="fill-rule:evenodd;stroke:#595959;stroke-width:1;stroke-linecap:butt;stroke-linejoin:round"
     inkscape:connector-curvature="0"
     id="path235"
     d="m 13.34624,81.43175 c 1.88348,0 3.41034,-3.58466 3.41034,-8.00656 0,-4.42189 -1.52686,-8.00656 -3.41034,-8.00656" />
  <path
     style="fill-rule:evenodd;stroke:#595959;stroke-width:1;stroke-linecap:butt;stroke-linejoin:round"
     inkscape:connector-curvature="0"
     id="path237"
     d="m 26.98754,65.41862 h -13.6413 c -1.88345,0 -3.4103,3.58467 -3.4103,8.00656 0,4.42191 1.52685,8.00656 3.4103,8.00656 h 13.6413 v 0 c 1.88348,0 3.41034,-3.58465 3.41034,-8.00656 0,-4.42189 -1.52686,-8.00656 -3.41034,-8.00656 z" />
  <path
     style="fill:#eeeeee;fill-rule:evenodd"
     inkscape:connector-curvature="0"
     id="path239"
     d="m 87.68636,31.79659 h 13.6413 c 1.88348,0 3.41034,3.58466 3.41034,8.00656 0,4.42191 -1.52686,8.00656 -3.41034,8.00656 h -13.6413 v 0 c -1.88345,0 -3.41031,-3.58465 -3.41031,-8.00656 0,-4.4219 1.52686,-8.00656 3.41031,-8.00656 z" />
  <path
     style="fill:#000000;fill-opacity:0;fill-rule:evenodd"
     inkscape:connector-curvature="0"
     id="path241"
     d="m 101.32766,47.80971 c -1.88345,0 -3.41031,-3.58466 -3.41031,-8.00656 0,-4.42191 1.52686,-8.00656 3.41031,-8.00656" />
  <path
     style="fill:#000000;fill-opacity:0;fill-rule:evenodd"
     inkscape:connector-curvature="0"
     id="path243"
     d="m 87.68636,31.79659 h 13.6413 c 1.88348,0 3.41034,3.58466 3.41034,8.00656 0,4.42191 -1.52686,8.00656 -3.41034,8.00656 h -13.6413 v 0 c -1.88345,0 -3.41031,-3.58465 -3.41031,-8.00656 0,-4.4219 1.52686,-8.00656 3.41031,-8.00656 z" />
  <path
     style="fill-rule:evenodd;stroke:#595959;stroke-width:1;stroke-linecap:butt;stroke-linejoin:round"
     inkscape:connector-curvature="0"
     id="path245"
     d="m 101.32766,47.80971 c -1.88345,0 -3.41031,-3.58466 -3.41031,-8.00656 0,-4.42191 1.52686,-8.00656 3.41031,-8.00656" />
  <path
     style="fill-rule:evenodd;stroke:#595959;stroke-width:1;stroke-linecap:butt;stroke-linejoin:round"
     inkscape:connector-curvature="0"
     id="path247"
     d="m 87.68636,31.79659 h 13.6413 c 1.88348,0 3.41034,3.58466 3.41034,8.00656 0,4.42191 -1.52686,8.00656 -3.41034,8.00656 h -13.6413 v 0 c -1.88345,0 -3.41031,-3.58465 -3.41031,-8.00656 0,-4.4219 1.52686,-8.00656 3.41031,-8.00656 z" />
  <path
     style="fill:#efefef;fill-rule:evenodd"
     inkscape:connector-curvature="0"
     id="path249"
     d="M 109.82198,32.15222 H 93.696 v 15.24409 h 16.12598 z" />
  <path
     style="fill:#eeeeee;fill-rule:evenodd"
     inkscape:connector-curvature="0"
     id="path251"
     d="m 113.86834,99.05116 h -13.6413 c -1.88345,0 -3.4103,3.58469 -3.4103,8.00656 0,4.42191 1.52685,8.00656 3.4103,8.00656 h 13.6413 v 0 c 1.88348,0 3.41034,-3.58465 3.41034,-8.00656 0,-4.42187 -1.52686,-8.00656 -3.41034,-8.00656 z" />
  <path
     style="fill:#000000;fill-opacity:0;fill-rule:evenodd"
     inkscape:connector-curvature="0"
     id="path253"
     d="m 100.22704,115.06429 c 1.88348,0 3.41034,-3.58466 3.41034,-8.00656 0,-4.42188 -1.52686,-8.00656 -3.41034,-8.00656" />
  <path
     style="fill:#000000;fill-opacity:0;fill-rule:evenodd"
     inkscape:connector-curvature="0"
     id="path255"
     d="m 113.86834,99.05116 h -13.6413 c -1.88345,0 -3.4103,3.58469 -3.4103,8.00656 0,4.42191 1.52685,8.00656 3.4103,8.00656 h 13.6413 v 0 c 1.88348,0 3.41034,-3.58465 3.41034,-8.00656 0,-4.42187 -1.52686,-8.00656 -3.41034,-8.00656 z" />
  <path
     style="fill-rule:evenodd;stroke:#595959;stroke-width:1;stroke-linecap:butt;stroke-linejoin:round"
     inkscape:connector-curvature="0"
     id="path257"
     d="m 100.22704,115.06429 c 1.88348,0 3.41034,-3.58466 3.41034,-8.00656 0,-4.42188 -1.52686,-8.00656 -3.41034,-8.00656" />
  <path
     style="fill-rule:evenodd;stroke:#595959;stroke-width:1;stroke-linecap:butt;stroke-linejoin:round"
     inkscape:connector-curvature="0"
     id="path259"
     d="m 113.86834,99.05116 h -13.6413 c -1.88345,0 -3.4103,3.58469 -3.4103,8.00656 0,4.42191 1.52685,8.00656 3.4103,8.00656 h 13.6413 v 0 c 1.88348,0 3.41034,-3.58465 3.41034,-8.00656 0,-4.42187 -1.52686,-8.00656 -3.41034,-8.00656 z" />
  <path
     style="fill:#eeeeee;fill-rule:evenodd"
     inkscape:connector-curvature="0"
     id="path261"
     d="m 87.16142,99.05116 h 13.6413 c 1.88348,0 3.41034,3.58469 3.41034,8.00656 0,4.42191 -1.52686,8.00656 -3.41034,8.00656 h -13.6413 v 0 c -1.88345,0 -3.41031,-3.58465 -3.41031,-8.00656 0,-4.42187 1.52686,-8.00656 3.41031,-8.00656 z" />
  <path
     style="fill:#000000;fill-opacity:0;fill-rule:evenodd"
     inkscape:connector-curvature="0"
     id="path263"
     d="m 100.80272,115.06429 c -1.88345,0 -3.41031,-3.58466 -3.41031,-8.00656 0,-4.42188 1.52686,-8.00656 3.41031,-8.00656" />
  <path
     style="fill:#000000;fill-opacity:0;fill-rule:evenodd"
     inkscape:connector-curvature="0"
     id="path265"
     d="m 87.16142,99.05116 h 13.6413 c 1.88348,0 3.41034,3.58469 3.41034,8.00656 0,4.42191 -1.52686,8.00656 -3.41034,8.00656 h -13.6413 v 0 c -1.88345,0 -3.41031,-3.58465 -3.41031,-8.00656 0,-4.42187 1.52686,-8.00656 3.41031,-8.00656 z" />
  <path
     style="fill-rule:evenodd;stroke:#595959;stroke-width:1;stroke-linecap:butt;stroke-linejoin:round"
     inkscape:connector-curvature="0"
     id="path267"
     d="m 100.80272,115.06429 c -1.88345,0 -3.41031,-3.58466 -3.41031,-8.00656 0,-4.42188 1.52686,-8.00656 3.41031,-8.00656" />
  <path
     style="fill-rule:evenodd;stroke:#595959;stroke-width:1;stroke-linecap:butt;stroke-linejoin:round"
     inkscape:connector-curvature="0"
     id="path269"
     d="m 87.16142,99.05116 h 13.6413 c 1.88348,0 3.41034,3.58469 3.41034,8.00656 0,4.42191 -1.52686,8.00656 -3.41034,8.00656 h -13.6413 v 0 c -1.88345,0 -3.41031,-3.58465 -3.41031,-8.00656 0,-4.42187 1.52686,-8.00656 3.41031,-8.00656 z" />
  <path
     style="fill:#efefef;fill-rule:evenodd"
     inkscape:connector-curvature="0"
     id="path271"
     d="M 109.29705,99.40681 H 93.17107 v 15.24411 h 16.12598 z" />
</svg>
