<?xml version="1.0" encoding="UTF-8" standalone="no"?>
<svg
   xmlns:dc="http://purl.org/dc/elements/1.1/"
   xmlns:cc="http://creativecommons.org/ns#"
   xmlns:rdf="http://www.w3.org/1999/02/22-rdf-syntax-ns#"
   xmlns:svg="http://www.w3.org/2000/svg"
   xmlns="http://www.w3.org/2000/svg"
   xmlns:sodipodi="http://sodipodi.sourceforge.net/DTD/sodipodi-0.dtd"
   xmlns:inkscape="http://www.inkscape.org/namespaces/inkscape"
   version="1.1"
   viewBox="0 0 648.51971 251.62791"
   stroke-miterlimit="10"
   id="svg129"
   sodipodi:docname="mlr3Pipelines graphics user 2019.svg"
   width="648.51971"
   height="251.62791"
   style="fill:none;stroke:none;stroke-linecap:square;stroke-miterlimit:10"
   inkscape:version="0.92.4 5da689c313, 2019-01-14">
  <metadata
     id="metadata135">
    <rdf:RDF>
      <cc:Work
         rdf:about="">
        <dc:format>image/svg+xml</dc:format>
        <dc:type
           rdf:resource="http://purl.org/dc/dcmitype/StillImage" />
        <dc:title></dc:title>
      </cc:Work>
    </rdf:RDF>
  </metadata>
  <defs
     id="defs133" />
  <sodipodi:namedview
     pagecolor="#ffffff"
     bordercolor="#666666"
     borderopacity="1"
     objecttolerance="10"
     gridtolerance="10"
     guidetolerance="10"
     inkscape:pageopacity="0"
     inkscape:pageshadow="2"
     inkscape:window-width="2560"
     inkscape:window-height="1381"
     id="namedview131"
     showgrid="false"
     fit-margin-top="0"
     fit-margin-left="0"
     fit-margin-right="0"
     fit-margin-bottom="0"
     inkscape:zoom="0.396875"
     inkscape:cx="316.77953"
     inkscape:cy="125.81369"
     inkscape:window-x="0"
     inkscape:window-y="0"
     inkscape:window-maximized="1"
     inkscape:current-layer="svg129" />
  <clipPath
     id="g5cc48913b2_1_63.0">
    <path
       d="M 0,0 H 960 V 540 H 0 Z"
       id="path2"
       inkscape:connector-curvature="0"
       style="clip-rule:nonzero" />
  </clipPath>
  <path
     style="fill:#000000;fill-opacity:0;fill-rule:evenodd"
     inkscape:connector-curvature="0"
     id="path5"
     d="m -163.22047,-144.18578 h 960 v 540 h -960 z" />
  <path
     style="fill:#d0e0e3;fill-rule:evenodd"
     inkscape:connector-curvature="0"
     id="path7"
     d="m 355.22513,38.36596 v 0 c 0,-4.45026 3.60761,-8.05789 8.05786,-8.05789 h 92.04169 c 2.13709,0 4.18665,0.84895 5.69782,2.36011 1.51117,1.51113 2.3601,3.56069 2.3601,5.69778 v 32.23065 c 0,4.45026 -3.60766,8.05791 -8.05792,8.05791 h -92.04169 c -4.45025,0 -8.05786,-3.60765 -8.05786,-8.05791 z" />
  <path
     style="fill-rule:evenodd;stroke:#000000;stroke-width:2;stroke-linecap:butt;stroke-linejoin:round"
     inkscape:connector-curvature="0"
     id="path9"
     d="m 355.22513,38.36596 v 0 c 0,-4.45026 3.60761,-8.05789 8.05786,-8.05789 h 92.04169 c 2.13709,0 4.18665,0.84895 5.69782,2.36011 1.51117,1.51113 2.3601,3.56069 2.3601,5.69778 v 32.23065 c 0,4.45026 -3.60766,8.05791 -8.05792,8.05791 h -92.04169 c -4.45025,0 -8.05786,-3.60765 -8.05786,-8.05791 z" />
  <path
     style="fill:#000000;fill-rule:nonzero"
     inkscape:connector-curvature="0"
     id="path11"
     d="m 388.70488,49.45129 q 1.0625,0 1.8125,0.3125 0.75,0.29687 1.45312,0.92187 l -0.79687,0.89063 q -0.59375,-0.48438 -1.17188,-0.70313 -0.57812,-0.21875 -1.23437,-0.21875 -0.82813,0 -1.375,0.39063 -0.53125,0.375 -0.53125,1.10937 0,0.45313 0.1875,0.78125 0.1875,0.3125 0.67187,0.57813 0.5,0.25 1.45313,0.54687 1,0.29688 1.65625,0.65625 0.65625,0.34375 1.0625,0.96875 0.40625,0.625 0.40625,1.57813 0,0.92187 -0.45313,1.625 -0.4375,0.70312 -1.29687,1.10937 -0.84375,0.39063 -2.01563,0.39063 -2.1875,0 -3.57812,-1.375 l 0.79687,-0.875 q 0.64063,0.51562 1.29688,0.78125 0.65625,0.26562 1.46875,0.26562 0.98437,0 1.625,-0.48437 0.64062,-0.48438 0.64062,-1.39063 0,-0.53125 -0.20312,-0.875 -0.1875,-0.34375 -0.67188,-0.60937 -0.48437,-0.28125 -1.40625,-0.5625 -1.625,-0.48438 -2.375,-1.17188 -0.75,-0.70312 -0.75,-1.875 0,-0.79687 0.42188,-1.42187 0.42187,-0.64063 1.17187,-0.98438 0.76563,-0.35937 1.73438,-0.35937 z m 8.61951,2.48437 q 0.71875,0 1.3125,0.21875 0.59375,0.20313 1.14062,0.65625 l -0.67187,0.89063 q -0.42188,-0.3125 -0.82813,-0.45313 -0.40625,-0.14062 -0.90625,-0.14062 -0.96875,0 -1.51562,0.78125 -0.54688,0.78125 -0.54688,2.3125 0,1.53125 0.53125,2.26562 0.54688,0.71875 1.53125,0.71875 0.48438,0 0.875,-0.14062 0.40625,-0.14063 0.89063,-0.46875 l 0.64062,0.92187 q -1.09375,0.89063 -2.45312,0.89063 -1.64063,0 -2.59375,-1.09375 -0.9375,-1.10938 -0.9375,-3.0625 0,-1.28125 0.42187,-2.25 0.4375,-0.96875 1.21875,-1.5 0.79688,-0.54688 1.89063,-0.54688 z m 9.6579,6.375 q 0,0.5 0.17187,0.73438 0.17188,0.23437 0.51563,0.35937 l -0.32813,0.98438 q -0.625,-0.0781 -1.01562,-0.34375 -0.375,-0.28125 -0.5625,-0.875 -0.8125,1.21875 -2.40625,1.21875 -1.20313,0 -1.89063,-0.67188 -0.6875,-0.6875 -0.6875,-1.76562 0,-1.29688 0.92188,-1.98438 0.9375,-0.6875 2.64062,-0.6875 h 1.23438 v -0.59375 q 0,-0.85937 -0.42188,-1.21875 -0.40625,-0.375 -1.26562,-0.375 -0.89063,0 -2.17188,0.42188 l -0.35937,-1.01563 q 1.51562,-0.5625 2.79687,-0.5625 1.42188,0 2.125,0.70313 0.70313,0.70312 0.70313,1.98437 z m -3.29688,1.01563 q 1.20313,0 1.89063,-1.25 v -1.85938 h -1.04688 q -2.25,0 -2.25,1.65625 0,0.71875 0.34375,1.09375 0.35938,0.35938 1.0625,0.35938 z m 7.65393,1.0625 q -0.78125,0 -1.23437,-0.46875 -0.45313,-0.46875 -0.45313,-1.3125 v -9.73438 l 1.42188,-0.17187 v 9.875 q 0,0.34375 0.10937,0.5 0.10938,0.14062 0.39063,0.14062 0.29687,0 0.51562,-0.0937 l 0.375,0.98438 q -0.51562,0.28125 -1.125,0.28125 z m 4.28803,-8.26563 v 8.07813 h -1.40625 v -8.07813 z m -0.70313,-3.875 q 0.4375,0 0.71875,0.28125 0.28125,0.26563 0.28125,0.6875 0,0.40625 -0.28125,0.67188 -0.28125,0.26562 -0.71875,0.26562 -0.4375,0 -0.71875,-0.26562 -0.26562,-0.26563 -0.26562,-0.67188 0,-0.42187 0.26562,-0.6875 0.28125,-0.28125 0.71875,-0.28125 z m 7.41632,3.6875 q 1.10938,0 1.73438,0.67188 0.625,0.65625 0.625,1.79687 v 5.79688 h -1.42188 v -5.59375 q 0,-0.85938 -0.32812,-1.20313 -0.3125,-0.35937 -0.9375,-0.35937 -0.64063,0 -1.14063,0.375 -0.48437,0.35937 -0.92187,1.04687 v 5.73438 h -1.40625 v -8.07813 h 1.21875 l 0.125,1.20313 q 0.42187,-0.65625 1.04687,-1.01563 0.64063,-0.375 1.40625,-0.375 z m 11.70105,0.5625 q -0.45312,0.14063 -1.01562,0.1875 -0.54688,0.0469 -1.34375,0.0469 1.42187,0.64062 1.42187,2.04687 0,1.20313 -0.82812,1.96875 -0.82813,0.76563 -2.25,0.76563 -0.54688,0 -1.03125,-0.14063 -0.17188,0.10938 -0.28125,0.32813 -0.10938,0.20312 -0.10938,0.42187 0,0.65625 1.0625,0.65625 h 1.28125 q 0.8125,0 1.4375,0.29688 0.625,0.28125 0.96875,0.79687 0.35938,0.5 0.35938,1.14063 0,1.1875 -0.96875,1.8125 -0.96875,0.64062 -2.82813,0.64062 -1.29687,0 -2.0625,-0.26562 -0.75,-0.26563 -1.07812,-0.8125 -0.3125,-0.53125 -0.3125,-1.375 h 1.26562 q 0,0.48437 0.17188,0.76562 0.1875,0.29688 0.65625,0.4375 0.48437,0.14063 1.35937,0.14063 1.28125,0 1.8125,-0.3125 0.54688,-0.3125 0.54688,-0.9375 0,-0.5625 -0.4375,-0.85938 -0.42188,-0.29687 -1.1875,-0.29687 h -1.26563 q -1.03125,0 -1.5625,-0.4375 -0.53125,-0.4375 -0.53125,-1.09375 0,-0.39063 0.23438,-0.75 0.23437,-0.375 0.65625,-0.67188 -0.70313,-0.375 -1.03125,-0.90625 -0.32813,-0.54687 -0.32813,-1.32812 0,-0.8125 0.40625,-1.45313 0.40625,-0.65625 1.10938,-1.01562 0.71875,-0.35938 1.59375,-0.35938 0.95312,0.0156 1.59375,-0.0625 0.64062,-0.0937 1.0625,-0.23437 0.42187,-0.14063 1.04687,-0.42188 z m -4.10937,0.45313 q -0.79688,0 -1.23438,0.5 -0.4375,0.5 -0.4375,1.3125 0,0.82812 0.4375,1.32812 0.45313,0.48438 1.26563,0.48438 0.82812,0 1.26562,-0.46875 0.4375,-0.48438 0.4375,-1.35938 0,-1.79687 -1.73437,-1.79687 z" />
  <path
     style="fill:#d0e0e3;fill-rule:evenodd"
     inkscape:connector-curvature="0"
     id="path13"
     d="m 355.2257,148.0876 v 0 c 0,-9.95581 8.0708,-18.02661 18.02661,-18.02661 h 72.10431 v 0 c 4.78095,0 9.36609,1.89923 12.74671,5.27988 3.38067,3.38064 5.2799,7.96579 5.2799,12.74673 v 84.5137 c 0,9.95584 -8.0708,18.02661 -18.02661,18.02661 h -72.10431 c -9.95581,0 -18.02661,-8.07077 -18.02661,-18.02661 z" />
  <path
     style="fill-rule:evenodd;stroke:#000000;stroke-width:2;stroke-linecap:butt;stroke-linejoin:round"
     inkscape:connector-curvature="0"
     id="path15"
     d="m 355.2257,148.0876 v 0 c 0,-9.95581 8.0708,-18.02661 18.02661,-18.02661 h 72.10431 v 0 c 4.78095,0 9.36609,1.89923 12.74671,5.27988 3.38067,3.38064 5.2799,7.96579 5.2799,12.74673 v 84.5137 c 0,9.95584 -8.0708,18.02661 -18.02661,18.02661 h -72.10431 c -9.95581,0 -18.02661,-8.07077 -18.02661,-18.02661 z" />
  <path
     style="fill:#000000;fill-rule:nonzero"
     inkscape:connector-curvature="0"
     id="path17"
     d="m 388.70549,149.31446 q 1.0625,0 1.8125,0.3125 0.75,0.29688 1.45313,0.92188 l -0.79688,0.89062 q -0.59375,-0.48437 -1.17187,-0.70312 -0.57813,-0.21875 -1.23438,-0.21875 -0.82812,0 -1.375,0.39062 -0.53125,0.375 -0.53125,1.10938 0,0.45312 0.1875,0.78125 0.1875,0.3125 0.67188,0.57812 0.5,0.25 1.45312,0.54688 1,0.29687 1.65625,0.65625 0.65625,0.34375 1.0625,0.96875 0.40625,0.625 0.40625,1.57812 0,0.92188 -0.45312,1.625 -0.4375,0.70313 -1.29688,1.10938 -0.84375,0.39062 -2.01562,0.39062 -2.1875,0 -3.57813,-1.375 l 0.79688,-0.875 q 0.64062,0.51563 1.29687,0.78125 0.65625,0.26563 1.46875,0.26563 0.98438,0 1.625,-0.48438 0.64063,-0.48437 0.64063,-1.39062 0,-0.53125 -0.20313,-0.875 -0.1875,-0.34375 -0.67187,-0.60938 -0.48438,-0.28125 -1.40625,-0.5625 -1.625,-0.48437 -2.375,-1.17187 -0.75,-0.70313 -0.75,-1.875 0,-0.79688 0.42187,-1.42188 0.42188,-0.64062 1.17188,-0.98437 0.76562,-0.35938 1.73437,-0.35938 z m 8.61945,2.48438 q 0.71875,0 1.3125,0.21875 0.59375,0.20312 1.14062,0.65625 l -0.67187,0.89062 q -0.42188,-0.3125 -0.82813,-0.45312 -0.40625,-0.14063 -0.90625,-0.14063 -0.96875,0 -1.51562,0.78125 -0.54688,0.78125 -0.54688,2.3125 0,1.53125 0.53125,2.26563 0.54688,0.71875 1.53125,0.71875 0.48438,0 0.875,-0.14063 0.40625,-0.14062 0.89063,-0.46875 l 0.64062,0.92188 q -1.09375,0.89062 -2.45312,0.89062 -1.64063,0 -2.59375,-1.09375 -0.9375,-1.10937 -0.9375,-3.0625 0,-1.28125 0.42187,-2.25 0.4375,-0.96875 1.21875,-1.5 0.79688,-0.54687 1.89063,-0.54687 z m 9.65789,6.375 q 0,0.5 0.17188,0.73437 0.17187,0.23438 0.51562,0.35938 l -0.32812,0.98437 q -0.625,-0.0781 -1.01563,-0.34375 -0.375,-0.28125 -0.5625,-0.875 -0.8125,1.21875 -2.40625,1.21875 -1.20312,0 -1.89062,-0.67187 -0.6875,-0.6875 -0.6875,-1.76563 0,-1.29687 0.92187,-1.98437 0.9375,-0.6875 2.64063,-0.6875 h 1.23437 v -0.59375 q 0,-0.85938 -0.42187,-1.21875 -0.40625,-0.375 -1.26563,-0.375 -0.89062,0 -2.17187,0.42187 l -0.35938,-1.01562 q 1.51563,-0.5625 2.79688,-0.5625 1.42187,0 2.125,0.70312 0.70312,0.70313 0.70312,1.98438 z m -3.29687,1.01562 q 1.20312,0 1.89062,-1.25 v -1.85937 h -1.04687 q -2.25,0 -2.25,1.65625 0,0.71875 0.34375,1.09375 0.35937,0.35937 1.0625,0.35937 z m 7.65399,1.0625 q -0.78125,0 -1.23437,-0.46875 -0.45313,-0.46875 -0.45313,-1.3125 v -9.73437 l 1.42188,-0.17188 v 9.875 q 0,0.34375 0.10937,0.5 0.10938,0.14063 0.39063,0.14063 0.29687,0 0.51562,-0.0937 l 0.375,0.98437 q -0.51562,0.28125 -1.125,0.28125 z m 4.28803,-8.26562 v 8.07812 h -1.40625 v -8.07812 z m -0.70313,-3.875 q 0.4375,0 0.71875,0.28125 0.28125,0.26562 0.28125,0.6875 0,0.40625 -0.28125,0.67187 -0.28125,0.26563 -0.71875,0.26563 -0.4375,0 -0.71875,-0.26563 -0.26562,-0.26562 -0.26562,-0.67187 0,-0.42188 0.26562,-0.6875 0.28125,-0.28125 0.71875,-0.28125 z m 7.41626,3.6875 q 1.10938,0 1.73438,0.67187 0.625,0.65625 0.625,1.79688 v 5.79687 h -1.42188 v -5.59375 q 0,-0.85937 -0.32812,-1.20312 -0.3125,-0.35938 -0.9375,-0.35938 -0.64063,0 -1.14063,0.375 -0.48437,0.35938 -0.92187,1.04688 v 5.73437 h -1.40625 v -8.07812 h 1.21875 l 0.125,1.20312 q 0.42187,-0.65625 1.04687,-1.01562 0.64063,-0.375 1.40625,-0.375 z m 11.70105,0.5625 q -0.45312,0.14062 -1.01562,0.1875 -0.54688,0.0469 -1.34375,0.0469 1.42187,0.64063 1.42187,2.04688 0,1.20312 -0.82812,1.96875 -0.82813,0.76562 -2.25,0.76562 -0.54688,0 -1.03125,-0.14062 -0.17188,0.10937 -0.28125,0.32812 -0.10938,0.20313 -0.10938,0.42188 0,0.65625 1.0625,0.65625 h 1.28125 q 0.8125,0 1.4375,0.29687 0.625,0.28125 0.96875,0.79688 0.35938,0.5 0.35938,1.14062 0,1.1875 -0.96875,1.8125 -0.96875,0.64063 -2.82813,0.64063 -1.29687,0 -2.0625,-0.26563 -0.75,-0.26562 -1.07812,-0.8125 -0.3125,-0.53125 -0.3125,-1.375 h 1.26562 q 0,0.48438 0.17188,0.76563 0.1875,0.29687 0.65625,0.4375 0.48437,0.14062 1.35937,0.14062 1.28125,0 1.8125,-0.3125 0.54688,-0.3125 0.54688,-0.9375 0,-0.5625 -0.4375,-0.85937 -0.42188,-0.29688 -1.1875,-0.29688 h -1.26563 q -1.03125,0 -1.5625,-0.4375 -0.53125,-0.4375 -0.53125,-1.09375 0,-0.39062 0.23438,-0.75 0.23437,-0.375 0.65625,-0.67187 -0.70313,-0.375 -1.03125,-0.90625 -0.32813,-0.54688 -0.32813,-1.32813 0,-0.8125 0.40625,-1.45312 0.40625,-0.65625 1.10938,-1.01563 0.71875,-0.35937 1.59375,-0.35937 0.95312,0.0156 1.59375,-0.0625 0.64062,-0.0937 1.0625,-0.23438 0.42187,-0.14062 1.04687,-0.42187 z m -4.10937,0.45312 q -0.79688,0 -1.23438,0.5 -0.4375,0.5 -0.4375,1.3125 0,0.82813 0.4375,1.32813 0.45313,0.48437 1.26563,0.48437 0.82812,0 1.26562,-0.46875 0.4375,-0.48437 0.4375,-1.35937 0,-1.79688 -1.73437,-1.79688 z" />
  <path
     style="fill:#eeeeee;fill-rule:evenodd"
     inkscape:connector-curvature="0"
     id="path19"
     d="m 360.97373,191.3105 v 0 c 0,-6.21295 5.03662,-11.24957 11.24957,-11.24957 h 74.16229 c 2.98358,0 5.84491,1.18524 7.95465,3.29495 2.10968,2.10968 3.29493,4.97107 3.29493,7.95462 v 44.99695 c 0,6.21295 -5.03663,11.24954 -11.24958,11.24954 H 372.2233 c -6.21295,0 -11.24957,-5.03659 -11.24957,-11.24954 z" />
  <path
     style="fill-rule:evenodd;stroke:#595959;stroke-width:1;stroke-linecap:butt;stroke-linejoin:round"
     inkscape:connector-curvature="0"
     id="path21"
     d="m 360.97373,191.3105 v 0 c 0,-6.21295 5.03662,-11.24957 11.24957,-11.24957 h 74.16229 c 2.98358,0 5.84491,1.18524 7.95465,3.29495 2.10968,2.10968 3.29493,4.97107 3.29493,7.95462 v 44.99695 c 0,6.21295 -5.03663,11.24954 -11.24958,11.24954 H 372.2233 c -6.21295,0 -11.24957,-5.03659 -11.24957,-11.24954 z" />
  <path
     style="fill:#000000;fill-rule:nonzero"
     inkscape:connector-curvature="0"
     id="path23"
     d="m 384.85543,206.99772 1.375,-0.10938 q 0.0937,0.8125 0.4375,1.34375 0.35938,0.53125 1.10938,0.85938 0.75,0.32812 1.6875,0.32812 0.82812,0 1.46875,-0.25 0.64062,-0.25 0.9375,-0.67187 0.3125,-0.4375 0.3125,-0.95313 0,-0.51562 -0.29688,-0.89062 -0.29687,-0.39063 -0.98437,-0.65625 -0.4375,-0.17188 -1.95313,-0.53125 -1.51562,-0.35938 -2.10937,-0.6875 -0.79688,-0.40625 -1.1875,-1.01563 -0.375,-0.60937 -0.375,-1.375 0,-0.82812 0.46875,-1.54687 0.46875,-0.71875 1.375,-1.09375 0.90625,-0.375 2.01562,-0.375 1.21875,0 2.14063,0.39062 0.9375,0.39063 1.4375,1.15625 0.51562,0.76563 0.54687,1.73438 l -1.39062,0.0937 q -0.10938,-1.03125 -0.76563,-1.5625 -0.64062,-0.53125 -1.90625,-0.53125 -1.3125,0 -1.92187,0.48437 -0.60938,0.48438 -0.60938,1.15625 0,0.59375 0.4375,0.96875 0.42188,0.39063 2.1875,0.79688 1.76563,0.39062 2.42188,0.6875 0.96875,0.4375 1.42187,1.125 0.45313,0.67187 0.45313,1.5625 0,0.875 -0.5,1.65625 -0.5,0.76562 -1.4375,1.20312 -0.9375,0.42188 -2.125,0.42188 -1.48438,0 -2.5,-0.4375 -1,-0.4375 -1.57813,-1.29688 -0.5625,-0.875 -0.59375,-1.98437 z m 15.73938,0.625 1.3125,0.17187 q -0.20312,1.35938 -1.10937,2.14063 -0.89063,0.76562 -2.1875,0.76562 -1.64063,0 -2.64063,-1.0625 -0.98437,-1.0625 -0.98437,-3.04687 0,-1.29688 0.42187,-2.25 0.4375,-0.96875 1.3125,-1.45313 0.875,-0.48437 1.89063,-0.48437 1.29687,0 2.10937,0.65625 0.82813,0.65625 1.0625,1.85937 l -1.3125,0.20313 q -0.1875,-0.8125 -0.65625,-1.20313 -0.46875,-0.40625 -1.14062,-0.40625 -1.03125,0 -1.67188,0.73438 -0.625,0.71875 -0.625,2.29687 0,1.60938 0.60938,2.34375 0.60937,0.71875 1.60937,0.71875 0.78125,0 1.3125,-0.48437 0.54688,-0.5 0.6875,-1.5 z m 7.66406,1.92187 q -0.75,0.64063 -1.45312,0.90625 -0.6875,0.25 -1.48438,0.25 -1.3125,0 -2.01562,-0.625 -0.70313,-0.64062 -0.70313,-1.64062 0,-0.57813 0.26563,-1.0625 0.26562,-0.48438 0.70312,-0.78125 0.4375,-0.29688 0.96875,-0.4375 0.39063,-0.10938 1.20313,-0.20313 1.625,-0.20312 2.39062,-0.46875 0.0156,-0.28125 0.0156,-0.34375 0,-0.82812 -0.39063,-1.17187 -0.51562,-0.45313 -1.53125,-0.45313 -0.95312,0 -1.40625,0.34375 -0.45312,0.32813 -0.65625,1.17188 l -1.32812,-0.1875 q 0.1875,-0.84375 0.59375,-1.35938 0.40625,-0.51562 1.1875,-0.79687 0.78125,-0.28125 1.8125,-0.28125 1.01562,0 1.64062,0.23437 0.64063,0.23438 0.9375,0.60938 0.3125,0.35937 0.42188,0.90625 0.0781,0.34375 0.0781,1.25 v 1.79687 q 0,1.875 0.0781,2.375 0.0937,0.5 0.34375,0.95313 h -1.40625 q -0.21875,-0.42188 -0.26563,-0.98438 z m -0.125,-3 q -0.73437,0.29688 -2.1875,0.5 -0.84375,0.125 -1.1875,0.28125 -0.34375,0.14063 -0.53125,0.4375 -0.1875,0.28125 -0.1875,0.625 0,0.54688 0.40625,0.90625 0.42188,0.35938 1.20313,0.35938 0.78125,0 1.375,-0.34375 0.60937,-0.34375 0.90625,-0.92188 0.20312,-0.46875 0.20312,-1.35937 z m 3.43103,3.98438 v -10.96875 h 1.34375 v 10.96875 z m 3.43665,-9.42188 v -1.54687 h 1.34375 v 1.54687 z m 0,9.42188 v -7.95313 h 1.34375 v 7.95313 z m 3.40545,0 v -7.95313 h 1.20313 v 1.14063 q 0.875,-1.3125 2.53125,-1.3125 0.71875,0 1.3125,0.26562 0.60937,0.25 0.90625,0.67188 0.3125,0.42187 0.42187,0.98437 0.0781,0.375 0.0781,1.3125 v 4.89063 h -1.34375 v -4.82813 q 0,-0.82812 -0.15625,-1.23437 -0.15625,-0.40625 -0.5625,-0.64063 -0.40625,-0.25 -0.9375,-0.25 -0.85938,0 -1.48438,0.54688 -0.625,0.53125 -0.625,2.0625 v 4.34375 z m 8.27478,0.65625 1.3125,0.20312 q 0.0781,0.59375 0.45313,0.875 0.5,0.375 1.375,0.375 0.92187,0 1.4375,-0.375 0.51562,-0.375 0.6875,-1.04687 0.10937,-0.40625 0.0937,-1.73438 -0.875,1.04688 -2.20313,1.04688 -1.625,0 -2.53125,-1.17188 -0.89062,-1.1875 -0.89062,-2.84375 0,-1.14062 0.40625,-2.09375 0.40625,-0.96875 1.1875,-1.48437 0.78125,-0.53125 1.84375,-0.53125 1.40625,0 2.3125,1.14062 v -0.96875 h 1.25 v 6.875 q 0,1.85938 -0.375,2.625 -0.375,0.78125 -1.20313,1.21875 -0.8125,0.45313 -2.01562,0.45313 -1.42188,0 -2.29688,-0.64063 -0.875,-0.625 -0.84375,-1.92187 z m 1.10938,-4.76563 q 0,1.5625 0.625,2.28125 0.625,0.71875 1.5625,0.71875 0.92187,0 1.54687,-0.71875 0.625,-0.71875 0.625,-2.25 0,-1.45312 -0.64062,-2.1875 -0.64063,-0.75 -1.5625,-0.75 -0.89063,0 -1.53125,0.73438 -0.625,0.73437 -0.625,2.17187 z" />
  <path
     style="fill:#000000;fill-rule:nonzero"
     inkscape:connector-curvature="0"
     id="path25"
     d="m 385.00263,228.52897 v -10.96875 h 7.40625 v 1.29687 h -5.95312 v 3.39063 h 5.15625 v 1.29687 h -5.15625 v 4.98438 z m 14.31616,-0.98438 q -0.75,0.64063 -1.45312,0.90625 -0.6875,0.25 -1.48438,0.25 -1.3125,0 -2.01562,-0.625 -0.70313,-0.64062 -0.70313,-1.64062 0,-0.57813 0.26563,-1.0625 0.26562,-0.48438 0.70312,-0.78125 0.4375,-0.29688 0.96875,-0.4375 0.39063,-0.10938 1.20313,-0.20313 1.625,-0.20312 2.39062,-0.46875 0.0156,-0.28125 0.0156,-0.34375 0,-0.82812 -0.39063,-1.17187 -0.51562,-0.45313 -1.53125,-0.45313 -0.95312,0 -1.40625,0.34375 -0.45312,0.32813 -0.65625,1.17188 l -1.32812,-0.1875 q 0.1875,-0.84375 0.59375,-1.35938 0.40625,-0.51562 1.1875,-0.79687 0.78125,-0.28125 1.8125,-0.28125 1.01562,0 1.64062,0.23437 0.64063,0.23438 0.9375,0.60938 0.3125,0.35937 0.42188,0.90625 0.0781,0.34375 0.0781,1.25 v 1.79687 q 0,1.875 0.0781,2.375 0.0937,0.5 0.34375,0.95313 h -1.40625 q -0.21875,-0.42188 -0.26563,-0.98438 z m -0.125,-3 q -0.73437,0.29688 -2.1875,0.5 -0.84375,0.125 -1.1875,0.28125 -0.34375,0.14063 -0.53125,0.4375 -0.1875,0.28125 -0.1875,0.625 0,0.54688 0.40625,0.90625 0.42188,0.35938 1.20313,0.35938 0.78125,0 1.375,-0.34375 0.60937,-0.34375 0.90625,-0.92188 0.20312,-0.46875 0.20312,-1.35937 z m 8.64978,1.07813 1.3125,0.17187 q -0.20312,1.35938 -1.10937,2.14063 -0.89063,0.76562 -2.1875,0.76562 -1.64063,0 -2.64063,-1.0625 -0.98437,-1.0625 -0.98437,-3.04687 0,-1.29688 0.42187,-2.25 0.4375,-0.96875 1.3125,-1.45313 0.875,-0.48437 1.89063,-0.48437 1.29687,0 2.10937,0.65625 0.82813,0.65625 1.0625,1.85937 l -1.3125,0.20313 q -0.1875,-0.8125 -0.65625,-1.20313 -0.46875,-0.40625 -1.14062,-0.40625 -1.03125,0 -1.67188,0.73438 -0.625,0.71875 -0.625,2.29687 0,1.60938 0.60938,2.34375 0.60937,0.71875 1.60937,0.71875 0.78125,0 1.3125,-0.48437 0.54688,-0.5 0.6875,-1.5 z m 5.41406,1.70312 0.1875,1.1875 q -0.5625,0.125 -1.01562,0.125 -0.73438,0 -1.14063,-0.23437 -0.39062,-0.23438 -0.5625,-0.60938 -0.17187,-0.375 -0.17187,-1.59375 v -4.57812 h -0.98438 v -1.04688 h 0.98438 v -1.96875 l 1.34375,-0.79687 v 2.76562 h 1.35937 v 1.04688 h -1.35937 v 4.65625 q 0,0.57812 0.0625,0.75 0.0781,0.15625 0.23437,0.25 0.17188,0.0937 0.46875,0.0937 0.21875,0 0.59375,-0.0469 z m 0.82111,-2.76562 q 0,-2.21875 1.21875,-3.28125 1.03125,-0.875 2.5,-0.875 1.64063,0 2.67188,1.07812 1.04687,1.0625 1.04687,2.95313 0,1.54687 -0.46875,2.42187 -0.45312,0.875 -1.32812,1.35938 -0.875,0.48437 -1.92188,0.48437 -1.67187,0 -2.70312,-1.0625 -1.01563,-1.0625 -1.01563,-3.07812 z m 1.375,0 q 0,1.51562 0.65625,2.28125 0.67188,0.76562 1.6875,0.76562 1,0 1.67188,-0.76562 0.67187,-0.76563 0.67187,-2.32813 0,-1.48437 -0.67187,-2.23437 -0.67188,-0.76563 -1.67188,-0.76563 -1.01562,0 -1.6875,0.76563 -0.65625,0.75 -0.65625,2.28125 z m 7.63416,3.96875 v -7.95313 h 1.20312 v 1.20313 q 0.46875,-0.84375 0.85938,-1.10938 0.39062,-0.26562 0.85937,-0.26562 0.6875,0 1.39063,0.4375 l -0.46875,1.25 q -0.48438,-0.29688 -0.98438,-0.29688 -0.4375,0 -0.79687,0.26563 -0.34375,0.26562 -0.5,0.73437 -0.21875,0.71875 -0.21875,1.57813 v 4.15625 z m 4.57318,-2.375 1.32812,-0.20313 q 0.125,0.79688 0.625,1.23438 0.51563,0.42187 1.4375,0.42187 0.9375,0 1.375,-0.375 0.45313,-0.39062 0.45313,-0.89062 0,-0.46875 -0.39063,-0.71875 -0.28125,-0.1875 -1.375,-0.46875 -1.48437,-0.375 -2.0625,-0.64063 -0.57812,-0.26562 -0.875,-0.75 -0.28125,-0.48437 -0.28125,-1.07812 0,-0.53125 0.23438,-0.98438 0.25,-0.45312 0.67187,-0.75 0.3125,-0.23437 0.84375,-0.39062 0.54688,-0.15625 1.17188,-0.15625 0.9375,0 1.64062,0.26562 0.70313,0.26563 1.03125,0.73438 0.34375,0.45312 0.46875,1.23437 l -1.3125,0.17188 q -0.0937,-0.60938 -0.53125,-0.95313 -0.42187,-0.34375 -1.20312,-0.34375 -0.92188,0 -1.32813,0.3125 -0.39062,0.29688 -0.39062,0.70313 0,0.26562 0.15625,0.46875 0.17187,0.21875 0.51562,0.35937 0.20313,0.0781 1.20313,0.35938 1.42187,0.375 1.98437,0.625 0.5625,0.23437 0.89063,0.70312 0.32812,0.45313 0.32812,1.15625 0,0.67188 -0.40625,1.26563 -0.39062,0.59375 -1.125,0.92187 -0.73437,0.3125 -1.67187,0.3125 -1.5625,0 -2.375,-0.64062 -0.79688,-0.64063 -1.03125,-1.90625 z" />
  <path
     style="fill:#6d9eeb;fill-rule:evenodd"
     inkscape:connector-curvature="0"
     id="path27"
     d="m 168.85827,1 h 96.66141 v 102.96063 h -96.66141 z" />
  <path
     style="fill-rule:evenodd;stroke:#000000;stroke-width:2;stroke-linecap:butt;stroke-linejoin:round"
     inkscape:connector-curvature="0"
     id="path29"
     d="m 168.85827,1 h 96.66141 v 102.96063 h -96.66141 z" />
  <path
     style="fill:#000000;fill-rule:nonzero"
     inkscape:connector-curvature="0"
     id="path31"
     d="m 192.70673,35.54094 -0.1875,1.51562 h -3.5625 v 11.34375 h -1.76562 V 37.05656 h -3.65625 v -1.51562 z m 5.67905,2.79687 q 0.51562,0 0.96875,0.125 l -0.3125,1.67188 q -0.45313,-0.10938 -0.85938,-0.10938 -0.92187,0 -1.48437,0.67188 -0.54688,0.67187 -0.875,2.09375 v 5.60937 h -1.71875 v -9.82812 h 1.48437 l 0.17188,2 q 0.39062,-1.10938 1.0625,-1.67188 0.67187,-0.5625 1.5625,-0.5625 z m 8.89172,7.76563 q 0,0.59375 0.20313,0.89062 0.21875,0.28125 0.625,0.4375 l -0.39063,1.1875 q -0.76562,-0.0937 -1.23437,-0.42187 -0.46875,-0.34375 -0.6875,-1.04688 -1,1.46875 -2.9375,1.46875 -1.45313,0 -2.29688,-0.8125 -0.82812,-0.82812 -0.82812,-2.15625 0,-1.5625 1.125,-2.39062 1.125,-0.84375 3.20312,-0.84375 h 1.5 v -0.73438 q 0,-1.04687 -0.5,-1.48437 -0.5,-0.45313 -1.54687,-0.45313 -1.07813,0 -2.64063,0.51563 l -0.4375,-1.25 q 1.82813,-0.67188 3.39063,-0.67188 1.73437,0 2.59375,0.85938 0.85937,0.84375 0.85937,2.40625 z m -4.03125,1.23437 q 1.48438,0 2.3125,-1.53125 v -2.25 h -1.28125 q -2.71875,0 -2.71875,2.01563 0,0.875 0.42188,1.32812 0.4375,0.4375 1.26562,0.4375 z m 9.27399,-8.76562 v 9.82812 h -1.71875 v -9.82812 z m -0.85938,-4.71875 q 0.53125,0 0.85938,0.34375 0.34375,0.32812 0.34375,0.82812 0,0.5 -0.34375,0.82813 -0.32813,0.32812 -0.85938,0.32812 -0.53125,0 -0.875,-0.32812 -0.32812,-0.32813 -0.32812,-0.82813 0,-0.5 0.32812,-0.82812 0.34375,-0.34375 0.875,-0.34375 z m 9.04233,4.48437 q 1.34375,0 2.09375,0.8125 0.75,0.79688 0.75,2.20313 v 7.04687 h -1.71875 v -6.8125 q 0,-1.04687 -0.39062,-1.46875 -0.39063,-0.4375 -1.15625,-0.4375 -0.78125,0 -1.375,0.45313 -0.59375,0.45312 -1.125,1.28125 v 6.98437 h -1.71875 v -9.82812 h 1.48437 l 0.14063,1.45312 q 0.53125,-0.78125 1.29687,-1.23437 0.78125,-0.45313 1.71875,-0.45313 z m 8.01068,0.23438 v 9.82812 h -1.71875 v -9.82812 z m -0.85937,-4.71875 q 0.53125,0 0.85937,0.34375 0.34375,0.32812 0.34375,0.82812 0,0.5 -0.34375,0.82813 -0.32812,0.32812 -0.85937,0.32812 -0.53125,0 -0.875,-0.32812 -0.32813,-0.32813 -0.32813,-0.82813 0,-0.5 0.32813,-0.82812 0.34375,-0.34375 0.875,-0.34375 z m 9.04232,4.48437 q 1.34375,0 2.09375,0.8125 0.75,0.79688 0.75,2.20313 v 7.04687 h -1.71875 v -6.8125 q 0,-1.04687 -0.39062,-1.46875 -0.39063,-0.4375 -1.15625,-0.4375 -0.78125,0 -1.375,0.45313 -0.59375,0.45312 -1.125,1.28125 v 6.98437 h -1.71875 v -9.82812 h 1.48437 l 0.14063,1.45312 q 0.53125,-0.78125 1.29687,-1.23437 0.78125,-0.45313 1.71875,-0.45313 z m 14.22944,0.67188 q -0.5625,0.1875 -1.23438,0.25 -0.67187,0.0625 -1.64062,0.0625 1.73437,0.78125 1.73437,2.46875 0,1.48437 -1.01562,2.42187 -1,0.92188 -2.73438,0.92188 -0.67187,0 -1.25,-0.1875 -0.21875,0.15625 -0.35937,0.40625 -0.125,0.25 -0.125,0.51562 0,0.79688 1.28125,0.79688 h 1.57812 q 0.98438,0 1.75,0.35937 0.76563,0.34375 1.1875,0.96875 0.42188,0.60938 0.42188,1.39063 0,1.4375 -1.1875,2.20312 -1.17188,0.78125 -3.42188,0.78125 -1.59375,0 -2.51562,-0.32812 -0.92188,-0.3125 -1.3125,-0.96875 -0.39063,-0.65625 -0.39063,-1.6875 h 1.54688 q 0,0.59375 0.21875,0.9375 0.23437,0.35937 0.8125,0.53125 0.57812,0.17187 1.64062,0.17187 1.54688,0 2.20313,-0.39062 0.67187,-0.375 0.67187,-1.14063 0,-0.6875 -0.53125,-1.04687 -0.51562,-0.34375 -1.45312,-0.34375 h -1.54688 q -1.25,0 -1.89062,-0.53125 -0.64063,-0.53125 -0.64063,-1.34375 0,-0.48438 0.26563,-0.92188 0.28125,-0.45312 0.8125,-0.8125 -0.85938,-0.4375 -1.26563,-1.09375 -0.39062,-0.67187 -0.39062,-1.625 0,-0.98437 0.48437,-1.76562 0.5,-0.78125 1.35938,-1.21875 0.875,-0.45313 1.9375,-0.45313 1.15625,0.0312 1.9375,-0.0781 0.78125,-0.10938 1.29687,-0.28125 0.51563,-0.17188 1.26563,-0.51563 z m -5,0.5625 q -0.96875,0 -1.5,0.60937 -0.53125,0.60938 -0.53125,1.59375 0,1.01563 0.53125,1.625 0.54687,0.59375 1.53125,0.59375 1.01562,0 1.54687,-0.57812 0.53125,-0.59375 0.53125,-1.65625 0,-2.1875 -2.10937,-2.1875 z" />
  <path
     style="fill:#000000;fill-rule:nonzero"
     inkscape:connector-curvature="0"
     id="path33"
     d="m 202.37075,57.54094 q 2.92188,0 4.67188,1.35937 1.76562,1.34375 1.76562,5 0,3.57813 -1.76562,5.04688 -1.75,1.45312 -4.28125,1.45312 h -3.07813 V 57.54094 Z m -0.90625,1.42187 v 10.03125 h 1.4375 q 1.78125,0 2.90625,-1.09375 1.125,-1.09375 1.125,-4 0,-2.03125 -0.57812,-3.10937 -0.57813,-1.09375 -1.48438,-1.45313 -0.89062,-0.375 -2.10937,-0.375 z m 16.57797,9.14063 q 0,0.59375 0.20313,0.89062 0.21875,0.28125 0.625,0.4375 l -0.39063,1.1875 q -0.76562,-0.0937 -1.23437,-0.42187 -0.46875,-0.34375 -0.6875,-1.04688 -1,1.46875 -2.9375,1.46875 -1.45313,0 -2.29688,-0.8125 -0.82812,-0.82812 -0.82812,-2.15625 0,-1.5625 1.125,-2.39062 1.125,-0.84375 3.20312,-0.84375 h 1.5 v -0.73438 q 0,-1.04687 -0.5,-1.48437 -0.5,-0.45313 -1.54687,-0.45313 -1.07813,0 -2.64063,0.51563 l -0.4375,-1.25 q 1.82813,-0.67188 3.39063,-0.67188 1.73437,0 2.59375,0.85938 0.85937,0.84375 0.85937,2.40625 z m -4.03125,1.23437 q 1.48438,0 2.3125,-1.53125 v -2.25 h -1.28125 q -2.71875,0 -2.71875,2.01563 0,0.875 0.42188,1.32812 0.4375,0.4375 1.26562,0.4375 z m 12.52399,0.60938 q -0.96875,0.67187 -2.20313,0.67187 -1.25,0 -1.95312,-0.71875 -0.6875,-0.71875 -0.6875,-2.07812 v -5.92188 h -1.71875 v -1.32812 h 1.71875 v -2.21875 l 1.70312,-0.20313 v 2.42188 h 2.34375 l -0.1875,1.32812 h -2.15625 v 5.84375 q 0,0.76563 0.26563,1.125 0.28125,0.34375 0.92187,0.34375 0.57813,0 1.29688,-0.39062 z m 8.2605,-1.84375 q 0,0.59375 0.20312,0.89062 0.21875,0.28125 0.625,0.4375 l -0.39062,1.1875 q -0.76563,-0.0937 -1.23438,-0.42187 -0.46875,-0.34375 -0.6875,-1.04688 -1,1.46875 -2.9375,1.46875 -1.45312,0 -2.29687,-0.8125 -0.82813,-0.82812 -0.82813,-2.15625 0,-1.5625 1.125,-2.39062 1.125,-0.84375 3.20313,-0.84375 h 1.5 v -0.73438 q 0,-1.04687 -0.5,-1.48437 -0.5,-0.45313 -1.54688,-0.45313 -1.07812,0 -2.64062,0.51563 l -0.4375,-1.25 q 1.82812,-0.67188 3.39062,-0.67188 1.73438,0 2.59375,0.85938 0.85938,0.84375 0.85938,2.40625 z m -4.03125,1.23437 q 1.48437,0 2.3125,-1.53125 v -2.25 h -1.28125 q -2.71875,0 -2.71875,2.01563 0,0.875 0.42187,1.32812 0.4375,0.4375 1.26563,0.4375 z" />
  <path
     style="fill:#6d9eeb;fill-rule:evenodd"
     inkscape:connector-curvature="0"
     id="path35"
     d="m 168.85827,136.86352 h 96.66141 v 102.96063 h -96.66141 z" />
  <path
     style="fill-rule:evenodd;stroke:#000000;stroke-width:2;stroke-linecap:butt;stroke-linejoin:round"
     inkscape:connector-curvature="0"
     id="path37"
     d="m 168.85827,136.86352 h 96.66141 v 102.96063 h -96.66141 z" />
  <path
     style="fill:#000000;fill-rule:nonzero"
     inkscape:connector-curvature="0"
     id="path39"
     d="m 209.92077,184.26384 h -2.375 l -5.21875,-10.90625 q 0.10937,1.28125 0.17187,2.375 0.0781,1.09375 0.0781,2.64062 v 5.89063 h -1.67188 v -12.85938 h 2.3125 l 5.28125,10.9375 q -0.0469,-0.48437 -0.14062,-1.6875 -0.0937,-1.21875 -0.0937,-2.23437 v -7.01563 h 1.65625 z m 11.07034,-5.20313 q 0,0.42188 -0.0469,0.875 h -6.26563 q 0.10938,1.625 0.8125,2.39063 0.71875,0.76562 1.84375,0.76562 0.70313,0 1.29688,-0.20312 0.59375,-0.20313 1.25,-0.65625 l 0.75,1.03125 q -1.5625,1.21875 -3.4375,1.21875 -2.04688,0 -3.20313,-1.34375 -1.14062,-1.34375 -1.14062,-3.6875 0,-1.53125 0.48437,-2.71875 0.5,-1.1875 1.42188,-1.85938 0.9375,-0.67187 2.1875,-0.67187 1.95312,0 3,1.29687 1.04687,1.28125 1.04687,3.5625 z m -1.70312,-0.5 q 0,-1.45312 -0.57813,-2.21875 -0.57812,-0.76562 -1.73437,-0.76562 -2.10938,0 -2.29688,3.09375 h 4.60938 z m 15.66766,-4.125 -2.23437,9.82813 h -2.32813 l -1.71875,-8.28125 -1.78125,8.28125 h -2.26562 l -2.29688,-9.82813 h 1.71875 l 1.76563,8.64063 1.9375,-8.64063 h 1.92187 l 1.85938,8.64063 1.78125,-8.64063 z" />
  <path
     style="fill:#000000;fill-rule:nonzero"
     inkscape:connector-curvature="0"
     id="path41"
     d="m 202.37075,193.40446 q 2.92188,0 4.67188,1.35937 1.76562,1.34375 1.76562,5 0,3.57813 -1.76562,5.04688 -1.75,1.45312 -4.28125,1.45312 h -3.07813 v -12.85937 z m -0.90625,1.42187 v 10.03125 h 1.4375 q 1.78125,0 2.90625,-1.09375 1.125,-1.09375 1.125,-4 0,-2.03125 -0.57812,-3.10937 -0.57813,-1.09375 -1.48438,-1.45313 -0.89062,-0.375 -2.10937,-0.375 z m 16.57797,9.14063 q 0,0.59375 0.20313,0.89062 0.21875,0.28125 0.625,0.4375 l -0.39063,1.1875 q -0.76562,-0.0937 -1.23437,-0.42187 -0.46875,-0.34375 -0.6875,-1.04688 -1,1.46875 -2.9375,1.46875 -1.45313,0 -2.29688,-0.8125 -0.82812,-0.82812 -0.82812,-2.15625 0,-1.5625 1.125,-2.39062 1.125,-0.84375 3.20312,-0.84375 h 1.5 v -0.73438 q 0,-1.04687 -0.5,-1.48437 -0.5,-0.45313 -1.54687,-0.45313 -1.07813,0 -2.64063,0.51563 l -0.4375,-1.25 q 1.82813,-0.67188 3.39063,-0.67188 1.73437,0 2.59375,0.85938 0.85937,0.84375 0.85937,2.40625 z m -4.03125,1.23437 q 1.48438,0 2.3125,-1.53125 v -2.25 h -1.28125 q -2.71875,0 -2.71875,2.01563 0,0.875 0.42188,1.32812 0.4375,0.4375 1.26562,0.4375 z m 12.52399,0.60938 q -0.96875,0.67187 -2.20313,0.67187 -1.25,0 -1.95312,-0.71875 -0.6875,-0.71875 -0.6875,-2.07812 v -5.92188 h -1.71875 v -1.32812 h 1.71875 v -2.21875 l 1.70312,-0.20313 v 2.42188 h 2.34375 l -0.1875,1.32812 h -2.15625 v 5.84375 q 0,0.76563 0.26563,1.125 0.28125,0.34375 0.92187,0.34375 0.57813,0 1.29688,-0.39062 z m 8.2605,-1.84375 q 0,0.59375 0.20312,0.89062 0.21875,0.28125 0.625,0.4375 l -0.39062,1.1875 q -0.76563,-0.0937 -1.23438,-0.42187 -0.46875,-0.34375 -0.6875,-1.04688 -1,1.46875 -2.9375,1.46875 -1.45312,0 -2.29687,-0.8125 -0.82813,-0.82812 -0.82813,-2.15625 0,-1.5625 1.125,-2.39062 1.125,-0.84375 3.20313,-0.84375 h 1.5 v -0.73438 q 0,-1.04687 -0.5,-1.48437 -0.5,-0.45313 -1.54688,-0.45313 -1.07812,0 -2.64062,0.51563 l -0.4375,-1.25 q 1.82812,-0.67188 3.39062,-0.67188 1.73438,0 2.59375,0.85938 0.85938,0.84375 0.85938,2.40625 z m -4.03125,1.23437 q 1.48437,0 2.3125,-1.53125 v -2.25 h -1.28125 q -2.71875,0 -2.71875,2.01563 0,0.875 0.42187,1.32812 0.4375,0.4375 1.26563,0.4375 z" />
  <path
     style="fill:#6d9eeb;fill-rule:evenodd"
     inkscape:connector-curvature="0"
     id="path43"
     d="m 550.85827,1 h 96.66144 v 102.96063 h -96.66144 z" />
  <path
     style="fill-rule:evenodd;stroke:#000000;stroke-width:2;stroke-linecap:butt;stroke-linejoin:round"
     inkscape:connector-curvature="0"
     id="path45"
     d="m 550.85827,1 h 96.66144 v 102.96063 h -96.66144 z" />
  <path
     style="fill:#000000;fill-rule:nonzero"
     inkscape:connector-curvature="0"
     id="path47"
     d="m 561.45823,37.80906 -0.15625,1.29687 h -3.0625 v 9.73438 h -1.51562 v -9.73438 h -3.14063 v -1.29687 z m 4.87018,2.40625 q 0.4375,0 0.82812,0.0937 l -0.26562,1.4375 q -0.39063,-0.0937 -0.73438,-0.0937 -0.79687,0 -1.28125,0.57812 -0.46875,0.57813 -0.75,1.79688 v 4.8125 h -1.46875 v -8.4375 h 1.26563 l 0.14062,1.71875 q 0.34375,-0.9375 0.92188,-1.42188 0.57812,-0.48437 1.34375,-0.48437 z m 7.63159,6.65625 q 0,0.51562 0.17188,0.76562 0.17187,0.25 0.53125,0.375 l -0.34375,1.01563 q -0.65625,-0.0781 -1.0625,-0.35938 -0.39063,-0.29687 -0.57813,-0.90625 -0.84375,1.26563 -2.51562,1.26563 -1.25,0 -1.96875,-0.70313 -0.71875,-0.70312 -0.71875,-1.84375 0,-1.34375 0.96875,-2.0625 0.96875,-0.71875 2.75,-0.71875 h 1.29687 v -0.625 q 0,-0.89062 -0.4375,-1.26562 -0.4375,-0.39063 -1.32812,-0.39063 -0.92188,0 -2.26563,0.45313 l -0.375,-1.07813 q 1.5625,-0.57812 2.90625,-0.57812 1.5,0 2.23438,0.73437 0.73437,0.71875 0.73437,2.0625 z m -3.45312,1.0625 q 1.26562,0 1.98437,-1.3125 v -1.9375 h -1.10937 q -2.34375,0 -2.34375,1.71875 0,0.75 0.375,1.14062 0.375,0.39063 1.09375,0.39063 z m 10.43841,-7.71875 q 1.15625,0 1.79688,0.6875 0.65625,0.6875 0.65625,1.89062 v 6.04688 h -1.46875 v -5.84375 q 0,-0.89063 -0.34375,-1.25 -0.32813,-0.375 -0.98438,-0.375 -0.67187,0 -1.1875,0.39062 -0.51562,0.375 -0.96875,1.09375 v 5.98438 h -1.46875 v -8.4375 h 1.26563 l 0.125,1.25 q 0.45312,-0.67188 1.10937,-1.04688 0.67188,-0.39062 1.46875,-0.39062 z m 7.70416,0 q 0.85938,0 1.54688,0.25 0.6875,0.23437 1.3125,0.71875 l -0.625,0.92187 q -0.57813,-0.375 -1.09375,-0.54687 -0.51563,-0.17188 -1.09375,-0.17188 -0.71875,0 -1.14063,0.29688 -0.42187,0.29687 -0.42187,0.79687 0,0.51563 0.39062,0.8125 0.40625,0.28125 1.42188,0.5625 1.40625,0.34375 2.09375,0.95313 0.70312,0.60937 0.70312,1.65625 0,1.25 -0.96875,1.90625 -0.96875,0.65625 -2.35937,0.65625 -1.92188,0 -3.17188,-1.09375 l 0.78125,-0.90625 q 1.0625,0.82812 2.35938,0.82812 0.84375,0 1.32812,-0.34375 0.48438,-0.35937 0.48438,-0.9375 0,-0.4375 -0.17188,-0.70312 -0.17187,-0.26563 -0.60937,-0.45313 -0.4375,-0.20312 -1.26563,-0.4375 -1.34375,-0.34375 -1.95312,-0.9375 -0.59375,-0.59375 -0.59375,-1.5 0,-0.65625 0.39062,-1.1875 0.39063,-0.54687 1.07813,-0.84375 0.70312,-0.29687 1.57812,-0.29687 z m 8.05011,-2.1875 q -0.67187,0 -0.96875,0.29687 -0.28125,0.29688 -0.28125,0.92188 v 1.15625 h 2.04688 l -0.15625,1.14062 h -1.89063 v 7.29688 h -1.48437 v -7.29688 h -1.5 v -1.14062 h 1.5 v -1.14063 q 0,-1.09375 0.70312,-1.75 0.70313,-0.67187 1.9375,-0.67187 0.57813,0 1.03125,0.10937 0.46875,0.0937 0.98438,0.32813 l -0.45313,1.0625 q -0.71875,-0.3125 -1.46875,-0.3125 z m 5.49689,2.1875 q 1.78125,0 2.76563,1.1875 0.98437,1.1875 0.98437,3.21875 0,1.3125 -0.45312,2.3125 -0.45313,1 -1.29688,1.54687 -0.84375,0.54688 -2.01562,0.54688 -1.78125,0 -2.78125,-1.17188 -0.98438,-1.1875 -0.98438,-3.21875 0,-1.3125 0.45313,-2.3125 0.45312,-1 1.29687,-1.54687 0.84375,-0.5625 2.03125,-0.5625 z m 0,1.1875 q -2.1875,0 -2.1875,3.23437 0,3.21875 2.17188,3.21875 2.17187,0 2.17187,-3.23437 0,-3.21875 -2.15625,-3.21875 z m 9.84406,-1.1875 q 0.4375,0 0.82812,0.0937 l -0.26562,1.4375 q -0.39063,-0.0937 -0.73438,-0.0937 -0.79687,0 -1.28125,0.57812 -0.46875,0.57813 -0.75,1.79688 v 4.8125 h -1.46875 v -8.4375 h 1.26563 l 0.14062,1.71875 q 0.34375,-0.9375 0.92188,-1.42188 0.57812,-0.48437 1.34375,-0.48437 z m 10.9729,0 q 1.04687,0 1.65625,0.70312 0.625,0.6875 0.625,1.875 v 6.04688 h -1.46875 v -5.84375 q 0,-1.625 -1.1875,-1.625 -0.625,0 -1.0625,0.35937 -0.42188,0.35938 -0.92188,1.125 v 5.98438 h -1.46875 v -5.84375 q 0,-1.625 -1.1875,-1.625 -0.625,0 -1.0625,0.375 -0.4375,0.35937 -0.92187,1.10937 v 5.98438 h -1.46875 v -8.4375 h 1.26562 l 0.125,1.23437 q 0.95313,-1.42187 2.4375,-1.42187 0.78125,0 1.32813,0.40625 0.5625,0.39062 0.79687,1.10937 0.5,-0.73437 1.09375,-1.125 0.60938,-0.39062 1.42188,-0.39062 z m 11.61822,4.15625 q 0,0.375 -0.0312,0.75 h -5.375 q 0.0937,1.40625 0.70313,2.0625 0.60937,0.64062 1.5625,0.64062 0.60937,0 1.125,-0.17187 0.51562,-0.17188 1.0625,-0.5625 l 0.64062,0.89062 q -1.34375,1.04688 -2.9375,1.04688 -1.76562,0 -2.75,-1.14063 -0.98437,-1.15625 -0.98437,-3.17187 0,-1.3125 0.42187,-2.32813 0.4375,-1.01562 1.21875,-1.59375 0.79688,-0.57812 1.875,-0.57812 1.67188,0 2.5625,1.10937 0.90625,1.09375 0.90625,3.04688 z m -1.45312,-0.42188 q 0,-1.25 -0.5,-1.90625 -0.5,-0.65625 -1.48438,-0.65625 -1.8125,0 -1.96875,2.65625 h 3.95313 z m 10.3294,-6.9375 v 11.82813 h -1.29687 l -0.14063,-1.17188 q -0.42187,0.64063 -1.04687,1 -0.625,0.35938 -1.39063,0.35938 -1.5,0 -2.34375,-1.17188 -0.84375,-1.1875 -0.84375,-3.1875 0,-1.29687 0.40625,-2.29687 0.40625,-1.01563 1.15625,-1.57813 0.75,-0.57812 1.75,-0.57812 1.29688,0 2.28125,1.04687 v -4.42187 z m -3.54687,10.85938 q 0.67187,0 1.14062,-0.3125 0.48438,-0.3125 0.9375,-0.9375 v -4.14063 q -0.42187,-0.53125 -0.89062,-0.8125 -0.46875,-0.28125 -1.0625,-0.28125 -0.98438,0 -1.51563,0.8125 -0.53125,0.8125 -0.53125,2.4375 0,1.625 0.48438,2.4375 0.5,0.79688 1.4375,0.79688 z" />
  <path
     style="fill:#000000;fill-rule:nonzero"
     inkscape:connector-curvature="0"
     id="path49"
     d="m 586.48717,56.80906 q 2.5,0 4,1.17187 1.51562,1.15625 1.51562,4.29688 0,3.04687 -1.51562,4.3125 -1.5,1.25 -3.67188,1.25 h -2.64062 V 56.80906 Z m -0.78125,1.21875 v 8.60937 h 1.23437 q 1.53125,0 2.48438,-0.9375 0.96875,-0.95312 0.96875,-3.42187 0,-1.75 -0.5,-2.6875 -0.5,-0.9375 -1.26563,-1.25 -0.76562,-0.3125 -1.8125,-0.3125 z m 14.22217,7.84375 q 0,0.51562 0.17187,0.76562 0.17188,0.25 0.53125,0.375 l -0.34375,1.01563 q -0.65625,-0.0781 -1.0625,-0.35938 -0.39062,-0.29687 -0.57812,-0.90625 -0.84375,1.26563 -2.51563,1.26563 -1.25,0 -1.96875,-0.70313 -0.71875,-0.70312 -0.71875,-1.84375 0,-1.34375 0.96875,-2.0625 0.96875,-0.71875 2.75,-0.71875 h 1.29688 v -0.625 q 0,-0.89062 -0.4375,-1.26562 -0.4375,-0.39063 -1.32813,-0.39063 -0.92187,0 -2.26562,0.45313 l -0.375,-1.07813 q 1.5625,-0.57812 2.90625,-0.57812 1.5,0 2.23437,0.73437 0.73438,0.71875 0.73438,2.0625 z m -3.45313,1.0625 q 1.26563,0 1.98438,-1.3125 v -1.9375 h -1.10938 q -2.34375,0 -2.34375,1.71875 0,0.75 0.375,1.14062 0.375,0.39063 1.09375,0.39063 z m 10.73529,0.51562 q -0.84375,0.57813 -1.89062,0.57813 -1.07813,0 -1.6875,-0.60938 -0.59375,-0.625 -0.59375,-1.78125 v -5.09375 h -1.46875 v -1.14062 h 1.46875 v -1.90625 l 1.48437,-0.17188 v 2.07813 h 2 l -0.17187,1.14062 h -1.82813 v 5.03125 q 0,0.65625 0.21875,0.95313 0.23438,0.28125 0.78125,0.28125 0.5,0 1.125,-0.32813 z m 7.08588,-1.57812 q 0,0.51562 0.17188,0.76562 0.17187,0.25 0.53125,0.375 l -0.34375,1.01563 q -0.65625,-0.0781 -1.0625,-0.35938 -0.39063,-0.29687 -0.57813,-0.90625 -0.84375,1.26563 -2.51562,1.26563 -1.25,0 -1.96875,-0.70313 -0.71875,-0.70312 -0.71875,-1.84375 0,-1.34375 0.96875,-2.0625 0.96875,-0.71875 2.75,-0.71875 h 1.29687 v -0.625 q 0,-0.89062 -0.4375,-1.26562 -0.4375,-0.39063 -1.32812,-0.39063 -0.92188,0 -2.26563,0.45313 l -0.375,-1.07813 q 1.5625,-0.57812 2.90625,-0.57812 1.5,0 2.23438,0.73437 0.73437,0.71875 0.73437,2.0625 z m -3.45312,1.0625 q 1.26562,0 1.98437,-1.3125 v -1.9375 h -1.10937 q -2.34375,0 -2.34375,1.71875 0,0.75 0.375,1.14062 0.375,0.39063 1.09375,0.39063 z" />
  <path
     style="fill:#6d9eeb;fill-rule:evenodd"
     inkscape:connector-curvature="0"
     id="path51"
     d="m 550.85827,136.86352 h 96.66144 v 102.96063 h -96.66144 z" />
  <path
     style="fill-rule:evenodd;stroke:#000000;stroke-width:2;stroke-linecap:butt;stroke-linejoin:round"
     inkscape:connector-curvature="0"
     id="path53"
     d="m 550.85827,136.86352 h 96.66144 v 102.96063 h -96.66144 z" />
  <path
     style="fill:#000000;fill-rule:nonzero"
     inkscape:connector-curvature="0"
     id="path55"
     d="m 561.45823,173.67259 -0.15625,1.29687 h -3.0625 v 9.73438 h -1.51562 v -9.73438 h -3.14063 v -1.29687 z m 4.87018,2.40625 q 0.4375,0 0.82812,0.0937 l -0.26562,1.4375 q -0.39063,-0.0937 -0.73438,-0.0937 -0.79687,0 -1.28125,0.57812 -0.46875,0.57813 -0.75,1.79688 v 4.8125 h -1.46875 v -8.4375 h 1.26563 l 0.14062,1.71875 q 0.34375,-0.9375 0.92188,-1.42188 0.57812,-0.48437 1.34375,-0.48437 z m 7.63159,6.65625 q 0,0.51562 0.17188,0.76562 0.17187,0.25 0.53125,0.375 l -0.34375,1.01563 q -0.65625,-0.0781 -1.0625,-0.35938 -0.39063,-0.29687 -0.57813,-0.90625 -0.84375,1.26563 -2.51562,1.26563 -1.25,0 -1.96875,-0.70313 -0.71875,-0.70312 -0.71875,-1.84375 0,-1.34375 0.96875,-2.0625 0.96875,-0.71875 2.75,-0.71875 h 1.29687 v -0.625 q 0,-0.89062 -0.4375,-1.26562 -0.4375,-0.39063 -1.32812,-0.39063 -0.92188,0 -2.26563,0.45313 l -0.375,-1.07813 q 1.5625,-0.57812 2.90625,-0.57812 1.5,0 2.23438,0.73437 0.73437,0.71875 0.73437,2.0625 z m -3.45312,1.0625 q 1.26562,0 1.98437,-1.3125 v -1.9375 h -1.10937 q -2.34375,0 -2.34375,1.71875 0,0.75 0.375,1.14062 0.375,0.39063 1.09375,0.39063 z m 10.43841,-7.71875 q 1.15625,0 1.79688,0.6875 0.65625,0.6875 0.65625,1.89062 v 6.04688 h -1.46875 v -5.84375 q 0,-0.89063 -0.34375,-1.25 -0.32813,-0.375 -0.98438,-0.375 -0.67187,0 -1.1875,0.39062 -0.51562,0.375 -0.96875,1.09375 v 5.98438 h -1.46875 v -8.4375 h 1.26563 l 0.125,1.25 q 0.45312,-0.67188 1.10937,-1.04688 0.67188,-0.39062 1.46875,-0.39062 z m 7.70416,0 q 0.85938,0 1.54688,0.25 0.6875,0.23437 1.3125,0.71875 l -0.625,0.92187 q -0.57813,-0.375 -1.09375,-0.54687 -0.51563,-0.17188 -1.09375,-0.17188 -0.71875,0 -1.14063,0.29688 -0.42187,0.29687 -0.42187,0.79687 0,0.51563 0.39062,0.8125 0.40625,0.28125 1.42188,0.5625 1.40625,0.34375 2.09375,0.95313 0.70312,0.60937 0.70312,1.65625 0,1.25 -0.96875,1.90625 -0.96875,0.65625 -2.35937,0.65625 -1.92188,0 -3.17188,-1.09375 l 0.78125,-0.90625 q 1.0625,0.82812 2.35938,0.82812 0.84375,0 1.32812,-0.34375 0.48438,-0.35937 0.48438,-0.9375 0,-0.4375 -0.17188,-0.70312 -0.17187,-0.26563 -0.60937,-0.45313 -0.4375,-0.20312 -1.26563,-0.4375 -1.34375,-0.34375 -1.95312,-0.9375 -0.59375,-0.59375 -0.59375,-1.5 0,-0.65625 0.39062,-1.1875 0.39063,-0.54687 1.07813,-0.84375 0.70312,-0.29687 1.57812,-0.29687 z m 8.05011,-2.1875 q -0.67187,0 -0.96875,0.29687 -0.28125,0.29688 -0.28125,0.92188 v 1.15625 h 2.04688 l -0.15625,1.14062 h -1.89063 v 7.29688 h -1.48437 v -7.29688 h -1.5 v -1.14062 h 1.5 v -1.14063 q 0,-1.09375 0.70312,-1.75 0.70313,-0.67187 1.9375,-0.67187 0.57813,0 1.03125,0.10937 0.46875,0.0937 0.98438,0.32813 l -0.45313,1.0625 q -0.71875,-0.3125 -1.46875,-0.3125 z m 5.49689,2.1875 q 1.78125,0 2.76563,1.1875 0.98437,1.1875 0.98437,3.21875 0,1.3125 -0.45312,2.3125 -0.45313,1 -1.29688,1.54687 -0.84375,0.54688 -2.01562,0.54688 -1.78125,0 -2.78125,-1.17188 -0.98438,-1.1875 -0.98438,-3.21875 0,-1.3125 0.45313,-2.3125 0.45312,-1 1.29687,-1.54687 0.84375,-0.5625 2.03125,-0.5625 z m 0,1.1875 q -2.1875,0 -2.1875,3.23437 0,3.21875 2.17188,3.21875 2.17187,0 2.17187,-3.23437 0,-3.21875 -2.15625,-3.21875 z m 9.84406,-1.1875 q 0.4375,0 0.82812,0.0937 l -0.26562,1.4375 q -0.39063,-0.0937 -0.73438,-0.0937 -0.79687,0 -1.28125,0.57812 -0.46875,0.57813 -0.75,1.79688 v 4.8125 h -1.46875 v -8.4375 h 1.26563 l 0.14062,1.71875 q 0.34375,-0.9375 0.92188,-1.42188 0.57812,-0.48437 1.34375,-0.48437 z m 10.9729,0 q 1.04687,0 1.65625,0.70312 0.625,0.6875 0.625,1.875 v 6.04688 h -1.46875 v -5.84375 q 0,-1.625 -1.1875,-1.625 -0.625,0 -1.0625,0.35937 -0.42188,0.35938 -0.92188,1.125 v 5.98438 h -1.46875 v -5.84375 q 0,-1.625 -1.1875,-1.625 -0.625,0 -1.0625,0.375 -0.4375,0.35937 -0.92187,1.10937 v 5.98438 h -1.46875 v -8.4375 h 1.26562 l 0.125,1.23437 q 0.95313,-1.42187 2.4375,-1.42187 0.78125,0 1.32813,0.40625 0.5625,0.39062 0.79687,1.10937 0.5,-0.73437 1.09375,-1.125 0.60938,-0.39062 1.42188,-0.39062 z m 11.61822,4.15625 q 0,0.375 -0.0312,0.75 h -5.375 q 0.0937,1.40625 0.70313,2.0625 0.60937,0.64062 1.5625,0.64062 0.60937,0 1.125,-0.17187 0.51562,-0.17188 1.0625,-0.5625 l 0.64062,0.89062 q -1.34375,1.04688 -2.9375,1.04688 -1.76562,0 -2.75,-1.14063 -0.98437,-1.15625 -0.98437,-3.17187 0,-1.3125 0.42187,-2.32813 0.4375,-1.01562 1.21875,-1.59375 0.79688,-0.57812 1.875,-0.57812 1.67188,0 2.5625,1.10937 0.90625,1.09375 0.90625,3.04688 z m -1.45312,-0.42188 q 0,-1.25 -0.5,-1.90625 -0.5,-0.65625 -1.48438,-0.65625 -1.8125,0 -1.96875,2.65625 h 3.95313 z m 10.3294,-6.9375 v 11.82813 h -1.29687 l -0.14063,-1.17188 q -0.42187,0.64063 -1.04687,1 -0.625,0.35938 -1.39063,0.35938 -1.5,0 -2.34375,-1.17188 -0.84375,-1.1875 -0.84375,-3.1875 0,-1.29687 0.40625,-2.29687 0.40625,-1.01563 1.15625,-1.57813 0.75,-0.57812 1.75,-0.57812 1.29688,0 2.28125,1.04687 v -4.42187 z m -3.54687,10.85938 q 0.67187,0 1.14062,-0.3125 0.48438,-0.3125 0.9375,-0.9375 v -4.14063 q -0.42187,-0.53125 -0.89062,-0.8125 -0.46875,-0.28125 -1.0625,-0.28125 -0.98438,0 -1.51563,0.8125 -0.53125,0.8125 -0.53125,2.4375 0,1.625 0.48438,2.4375 0.5,0.79688 1.4375,0.79688 z" />
  <path
     style="fill:#000000;fill-rule:nonzero"
     inkscape:connector-curvature="0"
     id="path57"
     d="m 586.48717,192.67259 q 2.5,0 4,1.17187 1.51562,1.15625 1.51562,4.29688 0,3.04687 -1.51562,4.3125 -1.5,1.25 -3.67188,1.25 h -2.64062 v -11.03125 z m -0.78125,1.21875 v 8.60937 h 1.23437 q 1.53125,0 2.48438,-0.9375 0.96875,-0.95312 0.96875,-3.42187 0,-1.75 -0.5,-2.6875 -0.5,-0.9375 -1.26563,-1.25 -0.76562,-0.3125 -1.8125,-0.3125 z m 14.22217,7.84375 q 0,0.51562 0.17187,0.76562 0.17188,0.25 0.53125,0.375 l -0.34375,1.01563 q -0.65625,-0.0781 -1.0625,-0.35938 -0.39062,-0.29687 -0.57812,-0.90625 -0.84375,1.26563 -2.51563,1.26563 -1.25,0 -1.96875,-0.70313 -0.71875,-0.70312 -0.71875,-1.84375 0,-1.34375 0.96875,-2.0625 0.96875,-0.71875 2.75,-0.71875 h 1.29688 v -0.625 q 0,-0.89062 -0.4375,-1.26562 -0.4375,-0.39063 -1.32813,-0.39063 -0.92187,0 -2.26562,0.45313 l -0.375,-1.07813 q 1.5625,-0.57812 2.90625,-0.57812 1.5,0 2.23437,0.73437 0.73438,0.71875 0.73438,2.0625 z m -3.45313,1.0625 q 1.26563,0 1.98438,-1.3125 v -1.9375 h -1.10938 q -2.34375,0 -2.34375,1.71875 0,0.75 0.375,1.14062 0.375,0.39063 1.09375,0.39063 z m 10.73529,0.51562 q -0.84375,0.57813 -1.89062,0.57813 -1.07813,0 -1.6875,-0.60938 -0.59375,-0.625 -0.59375,-1.78125 v -5.09375 h -1.46875 v -1.14062 h 1.46875 v -1.90625 l 1.48437,-0.17188 v 2.07813 h 2 l -0.17187,1.14062 h -1.82813 v 5.03125 q 0,0.65625 0.21875,0.95313 0.23438,0.28125 0.78125,0.28125 0.5,0 1.125,-0.32813 z m 7.08588,-1.57812 q 0,0.51562 0.17188,0.76562 0.17187,0.25 0.53125,0.375 l -0.34375,1.01563 q -0.65625,-0.0781 -1.0625,-0.35938 -0.39063,-0.29687 -0.57813,-0.90625 -0.84375,1.26563 -2.51562,1.26563 -1.25,0 -1.96875,-0.70313 -0.71875,-0.70312 -0.71875,-1.84375 0,-1.34375 0.96875,-2.0625 0.96875,-0.71875 2.75,-0.71875 h 1.29687 v -0.625 q 0,-0.89062 -0.4375,-1.26562 -0.4375,-0.39063 -1.32812,-0.39063 -0.92188,0 -2.26563,0.45313 l -0.375,-1.07813 q 1.5625,-0.57812 2.90625,-0.57812 1.5,0 2.23438,0.73437 0.73437,0.71875 0.73437,2.0625 z m -3.45312,1.0625 q 1.26562,0 1.98437,-1.3125 v -1.9375 h -1.10937 q -2.34375,0 -2.34375,1.71875 0,0.75 0.375,1.14062 0.375,0.39063 1.09375,0.39063 z" />
  <path
     style="fill:#efefef;fill-rule:evenodd"
     inkscape:connector-curvature="0"
     id="path59"
     d="m 386.88973,106.79322 h 14.25195 V 87.01369 h 28.50397 v 19.77953 h 14.25195 l -28.5039,19.77954 z" />
  <path
     style="fill-rule:evenodd;stroke:#cccccc;stroke-width:1;stroke-linecap:butt;stroke-linejoin:round"
     inkscape:connector-curvature="0"
     id="path61"
     d="m 386.88973,106.79322 h 14.25195 V 87.01369 h 28.50397 v 19.77953 h 14.25195 l -28.5039,19.77954 z" />
  <path
     style="fill:#9fc5e8;fill-rule:evenodd"
     inkscape:connector-curvature="0"
     id="path63"
     d="m 276.73098,48.2053 h 40.01575 v -6.2756 l 12.55117,12.55119 -12.55117,12.55118 v -6.27559 h -40.01575 z" />
  <path
     style="fill-rule:evenodd;stroke:#595959;stroke-width:1;stroke-linecap:butt;stroke-linejoin:round"
     inkscape:connector-curvature="0"
     id="path65"
     d="m 276.73098,48.2053 h 40.01575 v -6.2756 l 12.55117,12.55119 -12.55117,12.55118 v -6.27559 h -40.01575 z" />
  <path
     style="fill:#9fc5e8;fill-rule:evenodd"
     inkscape:connector-curvature="0"
     id="path67"
     d="m 488.19293,48.2053 h 40.01575 v -6.2756 l 12.55114,12.55119 -12.55114,12.55118 v -6.27559 h -40.01575 z" />
  <path
     style="fill-rule:evenodd;stroke:#595959;stroke-width:1;stroke-linecap:butt;stroke-linejoin:round"
     inkscape:connector-curvature="0"
     id="path69"
     d="m 488.19293,48.2053 h 40.01575 v -6.2756 l 12.55114,12.55119 -12.55114,12.55118 v -6.27559 h -40.01575 z" />
  <path
     style="fill:#eeeeee;fill-rule:evenodd"
     inkscape:connector-curvature="0"
     id="path71"
     d="m 461.04553,46.47433 h 13.6413 c 1.88342,0 3.41027,3.58466 3.41027,8.00656 0,4.42189 -1.52685,8.00656 -3.41027,8.00656 h -13.6413 v 0 c -1.88348,0 -3.41034,-3.58467 -3.41034,-8.00656 0,-4.4219 1.52686,-8.00656 3.41034,-8.00656 z" />
  <path
     style="fill:#000000;fill-opacity:0;fill-rule:evenodd"
     inkscape:connector-curvature="0"
     id="path73"
     d="m 474.68683,62.48745 c -1.88348,0 -3.41034,-3.58467 -3.41034,-8.00656 0,-4.42191 1.52686,-8.00656 3.41034,-8.00656" />
  <path
     style="fill:#000000;fill-opacity:0;fill-rule:evenodd"
     inkscape:connector-curvature="0"
     id="path75"
     d="m 461.04553,46.47433 h 13.6413 c 1.88342,0 3.41027,3.58466 3.41027,8.00656 0,4.42189 -1.52685,8.00656 -3.41027,8.00656 h -13.6413 v 0 c -1.88348,0 -3.41034,-3.58467 -3.41034,-8.00656 0,-4.4219 1.52686,-8.00656 3.41034,-8.00656 z" />
  <path
     style="fill-rule:evenodd;stroke:#595959;stroke-width:1;stroke-linecap:butt;stroke-linejoin:round"
     inkscape:connector-curvature="0"
     id="path77"
     d="m 474.68683,62.48745 c -1.88348,0 -3.41034,-3.58467 -3.41034,-8.00656 0,-4.42191 1.52686,-8.00656 3.41034,-8.00656" />
  <path
     style="fill-rule:evenodd;stroke:#595959;stroke-width:1;stroke-linecap:butt;stroke-linejoin:round"
     inkscape:connector-curvature="0"
     id="path79"
     d="m 461.04553,46.47433 h 13.6413 c 1.88342,0 3.41027,3.58466 3.41027,8.00656 0,4.42189 -1.52685,8.00656 -3.41027,8.00656 h -13.6413 v 0 c -1.88348,0 -3.41034,-3.58467 -3.41034,-8.00656 0,-4.4219 1.52686,-8.00656 3.41034,-8.00656 z" />
  <path
     style="fill:#eeeeee;fill-rule:evenodd"
     inkscape:connector-curvature="0"
     id="path81"
     d="m 357.56343,46.47433 h -13.64127 c -1.88348,0 -3.41034,3.58466 -3.41034,8.00656 0,4.42189 1.52686,8.00656 3.41034,8.00656 h 13.64127 v 0 c 1.88348,0 3.41034,-3.58467 3.41034,-8.00656 0,-4.4219 -1.52686,-8.00656 -3.41034,-8.00656 z" />
  <path
     style="fill:#000000;fill-opacity:0;fill-rule:evenodd"
     inkscape:connector-curvature="0"
     id="path83"
     d="m 343.92213,62.48745 c 1.88345,0 3.41031,-3.58467 3.41031,-8.00656 0,-4.42191 -1.52686,-8.00656 -3.41031,-8.00656" />
  <path
     style="fill:#000000;fill-opacity:0;fill-rule:evenodd"
     inkscape:connector-curvature="0"
     id="path85"
     d="m 357.56343,46.47433 h -13.64127 c -1.88348,0 -3.41034,3.58466 -3.41034,8.00656 0,4.42189 1.52686,8.00656 3.41034,8.00656 h 13.64127 v 0 c 1.88348,0 3.41034,-3.58467 3.41034,-8.00656 0,-4.4219 -1.52686,-8.00656 -3.41034,-8.00656 z" />
  <path
     style="fill-rule:evenodd;stroke:#595959;stroke-width:1;stroke-linecap:butt;stroke-linejoin:round"
     inkscape:connector-curvature="0"
     id="path87"
     d="m 343.92213,62.48745 c 1.88345,0 3.41031,-3.58467 3.41031,-8.00656 0,-4.42191 -1.52686,-8.00656 -3.41031,-8.00656" />
  <path
     style="fill-rule:evenodd;stroke:#595959;stroke-width:1;stroke-linecap:butt;stroke-linejoin:round"
     inkscape:connector-curvature="0"
     id="path89"
     d="m 357.56343,46.47433 h -13.64127 c -1.88348,0 -3.41034,3.58466 -3.41034,8.00656 0,4.42189 1.52686,8.00656 3.41034,8.00656 h 13.64127 v 0 c 1.88348,0 3.41034,-3.58467 3.41034,-8.00656 0,-4.4219 -1.52686,-8.00656 -3.41034,-8.00656 z" />
  <path
     style="fill:#eeeeee;fill-rule:evenodd"
     inkscape:connector-curvature="0"
     id="path91"
     d="m 461.04553,147.02812 h 13.6413 c 1.88342,0 3.41027,3.58469 3.41027,8.00656 0,4.42191 -1.52685,8.00656 -3.41027,8.00656 h -13.6413 v 0 c -1.88348,0 -3.41034,-3.58465 -3.41034,-8.00656 0,-4.42187 1.52686,-8.00656 3.41034,-8.00656 z" />
  <path
     style="fill:#000000;fill-opacity:0;fill-rule:evenodd"
     inkscape:connector-curvature="0"
     id="path93"
     d="m 474.68683,163.04124 c -1.88348,0 -3.41034,-3.58466 -3.41034,-8.00656 0,-4.42188 1.52686,-8.00656 3.41034,-8.00656" />
  <path
     style="fill:#000000;fill-opacity:0;fill-rule:evenodd"
     inkscape:connector-curvature="0"
     id="path95"
     d="m 461.04553,147.02812 h 13.6413 c 1.88342,0 3.41027,3.58469 3.41027,8.00656 0,4.42191 -1.52685,8.00656 -3.41027,8.00656 h -13.6413 v 0 c -1.88348,0 -3.41034,-3.58465 -3.41034,-8.00656 0,-4.42187 1.52686,-8.00656 3.41034,-8.00656 z" />
  <path
     style="fill-rule:evenodd;stroke:#595959;stroke-width:1;stroke-linecap:butt;stroke-linejoin:round"
     inkscape:connector-curvature="0"
     id="path97"
     d="m 474.68683,163.04124 c -1.88348,0 -3.41034,-3.58466 -3.41034,-8.00656 0,-4.42188 1.52686,-8.00656 3.41034,-8.00656" />
  <path
     style="fill-rule:evenodd;stroke:#595959;stroke-width:1;stroke-linecap:butt;stroke-linejoin:round"
     inkscape:connector-curvature="0"
     id="path99"
     d="m 461.04553,147.02812 h 13.6413 c 1.88342,0 3.41027,3.58469 3.41027,8.00656 0,4.42191 -1.52685,8.00656 -3.41027,8.00656 h -13.6413 v 0 c -1.88348,0 -3.41034,-3.58465 -3.41034,-8.00656 0,-4.42187 1.52686,-8.00656 3.41034,-8.00656 z" />
  <path
     style="fill:#eeeeee;fill-rule:evenodd"
     inkscape:connector-curvature="0"
     id="path101"
     d="m 357.56343,147.02812 h -13.64127 c -1.88348,0 -3.41034,3.58469 -3.41034,8.00656 0,4.42191 1.52686,8.00656 3.41034,8.00656 h 13.64127 v 0 c 1.88348,0 3.41034,-3.58465 3.41034,-8.00656 0,-4.42187 -1.52686,-8.00656 -3.41034,-8.00656 z" />
  <path
     style="fill:#000000;fill-opacity:0;fill-rule:evenodd"
     inkscape:connector-curvature="0"
     id="path103"
     d="m 343.92213,163.04124 c 1.88345,0 3.41031,-3.58466 3.41031,-8.00656 0,-4.42188 -1.52686,-8.00656 -3.41031,-8.00656" />
  <path
     style="fill:#000000;fill-opacity:0;fill-rule:evenodd"
     inkscape:connector-curvature="0"
     id="path105"
     d="m 357.56343,147.02812 h -13.64127 c -1.88348,0 -3.41034,3.58469 -3.41034,8.00656 0,4.42191 1.52686,8.00656 3.41034,8.00656 h 13.64127 v 0 c 1.88348,0 3.41034,-3.58465 3.41034,-8.00656 0,-4.42187 -1.52686,-8.00656 -3.41034,-8.00656 z" />
  <path
     style="fill-rule:evenodd;stroke:#595959;stroke-width:1;stroke-linecap:butt;stroke-linejoin:round"
     inkscape:connector-curvature="0"
     id="path107"
     d="m 343.92213,163.04124 c 1.88345,0 3.41031,-3.58466 3.41031,-8.00656 0,-4.42188 -1.52686,-8.00656 -3.41031,-8.00656" />
  <path
     style="fill-rule:evenodd;stroke:#595959;stroke-width:1;stroke-linecap:butt;stroke-linejoin:round"
     inkscape:connector-curvature="0"
     id="path109"
     d="m 357.56343,147.02812 h -13.64127 c -1.88348,0 -3.41034,3.58469 -3.41034,8.00656 0,4.42191 1.52686,8.00656 3.41034,8.00656 h 13.64127 v 0 c 1.88348,0 3.41034,-3.58465 3.41034,-8.00656 0,-4.42187 -1.52686,-8.00656 -3.41034,-8.00656 z" />
  <path
     style="fill:#9fc5e8;fill-rule:evenodd"
     inkscape:connector-curvature="0"
     id="path111"
     d="m 276.17323,148.75912 h 40.01575 v -6.2756 l 12.55117,12.55117 -12.55117,12.55121 v -6.2756 h -40.01575 z" />
  <path
     style="fill-rule:evenodd;stroke:#595959;stroke-width:1;stroke-linecap:butt;stroke-linejoin:round"
     inkscape:connector-curvature="0"
     id="path113"
     d="m 276.17323,148.75912 h 40.01575 v -6.2756 l 12.55117,12.55117 -12.55117,12.55121 v -6.2756 h -40.01575 z" />
  <path
     style="fill:#9fc5e8;fill-rule:evenodd"
     inkscape:connector-curvature="0"
     id="path115"
     d="m 487.63518,148.75912 h 40.01575 v -6.2756 l 12.55114,12.55117 -12.55114,12.55121 v -6.2756 h -40.01575 z" />
  <path
     style="fill-rule:evenodd;stroke:#595959;stroke-width:1;stroke-linecap:butt;stroke-linejoin:round"
     inkscape:connector-curvature="0"
     id="path117"
     d="m 487.63518,148.75912 h 40.01575 v -6.2756 l 12.55114,12.55117 -12.55114,12.55121 v -6.2756 h -40.01575 z" />
  <path
     style="fill:#000000;fill-opacity:0;fill-rule:evenodd"
     inkscape:connector-curvature="0"
     id="path119"
     d="M 0,164.28142 H 169.22835 V 216.4074 H 0 Z" />
  <path
     style="fill:#000000;fill-rule:nonzero"
     inkscape:connector-curvature="0"
     id="path121"
     d="m 17.40625,181.89955 q 0.82812,0.0937 1.625,0.46875 0.1875,-0.10938 0.35937,-0.15625 0.17188,-0.0625 0.32813,-0.0625 0.54687,0 0.875,0.375 0.34375,0.35937 0.34375,1.23437 v 0.76563 q 0,0.875 -0.34375,1.25 -0.32813,0.35937 -0.85938,0.35937 -0.48437,0 -0.8125,-0.3125 -0.32812,-0.3125 -0.39062,-0.92187 -0.84375,-0.67188 -2.10938,-0.67188 -1.32812,0 -1.95312,0.48438 -0.60938,0.46875 -0.60938,1.03125 0,0.45312 0.375,0.79687 0.375,0.35938 1.57813,0.60938 l 1.59375,0.32812 q 2.01562,0.42188 2.89062,1.23438 1.15625,1.04687 1.15625,2.75 0,1.5 -1.0625,2.67187 -1.04687,1.17188 -2.98437,1.54688 v 2.03125 q 0,0.875 -0.34375,1.23437 -0.32813,0.375 -0.85938,0.375 -0.53125,0 -0.875,-0.375 Q 15,198.58705 15,197.71205 v -2.03125 q -0.9375,-0.20313 -1.875,-0.625 -0.5,0.42187 -0.9375,0.42187 -0.57813,0 -0.90625,-0.35937 -0.32813,-0.375 -0.32813,-1.23438 v -1.51562 q 0,-0.85938 0.32813,-1.23438 0.32812,-0.375 0.875,-0.375 0.4375,0 0.71875,0.23438 0.29687,0.23437 0.42187,0.73437 0.14063,0.48438 0.375,0.71875 0.34375,0.375 1.0625,0.64063 0.71875,0.25 1.48438,0.25 1.34375,0 2.23437,-0.70313 0.59375,-0.45312 0.59375,-1.17187 0,-0.60938 -0.40625,-0.98438 -0.39062,-0.375 -1.67187,-0.64062 l -1.79688,-0.35938 q -1.92187,-0.375 -2.8125,-1.375 -0.89062,-1 -0.89062,-2.39062 0,-1.375 0.95312,-2.45313 Q 13.39062,182.1808 15,181.89955 v -0.65625 q 0,-0.85938 0.32812,-1.21875 0.34375,-0.375 0.875,-0.375 0.53125,0 0.85938,0.375 0.34375,0.35937 0.34375,1.21875 z m 10.21484,13.09375 v 3.9375 h 1.4375 q 0.875,0 1.23438,0.32812 0.375,0.34375 0.375,0.89063 0,0.51562 -0.375,0.84375 -0.35938,0.34375 -1.23438,0.34375 h -4.25 q -0.85937,0 -1.23437,-0.34375 -0.375,-0.32813 -0.375,-0.84375 0,-0.54688 0.375,-0.89063 0.375,-0.32812 1.23437,-0.32812 h 0.40625 v -10.84375 h -0.40625 q -0.85937,0 -1.23437,-0.32813 -0.375,-0.34375 -0.375,-0.89062 0,-0.51563 0.375,-0.84375 0.375,-0.34375 1.23437,-0.34375 h 2.8125 v 0.8125 q 0.84375,-0.5625 1.75,-0.84375 0.90625,-0.28125 1.84375,-0.28125 2.46875,0 4.20313,1.67187 1.73437,1.65625 1.73437,3.8125 0,2.39063 -2.04687,3.9375 -1.71875,1.28125 -3.85938,1.28125 -0.92187,0 -1.82812,-0.26562 -0.90625,-0.26563 -1.79688,-0.8125 z m 7.125,-4.125 q 0,-0.5 -0.40625,-1.28125 -0.39062,-0.78125 -1.21875,-1.29688 -0.82812,-0.53125 -1.9375,-0.53125 -1.79687,0 -2.84375,1.35938 -0.71875,0.92187 -0.71875,1.78125 0,0.95312 1.01563,1.85937 1.03125,0.90625 2.54687,0.90625 1.53125,0 2.54688,-0.89062 1.01562,-0.90625 1.01562,-1.90625 z m 9.76172,-5.1875 v 1.5 q 1.51563,-1.09375 2.39063,-1.45313 0.875,-0.35937 1.625,-0.35937 1.17187,0 2.28125,0.85937 0.75,0.59375 0.75,1.20313 0,0.51562 -0.35938,0.875 -0.35937,0.34375 -0.85937,0.34375 -0.45313,0 -0.95313,-0.4375 -0.48437,-0.45313 -0.85937,-0.45313 -0.51563,0 -1.51563,0.64063 -1,0.625 -2.5,1.89062 v 3.625 h 3.42188 q 0.875,0 1.23437,0.34375 0.375,0.32813 0.375,0.85938 0,0.53125 -0.375,0.875 -0.35937,0.32812 -1.23437,0.32812 h -7.25 q -0.875,0 -1.25,-0.32812 -0.35938,-0.34375 -0.35938,-0.875 0,-0.53125 0.35938,-0.85938 0.375,-0.34375 1.25,-0.34375 h 1.42187 v -5.82812 h -0.85937 q -0.875,0 -1.25,-0.32813 -0.35938,-0.34375 -0.35938,-0.89062 0,-0.51563 0.35938,-0.84375 0.375,-0.34375 1.25,-0.34375 z m 20.9336,6.53125 h -9.85938 q 0.375,0.9375 1.32813,1.51562 0.95312,0.57813 2.59375,0.57813 1.32812,0 3.54687,-0.57813 0.90625,-0.23437 1.26563,-0.23437 0.48437,0 0.8125,0.34375 0.32812,0.34375 0.32812,0.85937 0,0.46875 -0.35937,0.79688 -0.46875,0.42187 -2.28125,0.82812 -1.8125,0.39063 -3.5,0.39063 -2.875,0 -4.60938,-1.625 -1.71875,-1.64063 -1.71875,-4.01563 0,-2.53125 1.85938,-4.10937 1.875,-1.59375 4.3125,-1.59375 1.46875,0 2.6875,0.51562 1.21875,0.51563 1.82812,1.10938 0.84375,0.85937 1.39063,2.14062 0.375,0.89063 0.375,2.0625 z m -2.65625,-2.39063 q -0.5625,-1.03125 -1.45313,-1.54687 -0.89062,-0.51563 -2.10937,-0.51563 -1.21875,0 -2.10938,0.51563 -0.89062,0.51562 -1.45312,1.54687 z m 16.54297,-8.70312 v 12.79687 h 0.40625 q 0.85937,0 1.23437,0.34375 0.375,0.32813 0.375,0.85938 0,0.53125 -0.375,0.875 -0.35937,0.32812 -1.23437,0.32812 h -2.8125 v -0.59375 q -0.8125,0.48438 -1.71875,0.73438 -0.89063,0.25 -1.85938,0.25 -2.70312,0 -4.35937,-1.5625 -1.64063,-1.57813 -1.64063,-3.90625 0,-2.4375 1.73438,-4.15625 1.73437,-1.71875 4.21875,-1.71875 0.9375,0 1.84375,0.28125 0.90625,0.28125 1.78125,0.85937 v -2.98437 h -0.40625 q -0.875,0 -1.25,-0.32813 -0.35938,-0.34375 -0.35938,-0.875 0,-0.53125 0.35938,-0.85937 0.375,-0.34375 1.25,-0.34375 z m -2.40625,10.20312 q 0,-1.5 -1.04688,-2.53125 -1.03125,-1.03125 -2.54687,-1.03125 -1.5,0 -2.54688,1.03125 -1.04687,1.03125 -1.04687,2.48438 0,1.32812 0.9375,2.1875 0.9375,0.84375 2.65625,0.84375 1.70312,0 2.64062,-0.84375 0.95313,-0.85938 0.95313,-2.14063 z M 89.07422,181.1183 v 2.54687 h -2.85938 v -2.54687 z m 0.32812,4.5625 v 8.23437 h 2.89063 q 0.85936,0 1.21873,0.34375 0.375,0.32813 0.375,0.85938 0,0.53125 -0.375,0.875 -0.35937,0.32812 -1.21873,0.32812 H 84.1211 q -0.875,0 -1.25,-0.32812 -0.35938,-0.34375 -0.35938,-0.875 0,-0.53125 0.35938,-0.85938 0.375,-0.34375 1.25,-0.34375 h 2.875 v -5.82812 h -1.92188 q -0.85937,0 -1.23437,-0.32813 -0.375,-0.34375 -0.375,-0.89062 0,-0.51563 0.35937,-0.84375 0.375,-0.34375 1.25,-0.34375 z m 16.96483,0.4375 q 0.42188,-0.42188 0.89063,-0.42188 0.51562,0 0.84375,0.375 0.32812,0.375 0.32812,1.21875 v 1.54688 q 0,0.875 -0.32812,1.23437 -0.32813,0.35938 -0.875,0.35938 -0.48438,0 -0.82813,-0.28125 -0.25,-0.20313 -0.39062,-0.84375 -0.14063,-0.65625 -0.67188,-0.98438 -0.95312,-0.5625 -2.4375,-0.5625 -1.6875,0 -2.71875,1 -1.03125,1 -1.03125,2.51563 0,1.40625 0.98438,2.23437 0.98437,0.8125 3.28125,0.8125 1.5,0 2.4375,-0.3125 0.5625,-0.1875 1.0625,-0.64062 0.51562,-0.45313 0.92187,-0.45313 0.5,0 0.84375,0.375 0.35938,0.35938 0.35938,0.84375 0,0.79688 -1.07813,1.51563 -1.625,1.07812 -4.73437,1.07812 -2.8125,0 -4.35938,-1.17187 -2.10937,-1.5625 -2.10937,-4.26563 0,-2.5625 1.70312,-4.23437 1.71875,-1.6875 4.46875,-1.6875 1,0 1.84375,0.1875 0.85938,0.1875 1.59375,0.5625 z m 10.0586,1.96875 v 4.8125 q 0,0.76562 0.3125,1.01562 0.5,0.39063 1.76562,0.39063 1.84375,0 3.39063,-0.78125 0.60937,-0.3125 0.9375,-0.3125 0.46875,0 0.8125,0.35937 0.35937,0.34375 0.35937,0.84375 0,0.46875 -0.375,0.8125 -0.57812,0.54688 -2.28125,1.01563 -1.6875,0.46875 -2.84375,0.46875 -2.23437,0 -3.35937,-0.96875 -1.125,-0.96875 -1.125,-2.375 v -5.28125 h -0.85938 q -0.875,0 -1.25,-0.32813 -0.35937,-0.34375 -0.35937,-0.89062 0,-0.51563 0.35937,-0.84375 0.375,-0.34375 1.25,-0.34375 h 0.85938 v -2.17188 q 0,-0.85937 0.32812,-1.23437 0.34375,-0.375 0.89063,-0.375 0.51562,0 0.84375,0.375 0.34375,0.375 0.34375,1.23437 v 2.17188 h 4.4375 q 0.875,0 1.23437,0.34375 0.375,0.32812 0.375,0.85937 0,0.53125 -0.375,0.875 -0.35937,0.32813 -1.23437,0.32813 z m 14.13672,2.39062 q 0,-2.04687 0.67187,-4.14062 0.51563,-1.54688 1.5625,-3.45313 0.76563,-1.35937 1.125,-1.65625 0.35938,-0.3125 0.8125,-0.3125 0.51563,0 0.85938,0.35938 0.35937,0.34375 0.35937,0.82812 0,0.34375 -0.28125,0.8125 -1.26562,2.07813 -1.84375,3.89063 -0.57812,1.8125 -0.57812,3.67187 0,1.875 0.57812,3.70313 0.57813,1.8125 1.84375,3.89062 0.28125,0.45313 0.28125,0.8125 0,0.48438 -0.35937,0.82813 -0.34375,0.35937 -0.85938,0.35937 -0.4375,0 -0.76562,-0.28125 -0.46875,-0.40625 -1.23438,-1.84375 -1.125,-2.07812 -1.53125,-3.42187 -0.64062,-2.0625 -0.64062,-4.04688 z m 16.29296,0 q 0,2.0625 -0.6875,4.17188 -0.5,1.54687 -1.5625,3.4375 -0.75,1.35937 -1.125,1.67187 -0.35937,0.3125 -0.79687,0.3125 -0.51563,0 -0.875,-0.35937 -0.34375,-0.34375 -0.34375,-0.82813 0,-0.35937 0.28125,-0.8125 1.26562,-2.07812 1.84375,-3.89062 0.57812,-1.82813 0.57812,-3.70313 0,-1.85937 -0.57812,-3.67187 -0.57813,-1.8125 -1.84375,-3.89063 -0.28125,-0.46875 -0.28125,-0.8125 0,-0.48437 0.34375,-0.82812 0.35937,-0.35938 0.875,-0.35938 0.42187,0 0.75,0.28125 0.46875,0.39063 1.25,1.82813 1.10937,2.07812 1.51562,3.42187 0.65625,2.0625 0.65625,4.03125 z" />
  <path
     style="fill:#000000;fill-opacity:0;fill-rule:evenodd"
     inkscape:connector-curvature="0"
     id="path123"
     d="M 0,26.41789 H 169.22835 V 78.54388 H 0 Z" />
  <path
     style="fill:#000000;fill-rule:nonzero"
     inkscape:connector-curvature="0"
     id="path125"
     d="m 17.40625,44.03602 q 0.82812,0.0937 1.625,0.46875 0.1875,-0.10938 0.35937,-0.15625 0.17188,-0.0625 0.32813,-0.0625 0.54687,0 0.875,0.375 0.34375,0.35937 0.34375,1.23437 v 0.76563 q 0,0.875 -0.34375,1.25 -0.32813,0.35937 -0.85938,0.35937 -0.48437,0 -0.8125,-0.3125 -0.32812,-0.3125 -0.39062,-0.92187 -0.84375,-0.67188 -2.10938,-0.67188 -1.32812,0 -1.95312,0.48438 -0.60938,0.46875 -0.60938,1.03125 0,0.45312 0.375,0.79687 0.375,0.35938 1.57813,0.60938 l 1.59375,0.32812 q 2.01562,0.42188 2.89062,1.23438 1.15625,1.04687 1.15625,2.75 0,1.5 -1.0625,2.67187 -1.04687,1.17188 -2.98437,1.54688 v 2.03125 q 0,0.875 -0.34375,1.23437 -0.32813,0.375 -0.85938,0.375 -0.53125,0 -0.875,-0.375 Q 15,60.72352 15,59.84852 v -2.03125 q -0.9375,-0.20313 -1.875,-0.625 -0.5,0.42187 -0.9375,0.42187 -0.57813,0 -0.90625,-0.35937 -0.32813,-0.375 -0.32813,-1.23438 v -1.51562 q 0,-0.85938 0.32813,-1.23438 0.32812,-0.375 0.875,-0.375 0.4375,0 0.71875,0.23438 0.29687,0.23437 0.42187,0.73437 0.14063,0.48438 0.375,0.71875 0.34375,0.375 1.0625,0.64063 0.71875,0.25 1.48438,0.25 1.34375,0 2.23437,-0.70313 0.59375,-0.45312 0.59375,-1.17187 0,-0.60938 -0.40625,-0.98438 -0.39062,-0.375 -1.67187,-0.64062 l -1.79688,-0.35938 q -1.92187,-0.375 -2.8125,-1.375 -0.89062,-1 -0.89062,-2.39062 0,-1.375 0.95312,-2.45313 Q 13.39062,44.31727 15,44.03602 v -0.65625 q 0,-0.85938 0.32812,-1.21875 0.34375,-0.375 0.875,-0.375 0.53125,0 0.85938,0.375 0.34375,0.35937 0.34375,1.21875 z m 12.60547,6.1875 v 4.8125 q 0,0.76562 0.3125,1.01562 0.5,0.39063 1.76562,0.39063 1.84375,0 3.39063,-0.78125 0.60937,-0.3125 0.9375,-0.3125 0.46875,0 0.8125,0.35937 0.35937,0.34375 0.35937,0.84375 0,0.46875 -0.375,0.8125 -0.57812,0.54688 -2.28125,1.01563 -1.6875,0.46875 -2.84375,0.46875 -2.23437,0 -3.35937,-0.96875 -1.125,-0.96875 -1.125,-2.375 v -5.28125 h -0.85938 q -0.875,0 -1.25,-0.32813 -0.35937,-0.34375 -0.35937,-0.89062 0,-0.51563 0.35937,-0.84375 0.375,-0.34375 1.25,-0.34375 h 0.85938 v -2.17188 q 0,-0.85937 0.32812,-1.23437 0.34375,-0.375 0.89063,-0.375 0.51562,0 0.84375,0.375 0.34375,0.375 0.34375,1.23437 v 2.17188 h 4.4375 q 0.875,0 1.23437,0.34375 0.375,0.32812 0.375,0.85937 0,0.53125 -0.375,0.875 -0.35937,0.32813 -1.23437,0.32813 z m 14.49609,-2.40625 v 1.5 q 1.51563,-1.09375 2.39063,-1.45313 0.875,-0.35937 1.625,-0.35937 1.17187,0 2.28125,0.85937 0.75,0.59375 0.75,1.20313 0,0.51562 -0.35938,0.875 -0.35937,0.34375 -0.85937,0.34375 -0.45313,0 -0.95313,-0.4375 -0.48437,-0.45313 -0.85937,-0.45313 -0.51563,0 -1.51563,0.64063 -1,0.625 -2.5,1.89062 v 3.625 h 3.42188 q 0.875,0 1.23437,0.34375 0.375,0.32813 0.375,0.85938 0,0.53125 -0.375,0.875 -0.35937,0.32812 -1.23437,0.32812 h -7.25 q -0.875,0 -1.25,-0.32812 -0.35938,-0.34375 -0.35938,-0.875 0,-0.53125 0.35938,-0.85938 0.375,-0.34375 1.25,-0.34375 h 1.42187 v -5.82812 h -0.85937 q -0.875,0 -1.25,-0.32813 -0.35938,-0.34375 -0.35938,-0.89062 0,-0.51563 0.35938,-0.84375 0.375,-0.34375 1.25,-0.34375 z m 17.0586,10.64062 v -0.5625 q -0.89063,0.48438 -1.98438,0.71875 -1.09375,0.25 -1.98437,0.25 -1.9375,0 -3.14063,-1.03125 -1.20312,-1.03125 -1.20312,-2.26562 0,-1.51563 1.53125,-2.8125 1.54687,-1.29688 4.26562,-1.29688 1.09375,0 2.51563,0.23438 v -0.57813 q 0,-0.53125 -0.46875,-0.875 -0.45313,-0.34375 -1.75,-0.34375 -1.0625,0 -2.76563,0.42188 -0.64062,0.15625 -0.98437,0.15625 -0.48438,0 -0.82813,-0.34375 -0.32812,-0.34375 -0.32812,-0.89063 0,-0.29687 0.10937,-0.51562 0.125,-0.23438 0.32813,-0.35938 0.21875,-0.14062 0.89062,-0.32812 0.89063,-0.25 1.8125,-0.39063 0.9375,-0.14062 1.6875,-0.14062 2.23438,0 3.46875,0.96875 1.23438,0.95312 1.23438,2.64062 v 4.9375 h 0.40625 q 0.875,0 1.23437,0.34375 0.375,0.32813 0.375,0.85938 0,0.53125 -0.375,0.875 -0.35937,0.32812 -1.23437,0.32812 z m 0,-4.29687 q -1.4375,-0.28125 -2.65625,-0.28125 -1.46875,0 -2.51563,0.70312 -0.65625,0.46875 -0.65625,0.9375 0,0.32813 0.3125,0.54688 0.59375,0.39062 1.60938,0.39062 0.85937,0 1.95312,-0.34375 1.10938,-0.34375 1.95313,-0.92187 z M 74.67188,43.25477 v 2.54687 H 71.8125 V 43.25477 Z M 75,47.81727 v 8.23437 h 2.89063 q 0.85937,0 1.21875,0.34375 0.375,0.32813 0.375,0.85938 0,0.53125 -0.375,0.875 -0.35938,0.32812 -1.21875,0.32812 h -8.17188 q -0.875,0 -1.25,-0.32812 -0.35937,-0.34375 -0.35937,-0.875 0,-0.53125 0.35937,-0.85938 0.375,-0.34375 1.25,-0.34375 h 2.875 v -5.82812 h -1.92187 q -0.85938,0 -1.23438,-0.32813 -0.375,-0.34375 -0.375,-0.89062 0,-0.51563 0.35938,-0.84375 0.375,-0.34375 1.25,-0.34375 z m 10.77734,0 v 0.8125 q 0.65625,-0.5625 1.45313,-0.84375 0.79687,-0.28125 1.71875,-0.28125 2.125,0 3.375,1.3125 0.98436,1.0625 0.98436,2.76562 v 4.46875 q 0.76562,0 1.125,0.34375 0.35937,0.32813 0.35937,0.85938 0,0.53125 -0.375,0.875 -0.35937,0.32812 -1.23437,0.32812 h -2.15623 q -0.875,0 -1.25,-0.32812 -0.35938,-0.34375 -0.35938,-0.875 0,-0.53125 0.35938,-0.85938 0.35937,-0.34375 1.125,-0.34375 v -4.53125 q 0,-0.78125 -0.42188,-1.15625 -0.54687,-0.46875 -1.65625,-0.46875 -0.82812,0 -1.45312,0.32813 -0.625,0.32812 -1.59375,1.35937 v 4.46875 q 0.9375,0 1.20312,0.17188 0.57813,0.35937 0.57813,1.03125 0,0.53125 -0.375,0.875 -0.375,0.32812 -1.23438,0.32812 h -2.73437 q -0.85938,0 -1.23438,-0.32812 -0.375,-0.34375 -0.375,-0.875 0,-0.65625 0.5625,-1.03125 0.28125,-0.17188 1.21875,-0.17188 v -5.82812 q -0.76562,0 -1.14062,-0.34375 -0.35938,-0.34375 -0.35938,-0.875 0,-0.51563 0.375,-0.84375 0.375,-0.34375 1.23438,-0.34375 z m 15.98046,4.79687 q 0,-2.04687 0.67187,-4.14062 0.51563,-1.54688 1.5625,-3.45313 0.76563,-1.35937 1.125,-1.65625 0.35938,-0.3125 0.8125,-0.3125 0.51563,0 0.85938,0.35938 0.35937,0.34375 0.35937,0.82812 0,0.34375 -0.28125,0.8125 -1.26562,2.07813 -1.84375,3.89063 -0.57812,1.8125 -0.57812,3.67187 0,1.875 0.57812,3.70313 0.57813,1.8125 1.84375,3.89062 0.28125,0.45313 0.28125,0.8125 0,0.48438 -0.35937,0.82813 -0.34375,0.35937 -0.85938,0.35937 -0.4375,0 -0.76562,-0.28125 -0.46875,-0.40625 -1.23438,-1.84375 -1.125,-2.07812 -1.53125,-3.42187 -0.64062,-2.0625 -0.64062,-4.04688 z m 16.29297,0 q 0,2.0625 -0.6875,4.17188 -0.5,1.54687 -1.5625,3.4375 -0.75,1.35937 -1.125,1.67187 -0.35938,0.3125 -0.79688,0.3125 -0.51562,0 -0.875,-0.35937 -0.34375,-0.34375 -0.34375,-0.82813 0,-0.35937 0.28125,-0.8125 1.26563,-2.07812 1.84375,-3.89062 0.57813,-1.82813 0.57813,-3.70313 0,-1.85937 -0.57813,-3.67187 -0.57812,-1.8125 -1.84375,-3.89063 -0.28125,-0.46875 -0.28125,-0.8125 0,-0.48437 0.34375,-0.82812 0.35938,-0.35938 0.875,-0.35938 0.42188,0 0.75,0.28125 0.46875,0.39063 1.25,1.82813 1.10938,2.07812 1.51563,3.42187 0.65625,2.0625 0.65625,4.03125 z" />
</svg>
