<?xml version="1.0" encoding="UTF-8" standalone="no"?>
<!-- Created with Inkscape (http://www.inkscape.org/) -->

<svg
   xmlns:dc="http://purl.org/dc/elements/1.1/"
   xmlns:cc="http://creativecommons.org/ns#"
   xmlns:rdf="http://www.w3.org/1999/02/22-rdf-syntax-ns#"
   xmlns:svg="http://www.w3.org/2000/svg"
   xmlns="http://www.w3.org/2000/svg"
   xmlns:sodipodi="http://sodipodi.sourceforge.net/DTD/sodipodi-0.dtd"
   xmlns:inkscape="http://www.inkscape.org/namespaces/inkscape"
   version="1.1"
   id="svg29"
   xml:space="preserve"
   width="444.00214"
   height="206.95013"
   viewBox="0 0 444.00214 206.95014"
   sodipodi:docname="train_predict.svg"
   inkscape:version="0.92.4 5da689c313, 2019-01-14"><metadata
     id="metadata35"><rdf:RDF><cc:Work
         rdf:about=""><dc:format>image/svg+xml</dc:format><dc:type
           rdf:resource="http://purl.org/dc/dcmitype/StillImage" /><dc:title></dc:title></cc:Work></rdf:RDF></metadata><defs
     id="defs33"><clipPath
       clipPathUnits="userSpaceOnUse"
       id="clipPath65"><path
         d="M 0,0 H 5.169 V 5.169 H 0 Z"
         id="path63"
         inkscape:connector-curvature="0" /></clipPath><radialGradient
       fx="1.6825401"
       fy="3.68645"
       cx="2.5843201"
       cy="2.5843201"
       r="2.5843201"
       gradientUnits="userSpaceOnUse"
       id="radialGradient77"><stop
         style="stop-opacity:1;stop-color:#d9d9d9"
         offset="0"
         id="stop67" /><stop
         style="stop-opacity:1;stop-color:#404040"
         offset="0.80153"
         id="stop69" /><stop
         style="stop-opacity:1;stop-color:#000000"
         offset="1.60309"
         id="stop71" /><stop
         style="stop-opacity:1;stop-color:#000000"
         offset="2.20427"
         id="stop73" /><stop
         style="stop-opacity:1;stop-color:#ffffff"
         offset="2.58432"
         id="stop75" /></radialGradient><clipPath
       clipPathUnits="userSpaceOnUse"
       id="clipPath101"><path
         d="M 0,0 H 5.169 V 5.169 H 0 Z"
         id="path99"
         inkscape:connector-curvature="0" /></clipPath><radialGradient
       fx="1.6825401"
       fy="3.68645"
       cx="2.5843201"
       cy="2.5843201"
       r="2.5843201"
       gradientUnits="userSpaceOnUse"
       id="radialGradient113"><stop
         style="stop-opacity:1;stop-color:#d9d9d9"
         offset="0"
         id="stop103" /><stop
         style="stop-opacity:1;stop-color:#404040"
         offset="0.80153"
         id="stop105" /><stop
         style="stop-opacity:1;stop-color:#000000"
         offset="1.60309"
         id="stop107" /><stop
         style="stop-opacity:1;stop-color:#000000"
         offset="2.20427"
         id="stop109" /><stop
         style="stop-opacity:1;stop-color:#ffffff"
         offset="2.58432"
         id="stop111" /></radialGradient><clipPath
       clipPathUnits="userSpaceOnUse"
       id="clipPath141"><path
         d="M 0,0 H 5.169 V 5.169 H 0 Z"
         id="path139"
         inkscape:connector-curvature="0" /></clipPath><radialGradient
       fx="1.6825401"
       fy="3.68645"
       cx="2.5843201"
       cy="2.5843201"
       r="2.5843201"
       gradientUnits="userSpaceOnUse"
       id="radialGradient153"><stop
         style="stop-opacity:1;stop-color:#d9d9d9"
         offset="0"
         id="stop143" /><stop
         style="stop-opacity:1;stop-color:#404040"
         offset="0.80153"
         id="stop145" /><stop
         style="stop-opacity:1;stop-color:#000000"
         offset="1.60309"
         id="stop147" /><stop
         style="stop-opacity:1;stop-color:#000000"
         offset="2.20427"
         id="stop149" /><stop
         style="stop-opacity:1;stop-color:#ffffff"
         offset="2.58432"
         id="stop151" /></radialGradient><clipPath
       clipPathUnits="userSpaceOnUse"
       id="clipPath181"><path
         d="M 0,0 H 5.169 V 5.169 H 0 Z"
         id="path179"
         inkscape:connector-curvature="0" /></clipPath><radialGradient
       fx="1.6825401"
       fy="3.68645"
       cx="2.5843201"
       cy="2.5843201"
       r="2.5843201"
       gradientUnits="userSpaceOnUse"
       id="radialGradient193"><stop
         style="stop-opacity:1;stop-color:#d9d9d9"
         offset="0"
         id="stop183" /><stop
         style="stop-opacity:1;stop-color:#404040"
         offset="0.80153"
         id="stop185" /><stop
         style="stop-opacity:1;stop-color:#000000"
         offset="1.60309"
         id="stop187" /><stop
         style="stop-opacity:1;stop-color:#000000"
         offset="2.20427"
         id="stop189" /><stop
         style="stop-opacity:1;stop-color:#ffffff"
         offset="2.58432"
         id="stop191" /></radialGradient><clipPath
       clipPathUnits="userSpaceOnUse"
       id="clipPath217"><path
         d="M 0,0 H 489.998 V 244.999 H 0 Z"
         id="path215"
         inkscape:connector-curvature="0" /></clipPath><clipPath
       clipPathUnits="userSpaceOnUse"
       id="clipPath225"><path
         d="M 0,0 H 720 V 405 H 0 Z"
         id="path223"
         inkscape:connector-curvature="0" /></clipPath><clipPath
       clipPathUnits="userSpaceOnUse"
       id="clipPath229"><path
         d="M 0,0 H 365760 V 205740 H 0 Z"
         id="path227"
         inkscape:connector-curvature="0" /></clipPath><clipPath
       clipPathUnits="userSpaceOnUse"
       id="clipPath575"><rect
         style="opacity:1;fill:#ff0000;fill-opacity:0.26666667;stroke:#00006e;stroke-width:2.83464575;stroke-miterlimit:4;stroke-dasharray:none;stroke-opacity:0.98477155"
         id="rect577"
         width="333.00162"
         height="155.2126"
         x="-6.5510254"
         y="89.198456"
         ry="0"
         transform="scale(1,-1)" /></clipPath><clipPath
       clipPathUnits="userSpaceOnUse"
       id="clipPath579"><rect
         style="opacity:1;fill:#ff0000;fill-opacity:0.26666667;stroke:#00006e;stroke-width:2.83464575;stroke-miterlimit:4;stroke-dasharray:none;stroke-opacity:0.98477155"
         id="rect581"
         width="333.00162"
         height="155.2126"
         x="-6.5510154"
         y="91.654442"
         ry="0" /></clipPath></defs><sodipodi:namedview
     pagecolor="#ffffff"
     bordercolor="#666666"
     borderopacity="1"
     objecttolerance="10"
     gridtolerance="10"
     guidetolerance="10"
     inkscape:pageopacity="0"
     inkscape:pageshadow="2"
     inkscape:window-width="1920"
     inkscape:window-height="1135"
     id="namedview31"
     showgrid="false"
     inkscape:zoom="1.8603515"
     inkscape:cx="317.33951"
     inkscape:cy="163.67874"
     inkscape:window-x="1050"
     inkscape:window-y="240"
     inkscape:window-maximized="1"
     inkscape:current-layer="g37"
     fit-margin-top="0"
     fit-margin-left="0"
     fit-margin-right="0"
     fit-margin-bottom="0" /><g
     id="g37"
     inkscape:groupmode="layer"
     inkscape:label="01_mlr_pipeops_slides"
     transform="matrix(1.3333333,0,0,-1.3333333,-21.501312,224.68873)"><text
   transform="matrix(1,0,0,-1,22.677,260.171)"
   style="font-variant:normal;font-weight:bold;font-size:13.19849968px;font-family:NimbusSanL;-inkscape-font-specification:NimbusSanL-Bold;writing-mode:lr-tb;fill:#000000;fill-opacity:1;fill-rule:nonzero;stroke:none"
   id="text41"
   clip-path="url(#clipPath579)"
   inkscape:export-filename="/Users/danielsaggau/train_predict.png"
   inkscape:export-xdpi="500"
   inkscape:export-ydpi="500"><tspan
     x="0 8.0642834 17.593601 30.066183 39.463516 48.992832 52.662014 60.726299 70.255615 73.924797 83.454117 97.391731 106.92105 114.98533 125.25376 134.78308 144.31239"
     y="0"
     sodipodi:role="line"
     id="tspan39">THEBUILDINGBLOCKS</tspan></text>

<g
   id="g43"
   transform="translate(22.67701,257.71501)"
   clip-path="url(#clipPath575)"
   inkscape:export-filename="/Users/danielsaggau/train_predict.png"
   inkscape:export-xdpi="500"
   inkscape:export-ydpi="500"><g
     id="g45"
     transform="translate(-3.595,-20.959)"><path
       d="M 0,0 H 324.671 V 15.978 H 0 Z"
       style="fill:#ffffff;fill-opacity:1;fill-rule:nonzero;stroke:none"
       id="path47"
       inkscape:connector-curvature="0" /></g><g
     id="g49"
     transform="translate(-22.677,-257.715)"><text
   transform="matrix(1,0,0,-1,22.677,242.452)"
   style="font-variant:normal;font-weight:bold;font-size:9.16559982px;font-family:NimbusSanL;-inkscape-font-specification:NimbusSanL-Bold;writing-mode:lr-tb;fill:#000000;fill-opacity:1;fill-rule:nonzero;stroke:none"
   id="text53"><tspan
     x="0 6.1134553 8.6614923 14.261674 19.357748 26.488585 32.088764 38.293877 44.407333 46.955368 52.55555 58.155731 60.70377 68.347878 74.965439 80.56562 83.113663 88.713844 94.314026 99.914207 106.53177 111.62785 114.67999 122.3241 129.45494 135.05511 140.15118 143.71661 148.81268 151.86482 154.41286 160.01305"
     y="0"
     sodipodi:role="line"
     id="tspan51">PipeOp:SingleUnitofDataOperation</tspan></text>

<g
   id="g55"
   transform="translate(22.67701,236.95801)"><g
     id="g57"
     transform="translate(9.776,-16.738)"><g
       id="g59"><g
         id="g61"
         clip-path="url(#clipPath65)"><path
           d="M 0,0 H 5.169 V 5.169 H 0 Z"
           style="fill:url(#radialGradient77);stroke:none"
           id="path79"
           inkscape:connector-curvature="0" /></g></g></g><g
     id="g81"
     transform="translate(-22.677,-236.958)"><text
   transform="matrix(1,0,0,-1,42.603,220.021)"
   style="font-variant:normal;font-weight:normal;font-size:9.96259975px;font-family:CMTT8;-inkscape-font-specification:CMTT8;writing-mode:lr-tb;fill:#000000;fill-opacity:1;fill-rule:nonzero;stroke:none"
   id="text85"><tspan
     x="0 5.2931294 10.576296 21.159567 31.742836 37.026005 42.319134 47.612263 52.895428 58.188557 63.481686 68.774818 74.057983 79.351112 84.644241"
     y="0"
     sodipodi:role="line"
     id="tspan83">pip=po(&quot;scale&quot;)</tspan></text>

<text
   transform="matrix(1,0,0,-1,135.081,220.021)"
   style="font-variant:normal;font-size:9.16559982px;font-family:NimbusSanL;-inkscape-font-specification:NimbusSanL-Regu;writing-mode:lr-tb;fill:#000000;fill-opacity:1;fill-rule:nonzero;stroke:none"
   id="text89"><tspan
     x="0 2.5480368 10.192147 14.774947 19.871021 24.967094 29.549894 32.097931 35.28756 40.383633 44.966434"
     y="0"
     sodipodi:role="line"
     id="tspan87">toconstruct</tspan></text>

<g
   id="g91"
   transform="translate(22.67701,217.81001)"><g
     id="g93"
     transform="translate(9.776,-12.533)"><g
       id="g95"><g
         id="g97"
         clip-path="url(#clipPath101)"><path
           d="M 0,0 H 5.169 V 5.169 H 0 Z"
           style="fill:url(#radialGradient113);stroke:none"
           id="path115"
           inkscape:connector-curvature="0" /></g></g></g><g
     id="g117"
     transform="translate(-22.677,-217.81)"><text
   transform="matrix(1,0,0,-1,42.603,205.077)"
   style="font-variant:normal;font-weight:normal;font-size:9.96259975px;font-family:CMTT8;-inkscape-font-specification:CMTT8;writing-mode:lr-tb;fill:#000000;fill-opacity:1;fill-rule:nonzero;stroke:none"
   id="text121"><tspan
     x="0 5.2931294 10.576296 15.869426 21.162556 26.445723 31.738852 37.031979 42.315147 47.608276 52.901405"
     y="0"
     sodipodi:role="line"
     id="tspan119">pip$train()</tspan></text>

<text
   transform="matrix(1,0,0,-1,100.793,205.077)"
   style="font-variant:normal;font-size:9.16559982px;font-family:NimbusSanL;-inkscape-font-specification:NimbusSanL-Regu;writing-mode:lr-tb;fill:#000000;fill-opacity:1;fill-rule:nonzero;stroke:none"
   id="text125"><tspan
     x="0 5.7010031 10.797077 13.849221 18.945295 23.528095 28.624168 33.20697 40.337807 45.43388 50.529953 53.077991 60.722099 65.818176 70.914246 78.558357 83.141159 86.193306 91.289375 96.385452 98.933487"
     y="0"
     sodipodi:role="line"
     id="tspan123">:processdataandcreate</tspan></text>

<text
   transform="matrix(1,0,0,-1,207.369,205.077)"
   style="font-variant:normal;font-weight:normal;font-size:9.96259975px;font-family:CMTT8;-inkscape-font-specification:CMTT8;writing-mode:lr-tb;fill:#000000;fill-opacity:1;fill-rule:nonzero;stroke:none"
   id="text129"><tspan
     x="0 5.2931294 10.576296 15.869426 21.162556 26.445723 31.738852 37.031979 42.325111"
     y="0"
     sodipodi:role="line"
     id="tspan127">pip$state</tspan></text>

<g
   id="g131"
   transform="translate(22.67701,202.86601)"><g
     id="g133"
     transform="translate(9.776,-12.533)"><g
       id="g135"><g
         id="g137"
         clip-path="url(#clipPath141)"><path
           d="M 0,0 H 5.169 V 5.169 H 0 Z"
           style="fill:url(#radialGradient153);stroke:none"
           id="path155"
           inkscape:connector-curvature="0" /></g></g></g><g
     id="g157"
     transform="translate(-22.677,-202.866)"><text
   transform="matrix(1,0,0,-1,42.603,190.133)"
   style="font-variant:normal;font-weight:normal;font-size:9.96259975px;font-family:CMTT8;-inkscape-font-specification:CMTT8;writing-mode:lr-tb;fill:#000000;fill-opacity:1;fill-rule:nonzero;stroke:none"
   id="text161"><tspan
     x="0 5.2931294 10.576296 15.869426 21.162556 26.445723 31.738852 37.031979 42.315147 47.608276 52.901405 58.194534 63.477703"
     y="0"
     sodipodi:role="line"
     id="tspan159">pip$predict()</tspan></text>

<text
   transform="matrix(1,0,0,-1,111.373,190.133)"
   style="font-variant:normal;font-size:9.16559982px;font-family:NimbusSanL;-inkscape-font-specification:NimbusSanL-Regu;writing-mode:lr-tb;fill:#000000;fill-opacity:1;fill-rule:nonzero;stroke:none"
   id="text165"><tspan
     x="0 5.7010031 10.797077 13.849221 18.945295 23.528095 28.624168 33.20697 40.337807 45.43388 50.529953 53.077991 60.722099 65.818176 70.914246 76.010323 81.106392 86.202469 91.298538 93.333305 98.429375 106.07349 111.16956 118.81367 121.36171 126.45779"
     y="0"
     sodipodi:role="line"
     id="tspan163">:processdatadependingonthe</tspan></text>

<text
   transform="matrix(1,0,0,-1,245.473,190.133)"
   style="font-variant:normal;font-weight:normal;font-size:9.96259975px;font-family:CMTT8;-inkscape-font-specification:CMTT8;writing-mode:lr-tb;fill:#000000;fill-opacity:1;fill-rule:nonzero;stroke:none"
   id="text169"><tspan
     x="0 5.2931294 10.576296 15.869426 21.162556 26.445723 31.738852 37.031979 42.325111"
     y="0"
     sodipodi:role="line"
     id="tspan167">pip$state</tspan></text>

<g
   id="g171"
   transform="translate(2022.7028,2187.9478)"><g
     id="g173"
     transform="translate(9.776,-12.533)"><g
       id="g175"><g
         id="g177"
         clip-path="url(#clipPath181)"><path
           d="M 0,0 H 5.169 V 5.169 H 0 Z"
           style="fill:url(#radialGradient193);stroke:none"
           id="path195"
           inkscape:connector-curvature="0" /></g></g></g><g
     id="g197"
     transform="translate(-22.677,-187.922)"><text
   transform="matrix(1,0,0,-1,42.603,175.189)"
   style="font-variant:normal;font-size:9.16559982px;font-family:NimbusSanL;-inkscape-font-specification:NimbusSanL-Regu;writing-mode:lr-tb;fill:#000000;fill-opacity:1;fill-rule:nonzero;stroke:none"
   id="text201"><tspan
     x="0 7.6349449 12.731018 14.765781 17.313818 19.348581 24.444654 26.479418 34.123528 36.158291 41.254364 46.350441 51.446514 53.994549 61.125385 66.221458 71.82164 79.364929 84.461006 86.495766 89.0438 91.078568 96.174644 98.209404 105.85352 110.94958 116.04566 118.5937 123.68977 128.78584 131.33388"
     y="0"
     sodipodi:role="line"
     id="tspan199">Multipleinputsormultipleoutputs</tspan></text>

<g
   id="g203"
   transform="translate(-1821.5088,-1824.8368)"><g
     id="g205"
     transform="translate(-155.83999,-168.64599)"><g
       id="g207"
       transform="scale(0.64795)"><g
         id="g209"><g
           id="g211"><g
             id="g213"
             clip-path="url(#clipPath217)"><g
               id="g219"
               transform="translate(-100)"><g
                 id="g221" /><g
                 id="g557"><g
                   clip-path="url(#clipPath225)"
                   id="g555"><g
                     transform="matrix(1,0,0,-1,0,405)"
                     id="g553"><g
                       transform="scale(0.0019685)"
                       id="g551"><g
                         clip-path="url(#clipPath229)"
                         id="g549"><g
                           id="g235"><g
                             id="g233"><path
                               d="M 0,0 H 365760 V 205740 H 0 Z"
                               style="fill:#ffffff;fill-opacity:1;fill-rule:evenodd;stroke:none"
                               id="path231"
                               inkscape:connector-curvature="0" /></g></g><g
                           id="g243"><g
                             id="g239"><path
                               d="m 186817.78,98993.22 v 0 c 0,-1695.55 1374.5,-3070.06 3070.06,-3070.06 h 35067.88 c 814.22,0 1595.11,323.45 2170.86,899.19 575.75,575.75 899.2,1356.634 899.2,2170.87 v 12279.87 c 0,1695.55 -1374.51,3070.07 -3070.06,3070.07 h -35067.88 c -1695.56,0 -3070.06,-1374.52 -3070.06,-3070.07 z"
                               style="fill:#d0e0e3;fill-opacity:1;fill-rule:evenodd;stroke:none"
                               id="path237"
                               inkscape:connector-curvature="0" /></g><path
                             d="m 186817.78,98993.22 v 0 c 0,-1695.55 1374.5,-3070.06 3070.06,-3070.06 h 35067.88 c 814.22,0 1595.11,323.45 2170.86,899.19 575.75,575.75 899.2,1356.634 899.2,2170.87 v 12279.87 c 0,1695.55 -1374.51,3070.07 -3070.06,3070.07 h -35067.88 c -1695.56,0 -3070.06,-1374.52 -3070.06,-3070.07 z"
                             style="fill:none;stroke:#000000;stroke-width:762;stroke-linecap:butt;stroke-linejoin:round;stroke-miterlimit:8;stroke-dasharray:none;stroke-opacity:1"
                             id="path241"
                             inkscape:connector-curvature="0" /></g><g
                           transform="scale(381)"
                           id="g253"><g
                             transform="translate(492.69543,254.12689)"
                             id="g251"><g
                               id="g249"><text
   transform="translate(26.979061,27.533148)"
   style="font-variant:normal;font-weight:normal;font-size:15.33333302px;font-family:FiraSans;-inkscape-font-specification:FiraSans-Regular;writing-mode:lr-tb;fill:#000000;fill-opacity:1;fill-rule:nonzero;stroke:none"
   id="text247"><tspan
     x="0 8.3566666 15.532666 23.720667 28.213333 32.537334 41.522667"
     y="0"
     sodipodi:role="line"
     id="tspan245">Scaling</tspan></text>

</g></g></g><g
                           transform="scale(381)"
                           id="g255" /><g
                           id="g263"><g
                             id="g259"><path
                               d="m 186818,159085.16 v 0 c 0,-3793.18 3074.97,-6868.14 6868.14,-6868.14 h 27471.72 v 0 c 1821.54,0 3568.48,723.6 4856.52,2011.64 1288.01,1288.01 2011.62,3034.95 2011.62,4856.5 v 32199.72 c 0,3793.17 -3074.97,6868.14 -6868.14,6868.14 h -27471.72 c -3793.17,0 -6868.14,-3074.97 -6868.14,-6868.14 z"
                               style="fill:#d0e0e3;fill-opacity:1;fill-rule:evenodd;stroke:none"
                               id="path257"
                               inkscape:connector-curvature="0" /></g><path
                             d="m 186818,159085.16 v 0 c 0,-3793.18 3074.97,-6868.14 6868.14,-6868.14 h 27471.72 v 0 c 1821.54,0 3568.48,723.6 4856.52,2011.64 1288.01,1288.01 2011.62,3034.95 2011.62,4856.5 v 32199.72 c 0,3793.17 -3074.97,6868.14 -6868.14,6868.14 h -27471.72 c -3793.17,0 -6868.14,-3074.97 -6868.14,-6868.14 z"
                             style="fill:none;stroke:#000000;stroke-width:762;stroke-linecap:butt;stroke-linejoin:round;stroke-miterlimit:8;stroke-dasharray:none;stroke-opacity:1"
                             id="path261"
                             inkscape:connector-curvature="0" /></g><g
                           transform="scale(381)"
                           id="g273"><g
                             transform="translate(495.61578,404.79953)"
                             id="g271"><g
                               id="g269"><text
   transform="translate(24.059326,24.723652)"
   style="font-variant:normal;font-weight:normal;font-size:15.33333302px;font-family:FiraSans;-inkscape-font-specification:FiraSans-Regular;writing-mode:lr-tb;fill:#000000;fill-opacity:1;fill-rule:nonzero;stroke:none"
   id="text267"><tspan
     x="0 8.3566666 15.532666 23.720667 28.213333 32.537334 41.522667"
     y="0"
     sodipodi:role="line"
     id="tspan265">Scaling</tspan></text>

</g></g></g><g
                           transform="scale(381)"
                           id="g275" /><g
                           id="g283"><g
                             id="g279"><path
                               d="m 189008,175553.08 v 0 c 0,-2367.13 1918.95,-4286.08 4286.08,-4286.08 h 28255.84 c 1136.74,0 2226.92,451.56 3030.72,1255.36 803.8,803.8 1255.36,1893.98 1255.36,3030.72 v 17143.84 c 0,2367.13 -1918.95,4286.08 -4286.08,4286.08 h -28255.84 c -2367.13,0 -4286.08,-1918.95 -4286.08,-4286.08 z"
                               style="fill:#eeeeee;fill-opacity:1;fill-rule:evenodd;stroke:none"
                               id="path277"
                               inkscape:connector-curvature="0" /></g><path
                             d="m 189008,175553.08 v 0 c 0,-2367.13 1918.95,-4286.08 4286.08,-4286.08 h 28255.84 c 1136.74,0 2226.92,451.56 3030.72,1255.36 803.8,803.8 1255.36,1893.98 1255.36,3030.72 v 17143.84 c 0,2367.13 -1918.95,4286.08 -4286.08,4286.08 h -28255.84 c -2367.13,0 -4286.08,-1918.95 -4286.08,-4286.08 z"
                             style="fill:none;stroke:#595959;stroke-width:381;stroke-linecap:butt;stroke-linejoin:round;stroke-miterlimit:8;stroke-dasharray:none;stroke-opacity:1"
                             id="path281"
                             inkscape:connector-curvature="0" /></g><g
                           transform="scale(381)"
                           id="g297"><g
                             transform="translate(499.37888,452.81458)"
                             id="g295"><g
                               id="g293"><text
   transform="translate(19.899326,27.173145)"
   style="font-variant:normal;font-weight:normal;font-size:15.33333302px;font-family:Arial;-inkscape-font-specification:ArialMT;writing-mode:lr-tb;fill:#000000;fill-opacity:1;fill-rule:nonzero;stroke:none"
   id="text287"><tspan
     x="0 10.212 17.878666 26.403999 29.807999 33.211998 41.737331 50.262665"
     y="0"
     sodipodi:role="line"
     id="tspan285">Scaling </tspan></text>

<text
   transform="translate(19.483944,45.173145)"
   style="font-variant:normal;font-weight:normal;font-size:15.33333302px;font-family:Arial;-inkscape-font-specification:ArialMT;writing-mode:lr-tb;fill:#000000;fill-opacity:1;fill-rule:nonzero;stroke:none"
   id="text291"><tspan
     x="0 9.3533335 17.878666 25.545332 29.792665 38.318001 43.424"
     y="0"
     sodipodi:role="line"
     id="tspan289">Factors</tspan></text>

</g></g></g><g
                           transform="scale(381)"
                           id="g299" /><g
                           id="g307"><g
                             id="g303"><path
                               d="m 115812,84756.78 h 36828 v 39228 h -36828 z"
                               style="fill:#6d9eeb;fill-opacity:1;fill-rule:evenodd;stroke:none"
                               id="path301"
                               inkscape:connector-curvature="0" /></g><path
                             d="m 115812,84756.78 h 36828 v 39228 h -36828 z"
                             style="fill:none;stroke:#000000;stroke-width:762;stroke-linecap:butt;stroke-linejoin:round;stroke-miterlimit:8;stroke-dasharray:none;stroke-opacity:1"
                             id="path305"
                             inkscape:connector-curvature="0" /></g><g
                           transform="scale(381)"
                           id="g321"><g
                             transform="translate(303.9685,222.45874)"
                             id="g319"><g
                               id="g317"><text
   transform="translate(14.395321,47.400314)"
   style="font-variant:normal;font-weight:normal;font-size:18.66666603px;font-family:FiraSans;-inkscape-font-specification:FiraSans-Regular;writing-mode:lr-tb;fill:#000000;fill-opacity:1;fill-rule:nonzero;stroke:none"
   id="text311"><tspan
     x="0 9.109333 15.661333 25.816 31.079998 42.018665 47.282665 58.221333 67.927994"
     y="0"
     sodipodi:role="line"
     id="tspan309">Training </tspan></text>

<text
   transform="translate(28.965595,69.400314)"
   style="font-variant:normal;font-weight:normal;font-size:18.66666603px;font-family:FiraSans;-inkscape-font-specification:FiraSans-Regular;writing-mode:lr-tb;fill:#000000;fill-opacity:1;fill-rule:nonzero;stroke:none"
   id="text315"><tspan
     x="0 11.853333 22.007999 28.634666"
     y="0"
     sodipodi:role="line"
     id="tspan313">Data</tspan></text>

</g></g></g><g
                           transform="scale(381)"
                           id="g323" /><g
                           id="g331"><g
                             id="g327"><path
                               d="m 115812,154808.78 h 36828 v 39228 h -36828 z"
                               style="fill:#6d9eeb;fill-opacity:1;fill-rule:evenodd;stroke:none"
                               id="path325"
                               inkscape:connector-curvature="0" /></g><path
                             d="m 115812,154808.78 h 36828 v 39228 h -36828 z"
                             style="fill:none;stroke:#000000;stroke-width:762;stroke-linecap:butt;stroke-linejoin:round;stroke-miterlimit:8;stroke-dasharray:none;stroke-opacity:1"
                             id="path329"
                             inkscape:connector-curvature="0" /></g><g
                           transform="scale(381)"
                           id="g345"><g
                             transform="translate(303.9685,406.32227)"
                             id="g343"><g
                               id="g341"><text
   transform="translate(30.187496,47.400314)"
   style="font-variant:normal;font-weight:normal;font-size:18.66666603px;font-family:FiraSans;-inkscape-font-specification:FiraSans-Regular;writing-mode:lr-tb;fill:#000000;fill-opacity:1;fill-rule:nonzero;stroke:none"
   id="text335"><tspan
     x="0 12.749332 22.922667 36.306664"
     y="0"
     sodipodi:role="line"
     id="tspan333">New </tspan></text>

<text
   transform="translate(28.965595,69.400314)"
   style="font-variant:normal;font-weight:normal;font-size:18.66666603px;font-family:FiraSans;-inkscape-font-specification:FiraSans-Regular;writing-mode:lr-tb;fill:#000000;fill-opacity:1;fill-rule:nonzero;stroke:none"
   id="text339"><tspan
     x="0 11.853333 22.007999 28.634666"
     y="0"
     sodipodi:role="line"
     id="tspan337">Data</tspan></text>

</g></g></g><g
                           transform="scale(381)"
                           id="g347" /><g
                           id="g355"><g
                             id="g351"><path
                               d="m 261354,84756.78 h 36828 v 39228 h -36828 z"
                               style="fill:#6d9eeb;fill-opacity:1;fill-rule:evenodd;stroke:none"
                               id="path349"
                               inkscape:connector-curvature="0" /></g><path
                             d="m 261354,84756.78 h 36828 v 39228 h -36828 z"
                             style="fill:none;stroke:#000000;stroke-width:762;stroke-linecap:butt;stroke-linejoin:round;stroke-miterlimit:8;stroke-dasharray:none;stroke-opacity:1"
                             id="path353"
                             inkscape:connector-curvature="0" /></g><g
                           transform="scale(381)"
                           id="g369"><g
                             transform="translate(685.9685,222.45874)"
                             id="g367"><g
                               id="g365"><text
   transform="translate(2.4906044,47.840317)"
   style="font-variant:normal;font-weight:normal;font-size:16px;font-family:FiraSans;-inkscape-font-specification:FiraSans-Regular;writing-mode:lr-tb;fill:#000000;fill-opacity:1;fill-rule:nonzero;stroke:none"
   id="text359"><tspan
     x="0 7.8080001 13.44 22.143999 31.52 38.992001 44.192001 53.535999 59.712002 73.424004 82.143997 91.711998"
     y="0"
     sodipodi:role="line"
     id="tspan357">Transformed </tspan></text>

<text
   transform="translate(31.722668,66.84032)"
   style="font-variant:normal;font-weight:normal;font-size:16px;font-family:FiraSans;-inkscape-font-specification:FiraSans-Regular;writing-mode:lr-tb;fill:#000000;fill-opacity:1;fill-rule:nonzero;stroke:none"
   id="text363"><tspan
     x="0 10.144 18.848 24.528"
     y="0"
     sodipodi:role="line"
     id="tspan361">Data</tspan></text>

</g></g></g><g
                           transform="scale(381)"
                           id="g371" /><g
                           id="g379"><g
                             id="g375"><path
                               d="m 261354,154808.78 h 36828 v 39228 h -36828 z"
                               style="fill:#6d9eeb;fill-opacity:1;fill-rule:evenodd;stroke:none"
                               id="path373"
                               inkscape:connector-curvature="0" /></g><path
                             d="m 261354,154808.78 h 36828 v 39228 h -36828 z"
                             style="fill:none;stroke:#000000;stroke-width:762;stroke-linecap:butt;stroke-linejoin:round;stroke-miterlimit:8;stroke-dasharray:none;stroke-opacity:1"
                             id="path377"
                             inkscape:connector-curvature="0" /></g><g
                           transform="scale(381)"
                           id="g393"><g
                             transform="translate(685.9685,406.32227)"
                             id="g391"><g
                               id="g389"><text
   transform="translate(2.4906044,47.840317)"
   style="font-variant:normal;font-weight:normal;font-size:16px;font-family:FiraSans;-inkscape-font-specification:FiraSans-Regular;writing-mode:lr-tb;fill:#000000;fill-opacity:1;fill-rule:nonzero;stroke:none"
   id="text383"><tspan
     x="0 7.8080001 13.44 22.143999 31.52 38.992001 44.192001 53.535999 59.712002 73.424004 82.143997 91.711998"
     y="0"
     sodipodi:role="line"
     id="tspan381">Transformed </tspan></text>

<text
   transform="translate(31.722668,66.84032)"
   style="font-variant:normal;font-weight:normal;font-size:16px;font-family:FiraSans;-inkscape-font-specification:FiraSans-Regular;writing-mode:lr-tb;fill:#000000;fill-opacity:1;fill-rule:nonzero;stroke:none"
   id="text387"><tspan
     x="0 10.144 18.848 24.528"
     y="0"
     sodipodi:role="line"
     id="tspan385">Data</tspan></text>

</g></g></g><g
                           transform="scale(381)"
                           id="g395" /><g
                           id="g403"><g
                             id="g401"><g
                               id="g399"><path
                                 d="m 29705,87805 h 91956 V 221449 H 29705 Z"
                                 style="fill:#000000;fill-opacity:0;fill-rule:evenodd;stroke:none"
                                 id="path397"
                                 inkscape:connector-curvature="0" /></g></g></g><g
                           transform="scale(381)"
                           id="g417"><g
                             transform="translate(77.96588,230.45932)"
                             id="g415"><g
                               id="g413"><text
   transform="translate(57,32.04)"
   style="font-variant:normal;font-weight:bold;font-size:24px;font-family:'Courier New';-inkscape-font-specification:CourierNew-Bold;writing-mode:lr-tb;fill:#000000;fill-opacity:1;fill-rule:nonzero;stroke:none"
   id="text407"><tspan
     x="0 14.4 28.799999 43.200001 57.599998 72 86.400002 100.8"
     y="0"
     sodipodi:role="line"
     id="tspan405">$train()</tspan></text>

<text
   transform="translate(57,206.04)"
   style="font-variant:normal;font-weight:bold;font-size:24px;font-family:'Courier New';-inkscape-font-specification:CourierNew-Bold;writing-mode:lr-tb;fill:#000000;fill-opacity:1;fill-rule:nonzero;stroke:none"
   id="text411"><tspan
     x="0 14.4 28.799999 43.200001 57.599998 72 86.400002 100.8 115.2 129.60001"
     y="0"
     sodipodi:role="line"
     id="tspan409">$predict()</tspan></text>

</g></g></g><g
                           transform="scale(381)"
                           id="g419" /><g
                           id="g427"><g
                             id="g423"><path
                               d="m 198882,135072 h 5430 v -11448 h 10860 v 11448 h 5430 l -10860,10860 z"
                               style="fill:#efefef;fill-opacity:1;fill-rule:evenodd;stroke:none"
                               id="path421"
                               inkscape:connector-curvature="0" /></g><path
                             d="m 198882,135072 h 5430 v -11448 h 10860 v 11448 h 5430 l -10860,10860 z"
                             style="fill:none;stroke:#cccccc;stroke-width:381;stroke-linecap:butt;stroke-linejoin:round;stroke-miterlimit:8;stroke-dasharray:none;stroke-opacity:1"
                             id="path425"
                             inkscape:connector-curvature="0" /></g><g
                           id="g435"><g
                             id="g431"><path
                               d="m 156911.5,102742 h 15246 v -2391 l 4782,4782 -4782,4782 v -2391 h -15246 z"
                               style="fill:#9fc5e8;fill-opacity:1;fill-rule:evenodd;stroke:none"
                               id="path429"
                               inkscape:connector-curvature="0" /></g><path
                             d="m 156911.5,102742 h 15246 v -2391 l 4782,4782 -4782,4782 v -2391 h -15246 z"
                             style="fill:none;stroke:#595959;stroke-width:381;stroke-linecap:butt;stroke-linejoin:round;stroke-miterlimit:8;stroke-dasharray:none;stroke-opacity:1"
                             id="path433"
                             inkscape:connector-curvature="0" /></g><g
                           id="g443"><g
                             id="g439"><path
                               d="m 237478.5,102742 h 15246 v -2391 l 4782,4782 -4782,4782 v -2391 h -15246 z"
                               style="fill:#9fc5e8;fill-opacity:1;fill-rule:evenodd;stroke:none"
                               id="path437"
                               inkscape:connector-curvature="0" /></g><path
                             d="m 237478.5,102742 h 15246 v -2391 l 4782,4782 -4782,4782 v -2391 h -15246 z"
                             style="fill:none;stroke:#595959;stroke-width:381;stroke-linecap:butt;stroke-linejoin:round;stroke-miterlimit:8;stroke-dasharray:none;stroke-opacity:1"
                             id="path441"
                             inkscape:connector-curvature="0" /></g><g
                           id="g465"><g
                             id="g447"><path
                               d="m 227135.33,102082.5 h 5197.34 c 717.6,0 1299.33,1365.76 1299.33,3050.5 0,1684.74 -581.73,3050.5 -1299.33,3050.5 h -5197.34 v 0 c -717.6,0 -1299.33,-1365.76 -1299.33,-3050.5 0,-1684.74 581.73,-3050.5 1299.33,-3050.5 z"
                               style="fill:#eeeeee;fill-opacity:1;fill-rule:evenodd;stroke:none"
                               id="path445"
                               inkscape:connector-curvature="0" /></g><g
                             id="g453"><g
                               id="g451"><path
                                 d="m 232332.67,108183.5 c -717.61,0 -1299.34,-1365.76 -1299.34,-3050.5 0,-1684.74 581.73,-3050.5 1299.34,-3050.5"
                                 style="fill:#000000;fill-opacity:0;fill-rule:evenodd;stroke:none"
                                 id="path449"
                                 inkscape:connector-curvature="0" /></g></g><g
                             id="g459"><g
                               id="g457"><path
                                 d="m 227135.33,102082.5 h 5197.34 c 717.6,0 1299.33,1365.76 1299.33,3050.5 0,1684.74 -581.73,3050.5 -1299.33,3050.5 h -5197.34 v 0 c -717.6,0 -1299.33,-1365.76 -1299.33,-3050.5 0,-1684.74 581.73,-3050.5 1299.33,-3050.5 z"
                                 style="fill:#000000;fill-opacity:0;fill-rule:evenodd;stroke:none"
                                 id="path455"
                                 inkscape:connector-curvature="0" /></g></g><path
                             d="m 232332.67,108183.5 c -717.61,0 -1299.34,-1365.76 -1299.34,-3050.5 0,-1684.74 581.73,-3050.5 1299.34,-3050.5"
                             style="fill:none;stroke:#595959;stroke-width:381;stroke-linecap:butt;stroke-linejoin:round;stroke-miterlimit:8;stroke-dasharray:none;stroke-opacity:1"
                             id="path461"
                             inkscape:connector-curvature="0" /><path
                             d="m 227135.33,102082.5 h 5197.34 c 717.6,0 1299.33,1365.76 1299.33,3050.5 0,1684.74 -581.73,3050.5 -1299.33,3050.5 h -5197.34 v 0 c -717.6,0 -1299.33,-1365.76 -1299.33,-3050.5 0,-1684.74 581.73,-3050.5 1299.33,-3050.5 z"
                             style="fill:none;stroke:#595959;stroke-width:381;stroke-linecap:butt;stroke-linejoin:round;stroke-miterlimit:8;stroke-dasharray:none;stroke-opacity:1"
                             id="path463"
                             inkscape:connector-curvature="0" /></g><g
                           id="g487"><g
                             id="g469"><path
                               d="m 187708.67,102082.5 h -5197.34 c -717.6,0 -1299.33,1365.76 -1299.33,3050.5 0,1684.74 581.73,3050.5 1299.33,3050.5 h 5197.34 v 0 c 717.6,0 1299.33,-1365.76 1299.33,-3050.5 0,-1684.74 -581.73,-3050.5 -1299.33,-3050.5 z"
                               style="fill:#eeeeee;fill-opacity:1;fill-rule:evenodd;stroke:none"
                               id="path467"
                               inkscape:connector-curvature="0" /></g><g
                             id="g475"><g
                               id="g473"><path
                                 d="m 182511.33,108183.5 c 717.61,0 1299.34,-1365.76 1299.34,-3050.5 0,-1684.74 -581.73,-3050.5 -1299.34,-3050.5"
                                 style="fill:#000000;fill-opacity:0;fill-rule:evenodd;stroke:none"
                                 id="path471"
                                 inkscape:connector-curvature="0" /></g></g><g
                             id="g481"><g
                               id="g479"><path
                                 d="m 187708.67,102082.5 h -5197.34 c -717.6,0 -1299.33,1365.76 -1299.33,3050.5 0,1684.74 581.73,3050.5 1299.33,3050.5 h 5197.34 v 0 c 717.6,0 1299.33,-1365.76 1299.33,-3050.5 0,-1684.74 -581.73,-3050.5 -1299.33,-3050.5 z"
                                 style="fill:#000000;fill-opacity:0;fill-rule:evenodd;stroke:none"
                                 id="path477"
                                 inkscape:connector-curvature="0" /></g></g><path
                             d="m 182511.33,108183.5 c 717.61,0 1299.34,-1365.76 1299.34,-3050.5 0,-1684.74 -581.73,-3050.5 -1299.34,-3050.5"
                             style="fill:none;stroke:#595959;stroke-width:381;stroke-linecap:butt;stroke-linejoin:round;stroke-miterlimit:8;stroke-dasharray:none;stroke-opacity:1"
                             id="path483"
                             inkscape:connector-curvature="0" /><path
                             d="m 187708.67,102082.5 h -5197.34 c -717.6,0 -1299.33,1365.76 -1299.33,3050.5 0,1684.74 581.73,3050.5 1299.33,3050.5 h 5197.34 v 0 c 717.6,0 1299.33,-1365.76 1299.33,-3050.5 0,-1684.74 -581.73,-3050.5 -1299.33,-3050.5 z"
                             style="fill:none;stroke:#595959;stroke-width:381;stroke-linecap:butt;stroke-linejoin:round;stroke-miterlimit:8;stroke-dasharray:none;stroke-opacity:1"
                             id="path485"
                             inkscape:connector-curvature="0" /></g><g
                           id="g509"><g
                             id="g491"><path
                               d="m 227135.33,158681.5 h 5197.34 c 717.6,0 1299.33,1365.75 1299.33,3050.5 0,1684.75 -581.73,3050.5 -1299.33,3050.5 h -5197.34 v 0 c -717.6,0 -1299.33,-1365.75 -1299.33,-3050.5 0,-1684.75 581.73,-3050.5 1299.33,-3050.5 z"
                               style="fill:#eeeeee;fill-opacity:1;fill-rule:evenodd;stroke:none"
                               id="path489"
                               inkscape:connector-curvature="0" /></g><g
                             id="g497"><g
                               id="g495"><path
                                 d="m 232332.67,164782.5 c -717.61,0 -1299.34,-1365.75 -1299.34,-3050.5 0,-1684.75 581.73,-3050.5 1299.34,-3050.5"
                                 style="fill:#000000;fill-opacity:0;fill-rule:evenodd;stroke:none"
                                 id="path493"
                                 inkscape:connector-curvature="0" /></g></g><g
                             id="g503"><g
                               id="g501"><path
                                 d="m 227135.33,158681.5 h 5197.34 c 717.6,0 1299.33,1365.75 1299.33,3050.5 0,1684.75 -581.73,3050.5 -1299.33,3050.5 h -5197.34 v 0 c -717.6,0 -1299.33,-1365.75 -1299.33,-3050.5 0,-1684.75 581.73,-3050.5 1299.33,-3050.5 z"
                                 style="fill:#000000;fill-opacity:0;fill-rule:evenodd;stroke:none"
                                 id="path499"
                                 inkscape:connector-curvature="0" /></g></g><path
                             d="m 232332.67,164782.5 c -717.61,0 -1299.34,-1365.75 -1299.34,-3050.5 0,-1684.75 581.73,-3050.5 1299.34,-3050.5"
                             style="fill:none;stroke:#595959;stroke-width:381;stroke-linecap:butt;stroke-linejoin:round;stroke-miterlimit:8;stroke-dasharray:none;stroke-opacity:1"
                             id="path505"
                             inkscape:connector-curvature="0" /><path
                             d="m 227135.33,158681.5 h 5197.34 c 717.6,0 1299.33,1365.75 1299.33,3050.5 0,1684.75 -581.73,3050.5 -1299.33,3050.5 h -5197.34 v 0 c -717.6,0 -1299.33,-1365.75 -1299.33,-3050.5 0,-1684.75 581.73,-3050.5 1299.33,-3050.5 z"
                             style="fill:none;stroke:#595959;stroke-width:381;stroke-linecap:butt;stroke-linejoin:round;stroke-miterlimit:8;stroke-dasharray:none;stroke-opacity:1"
                             id="path507"
                             inkscape:connector-curvature="0" /></g><g
                           id="g531"><g
                             id="g513"><path
                               d="m 187708.67,158681.5 h -5197.34 c -717.6,0 -1299.33,1365.75 -1299.33,3050.5 0,1684.75 581.73,3050.5 1299.33,3050.5 h 5197.34 v 0 c 717.6,0 1299.33,-1365.75 1299.33,-3050.5 0,-1684.75 -581.73,-3050.5 -1299.33,-3050.5 z"
                               style="fill:#eeeeee;fill-opacity:1;fill-rule:evenodd;stroke:none"
                               id="path511"
                               inkscape:connector-curvature="0" /></g><g
                             id="g519"><g
                               id="g517"><path
                                 d="m 182511.33,164782.5 c 717.61,0 1299.34,-1365.75 1299.34,-3050.5 0,-1684.75 -581.73,-3050.5 -1299.34,-3050.5"
                                 style="fill:#000000;fill-opacity:0;fill-rule:evenodd;stroke:none"
                                 id="path515"
                                 inkscape:connector-curvature="0" /></g></g><g
                             id="g525"><g
                               id="g523"><path
                                 d="m 187708.67,158681.5 h -5197.34 c -717.6,0 -1299.33,1365.75 -1299.33,3050.5 0,1684.75 581.73,3050.5 1299.33,3050.5 h 5197.34 v 0 c 717.6,0 1299.33,-1365.75 1299.33,-3050.5 0,-1684.75 -581.73,-3050.5 -1299.33,-3050.5 z"
                                 style="fill:#000000;fill-opacity:0;fill-rule:evenodd;stroke:none"
                                 id="path521"
                                 inkscape:connector-curvature="0" /></g></g><path
                             d="m 182511.33,164782.5 c 717.61,0 1299.34,-1365.75 1299.34,-3050.5 0,-1684.75 -581.73,-3050.5 -1299.34,-3050.5"
                             style="fill:none;stroke:#595959;stroke-width:381;stroke-linecap:butt;stroke-linejoin:round;stroke-miterlimit:8;stroke-dasharray:none;stroke-opacity:1"
                             id="path527"
                             inkscape:connector-curvature="0" /><path
                             d="m 187708.67,158681.5 h -5197.34 c -717.6,0 -1299.33,1365.75 -1299.33,3050.5 0,1684.75 581.73,3050.5 1299.33,3050.5 h 5197.34 v 0 c 717.6,0 1299.33,-1365.75 1299.33,-3050.5 0,-1684.75 -581.73,-3050.5 -1299.33,-3050.5 z"
                             style="fill:none;stroke:#595959;stroke-width:381;stroke-linecap:butt;stroke-linejoin:round;stroke-miterlimit:8;stroke-dasharray:none;stroke-opacity:1"
                             id="path529"
                             inkscape:connector-curvature="0" /></g><g
                           id="g539"><g
                             id="g535"><path
                               d="m 156699,159341 h 15246 v -2391 l 4782,4782 -4782,4782 v -2391 h -15246 z"
                               style="fill:#9fc5e8;fill-opacity:1;fill-rule:evenodd;stroke:none"
                               id="path533"
                               inkscape:connector-curvature="0" /></g><path
                             d="m 156699,159341 h 15246 v -2391 l 4782,4782 -4782,4782 v -2391 h -15246 z"
                             style="fill:none;stroke:#595959;stroke-width:381;stroke-linecap:butt;stroke-linejoin:round;stroke-miterlimit:8;stroke-dasharray:none;stroke-opacity:1"
                             id="path537"
                             inkscape:connector-curvature="0" /></g><g
                           id="g547"><g
                             id="g543"><path
                               d="m 237266,159341 h 15246 v -2391 l 4782,4782 -4782,4782 v -2391 h -15246 z"
                               style="fill:#9fc5e8;fill-opacity:1;fill-rule:evenodd;stroke:none"
                               id="path541"
                               inkscape:connector-curvature="0" /></g><path
                             d="m 237266,159341 h 15246 v -2391 l 4782,4782 -4782,4782 v -2391 h -15246 z"
                             style="fill:none;stroke:#595959;stroke-width:381;stroke-linecap:butt;stroke-linejoin:round;stroke-miterlimit:8;stroke-dasharray:none;stroke-opacity:1"
                             id="path545"
                             inkscape:connector-curvature="0" /></g></g></g></g></g></g></g></g></g></g></g><g
       id="g559"
       transform="translate(-22.677,6.462)"><path
         d="M 0,0 H 362.835"
         style="fill:none;stroke:#000000;stroke-width:0.498;stroke-linecap:butt;stroke-linejoin:miter;stroke-miterlimit:10;stroke-dasharray:none;stroke-opacity:1"
         id="path561"
         inkscape:connector-curvature="0" /></g><g
       id="g563"
       transform="translate(-22.677,-6.543)"><text
   transform="matrix(1,0,0,-1,7.131,2.696)"
   style="font-variant:normal;font-size:4.58279991px;font-family:NimbusSanL;-inkscape-font-specification:NimbusSanL-Regu;writing-mode:lr-tb;fill:#000000;fill-opacity:1;fill-rule:nonzero;stroke:none"
   id="text571"><tspan
     x="0 5.9255605 9.2343416 11.713636 13.890467 16.438503 20.255976 22.804012 25.352049 28.15214 30.700178 33.248215 35.796249 38.344288 40.892323 43.440361"
     y="0"
     sodipodi:role="line"
     id="tspan565">©November07,2019</tspan><tspan
     x="266.185 270.00247 272.55051 274.84192 277.38995 278.40732 280.95535 284.7774 287.32547 289.8735 292.42154 294.06216 296.6102 297.62759 300.17563 303.99768 307.05441 308.07178 310.61984 313.16788 314.18524 315.20264 317.75067 320.29871 323.86414 324.8815 328.70355 334.56036"
     y="0"
     sodipodi:role="line"
     id="tspan567">MachineLearningPipelinesinR–</tspan><tspan
     x="339.65646 343.47852 346.02655 348.57458"
     y="0"
     sodipodi:role="line"
     id="tspan569">5/24</tspan></text>

</g></g></g></g></g></g></g></g></g></g></g></g></g></g></svg>