<svg xmlns="http://www.w3.org/2000/svg" xmlns:xlink="http://www.w3.org/1999/xlink" viewBox="0 0 358.5 275" height="275pt" width="478"><defs><clipPath id="aS"><path d="M241 151h116v100H241zm0 0"/></clipPath><clipPath id="bb"><path d="M249 220h108v55H249zm0 0"/></clipPath><clipPath id="bd"><path d="M124 5h233v195H124zm0 0"/></clipPath><clipPath id="be"><path d="M153 17h13.348v3.621H153zm0 6.39h13.348V35H153zm0 0"/></clipPath><clipPath id="bf"><path d="M166.332 17H171v3.621h-4.668zm0 6.39H171V35h-4.668zm0 0"/></clipPath><clipPath id="bg"><path d="M153 17h18v3.621h-18zm0 6.39h18V35h-18zm0 0"/></clipPath><clipPath id="b"><path d="M0 0h18v3.621H0zm0 6.39h18V18H0zm0 0"/></clipPath><clipPath id="a"><path d="M0 0h18v18H0z"/></clipPath><clipPath id="f"><path d="M0 0h2v3.621H0zm0 6.39h2V18H0zm0 0"/></clipPath><clipPath id="g"><path d="M4 0h2v3.621H4zm0 6.39h2V18H4zm0 0"/></clipPath><clipPath id="h"><path d="M9 0h1v3.621H9zm0 6.39h1V18H9zm0 0"/></clipPath><clipPath id="i"><path d="M13 0h1v3.621h-1zm0 6.39h1V18h-1zm0 0"/></clipPath><clipPath id="j"><path d="M0 3h18v.621H0zm0 0"/></clipPath><clipPath id="e"><path d="M0 0h18v18H0z"/></clipPath><clipPath id="bj"><path d="M153 20.621h13.348v2.77H153zm0 0"/></clipPath><clipPath id="bk"><path d="M166.332 20.621H171v2.77h-4.668zm0 0"/></clipPath><clipPath id="bl"><path d="M153 20.621h18v2.77h-18zm0 0"/></clipPath><clipPath id="l"><path d="M0 .621h18v2.77H0zm0 0"/></clipPath><clipPath id="k"><path d="M0 0h18v4H0z"/></clipPath><clipPath id="o"><path d="M0 .621h2v2.77H0zm0 0"/></clipPath><clipPath id="p"><path d="M4 .621h2v2.77H4zm0 0"/></clipPath><clipPath id="q"><path d="M9 .621h1v2.77H9zm0 0"/></clipPath><clipPath id="r"><path d="M13 .621h1v2.77h-1zm0 0"/></clipPath><clipPath id="s"><path d="M0 .621h18V1H0zm0 0"/></clipPath><clipPath id="n"><path d="M0 0h18v4H0z"/></clipPath><clipPath id="bo"><path d="M165 16h12.969v5.73H165zm0 8.496h12.969V33H165zm0 0"/></clipPath><clipPath id="bp"><path d="M165 15h12.969v6.73H165zm0 9.496h12.969V34H165zm0 0"/></clipPath><clipPath id="bq"><path d="M177.953 16H183v5.73h-5.047zm0 8.496H183V33h-5.047zm0 0"/></clipPath><clipPath id="br"><path d="M177.953 15H183v6.73h-5.047zm0 9.496H183V34h-5.047zm0 0"/></clipPath><clipPath id="bs"><path d="M165 16h18v5.73h-18zm0 8.496h18V33h-18zm0 0"/></clipPath><clipPath id="u"><path d="M0 0h18v5.73H0zm0 8.496h18V17H0zm0 0"/></clipPath><clipPath id="t"><path d="M0 0h18v17H0z"/></clipPath><clipPath id="x"><path d="M0 0h1v5.73H0zm0 8.496h1V17H0zm0 0"/></clipPath><clipPath id="y"><path d="M4 0h1v5.73H4zm0 8.496h1V17H4zm0 0"/></clipPath><clipPath id="z"><path d="M8 0h1v5.73H8zm0 8.496h1V17H8zm0 0"/></clipPath><clipPath id="A"><path d="M12 0h2v5.73h-2zm0 8.496h2V17h-2zm0 0"/></clipPath><clipPath id="w"><path d="M0 0h18v17H0z"/></clipPath><clipPath id="bv"><path d="M165 21.73h12.969v2.766H165zm0 0"/></clipPath><clipPath id="bw"><path d="M177.953 21.73H183v2.766h-5.047zm0 0"/></clipPath><clipPath id="bx"><path d="M165 21.73h18v2.766h-18zm0 0"/></clipPath><clipPath id="C"><path d="M0 .73h18v2.766H0zm0 0"/></clipPath><clipPath id="B"><path d="M0 0h18v4H0z"/></clipPath><clipPath id="F"><path d="M0 .73h1v2.766H0zm0 0"/></clipPath><clipPath id="G"><path d="M4 .73h1v2.766H4zm0 0"/></clipPath><clipPath id="H"><path d="M8 .73h1v2.766H8zm0 0"/></clipPath><clipPath id="I"><path d="M12 .73h2v2.766h-2zm0 0"/></clipPath><clipPath id="E"><path d="M0 0h18v4H0z"/></clipPath><clipPath id="bA"><path d="M177 14h12.59v8.836H177zm0 11.602h12.59V32H177zm0 0"/></clipPath><clipPath id="bB"><path d="M176 14h13.59v8.836H176zm0 11.602h13.59V32H176zm0 0"/></clipPath><clipPath id="bC"><path d="M189.574 14H194v8.836h-4.426zm0 11.602H194V32h-4.426zm0 0"/></clipPath><clipPath id="bD"><path d="M189.574 14H195v8.836h-5.426zm0 11.602H195V32h-5.426zm0 0"/></clipPath><clipPath id="bE"><path d="M176 14h18v8.836h-18zm0 11.602h18V32h-18zm0 0"/></clipPath><clipPath id="K"><path d="M0 0h18v8.836H0zm0 11.602h18V18H0zm0 0"/></clipPath><clipPath id="J"><path d="M0 0h18v18H0z"/></clipPath><clipPath id="N"><path d="M0 0h2v8.836H0zm0 11.602h2V18H0zm0 0"/></clipPath><clipPath id="O"><path d="M5 0h1v8.836H5zm0 11.602h1V18H5zm0 0"/></clipPath><clipPath id="P"><path d="M9 0h1v8.836H9zm0 11.602h1V18H9zm0 0"/></clipPath><clipPath id="Q"><path d="M13 0h1v8.836h-1zm0 11.602h1V18h-1zm0 0"/></clipPath><clipPath id="M"><path d="M0 0h18v18H0z"/></clipPath><clipPath id="bH"><path d="M177 22.836h12.59v2.766H177zm0 0"/></clipPath><clipPath id="bI"><path d="M176 22.836h13.59v2.766H176zm0 0"/></clipPath><clipPath id="bJ"><path d="M189.574 22.836H194v2.766h-4.426zm0 0"/></clipPath><clipPath id="bK"><path d="M189.574 22.836H195v2.766h-5.426zm0 0"/></clipPath><clipPath id="bL"><path d="M176 22.836h18v2.766h-18zm0 0"/></clipPath><clipPath id="S"><path d="M0 .836h18v2.766H0zm0 0"/></clipPath><clipPath id="R"><path d="M0 0h18v4H0z"/></clipPath><clipPath id="V"><path d="M0 .836h2v2.766H0zm0 0"/></clipPath><clipPath id="W"><path d="M5 .836h1v2.766H5zm0 0"/></clipPath><clipPath id="X"><path d="M9 .836h1v2.766H9zm0 0"/></clipPath><clipPath id="Y"><path d="M13 .836h1v2.766h-1zm0 0"/></clipPath><clipPath id="U"><path d="M0 0h18v4H0z"/></clipPath><clipPath id="bO"><path d="M188 12h13.215v11.941H188zm0 14.71h13.215V30H188zm0 0"/></clipPath><clipPath id="bP"><path d="M201.195 12H206v11.941h-4.805zm0 14.71H206V30h-4.805zm0 0"/></clipPath><clipPath id="bQ"><path d="M188 12h18v11.941h-18zm0 14.71h18V30h-18zm0 0"/></clipPath><clipPath id="aa"><path d="M0 0h18v11.941H0zm0 14.71h18V18H0zm0 0"/></clipPath><clipPath id="Z"><path d="M0 0h18v18H0z"/></clipPath><clipPath id="ad"><path d="M0 0h1v11.941H0zm0 14.71h1V18H0zm0 0"/></clipPath><clipPath id="ae"><path d="M4 0h2v11.941H4zm0 14.71h2V18H4zm0 0"/></clipPath><clipPath id="af"><path d="M8 0h2v11.941H8zm0 14.71h2V18H8zm0 0"/></clipPath><clipPath id="ag"><path d="M13 0h1v11.941h-1zm0 14.71h1V18h-1zm0 0"/></clipPath><clipPath id="ac"><path d="M0 0h18v18H0z"/></clipPath><clipPath id="bT"><path d="M188 23.941h13.215v2.77H188zm0 0"/></clipPath><clipPath id="bU"><path d="M201.195 23.941H206v2.77h-4.805zm0 0"/></clipPath><clipPath id="bV"><path d="M188 23.941h18v2.77h-18zm0 0"/></clipPath><clipPath id="ai"><path d="M0 .941h18v2.77H0zm0 0"/></clipPath><clipPath id="ah"><path d="M0 0h18v4H0z"/></clipPath><clipPath id="al"><path d="M0 .941h1v2.77H0zm0 0"/></clipPath><clipPath id="am"><path d="M4 .941h2v2.77H4zm0 0"/></clipPath><clipPath id="an"><path d="M8 .941h2v2.77H8zm0 0"/></clipPath><clipPath id="ao"><path d="M13 .941h1v2.77h-1zm0 0"/></clipPath><clipPath id="ak"><path d="M0 0h18v4H0z"/></clipPath><clipPath id="bY"><path d="M200 11h12.836v14.05H200zm0 0"/></clipPath><clipPath id="bZ"><path d="M200 10h12.836v15.05H200zm0 0"/></clipPath><clipPath id="ca"><path d="M212.82 11H217v14.05h-4.18zm0 0"/></clipPath><clipPath id="cb"><path d="M212.82 10H218v15.05h-5.18zm0 0"/></clipPath><clipPath id="cc"><path d="M200 11h17v14.05h-17zm0 0"/></clipPath><clipPath id="aq"><path d="M0 0h17v14.05H0zm0 0"/></clipPath><clipPath id="ap"><path d="M0 0h17v15H0z"/></clipPath><clipPath id="at"><path d="M0 0h1v14.05H0zm0 0"/></clipPath><clipPath id="au"><path d="M4 0h1v14.05H4zm0 0"/></clipPath><clipPath id="av"><path d="M8 0h1v14.05H8zm0 0"/></clipPath><clipPath id="aw"><path d="M12 0h1v14.05h-1zm0 0"/></clipPath><clipPath id="as"><path d="M0 0h17v15H0z"/></clipPath><clipPath id="cf"><path d="M200 25.05h12.836V28H200zm0 0"/></clipPath><clipPath id="cg"><path d="M200 25.05h12.836V29H200zm0 0"/></clipPath><clipPath id="ch"><path d="M212.82 25.05H217V28h-4.18zm0 0"/></clipPath><clipPath id="ci"><path d="M212.82 25.05H218V29h-5.18zm0 0"/></clipPath><clipPath id="cj"><path d="M200 25.05h17V28h-17zm0 0"/></clipPath><clipPath id="ay"><path d="M0 .05h17V3H0zm0 0"/></clipPath><clipPath id="ax"><path d="M0 0h17v3H0z"/></clipPath><clipPath id="aB"><path d="M0 .05h1V3H0zm0 0"/></clipPath><clipPath id="aC"><path d="M4 .05h1V3H4zm0 0"/></clipPath><clipPath id="aD"><path d="M8 .05h1V3H8zm0 0"/></clipPath><clipPath id="aE"><path d="M12 .05h1V3h-1zm0 0"/></clipPath><clipPath id="aA"><path d="M0 0h17v3H0z"/></clipPath><symbol id="aF" overflow="visible"><path d="M4.813-6.344v.86a5.56 5.56 0 00-.954-.344A3.198 3.198 0 003-5.953c-.492 0-.867.098-1.125.281-.262.188-.39.457-.39.797 0 .293.085.512.265.656.176.149.504.27.984.36l.547.109c.653.125 1.14.352 1.453.672.32.312.485.738.485 1.265 0 .637-.215 1.122-.64 1.454-.43.324-1.056.484-1.876.484-.312 0-.648-.04-1-.11A5.347 5.347 0 01.625-.296v-.906c.352.2.703.351 1.047.453.351.105.695.156 1.031.156.496 0 .883-.097 1.156-.297.278-.195.422-.484.422-.859 0-.32-.101-.57-.297-.75-.199-.176-.523-.313-.968-.406l-.547-.11c-.656-.132-1.137-.343-1.438-.625-.293-.277-.437-.671-.437-1.171 0-.57.203-1.024.61-1.36.401-.34.968-.516 1.687-.516.308 0 .625.036.937.094a6.5 6.5 0 01.985.25zm0 0"/></symbol><symbol id="aG" overflow="visible"><path d="M.766-1.938v-2.984h.812v2.953c0 .461.086.809.266 1.047.183.23.457.344.812.344.434 0 .781-.133 1.031-.406.258-.278.391-.66.391-1.141v-2.797h.813V0h-.813v-.75c-.2.293-.43.512-.687.656a1.852 1.852 0 01-.907.219c-.562 0-.992-.172-1.28-.516C.91-.742.765-1.258.765-1.937zm0 0"/></symbol><symbol id="aH" overflow="visible"><path d="M4.094-2.516c0-.582-.13-1.035-.375-1.359-.242-.32-.582-.484-1.016-.484-.43 0-.77.164-1.015.484-.243.324-.36.777-.36 1.36 0 .585.117 1.038.36 1.359.246.324.585.484 1.015.484.434 0 .774-.16 1.016-.484.246-.32.375-.774.375-1.36zM4.89-.609c0 .832-.192 1.453-.563 1.859-.367.414-.933.625-1.703.625-.281 0-.55-.023-.797-.063a4.015 4.015 0 01-.734-.203V.83c.238.12.472.218.703.28a2.8 2.8 0 00.703.094c.527 0 .926-.144 1.188-.422.269-.273.406-.691.406-1.25v-.39a1.692 1.692 0 01-.657.64C3.176-.07 2.868 0 2.516 0c-.606 0-1.098-.227-1.47-.688C.68-1.145.5-1.754.5-2.516c0-.757.18-1.367.547-1.828a1.796 1.796 0 011.469-.703c.351 0 .66.074.921.219.27.148.489.367.657.656v-.75h.797zm0 0"/></symbol><symbol id="aI" overflow="visible"><path d="M5.063-2.656v.39h-3.72c.028.555.196.977.5 1.266.302.293.72.438 1.25.438.31 0 .614-.036.907-.11.29-.07.582-.187.875-.344v.766a4.423 4.423 0 01-.906.281 4.888 4.888 0 01-.922.094c-.781 0-1.402-.227-1.86-.688C.728-1.02.5-1.633.5-2.405c0-.809.21-1.453.64-1.922.434-.477 1.024-.719 1.766-.719.664 0 1.192.215 1.578.64.383.43.579 1.012.579 1.75zm-.813-.25c-.012-.434-.137-.785-.375-1.047-.242-.27-.559-.406-.953-.406-.461 0-.824.132-1.094.39-.273.25-.43.614-.469 1.078zm0 0"/></symbol><symbol id="aJ" overflow="visible"><path d="M3.984-4.781v.765a3.203 3.203 0 00-.718-.25 3.18 3.18 0 00-.75-.093c-.407 0-.711.066-.907.187-.199.117-.296.3-.296.547 0 .188.066.336.203.438.144.105.437.21.875.312l.265.063c.582.124.992.304 1.235.53.238.22.359.528.359.923 0 .46-.184.824-.547 1.093-.355.262-.851.391-1.484.391-.274 0-.551-.027-.828-.078a6.763 6.763 0 01-.907-.234v-.829c.301.157.598.278.891.36.29.074.578.11.86.11.37 0 .663-.063.874-.188a.633.633 0 00.313-.563.6.6 0 00-.235-.5c-.148-.121-.472-.238-.968-.344l-.281-.062c-.5-.102-.868-.266-1.094-.485-.219-.214-.328-.519-.328-.906 0-.457.16-.812.484-1.062.332-.258.8-.39 1.406-.39.301 0 .582.026.844.077.27.043.516.106.734.188zm0 0"/></symbol><symbol id="aK" overflow="visible"><path d="M1.64-6.313v1.391h1.673v.625H1.64v2.672c0 .406.054.668.171.781.114.117.336.172.672.172h.829V0h-.829C1.86 0 1.426-.113 1.188-.344c-.243-.238-.36-.664-.36-1.281v-2.672H.234v-.625h.594v-1.39zm0 0"/></symbol><symbol id="aM" overflow="visible"><path d="M.89-6.563h.876v2.688H5v-2.688h.89V0H5v-3.125H1.766V0H.89zm0 0"/></symbol><symbol id="aN" overflow="visible"><path d="M2.89.453c-.23.59-.456.977-.671 1.156-.211.176-.496.266-.86.266H.72v-.672h.469c.214 0 .39-.058.515-.172.121-.105.258-.351.406-.734l.157-.375-2-4.844h.859l1.531 3.844 1.547-3.844h.86zm0 0"/></symbol><symbol id="aO" overflow="visible"><path d="M1.625-.734v2.609H.812v-6.797h.813v.75c.176-.289.39-.508.64-.656.258-.145.57-.219.938-.219.59 0 1.078.242 1.453.719.371.48.563 1.105.563 1.875 0 .773-.192 1.398-.563 1.875a1.782 1.782 0 01-1.453.703c-.367 0-.68-.07-.937-.203a1.814 1.814 0 01-.641-.656zm2.75-1.72c0-.589-.129-1.054-.375-1.39a1.165 1.165 0 00-1-.515c-.43 0-.77.175-1.016.515-.242.336-.359.801-.359 1.39 0 .595.117 1.067.36 1.407.245.336.585.5 1.015.5.426 0 .758-.164 1-.5.246-.34.375-.812.375-1.406zm0 0"/></symbol><symbol id="aP" overflow="visible"><path d="M3.703-4.172a1.182 1.182 0 00-.297-.11 1.986 1.986 0 00-.36-.03c-.46 0-.816.152-1.062.453-.242.293-.359.714-.359 1.265V0H.812v-4.922h.813v.766c.176-.301.398-.524.672-.672.27-.145.598-.219.984-.219.059 0 .125.008.188.016.07.011.148.023.234.031zm0 0"/></symbol><symbol id="aQ" overflow="visible"><path d="M3.078-2.469c-.648 0-1.101.074-1.36.219-.25.148-.374.402-.374.766 0 .28.093.511.281.687.195.168.457.25.781.25.446 0 .805-.156 1.078-.469.27-.32.407-.75.407-1.28v-.173zm1.625-.344V0h-.812v-.75a1.804 1.804 0 01-.704.672c-.273.133-.605.203-1 .203-.5 0-.902-.14-1.203-.422-.293-.277-.437-.66-.437-1.14 0-.551.18-.97.547-1.25.37-.278.926-.422 1.656-.422h1.14v-.079c0-.37-.128-.66-.374-.859-.243-.207-.586-.312-1.032-.312-.28 0-.558.039-.828.109a2.944 2.944 0 00-.75.297v-.75c.29-.113.578-.195.86-.25.277-.059.55-.094.812-.094.707 0 1.238.192 1.594.563.351.367.531.925.531 1.671zm0 0"/></symbol><symbol id="aR" overflow="visible"><path d="M4.688-3.984c.195-.352.437-.618.718-.797.278-.176.614-.266 1-.266.508 0 .899.184 1.172.547.277.355.422.867.422 1.531V0h-.813v-2.938c0-.476-.085-.832-.25-1.062-.167-.227-.425-.344-.765-.344-.418 0-.754.145-1 .422-.242.281-.36.664-.36 1.14V0H4v-2.938C4-3.413 3.914-3.77 3.75-4c-.168-.227-.426-.344-.766-.344-.418 0-.754.145-1 .422-.242.281-.359.664-.359 1.14V0H.812v-4.922h.813v.766c.184-.301.41-.524.672-.672a1.86 1.86 0 01.922-.219c.351 0 .656.098.906.281.246.18.438.442.563.782zm0 0"/></symbol><symbol id="aT" overflow="visible"><path d="M.89-6.563h4.141v.75H1.766v1.938H4.89v.75H1.766V-.75h3.343V0H.891zm0 0"/></symbol><symbol id="aU" overflow="visible"><path d="M.266-4.922h.859L2.656-.797l1.547-4.125h.86L3.218 0h-1.11zm0 0"/></symbol><symbol id="aV" overflow="visible"><path d="M.844-6.844h.812V0H.844zm0 0"/></symbol><symbol id="aW" overflow="visible"><path d="M1.766-5.828v2.469H2.89c.402 0 .722-.11.953-.329.226-.214.344-.519.344-.906 0-.394-.118-.695-.344-.906-.23-.215-.551-.328-.953-.328zM.89-6.562h2c.726 0 1.28.167 1.656.5.383.335.578.824.578 1.468 0 .649-.195 1.137-.578 1.469-.375.324-.93.484-1.656.484H1.766V0H.89zm0 0"/></symbol><symbol id="aX" overflow="visible"><path d="M3.344-6.844v.672h-.781c-.293 0-.497.067-.61.188-.105.117-.156.324-.156.625v.437h1.328v.625H1.797V0H.984v-4.297h-.78v-.625h.78v-.344c0-.55.125-.953.375-1.203.258-.246.664-.375 1.22-.375zm0 0"/></symbol><symbol id="aY" overflow="visible"><path d="M2.75-4.36c-.43 0-.773.176-1.031.516-.25.336-.375.801-.375 1.39 0 .587.125 1.052.375 1.392.246.335.593.5 1.031.5.434 0 .781-.165 1.031-.5.246-.34.375-.805.375-1.391 0-.582-.129-1.047-.375-1.39A1.22 1.22 0 002.75-4.36zm0-.687c.707 0 1.258.23 1.656.688.403.46.61 1.097.61 1.906 0 .805-.207 1.433-.61 1.89-.398.461-.949.688-1.656.688-.7 0-1.254-.227-1.656-.688C.695-1.02.5-1.647.5-2.452c0-.809.195-1.445.594-1.906.402-.457.957-.688 1.656-.688zm0 0"/></symbol><symbol id="aZ" overflow="visible"><path d="M4.938-2.969V0h-.813v-2.938c0-.464-.09-.816-.266-1.046-.18-.239-.449-.36-.812-.36-.438 0-.79.145-1.047.422-.25.281-.375.664-.375 1.14V0H.812v-4.922h.813v.766c.195-.29.426-.508.688-.657.257-.152.562-.234.906-.234.558 0 .988.18 1.281.531.29.356.438.871.438 1.547zm0 0"/></symbol><symbol id="ba" overflow="visible"><path d="M4.39-4.734v.75a3.494 3.494 0 00-.687-.282A2.848 2.848 0 003-4.359c-.523 0-.93.168-1.219.5-.293.336-.437.804-.437 1.406 0 .594.144 1.058.437 1.39.29.336.696.5 1.219.5.238 0 .473-.03.703-.093.227-.059.457-.156.688-.281v.75c-.23.105-.465.183-.704.234-.242.05-.496.078-.765.078-.742 0-1.332-.227-1.766-.688C.72-1.026.5-1.66.5-2.452c0-.8.219-1.43.656-1.89.434-.466 1.04-.704 1.813-.704.246 0 .492.027.734.078.238.055.469.133.688.235zm0 0"/></symbol><symbol id="bc" overflow="visible"><path d="M4.094-4.172v-2.672h.797V0h-.797v-.734a1.82 1.82 0 01-.657.656c-.261.133-.57.203-.921.203a1.771 1.771 0 01-1.454-.703C.688-1.055.5-1.68.5-2.453c0-.77.188-1.395.563-1.875.37-.477.859-.719 1.453-.719.351 0 .66.074.921.219.258.148.477.367.657.656zM1.328-2.453c0 .594.117 1.066.36 1.406.246.336.585.5 1.015.5.426 0 .766-.164 1.016-.5.246-.34.375-.812.375-1.406 0-.59-.13-1.055-.375-1.39-.25-.34-.59-.516-1.016-.516-.43 0-.77.175-1.015.515-.243.336-.36.801-.36 1.39zm0 0"/></symbol><symbol id="cK" overflow="visible"><path d="M4.938-2.969V0h-.813v-2.938c0-.464-.09-.816-.266-1.046-.18-.239-.449-.36-.812-.36-.438 0-.79.145-1.047.422-.25.281-.375.664-.375 1.14V0H.812v-6.844h.813v2.688c.195-.29.426-.508.688-.657.257-.152.562-.234.906-.234.558 0 .988.18 1.281.531.29.356.438.871.438 1.547zm0 0"/></symbol><symbol id="cL" overflow="visible"><path d="M-.031-6.563H5.53v.75H3.188V0h-.891v-5.813H-.031zm0 0"/></symbol><symbol id="cM" overflow="visible"><path d="M.844-4.922h.812V0H.844zm0-1.922h.812v1.032H.844zm0 0"/></symbol><symbol id="cN" overflow="visible"><path d="M2.797-6.828a9.18 9.18 0 00-.89 2 7.253 7.253 0 00-.282 2c0 .68.094 1.351.281 2.015.196.668.492 1.333.89 2h-.702c-.45-.687-.785-1.363-1-2.03a6.414 6.414 0 010-3.953c.215-.665.55-1.345 1-2.032zm0 0"/></symbol><symbol id="cO" overflow="visible"><path d="M.375-4.922h.813l1.015 3.844 1-3.844h.953l1.016 3.844 1-3.844h.812L5.704 0h-.97L3.688-4.031 2.625 0h-.953zm0 0"/></symbol><symbol id="cP" overflow="visible"><path d="M.719-6.828h.703c.433.687.766 1.367.984 2.031.215.656.328 1.317.328 1.969 0 .656-.113 1.32-.328 1.984-.219.668-.55 1.344-.984 2.031H.719a8.404 8.404 0 00.875-2 7.538 7.538 0 00.281-2.015c0-.676-.098-1.344-.281-2a8.91 8.91 0 00-.875-2zm0 0"/></symbol><symbol id="cm" overflow="visible"><path d="M1.031-.828c-.218 0-.37.027-.453.078-.086.055-.125.137-.125.25 0 .094.031.176.094.234.058.055.144.079.25.079.152 0 .273-.051.36-.157a.617.617 0 00.14-.422v-.062zm.532-.11V0h-.266v-.25a.641.641 0 01-.234.234.862.862 0 01-.329.063.578.578 0 01-.406-.14c-.094-.09-.14-.223-.14-.391 0-.176.054-.313.171-.407.121-.09.313-.14.563-.14h.375v-.032a.338.338 0 00-.125-.28.525.525 0 00-.344-.11c-.094 0-.191.012-.281.031a.937.937 0 00-.25.11v-.25c.101-.04.203-.07.297-.094.09-.02.18-.032.265-.032.239 0 .414.067.532.188.113.125.171.316.171.563zm0 0"/></symbol><symbol id="cn" overflow="visible"><path d="M1.36-.844c0-.183-.044-.332-.126-.437a.369.369 0 00-.328-.172.4.4 0 00-.344.172c-.085.105-.125.254-.125.437 0 .2.04.356.126.469a.408.408 0 00.343.156c.145 0 .254-.05.328-.156.082-.113.125-.27.125-.469zm.265.64c0 .278-.066.49-.188.626-.117.133-.304.203-.562.203C.781.625.691.613.609.594A1.377 1.377 0 01.36.53v-.25c.082.04.16.07.235.094.082.02.16.031.234.031.176 0 .305-.05.39-.14.09-.094.141-.239.141-.422v-.125a.588.588 0 01-.218.219A.651.651 0 01.844 0a.609.609 0 01-.5-.219C.227-.37.172-.582.172-.844c0-.246.055-.453.172-.61a.61.61 0 01.5-.234.57.57 0 01.297.079.65.65 0 01.218.218v-.25h.266zm0 0"/></symbol><symbol id="co" overflow="visible"><path d="M1.234-1.39a.21.21 0 00-.109-.032.461.461 0 00-.11-.016.439.439 0 00-.359.157c-.074.093-.11.238-.11.422V0h-.28v-1.64h.28v.25a.588.588 0 01.548-.298c.02 0 .039.008.062.016h.078zm0 0"/></symbol><symbol id="cp" overflow="visible"><path d="M1.688-.89v.14H.452c.008.18.063.32.156.422.102.094.243.14.422.14.102 0 .203-.007.297-.03a1.23 1.23 0 00.297-.126v.266a1.313 1.313 0 01-.297.094 1.73 1.73 0 01-.312.03C.754.047.543-.03.39-.186.242-.34.17-.547.17-.797c0-.27.067-.484.204-.64a.755.755 0 01.594-.25c.215 0 .39.074.515.218.133.149.204.34.204.578zM1.421-.97a.542.542 0 00-.14-.344.389.389 0 00-.313-.14.516.516 0 00-.36.125.505.505 0 00-.156.36zm0 0"/></symbol><symbol id="cq" overflow="visible"><path d="M.547-2.11v.47h.562v.202H.547v.891c0 .137.015.227.047.266.039.043.117.062.234.062h.281V0H.83C.616 0 .472-.035.39-.11.316-.19.28-.335.28-.546v-.89H.078v-.204h.203v-.468zm0 0"/></symbol><symbol id="cr" overflow="visible"><path d="M1.078-8.016h1.094v7.11h3.89V0H1.079zm0 0"/></symbol><symbol id="cs" overflow="visible"><path d="M6.188-3.25v.484H1.64c.039.68.242 1.196.609 1.547.363.356.875.532 1.531.532a4.34 4.34 0 001.11-.141 5.24 5.24 0 001.062-.406v.921A5.071 5.071 0 014.86.031a5.281 5.281 0 01-1.125.125c-.968 0-1.738-.273-2.296-.828C.882-1.23.609-1.992.609-2.953c0-.977.266-1.754.797-2.328.528-.582 1.25-.875 2.157-.875.8 0 1.437.261 1.906.781.476.523.718 1.23.718 2.125zm-1-.297c0-.539-.153-.973-.454-1.297-.293-.32-.683-.484-1.171-.484-.555 0-.997.16-1.329.469-.324.312-.511.754-.562 1.312zm0 0"/></symbol><symbol id="ct" overflow="visible"><path d="M3.766-3.031c-.793 0-1.348.097-1.657.281-.304.188-.453.504-.453.938 0 .343.114.62.344.828.227.21.54.312.938.312.55 0 .988-.191 1.312-.578.332-.395.5-.91.5-1.547v-.234zm1.968-.406V0H4.75v-.906a2.101 2.101 0 01-.844.812c-.336.164-.746.25-1.234.25-.617 0-1.106-.172-1.469-.515C.836-.7.656-1.164.656-1.75c0-.676.223-1.188.672-1.531.457-.34 1.14-.516 2.047-.516H4.75v-.094c0-.457-.152-.812-.453-1.062-.293-.246-.711-.375-1.25-.375-.344 0-.684.043-1.016.125-.324.086-.636.21-.937.375v-.906c.363-.145.718-.25 1.062-.313a4.9 4.9 0 01.985-.11c.87 0 1.523.227 1.953.673.426.449.64 1.132.64 2.046zm0 0"/></symbol><symbol id="cu" overflow="visible"><path d="M4.516-5.094a1.407 1.407 0 00-.36-.14 1.991 1.991 0 00-.422-.047c-.562 0-.996.183-1.296.547C2.144-4.367 2-3.848 2-3.172V0H1v-6.016h1v.938c.195-.363.46-.633.797-.813.332-.175.738-.265 1.219-.265.07 0 .144.008.218.015.082 0 .176.012.282.032zm0 0"/></symbol><symbol id="cv" overflow="visible"><path d="M6.031-3.625V0h-.984v-3.594c0-.57-.113-1-.328-1.281-.219-.277-.555-.422-1-.422-.531 0-.957.176-1.266.516C2.148-4.445 2-3.988 2-3.406V0H1v-6.016h1v.938c.227-.363.504-.633.828-.813.32-.175.692-.265 1.11-.265.683 0 1.207.215 1.562.64.352.43.531 1.059.531 1.891zm0 0"/></symbol><symbol id="cx" overflow="visible"><path d="M3.406-8.344c-.48.824-.836 1.645-1.062 2.453A8.81 8.81 0 002-3.453C2-2.63 2.113-1.81 2.344-1c.238.813.594 1.629 1.062 2.453h-.86C2.017.61 1.614-.219 1.345-1.03a7.83 7.83 0 01-.39-2.422c0-.8.128-1.602.39-2.406.258-.809.66-1.641 1.203-2.485zm0 0"/></symbol><symbol id="cy" overflow="visible"><path d="M1.031-8.36h1V0h-1zm0 0"/></symbol><symbol id="cz" overflow="visible"><path d="M.875-8.344h.86c.538.844.94 1.676 1.202 2.485.27.804.407 1.605.407 2.406 0 .805-.137 1.613-.406 2.422-.262.812-.665 1.64-1.204 2.484H.875C1.352.63 1.707-.187 1.938-1c.238-.809.359-1.629.359-2.453 0-.82-.121-1.633-.36-2.438A10.878 10.878 0 00.875-8.344zm0 0"/></symbol><symbol id="cA" overflow="visible"><path d="M-.031-8.016H6.75v.907H3.906V0H2.812v-7.11H-.03zm0 0"/></symbol><symbol id="cB" overflow="visible"><path d="M4.875-5.844v.938A3.449 3.449 0 004-5.22a4.158 4.158 0 00-.938-.11c-.492 0-.863.083-1.109.235a.719.719 0 00-.36.657c0 .23.087.414.266.546.176.125.532.254 1.063.375l.328.079c.707.148 1.207.363 1.5.64.29.274.438.652.438 1.14 0 .555-.223.997-.657 1.329-.437.324-1.05.484-1.828.484-.324 0-.664-.035-1.015-.093A8.367 8.367 0 01.593-.22v-1.015c.363.187.722.332 1.078.421.351.094.707.141 1.062.141.457 0 .813-.078 1.063-.234.246-.164.375-.39.375-.672 0-.27-.09-.477-.266-.625-.18-.145-.574-.281-1.187-.406l-.344-.094c-.617-.121-1.059-.317-1.328-.578-.274-.27-.406-.64-.406-1.11 0-.558.195-.992.593-1.296.403-.31.977-.47 1.72-.47.362 0 .706.028 1.03.079.32.055.618.133.891.234zm0 0"/></symbol><symbol id="cC" overflow="visible"><path d="M1-8.36h1v4.938l2.938-2.594h1.265L3.016-3.203 6.344 0H5.047L2-2.938V0H1zm0 0"/></symbol><symbol id="cD" overflow="visible"><path d="M4.875-3.766c.238.086.469.258.688.516.214.25.437.605.656 1.063L7.329 0H6.155L5.141-2.063c-.274-.527-.536-.882-.782-1.062-.25-.176-.59-.266-1.015-.266H2.172V0H1.078v-8.016h2.453c.914 0 1.598.196 2.047.579.445.375.672.957.672 1.734 0 .5-.121.918-.36 1.25-.23.336-.57.566-1.015.687zM2.172-7.125v2.844h1.36c.519 0 .91-.117 1.171-.36.27-.238.406-.593.406-1.062 0-.465-.136-.82-.406-1.063-.262-.238-.652-.359-1.172-.359zm0 0"/></symbol><symbol id="cE" overflow="visible"><path d="M5.719-4.86c.246-.445.547-.773.89-.984.34-.207.75-.312 1.22-.312.62 0 1.1.222 1.437.656.34.438.515 1.066.515 1.875V0h-1v-3.594c0-.582-.105-1.008-.312-1.281-.2-.277-.508-.422-.922-.422-.512 0-.918.176-1.219.516-.293.336-.437.793-.437 1.375V0h-1v-3.594c0-.582-.106-1.008-.313-1.281-.2-.277-.512-.422-.937-.422-.5 0-.903.176-1.204.516C2.146-4.445 2-3.988 2-3.406V0H1v-6.016h1v.938c.215-.371.484-.645.797-.813.32-.175.695-.265 1.125-.265.433 0 .805.113 1.11.328.308.219.538.543.687.969zm0 0"/></symbol><symbol id="cF" overflow="visible"><path d="M2-.906V2.28H1v-8.297h1v.907c.195-.352.453-.614.766-.782.32-.175.707-.265 1.156-.265.726 0 1.316.293 1.765.875.458.574.688 1.336.688 2.281 0 .95-.23 1.715-.688 2.297-.449.574-1.039.86-1.765.86-.45 0-.836-.087-1.156-.25A1.956 1.956 0 012-.907zM5.36-3c0-.727-.153-1.297-.454-1.703a1.455 1.455 0 00-1.234-.625c-.524 0-.934.21-1.235.625C2.146-4.297 2-3.727 2-3c0 .73.145 1.305.438 1.719.3.406.71.61 1.234.61.52 0 .93-.204 1.234-.61.301-.414.453-.989.453-1.719zm0 0"/></symbol><symbol id="cG" overflow="visible"><path d="M1.031-6.016h1V0h-1zm0-2.343h1v1.25h-1zm0 0"/></symbol><symbol id="cH" overflow="visible"><path d="M5-3.078c0-.715-.152-1.27-.453-1.656-.293-.395-.707-.594-1.234-.594-.532 0-.95.2-1.25.594-.293.386-.438.941-.438 1.656 0 .71.145 1.262.438 1.656.3.399.718.594 1.25.594.527 0 .94-.195 1.234-.594.3-.394.453-.945.453-1.656zM5.984-.75c0 1.027-.23 1.79-.687 2.281-.45.496-1.145.75-2.078.75-.356 0-.692-.027-1-.078a5.743 5.743 0 01-.89-.234v-.953c.288.152.577.27.859.343.277.07.57.11.874.11.645 0 1.13-.176 1.454-.516C4.836.617 5 .113 5-.562v-.5c-.21.355-.477.62-.797.796-.312.18-.695.266-1.14.266C2.32 0 1.726-.281 1.28-.844.832-1.402.61-2.148.61-3.078c0-.926.223-1.672.672-2.235.446-.558 1.04-.843 1.782-.843.445 0 .828.09 1.14.265.32.168.586.43.797.782v-.907h.984zm0 0"/></symbol><symbol id="cI" overflow="visible"><path d="M1.078-8.016h1.625L4.75-2.562l2.047-5.454h1.625V0H7.359v-7.047l-2.062 5.5H4.203l-2.078-5.5V0H1.078zm0 0"/></symbol><symbol id="cJ" overflow="visible"><path d="M.938-2.375v-3.64h.984v3.609c0 .562.11.992.328 1.281.227.281.563.422 1 .422.54 0 .96-.164 1.266-.5.308-.34.468-.813.468-1.406v-3.407h.985V0h-.985v-.922c-.242.367-.523.637-.843.813-.313.175-.68.265-1.094.265-.688 0-1.215-.21-1.578-.64C1.113-.918.937-1.551.937-2.375zm0 0"/></symbol><g clip-path="url(#a)"><g clip-path="url(#b)" id="d"><path fill-opacity=".2" d="M0 0h18v18H0z"/></g></g><g clip-path="url(#e)" id="bi"><g clip-path="url(#f)"><path transform="matrix(1 0 0 -1 -153 -17)" d="M153.879-34.457v16.601" fill="none" stroke-width=".286" stroke="gray" stroke-miterlimit="10"/></g><path d="M1.707 1.934h2.492v.664H1.707zm0 0" fill="#191919"/><g clip-path="url(#g)"><path transform="matrix(1 0 0 -1 -153 -17)" d="M158.027-34.457v16.601" fill="none" stroke-width=".286" stroke="gray" stroke-miterlimit="10"/></g><path d="M5.86 1.934h2.488v.664H5.859zm0 0" fill="#191919"/><g clip-path="url(#h)"><path transform="matrix(1 0 0 -1 -153 -17)" d="M162.18-34.457v16.601" fill="none" stroke-width=".286" stroke="gray" stroke-miterlimit="10"/></g><path d="M10.008 1.934H12.5v.664h-2.492zm0 0" fill="#191919"/><g clip-path="url(#i)"><path transform="matrix(1 0 0 -1 -153 -17)" d="M166.328-34.457v16.601" fill="none" stroke-width=".286" stroke="gray" stroke-miterlimit="10"/></g><path d="M14.16 1.934h2.492v.664H14.16zm0 0" fill="#191919"/><g clip-path="url(#j)"><path transform="matrix(1 0 0 -1 -153 -17)" d="M153.879-20.68h16.601" fill="none" stroke-width=".286" stroke="#191919" stroke-miterlimit="10"/></g></g><g clip-path="url(#k)"><g clip-path="url(#l)" id="m"><path fill-opacity=".2" d="M0 0h18v4H0z"/></g></g><g clip-path="url(#n)" id="bn"><g clip-path="url(#o)"><path transform="matrix(1 0 0 -1 -153 -20)" d="M153.879-34.457v16.601" fill="none" stroke-width=".286" stroke="gray" stroke-miterlimit="10"/></g><g clip-path="url(#p)"><path transform="matrix(1 0 0 -1 -153 -20)" d="M158.027-34.457v16.601" fill="none" stroke-width=".286" stroke="gray" stroke-miterlimit="10"/></g><g clip-path="url(#q)"><path transform="matrix(1 0 0 -1 -153 -20)" d="M162.18-34.457v16.601" fill="none" stroke-width=".286" stroke="gray" stroke-miterlimit="10"/></g><g clip-path="url(#r)"><path transform="matrix(1 0 0 -1 -153 -20)" d="M166.328-34.457v16.601" fill="none" stroke-width=".286" stroke="gray" stroke-miterlimit="10"/></g><g clip-path="url(#s)"><path transform="matrix(1 0 0 -1 -153 -20)" d="M153.879-20.68h16.601" fill="none" stroke-width=".286" stroke="#191919" stroke-miterlimit="10"/></g></g><g clip-path="url(#t)"><g clip-path="url(#u)" id="v"><path fill-opacity=".2" d="M0 0h18v17H0z"/></g></g><g clip-path="url(#w)" id="bu"><g clip-path="url(#x)"><path transform="matrix(1 0 0 -1 -165 -16)" d="M165.5-32.797v16.602" fill="none" stroke-width=".286" stroke="gray" stroke-miterlimit="10"/></g><path d="M1.328 1.273H3.82v.665H1.328zm0 0" fill="#191919"/><g clip-path="url(#y)"><path transform="matrix(1 0 0 -1 -165 -16)" d="M169.652-32.797v16.602" fill="none" stroke-width=".286" stroke="gray" stroke-miterlimit="10"/></g><path d="M5.48 1.273h2.493v.665H5.48zm0 0" fill="#191919"/><g clip-path="url(#z)"><path transform="matrix(1 0 0 -1 -165 -16)" d="M173.8-32.797v16.602" fill="none" stroke-width=".286" stroke="gray" stroke-miterlimit="10"/></g><path d="M9.633 1.273h2.488v.665H9.633zm0 0" fill="#191919"/><g clip-path="url(#A)"><path transform="matrix(1 0 0 -1 -165 -16)" d="M177.953-32.797v16.602" fill="none" stroke-width=".286" stroke="gray" stroke-miterlimit="10"/></g><path d="M13.781 1.273h2.492v.665h-2.492zm0 0" fill="#191919"/><path transform="matrix(1 0 0 -1 -165 -16)" d="M165.5-19.02h16.602" fill="none" stroke-width=".286" stroke="#191919" stroke-miterlimit="10"/></g><g clip-path="url(#B)"><g clip-path="url(#C)" id="D"><path fill-opacity=".2" d="M0 0h18v4H0z"/></g></g><g clip-path="url(#E)" id="bz"><g clip-path="url(#F)"><path transform="matrix(1 0 0 -1 -165 -21)" d="M165.5-32.797v16.602" fill="none" stroke-width=".286" stroke="gray" stroke-miterlimit="10"/></g><g clip-path="url(#G)"><path transform="matrix(1 0 0 -1 -165 -21)" d="M169.652-32.797v16.602" fill="none" stroke-width=".286" stroke="gray" stroke-miterlimit="10"/></g><g clip-path="url(#H)"><path transform="matrix(1 0 0 -1 -165 -21)" d="M173.8-32.797v16.602" fill="none" stroke-width=".286" stroke="gray" stroke-miterlimit="10"/></g><g clip-path="url(#I)"><path transform="matrix(1 0 0 -1 -165 -21)" d="M177.953-32.797v16.602" fill="none" stroke-width=".286" stroke="gray" stroke-miterlimit="10"/></g></g><g clip-path="url(#J)"><g clip-path="url(#K)" id="L"><path fill-opacity=".2" d="M0 0h18v18H0z"/></g></g><g clip-path="url(#M)" id="bG"><g clip-path="url(#N)"><path transform="matrix(1 0 0 -1 -176 -14)" d="M177.121-31.137v16.602" fill="none" stroke-width=".286" stroke="gray" stroke-miterlimit="10"/></g><path d="M1.953 1.613h2.488v.664H1.953zm0 0" fill="#191919"/><g clip-path="url(#O)"><path transform="matrix(1 0 0 -1 -176 -14)" d="M181.273-31.137v16.602" fill="none" stroke-width=".286" stroke="gray" stroke-miterlimit="10"/></g><path d="M6.102 1.613h2.492v.664H6.102zm0 0" fill="#191919"/><g clip-path="url(#P)"><path transform="matrix(1 0 0 -1 -176 -14)" d="M185.422-31.137v16.602" fill="none" stroke-width=".286" stroke="gray" stroke-miterlimit="10"/></g><path d="M10.254 1.613h2.492v.664h-2.492zm0 0" fill="#191919"/><g clip-path="url(#Q)"><path transform="matrix(1 0 0 -1 -176 -14)" d="M189.574-31.137v16.602" fill="none" stroke-width=".286" stroke="gray" stroke-miterlimit="10"/></g><path d="M14.406 1.613h2.489v.664h-2.489zm0 0" fill="#191919"/><path transform="matrix(1 0 0 -1 -176 -14)" d="M177.121-17.356h16.606" fill="none" stroke-width=".286" stroke="#191919" stroke-miterlimit="10"/></g><g clip-path="url(#R)"><g clip-path="url(#S)" id="T"><path fill-opacity=".2" d="M0 0h18v4H0z"/></g></g><g clip-path="url(#U)" id="bN"><g clip-path="url(#V)"><path transform="matrix(1 0 0 -1 -176 -22)" d="M177.121-31.137v16.602" fill="none" stroke-width=".286" stroke="gray" stroke-miterlimit="10"/></g><g clip-path="url(#W)"><path transform="matrix(1 0 0 -1 -176 -22)" d="M181.273-31.137v16.602" fill="none" stroke-width=".286" stroke="gray" stroke-miterlimit="10"/></g><g clip-path="url(#X)"><path transform="matrix(1 0 0 -1 -176 -22)" d="M185.422-31.137v16.602" fill="none" stroke-width=".286" stroke="gray" stroke-miterlimit="10"/></g><g clip-path="url(#Y)"><path transform="matrix(1 0 0 -1 -176 -22)" d="M189.574-31.137v16.602" fill="none" stroke-width=".286" stroke="gray" stroke-miterlimit="10"/></g></g><g clip-path="url(#Z)"><g clip-path="url(#aa)" id="ab"><path fill-opacity=".2" d="M0 0h18v18H0z"/></g></g><g clip-path="url(#ac)" id="bS"><g clip-path="url(#ad)"><path transform="matrix(1 0 0 -1 -188 -12)" d="M188.746-29.477v16.602" fill="none" stroke-width=".286" stroke="gray" stroke-miterlimit="10"/></g><path d="M1.574 1.953h2.492v.664H1.574zm0 0" fill="#191919"/><g clip-path="url(#ae)"><path transform="matrix(1 0 0 -1 -188 -12)" d="M192.895-29.477v16.602" fill="none" stroke-width=".286" stroke="gray" stroke-miterlimit="10"/></g><path d="M5.727 1.953h2.488v.664H5.727zm0 0" fill="#191919"/><g clip-path="url(#af)"><path transform="matrix(1 0 0 -1 -188 -12)" d="M197.047-29.477v16.602" fill="none" stroke-width=".286" stroke="gray" stroke-miterlimit="10"/></g><path d="M9.875 1.953h2.492v.664H9.875zm0 0" fill="#191919"/><g clip-path="url(#ag)"><path transform="matrix(1 0 0 -1 -188 -12)" d="M201.195-29.477v16.602" fill="none" stroke-width=".286" stroke="gray" stroke-miterlimit="10"/></g><path d="M14.027 1.953h2.489v.664h-2.489zm0 0" fill="#191919"/><path transform="matrix(1 0 0 -1 -188 -12)" d="M188.746-15.695h16.602" fill="none" stroke-width=".286" stroke="#191919" stroke-miterlimit="10"/></g><g clip-path="url(#ah)"><g clip-path="url(#ai)" id="aj"><path fill-opacity=".2" d="M0 0h18v4H0z"/></g></g><g clip-path="url(#ak)" id="bX"><g clip-path="url(#al)"><path transform="matrix(1 0 0 -1 -188 -23)" d="M188.746-29.477v16.602" fill="none" stroke-width=".286" stroke="gray" stroke-miterlimit="10"/></g><g clip-path="url(#am)"><path transform="matrix(1 0 0 -1 -188 -23)" d="M192.895-29.477v16.602" fill="none" stroke-width=".286" stroke="gray" stroke-miterlimit="10"/></g><g clip-path="url(#an)"><path transform="matrix(1 0 0 -1 -188 -23)" d="M197.047-29.477v16.602" fill="none" stroke-width=".286" stroke="gray" stroke-miterlimit="10"/></g><g clip-path="url(#ao)"><path transform="matrix(1 0 0 -1 -188 -23)" d="M201.195-29.477v16.602" fill="none" stroke-width=".286" stroke="gray" stroke-miterlimit="10"/></g></g><g clip-path="url(#ap)"><g clip-path="url(#aq)" id="ar"><path fill-opacity=".2" d="M0 0h17v15H0z"/></g></g><g clip-path="url(#as)" id="ce"><g clip-path="url(#at)"><path transform="matrix(1 0 0 -1 -200 -11)" d="M200.367-27.817v16.602" fill="none" stroke-width=".286" stroke="gray" stroke-miterlimit="10"/></g><path d="M1.195 1.293h2.492v.664H1.196zm0 0" fill="#191919"/><g clip-path="url(#au)"><path transform="matrix(1 0 0 -1 -200 -11)" d="M204.516-27.817v16.602" fill="none" stroke-width=".286" stroke="gray" stroke-miterlimit="10"/></g><path d="M5.348 1.293h2.488v.664H5.348zm0 0" fill="#191919"/><g clip-path="url(#av)"><path transform="matrix(1 0 0 -1 -200 -11)" d="M208.668-27.817v16.602" fill="none" stroke-width=".286" stroke="gray" stroke-miterlimit="10"/></g><path d="M9.5 1.293h2.488v.664H9.5zm0 0" fill="#191919"/><g clip-path="url(#aw)"><path transform="matrix(1 0 0 -1 -200 -11)" d="M212.82-27.817v16.602" fill="none" stroke-width=".286" stroke="gray" stroke-miterlimit="10"/></g><path d="M13.648 1.293h2.493v.664h-2.493zm0 0" fill="#191919"/><path transform="matrix(1 0 0 -1 -200 -11)" d="M200.367-14.035h16.602" fill="none" stroke-width=".286" stroke="#191919" stroke-miterlimit="10"/></g><g clip-path="url(#ax)"><g clip-path="url(#ay)" id="az"><path fill-opacity=".2" d="M0 0h17v3H0z"/></g></g><g clip-path="url(#aA)" id="cl"><g clip-path="url(#aB)"><path transform="matrix(1 0 0 -1 -200 -25)" d="M200.367-27.817v16.602" fill="none" stroke-width=".286" stroke="gray" stroke-miterlimit="10"/></g><g clip-path="url(#aC)"><path transform="matrix(1 0 0 -1 -200 -25)" d="M204.516-27.817v16.602" fill="none" stroke-width=".286" stroke="gray" stroke-miterlimit="10"/></g><g clip-path="url(#aD)"><path transform="matrix(1 0 0 -1 -200 -25)" d="M208.668-27.817v16.602" fill="none" stroke-width=".286" stroke="gray" stroke-miterlimit="10"/></g><g clip-path="url(#aE)"><path transform="matrix(1 0 0 -1 -200 -25)" d="M212.82-27.817v16.602" fill="none" stroke-width=".286" stroke="gray" stroke-miterlimit="10"/></g></g><mask id="bh"><g filter="url(#c)"><use xlink:href="#d"/></g></mask><mask id="bm"><g filter="url(#c)"><use xlink:href="#m"/></g></mask><mask id="bt"><g filter="url(#c)"><use xlink:href="#v"/></g></mask><mask id="by"><g filter="url(#c)"><use xlink:href="#D"/></g></mask><mask id="bF"><g filter="url(#c)"><use xlink:href="#L"/></g></mask><mask id="bM"><g filter="url(#c)"><use xlink:href="#T"/></g></mask><mask id="bR"><g filter="url(#c)"><use xlink:href="#ab"/></g></mask><mask id="bW"><g filter="url(#c)"><use xlink:href="#aj"/></g></mask><mask id="cd"><g filter="url(#c)"><use xlink:href="#ar"/></g></mask><mask id="ck"><g filter="url(#c)"><use xlink:href="#az"/></g></mask><filter height="100%" width="100%" y="0%" x="0%" filterUnits="objectBoundingBox" id="c"><feColorMatrix values="0 0 0 0 1 0 0 0 0 1 0 0 0 0 1 0 0 0 1 0" in="SourceGraphic"/></filter></defs><path transform="scale(1 -1)" d="M54.79-97.145h139.98" fill="none" stroke-width="1.139" stroke="#000" stroke-miterlimit="10"/><path d="M197.098 97.145l-3.723-1.86 1.395 1.86-1.395 1.863"/><path transform="scale(1 -1)" d="M54.79-97.145v27.457" fill="none" stroke-width="1.139" stroke="#000" stroke-miterlimit="10"/><path d="M54.79 67.36l-1.864 3.722 1.863-1.394 1.86 1.394"/><path transform="scale(1 -1)" d="M54.79-97.145L1.644-150.29" fill="none" stroke-width="1.139" stroke="#000" stroke-miterlimit="10"/><path d="M0 151.934l3.95-1.317-2.305-.328-.329-2.305"/><path transform="scale(1 -1)" d="M56.824-101.731L5.86-152.696M56.824-101.731h132.38M89.918-101.731l-50.965-50.965M44.082-114.473h132.383M123.016-101.731l-50.97-50.965M31.34-127.212h132.383M156.11-101.731l-50.965-50.965M18.598-139.954H150.98M189.203-101.731l-50.965-50.965M5.86-152.696h132.378" fill="none" stroke-width="1.139" stroke="gray" stroke-miterlimit="10"/><path d="M122.238 115.746c0-.914-1.484-1.656-3.312-1.656-1.828 0-3.309.742-3.309 1.656 0 .914 1.48 1.652 3.309 1.652 1.828 0 3.312-.738 3.312-1.652zm0 0" fill="red" fill-opacity=".8"/><path transform="scale(1 -1)" d="M118.926-115.747v33.098" fill="none" stroke-width="2.277" stroke="#00f" stroke-opacity=".5" stroke-dasharray="8.539536,8.539536" stroke-miterlimit="10"/><path transform="scale(1 -1)" d="M116.367-85.211l5.117 5.12m-5.117 0l5.117-5.12" fill="none" stroke-width="1.139" stroke="#00f" stroke-miterlimit="10"/><path d="M81.496 123.39c0-.913-1.48-1.656-3.308-1.656-1.829 0-3.31.743-3.31 1.657s1.481 1.652 3.31 1.652c1.828 0 3.308-.738 3.308-1.652zm0 0" fill="red" fill-opacity=".8"/><path transform="scale(1 -1)" d="M78.188-123.391v43.023" fill="none" stroke-width="2.277" stroke="#00f" stroke-opacity=".5" stroke-dasharray="8.539536,8.539536" stroke-miterlimit="10"/><path transform="scale(1 -1)" d="M75.629-82.926l5.117 5.117m-5.117 0l5.117-5.117" fill="none" stroke-width="1.139" stroke="#00f" stroke-miterlimit="10"/><path d="M102.89 111.922c0-.914-1.48-1.652-3.308-1.652-1.828 0-3.309.738-3.309 1.652 0 .914 1.48 1.656 3.309 1.656 1.828 0 3.309-.742 3.309-1.656zm0 0" fill="red" fill-opacity=".8"/><path transform="scale(1 -1)" d="M99.582-111.922v23.164" fill="none" stroke-width="2.277" stroke="#00f" stroke-opacity=".5" stroke-dasharray="8.539536,8.539536" stroke-miterlimit="10"/><path transform="scale(1 -1)" d="M97.023-91.317l5.118 5.117m-5.118 0l5.118-5.117" fill="none" stroke-width="1.139" stroke="#00f" stroke-miterlimit="10"/><path d="M39.219 142.5c0-.91-1.48-1.652-3.309-1.652-1.828 0-3.312.742-3.312 1.652 0 .914 1.484 1.656 3.312 1.656 1.828 0 3.309-.742 3.309-1.656zm0 0M85.172 141.227c0-.915-1.484-1.653-3.313-1.653-1.828 0-3.308.738-3.308 1.653 0 .914 1.48 1.656 3.308 1.656 1.829 0 3.313-.742 3.313-1.656zm0 0M100.328 131.035c0-.914-1.48-1.656-3.308-1.656-1.829 0-3.31.742-3.31 1.656 0 .914 1.481 1.656 3.31 1.656 1.828 0 3.308-.742 3.308-1.656zm0 0M143.102 124.664c0-.914-1.48-1.656-3.309-1.656-1.828 0-3.309.742-3.309 1.656 0 .914 1.48 1.656 3.309 1.656 1.828 0 3.309-.742 3.309-1.656zm0 0M112.293 132.309c0-.914-1.484-1.657-3.313-1.657-1.824 0-3.308.743-3.308 1.657s1.484 1.656 3.308 1.656c1.829 0 3.313-.742 3.313-1.656zm0 0M146.66 131.035c0-.914-1.48-1.656-3.308-1.656-1.829 0-3.309.742-3.309 1.656 0 .914 1.48 1.656 3.309 1.656 1.828 0 3.308-.742 3.308-1.656zm0 0" fill="red" fill-opacity=".8"/><path d="M149.21 128.488c0-.914-1.483-1.656-3.312-1.656-1.828 0-3.308.742-3.308 1.656 0 .914 1.48 1.653 3.308 1.653 1.829 0 3.313-.739 3.313-1.653zm0 0M141.813 142.5c0-.91-1.481-1.652-3.31-1.652-1.827 0-3.308.742-3.308 1.652 0 .914 1.48 1.656 3.309 1.656 1.828 0 3.309-.742 3.309-1.656zm0 0" fill="red" fill-opacity=".8"/><path transform="scale(1 -1)" d="M35.91-142.5v13.234" fill="none" stroke-width="2.277" stroke="#00f" stroke-opacity=".5" stroke-dasharray="8.539536,8.539536" stroke-miterlimit="10"/><path transform="scale(1 -1)" d="M33.348-131.825l5.12 5.117m-5.12 0l5.12-5.117" fill="none" stroke-width="1.139" stroke="#00f" stroke-miterlimit="10"/><path transform="scale(1 -1)" d="M81.86-141.227v29.785" fill="none" stroke-width="2.277" stroke="#00f" stroke-opacity=".5" stroke-dasharray="8.539536,8.539536" stroke-miterlimit="10"/><path transform="scale(1 -1)" d="M79.3-114l5.118 5.117m-5.117 0l5.117-5.118" fill="none" stroke-width="1.139" stroke="#00f" stroke-miterlimit="10"/><path transform="scale(1 -1)" d="M97.02-131.036v9.93" fill="none" stroke-width="2.277" stroke="#00f" stroke-opacity=".5" stroke-dasharray="8.539536,8.539536" stroke-miterlimit="10"/><path transform="scale(1 -1)" d="M94.46-123.665l5.118 5.118m-5.117 0l5.117-5.118" fill="none" stroke-width="1.139" stroke="#00f" stroke-miterlimit="10"/><path transform="scale(1 -1)" d="M139.793-124.665v36.407" fill="none" stroke-width="2.277" stroke="#00f" stroke-opacity=".5" stroke-dasharray="8.539536,8.539536" stroke-miterlimit="10"/><path transform="scale(1 -1)" d="M137.234-90.817l5.118 5.117m-5.118 0l5.118-5.117" fill="none" stroke-width="1.139" stroke="#00f" stroke-miterlimit="10"/><path transform="scale(1 -1)" d="M108.98-132.31v39.716" fill="none" stroke-width="2.277" stroke="#00f" stroke-opacity=".5" stroke-dasharray="8.539536,8.539536" stroke-miterlimit="10"/><path transform="scale(1 -1)" d="M106.422-95.153l5.121 5.117m-5.121 0l5.121-5.117" fill="none" stroke-width="1.139" stroke="#00f" stroke-miterlimit="10"/><path transform="scale(1 -1)" d="M143.352-131.036v46.332" fill="none" stroke-width="2.277" stroke="#00f" stroke-opacity=".5" stroke-dasharray="8.539536,8.539536" stroke-miterlimit="10"/><path transform="scale(1 -1)" d="M140.793-87.262l5.117 5.117m-5.117 0l5.117-5.117" fill="none" stroke-width="1.139" stroke="#00f" stroke-miterlimit="10"/><path transform="scale(1 -1)" d="M145.898-128.489v29.785" fill="none" stroke-width="2.277" stroke="#00f" stroke-opacity=".5" stroke-dasharray="8.539536,8.539536" stroke-miterlimit="10"/><path transform="scale(1 -1)" d="M143.34-101.262l5.117 5.12m-5.117 0l5.117-5.12" fill="none" stroke-width="1.139" stroke="#00f" stroke-miterlimit="10"/><path transform="scale(1 -1)" d="M138.504-142.5v33.093" fill="none" stroke-width="2.277" stroke="#00f" stroke-opacity=".5" stroke-dasharray="8.539536,8.539536" stroke-miterlimit="10"/><path transform="scale(1 -1)" d="M135.945-111.965l5.118 5.117m-5.118 0l5.118-5.117" fill="none" stroke-width="1.139" stroke="#00f" stroke-miterlimit="10"/><path transform="scale(1 -1)" d="M230.207-183.49h-82.004c-5.484 0-9.93-4.445-9.93-9.929v-15.191c0-5.485 4.446-9.93 9.93-9.93h82.004c5.484 0 9.93 4.445 9.93 9.93v15.191c0 5.484-4.446 9.93-9.93 9.93zm0 0" fill="#f2f2f2" stroke-width="2.277" stroke="gray" stroke-miterlimit="10"/><use y="196.826" x="147.536" xlink:href="#aF"/><use y="196.826" x="153.457" xlink:href="#aG"/><use y="196.826" x="159.37" xlink:href="#aH"/><use y="196.826" x="165.291" xlink:href="#aH"/><use y="196.826" x="171.213" xlink:href="#aI"/><use y="196.826" x="176.957" xlink:href="#aJ"/><use y="196.826" x="181.814" xlink:href="#aK"/><use y="196.826" x="185.475" xlink:href="#aL"/><use y="210.202" x="148.283" xlink:href="#aM"/><use y="210.202" x="155.297" xlink:href="#aN"/><use y="210.202" x="160.817" xlink:href="#aO"/><use y="210.202" x="166.739" xlink:href="#aI"/><use y="210.202" x="172.483" xlink:href="#aP"/><use y="210.202" x="176.322" xlink:href="#aO"/><use y="210.202" x="182.244" xlink:href="#aQ"/><use y="210.202" x="187.96" xlink:href="#aP"/><use y="210.202" x="191.799" xlink:href="#aQ"/><use y="210.202" x="197.543" xlink:href="#aR"/><use y="210.202" x="206.64" xlink:href="#aI"/><use y="210.202" x="212.384" xlink:href="#aK"/><use y="210.202" x="216.045" xlink:href="#aI"/><use y="210.202" x="221.789" xlink:href="#aP"/><use y="210.202" x="225.628" xlink:href="#aJ"/><path transform="scale(1 -1)" d="M94.32-191.087H47.984c-5.48 0-9.925-4.445-9.925-9.93 0-5.48 4.445-9.925 9.925-9.925H94.32c5.485 0 9.926 4.445 9.926 9.925 0 5.485-4.441 9.93-9.926 9.93zm0 0" fill="#f2f2f2" stroke-width="2.277" stroke="gray" stroke-miterlimit="10"/><use y="204.839" x="59.639" xlink:href="#aF"/><use y="204.839" x="65.56" xlink:href="#aK"/><use y="204.839" x="69.222" xlink:href="#aQ"/><use y="204.839" x="74.938" xlink:href="#aP"/><use y="204.839" x="78.777" xlink:href="#aK"/><path d="M345.336 183.488H284.09c-5.485 0-9.93 4.446-9.93 9.93v15.191c0 5.485 4.445 9.93 9.93 9.93h61.246c5.484 0 9.926-4.445 9.926-9.93v-15.191c0-5.484-4.442-9.93-9.926-9.93zm0 0" fill="#f2f2f2"/><g clip-path="url(#aS)"><path transform="scale(1 -1)" d="M345.336-183.49H284.09c-5.485 0-9.93-4.445-9.93-9.929v-15.191c0-5.485 4.445-9.93 9.93-9.93h61.246c5.484 0 9.926 4.445 9.926 9.93v15.191c0 5.484-4.442 9.93-9.926 9.93zm0 0" fill="none" stroke-width="2.277" stroke="gray" stroke-miterlimit="10"/></g><use y="196.826" x="283.325" xlink:href="#aT"/><use y="196.826" x="289.219" xlink:href="#aU"/><use y="196.826" x="294.739" xlink:href="#aQ"/><use y="196.826" x="300.455" xlink:href="#aG"/><use y="196.826" x="306.367" xlink:href="#aV"/><use y="196.826" x="308.955" xlink:href="#aQ"/><use y="196.826" x="314.671" xlink:href="#aK"/><use y="196.826" x="318.36" xlink:href="#aI"/><use y="210.202" x="283.325" xlink:href="#aW"/><use y="210.202" x="288.631" xlink:href="#aI"/><use y="210.202" x="294.375" xlink:href="#aP"/><use y="210.202" x="298.214" xlink:href="#aX"/><use y="210.202" x="301.501" xlink:href="#aY"/><use y="210.202" x="307.208" xlink:href="#aP"/><use y="210.202" x="310.907" xlink:href="#aR"/><use y="210.202" x="320.004" xlink:href="#aQ"/><use y="210.202" x="325.72" xlink:href="#aZ"/><use y="210.202" x="331.66" xlink:href="#ba"/><use y="210.202" x="336.788" xlink:href="#aI"/><path transform="scale(1 -1)" d="M134.785-201.017h-30.07" fill="none" stroke-width="2.277" stroke="#000" stroke-miterlimit="10"/><path d="M137.809 201.016l-4.84-2.422 1.816 2.422-1.816 2.418"/><path transform="scale(1 -1)" d="M189.203-183.024c16.742 45.992 108.77 45.992 124.477 2.84" fill="none" stroke-width="2.277" stroke="#000" stroke-miterlimit="10"/><path d="M314.71 183.023l.622-5.37-1.652 2.53-2.895-.878"/><path transform="scale(1 -1)" d="M190.238-221.849c15.707-43.148 107.735-43.148 124.473 2.844" fill="none" stroke-width="2.277" stroke="#000" stroke-miterlimit="10"/><path d="M189.203 219.004l-.617 5.375 1.652-2.531 2.895.875"/><path d="M337.879 252.563h-46.332c-5.485 0-9.93 4.445-9.93 9.93 0 5.484 4.445 9.929 9.93 9.929h46.332c5.484 0 9.93-4.445 9.93-9.93 0-5.484-4.446-9.93-9.93-9.93zm0 0" fill="#f2f2f2"/><g clip-path="url(#bb)"><path transform="scale(1 -1)" d="M337.879-252.564h-46.332c-5.485 0-9.93-4.445-9.93-9.93 0-5.484 4.445-9.93 9.93-9.93h46.332c5.484 0 9.93 4.446 9.93 9.93 0 5.485-4.446 9.93-9.93 9.93zm0 0" fill="none" stroke-width="2.277" stroke="gray" stroke-miterlimit="10"/></g><use y="266.241" x="305.191" xlink:href="#aT"/><use y="266.241" x="311.084" xlink:href="#aZ"/><use y="266.241" x="316.996" xlink:href="#bc"/><use y="266.241" x="322.918" xlink:href="#aL"/><path transform="scale(1 -1)" d="M314.71-219.005v-30.07" fill="none" stroke-width="2.277" stroke="#000" stroke-miterlimit="10"/><path d="M314.71 252.098l2.423-4.836-2.422 1.812-2.418-1.812"/><g clip-path="url(#bd)"><path transform="scale(1 -1)" d="M262.828-75.786l61.813-107.238L271.1-75.786h84.395v69.798h-214.57v-69.798zm0 0" fill="none" stroke-width="1.139" stroke="#000" stroke-miterlimit="10"/></g><g clip-path="url(#be)"><path transform="matrix(1 0 0 -1 0 0)" d="M153.879-17.856h16.601v-16.601H153.88zm0 0" fill="#ccf" stroke-width=".571" stroke="#8080ff" stroke-miterlimit="10"/></g><g clip-path="url(#bf)"><path transform="matrix(1 0 0 -1 0 0)" d="M153.879-17.856h16.601v-16.601H153.88zm0 0" fill="#fcc" stroke-width=".571" stroke="#ff8080" stroke-miterlimit="10"/></g><g clip-path="url(#bg)"><use mask="url(#bh)" transform="translate(153 17)" xlink:href="#bi"/></g><g clip-path="url(#bj)"><path transform="matrix(1 0 0 -1 0 0)" d="M153.879-17.856h16.601v-16.601H153.88zm0 0" fill="#ccf" fill-opacity=".2" stroke-width=".571" stroke="#8080ff" stroke-opacity=".2" stroke-miterlimit="10"/></g><g clip-path="url(#bk)"><path transform="matrix(1 0 0 -1 0 0)" d="M153.879-17.856h16.601v-16.601H153.88zm0 0" fill="#fcc" fill-opacity=".2" stroke-width=".571" stroke="#ff8080" stroke-opacity=".2" stroke-miterlimit="10"/></g><g clip-path="url(#bl)"><use mask="url(#bm)" transform="translate(153 20)" xlink:href="#bn"/></g><path transform="scale(1 -1)" d="M162.18-35.863v-1.942" fill="none" stroke-width=".857" stroke="#d2c92a" stroke-miterlimit="10"/><path d="M162.18 38.738l.746-1.496-.746.563-.746-.563" fill="#d2c92a"/><path transform="scale(1 -1)" d="M160.488-41.133l-1.304-1.527-1.856-.766 1.05-1.71.157-2.005 1.953.473 1.95-.473.156 2.004 1.05 1.711-1.855.766zm0 0" fill="#f2f1e8" stroke-width=".286" stroke="#d2c92a" stroke-miterlimit="10"/><g clip-path="url(#bo)"><path d="M165.5 16.195h16.602v16.602H165.5zm0 0" fill="#ccf"/></g><g clip-path="url(#bp)"><path transform="matrix(1 0 0 -1 0 0)" d="M165.5-16.195h16.602v-16.602H165.5zm0 0" fill="none" stroke-width=".571" stroke="#8080ff" stroke-miterlimit="10"/></g><g clip-path="url(#bq)"><path d="M165.5 16.195h16.602v16.602H165.5zm0 0" fill="#fcc"/></g><g clip-path="url(#br)"><path transform="matrix(1 0 0 -1 0 0)" d="M165.5-16.195h16.602v-16.602H165.5zm0 0" fill="none" stroke-width=".571" stroke="#ff8080" stroke-miterlimit="10"/></g><g clip-path="url(#bs)"><use mask="url(#bt)" transform="translate(165 16)" xlink:href="#bu"/></g><g clip-path="url(#bv)"><path transform="matrix(1 0 0 -1 0 0)" d="M165.5-16.195h16.602v-16.602H165.5zm0 0" fill="#ccf" fill-opacity=".2" stroke-width=".571" stroke="#8080ff" stroke-opacity=".2" stroke-miterlimit="10"/></g><g clip-path="url(#bw)"><path transform="matrix(1 0 0 -1 0 0)" d="M165.5-16.195h16.602v-16.602H165.5zm0 0" fill="#fcc" fill-opacity=".2" stroke-width=".571" stroke="#ff8080" stroke-opacity=".2" stroke-miterlimit="10"/></g><g clip-path="url(#bx)"><use mask="url(#by)" transform="translate(165 21)" xlink:href="#bz"/></g><path transform="scale(1 -1)" d="M173.8-34.203v-3.602" fill="none" stroke-width=".857" stroke="#d2c92a" stroke-miterlimit="10"/><path d="M173.8 38.738l.747-1.496-.746.563-.746-.563" fill="#d2c92a"/><path transform="scale(1 -1)" d="M172.11-41.133l-1.301-1.527-1.86-.766 1.055-1.71.152-2.005 1.953.473 1.95-.473.156 2.004 1.05 1.711-1.855.766zm0 0" fill="#f2f1e8" stroke-width=".286" stroke="#d2c92a" stroke-miterlimit="10"/><g clip-path="url(#bA)"><path d="M177.121 14.535h16.606v16.602H177.12zm0 0" fill="#ccf"/></g><g clip-path="url(#bB)"><path transform="matrix(1 0 0 -1 0 0)" d="M177.121-14.535h16.606v-16.602H177.12zm0 0" fill="none" stroke-width=".571" stroke="#8080ff" stroke-miterlimit="10"/></g><g clip-path="url(#bC)"><path d="M177.121 14.535h16.606v16.602H177.12zm0 0" fill="#fcc"/></g><g clip-path="url(#bD)"><path transform="matrix(1 0 0 -1 0 0)" d="M177.121-14.535h16.606v-16.602H177.12zm0 0" fill="none" stroke-width=".571" stroke="#ff8080" stroke-miterlimit="10"/></g><g clip-path="url(#bE)"><use mask="url(#bF)" transform="translate(176 14)" xlink:href="#bG"/></g><g clip-path="url(#bH)"><path d="M177.121 14.535h16.606v16.602H177.12zm0 0" fill="#ccf" fill-opacity=".2"/></g><g clip-path="url(#bI)"><path transform="matrix(1 0 0 -1 0 0)" d="M177.121-14.535h16.606v-16.602H177.12zm0 0" fill="none" stroke-width=".571" stroke="#8080ff" stroke-opacity=".2" stroke-miterlimit="10"/></g><g clip-path="url(#bJ)"><path d="M177.121 14.535h16.606v16.602H177.12zm0 0" fill="#fcc" fill-opacity=".2"/></g><g clip-path="url(#bK)"><path transform="matrix(1 0 0 -1 0 0)" d="M177.121-14.535h16.606v-16.602H177.12zm0 0" fill="none" stroke-width=".571" stroke="#ff8080" stroke-opacity=".2" stroke-miterlimit="10"/></g><g clip-path="url(#bL)"><use mask="url(#bM)" transform="translate(176 22)" xlink:href="#bN"/></g><path transform="scale(1 -1)" d="M185.426-32.543v-5.262" fill="none" stroke-width=".857" stroke="#d2c92a" stroke-miterlimit="10"/><path d="M185.426 38.738l.746-1.496-.746.563-.75-.563" fill="#d2c92a"/><path transform="scale(1 -1)" d="M183.73-41.133l-1.3-1.527-1.856-.766 1.051-1.71.152-2.005 1.953.473 1.954-.473.152 2.004 1.055 1.711-1.86.766zm0 0" fill="#f2f1e8" stroke-width=".286" stroke="#d2c92a" stroke-miterlimit="10"/><g clip-path="url(#bO)"><path transform="matrix(1 0 0 -1 0 0)" d="M188.746-12.875h16.602v-16.602h-16.602zm0 0" fill="#ccf" stroke-width=".571" stroke="#8080ff" stroke-miterlimit="10"/></g><g clip-path="url(#bP)"><path transform="matrix(1 0 0 -1 0 0)" d="M188.746-12.875h16.602v-16.602h-16.602zm0 0" fill="#fcc" stroke-width=".571" stroke="#ff8080" stroke-miterlimit="10"/></g><g clip-path="url(#bQ)"><use mask="url(#bR)" transform="translate(188 12)" xlink:href="#bS"/></g><g clip-path="url(#bT)"><path transform="matrix(1 0 0 -1 0 0)" d="M188.746-12.875h16.602v-16.602h-16.602zm0 0" fill="#ccf" fill-opacity=".2" stroke-width=".571" stroke="#8080ff" stroke-opacity=".2" stroke-miterlimit="10"/></g><g clip-path="url(#bU)"><path transform="matrix(1 0 0 -1 0 0)" d="M188.746-12.875h16.602v-16.602h-16.602zm0 0" fill="#fcc" fill-opacity=".2" stroke-width=".571" stroke="#ff8080" stroke-opacity=".2" stroke-miterlimit="10"/></g><g clip-path="url(#bV)"><use mask="url(#bW)" transform="translate(188 23)" xlink:href="#bX"/></g><path transform="scale(1 -1)" d="M197.047-30.883v-6.922" fill="none" stroke-width=".857" stroke="#d2c92a" stroke-miterlimit="10"/><path d="M197.047 38.738l.746-1.496-.746.563-.746-.563" fill="#d2c92a"/><path transform="scale(1 -1)" d="M195.352-41.133l-1.301-1.527-1.856-.766 1.051-1.71.156-2.005 1.95.473 1.953-.473.152 2.004 1.055 1.711-1.856.766zm0 0" fill="#f2f1e8" stroke-width=".286" stroke="#d2c92a" stroke-miterlimit="10"/><g clip-path="url(#bY)"><path d="M200.367 11.215h16.602v16.601h-16.602zm0 0" fill="#ccf"/></g><g clip-path="url(#bZ)"><path transform="matrix(1 0 0 -1 0 0)" d="M200.367-11.215h16.602v-16.602h-16.602zm0 0" fill="none" stroke-width=".571" stroke="#8080ff" stroke-miterlimit="10"/></g><g clip-path="url(#ca)"><path d="M200.367 11.215h16.602v16.601h-16.602zm0 0" fill="#fcc"/></g><g clip-path="url(#cb)"><path transform="matrix(1 0 0 -1 0 0)" d="M200.367-11.215h16.602v-16.602h-16.602zm0 0" fill="none" stroke-width=".571" stroke="#ff8080" stroke-miterlimit="10"/></g><g clip-path="url(#cc)"><use mask="url(#cd)" transform="translate(200 11)" xlink:href="#ce"/></g><g clip-path="url(#cf)"><path d="M200.367 11.215h16.602v16.601h-16.602zm0 0" fill="#ccf" fill-opacity=".2"/></g><g clip-path="url(#cg)"><path transform="matrix(1 0 0 -1 0 0)" d="M200.367-11.215h16.602v-16.602h-16.602zm0 0" fill="none" stroke-width=".571" stroke="#8080ff" stroke-opacity=".2" stroke-miterlimit="10"/></g><g clip-path="url(#ch)"><path d="M200.367 11.215h16.602v16.601h-16.602zm0 0" fill="#fcc" fill-opacity=".2"/></g><g clip-path="url(#ci)"><path transform="matrix(1 0 0 -1 0 0)" d="M200.367-11.215h16.602v-16.602h-16.602zm0 0" fill="none" stroke-width=".571" stroke="#ff8080" stroke-opacity=".2" stroke-miterlimit="10"/></g><g clip-path="url(#cj)"><use mask="url(#ck)" transform="translate(200 25)" xlink:href="#cl"/></g><path transform="scale(1 -1)" d="M208.668-29.223v-8.582" fill="none" stroke-width=".857" stroke="#d2c92a" stroke-miterlimit="10"/><path d="M208.668 38.738l.746-1.496-.746.563-.746-.563" fill="#d2c92a"/><path transform="scale(1 -1)" d="M206.977-41.133l-1.301-1.527-1.86-.766 1.055-1.71.152-2.005 1.954.473 1.949-.473.156 2.004 1.05 1.711-1.855.766zm0 0" fill="#f2f1e8" stroke-width=".286" stroke="#d2c92a" stroke-miterlimit="10"/><path transform="scale(1 -1)" d="M198.16-57.434l-4.238 4.238v-2.074h-11.89v-4.324h11.89v-2.078zm0 0" fill="none" stroke-width=".286" stroke="#000" stroke-miterlimit="10"/><use y="58.045" x="182.983" xlink:href="#cm"/><use y="58.045" x="184.473" xlink:href="#cn"/><use y="58.045" x="185.963" xlink:href="#cn"/><use y="58.045" x="187.428" xlink:href="#co"/><use y="58.045" x="188.322" xlink:href="#cp"/><use y="58.045" x="189.812" xlink:href="#cn"/><use y="58.045" x="191.304" xlink:href="#cm"/><use y="58.045" x="192.794" xlink:href="#cq"/><use y="58.045" x="193.54" xlink:href="#cp"/><path transform="scale(1 -1)" d="M159.824-48.211c-1.422-8.059 12.586-10.383 21.39-9.77" fill="none" stroke-width=".571" stroke="#000" stroke-dasharray="2.142057,2.142057" stroke-miterlimit="10"/><path d="M181.973 57.926l-1.254-.52.496.574-.41.637"/><path transform="scale(1 -1)" d="M169.879-48.313c-2.3-3.988 6.086-9.12 11.336-9.12" fill="none" stroke-width=".571" stroke="#000" stroke-dasharray="2.142057,2.142057" stroke-miterlimit="10"/><path d="M181.973 57.434l-1.215-.606.457.606-.457.605"/><path transform="scale(1 -1)" d="M180.574-47.102c-2.148-1.8-2.797-9.547.64-9.785" fill="none" stroke-width=".571" stroke="#000" stroke-dasharray="2.142057,2.142057" stroke-miterlimit="10"/><path d="M181.973 56.941l-1.168-.691.41.637-.496.574"/><path transform="scale(1 -1)" d="M191.879-45.719c-4.524-1.645-16.063-9.86-10.66-10.621" fill="none" stroke-width=".571" stroke="#000" stroke-dasharray="2.142057,2.142057" stroke-miterlimit="10"/><path d="M181.973 56.445l-1.118-.773.364.668-.535.535"/><path transform="scale(1 -1)" d="M202.977-44.453c-8.446 0-30.641-9.438-21.747-11.325" fill="none" stroke-width=".571" stroke="#000" stroke-dasharray="2.142057,2.142057" stroke-miterlimit="10"/><path d="M181.973 55.938l-1.063-.848.32.687-.57.5"/><path transform="scale(1 -1)" d="M206.473-52.453l-1.953-2.293-2.786-1.149 1.582-2.566.23-3.004 2.927.71 2.93-.71.23 3.004 1.578 2.566-2.785 1.149zm0 0" fill="#f2f1e8" stroke-width="2.713" stroke="#d2c92a" stroke-miterlimit="10"/><path transform="scale(1 -1)" d="M206.473-52.453l-1.953-2.293-2.786-1.149 1.582-2.566.23-3.004 2.927.71 2.93-.71.23 3.004 1.578 2.566-2.785 1.149zm0 0" fill="none" stroke-width=".428" stroke="#fff" stroke-miterlimit="10"/><g><use y="26.157" x="232.587" xlink:href="#cr"/></g><g><use y="26.157" x="238.261" xlink:href="#cs"/><use y="26.157" x="244.723" xlink:href="#ct"/><use y="26.157" x="251.153" xlink:href="#cu"/></g><g><use y="26.157" x="255.325" xlink:href="#cv"/><use y="26.157" x="261.976" xlink:href="#cs"/><use y="26.157" x="268.438" xlink:href="#cu"/></g><g><use y="26.157" x="272.789" xlink:href="#cw"/><use y="26.157" x="276.119" xlink:href="#cx"/><use y="26.157" x="280.217" xlink:href="#cy"/><use y="26.157" x="283.128" xlink:href="#cu"/></g><g><use y="26.157" x="287.289" xlink:href="#cv"/><use y="26.157" x="293.94" xlink:href="#cx"/><use y="26.157" x="298.038" xlink:href="#cz"/><use y="26.157" x="302.136" xlink:href="#cz"/></g><g><use y="40.115" x="232.587" xlink:href="#cA"/></g><g><use y="40.115" x="238.755" xlink:href="#ct"/></g><g><use y="40.115" x="244.922" xlink:href="#cB"/></g><g><use y="40.115" x="251.09" xlink:href="#cC"/></g><g><use y="54.654" x="232.587" xlink:href="#cD"/></g><g><use y="54.654" x="239.427" xlink:href="#cs"/><use y="54.654" x="245.889" xlink:href="#cB"/><use y="54.654" x="251.353" xlink:href="#ct"/><use y="54.654" x="257.784" xlink:href="#cE"/><use y="54.654" x="268.018" xlink:href="#cF"/><use y="54.654" x="274.68" xlink:href="#cy"/><use y="54.654" x="277.591" xlink:href="#cG"/><use y="54.654" x="280.501" xlink:href="#cv"/><use y="54.654" x="287.152" xlink:href="#cH"/></g><g><use y="54.072" x="297.324" xlink:href="#cx"/><use y="54.072" x="301.422" xlink:href="#cu"/><use y="54.072" x="305.74" xlink:href="#cB"/><use y="54.072" x="311.204" xlink:href="#cE"/><use y="54.072" x="321.439" xlink:href="#cF"/><use y="54.072" x="328.101" xlink:href="#cx"/></g><g><use y="54.072" x="332.23" xlink:href="#cz"/><use y="54.072" x="336.328" xlink:href="#cz"/></g><g><use y="68.031" x="232.587" xlink:href="#cI"/><use y="68.031" x="241.644" xlink:href="#cs"/><use y="68.031" x="248.106" xlink:href="#ct"/><use y="68.031" x="254.537" xlink:href="#cB"/><use y="68.031" x="260.001" xlink:href="#cJ"/><use y="68.031" x="266.652" xlink:href="#cu"/></g><g><use y="68.031" x="270.792" xlink:href="#cs"/><use y="68.031" x="277.254" xlink:href="#cw"/><use y="68.031" x="280.585" xlink:href="#cx"/><use y="68.031" x="284.683" xlink:href="#cE"/><use y="68.031" x="294.918" xlink:href="#cB"/></g><g><use y="68.031" x="300.413" xlink:href="#cu"/><use y="68.031" x="304.732" xlink:href="#cx"/><use y="68.031" x="308.83" xlink:href="#cz"/><use y="68.031" x="312.928" xlink:href="#cz"/></g><path transform="scale(1 -1)" d="M89.832-235.786l47.977 29.805-56.25-29.805H12.707v-35.047h84.727v35.047zm0 0" fill="none" stroke-width="1.139" stroke="#000" stroke-miterlimit="10"/><g><use y="249.12" x="23.251" xlink:href="#aF"/><use y="249.12" x="29.173" xlink:href="#aI"/><use y="249.12" x="34.917" xlink:href="#aQ"/><use y="249.12" x="40.633" xlink:href="#aP"/></g><g><use y="249.12" x="44.294" xlink:href="#ba"/><use y="249.12" x="49.422" xlink:href="#cK"/></g><g><use y="249.12" x="55.362" xlink:href="#aL"/><use y="249.12" x="58.323" xlink:href="#aF"/><use y="249.12" x="64.245" xlink:href="#aO"/><use y="249.12" x="70.166" xlink:href="#aQ"/><use y="249.12" x="75.882" xlink:href="#ba"/><use y="249.12" x="81.01" xlink:href="#aI"/></g><g><use y="263.077" x="23.251" xlink:href="#cL"/></g><g><use y="263.077" x="29.425" xlink:href="#aG"/></g><g><use y="263.077" x="35.58" xlink:href="#aZ"/></g><g><use y="263.077" x="41.754" xlink:href="#aI"/></g><g><use y="263.077" x="47.937" xlink:href="#aP"/></g><path transform="scale(1 -1)" d="M257.754-269.587l23.398 7.094-23.398 1.18v4.136H113.328v-17.254h144.426zm0 0" fill="none" stroke-width="1.139" stroke="#000" stroke-miterlimit="10"/><g><use y="268.609" x="116.896" xlink:href="#cL"/></g><g><use y="268.609" x="121.024" xlink:href="#aI"/><use y="268.609" x="126.768" xlink:href="#aP"/></g><g><use y="268.609" x="130.467" xlink:href="#aR"/><use y="268.609" x="139.564" xlink:href="#cM"/><use y="268.609" x="142.151" xlink:href="#aZ"/><use y="268.609" x="148.064" xlink:href="#aQ"/><use y="268.609" x="153.78" xlink:href="#aK"/></g><g><use y="268.609" x="157.469" xlink:href="#aY"/><use y="268.609" x="163.176" xlink:href="#aP"/><use y="268.609" x="167.015" xlink:href="#aL"/><use y="268.609" x="169.975" xlink:href="#cN"/><use y="268.609" x="173.618" xlink:href="#cO"/><use y="268.609" x="181.249" xlink:href="#cK"/></g><g><use y="268.609" x="187.189" xlink:href="#aI"/><use y="268.609" x="192.933" xlink:href="#aZ"/><use y="268.609" x="198.846" xlink:href="#aL"/><use y="268.609" x="201.806" xlink:href="#aK"/><use y="268.609" x="205.468" xlink:href="#aY"/><use y="268.609" x="211.174" xlink:href="#aL"/><use y="268.609" x="214.135" xlink:href="#aX"/><use y="268.609" x="217.423" xlink:href="#cM"/><use y="268.609" x="220.01" xlink:href="#aZ"/><use y="268.609" x="225.922" xlink:href="#cM"/><use y="268.609" x="228.51" xlink:href="#aJ"/><use y="268.609" x="233.366" xlink:href="#cK"/></g><g><use y="268.609" x="239.307" xlink:href="#cP"/></g></svg>