<svg xmlns="http://www.w3.org/2000/svg" xmlns:xlink="http://www.w3.org/1999/xlink" version="1.1" width="369.963pt" height="58.685pt" viewBox="0 0 369.963 58.685">
<defs>
<path id="font_93_17" d="M.1659851 .38865663V.39665223C.1659851 .42965699 .14498902 .43066407 .1269989 .43066407H.04798889C.027999878 .43066407 .010986328 .4226532 .010986328 .3996582 .010986328 .37965394 .025985718 .36965943 .04499817 .36965943H.09599304V-.15971375H.04399109C.023986817-.15971375 .010986328-.17271424 .010986328-.18971253 .010986328-.21070862 .025985718-.22070313 .04798889-.22070313H.21199036C.23498535-.22070313 .25099183-.21270752 .25099183-.19070435 .25099183-.17071533 .23699951-.15971375 .21798706-.15971375H.1659851V.04510498C.19999695 .0131073 .23799134-.0048828127 .28399659-.0048828127 .39898683-.0048828127 .48799134 .10102844 .48799134 .21580506 .48799134 .32261659 .4139862 .43652345 .2899933 .43652345 .24499512 .43652345 .19999695 .41851808 .1659851 .3885193V.38865663M.4169922 .2038269C.4099884 .12997437 .35899354 .056106569 .27799989 .056106569 .20999146 .056106569 .16499329 .13496399 .16499329 .19186402 .16499329 .2038269 .1659851 .21580506 .1659851 .2277832 .1659851 .23876953 .16499329 .25074769 .16499329 .26272584 .16499329 .3256073 .22898865 .3755188 .28799439 .3755188 .37298585 .3755188 .41799928 .28567506 .41799928 .21780396 .41799928 .21281433 .41799928 .20883179 .4169922 .2038269Z"/>
<path id="font_93_15" d="M.24798584 .4404297C.1289978 .4294281 .056991579 .32237245 .056991579 .215271V.20526123C.06098938 .09614563 .1459961-.0048828127 .2630005-.0048828127H.2749939C.3939972 .0051116945 .46699525 .11016846 .46699525 .21626282V.22727967C.46299745 .3383789 .3769989 .4404297 .25898744 .4404297H.24798584M.1269989 .21125794C.1269989 .215271 .12599182 .22027588 .12599182 .22427368 .12599182 .29833985 .17999268 .37942506 .2639923 .37942506 .34098817 .37942506 .3889923 .3073578 .39698792 .23628235V.22727967C.39698792 .15220642 .34999085 .056106569 .2619934 .056106569H.2579956C.18299866 .06211853 .1349945 .13117981 .1269989 .21125794Z"/>
<path id="font_93_18" d="M.397995 .6943054C.3849945 .69229128 .36898805 .6792908 .35798646 .67129519 .23999024 .58226016 .17399597 .4472046 .17399597 .30413819V.2871399C.17999268 .14508057 .25498963 .0010223389 .3789978-.073013309 .3880005-.07801819 .39698792-.08300781 .40699769-.08300781 .42399598-.08300781 .43699647-.0690155 .43699647-.054000856 .43699647-.037002565 .41999818-.02999878 .4079895-.019989014 .3019867 .05303955 .24398804 .1790924 .24398804 .30714417 .24398804 .43618775 .30299378 .5632477 .4139862 .6372833 .4249878 .64328 .43699647 .65127566 .43699647 .6662903 .43699647 .6832886 .42399598 .6953125 .4059906 .6953125 .40299989 .6953125 .40098573 .6953125 .397995 .6943054Z"/>
<path id="font_93_16" d="M.24198914 .48301698V.061965944H.147995C.12298584 .061965944 .11099243 .050964357 .11099243 .031967164 .11099243 .0069885256 .1289978 0 .1599884 0 .1749878-.000030517579 .18998719 .0009765625 .20498657 .0009765625H.40899659C.43099977 .0009765625 .44299317 .012969971 .44299317 .031967164 .44299317 .050964357 .42900086 .061965944 .40499879 .061965944H.31199647V.58802798C.31199647 .6090393 .30299378 .6230469 .28199769 .6230469 .2579956 .6230469 .25299073 .6000366 .24398804 .58303835 .22499085 .5470276 .19599915 .5140228 .15499878 .5040283 .1309967 .49702455 .10499573 .5020294 .10499573 .46801759L.10798645 .45602418C.11399841 .44300843 .1269989 .4400177 .13999939 .4400177H.14698792C.18499756 .44502259 .21099854 .46002198 .24198914 .48301698Z"/>
<path id="font_93_5" d="M.28199769 .004119873C.2769928-.025848389 .25498963-.05281067 .22898865-.0677948 .21199036-.07777405 .17999268-.07878113 .17999268-.10574341 .17999268-.12171936 .19400025-.13670349 .20999146-.13769531 .2749939-.13769531 .34599305-.05281067 .34599305 .023101807 .34599305 .07203674 .31799317 .12496948 .2639923 .12597656 .22599793 .12597656 .19999695 .0980072 .19999695 .06404114 .19999695 .031082154 .22200012 .0061187746 .25498963 .0011291504H.2619934C.2689972 .0011291504 .2749939 .0021209717 .28199769 .004119873Z"/>
<path id="font_93_2" d="M.16899109 .375412C.18699646 .37841798 .20698548 .38041688 .22599793 .38041688 .2849884 .38041688 .35398866 .35740663 .35398866 .2783203 .23399353 .2783203 .054992677 .2492981 .054992677 .12817383 .054992677 .035110475 .147995-.0048828127 .22200012-.0048828127 .269989-.0048828127 .31698609 .0041046144 .35499574 .027114869 .35699464 .02810669 .35899354 .03010559 .3619995 .03010559H.3639984C.36898805 .03010559 .3829956 .015106201 .3959961 .010116577 .42399598 .00010681152 .46099855 .00010681152 .48999024 .00010681152 .5139923 .00010681152 .5239868 .015106201 .5239868 .033111574V.036102296C.522995 .053115846 .5089874 .06210327 .49198915 .06210327H.46199037C.44299317 .06210327 .4229889 .06411743 .4229889 .08312988 .4229889 .088134769 .42399598 .09213257 .42399598 .09614563V.2783203C.42399598 .3734131 .35099793 .43441773 .25299073 .4404297H.21699524C.1639862 .4404297 .08099365 .43441773 .08099365 .36741639 .08099365 .3383789 .102996829 .32136537 .12599182 .32136537 .15098572 .32136537 .16999817 .3413849 .16999817 .36540223 .16999817 .3684082 .16999817 .37242127 .16899109 .375412M.35398866 .21826172V.13317871C.35398866 .068115238 .27999879 .056106569 .22999573 .056106569 .18798828 .056106569 .125 .07513428 .125 .12817383 .125 .1852417 .21699524 .20324707 .25698854 .21026612 .2889862 .215271 .32199098 .21826172 .35398866 .21826172Z"/>
<path id="font_93_9" d="M.18299866 .43066407H.102996829C.09599304 .43066407 .08799744 .43165589 .07998657 .43165589 .055999757 .43165589 .042999269 .4186554 .042999269 .39865113 .042999269 .3766632 .06098938 .36965943 .07899475 .36965943H.18299866V.061965944H.09899902C.09199524 .061965944 .084991458 .06297302 .07699585 .06297302 .052993776 .06297302 .041992189 .048965455 .041992189 .031967164 .041992189 .016967774 .050994874 .0029754639 .066986087 .0009765625H.36299134C.3829956 .0009765625 .3939972 .013961792 .3939972 .030975342 .3939972 .050964357 .3809967 .06297302 .35798646 .06297302 .34999085 .06297302 .34298707 .061965944 .33599855 .061965944H.25299073V.36965943H.3849945C.4039917 .36965943 .4169922 .3826599 .4169922 .40065003 .4169922 .426651 .3939972 .43066407 .37799073 .43066407H.25299073V.48687745C.25299073 .53707888 .29599 .5571594 .33699037 .5571594 .35798646 .5571594 .35099793 .5481262 .35699464 .5360718 .36499024 .52201846 .37998963 .5139923 .394989 .5139923 .42099 .5139923 .43699647 .5350647 .43699647 .56015017 .43699647 .6131592 .36898805 .61816409 .34098817 .61816409 .269989 .61816409 .18299866 .5781555 .18299866 .4908905V.43066407Z"/>
<path id="font_93_8" d="M.1269989 .19238281H.4249878C.44599916 .19238281 .46398927 .19737244 .46398927 .22737122 .46398927 .28138734 .44898988 .33840943 .41600038 .37841798 .37998963 .42042542 .32598878 .4404297 .27198792 .4404297 .15899658 .4404297 .054992677 .3504181 .054992677 .21537781V.20637512C.05999756 .08717346 .1659851-.0048828127 .28599549-.0048828127H.29599C.35099793-.0028839112 .4099884 .018112183 .44400025 .06413269 .45199586 .07614136 .46398927 .094177249 .46398927 .11021423 .46398927 .1312561 .44599916 .13827515 .42799378 .13827515 .397995 .13827515 .39698792 .11923218 .3869934 .10220337 .3659973 .07014465 .32798768 .056106569 .29100038 .056106569 .20999146 .056106569 .147995 .11122131 .1269989 .19238281M.12799073 .25238038C.14698792 .31739808 .18998719 .37942506 .27198792 .37942506 .34498597 .37942506 .3880005 .32139588 .3919983 .25238038H.12799073Z"/>
<path id="font_93_3" d="M.3659973 .375412C.3659973 .37242127 .36499024 .36941529 .36499024 .3664093 .36499024 .33738709 .3889923 .32136537 .41099549 .32136537 .43099977 .32136537 .44898988 .33337403 .45399476 .35940553 .45399476 .43641664 .37098695 .4404297 .31199647 .4404297 .22898865 .4404297 .1599884 .41542054 .11099243 .3433838 .085998538 .3063507 .07299805 .26130677 .07299805 .2172699 .07299805 .11216736 .1539917-.0048828127 .29100038-.0048828127 .3600006-.0048828127 .42799378 .021102906 .45899964 .087142948 .46199037 .09414673 .46499635 .103149417 .46499635 .11116028 .46499635 .12918091 .45098878 .1381836 .43299867 .1381836H.4229889C.4019928 .1381836 .39698792 .11717224 .3909912 .104156497 .375 .071121219 .33499146 .056106569 .30099488 .056106569 .21199036 .056106569 .14299011 .13117981 .14299011 .21626282 .14299011 .30334474 .20599365 .37942506 .30299378 .37942506 .32398988 .37942506 .34498597 .37742616 .3659973 .375412Z"/>
<path id="font_93_24" d="M.1519928 .43066407H.06098938C.036987306 .43066407 .024993897 .4186554 .024993897 .3996582 .024993897 .37965394 .040985109 .36965943 .05999756 .36965943H.1519928V.11003113C.15899658 .037109376 .21598816-.0048828127 .2939911-.0048828127 .36799623-.0048828127 .44898988 .041107179 .44898988 .12301636V.1349945C.44898988 .16195679 .43099977 .16595459 .41299439 .16595459 .3909912 .16595459 .3789978 .15396118 .3789978 .1309967V.12400818C.3789978 .07807922 .33399964 .056106569 .2979889 .056106569 .24198914 .056106569 .22200012 .09005737 .22200012 .13600159V.36965943H.3869934C.40499879 .36965943 .4269867 .37265016 .4269867 .3996582 .4269867 .4186554 .4149933 .43066407 .3929901 .43066407H.22200012V.518692C.22200012 .547699 .20599365 .55371096 .18699646 .55371096 .16799927 .55371096 .1519928 .54670718 .1519928 .51768496V.43066407Z"/>
<path id="font_93_6" d="M.35798646 .55130007V.3925171C.32598878 .417511 .28799439 .43652345 .24699402 .43652345 .12399292 .43652345 .035995485 .33358766 .035995485 .21481323 .035995485 .10601807 .11099243 .0041046144 .22099304-.0048828127H.23098755C.2789917-.0048828127 .32299806 .015106201 .35798646 .050109865V.035110475C.35798646 .012969971 .36898805 .0009765625 .3919983 .0009765625H.47599793C.49499513 .0009765625 .5130005 .008972168 .5130005 .030975342 .5130005 .051971437 .49798585 .061965944 .47799684 .061965944H.42799378V.5791321C.42799378 .59921267 .41799928 .61328127 .3929901 .61328127 .3869934 .6132965 .3809967 .6123047 .375 .6123047H.30799867C.2899933 .6123047 .272995 .603302 .272995 .58229067 .272995 .56430056 .2849884 .55130007 .30599977 .55130007H.35798646M.10598755 .20483399C.10598755 .20982361 .10499573 .21382141 .10499573 .21881104 .10499573 .29566957 .16499329 .3755188 .24598694 .3755188H.2519989C.30299378 .37251283 .35099793 .3276062 .35798646 .28068543V.2297821C.35798646 .21881104 .35899354 .20683289 .35899354 .19485474 .35899354 .12298584 .29899598 .056106569 .23498535 .056106569 .15699768 .056106569 .11299133 .13595581 .10598755 .20483399Z"/>
<path id="font_93_27" d="M.084991458-.024765015C.066986087-.027755738 .056991579-.043762208 .056991579-.059753419 .056991579-.08276367 .07398987-.09375 .09899902-.09375H.42599488C.45199586-.09375 .46699525-.07975769 .46699525-.059753419 .46699525-.042755128 .45599366-.025756836 .43699647-.023757935H.10398865C.09799194-.023757935 .09098816-.023757935 .084991458-.024765015Z"/>
<path id="font_93_12" d="M.22698975 .55130007V.061965944H.08799744C.068984989 .061965944 .056991579 .048965455 .056991579 .030975342 .056991579 .008972168 .07398987 .0009765625 .09399414 .0009765625H.44299317C.45899964 .003967285 .46699525 .017974854 .46699525 .031967164 .46699525 .048965455 .45599366 .061965944 .43699647 .061965944H.29699708V.57429507C.29699708 .6082916 .27999879 .6123047 .25898744 .6123047H.09498596C.07899475 .6123047 .056991579 .6092987 .056991579 .58229067 .056991579 .56430056 .068984989 .55130007 .08898926 .55130007H.22698975Z"/>
<path id="font_93_26" d="M.09599304 .36965943V.12501526C.09599304 .09605408 .09700012 .07408142 .11399841 .04510498 .14099121 .0041046144 .19299317-.0048828127 .23899842-.0048828127 .27999879-.0048828127 .32398988 .0061035158 .35798646 .032104494 .35798646 .011962891 .36999513 .0009765625 .3939972 .0009765625H.47698976C.49699403 .0009765625 .5130005 .009963989 .5130005 .031967164 .5130005 .051971437 .49798585 .061965944 .47898866 .061965944H.42799378V.3936615C.42799378 .4156494 .42199708 .43066407 .3889923 .43066407H.31199647C.29499818 .43066407 .272995 .4286499 .272995 .40065003 .272995 .3826599 .28399659 .36965943 .30599977 .36965943H.35798646V.16487122C.35798646 .08605957 .30099488 .056106569 .24198914 .056106569 .20498657 .056106569 .1659851 .06109619 .1659851 .12200928V.3916626C.1659851 .4126587 .16099549 .43066407 .13198853 .43066407H.04798889C.027999878 .43066407 .010986328 .42166139 .010986328 .3996582 .010986328 .3786621 .026992798 .36965943 .04499817 .36965943H.09599304Z"/>
<path id="font_93_13" d="M.10798645 .39863587C.10798645 .42663575 .08799744 .43164063 .067993167 .43164063 .05899048 .43164063 .049987794 .43063355 .042999269 .43063355H.0309906C.0129852299 .43063355-.005004883 .42362977-.005004883 .40063478-.005004883 .38563539 .004989624 .37164308 .020996094 .36964417H.051986696V.061965944C.04598999 .061965944 .039993287 .06297302 .032989503 .06297302 .0129852299 .06297302-.005004883 .053970338-.005004883 .031967164-.005004883 .011962891 .008987427 .0009765625 .02999878 .0009765625H.12799073C.14898682 .0009765625 .16499329 .009963989 .16499329 .031967164 .16499329 .053970338 .14698792 .06297302 .1269989 .06297302 .11999512 .06297302 .11399841 .061965944 .10798645 .061965944V.21879578C.10798645 .2767334 .115997318 .35665895 .17799378 .3726349 .18299866 .3746338 .18899536 .3756256 .19400025 .3756256 .23399353 .3756256 .23399353 .3196869 .23399353 .2887268V.061965944H.21899414C.19799805 .061965944 .18299866 .052963258 .18299866 .031967164 .18299866 .011962891 .19499207 .0009765625 .21798706 .0009765625H.31199647C.33299256 .0009765625 .34700013 .011962891 .34700013 .031967164 .34700013 .053970338 .32899476 .06297302 .30899049 .06297302 .3019867 .06297302 .29599 .061965944 .2899933 .061965944V.21879578C.2899933 .2767334 .2979889 .35665895 .3600006 .3726349 .36499024 .3746338 .37098695 .3756256 .37599183 .3756256 .41600038 .3756256 .41600038 .3196869 .41600038 .2887268V.061965944H.40098573C.37998963 .061965944 .36499024 .052963258 .36499024 .031967164 .36499024 .011962891 .3769989 .0009765625 .3999939 .0009765625H.49398805C.5149994 .0009765625 .5289917 .011962891 .5289917 .031967164 .5289917 .053970338 .5109863 .06297302 .4909973 .06297302 .48399354 .06297302 .47799684 .061965944 .47200013 .061965944V.29371644C.47200013 .35043336 .46199037 .43847657 .3789978 .43847657 .33898927 .43847657 .29499818 .4134674 .2769928 .38346864 .2599945 .41455079 .23498535 .43652345 .19699097 .43652345 .1639862 .43652345 .1309967 .42053224 .10798645 .39855958V.39863587Z"/>
<path id="font_93_14" d="M.1659851 .3846588V.3956604C.1659851 .4156494 .15699768 .43066407 .1309967 .43066407H.04399109C.025985718 .43066407 .010986328 .41966249 .010986328 .3996582 .010986328 .3786621 .026992798 .36965943 .04598999 .36965943H.09599304V.061965944H.04399109C.023986817 .061965944 .010986328 .048965455 .010986328 .031967164 .010986328 .010971069 .025985718 .0009765625 .04798889 .0009765625H.21199036C.23498535 .0009765625 .25099183 .008972168 .25099183 .030975342 .25099183 .050964357 .23699951 .061965944 .21798706 .061965944H.1659851V.22872925C.1659851 .3066101 .21199036 .3755188 .29299928 .3755188 .34498597 .3755188 .35798646 .33657838 .35798646 .29263307V.061965944H.30999757C.2889862 .061965944 .27799989 .046966554 .27799989 .030975342 .27799989 .007965088 .29599 .0009765625 .31599427 .0009765625H.47599793C.49798585 .0009765625 .5130005 .010971069 .5130005 .031967164 .5130005 .048965455 .5 .061965944 .47999574 .061965944H.42799378V.2806549C.42799378 .34855653 .4099884 .43652345 .2979889 .43652345 .25 .43652345 .20098877 .417511 .1659851 .38452149V.3846588Z"/>
<path id="font_93_23" d="M.13899231 .033111574C.17599488 .0051116945 .22099304-.0048828127 .2669983-.0048828127 .35198976-.0048828127 .45899964 .025115967 .45899964 .12617493 .45899964 .25730897 .269989 .25730897 .20298767 .2723236 .1749878 .2793274 .1329956 .29333497 .1329956 .32336427 .1329956 .3684082 .20599365 .37641908 .23699951 .37841798 .24598694 .37841798 .25498963 .37942506 .2649994 .37942506 .29599 .37942506 .34999085 .37242127 .35699464 .3323822 .3639984 .306427 .36299134 .29042054 .3959961 .29042054 .4249878 .29042054 .42900086 .30941773 .42900086 .32841493V.40742494C.42900086 .4274292 .41799928 .4404297 .39898683 .4404297 .3849945 .4404297 .37399293 .431427 .36898805 .41941834 .33499146 .4334259 .30499269 .4404297 .2669983 .4404297 .18499756 .4404297 .07199097 .4184265 .07199097 .3214264 .07199097 .15924073 .397995 .23434448 .397995 .12719727V.12420654C.397995 .06011963 .29499818 .056106569 .272995 .056106569H.2689972C.21699524 .056106569 .16899109 .07713318 .147995 .1322174 .13598633 .15811157 .13598633 .17311096 .10598755 .17311096 .07598877 .17311096 .07199097 .15510559 .07199097 .13711548V.050109865C.07199097 .04411316 .070999149 .037109376 .070999149 .03010559 .070999149 .008102417 .08299255-.0048828127 .101989749-.0048828127 .12599182-.0048828127 .13198853 .015106201 .13899231 .033111574Z"/>
<path id="font_93_4" d="M.25498963 .43066407C.22299195 .42266847 .20098877 .40167237 .20098877 .36869813 .20098877 .33273316 .22698975 .30574037 .269989 .30574037 .3019867 .31373597 .32398988 .33473207 .32398988 .3677063 .32398988 .40367127 .2979889 .43066407 .25498963 .43066407M.25498963 .12588501C.22299195 .117889408 .20098877 .09689331 .20098877 .06391907 .20098877 .027954102 .22698975 .0009765625 .269989 .0009765625 .3019867 .008956909 .32398988 .029953003 .32398988 .062927249 .32398988 .09889221 .2979889 .12588501 .25498963 .12588501Z"/>
<path id="font_94_1" d="M.61099246 .32040406C.61099246 .35339356 .60798647 .35639955 .57598879 .35639955H.08999634C.07299805 .35639955 .054992677 .35639955 .054992677 .33639527 .054992677 .31640626 .07299805 .31640626 .08999634 .31640626H.57099917V.12489319C.57099917 .1068573 .57099917 .08886719 .59098818 .08886719 .61099246 .08886719 .61099246 .1068573 .61099246 .12489319V.32040406Z"/>
<path id="font_95_2" d="M.4850006 .41075135 .40098573 .6096344C.397995 .61763 .3959961 .6216278 .3959961 .6226196 .3959961 .62861636 .41299439 .6476135 .45498658 .6516113 .46499635 .65260317 .47499085 .6536102 .47499085 .6706085 .47499085 .6826172 .46299745 .6826172 .45999146 .6826172 .4189911 .6826172 .37599183 .6796112 .33399964 .6796112 .30899049 .6796112 .24699402 .6826172 .22200012 .6826172 .21598816 .6826172 .20399475 .6826172 .20399475 .6626129 .20399475 .6516113 .21398926 .6516113 .22698975 .6516113 .2869873 .6516113 .29299928 .6416168 .3019867 .6196289L.41999818 .34080506 .20899964 .11393738 .19599915 .10295105C.14698792 .049987794 .099990848 .033996583 .04899597 .0309906 .035995485 .02999878 .026992798 .02999878 .026992798 .010986328 .026992798 .009994507 .026992798 0 .039993287 0 .069992069 0 .102996829 .0029907227 .13398743 .0029907227 .17098999 .0029907227 .20999146 0 .24598694 0 .2519989 0 .2639923 0 .2639923 .019989014 .2639923 .02999878 .2539978 .0309906 .2519989 .0309906 .24299622 .03199768 .21199036 .033996583 .21199036 .061965944 .21199036 .07795715 .22698975 .093948367 .23899842 .10694885L.34098817 .21487427 .43099977 .31282044 .5319977 .07395935C.5359955 .06297302 .5369873 .061965944 .5369873 .05996704 .5369873 .051986696 .5179901 .034988405 .47898866 .0309906 .46798707 .02999878 .45899964 .0289917 .45899964 .011993408 .45899964 0 .46998597 0 .47399903 0 .5019989 0 .57199099 .0029907227 .59999087 .0029907227 .625 .0029907227 .6859894 0 .71099856 0 .71798709 0 .7299957 0 .7299957 .018997193 .7299957 .0309906 .7200012 .0309906 .71199038 .0309906 .644989 .03199768 .6429901 .034988405 .6259918 .07496643 .58699038 .16790772 .519989 .32380677 .49699403 .3837738 .5649872 .45373536 .66999819 .5726471 .70199587 .6006317 .73098757 .62461856 .7689972 .64860537 .82899478 .6516113 .84199526 .65260317 .8509979 .65260317 .8509979 .6716156 .8509979 .6726074 .8509979 .6826172 .83799746 .6826172 .80799868 .6826172 .7749939 .6796112 .74398806 .6796112 .70700076 .6796112 .6689911 .6826172 .6329956 .6826172 .6269989 .6826172 .6139984 .6826172 .6139984 .6626129 .6139984 .65560916 .61898806 .65260317 .6259918 .6516113 .6349945 .65060427 .66600039 .64860537 .66600039 .6206207 .66600039 .6066284 .6549988 .5936432 .6469879 .5846405L.4850006 .41075135Z"/>
<path id="font_96_46" d="M.06199646 .7499695C.057998659 .7479706 .055999757 .7449646 .055999757 .7419739 .055999757 .7299652 .07899475 .7129669 .08999634 .7009735 .19699097 .57696536 .22898865 .40797425 .22898865 .24996948 .22898865 .088974 .19599915-.09402466 .07598877-.21403504 .068984989-.22102356 .055999757-.23103333 .055999757-.23902893 .055999757-.24403382 .06098938-.24902344 .066986087-.24902344H.067993167C.07998657-.24702454 .099990848-.22602844 .11199951-.21403504 .23799134-.088027957 .28799439 .081970218 .28799439 .25196839 .28799439 .43597413 .22799683 .6189728 .08198547 .7429657 .07699585 .7459717 .07199097 .75097659 .06599426 .75097659 .06498718 .75097659 .06399536 .75097659 .06199646 .7499695Z"/>
<path id="font_93_25" d="M.4019928 .061965944H.16499329C.22799683 .112976077 .2939911 .1639862 .35398866 .21899414 .4169922 .27600099 .47200013 .34100343 .47200013 .431015 .47200013 .55503848 .35699464 .6230469 .25099183 .6230469 .16099549 .6230469 .051986696 .56703189 .051986696 .45802308 .051986696 .4300232 .069992069 .40802003 .09700012 .40802003 .12098694 .40802003 .14099121 .4290161 .14099121 .4530182 .14099121 .46801759 .1289978 .47702027 .1289978 .48703004 .1289978 .5020294 .1519928 .5270386 .16799927 .53804019 .19198609 .55503848 .21798706 .56204226 .24499512 .56204226 .31900025 .56204226 .40098573 .5190277 .40098573 .4280243 .40098573 .3270111 .3019867 .2559967 .23199463 .19798279 .19999695 .17198181 .16899109 .14497376 .13699341 .11897278L.08699036 .07696533C.07199097 .06297302 .051986696 .053970338 .051986696 .030975342 .051986696 .0029754639 .07398987 .0009765625 .08999634 .0009765625H.43299867C.45399476 .0009765625 .47200013 .0049743654 .47200013 .036972047V.06997681C.47200013 .0909729 .46598817 .10897827 .43798829 .10897827 .4189911 .10897827 .4019928 .10298157 .4019928 .07496643V.061965944Z"/>
</defs>
<path transform="matrix(1,0,0,-1,2.1479035,53.7027)" d="M0 0V48.723C0 50.924 1.784 52.709 3.985 52.709H361.689C363.89 52.709 365.674 50.924 365.674 48.723V0C365.674-2.201 363.89-3.985 361.689-3.985H3.985C1.784-3.985 0-2.201 0 0Z" fill="#ebeef4"/>
<path transform="matrix(1,0,0,-1,2.1479035,53.7027)" stroke-width="1.993" stroke-linecap="butt" stroke-miterlimit="10" stroke-linejoin="miter" fill="none" stroke="#3b528b" d="M0 0V48.723C0 50.924 1.784 52.709 3.985 52.709H361.689C363.89 52.709 365.674 50.924 365.674 48.723V0C365.674-2.201 363.89-3.985 361.689-3.985H3.985C1.784-3.985 0-2.201 0 0Z"/>
<path transform="matrix(1,0,0,-1,4.982399,29.341004)" stroke-width="9.963" stroke-linecap="butt" stroke-miterlimit="10" stroke-linejoin="miter" fill="none" stroke="#cbcbcb" d="M0 0H19.345"/>
<path transform="matrix(1,0,0,-1,7.8171999,29.341004)" stroke-width="2.989" stroke-linecap="butt" stroke-miterlimit="10" stroke-linejoin="miter" fill="none" stroke="#d8dce8" d="M0 0H8.122"/>
<path transform="matrix(1,0,0,-1,20.68303,29.341002)" d="M0 0-4.339 3.507V0-3.507Z" fill="#d8dce8"/>
<path transform="matrix(1,0,0,-1,20.68303,29.341002)" stroke-width="1.619" stroke-linecap="butt" stroke-linejoin="round" fill="none" stroke="#d8dce8" d="M0 0-4.339 3.507V0-3.507Z"/>
<path transform="matrix(1,0,0,-1,175.0632,29.341004)" stroke-width="9.963" stroke-linecap="butt" stroke-miterlimit="10" stroke-linejoin="miter" fill="none" stroke="#cbcbcb" d="M0 0H19.345"/>
<path transform="matrix(1,0,0,-1,177.8981,29.341004)" stroke-width="2.989" stroke-linecap="butt" stroke-miterlimit="10" stroke-linejoin="miter" fill="none" stroke="#d8dce8" d="M0 0H8.122"/>
<path transform="matrix(1,0,0,-1,190.7639,29.341002)" d="M0 0-4.339 3.507V0-3.507Z" fill="#d8dce8"/>
<path transform="matrix(1,0,0,-1,190.7639,29.341002)" stroke-width="1.619" stroke-linecap="butt" stroke-linejoin="round" fill="none" stroke="#d8dce8" d="M0 0-4.339 3.507V0-3.507Z"/>
<path transform="matrix(1,0,0,-1,345.1441,29.341004)" stroke-width="9.963" stroke-linecap="butt" stroke-miterlimit="10" stroke-linejoin="miter" fill="none" stroke="#cbcbcb" d="M0 0H19.345"/>
<path transform="matrix(1,0,0,-1,347.979,29.341004)" stroke-width="2.989" stroke-linecap="butt" stroke-miterlimit="10" stroke-linejoin="miter" fill="none" stroke="#d8dce8" d="M0 0H8.122"/>
<path transform="matrix(1,0,0,-1,360.84477,29.341002)" d="M0 0-4.339 3.507V0-3.507Z" fill="#d8dce8"/>
<path transform="matrix(1,0,0,-1,360.84477,29.341002)" stroke-width="1.619" stroke-linecap="butt" stroke-linejoin="round" fill="none" stroke="#d8dce8" d="M0 0-4.339 3.507V0-3.507Z"/>
<path transform="matrix(1,0,0,-1,21.9906,48.0334)" d="M0 0V37.385C0 39.586 1.784 41.37 3.985 41.37H151.922C154.123 41.37 155.907 39.586 155.907 37.385V0C155.907-2.201 154.123-3.985 151.922-3.985H3.985C1.784-3.985 0-2.201 0 0Z" fill="#e4f1f1"/>
<path transform="matrix(1,0,0,-1,21.9906,48.0334)" stroke-width=".398" stroke-linecap="butt" stroke-miterlimit="10" stroke-linejoin="miter" fill="none" stroke="#000000" d="M0 0V37.385C0 39.586 1.784 41.37 3.985 41.37H151.922C154.123 41.37 155.907 39.586 155.907 37.385V0C155.907-2.201 154.123-3.985 151.922-3.985H3.985C1.784-3.985 0-2.201 0 0Z"/>
<use data-text="p" xlink:href="#font_93_17" transform="matrix(9.963,0,0,-9.963,24.803,31.832)"/>
<use data-text="o" xlink:href="#font_93_15" transform="matrix(9.963,0,0,-9.963,30.033576,31.832)"/>
<use data-text="(" xlink:href="#font_93_18" transform="matrix(9.963,0,0,-9.963,35.264154,31.832)"/>
<use data-text="o" xlink:href="#font_93_15" transform="matrix(9.963,0,0,-9.963,40.494729,31.832)"/>
<use data-text="p" xlink:href="#font_93_17" transform="matrix(9.963,0,0,-9.963,45.725305,31.832)"/>
<use data-text="1" xlink:href="#font_93_16" transform="matrix(9.963,0,0,-9.963,50.95588,31.832)"/>
<use data-text="," xlink:href="#font_93_5" transform="matrix(9.963,0,0,-9.963,56.186456,31.832)"/>
<use data-text="a" xlink:href="#font_93_2" transform="matrix(9.963,0,0,-9.963,66.636,31.832)"/>
<use data-text="f" xlink:href="#font_93_9" transform="matrix(9.963,0,0,-9.963,71.86658,31.832)"/>
<use data-text="f" xlink:href="#font_93_9" transform="matrix(9.963,0,0,-9.963,77.09715,31.832)"/>
<use data-text="e" xlink:href="#font_93_8" transform="matrix(9.963,0,0,-9.963,82.32773,31.832)"/>
<use data-text="c" xlink:href="#font_93_3" transform="matrix(9.963,0,0,-9.963,87.558307,31.832)"/>
<use data-text="t" xlink:href="#font_93_24" transform="matrix(9.963,0,0,-9.963,92.78888,31.832)"/>
<use data-text="e" xlink:href="#font_93_8" transform="matrix(9.963,0,0,-9.963,98.019458,31.832)"/>
<use data-text="d" xlink:href="#font_93_6" transform="matrix(9.963,0,0,-9.963,103.24003,31.832)"/>
<use data-text="_" xlink:href="#font_93_27" transform="matrix(9.963,0,0,-9.963,108.470607,31.832)"/>
<use data-text="c" xlink:href="#font_93_3" transform="matrix(9.963,0,0,-9.963,113.70118,31.832)"/>
<use data-text="o" xlink:href="#font_93_15" transform="matrix(9.963,0,0,-9.963,118.931758,31.832)"/>
<use data-text="l" xlink:href="#font_93_12" transform="matrix(9.963,0,0,-9.963,124.16233,31.832)"/>
<use data-text="u" xlink:href="#font_93_26" transform="matrix(9.963,0,0,-9.963,129.39292,31.832)"/>
<use data-text="m" xlink:href="#font_93_13" transform="matrix(9.963,0,0,-9.963,134.62349,31.832)"/>
<use data-text="n" xlink:href="#font_93_14" transform="matrix(9.963,0,0,-9.963,139.85407,31.832)"/>
<use data-text="s" xlink:href="#font_93_23" transform="matrix(9.963,0,0,-9.963,145.08464,31.832)"/>
<use data-text=":" xlink:href="#font_93_4" transform="matrix(9.963,0,0,-9.963,150.31522,31.832)"/>
<use data-text="&#x00ac;" xlink:href="#font_94_1" transform="matrix(9.963,0,0,-9.963,155.531,31.832)" fill="#ff0000"/>
<use data-text="X" xlink:href="#font_95_2" transform="matrix(9.963,0,0,-9.963,162.17633,31.832)" fill="#ff0000"/>
<use data-text=")" xlink:href="#font_96_46" transform="matrix(9.963,0,0,-9.963,171.20801,31.832)"/>
<path transform="matrix(1,0,0,-1,192.0715,48.0334)" d="M0 0V37.385C0 39.586 1.784 41.37 3.985 41.37H151.922C154.123 41.37 155.907 39.586 155.907 37.385V0C155.907-2.201 154.123-3.985 151.922-3.985H3.985C1.784-3.985 0-2.201 0 0Z" fill="#e4f1f1"/>
<path transform="matrix(1,0,0,-1,192.0715,48.0334)" stroke-width=".398" stroke-linecap="butt" stroke-miterlimit="10" stroke-linejoin="miter" fill="none" stroke="#000000" d="M0 0V37.385C0 39.586 1.784 41.37 3.985 41.37H151.922C154.123 41.37 155.907 39.586 155.907 37.385V0C155.907-2.201 154.123-3.985 151.922-3.985H3.985C1.784-3.985 0-2.201 0 0Z"/>
<use data-text="p" xlink:href="#font_93_17" transform="matrix(9.963,0,0,-9.963,198.202,31.832)"/>
<use data-text="o" xlink:href="#font_93_15" transform="matrix(9.963,0,0,-9.963,203.43257,31.832)"/>
<use data-text="(" xlink:href="#font_93_18" transform="matrix(9.963,0,0,-9.963,208.66315,31.832)"/>
<use data-text="o" xlink:href="#font_93_15" transform="matrix(9.963,0,0,-9.963,213.89373,31.832)"/>
<use data-text="p" xlink:href="#font_93_17" transform="matrix(9.963,0,0,-9.963,219.1243,31.832)"/>
<use data-text="2" xlink:href="#font_93_25" transform="matrix(9.963,0,0,-9.963,224.35488,31.832)"/>
<use data-text="," xlink:href="#font_93_5" transform="matrix(9.963,0,0,-9.963,229.58545,31.832)"/>
<use data-text="a" xlink:href="#font_93_2" transform="matrix(9.963,0,0,-9.963,240.0466,31.832)"/>
<use data-text="f" xlink:href="#font_93_9" transform="matrix(9.963,0,0,-9.963,245.27718,31.832)"/>
<use data-text="f" xlink:href="#font_93_9" transform="matrix(9.963,0,0,-9.963,250.50775,31.832)"/>
<use data-text="e" xlink:href="#font_93_8" transform="matrix(9.963,0,0,-9.963,255.73833,31.832)"/>
<use data-text="c" xlink:href="#font_93_3" transform="matrix(9.963,0,0,-9.963,260.9689,31.832)"/>
<use data-text="t" xlink:href="#font_93_24" transform="matrix(9.963,0,0,-9.963,266.19947,31.832)"/>
<use data-text="e" xlink:href="#font_93_8" transform="matrix(9.963,0,0,-9.963,271.43006,31.832)"/>
<use data-text="d" xlink:href="#font_93_6" transform="matrix(9.963,0,0,-9.963,276.66065,31.832)"/>
<use data-text="_" xlink:href="#font_93_27" transform="matrix(9.963,0,0,-9.963,281.89125,31.832)"/>
<use data-text="c" xlink:href="#font_93_3" transform="matrix(9.963,0,0,-9.963,287.11189,31.832)"/>
<use data-text="o" xlink:href="#font_93_15" transform="matrix(9.963,0,0,-9.963,292.34248,31.832)"/>
<use data-text="l" xlink:href="#font_93_12" transform="matrix(9.963,0,0,-9.963,297.57307,31.832)"/>
<use data-text="u" xlink:href="#font_93_26" transform="matrix(9.963,0,0,-9.963,302.80366,31.832)"/>
<use data-text="m" xlink:href="#font_93_13" transform="matrix(9.963,0,0,-9.963,308.03425,31.832)"/>
<use data-text="n" xlink:href="#font_93_14" transform="matrix(9.963,0,0,-9.963,313.26484,31.832)"/>
<use data-text="s" xlink:href="#font_93_23" transform="matrix(9.963,0,0,-9.963,318.49543,31.832)"/>
<use data-text=":" xlink:href="#font_93_4" transform="matrix(9.963,0,0,-9.963,323.726,31.832)"/>
<use data-text="X" xlink:href="#font_95_2" transform="matrix(9.963,0,0,-9.963,328.93,31.832)"/>
<use data-text=")" xlink:href="#font_96_46" transform="matrix(9.963,0,0,-9.963,337.966,31.832)"/>
</svg>
