<svg xmlns="http://www.w3.org/2000/svg" xmlns:xlink="http://www.w3.org/1999/xlink" version="1.1" width="571.68pt" height="184.618pt" viewBox="0 0 571.68 184.618">
<defs>
<path id="font_100_5" d="M.04798889 .6816406V.6536255H.07499695C.10598755 .6536255 .13598633 .64964297 .13598633 .6127014 .13598633 .6057129 .1349945 .5977173 .1349945 .59173586V.08999634C.1349945 .083999637 .13598633 .07699585 .13598633 .069992069 .13598633 .032974245 .10499573 .02897644 .07398987 .02897644H.04798889V.0009765625H.31698609V.02897644H.2809906C.23699951 .02897644 .20799256 .029968262 .20799256 .07398987V.328125H.29100038C.34498597 .328125 .39898683 .32411195 .39898683 .22807312V.21105957H.4189911V.4729309H.39898683V.45594789C.39898683 .40504457 .38598634 .36410523 .32998658 .35810853 .31199647 .35612489 .2939911 .35612489 .27598573 .35612489H.20799256V.61968997C.20799256 .64863589 .22200012 .6536255 .24699402 .6536255H.3659973C.4169922 .6536255 .47698976 .65164187 .5139923 .6127014 .5509949 .57276919 .5529938 .51086428 .55999758 .45994569H.5799866L.5549927 .6816406H.04798889Z"/>
<path id="font_100_32" d="M.22399903 .4453125C.102996829 .42829896 .0309906 .3292694 .0309906 .2162323V.20323181C.037994386 .09220886 .11999512-.0078125 .23899842-.0078125H.25C.2749939-.0048217775 .2979889 .00018310547 .32099916 .011184692 .39898683 .048187257 .44400025 .1322174 .44400025 .21723938V.22523499C.43998719 .3352661 .35798646 .4453125 .23599243 .4453125H.22399903M.100997928 .19422913C.100997928 .20223999 .099990848 .21124268 .099990848 .22024536 .099990848 .29226686 .10899353 .37728883 .18699646 .41629029 .20298767 .42329408 .21998596 .42729188 .23699951 .42729188 .34399415 .42729188 .37399293 .31626893 .37399293 .22924805 .37399293 .1532135 .36799623 .04118347 .2649994 .015182495 .2559967 .013183594 .24798584 .012176514 .23899842 .012176514 .1619873 .012176514 .114990238 .080200199 .10499573 .15522766 .102996829 .16822815 .102996829 .18122864 .100997928 .19422913Z"/>
<path id="font_100_29" d="M.037994386 .68429568V.6562805H.050994874C.083999637 .6562805 .10798645 .6522827 .10798645 .6032562V.067993167C.10798645 .031967164 .08198547 .02897644 .053985597 .02897644H.037994386V.0009765625H.23298645V.02897644H.21099854C.18499756 .02897644 .16299439 .031967164 .16299439 .06599426V.6953125L.037994386 .68429568Z"/>
<path id="font_100_22" d="M.2979889 .6843109V.6562958H.31298829C.34599305 .6562958 .36799623 .652298 .36799623 .59329226L.36698915 .37324525C.34399415 .42025758 .2849884 .44026185 .24099732 .44026185 .12298584 .44026185 .035995485 .3312378 .035995485 .21522522 .035995485 .10220337 .11898804-.0078125 .23399353-.0078125 .2899933-.0078125 .32699586 .018188477 .3659973 .063186649V-.0078125L.49299623 .0011749268V.029190064H.47799684C.45098878 .029190064 .4229889 .032180787 .4229889 .077194217V.6953125L.2979889 .6843109M.10598755 .19221497V.20721436C.10598755 .27822877 .115997318 .35723878 .17999268 .4002533 .20098877 .41426087 .22599793 .42225648 .25 .42225648 .2979889 .42225648 .35798646 .3812561 .3659973 .33424378V.11520386C.3659973 .060195924 .2899933 .010177612 .23799134 .010177612 .16099549 .010177612 .11898804 .0861969 .10899353 .1572113 .10798645 .16920471 .10798645 .1802063 .10598755 .19221497Z"/>
<path id="font_100_33" d="M.09098816 .59906008V.5710602C.13398743 .5710602 .1769867 .57806399 .21499634 .59906008V.07197571C.21499634 .033966066 .17799378 .02796936 .14099121 .02796936 .125 .02796936 .10899353 .02897644 .09599304 .02897644V.0009765625H.394989V.02897644C.37998963 .02897644 .3639984 .02796936 .34799195 .02796936 .30999757 .02796936 .27598573 .033966066 .27598573 .07096863V.64907839C.27598573 .654068 .2749939 .66308596 .2659912 .66308596 .2630005 .66308596 .2599945 .66207888 .2579956 .6610718L.24798584 .6510773C.20298767 .61206057 .147995 .59906008 .09098816 .59906008Z"/>
<path id="font_100_43" d="M.07598877 .51805117C.09599304 .57806399 .13699341 .6350708 .21299744 .6350708 .2979889 .6350708 .35198976 .5590668 .35198976 .47705079V.4640503C.33999635 .32902528 .22799683 .23300171 .14698792 .13798523 .11399841 .10298157 .04699707 .036972047 .04699707 .011962891V.0009765625H.40299989L.42799378 .16099549H.4079895C.3999939 .114974979 .4019928 .065963748 .36099244 .065963748 .33299256 .065963748 .30499269 .063964847 .2769928 .063964847H.10598755C.15899658 .11697388 .21199036 .17199707 .2669983 .22399903 .33599855 .28800965 .42799378 .36302186 .42799378 .4680481 .42799378 .5970764 .32998658 .66308596 .22099304 .66308596H.21099854C.12199402 .65408328 .04699707 .57507327 .04699707 .48205567 .04699707 .4570465 .055999757 .43104554 .09199524 .43104554 .116989139 .43104554 .13699341 .4490509 .13699341 .4740448 .13699341 .49705506 .11999512 .5200653 .09199524 .5200653 .08699036 .5200653 .08099365 .5190582 .07598877 .51805117Z"/>
<path id="font_100_42" d="M.09599304 .5691223C.12298584 .61709597 .17999268 .63908389 .23199463 .63908389 .28199769 .63908389 .33198548 .60710147 .33198548 .5231323 .33198548 .46116639 .30299378 .38520814 .24299622 .36721803 .22099304 .36021424 .1579895 .36421205 .1579895 .35021974 .1579895 .34222413 .1659851 .34022523 .17399597 .34022523H.18499756C.19699097 .34022523 .20999146 .3412323 .22200012 .3412323 .31599427 .3412323 .34899903 .25827027 .34999085 .18530274V.17730713C.34999085 .1023407 .32199098 .009384155 .22799683 .009384155 .16099549 .009384155 .10598755 .04537964 .07299805 .10134888 .07798767 .1003418 .08198547 .099349979 .08699036 .099349979 .11299133 .099349979 .1349945 .11933899 .1349945 .14631653 .1349945 .17631531 .11299133 .19430542 .07998657 .19430542 .049987794 .18830872 .039993287 .16531372 .039993287 .14231873 .039993287 .042373659 .14498902-.016601563 .23498535-.016601563 .33999635-.016601563 .43499757 .06536865 .43499757 .17330933 .43499757 .2632599 .36099244 .3412323 .2659912 .35221864 .34199525 .37521363 .40899659 .43917848 .40899659 .5241394 .40899659 .60009768 .33599855 .66308596 .23799134 .66308596 .1639862 .66308596 .06599426 .62309268 .06599426 .5301361 .06599426 .5101471 .07598877 .48416139 .10798645 .48416139 .1329956 .48416139 .15299988 .5011444 .15299988 .5271301 .15299988 .552124 .13398743 .5711212 .10899353 .5711212 .10398865 .5711212 .099990848 .57011416 .09599304 .5691223Z"/>
<path id="font_100_12" d="M.04798889 .68359377V.6555786H.07299805C.10598755 .6555786 .13699341 .6515808 .13699341 .61460879 .13699341 .607605 .13598633 .60061648 .13598633 .59461978V.090927127C.13598633 .08493042 .13699341 .076934818 .13699341 .06994629 .13699341 .032958986 .10598755 .02897644 .07499695 .02897644H.04798889V.0009765625H.29699708V.02897644H.2659912C.23498535 .02897644 .20899964 .032958986 .20899964 .07093811V.31976319H.38398744C.47999574 .32676698 .5799866 .3767395 .59399417 .48968507V.5006714C.59399417 .6246033 .46099855 .6845703 .35798646 .6845703 .33999635 .6845856 .32099916 .68359377 .30299378 .68359377H.04798889M.20698548 .34277345V.6255951C.20698548 .6535797 .22499085 .6555786 .24299622 .6555786H.34799195C.394989 .6555786 .44999696 .6435852 .48098756 .6036072 .5039978 .57463076 .5089874 .5346527 .5089874 .4986725 .5089874 .46369935 .5049896 .4257202 .48199464 .39672853 .44599916 .35176087 .3889923 .34277345 .33499146 .34277345H.20698548Z"/>
<path id="font_100_39" d="M.033996583 .42941285V.40138246H.04899597C.07699585 .40138246 .10398865 .39837647 .10398865 .35131837V.06300354C.10398865 .030975342 .07699585 .02897644 .04798889 .02897644H.033996583V.0009765625H.24598694V.02897644C.23599243 .02897644 .22499085 .02796936 .21499634 .02796936 .18598938 .02796936 .15899658 .032974245 .15899658 .070007327V.15110779C.15899658 .1721344 .1579895 .19314575 .1579895 .21417237 .1579895 .29426576 .1769867 .42140199 .27398683 .42140199 .27999879 .42140199 .2869873 .42140199 .29299928 .4203949V.41940309C.2789917 .4143982 .2689972 .40037538 .2689972 .38536073 .2689972 .36634828 .28399659 .34732057 .30699159 .34732057 .32899476 .34732057 .34298707 .3673401 .34298707 .38435365 .34298707 .4203949 .30799867 .4404297 .2749939 .4404297 .21199036 .4404297 .16899109 .38336183 .1559906 .32829286L.15499878 .4404297 .033996583 .42941285Z"/>
<path id="font_100_23" d="M.100997928 .23524475H.38198854C.3919983 .23524475 .3959961 .23825073 .3959961 .24824524 .3959961 .3422699 .34899903 .4453125 .22898865 .4453125 .10899353 .4453125 .0309906 .3322754 .0309906 .22123719 .0309906 .114212039 .100997928-.0008239746 .22799683-.0078125H.23399353C.3039856-.0078125 .37298585 .03819275 .3929901 .10820007 .3939972 .111206058 .3959961 .11520386 .3959961 .11921692 .3959961 .12321472 .3909912 .1282196 .3869934 .1282196 .37298585 .1282196 .36799623 .096206668 .35899354 .08119202 .33599855 .04118347 .29100038 .012176514 .24398804 .012176514H.23799134C.20999146 .014175415 .18499756 .025177002 .16299439 .043182374 .10598755 .0901947 .100997928 .16722107 .100997928 .23524475M.101989749 .25224305C.101989749 .3282776 .14099121 .42630006 .22499085 .42630006 .31199647 .42630006 .33699037 .32626344 .33699037 .25224305H.101989749Z"/>
<path id="font_100_27" d="M.041992189 .42926026V.40122987H.052993776C.083999637 .40122987 .10798645 .39622499 .10798645 .3511963V.06298828C.10798645 .030975342 .08099365 .02897644 .051986696 .02897644H.037994386V.0009765625H.22599793V.02897644H.20899964C.18598938 .02897644 .16299439 .031967164 .16299439 .06399536V.44026185L.041992189 .42926026M.11399841 .66015627C.08999634 .65615847 .07699585 .6361847 .07699585 .6161957 .07699585 .5962219 .09298706 .5722656 .11999512 .5722656 .14698792 .5722656 .1659851 .5932312 .1659851 .6161957 .1659851 .6381531 .147995 .6611328 .12298584 .6611328 .11999512 .6611481 .116989139 .66015627 .11399841 .66015627Z"/>
<path id="font_100_21" d="M.35598756 .36228944C.35299684 .36328126 .34899903 .36328126 .34599305 .36328126 .32199098 .36328126 .30599977 .34527589 .30599977 .3242798 .30599977 .30126954 .32398988 .28425599 .34399415 .28425599 .3659973 .28425599 .3849945 .30026246 .3849945 .3252716 .3849945 .40429688 .30299378 .4453125 .23498535 .4453125 .11299133 .4453125 .035995485 .3262787 .035995485 .21624756 .035995485 .11021423 .10899353-.0078125 .23699951-.0078125 .3039856-.0078125 .36698915 .031188965 .3889923 .09820557 .3919983 .10420227 .394989 .111206058 .394989 .11820984V.12220764C.3939972 .1262207 .3909912 .1282196 .3869934 .1282196 .37298585 .1282196 .37298585 .111206058 .36999513 .10220337 .34599305 .049194337 .30299378 .012176514 .24598694 .012176514 .13999939 .012176514 .10598755 .1322174 .10598755 .2122345 .10598755 .29426576 .12799073 .42430116 .24299622 .42430116 .28799439 .42430116 .33399964 .4012909 .35598756 .36228944Z"/>
<path id="font_100_41" d="M.13999939 .6152344C.13999939 .55236819 .11898804 .4206543 .017990113 .4206543V.40264894H.102996829V.17695618C.102996829 .16297913 .101989749 .14900208 .101989749 .13500977 .101989749 .056121828 .13798523-.0078125 .22099304-.0078125 .30099488-.0078125 .31599427 .082092288 .31599427 .14399719V.1819458H.29599C.29599 .16697693 .29699708 .1519928 .29699708 .13700867 .29699708 .09307861 .28799439 .012176514 .22799683 .012176514 .16899109 .012176514 .1599884 .082092288 .1599884 .13002014V.40264894H.2999878V.43066407H.1599884V.6152344H.13999939Z"/>
<path id="font_100_31" d="M.037994386 .42941285V.40138246H.052993776C.08099365 .40138246 .10798645 .39837647 .10798645 .35131837V.06300354C.10798645 .031967164 .08198547 .02897644 .056991579 .02897644H.037994386V.0009765625H.23498535V.02897644H.21798706C.18998719 .02897644 .16499329 .031967164 .16499329 .06401062V.2572174C.16499329 .32530213 .19799805 .42240907 .2939911 .42240907 .35198976 .42240907 .37098695 .37135316 .37098695 .3042755V.06600952C.37098695 .031967164 .34498597 .02897644 .31698609 .02897644H.30099488V.0009765625H.49798585V.02897644H.47499085C.45298768 .02897644 .43199159 .031967164 .42799378 .055999757V.29226686C.42799378 .32629396 .4269867 .36134339 .40899659 .3903656 .38598634 .42941285 .33999635 .4404297 .29699708 .4404297 .23599243 .4404297 .1749878 .39337159 .1619873 .3363037L.16099549 .4404297 .10798645 .4354248 .037994386 .42941285Z"/>
<path id="font_100_9" d="M.049987794 .68359377V.6555786H.07798767C.10998535 .6555786 .13899231 .65159609 .13899231 .61361697 .13899231 .60661318 .13798523 .60061648 .13798523 .59461978V.09992981C.13798523 .037963869 .09298706 .02897644 .049987794 .02897644V.0009765625H.24798584V.02897644C.20799256 .02897644 .1599884 .034957887 .1599884 .10092163L.16099549 .6525879C.16299439 .6445923 .1659851 .6365967 .16899109 .6286011L.18299866 .591629C.25299073 .40673829 .31900025 .22085572 .3899994 .036956788L.39898683 .012969971C.40098573 .0069732668 .40499879 .0019683839 .4119873 .0009765625 .42599488 .0009765625 .42999269 .023971558 .43499757 .035964967 .5029907 .22685242 .58099368 .4147339 .6469879 .60661318 .6539917 .62361147 .6619873 .6405945 .66600039 .6585846L.6669922 .06994629C.6669922 .032958986 .6369934 .02897644 .60398867 .02897644H.57899478V.0009765625H.82199099V.02897644H.7969971C.7639923 .02897644 .73298647 .032958986 .73298647 .06994629 .73298647 .076934818 .73399356 .0839386 .73399356 .0899353V.5936279C.73399356 .59962466 .73298647 .60762026 .73298647 .61460879 .73298647 .65159609 .7630005 .6565857 .7919922 .6565857 .8029938 .6565857 .8129883 .6555786 .82199099 .6555786V.68359377H.673996L.6589966 .68058779 .651001 .6665802 .43699647 .0899353H.43499757L.22099304 .6665802 .21299744 .68058779 .19799805 .68359377H.049987794Z"/>
<path id="font_100_19" d="M.09899902 .35827638C.116989139 .399292 .1639862 .42730714 .20899964 .42730714 .2829895 .42730714 .31498719 .35627748 .31498719 .29125978V.25724793C.21099854 .25724793 .07899475 .23223877 .04699707 .12121582 .04499817 .112213138 .04399109 .10321045 .04399109 .09320068V.0861969C.049987794 .018173218 .1309967-.0078125 .18598938-.0078125 .24099732-.0078125 .2979889 .019180298 .31999208 .079193118H.32099916C.32099916 .03718567 .35099793-.0038146973 .394989-.0038146973 .43499757-.0038146973 .46598817 .031188965 .46998597 .07319641V.14620972H.44999696V.095199588C.44999696 .06619263 .44400025 .02218628 .41099549 .02218628 .37799073 .02218628 .37098695 .06518555 .37098695 .0921936 .37098695 .10321045 .37199403 .113204959 .37199403 .12321472V.29325868C.37199403 .3902893 .29599 .4453125 .21398926 .4453125 .1579895 .4453125 .101989749 .41729737 .07798767 .36128236 .07398987 .35028077 .069992069 .3362732 .069992069 .3232727 .069992069 .29826356 .08898926 .28025819 .11099243 .28025819 .13198853 .28025819 .1499939 .29826356 .1499939 .3192749 .1499939 .34127809 .13398743 .35928346 .10899353 .35928346 .10499573 .35928346 .101989749 .35928346 .09899902 .35827638M.31498719 .24024964V.1412201C.31498719 .07620239 .27198792 .012176514 .20199585 .010177612H.19799805C.1539917 .010177612 .10998535 .044189454 .10998535 .09420776 .10998535 .19822693 .22698975 .24024964 .31498719 .24024964Z"/>
<path id="font_100_40" d="M.08099365 .04219055C.10398865 .008178711 .14698792-.0078125 .18598938-.0078125 .2579956-.0078125 .34199525 .021194458 .34199525 .12721253 .34199525 .17422486 .31399537 .21624756 .27398683 .23924256 .21499634 .2732544 .08699036 .2542572 .07199097 .34327699 .07199097 .4072876 .125 .42929078 .18199158 .42929078 .24398804 .42929078 .28599549 .3972931 .2979889 .3212738V.31326295C.2979889 .30426026 .29899598 .29325868 .30899049 .29325868 .31698609 .29325868 .31900025 .30026246 .31900025 .30625917V.43429566C.31900025 .43930055 .31698609 .4453125 .31098939 .4453125 .29899598 .4453125 .2809906 .41729737 .27799989 .41229249 .25099183 .43530274 .21899414 .4453125 .18399048 .4453125 .117996219 .4453125 .03199768 .41929627 .03199768 .32626344 .03199768 .2102356 .17799378 .2122345 .23899842 .19023133 .272995 .17422486 .3019867 .14422608 .3019867 .10520935 .3019867 .032196046 .23899842 .010177612 .18798828 .010177612 .08898926 .010177612 .07199097 .09820557 .051986696 .16923523 .050994874 .17323303 .04598999 .17622376 .041992189 .17622376 .034988405 .17622376 .03199768 .17022705 .03199768 .16423035V.00018310547C.032989503-.0038452149 .034988405-.0068359377 .038986207-.0068359377H.040985109C.04699707-.0068359377 .049987794-.0008392334 .053985597 .0031585694L.08099365 .04219055Z"/>
<path id="font_100_30" d="M.037994386 .42941285V.40138246H.052993776C.08099365 .40138246 .10798645 .39837647 .10798645 .35131837V.06300354C.10798645 .030975342 .07998657 .02897644 .051986696 .02897644H.037994386V.0009765625H.23498535V.02897644H.21798706C.19099427 .02897644 .16499329 .031967164 .16499329 .06401062V.2572174C.16499329 .32029725 .18699646 .38536073 .2519989 .4143982 .2659912 .41940309 .27999879 .42240907 .29499818 .42240907 .35299684 .42240907 .37199403 .37234498 .37199403 .30326844V.06600952C.37199403 .029968262 .34298707 .02897644 .30799867 .02897644H.3019867V.0009765625H.49899293V.02897644H.48199464C.45498658 .02897644 .42900086 .031967164 .42900086 .06401062V.2572174C.42900086 .32029725 .45098878 .38536073 .5159912 .4143982 .5299988 .41940309 .5439911 .42240907 .5589905 .42240907 .61698916 .42240907 .6359863 .37234498 .6359863 .30326844V.06600952C.6359863 .029968262 .6069946 .02897644 .57199099 .02897644H.56599429V.0009765625H.7630005V.02897644H.7449951C.71899417 .02897644 .69299319 .031967164 .69299319 .06600952V.30026246C.69299319 .369339 .66999819 .4404297 .5649872 .4404297 .49699403 .4404297 .45199586 .39637757 .4269867 .3413086 .4119873 .40737916 .37399293 .4404297 .29599 .4404297 .23599243 .4404297 .1749878 .3923645 .1619873 .3363037L.16099549 .4404297 .10798645 .4354248 .037994386 .42941285Z"/>
<path id="font_100_34" d="M.034988405 .4294281V.4013977H.04899597C.07899475 .4013977 .10499573 .39738465 .10499573 .35533143V-.105285648C.10499573-.11228943 .10598755-.11930847 .10598755-.12731934 .10598755-.16236878 .07899475-.1653595 .052993776-.1653595H.034988405V-.19335938H.23199463V-.1653595H.20999146C.18399048-.1653595 .1619873-.16236878 .1619873-.12831116L.16299439 .058929445C.18699646 .014877319 .23999024-.008163452 .2869873-.008163452 .4079895-.008163452 .49198915 .10499573 .49198915 .2181549 .49198915 .32730104 .4139862 .4404297 .29499818 .4404297 .24598694 .4404297 .18499756 .41441346 .16099549 .36935426L.1599884 .4404297 .034988405 .4294281M.42099 .1991272C.4169922 .12802124 .3769989 .0098724369 .27799989 .0098724369 .22399903 .0098724369 .1619873 .063934329 .1619873 .11100769V.27522279C.1619873 .2872467 .16099549 .30026246 .16099549 .31227113 .16099549 .36935426 .22898865 .42042542 .2869873 .42042542 .3899994 .42042542 .42199708 .28424073 .42199708 .2181549 .42199708 .21214295 .42199708 .2051239 .42099 .1991272Z"/>
<path id="font_100_35" d="M.3019867 .74902346C.2899933 .74401858 .272995 .72502139 .26098634 .7130127 .14099121 .5930023 .09599304 .41400147 .09599304 .24998474 .09599304 .06997681 .14898682-.11701965 .29100038-.24003601 .29499818-.24302674 .30099488-.24902344 .30699159-.24902344 .31098939-.24902344 .31498719-.24603272 .31498719-.24302674 .31498719-.23303223 .2869873-.20903015 .2749939-.19403076 .1749878-.07102966 .14399719 .09098816 .14399719 .24598694 .14399719 .4019928 .17199707 .5740051 .2769928 .6980133 .2889862 .7130127 .31498719 .7320099 .31498719 .7430115 .31498719 .74697878 .30999757 .75 .30599977 .75 .30499269 .75001528 .30299378 .74902346 .3019867 .74902346Z"/>
<path id="font_100_36" d="M.057998659 .7489929C.054992677 .746994 .053985597 .7449951 .053985597 .7429962 .053985597 .73498538 .07998657 .71199038 .09098816 .69898989 .19499207 .57598879 .22499085 .40498353 .22499085 .2489624 .22499085 .07795715 .18899536-.090042117 .068984989-.22305298 .06399536-.22904969 .053985597-.23605347 .053985597-.24205017 .053985597-.24604798 .057998659-.24804688 .06199646-.24804688H.06498718C.07598877-.24604798 .09399414-.22605896 .10699463-.21305847 .22698975-.093048099 .272995 .08596802 .272995 .2509613 .272995 .4309845 .21899414 .62197878 .07699585 .74198916 .07299805 .7449951 .067993167 .75 .06199646 .75 .06098938 .75 .05899048 .75 .057998659 .7489929Z"/>
<path id="font_100_17" d="M.015991211 .68359377V.6555786H.026992798C.04499817 .6555786 .06599426 .6545868 .07699585 .64759829 .08898926 .63861086 .09298706 .6226349 .09799194 .60964968 .1559906 .4138794 .22200012 .21711731 .2829895 .021347046L.2869873 .010360718C.29100038-.00062561038 .29299928-.016601563 .30699159-.016601563H.30899049C.31698609-.015609741 .31900025-.009613037 .32099916-.0026245118L.33099366 .02734375C.37399293 .16816712 .41999818 .30999757 .46398927 .45083619 .47200013 .47680665 .47898866 .5027771 .4889984 .5277405 .49899293 .5027771 .5059967 .47680665 .5139923 .45083619 .56199648 .3000183 .6119995 .14920044 .6569977-.0026245118 .6589966-.008621216 .6609955-.01461792 .66799929-.016601563H.67099C.68699648-.016601563 .6899872 .0073547365 .69400027 .019348145 .7489929 .19114685 .80400088 .36393739 .8569946 .5367279 .871994 .5856781 .8819885 .6555786 .96199038 .6555786V.68359377H.7839966V.6555786C.81399539 .6555786 .85598757 .64060977 .85598757 .6046448 .85398867 .5766907 .83799746 .5447235 .8299866 .51776126 .79100039 .39590455 .7509918 .27503968 .71499636 .15318299 .70999148 .13621521 .7029877 .11923218 .69898989 .102249149H.69799807C.69499209 .11723328 .68899539 .1322174 .68499758 .14619446L.6609955 .22111511C.6199951 .35195924 .58099368 .48280335 .5369873 .61364749 .5359955 .61763 .5349884 .6226349 .5349884 .6276245V.63061526C.5399933 .6555786 .5799866 .6555786 .6049957 .6555786V.68359377H.38198854V.6555786H.394989C.43299867 .6555786 .45599366 .6525879 .47099305 .584671 .47399903 .5786743 .47698976 .57069399 .47698976 .56370547V.56069949C.47399903 .5447235 .46798707 .5307312 .46299745 .5157623 .45298768 .47979737 .44099427 .44384767 .42900086 .4078827L.33299256 .102249149C.32699586 .11723328 .32299806 .1322174 .31900025 .14720154L.29499818 .22309876C.2559967 .34396363 .21499634 .4658203 .17999268 .587677 .1749878 .60066226 .16899109 .6156311 .16899109 .6276245V.63061526C.17399597 .6545868 .21499634 .6555786 .23899842 .6555786V.68359377H.015991211Z"/>
<path id="font_100_28" d="M.033996583 .6842804V.6562042H.04699707C.07998657 .6562042 .10398865 .6522064 .10398865 .6030731V.06793213C.10398865 .031967164 .07798767 .02897644 .049987794 .02897644H.033996583V.0009765625H.22698975V.02897644H.20498657C.17999268 .02897644 .15699768 .031967164 .15699768 .064941409V.16685486C.15699768 .1898346 .20098877 .21881104 .22499085 .24079895 .23599243 .22080994 .25099183 .201828 .2639923 .18284607 .2919922 .14286804 .34498597 .077926639 .34498597 .049957277 .34498597 .033966066 .32699586 .02897644 .31399537 .02897644V.0009765625H.4850006V.02897644C.43199159 .029968262 .4169922 .050949098 .3769989 .10890198L.31098939 .20481873C.29699708 .22579956 .28399659 .2467804 .2679901 .2677765 .2669983 .2697754 .2659912 .2707672 .2659912 .2727661V.274765C.2659912 .28175355 .2939911 .30374146 .30799867 .31573487 .35198976 .35569764 .40098573 .40264894 .46398927 .40264894V.43066407H.3019867V.40264894C.31399537 .40264894 .32699586 .39067079 .32699586 .37867738 .32699586 .3487091 .2749939 .31272889 .24699402 .28875733 .21798706 .2617798 .18899536 .23480225 .15899658 .20881653V.6953125L.033996583 .6842804Z"/>
<path id="font_100_13" d="M.04798889 .68359377V.6555786H.07299805C.10598755 .6555786 .13699341 .65159609 .13699341 .61460879 .13699341 .60762026 .13598633 .60061648 .13598633 .59461978V.090927127C.13598633 .08493042 .13699341 .076934818 .13699341 .06994629 .13699341 .032958986 .10598755 .02897644 .07499695 .02897644H.04798889V.0009765625H.29499818V.02897644H.2639923C.23298645 .02897644 .20698548 .032958986 .20698548 .07093811V.333786H.31399537C.3919983 .333786 .46199037 .2928009 .46199037 .19087219 .46199037 .17088318 .45999146 .15089417 .45999146 .13090515 .45999146 .051315309 .49899293-.0066223146 .59999087-.016601563H.60899356C.6649933-.016601563 .69699099 .035324098 .69699099 .08526611 .69699099 .090270999 .69699099 .100250247 .6879883 .100250247 .66799929 .09992981 .6799927 .0009765625 .6119995 .0009765625 .56399539 .0009765625 .5529938 .063949588 .5479889 .11091614 .5339966 .19487 .5399933 .27082826 .45899964 .31878663 .44299317 .3277893 .42399598 .33677674 .4059906 .34077455 .4229889 .34677125 .43998719 .34977723 .45599366 .35577394 .5209961 .38275147 .58099368 .43371583 .58099368 .50668337 .58099368 .62260439 .44099427 .67858889 .34498597 .68359377H.04798889M.20698548 .35177613V.6266022C.20698548 .653595 .22599793 .6555786 .24299622 .6555786H.31900025C.4039917 .6555786 .49598695 .62561038 .49598695 .50068667 .49598695 .4167328 .44198609 .36976625 .36698915 .35577394 .34298707 .35177613 .31900025 .35177613 .29499818 .35177613H.20698548Z"/>
<path id="font_100_44" d="M.037994386 .42858888V.400589H.053985597C.084991458 .400589 .10899353 .3965912 .10899353 .33468629 .10899353 .32070924 .10798645 .30673219 .10798645 .29275514V.1309967C.10798645 .10203552 .10998535 .07307434 .12399292 .04711914 .147995 .0051879885 .19999695-.0087890629 .24598694-.0087890629 .3019867-.0087890629 .35699464 .030151368 .37199403 .08406067L.37298585-.007797241 .49798585 .0011901856V.029144288H.48298646C.45498658 .029144288 .42799378 .03213501 .42799378 .07807922V.4404297L.30099488 .42941285V.400589H.31199647C.34298707 .400589 .37098695 .3985901 .37098695 .35165406V.15196228C.3659973 .08206177 .32598878 .010177612 .24899292 .010177612 .21099854 .010177612 .1749878 .024154664 .16699219 .07608032 .16499329 .094055179 .16499329 .11302185 .16499329 .1309967V.4404297L.037994386 .42858888Z"/>
</defs>
<path transform="matrix(1,0,0,-1,57.6899,92.309)" stroke-width="2.989" stroke-linecap="butt" stroke-miterlimit="10" stroke-linejoin="miter" fill="none" stroke="#a9a9a9" d="M0 0H32.672"/>
<path transform="matrix(1,0,0,-1,95.105358,92.309)" d="M0 0-4.339 3.507V0-3.507Z" fill="#a9a9a9"/>
<path transform="matrix(1,0,0,-1,95.105358,92.309)" stroke-width="1.619" stroke-linecap="butt" stroke-linejoin="round" fill="none" stroke="#a9a9a9" d="M0 0-4.339 3.507V0-3.507Z"/>
<path transform="matrix(1,0,0,-1,142.2323,92.309)" stroke-width="2.989" stroke-linecap="butt" stroke-miterlimit="10" stroke-linejoin="miter" fill="none" stroke="#a9a9a9" d="M0 0C36.017 46.425 80.739 64.673 132.047 57.64"/>
<path transform="matrix(.99069,.13579,.13579,-.99069,278.97856,35.312997)" d="M0 0-4.339 3.507V0-3.507Z" fill="#a9a9a9"/>
<path transform="matrix(.99069,.13579,.13579,-.99069,278.97856,35.312997)" stroke-width="1.619" stroke-linecap="butt" stroke-linejoin="round" fill="none" stroke="#a9a9a9" d="M0 0-4.339 3.507V0-3.507Z"/>
<path transform="matrix(1,0,0,-1,256.6673,3.8885957)" d="M0 0H-48.723C-50.924 0-52.709-1.784-52.709-3.985V-24.362C-52.709-26.563-50.924-28.347-48.723-28.347H0C2.201-28.347 3.985-26.563 3.985-24.362V-3.985C3.985-1.784 2.201 0 0 0Z" fill="#ebebeb" fill-opacity=".5"/>
<use data-text="F" xlink:href="#font_100_5" transform="matrix(14.346,0,0,-14.346,213.623,23.00299)" fill-opacity=".5"/>
<use data-text="o" xlink:href="#font_100_32" transform="matrix(14.346,0,0,-14.346,221.39853,23.00299)" fill-opacity=".5"/>
<use data-text="l" xlink:href="#font_100_29" transform="matrix(14.346,0,0,-14.346,228.22722,23.00299)" fill-opacity=".5"/>
<use data-text="d" xlink:href="#font_100_22" transform="matrix(14.346,0,0,-14.346,232.01456,23.00299)" fill-opacity=".5"/>
<use data-text="1" xlink:href="#font_100_33" transform="matrix(14.346,0,0,-14.346,244.15128,23.00299)" fill-opacity=".5"/>
<path transform="matrix(1,0,0,-1,188.0516,92.309)" stroke-width="2.989" stroke-linecap="butt" stroke-miterlimit="10" stroke-linejoin="miter" fill="none" stroke="#a9a9a9" d="M0 0H86.163"/>
<path transform="matrix(1,0,0,-1,278.95783,92.309)" d="M0 0-4.339 3.507V0-3.507Z" fill="#a9a9a9"/>
<path transform="matrix(1,0,0,-1,278.95783,92.309)" stroke-width="1.619" stroke-linecap="butt" stroke-linejoin="round" fill="none" stroke="#a9a9a9" d="M0 0-4.339 3.507V0-3.507Z"/>
<path transform="matrix(1,0,0,-1,254.3229,60.629198)" d="M0 0H-48.723C-50.924 0-52.709-1.784-52.709-3.985V-24.362C-52.709-26.563-50.924-28.347-48.723-28.347H0C2.201-28.347 3.985-26.563 3.985-24.362V-3.985C3.985-1.784 2.201 0 0 0Z" fill="#ebebeb" fill-opacity=".5"/>
<use data-text="F" xlink:href="#font_100_5" transform="matrix(14.346,0,0,-14.346,211.279,79.743)" fill-opacity=".5"/>
<use data-text="o" xlink:href="#font_100_32" transform="matrix(14.346,0,0,-14.346,219.05454,79.743)" fill-opacity=".5"/>
<use data-text="l" xlink:href="#font_100_29" transform="matrix(14.346,0,0,-14.346,225.88323,79.743)" fill-opacity=".5"/>
<use data-text="d" xlink:href="#font_100_22" transform="matrix(14.346,0,0,-14.346,229.67057,79.743)" fill-opacity=".5"/>
<use data-text="2" xlink:href="#font_100_43" transform="matrix(14.346,0,0,-14.346,241.80728,79.743)" fill-opacity=".5"/>
<path transform="matrix(1,0,0,-1,142.2323,92.309)" stroke-width="2.989" stroke-linecap="butt" stroke-miterlimit="10" stroke-linejoin="miter" fill="none" stroke="#a9a9a9" d="M0 0C36.017-46.425 80.739-64.673 132.047-57.64"/>
<path transform="matrix(.99069,-.13579,-.13579,-.99069,278.97856,149.30498)" d="M0 0-4.339 3.507V0-3.507Z" fill="#a9a9a9"/>
<path transform="matrix(.99069,-.13579,-.13579,-.99069,278.97856,149.30498)" stroke-width="1.619" stroke-linecap="butt" stroke-linejoin="round" fill="none" stroke="#a9a9a9" d="M0 0-4.339 3.507V0-3.507Z"/>
<path transform="matrix(1,0,0,-1,256.6673,152.38269)" d="M0 0H-48.723C-50.924 0-52.709-1.784-52.709-3.985V-24.362C-52.709-26.563-50.924-28.347-48.723-28.347H0C2.201-28.347 3.985-26.563 3.985-24.362V-3.985C3.985-1.784 2.201 0 0 0Z" fill="#ebebeb" fill-opacity=".5"/>
<use data-text="F" xlink:href="#font_100_5" transform="matrix(14.346,0,0,-14.346,213.623,171.495)" fill-opacity=".5"/>
<use data-text="o" xlink:href="#font_100_32" transform="matrix(14.346,0,0,-14.346,221.399,171.495)" fill-opacity=".5"/>
<use data-text="l" xlink:href="#font_100_29" transform="matrix(14.346,0,0,-14.346,228.22769,171.495)" fill-opacity=".5"/>
<use data-text="d" xlink:href="#font_100_22" transform="matrix(14.346,0,0,-14.346,232.01503,171.495)" fill-opacity=".5"/>
<use data-text="3" xlink:href="#font_100_42" transform="matrix(14.346,0,0,-14.346,244.15181,171.495)" fill-opacity=".5"/>
<path transform="matrix(1,0,0,-1,343.4417,35.6154)" stroke-width="2.989" stroke-linecap="butt" stroke-miterlimit="10" stroke-linejoin="miter" fill="none" stroke="#a9a9a9" d="M0 0C67.664 13.496 121.779-4.843 139.326-24.829"/>
<path transform="matrix(.6597,.75145,.75145,-.6597,485.89646,64.00912)" d="M0 0-4.339 3.507V0-3.507Z" fill="#a9a9a9"/>
<path transform="matrix(.6597,.75145,.75145,-.6597,485.89646,64.00912)" stroke-width="1.619" stroke-linecap="butt" stroke-linejoin="round" fill="none" stroke="#a9a9a9" d="M0 0-4.339 3.507V0-3.507Z"/>
<path transform="matrix(1,0,0,-1,431.225,-.0009994507)" d="M0 0H-71.681C-73.881 0-75.666-1.784-75.666-3.985V-24.362C-75.666-26.563-73.881-28.347-71.681-28.347H0C2.201-28.347 3.985-26.563 3.985-24.362V-3.985C3.985-1.784 2.201 0 0 0Z" fill="#ebebeb" fill-opacity=".5"/>
<use data-text="P" xlink:href="#font_100_12" transform="matrix(14.346,0,0,-14.346,358.874,19.112992)" fill-opacity=".5"/>
<use data-text="r" xlink:href="#font_100_39" transform="matrix(14.346,0,0,-14.346,368.1702,19.112992)" fill-opacity=".5"/>
<use data-text="e" xlink:href="#font_100_23" transform="matrix(14.346,0,0,-14.346,373.4782,19.112992)" fill-opacity=".5"/>
<use data-text="d" xlink:href="#font_100_22" transform="matrix(14.346,0,0,-14.346,379.54658,19.112992)" fill-opacity=".5"/>
<use data-text="i" xlink:href="#font_100_27" transform="matrix(14.346,0,0,-14.346,387.1356,19.112992)" fill-opacity=".5"/>
<use data-text="c" xlink:href="#font_100_21" transform="matrix(14.346,0,0,-14.346,390.92295,19.112992)" fill-opacity=".5"/>
<use data-text="t" xlink:href="#font_100_41" transform="matrix(14.346,0,0,-14.346,396.9913,19.112992)" fill-opacity=".5"/>
<use data-text="i" xlink:href="#font_100_27" transform="matrix(14.346,0,0,-14.346,402.29933,19.112992)" fill-opacity=".5"/>
<use data-text="o" xlink:href="#font_100_32" transform="matrix(14.346,0,0,-14.346,406.08668,19.112992)" fill-opacity=".5"/>
<use data-text="n" xlink:href="#font_100_31" transform="matrix(14.346,0,0,-14.346,412.91539,19.112992)" fill-opacity=".5"/>
<use data-text="1" xlink:href="#font_100_33" transform="matrix(14.346,0,0,-14.346,425.05207,19.112992)" fill-opacity=".5"/>
<path transform="matrix(1,0,0,-1,343.4417,92.309)" stroke-width="2.989" stroke-linecap="butt" stroke-miterlimit="10" stroke-linejoin="miter" fill="none" stroke="#a9a9a9" d="M0 0H100.095"/>
<path transform="matrix(1,0,0,-1,448.28034,92.309)" d="M0 0-4.339 3.507V0-3.507Z" fill="#a9a9a9"/>
<path transform="matrix(1,0,0,-1,448.28034,92.309)" stroke-width="1.619" stroke-linecap="butt" stroke-linejoin="round" fill="none" stroke="#a9a9a9" d="M0 0-4.339 3.507V0-3.507Z"/>
<path transform="matrix(1,0,0,-1,432.3551,60.629198)" d="M0 0H-71.681C-73.881 0-75.666-1.784-75.666-3.985V-24.362C-75.666-26.563-73.881-28.347-71.681-28.347H0C2.201-28.347 3.985-26.563 3.985-24.362V-3.985C3.985-1.784 2.201 0 0 0Z" fill="#ebebeb" fill-opacity=".5"/>
<use data-text="P" xlink:href="#font_100_12" transform="matrix(14.346,0,0,-14.346,360.004,79.743)" fill-opacity=".5"/>
<use data-text="r" xlink:href="#font_100_39" transform="matrix(14.346,0,0,-14.346,369.3002,79.743)" fill-opacity=".5"/>
<use data-text="e" xlink:href="#font_100_23" transform="matrix(14.346,0,0,-14.346,374.60823,79.743)" fill-opacity=".5"/>
<use data-text="d" xlink:href="#font_100_22" transform="matrix(14.346,0,0,-14.346,380.67658,79.743)" fill-opacity=".5"/>
<use data-text="i" xlink:href="#font_100_27" transform="matrix(14.346,0,0,-14.346,388.2656,79.743)" fill-opacity=".5"/>
<use data-text="c" xlink:href="#font_100_21" transform="matrix(14.346,0,0,-14.346,392.05296,79.743)" fill-opacity=".5"/>
<use data-text="t" xlink:href="#font_100_41" transform="matrix(14.346,0,0,-14.346,398.1213,79.743)" fill-opacity=".5"/>
<use data-text="i" xlink:href="#font_100_27" transform="matrix(14.346,0,0,-14.346,403.42933,79.743)" fill-opacity=".5"/>
<use data-text="o" xlink:href="#font_100_32" transform="matrix(14.346,0,0,-14.346,407.21669,79.743)" fill-opacity=".5"/>
<use data-text="n" xlink:href="#font_100_31" transform="matrix(14.346,0,0,-14.346,414.04539,79.743)" fill-opacity=".5"/>
<use data-text="2" xlink:href="#font_100_43" transform="matrix(14.346,0,0,-14.346,426.18208,79.743)" fill-opacity=".5"/>
<path transform="matrix(1,0,0,-1,343.4417,149.0026)" stroke-width="2.989" stroke-linecap="butt" stroke-miterlimit="10" stroke-linejoin="miter" fill="none" stroke="#a9a9a9" d="M0 0C67.664-13.496 121.779 4.843 139.326 24.829"/>
<path transform="matrix(.6597,-.75145,-.75145,-.6597,485.89646,120.60887)" d="M0 0-4.339 3.507V0-3.507Z" fill="#a9a9a9"/>
<path transform="matrix(.6597,-.75145,-.75145,-.6597,485.89646,120.60887)" stroke-width="1.619" stroke-linecap="butt" stroke-linejoin="round" fill="none" stroke="#a9a9a9" d="M0 0-4.339 3.507V0-3.507Z"/>
<path transform="matrix(1,0,0,-1,431.225,156.2722)" d="M0 0H-71.681C-73.881 0-75.666-1.784-75.666-3.985V-24.362C-75.666-26.563-73.881-28.347-71.681-28.347H0C2.201-28.347 3.985-26.563 3.985-24.362V-3.985C3.985-1.784 2.201 0 0 0Z" fill="#ebebeb" fill-opacity=".5"/>
<use data-text="P" xlink:href="#font_100_12" transform="matrix(14.346,0,0,-14.346,358.874,175.385)" fill-opacity=".5"/>
<use data-text="r" xlink:href="#font_100_39" transform="matrix(14.346,0,0,-14.346,368.1702,175.385)" fill-opacity=".5"/>
<use data-text="e" xlink:href="#font_100_23" transform="matrix(14.346,0,0,-14.346,373.4782,175.385)" fill-opacity=".5"/>
<use data-text="d" xlink:href="#font_100_22" transform="matrix(14.346,0,0,-14.346,379.54658,175.385)" fill-opacity=".5"/>
<use data-text="i" xlink:href="#font_100_27" transform="matrix(14.346,0,0,-14.346,387.1356,175.385)" fill-opacity=".5"/>
<use data-text="c" xlink:href="#font_100_21" transform="matrix(14.346,0,0,-14.346,390.92295,175.385)" fill-opacity=".5"/>
<use data-text="t" xlink:href="#font_100_41" transform="matrix(14.346,0,0,-14.346,396.9913,175.385)" fill-opacity=".5"/>
<use data-text="i" xlink:href="#font_100_27" transform="matrix(14.346,0,0,-14.346,402.29933,175.385)" fill-opacity=".5"/>
<use data-text="o" xlink:href="#font_100_32" transform="matrix(14.346,0,0,-14.346,406.08668,175.385)" fill-opacity=".5"/>
<use data-text="n" xlink:href="#font_100_31" transform="matrix(14.346,0,0,-14.346,412.91539,175.385)" fill-opacity=".5"/>
<use data-text="3" xlink:href="#font_100_42" transform="matrix(14.346,0,0,-14.346,425.053,175.385)" fill-opacity=".5"/>
<path transform="matrix(1,0,0,-1,53.2067,78.1356)" d="M0 0H-48.723C-50.924 0-52.708-1.784-52.708-3.985V-24.362C-52.708-26.563-50.924-28.347-48.723-28.347H0C2.201-28.347 3.985-26.563 3.985-24.362V-3.985C3.985-1.784 2.201 0 0 0Z" fill="#e4f1f1"/>
<path transform="matrix(1,0,0,-1,53.2067,78.1356)" stroke-width=".996" stroke-linecap="butt" stroke-miterlimit="10" stroke-linejoin="miter" fill="none" stroke="#000000" d="M0 0H-48.723C-50.924 0-52.708-1.784-52.708-3.985V-24.362C-52.708-26.563-50.924-28.347-48.723-28.347H0C2.201-28.347 3.985-26.563 3.985-24.362V-3.985C3.985-1.784 2.201 0 0 0Z"/>
<use data-text="M" xlink:href="#font_100_9" transform="matrix(14.346,0,0,-14.346,13.481,97.24899)"/>
<use data-text="a" xlink:href="#font_100_19" transform="matrix(14.346,0,0,-14.346,26.005059,97.24899)"/>
<use data-text="i" xlink:href="#font_100_27" transform="matrix(14.346,0,0,-14.346,32.833757,97.24899)"/>
<use data-text="n" xlink:href="#font_100_31" transform="matrix(14.346,0,0,-14.346,36.6211,97.24899)"/>
<path transform="matrix(1,0,0,-1,184.5292,89.4911)" d="M0 0-39.479 39.479C-41.035 41.035-43.559 41.035-45.115 39.479L-84.594 0C-86.15-1.556-86.15-4.079-84.594-5.636L-45.115-45.115C-43.559-46.671-41.035-46.671-39.479-45.115L0-5.636C1.556-4.079 1.556-1.556 0 0Z" fill="#e4f1f1"/>
<path transform="matrix(1,0,0,-1,184.5292,89.4911)" stroke-width=".996" stroke-linecap="butt" stroke-miterlimit="10" stroke-linejoin="miter" fill="none" stroke="#000000" d="M0 0-39.479 39.479C-41.035 41.035-43.559 41.035-45.115 39.479L-84.594 0C-86.15-1.556-86.15-4.079-84.594-5.636L-45.115-45.115C-43.559-46.671-41.035-46.671-39.479-45.115L0-5.636C1.556-4.079 1.556-1.556 0 0Z"/>
<use data-text="r" xlink:href="#font_100_39" transform="matrix(14.346,0,0,-14.346,110.711,95.894)"/>
<use data-text="e" xlink:href="#font_100_23" transform="matrix(14.346,0,0,-14.346,116.01902,95.894)"/>
<use data-text="s" xlink:href="#font_100_40" transform="matrix(14.346,0,0,-14.346,122.08738,95.894)"/>
<use data-text="a" xlink:href="#font_100_19" transform="matrix(14.346,0,0,-14.346,127.46713,95.894)"/>
<use data-text="m" xlink:href="#font_100_30" transform="matrix(14.346,0,0,-14.346,134.29582,95.894)"/>
<use data-text="p" xlink:href="#font_100_34" transform="matrix(14.346,0,0,-14.346,145.68656,95.894)"/>
<use data-text="l" xlink:href="#font_100_29" transform="matrix(14.346,0,0,-14.346,153.27559,95.894)"/>
<use data-text="e" xlink:href="#font_100_23" transform="matrix(14.346,0,0,-14.346,157.06293,95.894)"/>
<use data-text="(" xlink:href="#font_100_35" transform="matrix(14.346,0,0,-14.346,163.13129,95.894)"/>
<use data-text=")" xlink:href="#font_100_36" transform="matrix(14.346,0,0,-14.346,168.4393,95.894)"/>
<path transform="matrix(1,0,0,-1,338.9585,21.442002)" d="M0 0H-53.291C-55.491 0-57.276-1.784-57.276-3.985V-24.362C-57.276-26.563-55.491-28.347-53.291-28.347H0C2.201-28.347 3.985-26.563 3.985-24.362V-3.985C3.985-1.784 2.201 0 0 0Z" fill="#e4f1f1"/>
<path transform="matrix(1,0,0,-1,338.9585,21.442002)" stroke-width=".996" stroke-linecap="butt" stroke-miterlimit="10" stroke-linejoin="miter" fill="none" stroke="#000000" d="M0 0H-53.291C-55.491 0-57.276-1.784-57.276-3.985V-24.362C-57.276-26.563-55.491-28.347-53.291-28.347H0C2.201-28.347 3.985-26.563 3.985-24.362V-3.985C3.985-1.784 2.201 0 0 0Z"/>
<use data-text="W" xlink:href="#font_100_17" transform="matrix(14.346,0,0,-14.346,284.999,40.556)"/>
<use data-text="o" xlink:href="#font_100_32" transform="matrix(14.346,0,0,-14.346,297.9104,40.556)"/>
<use data-text="r" xlink:href="#font_100_39" transform="matrix(14.346,0,0,-14.346,304.7391,40.556)"/>
<use data-text="k" xlink:href="#font_100_28" transform="matrix(14.346,0,0,-14.346,310.04713,40.556)"/>
<use data-text="e" xlink:href="#font_100_23" transform="matrix(14.346,0,0,-14.346,316.86149,40.556)"/>
<use data-text="r" xlink:href="#font_100_39" transform="matrix(14.346,0,0,-14.346,322.92985,40.556)"/>
<use data-text="1" xlink:href="#font_100_33" transform="matrix(14.346,0,0,-14.346,332.78553,40.556)"/>
<path transform="matrix(1,0,0,-1,338.9585,78.1356)" d="M0 0H-53.291C-55.491 0-57.276-1.784-57.276-3.985V-24.362C-57.276-26.563-55.491-28.347-53.291-28.347H0C2.201-28.347 3.985-26.563 3.985-24.362V-3.985C3.985-1.784 2.201 0 0 0Z" fill="#e4f1f1"/>
<path transform="matrix(1,0,0,-1,338.9585,78.1356)" stroke-width=".996" stroke-linecap="butt" stroke-miterlimit="10" stroke-linejoin="miter" fill="none" stroke="#000000" d="M0 0H-53.291C-55.491 0-57.276-1.784-57.276-3.985V-24.362C-57.276-26.563-55.491-28.347-53.291-28.347H0C2.201-28.347 3.985-26.563 3.985-24.362V-3.985C3.985-1.784 2.201 0 0 0Z"/>
<use data-text="W" xlink:href="#font_100_17" transform="matrix(14.346,0,0,-14.346,284.999,97.24899)"/>
<use data-text="o" xlink:href="#font_100_32" transform="matrix(14.346,0,0,-14.346,297.9104,97.24899)"/>
<use data-text="r" xlink:href="#font_100_39" transform="matrix(14.346,0,0,-14.346,304.7391,97.24899)"/>
<use data-text="k" xlink:href="#font_100_28" transform="matrix(14.346,0,0,-14.346,310.04713,97.24899)"/>
<use data-text="e" xlink:href="#font_100_23" transform="matrix(14.346,0,0,-14.346,316.86149,97.24899)"/>
<use data-text="r" xlink:href="#font_100_39" transform="matrix(14.346,0,0,-14.346,322.92985,97.24899)"/>
<use data-text="2" xlink:href="#font_100_43" transform="matrix(14.346,0,0,-14.346,332.78553,97.24899)"/>
<path transform="matrix(1,0,0,-1,338.9585,134.8292)" d="M0 0H-53.291C-55.491 0-57.276-1.784-57.276-3.985V-24.362C-57.276-26.563-55.491-28.347-53.291-28.347H0C2.201-28.347 3.985-26.563 3.985-24.362V-3.985C3.985-1.784 2.201 0 0 0Z" fill="#e4f1f1"/>
<path transform="matrix(1,0,0,-1,338.9585,134.8292)" stroke-width=".996" stroke-linecap="butt" stroke-miterlimit="10" stroke-linejoin="miter" fill="none" stroke="#000000" d="M0 0H-53.291C-55.491 0-57.276-1.784-57.276-3.985V-24.362C-57.276-26.563-55.491-28.347-53.291-28.347H0C2.201-28.347 3.985-26.563 3.985-24.362V-3.985C3.985-1.784 2.201 0 0 0Z"/>
<use data-text="W" xlink:href="#font_100_17" transform="matrix(14.346,0,0,-14.346,284.999,153.942)"/>
<use data-text="o" xlink:href="#font_100_32" transform="matrix(14.346,0,0,-14.346,297.911,153.942)"/>
<use data-text="r" xlink:href="#font_100_39" transform="matrix(14.346,0,0,-14.346,304.73973,153.942)"/>
<use data-text="k" xlink:href="#font_100_28" transform="matrix(14.346,0,0,-14.346,310.04774,153.942)"/>
<use data-text="e" xlink:href="#font_100_23" transform="matrix(14.346,0,0,-14.346,316.86213,153.942)"/>
<use data-text="r" xlink:href="#font_100_39" transform="matrix(14.346,0,0,-14.346,322.93049,153.942)"/>
<use data-text="3" xlink:href="#font_100_42" transform="matrix(14.346,0,0,-14.346,332.78614,153.942)"/>
<path transform="matrix(1,0,0,-1,568.3716,89.4911)" d="M0 0-54.813 54.813C-56.369 56.369-58.892 56.369-60.448 54.813L-115.261 0C-116.818-1.556-116.818-4.079-115.261-5.636L-60.448-60.449C-58.892-62.005-56.369-62.005-54.813-60.449L0-5.636C1.556-4.079 1.556-1.556 0 0Z" fill="#e4f1f1"/>
<path transform="matrix(1,0,0,-1,568.3716,89.4911)" stroke-width=".996" stroke-linecap="butt" stroke-miterlimit="10" stroke-linejoin="miter" fill="none" stroke="#000000" d="M0 0-54.813 54.813C-56.369 56.369-58.892 56.369-60.448 54.813L-115.261 0C-116.818-1.556-116.818-4.079-115.261-5.636L-60.448-60.449C-58.892-62.005-56.369-62.005-54.813-60.449L0-5.636C1.556-4.079 1.556-1.556 0 0Z"/>
<use data-text="R" xlink:href="#font_100_13" transform="matrix(14.346,0,0,-14.346,463.054,95.854)"/>
<use data-text="e" xlink:href="#font_100_23" transform="matrix(14.346,0,0,-14.346,473.11054,95.854)"/>
<use data-text="s" xlink:href="#font_100_40" transform="matrix(14.346,0,0,-14.346,479.1789,95.854)"/>
<use data-text="a" xlink:href="#font_100_19" transform="matrix(14.346,0,0,-14.346,484.55867,95.854)"/>
<use data-text="m" xlink:href="#font_100_30" transform="matrix(14.346,0,0,-14.346,491.38737,95.854)"/>
<use data-text="p" xlink:href="#font_100_34" transform="matrix(14.346,0,0,-14.346,502.77809,95.854)"/>
<use data-text="l" xlink:href="#font_100_29" transform="matrix(14.346,0,0,-14.346,510.3671,95.854)"/>
<use data-text="e" xlink:href="#font_100_23" transform="matrix(14.346,0,0,-14.346,514.1544,95.854)"/>
<use data-text="R" xlink:href="#font_100_13" transform="matrix(14.346,0,0,-14.346,520.2228,95.854)"/>
<use data-text="e" xlink:href="#font_100_23" transform="matrix(14.346,0,0,-14.346,530.2793,95.854)"/>
<use data-text="s" xlink:href="#font_100_40" transform="matrix(14.346,0,0,-14.346,536.34768,95.854)"/>
<use data-text="u" xlink:href="#font_100_44" transform="matrix(14.346,0,0,-14.346,541.7274,95.854)"/>
<use data-text="l" xlink:href="#font_100_29" transform="matrix(14.346,0,0,-14.346,549.31649,95.854)"/>
<use data-text="t" xlink:href="#font_100_41" transform="matrix(14.346,0,0,-14.346,553.1038,95.854)"/>
</svg>
