<svg xmlns="http://www.w3.org/2000/svg" xmlns:xlink="http://www.w3.org/1999/xlink" version="1.1" width="290.329pt" height="115.378pt" viewBox="0 0 290.329 115.378">
<defs>
<path id="font_79_2" d="M.20399475 0C.43699647 0 .7659912 .17791748 .7659912 .45072938 .7659912 .53967288 .723999 .59562686 .6749878 .62661746 .58898928 .6826172 .49699403 .6826172 .4019928 .6826172 .31599427 .6826172 .25698854 .6826172 .17298889 .64660647 .039993287 .5876312 .020996094 .50468447 .020996094 .4967041 .020996094 .4907074 .024993897 .4887085 .0309906 .4887085 .04699707 .4887085 .069992069 .50268557 .07798767 .5076904 .09899902 .52168276 .101989749 .52767947 .10798645 .5466614 .12199402 .5866394 .1499939 .62161257 .27598573 .62760928 .2599945 .41874696 .20899964 .22787476 .13899231 .052993776 .101989749 .039993287 .07798767 .016998291 .07798767 .0069885256 .07798767 .0009918213 .07899475 0 .100997928 0H.20399475M.20899964 .054992677C.32299806 .33380128 .34399415 .5076904 .35798646 .62760928 .4249878 .62760928 .68099978 .62760928 .68099978 .40776063 .68099978 .21188355 .5049896 .054992677 .2630005 .054992677H.20899964Z"/>
<path id="font_80_41" d="M.13999939 .6152344C.13999939 .55236819 .11898804 .4206543 .017990113 .4206543V.40264894H.102996829V.17695618C.102996829 .16297913 .101989749 .14900208 .101989749 .13500977 .101989749 .056121828 .13798523-.0078125 .22099304-.0078125 .30099488-.0078125 .31599427 .082092288 .31599427 .14399719V.1819458H.29599C.29599 .16697693 .29699708 .1519928 .29699708 .13700867 .29699708 .09307861 .28799439 .012176514 .22799683 .012176514 .16899109 .012176514 .1599884 .082092288 .1599884 .13002014V.40264894H.2999878V.43066407H.1599884V.6152344H.13999939Z"/>
<path id="font_80_39" d="M.033996583 .42941285V.40138246H.04899597C.07699585 .40138246 .10398865 .39837647 .10398865 .35131837V.06300354C.10398865 .030975342 .07699585 .02897644 .04798889 .02897644H.033996583V.0009765625H.24598694V.02897644C.23599243 .02897644 .22499085 .02796936 .21499634 .02796936 .18598938 .02796936 .15899658 .032974245 .15899658 .070007327V.15110779C.15899658 .1721344 .1579895 .19314575 .1579895 .21417237 .1579895 .29426576 .1769867 .42140199 .27398683 .42140199 .27999879 .42140199 .2869873 .42140199 .29299928 .4203949V.41940309C.2789917 .4143982 .2689972 .40037538 .2689972 .38536073 .2689972 .36634828 .28399659 .34732057 .30699159 .34732057 .32899476 .34732057 .34298707 .3673401 .34298707 .38435365 .34298707 .4203949 .30799867 .4404297 .2749939 .4404297 .21199036 .4404297 .16899109 .38336183 .1559906 .32829286L.15499878 .4404297 .033996583 .42941285Z"/>
<path id="font_80_19" d="M.09899902 .35827638C.116989139 .399292 .1639862 .42730714 .20899964 .42730714 .2829895 .42730714 .31498719 .35627748 .31498719 .29125978V.25724793C.21099854 .25724793 .07899475 .23223877 .04699707 .12121582 .04499817 .112213138 .04399109 .10321045 .04399109 .09320068V.0861969C.049987794 .018173218 .1309967-.0078125 .18598938-.0078125 .24099732-.0078125 .2979889 .019180298 .31999208 .079193118H.32099916C.32099916 .03718567 .35099793-.0038146973 .394989-.0038146973 .43499757-.0038146973 .46598817 .031188965 .46998597 .07319641V.14620972H.44999696V.095199588C.44999696 .06619263 .44400025 .02218628 .41099549 .02218628 .37799073 .02218628 .37098695 .06518555 .37098695 .0921936 .37098695 .10321045 .37199403 .113204959 .37199403 .12321472V.29325868C.37199403 .3902893 .29599 .4453125 .21398926 .4453125 .1579895 .4453125 .101989749 .41729737 .07798767 .36128236 .07398987 .35028077 .069992069 .3362732 .069992069 .3232727 .069992069 .29826356 .08898926 .28025819 .11099243 .28025819 .13198853 .28025819 .1499939 .29826356 .1499939 .3192749 .1499939 .34127809 .13398743 .35928346 .10899353 .35928346 .10499573 .35928346 .101989749 .35928346 .09899902 .35827638M.31498719 .24024964V.1412201C.31498719 .07620239 .27198792 .012176514 .20199585 .010177612H.19799805C.1539917 .010177612 .10998535 .044189454 .10998535 .09420776 .10998535 .19822693 .22698975 .24024964 .31498719 .24024964Z"/>
<path id="font_80_27" d="M.041992189 .42926026V.40122987H.052993776C.083999637 .40122987 .10798645 .39622499 .10798645 .3511963V.06298828C.10798645 .030975342 .08099365 .02897644 .051986696 .02897644H.037994386V.0009765625H.22599793V.02897644H.20899964C.18598938 .02897644 .16299439 .031967164 .16299439 .06399536V.44026185L.041992189 .42926026M.11399841 .66015627C.08999634 .65615847 .07699585 .6361847 .07699585 .6161957 .07699585 .5962219 .09298706 .5722656 .11999512 .5722656 .14698792 .5722656 .1659851 .5932312 .1659851 .6161957 .1659851 .6381531 .147995 .6611328 .12298584 .6611328 .11999512 .6611481 .116989139 .66015627 .11399841 .66015627Z"/>
<path id="font_80_31" d="M.037994386 .42941285V.40138246H.052993776C.08099365 .40138246 .10798645 .39837647 .10798645 .35131837V.06300354C.10798645 .031967164 .08198547 .02897644 .056991579 .02897644H.037994386V.0009765625H.23498535V.02897644H.21798706C.18998719 .02897644 .16499329 .031967164 .16499329 .06401062V.2572174C.16499329 .32530213 .19799805 .42240907 .2939911 .42240907 .35198976 .42240907 .37098695 .37135316 .37098695 .3042755V.06600952C.37098695 .031967164 .34498597 .02897644 .31698609 .02897644H.30099488V.0009765625H.49798585V.02897644H.47499085C.45298768 .02897644 .43199159 .031967164 .42799378 .055999757V.29226686C.42799378 .32629396 .4269867 .36134339 .40899659 .3903656 .38598634 .42941285 .33999635 .4404297 .29699708 .4404297 .23599243 .4404297 .1749878 .39337159 .1619873 .3363037L.16099549 .4404297 .10798645 .4354248 .037994386 .42941285Z"/>
<path id="font_81_25" d="M.16099549 .38365174V.3956604C.16099549 .41766358 .1519928 .43066407 .12799073 .43066407H.04798889C.02999878 .43066407 .01499939 .42166139 .01499939 .4016571 .01499939 .38365174 .026992798 .37265016 .04699707 .37265016H.09599304V-.16270447H.04598999C.027999878-.16270447 .01499939-.17370606 .01499939-.19171143 .01499939-.2137146 .02999878-.22070313 .050994874-.22070313H.20698548C.23098755-.22070313 .24198914-.2097168 .24198914-.19171143 .24198914-.17370606 .22898865-.16270447 .21099854-.16270447H.16099549V.050109865C.19400025 .017105103 .22999573-.0048828127 .27799989-.0048828127 .3929901-.0048828127 .47599793 .10202026 .47599793 .21780396 .47599793 .31962586 .4079895 .43652345 .2869873 .43652345 .23999024 .43652345 .19499207 .41551209 .16099549 .3835144V.38365174M.4099884 .20283509C.40299989 .12896729 .35299684 .053115846 .272995 .053115846 .20399475 .053115846 .1599884 .13096619 .1599884 .18986511 .1599884 .20283509 .16099549 .21481323 .16099549 .22679138 .16099549 .23876953 .1599884 .25074769 .1599884 .26272584 .1599884 .3256073 .22200012 .37850953 .28199769 .37850953 .36099244 .37850953 .41099549 .29267884 .41099549 .22080994 .41099549 .21481323 .41099549 .20883179 .4099884 .20283509Z"/>
<path id="font_81_23" d="M.24299622 .4404297C.12199402 .4274292 .057998659 .31835938 .057998659 .21325684 .057998659 .10215759 .13999939-.0048828127 .25898744-.0048828127H.2689972C.3869934 .0061035158 .45498658 .11216736 .45498658 .21626282 .45498658 .32737733 .37599183 .4404297 .2539978 .4404297H.24299622M.12298584 .21026612C.12298584 .215271 .12199402 .2192688 .12199402 .22427368 .12199402 .29833985 .17399597 .38241578 .2579956 .38241578 .33898927 .38241578 .3909912 .29634095 .3909912 .22227478 .3909912 .14318848 .33699037 .053115846 .2559967 .053115846 .17399597 .053115846 .12998963 .14019776 .12298584 .21026612Z"/>
<path id="font_81_26" d="M.3889923 .6943054C.375 .6913147 .3619995 .67930606 .35099793 .67129519 .23298645 .59025576 .16999817 .44519044 .16999817 .30413819 .16999817 .15306092 .24398804 .012008667 .36999513-.07203674 .3789978-.077041629 .3880005-.08203125 .39898683-.08203125 .4149933-.08203125 .4269867-.07102966 .4269867-.056030275 .4269867-.039016725 .4119873-.03302002 .39898683-.024017334 .2919922 .05001831 .23498535 .17907715 .23498535 .3071289 .23498535 .43319703 .29299928 .56625369 .40499879 .6412811 .41600038 .6482849 .4269867 .6562958 .4269867 .67030337 .4269867 .6843109 .41600038 .6953125 .3999939 .6953125 .3959961 .6953125 .3919983 .6953125 .3889923 .6943054Z"/>
<path id="font_81_29" d="M.33799745 .6201172C.31799317 .6171112 .30299378 .60310366 .30299378 .5811157V.57011416C.30499269 .5101013 .30799867 .44810487 .31199647 .3881073 .31399537 .36412049 .30799867 .328125 .34700013 .328125 .37098695 .3361206 .37399293 .35411073 .37399293 .374115V.394104C.37799073 .44610597 .37799073 .49809266 .38198854 .5500946 .3829956 .5590973 .38398744 .5681 .38398744 .5770874V.5830841C.38198854 .60409548 .3639984 .62109377 .34399415 .62109377 .34199525 .621109 .33999635 .6201172 .33799745 .6201172M.16499329 .6201172C.16099549 .6201172 .1559906 .6191101 .1519928 .6171112L.14299011 .6111145C.1309967 .6021118 .12998963 .5891113 .12998963 .57611086V.56111147C.12998963 .5021057 .13798523 .44309999 .13899231 .3841095 .13999939 .36010743 .13598633 .328125 .17399597 .328125 .20098877 .3341217 .20098877 .36412049 .20098877 .394104 .20199585 .45510865 .20999146 .5151062 .20999146 .57611086V.5851135C.20799256 .60510256 .18998719 .6201172 .16999817 .6201172H.16499329Z"/>
<path id="font_81_30" d="M.21699524 .3506775 .21598816 .39465333C.21598816 .4186554 .20698548 .43066407 .18199158 .43066407H.068984989C.049987794 .43066407 .034988405 .4226532 .034988405 .4016571 .034988405 .37965394 .049987794 .37265016 .07199097 .37265016H.15098572V.05897522H.068984989C.04798889 .05908203 .034988405 .049057008 .034988405 .030029297 .034988405 .014007568 .04699707 0 .066986087 0 .07199097-.000030517579 .07699585 .0009765625 .08198547 .0009765625H.2689972C.28399659 .0009918213 .29899598 0 .31399537 0 .34199525 0 .36099244 .005996704 .36099244 .031036377 .36099244 .048065187 .34799195 .060073854 .32598878 .060073854 .31799317 .05996704 .30999757 .05897522 .30299378 .05897522H.21598816V.17715454C.21598816 .2462616 .23298645 .3063507 .2939911 .3504181 .31999208 .36946107 .35299684 .37947084 .3849945 .37947084 .41099549 .37947084 .397995 .33946229 .43699647 .33946229 .45799256 .33940126 .47698976 .35543824 .47698976 .37947084 .47698976 .42947389 .41600038 .43847657 .3849945 .43847657 .32199098 .43847657 .24899292 .40446473 .21699524 .35142518V.3506775Z"/>
<path id="font_81_40" d="M.22799683 .22280884V.22180176C.21598816 .21081543 .20698548 .1958313 .19699097 .18284607 .17599488 .15586853 .1559906 .12890625 .1349945 .10192871L.11399841 .07495117C.10798645 .06695557 .10499573 .05897522 .08999634 .05897522H.06498718C.04598999 .05897522 .025985718 .05596924 .025985718 .029968262 .025985718 .0129852299 .036987306 0 .05999756 0 .067993167-.000030517579 .07499695 .0009765625 .08198547 .0009765625H.18099976C.19898987 .0009765625 .21398926 .007965088 .21398926 .02897644 .21398926 .047973634 .20199585 .05897522 .17999268 .05897522H.16499329L.25299073 .18583679H.25498963L.34599305 .05897522H.33099366C.30999757 .05897522 .2979889 .047973634 .2979889 .029968262 .2979889 .008972168 .31399537 .0009765625 .33198548 .0009765625H.42999269C.43699647 .0009918213 .44400025 0 .45199586 0 .47499085 0 .48599244 .011978149 .48599244 .030960083 .48599244 .05596924 .46499635 .05897522 .44699098 .05897522H.42099C.40299989 .05897522 .3899994 .08494568 .3769989 .09992981 .35598756 .12690735 .33499146 .15287781 .31399537 .17985535 .30299378 .1938324 .29299928 .20982361 .27999879 .22180176V.22280884C.29100038 .23379517 .2999878 .24778748 .30899049 .25976563 .32798768 .28375245 .34599305 .30671693 .3639984 .33070375L.38398744 .3566742C.3889923 .3646698 .3939972 .37265016 .4059906 .37265016H.4139862C.41999818 .37265016 .42799378 .37165834 .43598939 .37165834 .45399476 .37165834 .47200013 .37565614 .47200013 .4016571 .47200013 .41864015 .46099855 .43164063 .43899537 .43164063 .43199159 .43165589 .42399598 .43066407 .4169922 .43066407H.31799317C.2999878 .43066407 .28399659 .4226532 .28399659 .4016571 .28399659 .3826599 .29699708 .37265016 .31599427 .37265016H.33099366L.25299073 .26776124 .17399597 .37265016H.18699646C.20698548 .37265016 .21998596 .3826599 .21998596 .4016571 .21998596 .4226532 .20399475 .43066407 .18598938 .43066407H.08699036C.07998657 .43063355 .07199097 .43164063 .06498718 .43164063 .042999269 .43164063 .03199768 .41864015 .03199768 .40066529 .03199768 .37568666 .050994874 .37168885 .068984989 .37168885 .07699585 .37165834 .083999637 .37265016 .08999634 .37265016H.09700012C.11399841 .37265016 .12998963 .3466797 .14199829 .33070375 .1599884 .30671693 .1789856 .28375245 .19799805 .25976563 .20698548 .24778748 .21598816 .23379517 .22799683 .22280884Z"/>
<path id="font_81_41" d="M.115997318-.16757202C.117996219-.1605835 .11999512-.15359497 .11999512-.14660645 .11999512-.12362671 .100997928-.10865784 .07998657-.10865784 .057998659-.10865784 .039993287-.12663269 .039993287-.14860535 .039993287-.2015686 .08898926-.2265625 .12298584-.2265625 .22499085-.2265625 .25898744-.10266113 .2869873-.022781373 .32398988 .08306885 .36099244 .19190979 .39698792 .29776L.4149933 .34869386C.41799928 .35768128 .41799928 .37265016 .43299867 .37265016H.45399476C.47299195 .37265016 .48999024 .37565614 .48999024 .4046631 .48999024 .426651 .46998597 .43066407 .45498658 .43066407H.35398866C.34799195 .43063355 .34098817 .43164063 .33499146 .43164063 .31498719 .43164063 .3019867 .4206543 .3019867 .40167237 .3019867 .380661 .31698609 .37265016 .33699037 .37265016H.36698915L.2649994 .066101077 .2519989 .10903931 .1499939 .37265016H.17799378C.19898987 .37265016 .21299744 .380661 .21299744 .4016571 .21299744 .41966249 .20199585 .43066407 .17799378 .43066407H.08099365C.07398987 .43063355 .06599426 .43164063 .05899048 .43164063 .038986207 .43164063 .024993897 .42164613 .024993897 .40068055 .024993897 .37765504 .042999269 .37265016 .05899048 .37265016H.08198547C.09799194 .37265016 .09799194 .3566742 .10499573 .34269715 .14399719 .2358551 .19099427 .1329956 .22898865 .026153565 .23199463 .018157959 .23799134 .009170532 .23799134 .0011901856 .23799134-.0028076173 .23599243-.00680542 .23498535-.010803223L.22898865-.028762818C.21099854-.08369446 .18699646-.16856385 .12399292-.16856385 .12098694-.16856385 .11898804-.16757202 .115997318-.16757202Z"/>
<path id="font_81_8" d="M.2749939 .004272461C.2659912-.033721925 .24499512-.064712528 .20498657-.079711917 .19299317-.0847168 .1769867-.0887146 .1769867-.10670471 .1769867-.1217041 .19099427-.13569641 .20599365-.13769531 .22599793-.13769531 .25099183-.12271118 .2689972-.110702518 .30799867-.080718997 .33399964-.031723024 .33399964 .01826477 .33399964 .06425476 .30699159 .11425781 .2559967 .11425781 .22099304 .11425781 .19999695 .087249759 .19999695 .057266237 .19999695 .026260376 .22499085 .0012664795 .2559967 .0012664795 .2619934 .0012664795 .2689972 .0022735596 .2749939 .004272461Z"/>
<path id="font_81_7" d="M.3639984 .3773651C.36299134 .3743744 .36299134 .3713684 .36299134 .3693695 .36299134 .3443451 .38398744 .33033753 .4039917 .33033753 .42199708 .33033753 .43998719 .3403473 .44400025 .36535646 .44400025 .4394226 .35699464 .4404297 .30599977 .4404297 .23799134 .4404297 .1789856 .42640687 .12799073 .3673706 .09199524 .32432557 .07398987 .27027894 .07398987 .21624756 .07398987 .106155399 .15299988-.0048828127 .2939911-.0048828127 .34799195-.0048828127 .4059906 .019104004 .43699647 .06512451 .44400025 .07713318 .45599366 .09414673 .45599366 .1101532 .45599366 .13017273 .43899537 .13616944 .4229889 .13616944 .3929901 .13616944 .3939972 .11715698 .3829956 .09915161 .36499024 .068115238 .33198548 .053115846 .29599 .053115846 .20698548 .053115846 .14199829 .12817383 .13798523 .20922852V.21824646C.13798523 .28529359 .1789856 .35534669 .24499512 .3763733 .2619934 .38137818 .27999879 .38237 .2979889 .38237 .31999208 .38237 .34199525 .3803711 .3639984 .3773651Z"/>
<path id="font_81_21" d="M.16099549 .380661V.39665223C.16099549 .41966249 .15098572 .43066407 .12799073 .43066407H.04798889C.02999878 .43066407 .01499939 .42166139 .01499939 .4016571 .01499939 .38365174 .026992798 .37265016 .04699707 .37265016H.09599304V.05897522H.04598999C.027999878 .05897522 .01499939 .047973634 .01499939 .029968262 .01499939 .007965088 .02999878 .0009765625 .050994874 .0009765625H.20698548C.23098755 .0009765625 .24198914 .011962891 .24198914 .029968262 .24198914 .047973634 .22898865 .05897522 .21099854 .05897522H.16099549V.23072815C.16099549 .26567079 .1659851 .29763795 .18699646 .32759095 .20899964 .35754396 .24398804 .37850953 .2809906 .37850953 .33599855 .37850953 .35198976 .34057618 .35198976 .29164125V.05897522H.3019867C.28399659 .05897522 .2709961 .047973634 .2709961 .029968262 .2709961 .011962891 .28199769 .0009765625 .30599977 .0009765625H.46199037C.48298646 .0009765625 .49798585 .007965088 .49798585 .029968262 .49798585 .047973634 .4850006 .05897522 .46699525 .05897522H.4169922V.2806549C.4169922 .3475647 .4019928 .43652345 .29100038 .43652345 .24099732 .43652345 .19599915 .41551209 .16099549 .38050843V.380661Z"/>
<path id="font_81_34" d="M.15098572 .43066407H.05999756C.035995485 .43066407 .023986817 .41966249 .023986817 .40065003 .023986817 .380661 .038986207 .37265016 .056991579 .37265016H.15098572V.13798523C.15098572 .080078128 .1659851-.0048828127 .2849884-.0048828127 .35499574-.0048828127 .43998719 .032104494 .43998719 .11701965 .43998719 .12301636 .44099427 .1289978 .44099427 .1349945 .44099427 .15896607 .42399598 .16595459 .40699769 .16595459 .3889923 .16595459 .375 .15795899 .375 .1349945V.12800598C.375 .07408142 .33299256 .053115846 .2919922 .053115846 .272995 .053115846 .2519989 .05810547 .23699951 .0690918 .21798706 .08306885 .21598816 .107040408 .21598816 .13000489V.37265016H.38198854C.3999939 .37265016 .41799928 .3766632 .41799928 .4016571 .41799928 .4146576 .4099884 .4286499 .394989 .43066407H.21598816V.5206909C.21598816 .547699 .20098877 .55371096 .18299866 .55371096 .16499329 .55371096 .15098572 .54670718 .15098572 .5206909V.43066407Z"/>
<path id="font_81_11" d="M.12298584 .19433594H.397995C.4039917 .19433594 .41099549 .19332886 .4189911 .19332886 .44299317 .19332886 .45498658 .20532227 .45498658 .22732544 .45498658 .32939149 .4019928 .4404297 .2649994 .4404297 .14299011 .4404297 .055999757 .3323822 .055999757 .21832276 .055999757 .08917236 .16299439-.0048828127 .2809906-.0048828127 .34199525-.0048828127 .4099884 .021102906 .44198609 .07614136 .44799806 .08616638 .45498658 .10018921 .45498658 .112197879 .45298768 .13023377 .43998719 .13723755 .42099 .13723755 .3919983 .13723755 .3919983 .11520386 .3809967 .09817505 .35798646 .06813049 .32398988 .053115846 .28599549 .053115846 .20799256 .053115846 .13198853 .11520386 .12298584 .19433594M.12399292 .24932862C.13198853 .3193817 .19499207 .38241578 .2659912 .38241578 .2939911 .38241578 .32398988 .37242127 .34498597 .3534088 .375 .32737733 .38398744 .28735353 .3889923 .24932862H.12399292Z"/>
<path id="font_81_13" d="M.05999756 .41012574C.04499817 .40711976 .036987306 .39411927 .036987306 .38111878 .036987306 .36611939 .049987794 .35212709 .070999149 .35212709 .07699585 .35212709 .08198547 .3531189 .08799744 .3531189H.43899537C.45700074 .3531189 .47599793 .36012269 .47599793 .38111878 .47599793 .39512635 .46598817 .40911866 .44999696 .4111328H.068984989C.06599426 .4111328 .06298828 .4111328 .05999756 .41012574M.06098938 .25915528C.04598999 .2561493 .037994386 .2431488 .037994386 .23016358 .037994386 .21516419 .04899597 .20117188 .070999149 .20117188 .07598877 .20114136 .08198547 .20214844 .08699036 .20214844H.44299317C.46299745 .20214844 .47599793 .21414185 .47599793 .23014832 .47599793 .24414063 .46499635 .2581482 .44898988 .2601471H.07998657C.07398987 .2601471 .066986087 .2601471 .06098938 .25914V.25915528Z"/>
<path id="font_82_15" d="M.040985109 .68359377V.6545868H.07398987C.10699463 .6545868 .13699341 .650589 .13699341 .6136017 .13699341 .60661318 .13598633 .60061648 .13598633 .59461978V.07394409C.13598633 .033966066 .10499573 .029968262 .07199097 .029968262H.040985109V.0009765625H.31199647V.029968262H.2809906C.24198914 .029968262 .21699524 .032974245 .21699524 .07293701V.31877137H.4019928C.49699403 .32676698 .61099246 .38974 .61099246 .49768067V.5076752C.6029968 .6295929 .47099305 .6845703 .36698915 .6845703 .34799195 .6845856 .32899476 .68359377 .30999757 .68359377H.040985109M.21499634 .34277345V.6175995C.21499634 .6435852 .22499085 .6545868 .2519989 .6545868H.32699586C.4119873 .6545868 .5179901 .647583 .5179901 .49768067 .5179901 .46369935 .5139923 .42471314 .49198915 .39672853 .45700074 .35075379 .39898683 .34277345 .34599305 .34277345H.21499634Z"/>
<path id="font_82_3" d="M.5799866 .6141052C.5309906 .66807559 .47200013 .7050781 .3959961 .7050781 .20098877 .7050781 .053985597 .5321655 .053985597 .3422699 .053985597 .15338135 .19898987-.01953125 .394989-.01953125H.4099884C.5329895-.0115356449 .6389923 .08441162 .651001 .22033692 .6519928 .2253418 .6519928 .2293396 .6519928 .23432923 .6519928 .24232483 .651001 .2513275 .6409912 .2513275 .625 .2513275 .6299896 .2193451 .6259918 .2023468 .6100006 .09941101 .5209961 .009460449 .40899659 .009460449 .33499146 .009460449 .2619934 .046432496 .21499634 .104400638 .1599884 .17137146 .14698792 .26531983 .14698792 .3482666 .14698792 .41122438 .1559906 .4801941 .18699646 .53715518 .22999573 .618103 .31298829 .67607119 .4079895 .67607119 .5349884 .67607119 .6029968 .5541382 .621994 .45021058 .6230011 .44021607 .62098696 .42121888 .6380005 .42121888 .6489868 .42121888 .6519928 .42622376 .6519928 .43421937V.69306948C.6519928 .69906619 .6489868 .7050781 .6419983 .7050781 .6339874 .7050781 .6289978 .69407656 .625 .6880646L.5970001 .6430969C.59098818 .6331024 .58499148 .62409976 .5799866 .6141052Z"/>
<path id="font_82_1" d="M.0309906 .029968262V.0009765625H.22898865V.029968262C.20199585 .029968262 .1619873 .043945314 .1619873 .07789612 .1619873 .08988953 .16799927 .101867679 .17199707 .114852908 .17799378 .13381958 .18499756 .15280152 .19198609 .17176819 .20098877 .19673157 .20498657 .23368836 .22299195 .23368836H.45498658C.46798707 .23368836 .46899415 .22270203 .47200013 .2137146L.49299623 .15379334C.5009918 .13082886 .5089874 .1068573 .5169983 .08389282 .519989 .0769043 .5239868 .06791687 .5239868 .059921266 .5239868 .030960083 .47599793 .029968262 .44898988 .029968262V.0009765625H.70199587V.029968262H.67900088C.6559906 .029968262 .6329956 .030960083 .6199951 .043945314 .60798647 .056930543 .6029968 .0769043 .59799197 .09388733 .5269928 .2866974 .46199037 .48075868 .394989 .6738281 .3899994 .6918335 .3869934 .71484377 .3659973 .71484377 .35398866 .71484377 .34799195 .70783999 .34599305 .6968384L.33799745 .67481997C.27598573 .48876954 .20899964 .30270387 .14299011 .11685181 .12799073 .07090759 .10798645 .029968262 .0309906 .029968262M.22299195 .2626953 .33898927 .59480288 .45498658 .2626953H.22299195Z"/>
<path id="font_81_27" d="M.10699463 .6943054C.09498596 .6923065 .08699036 .68130496 .08699036 .66929629 .08699036 .6482849 .12098694 .6332855 .13598633 .6202698 .22898865 .5412445 .27799989 .42619325 .27799989 .3071289 .27799989 .19108582 .22898865 .07002258 .13798523-.005004883 .11898804-.022018433 .085998538-.03501892 .085998538-.056030275 .085998538-.07003784 .09799194-.08103943 .11299133-.08203125H.114990238C.1329956-.08203125 .147995-.07003784 .16099549-.059020997 .27799989 .022003174 .34298707 .16706848 .34298707 .3071289V.32514955C.33799745 .4571991 .27398683 .5892639 .1659851 .66830447 .15098572 .67930606 .1349945 .6953125 .114990238 .6953125 .11199951 .6953125 .10998535 .6953125 .10699463 .6943054Z"/>
<path id="font_82_20" d="M.034988405 .68359377V.6545868H.05899048C.08999634 .6545868 .11898804 .65159609 .14099121 .61961367 .19898987 .5376587 .2539978 .452713 .30899049 .36875917L.32099916 .35076905C.32299806 .34777833 .32598878 .34477235 .32598878 .34077455 .32598878 .3317871 .31498719 .3217926 .30999757 .313797 .269989 .25283814 .22898865 .1928711 .18699646 .13391114 .16899109 .10592651 .15098572 .07594299 .12298584 .0569458 .09399414 .036972047 .056991579 .029968262 .021987915 .029968262V.0009765625H.24099732V.029968262C.21699524 .030975342 .18699646 .046951295 .18699646 .07293701V.077941898C.19198609 .09992981 .21499634 .12490845 .22999573 .14689636 .2630005 .19487 .29699708 .24383545 .32899476 .29281617 .33399964 .3007965 .33999635 .3078003 .34399415 .3157959 .36099244 .29380799 .37599183 .26982118 .3909912 .24684143L.5019989 .0819397C.5059967 .07594299 .5130005 .06794739 .5139923 .059951784 .5139923 .038970949 .47799684 .029968262 .45700074 .029968262V.0009765625H.71099856V.029968262H.69599917C.6589966 .029968262 .6269989 .031967164 .6009979 .07194519 .5379944 .16688538 .47499085 .26083375 .41099549 .35476686 .4059906 .36276246 .3929901 .37675477 .3929901 .38475038 .3929901 .39575196 .43099977 .4427185 .44898988 .46870423 .46899415 .49868775 .48999024 .5276642 .5099945 .5576477 .5269928 .5836334 .54299929 .60961917 .56900027 .62760928 .59799197 .64759829 .6349945 .6545868 .66999819 .6545868V.68359377H.45098878V.6545868C.47499085 .653595 .5049896 .63760378 .5049896 .61161807 .5049896 .58662417 .47299195 .5536499 .45599366 .5276642 .43899537 .50268557 .42199708 .47869874 .40499879 .45370484 .394989 .4387207 .38598634 .4227295 .37399293 .40873719 .36698915 .42573548 .34999085 .4467163 .33799745 .46369935 .31498719 .49768067 .29299928 .53067019 .269989 .56463626L.24299622 .60562136C.23899842 .61061099 .23298645 .61761477 .23298645 .6246033V.62561038C.23298645 .6445923 .2689972 .6545868 .2899933 .6545868V.68359377H.034988405Z"/>
<path id="font_82_7" d="M.58399966 .06745911C.59599307 .04246521 .6299896 .002456665 .6429901 .002456665 .6489868 .002456665 .651001 .008468628 .651001 .014465332V.18545532C.651001 .19145203 .6499939 .19845581 .6499939 .2054596 .6499939 .24345398 .67900088 .24345398 .71899417 .24345398V.27246095H.44799806V.24345398C.46398927 .24345398 .48199464 .2444458 .49899293 .2444458 .5369873 .2444458 .56999209 .2384491 .56999209 .19645691V.14245606C.56999209 .10145569 .5609894 .052459718 .5049896 .030456543 .47599793 .015457153 .44400025 .009460449 .41299439 .009460449 .32199098 .009460449 .23298645 .064453128 .18998719 .14445496 .15699768 .2074585 .14698792 .27644349 .14698792 .34638978 .14698792 .44328309 .16899109 .54418948 .24598694 .6141205 .2889862 .65208438 .34700013 .6750641 .4039917 .6750641 .5289917 .6750641 .6009979 .5671692 .6239929 .42829896 .6259918 .42330934 .6309967 .4203186 .6369934 .4203186 .6469879 .4203186 .651001 .42630006 .651001 .43429566V.69306948C.651001 .69906619 .647995 .7050781 .6409912 .7050781 .6329956 .7050781 .6279907 .69407656 .6239929 .6880646L.59599307 .6430969C.58999636 .6331024 .58399966 .624115 .57899478 .6141205 .5289917 .67007449 .46798707 .7050781 .3909912 .7050781 .19699097 .7050781 .053985597 .5282135 .053985597 .34439088 .053985597 .24246216 .09298706 .14146424 .16899109 .07145691 .22999573 .014465332 .31298829-.01953125 .3959961-.01953125 .46899415-.01953125 .54299929 .0034637452 .58399966 .06745911Z"/>
<path id="font_82_2" d="M.042999269 .68359377V.6545868H.07598877C.10899353 .6545868 .13899231 .650589 .13899231 .6136017 .13899231 .6065979 .13798523 .6006012 .13798523 .5946045V.07392883C.13798523 .033966066 .10699463 .029968262 .07398987 .029968262H.042999269V.0009765625H.34498597C.3639984 .0009918213 .38398744 0 .4039917 0 .4909973 0 .60398867 .033966066 .6319885 .14187622 .6359863 .15385437 .6380005 .16784668 .6380005 .18083191 .6380005 .28175355 .5359955 .35668946 .44599916 .35668946 .46099855 .36270143 .47698976 .36470033 .49198915 .37069703 .5549927 .39268495 .61099246 .44665528 .61099246 .51564028 .61099246 .5866089 .5509949 .6435852 .48799134 .667572 .44999696 .68156436 .40899659 .6845703 .36898805 .6845703 .34999085 .6845856 .33099366 .68359377 .31199647 .68359377H.042999269M.21398926 .34570313H.34999085C.3639984 .34570313 .3789978 .34669496 .3929901 .34669496 .48999024 .34669496 .5469971 .2687683 .5469971 .18682862 .5469971 .089920047 .47099305 .02897644 .37199403 .02897644 .35699464 .02897644 .34298707 .029968262 .32899476 .029968262H.2519989C.22499085 .029968262 .21398926 .03996277 .21398926 .06694031V.34570313M.21398926 .36569215V.6185913C.21398926 .6445923 .22499085 .6545868 .25099183 .6545868H.375C.43598939 .6545868 .48298646 .6335907 .5109863 .5726166 .5179901 .55462649 .522995 .53463748 .522995 .5146332 .522995 .41967774 .43899537 .36569215 .34999085 .36569215H.21398926Z"/>
<path id="font_82_39" d="M.22999573 .44628907C.12298584 .4362793 .0289917 .34326173 .0289917 .21624756 .0289917 .10221863 .11299133-.0087890629 .24499512-.0087890629 .36499024-.0087890629 .45899964 .097213748 .45899964 .2142334 .45899964 .32624818 .37599183 .44726563 .24299622 .44726563 .23899842 .44728089 .23399353 .44628907 .22999573 .44628907M.10598755 .1932373C.10499573 .20123291 .10499573 .20924378 .10499573 .21723938 .10499573 .28625489 .11199951 .37727357 .18899536 .41326905 .20599365 .42126466 .22499085 .42526246 .24299622 .42526246 .2809906 .42526246 .31799317 .40826417 .34298707 .37825013 .37799073 .33724977 .38198854 .28123475 .38198854 .22923279 .38198854 .17321778 .3809967 .10922241 .34298707 .062210084 .31799317 .031204224 .2809906 .013198853 .24299622 .013198853 .1599884 .013198853 .116989139 .08821106 .10899353 .16221619 .10699463 .17222595 .10699463 .18322754 .10598755 .19322205V.1932373Z"/>
<path id="font_82_46" d="M.28399659 .4152832C.2559967 .4382782 .22299195 .44628907 .18798828 .44628907 .115997318 .44628907 .032989503 .41827394 .032989503 .32226563V.31326295C.069992069 .14523316 .30699159 .24824524 .30699159 .10122681 .30699159 .039215089 .25099183 .011199951 .19799805 .011199951 .09799194 .011199951 .07299805 .09222412 .055999757 .16122437 .053985597 .16723633 .050994874 .17222595 .04399109 .17222595 .034988405 .17222595 .032989503 .16523743 .032989503 .15823365V.0032043458C.032989503-.0018005371 .034988405-.0087890629 .042999269-.0087890629 .05999756-.0087890629 .07398987 .034210206 .084991458 .034210206H.085998538C.09298706 .032211305 .09799194 .02420044 .10398865 .019210816 .1309967-.00079345706 .16299439-.0087890629 .19699097-.0087890629 .2709961-.0087890629 .35299684 .028213501 .35299684 .1282196 .35299684 .1872406 .30599977 .24024964 .25099183 .25724793 .19699097 .27424623 .07798767 .2702484 .07798767 .35125733 .07798767 .40827943 .13798523 .4282837 .18499756 .4282837 .24299622 .4282837 .30599977 .39727784 .30599977 .31225587 .30599977 .30325318 .30699159 .2962494 .31799317 .2962494 .32598878 .2962494 .32798768 .30226136 .32798768 .30924989V.4342804C.32798768 .43928529 .32499696 .44628907 .31900025 .44628907 .30599977 .44628907 .2899933 .42227174 .28399659 .4152832Z"/>
<path id="font_82_50" d="M.1459961 .6152344C.1459961 .55044558 .11999512 .421875 .017990113 .421875V.40187074H.102996829V.17605591C.102996829 .16207886 .101989749 .14808655 .101989749 .13409424 .101989749 .044174196 .147995-.0087890629 .23098755-.0087890629 .30799867-.0087890629 .32598878 .07714844 .32598878 .13909912V.18205261H.3039856C.3039856 .16706848 .30499269 .15208435 .30499269 .13710022 .30499269 .09413147 .29699708 .013198853 .23599243 .013198853 .1789856 .013198853 .16799927 .08213806 .16799927 .13110352V.40187074H.30899049V.43066407H.16799927V.6152344H.1459961Z"/>
</defs>
<path transform="matrix(1,0,0,-1,.19980049,67.8763)" d="M0 0V20.377C0 22.578 1.784 24.362 3.985 24.362H52.709C54.909 24.362 56.694 22.578 56.694 20.377V0C56.694-2.201 54.909-3.985 52.709-3.985H3.985C1.784-3.985 0-2.201 0 0Z" fill="#cbebe1"/>
<path transform="matrix(1,0,0,-1,.19980049,67.8763)" stroke-width=".398" stroke-linecap="butt" stroke-miterlimit="10" stroke-linejoin="miter" fill="none" stroke="#000000" d="M0 0V20.377C0 22.578 1.784 24.362 3.985 24.362H52.709C54.909 24.362 56.694 22.578 56.694 20.377V0C56.694-2.201 54.909-3.985 52.709-3.985H3.985C1.784-3.985 0-2.201 0 0Z"/>
<use data-text="D" xlink:href="#font_79_2" transform="matrix(20.663,0,0,-20.663,5.915,63.198999)"/>
<use data-text="t" xlink:href="#font_80_41" transform="matrix(14.346,0,0,-14.346,21.854,66.298)"/>
<use data-text="r" xlink:href="#font_80_39" transform="matrix(14.346,0,0,-14.346,27.16202,66.298)"/>
<use data-text="a" xlink:href="#font_80_19" transform="matrix(14.346,0,0,-14.346,32.47004,66.298)"/>
<use data-text="i" xlink:href="#font_80_27" transform="matrix(14.346,0,0,-14.346,39.298738,66.298)"/>
<use data-text="n" xlink:href="#font_80_31" transform="matrix(14.346,0,0,-14.346,43.086084,66.298)"/>
<path transform="matrix(1,0,0,-1,93.7444,110.39649)" d="M0 0V105.417C0 107.618 1.784 109.402 3.985 109.402H191.608C193.809 109.402 195.593 107.618 195.593 105.417V0C195.593-2.201 193.809-3.985 191.608-3.985H3.985C1.784-3.985 0-2.201 0 0Z" fill="#ebeef4"/>
<path transform="matrix(1,0,0,-1,93.7444,110.39649)" stroke-width="1.993" stroke-linecap="butt" stroke-miterlimit="10" stroke-linejoin="miter" fill="none" stroke="#3b528b" d="M0 0V105.417C0 107.618 1.784 109.402 3.985 109.402H191.608C193.809 109.402 195.593 107.618 195.593 105.417V0C195.593-2.201 193.809-3.985 191.608-3.985H3.985C1.784-3.985 0-2.201 0 0Z"/>
<path transform="matrix(1,0,0,-1,56.8934,57.687997)" stroke-width="4.981" stroke-linecap="butt" stroke-miterlimit="10" stroke-linejoin="miter" fill="none" stroke="#a9a9a9" d="M0 0H33.96"/>
<path transform="matrix(1,0,0,-1,97.73245,57.688)" d="M0 0-6.287 4.884V0-4.884Z" fill="#a9a9a9"/>
<path transform="matrix(1,0,0,-1,97.73245,57.688)" stroke-width="2.366" stroke-linecap="butt" stroke-linejoin="round" fill="none" stroke="#a9a9a9" d="M0 0-6.287 4.884V0-4.884Z"/>
<path transform="matrix(1,0,0,-1,181.6192,57.687997)" stroke-width="9.963" stroke-linecap="butt" stroke-miterlimit="10" stroke-linejoin="miter" fill="none" stroke="#cbcbcb" d="M0 0H19.345"/>
<path transform="matrix(1,0,0,-1,184.4541,57.687997)" stroke-width="2.989" stroke-linecap="butt" stroke-miterlimit="10" stroke-linejoin="miter" fill="none" stroke="#d8dce8" d="M0 0H8.122"/>
<path transform="matrix(1,0,0,-1,197.31987,57.688)" d="M0 0-4.339 3.507V0-3.507Z" fill="#d8dce8"/>
<path transform="matrix(1,0,0,-1,197.31987,57.688)" stroke-width="1.619" stroke-linecap="butt" stroke-linejoin="round" fill="none" stroke="#d8dce8" d="M0 0-4.339 3.507V0-3.507Z"/>
<path transform="matrix(1,0,0,-1,99.413608,104.72719)" d="M0 0V94.078C0 96.279 1.784 98.064 3.985 98.064H81.055C83.256 98.064 85.04 96.279 85.04 94.078V0C85.04-2.201 83.256-3.985 81.055-3.985H3.985C1.784-3.985 0-2.201 0 0Z" fill="#e4f1f1"/>
<path transform="matrix(1,0,0,-1,99.413608,104.72719)" stroke-width=".398" stroke-linecap="butt" stroke-miterlimit="10" stroke-linejoin="miter" fill="none" stroke="#000000" d="M0 0V94.078C0 96.279 1.784 98.064 3.985 98.064H81.055C83.256 98.064 85.04 96.279 85.04 94.078V0C85.04-2.201 83.256-3.985 81.055-3.985H3.985C1.784-3.985 0-2.201 0 0Z"/>
<path transform="matrix(1,0,0,-1,113.58699,99.05799)" d="M0 0V37.385C0 39.586 1.784 41.37 3.985 41.37H52.709C54.909 41.37 56.694 39.586 56.694 37.385V0C56.694-2.201 54.909-3.985 52.709-3.985H3.985C1.784-3.985 0-2.201 0 0Z" fill="#ebebeb"/>
<path transform="matrix(1,0,0,-1,113.58699,99.05799)" stroke-width=".398" stroke-linecap="butt" stroke-miterlimit="10" stroke-linejoin="miter" fill="none" stroke="#000000" d="M0 0V37.385C0 39.586 1.784 41.37 3.985 41.37H52.709C54.909 41.37 56.694 39.586 56.694 37.385V0C56.694-2.201 54.909-3.985 52.709-3.985H3.985C1.784-3.985 0-2.201 0 0Z"/>
<use data-text="p" xlink:href="#font_81_25" transform="matrix(11.955,0,0,-11.955,108.104,26.518998)"/>
<use data-text="o" xlink:href="#font_81_23" transform="matrix(11.955,0,0,-11.955,114.26082,26.518998)"/>
<use data-text="(" xlink:href="#font_81_26" transform="matrix(11.955,0,0,-11.955,120.41764,26.518998)"/>
<use data-text="&quot;" xlink:href="#font_81_29" transform="matrix(11.955,0,0,-11.955,126.57446,26.518998)"/>
<use data-text="p" xlink:href="#font_81_25" transform="matrix(11.955,0,0,-11.955,132.7313,26.518998)"/>
<use data-text="r" xlink:href="#font_81_30" transform="matrix(11.955,0,0,-11.955,138.88813,26.518998)"/>
<use data-text="o" xlink:href="#font_81_23" transform="matrix(11.955,0,0,-11.955,145.04496,26.518998)"/>
<use data-text="x" xlink:href="#font_81_40" transform="matrix(11.955,0,0,-11.955,151.20178,26.518998)"/>
<use data-text="y" xlink:href="#font_81_41" transform="matrix(11.955,0,0,-11.955,157.35861,26.518998)"/>
<use data-text="&quot;" xlink:href="#font_81_29" transform="matrix(11.955,0,0,-11.955,163.51544,26.518998)"/>
<use data-text="," xlink:href="#font_81_8" transform="matrix(11.955,0,0,-11.955,169.67227,26.518998)"/>
<use data-text="c" xlink:href="#font_81_7" transform="matrix(11.955,0,0,-11.955,114.255,40.465997)"/>
<use data-text="o" xlink:href="#font_81_23" transform="matrix(11.955,0,0,-11.955,120.41182,40.465997)"/>
<use data-text="n" xlink:href="#font_81_21" transform="matrix(11.955,0,0,-11.955,126.56864,40.465997)"/>
<use data-text="t" xlink:href="#font_81_34" transform="matrix(11.955,0,0,-11.955,132.72547,40.465997)"/>
<use data-text="e" xlink:href="#font_81_11" transform="matrix(11.955,0,0,-11.955,138.8823,40.465997)"/>
<use data-text="n" xlink:href="#font_81_21" transform="matrix(11.955,0,0,-11.955,145.03913,40.465997)"/>
<use data-text="t" xlink:href="#font_81_34" transform="matrix(11.955,0,0,-11.955,151.19596,40.465997)"/>
<use data-text="=" xlink:href="#font_81_13" transform="matrix(11.955,0,0,-11.955,163.463,40.465997)"/>
<use data-text="P" xlink:href="#font_82_15" transform="matrix(11.955,0,0,-11.955,129.337,84.482997)"/>
<use data-text="C" xlink:href="#font_82_3" transform="matrix(11.955,0,0,-11.955,137.29904,84.482997)"/>
<use data-text="A" xlink:href="#font_82_1" transform="matrix(11.955,0,0,-11.955,145.75122,84.482997)"/>
<use data-text=")" xlink:href="#font_81_27" transform="matrix(11.955,0,0,-11.955,172.87201,84.01799)"/>
<path transform="matrix(1,0,0,-1,198.6275,104.72719)" d="M0 0V94.078C0 96.279 1.784 98.064 3.985 98.064H81.055C83.256 98.064 85.04 96.279 85.04 94.078V0C85.04-2.201 83.256-3.985 81.055-3.985H3.985C1.784-3.985 0-2.201 0 0Z" fill="#e4f1f1"/>
<path transform="matrix(1,0,0,-1,198.6275,104.72719)" stroke-width=".398" stroke-linecap="butt" stroke-miterlimit="10" stroke-linejoin="miter" fill="none" stroke="#000000" d="M0 0V94.078C0 96.279 1.784 98.064 3.985 98.064H81.055C83.256 98.064 85.04 96.279 85.04 94.078V0C85.04-2.201 83.256-3.985 81.055-3.985H3.985C1.784-3.985 0-2.201 0 0Z"/>
<path transform="matrix(1,0,0,-1,212.8009,99.05799)" d="M0 0V37.385C0 39.586 1.784 41.37 3.985 41.37H52.709C54.909 41.37 56.694 39.586 56.694 37.385V0C56.694-2.201 54.909-3.985 52.709-3.985H3.985C1.784-3.985 0-2.201 0 0Z" fill="#ebebeb"/>
<path transform="matrix(1,0,0,-1,212.8009,99.05799)" stroke-width=".398" stroke-linecap="butt" stroke-miterlimit="10" stroke-linejoin="miter" fill="none" stroke="#000000" d="M0 0V37.385C0 39.586 1.784 41.37 3.985 41.37H52.709C54.909 41.37 56.694 39.586 56.694 37.385V0C56.694-2.201 54.909-3.985 52.709-3.985H3.985C1.784-3.985 0-2.201 0 0Z"/>
<use data-text="p" xlink:href="#font_81_25" transform="matrix(11.955,0,0,-11.955,207.317,26.518998)"/>
<use data-text="o" xlink:href="#font_81_23" transform="matrix(11.955,0,0,-11.955,213.47383,26.518998)"/>
<use data-text="(" xlink:href="#font_81_26" transform="matrix(11.955,0,0,-11.955,219.63066,26.518998)"/>
<use data-text="&quot;" xlink:href="#font_81_29" transform="matrix(11.955,0,0,-11.955,225.78749,26.518998)"/>
<use data-text="p" xlink:href="#font_81_25" transform="matrix(11.955,0,0,-11.955,231.94432,26.518998)"/>
<use data-text="r" xlink:href="#font_81_30" transform="matrix(11.955,0,0,-11.955,238.10115,26.518998)"/>
<use data-text="o" xlink:href="#font_81_23" transform="matrix(11.955,0,0,-11.955,244.25798,26.518998)"/>
<use data-text="x" xlink:href="#font_81_40" transform="matrix(11.955,0,0,-11.955,250.41481,26.518998)"/>
<use data-text="y" xlink:href="#font_81_41" transform="matrix(11.955,0,0,-11.955,256.57164,26.518998)"/>
<use data-text="&quot;" xlink:href="#font_81_29" transform="matrix(11.955,0,0,-11.955,262.72846,26.518998)"/>
<use data-text="," xlink:href="#font_81_8" transform="matrix(11.955,0,0,-11.955,268.88529,26.518998)"/>
<use data-text="c" xlink:href="#font_81_7" transform="matrix(11.955,0,0,-11.955,213.467,40.465997)"/>
<use data-text="o" xlink:href="#font_81_23" transform="matrix(11.955,0,0,-11.955,219.62383,40.465997)"/>
<use data-text="n" xlink:href="#font_81_21" transform="matrix(11.955,0,0,-11.955,225.78066,40.465997)"/>
<use data-text="t" xlink:href="#font_81_34" transform="matrix(11.955,0,0,-11.955,231.93749,40.465997)"/>
<use data-text="e" xlink:href="#font_81_11" transform="matrix(11.955,0,0,-11.955,238.09432,40.465997)"/>
<use data-text="n" xlink:href="#font_81_21" transform="matrix(11.955,0,0,-11.955,244.25115,40.465997)"/>
<use data-text="t" xlink:href="#font_81_34" transform="matrix(11.955,0,0,-11.955,250.40798,40.465997)"/>
<use data-text="=" xlink:href="#font_81_13" transform="matrix(11.955,0,0,-11.955,262.70967,40.465997)"/>
<use data-text="X" xlink:href="#font_82_20" transform="matrix(11.955,0,0,-11.955,217.58699,84.482997)"/>
<use data-text="G" xlink:href="#font_82_7" transform="matrix(11.955,0,0,-11.955,226.039,84.483)"/>
<use data-text="B" xlink:href="#font_82_2" transform="matrix(11.955,0,0,-11.955,235.22045,84.483)"/>
<use data-text="o" xlink:href="#font_82_39" transform="matrix(11.955,0,0,-11.955,243.50527,84.483)"/>
<use data-text="o" xlink:href="#font_82_39" transform="matrix(11.955,0,0,-11.955,249.68602,84.483)"/>
<use data-text="s" xlink:href="#font_82_46" transform="matrix(11.955,0,0,-11.955,255.54398,84.483)"/>
<use data-text="t" xlink:href="#font_82_50" transform="matrix(11.955,0,0,-11.955,260.1586,84.483)"/>
<use data-text=")" xlink:href="#font_81_27" transform="matrix(11.955,0,0,-11.955,272.08399,84.018)"/>
</svg>
