<svg xmlns="http://www.w3.org/2000/svg" xmlns:xlink="http://www.w3.org/1999/xlink" version="1.1" width="573.794pt" height="115.378pt" viewBox="0 0 573.794 115.378">
<defs>
<path id="font_74_2" d="M.20399475 0C.43699647 0 .7659912 .17791748 .7659912 .45072938 .7659912 .53967288 .723999 .59562686 .6749878 .62661746 .58898928 .6826172 .49699403 .6826172 .4019928 .6826172 .31599427 .6826172 .25698854 .6826172 .17298889 .64660647 .039993287 .5876312 .020996094 .50468447 .020996094 .4967041 .020996094 .4907074 .024993897 .4887085 .0309906 .4887085 .04699707 .4887085 .069992069 .50268557 .07798767 .5076904 .09899902 .52168276 .101989749 .52767947 .10798645 .5466614 .12199402 .5866394 .1499939 .62161257 .27598573 .62760928 .2599945 .41874696 .20899964 .22787476 .13899231 .052993776 .101989749 .039993287 .07798767 .016998291 .07798767 .0069885256 .07798767 .0009918213 .07899475 0 .100997928 0H.20399475M.20899964 .054992677C.32299806 .33380128 .34399415 .5076904 .35798646 .62760928 .4249878 .62760928 .68099978 .62760928 .68099978 .40776063 .68099978 .21188355 .5049896 .054992677 .2630005 .054992677H.20899964Z"/>
<path id="font_75_41" d="M.13999939 .6152344C.13999939 .55236819 .11898804 .4206543 .017990113 .4206543V.40264894H.102996829V.17695618C.102996829 .16297913 .101989749 .14900208 .101989749 .13500977 .101989749 .056121828 .13798523-.0078125 .22099304-.0078125 .30099488-.0078125 .31599427 .082092288 .31599427 .14399719V.1819458H.29599C.29599 .16697693 .29699708 .1519928 .29699708 .13700867 .29699708 .09307861 .28799439 .012176514 .22799683 .012176514 .16899109 .012176514 .1599884 .082092288 .1599884 .13002014V.40264894H.2999878V.43066407H.1599884V.6152344H.13999939Z"/>
<path id="font_75_39" d="M.033996583 .42941285V.40138246H.04899597C.07699585 .40138246 .10398865 .39837647 .10398865 .35131837V.06300354C.10398865 .030975342 .07699585 .02897644 .04798889 .02897644H.033996583V.0009765625H.24598694V.02897644C.23599243 .02897644 .22499085 .02796936 .21499634 .02796936 .18598938 .02796936 .15899658 .032974245 .15899658 .070007327V.15110779C.15899658 .1721344 .1579895 .19314575 .1579895 .21417237 .1579895 .29426576 .1769867 .42140199 .27398683 .42140199 .27999879 .42140199 .2869873 .42140199 .29299928 .4203949V.41940309C.2789917 .4143982 .2689972 .40037538 .2689972 .38536073 .2689972 .36634828 .28399659 .34732057 .30699159 .34732057 .32899476 .34732057 .34298707 .3673401 .34298707 .38435365 .34298707 .4203949 .30799867 .4404297 .2749939 .4404297 .21199036 .4404297 .16899109 .38336183 .1559906 .32829286L.15499878 .4404297 .033996583 .42941285Z"/>
<path id="font_75_19" d="M.09899902 .35827638C.116989139 .399292 .1639862 .42730714 .20899964 .42730714 .2829895 .42730714 .31498719 .35627748 .31498719 .29125978V.25724793C.21099854 .25724793 .07899475 .23223877 .04699707 .12121582 .04499817 .112213138 .04399109 .10321045 .04399109 .09320068V.0861969C.049987794 .018173218 .1309967-.0078125 .18598938-.0078125 .24099732-.0078125 .2979889 .019180298 .31999208 .079193118H.32099916C.32099916 .03718567 .35099793-.0038146973 .394989-.0038146973 .43499757-.0038146973 .46598817 .031188965 .46998597 .07319641V.14620972H.44999696V.095199588C.44999696 .06619263 .44400025 .02218628 .41099549 .02218628 .37799073 .02218628 .37098695 .06518555 .37098695 .0921936 .37098695 .10321045 .37199403 .113204959 .37199403 .12321472V.29325868C.37199403 .3902893 .29599 .4453125 .21398926 .4453125 .1579895 .4453125 .101989749 .41729737 .07798767 .36128236 .07398987 .35028077 .069992069 .3362732 .069992069 .3232727 .069992069 .29826356 .08898926 .28025819 .11099243 .28025819 .13198853 .28025819 .1499939 .29826356 .1499939 .3192749 .1499939 .34127809 .13398743 .35928346 .10899353 .35928346 .10499573 .35928346 .101989749 .35928346 .09899902 .35827638M.31498719 .24024964V.1412201C.31498719 .07620239 .27198792 .012176514 .20199585 .010177612H.19799805C.1539917 .010177612 .10998535 .044189454 .10998535 .09420776 .10998535 .19822693 .22698975 .24024964 .31498719 .24024964Z"/>
<path id="font_75_27" d="M.041992189 .42926026V.40122987H.052993776C.083999637 .40122987 .10798645 .39622499 .10798645 .3511963V.06298828C.10798645 .030975342 .08099365 .02897644 .051986696 .02897644H.037994386V.0009765625H.22599793V.02897644H.20899964C.18598938 .02897644 .16299439 .031967164 .16299439 .06399536V.44026185L.041992189 .42926026M.11399841 .66015627C.08999634 .65615847 .07699585 .6361847 .07699585 .6161957 .07699585 .5962219 .09298706 .5722656 .11999512 .5722656 .14698792 .5722656 .1659851 .5932312 .1659851 .6161957 .1659851 .6381531 .147995 .6611328 .12298584 .6611328 .11999512 .6611481 .116989139 .66015627 .11399841 .66015627Z"/>
<path id="font_75_31" d="M.037994386 .42941285V.40138246H.052993776C.08099365 .40138246 .10798645 .39837647 .10798645 .35131837V.06300354C.10798645 .031967164 .08198547 .02897644 .056991579 .02897644H.037994386V.0009765625H.23498535V.02897644H.21798706C.18998719 .02897644 .16499329 .031967164 .16499329 .06401062V.2572174C.16499329 .32530213 .19799805 .42240907 .2939911 .42240907 .35198976 .42240907 .37098695 .37135316 .37098695 .3042755V.06600952C.37098695 .031967164 .34498597 .02897644 .31698609 .02897644H.30099488V.0009765625H.49798585V.02897644H.47499085C.45298768 .02897644 .43199159 .031967164 .42799378 .055999757V.29226686C.42799378 .32629396 .4269867 .36134339 .40899659 .3903656 .38598634 .42941285 .33999635 .4404297 .29699708 .4404297 .23599243 .4404297 .1749878 .39337159 .1619873 .3363037L.16099549 .4404297 .10798645 .4354248 .037994386 .42941285Z"/>
<path id="font_76_21" d="M.16799927 .39053346V.39753724C.16799927 .427536 .14498902 .430542 .12599182 .430542H.070999149C.06399536 .430542 .056991579 .4315338 .04899597 .4315338 .026992798 .4315338 .0079956059 .4225464 .0079956059 .39753724 .0079956059 .37654115 .023986817 .36553956 .042999269 .36553956H.09399414V-.15571594H.041992189C.019989014-.15571594 .0079956059-.17071533 .0079956059-.18870545 .0079956059-.2117157 .024993897-.22070313 .04798889-.22070313H.21398926C.23799134-.22070313 .2539978-.21070862 .2539978-.18870545 .2539978-.17071533 .24198914-.15571594 .21998596-.15571594H.16799927V.04411316C.19799805 .01411438 .23899842-.0048828127 .28199769-.0048828127 .40098573-.0048828127 .48999024 .10203552 .48999024 .21881104 .48999024 .31663514 .42099 .43554688 .2939911 .43554688 .24598694 .43554688 .20599365 .4195404 .16799927 .39053346M.4149933 .20384217C.40899659 .13197327 .35699464 .06111145 .27799989 .06111145 .21099854 .06111145 .16699219 .13796997 .16699219 .19386292 .16699219 .20584107 .16799927 .21781922 .16799927 .22879029V.27770997C.1749878 .3296051 .23599243 .36953736 .2869873 .36953736 .3659973 .36953736 .41600038 .29167176 .41600038 .22080994 .41600038 .21482849 .41600038 .20982361 .4149933 .20384217Z"/>
<path id="font_76_20" d="M.24798584 .43945313C.13598633 .42645265 .05899048 .33439637 .054992677 .22727967V.2172699C.054992677 .10614014 .13699341-.00390625 .2630005-.00390625H.2749939C.3880005 .006088257 .46499635 .102127078 .46899415 .20625305V.21426392C.46899415 .32539369 .3899994 .43945313 .2599945 .43945313H.24798584M.1289978 .21125794C.1289978 .21525574 .12799073 .22027588 .12799073 .22427368 .12799073 .29936219 .18399048 .37445069 .2630005 .37445069H.2639923C.33898927 .37445069 .3869934 .30436708 .394989 .23628235V.22627259C.394989 .15219116 .34799195 .061080934 .2599945 .061080934 .18099976 .061080934 .13598633 .14317322 .1289978 .21125794Z"/>
<path id="font_76_22" d="M.3959961 .6943054C.36299134 .68930056 .30299378 .63027957 .2709961 .59025576 .20698548 .5102234 .17199707 .40818788 .17199707 .30613709 .17199707 .16607666 .23699951 .03201294 .34899903-.053024293 .3639984-.06503296 .38398744-.08203125 .40499879-.08203125 .4229889-.08203125 .43699647-.06803894 .43699647-.05203247 .43699647-.03201294 .4189911-.024017334 .40499879-.014007568 .30099488 .055023195 .24598694 .18507385 .24598694 .30613709 .24598694 .42918397 .3019867 .5632477 .4139862 .6332855 .42599488 .6412811 .43699647 .6502838 .43699647 .66529849 .43699647 .68330386 .42199708 .6953125 .40499879 .6953125 .4019928 .6953125 .39898683 .6953125 .3959961 .6943054Z"/>
<path id="font_76_25" d="M.16999817 .6220703C.147995 .62005618 .1289978 .60406497 .1269989 .58106997 .1269989 .57406619 .12799073 .56707766 .12799073 .56007388L.1309967 .5150757C.13398743 .47209168 .13699341 .4281006 .13899231 .38510133 .13999939 .3591156 .13899231 .328125 .17799378 .328125 .21299744 .328125 .20698548 .3751068 .20899964 .39511109 .21299744 .4500885 .21499634 .5050812 .21899414 .56007388 .21998596 .56607058 .21998596 .57107546 .21998596 .57606509V.58306887C.21699524 .60505679 .19699097 .6220703 .1749878 .6220703H.16999817M.34700013 .6220703C.32499696 .62005618 .30599977 .60406497 .3039856 .58106997 .3039856 .57406619 .30499269 .56607058 .30499269 .5590668L.30799867 .51408389C.31098939 .4710846 .31399537 .4270935 .31599427 .3841095 .31698609 .35810853 .31599427 .328125 .35499574 .328125 .3899994 .328125 .38398744 .3751068 .38598634 .39511109 .3889923 .43510438 .3899994 .4750824 .3929901 .5150757L.3959961 .56007388C.3959961 .56607058 .39698792 .57206729 .39698792 .57806399V.58306887C.3929901 .60505679 .37399293 .6220703 .35198976 .6220703H.34700013Z"/>
<path id="font_76_5" d="M.09399414 .54730227V.042114259C.09399414 .009109497 .10998535 .0011138916 .13198853 .0011138916 .1559906 .0011138916 .16799927 .015106201 .16799927 .038116456V.04411316C.19799805 .01411438 .23899842-.0048828127 .28199769-.0048828127 .40098573-.0048828127 .48999024 .10203552 .48999024 .21881104 .48999024 .31663514 .42099 .43554688 .2939911 .43554688 .24598694 .43554688 .20599365 .4195404 .16799927 .39053346V.57229617C.16799927 .6112976 .1459961 .6123047 .12599182 .6123047H.037994386C.020996094 .6102905 .0079956059 .5982971 .0079956059 .58029177 .0079956059 .56129458 .020996094 .54730227 .042999269 .54730227H.09399414M.4149933 .20384217C.40899659 .13197327 .35699464 .06111145 .27799989 .06111145 .21099854 .06111145 .16699219 .13796997 .16699219 .19386292 .16699219 .20584107 .16799927 .21781922 .16799927 .22880554V.27770997C.1749878 .32962037 .23599243 .36953736 .2869873 .36953736 .3659973 .36953736 .41600038 .291687 .41600038 .22080994 .41600038 .21482849 .41600038 .20983887 .4149933 .20384217Z"/>
<path id="font_76_26" d="M.22399903 .3586731V.39065553C.22399903 .4166565 .21398926 .43066407 .18598938 .43066407H.06399536C.04399109 .43066407 .026992798 .4206543 .026992798 .39865113 .026992798 .37765504 .041992189 .36566163 .06599426 .36566163H.1499939V.065963748H.06298828C.039993287 .06593323 .026992798 .051940919 .026992798 .032958986 .026992798 .014984131 .040985109 0 .06298828 0 .068984989-.000030517579 .07398987 .0009765625 .07998657 .0009765625H.34899903C.36698915 .0019683839 .3769989 .017974854 .3769989 .033966066 .3769989 .051971437 .36499024 .066970828 .33799745 .066970828 .32998658 .066970828 .32199098 .065963748 .31599427 .065963748H.22399903V.18185425C.22399903 .26576234 .2789917 .37065126 .39898683 .37065126 .39898683 .34368897 .41999818 .32670594 .44299317 .32670594 .46598817 .32670594 .4869995 .34368897 .4869995 .37165834 .4869995 .42555238 .4249878 .43554688 .3899994 .43554688 .32398988 .43554688 .269989 .40457154 .22399903 .35862733V.3586731Z"/>
<path id="font_76_4" d="M.17199707 .3714447C.19198609 .37243653 .21199036 .37445069 .23199463 .37445069 .27999879 .37445069 .35198976 .35643006 .35198976 .28134156 .23799134 .28134156 .052993776 .25730897 .052993776 .13316345 .052993776 .04309082 .14399719-.00390625 .22299195-.00390625 .2659912-.00390625 .33198548 .006088257 .36099244 .035079957 .3889923 .0030822755 .42599488 .001083374 .46499635 .001083374H.4850006C.5009918 .001083374 .5239868 .0040893557 .5239868 .034088136 .5239868 .062088014 .5029907 .066085819 .4869995 .066085819H.47299195C.44898988 .066085819 .42599488 .066085819 .42599488 .086120609V.24433899C.42599488 .25735475 .4269867 .27038575 .4269867 .2834015 .4269867 .365448 .35899354 .42243959 .2809906 .43644715 .26098634 .43945313 .24198914 .43945313 .22200012 .43945313 .16799927 .43945313 .07899475 .43644715 .07899475 .36444093 .07899475 .33644105 .100997928 .31744386 .12599182 .31744386 .1579895 .31744386 .17199707 .34344483 .17199707 .3714447M.35198976 .2183075V.14120484C.35198976 .08010864 .2849884 .061080934 .22999573 .061080934 .19099427 .061080934 .1269989 .07911682 .1269989 .13319397 .1269989 .18426514 .21499634 .20329285 .2559967 .21029663 .28799439 .21530152 .31999208 .2183075 .35198976 .2183075Z"/>
<path id="font_76_19" d="M.16799927 .38554383V.3945465C.16799927 .4295349 .14498902 .430542 .125 .430542H.04699707C.025985718 .430542 .0079956059 .4225464 .0079956059 .39753724 .0079956059 .37654115 .023986817 .36553956 .042999269 .36553956H.09399414V.065963748H.041992189C.019989014 .065963748 .0079956059 .050964357 .0079956059 .032974245 .0079956059 .009963989 .024993897 .0009765625 .04798889 .0009765625H.21398926C.23799134 .0009765625 .2539978 .010971069 .2539978 .032974245 .2539978 .050964357 .24198914 .065963748 .21998596 .065963748H.16799927V.22973633C.16799927 .26368714 .17298889 .29563905 .19400025 .3216095 .21798706 .3515625 .2539978 .37054444 .29299928 .37054444 .32998658 .37054444 .35598756 .3535614 .35598756 .29264833V.065963748H.32199098C.29699708 .065963748 .2809906 .05596924 .2809906 .032974245 .2809906 .009963989 .2979889 .0009765625 .32099916 .0009765625H.47698976C.5009918 .0009765625 .5159912 .010971069 .5159912 .032974245 .5159912 .050964357 .5039978 .065963748 .48199464 .065963748H.42999269V.2826538C.42999269 .3575592 .4039917 .43554688 .29899598 .43554688 .25099183 .43554688 .20399475 .4175415 .16799927 .38554383Z"/>
<path id="font_76_8" d="M.2749939 .4394226C.16499329 .42642213 .07199097 .33836366 .07199097 .2171936 .07199097 .11009216 .1519928-.00390625 .29599-.00390625 .36099244-.00390625 .42999269 .022079468 .45799256 .08409119 .46199037 .09309387 .46499635 .10308838 .46499635 .112091068 .46499635 .13308716 .44699098 .14009094 .42900086 .14009094 .3769989 .14016724 .39698792 .061080934 .2979889 .061080934 .21299744 .061080934 .14498902 .13516236 .14498902 .21725464 .14498902 .26930238 .16999817 .32136537 .21598816 .35139466 .24499512 .37042237 .27598573 .37442018 .30899049 .37442018H.32798768C.34399415 .37442018 .36099244 .37342835 .36099244 .3624115V.35839845C.3659973 .33337403 .38398744 .31736756 .40699769 .31736756 .43299867 .31736756 .45399476 .3383789 .45399476 .36340333 .45399476 .4374237 .35398866 .4404297 .30699159 .4404297H.29499818C.28799439 .4404297 .28199769 .4404297 .2749939 .4394226Z"/>
<path id="font_76_15" d="M.09399414 .54730227V.065963748H.041992189C.019989014 .065963748 .0079956059 .050964357 .0079956059 .032974245 .0079956059 .009963989 .024993897 .0009765625 .04798889 .0009765625H.21398926C.23799134 .0009765625 .2539978 .010971069 .2539978 .032974245 .2539978 .050964357 .24198914 .065963748 .21998596 .065963748H.16799927V.22973633C.16799927 .26368714 .17298889 .29563905 .19400025 .3216095 .21798706 .3515625 .2539978 .37054444 .29299928 .37054444 .32998658 .37054444 .35598756 .3535614 .35598756 .29264833V.065963748H.32199098C.29699708 .065963748 .2809906 .05596924 .2809906 .032974245 .2809906 .009963989 .2979889 .0009765625 .32099916 .0009765625H.47698976C.5009918 .0009765625 .5159912 .010971069 .5159912 .032974245 .5159912 .050964357 .5039978 .065963748 .48199464 .065963748H.42999269V.28266908C.42999269 .3575592 .4039917 .43554688 .29899598 .43554688 .25099183 .43554688 .20399475 .4175415 .16799927 .38554383V.57229617C.16799927 .6112976 .1459961 .6123047 .12599182 .6123047H.037994386C.020996094 .6102905 .0079956059 .5982971 .0079956059 .58029177 .0079956059 .56129458 .020996094 .54730227 .042999269 .54730227H.09399414Z"/>
<path id="font_76_9" d="M.2789917 .0030822755C.2659912-.03186035 .24798584-.05583191 .20899964-.07279968 .19499207-.076797489 .17799378-.08178711 .17799378-.103759769 .17799378-.12072754 .19099427-.13670349 .20899964-.13769531 .2789917-.13769531 .34700013-.050827028 .34700013 .026046753 .34700013 .07498169 .31698609 .12890625 .2630005 .12890625 .22299195 .12890625 .19799805 .09893799 .19799805 .06500244 .19799805 .029052735 .22599793 .001083374 .2619934 .001083374 .2679901 .001083374 .27398683 .002090454 .2789917 .0030822755Z"/>
<path id="font_76_27" d="M.14099121 .031082154C.1769867 .0050811769 .22200012-.00390625 .2659912-.00390625 .34999085-.00390625 .45899964 .024093628 .45899964 .12716675 .45899964 .25730897 .269989 .26031495 .20599365 .2733307 .1789856 .27934266 .13699341 .29335023 .13699341 .3193817 .13699341 .36643983 .21398926 .37445069 .2539978 .37445069 .2869873 .37445069 .34498597 .3734436 .35299684 .33439637 .35899354 .31144715 .35798646 .29144288 .3929901 .29144288 .4249878 .29144288 .42900086 .31243897 .42900086 .33244325V.40245057C.42900086 .42243959 .4189911 .43945313 .397995 .43945313 .3849945 .43945313 .37199403 .43244935 .36698915 .42044068 .33599855 .43544007 .2999878 .43945313 .2659912 .43945313 .18199158 .43945313 .07199097 .41545106 .07199097 .31944276 .07199097 .15222168 .3939972 .24136353 .3939972 .12619019 .3939972 .065093997 .29599 .061080934 .27198792 .061080934H.2669983C.21899414 .061080934 .17399597 .07911682 .1519928 .12919617 .14199829 .15408325 .13899231 .17108155 .10798645 .17108155 .07499695 .17108155 .07199097 .14909363 .07199097 .13008118V.033081056C.07199097 .013092041 .08198547-.00390625 .10398865-.00390625 .12399292-.00390625 .13699341 .012084961 .14099121 .031082154Z"/>
<path id="font_76_12" d="M.12998963 .19042969H.42399598C.45199586 .19042969 .46398927 .20341492 .46398927 .22842407 .46398927 .33343507 .4079895 .43945313 .2669983 .43945313 .147995 .43945313 .052993776 .33444215 .052993776 .21842957 .052993776 .08314514 .17098999-.00390625 .28799439-.00390625 .34899903-.00390625 .41600038 .019088746 .44999696 .07312012 .45700074 .08314514 .46398927 .09718323 .46398927 .11021423V.112213138C.46199037 .13227844 .44799806 .1402893 .42599488 .1402893 .3959961 .1402893 .394989 .12124634 .38398744 .10520935 .3639984 .0741272 .32598878 .06008911 .29100038 .06008911 .21699524 .06008911 .14099121 .1162262 .12998963 .19042969M.1309967 .25442506C.14498902 .3194275 .19999695 .37445069 .2709961 .37445069 .32899476 .37445069 .38398744 .33244325 .3880005 .25442506H.1309967Z"/>
<path id="font_76_17" d="M.22499085 .54730227V.065963748H.09399414C.06599426 .065963748 .052993776 .05496216 .052993776 .033966066 .052993776 .018966675 .06199646 .0029754639 .07998657 .0009765625H.43499757C.45700074 .0009765625 .47099305 .013961792 .47099305 .032974245 .47099305 .05697632 .45599366 .065963748 .42900086 .065963748H.29899598V.5733032C.29899598 .6082916 .27999879 .6123047 .25898744 .6123047H.09298706C.07699585 .6123047 .052993776 .6092987 .052993776 .58029177 .052993776 .5562897 .067993167 .54730227 .09599304 .54730227H.22499085Z"/>
<path id="font_76_28" d="M.1499939 .43066407H.06298828C.037994386 .43066407 .024993897 .41766358 .024993897 .3976593 .024993897 .37765504 .038986207 .36566163 .06098938 .36566163H.1499939V.11907959C.1579895 .04208374 .21299744-.00390625 .2939911-.00390625 .36799623-.00390625 .44898988 .046081544 .44898988 .12908936 .44898988 .14909363 .44099427 .16508484 .41099549 .16508484 .36698915 .16508484 .38598634 .13407898 .36698915 .10108948 .35299684 .07507324 .32598878 .061080934 .29699708 .061080934 .23699951 .061080934 .22399903 .10203552 .22399903 .14297486V.36566163H.4019928C.41799928 .36865235 .4269867 .38365174 .4269867 .39865113 .4269867 .426651 .4059906 .43066407 .3889923 .43066407H.22399903V.5166931C.22399903 .5457001 .20698548 .55371096 .18699646 .55371096 .1659851 .55371096 .1499939 .544693 .1499939 .5166931V.43066407Z"/>
<path id="font_76_16" d="M.23799134 .36566163V.065963748H.11299133C.085998538 .065963748 .07398987 .053970338 .07398987 .033966066 .07398987 .017974854 .083999637 .0029754639 .101989749 .0009765625H.42399598C.44699098 .0009765625 .45899964 .013961792 .45899964 .032974245 .45899964 .052963258 .44699098 .066970828 .42099 .066970828 .41299439 .066970828 .40499879 .065963748 .397995 .065963748H.31199647V.39265443C.31199647 .4226532 .29599 .43066407 .272995 .43066407H.11999512C.09599304 .43066407 .08198547 .4186554 .08198547 .3976593 .08198547 .37965394 .09399414 .36566163 .115997318 .36566163H.23799134M.2539978 .6123047C.22599793 .60827639 .20999146 .5852051 .20999146 .56211856 .20999146 .539032 .22898865 .51094058 .2579956 .51094058 .29100038 .51094058 .31199647 .5350189 .31199647 .56211856 .31199647 .58517459 .29299928 .61328127 .2630005 .61328127 .2599945 .6132965 .25698854 .6123047 .2539978 .6123047Z"/>
<path id="font_76_13" d="M.066986087 .41403199C.049987794 .41203309 .036987306 .3990326 .036987306 .3820343 .036987306 .36402894 .050994874 .34902955 .07299805 .34902955 .07798767 .34902955 .083999637 .35003663 .08898926 .35003663H.45199586C.47299195 .35003663 .4869995 .3630371 .4869995 .38302613 .4869995 .4030304 .47099305 .4130249 .45298768 .41503907H.11999512C.10998535 .41500855 .099990848 .41601563 .08999634 .41601563 .08198547 .41601563 .07398987 .41500855 .066986087 .41401673V.41403199M.06199646 .26223756C.04699707 .26223756 .036987306 .24324036 .036987306 .23123169 .036987306 .21122742 .053985597 .19824219 .07699585 .19824219H.44499208C.46598817 .19824219 .4869995 .20722962 .4869995 .23123169 .4869995 .24623108 .47698976 .26123048 .45999146 .26322938H.07199097C.068984989 .26322938 .06498718 .26322938 .06199646 .26223756Z"/>
<path id="font_76_23" d="M.11199951 .69433596C.09700012 .69233706 .08699036 .67832949 .08699036 .6643219 .08699036 .64930728 .09899902 .64030459 .11099243 .6333008 .21899414 .5622711 .27799989 .43321229 .27799989 .30615235 .27799989 .18008423 .22099304 .057022096 .115997318-.01600647 .101989749-.026016236 .08699036-.03302002 .08699036-.052017213 .08699036-.06803894 .100997928-.08203125 .117996219-.08203125 .13598633-.08203125 .1519928-.07003784 .1659851-.059020997 .2869873 .027008057 .35198976 .16508484 .35198976 .30815126 .35198976 .44921876 .2849884 .58628848 .16999817 .6703186 .15499878 .68130496 .13798523 .6953125 .11898804 .6953125 .116989139 .69532778 .11399841 .69433596 .11199951 .69433596Z"/>
<path id="font_77_5" d="M.039993287 .68359377V.6525879C.051986696 .6525879 .06498718 .6535797 .07798767 .6535797 .11199951 .6535797 .14199829 .647583 .14199829 .60861209V.07594299C.14199829 .032974245 .10598755 .031967164 .067993167 .031967164H.039993287V.0009765625H.33399964V.031967164H.2999878C.2559967 .031967164 .23199463 .035964967 .23199463 .077941898V.3147583H.41299439C.5109863 .31976319 .6409912 .3767395 .6409912 .49667359 .6409912 .61061099 .5219879 .67658999 .41299439 .68359377H.039993287M.22898865 .34277345V.61460879C.22898865 .6405945 .23899842 .6525879 .2659912 .6525879H.34298707C.43099977 .6525879 .5389862 .647583 .5389862 .49667359 .5389862 .46269227 .5349884 .4217224 .5119934 .3947296 .47599793 .35075379 .41600038 .34277345 .3619995 .34277345H.22898865Z"/>
<path id="font_77_10" d="M.039993287 .43093873V.39993287H.055999757C.08799744 .39993287 .11299133 .39494325 .11299133 .34994508V.07296753C.11299133 .032974245 .085998538 .031967164 .035995485 .031967164V.0009765625H.25299073V.031967164H.23699951C.20999146 .031967164 .18399048 .034973146 .18399048 .066970828V.4419403L.039993287 .43093873M.12599182 .6699219C.099990848 .6659088 .07899475 .6449127 .07899475 .61691287 .07899475 .58792117 .102996829 .56391909 .1329956 .56391909H.13999939C.1659851 .56791689 .18699646 .58891299 .18699646 .61691287 .18699646 .6459198 .16299439 .6699219 .1329956 .6699219H.12599182Z"/>
<path id="font_77_14" d="M.02999878 .43138124V.40037538H.04899597C.07899475 .40037538 .10699463 .39736939 .10699463 .35736085V-.1212616C.10699463-.16242981 .07699585-.16242981 .02999878-.16242981V-.19335938L.100997928-.19042969H.2579956V-.16242981H.23298645C.20599365-.16242981 .18099976-.15841675 .18099976-.12226868V.049240114C.21499634 .01322937 .25498963-.009765625 .30699159-.009765625 .42599488-.009765625 .5359955 .087249759 .5359955 .2163086 .5359955 .33033753 .44799806 .4423828 .31999208 .4423828 .2639923 .4423828 .21499634 .41838075 .17799378 .379364V.4423828L.02999878 .43138124M.44799806 .20129395C.44400025 .12226868 .397995 .0152282719 .2979889 .0152282719 .24598694 .0152282719 .18099976 .0662384 .18099976 .11026001V.2743225C.18099976 .287323 .17999268 .29933167 .17999268 .31233216 .17999268 .36836244 .2519989 .41436769 .30999757 .41436769 .4039917 .41436769 .44898988 .29733277 .44898988 .2203064 .44898988 .21429444 .44898988 .20730591 .44799806 .20129395Z"/>
<path id="font_77_6" d="M.114990238 .23046875H.41099549C.4229889 .23046875 .42799378 .23646546 .42799378 .24746704 .42799378 .3722992 .35099793 .4482422 .24499512 .4482422 .12298584 .4482422 .027999878 .3423462 .027999878 .22044373 .027999878 .09732056 .125-.009765625 .2619934-.009765625 .33299256-.009765625 .40499879 .040252687 .4249878 .10932922 .42599488 .112335208 .4269867 .11633301 .4269867 .12034607 .4269867 .12734986 .42199708 .13334656 .4139862 .13334656 .3959961 .13334656 .394989 .10331726 .3849945 .08930969 .36099244 .04725647 .31199647 .018234253 .2630005 .018234253H.2559967C.20399475 .020233155 .1579895 .055267335 .13598633 .10232544 .116989139 .1423645 .114990238 .18740845 .114990238 .23046875M.115997318 .25445558C.116989139 .32037355 .14498902 .39726258 .21699524 .4202423 .22499085 .4222412 .23298645 .42323304 .24099732 .42323304 .32699586 .42323304 .35899354 .3343506 .35899354 .25445558H.115997318Z"/>
<path id="font_77_4" d="M.3809967 .7060547C.29299928 .69503787 .21598816 .6640167 .1539917 .5959625 .08999634 .5259094 .057998659 .4338379 .057998659 .34075929 .057998659 .16662598 .18299866-.021484375 .40098573-.021484375 .59298709-.021484375 .7409973 .1486206 .7409973 .33776856 .7409973 .48788453 .6549988 .6360016 .5019989 .68904116 .46998597 .7000122 .43399049 .70703127 .3999939 .70703127 .3939972 .7070465 .3869934 .7060547 .3809967 .7060547M.15899658 .3297577V.34677125C.15899658 .46185304 .18899536 .5989685 .30799867 .65600588 .33599855 .6710205 .36799623 .6780243 .3999939 .6780243H.4079895C.56599429 .6690216 .6389923 .5058899 .6389923 .3587799 .6389923 .23968506 .61099246 .10357666 .49398805 .03352356 .46199037 .0155181889 .42799378 .008514404 .3919983 .008514404 .2559967 .011505127 .18199158 .14961243 .16499329 .26771546 .1619873 .2887268 .16099549 .30874635 .15899658 .3297577Z"/>
<path id="font_77_3" d="M.037994386 .68359377V.6525879H.11299133L.13999939 .6455841V.13490296C.13999939 .12591553 .14099121 .11691284 .14099121 .106918338 .14099121 .03996277 .083999637 .031967164 .037994386 .031967164V.0009765625H.272995V.031967164C.22799683 .031967164 .16999817 .038970949 .16999817 .106918338 .16999817 .11491394 .17098999 .123916629 .17098999 .13191223L.17199707 .6215973C.18399048 .5996094 .19999695 .57962039 .21499634 .5596466 .31399537 .4197235 .40899659 .2788086 .5079956 .13890076 .5339966 .10092163 .5609894 .062942508 .58699038 .024963379 .59399417 .013961792 .59999087 .0009765625 .6139984 .0009765625H.6159973C.6289978 .003967285 .6289978 .010971069 .6289978 .018966675V.57862856C.6289978 .6465912 .68699648 .6525879 .73098757 .6525879V.68359377H.49598695V.6525879C.5399933 .6525879 .59799197 .6455841 .59799197 .57962039V.15190125L.25898744 .6375885 .22599793 .6815796 .20799256 .68359377H.037994386Z"/>
<path id="font_78_15" d="M.033996583 .68359377V.6525879C.04699707 .6525879 .05999756 .6535797 .07199097 .6535797 .10798645 .6535797 .13699341 .6485901 .13699341 .60861209V.07493591C.13699341 .036972047 .10398865 .030975342 .069992069 .030975342 .056991579 .030975342 .04499817 .031967164 .033996583 .031967164V.0009765625H.32899476V.031967164H.29499818C.25299073 .031967164 .22599793 .033966066 .22599793 .07594299V.31677247H.4099884C.5049896 .323761 .6239929 .38174439 .6239929 .49667359 .6239929 .60261538 .5189972 .67259219 .41799928 .68258669 .40299989 .68356326 .3889923 .6845703 .37399293 .6845703 .35398866 .6845856 .33399964 .68359377 .31498719 .68359377H.033996583M.22299195 .34277345V.62060549C.22299195 .647583 .23999024 .650589 .25898744 .6525879H.33399964C.3899994 .6525879 .45498658 .650589 .49398805 .6036072 .5179901 .57463076 .5209961 .5346527 .5209961 .4986725 .5209961 .46269227 .5179901 .42471314 .49598695 .3947296 .46199037 .35176087 .4039917 .34277345 .35299684 .34277345H.22299195Z"/>
<path id="font_78_3" d="M.58898928 .6199951C.57699587 .6300049 .56599429 .64302065 .55400088 .6530304 .5119934 .68704226 .45899964 .7060547 .40499879 .7060547 .21299744 .7060547 .054992677 .54093936 .054992677 .34178163 .054992677 .14962769 .20698548-.021484375 .40499879-.021484375 .5399933-.021484375 .6519928 .08157349 .6649933 .21968079 .66600039 .22468567 .66600039 .22868347 .66600039 .23368836 .66600039 .2447052 .6629944 .25170899 .6539917 .25170899 .6349945 .25170899 .6399994 .212677 .6359863 .19265747 .61499026 .09156799 .5249939 .009506226 .41600038 .009506226 .34498597 .009506226 .2789917 .042541505 .23199463 .095581058 .1749878 .16062927 .1579895 .24969483 .1579895 .33477784 .1579895 .40283204 .16499329 .47387696 .19599915 .53492739 .23699951 .61499026 .32299806 .6750488 .4139862 .6750488 .5379944 .6750488 .61898806 .5569458 .6319885 .4488678 .6349945 .43785096 .6289978 .41984559 .6499939 .41984559 .6639862 .41984559 .66600039 .4258423 .66600039 .43585206V.6900482C.66600039 .697052 .6649933 .7060547 .6539917 .7060547 .6389923 .7060547 .59199526 .6269989 .58898928 .6199951Z"/>
<path id="font_78_1" d="M.03199768 .031967164V.0009765625H.24798584V.031967164C.21598816 .031967164 .1749878 .046951295 .17298889 .08190918 .17298889 .09190369 .17799378 .10089111 .18099976 .10987854 .19198609 .14285279 .20199585 .17581177 .21499634 .20777893 .21798706 .21676636 .21798706 .22875977 .23199463 .22875977H.45899964C.47099305 .22875977 .47200013 .21777344 .47599793 .20878601L.49699403 .1458435C.5069885 .11987305 .5249939 .08190918 .5249939 .060943605V.0569458C.5159912 .032974245 .47698976 .031967164 .44799806 .031967164H.44198609V.0009765625H.71699526V.031967164H.6879883C.6649933 .031967164 .6409912 .033966066 .6289978 .045959474 .6179962 .057937623 .6139984 .074920658 .60798647 .089904788 .5569916 .23875427 .5059967 .38876344 .45298768 .53778079 .43499757 .5897827 .41099549 .6447754 .397995 .6977844 .3939972 .7107849 .3880005 .7167969 .37399293 .7167969 .35398866 .7167969 .34999085 .6957855 .34399415 .67578127 .28799439 .5067749 .22599793 .33976747 .16899109 .17181397L.147995 .11187744C.14199829 .09390259 .13598633 .075927738 .12199402 .061935426 .09899902 .037963869 .06399536 .031967164 .03199768 .031967164M.23298645 .25976563 .34498597 .58477786 .45799256 .25976563H.23298645Z"/>
<path id="font_78_22" d="M.010986328 .68359377V.6525879H.032989503C.07899475 .6525879 .101989749 .6465912 .12599182 .607605L.15299988 .5636444C.20498657 .47769166 .25698854 .39274598 .30999757 .3078003 .31799317 .29580689 .33099366 .2808075 .33099366 .26481629V.10092163C.33099366 .093933109 .33198548 .0859375 .33198548 .076934818 .33198548 .035964967 .29699708 .031967164 .25898744 .031967164H.22799683V.0009765625H.519989V.031967164H.4889984C.44400025 .031967164 .4169922 .033966066 .4169922 .077941898V.23983765C.4169922 .24583435 .41600038 .25183106 .41600038 .25883485 .41600038 .27781678 .42900086 .29180909 .43798829 .3078003 .49299623 .39474488 .548996 .48368836 .60198977 .57362368 .6369934 .6325989 .6799927 .6515808 .73799136 .6525879V.68359377H.5249939V.6525879C.5509949 .6525879 .58200076 .6435852 .58200076 .6096039 .57899478 .59461978 .57099917 .58262637 .5629883 .57063296L.5379944 .5306549C.5089874 .48368836 .47999574 .43571473 .45098878 .38874818L.4229889 .34378053C.41799928 .33477784 .41099549 .3257904 .40699769 .3157959H.4059906C.4019928 .3257904 .3959961 .333786 .3899994 .34277345L.3600006 .39274598C.31698609 .46369935 .269989 .5326538 .22999573 .60461428 .22599793 .6116028 .21899414 .6195984 .21899414 .6286011V.6315918C.22399903 .6515808 .2579956 .6525879 .28199769 .6525879H.28799439V.68359377H.010986328Z"/>
<path id="font_78_29" d="M.11199951 .23242188H.3999939C.41099549 .23242188 .41600038 .2394104 .41600038 .250412 .41600038 .35630799 .35099793 .4482422 .23899842 .4482422 .115997318 .4482422 .027999878 .33932496 .027999878 .22039795 .027999878 .12832642 .07899475 .04624939 .16699219 .006225586 .18998719-.003768921 .21699524-.009765625 .24198914-.009765625H.24499512C.32199098-.009765625 .38598634 .0332489 .41299439 .110305789 .4139862 .11331177 .4139862 .11730957 .4139862 .12031555 .4139862 .12731934 .4099884 .13232422 .40299989 .13232422 .3880005 .13232422 .38198854 .0993042 .37599183 .08828735 .35099793 .04425049 .30299378 .0152282719 .25099183 .0152282719 .21398926 .0152282719 .18199158 .036239625 .15499878 .06326294 .114990238 .109313968 .11199951 .17436219 .11199951 .23242188M.11299133 .25341798C.11299133 .33033753 .1539917 .426239 .23599243 .426239H.24099732C.33898927 .41723634 .33799745 .3133545 .34799195 .25341798H.11299133Z"/>
<path id="font_78_42" d="M.23498535 .4482422C.10899353 .43522645 .027999878 .3292389 .027999878 .21322632 .027999878 .100234989 .116989139-.009765625 .25-.009765625 .36999513-.009765625 .47099305 .08822632 .47099305 .2142334 .47099305 .33320619 .3809967 .44921876 .24798584 .44921876 .24398804 .449234 .23899842 .4482422 .23498535 .4482422M.11199951 .19023133V.23423767C.11199951 .31021119 .13598633 .4262085 .24899292 .4262085 .32998658 .4262085 .37599183 .35821534 .3849945 .2822113 .3869934 .2602234 .3869934 .23921204 .3869934 .21722412 .3869934 .15222168 .37998963 .07122803 .31599427 .034225465 .29599 .021224976 .27398683 .0152282719 .25099183 .0152282719 .17799378 .0152282719 .1269989 .07221985 .115997318 .15022278 .11399841 .16322327 .11399841 .17721558 .11199951 .19021607V.19023133Z"/>
<path id="font_78_10" d="M.16899109 .68359377V.6525879H.22698975C.2649994 .6525879 .3019867 .6485901 .3019867 .6095886V.17053223C.3019867 .10852051 .2889862 .00050354006 .19799805 .00050354006 .1539917 .00050354006 .11199951 .023513794 .08799744 .059509279 .09098816 .058517457 .09399414 .058517457 .09700012 .058517457 .12799073 .058517457 .1519928 .08251953 .1519928 .11352539 .1519928 .14350891 .1289978 .16950989 .09700012 .16950989 .06599426 .16950989 .040985109 .14750672 .040985109 .11351013 .040985109 .026504517 .1269989-.021484375 .20298767-.021484375 .2869873-.021484375 .37199403 .03250122 .38598634 .119506839 .3880005 .13250733 .3880005 .1465149 .3880005 .15951538V.6135864C.3880005 .647583 .40499879 .6525879 .46499635 .6525879V.68359377H.16899109Z"/>
<path id="font_78_34" d="M.03199768 .6843109V.6533203H.04699707C.083999637 .6533203 .10998535 .6493225 .10998535 .6013336V.09603882C.10998535 .089035037 .11099243 .08201599 .11099243 .074020389 .11099243 .035980226 .083999637 .031967164 .055999757 .031967164H.03199768V.0009765625H.2579956V.031967164H.23199463C.20399475 .031967164 .17999268 .035980226 .17999268 .073013309V.25621034C.17999268 .3282776 .21699524 .42037965 .31599427 .42037965 .37998963 .42037965 .38598634 .3513031 .38598634 .30825807V.069000247C.38598634 .034973146 .35699464 .031967164 .32598878 .031967164H.30799867V.0009765625H.5339966V.031967164H.5089874C.48199464 .031967164 .45599366 .035980226 .45599366 .070007327V.28923036C.45599366 .32226563 .45498658 .3553009 .43998719 .38534547 .41600038 .42938233 .3659973 .4423828 .31999208 .4423828 .2619934 .4423828 .19699097 .40335084 .17799378 .3473053L.1769867 .6953125 .03199768 .6843109Z"/>
<path id="font_78_41" d="M.03199768 .43138124V.4003601H.04699707C.07998657 .4003601 .10998535 .39735414 .10998535 .35029603V.074020389C.10998535 .032974245 .08198547 .031967164 .037994386 .031967164H.03199768V.0009765625H.2579956V.031967164H.23199463C.20399475 .031967164 .17999268 .035980226 .17999268 .073013309V.25621034C.17999268 .3282776 .21699524 .42037965 .31599427 .42037965 .37998963 .42037965 .38598634 .3513031 .38598634 .30825807V.069000247C.38598634 .034973146 .35699464 .031967164 .32598878 .031967164H.30799867V.0009765625H.5339966V.031967164H.5089874C.48199464 .031967164 .45599366 .035980226 .45599366 .070007327V.28923036C.45599366 .32226563 .45498658 .35630799 .43899537 .38633729 .41600038 .43037416 .36499024 .4423828 .31900025 .4423828 .2579956 .4423828 .19499207 .4003601 .1749878 .34028626L.17399597 .4423828 .03199768 .43138124Z"/>
<path id="font_78_50" d="M.17599488 .4482422C.13899231 .44422914 .099990848 .4372406 .070999149 .41223146 .04699707 .39123536 .032989503 .35723878 .032989503 .32522584 .032989503 .15423584 .31098939 .25123597 .31098939 .10122681 .31098939 .040222169 .2559967 .01222229 .20098877 .01222229 .125 .01222229 .07398987 .066223148 .05999756 .15222168 .057998659 .16122437 .056991579 .17022705 .04499817 .17022705 .036987306 .17022705 .032989503 .16423035 .032989503 .15722656V-.00077819827C.033996583-.0057678224 .036987306-.008773804 .041992189-.009765625H.04399109C.05999756-.009765625 .07598877 .02722168 .08799744 .030227662H.08898926C.09700012 .030227662 .12399292 .0052337648 .14498902-.0017700195 .1619873-.0077667238 .17999268-.009765625 .19799805-.009765625 .2809906-.009765625 .3600006 .034225465 .3600006 .12623596 .3600006 .19223023 .31199647 .24623108 .24598694 .26322938 .18399048 .28022767 .08198547 .28022767 .08198547 .3532257 .08198547 .4142151 .14898682 .42921449 .19299317 .42921449 .24198914 .42921449 .30999757 .40220643 .30999757 .3162079 .30999757 .30722047 .31098939 .2992096 .32199098 .2992096 .33198548 .2992096 .33599855 .30722047 .33599855 .31721498 .33599855 .32221986 .33499146 .32720948 .33499146 .33120729V.4342041C.33499146 .44023133 .33198548 .4482422 .32398988 .4482422 .30799867 .4482422 .2979889 .42323304 .2869873 .42323304H.28599549C.27799989 .42323304 .2619934 .43623353 .25 .44023133 .23199463 .44621278 .21199036 .44921876 .19299317 .44921876 .18699646 .449234 .18199158 .4482422 .17599488 .4482422Z"/>
<path id="font_76_29" d="M.09399414 .36566163V.12600708C.09399414 .0970459 .09599304 .06808472 .11299133 .04408264 .14099121 .0050811769 .19198609-.00390625 .23699951-.00390625 .27799989-.00390625 .32299806 .006088257 .35598756 .031082154 .35699464 .012084961 .36999513 .001083374 .3919983 .001083374H.47898866C.49899293 .001083374 .5159912 .01109314 .5159912 .034088136 .5159912 .05508423 .5 .066085819 .48098756 .066085819H.42999269V.39265443C.42999269 .4156494 .42199708 .43066407 .3899994 .43066407H.30899049C.2919922 .43066407 .269989 .426651 .269989 .39865113 .269989 .380661 .2809906 .36566163 .3039856 .36566163H.35598756V.16294861C.35598756 .08306885 .29599 .061080934 .24099732 .061080934 .20498657 .061080934 .16799927 .065078739 .16799927 .1230011V.3896637C.16799927 .4136505 .1599884 .43066407 .1289978 .43066407H.04399109C.022994996 .43066407 .0079956059 .41966249 .0079956059 .3976593 .0079956059 .37265016 .027999878 .36566163 .04899597 .36566163H.09399414Z"/>
<path id="font_76_3" d="M.17199707 .065963748 .25698854 .24909973 .34799195 .065963748H.33999635C.31799317 .065963748 .3039856 .05496216 .3039856 .032974245 .3039856 .010971069 .31999208 .0009765625 .33999635 .0009765625H.45599366C.48098756 .0009765625 .49499513 .011962891 .49499513 .033966066 .49499513 .065963748 .46798707 .065963748 .44999696 .065963748H.43998719C.42199708 .065963748 .4099884 .10699463 .397995 .12800598 .3659973 .18804932 .33198548 .24809265 .30299378 .3101349 .2999878 .31614686 .29499818 .32115174 .29499818 .32714845V.32914735C.29599 .33415223 .2999878 .3391571 .3019867 .344162L.31698609 .37417604C.33499146 .413208 .35499574 .4512329 .37399293 .4892578 .38398744 .51127627 .3939972 .54730227 .4119873 .54730227H.43099977C.45399476 .54730227 .46598817 .56129458 .46598817 .58029177 .46598817 .6072998 .44400025 .6123047 .42799378 .6123047H.31199647C.29100038 .6123047 .2749939 .6022949 .2749939 .58029177 .2749939 .5562897 .29100038 .54730227 .31298829 .54730227H.32099916L.25698854 .413208 .18699646 .54730227H.19400025C.21398926 .54730227 .23098755 .55830386 .23098755 .5792999 .23098755 .6013031 .21398926 .6123047 .19299317 .6123047H.07798767C.06199646 .6123047 .038986207 .6072998 .038986207 .5812988 .038986207 .56529238 .04899597 .54930117 .06599426 .54730227H.09199524C.10899353 .54730227 .11099243 .5332947 .116989139 .52227786 .14698792 .45924378 .18099976 .39720155 .21398926 .3371582 .21598816 .33415223 .21798706 .33015443 .21798706 .32614137V.32414247C.20999146 .30212403 .19699097 .28012086 .18598938 .25909425 .1579895 .20306397 .1309967 .14501953 .102996829 .08898926 .09899902 .07997131 .09599304 .065963748 .08198547 .065963748H.06098938C.038986207 .065963748 .027999878 .050964357 .027999878 .032974245 .027999878 .003967285 .051986696 .0009765625 .067993167 .0009765625H.18099976C.20199585 .0009765625 .21899414 .009963989 .21899414 .032974245 .21899414 .05596924 .20399475 .065963748 .18099976 .065963748H.17199707Z"/>
<path id="font_76_2" d="M.375 .038223268C.375 .016220093 .38598634 .0012207031 .41099549 .0012207031 .42999269 .0012207031 .44898988 .008224487 .44898988 .034225465V.20703125H.45700074C.47799684 .20703125 .49598695 .21601868 .49598695 .24002075 .49598695 .26402284 .47799684 .27201844 .45700074 .27201844H.32899476C.30499269 .27201844 .29100038 .26002503 .29100038 .23902893 .29100038 .22001648 .30499269 .20703125 .32499696 .20703125H.37298585C.36799623 .15809632 .34199525 .055221559 .2679901 .055221559 .15299988 .055221559 .10998535 .21601868 .10998535 .30403138 .10998535 .40202333 .15899658 .55804446 .2649994 .55804446 .32499696 .55804446 .35798646 .5010376 .37199403 .44903565 .37998963 .4090271 .3829956 .3990326 .41299439 .3990326 .44299317 .3990326 .44898988 .41703797 .44898988 .43603517V.58503726C.44898988 .6080322 .43798829 .6230469 .4169922 .6230469 .3929901 .6230469 .38198854 .6000366 .375 .58003237 .34199525 .6080322 .30099488 .6230469 .2579956 .6230469H.24699402C.099990848 .6090393 .036987306 .43502809 .036987306 .3050232 .036987306 .22901917 .053985597 .15409851 .09599304 .09017944 .1309967 .038223268 .18499756-.0057678224 .25-.009765625H.2599945C.30299378-.009765625 .34399415 .007232666 .375 .038223268Z"/>
<path id="font_76_1" d="M.08898926 .54730227V.065963748H.05899048C.034988405 .065963748 .019989014 .05496216 .019989014 .033966066 .019989014 .012969971 .033996583 .0009765625 .057998659 .0009765625H.29599C.32299806 .0009765625 .34899903 .0019683839 .37399293 .011962891 .43798829 .035964967 .48199464 .100997928 .48199464 .16804505 .48199464 .23908997 .4269867 .31011964 .35499574 .32112123 .4119873 .35012818 .46099855 .3831482 .46099855 .45622254 .46099855 .55029299 .3789978 .6123047 .28399659 .6123047H.057998659C.034988405 .6123047 .019989014 .6013031 .019989014 .58029177 .019989014 .5562897 .037994386 .54730227 .05899048 .54730227H.08898926M.16299439 .065963748V.2861328H.2919922C.3600006 .2861328 .40899659 .23608399 .40899659 .17204285 .40899659 .13502503 .38598634 .101989749 .35598756 .082977298 .32699586 .065963748 .29599 .065963748 .2630005 .065963748H.16299439M.16299439 .35112V.54730227H.2749939C.31498719 .54730227 .3869934 .5342865 .3869934 .45622254 .3869934 .42118836 .36698915 .38815309 .33599855 .36914063 .30699159 .35112 .27598573 .35112 .24299622 .35112H.16299439Z"/>
<path id="font_78_21" d="M.036987306 .68359377V.6525879H.06098938C.10499573 .6525879 .12799073 .6465912 .1519928 .6116028L.32598878 .34977723C.32798768 .34677125 .33099366 .34378053 .33099366 .3397827 .33099366 .33277894 .31900025 .3217926 .31498719 .31278993 .27198792 .25083924 .23098755 .18887329 .18798828 .12591553 .17098999 .10192871 .15699768 .076934818 .13198853 .059951784 .100997928 .038970949 .06098938 .031967164 .023986817 .031967164V.0009765625H.2619934V.031967164C.23498535 .031967164 .20098877 .045959474 .20098877 .077941898 .20098877 .092926029 .21099854 .10292053 .21899414 .11491394 .2649994 .1798706 .30799867 .24583435 .35198976 .3117981 .36499024 .2888031 .3809967 .2668152 .3959961 .24484253 .42099 .20585633 .44699098 .1678772 .47299195 .12890625L.5039978 .0819397C.5079956 .07594299 .5149994 .06794739 .5149994 .060943605 .5119934 .04096985 .47200013 .031967164 .44999696 .031967164V.0009765625H.7259979V.031967164H.69898989C.6529999 .031967164 .6309967 .04096985 .6069946 .078933719 .5469971 .171875 .47999574 .26281739 .42199708 .35777284 .4149933 .36676026 .4099884 .37774659 .4019928 .3857422V.38674928C.4079895 .3937378 .41299439 .4017334 .41799928 .40873719L.44198609 .4447174C.46699525 .48168946 .49198915 .5176697 .5169983 .5546417 .5339966 .58062747 .5499878 .607605 .57699587 .6255951 .60798647 .6465912 .6469879 .6525879 .6839905 .6525879V.68359377H.44499208V.6525879C.47099305 .6525879 .5069885 .6375885 .5069885 .60661318 .5069885 .58862307 .48298646 .5596466 .46798707 .5396576 .44999696 .511673 .43099977 .48468019 .4119873 .45671083 .4019928 .4427185 .3939972 .42771913 .3829956 .4147339 .35499574 .46669007 .31498719 .5176697 .28199769 .56863406 .2709961 .58462527 .24798584 .6116028 .24798584 .6235962 .25099183 .6435852 .29100038 .6525879 .31298829 .6525879V.68359377H.036987306Z"/>
<path id="font_78_7" d="M.59399417 .06349182C.6069946 .038497926 .6439972 .00050354006 .6569977 .00050354006 .6629944 .00050354006 .66600039 .006515503 .66600039 .014511108V.1844635C.66600039 .1904602 .6649933 .19746399 .6649933 .20446778 .6649933 .23945618 .69099429 .24145508 .7350006 .24145508V.27246095H.45199586V.24145508C.46499635 .24145508 .48098756 .2424469 .49699403 .2424469 .54499819 .2424469 .57699587 .23945618 .57699587 .19445801V.16847229C.57699587 .15647888 .5779877 .1454773 .5779877 .13348389 .5779877 .04849243 .5 .009506226 .42099 .009506226 .32899476 .009506226 .24198914 .0644989 .19898987 .1454773 .1659851 .2074585 .1579895 .27746583 .1579895 .34655763 .1579895 .44470216 .17799378 .5478668 .25898744 .6159668 .3019867 .65200808 .35899354 .6750488 .4149933 .6750488 .5249939 .6750488 .59999087 .5839081 .6269989 .4747467 .6329956 .45472718 .6269989 .41867066 .651001 .41867066 .6619873 .41867066 .66600039 .42567445 .66600039 .43569947V.6900482C.66600039 .697052 .6649933 .7060547 .6539917 .7060547 .6389923 .7060547 .59199526 .62698367 .58898928 .6199646 .57299807 .63298037 .55999758 .64801028 .5439911 .661026 .5009918 .6920471 .45199586 .7060547 .39898683 .7060547 .20399475 .7060547 .054992677 .5288391 .054992677 .34155274V.3265381C.06199646 .14247132 .21199036-.021484375 .4059906-.021484375 .47898866-.021484375 .5469971-.00048828127 .59399417 .06349182Z"/>
<path id="font_78_2" d="M.035995485 .68359377V.6525879C.04899597 .6525879 .06199646 .6535797 .07398987 .6535797 .10998535 .6535797 .13899231 .6485901 .13899231 .60861209V.07493591C.13899231 .036956788 .10598755 .030975342 .07199097 .030975342 .05899048 .030975342 .04699707 .031967164 .035995485 .031967164V.0009765625H.35099793C.37199403 .0009918213 .3919983 0 .41299439 0 .519989 0 .6519928 .049957277 .6519928 .18984986 .6519928 .2857666 .5389862 .35671998 .45799256 .35671998V.35871888C.5329895 .36671449 .6239929 .4296875 .6239929 .51464846V.52163699C.6159973 .6365814 .4869995 .6845703 .3869934 .6845703 .36698915 .6845856 .34700013 .68359377 .32798768 .68359377H.035995485M.22200012 .34472657H.40098573C.49798585 .34472657 .5509949 .27078248 .5509949 .1878357 .5509949 .09890747 .4869995 .030975342 .3849945 .030975342 .36898805 .030975342 .35299684 .031967164 .33699037 .031967164H.2599945C.23899842 .031967164 .22200012 .037963869 .22200012 .063949588V.34472657M.22200012 .36671449V.6156006C.22200012 .6455841 .23599243 .650589 .2579956 .6525879H.3849945C.44299317 .6525879 .4869995 .6315918 .5149994 .5726166 .5219879 .55462649 .5269928 .53364565 .5269928 .5136566 .526001 .4256897 .44799806 .36572267 .36299134 .36572267 .35198976 .36572267 .34098817 .36671449 .32998658 .36671449H.22200012Z"/>
<path id="font_78_51" d="M.14898682 .6152344C.14898682 .54644778 .11999512 .421875 .017990113 .421875V.39987184H.10398865V.1421051C.10398865 .10914612 .10598755 .076171878 .12199402 .047195436 .14399719 .007232666 .19099427-.009765625 .23498535-.009765625 .31698609-.009765625 .33299256 .08216858 .33299256 .14511109V.18206787H.30799867C.30799867 .16708374 .30899049 .15209961 .30899049 .1361084 .30899049 .09214783 .29899598 .0152282719 .23999024 .0152282719 .18299866 .0152282719 .17399597 .08416748 .17399597 .12911988V.39987184H.31599427V.43066407H.17399597V.6152344H.14898682Z"/>
<path id="font_78_17" d="M.033996583 .68359377V.6525879C.04699707 .6525879 .05999756 .6535797 .07199097 .6535797 .10798645 .6535797 .13699341 .6485901 .13699341 .6085663V.07450867C.13699341 .036514284 .10398865 .03050232 .069992069 .03050232 .056991579 .03050232 .04499817 .0315094 .033996583 .0315094V.00050354006H.32598878V.0315094H.2919922C.25 .0315094 .22299195 .0335083 .22299195 .07551575V.33151246H.33699037C.40299989 .33151246 .46299745 .2935028 .46998597 .21650696V.1335144C.46998597 .06550598 .49899293-.021484375 .6349945-.021484375 .6819916-.021484375 .723999 .009506226 .7319946 .08250427V.087509158C.7319946 .09550476 .72898867 .10551453 .7200012 .10551453 .70199587 .10551453 .7049866 .053512575 .68899539 .028503418 .6769867 .012512207 .6589966 .00050354006 .6399994 .00050354006 .59098818 .00050354006 .58299258 .06651306 .57598879 .10551453L.56399539 .1835022C.5529938 .25350953 .5299988 .30751039 .43499757 .34051515 .45399476 .34750367 .47399903 .35150147 .49299623 .35951234 .548996 .38452149 .60398867 .4295349 .6100006 .49453736V.5025482C.6100006 .61756899 .47399903 .6755829 .37998963 .68258669 .36299134 .68359377 .34700013 .68359377 .32998658 .68359377H.033996583M.22299195 .35351563V.61557009C.22299195 .6415863 .23298645 .650589 .2579956 .6525879H.33099366C.4119873 .6525879 .5069885 .63157656 .5069885 .50354006 .5069885 .3645172 .39698792 .35351563 .30899049 .35351563H.22299195Z"/>
<path id="font_78_23" d="M.11199951 .3812256C.13699341 .41223146 .18099976 .426239 .21798706 .426239 .2919922 .426239 .32499696 .3592224 .32499696 .288208V.26220704C.20999146 .26220704 .040985109 .22619629 .040985109 .095214847V.08721924C.04899597 .010223389 .1459961-.009765625 .20298767-.009765625 .2539978-.009765625 .31900025 .024230957 .33198548 .07522583H.33299256C.33898927 .032226564 .3659973-.004776001 .41099549-.004776001 .45199586-.004776001 .48799134 .02822876 .49299623 .07322693V.14620972H.46798707V.095214847C.46798707 .068222049 .46299745 .02722168 .43199159 .02722168 .3999939 .02722168 .394989 .066223148 .394989 .09321594V.26020814C.394989 .27320863 .3959961 .28520204 .3959961 .29821778 .3959961 .39523316 .30499269 .4482422 .22200012 .4482422 .15899658 .4482422 .069992069 .41723634 .069992069 .33721925 .069992069 .30822755 .09098816 .28923036 .116989139 .28923036 .14498902 .28923036 .1619873 .31123353 .1619873 .3352356 .1619873 .3642273 .13899231 .38124085 .11199951 .38124085V.3812256M.32499696 .24121094V.14021302C.32499696 .07122803 .2769928 .016220093 .21199036 .01222229H.20799256C.16099549 .01222229 .11898804 .049224855 .11898804 .097213748V.10221863C.12599182 .2032013 .23899842 .23820496 .32499696 .24121094Z"/>
<path id="font_78_28" d="M.3039856 .6843109V.6533203H.31999208C.35499574 .6533203 .38198854 .6493225 .38198854 .5913391L.3809967 .38136292C.35699464 .42137147 .2999878 .4423828 .2539978 .4423828 .1309967 .4423828 .032989503 .3363495 .032989503 .21530152 .032989503 .10826111 .114990238-.009765625 .24699402-.009765625 .29899598-.009765625 .34599305 .0152282719 .3789978 .055236818V-.009765625L.5269928 .0012207031V.032226564H.5099945C.47898866 .032226564 .44898988 .035232545 .44898988 .08224487V.6953125L.3039856 .6843109M.116989139 .19128418V.20629883C.116989139 .2803192 .12599182 .35534669 .19499207 .4013672 .21499634 .41337586 .23799134 .42037965 .26098634 .42037965 .30999757 .42037965 .37998963 .38035584 .37998963 .31733705 .37998963 .30433656 .3789978 .2913208 .3789978 .2783203V.11225891C.3789978 .09925842 .37399293 .09025574 .36698915 .08024597 .34098817 .041244508 .2979889 .01222229 .25099183 .01222229 .17799378 .01222229 .13198853 .07925415 .12098694 .14826966 .11898804 .16227722 .11898804 .17729187 .116989139 .19128418Z"/>
<path id="font_78_40" d="M.03199768 .43138124V.4003601H.04699707C.07998657 .4003601 .10998535 .39735414 .10998535 .35029603V.074020389C.10998535 .032974245 .08198547 .031967164 .037994386 .031967164H.03199768V.0009765625H.2579956V.031967164H.23199463C.20399475 .031967164 .17999268 .035980226 .17999268 .073013309V.25621034C.17999268 .32928468 .21998596 .42037965 .31599427 .42037965 .37998963 .42037965 .3869934 .35430909 .3869934 .30825807V.070007327C.3869934 .033966066 .35699464 .031967164 .32398988 .031967164H.30899049V.0009765625H.5349884V.031967164H.5089874C.48098756 .031967164 .45700074 .035980226 .45700074 .073013309V.25621034C.45700074 .32928468 .49699403 .42037965 .59298709 .42037965 .6569977 .42037965 .6639862 .35430909 .6639862 .30825807V.070007327C.6639862 .033966066 .6339874 .031967164 .6009979 .031967164H.58599856V.0009765625H.81199648V.031967164H.79100039C.7609863 .031967164 .73399356 .034973146 .73399356 .070007327V.2962494C.73399356 .33328248 .7319946 .36631776 .70799258 .4003601 .6819916 .43338014 .6389923 .4423828 .598999 .4423828 .5339966 .4423828 .48098756 .4043579 .45399476 .34629823 .43499757 .41737367 .3899994 .4423828 .32099916 .4423828 .25698854 .4423828 .19599915 .402359 .1749878 .34028626L.17399597 .4423828 .03199768 .43138124Z"/>
<path id="font_78_6" d="M.032989503 .68066409V.6496582C.04598999 .6496582 .05899048 .65065 .070999149 .65065 .10699463 .65065 .13598633 .6456604 .13598633 .60572817V.07499695C.13598633 .036972047 .102996829 .030975342 .068984989 .030975342 .055999757 .030975342 .04399109 .031967164 .032989503 .031967164V.0009765625H.35299684V.031967164C.33898927 .031967164 .32199098 .030975342 .30499269 .030975342 .25498963 .030975342 .22499085 .034973146 .22499085 .08100891V.32617188H.30899049C.34298707 .32617188 .38398744 .3241577 .40299989 .2951355 .4169922 .27313233 .41799928 .24511719 .41799928 .2190857V.20909119H.44299317V.4739685H.41799928V.463974C.41799928 .4120636 .4079895 .36714173 .34700013 .35916139 .32899476 .35716249 .30999757 .35716249 .2919922 .35716249H.22499085V.61372378C.22499085 .6476593 .24499512 .6496582 .2659912 .6496582H.3829956C.43499757 .6496582 .49798585 .6476593 .5359955 .60873416 .57398989 .5688019 .5779877 .50790408 .58499148 .45599366H.6100006L.58200076 .68066409H.032989503Z"/>
<path id="font_78_49" d="M.026992798 .43138124V.4003601H.041992189C.07499695 .4003601 .10499573 .39735414 .10499573 .35029603V.074020389C.10499573 .032974245 .07699585 .031967164 .032989503 .031967164H.026992798V.0009765625H.2689972V.031967164C.25698854 .031967164 .24299622 .030975342 .23098755 .030975342 .19898987 .030975342 .17199707 .035980226 .17199707 .073013309V.20614624C.17199707 .2912445 .19198609 .42037965 .2899933 .42037965 .2939911 .42037965 .29699708 .42037965 .30099488 .41937257V.41836549C.28599549 .41236878 .27799989 .39634706 .27799989 .38032533 .27799989 .35731507 .29299928 .34129334 .31599427 .33728028 .34498597 .33728028 .3639984 .3553009 .3639984 .38032533 .3639984 .42037965 .32598878 .4423828 .2899933 .4423828 .23098755 .4423828 .17799378 .38934327 .16799927 .33528138L.16699219 .4423828 .026992798 .43138124Z"/>
<path id="font_78_4" d="M.033996583 .68359377V.6525879C.04699707 .6525879 .05999756 .6535797 .07199097 .6535797 .10798645 .6535797 .13699341 .6485901 .13699341 .60861209V.07493591C.13699341 .036972047 .10398865 .030975342 .069992069 .030975342 .056991579 .030975342 .04499817 .031967164 .033996583 .031967164V.0009765625H.3809967C.5099945 .0009765625 .6289978 .062942508 .6859894 .2088623 .70098879 .24983216 .70799258 .29281617 .70799258 .33677674 .70799258 .49269105 .6100006 .6605835 .43099977 .68258669 .4149933 .68359377 .397995 .68359377 .38198854 .68359377H.033996583M.6069946 .3117981V.29180909C.59799197 .18487549 .56399539 .07394409 .43899537 .04096985 .40899659 .031967164 .37998963 .031967164 .34899903 .031967164H.2630005C.23999024 .031967164 .22200012 .036972047 .22200012 .06794739 .22200012 .07493591 .22299195 .0819397 .22299195 .0879364V.58062747C.22299195 .5896301 .22200012 .59962466 .22200012 .60861209 .22200012 .64759829 .23699951 .6535797 .2649994 .6535797 .272995 .6535797 .2809906 .6525879 .2869873 .6525879H.35299684C.4229889 .6525879 .49198915 .63760378 .5419922 .57662966 .59599307 .511673 .60798647 .42773438 .60798647 .34477235V.33477784C.60798647 .32678224 .60798647 .3197937 .6069946 .3117981Z"/>
<path id="font_78_25" d="M.35899354 .38723756C.33299256 .38523866 .31199647 .36923219 .31199647 .3412323 .31199647 .3142395 .33099366 .29522706 .35798646 .29522706 .3880005 .29522706 .4039917 .31723023 .4039917 .3452301V.3512268C.3939972 .4242401 .30899049 .4482422 .25099183 .4482422 .1289978 .4482422 .032989503 .3412323 .032989503 .21723938 .032989503 .10423279 .12098694-.009765625 .25-.009765625 .31599427-.009765625 .3809967 .026229859 .4079895 .096221927 .4099884 .10223389 .4149933 .11123657 .4149933 .1182251 .4149933 .12522888 .4099884 .13023377 .40299989 .13023377 .3880005 .13023377 .3789978 .09222412 .37199403 .07922363 .34799195 .040222169 .30699159 .016220093 .2619934 .0152282719 .15499878 .0152282719 .12199402 .1222229 .116989139 .20123291V.21322632C.116989139 .29322816 .13598633 .41323854 .24598694 .42323304H.2539978C.29100038 .42323304 .32998658 .41223146 .35899354 .38723756Z"/>
<path id="font_78_36" d="M.036987306 .430542V.3995819H.055999757C.084991458 .3995819 .11099243 .3955841 .11099243 .34962464V.07292175C.11099243 .037963869 .09298706 .031967164 .032989503 .031967164V.0009765625H.24798584V.031967164H.22799683C.20199585 .031967164 .17799378 .034973146 .17799378 .06692505V.44154359L.036987306 .430542M.12098694 .6689453C.09599304 .66589358 .07598877 .64382937 .07598877 .61672976 .07598877 .5876312 .100997928 .5635376 .1289978 .5635376 .1559906 .5635376 .18199158 .58561709 .18199158 .61672976 .18199158 .64582827 .15699768 .6699219 .1289978 .6699219 .12599182 .66993716 .12399292 .6689453 .12098694 .6689453Z"/>
<path id="font_78_19" d="M.054992677 .6777344 .035995485 .45280458H.06098938C.06498718 .50479128 .067993167 .5757599 .09899902 .6097412 .1329956 .6447296 .18998719 .64772036 .23599243 .64772036H.26098634C.28799439 .64772036 .31599427 .64772036 .31599427 .613739V.07695007C.31599427 .036972047 .27598573 .030975342 .23999024 .030975342 .22698975 .030975342 .21398926 .031967164 .20399475 .031967164H.17098999V.0009765625H.5499878V.031967164H.48199464C.44299317 .031967164 .40499879 .035964967 .40499879 .07695007V.613739C.40499879 .6427307 .42199708 .64772036 .45999146 .64772036H.4850006C.5309906 .64772036 .58799746 .6447296 .621994 .6097412 .6529999 .5757599 .6559906 .50479128 .6599884 .45280458H.68499758L.66600039 .6777344H.054992677Z"/>
</defs>
<path transform="matrix(1,0,0,-1,.19980049,67.8763)" d="M0 0V20.377C0 22.578 1.784 24.362 3.985 24.362H52.709C54.909 24.362 56.694 22.578 56.694 20.377V0C56.694-2.201 54.909-3.985 52.709-3.985H3.985C1.784-3.985 0-2.201 0 0Z" fill="#cbebe1"/>
<path transform="matrix(1,0,0,-1,.19980049,67.8763)" stroke-width=".398" stroke-linecap="butt" stroke-miterlimit="10" stroke-linejoin="miter" fill="none" stroke="#000000" d="M0 0V20.377C0 22.578 1.784 24.362 3.985 24.362H52.709C54.909 24.362 56.694 22.578 56.694 20.377V0C56.694-2.201 54.909-3.985 52.709-3.985H3.985C1.784-3.985 0-2.201 0 0Z"/>
<use data-text="D" xlink:href="#font_74_2" transform="matrix(20.663,0,0,-20.663,5.915,63.198999)"/>
<use data-text="t" xlink:href="#font_75_41" transform="matrix(14.346,0,0,-14.346,21.854,66.298)"/>
<use data-text="r" xlink:href="#font_75_39" transform="matrix(14.346,0,0,-14.346,27.16202,66.298)"/>
<use data-text="a" xlink:href="#font_75_19" transform="matrix(14.346,0,0,-14.346,32.47004,66.298)"/>
<use data-text="i" xlink:href="#font_75_27" transform="matrix(14.346,0,0,-14.346,39.298738,66.298)"/>
<use data-text="n" xlink:href="#font_75_31" transform="matrix(14.346,0,0,-14.346,43.086084,66.298)"/>
<path transform="matrix(1,0,0,-1,93.7444,110.39649)" d="M0 0V105.417C0 107.618 1.784 109.402 3.985 109.402H475.076C477.277 109.402 479.061 107.618 479.061 105.417V0C479.061-2.201 477.277-3.985 475.076-3.985H3.985C1.784-3.985 0-2.201 0 0Z" fill="#ebeef4"/>
<path transform="matrix(1,0,0,-1,93.7444,110.39649)" stroke-width="1.993" stroke-linecap="butt" stroke-miterlimit="10" stroke-linejoin="miter" fill="none" stroke="#3b528b" d="M0 0V105.417C0 107.618 1.784 109.402 3.985 109.402H475.076C477.277 109.402 479.061 107.618 479.061 105.417V0C479.061-2.201 477.277-3.985 475.076-3.985H3.985C1.784-3.985 0-2.201 0 0Z"/>
<path transform="matrix(1,0,0,-1,283.6679,57.687997)" stroke-width="9.963" stroke-linecap="butt" stroke-miterlimit="10" stroke-linejoin="miter" fill="none" stroke="#cbcbcb" d="M0 0H59.03"/>
<path transform="matrix(1,0,0,-1,113.58699,20.83709)" stroke-width="9.963" stroke-linecap="butt" stroke-miterlimit="10" stroke-linejoin="miter" fill="none" stroke="#e0e0e0" d="M0 0H155.409"/>
<path transform="matrix(1,0,0,-1,170.2807,20.83709)" stroke-width="2.989" stroke-linecap="butt" stroke-miterlimit="10" stroke-linejoin="miter" fill="none" stroke="#d8dce8" d="M0 0H8.122"/>
<path transform="matrix(1,0,0,-1,183.14646,20.837059)" d="M0 0-4.339 3.507V0-3.507Z" fill="#d8dce8"/>
<path transform="matrix(1,0,0,-1,183.14646,20.837059)" stroke-width="1.619" stroke-linecap="butt" stroke-linejoin="round" fill="none" stroke="#d8dce8" d="M0 0-4.339 3.507V0-3.507Z"/>
<path transform="matrix(1,0,0,-1,241.1477,20.83709)" stroke-width="2.989" stroke-linecap="butt" stroke-miterlimit="10" stroke-linejoin="miter" fill="none" stroke="#d8dce8" d="M0 0H8.122"/>
<path transform="matrix(1,0,0,-1,254.01349,20.837059)" d="M0 0-4.339 3.507V0-3.507Z" fill="#d8dce8"/>
<path transform="matrix(1,0,0,-1,254.01349,20.837059)" stroke-width="1.619" stroke-linecap="butt" stroke-linejoin="round" fill="none" stroke="#d8dce8" d="M0 0-4.339 3.507V0-3.507Z"/>
<path transform="matrix(1,0,0,-1,113.58699,57.687997)" stroke-width="9.963" stroke-linecap="butt" stroke-miterlimit="10" stroke-linejoin="miter" fill="none" stroke="#cbcbcb" d="M0 0H155.409"/>
<path transform="matrix(1,0,0,-1,170.2807,57.687997)" stroke-width="2.989" stroke-linecap="butt" stroke-miterlimit="10" stroke-linejoin="miter" fill="none" stroke="#d8dce8" d="M0 0H8.122"/>
<path transform="matrix(1,0,0,-1,183.14646,57.688)" d="M0 0-4.339 3.507V0-3.507Z" fill="#d8dce8"/>
<path transform="matrix(1,0,0,-1,183.14646,57.688)" stroke-width="1.619" stroke-linecap="butt" stroke-linejoin="round" fill="none" stroke="#d8dce8" d="M0 0-4.339 3.507V0-3.507Z"/>
<path transform="matrix(1,0,0,-1,241.1477,57.687997)" stroke-width="2.989" stroke-linecap="butt" stroke-miterlimit="10" stroke-linejoin="miter" fill="none" stroke="#d8dce8" d="M0 0H8.122"/>
<path transform="matrix(1,0,0,-1,254.01349,57.688)" d="M0 0-4.339 3.507V0-3.507Z" fill="#d8dce8"/>
<path transform="matrix(1,0,0,-1,254.01349,57.688)" stroke-width="1.619" stroke-linecap="butt" stroke-linejoin="round" fill="none" stroke="#d8dce8" d="M0 0-4.339 3.507V0-3.507Z"/>
<path transform="matrix(1,0,0,-1,113.58699,94.538898)" stroke-width="9.963" stroke-linecap="butt" stroke-miterlimit="10" stroke-linejoin="miter" fill="none" stroke="#e0e0e0" d="M0 0H155.409"/>
<path transform="matrix(1,0,0,-1,170.2807,94.538898)" stroke-width="2.989" stroke-linecap="butt" stroke-miterlimit="10" stroke-linejoin="miter" fill="none" stroke="#d8dce8" d="M0 0H8.122"/>
<path transform="matrix(1,0,0,-1,183.14646,94.53892)" d="M0 0-4.339 3.507V0-3.507Z" fill="#d8dce8"/>
<path transform="matrix(1,0,0,-1,183.14646,94.53892)" stroke-width="1.619" stroke-linecap="butt" stroke-linejoin="round" fill="none" stroke="#d8dce8" d="M0 0-4.339 3.507V0-3.507Z"/>
<path transform="matrix(1,0,0,-1,241.1477,94.538898)" stroke-width="2.989" stroke-linecap="butt" stroke-miterlimit="10" stroke-linejoin="miter" fill="none" stroke="#d8dce8" d="M0 0H8.122"/>
<path transform="matrix(1,0,0,-1,254.01349,94.53892)" d="M0 0-4.339 3.507V0-3.507Z" fill="#d8dce8"/>
<path transform="matrix(1,0,0,-1,254.01349,94.53892)" stroke-width="1.619" stroke-linecap="butt" stroke-linejoin="round" fill="none" stroke="#d8dce8" d="M0 0-4.339 3.507V0-3.507Z"/>
<path transform="matrix(1,0,0,-1,326.1881,57.687997)" stroke-width="2.989" stroke-linecap="butt" stroke-miterlimit="10" stroke-linejoin="miter" fill="none" stroke="#d8dce8" d="M0 0H8.122"/>
<path transform="matrix(1,0,0,-1,339.05393,57.688)" d="M0 0-4.339 3.507V0-3.507Z" fill="#d8dce8"/>
<path transform="matrix(1,0,0,-1,339.05393,57.688)" stroke-width="1.619" stroke-linecap="butt" stroke-linejoin="round" fill="none" stroke="#d8dce8" d="M0 0-4.339 3.507V0-3.507Z"/>
<path transform="matrix(1,0,0,-1,408.3937,20.83709)" stroke-width="9.963" stroke-linecap="butt" stroke-miterlimit="10" stroke-linejoin="miter" fill="none" stroke="#cbcbcb" d="M0 0H90.212"/>
<path transform="matrix(1,0,0,-1,411.2285,20.83709)" stroke-width="2.989" stroke-linecap="butt" stroke-miterlimit="10" stroke-linejoin="miter" fill="none" stroke="#d8dce8" d="M0 0H8.122"/>
<path transform="matrix(1,0,0,-1,424.09434,20.837059)" d="M0 0-4.339 3.507V0-3.507Z" fill="#d8dce8"/>
<path transform="matrix(1,0,0,-1,424.09434,20.837059)" stroke-width="1.619" stroke-linecap="butt" stroke-linejoin="round" fill="none" stroke="#d8dce8" d="M0 0-4.339 3.507V0-3.507Z"/>
<path transform="matrix(1,0,0,-1,482.0956,20.83709)" stroke-width="2.989" stroke-linecap="butt" stroke-miterlimit="10" stroke-linejoin="miter" fill="none" stroke="#d8dce8" d="M0 0H8.122"/>
<path transform="matrix(1,0,0,-1,494.96138,20.837059)" d="M0 0-4.339 3.507V0-3.507Z" fill="#d8dce8"/>
<path transform="matrix(1,0,0,-1,494.96138,20.837059)" stroke-width="1.619" stroke-linecap="butt" stroke-linejoin="round" fill="none" stroke="#d8dce8" d="M0 0-4.339 3.507V0-3.507Z"/>
<path transform="matrix(1,0,0,-1,408.3937,57.687997)" stroke-width="9.963" stroke-linecap="butt" stroke-miterlimit="10" stroke-linejoin="miter" fill="none" stroke="#e0e0e0" d="M0 0H90.212"/>
<path transform="matrix(1,0,0,-1,411.2285,57.687997)" stroke-width="2.989" stroke-linecap="butt" stroke-miterlimit="10" stroke-linejoin="miter" fill="none" stroke="#d8dce8" d="M0 0H8.122"/>
<path transform="matrix(1,0,0,-1,424.09434,57.688)" d="M0 0-4.339 3.507V0-3.507Z" fill="#d8dce8"/>
<path transform="matrix(1,0,0,-1,424.09434,57.688)" stroke-width="1.619" stroke-linecap="butt" stroke-linejoin="round" fill="none" stroke="#d8dce8" d="M0 0-4.339 3.507V0-3.507Z"/>
<path transform="matrix(1,0,0,-1,482.0956,57.687997)" stroke-width="2.989" stroke-linecap="butt" stroke-miterlimit="10" stroke-linejoin="miter" fill="none" stroke="#d8dce8" d="M0 0H8.122"/>
<path transform="matrix(1,0,0,-1,494.96138,57.688)" d="M0 0-4.339 3.507V0-3.507Z" fill="#d8dce8"/>
<path transform="matrix(1,0,0,-1,494.96138,57.688)" stroke-width="1.619" stroke-linecap="butt" stroke-linejoin="round" fill="none" stroke="#d8dce8" d="M0 0-4.339 3.507V0-3.507Z"/>
<path transform="matrix(1,0,0,-1,408.3937,94.538898)" stroke-width="9.963" stroke-linecap="butt" stroke-miterlimit="10" stroke-linejoin="miter" fill="none" stroke="#e0e0e0" d="M0 0H90.212"/>
<path transform="matrix(1,0,0,-1,411.2285,94.538898)" stroke-width="2.989" stroke-linecap="butt" stroke-miterlimit="10" stroke-linejoin="miter" fill="none" stroke="#d8dce8" d="M0 0H8.122"/>
<path transform="matrix(1,0,0,-1,424.09434,94.53892)" d="M0 0-4.339 3.507V0-3.507Z" fill="#d8dce8"/>
<path transform="matrix(1,0,0,-1,424.09434,94.53892)" stroke-width="1.619" stroke-linecap="butt" stroke-linejoin="round" fill="none" stroke="#d8dce8" d="M0 0-4.339 3.507V0-3.507Z"/>
<path transform="matrix(1,0,0,-1,482.0956,94.538898)" stroke-width="2.989" stroke-linecap="butt" stroke-miterlimit="10" stroke-linejoin="miter" fill="none" stroke="#d8dce8" d="M0 0H8.122"/>
<path transform="matrix(1,0,0,-1,494.96138,94.53892)" d="M0 0-4.339 3.507V0-3.507Z" fill="#d8dce8"/>
<path transform="matrix(1,0,0,-1,494.96138,94.53892)" stroke-width="1.619" stroke-linecap="butt" stroke-linejoin="round" fill="none" stroke="#d8dce8" d="M0 0-4.339 3.507V0-3.507Z"/>
<path transform="matrix(1,0,0,-1,99.413608,104.72719)" d="M0 0V94.078C0 96.279 1.784 98.064 3.985 98.064H66.882C69.083 98.064 70.867 96.279 70.867 94.078V0C70.867-2.201 69.083-3.985 66.882-3.985H3.985C1.784-3.985 0-2.201 0 0Z" fill="#e4f1f1"/>
<path transform="matrix(1,0,0,-1,99.413608,104.72719)" stroke-width=".398" stroke-linecap="butt" stroke-miterlimit="10" stroke-linejoin="miter" fill="none" stroke="#000000" d="M0 0V94.078C0 96.279 1.784 98.064 3.985 98.064H66.882C69.083 98.064 70.867 96.279 70.867 94.078V0C70.867-2.201 69.083-3.985 66.882-3.985H3.985C1.784-3.985 0-2.201 0 0Z"/>
<use data-text="p" xlink:href="#font_76_21" transform="matrix(8.966,0,0,-8.966,106.608,48.846)"/>
<use data-text="o" xlink:href="#font_76_20" transform="matrix(8.966,0,0,-8.966,111.315158,48.846)"/>
<use data-text="(" xlink:href="#font_76_22" transform="matrix(8.966,0,0,-8.966,116.02231,48.846)"/>
<use data-text="&quot;" xlink:href="#font_76_25" transform="matrix(8.966,0,0,-8.966,120.72946,48.846)"/>
<use data-text="b" xlink:href="#font_76_5" transform="matrix(8.966,0,0,-8.966,125.436618,48.846)"/>
<use data-text="r" xlink:href="#font_76_26" transform="matrix(8.966,0,0,-8.966,130.14377,48.846)"/>
<use data-text="a" xlink:href="#font_76_4" transform="matrix(8.966,0,0,-8.966,134.85092,48.846)"/>
<use data-text="n" xlink:href="#font_76_19" transform="matrix(8.966,0,0,-8.966,139.55808,48.846)"/>
<use data-text="c" xlink:href="#font_76_8" transform="matrix(8.966,0,0,-8.966,144.26523,48.846)"/>
<use data-text="h" xlink:href="#font_76_15" transform="matrix(8.966,0,0,-8.966,148.97238,48.846)"/>
<use data-text="&quot;" xlink:href="#font_76_25" transform="matrix(8.966,0,0,-8.966,153.67954,48.846)"/>
<use data-text="," xlink:href="#font_76_9" transform="matrix(8.966,0,0,-8.966,158.38669,48.846)"/>
<use data-text="s" xlink:href="#font_76_27" transform="matrix(8.966,0,0,-8.966,108.961,59.805)"/>
<use data-text="e" xlink:href="#font_76_12" transform="matrix(8.966,0,0,-8.966,113.66815,59.805)"/>
<use data-text="l" xlink:href="#font_76_17" transform="matrix(8.966,0,0,-8.966,118.375308,59.805)"/>
<use data-text="e" xlink:href="#font_76_12" transform="matrix(8.966,0,0,-8.966,123.08246,59.805)"/>
<use data-text="c" xlink:href="#font_76_8" transform="matrix(8.966,0,0,-8.966,127.78961,59.805)"/>
<use data-text="t" xlink:href="#font_76_28" transform="matrix(8.966,0,0,-8.966,132.49677,59.805)"/>
<use data-text="i" xlink:href="#font_76_16" transform="matrix(8.966,0,0,-8.966,137.20392,59.805)"/>
<use data-text="o" xlink:href="#font_76_20" transform="matrix(8.966,0,0,-8.966,141.91107,59.805)"/>
<use data-text="n" xlink:href="#font_76_19" transform="matrix(8.966,0,0,-8.966,146.61823,59.805)"/>
<use data-text="=" xlink:href="#font_76_13" transform="matrix(8.966,0,0,-8.966,156.03253,59.805)"/>
<use data-text="&quot;" xlink:href="#font_76_25" transform="matrix(8.966,0,0,-8.966,120.726,70.764)"/>
<use data-text="p" xlink:href="#font_76_21" transform="matrix(8.966,0,0,-8.966,125.43315,70.764)"/>
<use data-text="c" xlink:href="#font_76_8" transform="matrix(8.966,0,0,-8.966,130.1403,70.764)"/>
<use data-text="a" xlink:href="#font_76_4" transform="matrix(8.966,0,0,-8.966,134.84746,70.764)"/>
<use data-text="&quot;" xlink:href="#font_76_25" transform="matrix(8.966,0,0,-8.966,139.55461,70.764)"/>
<use data-text=")" xlink:href="#font_76_23" transform="matrix(8.966,0,0,-8.966,144.26177,70.764)"/>
<path transform="matrix(1,0,0,-1,184.4541,31.02539)" d="M0 0V20.377C0 22.578 1.784 24.362 3.985 24.362H52.709C54.909 24.362 56.694 22.578 56.694 20.377V0C56.694-2.201 54.909-3.985 52.709-3.985H3.985C1.784-3.985 0-2.201 0 0Z" fill="#f1f8f8"/>
<path transform="matrix(1,0,0,-1,184.4541,31.02539)" stroke-width=".398" stroke-linecap="butt" stroke-miterlimit="10" stroke-linejoin="miter" fill="none" stroke="#cbcbcb" d="M0 0V20.377C0 22.578 1.784 24.362 3.985 24.362H52.709C54.909 24.362 56.694 22.578 56.694 20.377V0C56.694-2.201 54.909-3.985 52.709-3.985H3.985C1.784-3.985 0-2.201 0 0Z"/>
<use data-text="P" xlink:href="#font_77_5" transform="matrix(8.966,0,0,-8.966,187.333,23.055)" fill="#cbcbcb"/>
<use data-text="i" xlink:href="#font_77_10" transform="matrix(8.966,0,0,-8.966,193.60022,23.055)" fill="#cbcbcb"/>
<use data-text="p" xlink:href="#font_77_14" transform="matrix(8.966,0,0,-8.966,196.15554,23.055)" fill="#cbcbcb"/>
<use data-text="e" xlink:href="#font_77_6" transform="matrix(8.966,0,0,-8.966,201.536,23.055)" fill="#cbcbcb"/>
<use data-text="O" xlink:href="#font_77_4" transform="matrix(8.966,0,0,-8.966,205.63346,23.055)" fill="#cbcbcb"/>
<use data-text="p" xlink:href="#font_77_14" transform="matrix(8.966,0,0,-8.966,212.79729,23.055)" fill="#cbcbcb"/>
<use data-text="N" xlink:href="#font_77_3" transform="matrix(8.966,0,0,-8.966,217.91687,23.055)" fill="#cbcbcb"/>
<use data-text="O" xlink:href="#font_77_4" transform="matrix(8.966,0,0,-8.966,224.82965,23.055)" fill="#cbcbcb"/>
<use data-text="P" xlink:href="#font_77_5" transform="matrix(8.966,0,0,-8.966,231.99349,23.055)" fill="#cbcbcb"/>
<path transform="matrix(1,0,0,-1,184.4541,67.8763)" d="M0 0V20.377C0 22.578 1.784 24.362 3.985 24.362H52.709C54.909 24.362 56.694 22.578 56.694 20.377V0C56.694-2.201 54.909-3.985 52.709-3.985H3.985C1.784-3.985 0-2.201 0 0Z" fill="#e4f1f1"/>
<path transform="matrix(1,0,0,-1,184.4541,67.8763)" stroke-width=".398" stroke-linecap="butt" stroke-miterlimit="10" stroke-linejoin="miter" fill="none" stroke="#000000" d="M0 0V20.377C0 22.578 1.784 24.362 3.985 24.362H52.709C54.909 24.362 56.694 22.578 56.694 20.377V0C56.694-2.201 54.909-3.985 52.709-3.985H3.985C1.784-3.985 0-2.201 0 0Z"/>
<use data-text="P" xlink:href="#font_78_15" transform="matrix(9.963,0,0,-9.963,202.077,61.12)"/>
<use data-text="C" xlink:href="#font_78_3" transform="matrix(9.963,0,0,-9.963,208.85184,61.12)"/>
<use data-text="A" xlink:href="#font_78_1" transform="matrix(9.963,0,0,-9.963,216.04512,61.12)"/>
<path transform="matrix(1,0,0,-1,184.4541,104.72719)" d="M0 0V20.377C0 22.578 1.784 24.362 3.985 24.362H52.709C54.909 24.362 56.694 22.578 56.694 20.377V0C56.694-2.201 54.909-3.985 52.709-3.985H3.985C1.784-3.985 0-2.201 0 0Z" fill="#f1f8f8"/>
<path transform="matrix(1,0,0,-1,184.4541,104.72719)" stroke-width=".398" stroke-linecap="butt" stroke-miterlimit="10" stroke-linejoin="miter" fill="none" stroke="#cbcbcb" d="M0 0V20.377C0 22.578 1.784 24.362 3.985 24.362H52.709C54.909 24.362 56.694 22.578 56.694 20.377V0C56.694-2.201 54.909-3.985 52.709-3.985H3.985C1.784-3.985 0-2.201 0 0Z"/>
<use data-text="Y" xlink:href="#font_78_22" transform="matrix(9.963,0,0,-9.963,186.97,97.97)" fill="#cbcbcb"/>
<use data-text="e" xlink:href="#font_78_29" transform="matrix(9.963,0,0,-9.963,193.61531,97.97)" fill="#cbcbcb"/>
<use data-text="o" xlink:href="#font_78_42" transform="matrix(9.963,0,0,-9.963,198.03888,97.97)" fill="#cbcbcb"/>
<use data-text="J" xlink:href="#font_78_10" transform="matrix(9.963,0,0,-9.963,203.02039,97.97)" fill="#cbcbcb"/>
<use data-text="o" xlink:href="#font_78_42" transform="matrix(9.963,0,0,-9.963,208.14138,97.97)" fill="#cbcbcb"/>
<use data-text="h" xlink:href="#font_78_34" transform="matrix(9.963,0,0,-9.963,213.12288,97.97)" fill="#cbcbcb"/>
<use data-text="n" xlink:href="#font_78_41" transform="matrix(9.963,0,0,-9.963,218.65235,97.97)" fill="#cbcbcb"/>
<use data-text="s" xlink:href="#font_78_50" transform="matrix(9.963,0,0,-9.963,224.18181,97.97)" fill="#cbcbcb"/>
<use data-text="o" xlink:href="#font_78_42" transform="matrix(9.963,0,0,-9.963,228.10723,97.97)" fill="#cbcbcb"/>
<use data-text="n" xlink:href="#font_78_41" transform="matrix(9.963,0,0,-9.963,233.08873,97.97)" fill="#cbcbcb"/>
<path transform="matrix(1,0,0,-1,255.3211,104.72719)" d="M0 0V94.078C0 96.279 1.784 98.064 3.985 98.064H66.882C69.083 98.064 70.867 96.279 70.867 94.078V0C70.867-2.201 69.083-3.985 66.882-3.985H3.985C1.784-3.985 0-2.201 0 0Z" fill="#e4f1f1"/>
<path transform="matrix(1,0,0,-1,255.3211,104.72719)" stroke-width=".398" stroke-linecap="butt" stroke-miterlimit="10" stroke-linejoin="miter" fill="none" stroke="#000000" d="M0 0V94.078C0 96.279 1.784 98.064 3.985 98.064H66.882C69.083 98.064 70.867 96.279 70.867 94.078V0C70.867-2.201 69.083-3.985 66.882-3.985H3.985C1.784-3.985 0-2.201 0 0Z"/>
<use data-text="p" xlink:href="#font_76_21" transform="matrix(8.966,0,0,-8.966,257.807,59.804998)"/>
<use data-text="o" xlink:href="#font_76_20" transform="matrix(8.966,0,0,-8.966,262.51417,59.804998)"/>
<use data-text="(" xlink:href="#font_76_22" transform="matrix(8.966,0,0,-8.966,267.2213,59.804998)"/>
<use data-text="&quot;" xlink:href="#font_76_25" transform="matrix(8.966,0,0,-8.966,271.92848,59.804998)"/>
<use data-text="u" xlink:href="#font_76_29" transform="matrix(8.966,0,0,-8.966,276.63563,59.804998)"/>
<use data-text="n" xlink:href="#font_76_19" transform="matrix(8.966,0,0,-8.966,281.34278,59.804998)"/>
<use data-text="b" xlink:href="#font_76_5" transform="matrix(8.966,0,0,-8.966,286.04994,59.804998)"/>
<use data-text="r" xlink:href="#font_76_26" transform="matrix(8.966,0,0,-8.966,290.75709,59.804998)"/>
<use data-text="a" xlink:href="#font_76_4" transform="matrix(8.966,0,0,-8.966,295.46424,59.804998)"/>
<use data-text="n" xlink:href="#font_76_19" transform="matrix(8.966,0,0,-8.966,300.1714,59.804998)"/>
<use data-text="c" xlink:href="#font_76_8" transform="matrix(8.966,0,0,-8.966,304.87855,59.804998)"/>
<use data-text="h" xlink:href="#font_76_15" transform="matrix(8.966,0,0,-8.966,309.5857,59.804998)"/>
<use data-text="&quot;" xlink:href="#font_76_25" transform="matrix(8.966,0,0,-8.966,314.29286,59.804998)"/>
<use data-text=")" xlink:href="#font_76_23" transform="matrix(8.966,0,0,-8.966,319,59.804998)"/>
<path transform="matrix(1,0,0,-1,340.3615,104.72719)" d="M0 0V94.078C0 96.279 1.784 98.064 3.985 98.064H66.882C69.083 98.064 70.867 96.279 70.867 94.078V0C70.867-2.201 69.083-3.985 66.882-3.985H3.985C1.784-3.985 0-2.201 0 0Z" fill="#e4f1f1"/>
<path transform="matrix(1,0,0,-1,340.3615,104.72719)" stroke-width=".398" stroke-linecap="butt" stroke-miterlimit="10" stroke-linejoin="miter" fill="none" stroke="#000000" d="M0 0V94.078C0 96.279 1.784 98.064 3.985 98.064H66.882C69.083 98.064 70.867 96.279 70.867 94.078V0C70.867-2.201 69.083-3.985 66.882-3.985H3.985C1.784-3.985 0-2.201 0 0Z"/>
<use data-text="p" xlink:href="#font_76_21" transform="matrix(8.966,0,0,-8.966,347.552,49.469)"/>
<use data-text="o" xlink:href="#font_76_20" transform="matrix(8.966,0,0,-8.966,352.25917,49.469)"/>
<use data-text="(" xlink:href="#font_76_22" transform="matrix(8.966,0,0,-8.966,356.9663,49.469)"/>
<use data-text="&quot;" xlink:href="#font_76_25" transform="matrix(8.966,0,0,-8.966,361.67347,49.469)"/>
<use data-text="b" xlink:href="#font_76_5" transform="matrix(8.966,0,0,-8.966,366.3806,49.469)"/>
<use data-text="r" xlink:href="#font_76_26" transform="matrix(8.966,0,0,-8.966,371.08778,49.469)"/>
<use data-text="a" xlink:href="#font_76_4" transform="matrix(8.966,0,0,-8.966,375.79493,49.469)"/>
<use data-text="n" xlink:href="#font_76_19" transform="matrix(8.966,0,0,-8.966,380.50209,49.469)"/>
<use data-text="c" xlink:href="#font_76_8" transform="matrix(8.966,0,0,-8.966,385.20924,49.469)"/>
<use data-text="h" xlink:href="#font_76_15" transform="matrix(8.966,0,0,-8.966,389.91639,49.469)"/>
<use data-text="&quot;" xlink:href="#font_76_25" transform="matrix(8.966,0,0,-8.966,394.62355,49.469)"/>
<use data-text="," xlink:href="#font_76_9" transform="matrix(8.966,0,0,-8.966,399.3307,49.469)"/>
<use data-text="s" xlink:href="#font_76_27" transform="matrix(8.966,0,0,-8.966,349.906,60.428)"/>
<use data-text="e" xlink:href="#font_76_12" transform="matrix(8.966,0,0,-8.966,354.61317,60.428)"/>
<use data-text="l" xlink:href="#font_76_17" transform="matrix(8.966,0,0,-8.966,359.3203,60.428)"/>
<use data-text="e" xlink:href="#font_76_12" transform="matrix(8.966,0,0,-8.966,364.02748,60.428)"/>
<use data-text="c" xlink:href="#font_76_8" transform="matrix(8.966,0,0,-8.966,368.73463,60.428)"/>
<use data-text="t" xlink:href="#font_76_28" transform="matrix(8.966,0,0,-8.966,373.44178,60.428)"/>
<use data-text="i" xlink:href="#font_76_16" transform="matrix(8.966,0,0,-8.966,378.14894,60.428)"/>
<use data-text="o" xlink:href="#font_76_20" transform="matrix(8.966,0,0,-8.966,382.85609,60.428)"/>
<use data-text="n" xlink:href="#font_76_19" transform="matrix(8.966,0,0,-8.966,387.56324,60.428)"/>
<use data-text="=" xlink:href="#font_76_13" transform="matrix(8.966,0,0,-8.966,396.97755,60.428)"/>
<use data-text="&quot;" xlink:href="#font_76_25" transform="matrix(8.966,0,0,-8.966,352.259,71.387)"/>
<use data-text="X" xlink:href="#font_76_3" transform="matrix(8.966,0,0,-8.966,356.96617,71.387)"/>
<use data-text="G" xlink:href="#font_76_2" transform="matrix(8.966,0,0,-8.966,361.6733,71.387)"/>
<use data-text="B" xlink:href="#font_76_1" transform="matrix(8.966,0,0,-8.966,366.38047,71.387)"/>
<use data-text="o" xlink:href="#font_76_20" transform="matrix(8.966,0,0,-8.966,371.08763,71.387)"/>
<use data-text="o" xlink:href="#font_76_20" transform="matrix(8.966,0,0,-8.966,375.79478,71.387)"/>
<use data-text="s" xlink:href="#font_76_27" transform="matrix(8.966,0,0,-8.966,380.50193,71.387)"/>
<use data-text="t" xlink:href="#font_76_28" transform="matrix(8.966,0,0,-8.966,385.20909,71.387)"/>
<use data-text="&quot;" xlink:href="#font_76_25" transform="matrix(8.966,0,0,-8.966,389.91624,71.387)"/>
<use data-text=")" xlink:href="#font_76_23" transform="matrix(8.966,0,0,-8.966,394.62339,71.387)"/>
<path transform="matrix(1,0,0,-1,425.402,31.02539)" d="M0 0V20.377C0 22.578 1.784 24.362 3.985 24.362H52.708C54.909 24.362 56.694 22.578 56.694 20.377V0C56.694-2.201 54.909-3.985 52.708-3.985H3.985C1.784-3.985 0-2.201 0 0Z" fill="#79bcba"/>
<path transform="matrix(1,0,0,-1,425.402,31.02539)" stroke-width=".398" stroke-linecap="butt" stroke-miterlimit="10" stroke-linejoin="miter" fill="none" stroke="#000000" d="M0 0V20.377C0 22.578 1.784 24.362 3.985 24.362H52.708C54.909 24.362 56.694 22.578 56.694 20.377V0C56.694-2.201 54.909-3.985 52.708-3.985H3.985C1.784-3.985 0-2.201 0 0Z"/>
<use data-text="X" xlink:href="#font_78_21" transform="matrix(9.963,0,0,-9.963,433.691,24.268998)" fill="#ffffff"/>
<use data-text="G" xlink:href="#font_78_7" transform="matrix(9.963,0,0,-9.963,440.884,24.268998)" fill="#ffffff"/>
<use data-text="B" xlink:href="#font_78_2" transform="matrix(9.963,0,0,-9.963,448.70497,24.268998)" fill="#ffffff"/>
<use data-text="o" xlink:href="#font_78_42" transform="matrix(9.963,0,0,-9.963,455.75877,24.268998)" fill="#ffffff"/>
<use data-text="o" xlink:href="#font_78_42" transform="matrix(9.963,0,0,-9.963,461.0193,24.268998)" fill="#ffffff"/>
<use data-text="s" xlink:href="#font_78_50" transform="matrix(9.963,0,0,-9.963,466.0008,24.268998)" fill="#ffffff"/>
<use data-text="t" xlink:href="#font_78_51" transform="matrix(9.963,0,0,-9.963,469.9262,24.268998)" fill="#ffffff"/>
<path transform="matrix(1,0,0,-1,425.402,67.8763)" d="M0 0V20.377C0 22.578 1.784 24.362 3.985 24.362H52.708C54.909 24.362 56.694 22.578 56.694 20.377V0C56.694-2.201 54.909-3.985 52.708-3.985H3.985C1.784-3.985 0-2.201 0 0Z" fill="#bcdedd"/>
<path transform="matrix(1,0,0,-1,425.402,67.8763)" stroke-width=".398" stroke-linecap="butt" stroke-miterlimit="10" stroke-linejoin="miter" fill="none" stroke="#cbcbcb" d="M0 0V20.377C0 22.578 1.784 24.362 3.985 24.362H52.708C54.909 24.362 56.694 22.578 56.694 20.377V0C56.694-2.201 54.909-3.985 52.708-3.985H3.985C1.784-3.985 0-2.201 0 0Z"/>
<use data-text="R" xlink:href="#font_78_17" transform="matrix(9.963,0,0,-9.963,435.413,55.142)" fill="#ffffff"/>
<use data-text="a" xlink:href="#font_78_23" transform="matrix(9.963,0,0,-9.963,442.74577,55.142)" fill="#ffffff"/>
<use data-text="n" xlink:href="#font_78_41" transform="matrix(9.963,0,0,-9.963,447.72727,55.142)" fill="#ffffff"/>
<use data-text="d" xlink:href="#font_78_28" transform="matrix(9.963,0,0,-9.963,453.25675,55.142)" fill="#ffffff"/>
<use data-text="o" xlink:href="#font_78_42" transform="matrix(9.963,0,0,-9.963,458.78623,55.142)" fill="#ffffff"/>
<use data-text="m" xlink:href="#font_78_40" transform="matrix(9.963,0,0,-9.963,463.76774,55.142)" fill="#ffffff"/>
<use data-text="F" xlink:href="#font_78_6" transform="matrix(9.963,0,0,-9.963,440.35099,67.097)" fill="#ffffff"/>
<use data-text="o" xlink:href="#font_78_42" transform="matrix(9.963,0,0,-9.963,446.02989,67.097)" fill="#ffffff"/>
<use data-text="r" xlink:href="#font_78_49" transform="matrix(9.963,0,0,-9.963,451.01139,67.097)" fill="#ffffff"/>
<use data-text="e" xlink:href="#font_78_29" transform="matrix(9.963,0,0,-9.963,454.91688,67.097)" fill="#ffffff"/>
<use data-text="s" xlink:href="#font_78_50" transform="matrix(9.963,0,0,-9.963,459.34046,67.097)" fill="#ffffff"/>
<use data-text="t" xlink:href="#font_78_51" transform="matrix(9.963,0,0,-9.963,463.26588,67.097)" fill="#ffffff"/>
<path transform="matrix(1,0,0,-1,425.402,104.72719)" d="M0 0V20.377C0 22.578 1.784 24.362 3.985 24.362H52.708C54.909 24.362 56.694 22.578 56.694 20.377V0C56.694-2.201 54.909-3.985 52.708-3.985H3.985C1.784-3.985 0-2.201 0 0Z" fill="#bcdedd"/>
<path transform="matrix(1,0,0,-1,425.402,104.72719)" stroke-width=".398" stroke-linecap="butt" stroke-miterlimit="10" stroke-linejoin="miter" fill="none" stroke="#cbcbcb" d="M0 0V20.377C0 22.578 1.784 24.362 3.985 24.362H52.708C54.909 24.362 56.694 22.578 56.694 20.377V0C56.694-2.201 54.909-3.985 52.708-3.985H3.985C1.784-3.985 0-2.201 0 0Z"/>
<use data-text="D" xlink:href="#font_78_4" transform="matrix(9.963,0,0,-9.963,435.524,91.992)" fill="#ffffff"/>
<use data-text="e" xlink:href="#font_78_29" transform="matrix(9.963,0,0,-9.963,443.1357,91.992)" fill="#ffffff"/>
<use data-text="c" xlink:href="#font_78_25" transform="matrix(9.963,0,0,-9.963,447.5593,91.992)" fill="#ffffff"/>
<use data-text="i" xlink:href="#font_78_36" transform="matrix(9.963,0,0,-9.963,451.98289,91.992)" fill="#ffffff"/>
<use data-text="s" xlink:href="#font_78_50" transform="matrix(9.963,0,0,-9.963,454.7526,91.992)" fill="#ffffff"/>
<use data-text="i" xlink:href="#font_78_36" transform="matrix(9.963,0,0,-9.963,458.678,91.992)" fill="#ffffff"/>
<use data-text="o" xlink:href="#font_78_42" transform="matrix(9.963,0,0,-9.963,461.44773,91.992)" fill="#ffffff"/>
<use data-text="n" xlink:href="#font_78_41" transform="matrix(9.963,0,0,-9.963,466.42924,91.992)" fill="#ffffff"/>
<use data-text="T" xlink:href="#font_78_19" transform="matrix(9.963,0,0,-9.963,444.18299,103.948)" fill="#ffffff"/>
<use data-text="r" xlink:href="#font_78_49" transform="matrix(9.963,0,0,-9.963,450.54936,103.948)" fill="#ffffff"/>
<use data-text="e" xlink:href="#font_78_29" transform="matrix(9.963,0,0,-9.963,454.45484,103.948)" fill="#ffffff"/>
<use data-text="e" xlink:href="#font_78_29" transform="matrix(9.963,0,0,-9.963,458.87843,103.948)" fill="#ffffff"/>
<path transform="matrix(1,0,0,-1,496.269,104.72719)" d="M0 0V94.078C0 96.279 1.784 98.064 3.985 98.064H66.882C69.083 98.064 70.867 96.279 70.867 94.078V0C70.867-2.201 69.083-3.985 66.882-3.985H3.985C1.784-3.985 0-2.201 0 0Z" fill="#e4f1f1"/>
<path transform="matrix(1,0,0,-1,496.269,104.72719)" stroke-width=".398" stroke-linecap="butt" stroke-miterlimit="10" stroke-linejoin="miter" fill="none" stroke="#000000" d="M0 0V94.078C0 96.279 1.784 98.064 3.985 98.064H66.882C69.083 98.064 70.867 96.279 70.867 94.078V0C70.867-2.201 69.083-3.985 66.882-3.985H3.985C1.784-3.985 0-2.201 0 0Z"/>
<use data-text="p" xlink:href="#font_76_21" transform="matrix(8.966,0,0,-8.966,498.752,59.804998)"/>
<use data-text="o" xlink:href="#font_76_20" transform="matrix(8.966,0,0,-8.966,503.45918,59.804998)"/>
<use data-text="(" xlink:href="#font_76_22" transform="matrix(8.966,0,0,-8.966,508.16633,59.804998)"/>
<use data-text="&quot;" xlink:href="#font_76_25" transform="matrix(8.966,0,0,-8.966,512.8735,59.804998)"/>
<use data-text="u" xlink:href="#font_76_29" transform="matrix(8.966,0,0,-8.966,517.5806,59.804998)"/>
<use data-text="n" xlink:href="#font_76_19" transform="matrix(8.966,0,0,-8.966,522.2878,59.804998)"/>
<use data-text="b" xlink:href="#font_76_5" transform="matrix(8.966,0,0,-8.966,526.99496,59.804998)"/>
<use data-text="r" xlink:href="#font_76_26" transform="matrix(8.966,0,0,-8.966,531.7021,59.804998)"/>
<use data-text="a" xlink:href="#font_76_4" transform="matrix(8.966,0,0,-8.966,536.40927,59.804998)"/>
<use data-text="n" xlink:href="#font_76_19" transform="matrix(8.966,0,0,-8.966,541.1164,59.804998)"/>
<use data-text="c" xlink:href="#font_76_8" transform="matrix(8.966,0,0,-8.966,545.82357,59.804998)"/>
<use data-text="h" xlink:href="#font_76_15" transform="matrix(8.966,0,0,-8.966,550.5307,59.804998)"/>
<use data-text="&quot;" xlink:href="#font_76_25" transform="matrix(8.966,0,0,-8.966,555.23788,59.804998)"/>
<use data-text=")" xlink:href="#font_76_23" transform="matrix(8.966,0,0,-8.966,559.945,59.804998)"/>
<path transform="matrix(1,0,0,-1,56.8934,57.687997)" stroke-width="4.981" stroke-linecap="butt" stroke-miterlimit="10" stroke-linejoin="miter" fill="none" stroke="#a9a9a9" d="M0 0H33.96"/>
<path transform="matrix(1,0,0,-1,97.73245,57.688)" d="M0 0-6.287 4.884V0-4.884Z" fill="#a9a9a9"/>
<path transform="matrix(1,0,0,-1,97.73245,57.688)" stroke-width="2.366" stroke-linecap="butt" stroke-linejoin="round" fill="none" stroke="#a9a9a9" d="M0 0-6.287 4.884V0-4.884Z"/>
</svg>
