<svg xmlns="http://www.w3.org/2000/svg" xmlns:xlink="http://www.w3.org/1999/xlink" version="1.1" width="304.502pt" height="172.071pt" viewBox="0 0 304.502 172.071">
<defs>
<path id="font_89_11" d="M.032989503 .68359377V.6525879C.04598999 .6525879 .05899048 .6535797 .070999149 .6535797 .10699463 .6535797 .13598633 .6485901 .13598633 .60861209V.07493591C.13598633 .036972047 .102996829 .030975342 .068984989 .030975342 .055999757 .030975342 .04399109 .031967164 .032989503 .031967164V.0009765625H.55400088L.58200076 .25883485H.5569916C.548996 .17788697 .5359955 .061950685 .42099 .03996277 .3919983 .031967164 .36299134 .031967164 .33399964 .031967164H.2599945C.23999024 .033966066 .22499085 .038970949 .22499085 .06594849V.60861209C.22499085 .6485901 .26098634 .6535797 .2939911 .6535797 .30499269 .6535797 .31498719 .6525879 .32398988 .6525879H.35299684V.68359377H.032989503Z"/>
<path id="font_89_23" d="M.11199951 .3812256C.13699341 .41223146 .18099976 .426239 .21798706 .426239 .2919922 .426239 .32499696 .3592224 .32499696 .288208V.26220704C.20999146 .26220704 .040985109 .22619629 .040985109 .095214847V.08721924C.04899597 .010223389 .1459961-.009765625 .20298767-.009765625 .2539978-.009765625 .31900025 .024230957 .33198548 .07522583H.33299256C.33898927 .032226564 .3659973-.004776001 .41099549-.004776001 .45199586-.004776001 .48799134 .02822876 .49299623 .07322693V.14620972H.46798707V.095214847C.46798707 .068222049 .46299745 .02722168 .43199159 .02722168 .3999939 .02722168 .394989 .066223148 .394989 .09321594V.26020814C.394989 .27320863 .3959961 .28520204 .3959961 .29821778 .3959961 .39523316 .30499269 .4482422 .22200012 .4482422 .15899658 .4482422 .069992069 .41723634 .069992069 .33721925 .069992069 .30822755 .09098816 .28923036 .116989139 .28923036 .14498902 .28923036 .1619873 .31123353 .1619873 .3352356 .1619873 .3642273 .13899231 .38124085 .11199951 .38124085V.3812256M.32499696 .24121094V.14021302C.32499696 .07122803 .2769928 .016220093 .21199036 .01222229H.20799256C.16099549 .01222229 .11898804 .049224855 .11898804 .097213748V.10221863C.12599182 .2032013 .23899842 .23820496 .32499696 .24121094Z"/>
<path id="font_89_50" d="M.17599488 .4482422C.13899231 .44422914 .099990848 .4372406 .070999149 .41223146 .04699707 .39123536 .032989503 .35723878 .032989503 .32522584 .032989503 .15423584 .31098939 .25123597 .31098939 .10122681 .31098939 .040222169 .2559967 .01222229 .20098877 .01222229 .125 .01222229 .07398987 .066223148 .05999756 .15222168 .057998659 .16122437 .056991579 .17022705 .04499817 .17022705 .036987306 .17022705 .032989503 .16423035 .032989503 .15722656V-.00077819827C.033996583-.0057678224 .036987306-.008773804 .041992189-.009765625H.04399109C.05999756-.009765625 .07598877 .02722168 .08799744 .030227662H.08898926C.09700012 .030227662 .12399292 .0052337648 .14498902-.0017700195 .1619873-.0077667238 .17999268-.009765625 .19799805-.009765625 .2809906-.009765625 .3600006 .034225465 .3600006 .12623596 .3600006 .19223023 .31199647 .24623108 .24598694 .26322938 .18399048 .28022767 .08198547 .28022767 .08198547 .3532257 .08198547 .4142151 .14898682 .42921449 .19299317 .42921449 .24198914 .42921449 .30999757 .40220643 .30999757 .3162079 .30999757 .30722047 .31098939 .2992096 .32199098 .2992096 .33198548 .2992096 .33599855 .30722047 .33599855 .31721498 .33599855 .32221986 .33499146 .32720948 .33499146 .33120729V.4342041C.33499146 .44023133 .33198548 .4482422 .32398988 .4482422 .30799867 .4482422 .2979889 .42323304 .2869873 .42323304H.28599549C.27799989 .42323304 .2619934 .43623353 .25 .44023133 .23199463 .44621278 .21199036 .44921876 .19299317 .44921876 .18699646 .449234 .18199158 .4482422 .17599488 .4482422Z"/>
<path id="font_89_42" d="M.23498535 .4482422C.10899353 .43522645 .027999878 .3292389 .027999878 .21322632 .027999878 .100234989 .116989139-.009765625 .25-.009765625 .36999513-.009765625 .47099305 .08822632 .47099305 .2142334 .47099305 .33320619 .3809967 .44921876 .24798584 .44921876 .24398804 .449234 .23899842 .4482422 .23498535 .4482422M.11199951 .19023133V.23423767C.11199951 .31021119 .13598633 .4262085 .24899292 .4262085 .32998658 .4262085 .37599183 .35821534 .3849945 .2822113 .3869934 .2602234 .3869934 .23921204 .3869934 .21722412 .3869934 .15222168 .37998963 .07122803 .31599427 .034225465 .29599 .021224976 .27398683 .0152282719 .25099183 .0152282719 .17799378 .0152282719 .1269989 .07221985 .115997318 .15022278 .11399841 .16322327 .11399841 .17721558 .11199951 .19021607V.19023133Z"/>
<path id="font_89_17" d="M.033996583 .68359377V.6525879C.04699707 .6525879 .05999756 .6535797 .07199097 .6535797 .10798645 .6535797 .13699341 .6485901 .13699341 .6085663V.07450867C.13699341 .036514284 .10398865 .03050232 .069992069 .03050232 .056991579 .03050232 .04499817 .0315094 .033996583 .0315094V.00050354006H.32598878V.0315094H.2919922C.25 .0315094 .22299195 .0335083 .22299195 .07551575V.33151246H.33699037C.40299989 .33151246 .46299745 .2935028 .46998597 .21650696V.1335144C.46998597 .06550598 .49899293-.021484375 .6349945-.021484375 .6819916-.021484375 .723999 .009506226 .7319946 .08250427V.087509158C.7319946 .09550476 .72898867 .10551453 .7200012 .10551453 .70199587 .10551453 .7049866 .053512575 .68899539 .028503418 .6769867 .012512207 .6589966 .00050354006 .6399994 .00050354006 .59098818 .00050354006 .58299258 .06651306 .57598879 .10551453L.56399539 .1835022C.5529938 .25350953 .5299988 .30751039 .43499757 .34051515 .45399476 .34750367 .47399903 .35150147 .49299623 .35951234 .548996 .38452149 .60398867 .4295349 .6100006 .49453736V.5025482C.6100006 .61756899 .47399903 .6755829 .37998963 .68258669 .36299134 .68359377 .34700013 .68359377 .32998658 .68359377H.033996583M.22299195 .35351563V.61557009C.22299195 .6415863 .23298645 .650589 .2579956 .6525879H.33099366C.4119873 .6525879 .5069885 .63157656 .5069885 .50354006 .5069885 .3645172 .39698792 .35351563 .30899049 .35351563H.22299195Z"/>
<path id="font_89_29" d="M.11199951 .23242188H.3999939C.41099549 .23242188 .41600038 .2394104 .41600038 .250412 .41600038 .35630799 .35099793 .4482422 .23899842 .4482422 .115997318 .4482422 .027999878 .33932496 .027999878 .22039795 .027999878 .12832642 .07899475 .04624939 .16699219 .006225586 .18998719-.003768921 .21699524-.009765625 .24198914-.009765625H.24499512C.32199098-.009765625 .38598634 .0332489 .41299439 .110305789 .4139862 .11331177 .4139862 .11730957 .4139862 .12031555 .4139862 .12731934 .4099884 .13232422 .40299989 .13232422 .3880005 .13232422 .38198854 .0993042 .37599183 .08828735 .35099793 .04425049 .30299378 .0152282719 .25099183 .0152282719 .21398926 .0152282719 .18199158 .036239625 .15499878 .06326294 .114990238 .109313968 .11199951 .17436219 .11199951 .23242188M.11299133 .25341798C.11299133 .33033753 .1539917 .426239 .23599243 .426239H.24099732C.33898927 .41723634 .33799745 .3133545 .34799195 .25341798H.11299133Z"/>
<path id="font_89_33" d="M.11898804 .02281189V.02180481C.07199097 .012802124 .027999878-.032165529 .027999878-.07914734 .027999878-.1730957 .17199707-.20507813 .24899292-.20507813 .33299256-.20507813 .47099305-.1750946 .47099305-.072143558 .47099305-.0071868898 .4249878 .03781128 .36499024 .05480957 .32899476 .06581116 .2919922 .06680298 .2539978 .06680298H.16299439C.1309967 .06982422 .10598755 .10205078 .10598755 .13427735V.13931275C.10699463 .15238953 .11399841 .17837525 .12399292 .17837525 .13699341 .17538452 .15098572 .16438294 .1659851 .15937805 .18399048 .15338135 .20399475 .15039063 .22299195 .15039063 .30499269 .15039063 .3849945 .21134949 .3849945 .29626466 .3849945 .3302307 .37098695 .37019349 .34399415 .3921814V.39317323C.37098695 .41316224 .39698792 .43113709 .43299867 .43113709 .43598939 .43113709 .43899537 .43113709 .44198609 .43014527 .43299867 .42414857 .4269867 .41714479 .4269867 .40415956 .4269867 .3881836 .43998719 .37419129 .45599366 .37419129 .47299195 .37419129 .4850006 .3881836 .4850006 .40415956 .4850006 .43113709 .46299745 .453125 .43499757 .453125 .3999939 .453125 .3659973 .4391327 .33999635 .41714479 .33699037 .41415406 .33299256 .41015626 .32899476 .40916444H.32798768C.32199098 .40916444 .31399537 .41714479 .30899049 .42015077 .2829895 .43437196 .25299073 .4423828 .22299195 .4423828 .14399719 .4423828 .05899048 .38737489 .05899048 .29638673 .05899048 .26338197 .07199097 .23338318 .09199524 .2073822 .09599304 .2033844 .102996829 .19837952 .102996829 .1933899 .102996829 .18838501 .09700012 .18338013 .09498596 .17938233 .08198547 .15937805 .07499695 .13427735 .07499695 .11010742 .07499695 .07888794 .08898926 .03781128 .11898804 .02281189M.08099365-.08413696V-.07614136C.08099365-.0231781 .1269989 .0078125 .18099976 .0078125H.25898744C.32199098 .0078125 .41799928-.0011901856 .41799928-.07814026 .41799928-.15110779 .31098939-.18208313 .24899292-.18208313 .18299866-.18208313 .09098816-.15209961 .08099365-.08413696M.1349945 .27638246V.28938294C.1349945 .3443756 .147995 .41838075 .22200012 .41838075 .28399659 .41838075 .30899049 .36038209 .30899049 .29638673 .30899049 .25538636 .30099488 .17437744 .22299195 .17437744 .19699097 .17437744 .17199707 .18638611 .15499878 .20838928 .13999939 .2283783 .13798523 .25238038 .1349945 .27638246Z"/>
<path id="font_89_49" d="M.026992798 .43138124V.4003601H.041992189C.07499695 .4003601 .10499573 .39735414 .10499573 .35029603V.074020389C.10499573 .032974245 .07699585 .031967164 .032989503 .031967164H.026992798V.0009765625H.2689972V.031967164C.25698854 .031967164 .24299622 .030975342 .23098755 .030975342 .19898987 .030975342 .17199707 .035980226 .17199707 .073013309V.20614624C.17199707 .2912445 .19198609 .42037965 .2899933 .42037965 .2939911 .42037965 .29699708 .42037965 .30099488 .41937257V.41836549C.28599549 .41236878 .27799989 .39634706 .27799989 .38032533 .27799989 .35731507 .29299928 .34129334 .31599427 .33728028 .34498597 .33728028 .3639984 .3553009 .3639984 .38032533 .3639984 .42037965 .32598878 .4423828 .2899933 .4423828 .23098755 .4423828 .17799378 .38934327 .16799927 .33528138L.16699219 .4423828 .026992798 .43138124Z"/>
<path id="font_89_36" d="M.036987306 .430542V.3995819H.055999757C.084991458 .3995819 .11099243 .3955841 .11099243 .34962464V.07292175C.11099243 .037963869 .09298706 .031967164 .032989503 .031967164V.0009765625H.24798584V.031967164H.22799683C.20199585 .031967164 .17799378 .034973146 .17799378 .06692505V.44154359L.036987306 .430542M.12098694 .6689453C.09599304 .66589358 .07598877 .64382937 .07598877 .61672976 .07598877 .5876312 .100997928 .5635376 .1289978 .5635376 .1559906 .5635376 .18199158 .58561709 .18199158 .61672976 .18199158 .64582827 .15699768 .6699219 .1289978 .6699219 .12599182 .66993716 .12399292 .6689453 .12098694 .6689453Z"/>
<path id="font_89_41" d="M.03199768 .43138124V.4003601H.04699707C.07998657 .4003601 .10998535 .39735414 .10998535 .35029603V.074020389C.10998535 .032974245 .08198547 .031967164 .037994386 .031967164H.03199768V.0009765625H.2579956V.031967164H.23199463C.20399475 .031967164 .17999268 .035980226 .17999268 .073013309V.25621034C.17999268 .3282776 .21699524 .42037965 .31599427 .42037965 .37998963 .42037965 .38598634 .3513031 .38598634 .30825807V.069000247C.38598634 .034973146 .35699464 .031967164 .32598878 .031967164H.30799867V.0009765625H.5339966V.031967164H.5089874C.48199464 .031967164 .45599366 .035980226 .45599366 .070007327V.28923036C.45599366 .32226563 .45498658 .35630799 .43899537 .38633729 .41600038 .43037416 .36499024 .4423828 .31900025 .4423828 .2579956 .4423828 .19499207 .4003601 .1749878 .34028626L.17399597 .4423828 .03199768 .43138124Z"/>
<path id="font_90_10" d="M.040985109 .68359377V.6545868H.07299805C.10598755 .6545868 .13699341 .650589 .13699341 .61260989 .13699341 .60562136 .13598633 .59962466 .13598633 .5936279V.07394409C.13598633 .034957887 .10598755 .02897644 .07598877 .02897644 .06399536 .02897644 .051986696 .029968262 .040985109 .029968262V.0009765625H.31199647V.029968262C.2999878 .029968262 .28799439 .02897644 .2769928 .02897644 .24398804 .02897644 .21699524 .033966066 .21699524 .07394409V.24183655C.21699524 .25782777 .24099732 .27482606 .2519989 .28581239 .27999879 .313797 .30899049 .3397827 .33699037 .36776734 .34199525 .35676576 .34999085 .34777833 .35598756 .3377838L.5149994 .09892273C.522995 .0879364 .5339966 .07194519 .5339966 .05795288 .5339966 .030975342 .5 .029968262 .48199464 .029968262V.0009765625H.71899417V.029968262H.71598818C.647995 .029968262 .6319885 .058944704 .58099368 .13591004L.39898683 .40873719C.39698792 .41174317 .3939972 .4147339 .3939972 .4187317 .3939972 .4217224 .3959961 .4247284 .397995 .4267273L.4099884 .4387207C.45399476 .48269654 .5 .52467349 .5439911 .5676422 .58999636 .61161807 .6389923 .6545868 .70599368 .6545868V.68359377H.5119934V.6545868C.5269928 .6545868 .5509949 .64559939 .5509949 .62361147 .5509949 .60562136 .5319977 .58862307 .5209961 .5776367L.5099945 .56663516C.4139862 .47070313 .31599427 .37776185 .21699524 .28381349V.60861209C.21699524 .653595 .24798584 .6545868 .30499269 .6545868H.31199647V.68359377H.040985109Z"/>
<path id="font_90_13" d="M.040985109 .68359377V.6545868H.07998657C.10899353 .6545868 .13598633 .6525879 .13598633 .63760378V.10592651C.13598633 .036972047 .084991458 .029968262 .040985109 .029968262V.0009765625H.25498963V.029968262C.21099854 .029968262 .15899658 .038970949 .15899658 .10491943 .15899658 .11491394 .1599884 .12591553 .1599884 .13591004V.63160708C.1769867 .61061099 .19099427 .58662417 .20599365 .56463626 .27398683 .46070863 .34298707 .35476686 .4119873 .25083924L.48399354 .14289856C.5139923 .09793091 .56799319-.000030517579 .58499148 .0009765625 .59498599 .0009765625 .5970001 .009963989 .5970001 .015975953V.5816345C.5970001 .6465912 .6489868 .6545868 .69200137 .6545868V.68359377H.47799684V.6545868C.5209961 .6545868 .57299807 .6465912 .57299807 .5816345V.14289856L.21598816 .6815796 .19898987 .68359377H.040985109Z"/>
<path id="font_90_4" d="M.041992189 .68359377V.6545563H.07398987C.10699463 .6545563 .13798523 .6505585 .13798523 .6125946 .13798523 .6055908 .13699341 .5995941 .13699341 .5935974V.07394409C.13699341 .034957887 .10699463 .02897644 .07699585 .02897644 .06498718 .02897644 .052993776 .029968262 .041992189 .029968262V.0009765625H.31399537C.33399964 .0009918213 .35398866 0 .375 0 .44898988 0 .5159912 .018981934 .57899478 .07295227 .6549988 .13990784 .69299319 .23883057 .69299319 .33877564 .69299319 .5106659 .58099368 .6845703 .37098695 .6845703 .34999085 .6845856 .32899476 .68359377 .30899049 .68359377H.041992189M.6009979 .29881288C.59298709 .18287659 .55799868 .077941898 .43099977 .037963869 .40098573 .029968262 .37098695 .029968262 .33999635 .029968262H.25498963C.23498535 .029968262 .21499634 .031967164 .21499634 .063949588 .21499634 .07194519 .21598816 .078933719 .21598816 .0859375V.5816498C.21598816 .5906372 .21499634 .6006317 .21499634 .6106262 .21499634 .63656619 .21499634 .6545563 .2619934 .6545563H.34799195C.41799928 .6545563 .48799134 .63957217 .5439911 .5666199 .59498599 .49865724 .60198977 .41171266 .60198977 .33076478 .60198977 .31977845 .60198977 .30978395 .6009979 .2987976V.29881288Z"/>
<path id="font_90_26" d="M.10598755 .23324585H.3919983C.4019928 .23324585 .40699769 .23724365 .40699769 .24725342 .40699769 .3502655 .35198976 .44628907 .23399353 .44628907 .11399841 .44628907 .0289917 .337265 .0289917 .22123719 .0289917 .13322449 .07598877 .044204713 .16299439 .0082092289 .18598938-.0018005371 .21099854-.0087890629 .23599243-.0087890629H.23899842C.31199647-.0087890629 .3829956 .035202028 .4039917 .10922241 .40499879 .11222839 .40699769 .1162262 .40699769 .120224 .40699769 .12522888 .40098573 .13023377 .3959961 .13023377 .38398744 .13023377 .3789978 .10322571 .37199403 .09022522 .34700013 .045211793 .2999878 .013198853 .24598694 .013198853 .20799256 .013198853 .17399597 .034210206 .1499939 .062210084 .10998535 .11022949 .10598755 .17323303 .10598755 .23324585M.10699463 .25224305C.10699463 .32826234 .14898682 .4262848 .23199463 .4262848 .31999208 .4262848 .34399415 .32325746 .34399415 .25224305H.10699463Z"/>
<path id="font_90_23" d="M.36099244 .37226869C.35798646 .37226869 .35598756 .37327577 .35299684 .37327577 .32998658 .37327577 .31199647 .3542633 .31199647 .3312683 .31199647 .30625917 .33099366 .28926087 .35299684 .28926087 .37599183 .28926087 .3959961 .30526734 .3959961 .33226014 .3959961 .41427613 .30599977 .44628907 .24198914 .44628907 .12098694 .44628907 .034988405 .3332672 .034988405 .21723938 .034988405 .10221863 .12098694-.0087890629 .24499512-.0087890629 .31199647-.0087890629 .37098695 .02720642 .3999939 .096221927 .4019928 .10221863 .4059906 .11122131 .4059906 .11921692V.12322998C.40499879 .12722779 .40098573 .12922669 .39698792 .12922669 .38198854 .12922669 .38198854 .114227298 .3789978 .10421753 .3600006 .051208497 .30899049 .013198853 .25299073 .013198853 .14698792 .013198853 .11199951 .13223267 .11199951 .21524048 .11199951 .29725648 .13798523 .4242859 .25 .4242859 .2899933 .4242859 .33699037 .40628053 .36099244 .37226869Z"/>
<path id="font_90_34" d="M.036987306 .43034364V.4013214H.052993776C.084991458 .4013214 .10899353 .39631654 .10899353 .35127259V.072006229C.10899353 .034973146 .08999634 .029968262 .032989503 .029968262V.0009765625H.23999024V.029968262H.22599793C.19699097 .029968262 .17199707 .031967164 .17199707 .06600952V.4413452L.036987306 .43034364M.117996219 .6640625C.09098816 .6600647 .07699585 .6381378 .07699585 .61720278 .07699585 .5962677 .09298706 .5683594 .12399292 .5683594 .15499878 .5683594 .17399597 .5922699 .17399597 .6161957 .17399597 .63713076 .1579895 .66503909 .1269989 .66503909 .12399292 .6650543 .12098694 .6640625 .117996219 .6640625Z"/>
<path id="font_90_46" d="M.28399659 .4152832C.2559967 .4382782 .22299195 .44628907 .18798828 .44628907 .115997318 .44628907 .032989503 .41827394 .032989503 .32226563V.31326295C.069992069 .14523316 .30699159 .24824524 .30699159 .10122681 .30699159 .039215089 .25099183 .011199951 .19799805 .011199951 .09799194 .011199951 .07299805 .09222412 .055999757 .16122437 .053985597 .16723633 .050994874 .17222595 .04399109 .17222595 .034988405 .17222595 .032989503 .16523743 .032989503 .15823365V.0032043458C.032989503-.0018005371 .034988405-.0087890629 .042999269-.0087890629 .05999756-.0087890629 .07398987 .034210206 .084991458 .034210206H.085998538C.09298706 .032211305 .09799194 .02420044 .10398865 .019210816 .1309967-.00079345706 .16299439-.0087890629 .19699097-.0087890629 .2709961-.0087890629 .35299684 .028213501 .35299684 .1282196 .35299684 .1872406 .30599977 .24024964 .25099183 .25724793 .19699097 .27424623 .07798767 .2702484 .07798767 .35125733 .07798767 .40827943 .13798523 .4282837 .18499756 .4282837 .24299622 .4282837 .30599977 .39727784 .30599977 .31225587 .30599977 .30325318 .30699159 .2962494 .31799317 .2962494 .32598878 .2962494 .32798768 .30226136 .32798768 .30924989V.4342804C.32798768 .43928529 .32499696 .44628907 .31900025 .44628907 .30599977 .44628907 .2899933 .42227174 .28399659 .4152832Z"/>
<path id="font_90_39" d="M.22999573 .44628907C.12298584 .4362793 .0289917 .34326173 .0289917 .21624756 .0289917 .10221863 .11299133-.0087890629 .24499512-.0087890629 .36499024-.0087890629 .45899964 .097213748 .45899964 .2142334 .45899964 .32624818 .37599183 .44726563 .24299622 .44726563 .23899842 .44728089 .23399353 .44628907 .22999573 .44628907M.10598755 .1932373C.10499573 .20123291 .10499573 .20924378 .10499573 .21723938 .10499573 .28625489 .11199951 .37727357 .18899536 .41326905 .20599365 .42126466 .22499085 .42526246 .24299622 .42526246 .2809906 .42526246 .31799317 .40826417 .34298707 .37825013 .37799073 .33724977 .38198854 .28123475 .38198854 .22923279 .38198854 .17321778 .3809967 .10922241 .34298707 .062210084 .31799317 .031204224 .2809906 .013198853 .24299622 .013198853 .1599884 .013198853 .116989139 .08821106 .10899353 .16221619 .10699463 .17222595 .10699463 .18322754 .10598755 .19322205V.1932373Z"/>
<path id="font_90_37" d="M.03199768 .43040467V.40138246H.050994874C.07998657 .40138246 .10798645 .39736939 .10798645 .35131837V.072021488C.10798645 .034973146 .08898926 .029968262 .03199768 .029968262V.0009765625H.24899292V.029968262H.22599793C.19699097 .029968262 .17298889 .033966066 .17298889 .071014408V.25421144C.17298889 .32328797 .20799256 .42140199 .30599977 .42140199 .36698915 .42140199 .37998963 .3623352 .37998963 .30326844V.06800842C.37998963 .032974245 .35099793 .029968262 .32099916 .029968262H.3039856V.0009765625H.5209961V.029968262H.49798585C.47099305 .029968262 .44499208 .030975342 .44499208 .0690155V.29626466C.44499208 .32829286 .44400025 .35932923 .42799378 .38735963 .40499879 .42739869 .35699464 .44140626 .31399537 .44140626 .2649994 .44140626 .22299195 .42340089 .18899536 .37635804 .17999268 .3643341 .17298889 .35232545 .16899109 .3383026L.16799927 .44140626 .03199768 .43040467Z"/>
<path id="font_90_18" d="M.052993776 .67871096 .034988405 .45578004H.056991579C.06098938 .5057678 .06298828 .57673647 .09199524 .6087189 .12298584 .646698 .18099976 .6506958 .22698975 .6506958H.27198792C.2919922 .6506958 .31298829 .6486969 .31298829 .61572268V.07594299C.31298829 .034973146 .27598573 .02897644 .24099732 .02897644 .22999573 .02897644 .21798706 .029968262 .20899964 .029968262H.1789856V.0009765625H.5279999V.029968262H.46798707C.42999269 .029968262 .3939972 .033966066 .3939972 .07495117V.59872439C.3939972 .60472109 .3929901 .6107178 .3929901 .6167145 .3929901 .6457062 .41099549 .6506958 .44400025 .6506958H.47599793C.5439911 .6506958 .61499026 .6446991 .6359863 .55874636 .6439972 .52474978 .6459961 .4897766 .6489868 .45578004H.67099L.6529999 .67871096H.052993776Z"/>
<path id="font_90_45" d="M.027999878 .4303894V.40135194H.04399109C.07398987 .40135194 .10398865 .3983612 .10398865 .3513031V.072006229C.10398865 .034973146 .084991458 .029968262 .027999878 .029968262V.0009765625H.2619934V.029968262C.25099183 .029968262 .23899842 .02897644 .22698975 .02897644 .19499207 .02897644 .16699219 .033966066 .16699219 .071014408V.20715332C.16699219 .28424073 .1789856 .39434815 .26098634 .41838075 .2689972 .42037965 .27598573 .42137147 .28399659 .42137147 .2889862 .42137147 .29299928 .42037965 .2979889 .42037965V.41937257C.2829895 .41337586 .27398683 .3983612 .27398683 .38233949 .27398683 .35931397 .29299928 .34329225 .31298829 .34329225 .33898927 .34329225 .35299684 .36331178 .35299684 .3833313 .35299684 .42037965 .31799317 .44140626 .28399659 .44140626 .23098755 .44140626 .19198609 .4033661 .17298889 .35931397 .16899109 .35029603 .1639862 .34028626 .16299439 .3302765L.1619873 .44140626 .027999878 .4303894Z"/>
<path id="font_90_11" d="M.040985109 .68359377V.6545868H.07398987C.10699463 .6545868 .13699341 .650589 .13699341 .61361697 .13699341 .60661318 .13598633 .60061648 .13598633 .59461978V.07394409C.13598633 .033966066 .10499573 .029968262 .07199097 .029968262H.040985109V.0009765625H.5439911L.56999209 .25683595H.5479889C.5379944 .16789246 .5299988 .06794739 .4139862 .036972047 .3849945 .029968262 .35598756 .029968262 .32598878 .029968262H.25299073C.23199463 .029968262 .21699524 .035964967 .21699524 .062942508V.61061099C.21699524 .64959719 .25299073 .6555786 .2889862 .6555786 .30599977 .6555786 .32299806 .6545868 .33599855 .6545868V.68359377H.040985109Z"/>
<path id="font_90_31" d="M.32099916 .4053955H.31999208C.29299928 .43040467 .25299073 .44140626 .21798706 .44140626 .14299011 .44140626 .05999756 .38938905 .05999756 .29638673 .05999756 .26338197 .07199097 .23039246 .09399414 .2053833 .09700012 .20237732 .101989749 .1973877 .101989749 .19238281 .101989749 .18737793 .09599304 .18138123 .09399414 .17738343 .08198547 .15737915 .07499695 .133255 .07499695 .11009216 .07499695 .07785034 .08898926 .039764406 .117996219 .023757935V.022750855C.07199097 .010757446 .026992798-.028213501 .026992798-.077178958 .026992798-.16812134 .1579895-.20410156 .24299622-.20410156 .32398988-.20410156 .46099855-.17510987 .46099855-.076187137 .46099855 .04675293 .33898927 .0647583 .25698854 .0647583H.17999268C.13598633 .0647583 .102996829 .08792114 .102996829 .13124085V.13526917C.10398865 .15238953 .11099243 .16638184 .11898804 .18138123 .147995 .16539002 .17399597 .15238953 .20698548 .15039063H.21499634C.2939911 .15039063 .36099244 .19935608 .37399293 .2842865V.29527284C.37399293 .32925416 .3619995 .3532257 .34399415 .38220216 .34098817 .38519288 .33799745 .38819886 .33799745 .39219667V.39318849C.34498597 .4151764 .40098573 .43115235 .4229889 .43115235 .42799378 .43115235 .43199159 .43115235 .43699647 .43016053 .42799378 .4251709 .42099 .4161682 .42099 .40518189 .42099 .39019776 .43399049 .37921144 .44799806 .37921144 .46398927 .37921144 .47399903 .39118959 .47399903 .4071808V.4121704C.46998597 .43515016 .44999696 .45214845 .42599488 .45214845 .3899994 .45214845 .34498597 .43615724 .32099916 .40518189V.4053955M.07598877-.08418274V-.076187137C.07598877-.04220581 .099990848-.009231567 .13198853 .003768921 .1459961 .008758545 .1619873 .009765625 .1769867 .009765625H.24499512C.31098939 .009765625 .40098573 .004760742 .4119873-.07118225V-.078186038C.4119873-.15412903 .30599977-.18310547 .24598694-.18310547 .1789856-.18310547 .085998538-.15612793 .07598877-.08418274M.12998963 .27638246V.28938294C.12998963 .33738709 .13699341 .4203949 .21598816 .4203949 .27999879 .4203949 .3039856 .35739137 .3039856 .2953949 .3039856 .25138856 .29599 .17237854 .21798706 .17237854 .15899658 .17237854 .13598633 .22138977 .12998963 .27638246Z"/>
<path id="font_90_50" d="M.1459961 .6152344C.1459961 .55044558 .11999512 .421875 .017990113 .421875V.40187074H.102996829V.17605591C.102996829 .16207886 .101989749 .14808655 .101989749 .13409424 .101989749 .044174196 .147995-.0087890629 .23098755-.0087890629 .30799867-.0087890629 .32598878 .07714844 .32598878 .13909912V.18205261H.3039856C.3039856 .16706848 .30499269 .15208435 .30499269 .13710022 .30499269 .09413147 .29699708 .013198853 .23599243 .013198853 .1789856 .013198853 .16799927 .08213806 .16799927 .13110352V.40187074H.30899049V.43066407H.16799927V.6152344H.1459961Z"/>
<path id="font_90_16" d="M.040985109 .68359377V.6545868H.07398987C.10699463 .6545868 .13699341 .650589 .13699341 .61364749 .13699341 .60665896 .13598633 .60066226 .13598633 .5946655V.07397461C.13598633 .033966066 .10499573 .029968262 .07199097 .029968262H.040985109V.0009765625H.30999757V.029968262H.2789917C.23999024 .029968262 .21499634 .032974245 .21499634 .07296753V.3330078H.32398988C.37998963 .3330078 .42199708 .31500245 .45098878 .2709961 .46699525 .24499512 .46798707 .21699524 .46798707 .18798828V.13998413C.46798707 .08097839 .47698976-.0065460207 .6139984-.01953125H.6230011C.68299868-.01953125 .71598818 .033966066 .71598818 .0869751 .71598818 .0929718 .71598818 .10298157 .70599368 .10298157 .69099429 .10298157 .69299319 .07698059 .69099429 .064971927 .68499758 .033966066 .6619873 .00045776368 .6279907 .00045776368 .57299807 .00045776368 .56599429 .07698059 .56199648 .115982059 .5509949 .19798279 .5519867 .272995 .47299195 .32000733 .45700074 .32899476 .43899537 .33700563 .42099 .34100343 .48599244 .36198426 .5970001 .39593507 .5970001 .50180056 .5970001 .6236267 .45599366 .67858889 .35499574 .68359377H.040985109M.21499634 .35299684V.61763C.21499634 .64360049 .22499085 .6545868 .25099183 .6545868H.32398988C.40899659 .6545868 .5039978 .63061526 .5039978 .50180056 .5039978 .4209137 .45599366 .37297059 .3789978 .35699464 .35299684 .35299684 .32798768 .35299684 .3019867 .35299684H.21499634Z"/>
<path id="font_91_2" d="M.20399475 0C.43699647 0 .7659912 .17791748 .7659912 .45072938 .7659912 .53967288 .723999 .59562686 .6749878 .62661746 .58898928 .6826172 .49699403 .6826172 .4019928 .6826172 .31599427 .6826172 .25698854 .6826172 .17298889 .64660647 .039993287 .5876312 .020996094 .50468447 .020996094 .4967041 .020996094 .4907074 .024993897 .4887085 .0309906 .4887085 .04699707 .4887085 .069992069 .50268557 .07798767 .5076904 .09899902 .52168276 .101989749 .52767947 .10798645 .5466614 .12199402 .5866394 .1499939 .62161257 .27598573 .62760928 .2599945 .41874696 .20899964 .22787476 .13899231 .052993776 .101989749 .039993287 .07798767 .016998291 .07798767 .0069885256 .07798767 .0009918213 .07899475 0 .100997928 0H.20399475M.20899964 .054992677C.32299806 .33380128 .34399415 .5076904 .35798646 .62760928 .4249878 .62760928 .68099978 .62760928 .68099978 .40776063 .68099978 .21188355 .5049896 .054992677 .2630005 .054992677H.20899964Z"/>
<path id="font_92_41" d="M.13999939 .6152344C.13999939 .55236819 .11898804 .4206543 .017990113 .4206543V.40264894H.102996829V.17695618C.102996829 .16297913 .101989749 .14900208 .101989749 .13500977 .101989749 .056121828 .13798523-.0078125 .22099304-.0078125 .30099488-.0078125 .31599427 .082092288 .31599427 .14399719V.1819458H.29599C.29599 .16697693 .29699708 .1519928 .29699708 .13700867 .29699708 .09307861 .28799439 .012176514 .22799683 .012176514 .16899109 .012176514 .1599884 .082092288 .1599884 .13002014V.40264894H.2999878V.43066407H.1599884V.6152344H.13999939Z"/>
<path id="font_92_39" d="M.033996583 .42941285V.40138246H.04899597C.07699585 .40138246 .10398865 .39837647 .10398865 .35131837V.06300354C.10398865 .030975342 .07699585 .02897644 .04798889 .02897644H.033996583V.0009765625H.24598694V.02897644C.23599243 .02897644 .22499085 .02796936 .21499634 .02796936 .18598938 .02796936 .15899658 .032974245 .15899658 .070007327V.15110779C.15899658 .1721344 .1579895 .19314575 .1579895 .21417237 .1579895 .29426576 .1769867 .42140199 .27398683 .42140199 .27999879 .42140199 .2869873 .42140199 .29299928 .4203949V.41940309C.2789917 .4143982 .2689972 .40037538 .2689972 .38536073 .2689972 .36634828 .28399659 .34732057 .30699159 .34732057 .32899476 .34732057 .34298707 .3673401 .34298707 .38435365 .34298707 .4203949 .30799867 .4404297 .2749939 .4404297 .21199036 .4404297 .16899109 .38336183 .1559906 .32829286L.15499878 .4404297 .033996583 .42941285Z"/>
<path id="font_92_19" d="M.09899902 .35827638C.116989139 .399292 .1639862 .42730714 .20899964 .42730714 .2829895 .42730714 .31498719 .35627748 .31498719 .29125978V.25724793C.21099854 .25724793 .07899475 .23223877 .04699707 .12121582 .04499817 .112213138 .04399109 .10321045 .04399109 .09320068V.0861969C.049987794 .018173218 .1309967-.0078125 .18598938-.0078125 .24099732-.0078125 .2979889 .019180298 .31999208 .079193118H.32099916C.32099916 .03718567 .35099793-.0038146973 .394989-.0038146973 .43499757-.0038146973 .46598817 .031188965 .46998597 .07319641V.14620972H.44999696V.095199588C.44999696 .06619263 .44400025 .02218628 .41099549 .02218628 .37799073 .02218628 .37098695 .06518555 .37098695 .0921936 .37098695 .10321045 .37199403 .113204959 .37199403 .12321472V.29325868C.37199403 .3902893 .29599 .4453125 .21398926 .4453125 .1579895 .4453125 .101989749 .41729737 .07798767 .36128236 .07398987 .35028077 .069992069 .3362732 .069992069 .3232727 .069992069 .29826356 .08898926 .28025819 .11099243 .28025819 .13198853 .28025819 .1499939 .29826356 .1499939 .3192749 .1499939 .34127809 .13398743 .35928346 .10899353 .35928346 .10499573 .35928346 .101989749 .35928346 .09899902 .35827638M.31498719 .24024964V.1412201C.31498719 .07620239 .27198792 .012176514 .20199585 .010177612H.19799805C.1539917 .010177612 .10998535 .044189454 .10998535 .09420776 .10998535 .19822693 .22698975 .24024964 .31498719 .24024964Z"/>
<path id="font_92_27" d="M.041992189 .42926026V.40122987H.052993776C.083999637 .40122987 .10798645 .39622499 .10798645 .3511963V.06298828C.10798645 .030975342 .08099365 .02897644 .051986696 .02897644H.037994386V.0009765625H.22599793V.02897644H.20899964C.18598938 .02897644 .16299439 .031967164 .16299439 .06399536V.44026185L.041992189 .42926026M.11399841 .66015627C.08999634 .65615847 .07699585 .6361847 .07699585 .6161957 .07699585 .5962219 .09298706 .5722656 .11999512 .5722656 .14698792 .5722656 .1659851 .5932312 .1659851 .6161957 .1659851 .6381531 .147995 .6611328 .12298584 .6611328 .11999512 .6611481 .116989139 .66015627 .11399841 .66015627Z"/>
<path id="font_92_31" d="M.037994386 .42941285V.40138246H.052993776C.08099365 .40138246 .10798645 .39837647 .10798645 .35131837V.06300354C.10798645 .031967164 .08198547 .02897644 .056991579 .02897644H.037994386V.0009765625H.23498535V.02897644H.21798706C.18998719 .02897644 .16499329 .031967164 .16499329 .06401062V.2572174C.16499329 .32530213 .19799805 .42240907 .2939911 .42240907 .35198976 .42240907 .37098695 .37135316 .37098695 .3042755V.06600952C.37098695 .031967164 .34498597 .02897644 .31698609 .02897644H.30099488V.0009765625H.49798585V.02897644H.47499085C.45298768 .02897644 .43199159 .031967164 .42799378 .055999757V.29226686C.42799378 .32629396 .4269867 .36134339 .40899659 .3903656 .38598634 .42941285 .33999635 .4404297 .29699708 .4404297 .23599243 .4404297 .1749878 .39337159 .1619873 .3363037L.16099549 .4404297 .10798645 .4354248 .037994386 .42941285Z"/>
<path id="font_89_6" d="M.032989503 .68066409V.6496582C.04598999 .6496582 .05899048 .65065 .070999149 .65065 .10699463 .65065 .13598633 .6456604 .13598633 .60572817V.07499695C.13598633 .036972047 .102996829 .030975342 .068984989 .030975342 .055999757 .030975342 .04399109 .031967164 .032989503 .031967164V.0009765625H.35299684V.031967164C.33898927 .031967164 .32199098 .030975342 .30499269 .030975342 .25498963 .030975342 .22499085 .034973146 .22499085 .08100891V.32617188H.30899049C.34298707 .32617188 .38398744 .3241577 .40299989 .2951355 .4169922 .27313233 .41799928 .24511719 .41799928 .2190857V.20909119H.44299317V.4739685H.41799928V.463974C.41799928 .4120636 .4079895 .36714173 .34700013 .35916139 .32899476 .35716249 .30999757 .35716249 .2919922 .35716249H.22499085V.61372378C.22499085 .6476593 .24499512 .6496582 .2659912 .6496582H.3829956C.43499757 .6496582 .49798585 .6476593 .5359955 .60873416 .57398989 .5688019 .5779877 .50790408 .58499148 .45599366H.6100006L.58200076 .68066409H.032989503Z"/>
<path id="font_89_51" d="M.14898682 .6152344C.14898682 .54644778 .11999512 .421875 .017990113 .421875V.39987184H.10398865V.1421051C.10398865 .10914612 .10598755 .076171878 .12199402 .047195436 .14399719 .007232666 .19099427-.009765625 .23498535-.009765625 .31698609-.009765625 .33299256 .08216858 .33299256 .14511109V.18206787H.30799867C.30799867 .16708374 .30899049 .15209961 .30899049 .1361084 .30899049 .09214783 .29899598 .0152282719 .23999024 .0152282719 .18299866 .0152282719 .17399597 .08416748 .17399597 .12911988V.39987184H.31599427V.43066407H.17399597V.6152344H.14898682Z"/>
<path id="font_89_54" d="M.03199768 .430542V.39953614H.04598999C.07398987 .39953614 .102996829 .3975525 .10899353 .3675995 .10998535 .35661317 .10998535 .3466339 .10998535 .33566285V.13702393C.10998535 .1040802 .11099243 .073135379 .1289978 .044189454 .1559906 .0012512207 .21299744-.0107421879 .2599945-.0107421879 .30499269-.0107421879 .34599305 .009246826 .37098695 .046188356 .37799073 .056167604 .3849945 .06614685 .3880005 .078125L.3889923-.009750366 .5339966 .0012512207V.032211305H.5189972C.48599244 .032211305 .45599366 .035217287 .45599366 .0801239V.4423828L.30799867 .43136598V.39953614H.32299806C.35598756 .39953614 .38598634 .3965454 .38598634 .3496399V.16896057C.38598634 .09509277 .34799195 .013244629 .2649994 .013244629 .20899964 .013244629 .17999268 .02722168 .17999268 .13302613V.4423828L.03199768 .430542Z"/>
<path id="font_89_20" d="M.032989503 .68359377V.6525879H.067993167C.11099243 .6525879 .13598633 .6485901 .13598633 .60757449V.24153137C.13598633 .103515628 .22898865-.021484375 .394989-.021484375 .5079956-.021484375 .59399417 .08052063 .6100006 .18652344 .61299136 .20652771 .61299136 .22753906 .61299136 .24754334V.57858279C.61299136 .647583 .6729889 .6525879 .71598818 .6525879V.68359377H.47898866V.6525879C.522995 .6525879 .58200076 .647583 .58200076 .57658389V.23753357C.58200076 .13752747 .5269928 .009506226 .3869934 .009506226 .31498719 .009506226 .25698854 .06350708 .23699951 .13052368 .22599793 .16752625 .22499085 .20553589 .22499085 .24353028V.58457949C.22499085 .59158328 .22399903 .60058596 .22399903 .60858157 .22399903 .6485901 .25898744 .6525879 .29499818 .6525879H.32798768V.68359377H.032989503Z"/>
</defs>
<path transform="matrix(1,0,0,-1,93.7444,167.09029)" d="M0 0V162.111C0 164.312 1.784 166.096 3.985 166.096H205.781C207.982 166.096 209.766 164.312 209.766 162.111V0C209.766-2.201 207.982-3.985 205.781-3.985H3.985C1.784-3.985 0-2.201 0 0Z" fill="#ebeef4"/>
<path transform="matrix(1,0,0,-1,93.7444,167.09029)" stroke-width="1.993" stroke-linecap="butt" stroke-miterlimit="10" stroke-linejoin="miter" fill="none" stroke="#3b528b" d="M0 0V162.111C0 164.312 1.784 166.096 3.985 166.096H205.781C207.982 166.096 209.766 164.312 209.766 162.111V0C209.766-2.201 207.982-3.985 205.781-3.985H3.985C1.784-3.985 0-2.201 0 0Z"/>
<path transform="matrix(1,0,0,-1,141.9339,142.72859)" stroke-width="9.963" stroke-linecap="butt" stroke-miterlimit="10" stroke-linejoin="miter" fill="none" stroke="#cbcbcb" d="M0 0H42.022"/>
<path transform="matrix(1,0,0,-1,156.1072,142.72859)" stroke-width="2.989" stroke-linecap="butt" stroke-miterlimit="10" stroke-linejoin="miter" fill="none" stroke="#d8dce8" d="M0 0H8.122"/>
<path transform="matrix(1,0,0,-1,168.97306,142.7286)" d="M0 0-4.339 3.507V0-3.507Z" fill="#d8dce8"/>
<path transform="matrix(1,0,0,-1,168.97306,142.7286)" stroke-width="1.619" stroke-linecap="butt" stroke-linejoin="round" fill="none" stroke="#d8dce8" d="M0 0-4.339 3.507V0-3.507Z"/>
<path transform="matrix(1,0,0,-1,56.8934,86.034999)" stroke-width="4.981" stroke-linecap="butt" stroke-miterlimit="10" stroke-linejoin="miter" fill="none" stroke="#a9a9a9" d="M0 0 37.384-49.846"/>
<path transform="matrix(.59999,.79997,.79997,-.59999,98.40492,141.3837)" d="M0 0-6.287 4.884V0-4.884Z" fill="#a9a9a9"/>
<path transform="matrix(.59999,.79997,.79997,-.59999,98.40492,141.3837)" stroke-width="2.366" stroke-linecap="butt" stroke-linejoin="round" fill="none" stroke="#a9a9a9" d="M0 0-6.287 4.884V0-4.884Z"/>
<path transform="matrix(1,0,0,-1,141.9339,86.034999)" stroke-width="9.963" stroke-linecap="butt" stroke-miterlimit="10" stroke-linejoin="miter" fill="none" stroke="#cbcbcb" d="M0 0H42.022"/>
<path transform="matrix(1,0,0,-1,156.1072,86.034999)" stroke-width="2.989" stroke-linecap="butt" stroke-miterlimit="10" stroke-linejoin="miter" fill="none" stroke="#d8dce8" d="M0 0H8.122"/>
<path transform="matrix(1,0,0,-1,168.97306,86.034999)" d="M0 0-4.339 3.507V0-3.507Z" fill="#d8dce8"/>
<path transform="matrix(1,0,0,-1,168.97306,86.034999)" stroke-width="1.619" stroke-linecap="butt" stroke-linejoin="round" fill="none" stroke="#d8dce8" d="M0 0-4.339 3.507V0-3.507Z"/>
<path transform="matrix(1,0,0,-1,56.8934,86.034999)" stroke-width="4.981" stroke-linecap="butt" stroke-miterlimit="10" stroke-linejoin="miter" fill="none" stroke="#a9a9a9" d="M0 0H33.96"/>
<path transform="matrix(1,0,0,-1,97.73245,86.034999)" d="M0 0-6.287 4.884V0-4.884Z" fill="#a9a9a9"/>
<path transform="matrix(1,0,0,-1,97.73245,86.034999)" stroke-width="2.366" stroke-linecap="butt" stroke-linejoin="round" fill="none" stroke="#a9a9a9" d="M0 0-6.287 4.884V0-4.884Z"/>
<path transform="matrix(1,0,0,-1,141.9339,29.341393)" stroke-width="9.963" stroke-linecap="butt" stroke-miterlimit="10" stroke-linejoin="miter" fill="none" stroke="#cbcbcb" d="M0 0H42.022"/>
<path transform="matrix(1,0,0,-1,156.1072,29.341393)" stroke-width="2.989" stroke-linecap="butt" stroke-miterlimit="10" stroke-linejoin="miter" fill="none" stroke="#d8dce8" d="M0 0H8.122"/>
<path transform="matrix(1,0,0,-1,168.97306,29.341385)" d="M0 0-4.339 3.507V0-3.507Z" fill="#d8dce8"/>
<path transform="matrix(1,0,0,-1,168.97306,29.341385)" stroke-width="1.619" stroke-linecap="butt" stroke-linejoin="round" fill="none" stroke="#d8dce8" d="M0 0-4.339 3.507V0-3.507Z"/>
<path transform="matrix(1,0,0,-1,56.8934,86.034999)" stroke-width="4.981" stroke-linecap="butt" stroke-miterlimit="10" stroke-linejoin="miter" fill="none" stroke="#a9a9a9" d="M0 0 37.384 49.846"/>
<path transform="matrix(.59999,-.79997,-.79997,-.59999,98.40492,30.686276)" d="M0 0-6.287 4.884V0-4.884Z" fill="#a9a9a9"/>
<path transform="matrix(.59999,-.79997,-.79997,-.59999,98.40492,30.686276)" stroke-width="2.366" stroke-linecap="butt" stroke-linejoin="round" fill="none" stroke="#a9a9a9" d="M0 0-6.287 4.884V0-4.884Z"/>
<path transform="matrix(1,0,0,-1,226.9743,86.034999)" stroke-width="9.963" stroke-linecap="butt" stroke-miterlimit="10" stroke-linejoin="miter" fill="none" stroke="#cbcbcb" d="M0 0H27.849"/>
<path transform="matrix(1,0,0,-1,226.9743,86.034999)" stroke-width="2.989" stroke-linecap="butt" stroke-miterlimit="10" stroke-linejoin="miter" fill="none" stroke="#d8dce8" d="M0 0H8.122"/>
<path transform="matrix(1,0,0,-1,239.84008,86.034999)" d="M0 0-4.339 3.507V0-3.507Z" fill="#d8dce8"/>
<path transform="matrix(1,0,0,-1,239.84008,86.034999)" stroke-width="1.619" stroke-linecap="butt" stroke-linejoin="round" fill="none" stroke="#d8dce8" d="M0 0-4.339 3.507V0-3.507Z"/>
<path transform="matrix(1,0,0,-1,99.413608,161.42099)" d="M0 0V37.385C0 39.586 1.784 41.37 3.985 41.37H52.709C54.909 41.37 56.694 39.586 56.694 37.385V0C56.694-2.201 54.909-3.985 52.709-3.985H3.985C1.784-3.985 0-2.201 0 0Z" fill="#79bcba"/>
<path transform="matrix(1,0,0,-1,99.413608,161.42099)" stroke-width=".398" stroke-linecap="butt" stroke-miterlimit="10" stroke-linejoin="miter" fill="none" stroke="#000000" d="M0 0V37.385C0 39.586 1.784 41.37 3.985 41.37H52.709C54.909 41.37 56.694 39.586 56.694 37.385V0C56.694-2.201 54.909-3.985 52.709-3.985H3.985C1.784-3.985 0-2.201 0 0Z"/>
<use data-text="L" xlink:href="#font_89_11" transform="matrix(9.963,0,0,-9.963,115.737,139.213)" fill="#ffffff"/>
<use data-text="a" xlink:href="#font_89_23" transform="matrix(9.963,0,0,-9.963,121.963878,139.213)" fill="#ffffff"/>
<use data-text="s" xlink:href="#font_89_50" transform="matrix(9.963,0,0,-9.963,126.94537,139.213)" fill="#ffffff"/>
<use data-text="s" xlink:href="#font_89_50" transform="matrix(9.963,0,0,-9.963,130.87079,139.213)" fill="#ffffff"/>
<use data-text="o" xlink:href="#font_89_42" transform="matrix(9.963,0,0,-9.963,134.7962,139.213)" fill="#ffffff"/>
<use data-text="R" xlink:href="#font_89_17" transform="matrix(9.963,0,0,-9.963,104.656,151.168)" fill="#ffffff"/>
<use data-text="e" xlink:href="#font_89_29" transform="matrix(9.963,0,0,-9.963,111.98877,151.168)" fill="#ffffff"/>
<use data-text="g" xlink:href="#font_89_33" transform="matrix(9.963,0,0,-9.963,116.41234,151.168)" fill="#ffffff"/>
<use data-text="r" xlink:href="#font_89_49" transform="matrix(9.963,0,0,-9.963,121.39384,151.168)" fill="#ffffff"/>
<use data-text="e" xlink:href="#font_89_29" transform="matrix(9.963,0,0,-9.963,125.29933,151.168)" fill="#ffffff"/>
<use data-text="s" xlink:href="#font_89_50" transform="matrix(9.963,0,0,-9.963,129.7229,151.168)" fill="#ffffff"/>
<use data-text="s" xlink:href="#font_89_50" transform="matrix(9.963,0,0,-9.963,133.64832,151.168)" fill="#ffffff"/>
<use data-text="i" xlink:href="#font_89_36" transform="matrix(9.963,0,0,-9.963,137.57373,151.168)" fill="#ffffff"/>
<use data-text="o" xlink:href="#font_89_42" transform="matrix(9.963,0,0,-9.963,140.34345,151.168)" fill="#ffffff"/>
<use data-text="n" xlink:href="#font_89_41" transform="matrix(9.963,0,0,-9.963,145.32495,151.168)" fill="#ffffff"/>
<path transform="matrix(1,0,0,-1,99.413608,104.727397)" d="M0 0V37.385C0 39.586 1.784 41.37 3.985 41.37H52.709C54.909 41.37 56.694 39.586 56.694 37.385V0C56.694-2.201 54.909-3.985 52.709-3.985H3.985C1.784-3.985 0-2.201 0 0Z" fill="#79bcba"/>
<path transform="matrix(1,0,0,-1,99.413608,104.727397)" stroke-width=".398" stroke-linecap="butt" stroke-miterlimit="10" stroke-linejoin="miter" fill="none" stroke="#000000" d="M0 0V37.385C0 39.586 1.784 41.37 3.985 41.37H52.709C54.909 41.37 56.694 39.586 56.694 37.385V0C56.694-2.201 54.909-3.985 52.709-3.985H3.985C1.784-3.985 0-2.201 0 0Z"/>
<use data-text="K" xlink:href="#font_90_10" transform="matrix(11.955,0,0,-11.955,114.436,90.152)" fill="#ffffff"/>
<use data-text="N" xlink:href="#font_90_13" transform="matrix(11.955,0,0,-11.955,123.53375,90.152)" fill="#ffffff"/>
<use data-text="N" xlink:href="#font_90_13" transform="matrix(11.955,0,0,-11.955,132.30872,90.152)" fill="#ffffff"/>
<path transform="matrix(1,0,0,-1,99.413608,48.03379)" d="M0 0V37.385C0 39.586 1.784 41.37 3.985 41.37H52.709C54.909 41.37 56.694 39.586 56.694 37.385V0C56.694-2.201 54.909-3.985 52.709-3.985H3.985C1.784-3.985 0-2.201 0 0Z" fill="#79bcba"/>
<path transform="matrix(1,0,0,-1,99.413608,48.03379)" stroke-width=".398" stroke-linecap="butt" stroke-miterlimit="10" stroke-linejoin="miter" fill="none" stroke="#000000" d="M0 0V37.385C0 39.586 1.784 41.37 3.985 41.37H52.709C54.909 41.37 56.694 39.586 56.694 37.385V0C56.694-2.201 54.909-3.985 52.709-3.985H3.985C1.784-3.985 0-2.201 0 0Z"/>
<use data-text="D" xlink:href="#font_90_4" transform="matrix(11.955,0,0,-11.955,106.352,26.487)" fill="#ffffff"/>
<use data-text="e" xlink:href="#font_90_26" transform="matrix(11.955,0,0,-11.955,115.294338,26.487)" fill="#ffffff"/>
<use data-text="c" xlink:href="#font_90_23" transform="matrix(11.955,0,0,-11.955,120.49476,26.487)" fill="#ffffff"/>
<use data-text="i" xlink:href="#font_90_34" transform="matrix(11.955,0,0,-11.955,125.69518,26.487)" fill="#ffffff"/>
<use data-text="s" xlink:href="#font_90_46" transform="matrix(11.955,0,0,-11.955,128.94695,26.487)" fill="#ffffff"/>
<use data-text="i" xlink:href="#font_90_34" transform="matrix(11.955,0,0,-11.955,133.56157,26.487)" fill="#ffffff"/>
<use data-text="o" xlink:href="#font_90_39" transform="matrix(11.955,0,0,-11.955,136.81333,26.487)" fill="#ffffff"/>
<use data-text="n" xlink:href="#font_90_37" transform="matrix(11.955,0,0,-11.955,142.67128,26.487)" fill="#ffffff"/>
<use data-text="T" xlink:href="#font_90_18" transform="matrix(11.955,0,0,-11.955,116.543,40.434007)" fill="#ffffff"/>
<use data-text="r" xlink:href="#font_90_45" transform="matrix(11.955,0,0,-11.955,124.015,40.434007)" fill="#ffffff"/>
<use data-text="e" xlink:href="#font_90_26" transform="matrix(11.955,0,0,-11.955,128.56986,40.434007)" fill="#ffffff"/>
<use data-text="e" xlink:href="#font_90_26" transform="matrix(11.955,0,0,-11.955,133.77028,40.434007)" fill="#ffffff"/>
<path transform="matrix(1,0,0,-1,241.1477,104.727397)" d="M0 0V37.385C0 39.586 1.784 41.37 3.985 41.37H52.709C54.909 41.37 56.694 39.586 56.694 37.385V0C56.694-2.201 54.909-3.985 52.709-3.985H3.985C1.784-3.985 0-2.201 0 0Z" fill="#79bcba"/>
<path transform="matrix(1,0,0,-1,241.1477,104.727397)" stroke-width=".398" stroke-linecap="butt" stroke-miterlimit="10" stroke-linejoin="miter" fill="none" stroke="#000000" d="M0 0V37.385C0 39.586 1.784 41.37 3.985 41.37H52.709C54.909 41.37 56.694 39.586 56.694 37.385V0C56.694-2.201 54.909-3.985 52.709-3.985H3.985C1.784-3.985 0-2.201 0 0Z"/>
<use data-text="L" xlink:href="#font_90_11" transform="matrix(11.955,0,0,-11.955,249.547,82.017)" fill="#ffffff"/>
<use data-text="o" xlink:href="#font_90_39" transform="matrix(11.955,0,0,-11.955,256.86347,82.017)" fill="#ffffff"/>
<use data-text="g" xlink:href="#font_90_31" transform="matrix(11.955,0,0,-11.955,262.7214,82.017)" fill="#ffffff"/>
<use data-text="i" xlink:href="#font_90_34" transform="matrix(11.955,0,0,-11.955,268.57936,82.017)" fill="#ffffff"/>
<use data-text="s" xlink:href="#font_90_46" transform="matrix(11.955,0,0,-11.955,271.83113,82.017)" fill="#ffffff"/>
<use data-text="t" xlink:href="#font_90_50" transform="matrix(11.955,0,0,-11.955,276.44575,82.017)" fill="#ffffff"/>
<use data-text="i" xlink:href="#font_90_34" transform="matrix(11.955,0,0,-11.955,281.0006,82.017)" fill="#ffffff"/>
<use data-text="c" xlink:href="#font_90_23" transform="matrix(11.955,0,0,-11.955,284.25239,82.017)" fill="#ffffff"/>
<use data-text="R" xlink:href="#font_90_16" transform="matrix(11.955,0,0,-11.955,242.36299,95.965)" fill="#ffffff"/>
<use data-text="e" xlink:href="#font_90_26" transform="matrix(11.955,0,0,-11.955,250.9706,95.965)" fill="#ffffff"/>
<use data-text="g" xlink:href="#font_90_31" transform="matrix(11.955,0,0,-11.955,256.17103,95.965)" fill="#ffffff"/>
<use data-text="r" xlink:href="#font_90_45" transform="matrix(11.955,0,0,-11.955,262.02897,95.965)" fill="#ffffff"/>
<use data-text="e" xlink:href="#font_90_26" transform="matrix(11.955,0,0,-11.955,266.5838,95.965)" fill="#ffffff"/>
<use data-text="s" xlink:href="#font_90_46" transform="matrix(11.955,0,0,-11.955,271.78425,95.965)" fill="#ffffff"/>
<use data-text="s" xlink:href="#font_90_46" transform="matrix(11.955,0,0,-11.955,276.39888,95.965)" fill="#ffffff"/>
<use data-text="i" xlink:href="#font_90_34" transform="matrix(11.955,0,0,-11.955,281.0135,95.965)" fill="#ffffff"/>
<use data-text="o" xlink:href="#font_90_39" transform="matrix(11.955,0,0,-11.955,284.26527,95.965)" fill="#ffffff"/>
<use data-text="n" xlink:href="#font_90_37" transform="matrix(11.955,0,0,-11.955,290.1232,95.965)" fill="#ffffff"/>
<path transform="matrix(1,0,0,-1,.19980049,96.2233)" d="M0 0V20.377C0 22.578 1.784 24.362 3.985 24.362H52.709C54.909 24.362 56.694 22.578 56.694 20.377V0C56.694-2.201 54.909-3.985 52.709-3.985H3.985C1.784-3.985 0-2.201 0 0Z" fill="#cbebe1"/>
<path transform="matrix(1,0,0,-1,.19980049,96.2233)" stroke-width=".398" stroke-linecap="butt" stroke-miterlimit="10" stroke-linejoin="miter" fill="none" stroke="#000000" d="M0 0V20.377C0 22.578 1.784 24.362 3.985 24.362H52.709C54.909 24.362 56.694 22.578 56.694 20.377V0C56.694-2.201 54.909-3.985 52.709-3.985H3.985C1.784-3.985 0-2.201 0 0Z"/>
<use data-text="D" xlink:href="#font_91_2" transform="matrix(20.663,0,0,-20.663,5.915,91.546)"/>
<use data-text="t" xlink:href="#font_92_41" transform="matrix(14.346,0,0,-14.346,21.854,94.645999)"/>
<use data-text="r" xlink:href="#font_92_39" transform="matrix(14.346,0,0,-14.346,27.16202,94.645999)"/>
<use data-text="a" xlink:href="#font_92_19" transform="matrix(14.346,0,0,-14.346,32.47004,94.645999)"/>
<use data-text="i" xlink:href="#font_92_27" transform="matrix(14.346,0,0,-14.346,39.298738,94.645999)"/>
<use data-text="n" xlink:href="#font_92_31" transform="matrix(14.346,0,0,-14.346,43.086084,94.645999)"/>
<path transform="matrix(1,0,0,-1,170.2807,161.42099)" d="M0 0V150.772C0 152.973 1.784 154.757 3.985 154.757H52.709C54.909 154.757 56.694 152.973 56.694 150.772V0C56.694-2.201 54.909-3.985 52.709-3.985H3.985C1.784-3.985 0-2.201 0 0Z" fill="#e4f1f1"/>
<path transform="matrix(1,0,0,-1,170.2807,161.42099)" stroke-width=".398" stroke-linecap="butt" stroke-miterlimit="10" stroke-linejoin="miter" fill="none" stroke="#000000" d="M0 0V150.772C0 152.973 1.784 154.757 3.985 154.757H52.709C54.909 154.757 56.694 152.973 56.694 150.772V0C56.694-2.201 54.909-3.985 52.709-3.985H3.985C1.784-3.985 0-2.201 0 0Z"/>
<use data-text="F" xlink:href="#font_89_6" transform="matrix(9.963,0,0,-9.963,182.218,83.49)"/>
<use data-text="e" xlink:href="#font_89_29" transform="matrix(9.963,0,0,-9.963,187.897,83.49)"/>
<use data-text="a" xlink:href="#font_89_23" transform="matrix(9.963,0,0,-9.963,192.32057,83.49)"/>
<use data-text="t" xlink:href="#font_89_51" transform="matrix(9.963,0,0,-9.963,197.30208,83.49)"/>
<use data-text="u" xlink:href="#font_89_54" transform="matrix(9.963,0,0,-9.963,201.17769,83.49)"/>
<use data-text="r" xlink:href="#font_89_49" transform="matrix(9.963,0,0,-9.963,206.70716,83.49)"/>
<use data-text="e" xlink:href="#font_89_29" transform="matrix(9.963,0,0,-9.963,210.61266,83.49)"/>
<use data-text="U" xlink:href="#font_89_20" transform="matrix(9.963,0,0,-9.963,185.48201,95.445)"/>
<use data-text="n" xlink:href="#font_89_41" transform="matrix(9.963,0,0,-9.963,192.95426,95.445)"/>
<use data-text="i" xlink:href="#font_89_36" transform="matrix(9.963,0,0,-9.963,198.48372,95.445)"/>
<use data-text="o" xlink:href="#font_89_42" transform="matrix(9.963,0,0,-9.963,201.25344,95.445)"/>
<use data-text="n" xlink:href="#font_89_41" transform="matrix(9.963,0,0,-9.963,206.23494,95.445)"/>
</svg>
