<?xml version="1.0" encoding="UTF-8" standalone="no"?>
<!DOCTYPE svg PUBLIC "-//W3C//DTD SVG 1.1//EN" "http://www.w3.org/Graphics/SVG/1.1/DTD/svg11.dtd">
<svg xmlns="http://www.w3.org/2000/svg" xmlns:xlink="http://www.w3.org/1999/xlink" version="1.1" width="1027.675pt" height="163.01389pt" viewBox="0 0 1027.675 163.01389">
<g enable-background="new">
<path transform="matrix(2.7777777,0,0,-2.7777777,-293.25,278.35557)" d="M 107.71794 46.50531 L 107.71794 95.22871 C 107.71794 97.42966 109.5021 99.21382 111.70305 99.21382 L 469.4065 99.21382 C 471.60746 99.21382 473.3916 97.42966 473.3916 95.22871 L 473.3916 46.50531 C 473.3916 44.30437 471.60746 42.5202 469.4065 42.5202 L 111.70305 42.5202 C 109.5021 42.5202 107.71794 44.30437 107.71794 46.50531 Z M 473.3916 99.21382 " fill="#ebeef3"/>
<path transform="matrix(2.7777777,0,0,-2.7777777,-293.25,278.35557)" stroke-width="1.99255" stroke-linecap="butt" stroke-miterlimit="10" stroke-linejoin="miter" fill="none" stroke="#3b528b" d="M 107.71794 46.50531 L 107.71794 95.22871 C 107.71794 97.42966 109.5021 99.21382 111.70305 99.21382 L 469.4065 99.21382 C 471.60746 99.21382 473.3916 97.42966 473.3916 95.22871 L 473.3916 46.50531 C 473.3916 44.30437 471.60746 42.5202 469.4065 42.5202 L 111.70305 42.5202 C 109.5021 42.5202 107.71794 44.30437 107.71794 46.50531 Z M 473.3916 99.21382 "/>
<path transform="matrix(2.7777777,0,0,-2.7777777,-293.25,278.35557)" stroke-width="9.96277" stroke-linecap="butt" stroke-miterlimit="10" stroke-linejoin="miter" fill="none" stroke="#cbcbcb" d="M 110.55237 70.867 L 129.89734 70.867 "/>
<path transform="matrix(2.7777777,0,0,-2.7777777,-293.25,278.35557)" stroke-width="2.98883" stroke-linecap="butt" stroke-miterlimit="10" stroke-linejoin="miter" fill="none" stroke="#d8dce8" d="M 113.38724 70.867 L 121.50957 70.867 "/>
<path transform="matrix(2.7777777,0,0,-2.7777777,43.152299,81.502788)" d="M 5.14818 0 L .80946 3.5066 L .80946 0 L .80946 -3.5066 Z " fill="#d8dce8"/>
<path transform="matrix(2.7777777,0,0,-2.7777777,43.152299,81.502788)" stroke-width="1.61894" stroke-linecap="butt" stroke-linejoin="round" fill="none" stroke="#d8dce8" d="M 5.14818 0 L .80946 3.5066 L .80946 0 L .80946 -3.5066 Z "/>
<path transform="matrix(2.7777777,0,0,-2.7777777,-293.25,278.35557)" stroke-width="9.96277" stroke-linecap="butt" stroke-miterlimit="10" stroke-linejoin="miter" fill="none" stroke="#cbcbcb" d="M 280.6332 70.867 L 299.9782 70.867 "/>
<path transform="matrix(2.7777777,0,0,-2.7777777,-293.25,278.35557)" stroke-width="2.98883" stroke-linecap="butt" stroke-miterlimit="10" stroke-linejoin="miter" fill="none" stroke="#d8dce8" d="M 283.4681 70.867 L 291.59046 70.867 "/>
<path transform="matrix(2.7777777,0,0,-2.7777777,515.5991,81.502788)" d="M 5.14818 0 L .80946 3.5066 L .80946 0 L .80946 -3.5066 Z " fill="#d8dce8"/>
<path transform="matrix(2.7777777,0,0,-2.7777777,515.5991,81.502788)" stroke-width="1.61894" stroke-linecap="butt" stroke-linejoin="round" fill="none" stroke="#d8dce8" d="M 5.14818 0 L .80946 3.5066 L .80946 0 L .80946 -3.5066 Z "/>
<path transform="matrix(2.7777777,0,0,-2.7777777,-293.25,278.35557)" stroke-width="9.96277" stroke-linecap="butt" stroke-miterlimit="10" stroke-linejoin="miter" fill="none" stroke="#cbcbcb" d="M 450.71409 70.867 L 470.05906 70.867 "/>
<path transform="matrix(2.7777777,0,0,-2.7777777,-293.25,278.35557)" stroke-width="2.98883" stroke-linecap="butt" stroke-miterlimit="10" stroke-linejoin="miter" fill="none" stroke="#d8dce8" d="M 453.54896 70.867 L 461.6713 70.867 "/>
<path transform="matrix(2.7777777,0,0,-2.7777777,988.04598,81.502788)" d="M 5.14818 0 L .80946 3.5066 L .80946 0 L .80946 -3.5066 Z " fill="#d8dce8"/>
<path transform="matrix(2.7777777,0,0,-2.7777777,988.04598,81.502788)" stroke-width="1.61894" stroke-linecap="butt" stroke-linejoin="round" fill="none" stroke="#d8dce8" d="M 5.14818 0 L .80946 3.5066 L .80946 0 L .80946 -3.5066 Z "/>
<path transform="matrix(2.7777777,0,0,-2.7777777,-293.25,278.35557)" d="M 127.56062 52.17458 L 127.56062 89.55942 C 127.56062 91.76036 129.34479 93.54453 131.54573 93.54453 L 279.48298 93.54453 C 281.6839 93.54453 283.46809 91.76036 283.46809 89.55942 L 283.46809 52.17458 C 283.46809 49.97363 281.6839 48.18947 279.48298 48.18947 L 131.54573 48.18947 C 129.34479 48.18947 127.56062 49.97363 127.56062 52.17458 Z M 283.46809 93.54453 " fill="#e4f2f1"/>
<path transform="matrix(2.7777777,0,0,-2.7777777,-293.25,278.35557)" stroke-width=".3985" stroke-linecap="butt" stroke-miterlimit="10" stroke-linejoin="miter" fill="none" stroke="#000000" d="M 127.56062 52.17458 L 127.56062 89.55942 C 127.56062 91.76036 129.34479 93.54453 131.54573 93.54453 L 279.48298 93.54453 C 281.6839 93.54453 283.46809 91.76036 283.46809 89.55942 L 283.46809 52.17458 C 283.46809 49.97363 281.6839 48.18947 279.48298 48.18947 L 131.54573 48.18947 C 129.34479 48.18947 127.56062 49.97363 127.56062 52.17458 Z M 283.46809 93.54453 "/>
<symbol id="font_0_11">
<path d="M .155 .61 L .155 .61800006 C .155 .651 .134 .65200009 .116000007 .65200009 L .037 .65200009 C .017 .65200009 0 .64400008 0 .62100008 C 0 .6010001 .015 .591 .034 .591 L .085 .591 L .085 .061000006 L .033000005 .061000006 C .012999999 .061000006 0 .048000009 0 .031000004 C 0 .010000005 .015 0 .037 0 L .201 0 C .224 0 .24000001 .008000001 .24000001 .030000002 C .24000001 .050000013 .22600001 .061000006 .207 .061000006 L .155 .061000006 L .155 .26600004 C .189 .23400001 .227 .21600002 .273 .21600002 C .388 .21600002 .47700004 .32200004 .47700004 .43700005 C .47700004 .544 .40300004 .658 .279 .658 C .234 .658 .189 .64000007 .155 .61 M .40600003 .425 C .39900003 .351 .34800003 .277 .26700003 .277 C .199 .277 .154 .356 .154 .41300003 C .154 .425 .155 .43700005 .155 .44900004 C .155 .46000005 .154 .47200004 .154 .48400004 C .154 .54700008 .21800001 .597 .277 .597 C .36200003 .597 .407 .507 .407 .439 C .407 .43400003 .407 .43 .40600003 .425 Z "/>
</symbol>
<symbol id="font_0_f">
<path d="M .19100002 .44500003 C .072000008 .43400003 0 .32700003 0 .22 L 0 .21000001 C .0040000008 .101 .08900001 0 .206 0 L .218 0 C .337 .010000001 .41 .11500001 .41 .221 L .41 .23200001 C .40600003 .34300003 .32 .44500003 .20199999 .44500003 L .19100002 .44500003 M .07 .216 C .07 .22 .069 .22500001 .069 .229 C .069 .303 .123 .384 .20699999 .384 C .284 .384 .33200003 .312 .34 .24100001 L .34 .23200001 C .34 .157 .293 .061 .20500002 .061 L .201 .061 C .12600002 .067 .078 .136 .07 .216 Z "/>
</symbol>
<symbol id="font_0_12">
<path d="M .22400002 .777 C .21100001 .77500006 .19500001 .762 .184 .754 C .066 .665 0 .53000006 0 .38700003 L 0 .37 C .0059999974 .22800002 .081000018 .08400001 .205 .009999998 C .214 .0050000029 .223 0 .233 0 C .25 0 .263 .013999999 .263 .029000003 C .263 .046000005 .246 .053000004 .23400001 .063 C .128 .136 .07000001 .26200003 .07000001 .39000003 C .07000001 .51900008 .129 .646 .24000003 .72 C .251 .726 .263 .734 .263 .749 C .263 .76600006 .25 .77800008 .23200001 .77800008 C .22900002 .77800008 .22700002 .77800008 .22400002 .777 Z "/>
</symbol>
<symbol id="font_0_10">
<path d="M .13700001 .483 L .13700001 .062000004 L .042999999 .062000004 C .018 .062000004 .0060000049 .051000004 .0060000049 .032 C .0060000049 .007 .024000004 0 .055000009 0 C .07000001 0 .08500001 .001 .10000001 .001 L .30400003 .001 C .32600004 .001 .338 .013 .338 .032 C .338 .051000004 .324 .062000004 .3 .062000004 L .207 .062000004 L .207 .588 C .207 .609 .198 .623 .177 .623 C .15300001 .623 .14800002 .6 .13900002 .583 C .120000008 .54700008 .091000009 .514 .049999998 .504 C .026000008 .497 0 .50200006 0 .46800003 L .0029999987 .45600004 C .009000003 .44300003 .022 .44000004 .034999998 .44000004 L .041999997 .44000004 C .08 .44500003 .106000009 .46 .13700001 .483 Z "/>
</symbol>
<symbol id="font_0_5">
<path d="M .102 .142 C .097 .11200001 .07500002 .08500001 .04900001 .07000001 C .032000007 .06000001 0 .059000009 0 .032000007 C 0 .016000003 .013999999 .001000002 .030000002 0 C .095 0 .16600001 .08500001 .16600001 .16100002 C .16600001 .21000001 .13800001 .263 .08399999 .264 C .046000005 .264 .019999996 .23600002 .019999996 .20200002 C .019999996 .16900002 .04200001 .14400001 .07500002 .13900002 L .08200002 .13900002 C .08900002 .13900002 .095 .14000002 .102 .142 Z "/>
</symbol>
<symbol id="font_0_2">
<path d="M .11400001 .38000003 C .132 .38300003 .15200001 .38500003 .171 .38500003 C .23000002 .38500003 .299 .36200003 .299 .28300003 C .179 .28300003 0 .254 0 .133 C 0 .04 .092999998 0 .16700001 0 C .215 0 .262 .009000001 .3 .032 C .30200003 .033 .30400003 .035 .307 .035 L .30900003 .035 C .314 .035 .328 .020000002 .34100003 .015000001 C .36900003 .0050000005 .40600003 .0050000005 .435 .0050000005 C .459 .0050000005 .46900005 .020000002 .46900005 .038 L .46900005 .041 C .468 .058000003 .454 .067 .437 .067 L .407 .067 C .388 .067 .368 .069000009 .368 .08800001 C .368 .09300001 .36900003 .09700001 .36900003 .101 L .36900003 .28300003 C .36900003 .37800003 .296 .439 .19800002 .44500003 L .162 .44500003 C .109 .44500003 .025999997 .439 .025999997 .372 C .025999997 .34300003 .048000006 .326 .070999998 .326 C .096 .326 .114999998 .34600003 .114999998 .37 C .114999998 .37300004 .114999998 .377 .11400001 .38000003 M .299 .223 L .299 .138 C .299 .07300001 .225 .061 .175 .061 C .133 .061 .06999999 .080000009 .06999999 .133 C .06999999 .19 .162 .208 .20199999 .215 C .234 .22 .26700003 .223 .299 .223 Z "/>
</symbol>
<symbol id="font_0_9">
<path d="M .141 .43000005 L .061000006 .43000005 C .053999999 .43000005 .046000005 .43100003 .038000004 .43100003 C .013999999 .43100003 .0009999983 .41800005 .0009999983 .39800004 C .0009999983 .37600003 .019000002 .36900003 .037 .36900003 L .141 .36900003 L .141 .061000006 L .057000005 .061000006 C .050000006 .061000006 .042999999 .062000004 .035000005 .062000004 C .011 .062000004 0 .048000006 0 .031000002 C 0 .016 .009 .0019999999 .024999999 0 L .321 0 C .34100003 0 .35200004 .013 .35200004 .030000002 C .35200004 .050000006 .33900003 .062000004 .316 .062000004 C .30800004 .062000004 .30100004 .061000006 .29400004 .061000006 L .21100003 .061000006 L .21100003 .36900003 L .34300003 .36900003 C .36200003 .36900003 .37500004 .38200004 .37500004 .40000005 C .37500004 .42600004 .35200004 .43000005 .33600004 .43000005 L .21100003 .43000005 L .21100003 .48600004 C .21100003 .536 .254 .55600008 .29500003 .55600008 C .316 .55600008 .30900003 .54700008 .31500004 .535 C .323 .521 .33800004 .513 .35300002 .513 C .37900005 .513 .395 .53400006 .395 .559 C .395 .61200007 .32700003 .61700007 .29900003 .61700007 C .22800002 .61700007 .141 .577 .141 .49000005 L .141 .43000005 Z "/>
</symbol>
<symbol id="font_0_8">
<path d="M .072 .197 L .37 .197 C .391 .197 .409 .202 .409 .23200001 C .409 .286 .39400003 .34300003 .361 .38300003 C .32500003 .425 .271 .44500003 .21700001 .44500003 C .104 .44500003 0 .35500003 0 .22 L 0 .21100001 C .004999999 .09200001 .111 0 .231 0 L .241 0 C .296 .0020000004 .35500003 .023000002 .38900004 .069000009 C .397 .08100001 .409 .09900001 .409 .11500001 C .409 .136 .391 .143 .37300004 .143 C .34300003 .143 .342 .124000009 .33200003 .10700001 C .31100003 .075 .273 .061 .236 .061 C .155 .061 .092999998 .11600001 .072 .197 M .073 .257 C .09199999 .322 .135 .384 .21700001 .384 C .29000003 .384 .333 .326 .337 .257 L .073 .257 Z "/>
</symbol>
<symbol id="font_0_3">
<path d="M .293 .38000003 C .293 .377 .292 .374 .292 .37100003 C .292 .342 .316 .326 .338 .326 C .358 .326 .37600003 .338 .381 .36400003 C .381 .441 .298 .44500003 .239 .44500003 C .15600002 .44500003 .087000008 .42000003 .038000004 .34800003 C .012999997 .31100003 0 .266 0 .222 C 0 .117000009 .08100001 0 .218 0 C .287 0 .35500003 .026000003 .386 .09200001 C .389 .09900001 .39200003 .10800001 .39200003 .11600001 C .39200003 .134 .37800003 .143 .36 .143 L .35 .143 C .329 .143 .324 .12200001 .31800003 .109000008 C .30200003 .076000008 .262 .061 .22800002 .061 C .139 .061 .07 .136 .07 .221 C .07 .308 .13300002 .384 .22999999 .384 C .251 .384 .272 .382 .293 .38000003 Z "/>
</symbol>
<symbol id="font_0_18">
<path d="M .127 .43600003 L .036000007 .43600003 C .012 .43600003 0 .42400003 0 .405 C 0 .38500003 .016 .375 .035000005 .375 L .127 .375 L .127 .11500001 C .134 .042 .191 0 .269 0 C .34300003 0 .42400003 .046 .42400003 .128 L .42400003 .14 C .42400003 .167 .40600003 .171 .388 .171 C .36600004 .171 .354 .15900001 .354 .136 L .354 .12900001 C .354 .083000008 .30900003 .061 .273 .061 C .21700001 .061 .19700001 .095000009 .19700001 .141 L .19700001 .375 L .36200003 .375 C .38000003 .375 .402 .37800003 .402 .405 C .402 .42400003 .39000003 .43600003 .368 .43600003 L .19700001 .43600003 L .19700001 .52400007 C .19700001 .55300006 .18100001 .559 .162 .559 C .143 .559 .127 .55200007 .127 .523 L .127 .43600003 Z "/>
</symbol>
<symbol id="font_0_1b">
<path d="M .027999998 .069000009 C .009999998 .066 0 .05 0 .034 C 0 .011 .016999998 0 .042000005 0 L .36900003 0 C .395 0 .41 .013999999 .41 .034 C .41 .051000004 .39900003 .068 .38 .07000001 L .047 .07000001 C .041 .07000001 .034 .07000001 .027999998 .069000009 Z "/>
</symbol>
<symbol id="font_0_c">
<path d="M .17000002 .55 L .17000002 .061000006 L .031000004 .061000006 C .012000002 .061000006 0 .048000006 0 .030000002 C 0 .008 .016999998 0 .037 0 L .386 0 C .402 .003 .41 .017 .41 .031000002 C .41 .048000006 .39900003 .061000006 .38 .061000006 L .24000001 .061000006 L .24000001 .573 C .24000001 .60700008 .22299999 .61100009 .20199999 .61100009 L .038000004 .61100009 C .022 .61100009 0 .60800006 0 .58100005 C 0 .563 .012000002 .55 .031999999 .55 L .17000002 .55 Z "/>
</symbol>
<symbol id="font_0_1a">
<path d="M .085 .375 L .085 .13 C .085 .101 .086 .079 .10300001 .05 C .13 .009000001 .182 0 .228 0 C .269 0 .313 .011 .347 .037 C .347 .017 .359 .0060000007 .38300003 .0060000007 L .46600003 .0060000007 C .486 .0060000007 .50200006 .015000001 .50200006 .037 C .50200006 .057 .48700003 .067 .46800003 .067 L .41700004 .067 L .41700004 .39900003 C .41700004 .421 .411 .43600003 .37800003 .43600003 L .301 .43600003 C .284 .43600003 .262 .43400003 .262 .40600003 C .262 .388 .273 .375 .29500003 .375 L .347 .375 L .347 .17 C .347 .091000009 .29000003 .061 .231 .061 C .194 .061 .155 .06600001 .155 .127 L .155 .397 C .155 .418 .15 .43600003 .121 .43600003 L .037 .43600003 C .017 .43600003 0 .42700003 0 .405 C 0 .384 .015999999 .375 .034 .375 L .085 .375 Z "/>
</symbol>
<symbol id="font_0_d">
<path d="M .113000009 .39800004 C .113000009 .42600004 .09300001 .43100003 .07300001 .43100003 C .064 .43100003 .055 .43000005 .048 .43000005 L .036000004 .43000005 C .018000002 .43000005 0 .42300005 0 .40000005 C 0 .38500003 .010000001 .37100003 .026000003 .36900003 L .057 .36900003 L .057 .061000006 C .051000004 .061000006 .045 .062000004 .038 .062000004 C .018000002 .062000004 0 .053000004 0 .031000002 C 0 .011 .014 0 .035 0 L .133 0 C .154 0 .17 .009000001 .17 .031000002 C .17 .053000004 .152 .062000004 .132 .062000004 C .125 .062000004 .11900001 .061000006 .113000009 .061000006 L .113000009 .21800001 C .113000009 .27600003 .12100001 .35600005 .183 .37200005 C .18800001 .37400005 .194 .37500004 .199 .37500004 C .23900001 .37500004 .23900001 .31900005 .23900001 .28800003 L .23900001 .061000006 L .224 .061000006 C .20300001 .061000006 .18800001 .052000006 .18800001 .031000002 C .18800001 .011 .2 0 .223 0 L .317 0 C .338 0 .352 .011 .352 .031000002 C .352 .053000004 .33400003 .062000004 .314 .062000004 C .307 .062000004 .301 .061000006 .29500003 .061000006 L .29500003 .21800001 C .29500003 .27600003 .303 .35600005 .365 .37200005 C .37 .37400005 .37600003 .37500004 .381 .37500004 C .421 .37500004 .421 .31900005 .421 .28800003 L .421 .061000006 L .40600003 .061000006 C .38500003 .061000006 .37 .052000006 .37 .031000002 C .37 .011 .382 0 .405 0 L .499 0 C .52000007 0 .53400006 .011 .53400006 .031000002 C .53400006 .053000004 .51600006 .062000004 .49600003 .062000004 C .48900003 .062000004 .483 .061000006 .47700004 .061000006 L .47700004 .293 C .47700004 .34900005 .467 .43700005 .384 .43700005 C .344 .43700005 .3 .41200004 .282 .38200004 C .26500003 .41400004 .24000001 .43600003 .202 .43600003 C .169 .43600003 .136 .42000006 .113000009 .39800004 Z "/>
</symbol>
<symbol id="font_0_e">
<path d="M .155 .38400004 L .155 .39500005 C .155 .41500003 .146 .43000005 .12000001 .43000005 L .033000005 .43000005 C .015 .43000005 0 .41900004 0 .39900003 C 0 .37800003 .015999999 .36900003 .035000005 .36900003 L .085 .36900003 L .085 .061000006 L .033000005 .061000006 C .012999999 .061000006 0 .048000006 0 .031000002 C 0 .010000001 .015 0 .037 0 L .201 0 C .224 0 .24000001 .008 .24000001 .030000002 C .24000001 .050000006 .22600001 .061000006 .207 .061000006 L .155 .061000006 L .155 .22800002 C .155 .30600003 .201 .37500004 .282 .37500004 C .33400003 .37500004 .347 .33600004 .347 .29200004 L .347 .061000006 L .299 .061000006 C .278 .061000006 .26700003 .046000005 .26700003 .030000002 C .26700003 .007 .285 0 .305 0 L .465 0 C .48700003 0 .50200006 .010000001 .50200006 .031000002 C .50200006 .048000006 .489 .061000006 .469 .061000006 L .41700004 .061000006 L .41700004 .28000004 C .41700004 .34800003 .39900003 .43600003 .287 .43600003 C .239 .43600003 .19 .41700004 .155 .38400004 Z "/>
</symbol>
<symbol id="font_0_17">
<path d="M .06800001 .038 C .10500001 .010000001 .15 0 .19600001 0 C .28100003 0 .388 .030000002 .388 .131 C .388 .262 .199 .262 .132 .277 C .10400001 .284 .062 .298 .062 .328 C .062 .37300004 .13500002 .381 .16600001 .38300003 C .17500001 .38300003 .18400002 .384 .194 .384 C .225 .384 .279 .377 .286 .337 C .293 .31100003 .292 .29500003 .32500003 .29500003 C .354 .29500003 .358 .314 .358 .333 L .358 .412 C .358 .432 .347 .44500003 .328 .44500003 C .314 .44500003 .303 .43600003 .298 .42400003 C .264 .43800003 .234 .44500003 .19600001 .44500003 C .114 .44500003 .001000002 .423 .001000002 .326 C .001000002 .164 .32700003 .23900001 .32700003 .132 L .32700003 .12900001 C .32700003 .065000008 .224 .061 .20199999 .061 L .19800002 .061 C .146 .061 .09800001 .08200001 .077 .137 C .065000008 .163 .065000008 .178 .035000005 .178 C .0050000029 .178 .001000002 .16 .001000002 .142 L .001000002 .055 C .001000002 .049000004 0 .042 0 .035 C 0 .013 .012000002 0 .031000004 0 C .055 0 .060999998 .020000002 .06800001 .038 Z "/>
</symbol>
<symbol id="font_0_4">
<path d="M .05400002 .43000005 C .022 .42200003 0 .40100003 0 .36800004 C 0 .33200003 .026000008 .30500005 .069000009 .30500005 C .10100001 .31300003 .122999999 .33400003 .122999999 .36700005 C .122999999 .40300004 .097 .43000005 .05400002 .43000005 M .05400002 .125 C .022 .117000009 0 .096 0 .063 C 0 .027 .026000008 0 .069000009 0 C .10100001 .008 .122999999 .029000001 .122999999 .062000004 C .122999999 .098000008 .097 .125 .05400002 .125 Z "/>
</symbol>
<use xlink:href="#font_0_11" transform="matrix(27.673888,0,0,-27.673888,83.72665,94.53815)"/>
<use xlink:href="#font_0_f" transform="matrix(27.673888,0,0,-27.673888,99.52843,88.560588)"/>
<use xlink:href="#font_0_12" transform="matrix(27.673888,0,0,-27.673888,117.29507,90.719158)"/>
<use xlink:href="#font_0_f" transform="matrix(27.673888,0,0,-27.673888,128.58602,88.560588)"/>
<use xlink:href="#font_0_11" transform="matrix(27.673888,0,0,-27.673888,141.84181,94.53815)"/>
<use xlink:href="#font_0_10" transform="matrix(27.673888,0,0,-27.673888,158.97196,88.42222)"/>
<use xlink:href="#font_0_5" transform="matrix(27.673888,0,0,-27.673888,175.57628,92.24122)"/>
<use xlink:href="#font_0_2" transform="matrix(27.673888,0,0,-27.673888,201.17462,88.560588)"/>
<use xlink:href="#font_0_9" transform="matrix(27.673888,0,0,-27.673888,215.34365,88.39455)"/>
<use xlink:href="#font_0_9" transform="matrix(27.673888,0,0,-27.673888,229.87242,88.39455)"/>
<use xlink:href="#font_0_8" transform="matrix(27.673888,0,0,-27.673888,244.76097,88.560588)"/>
<use xlink:href="#font_0_3" transform="matrix(27.673888,0,0,-27.673888,259.7879,88.560588)"/>
<use xlink:href="#font_0_18" transform="matrix(27.673888,0,0,-27.673888,272.9883,88.560588)"/>
<use xlink:href="#font_0_1b" transform="matrix(27.673888,0,0,-27.673888,288.40269,91.02357)"/>
<use xlink:href="#font_0_3" transform="matrix(27.673888,0,0,-27.673888,303.37425,88.560588)"/>
<use xlink:href="#font_0_f" transform="matrix(27.673888,0,0,-27.673888,317.4326,88.560588)"/>
<use xlink:href="#font_0_c" transform="matrix(27.673888,0,0,-27.673888,331.96138,88.39455)"/>
<use xlink:href="#font_0_1a" transform="matrix(27.673888,0,0,-27.673888,345.21714,88.560588)"/>
<use xlink:href="#font_0_d" transform="matrix(27.673888,0,0,-27.673888,359.30317,88.39455)"/>
<use xlink:href="#font_0_e" transform="matrix(27.673888,0,0,-27.673888,374.27473,88.39455)"/>
<use xlink:href="#font_0_17" transform="matrix(27.673888,0,0,-27.673888,390.46394,88.560588)"/>
<use xlink:href="#font_0_4" transform="matrix(27.673888,0,0,-27.673888,408.5903,88.39455)"/>
<symbol id="font_1_1">
<path d="M .556 .23100002 C .556 .264 .55300006 .26700003 .521 .26700003 L .035 .26700003 C .018000003 .26700003 0 .26700003 0 .24700003 C 0 .22700002 .018000003 .22700002 .035 .22700002 L .51600006 .22700002 L .51600006 .036 C .51600006 .018000007 .51600006 0 .536 0 C .556 0 .556 .018000007 .556 .036 L .556 .23100002 Z "/>
</symbol>
<use xlink:href="#font_1_1" transform="matrix(27.673888,0,0,-27.673888,419.02485,85.95924)" fill="#ff0000"/>
<symbol id="font_2_2">
<path d="M .458 .411 L .374 .61 C .37100003 .61800006 .36900003 .62200006 .36900003 .623 C .36900003 .629 .386 .648 .428 .652 C .43800003 .65300008 .448 .65400007 .448 .671 C .448 .683 .43600003 .683 .433 .683 C .39200003 .683 .349 .68 .307 .68 C .282 .68 .22000002 .683 .19500003 .683 C .18900001 .683 .17700002 .683 .17700002 .66300007 C .17700002 .652 .18700002 .652 .20000002 .652 C .26 .652 .266 .642 .275 .62 L .393 .34100003 L .18200001 .11400001 L .16900002 .10300001 C .12 .05 .073 .034 .022000002 .031000002 C .0090000019 .030000002 0 .030000002 0 .011000001 C 0 .010000001 0 0 .013000002 0 C .042999999 0 .076000008 .003 .107 .003 C .14400001 .003 .18300002 0 .21900001 0 C .22500001 0 .237 0 .237 .020000002 C .237 .030000002 .22700002 .031000002 .22500001 .031000002 C .21600002 .032 .18500002 .034 .18500002 .062000004 C .18500002 .078 .20000002 .094000007 .21200001 .10700001 L .314 .215 L .404 .31300003 L .505 .074 C .509 .063 .51 .062000004 .51 .060000004 C .51 .052 .491 .035 .45200003 .031000002 C .441 .030000002 .432 .029000001 .432 .012 C .432 0 .44300003 0 .44700004 0 C .47500003 0 .545 .003 .573 .003 C .598 .003 .65900006 0 .684 0 C .69100007 0 .703 0 .703 .019000002 C .703 .031000002 .693 .031000002 .685 .031000002 C .61800006 .032 .616 .035 .59900006 .075 C .56 .16800002 .49300004 .324 .47 .384 C .538 .45400004 .643 .573 .675 .601 C .704 .625 .74200007 .64900007 .80200007 .652 C .81500008 .65300008 .824 .65300008 .824 .67200008 C .824 .67300006 .824 .683 .81100007 .683 C .781 .683 .748 .68 .717 .68 C .68 .68 .642 .683 .606 .683 C .6 .683 .587 .683 .587 .66300007 C .587 .656 .592 .65300008 .59900006 .652 C .60800006 .651 .639 .64900007 .639 .62100008 C .639 .60700008 .628 .59400007 .62 .58500006 L .458 .411 Z "/>
</symbol>
<use xlink:href="#font_2_2" transform="matrix(27.673888,0,0,-27.673888,436.69996,88.42222)" fill="#ff0000"/>
<symbol id="font_3_2d">
<path d="M .006000001 .9990001 C .0020000004 .99700006 0 .9940001 0 .99100008 C 0 .97900006 .023000002 .9620001 .034 .95000007 C .141 .82600006 .17300001 .65700009 .17300001 .499 C .17300001 .338 .14000002 .155 .020000004 .034999998 C .013000004 .027999998 0 .018000007 0 .010000005 C 0 .004999995 .0050000029 0 .011 0 L .012000002 0 C .024000004 .002000004 .044 .023000002 .056 .034999998 C .18200001 .16100002 .23200003 .33100004 .23200003 .50100007 C .23200003 .68500009 .17200002 .86800006 .026 .99200007 C .021000006 .99500009 .016000003 1 .009999998 1 C .009000003 1 .008000001 1 .006000001 .9990001 Z "/>
</symbol>
<use xlink:href="#font_3_2d" transform="matrix(27.673888,0,0,-27.673888,462.6025,95.31302)"/>
<path transform="matrix(2.7777777,0,0,-2.7777777,-293.25,278.35557)" d="M 297.6415 52.17458 L 297.6415 89.55942 C 297.6415 91.76036 299.42567 93.54453 301.6266 93.54453 L 449.56385 93.54453 C 451.76478 93.54453 453.54893 91.76036 453.54893 89.55942 L 453.54893 52.17458 C 453.54893 49.97363 451.76478 48.18947 449.56385 48.18947 L 301.6266 48.18947 C 299.42567 48.18947 297.6415 49.97363 297.6415 52.17458 Z M 453.54893 93.54453 " fill="#e4f2f1"/>
<path transform="matrix(2.7777777,0,0,-2.7777777,-293.25,278.35557)" stroke-width=".3985" stroke-linecap="butt" stroke-miterlimit="10" stroke-linejoin="miter" fill="none" stroke="#000000" d="M 297.6415 52.17458 L 297.6415 89.55942 C 297.6415 91.76036 299.42567 93.54453 301.6266 93.54453 L 449.56385 93.54453 C 451.76478 93.54453 453.54893 91.76036 453.54893 89.55942 L 453.54893 52.17458 C 453.54893 49.97363 451.76478 48.18947 449.56385 48.18947 L 301.6266 48.18947 C 299.42567 48.18947 297.6415 49.97363 297.6415 52.17458 Z M 453.54893 93.54453 "/>
<symbol id="font_0_19">
<path d="M .35000003 .061000006 L .113000009 .061000006 C .17600002 .112 .242 .163 .302 .21800001 C .365 .27500005 .42000003 .34000004 .42000003 .43000005 C .42000003 .554 .305 .62200006 .19900002 .62200006 C .10900001 .62200006 0 .56600007 0 .45700006 C 0 .42900003 .018 .40700004 .045 .40700004 C .069000009 .40700004 .089 .42800004 .089 .45200003 C .089 .46700005 .07700001 .47600005 .07700001 .48600004 C .07700001 .50100007 .10000001 .526 .11600001 .53700008 C .14 .554 .16600001 .56100007 .193 .56100007 C .26700003 .56100007 .34900005 .51800009 .34900005 .42700006 C .34900005 .32600004 .25 .25500003 .18 .19700001 C .148 .171 .11700001 .14400001 .08500001 .118 L .035000005 .076000008 C .020000004 .062000004 0 .053000004 0 .030000002 C 0 .0019999999 .022 0 .038000004 0 L .38100005 0 C .402 0 .42000003 .004 .42000003 .036000004 L .42000003 .069 C .42000003 .09 .41400004 .108 .38600005 .108 C .36700005 .108 .35000003 .102000009 .35000003 .074 L .35000003 .061000006 Z "/>
</symbol>
<use xlink:href="#font_0_11" transform="matrix(27.673888,0,0,-27.673888,565.39328,94.53815)"/>
<use xlink:href="#font_0_f" transform="matrix(27.673888,0,0,-27.673888,581.19509,88.560588)"/>
<use xlink:href="#font_0_12" transform="matrix(27.673888,0,0,-27.673888,598.9617,90.719158)"/>
<use xlink:href="#font_0_f" transform="matrix(27.673888,0,0,-27.673888,610.2526,88.560588)"/>
<use xlink:href="#font_0_11" transform="matrix(27.673888,0,0,-27.673888,623.5084,94.53815)"/>
<use xlink:href="#font_0_19" transform="matrix(27.673888,0,0,-27.673888,639.1718,88.39455)"/>
<use xlink:href="#font_0_5" transform="matrix(27.673888,0,0,-27.673888,657.2429,92.24122)"/>
<use xlink:href="#font_0_2" transform="matrix(27.673888,0,0,-27.673888,682.8412,88.560588)"/>
<use xlink:href="#font_0_9" transform="matrix(27.673888,0,0,-27.673888,697.0102,88.39455)"/>
<use xlink:href="#font_0_9" transform="matrix(27.673888,0,0,-27.673888,711.539,88.39455)"/>
<use xlink:href="#font_0_8" transform="matrix(27.673888,0,0,-27.673888,726.42758,88.560588)"/>
<use xlink:href="#font_0_3" transform="matrix(27.673888,0,0,-27.673888,741.4546,88.560588)"/>
<use xlink:href="#font_0_18" transform="matrix(27.673888,0,0,-27.673888,754.655,88.560588)"/>
<use xlink:href="#font_0_1b" transform="matrix(27.673888,0,0,-27.673888,770.04177,91.02357)"/>
<use xlink:href="#font_0_3" transform="matrix(27.673888,0,0,-27.673888,785.0134,88.560588)"/>
<use xlink:href="#font_0_f" transform="matrix(27.673888,0,0,-27.673888,799.0994,88.560588)"/>
<use xlink:href="#font_0_c" transform="matrix(27.673888,0,0,-27.673888,813.62826,88.39455)"/>
<use xlink:href="#font_0_1a" transform="matrix(27.673888,0,0,-27.673888,826.88406,88.560588)"/>
<use xlink:href="#font_0_d" transform="matrix(27.673888,0,0,-27.673888,840.97018,88.39455)"/>
<use xlink:href="#font_0_e" transform="matrix(27.673888,0,0,-27.673888,855.9417,88.39455)"/>
<use xlink:href="#font_0_17" transform="matrix(27.673888,0,0,-27.673888,872.131,88.560588)"/>
<use xlink:href="#font_0_4" transform="matrix(27.673888,0,0,-27.673888,890.25747,88.39455)"/>
<use xlink:href="#font_2_2" transform="matrix(27.673888,0,0,-27.673888,899.91659,88.42222)"/>
<use xlink:href="#font_3_2d" transform="matrix(27.673888,0,0,-27.673888,925.81918,95.31302)"/>
</g>
</svg>
