<svg xmlns="http://www.w3.org/2000/svg" xmlns:xlink="http://www.w3.org/1999/xlink" version="1.1" width="424.354pt" height="115.378pt" viewBox="0 0 424.354 115.378">
<defs>
<path id="font_97_25" d="M.16099549 .38365174V.3956604C.16099549 .41766358 .1519928 .43066407 .12799073 .43066407H.04798889C.02999878 .43066407 .01499939 .42166139 .01499939 .4016571 .01499939 .38365174 .026992798 .37265016 .04699707 .37265016H.09599304V-.16270447H.04598999C.027999878-.16270447 .01499939-.17370606 .01499939-.19171143 .01499939-.2137146 .02999878-.22070313 .050994874-.22070313H.20698548C.23098755-.22070313 .24198914-.2097168 .24198914-.19171143 .24198914-.17370606 .22898865-.16270447 .21099854-.16270447H.16099549V.050109865C.19400025 .017105103 .22999573-.0048828127 .27799989-.0048828127 .3929901-.0048828127 .47599793 .10202026 .47599793 .21780396 .47599793 .31962586 .4079895 .43652345 .2869873 .43652345 .23999024 .43652345 .19499207 .41551209 .16099549 .3835144V.38365174M.4099884 .20283509C.40299989 .12896729 .35299684 .053115846 .272995 .053115846 .20399475 .053115846 .1599884 .13096619 .1599884 .18986511 .1599884 .20283509 .16099549 .21481323 .16099549 .22679138 .16099549 .23876953 .1599884 .25074769 .1599884 .26272584 .1599884 .3256073 .22200012 .37850953 .28199769 .37850953 .36099244 .37850953 .41099549 .29267884 .41099549 .22080994 .41099549 .21481323 .41099549 .20883179 .4099884 .20283509Z"/>
<path id="font_97_23" d="M.24299622 .4404297C.12199402 .4274292 .057998659 .31835938 .057998659 .21325684 .057998659 .10215759 .13999939-.0048828127 .25898744-.0048828127H.2689972C.3869934 .0061035158 .45498658 .11216736 .45498658 .21626282 .45498658 .32737733 .37599183 .4404297 .2539978 .4404297H.24299622M.12298584 .21026612C.12298584 .215271 .12199402 .2192688 .12199402 .22427368 .12199402 .29833985 .17399597 .38241578 .2579956 .38241578 .33898927 .38241578 .3909912 .29634095 .3909912 .22227478 .3909912 .14318848 .33699037 .053115846 .2559967 .053115846 .17399597 .053115846 .12998963 .14019776 .12298584 .21026612Z"/>
<path id="font_97_26" d="M.3889923 .6943054C.375 .6913147 .3619995 .67930606 .35099793 .67129519 .23298645 .59025576 .16999817 .44519044 .16999817 .30413819 .16999817 .15306092 .24398804 .012008667 .36999513-.07203674 .3789978-.077041629 .3880005-.08203125 .39898683-.08203125 .4149933-.08203125 .4269867-.07102966 .4269867-.056030275 .4269867-.039016725 .4119873-.03302002 .39898683-.024017334 .2919922 .05001831 .23498535 .17907715 .23498535 .3071289 .23498535 .43319703 .29299928 .56625369 .40499879 .6412811 .41600038 .6482849 .4269867 .6562958 .4269867 .67030337 .4269867 .6843109 .41600038 .6953125 .3999939 .6953125 .3959961 .6953125 .3919983 .6953125 .3889923 .6943054Z"/>
<path id="font_97_29" d="M.33799745 .6201172C.31799317 .6171112 .30299378 .60310366 .30299378 .5811157V.57011416C.30499269 .5101013 .30799867 .44810487 .31199647 .3881073 .31399537 .36412049 .30799867 .328125 .34700013 .328125 .37098695 .3361206 .37399293 .35411073 .37399293 .374115V.394104C.37799073 .44610597 .37799073 .49809266 .38198854 .5500946 .3829956 .5590973 .38398744 .5681 .38398744 .5770874V.5830841C.38198854 .60409548 .3639984 .62109377 .34399415 .62109377 .34199525 .621109 .33999635 .6201172 .33799745 .6201172M.16499329 .6201172C.16099549 .6201172 .1559906 .6191101 .1519928 .6171112L.14299011 .6111145C.1309967 .6021118 .12998963 .5891113 .12998963 .57611086V.56111147C.12998963 .5021057 .13798523 .44309999 .13899231 .3841095 .13999939 .36010743 .13598633 .328125 .17399597 .328125 .20098877 .3341217 .20098877 .36412049 .20098877 .394104 .20199585 .45510865 .20999146 .5151062 .20999146 .57611086V.5851135C.20799256 .60510256 .18998719 .6201172 .16999817 .6201172H.16499329Z"/>
<path id="font_97_31" d="M.1329956 .036102296C.1749878 .008102417 .21299744-.0048828127 .2599945-.0048828127 .33898927-.0048828127 .44898988 .020111084 .44898988 .124176029 .44898988 .17321778 .4149933 .21125794 .37298585 .23127747 .2939911 .27131654 .12799073 .2532959 .12799073 .32336427 .12799073 .3704071 .19799805 .37942506 .23098755 .38142396 .23999024 .38142396 .24899292 .38241578 .2579956 .38241578 .29499818 .38241578 .34399415 .37242127 .35299684 .32937623 .35798646 .3044281 .35798646 .28842164 .3889923 .28842164 .4189911 .28842164 .41999818 .30741883 .41999818 .3244171V.40942384C.41999818 .4294281 .4099884 .4404297 .3919983 .4404297 .3769989 .4404297 .36698915 .4294281 .36299134 .4164276 .33198548 .4354248 .29499818 .4404297 .2579956 .4404297 .18798828 .4404297 .069992069 .42341615 .069992069 .3234253 .069992069 .27139283 .11199951 .23835755 .1579895 .22233582 .20999146 .20431519 .2659912 .205307 .31900025 .19029236 .34899903 .18127442 .3909912 .16125489 .3909912 .12519837L.3880005 .107177738C.36999513 .05911255 .29899598 .053115846 .2619934 .053115846 .20799256 .053115846 .16099549 .07814026 .14199829 .13320923 .13198853 .15811157 .1309967 .17510987 .101989749 .17510987 .070999149 .17510987 .069992069 .15411377 .069992069 .13711548V.050109865C.069992069 .04310608 .068984989 .036102296 .068984989 .02810669 .068984989 .0071105959 .07998657-.0048828127 .09799194-.0048828127 .12298584-.0048828127 .1269989 .018112183 .1329956 .036102296Z"/>
<path id="font_97_11" d="M.12298584 .19433594H.397995C.4039917 .19433594 .41099549 .19332886 .4189911 .19332886 .44299317 .19332886 .45498658 .20532227 .45498658 .22732544 .45498658 .32939149 .4019928 .4404297 .2649994 .4404297 .14299011 .4404297 .055999757 .3323822 .055999757 .21832276 .055999757 .08917236 .16299439-.0048828127 .2809906-.0048828127 .34199525-.0048828127 .4099884 .021102906 .44198609 .07614136 .44799806 .08616638 .45498658 .10018921 .45498658 .112197879 .45298768 .13023377 .43998719 .13723755 .42099 .13723755 .3919983 .13723755 .3919983 .11520386 .3809967 .09817505 .35798646 .06813049 .32398988 .053115846 .28599549 .053115846 .20799256 .053115846 .13198853 .11520386 .12298584 .19433594M.12399292 .24932862C.13198853 .3193817 .19499207 .38241578 .2659912 .38241578 .2939911 .38241578 .32398988 .37242127 .34498597 .3534088 .375 .32737733 .38398744 .28735353 .3889923 .24932862H.12399292Z"/>
<path id="font_97_20" d="M.22399903 .5542908V.05897522H.100997928C.07598877 .05897522 .06199646 .050964357 .06199646 .02897644 .06199646 .007965088 .07798767 .0009765625 .09599304 .0009765625H.42799378C.44299317 .0029754639 .45098878 .016967774 .45098878 .030975342 .45098878 .049972536 .43699647 .05897522 .4139862 .05897522H.2889862V.5832977C.2889862 .6082916 .269989 .6123047 .2519989 .6123047H.099990848C.08299255 .6123047 .06199646 .6102905 .06199646 .58428958 .06199646 .56729128 .07199097 .5542908 .09199524 .5542908H.22399903Z"/>
<path id="font_97_7" d="M.3639984 .3773651C.36299134 .3743744 .36299134 .3713684 .36299134 .3693695 .36299134 .3443451 .38398744 .33033753 .4039917 .33033753 .42199708 .33033753 .43998719 .3403473 .44400025 .36535646 .44400025 .4394226 .35699464 .4404297 .30599977 .4404297 .23799134 .4404297 .1789856 .42640687 .12799073 .3673706 .09199524 .32432557 .07398987 .27027894 .07398987 .21624756 .07398987 .106155399 .15299988-.0048828127 .2939911-.0048828127 .34799195-.0048828127 .4059906 .019104004 .43699647 .06512451 .44400025 .07713318 .45599366 .09414673 .45599366 .1101532 .45599366 .13017273 .43899537 .13616944 .4229889 .13616944 .3929901 .13616944 .3939972 .11715698 .3829956 .09915161 .36499024 .068115238 .33198548 .053115846 .29599 .053115846 .20698548 .053115846 .14199829 .12817383 .13798523 .20922852V.21824646C.13798523 .28529359 .1789856 .35534669 .24499512 .3763733 .2619934 .38137818 .27999879 .38237 .2979889 .38237 .31999208 .38237 .34199525 .3803711 .3639984 .3773651Z"/>
<path id="font_97_34" d="M.15098572 .43066407H.05999756C.035995485 .43066407 .023986817 .41966249 .023986817 .40065003 .023986817 .380661 .038986207 .37265016 .056991579 .37265016H.15098572V.13798523C.15098572 .080078128 .1659851-.0048828127 .2849884-.0048828127 .35499574-.0048828127 .43998719 .032104494 .43998719 .11701965 .43998719 .12301636 .44099427 .1289978 .44099427 .1349945 .44099427 .15896607 .42399598 .16595459 .40699769 .16595459 .3889923 .16595459 .375 .15795899 .375 .1349945V.12800598C.375 .07408142 .33299256 .053115846 .2919922 .053115846 .272995 .053115846 .2519989 .05810547 .23699951 .0690918 .21798706 .08306885 .21598816 .107040408 .21598816 .13000489V.37265016H.38198854C.3999939 .37265016 .41799928 .3766632 .41799928 .4016571 .41799928 .4146576 .4099884 .4286499 .394989 .43066407H.21598816V.5206909C.21598816 .547699 .20098877 .55371096 .18299866 .55371096 .16499329 .55371096 .15098572 .54670718 .15098572 .5206909V.43066407Z"/>
<path id="font_97_8" d="M.2749939 .004272461C.2659912-.033721925 .24499512-.064712528 .20498657-.079711917 .19299317-.0847168 .1769867-.0887146 .1769867-.10670471 .1769867-.1217041 .19099427-.13569641 .20599365-.13769531 .22599793-.13769531 .25099183-.12271118 .2689972-.110702518 .30799867-.080718997 .33399964-.031723024 .33399964 .01826477 .33399964 .06425476 .30699159 .11425781 .2559967 .11425781 .22099304 .11425781 .19999695 .087249759 .19999695 .057266237 .19999695 .026260376 .22499085 .0012664795 .2559967 .0012664795 .2619934 .0012664795 .2689972 .0022735596 .2749939 .004272461Z"/>
<path id="font_98_2" d="M.47499085 .40576173 .3809967 .6246338C.3939972 .6486206 .42399598 .6526184 .43598939 .6536102 .44198609 .6536102 .45298768 .65460208 .45298768 .6716156 .45298768 .6826172 .44400025 .6826172 .43798829 .6826172 .42099 .6826172 .40098573 .680603 .38398744 .680603H.32598878C.2649994 .680603 .22099304 .6826172 .21998596 .6826172 .21199036 .6826172 .20199585 .6826172 .20199585 .66360476 .20199585 .6536102 .21099854 .6536102 .22399903 .6536102 .28199769 .6536102 .28599549 .6436157 .29599 .6196289L.4149933 .34179688 .19799805 .109939578C.1619873 .07096863 .11898804 .032989503 .04499817 .0289917 .032989503 .027999878 .024993897 .027999878 .024993897 .009994507 .024993897 .0069885256 .025985718 0 .036987306 0 .050994874 0 .06599426 .0019989014 .07998657 .0019989014H.1269989C.15899658 .0019989014 .19400025 0 .22499085 0 .23199463 0 .24398804 0 .24398804 .017990113 .24398804 .027999878 .23699951 .0289917 .23098755 .0289917 .21099854 .0309906 .19799805 .04197693 .19799805 .05796814 .19799805 .07496643 .20999146 .08695984 .23899842 .11694336L.32798768 .21388245C.34999085 .23686219 .40299989 .29483033 .4249878 .31681825L.5299988 .07096863C.5309906 .06896973 .5349884 .05897522 .5349884 .05796814 .5349884 .048980714 .5130005 .0309906 .48098756 .0289917 .47499085 .0289917 .46398927 .027999878 .46398927 .009994507 .46398927 0 .47399903 0 .47898866 0 .49598695 0 .5159912 .0019989014 .5329895 .0019989014H.6429901C.6609955 .0019989014 .6799927 0 .69699099 0 .70399478 0 .71499636 0 .71499636 .018997193 .71499636 .0289917 .7049866 .0289917 .69599917 .0289917 .6359863 .02999878 .6339874 .034988405 .61698916 .07196045L.4850006 .3817749 .6119995 .5177002C.621994 .5276947 .644989 .55267336 .6539917 .56266787 .69699099 .6076355 .7369995 .6486206 .81799319 .6536102 .8279877 .65460208 .83799746 .65460208 .83799746 .6716156 .83799746 .6826172 .82899478 .6826172 .82499697 .6826172 .8109894 .6826172 .79599 .680603 .7819977 .680603H.73599246C.70399478 .680603 .6689911 .6826172 .6380005 .6826172 .6309967 .6826172 .61898806 .6826172 .61898806 .6646118 .61898806 .65460208 .6259918 .6536102 .6319885 .6536102 .647995 .6516113 .6649933 .6436157 .6649933 .6246338L.6639862 .6226349C.6629944 .6156311 .6609955 .6056366 .6499939 .5936432L.47499085 .40576173Z"/>
<path id="font_97_27" d="M.10699463 .6943054C.09498596 .6923065 .08699036 .68130496 .08699036 .66929629 .08699036 .6482849 .12098694 .6332855 .13598633 .6202698 .22898865 .5412445 .27799989 .42619325 .27799989 .3071289 .27799989 .19108582 .22898865 .07002258 .13798523-.005004883 .11898804-.022018433 .085998538-.03501892 .085998538-.056030275 .085998538-.07003784 .09799194-.08103943 .11299133-.08203125H.114990238C.1329956-.08203125 .147995-.07003784 .16099549-.059020997 .27799989 .022003174 .34298707 .16706848 .34298707 .3071289V.32514955C.33799745 .4571991 .27398683 .5892639 .1659851 .66830447 .15098572 .67930606 .1349945 .6953125 .114990238 .6953125 .11199951 .6953125 .10998535 .6953125 .10699463 .6943054Z"/>
<path id="font_97_36" d="M.39698792 .05897522H.1559906C.21899414 .113967899 .2849884 .16497803 .34599305 .22097779 .40699769 .27598573 .46199037 .34298707 .46199037 .4289856 .46199037 .5529938 .35398866 .625 .24598694 .625 .15299988 .625 .050994874 .5589905 .050994874 .45399476 .050994874 .4249878 .068984989 .4079895 .09199524 .4079895 .11399841 .4079895 .13198853 .4259796 .13198853 .4479828 .13198853 .46199037 .12098694 .47099305 .12098694 .48098756 .12098694 .49998475 .14698792 .5309906 .16799927 .54499819 .18899536 .55999758 .21398926 .5649872 .23899842 .5649872H.25299073C.32299806 .5609894 .39698792 .51498416 .39698792 .4289856 .39698792 .3249817 .2919922 .25198365 .22399903 .1929779 .19400025 .16796875 .16499329 .14297486 .13598633 .1179657L.068984989 .05996704C.05899048 .051971437 .050994874 .04397583 .050994874 .02897644 .050994874 .0049743654 .069992069 .0009765625 .085998538 .0009765625H.42599488C.44400025 .0009765625 .46199037 .0049743654 .46199037 .033966066V.066970828C.46199037 .08596802 .45700074 .10397339 .43099977 .10397339 .41299439 .10397339 .39698792 .098968509 .39698792 .07197571V.05897522Z"/>
<path id="font_99_1" d="M.61099246 .32040406C.61099246 .35339356 .60798647 .35639955 .57598879 .35639955H.08999634C.07299805 .35639955 .054992677 .35639955 .054992677 .33639527 .054992677 .31640626 .07299805 .31640626 .08999634 .31640626H.57099917V.12489319C.57099917 .1068573 .57099917 .08886719 .59098818 .08886719 .61099246 .08886719 .61099246 .1068573 .61099246 .12489319V.32040406Z"/>
<path id="font_97_24" d="M.23799134 .4889984V.05897522H.14399719C.11999512 .05897522 .10998535 .047973634 .10998535 .029968262 .10998535 .010971069 .12199402 .0009765625 .14399719 .0009765625H.33999635C.35499574 .0009918213 .36999513 0 .3849945 0 .41099549 0 .43099977 .004989624 .43099977 .0309906 .43099977 .048965455 .41799928 .05897522 .3959961 .05897522H.30299378V.56700137C.30299378 .5730133 .3039856 .5810089 .3039856 .5880127 .3039856 .6110077 .2939911 .62402346 .2749939 .62402346 .25099183 .62402346 .24598694 .6010132 .23899842 .5850067 .22099304 .55000308 .19198609 .5149994 .1519928 .5050049 .12998963 .4980011 .10398865 .503006 .10398865 .47099305V.46699525C.10699463 .44799806 .12399292 .44400025 .13999939 .44400025H.14498902C.18099976 .44799806 .21199036 .46499635 .23799134 .4889984Z"/>
<path id="font_97_14" d="M.18099976 .43066407H.101989749C.09498596 .43066407 .08699036 .43165589 .07899475 .43165589 .055999757 .43165589 .041992189 .42166139 .041992189 .4016571 .041992189 .3786621 .05899048 .37265016 .07598877 .37265016H.18099976V.05897522H.08099365C.055999757 .05897522 .04598999 .048965455 .04598999 .029968262 .04598999 .0019836426 .070999149 0 .09498596 0 .11099243-.000030517579 .1269989 .0009765625 .14199829 .0009765625H.34799195C.36898805 .0009765625 .3809967 .011962891 .3809967 .029968262 .3809967 .051971437 .3659973 .05897522 .34399415 .05897522H.24598694V.37265016H.37098695C.3869934 .37265016 .40699769 .37565614 .40699769 .4016571 .40699769 .4186554 .394989 .43066407 .37599183 .43066407H.24598694V.48687745C.24598694 .5340576 .28599549 .56015017 .33499146 .56015017 .35198976 .56015017 .34899903 .5541382 .35299684 .5440979 .35899354 .53105166 .37298585 .52101138 .3880005 .52101138 .40899659 .52101138 .42799378 .53907778 .42799378 .56214907 .42599488 .6091614 .37399293 .61816409 .33699037 .61816409 .25898744 .61816409 .18099976 .5761566 .18099976 .47683717V.43066407Z"/>
<path id="font_97_6" d="M.16299439 .37841798C.18299866 .38041688 .20399475 .38241578 .22499085 .38241578 .2709961 .38241578 .34899903 .3644104 .34899903 .2853241V.27331544C.24798584 .27030946 .054992677 .25630189 .054992677 .124176029 .054992677 .039108278 .14199829-.0048828127 .21499634-.0048828127 .2619934-.0048828127 .30799867 .0061035158 .34799195 .03010559 .34999085 .03111267 .35299684 .033111574 .35598756 .033111574 .3600006 .033111574 .37298585 .017105103 .38598634 .0121154789 .4099884 .0019683839 .43699647 .0009765625 .46299745 .0009765625H.47799684C.5019989 .0009765625 .5130005 .011962891 .5130005 .031967164V.034973146C.5119934 .050964357 .49798585 .05897522 .48199464 .05897522H.45999146C.43798829 .05897522 .41299439 .05996704 .41299439 .08099365 .41299439 .086013797 .4139862 .09101868 .4139862 .09501648V.2672577C.4139862 .35939027 .35899354 .4334259 .24798584 .4404297H.21199036C.1619873 .4404297 .08299255 .4354248 .08299255 .37141419 .08299255 .34536744 .102996829 .3293457 .12399292 .3293457 .1459961 .3293457 .1639862 .34736634 .1639862 .36940003 .1639862 .372406 .1639862 .375412 .16299439 .37841798M.34899903 .2191925V.13206482C.34899903 .06512451 .27198792 .053115846 .22399903 .053115846 .18798828 .053115846 .11999512 .06813049 .11999512 .124176029V.1251831C.11999512 .18223572 .20799256 .20425415 .25099183 .21125794 .2829895 .2172699 .31599427 .2192688 .34899903 .2192688V.2191925Z"/>
<path id="font_97_37" d="M.09599304 .37265016V.1269989C.09599304 .09805298 .09599304 .06808472 .114990238 .042114259 .14099121 .0041046144 .18798828-.0048828127 .23098755-.0048828127 .2769928-.0048828127 .31498719 .009109497 .35198976 .037109376 .35198976 .003967285 .36898805 .0009765625 .3880005 .0009765625H.44099427C.44699098 .0009765625 .45399476-.000030517579 .46199037-.000030517579 .48098756-.000030517579 .49798585 .007965088 .49798585 .029968262 .49798585 .047973634 .48599244 .05897522 .46598817 .05897522H.4169922V.37464906C.4169922 .38165284 .41799928 .3896637 .41799928 .39665223 .41799928 .4206543 .4059906 .43066407 .37998963 .43066407H.30699159C.29100038 .43066407 .2709961 .42765809 .2709961 .4016571 .2709961 .38365174 .2829895 .37265016 .30099488 .37265016H.35198976V.16485596C.35198976 .08506775 .29699708 .053115846 .23799134 .053115846 .19999695 .053115846 .16099549 .05909729 .16099549 .121017459V.39865113C.16099549 .41966249 .1499939 .43066407 .12799073 .43066407H.04798889C.02999878 .43066407 .01499939 .42166139 .01499939 .4016571 .01499939 .38365174 .026992798 .37265016 .04699707 .37265016H.09599304Z"/>
<path id="font_97_30" d="M.21699524 .3506775 .21598816 .39465333C.21598816 .4186554 .20698548 .43066407 .18199158 .43066407H.068984989C.049987794 .43066407 .034988405 .4226532 .034988405 .4016571 .034988405 .37965394 .049987794 .37265016 .07199097 .37265016H.15098572V.05897522H.068984989C.04798889 .05908203 .034988405 .049057008 .034988405 .030029297 .034988405 .014007568 .04699707 0 .066986087 0 .07199097-.000030517579 .07699585 .0009765625 .08198547 .0009765625H.2689972C.28399659 .0009918213 .29899598 0 .31399537 0 .34199525 0 .36099244 .005996704 .36099244 .031036377 .36099244 .048065187 .34799195 .060073854 .32598878 .060073854 .31799317 .05996704 .30999757 .05897522 .30299378 .05897522H.21598816V.17715454C.21598816 .2462616 .23298645 .3063507 .2939911 .3504181 .31999208 .36946107 .35299684 .37947084 .3849945 .37947084 .41099549 .37947084 .397995 .33946229 .43699647 .33946229 .45799256 .33940126 .47698976 .35543824 .47698976 .37947084 .47698976 .42947389 .41600038 .43847657 .3849945 .43847657 .32199098 .43847657 .24899292 .40446473 .21699524 .35142518V.3506775Z"/>
<path id="font_97_21" d="M.16099549 .380661V.39665223C.16099549 .41966249 .15098572 .43066407 .12799073 .43066407H.04798889C.02999878 .43066407 .01499939 .42166139 .01499939 .4016571 .01499939 .38365174 .026992798 .37265016 .04699707 .37265016H.09599304V.05897522H.04598999C.027999878 .05897522 .01499939 .047973634 .01499939 .029968262 .01499939 .007965088 .02999878 .0009765625 .050994874 .0009765625H.20698548C.23098755 .0009765625 .24198914 .011962891 .24198914 .029968262 .24198914 .047973634 .22898865 .05897522 .21099854 .05897522H.16099549V.23072815C.16099549 .26567079 .1659851 .29763795 .18699646 .32759095 .20899964 .35754396 .24398804 .37850953 .2809906 .37850953 .33599855 .37850953 .35198976 .34057618 .35198976 .29164125V.05897522H.3019867C.28399659 .05897522 .2709961 .047973634 .2709961 .029968262 .2709961 .011962891 .28199769 .0009765625 .30599977 .0009765625H.46199037C.48298646 .0009765625 .49798585 .007965088 .49798585 .029968262 .49798585 .047973634 .4850006 .05897522 .46699525 .05897522H.4169922V.2806549C.4169922 .3475647 .4019928 .43652345 .29100038 .43652345 .24099732 .43652345 .19599915 .41551209 .16099549 .38050843V.380661Z"/>
<path id="font_97_19" d="M.23599243 .37265016V.05897522H.116989139C.09298706 .05897522 .08198547 .048965455 .08198547 .030975342 .08198547 .016967774 .08999634 .0029754639 .10499573 .0009765625H.40899659C.42999269 .0009765625 .43998719 .012969971 .43998719 .029968262 .43998719 .048965455 .42900086 .05897522 .40299989 .05897522H.30099488V.3976593C.30099488 .426651 .2829895 .43066407 .2659912 .43066407H.12998963C.11299133 .43066407 .08898926 .42965699 .08898926 .4016571 .08898926 .380661 .10598755 .37165834 .1289978 .37165834 .13699341 .37165834 .1459961 .37265016 .15299988 .37265016H.23599243M.24899292 .6123047C.22698975 .6123047 .21099854 .587204 .21099854 .5691376 .21099854 .5450592 .23098755 .52297976 .2559967 .52297976 .27999879 .52297976 .30099488 .5440521 .30099488 .5671387 .30099488 .5912018 .2809906 .61328127 .2559967 .61328127 .2539978 .6132965 .25099183 .6123047 .24899292 .6123047Z"/>
</defs>
<path transform="matrix(1,0,0,-1,.99710085,110.39649)" d="M0 0V105.417C0 107.618 1.784 109.402 3.985 109.402H418.382C420.583 109.402 422.367 107.618 422.367 105.417V0C422.367-2.201 420.583-3.985 418.382-3.985H3.985C1.784-3.985 0-2.201 0 0Z" fill="#ebeef4"/>
<path transform="matrix(1,0,0,-1,.99710085,110.39649)" stroke-width="1.993" stroke-linecap="butt" stroke-miterlimit="10" stroke-linejoin="miter" fill="none" stroke="#3b528b" d="M0 0V105.417C0 107.618 1.784 109.402 3.985 109.402H418.382C420.583 109.402 422.367 107.618 422.367 105.417V0C422.367-2.201 420.583-3.985 418.382-3.985H3.985C1.784-3.985 0-2.201 0 0Z"/>
<path transform="matrix(1,0,0,-1,6.666397,57.687997)" stroke-width="9.963" stroke-linecap="butt" stroke-miterlimit="10" stroke-linejoin="miter" fill="none" stroke="#cbcbcb" d="M0 0H12.181C13.281 0 14.572-.798 15.064-1.782L27.456-26.565C27.948-27.549 29.239-28.347 30.339-28.347H338.169C339.27-28.347 340.904-27.852 341.82-27.242L381.024-1.105C381.94-.495 383.574 0 384.674 0H410.531"/>
<path transform="matrix(1,0,0,-1,6.666397,57.687997)" stroke-width="9.963" stroke-linecap="butt" stroke-miterlimit="10" stroke-linejoin="miter" fill="none" stroke="#cbcbcb" d="M0 0H12.181C13.281 0 14.572 .798 15.064 1.782L27.456 26.565C27.948 27.549 29.239 28.347 30.339 28.347H338.169C339.27 28.347 340.904 27.852 341.82 27.242L381.024 1.105C381.94 .495 383.574 0 384.674 0H410.531"/>
<path transform="matrix(1,0,0,-1,6.666397,57.687997)" stroke-width="2.989" stroke-linecap="butt" stroke-miterlimit="10" stroke-linejoin="miter" fill="none" stroke="#d8dce8" d="M0 0H12.181C13.281 0 14.572-.798 15.064-1.782L27.456-26.565C27.948-27.549 29.239-28.347 30.339-28.347H36.469"/>
<path transform="matrix(1,0,0,-1,47.879034,86.0348)" d="M0 0-4.339 3.507V0-3.507Z" fill="#d8dce8"/>
<path transform="matrix(1,0,0,-1,47.879034,86.0348)" stroke-width="1.619" stroke-linecap="butt" stroke-linejoin="round" fill="none" stroke="#d8dce8" d="M0 0-4.339 3.507V0-3.507Z"/>
<path transform="matrix(1,0,0,-1,6.666397,57.687997)" stroke-width="2.989" stroke-linecap="butt" stroke-miterlimit="10" stroke-linejoin="miter" fill="none" stroke="#d8dce8" d="M0 0H12.181C13.281 0 14.572 .798 15.064 1.782L27.456 26.565C27.948 27.549 29.239 28.347 30.339 28.347H36.469"/>
<path transform="matrix(1,0,0,-1,47.879034,29.341179)" d="M0 0-4.339 3.507V0-3.507Z" fill="#d8dce8"/>
<path transform="matrix(1,0,0,-1,47.879034,29.341179)" stroke-width="1.619" stroke-linecap="butt" stroke-linejoin="round" fill="none" stroke="#d8dce8" d="M0 0-4.339 3.507V0-3.507Z"/>
<path transform="matrix(1,0,0,-1,403.52183,57.687997)" stroke-width="2.989" stroke-linecap="butt" stroke-miterlimit="10" stroke-linejoin="miter" fill="none" stroke="#d8dce8" d="M0 0H8.122"/>
<path transform="matrix(1,0,0,-1,416.38755,57.688)" d="M0 0-4.339 3.507V0-3.507Z" fill="#d8dce8"/>
<path transform="matrix(1,0,0,-1,416.38755,57.688)" stroke-width="1.619" stroke-linecap="butt" stroke-linejoin="round" fill="none" stroke="#d8dce8" d="M0 0-4.339 3.507V0-3.507Z"/>
<path transform="matrix(1,0,0,-1,162.57392,86.03479)" stroke-width="2.989" stroke-linecap="butt" stroke-miterlimit="10" stroke-linejoin="miter" fill="none" stroke="#d8dce8" d="M0 0H8.122"/>
<path transform="matrix(1,0,0,-1,175.43967,86.0348)" d="M0 0-4.339 3.507V0-3.507Z" fill="#d8dce8"/>
<path transform="matrix(1,0,0,-1,175.43967,86.0348)" stroke-width="1.619" stroke-linecap="butt" stroke-linejoin="round" fill="none" stroke="#d8dce8" d="M0 0-4.339 3.507V0-3.507Z"/>
<path transform="matrix(1,0,0,-1,261.78773,86.03479)" stroke-width="2.989" stroke-linecap="butt" stroke-miterlimit="10" stroke-linejoin="miter" fill="none" stroke="#d8dce8" d="M0 0H8.122"/>
<path transform="matrix(1,0,0,-1,274.6535,86.0348)" d="M0 0-4.339 3.507V0-3.507Z" fill="#d8dce8"/>
<path transform="matrix(1,0,0,-1,274.6535,86.0348)" stroke-width="1.619" stroke-linecap="butt" stroke-linejoin="round" fill="none" stroke="#d8dce8" d="M0 0-4.339 3.507V0-3.507Z"/>
<path transform="matrix(1,0,0,-1,49.1866,104.72719)" d="M0 0V37.385C0 39.586 1.784 41.37 3.985 41.37H109.402C111.603 41.37 113.387 39.586 113.387 37.385V0C113.387-2.201 111.603-3.985 109.402-3.985H3.985C1.784-3.985 0-2.201 0 0Z" fill="#e4f1f1"/>
<path transform="matrix(1,0,0,-1,49.1866,104.72719)" stroke-width=".398" stroke-linecap="butt" stroke-miterlimit="10" stroke-linejoin="miter" fill="none" stroke="#000000" d="M0 0V37.385C0 39.586 1.784 41.37 3.985 41.37H109.402C111.603 41.37 113.387 39.586 113.387 37.385V0C113.387-2.201 111.603-3.985 109.402-3.985H3.985C1.784-3.985 0-2.201 0 0Z"/>
<use data-text="p" xlink:href="#font_97_25" transform="matrix(11.955,0,0,-11.955,60.573,88.856998)"/>
<use data-text="o" xlink:href="#font_97_23" transform="matrix(11.955,0,0,-11.955,66.72983,88.856998)"/>
<use data-text="(" xlink:href="#font_97_26" transform="matrix(11.955,0,0,-11.955,72.88665,88.856998)"/>
<use data-text="&quot;" xlink:href="#font_97_29" transform="matrix(11.955,0,0,-11.955,79.04347,88.856998)"/>
<use data-text="s" xlink:href="#font_97_31" transform="matrix(11.955,0,0,-11.955,85.200298,88.856998)"/>
<use data-text="e" xlink:href="#font_97_11" transform="matrix(11.955,0,0,-11.955,91.35712,88.856998)"/>
<use data-text="l" xlink:href="#font_97_20" transform="matrix(11.955,0,0,-11.955,97.51394,88.856998)"/>
<use data-text="e" xlink:href="#font_97_11" transform="matrix(11.955,0,0,-11.955,103.67076,88.856998)"/>
<use data-text="c" xlink:href="#font_97_7" transform="matrix(11.955,0,0,-11.955,109.82758,88.856998)"/>
<use data-text="t" xlink:href="#font_97_34" transform="matrix(11.955,0,0,-11.955,115.984409,88.856998)"/>
<use data-text="&quot;" xlink:href="#font_97_29" transform="matrix(11.955,0,0,-11.955,122.14123,88.856998)"/>
<use data-text="," xlink:href="#font_97_8" transform="matrix(11.955,0,0,-11.955,128.227,88.856998)"/>
<use data-text="X" xlink:href="#font_98_2" transform="matrix(11.955,0,0,-11.955,134.378,88.856998)"/>
<use data-text=")" xlink:href="#font_97_27" transform="matrix(11.955,0,0,-11.955,145.033,88.856998)"/>
<path transform="matrix(1,0,0,-1,176.74732,104.72719)" d="M0 0V37.385C0 39.586 1.784 41.37 3.985 41.37H81.055C83.256 41.37 85.04 39.586 85.04 37.385V0C85.04-2.201 83.256-3.985 81.055-3.985H3.985C1.784-3.985 0-2.201 0 0Z" fill="#e4f1f1"/>
<path transform="matrix(1,0,0,-1,176.74732,104.72719)" stroke-width=".398" stroke-linecap="butt" stroke-miterlimit="10" stroke-linejoin="miter" fill="none" stroke="#000000" d="M0 0V37.385C0 39.586 1.784 41.37 3.985 41.37H81.055C83.256 41.37 85.04 39.586 85.04 37.385V0C85.04-2.201 83.256-3.985 81.055-3.985H3.985C1.784-3.985 0-2.201 0 0Z"/>
<use data-text="p" xlink:href="#font_97_25" transform="matrix(11.955,0,0,-11.955,197.737,88.856998)"/>
<use data-text="o" xlink:href="#font_97_23" transform="matrix(11.955,0,0,-11.955,203.89383,88.856998)"/>
<use data-text="(" xlink:href="#font_97_26" transform="matrix(11.955,0,0,-11.955,210.05066,88.856998)"/>
<use data-text="o" xlink:href="#font_97_23" transform="matrix(11.955,0,0,-11.955,216.20749,88.856998)"/>
<use data-text="p" xlink:href="#font_97_25" transform="matrix(11.955,0,0,-11.955,222.36432,88.856998)"/>
<use data-text="2" xlink:href="#font_97_36" transform="matrix(11.955,0,0,-11.955,228.52115,88.856998)"/>
<use data-text=")" xlink:href="#font_97_27" transform="matrix(11.955,0,0,-11.955,234.67798,88.856998)"/>
<path transform="matrix(1,0,0,-1,162.57392,29.341195)" stroke-width="2.989" stroke-linecap="butt" stroke-miterlimit="10" stroke-linejoin="miter" fill="none" stroke="#d8dce8" d="M0 0H8.122"/>
<path transform="matrix(1,0,0,-1,175.43967,29.341179)" d="M0 0-4.339 3.507V0-3.507Z" fill="#d8dce8"/>
<path transform="matrix(1,0,0,-1,175.43967,29.341179)" stroke-width="1.619" stroke-linecap="butt" stroke-linejoin="round" fill="none" stroke="#d8dce8" d="M0 0-4.339 3.507V0-3.507Z"/>
<path transform="matrix(1,0,0,-1,261.78773,29.341195)" stroke-width="2.989" stroke-linecap="butt" stroke-miterlimit="10" stroke-linejoin="miter" fill="none" stroke="#d8dce8" d="M0 0H8.122"/>
<path transform="matrix(1,0,0,-1,274.6535,29.341179)" d="M0 0-4.339 3.507V0-3.507Z" fill="#d8dce8"/>
<path transform="matrix(1,0,0,-1,274.6535,29.341179)" stroke-width="1.619" stroke-linecap="butt" stroke-linejoin="round" fill="none" stroke="#d8dce8" d="M0 0-4.339 3.507V0-3.507Z"/>
<path transform="matrix(1,0,0,-1,49.1866,48.033594)" d="M0 0V37.385C0 39.586 1.784 41.37 3.985 41.37H109.402C111.603 41.37 113.387 39.586 113.387 37.385V0C113.387-2.201 111.603-3.985 109.402-3.985H3.985C1.784-3.985 0-2.201 0 0Z" fill="#e4f1f1"/>
<path transform="matrix(1,0,0,-1,49.1866,48.033594)" stroke-width=".398" stroke-linecap="butt" stroke-miterlimit="10" stroke-linejoin="miter" fill="none" stroke="#000000" d="M0 0V37.385C0 39.586 1.784 41.37 3.985 41.37H109.402C111.603 41.37 113.387 39.586 113.387 37.385V0C113.387-2.201 111.603-3.985 109.402-3.985H3.985C1.784-3.985 0-2.201 0 0Z"/>
<use data-text="p" xlink:href="#font_97_25" transform="matrix(11.955,0,0,-11.955,56.588,32.164)"/>
<use data-text="o" xlink:href="#font_97_23" transform="matrix(11.955,0,0,-11.955,62.744829,32.164)"/>
<use data-text="(" xlink:href="#font_97_26" transform="matrix(11.955,0,0,-11.955,68.90165,32.164)"/>
<use data-text="&quot;" xlink:href="#font_97_29" transform="matrix(11.955,0,0,-11.955,75.05847,32.164)"/>
<use data-text="s" xlink:href="#font_97_31" transform="matrix(11.955,0,0,-11.955,81.215297,32.164)"/>
<use data-text="e" xlink:href="#font_97_11" transform="matrix(11.955,0,0,-11.955,87.372119,32.164)"/>
<use data-text="l" xlink:href="#font_97_20" transform="matrix(11.955,0,0,-11.955,93.52894,32.164)"/>
<use data-text="e" xlink:href="#font_97_11" transform="matrix(11.955,0,0,-11.955,99.68576,32.164)"/>
<use data-text="c" xlink:href="#font_97_7" transform="matrix(11.955,0,0,-11.955,105.84258,32.164)"/>
<use data-text="t" xlink:href="#font_97_34" transform="matrix(11.955,0,0,-11.955,111.999408,32.164)"/>
<use data-text="&quot;" xlink:href="#font_97_29" transform="matrix(11.955,0,0,-11.955,118.15623,32.164)"/>
<use data-text="," xlink:href="#font_97_8" transform="matrix(11.955,0,0,-11.955,124.242,32.164)"/>
<use data-text="&#x00ac;" xlink:href="#font_99_1" transform="matrix(11.955,0,0,-11.955,130.39299,32.164)" fill="#ff0000"/>
<use data-text="X" xlink:href="#font_98_2" transform="matrix(11.955,0,0,-11.955,138.36698,32.164)" fill="#ff0000"/>
<use data-text=")" xlink:href="#font_97_27" transform="matrix(11.955,0,0,-11.955,149.01799,32.164)"/>
<path transform="matrix(1,0,0,-1,176.74732,48.033594)" d="M0 0V37.385C0 39.586 1.784 41.37 3.985 41.37H81.055C83.256 41.37 85.04 39.586 85.04 37.385V0C85.04-2.201 83.256-3.985 81.055-3.985H3.985C1.784-3.985 0-2.201 0 0Z" fill="#e4f1f1"/>
<path transform="matrix(1,0,0,-1,176.74732,48.033594)" stroke-width=".398" stroke-linecap="butt" stroke-miterlimit="10" stroke-linejoin="miter" fill="none" stroke="#000000" d="M0 0V37.385C0 39.586 1.784 41.37 3.985 41.37H81.055C83.256 41.37 85.04 39.586 85.04 37.385V0C85.04-2.201 83.256-3.985 81.055-3.985H3.985C1.784-3.985 0-2.201 0 0Z"/>
<use data-text="p" xlink:href="#font_97_25" transform="matrix(11.955,0,0,-11.955,197.737,32.164)"/>
<use data-text="o" xlink:href="#font_97_23" transform="matrix(11.955,0,0,-11.955,203.89383,32.164)"/>
<use data-text="(" xlink:href="#font_97_26" transform="matrix(11.955,0,0,-11.955,210.05066,32.164)"/>
<use data-text="o" xlink:href="#font_97_23" transform="matrix(11.955,0,0,-11.955,216.20749,32.164)"/>
<use data-text="p" xlink:href="#font_97_25" transform="matrix(11.955,0,0,-11.955,222.36432,32.164)"/>
<use data-text="1" xlink:href="#font_97_24" transform="matrix(11.955,0,0,-11.955,228.52115,32.164)"/>
<use data-text=")" xlink:href="#font_97_27" transform="matrix(11.955,0,0,-11.955,234.67798,32.164)"/>
<path transform="matrix(1,0,0,-1,275.96113,104.72719)" d="M0 0V94.078C0 96.279 1.784 98.064 3.985 98.064H123.576C125.776 98.064 127.561 96.279 127.561 94.078V0C127.561-2.201 125.776-3.985 123.576-3.985H3.985C1.784-3.985 0-2.201 0 0Z" fill="#e4f1f1"/>
<path transform="matrix(1,0,0,-1,275.96113,104.72719)" stroke-width=".398" stroke-linecap="butt" stroke-miterlimit="10" stroke-linejoin="miter" fill="none" stroke="#000000" d="M0 0V94.078C0 96.279 1.784 98.064 3.985 98.064H123.576C125.776 98.064 127.561 96.279 127.561 94.078V0C127.561-2.201 125.776-3.985 123.576-3.985H3.985C1.784-3.985 0-2.201 0 0Z"/>
<use data-text="p" xlink:href="#font_97_25" transform="matrix(11.955,0,0,-11.955,284.382,60.510999)"/>
<use data-text="o" xlink:href="#font_97_23" transform="matrix(11.955,0,0,-11.955,290.53883,60.510999)"/>
<use data-text="(" xlink:href="#font_97_26" transform="matrix(11.955,0,0,-11.955,296.69566,60.510999)"/>
<use data-text="&quot;" xlink:href="#font_97_29" transform="matrix(11.955,0,0,-11.955,302.85249,60.510999)"/>
<use data-text="f" xlink:href="#font_97_14" transform="matrix(11.955,0,0,-11.955,309.0093,60.510999)"/>
<use data-text="e" xlink:href="#font_97_11" transform="matrix(11.955,0,0,-11.955,315.16615,60.510999)"/>
<use data-text="a" xlink:href="#font_97_6" transform="matrix(11.955,0,0,-11.955,321.32298,60.510999)"/>
<use data-text="t" xlink:href="#font_97_34" transform="matrix(11.955,0,0,-11.955,327.4798,60.510999)"/>
<use data-text="u" xlink:href="#font_97_37" transform="matrix(11.955,0,0,-11.955,333.63664,60.510999)"/>
<use data-text="r" xlink:href="#font_97_30" transform="matrix(11.955,0,0,-11.955,339.79347,60.510999)"/>
<use data-text="e" xlink:href="#font_97_11" transform="matrix(11.955,0,0,-11.955,345.9503,60.510999)"/>
<use data-text="u" xlink:href="#font_97_37" transform="matrix(11.955,0,0,-11.955,352.10713,60.510999)"/>
<use data-text="n" xlink:href="#font_97_21" transform="matrix(11.955,0,0,-11.955,358.26396,60.510999)"/>
<use data-text="i" xlink:href="#font_97_19" transform="matrix(11.955,0,0,-11.955,364.338,60.510999)"/>
<use data-text="o" xlink:href="#font_97_23" transform="matrix(11.955,0,0,-11.955,370.49485,60.510999)"/>
<use data-text="n" xlink:href="#font_97_21" transform="matrix(11.955,0,0,-11.955,376.65168,60.510999)"/>
<use data-text="&quot;" xlink:href="#font_97_29" transform="matrix(11.955,0,0,-11.955,382.8085,60.510999)"/>
<use data-text=")" xlink:href="#font_97_27" transform="matrix(11.955,0,0,-11.955,388.96534,60.510999)"/>
</svg>
