<svg xmlns="http://www.w3.org/2000/svg" xmlns:xlink="http://www.w3.org/1999/xlink" version="1.1" width="417.888pt" height="228.764pt" viewBox="0 0 417.888 228.764">
<defs>
<path id="font_83_21" d="M.16799927 .39053346V.39753724C.16799927 .427536 .14498902 .430542 .12599182 .430542H.070999149C.06399536 .430542 .056991579 .4315338 .04899597 .4315338 .026992798 .4315338 .0079956059 .4225464 .0079956059 .39753724 .0079956059 .37654115 .023986817 .36553956 .042999269 .36553956H.09399414V-.15571594H.041992189C.019989014-.15571594 .0079956059-.17071533 .0079956059-.18870545 .0079956059-.2117157 .024993897-.22070313 .04798889-.22070313H.21398926C.23799134-.22070313 .2539978-.21070862 .2539978-.18870545 .2539978-.17071533 .24198914-.15571594 .21998596-.15571594H.16799927V.04411316C.19799805 .01411438 .23899842-.0048828127 .28199769-.0048828127 .40098573-.0048828127 .48999024 .10203552 .48999024 .21881104 .48999024 .31663514 .42099 .43554688 .2939911 .43554688 .24598694 .43554688 .20599365 .4195404 .16799927 .39053346M.4149933 .20384217C.40899659 .13197327 .35699464 .06111145 .27799989 .06111145 .21099854 .06111145 .16699219 .13796997 .16699219 .19386292 .16699219 .20584107 .16799927 .21781922 .16799927 .22879029V.27770997C.1749878 .3296051 .23599243 .36953736 .2869873 .36953736 .3659973 .36953736 .41600038 .29167176 .41600038 .22080994 .41600038 .21482849 .41600038 .20982361 .4149933 .20384217Z"/>
<path id="font_83_20" d="M.24798584 .43945313C.13598633 .42645265 .05899048 .33439637 .054992677 .22727967V.2172699C.054992677 .10614014 .13699341-.00390625 .2630005-.00390625H.2749939C.3880005 .006088257 .46499635 .102127078 .46899415 .20625305V.21426392C.46899415 .32539369 .3899994 .43945313 .2599945 .43945313H.24798584M.1289978 .21125794C.1289978 .21525574 .12799073 .22027588 .12799073 .22427368 .12799073 .29936219 .18399048 .37445069 .2630005 .37445069H.2639923C.33898927 .37445069 .3869934 .30436708 .394989 .23628235V.22627259C.394989 .15219116 .34799195 .061080934 .2599945 .061080934 .18099976 .061080934 .13598633 .14317322 .1289978 .21125794Z"/>
<path id="font_83_22" d="M.3959961 .6943054C.36299134 .68930056 .30299378 .63027957 .2709961 .59025576 .20698548 .5102234 .17199707 .40818788 .17199707 .30613709 .17199707 .16607666 .23699951 .03201294 .34899903-.053024293 .3639984-.06503296 .38398744-.08203125 .40499879-.08203125 .4229889-.08203125 .43699647-.06803894 .43699647-.05203247 .43699647-.03201294 .4189911-.024017334 .40499879-.014007568 .30099488 .055023195 .24598694 .18507385 .24598694 .30613709 .24598694 .42918397 .3019867 .5632477 .4139862 .6332855 .42599488 .6412811 .43699647 .6502838 .43699647 .66529849 .43699647 .68330386 .42199708 .6953125 .40499879 .6953125 .4019928 .6953125 .39898683 .6953125 .3959961 .6943054Z"/>
<path id="font_83_25" d="M.16999817 .6220703C.147995 .62005618 .1289978 .60406497 .1269989 .58106997 .1269989 .57406619 .12799073 .56707766 .12799073 .56007388L.1309967 .5150757C.13398743 .47209168 .13699341 .4281006 .13899231 .38510133 .13999939 .3591156 .13899231 .328125 .17799378 .328125 .21299744 .328125 .20698548 .3751068 .20899964 .39511109 .21299744 .4500885 .21499634 .5050812 .21899414 .56007388 .21998596 .56607058 .21998596 .57107546 .21998596 .57606509V.58306887C.21699524 .60505679 .19699097 .6220703 .1749878 .6220703H.16999817M.34700013 .6220703C.32499696 .62005618 .30599977 .60406497 .3039856 .58106997 .3039856 .57406619 .30499269 .56607058 .30499269 .5590668L.30799867 .51408389C.31098939 .4710846 .31399537 .4270935 .31599427 .3841095 .31698609 .35810853 .31599427 .328125 .35499574 .328125 .3899994 .328125 .38398744 .3751068 .38598634 .39511109 .3889923 .43510438 .3899994 .4750824 .3929901 .5150757L.3959961 .56007388C.3959961 .56607058 .39698792 .57206729 .39698792 .57806399V.58306887C.3929901 .60505679 .37399293 .6220703 .35198976 .6220703H.34700013Z"/>
<path id="font_83_27" d="M.14099121 .031082154C.1769867 .0050811769 .22200012-.00390625 .2659912-.00390625 .34999085-.00390625 .45899964 .024093628 .45899964 .12716675 .45899964 .25730897 .269989 .26031495 .20599365 .2733307 .1789856 .27934266 .13699341 .29335023 .13699341 .3193817 .13699341 .36643983 .21398926 .37445069 .2539978 .37445069 .2869873 .37445069 .34498597 .3734436 .35299684 .33439637 .35899354 .31144715 .35798646 .29144288 .3929901 .29144288 .4249878 .29144288 .42900086 .31243897 .42900086 .33244325V.40245057C.42900086 .42243959 .4189911 .43945313 .397995 .43945313 .3849945 .43945313 .37199403 .43244935 .36698915 .42044068 .33599855 .43544007 .2999878 .43945313 .2659912 .43945313 .18199158 .43945313 .07199097 .41545106 .07199097 .31944276 .07199097 .15222168 .3939972 .24136353 .3939972 .12619019 .3939972 .065093997 .29599 .061080934 .27198792 .061080934H.2669983C.21899414 .061080934 .17399597 .07911682 .1519928 .12919617 .14199829 .15408325 .13899231 .17108155 .10798645 .17108155 .07499695 .17108155 .07199097 .14909363 .07199097 .13008118V.033081056C.07199097 .013092041 .08198547-.00390625 .10398865-.00390625 .12399292-.00390625 .13699341 .012084961 .14099121 .031082154Z"/>
<path id="font_83_29" d="M.09399414 .36566163V.12600708C.09399414 .0970459 .09599304 .06808472 .11299133 .04408264 .14099121 .0050811769 .19198609-.00390625 .23699951-.00390625 .27799989-.00390625 .32299806 .006088257 .35598756 .031082154 .35699464 .012084961 .36999513 .001083374 .3919983 .001083374H.47898866C.49899293 .001083374 .5159912 .01109314 .5159912 .034088136 .5159912 .05508423 .5 .066085819 .48098756 .066085819H.42999269V.39265443C.42999269 .4156494 .42199708 .43066407 .3899994 .43066407H.30899049C.2919922 .43066407 .269989 .426651 .269989 .39865113 .269989 .380661 .2809906 .36566163 .3039856 .36566163H.35598756V.16294861C.35598756 .08306885 .29599 .061080934 .24099732 .061080934 .20498657 .061080934 .16799927 .065078739 .16799927 .1230011V.3896637C.16799927 .4136505 .1599884 .43066407 .1289978 .43066407H.04399109C.022994996 .43066407 .0079956059 .41966249 .0079956059 .3976593 .0079956059 .37265016 .027999878 .36566163 .04899597 .36566163H.09399414Z"/>
<path id="font_83_5" d="M.09399414 .54730227V.042114259C.09399414 .009109497 .10998535 .0011138916 .13198853 .0011138916 .1559906 .0011138916 .16799927 .015106201 .16799927 .038116456V.04411316C.19799805 .01411438 .23899842-.0048828127 .28199769-.0048828127 .40098573-.0048828127 .48999024 .10203552 .48999024 .21881104 .48999024 .31663514 .42099 .43554688 .2939911 .43554688 .24598694 .43554688 .20599365 .4195404 .16799927 .39053346V.57229617C.16799927 .6112976 .1459961 .6123047 .12599182 .6123047H.037994386C.020996094 .6102905 .0079956059 .5982971 .0079956059 .58029177 .0079956059 .56129458 .020996094 .54730227 .042999269 .54730227H.09399414M.4149933 .20384217C.40899659 .13197327 .35699464 .06111145 .27799989 .06111145 .21099854 .06111145 .16699219 .13796997 .16699219 .19386292 .16699219 .20584107 .16799927 .21781922 .16799927 .22880554V.27770997C.1749878 .32962037 .23599243 .36953736 .2869873 .36953736 .3659973 .36953736 .41600038 .291687 .41600038 .22080994 .41600038 .21482849 .41600038 .20983887 .4149933 .20384217Z"/>
<path id="font_83_4" d="M.17199707 .3714447C.19198609 .37243653 .21199036 .37445069 .23199463 .37445069 .27999879 .37445069 .35198976 .35643006 .35198976 .28134156 .23799134 .28134156 .052993776 .25730897 .052993776 .13316345 .052993776 .04309082 .14399719-.00390625 .22299195-.00390625 .2659912-.00390625 .33198548 .006088257 .36099244 .035079957 .3889923 .0030822755 .42599488 .001083374 .46499635 .001083374H.4850006C.5009918 .001083374 .5239868 .0040893557 .5239868 .034088136 .5239868 .062088014 .5029907 .066085819 .4869995 .066085819H.47299195C.44898988 .066085819 .42599488 .066085819 .42599488 .086120609V.24433899C.42599488 .25735475 .4269867 .27038575 .4269867 .2834015 .4269867 .365448 .35899354 .42243959 .2809906 .43644715 .26098634 .43945313 .24198914 .43945313 .22200012 .43945313 .16799927 .43945313 .07899475 .43644715 .07899475 .36444093 .07899475 .33644105 .100997928 .31744386 .12599182 .31744386 .1579895 .31744386 .17199707 .34344483 .17199707 .3714447M.35198976 .2183075V.14120484C.35198976 .08010864 .2849884 .061080934 .22999573 .061080934 .19099427 .061080934 .1269989 .07911682 .1269989 .13319397 .1269989 .18426514 .21499634 .20329285 .2559967 .21029663 .28799439 .21530152 .31999208 .2183075 .35198976 .2183075Z"/>
<path id="font_83_18" d="M.10998535 .39953614C.10998535 .4285431 .085998538 .430542 .066986087 .430542H.02999878C.010986328 .430542-.007003784 .4225464-.007003784 .39953614-.007003784 .38354493 .0029907227 .36854554 .018997193 .36553956H.049987794V.065963748C.04399109 .065963748 .037994386 .066970828 .0309906 .066970828 .008987427 .066970828-.007003784 .05596924-.007003784 .033966066-.007003784 .014968872 .0039978029 .0009765625 .027999878 .0009765625H.1289978C.1499939 .0009765625 .16699219 .009963989 .16699219 .032974245 .16699219 .05496216 .1499939 .066970828 .1289978 .066970828 .12298584 .066970828 .115997318 .065963748 .10998535 .065963748V.22175598C.10998535 .27766419 .12199402 .37054444 .19599915 .37054444 .23098755 .37054444 .23199463 .32260133 .23199463 .2916565V.065963748H.22399903C.20098877 .065963748 .18598938 .05596924 .18598938 .032974245 .18598938 .009963989 .20298767 .0009765625 .22399903 .0009765625H.31399537C.33499146 .0009765625 .34999085 .013961792 .34999085 .032974245 .34999085 .053970338 .33299256 .066970828 .31098939 .066970828 .30499269 .066970828 .2979889 .065963748 .2919922 .065963748V.22175598C.2919922 .27766419 .3039856 .37054444 .37799073 .37054444 .41299439 .37054444 .4139862 .32260133 .4139862 .2916565V.065963748H.4059906C.3829956 .065963748 .36799623 .05596924 .36799623 .032974245 .36799623 .009963989 .3849945 .0009765625 .4059906 .0009765625H.49598695C.5169983 .0009765625 .5319977 .013961792 .5319977 .032974245 .5319977 .053970338 .5149994 .066970828 .49299623 .066970828 .4869995 .066970828 .47999574 .065963748 .47399903 .065963748V.2916565C.47399903 .3515625 .46199037 .43554688 .3809967 .43554688 .34199525 .43554688 .29699708 .41453553 .27799989 .38354493 .2579956 .42053224 .23199463 .43554688 .19799805 .43554688 .1659851 .43554688 .1329956 .42053224 .10998535 .39953614Z"/>
<path id="font_83_17" d="M.22499085 .54730227V.065963748H.09399414C.06599426 .065963748 .052993776 .05496216 .052993776 .033966066 .052993776 .018966675 .06199646 .0029754639 .07998657 .0009765625H.43499757C.45700074 .0009765625 .47099305 .013961792 .47099305 .032974245 .47099305 .05697632 .45599366 .065963748 .42900086 .065963748H.29899598V.5733032C.29899598 .6082916 .27999879 .6123047 .25898744 .6123047H.09298706C.07699585 .6123047 .052993776 .6092987 .052993776 .58029177 .052993776 .5562897 .067993167 .54730227 .09599304 .54730227H.22499085Z"/>
<path id="font_83_12" d="M.12998963 .19042969H.42399598C.45199586 .19042969 .46398927 .20341492 .46398927 .22842407 .46398927 .33343507 .4079895 .43945313 .2669983 .43945313 .147995 .43945313 .052993776 .33444215 .052993776 .21842957 .052993776 .08314514 .17098999-.00390625 .28799439-.00390625 .34899903-.00390625 .41600038 .019088746 .44999696 .07312012 .45700074 .08314514 .46398927 .09718323 .46398927 .11021423V.112213138C.46199037 .13227844 .44799806 .1402893 .42599488 .1402893 .3959961 .1402893 .394989 .12124634 .38398744 .10520935 .3639984 .0741272 .32598878 .06008911 .29100038 .06008911 .21699524 .06008911 .14099121 .1162262 .12998963 .19042969M.1309967 .25442506C.14498902 .3194275 .19999695 .37445069 .2709961 .37445069 .32899476 .37445069 .38398744 .33244325 .3880005 .25442506H.1309967Z"/>
<path id="font_83_23" d="M.11199951 .69433596C.09700012 .69233706 .08699036 .67832949 .08699036 .6643219 .08699036 .64930728 .09899902 .64030459 .11099243 .6333008 .21899414 .5622711 .27799989 .43321229 .27799989 .30615235 .27799989 .18008423 .22099304 .057022096 .115997318-.01600647 .101989749-.026016236 .08699036-.03302002 .08699036-.052017213 .08699036-.06803894 .100997928-.08203125 .117996219-.08203125 .13598633-.08203125 .1519928-.07003784 .1659851-.059020997 .2869873 .027008057 .35198976 .16508484 .35198976 .30815126 .35198976 .44921876 .2849884 .58628848 .16999817 .6703186 .15499878 .68130496 .13798523 .6953125 .11898804 .6953125 .116989139 .69532778 .11399841 .69433596 .11199951 .69433596Z"/>
<path id="font_83_8" d="M.2749939 .4394226C.16499329 .42642213 .07199097 .33836366 .07199097 .2171936 .07199097 .11009216 .1519928-.00390625 .29599-.00390625 .36099244-.00390625 .42999269 .022079468 .45799256 .08409119 .46199037 .09309387 .46499635 .10308838 .46499635 .112091068 .46499635 .13308716 .44699098 .14009094 .42900086 .14009094 .3769989 .14016724 .39698792 .061080934 .2979889 .061080934 .21299744 .061080934 .14498902 .13516236 .14498902 .21725464 .14498902 .26930238 .16999817 .32136537 .21598816 .35139466 .24499512 .37042237 .27598573 .37442018 .30899049 .37442018H.32798768C.34399415 .37442018 .36099244 .37342835 .36099244 .3624115V.35839845C.3659973 .33337403 .38398744 .31736756 .40699769 .31736756 .43299867 .31736756 .45399476 .3383789 .45399476 .36340333 .45399476 .4374237 .35398866 .4404297 .30699159 .4404297H.29499818C.28799439 .4404297 .28199769 .4404297 .2749939 .4394226Z"/>
<path id="font_83_16" d="M.23799134 .36566163V.065963748H.11299133C.085998538 .065963748 .07398987 .053970338 .07398987 .033966066 .07398987 .017974854 .083999637 .0029754639 .101989749 .0009765625H.42399598C.44699098 .0009765625 .45899964 .013961792 .45899964 .032974245 .45899964 .052963258 .44699098 .066970828 .42099 .066970828 .41299439 .066970828 .40499879 .065963748 .397995 .065963748H.31199647V.39265443C.31199647 .4226532 .29599 .43066407 .272995 .43066407H.11999512C.09599304 .43066407 .08198547 .4186554 .08198547 .3976593 .08198547 .37965394 .09399414 .36566163 .115997318 .36566163H.23799134M.2539978 .6123047C.22599793 .60827639 .20999146 .5852051 .20999146 .56211856 .20999146 .539032 .22898865 .51094058 .2579956 .51094058 .29100038 .51094058 .31199647 .5350189 .31199647 .56211856 .31199647 .58517459 .29299928 .61328127 .2630005 .61328127 .2599945 .6132965 .25698854 .6123047 .2539978 .6123047Z"/>
<path id="font_83_14" d="M.18099976 .43066407H.08299255C.056991579 .43066407 .042999269 .4186554 .042999269 .3976593 .042999269 .37464906 .06098938 .36566163 .08099365 .36566163H.18099976V.065963748H.09700012C.08999634 .065963748 .08299255 .066970828 .07499695 .066970828 .050994874 .066970828 .037994386 .052963258 .037994386 .033966066 .037994386 .013961792 .051986696 .0009765625 .07398987 .0009765625H.29599C.31199647 .0009918213 .32798768 0 .34498597 0 .3769989 0 .397995 .004989624 .397995 .033966066 .397995 .052947999 .38398744 .06692505 .36099244 .06692505 .35398866 .066970828 .34700013 .065963748 .34098817 .065963748H.25498963V.36566163H.38398744C.4039917 .36566163 .4169922 .380661 .4169922 .39865113 .4169922 .42565919 .3929901 .43066407 .37599183 .43066407H.25498963V.48388673C.25498963 .526062 .2939911 .55218508 .33399964 .55218508 .35598756 .55218508 .35398866 .5091858 .3919983 .5091858 .4189911 .5091858 .43699647 .5311737 .43699647 .55818179 .43399049 .6061859 .38198854 .6171875 .34098817 .6171875 .25698854 .6171875 .18099976 .57118228 .18099976 .47494508V.43066407Z"/>
<path id="font_83_24" d="M.2539978 .12890625C.22299195 .121902469 .19799805 .09991455 .19799805 .06593323 .19799805 .031951906 .22399903 .0009765625 .2639923 .0009765625H.269989C.30099488 .007965088 .32598878 .029953003 .32598878 .063934329 .32598878 .09791565 .2999878 .12890625 .2599945 .12890625H.2539978Z"/>
<path id="font_83_26" d="M.22399903 .3586731V.39065553C.22399903 .4166565 .21398926 .43066407 .18598938 .43066407H.06399536C.04399109 .43066407 .026992798 .4206543 .026992798 .39865113 .026992798 .37765504 .041992189 .36566163 .06599426 .36566163H.1499939V.065963748H.06298828C.039993287 .06593323 .026992798 .051940919 .026992798 .032958986 .026992798 .014984131 .040985109 0 .06298828 0 .068984989-.000030517579 .07398987 .0009765625 .07998657 .0009765625H.34899903C.36698915 .0019683839 .3769989 .017974854 .3769989 .033966066 .3769989 .051971437 .36499024 .066970828 .33799745 .066970828 .32998658 .066970828 .32199098 .065963748 .31599427 .065963748H.22399903V.18185425C.22399903 .26576234 .2789917 .37065126 .39898683 .37065126 .39898683 .34368897 .41999818 .32670594 .44299317 .32670594 .46598817 .32670594 .4869995 .34368897 .4869995 .37165834 .4869995 .42555238 .4249878 .43554688 .3899994 .43554688 .32398988 .43554688 .269989 .40457154 .22399903 .35862733V.3586731Z"/>
<path id="font_83_28" d="M.1499939 .43066407H.06298828C.037994386 .43066407 .024993897 .41766358 .024993897 .3976593 .024993897 .37765504 .038986207 .36566163 .06098938 .36566163H.1499939V.11907959C.1579895 .04208374 .21299744-.00390625 .2939911-.00390625 .36799623-.00390625 .44898988 .046081544 .44898988 .12908936 .44898988 .14909363 .44099427 .16508484 .41099549 .16508484 .36698915 .16508484 .38598634 .13407898 .36698915 .10108948 .35299684 .07507324 .32598878 .061080934 .29699708 .061080934 .23699951 .061080934 .22399903 .10203552 .22399903 .14297486V.36566163H.4019928C.41799928 .36865235 .4269867 .38365174 .4269867 .39865113 .4269867 .426651 .4059906 .43066407 .3889923 .43066407H.22399903V.5166931C.22399903 .5457001 .20698548 .55371096 .18699646 .55371096 .1659851 .55371096 .1499939 .544693 .1499939 .5166931V.43066407Z"/>
<path id="font_84_15" d="M.13398743 .10836792C.10899353 .10534668 .08799744 .08326721 .08799744 .055160524 .08799744 .029067994 .10798645 .0009765625 .13999939 .0009765625 .16499329 .0009765625 .19599915 .01902771 .19599915 .055160524 .19599915 .08226013 .1749878 .109375 .14199829 .109375 .13899231 .109375 .13699341 .109375 .13398743 .10836792Z"/>
<path id="font_85_1" d="M.19198609 .052993776C.19198609 .08198547 .16799927 .10598755 .13899231 .10598755 .10998535 .10598755 .085998538 .08198547 .085998538 .052993776 .085998538 .023986817 .10998535 0 .13899231 0 .16799927 0 .19198609 .023986817 .19198609 .052993776Z"/>
<path id="font_86_2" d="M.20399475 0C.43699647 0 .7659912 .17791748 .7659912 .45072938 .7659912 .53967288 .723999 .59562686 .6749878 .62661746 .58898928 .6826172 .49699403 .6826172 .4019928 .6826172 .31599427 .6826172 .25698854 .6826172 .17298889 .64660647 .039993287 .5876312 .020996094 .50468447 .020996094 .4967041 .020996094 .4907074 .024993897 .4887085 .0309906 .4887085 .04699707 .4887085 .069992069 .50268557 .07798767 .5076904 .09899902 .52168276 .101989749 .52767947 .10798645 .5466614 .12199402 .5866394 .1499939 .62161257 .27598573 .62760928 .2599945 .41874696 .20899964 .22787476 .13899231 .052993776 .101989749 .039993287 .07798767 .016998291 .07798767 .0069885256 .07798767 .0009918213 .07899475 0 .100997928 0H.20399475M.20899964 .054992677C.32299806 .33380128 .34399415 .5076904 .35798646 .62760928 .4249878 .62760928 .68099978 .62760928 .68099978 .40776063 .68099978 .21188355 .5049896 .054992677 .2630005 .054992677H.20899964Z"/>
<path id="font_87_41" d="M.13999939 .6152344C.13999939 .55236819 .11898804 .4206543 .017990113 .4206543V.40264894H.102996829V.17695618C.102996829 .16297913 .101989749 .14900208 .101989749 .13500977 .101989749 .056121828 .13798523-.0078125 .22099304-.0078125 .30099488-.0078125 .31599427 .082092288 .31599427 .14399719V.1819458H.29599C.29599 .16697693 .29699708 .1519928 .29699708 .13700867 .29699708 .09307861 .28799439 .012176514 .22799683 .012176514 .16899109 .012176514 .1599884 .082092288 .1599884 .13002014V.40264894H.2999878V.43066407H.1599884V.6152344H.13999939Z"/>
<path id="font_87_39" d="M.033996583 .42941285V.40138246H.04899597C.07699585 .40138246 .10398865 .39837647 .10398865 .35131837V.06300354C.10398865 .030975342 .07699585 .02897644 .04798889 .02897644H.033996583V.0009765625H.24598694V.02897644C.23599243 .02897644 .22499085 .02796936 .21499634 .02796936 .18598938 .02796936 .15899658 .032974245 .15899658 .070007327V.15110779C.15899658 .1721344 .1579895 .19314575 .1579895 .21417237 .1579895 .29426576 .1769867 .42140199 .27398683 .42140199 .27999879 .42140199 .2869873 .42140199 .29299928 .4203949V.41940309C.2789917 .4143982 .2689972 .40037538 .2689972 .38536073 .2689972 .36634828 .28399659 .34732057 .30699159 .34732057 .32899476 .34732057 .34298707 .3673401 .34298707 .38435365 .34298707 .4203949 .30799867 .4404297 .2749939 .4404297 .21199036 .4404297 .16899109 .38336183 .1559906 .32829286L.15499878 .4404297 .033996583 .42941285Z"/>
<path id="font_87_19" d="M.09899902 .35827638C.116989139 .399292 .1639862 .42730714 .20899964 .42730714 .2829895 .42730714 .31498719 .35627748 .31498719 .29125978V.25724793C.21099854 .25724793 .07899475 .23223877 .04699707 .12121582 .04499817 .112213138 .04399109 .10321045 .04399109 .09320068V.0861969C.049987794 .018173218 .1309967-.0078125 .18598938-.0078125 .24099732-.0078125 .2979889 .019180298 .31999208 .079193118H.32099916C.32099916 .03718567 .35099793-.0038146973 .394989-.0038146973 .43499757-.0038146973 .46598817 .031188965 .46998597 .07319641V.14620972H.44999696V.095199588C.44999696 .06619263 .44400025 .02218628 .41099549 .02218628 .37799073 .02218628 .37098695 .06518555 .37098695 .0921936 .37098695 .10321045 .37199403 .113204959 .37199403 .12321472V.29325868C.37199403 .3902893 .29599 .4453125 .21398926 .4453125 .1579895 .4453125 .101989749 .41729737 .07798767 .36128236 .07398987 .35028077 .069992069 .3362732 .069992069 .3232727 .069992069 .29826356 .08898926 .28025819 .11099243 .28025819 .13198853 .28025819 .1499939 .29826356 .1499939 .3192749 .1499939 .34127809 .13398743 .35928346 .10899353 .35928346 .10499573 .35928346 .101989749 .35928346 .09899902 .35827638M.31498719 .24024964V.1412201C.31498719 .07620239 .27198792 .012176514 .20199585 .010177612H.19799805C.1539917 .010177612 .10998535 .044189454 .10998535 .09420776 .10998535 .19822693 .22698975 .24024964 .31498719 .24024964Z"/>
<path id="font_87_27" d="M.041992189 .42926026V.40122987H.052993776C.083999637 .40122987 .10798645 .39622499 .10798645 .3511963V.06298828C.10798645 .030975342 .08099365 .02897644 .051986696 .02897644H.037994386V.0009765625H.22599793V.02897644H.20899964C.18598938 .02897644 .16299439 .031967164 .16299439 .06399536V.44026185L.041992189 .42926026M.11399841 .66015627C.08999634 .65615847 .07699585 .6361847 .07699585 .6161957 .07699585 .5962219 .09298706 .5722656 .11999512 .5722656 .14698792 .5722656 .1659851 .5932312 .1659851 .6161957 .1659851 .6381531 .147995 .6611328 .12298584 .6611328 .11999512 .6611481 .116989139 .66015627 .11399841 .66015627Z"/>
<path id="font_87_31" d="M.037994386 .42941285V.40138246H.052993776C.08099365 .40138246 .10798645 .39837647 .10798645 .35131837V.06300354C.10798645 .031967164 .08198547 .02897644 .056991579 .02897644H.037994386V.0009765625H.23498535V.02897644H.21798706C.18998719 .02897644 .16499329 .031967164 .16499329 .06401062V.2572174C.16499329 .32530213 .19799805 .42240907 .2939911 .42240907 .35198976 .42240907 .37098695 .37135316 .37098695 .3042755V.06600952C.37098695 .031967164 .34498597 .02897644 .31698609 .02897644H.30099488V.0009765625H.49798585V.02897644H.47499085C.45298768 .02897644 .43199159 .031967164 .42799378 .055999757V.29226686C.42799378 .32629396 .4269867 .36134339 .40899659 .3903656 .38598634 .42941285 .33999635 .4404297 .29699708 .4404297 .23599243 .4404297 .1749878 .39337159 .1619873 .3363037L.16099549 .4404297 .10798645 .4354248 .037994386 .42941285Z"/>
<path id="font_88_17" d="M.1659851 .38865663V.39665223C.1659851 .42965699 .14498902 .43066407 .1269989 .43066407H.04798889C.027999878 .43066407 .010986328 .4226532 .010986328 .3996582 .010986328 .37965394 .025985718 .36965943 .04499817 .36965943H.09599304V-.15971375H.04399109C.023986817-.15971375 .010986328-.17271424 .010986328-.18971253 .010986328-.21070862 .025985718-.22070313 .04798889-.22070313H.21199036C.23498535-.22070313 .25099183-.21270752 .25099183-.19070435 .25099183-.17071533 .23699951-.15971375 .21798706-.15971375H.1659851V.04510498C.19999695 .0131073 .23799134-.0048828127 .28399659-.0048828127 .39898683-.0048828127 .48799134 .10102844 .48799134 .21580506 .48799134 .32261659 .4139862 .43652345 .2899933 .43652345 .24499512 .43652345 .19999695 .41851808 .1659851 .3885193V.38865663M.4169922 .2038269C.4099884 .12997437 .35899354 .056106569 .27799989 .056106569 .20999146 .056106569 .16499329 .13496399 .16499329 .19186402 .16499329 .2038269 .1659851 .21580506 .1659851 .2277832 .1659851 .23876953 .16499329 .25074769 .16499329 .26272584 .16499329 .3256073 .22898865 .3755188 .28799439 .3755188 .37298585 .3755188 .41799928 .28567506 .41799928 .21780396 .41799928 .21281433 .41799928 .20883179 .4169922 .2038269Z"/>
<path id="font_88_15" d="M.24798584 .4404297C.1289978 .4294281 .056991579 .32237245 .056991579 .215271V.20526123C.06098938 .09614563 .1459961-.0048828127 .2630005-.0048828127H.2749939C.3939972 .0051116945 .46699525 .11016846 .46699525 .21626282V.22727967C.46299745 .3383789 .3769989 .4404297 .25898744 .4404297H.24798584M.1269989 .21125794C.1269989 .215271 .12599182 .22027588 .12599182 .22427368 .12599182 .29833985 .17999268 .37942506 .2639923 .37942506 .34098817 .37942506 .3889923 .3073578 .39698792 .23628235V.22727967C.39698792 .15220642 .34999085 .056106569 .2619934 .056106569H.2579956C.18299866 .06211853 .1349945 .13117981 .1269989 .21125794Z"/>
<path id="font_88_18" d="M.397995 .6943054C.3849945 .69229128 .36898805 .6792908 .35798646 .67129519 .23999024 .58226016 .17399597 .4472046 .17399597 .30413819V.2871399C.17999268 .14508057 .25498963 .0010223389 .3789978-.073013309 .3880005-.07801819 .39698792-.08300781 .40699769-.08300781 .42399598-.08300781 .43699647-.0690155 .43699647-.054000856 .43699647-.037002565 .41999818-.02999878 .4079895-.019989014 .3019867 .05303955 .24398804 .1790924 .24398804 .30714417 .24398804 .43618775 .30299378 .5632477 .4139862 .6372833 .4249878 .64328 .43699647 .65127566 .43699647 .6662903 .43699647 .6832886 .42399598 .6953125 .4059906 .6953125 .40299989 .6953125 .40098573 .6953125 .397995 .6943054Z"/>
<path id="font_88_21" d="M.34700013 .6220703C.32598878 .62005618 .30799867 .60505679 .30599977 .5840759V.57707217C.30599977 .57206729 .30599977 .56707766 .30699159 .5610657L.30999757 .5130768C.31199647 .47209168 .31399537 .4310913 .31799317 .3901062 .31999208 .3651123 .31399537 .328125 .35398866 .328125 .3829956 .328125 .38398744 .36810304 .38398744 .3861084V.394104C.3880005 .4500885 .3899994 .5050812 .3939972 .5610657 .394989 .56707766 .394989 .57206729 .394989 .57707217V.5840759C.3919983 .60505679 .37298585 .6220703 .35198976 .6220703H.34700013M.16999817 .6220703C.14898682 .62005618 .1309967 .60505679 .1289978 .58306887 .1289978 .57507327 .12998963 .56806948 .12998963 .56007388L.1329956 .5150757C.13598633 .4730835 .13798523 .4310913 .14099121 .38909913 .14199829 .3651123 .13699341 .328125 .1769867 .328125 .20599365 .328125 .20698548 .36810304 .20698548 .3861084V.394104C.21099854 .44909669 .21299744 .5050812 .21699524 .56007388 .21699524 .56607058 .21798706 .57307437 .21798706 .57907107V.5840759C.21499634 .60505679 .19599915 .6220703 .1749878 .6220703H.16999817Z"/>
<path id="font_88_3" d="M.3659973 .375412C.3659973 .37242127 .36499024 .36941529 .36499024 .3664093 .36499024 .33738709 .3889923 .32136537 .41099549 .32136537 .43099977 .32136537 .44898988 .33337403 .45399476 .35940553 .45399476 .43641664 .37098695 .4404297 .31199647 .4404297 .22898865 .4404297 .1599884 .41542054 .11099243 .3433838 .085998538 .3063507 .07299805 .26130677 .07299805 .2172699 .07299805 .11216736 .1539917-.0048828127 .29100038-.0048828127 .3600006-.0048828127 .42799378 .021102906 .45899964 .087142948 .46199037 .09414673 .46499635 .103149417 .46499635 .11116028 .46499635 .12918091 .45098878 .1381836 .43299867 .1381836H.4229889C.4019928 .1381836 .39698792 .11717224 .3909912 .104156497 .375 .071121219 .33499146 .056106569 .30099488 .056106569 .21199036 .056106569 .14299011 .13117981 .14299011 .21626282 .14299011 .30334474 .20599365 .37942506 .30299378 .37942506 .32398988 .37942506 .34498597 .37742616 .3659973 .375412Z"/>
<path id="font_88_12" d="M.22698975 .55130007V.061965944H.08799744C.068984989 .061965944 .056991579 .048965455 .056991579 .030975342 .056991579 .008972168 .07398987 .0009765625 .09399414 .0009765625H.44299317C.45899964 .003967285 .46699525 .017974854 .46699525 .031967164 .46699525 .048965455 .45599366 .061965944 .43699647 .061965944H.29699708V.57429507C.29699708 .6082916 .27999879 .6123047 .25898744 .6123047H.09498596C.07899475 .6123047 .056991579 .6092987 .056991579 .58229067 .056991579 .56430056 .068984989 .55130007 .08898926 .55130007H.22698975Z"/>
<path id="font_88_2" d="M.16899109 .375412C.18699646 .37841798 .20698548 .38041688 .22599793 .38041688 .2849884 .38041688 .35398866 .35740663 .35398866 .2783203 .23399353 .2783203 .054992677 .2492981 .054992677 .12817383 .054992677 .035110475 .147995-.0048828127 .22200012-.0048828127 .269989-.0048828127 .31698609 .0041046144 .35499574 .027114869 .35699464 .02810669 .35899354 .03010559 .3619995 .03010559H.3639984C.36898805 .03010559 .3829956 .015106201 .3959961 .010116577 .42399598 .00010681152 .46099855 .00010681152 .48999024 .00010681152 .5139923 .00010681152 .5239868 .015106201 .5239868 .033111574V.036102296C.522995 .053115846 .5089874 .06210327 .49198915 .06210327H.46199037C.44299317 .06210327 .4229889 .06411743 .4229889 .08312988 .4229889 .088134769 .42399598 .09213257 .42399598 .09614563V.2783203C.42399598 .3734131 .35099793 .43441773 .25299073 .4404297H.21699524C.1639862 .4404297 .08099365 .43441773 .08099365 .36741639 .08099365 .3383789 .102996829 .32136537 .12599182 .32136537 .15098572 .32136537 .16999817 .3413849 .16999817 .36540223 .16999817 .3684082 .16999817 .37242127 .16899109 .375412M.35398866 .21826172V.13317871C.35398866 .068115238 .27999879 .056106569 .22999573 .056106569 .18798828 .056106569 .125 .07513428 .125 .12817383 .125 .1852417 .21699524 .20324707 .25698854 .21026612 .2889862 .215271 .32199098 .21826172 .35398866 .21826172Z"/>
<path id="font_88_23" d="M.13899231 .033111574C.17599488 .0051116945 .22099304-.0048828127 .2669983-.0048828127 .35198976-.0048828127 .45899964 .025115967 .45899964 .12617493 .45899964 .25730897 .269989 .25730897 .20298767 .2723236 .1749878 .2793274 .1329956 .29333497 .1329956 .32336427 .1329956 .3684082 .20599365 .37641908 .23699951 .37841798 .24598694 .37841798 .25498963 .37942506 .2649994 .37942506 .29599 .37942506 .34999085 .37242127 .35699464 .3323822 .3639984 .306427 .36299134 .29042054 .3959961 .29042054 .4249878 .29042054 .42900086 .30941773 .42900086 .32841493V.40742494C.42900086 .4274292 .41799928 .4404297 .39898683 .4404297 .3849945 .4404297 .37399293 .431427 .36898805 .41941834 .33499146 .4334259 .30499269 .4404297 .2669983 .4404297 .18499756 .4404297 .07199097 .4184265 .07199097 .3214264 .07199097 .15924073 .397995 .23434448 .397995 .12719727V.12420654C.397995 .06011963 .29499818 .056106569 .272995 .056106569H.2689972C.21699524 .056106569 .16899109 .07713318 .147995 .1322174 .13598633 .15811157 .13598633 .17311096 .10598755 .17311096 .07598877 .17311096 .07199097 .15510559 .07199097 .13711548V.050109865C.07199097 .04411316 .070999149 .037109376 .070999149 .03010559 .070999149 .008102417 .08299255-.0048828127 .101989749-.0048828127 .12599182-.0048828127 .13198853 .015106201 .13899231 .033111574Z"/>
<path id="font_88_11" d="M.23999024 .36965943V.061965944H.115997318C.09098816 .061965944 .07798767 .050964357 .07798767 .031967164 .07798767 .017974854 .08699036 .0029754639 .102996829 .0009765625H.42199708C.44299317 .0009765625 .45498658 .011962891 .45498658 .030975342 .45498658 .050964357 .44198609 .06297302 .4189911 .06297302 .41099549 .06297302 .40299989 .061965944 .3959961 .061965944H.30999757V.39665223C.30999757 .42565919 .2919922 .43066407 .272995 .43066407H.12399292C.10699463 .43066407 .085998538 .426651 .085998538 .3996582 .085998538 .37765504 .100997928 .36965943 .125 .36965943H.23999024M.25299073 .6123047C.22599793 .60827639 .20999146 .5852051 .20999146 .5631256 .20999146 .54104617 .22799683 .51293948 .25698854 .51293948 .28799439 .51293948 .30999757 .5370331 .30999757 .5631256 .30999757 .58517459 .2919922 .61328127 .2619934 .61328127 .25898744 .6132965 .2559967 .6123047 .25299073 .6123047Z"/>
<path id="font_88_9" d="M.18299866 .43066407H.102996829C.09599304 .43066407 .08799744 .43165589 .07998657 .43165589 .055999757 .43165589 .042999269 .4186554 .042999269 .39865113 .042999269 .3766632 .06098938 .36965943 .07899475 .36965943H.18299866V.061965944H.09899902C.09199524 .061965944 .084991458 .06297302 .07699585 .06297302 .052993776 .06297302 .041992189 .048965455 .041992189 .031967164 .041992189 .016967774 .050994874 .0029754639 .066986087 .0009765625H.36299134C.3829956 .0009765625 .3939972 .013961792 .3939972 .030975342 .3939972 .050964357 .3809967 .06297302 .35798646 .06297302 .34999085 .06297302 .34298707 .061965944 .33599855 .061965944H.25299073V.36965943H.3849945C.4039917 .36965943 .4169922 .3826599 .4169922 .40065003 .4169922 .426651 .3939972 .43066407 .37799073 .43066407H.25299073V.48687745C.25299073 .53707888 .29599 .5571594 .33699037 .5571594 .35798646 .5571594 .35099793 .5481262 .35699464 .5360718 .36499024 .52201846 .37998963 .5139923 .394989 .5139923 .42099 .5139923 .43699647 .5350647 .43699647 .56015017 .43699647 .6131592 .36898805 .61816409 .34098817 .61816409 .269989 .61816409 .18299866 .5781555 .18299866 .4908905V.43066407Z"/>
<path id="font_88_20" d="M.25498963 .12597656C.22299195 .1179657 .20098877 .096969608 .20098877 .063964847 .20098877 .02796936 .22698975 .0009765625 .269989 .0009765625 .3019867 .008972168 .32398988 .029968262 .32398988 .06297302 .32398988 .098968509 .2979889 .12597656 .25498963 .12597656Z"/>
<path id="font_88_28" d="M.37098695 .36965943 .2630005 .05101013H.26098634L.15299988 .36965943H.18299866C.20298767 .36965943 .22099304 .3766632 .22099304 .3996582 .22099304 .41966249 .20799256 .43066407 .18299866 .43066407H.08299255C.07598877 .43063355 .067993167 .43164063 .06098938 .43164063 .037994386 .43164063 .022994996 .41964723 .022994996 .39967347 .022994996 .3786621 .039993287 .36965943 .05899048 .36965943H.083999637C.09799194 .36965943 .09899902 .3556671 .101989749 .3446808L.11999512 .29074098C.14698792 .20883179 .17399597 .12591553 .20399475 .04600525 .21199036 .02003479 .22200012-.0029296876 .2519989-.0029296876H.2579956C.27598573-.0029296876 .29299928-.0019378662 .30599977 .013046265 .31399537 .022033692 .31599427 .0340271 .31999208 .045013429 .35198976 .14590454 .3889923 .24578858 .42199708 .34568788 .4249878 .3556671 .42599488 .36965943 .43998719 .36965943H.46499635C.48399354 .36965943 .5009918 .3786621 .5009918 .3996582 .5009918 .41964723 .48599244 .43164063 .46299745 .43164063 .45599366 .43165589 .44799806 .43066407 .44099427 .43066407H.34098817C.31599427 .43066407 .30299378 .41966249 .30299378 .3996582 .30299378 .3766632 .32099916 .36965943 .34098817 .36965943H.37098695Z"/>
<path id="font_88_10" d="M.32998658 .4065094H.32899476C.30599977 .42851258 .2649994 .43652345 .23399353 .43652345 .15098572 .43652345 .066986087 .3735199 .066986087 .2786255 .066986087 .25065614 .07398987 .22070313 .08898926 .19673157 .09098816 .19273377 .09599304 .18774414 .09700012 .18273926V.18174744C.09700012 .17074585 .07798767 .13874817 .07798767 .116744998 .07798767 .08779907 .08898926 .0688324 .101989749 .04284668 .06199646 .022857666 .0289917-.029022217 .0289917-.07984924 .0289917-.18354798 .16299439-.22753906 .2579956-.22753906 .30599977-.22753906 .35398866-.22154236 .397995-.20155335 .44299317-.18054199 .4909973-.1446228 .49499513-.09080505V-.082839969C.49499513 .04185486 .36299134 .06185913 .2599945 .06185913H.19898987C.19400025 .06285095 .18998719 .06384277 .18499756 .06484985H.17599488C.15098572 .06484985 .13798523 .09080505 .13798523 .11175537 .13798523 .12174988 .13999939 .13174439 .14299011 .14175415 .16799927 .12875366 .19400025 .1187439 .22299195 .116744998H.23298645C.31799317 .116744998 .39898683 .18174744 .39898683 .27661134 .39898683 .30256654 .3919983 .3275299 .37998963 .35050965 .37799073 .35250855 .375 .35749818 .375 .36149598 .375 .3704834 .4119873 .37747193 .42999269 .38046266 .43399049 .36149598 .44699098 .34651185 .46798707 .34651185 .4869995 .34651185 .5059967 .35949708 .5089874 .38145448V.38645936C.5089874 .4243927 .46798707 .4423828 .43399049 .4423828 .39698792 .4423828 .34999085 .4263916 .32998658 .40641786V.4065094M.08799744-.08583069C.08799744-.082839969 .08699036-.080841068 .08699036-.07785034 .08699036-.023040772 .14498902 .005859375 .19099427 .005859375 .20199585 .005859375 .21299744 .004852295 .22299195 .004852295H.27398683C.33499146 .004852295 .42900086-.00012207031 .43598939-.0738678V-.07984924C.43598939-.115722659 .3939972-.13964844 .3639984-.15060425 .33099366-.16355896 .29499818-.1675415 .2599945-.1675415 .22299195-.1675415 .18598938-.16156006 .15098572-.1466217 .125-.13565064 .09098816-.11672974 .08799744-.08583069M.13699341 .26864625V.2766266C.13699341 .3285675 .17999268 .37651063 .23298645 .37651063H.23599243C.28399659 .3735199 .32299806 .33555604 .32899476 .2846222V.2766266C.32899476 .22470093 .28599549 .17675781 .23298645 .17675781H.22999573C.18199158 .17974854 .14299011 .21769715 .13699341 .26864625Z"/>
<path id="font_88_19" d="M.10998535 .6943054C.09599304 .69229128 .08699036 .68029788 .08699036 .6672821 .08699036 .6482849 .10598755 .6392822 .12098694 .62927249 .22499085 .551239 .27999879 .43218995 .27999879 .30613709 .27999879 .1790924 .22200012 .05404663 .11399841-.021987915 .099990848-.0309906 .08699036-.039001466 .08699036-.055007936 .08699036-.071014408 .099990848-.08300781 .115997318-.08300781 .15499878-.08300781 .22200012-.014984131 .25698854 .029037476 .31900025 .108062747 .34999085 .20710755 .34999085 .30613709 .34999085 .4461975 .2849884 .58325198 .16799927 .66929629 .1539917 .68029788 .13699341 .6953125 .117996219 .6953125 .114990238 .6953125 .11299133 .6953125 .10998535 .6943054Z"/>
</defs>
<path transform="matrix(1,0,0,-1,93.7444,223.7839)" d="M0 0V218.804C0 221.005 1.784 222.789 3.985 222.789H319.168C321.369 222.789 323.153 221.005 323.153 218.804V0C323.153-2.201 321.369-3.985 319.168-3.985H3.985C1.784-3.985 0-2.201 0 0Z" fill="#ebeef4"/>
<path transform="matrix(1,0,0,-1,93.7444,223.7839)" stroke-width="1.993" stroke-linecap="butt" stroke-miterlimit="10" stroke-linejoin="miter" fill="none" stroke="#3b528b" d="M0 0V218.804C0 221.005 1.784 222.789 3.985 222.789H319.168C321.369 222.789 323.153 221.005 323.153 218.804V0C323.153-2.201 321.369-3.985 319.168-3.985H3.985C1.784-3.985 0-2.201 0 0Z"/>
<path transform="matrix(1,0,0,-1,113.58699,142.7286)" stroke-width="9.963" stroke-linecap="butt" stroke-miterlimit="10" stroke-linejoin="miter" fill="none" stroke="#cbcbcb" d="M0 0H212.103"/>
<path transform="matrix(1,0,0,-1,184.4541,142.7286)" stroke-width="2.989" stroke-linecap="butt" stroke-miterlimit="10" stroke-linejoin="miter" fill="none" stroke="#d8dce8" d="M0 0H8.122"/>
<path transform="matrix(1,0,0,-1,197.31987,142.7286)" d="M0 0-4.339 3.507V0-3.507Z" fill="#d8dce8"/>
<path transform="matrix(1,0,0,-1,197.31987,142.7286)" stroke-width="1.619" stroke-linecap="butt" stroke-linejoin="round" fill="none" stroke="#d8dce8" d="M0 0-4.339 3.507V0-3.507Z"/>
<path transform="matrix(1,0,0,-1,297.8413,142.7286)" stroke-width="2.989" stroke-linecap="butt" stroke-miterlimit="10" stroke-linejoin="miter" fill="none" stroke="#d8dce8" d="M0 0H8.122"/>
<path transform="matrix(1,0,0,-1,310.70713,142.7286)" d="M0 0-4.339 3.507V0-3.507Z" fill="#d8dce8"/>
<path transform="matrix(1,0,0,-1,310.70713,142.7286)" stroke-width="1.619" stroke-linecap="butt" stroke-linejoin="round" fill="none" stroke="#d8dce8" d="M0 0-4.339 3.507V0-3.507Z"/>
<path transform="matrix(1,0,0,-1,99.413608,161.421)" d="M0 0V37.385C0 39.586 1.784 41.37 3.985 41.37H81.055C83.256 41.37 85.04 39.586 85.04 37.385V0C85.04-2.201 83.256-3.985 81.055-3.985H3.985C1.784-3.985 0-2.201 0 0Z" fill="#e4f1f1"/>
<path transform="matrix(1,0,0,-1,99.413608,161.421)" stroke-width=".398" stroke-linecap="butt" stroke-miterlimit="10" stroke-linejoin="miter" fill="none" stroke="#000000" d="M0 0V37.385C0 39.586 1.784 41.37 3.985 41.37H81.055C83.256 41.37 85.04 39.586 85.04 37.385V0C85.04-2.201 83.256-3.985 81.055-3.985H3.985C1.784-3.985 0-2.201 0 0Z"/>
<use data-text="p" xlink:href="#font_83_21" transform="matrix(8.966,0,0,-8.966,106.635,144.845)"/>
<use data-text="o" xlink:href="#font_83_20" transform="matrix(8.966,0,0,-8.966,111.342159,144.845)"/>
<use data-text="(" xlink:href="#font_83_22" transform="matrix(8.966,0,0,-8.966,116.04931,144.845)"/>
<use data-text="&quot;" xlink:href="#font_83_25" transform="matrix(8.966,0,0,-8.966,120.75646,144.845)"/>
<use data-text="s" xlink:href="#font_83_27" transform="matrix(8.966,0,0,-8.966,125.463619,144.845)"/>
<use data-text="u" xlink:href="#font_83_29" transform="matrix(8.966,0,0,-8.966,130.17076,144.845)"/>
<use data-text="b" xlink:href="#font_83_5" transform="matrix(8.966,0,0,-8.966,134.87792,144.845)"/>
<use data-text="s" xlink:href="#font_83_27" transform="matrix(8.966,0,0,-8.966,139.58507,144.845)"/>
<use data-text="a" xlink:href="#font_83_4" transform="matrix(8.966,0,0,-8.966,144.29222,144.845)"/>
<use data-text="m" xlink:href="#font_83_18" transform="matrix(8.966,0,0,-8.966,148.99938,144.845)"/>
<use data-text="p" xlink:href="#font_83_21" transform="matrix(8.966,0,0,-8.966,153.70653,144.845)"/>
<use data-text="l" xlink:href="#font_83_17" transform="matrix(8.966,0,0,-8.966,158.41368,144.845)"/>
<use data-text="e" xlink:href="#font_83_12" transform="matrix(8.966,0,0,-8.966,163.12084,144.845)"/>
<use data-text="&quot;" xlink:href="#font_83_25" transform="matrix(8.966,0,0,-8.966,167.82799,144.845)"/>
<use data-text=")" xlink:href="#font_83_23" transform="matrix(8.966,0,0,-8.966,172.53514,144.845)"/>
<path transform="matrix(1,0,0,-1,198.6275,161.421)" d="M0 0V37.385C0 39.586 1.784 41.37 3.985 41.37H95.229C97.43 41.37 99.214 39.586 99.214 37.385V0C99.214-2.201 97.43-3.985 95.229-3.985H3.985C1.784-3.985 0-2.201 0 0Z" fill="#79bcba"/>
<path transform="matrix(1,0,0,-1,198.6275,161.421)" stroke-width=".398" stroke-linecap="butt" stroke-miterlimit="10" stroke-linejoin="miter" fill="none" stroke="#000000" d="M0 0V37.385C0 39.586 1.784 41.37 3.985 41.37H95.229C97.43 41.37 99.214 39.586 99.214 37.385V0C99.214-2.201 97.43-3.985 95.229-3.985H3.985C1.784-3.985 0-2.201 0 0Z"/>
<use data-text="p" xlink:href="#font_83_21" transform="matrix(8.966,0,0,-8.966,203.522,144.845)" fill="#ffffff"/>
<use data-text="o" xlink:href="#font_83_20" transform="matrix(8.966,0,0,-8.966,208.22916,144.845)" fill="#ffffff"/>
<use data-text="(" xlink:href="#font_83_22" transform="matrix(8.966,0,0,-8.966,212.93631,144.845)" fill="#ffffff"/>
<use data-text="&quot;" xlink:href="#font_83_25" transform="matrix(8.966,0,0,-8.966,217.64347,144.845)" fill="#ffffff"/>
<use data-text="c" xlink:href="#font_83_8" transform="matrix(8.966,0,0,-8.966,222.35062,144.845)" fill="#ffffff"/>
<use data-text="l" xlink:href="#font_83_17" transform="matrix(8.966,0,0,-8.966,227.05777,144.845)" fill="#ffffff"/>
<use data-text="a" xlink:href="#font_83_4" transform="matrix(8.966,0,0,-8.966,231.76493,144.845)" fill="#ffffff"/>
<use data-text="s" xlink:href="#font_83_27" transform="matrix(8.966,0,0,-8.966,236.47208,144.845)" fill="#ffffff"/>
<use data-text="s" xlink:href="#font_83_27" transform="matrix(8.966,0,0,-8.966,241.17923,144.845)" fill="#ffffff"/>
<use data-text="i" xlink:href="#font_83_16" transform="matrix(8.966,0,0,-8.966,245.88639,144.845)" fill="#ffffff"/>
<use data-text="f" xlink:href="#font_83_14" transform="matrix(8.966,0,0,-8.966,250.59354,144.845)" fill="#ffffff"/>
<use data-text="." xlink:href="#font_83_24" transform="matrix(8.966,0,0,-8.966,255.30069,144.845)" fill="#ffffff"/>
<use data-text="r" xlink:href="#font_83_26" transform="matrix(8.966,0,0,-8.966,260.00785,144.845)" fill="#ffffff"/>
<use data-text="p" xlink:href="#font_83_21" transform="matrix(8.966,0,0,-8.966,264.715,144.845)" fill="#ffffff"/>
<use data-text="a" xlink:href="#font_83_4" transform="matrix(8.966,0,0,-8.966,269.42216,144.845)" fill="#ffffff"/>
<use data-text="r" xlink:href="#font_83_26" transform="matrix(8.966,0,0,-8.966,274.1293,144.845)" fill="#ffffff"/>
<use data-text="t" xlink:href="#font_83_28" transform="matrix(8.966,0,0,-8.966,278.83647,144.845)" fill="#ffffff"/>
<use data-text="&quot;" xlink:href="#font_83_25" transform="matrix(8.966,0,0,-8.966,283.52,144.845)" fill="#ffffff"/>
<use data-text=")" xlink:href="#font_83_23" transform="matrix(8.966,0,0,-8.966,288.22715,144.845)" fill="#ffffff"/>
<path transform="matrix(1,0,0,-1,56.8934,114.381809)" stroke-width="4.981" stroke-linecap="butt" stroke-miterlimit="10" stroke-linejoin="miter" fill="none" stroke="#a9a9a9" d="M0 0 35.398-23.599"/>
<path transform="matrix(.83202,.55467,.55467,-.83202,98.0149,141.79611)" d="M0 0-6.287 4.884V0-4.884Z" fill="#a9a9a9"/>
<path transform="matrix(.83202,.55467,.55467,-.83202,98.0149,141.79611)" stroke-width="2.366" stroke-linecap="butt" stroke-linejoin="round" fill="none" stroke="#a9a9a9" d="M0 0-6.287 4.884V0-4.884Z"/>
<path transform="matrix(1,0,0,-1,113.58699,86.03501)" stroke-width="9.963" stroke-linecap="butt" stroke-miterlimit="10" stroke-linejoin="miter" fill="none" stroke="#cbcbcb" d="M0 0H212.103"/>
<path transform="matrix(1,0,0,-1,184.4541,86.03501)" stroke-width="2.989" stroke-linecap="butt" stroke-miterlimit="10" stroke-linejoin="miter" fill="none" stroke="#d8dce8" d="M0 0H8.122"/>
<path transform="matrix(1,0,0,-1,197.31987,86.035)" d="M0 0-4.339 3.507V0-3.507Z" fill="#d8dce8"/>
<path transform="matrix(1,0,0,-1,197.31987,86.035)" stroke-width="1.619" stroke-linecap="butt" stroke-linejoin="round" fill="none" stroke="#d8dce8" d="M0 0-4.339 3.507V0-3.507Z"/>
<path transform="matrix(1,0,0,-1,297.8413,86.03501)" stroke-width="2.989" stroke-linecap="butt" stroke-miterlimit="10" stroke-linejoin="miter" fill="none" stroke="#d8dce8" d="M0 0H8.122"/>
<path transform="matrix(1,0,0,-1,310.70713,86.035)" d="M0 0-4.339 3.507V0-3.507Z" fill="#d8dce8"/>
<path transform="matrix(1,0,0,-1,310.70713,86.035)" stroke-width="1.619" stroke-linecap="butt" stroke-linejoin="round" fill="none" stroke="#d8dce8" d="M0 0-4.339 3.507V0-3.507Z"/>
<path transform="matrix(1,0,0,-1,99.413608,104.72741)" d="M0 0V37.385C0 39.586 1.784 41.37 3.985 41.37H81.055C83.256 41.37 85.04 39.586 85.04 37.385V0C85.04-2.201 83.256-3.985 81.055-3.985H3.985C1.784-3.985 0-2.201 0 0Z" fill="#e4f1f1"/>
<path transform="matrix(1,0,0,-1,99.413608,104.72741)" stroke-width=".398" stroke-linecap="butt" stroke-miterlimit="10" stroke-linejoin="miter" fill="none" stroke="#000000" d="M0 0V37.385C0 39.586 1.784 41.37 3.985 41.37H81.055C83.256 41.37 85.04 39.586 85.04 37.385V0C85.04-2.201 83.256-3.985 81.055-3.985H3.985C1.784-3.985 0-2.201 0 0Z"/>
<use data-text="p" xlink:href="#font_83_21" transform="matrix(8.966,0,0,-8.966,106.635,88.15201)"/>
<use data-text="o" xlink:href="#font_83_20" transform="matrix(8.966,0,0,-8.966,111.342159,88.15201)"/>
<use data-text="(" xlink:href="#font_83_22" transform="matrix(8.966,0,0,-8.966,116.04931,88.15201)"/>
<use data-text="&quot;" xlink:href="#font_83_25" transform="matrix(8.966,0,0,-8.966,120.75646,88.15201)"/>
<use data-text="s" xlink:href="#font_83_27" transform="matrix(8.966,0,0,-8.966,125.463619,88.15201)"/>
<use data-text="u" xlink:href="#font_83_29" transform="matrix(8.966,0,0,-8.966,130.17076,88.15201)"/>
<use data-text="b" xlink:href="#font_83_5" transform="matrix(8.966,0,0,-8.966,134.87792,88.15201)"/>
<use data-text="s" xlink:href="#font_83_27" transform="matrix(8.966,0,0,-8.966,139.58507,88.15201)"/>
<use data-text="a" xlink:href="#font_83_4" transform="matrix(8.966,0,0,-8.966,144.29222,88.15201)"/>
<use data-text="m" xlink:href="#font_83_18" transform="matrix(8.966,0,0,-8.966,148.99938,88.15201)"/>
<use data-text="p" xlink:href="#font_83_21" transform="matrix(8.966,0,0,-8.966,153.70653,88.15201)"/>
<use data-text="l" xlink:href="#font_83_17" transform="matrix(8.966,0,0,-8.966,158.41368,88.15201)"/>
<use data-text="e" xlink:href="#font_83_12" transform="matrix(8.966,0,0,-8.966,163.12084,88.15201)"/>
<use data-text="&quot;" xlink:href="#font_83_25" transform="matrix(8.966,0,0,-8.966,167.82799,88.15201)"/>
<use data-text=")" xlink:href="#font_83_23" transform="matrix(8.966,0,0,-8.966,172.53514,88.15201)"/>
<path transform="matrix(1,0,0,-1,198.6275,104.72741)" d="M0 0V37.385C0 39.586 1.784 41.37 3.985 41.37H95.229C97.43 41.37 99.214 39.586 99.214 37.385V0C99.214-2.201 97.43-3.985 95.229-3.985H3.985C1.784-3.985 0-2.201 0 0Z" fill="#79bcba"/>
<path transform="matrix(1,0,0,-1,198.6275,104.72741)" stroke-width=".398" stroke-linecap="butt" stroke-miterlimit="10" stroke-linejoin="miter" fill="none" stroke="#000000" d="M0 0V37.385C0 39.586 1.784 41.37 3.985 41.37H95.229C97.43 41.37 99.214 39.586 99.214 37.385V0C99.214-2.201 97.43-3.985 95.229-3.985H3.985C1.784-3.985 0-2.201 0 0Z"/>
<use data-text="p" xlink:href="#font_83_21" transform="matrix(8.966,0,0,-8.966,203.522,88.15201)" fill="#ffffff"/>
<use data-text="o" xlink:href="#font_83_20" transform="matrix(8.966,0,0,-8.966,208.22916,88.15201)" fill="#ffffff"/>
<use data-text="(" xlink:href="#font_83_22" transform="matrix(8.966,0,0,-8.966,212.93631,88.15201)" fill="#ffffff"/>
<use data-text="&quot;" xlink:href="#font_83_25" transform="matrix(8.966,0,0,-8.966,217.64347,88.15201)" fill="#ffffff"/>
<use data-text="c" xlink:href="#font_83_8" transform="matrix(8.966,0,0,-8.966,222.35062,88.15201)" fill="#ffffff"/>
<use data-text="l" xlink:href="#font_83_17" transform="matrix(8.966,0,0,-8.966,227.05777,88.15201)" fill="#ffffff"/>
<use data-text="a" xlink:href="#font_83_4" transform="matrix(8.966,0,0,-8.966,231.76493,88.15201)" fill="#ffffff"/>
<use data-text="s" xlink:href="#font_83_27" transform="matrix(8.966,0,0,-8.966,236.47208,88.15201)" fill="#ffffff"/>
<use data-text="s" xlink:href="#font_83_27" transform="matrix(8.966,0,0,-8.966,241.17923,88.15201)" fill="#ffffff"/>
<use data-text="i" xlink:href="#font_83_16" transform="matrix(8.966,0,0,-8.966,245.88639,88.15201)" fill="#ffffff"/>
<use data-text="f" xlink:href="#font_83_14" transform="matrix(8.966,0,0,-8.966,250.59354,88.15201)" fill="#ffffff"/>
<use data-text="." xlink:href="#font_83_24" transform="matrix(8.966,0,0,-8.966,255.30069,88.15201)" fill="#ffffff"/>
<use data-text="r" xlink:href="#font_83_26" transform="matrix(8.966,0,0,-8.966,260.00785,88.15201)" fill="#ffffff"/>
<use data-text="p" xlink:href="#font_83_21" transform="matrix(8.966,0,0,-8.966,264.715,88.15201)" fill="#ffffff"/>
<use data-text="a" xlink:href="#font_83_4" transform="matrix(8.966,0,0,-8.966,269.42216,88.15201)" fill="#ffffff"/>
<use data-text="r" xlink:href="#font_83_26" transform="matrix(8.966,0,0,-8.966,274.1293,88.15201)" fill="#ffffff"/>
<use data-text="t" xlink:href="#font_83_28" transform="matrix(8.966,0,0,-8.966,278.83647,88.15201)" fill="#ffffff"/>
<use data-text="&quot;" xlink:href="#font_83_25" transform="matrix(8.966,0,0,-8.966,283.52,88.15201)" fill="#ffffff"/>
<use data-text=")" xlink:href="#font_83_23" transform="matrix(8.966,0,0,-8.966,288.22715,88.15201)" fill="#ffffff"/>
<path transform="matrix(1,0,0,-1,56.8934,114.381809)" stroke-width="4.981" stroke-linecap="butt" stroke-miterlimit="10" stroke-linejoin="miter" fill="none" stroke="#a9a9a9" d="M0 0 35.398 23.599"/>
<path transform="matrix(.83202,-.55467,-.55467,-.83202,98.0149,86.9675)" d="M0 0-6.287 4.884V0-4.884Z" fill="#a9a9a9"/>
<path transform="matrix(.83202,-.55467,-.55467,-.83202,98.0149,86.9675)" stroke-width="2.366" stroke-linecap="butt" stroke-linejoin="round" fill="none" stroke="#a9a9a9" d="M0 0-6.287 4.884V0-4.884Z"/>
<path transform="matrix(1,0,0,-1,113.58699,29.341408)" stroke-width="9.963" stroke-linecap="butt" stroke-miterlimit="10" stroke-linejoin="miter" fill="none" stroke="#cbcbcb" d="M0 0H212.103"/>
<path transform="matrix(1,0,0,-1,184.4541,29.341408)" stroke-width="2.989" stroke-linecap="butt" stroke-miterlimit="10" stroke-linejoin="miter" fill="none" stroke="#d8dce8" d="M0 0H8.122"/>
<path transform="matrix(1,0,0,-1,197.31987,29.341385)" d="M0 0-4.339 3.507V0-3.507Z" fill="#d8dce8"/>
<path transform="matrix(1,0,0,-1,197.31987,29.341385)" stroke-width="1.619" stroke-linecap="butt" stroke-linejoin="round" fill="none" stroke="#d8dce8" d="M0 0-4.339 3.507V0-3.507Z"/>
<path transform="matrix(1,0,0,-1,297.8413,29.341408)" stroke-width="2.989" stroke-linecap="butt" stroke-miterlimit="10" stroke-linejoin="miter" fill="none" stroke="#d8dce8" d="M0 0H8.122"/>
<path transform="matrix(1,0,0,-1,310.70713,29.341385)" d="M0 0-4.339 3.507V0-3.507Z" fill="#d8dce8"/>
<path transform="matrix(1,0,0,-1,310.70713,29.341385)" stroke-width="1.619" stroke-linecap="butt" stroke-linejoin="round" fill="none" stroke="#d8dce8" d="M0 0-4.339 3.507V0-3.507Z"/>
<path transform="matrix(1,0,0,-1,99.413608,48.033807)" d="M0 0V37.385C0 39.586 1.784 41.37 3.985 41.37H81.055C83.256 41.37 85.04 39.586 85.04 37.385V0C85.04-2.201 83.256-3.985 81.055-3.985H3.985C1.784-3.985 0-2.201 0 0Z" fill="#e4f1f1"/>
<path transform="matrix(1,0,0,-1,99.413608,48.033807)" stroke-width=".398" stroke-linecap="butt" stroke-miterlimit="10" stroke-linejoin="miter" fill="none" stroke="#000000" d="M0 0V37.385C0 39.586 1.784 41.37 3.985 41.37H81.055C83.256 41.37 85.04 39.586 85.04 37.385V0C85.04-2.201 83.256-3.985 81.055-3.985H3.985C1.784-3.985 0-2.201 0 0Z"/>
<use data-text="p" xlink:href="#font_83_21" transform="matrix(8.966,0,0,-8.966,106.635,31.459015)"/>
<use data-text="o" xlink:href="#font_83_20" transform="matrix(8.966,0,0,-8.966,111.342159,31.459015)"/>
<use data-text="(" xlink:href="#font_83_22" transform="matrix(8.966,0,0,-8.966,116.04931,31.459015)"/>
<use data-text="&quot;" xlink:href="#font_83_25" transform="matrix(8.966,0,0,-8.966,120.75646,31.459015)"/>
<use data-text="s" xlink:href="#font_83_27" transform="matrix(8.966,0,0,-8.966,125.463619,31.459015)"/>
<use data-text="u" xlink:href="#font_83_29" transform="matrix(8.966,0,0,-8.966,130.17076,31.459015)"/>
<use data-text="b" xlink:href="#font_83_5" transform="matrix(8.966,0,0,-8.966,134.87792,31.459015)"/>
<use data-text="s" xlink:href="#font_83_27" transform="matrix(8.966,0,0,-8.966,139.58507,31.459015)"/>
<use data-text="a" xlink:href="#font_83_4" transform="matrix(8.966,0,0,-8.966,144.29222,31.459015)"/>
<use data-text="m" xlink:href="#font_83_18" transform="matrix(8.966,0,0,-8.966,148.99938,31.459015)"/>
<use data-text="p" xlink:href="#font_83_21" transform="matrix(8.966,0,0,-8.966,153.70653,31.459015)"/>
<use data-text="l" xlink:href="#font_83_17" transform="matrix(8.966,0,0,-8.966,158.41368,31.459015)"/>
<use data-text="e" xlink:href="#font_83_12" transform="matrix(8.966,0,0,-8.966,163.12084,31.459015)"/>
<use data-text="&quot;" xlink:href="#font_83_25" transform="matrix(8.966,0,0,-8.966,167.82799,31.459015)"/>
<use data-text=")" xlink:href="#font_83_23" transform="matrix(8.966,0,0,-8.966,172.53514,31.459015)"/>
<path transform="matrix(1,0,0,-1,198.6275,48.033807)" d="M0 0V37.385C0 39.586 1.784 41.37 3.985 41.37H95.229C97.43 41.37 99.214 39.586 99.214 37.385V0C99.214-2.201 97.43-3.985 95.229-3.985H3.985C1.784-3.985 0-2.201 0 0Z" fill="#79bcba"/>
<path transform="matrix(1,0,0,-1,198.6275,48.033807)" stroke-width=".398" stroke-linecap="butt" stroke-miterlimit="10" stroke-linejoin="miter" fill="none" stroke="#000000" d="M0 0V37.385C0 39.586 1.784 41.37 3.985 41.37H95.229C97.43 41.37 99.214 39.586 99.214 37.385V0C99.214-2.201 97.43-3.985 95.229-3.985H3.985C1.784-3.985 0-2.201 0 0Z"/>
<use data-text="p" xlink:href="#font_83_21" transform="matrix(8.966,0,0,-8.966,203.522,31.459015)" fill="#ffffff"/>
<use data-text="o" xlink:href="#font_83_20" transform="matrix(8.966,0,0,-8.966,208.22916,31.459015)" fill="#ffffff"/>
<use data-text="(" xlink:href="#font_83_22" transform="matrix(8.966,0,0,-8.966,212.93631,31.459015)" fill="#ffffff"/>
<use data-text="&quot;" xlink:href="#font_83_25" transform="matrix(8.966,0,0,-8.966,217.64347,31.459015)" fill="#ffffff"/>
<use data-text="c" xlink:href="#font_83_8" transform="matrix(8.966,0,0,-8.966,222.35062,31.459015)" fill="#ffffff"/>
<use data-text="l" xlink:href="#font_83_17" transform="matrix(8.966,0,0,-8.966,227.05777,31.459015)" fill="#ffffff"/>
<use data-text="a" xlink:href="#font_83_4" transform="matrix(8.966,0,0,-8.966,231.76493,31.459015)" fill="#ffffff"/>
<use data-text="s" xlink:href="#font_83_27" transform="matrix(8.966,0,0,-8.966,236.47208,31.459015)" fill="#ffffff"/>
<use data-text="s" xlink:href="#font_83_27" transform="matrix(8.966,0,0,-8.966,241.17923,31.459015)" fill="#ffffff"/>
<use data-text="i" xlink:href="#font_83_16" transform="matrix(8.966,0,0,-8.966,245.88639,31.459015)" fill="#ffffff"/>
<use data-text="f" xlink:href="#font_83_14" transform="matrix(8.966,0,0,-8.966,250.59354,31.459015)" fill="#ffffff"/>
<use data-text="." xlink:href="#font_83_24" transform="matrix(8.966,0,0,-8.966,255.30069,31.459015)" fill="#ffffff"/>
<use data-text="r" xlink:href="#font_83_26" transform="matrix(8.966,0,0,-8.966,260.00785,31.459015)" fill="#ffffff"/>
<use data-text="p" xlink:href="#font_83_21" transform="matrix(8.966,0,0,-8.966,264.715,31.459015)" fill="#ffffff"/>
<use data-text="a" xlink:href="#font_83_4" transform="matrix(8.966,0,0,-8.966,269.42216,31.459015)" fill="#ffffff"/>
<use data-text="r" xlink:href="#font_83_26" transform="matrix(8.966,0,0,-8.966,274.1293,31.459015)" fill="#ffffff"/>
<use data-text="t" xlink:href="#font_83_28" transform="matrix(8.966,0,0,-8.966,278.83647,31.459015)" fill="#ffffff"/>
<use data-text="&quot;" xlink:href="#font_83_25" transform="matrix(8.966,0,0,-8.966,283.52,31.459015)" fill="#ffffff"/>
<use data-text=")" xlink:href="#font_83_23" transform="matrix(8.966,0,0,-8.966,288.22715,31.459015)" fill="#ffffff"/>
<path transform="matrix(1,0,0,-1,56.8934,114.381809)" stroke-width="4.981" stroke-linecap="butt" stroke-miterlimit="10" stroke-linejoin="miter" fill="none" stroke="#a9a9a9" d="M0 0 38.692 77.385"/>
<path transform="matrix(.44717,-.89436,-.89436,-.44717,98.661838,30.844986)" d="M0 0-6.287 4.884V0-4.884Z" fill="#a9a9a9"/>
<path transform="matrix(.44717,-.89436,-.89436,-.44717,98.661838,30.844986)" stroke-width="2.366" stroke-linecap="butt" stroke-linejoin="round" fill="none" stroke="#a9a9a9" d="M0 0-6.287 4.884V0-4.884Z"/>
<path transform="matrix(1,0,0,-1,113.58699,199.42221)" stroke-width="9.963" stroke-linecap="butt" stroke-miterlimit="10" stroke-linejoin="miter" fill="none" stroke="#cbcbcb" d="M0 0H212.103"/>
<path transform="matrix(1,0,0,-1,184.4541,199.42221)" stroke-width="2.989" stroke-linecap="butt" stroke-miterlimit="10" stroke-linejoin="miter" fill="none" stroke="#d8dce8" d="M0 0H8.122"/>
<path transform="matrix(1,0,0,-1,197.31987,199.42221)" d="M0 0-4.339 3.507V0-3.507Z" fill="#d8dce8"/>
<path transform="matrix(1,0,0,-1,197.31987,199.42221)" stroke-width="1.619" stroke-linecap="butt" stroke-linejoin="round" fill="none" stroke="#d8dce8" d="M0 0-4.339 3.507V0-3.507Z"/>
<path transform="matrix(1,0,0,-1,297.8413,199.42221)" stroke-width="2.989" stroke-linecap="butt" stroke-miterlimit="10" stroke-linejoin="miter" fill="none" stroke="#d8dce8" d="M0 0H8.122"/>
<path transform="matrix(1,0,0,-1,310.70713,199.42221)" d="M0 0-4.339 3.507V0-3.507Z" fill="#d8dce8"/>
<path transform="matrix(1,0,0,-1,310.70713,199.42221)" stroke-width="1.619" stroke-linecap="butt" stroke-linejoin="round" fill="none" stroke="#d8dce8" d="M0 0-4.339 3.507V0-3.507Z"/>
<use data-text="." xlink:href="#font_84_15" transform="matrix(8.966,0,0,-8.966,140.652,167.72801)"/>
<use data-text="." xlink:href="#font_84_15" transform="matrix(8.966,0,0,-8.966,140.652,171.71302)"/>
<use data-text="." xlink:href="#font_84_15" transform="matrix(8.966,0,0,-8.966,140.652,175.69802)"/>
<path transform="matrix(1,0,0,-1,99.413608,218.11461)" d="M0 0V37.385C0 39.586 1.784 41.37 3.985 41.37H81.055C83.256 41.37 85.04 39.586 85.04 37.385V0C85.04-2.201 83.256-3.985 81.055-3.985H3.985C1.784-3.985 0-2.201 0 0Z" fill="#e4f1f1"/>
<path transform="matrix(1,0,0,-1,99.413608,218.11461)" stroke-width=".398" stroke-linecap="butt" stroke-miterlimit="10" stroke-linejoin="miter" fill="none" stroke="#000000" d="M0 0V37.385C0 39.586 1.784 41.37 3.985 41.37H81.055C83.256 41.37 85.04 39.586 85.04 37.385V0C85.04-2.201 83.256-3.985 81.055-3.985H3.985C1.784-3.985 0-2.201 0 0Z"/>
<use data-text="." xlink:href="#font_85_1" transform="matrix(9.963,0,0,-9.963,136.12,199.947)"/>
<use data-text="." xlink:href="#font_85_1" transform="matrix(9.963,0,0,-9.963,140.553,199.947)"/>
<use data-text="." xlink:href="#font_85_1" transform="matrix(9.963,0,0,-9.963,144.97658,199.947)"/>
<use data-text="." xlink:href="#font_84_15" transform="matrix(8.966,0,0,-8.966,246.95099,167.728)"/>
<use data-text="." xlink:href="#font_84_15" transform="matrix(8.966,0,0,-8.966,246.95099,171.71302)"/>
<use data-text="." xlink:href="#font_84_15" transform="matrix(8.966,0,0,-8.966,246.95099,175.698)"/>
<path transform="matrix(1,0,0,-1,198.6275,218.11461)" d="M0 0V37.385C0 39.586 1.784 41.37 3.985 41.37H95.229C97.43 41.37 99.214 39.586 99.214 37.385V0C99.214-2.201 97.43-3.985 95.229-3.985H3.985C1.784-3.985 0-2.201 0 0Z" fill="#79bcba"/>
<path transform="matrix(1,0,0,-1,198.6275,218.11461)" stroke-width=".398" stroke-linecap="butt" stroke-miterlimit="10" stroke-linejoin="miter" fill="none" stroke="#000000" d="M0 0V37.385C0 39.586 1.784 41.37 3.985 41.37H95.229C97.43 41.37 99.214 39.586 99.214 37.385V0C99.214-2.201 97.43-3.985 95.229-3.985H3.985C1.784-3.985 0-2.201 0 0Z"/>
<use data-text="." xlink:href="#font_85_1" transform="matrix(9.963,0,0,-9.963,242.419,199.947)" fill="#ffffff"/>
<use data-text="." xlink:href="#font_85_1" transform="matrix(9.963,0,0,-9.963,246.852,199.947)" fill="#ffffff"/>
<use data-text="." xlink:href="#font_85_1" transform="matrix(9.963,0,0,-9.963,251.27559,199.947)" fill="#ffffff"/>
<path transform="matrix(1,0,0,-1,56.8934,114.381809)" stroke-width="4.981" stroke-linecap="butt" stroke-miterlimit="10" stroke-linejoin="miter" fill="none" stroke="#a9a9a9" d="M0 0 38.692-77.385"/>
<path transform="matrix(.44717,.89436,.89436,-.44717,98.661838,197.9186)" d="M0 0-6.287 4.884V0-4.884Z" fill="#a9a9a9"/>
<path transform="matrix(.44717,.89436,.89436,-.44717,98.661838,197.9186)" stroke-width="2.366" stroke-linecap="butt" stroke-linejoin="round" fill="none" stroke="#a9a9a9" d="M0 0-6.287 4.884V0-4.884Z"/>
<path transform="matrix(1,0,0,-1,.19980049,124.57011)" d="M0 0V20.377C0 22.578 1.784 24.362 3.985 24.362H52.709C54.909 24.362 56.694 22.578 56.694 20.377V0C56.694-2.201 54.909-3.985 52.709-3.985H3.985C1.784-3.985 0-2.201 0 0Z" fill="#cbebe1"/>
<path transform="matrix(1,0,0,-1,.19980049,124.57011)" stroke-width=".398" stroke-linecap="butt" stroke-miterlimit="10" stroke-linejoin="miter" fill="none" stroke="#000000" d="M0 0V20.377C0 22.578 1.784 24.362 3.985 24.362H52.709C54.909 24.362 56.694 22.578 56.694 20.377V0C56.694-2.201 54.909-3.985 52.709-3.985H3.985C1.784-3.985 0-2.201 0 0Z"/>
<use data-text="D" xlink:href="#font_86_2" transform="matrix(20.663,0,0,-20.663,5.915,119.892009)"/>
<use data-text="t" xlink:href="#font_87_41" transform="matrix(14.346,0,0,-14.346,21.854,122.991008)"/>
<use data-text="r" xlink:href="#font_87_39" transform="matrix(14.346,0,0,-14.346,27.16202,122.991008)"/>
<use data-text="a" xlink:href="#font_87_19" transform="matrix(14.346,0,0,-14.346,32.47004,122.991008)"/>
<use data-text="i" xlink:href="#font_87_27" transform="matrix(14.346,0,0,-14.346,39.298738,122.991008)"/>
<use data-text="n" xlink:href="#font_87_31" transform="matrix(14.346,0,0,-14.346,43.086084,122.991008)"/>
<path transform="matrix(1,0,0,-1,312.0147,218.11461)" d="M0 0V207.466C0 209.667 1.784 211.451 3.985 211.451H95.229C97.43 211.451 99.214 209.667 99.214 207.466V0C99.214-2.201 97.43-3.985 95.229-3.985H3.985C1.784-3.985 0-2.201 0 0Z" fill="#e4f1f1"/>
<path transform="matrix(1,0,0,-1,312.0147,218.11461)" stroke-width=".398" stroke-linecap="butt" stroke-miterlimit="10" stroke-linejoin="miter" fill="none" stroke="#000000" d="M0 0V207.466C0 209.667 1.784 211.451 3.985 211.451H95.229C97.43 211.451 99.214 209.667 99.214 207.466V0C99.214-2.201 97.43-3.985 95.229-3.985H3.985C1.784-3.985 0-2.201 0 0Z"/>
<use data-text="p" xlink:href="#font_88_17" transform="matrix(9.963,0,0,-9.963,317.169,116.73401)"/>
<use data-text="o" xlink:href="#font_88_15" transform="matrix(9.963,0,0,-9.963,322.3996,116.73401)"/>
<use data-text="(" xlink:href="#font_88_18" transform="matrix(9.963,0,0,-9.963,327.6302,116.73401)"/>
<use data-text="&quot;" xlink:href="#font_88_21" transform="matrix(9.963,0,0,-9.963,332.86079,116.73401)"/>
<use data-text="c" xlink:href="#font_88_3" transform="matrix(9.963,0,0,-9.963,338.09138,116.73401)"/>
<use data-text="l" xlink:href="#font_88_12" transform="matrix(9.963,0,0,-9.963,343.32197,116.73401)"/>
<use data-text="a" xlink:href="#font_88_2" transform="matrix(9.963,0,0,-9.963,348.55256,116.73401)"/>
<use data-text="s" xlink:href="#font_88_23" transform="matrix(9.963,0,0,-9.963,353.78315,116.73401)"/>
<use data-text="s" xlink:href="#font_88_23" transform="matrix(9.963,0,0,-9.963,359.01374,116.73401)"/>
<use data-text="i" xlink:href="#font_88_11" transform="matrix(9.963,0,0,-9.963,364.24433,116.73401)"/>
<use data-text="f" xlink:href="#font_88_9" transform="matrix(9.963,0,0,-9.963,369.4749,116.73401)"/>
<use data-text="." xlink:href="#font_88_20" transform="matrix(9.963,0,0,-9.963,374.7055,116.73401)"/>
<use data-text="a" xlink:href="#font_88_2" transform="matrix(9.963,0,0,-9.963,379.9361,116.73401)"/>
<use data-text="v" xlink:href="#font_88_28" transform="matrix(9.963,0,0,-9.963,385.1667,116.73401)"/>
<use data-text="g" xlink:href="#font_88_10" transform="matrix(9.963,0,0,-9.963,390.39729,116.73401)"/>
<use data-text="&quot;" xlink:href="#font_88_21" transform="matrix(9.963,0,0,-9.963,395.62788,116.73401)"/>
<use data-text=")" xlink:href="#font_88_19" transform="matrix(9.963,0,0,-9.963,400.85847,116.73401)"/>
</svg>
