<?xml version="1.0" encoding="UTF-8" standalone="no"?>
<!DOCTYPE svg PUBLIC "-//W3C//DTD SVG 1.1//EN" "http://www.w3.org/Graphics/SVG/1.1/DTD/svg11.dtd">
<svg xmlns="http://www.w3.org/2000/svg" xmlns:xlink="http://www.w3.org/1999/xlink" version="1.1" width="555.33059pt" height="1079.1333pt" viewBox="0 0 555.33059 1079.1333">
<g enable-background="new">
<path transform="matrix(2.7777777,0,0,-2.7777777,277.66389,404.61946)" d="M -99.2134 -183.53223 L -99.2134 84.31883 C -99.2134 85.96954 -97.87527 87.30766 -96.22456 87.30766 L 96.22456 87.30766 C 97.87527 87.30766 99.2134 85.96954 99.2134 84.31883 L 99.2134 -183.53223 C 99.2134 -185.18294 97.87527 -186.52106 96.22456 -186.52106 L -96.22456 -186.52106 C -97.87527 -186.52106 -99.2134 -185.18294 -99.2134 -183.53223 Z M 99.2134 87.30766 " fill="#ebeef3"/>
<path transform="matrix(2.7777777,0,0,-2.7777777,277.66389,404.61946)" stroke-width="1.49442" stroke-linecap="butt" stroke-miterlimit="10" stroke-linejoin="miter" fill="none" stroke="#3b528b" d="M -99.2134 -183.53223 L -99.2134 84.31883 C -99.2134 85.96954 -97.87527 87.30766 -96.22456 87.30766 L 96.22456 87.30766 C 97.87527 87.30766 99.2134 85.96954 99.2134 84.31883 L 99.2134 -183.53223 C 99.2134 -185.18294 97.87527 -186.52106 96.22456 -186.52106 L -96.22456 -186.52106 C -97.87527 -186.52106 -99.2134 -185.18294 -99.2134 -183.53223 Z M 99.2134 87.30766 "/>
<path transform="matrix(2.7777777,0,0,-2.7777777,277.66389,404.61946)" d="M -32.93661 93.09666 L -86.11943 93.09666 C -88.32037 93.09666 -90.10454 91.3125 -90.10454 89.11156 L -90.10454 85.5038 C -90.10454 83.30286 -88.32037 81.51869 -86.11943 81.51869 L -32.93661 81.51869 C -30.73567 81.51869 -28.9515 83.30286 -28.9515 85.5038 L -28.9515 89.11156 C -28.9515 91.3125 -30.73567 93.09666 -32.93661 93.09666 Z M -90.10454 81.51869 " fill="#ffffff"/>
<path transform="matrix(2.7777777,0,0,-2.7777777,277.66389,404.61946)" stroke-width="1.49442" stroke-linecap="butt" stroke-miterlimit="10" stroke-linejoin="miter" fill="none" stroke="#3b528b" d="M -32.93661 93.09666 L -86.11943 93.09666 C -88.32037 93.09666 -90.10454 91.3125 -90.10454 89.11156 L -90.10454 85.5038 C -90.10454 83.30286 -88.32037 81.51869 -86.11943 81.51869 L -32.93661 81.51869 C -30.73567 81.51869 -28.9515 83.30286 -28.9515 85.5038 L -28.9515 89.11156 C -28.9515 91.3125 -30.73567 93.09666 -32.93661 93.09666 Z M -90.10454 81.51869 "/>
<symbol id="font_0_1">
<path d="M 0 .040000004 L 0 0 L .23200001 0 L .23200001 .040000004 C .20300001 .040000004 .14500001 .040000004 .14500001 .055000005 C .14500001 .061000006 .15400002 .08 .15900001 .091000009 C .17300001 .128 .194 .16800002 .20300001 .20400001 L .468 .20400001 L .532 .040000004 L .439 .040000004 L .439 0 L .757 0 L .757 .040000004 L .662 .040000004 C .65400007 .07 .639 .1 .62700006 .12900001 C .556 .31300003 .48000003 .49700005 .409 .68100008 C .403 .693 .4 .70100006 .38 .70100006 C .352 .70100006 .348 .683 .329 .633 C .257 .44200004 .17400001 .25700004 .104 .065 C .09500001 .043000007 .065 .039000006 .036000004 .039000006 C .023000002 .039000006 .010000002 .040000004 0 .040000004 M .22000002 .244 L .335 .53700008 L .451 .244 L .22000002 .244 Z "/>
</symbol>
<symbol id="font_0_25">
<path d="M 0 .448 L 0 .40800003 L .024999999 .40800003 C .044 .40800003 .068 .40600003 .07 .384 L .07 .143 C .07 .113000009 .072000008 .08200001 .088 .055 C .117 .004 .18800001 0 .237 0 C .297 0 .35800005 .027000003 .37800003 .086 L .379 0 L .55 0 L .55 .046 L .52400007 .046 C .50100007 .046 .48000003 .048 .48000003 .079 L .48000003 .45600004 L .36400003 .45600004 L .305 .448 L .305 .40800003 L .32700003 .40800003 C .35300005 .40800003 .375 .405 .375 .37600003 L .375 .155 C .36900003 .09200001 .328 .031000002 .255 .031000002 C .216 .031000002 .17400001 .031000002 .17400001 .10700001 C .17400001 .12200001 .17500001 .138 .17500001 .15100001 L .17500001 .45600004 L .059 .45600004 L 0 .448 Z "/>
</symbol>
<symbol id="font_0_22">
<path d="M .14700002 .64100006 C .14700002 .563 .107 .441 0 .441 L 0 .41000004 L .08 .41000004 L .08 .14 C .08 .11000001 .082 .080000009 .099 .054 C .128 .010000001 .18400002 0 .23100002 0 C .30900003 0 .34600003 .065000008 .34600003 .143 L .34600003 .183 L .308 .183 C .308 .169 .30900003 .155 .30900003 .14 C .30900003 .10000001 .299 .034 .24500002 .034 C .19500001 .034 .18500002 .087000008 .18500002 .133 L .18500002 .41000004 L .328 .41000004 L .328 .45000003 L .18500002 .45000003 L .18500002 .64100006 L .14700002 .64100006 Z "/>
</symbol>
<symbol id="font_0_1b">
<path d="M .22500001 .45900003 C .105000007 .446 0 .38000003 0 .22500001 C 0 .158 .025 .091000009 .080000009 .049000004 C .126 .014 .186 0 .244 0 C .36500005 0 .48700003 .067 .48700003 .22700002 C .48700003 .282 .47000007 .34 .43300004 .382 C .38400004 .439 .30900003 .45900003 .237 .45900003 L .22500001 .45900003 M .11400001 .194 L .11400001 .24700001 C .11400001 .298 .11500001 .35700003 .154 .395 C .177 .418 .21000001 .42900003 .242 .42900003 C .31500004 .42900003 .36300005 .381 .37100003 .305 C .37300004 .285 .37400005 .26500003 .37400005 .246 L .37400005 .222 C .37400005 .17300001 .37200005 .11600001 .34200005 .07800001 C .31800003 .048 .28100003 .034 .244 .034 C .20600002 .034 .16700001 .049000004 .14400001 .080000009 C .118 .113000009 .118 .155 .11400001 .194 Z "/>
</symbol>
<symbol id="font_0_14">
<path d="M 0 .088000018 L 0 0 L .293 0 L .293 .088000018 L 0 .088000018 Z "/>
</symbol>
<symbol id="font_0_a">
<path d="M .019000002 .67800006 L 0 .44400005 L .038 .44400005 C .042 .49300004 .044999999 .554 .073 .591 C .107999999 .63600006 .16700001 .6380001 .22000002 .6380001 L .28000004 .6380001 L .28000004 .040000004 L .131 .040000004 L .131 0 L .554 0 L .554 .040000004 L .40500004 .040000004 L .40500004 .6380001 L .465 .6380001 C .533 .6380001 .614 .63400009 .634 .535 C .64100006 .50500008 .644 .47400005 .646 .44400005 L .684 .44400005 L .665 .67800006 L .019000002 .67800006 Z "/>
</symbol>
<symbol id="font_0_19">
<path d="M 0 .44200004 L 0 .40200005 L .02 .40200005 C .046000005 .40200005 .07 .39900003 .07 .36800004 L .07 .040000004 L 0 .040000004 L 0 0 L .24500002 0 L .24500002 .040000004 L .17500001 .040000004 L .17500001 .24300002 C .17500001 .32400004 .21700002 .41900004 .314 .41900004 C .37200005 .41900004 .375 .35400004 .375 .29800005 L .375 .040000004 L .305 .040000004 L .305 0 L .55 0 L .55 .040000004 L .48000003 .040000004 L .48000003 .30000005 C .48000003 .33400003 .47800005 .36800004 .459 .39800004 C .43200005 .44200004 .37700004 .45000006 .33000005 .45000006 C .25800003 .45000006 .18800001 .40400005 .16800002 .33500005 L .16700001 .45000006 L .056 .45000006 L 0 .44200004 Z "/>
</symbol>
<symbol id="font_0_e">
<path d="M .11400001 .23 L .42200003 .23 C .43500004 .23 .439 .237 .439 .24900002 C .439 .35700003 .386 .46 .234 .46 C .18 .46 .125 .44500003 .082 .412 C .027000003 .37 0 .301 0 .23200001 C 0 .08900001 .10900001 0 .24700001 0 C .32200004 0 .40500004 .031000002 .43600003 .11200001 C .437 .11600001 .439 .11900001 .439 .12300001 C .439 .132 .43 .137 .41900004 .137 C .4 .137 .395 .11100001 .38700003 .09700001 C .36100004 .056 .31 .034 .26200003 .034 C .21000001 .034 .15900001 .058000003 .134 .106000009 C .11500001 .14400001 .11400001 .18800001 .11400001 .23 M .11400001 .257 C .11400001 .301 .119 .349 .14600002 .38500003 C .16700001 .412 .201 .428 .234 .428 C .32500003 .428 .34800003 .33200003 .34800003 .257 L .11400001 .257 Z "/>
</symbol>
<symbol id="font_0_1e">
<path d="M 0 .44200004 L 0 .40200005 L .02 .40200005 C .046 .40200005 .07000001 .39900003 .07000001 .36800004 L .07000001 .040000004 L 0 .040000004 L 0 0 L .25800003 0 L .25800003 .040000004 L .171 .040000004 L .171 .184 C .171 .27300004 .17400001 .41900004 .293 .41900004 C .28 .40600003 .272 .39300005 .272 .37500004 C .272 .33900003 .298 .31800003 .328 .31800003 C .361 .31800003 .38300003 .34400005 .38300003 .37300004 C .38300003 .42300005 .331 .45000006 .287 .45000006 C .225 .45000006 .17300001 .39300005 .164 .33300004 L .163 .45000006 L .055000005 .44500003 L 0 .44200004 Z "/>
</symbol>
<use xlink:href="#font_0_1" transform="matrix(27.895388,0,0,-27.895388,34.837568,171.69989)"/>
<use xlink:href="#font_0_25" transform="matrix(27.895388,0,0,-27.895388,58.04653,171.86727)"/>
<use xlink:href="#font_0_22" transform="matrix(27.895388,0,0,-27.895388,74.58849,171.86727)"/>
<use xlink:href="#font_0_1b" transform="matrix(27.895388,0,0,-27.895388,86.83457,171.86727)"/>
<use xlink:href="#font_0_14" transform="matrix(27.895388,0,0,-27.895388,101.647029,166.73451)"/>
<use xlink:href="#font_0_a" transform="matrix(27.895388,0,0,-27.895388,112.6657,171.69989)"/>
<use xlink:href="#font_0_25" transform="matrix(27.895388,0,0,-27.895388,131.3835,171.86727)"/>
<use xlink:href="#font_0_19" transform="matrix(27.895388,0,0,-27.895388,148.42758,171.69989)"/>
<use xlink:href="#font_0_e" transform="matrix(27.895388,0,0,-27.895388,165.2485,171.86727)"/>
<use xlink:href="#font_0_1e" transform="matrix(27.895388,0,0,-27.895388,179.25199,171.69989)"/>
<path transform="matrix(2.7777777,0,0,-2.7777777,277.66389,404.61946)" d="M -61.21306 144.91783 L -77.68567 144.91783 C -79.88661 144.91783 -81.67078 143.13367 -81.67078 140.93273 L -81.67078 136.86479 C -81.67078 134.66385 -79.88661 132.87969 -77.68567 132.87969 L -61.21306 132.87969 C -59.01212 132.87969 -57.22795 134.66385 -57.22795 136.86479 L -57.22795 140.93273 C -57.22795 143.13367 -59.01212 144.91783 -61.21306 144.91783 Z M -81.67078 132.87969 " fill="#ffffff"/>
<path transform="matrix(2.7777777,0,0,-2.7777777,277.66389,404.61946)" stroke-width="1.49442" stroke-linecap="butt" stroke-miterlimit="10" stroke-linejoin="miter" fill="none" stroke="#3b528b" d="M -61.21306 144.91783 L -77.68567 144.91783 C -79.88661 144.91783 -81.67078 143.13367 -81.67078 140.93273 L -81.67078 136.86479 C -81.67078 134.66385 -79.88661 132.87969 -77.68567 132.87969 L -61.21306 132.87969 C -59.01212 132.87969 -57.22795 134.66385 -57.22795 136.86479 L -57.22795 140.93273 C -57.22795 143.13367 -59.01212 144.91783 -61.21306 144.91783 Z M -81.67078 132.87969 "/>
<symbol id="font_1_9">
<path d="M 0 .683 L 0 .65400007 L .033999999 .65400007 C .069000009 .65400007 .10000001 .65000006 .10000001 .61200007 L .10000001 .072000008 C .10000001 .034 .069000009 .028 .037000006 .028 C .024 .028 .011 .029000001 0 .029000001 L 0 0 L .281 0 L .281 .029000001 C .269 .029000001 .257 .028 .24500002 .028 C .21100001 .028 .18100001 .033000005 .18100001 .072000008 L .18100001 .61200007 C .18100001 .65000006 .21500002 .65400007 .24900003 .65400007 L .281 .65400007 L .281 .683 L 0 .683 Z "/>
</symbol>
<symbol id="font_1_25">
<path d="M 0 .42900003 L 0 .40000005 L .019000002 .40000005 C .048000006 .40000005 .076000008 .39600004 .076000008 .35000003 L .076000008 .071 C .076000008 .034 .057 .029000001 0 .029000001 L 0 0 L .21700001 0 L .21700001 .029000001 L .194 .029000001 C .165 .029000001 .141 .033000005 .141 .07 L .141 .25300003 C .141 .32200004 .176 .42000006 .27400003 .42000006 C .335 .42000006 .34800003 .36100004 .34800003 .30200003 L .34800003 .067 C .34800003 .032 .319 .029000001 .289 .029000001 L .272 .029000001 L .272 0 L .48900003 0 L .48900003 .029000001 L .46600003 .029000001 C .439 .029000001 .41300003 .030000002 .41300003 .068 L .41300003 .29500003 C .41300003 .32700003 .41200004 .35800005 .39600004 .38600005 C .37300004 .42600004 .32500003 .44000004 .282 .44000004 C .23300001 .44000004 .191 .42200003 .157 .37500004 C .148 .36300005 .141 .35100005 .13700001 .33700005 L .136 .44000004 L 0 .42900003 Z "/>
</symbol>
<symbol id="font_1_29">
<path d="M 0 .623 L 0 .59400007 L .018000003 .59400007 C .048000006 .59400007 .076000008 .591 .076000008 .549 L .076000008 .089 C .076000008 .083 .07700001 .076 .07700001 .069 C .07700001 .031000004 .047000003 .029 .014000002 .029 L 0 .029 L 0 0 L .21700001 0 L .21700001 .029 L .19500001 .029 C .16700001 .029 .14100002 .032999994 .14100002 .069 L .142 .24800001 C .16700001 .206 .222 .184 .268 .184 C .38900004 .184 .48000003 .293 .48000003 .411 C .48000003 .523 .39600004 .634 .275 .634 C .22000002 .634 .17500001 .60700008 .13900002 .56700006 L .13900002 .634 L 0 .623 M .402 .393 C .397 .326 .37300004 .25100003 .30600003 .215 C .291 .208 .275 .20400001 .25800003 .20400001 C .21100001 .20400001 .14100002 .25 .14100002 .301 L .14100002 .468 C .14100002 .481 .14000002 .49300004 .14000002 .50600007 C .14000002 .56200006 .20800002 .61200007 .26700003 .61200007 C .36800004 .61200007 .40300004 .48000003 .40300004 .411 C .40300004 .40500004 .40300004 .39900003 .402 .393 Z "/>
</symbol>
<symbol id="font_1_35">
<path d="M 0 .44 L 0 .411 L .013 .411 C .055000005 .411 .076000008 .407 .076000008 .347 L .076000008 .14700002 C .076000008 .116000007 .07700001 .084 .092999998 .057000005 C .119 .013 .17400001 0 .22100002 0 C .275 0 .33400003 .035 .349 .09 L .35000003 .0010000002 L .48900003 .011000001 L .48900003 .040000004 L .47000004 .040000004 C .441 .040000004 .41300003 .044000005 .41300003 .088 L .41300003 .451 L .272 .44 L .272 .411 L .284 .411 C .31800003 .411 .34800003 .409 .34800003 .361 L .34800003 .16300002 C .34300003 .093 .30400003 .022 .22600001 .022 C .18900001 .022 .153 .031000004 .143 .084 C .141 .103 .141 .123 .141 .142 L .141 .451 L 0 .44 Z "/>
</symbol>
<symbol id="font_1_32">
<path d="M .128 .62500008 C .128 .56 .102000009 .43100003 0 .43100003 L 0 .411 L .08500001 .411 L .08500001 .18500002 C .08500001 .171 .08400001 .157 .08400001 .143 C .08400001 .053000004 .13 0 .213 0 C .29000003 0 .308 .08600001 .308 .14800002 L .308 .19100002 L .286 .19100002 C .286 .17600002 .287 .16100002 .287 .14600002 C .287 .10300001 .279 .022 .21800001 .022 C .161 .022 .15 .091000009 .15 .14000002 L .15 .411 L .291 .411 L .291 .44000004 L .15 .44000004 L .15 .62500008 L .128 .62500008 Z "/>
</symbol>
<use xlink:href="#font_1_9" transform="matrix(23.246222,0,0,-23.246222,58.095197,24.51844)"/>
<use xlink:href="#font_1_25" transform="matrix(23.246222,0,0,-23.246222,66.20813,24.51844)"/>
<use xlink:href="#font_1_29" transform="matrix(23.246222,0,0,-23.246222,78.761089,29.028208)"/>
<use xlink:href="#font_1_35" transform="matrix(23.246222,0,0,-23.246222,91.50002,24.774149)"/>
<use xlink:href="#font_1_32" transform="matrix(23.246222,0,0,-23.246222,103.82051,24.750903)"/>
<path transform="matrix(2.7777777,0,0,-2.7777777,277.66389,404.61946)" stroke-width="1.49442" stroke-linecap="butt" stroke-miterlimit="10" stroke-linejoin="miter" fill="none" stroke="#3b528b" d="M -82.19533 138.90288 L -86.3032 138.90288 C -87.95392 138.90288 -89.29204 137.56475 -89.29204 135.91405 L -89.29204 102.20222 C -89.29204 100.55151 -87.95392 99.2134 -86.3032 99.2134 L 86.3032 99.2134 C 87.95392 99.2134 89.29204 100.55151 89.29204 102.20222 L 89.29204 135.90993 C 89.29204 137.56063 87.95393 138.89879 86.30325 138.8988 L -56.70593 138.9013 "/>
<symbol id="font_1_12">
<path d="M .018000003 .67800006 L 0 .45500005 L .022000004 .45500005 C .026000005 .50500008 .028 .57600006 .057000009 .60800006 C .088 .646 .14600002 .65000006 .19200002 .65000006 L .23700002 .65000006 C .25700004 .65000006 .27800004 .64800009 .27800004 .61500009 L .27800004 .075 C .27800004 .034 .24100003 .028 .20600002 .028 C .19500001 .028 .18300002 .029000001 .17400001 .029000001 L .14400001 .029000001 L .14400001 0 L .493 0 L .493 .029000001 L .43300004 .029000001 C .395 .029000001 .35900004 .033000005 .35900004 .074 L .35900004 .59800007 C .35900004 .60400006 .358 .61 .358 .61600008 C .358 .64500007 .37600003 .65000006 .40900005 .65000006 L .441 .65000006 C .509 .65000006 .58 .64400008 .601 .558 C .609 .52400007 .611 .48900003 .614 .45500005 L .636 .45500005 L .61800006 .67800006 L .018000003 .67800006 Z "/>
</symbol>
<symbol id="font_1_2d">
<path d="M 0 .42900003 L 0 .40000005 L .016000003 .40000005 C .046 .40000005 .076000008 .39700005 .076000008 .35000003 L .076000008 .071 C .076000008 .034 .057 .029000001 0 .029000001 L 0 0 L .23400003 0 L .23400003 .029000001 C .22300002 .029000001 .21100001 .028 .19900002 .028 C .16700001 .028 .13900002 .033000005 .13900002 .07 L .13900002 .20600002 C .13900002 .28300003 .15100001 .39300005 .23300001 .41700004 C .24100003 .41900004 .24800003 .42000006 .256 .42000006 C .261 .42000006 .26500003 .41900004 .27 .41900004 L .27 .41800005 C .25500003 .41200004 .24600002 .39700005 .24600002 .38100005 C .24600002 .35800005 .26500003 .34200005 .28500004 .34200005 C .31100003 .34200005 .32500003 .36200003 .32500003 .38200004 C .32500003 .41900004 .29000003 .44000004 .256 .44000004 C .20300001 .44000004 .164 .40200005 .14500001 .35800005 C .14100002 .34900005 .136 .33900003 .135 .32900004 L .134 .44000004 L 0 .42900003 Z "/>
</symbol>
<symbol id="font_1_15">
<path d="M .062000004 .37800003 C .08600001 .416 .13000001 .43600003 .17400001 .43600003 C .23100002 .43600003 .277 .37800003 .277 .323 L .277 .269 C .17600002 .269 0 .24100001 0 .104 L 0 .094000007 C .009 .026 .09200001 0 .15100001 0 C .20300001 0 .268 .032 .283 .087000008 L .284 .087000008 C .287 .040000004 .321 .0060000007 .361 .0060000007 C .403 .0060000007 .43600003 .042000005 .44 .083000008 L .44 .15600002 L .418 .15600002 L .418 .107 C .418 .078 .41300003 .035 .38 .035 C .34800003 .035 .341 .078 .341 .103 C .341 .114 .342 .125 .342 .136 L .342 .275 C .342 .286 .343 .298 .343 .30900003 C .343 .403 .256 .456 .17400001 .456 C .110000018 .456 .029000003 .418 .029000003 .34 C .029000003 .31100003 .048000006 .29500003 .072 .29500003 C .096000019 .29500003 .113000009 .314 .113000009 .337 C .113000009 .36200003 .09400001 .37800003 .07000001 .37800003 L .062000004 .37800003 M .277 .25100003 L .277 .15600002 C .277 .085 .23200001 .021000002 .16100002 .021000002 C .12300001 .021000002 .072 .051000004 .072 .102000009 C .072 .19000001 .15200001 .23500002 .23500003 .24700003 C .24900003 .24900002 .263 .24800001 .277 .25100003 Z "/>
</symbol>
<symbol id="font_1_22">
<path d="M .0040000008 .42900003 L .0040000008 .40000005 L .020000004 .40000005 C .052 .40000005 .076000008 .39500005 .076000008 .35000003 L .076000008 .071 C .076000008 .034 .057000005 .029000001 0 .029000001 L 0 0 L .20700002 0 L .20700002 .029000001 L .19300002 .029000001 C .164 .029000001 .139 .031000002 .139 .065 L .139 .44000004 L .0040000008 .42900003 M .08500001 .66300007 C .058000007 .65900006 .044000009 .637 .044000009 .61600008 C .044000009 .595 .060000004 .56700006 .091000009 .56700006 C .122 .56700006 .141 .591 .141 .61500009 C .141 .63600006 .125 .66400006 .094000007 .66400006 C .091000009 .66400006 .08800001 .66300007 .08500001 .66300007 Z "/>
</symbol>
<symbol id="font_1_1f">
<path d="M .294 .609 L .293 .609 C .266 .634 .22600003 .64500007 .19100002 .64500007 C .116000007 .64500007 .033 .59300008 .033 .5 C .033 .467 .045 .43400003 .067 .40900005 C .07 .40600003 .075 .40100003 .075 .39600004 C .075 .39100004 .069 .38500003 .067 .381 C .055 .361 .048 .337 .048 .314 C .048 .282 .062 .24400002 .091000009 .22800002 L .091000009 .22700002 C .045 .21500002 0 .17600002 0 .127 C 0 .036 .13100001 0 .21600002 0 C .297 0 .43400003 .029 .43400003 .128 C .43400003 .25100003 .312 .26900003 .23 .26900003 L .15300001 .26900003 C .109000008 .26900003 .076000008 .29200004 .076000008 .33500005 L .076000008 .33900003 C .077 .356 .08400001 .37 .092 .38500003 C .121 .36900003 .14700002 .356 .18000002 .35400004 L .18800001 .35400004 C .267 .35400004 .33400003 .40300004 .347 .48800005 L .347 .499 C .347 .53300008 .335 .55700007 .317 .586 C .314 .58900007 .31100003 .592 .31100003 .596 L .31100003 .597 C .31800003 .619 .374 .63500007 .396 .63500007 C .40100003 .63500007 .405 .63500007 .41 .634 C .40100003 .629 .39400003 .62 .39400003 .609 C .39400003 .59400007 .407 .583 .421 .583 C .437 .583 .44700004 .595 .44700004 .611 L .44700004 .61600008 C .44300003 .63900008 .423 .656 .39900003 .656 C .363 .656 .31800003 .64000007 .294 .609 M .049000004 .120000008 L .049000004 .128 C .049000004 .162 .073 .19500001 .105 .208 C .11900001 .21300002 .135 .21400002 .15 .21400002 L .21800001 .21400002 C .284 .21400002 .374 .209 .38500003 .13300002 L .38500003 .12600002 C .38500003 .049999998 .279 .020999998 .21900001 .020999998 C .15200001 .020999998 .059 .048000009 .049000004 .120000008 M .10300001 .48000003 L .10300001 .49300004 C .10300001 .541 .11000001 .624 .18900001 .624 C .253 .624 .277 .56100007 .277 .499 C .277 .45500005 .269 .37600003 .19100002 .37600003 C .13200002 .37600003 .109000008 .425 .10300001 .48000003 Z "/>
</symbol>
<symbol id="font_1_4">
<path d="M 0 .684 L 0 .65500006 L .031999999 .65500006 C .065000008 .65500006 .09600001 .651 .09600001 .61300006 C .09600001 .606 .095000009 .6 .095000009 .59400007 L .095000009 .074 C .095000009 .035 .065000008 .029000001 .035000005 .029000001 C .023000002 .029000001 .011 .030000002 0 .030000002 L 0 .001 L .272 .001 C .29200004 .001 .312 0 .33300004 0 C .40700004 0 .47400005 .019000002 .53700008 .07300001 C .61300006 .14 .651 .23900001 .651 .33900003 C .651 .51100006 .53900006 .68500009 .32900004 .68500009 C .30800004 .68500009 .28700004 .684 .26700003 .684 L 0 .684 M .559 .29900003 C .55100008 .18300002 .51600006 .078 .38900004 .038000004 C .35900004 .030000002 .32900004 .030000002 .298 .030000002 L .21300003 .030000002 C .19300002 .030000002 .17300001 .032 .17300001 .064 C .17300001 .072000008 .174 .079 .174 .086 L .174 .582 C .174 .591 .17300001 .601 .17300001 .611 C .17300001 .637 .17300001 .65500006 .22000003 .65500006 L .30600003 .65500006 C .37600003 .65500006 .44600005 .64000007 .50200006 .56700006 C .55300006 .499 .56000009 .41200004 .56000009 .33100004 C .56000009 .32000003 .56000009 .31 .559 .29900003 Z "/>
</symbol>
<symbol id="font_1_18">
<path d="M .087000008 .21000001 C .08800001 .2 .08800001 .19 .08800001 .18 C .085 .124 .063 .065 .023000002 .024999991 C .019000002 .020999998 .012999997 .015000001 .012999997 .008999988 L .012999997 .0069999995 C .015000001 .0019999892 .019000002 0 .022 0 C .036 0 .059999996 .034999998 .071 .05399999 C .094000007 .092999998 .109000008 .141 .109000008 .18800001 C .109000008 .22600001 .099 .29000003 .048 .29000003 C .018 .29000003 0 .26500003 0 .24000001 C 0 .212 .022 .193 .048 .193 C .064 .193 .077 .2 .087000008 .21000001 Z "/>
</symbol>
<symbol id="font_1_b">
<path d="M 0 .683 L 0 .65400007 L .033 .65400007 C .06600001 .65400007 .09600001 .65000006 .09600001 .61300006 C .09600001 .60600009 .095000009 .6 .095000009 .59400007 L .095000009 .073 C .095000009 .033000005 .064 .029000001 .031000004 .029000001 L 0 .029000001 L 0 0 L .503 0 L .52900007 .256 L .507 .256 C .49700005 .16700001 .48900003 .067 .37300004 .036000004 C .344 .029000001 .315 .029000001 .285 .029000001 L .21200001 .029000001 C .19100002 .029000001 .176 .035000005 .176 .062000004 L .176 .61 C .176 .64900007 .21200001 .65500006 .248 .65500006 C .26500003 .65500006 .282 .65400007 .29500003 .65400007 L .29500003 .683 L 0 .683 Z "/>
</symbol>
<symbol id="font_1_1a">
<path d="M .07700001 .24200002 L .363 .24200002 C .373 .24200002 .378 .24600002 .378 .256 C .378 .35900004 .323 .455 .20500002 .455 C .08500001 .455 0 .34600003 0 .23000002 C 0 .142 .047000007 .053000004 .134 .017 C .157 .007 .18200001 0 .20700002 0 L .21000001 0 C .283 0 .354 .044 .375 .11800001 C .37600003 .12100001 .378 .125 .378 .12900001 C .378 .134 .372 .13900002 .367 .13900002 C .355 .13900002 .35 .11200001 .343 .09900001 C .318 .054 .271 .022 .21700001 .022 C .179 .022 .14500001 .043 .12100001 .071 C .08100001 .11900001 .07700001 .18200001 .07700001 .24200002 M .07800001 .261 C .07800001 .337 .120000008 .43500004 .20300001 .43500004 C .291 .43500004 .315 .33200003 .315 .261 L .07800001 .261 Z "/>
</symbol>
<symbol id="font_1_f">
<path d="M 0 .683 L 0 .65400007 L .033 .65400007 C .06600001 .65400007 .09600001 .65000006 .09600001 .61300006 C .09600001 .60600009 .095000009 .6 .095000009 .59400007 L .095000009 .073 C .095000009 .033000005 .064 .029000001 .031000004 .029000001 L 0 .029000001 L 0 0 L .271 0 L .271 .029000001 L .24000001 .029000001 C .201 .029000001 .176 .032 .176 .072000008 L .176 .31800003 L .361 .31800003 C .456 .32600004 .57 .38900004 .57 .49700005 L .57 .507 C .56200006 .62900009 .43 .6840001 .326 .6840001 C .307 .6840001 .28800003 .683 .269 .683 L 0 .683 M .174 .34200005 L .174 .61700007 C .174 .64300009 .18400002 .65400007 .211 .65400007 L .286 .65400007 C .37100003 .65400007 .477 .647 .477 .49700005 C .477 .46300004 .473 .42400003 .451 .39600004 C .416 .35000003 .358 .34200005 .305 .34200005 L .174 .34200005 Z "/>
</symbol>
<symbol id="font_1_1c">
<path d="M .078 .43000005 L 0 .43000005 L 0 .40100003 L .078 .40100003 L .078 .067 C .078 .032 .049000004 .029000001 .019 .029000001 L .0019999985 .029000001 L .0019999985 0 L .23600002 0 L .23600002 .029000001 L .20500002 .029000001 C .165 .029000001 .141 .032 .141 .075 L .141 .40100003 L .25400005 .40100003 L .25400005 .43000005 L .139 .43000005 L .139 .52500006 C .139 .558 .139 .59000006 .15200001 .62100008 C .165 .651 .19000001 .683 .22500001 .6840001 C .23800002 .6840001 .25000004 .68100008 .26200003 .67600008 C .246 .669 .23200001 .65900006 .23200001 .637 C .23200001 .61500009 .24800001 .59700009 .27100004 .59700009 C .29800005 .59700009 .31200005 .61600008 .31200005 .6380001 C .31200005 .68200007 .26600004 .70400008 .228 .70400008 C .162 .70400008 .105000007 .66 .085 .59900006 C .079 .57900008 .078 .559 .078 .53800007 L .078 .43000005 Z "/>
</symbol>
<symbol id="font_1_27">
<path d="M .201 .455 C .094000007 .44500003 0 .35200004 0 .22500001 C 0 .11100001 .08400001 0 .216 0 C .336 0 .43 .106000009 .43 .22300002 C .43 .335 .347 .45600004 .21400002 .45600004 C .21000001 .45600004 .20500002 .455 .201 .455 M .07700001 .202 C .076000008 .21000001 .076000008 .21800001 .076000008 .22600001 C .076000008 .29500003 .083000008 .386 .16000001 .42200003 C .17700002 .43000005 .19600001 .43400003 .21400002 .43400003 C .252 .43400003 .289 .41700004 .314 .38700003 C .349 .34600003 .35300002 .29000003 .35300002 .23800002 C .35300002 .18200001 .352 .11800001 .314 .071 C .289 .040000004 .252 .022 .21400002 .022 C .13100001 .022 .08800001 .09700001 .080000009 .171 C .07800001 .18100001 .07800001 .19200002 .07700001 .202 Z "/>
</symbol>
<symbol id="font_1_24">
<path d="M 0 .42900003 L 0 .40000005 L .019000002 .40000005 C .048000006 .40000005 .076000008 .39600004 .076000008 .35000003 L .076000008 .071 C .076000008 .034 .057 .029000001 0 .029000001 L 0 0 L .21700001 0 L .21700001 .029000001 L .194 .029000001 C .165 .029000001 .141 .033000005 .141 .07 L .141 .25300003 C .141 .32200004 .176 .42000006 .27400003 .42000006 C .335 .42000006 .34800003 .36100004 .34800003 .30200003 L .34800003 .067 C .34800003 .032 .319 .029000001 .289 .029000001 L .272 .029000001 L .272 0 L .48900003 0 L .48900003 .029000001 L .46600003 .029000001 C .437 .029000001 .41300003 .033000005 .41300003 .07 L .41300003 .25300003 C .41300003 .32200004 .448 .42000006 .546 .42000006 C .60700008 .42000006 .62 .36100004 .62 .30200003 L .62 .067 C .62 .032 .591 .029000001 .56100007 .029000001 L .544 .029000001 L .544 0 L .76100006 0 L .76100006 .029000001 L .73800006 .029000001 C .711 .029000001 .685 .030000002 .685 .068 L .685 .29500003 C .685 .32600004 .684 .35700003 .66800007 .38500003 C .64500007 .42600004 .59800007 .44000004 .55300006 .44000004 C .49200005 .44000004 .42900003 .40200005 .411 .34200005 L .41000004 .34200005 C .40300004 .41100005 .342 .44000004 .27600003 .44000004 C .214 .44000004 .153 .39400003 .13700001 .33700005 L .136 .44000004 L 0 .42900003 Z "/>
</symbol>
<symbol id="font_1_17">
<path d="M .32600004 .381 C .323 .381 .321 .38200004 .31800003 .38200004 C .29500003 .38200004 .277 .363 .277 .34000004 C .277 .31500004 .29600004 .298 .31800003 .298 C .34100003 .298 .36100004 .314 .36100004 .34100003 C .36100004 .42300005 .27100004 .455 .20700002 .455 C .08600001 .455 0 .342 0 .22600001 C 0 .11100001 .08600001 0 .21000001 0 C .277 0 .33600004 .036000004 .365 .105000007 C .367 .11100001 .37100003 .12000001 .37100003 .128 L .37100003 .132 C .37000004 .136 .36600004 .13800001 .36200003 .13800001 C .34700004 .13800001 .34700004 .12300001 .344 .113000009 C .32500003 .060000004 .27400003 .022 .21800003 .022 C .112 .022 .07700001 .141 .07700001 .224 C .07700001 .30600003 .103000018 .43300004 .215 .43300004 C .25500003 .43300004 .30200003 .41500003 .32600004 .381 Z "/>
</symbol>
<symbol id="font_1_c">
<path d="M 0 .683 L 0 .65400007 L .033000005 .65400007 C .066 .65400007 .096 .65000006 .096 .61300006 C .096 .60600009 .09500001 .6 .09500001 .59400007 L .09500001 .1 C .09500001 .036000004 .042 .029000001 0 .029000001 L 0 0 L .21400002 0 L .21400002 .029000001 C .16800002 .029000001 .119 .038000004 .119 .105000007 L .120000008 .65000006 C .12500002 .633 .133 .61600008 .13900002 .59900006 C .19700001 .45000006 .252 .30200003 .30900003 .15300001 L .35400004 .036000004 C .358 .023 .36200003 .003 .37700004 0 L .37800003 0 C .393 0 .397 .023 .40100003 .034 L .578 .49600003 C .591 .531 .604 .56600007 .61800006 .6010001 L .63 .63400009 C .633 .64100006 .636 .64800009 .638 .656 L .639 .096 C .639 .088 .64 .079 .64 .071 C .64 .033000005 .609 .028 .578 .028 C .566 .028 .554 .029000001 .54399999 .029000001 L .54399999 0 L .808 0 L .808 .029000001 L .776 .029000001 C .74300006 .029000001 .712 .033000005 .712 .071 C .712 .078 .713 .084 .713 .09 L .713 .61 C .713 .64900007 .74300006 .65500006 .773 .65500006 C .785 .65500006 .797 .65400007 .808 .65400007 L .808 .683 L .648 .683 L .631 .68000009 L .611 .637 L .40500004 .096 L .40300004 .096 L .19700001 .637 L .17700002 .68000009 L .16000001 .683 L 0 .683 Z "/>
</symbol>
<symbol id="font_1_10">
<path d="M 0 .704 L 0 .675 L .033 .675 C .06600001 .675 .09600001 .671 .09600001 .634 C .09600001 .62700006 .095000009 .621 .095000009 .615 L .095000009 .094000007 C .095000009 .054000006 .064 .050000006 .031000004 .050000006 L 0 .050000006 L 0 .021000002 L .269 .021000002 L .269 .050000006 L .238 .050000006 C .199 .050000006 .174 .053000004 .174 .09300001 L .174 .35300002 L .283 .35300002 C .33900003 .35300002 .381 .33500005 .41000004 .29100005 C .426 .26500003 .42700003 .237 .42700003 .208 L .42700003 .16 C .42700003 .101 .43600003 .013000001 .573 0 L .582 0 C .642 0 .675 .054000006 .675 .10700001 C .675 .113000009 .675 .12300001 .665 .12300001 C .65000006 .12300001 .652 .09700001 .65000006 .08500001 C .64400008 .054000006 .62100008 .020000002 .587 .020000002 C .532 .020000002 .52500006 .09700001 .521 .136 C .51 .21800001 .51100006 .293 .432 .34000004 C .416 .34900005 .398 .35700003 .38000003 .36100004 C .44500003 .38200004 .556 .41600005 .556 .522 C .556 .644 .41500003 .699 .314 .704 L 0 .704 M .174 .37300004 L .174 .638 C .174 .66400006 .18400002 .675 .21000001 .675 L .283 .675 C .368 .675 .463 .651 .463 .522 C .463 .44100005 .41500003 .39300005 .338 .37700004 C .312 .37300004 .287 .37300004 .261 .37300004 L .174 .37300004 Z "/>
</symbol>
<symbol id="font_1_2e">
<path d="M .25100003 .42400003 C .22300002 .44700004 .19 .455 .155 .455 C .083000008 .455 0 .42700003 0 .33100004 L 0 .32200004 C .037 .15400002 .27400003 .257 .27400003 .11000001 C .27400003 .048 .21800003 .020000002 .16500002 .020000002 C .065000008 .020000002 .040000008 .10100001 .023000002 .17000002 C .021000002 .17600002 .018000003 .18100001 .011000004 .18100001 C .0020000004 .18100001 0 .17400001 0 .16700001 L 0 .012 C 0 .007 .0020000004 0 .010000002 0 C .027000003 0 .041 .043 .052 .043 L .053000004 .043 C .060000004 .041 .065000008 .033 .071 .028 C .09800001 .008 .13 0 .164 0 C .23800004 0 .32000003 .037 .32000003 .13700001 C .32000003 .19600001 .27300004 .24900002 .21800003 .266 C .164 .28300003 .045 .279 .045 .36 C .045 .41700004 .10500001 .43700005 .15200001 .43700005 C .21000001 .43700005 .27300004 .40600003 .27300004 .321 C .27300004 .312 .27400003 .305 .28500004 .305 C .293 .305 .29500003 .31100003 .29500003 .31800003 L .29500003 .44300003 C .29500003 .448 .29200004 .455 .286 .455 C .27300004 .455 .25700004 .43100003 .25100003 .42400003 Z "/>
</symbol>
<symbol id="font_1_23">
<path d="M 0 .683 L 0 .65400007 L .018000003 .65400007 C .050000006 .65400007 .076000008 .65000006 .076000008 .60300007 L .076000008 .07 C .076000008 .033000005 .050000006 .029000001 .022000004 .029000001 L 0 .029000001 L 0 0 L .215 0 L .215 .029000001 L .19100002 .029000001 C .162 .029000001 .139 .032 .139 .068 L .139 .69400009 L 0 .683 Z "/>
</symbol>
<symbol id="font_1_11">
<path d="M .057000009 .074 C .103 .023000002 .171 0 .24 0 C .34400005 0 .43500004 .083000008 .43500004 .20400001 C .43500004 .286 .38600005 .37500004 .30300004 .40000005 C .192 .43300004 .066 .43200005 .058000003 .558 L .058000003 .566 C .058000003 .64 .122999999 .698 .19500001 .698 C .29000003 .698 .36200003 .631 .38200004 .51500007 C .38400004 .503 .38000003 .47700004 .39700005 .47700004 C .40600003 .47700004 .40800003 .48300005 .40800003 .49000005 L .40800003 .716 C .40700004 .721 .40400005 .72400006 .39900003 .725 C .38400004 .725 .36600004 .675 .35000003 .651 C .32000003 .7 .25000004 .726 .194 .726 C .09200001 .726 0 .646 0 .534 C 0 .45700003 .048000006 .38500003 .120000008 .35700003 C .13700001 .35000003 .154 .34700004 .171 .34200005 L .242 .32500003 C .30900003 .30900003 .37700004 .277 .37700004 .172 C .37700004 .102000009 .323 .035000005 .25200004 .029000003 L .24300002 .029000003 C .143 .029000003 .045000007 .08100001 .025000003 .198 C .024 .208 .023000006 .21700001 .022000004 .22700002 L .022000004 .24000001 C .021000002 .245 .015999999 .24800001 .011000004 .24800001 C .001000002 .24800001 0 .24200002 0 .235 L 0 .015000001 C 0 .010000001 .001000002 0 .009 0 C .024 0 .054 .068 .057000009 .074 Z "/>
</symbol>
<symbol id="font_1_38">
<path d="M 0 .63400009 L 0 .605 L .019 .605 C .07400001 .605 .080000009 .568 .10300001 .51100006 C .14 .41900004 .177 .32500003 .216 .23300001 C .22 .22500001 .22600001 .21200001 .22600001 .20500002 L .22600001 .201 C .222 .17600002 .205 .14400001 .19500001 .124000009 C .176 .079 .147 .019999996 .09 .019999996 C .069000009 .019999996 .058000007 .029 .04 .038000004 L .04 .039000006 C .061000006 .04100001 .07700001 .055000009 .07700001 .07700001 C .07700001 .098000008 .062000008 .115 .04 .115 C .018000002 .115 .0010000002 .1 .0010000002 .07700001 C .0010000002 .026999996 .048 0 .08900001 0 C .18800001 0 .22500001 .13800001 .25100003 .202 L .359 .46600003 C .384 .528 .39900003 .60400006 .48000003 .605 L .48000003 .63400009 L .324 .63400009 L .324 .605 C .347 .60400006 .36900003 .59000006 .37 .56500008 C .37 .545 .359 .527 .352 .508 C .32000003 .435 .293 .361 .262 .28800003 C .222 .375 .191 .46800003 .152 .556 C .15 .563 .145 .57000008 .145 .57800009 C .145 .60400006 .179 .605 .2 .605 L .2 .63400009 L 0 .63400009 Z "/>
</symbol>
<symbol id="font_1_20">
<path d="M 0 .683 L 0 .65400007 L .018 .65400007 C .05 .65400007 .076000008 .65000006 .076000008 .60400006 L .076000008 .07 C .076000008 .033000005 .05 .029000001 .022 .029000001 L 0 .029000001 L 0 0 L .21700001 0 L .21700001 .029000001 L .194 .029000001 C .165 .029000001 .141 .033000005 .141 .07 L .141 .25300003 C .141 .32200004 .176 .42000006 .27400003 .42000006 C .335 .42000006 .34800003 .36100004 .34800003 .30200003 L .34800003 .067 C .34800003 .032 .319 .029000001 .289 .029000001 L .272 .029000001 L .272 0 L .48900003 0 L .48900003 .029000001 L .46600003 .029000001 C .439 .029000001 .41300003 .030000002 .41300003 .068 L .41300003 .29500003 C .41300003 .32700003 .41200004 .35900004 .395 .38700003 C .372 .42700006 .32500003 .44000004 .28100003 .44000004 C .22 .44000004 .158 .40300004 .14 .34400005 L .139 .69400009 L 0 .683 Z "/>
</symbol>
<use xlink:href="#font_1_12" transform="matrix(23.246222,0,0,-23.246222,54.560834,66.07508)"/>
<use xlink:href="#font_1_2d" transform="matrix(23.246222,0,0,-23.246222,68.927,66.07508)"/>
<use xlink:href="#font_1_15" transform="matrix(23.246222,0,0,-23.246222,78.13251,66.33079)"/>
<use xlink:href="#font_1_22" transform="matrix(23.246222,0,0,-23.246222,89.290699,66.07508)"/>
<use xlink:href="#font_1_25" transform="matrix(23.246222,0,0,-23.246222,95.59042,66.07508)"/>
<use xlink:href="#font_1_22" transform="matrix(23.246222,0,0,-23.246222,108.25961,66.07508)"/>
<use xlink:href="#font_1_25" transform="matrix(23.246222,0,0,-23.246222,114.55933,66.07508)"/>
<use xlink:href="#font_1_1f" transform="matrix(23.246222,0,0,-23.246222,127.11229,70.84056)"/>
<use xlink:href="#font_1_4" transform="matrix(23.246222,0,0,-23.246222,146.42992,66.09833)"/>
<use xlink:href="#font_1_15" transform="matrix(23.246222,0,0,-23.246222,163.84133,66.33079)"/>
<use xlink:href="#font_1_32" transform="matrix(23.246222,0,0,-23.246222,174.6508,66.30754)"/>
<use xlink:href="#font_1_15" transform="matrix(23.246222,0,0,-23.246222,184.08878,66.33079)"/>
<use xlink:href="#font_1_18" transform="matrix(23.246222,0,0,-23.246222,196.50226,70.5616)"/>
<use xlink:href="#font_1_b" transform="matrix(23.246222,0,0,-23.246222,209.33417,66.07508)"/>
<use xlink:href="#font_1_1a" transform="matrix(23.246222,0,0,-23.246222,223.28189,66.30754)"/>
<use xlink:href="#font_1_15" transform="matrix(23.246222,0,0,-23.246222,233.71947,66.33079)"/>
<use xlink:href="#font_1_2d" transform="matrix(23.246222,0,0,-23.246222,244.76142,66.07508)"/>
<use xlink:href="#font_1_25" transform="matrix(23.246222,0,0,-23.246222,253.71121,66.07508)"/>
<use xlink:href="#font_1_1a" transform="matrix(23.246222,0,0,-23.246222,266.2874,66.30754)"/>
<use xlink:href="#font_1_2d" transform="matrix(23.246222,0,0,-23.246222,276.3763,66.07508)"/>
<use xlink:href="#font_1_18" transform="matrix(23.246222,0,0,-23.246222,286.60466,70.5616)"/>
<use xlink:href="#font_1_f" transform="matrix(23.246222,0,0,-23.246222,299.43656,66.07508)"/>
<use xlink:href="#font_1_1a" transform="matrix(23.246222,0,0,-23.246222,314.01194,66.30754)"/>
<use xlink:href="#font_1_2d" transform="matrix(23.246222,0,0,-23.246222,324.10084,66.07508)"/>
<use xlink:href="#font_1_1c" transform="matrix(23.246222,0,0,-23.246222,333.02738,66.07508)"/>
<use xlink:href="#font_1_27" transform="matrix(23.246222,0,0,-23.246222,339.9315,66.30754)"/>
<use xlink:href="#font_1_2d" transform="matrix(23.246222,0,0,-23.246222,351.2989,66.07508)"/>
<use xlink:href="#font_1_24" transform="matrix(23.246222,0,0,-23.246222,360.24867,66.07508)"/>
<use xlink:href="#font_1_15" transform="matrix(23.246222,0,0,-23.246222,379.4733,66.33079)"/>
<use xlink:href="#font_1_25" transform="matrix(23.246222,0,0,-23.246222,390.60826,66.07508)"/>
<use xlink:href="#font_1_17" transform="matrix(23.246222,0,0,-23.246222,403.32395,66.30754)"/>
<use xlink:href="#font_1_1a" transform="matrix(23.246222,0,0,-23.246222,413.29658,66.30754)"/>
<use xlink:href="#font_1_c" transform="matrix(23.246222,0,0,-23.246222,431.33567,66.07508)"/>
<use xlink:href="#font_1_1a" transform="matrix(23.246222,0,0,-23.246222,451.83885,66.30754)"/>
<use xlink:href="#font_1_32" transform="matrix(23.246222,0,0,-23.246222,461.69523,66.30754)"/>
<use xlink:href="#font_1_2d" transform="matrix(23.246222,0,0,-23.246222,470.78453,66.07508)"/>
<use xlink:href="#font_1_22" transform="matrix(23.246222,0,0,-23.246222,479.75755,66.07508)"/>
<use xlink:href="#font_1_17" transform="matrix(23.246222,0,0,-23.246222,486.127,66.30754)"/>
<use xlink:href="#font_1_18" transform="matrix(23.246222,0,0,-23.246222,497.44795,70.5616)"/>
<use xlink:href="#font_1_10" transform="matrix(23.246222,0,0,-23.246222,104.25058,93.68435)"/>
<use xlink:href="#font_1_1a" transform="matrix(23.246222,0,0,-23.246222,120.70891,93.428638)"/>
<use xlink:href="#font_1_2e" transform="matrix(23.246222,0,0,-23.246222,130.914,93.428638)"/>
<use xlink:href="#font_1_15" transform="matrix(23.246222,0,0,-23.246222,140.1195,93.45188)"/>
<use xlink:href="#font_1_24" transform="matrix(23.246222,0,0,-23.246222,151.25446,93.196178)"/>
<use xlink:href="#font_1_29" transform="matrix(23.246222,0,0,-23.246222,170.13037,97.70594)"/>
<use xlink:href="#font_1_23" transform="matrix(23.246222,0,0,-23.246222,182.89255,93.196178)"/>
<use xlink:href="#font_1_22" transform="matrix(23.246222,0,0,-23.246222,189.21552,93.196178)"/>
<use xlink:href="#font_1_25" transform="matrix(23.246222,0,0,-23.246222,195.51526,93.196178)"/>
<use xlink:href="#font_1_1f" transform="matrix(23.246222,0,0,-23.246222,208.04499,97.961658)"/>
<use xlink:href="#font_1_11" transform="matrix(23.246222,0,0,-23.246222,227.64153,93.68435)"/>
<use xlink:href="#font_1_32" transform="matrix(23.246222,0,0,-23.246222,239.4506,93.428638)"/>
<use xlink:href="#font_1_2d" transform="matrix(23.246222,0,0,-23.246222,248.53989,93.196178)"/>
<use xlink:href="#font_1_15" transform="matrix(23.246222,0,0,-23.246222,257.7454,93.45188)"/>
<use xlink:href="#font_1_32" transform="matrix(23.246222,0,0,-23.246222,268.5549,93.428638)"/>
<use xlink:href="#font_1_1a" transform="matrix(23.246222,0,0,-23.246222,277.66743,93.428638)"/>
<use xlink:href="#font_1_1f" transform="matrix(23.246222,0,0,-23.246222,287.73307,97.961658)"/>
<use xlink:href="#font_1_38" transform="matrix(23.246222,0,0,-23.246222,298.9145,97.93841)"/>
<use xlink:href="#font_1_18" transform="matrix(23.246222,0,0,-23.246222,310.65385,97.68269)"/>
<use xlink:href="#font_1_11" transform="matrix(23.246222,0,0,-23.246222,323.78797,93.68435)"/>
<use xlink:href="#font_1_1a" transform="matrix(23.246222,0,0,-23.246222,335.85273,93.428638)"/>
<use xlink:href="#font_1_15" transform="matrix(23.246222,0,0,-23.246222,346.29029,93.45188)"/>
<use xlink:href="#font_1_2d" transform="matrix(23.246222,0,0,-23.246222,357.33229,93.196178)"/>
<use xlink:href="#font_1_17" transform="matrix(23.246222,0,0,-23.246222,366.3518,93.428638)"/>
<use xlink:href="#font_1_20" transform="matrix(23.246222,0,0,-23.246222,375.7665,93.196178)"/>
<use xlink:href="#font_1_11" transform="matrix(23.246222,0,0,-23.246222,396.5022,93.68435)"/>
<use xlink:href="#font_1_29" transform="matrix(23.246222,0,0,-23.246222,408.54374,97.70594)"/>
<use xlink:href="#font_1_15" transform="matrix(23.246222,0,0,-23.246222,421.53834,93.45188)"/>
<use xlink:href="#font_1_17" transform="matrix(23.246222,0,0,-23.246222,432.74305,93.428638)"/>
<use xlink:href="#font_1_1a" transform="matrix(23.246222,0,0,-23.246222,442.71568,93.428638)"/>
<path transform="matrix(2.7777777,0,0,-2.7777777,277.66389,404.61946)" d="M -80.95908 69.45134 L -86.3032 69.45134 C -87.95392 69.45134 -89.29204 68.11322 -89.29204 66.46251 L -89.29204 -106.14589 C -89.29204 -107.7966 -87.95392 -109.13472 -86.3032 -109.13472 L 86.3032 -109.13472 C 87.95392 -109.13472 89.29204 -107.7966 89.29204 -106.14589 L 89.29204 66.46054 C 89.29204 68.11124 87.95393 69.4494 86.30325 69.44942 L -50.0051 69.45064 " fill="#f5f6f9"/>
<path transform="matrix(2.7777777,0,0,-2.7777777,277.66389,404.61946)" stroke-width="1.49442" stroke-linecap="butt" stroke-miterlimit="10" stroke-linejoin="miter" fill="none" stroke="#3b528b" d="M -80.95908 69.45134 L -86.3032 69.45134 C -87.95392 69.45134 -89.29204 68.11322 -89.29204 66.46251 L -89.29204 -106.14589 C -89.29204 -107.7966 -87.95392 -109.13472 -86.3032 -109.13472 L 86.3032 -109.13472 C 87.95392 -109.13472 89.29204 -107.7966 89.29204 -106.14589 L 89.29204 66.46054 C 89.29204 68.11124 87.95393 69.4494 86.30325 69.44942 L -50.0051 69.45064 "/>
<path transform="matrix(1.9444443,0,0,-1.9444443,271.58778,460.73307)" stroke-width=".59776" stroke-linecap="butt" stroke-miterlimit="10" stroke-linejoin="miter" fill="none" stroke="#929292" d="M 67.46466 0 C 67.46466 37.26016 37.26016 67.46466 0 67.46466 C -37.26016 67.46466 -67.46466 37.26016 -67.46466 0 C -67.46466 -37.26016 -37.26016 -67.46466 0 -67.46466 C 37.26016 -67.46466 67.46466 -37.26016 67.46466 0 Z M 0 0 "/>
<path transform="matrix(1.9444443,0,0,-1.9444443,271.58778,460.73307)" stroke-width="34.0161" stroke-linecap="butt" stroke-miterlimit="10" stroke-linejoin="miter" fill="none" stroke="#79bcba" d="M -32.96379 90.56627 C -.6114 102.3417 35.57755 95.95958 61.95107 73.82921 C 86.03433 53.62062 98.75063 22.9187 98.6619 21.90404 "/>
<path transform="matrix(-.16947778,1.936997,1.936997,.16947778,463.57447,416.49455)" d="M 29.57024 0 L 1.7009 22.35344 L 1.7009 0 L 1.7009 -22.35344 Z " fill="#79bcba"/>
<path transform="matrix(-.16947778,1.936997,1.936997,.16947778,463.57447,416.49455)" stroke-width="3.4018" stroke-linecap="butt" stroke-linejoin="round" fill="none" stroke="#79bcba" d="M 29.57024 0 L 1.7009 22.35344 L 1.7009 0 L 1.7009 -22.35344 Z "/>
<path transform="matrix(1.9444443,0,0,-1.9444443,271.58778,460.73307)" stroke-width="34.0161" stroke-linecap="butt" stroke-miterlimit="10" stroke-linejoin="miter" fill="none" stroke="#ccea84" d="M -61.94966 -73.83022 C -88.32355 -51.70032 -100.891 -17.16917 -94.91258 16.73582 C -89.45331 47.69652 -69.2232 74.05995 -68.30077 74.49037 "/>
<path transform="matrix(1.76225,-.8217222,-.8217222,-1.76225,137.28202,316.5895)" d="M 29.57024 0 L 1.7009 22.35344 L 1.7009 0 L 1.7009 -22.35344 Z " fill="#ccea84"/>
<path transform="matrix(1.76225,-.8217222,-.8217222,-1.76225,137.28202,316.5895)" stroke-width="3.4018" stroke-linecap="butt" stroke-linejoin="round" fill="none" stroke="#ccea84" d="M 29.57024 0 L 1.7009 22.35344 L 1.7009 0 L 1.7009 -22.35344 Z "/>
<path transform="matrix(1.9444443,0,0,-1.9444443,271.58778,460.73307)" stroke-width="34.0161" stroke-linecap="butt" stroke-miterlimit="10" stroke-linejoin="miter" fill="none" stroke="#8e6698" d="M 94.91345 -16.73605 C 88.93494 -50.64136 65.31345 -78.79039 32.96152 -90.56502 C 3.41899 -101.31715 -29.5274 -96.97867 -30.36113 -96.39441 "/>
<path transform="matrix(-1.5927721,-1.1152555,-1.1152555,1.5927721,213.90682,649.1151)" d="M 29.57024 0 L 1.7009 22.35344 L 1.7009 0 L 1.7009 -22.35344 Z " fill="#8e6698"/>
<path transform="matrix(-1.5927721,-1.1152555,-1.1152555,1.5927721,213.90682,649.1151)" stroke-width="3.4018" stroke-linecap="butt" stroke-linejoin="round" fill="none" stroke="#8e6698" d="M 29.57024 0 L 1.7009 22.35344 L 1.7009 0 L 1.7009 -22.35344 Z "/>
<path transform="matrix(1.9444443,0,0,-1.9444443,271.58778,460.73307)" d="M -19.27562 42.53635 L -19.27562 49.98666 C -19.27562 52.1876 -17.49146 53.97177 -15.29051 53.97177 L 15.29051 53.97177 C 17.49146 53.97177 19.27562 52.1876 19.27562 49.98666 L 19.27562 42.53635 C 19.27562 40.3354 17.49146 38.55124 15.29051 38.55124 L -15.29051 38.55124 C -17.49146 38.55124 -19.27562 40.3354 -19.27562 42.53635 Z M 19.27562 53.97177 " fill="#79bcba"/>
<path transform="matrix(1.9444443,0,0,-1.9444443,271.58778,460.73307)" stroke-width=".79701" stroke-linecap="butt" stroke-miterlimit="10" stroke-linejoin="miter" fill="none" stroke="#000000" d="M -19.27562 42.53635 L -19.27562 49.98666 C -19.27562 52.1876 -17.49146 53.97177 -15.29051 53.97177 L 15.29051 53.97177 C 17.49146 53.97177 19.27562 52.1876 19.27562 49.98666 L 19.27562 42.53635 C 19.27562 40.3354 17.49146 38.55124 15.29051 38.55124 L -15.29051 38.55124 C -17.49146 38.55124 -19.27562 40.3354 -19.27562 42.53635 Z M 19.27562 53.97177 "/>
<symbol id="font_2_8">
<path d="M 0 .683 L 0 .65500006 L .025000003 .65500006 C .058000003 .65500006 .089 .651 .089 .614 C .089 .60700008 .088 .6 .088 .59400007 L .088 .09 C .088 .084 .089 .076000008 .089 .069 C .089 .032 .058000003 .028 .026999999 .028 L 0 .028 L 0 0 L .48200006 0 L .507 .25500003 L .48700006 .25500003 C .47900004 .17 .47200007 .064 .35200004 .034 C .32500003 .028 .29700003 .028 .26900003 .028 L .19600001 .028 C .176 .028 .16000001 .033000005 .16000001 .060000007 C .16000001 .066 .161 .073 .161 .078 L .161 .595 C .161 .6010001 .16000001 .60700008 .16000001 .61300006 C .16000001 .65000006 .19500001 .656 .23 .656 C .244 .656 .25800003 .65500006 .27 .65500006 L .27 .683 L 0 .683 Z "/>
</symbol>
<symbol id="font_2_17">
<path d="M .07 .24300002 L .35100005 .24300002 C .36100004 .24300002 .36500005 .246 .36500005 .256 C .36500005 .35 .31800003 .453 .19800002 .453 C .078 .453 0 .34 0 .22900002 C 0 .12200001 .07 .007 .19700001 0 L .20300001 0 C .27300004 0 .34200005 .046000005 .36200003 .116000007 C .36300005 .11900001 .36500005 .123 .36500005 .127 C .36500005 .131 .36000005 .136 .35600005 .136 C .34200005 .136 .33700005 .104 .32800005 .089 C .30500005 .049000004 .26000003 .02 .21300002 .02 L .207 .02 C .179 .022 .154 .033 .132 .051000004 C .075 .098000008 .07 .17500001 .07 .24300002 M .071 .26 C .071 .336 .11 .43400003 .194 .43400003 C .28100003 .43400003 .30600003 .334 .30600003 .26 L .071 .26 Z "/>
</symbol>
<symbol id="font_2_13">
<path d="M .055000005 .366 C .073 .407 .120000008 .435 .165 .435 C .23900002 .435 .27100004 .364 .27100004 .299 L .27100004 .265 C .16700001 .265 .035 .24000001 .0029999987 .12900001 C .0009999983 .120000008 0 .11100001 0 .101 L 0 .094000007 C .0059999974 .026 .08700001 0 .142 0 C .19700001 0 .254 .027000003 .27600003 .087000008 L .277 .087000008 C .277 .045 .307 .004 .351 .004 C .39100004 .004 .42200003 .039 .42600004 .08100001 L .42600004 .15400002 L .40600003 .15400002 L .40600003 .10300001 C .40600003 .074 .40000005 .030000002 .367 .030000002 C .33400003 .030000002 .32700003 .07300001 .32700003 .10000001 C .32700003 .11100001 .328 .12100001 .328 .131 L .328 .301 C .328 .398 .252 .453 .17000002 .453 C .11400001 .453 .058000003 .425 .033999999 .36900003 C .029999998 .358 .025999997 .344 .025999997 .331 C .025999997 .306 .044999999 .288 .067 .288 C .088 .288 .106000009 .306 .106000009 .327 C .106000009 .349 .09 .367 .065 .367 C .061 .367 .058000003 .367 .055000005 .366 M .27100004 .24800001 L .27100004 .149 C .27100004 .08400001 .22800002 .02 .158 .018000002 L .15400002 .018000002 C .110000018 .018000002 .066 .052000006 .066 .102000009 C .066 .20600002 .18300002 .24800001 .27100004 .24800001 Z "/>
</symbol>
<symbol id="font_2_27">
<path d="M 0 .42800004 L 0 .40000005 L .015000001 .40000005 C .043000007 .40000005 .07 .39700005 .07 .35000003 L .07 .062000004 C .07 .030000002 .043000007 .028 .013999999 .028 L 0 .028 L 0 0 L .21200001 0 L .21200001 .028 C .20200002 .028 .19100002 .027 .181 .027 C .15200001 .027 .125 .032 .125 .069 L .125 .15 C .125 .171 .124000009 .192 .124000009 .21300002 C .124000009 .293 .143 .42000006 .24000001 .42000006 C .24599999 .42000006 .253 .42000006 .259 .41900004 L .259 .41800005 C .245 .41300006 .23500002 .39900003 .23500002 .38400004 C .23500002 .36500005 .25 .34600003 .273 .34600003 C .29500003 .34600003 .30900003 .36600004 .30900003 .38300003 C .30900003 .41900004 .27400003 .43900005 .241 .43900005 C .178 .43900005 .13500002 .38200004 .122 .32700003 L .121 .43900005 L 0 .42800004 Z "/>
</symbol>
<symbol id="font_2_1f">
<path d="M 0 .42800004 L 0 .40000005 L .015000001 .40000005 C .042999999 .40000005 .07 .39700005 .07 .35000003 L .07 .062000004 C .07 .031000002 .044 .028 .019000002 .028 L 0 .028 L 0 0 L .19700001 0 L .19700001 .028 L .18 .028 C .15200001 .028 .127 .031000002 .127 .063 L .127 .256 C .127 .32400004 .16000001 .42100004 .25599999 .42100004 C .314 .42100004 .333 .37000004 .333 .30300004 L .333 .065 C .333 .031000002 .30700005 .028 .27899999 .028 L .263 .028 L .263 0 L .46000005 0 L .46000005 .028 L .43700005 .028 C .41500003 .028 .394 .031000002 .39000006 .055000005 L .39000006 .29100005 C .39000006 .32500003 .389 .36000005 .371 .38900004 C .348 .42800004 .302 .43900005 .259 .43900005 C .19800002 .43900005 .13700001 .39200003 .124 .33500005 L .12300001 .43900005 L .07 .43400005 L 0 .42800004 Z "/>
</symbol>
<use xlink:href="#font_2_8" transform="matrix(16.123255,0,0,-16.123255,246.66139,376.3163)" fill="#ffffff"/>
<use xlink:href="#font_2_17" transform="matrix(16.123255,0,0,-16.123255,255.99675,376.46144)" fill="#ffffff"/>
<use xlink:href="#font_2_13" transform="matrix(16.123255,0,0,-16.123255,263.0265,376.46144)" fill="#ffffff"/>
<use xlink:href="#font_2_27" transform="matrix(16.123255,0,0,-16.123255,270.53996,376.3163)" fill="#ffffff"/>
<use xlink:href="#font_2_1f" transform="matrix(16.123255,0,0,-16.123255,276.57,376.3163)" fill="#ffffff"/>
<use xlink:href="#font_2_17" transform="matrix(16.123255,0,0,-16.123255,284.98637,376.46144)" fill="#ffffff"/>
<use xlink:href="#font_2_27" transform="matrix(16.123255,0,0,-16.123255,291.85487,376.3163)" fill="#ffffff"/>
<path transform="matrix(1.9444443,0,0,-1.9444443,271.58778,460.73307)" d="M -43.37013 19.27562 L -43.37013 23.13068 L -14.4567 23.13068 L -14.4567 19.27562 Z M -14.4567 23.13068 " fill="#cbebe1"/>
<path transform="matrix(1.9444443,0,0,-1.9444443,271.58778,460.73307)" stroke-width=".3985" stroke-linecap="butt" stroke-miterlimit="10" stroke-linejoin="miter" fill="none" stroke="#000000" d="M -43.37013 19.27562 L -43.37013 23.13068 L -14.4567 23.13068 L -14.4567 19.27562 Z M -14.4567 23.13068 "/>
<path transform="matrix(1.9444443,0,0,-1.9444443,271.58778,460.73307)" d="M -14.4567 19.27562 L -14.4567 23.13068 L 14.4567 23.13068 L 14.4567 19.27562 Z M 14.4567 23.13068 " fill="#cbebe1"/>
<path transform="matrix(1.9444443,0,0,-1.9444443,271.58778,460.73307)" stroke-width=".3985" stroke-linecap="butt" stroke-miterlimit="10" stroke-linejoin="miter" fill="none" stroke="#000000" d="M -14.4567 19.27562 L -14.4567 23.13068 L 14.4567 23.13068 L 14.4567 19.27562 Z M 14.4567 23.13068 "/>
<path transform="matrix(1.9444443,0,0,-1.9444443,271.58778,460.73307)" d="M 14.4567 19.27562 L 14.4567 23.13068 L 43.37013 23.13068 L 43.37013 19.27562 Z M 43.37013 23.13068 " fill="#3b528b"/>
<path transform="matrix(1.9444443,0,0,-1.9444443,271.58778,460.73307)" stroke-width=".3985" stroke-linecap="butt" stroke-miterlimit="10" stroke-linejoin="miter" fill="none" stroke="#000000" d="M 14.4567 19.27562 L 14.4567 23.13068 L 43.37013 23.13068 L 43.37013 19.27562 Z M 43.37013 23.13068 "/>
<path transform="matrix(1.9444443,0,0,-1.9444443,271.58778,460.73307)" d="M -43.37013 15.42024 L -43.37013 19.27531 L -14.4567 19.27531 L -14.4567 15.42024 Z M -14.4567 19.27531 " fill="#cbebe1"/>
<path transform="matrix(1.9444443,0,0,-1.9444443,271.58778,460.73307)" stroke-width=".3985" stroke-linecap="butt" stroke-miterlimit="10" stroke-linejoin="miter" fill="none" stroke="#000000" d="M -43.37013 15.42024 L -43.37013 19.27531 L -14.4567 19.27531 L -14.4567 15.42024 Z M -14.4567 19.27531 "/>
<path transform="matrix(1.9444443,0,0,-1.9444443,271.58778,460.73307)" d="M -14.4567 15.42024 L -14.4567 19.27531 L 14.4567 19.27531 L 14.4567 15.42024 Z M 14.4567 19.27531 " fill="#3b528b"/>
<path transform="matrix(1.9444443,0,0,-1.9444443,271.58778,460.73307)" stroke-width=".3985" stroke-linecap="butt" stroke-miterlimit="10" stroke-linejoin="miter" fill="none" stroke="#000000" d="M -14.4567 15.42024 L -14.4567 19.27531 L 14.4567 19.27531 L 14.4567 15.42024 Z M 14.4567 19.27531 "/>
<path transform="matrix(1.9444443,0,0,-1.9444443,271.58778,460.73307)" d="M 14.4567 15.42024 L 14.4567 19.27531 L 43.37013 19.27531 L 43.37013 15.42024 Z M 43.37013 19.27531 " fill="#cbebe1"/>
<path transform="matrix(1.9444443,0,0,-1.9444443,271.58778,460.73307)" stroke-width=".3985" stroke-linecap="butt" stroke-miterlimit="10" stroke-linejoin="miter" fill="none" stroke="#000000" d="M 14.4567 15.42024 L 14.4567 19.27531 L 43.37013 19.27531 L 43.37013 15.42024 Z M 43.37013 19.27531 "/>
<path transform="matrix(1.9444443,0,0,-1.9444443,271.58778,460.73307)" d="M -43.37013 11.56519 L -43.37013 15.42024 L -14.4567 15.42024 L -14.4567 11.56519 Z M -14.4567 15.42024 " fill="#3b528b"/>
<path transform="matrix(1.9444443,0,0,-1.9444443,271.58778,460.73307)" stroke-width=".3985" stroke-linecap="butt" stroke-miterlimit="10" stroke-linejoin="miter" fill="none" stroke="#000000" d="M -43.37013 11.56519 L -43.37013 15.42024 L -14.4567 15.42024 L -14.4567 11.56519 Z M -14.4567 15.42024 "/>
<path transform="matrix(1.9444443,0,0,-1.9444443,271.58778,460.73307)" d="M -14.4567 11.56519 L -14.4567 15.42024 L 14.4567 15.42024 L 14.4567 11.56519 Z M 14.4567 15.42024 " fill="#cbebe1"/>
<path transform="matrix(1.9444443,0,0,-1.9444443,271.58778,460.73307)" stroke-width=".3985" stroke-linecap="butt" stroke-miterlimit="10" stroke-linejoin="miter" fill="none" stroke="#000000" d="M -14.4567 11.56519 L -14.4567 15.42024 L 14.4567 15.42024 L 14.4567 11.56519 Z M 14.4567 15.42024 "/>
<path transform="matrix(1.9444443,0,0,-1.9444443,271.58778,460.73307)" d="M 14.4567 11.56519 L 14.4567 15.42024 L 43.37013 15.42024 L 43.37013 11.56519 Z M 43.37013 15.42024 " fill="#cbebe1"/>
<path transform="matrix(1.9444443,0,0,-1.9444443,271.58778,460.73307)" stroke-width=".3985" stroke-linecap="butt" stroke-miterlimit="10" stroke-linejoin="miter" fill="none" stroke="#000000" d="M 14.4567 11.56519 L 14.4567 15.42024 L 43.37013 15.42024 L 43.37013 11.56519 Z M 43.37013 15.42024 "/>
<path transform="matrix(1.9444443,0,0,-1.9444443,271.58778,460.73307)" d="M -43.37013 -23.13068 L -43.37013 -19.27562 L -14.4567 -19.27562 L -14.4567 -23.13068 Z M -14.4567 -19.27562 " fill="#cbebe1"/>
<path transform="matrix(1.9444443,0,0,-1.9444443,271.58778,460.73307)" stroke-width=".3985" stroke-linecap="butt" stroke-miterlimit="10" stroke-linejoin="miter" fill="none" stroke="#000000" d="M -43.37013 -23.13068 L -43.37013 -19.27562 L -14.4567 -19.27562 L -14.4567 -23.13068 Z M -14.4567 -19.27562 "/>
<path transform="matrix(1.9444443,0,0,-1.9444443,271.58778,460.73307)" d="M -14.4567 -23.13068 L -14.4567 -19.27562 L 14.4567 -19.27562 L 14.4567 -23.13068 Z M 14.4567 -19.27562 " fill="#cbebe1"/>
<path transform="matrix(1.9444443,0,0,-1.9444443,271.58778,460.73307)" stroke-width=".3985" stroke-linecap="butt" stroke-miterlimit="10" stroke-linejoin="miter" fill="none" stroke="#000000" d="M -14.4567 -23.13068 L -14.4567 -19.27562 L 14.4567 -19.27562 L 14.4567 -23.13068 Z M 14.4567 -19.27562 "/>
<path transform="matrix(1.9444443,0,0,-1.9444443,271.58778,460.73307)" d="M 14.4567 -23.13068 L 14.4567 -19.27562 L 43.37013 -19.27562 L 43.37013 -23.13068 Z M 43.37013 -19.27562 " fill="#3b528b"/>
<path transform="matrix(1.9444443,0,0,-1.9444443,271.58778,460.73307)" stroke-width=".3985" stroke-linecap="butt" stroke-miterlimit="10" stroke-linejoin="miter" fill="none" stroke="#000000" d="M 14.4567 -23.13068 L 14.4567 -19.27562 L 43.37013 -19.27562 L 43.37013 -23.13068 Z M 43.37013 -19.27562 "/>
<path transform="matrix(1.9444443,0,0,-1.9444443,271.58778,460.73307)" d="M -43.37013 -26.98602 L -43.37013 -23.13095 L -14.4567 -23.13095 L -14.4567 -26.98602 Z M -14.4567 -23.13095 " fill="#cbebe1"/>
<path transform="matrix(1.9444443,0,0,-1.9444443,271.58778,460.73307)" stroke-width=".3985" stroke-linecap="butt" stroke-miterlimit="10" stroke-linejoin="miter" fill="none" stroke="#000000" d="M -43.37013 -26.98602 L -43.37013 -23.13095 L -14.4567 -23.13095 L -14.4567 -26.98602 Z M -14.4567 -23.13095 "/>
<path transform="matrix(1.9444443,0,0,-1.9444443,271.58778,460.73307)" d="M -14.4567 -26.98602 L -14.4567 -23.13095 L 14.4567 -23.13095 L 14.4567 -26.98602 Z M 14.4567 -23.13095 " fill="#3b528b"/>
<path transform="matrix(1.9444443,0,0,-1.9444443,271.58778,460.73307)" stroke-width=".3985" stroke-linecap="butt" stroke-miterlimit="10" stroke-linejoin="miter" fill="none" stroke="#000000" d="M -14.4567 -26.98602 L -14.4567 -23.13095 L 14.4567 -23.13095 L 14.4567 -26.98602 Z M 14.4567 -23.13095 "/>
<path transform="matrix(1.9444443,0,0,-1.9444443,271.58778,460.73307)" d="M 14.4567 -26.98602 L 14.4567 -23.13095 L 43.37013 -23.13095 L 43.37013 -26.98602 Z M 43.37013 -23.13095 " fill="#cbebe1"/>
<path transform="matrix(1.9444443,0,0,-1.9444443,271.58778,460.73307)" stroke-width=".3985" stroke-linecap="butt" stroke-miterlimit="10" stroke-linejoin="miter" fill="none" stroke="#000000" d="M 14.4567 -26.98602 L 14.4567 -23.13095 L 43.37013 -23.13095 L 43.37013 -26.98602 Z M 43.37013 -23.13095 "/>
<path transform="matrix(1.9444443,0,0,-1.9444443,271.58778,460.73307)" d="M -43.37013 -30.8411 L -43.37013 -26.98602 L -14.4567 -26.98602 L -14.4567 -30.8411 Z M -14.4567 -26.98602 " fill="#3b528b"/>
<path transform="matrix(1.9444443,0,0,-1.9444443,271.58778,460.73307)" stroke-width=".3985" stroke-linecap="butt" stroke-miterlimit="10" stroke-linejoin="miter" fill="none" stroke="#000000" d="M -43.37013 -30.8411 L -43.37013 -26.98602 L -14.4567 -26.98602 L -14.4567 -30.8411 Z M -14.4567 -26.98602 "/>
<path transform="matrix(1.9444443,0,0,-1.9444443,271.58778,460.73307)" d="M -14.4567 -30.8411 L -14.4567 -26.98602 L 14.4567 -26.98602 L 14.4567 -30.8411 Z M 14.4567 -26.98602 " fill="#cbebe1"/>
<path transform="matrix(1.9444443,0,0,-1.9444443,271.58778,460.73307)" stroke-width=".3985" stroke-linecap="butt" stroke-miterlimit="10" stroke-linejoin="miter" fill="none" stroke="#000000" d="M -14.4567 -30.8411 L -14.4567 -26.98602 L 14.4567 -26.98602 L 14.4567 -30.8411 Z M 14.4567 -26.98602 "/>
<path transform="matrix(1.9444443,0,0,-1.9444443,271.58778,460.73307)" d="M 14.4567 -30.8411 L 14.4567 -26.98602 L 43.37013 -26.98602 L 43.37013 -30.8411 Z M 43.37013 -26.98602 " fill="#cbebe1"/>
<path transform="matrix(1.9444443,0,0,-1.9444443,271.58778,460.73307)" stroke-width=".3985" stroke-linecap="butt" stroke-miterlimit="10" stroke-linejoin="miter" fill="none" stroke="#000000" d="M 14.4567 -30.8411 L 14.4567 -26.98602 L 43.37013 -26.98602 L 43.37013 -30.8411 Z M 43.37013 -26.98602 "/>
<symbol id="font_1_3">
<path d="M .526 .634 C .47700004 .688 .41800005 .725 .34200005 .725 C .147 .725 0 .552 0 .36200003 C 0 .17300001 .14500001 0 .34100003 0 L .35600005 0 C .47900007 .008000001 .58500006 .10400001 .597 .24000001 C .598 .245 .598 .24900002 .598 .254 C .598 .26200003 .597 .27100004 .587 .27100004 C .571 .27100004 .57600006 .23900001 .572 .222 C .556 .11900001 .46700005 .029000003 .35500003 .029000003 C .28100003 .029000003 .20800002 .06600001 .161 .124000009 C .106000009 .191 .092999998 .28500004 .092999998 .36800004 C .092999998 .43100003 .102 .5 .133 .557 C .176 .638 .25900004 .69600006 .35400004 .69600006 C .48100005 .69600006 .549 .574 .568 .47000004 C .569 .46000005 .56700006 .44100005 .584 .44100005 C .595 .44100005 .598 .44600005 .598 .45400004 L .598 .713 C .598 .71900007 .595 .725 .588 .725 C .58 .725 .575 .714 .571 .708 L .543 .663 C .537 .653 .531 .644 .526 .634 Z "/>
</symbol>
<symbol id="font_1_13">
<path d="M 0 .704 L 0 .675 L .021 .675 C .043000007 .675 .065000008 .67300006 .079 .66 C .091000009 .647 .09600001 .626 .10300001 .609 L .139 .513 C .199 .35500003 .25800003 .197 .319 .040000004 L .32700003 .018000002 C .331 .007000001 .336 0 .349 0 C .36900003 0 .372 .024000003 .37800003 .039000006 C .44700004 .224 .522 .40800003 .588 .593 C .60400006 .633 .62200006 .675 .697 .675 L .697 .704 L .504 .704 L .504 .675 C .52500006 .675 .544 .668 .559 .653 L .565 .644 C .568 .639 .569 .633 .569 .628 C .569 .615 .56200006 .602 .558 .589 L .53900006 .54 C .491 .41300003 .444 .28500004 .39400003 .15900001 C .388 .143 .38300003 .127 .37600003 .11200001 C .31 .27400003 .24900002 .44100005 .18800001 .606 L .178 .632 C .176 .63600006 .175 .64100006 .175 .646 L .175 .649 C .18 .675 .223 .675 .24900002 .675 L .24900002 .704 L 0 .704 Z "/>
</symbol>
<use xlink:href="#font_1_22" transform="matrix(13.436084,0,0,-13.436084,245.5459,409.1258)"/>
<use xlink:href="#font_1_25" transform="matrix(13.436084,0,0,-13.436084,249.18708,409.1258)"/>
<use xlink:href="#font_1_25" transform="matrix(13.436084,0,0,-13.436084,256.4963,409.1258)"/>
<use xlink:href="#font_1_1a" transform="matrix(13.436084,0,0,-13.436084,263.76524,409.26014)"/>
<use xlink:href="#font_1_2d" transform="matrix(13.436084,0,0,-13.436084,269.5965,409.1258)"/>
<use xlink:href="#font_1_3" transform="matrix(13.436084,0,0,-13.436084,279.44514,409.40794)"/>
<use xlink:href="#font_1_13" transform="matrix(13.436084,0,0,-13.436084,288.46076,409.40794)"/>
<symbol id="font_3_1">
<path d="M .029 .071 C .008999996 .067 0 .052000006 0 .036000004 C 0 .019000002 .012000002 0 .033999996 0 C .055000009 0 .07000001 .017 .07000001 .036000004 C .07000001 .053000004 .058 .072000008 .036 .072000008 C .033999996 .072000008 .031000004 .071 .029 .071 Z "/>
</symbol>
<use xlink:href="#font_3_1" transform="matrix(27.857464,0,0,-27.857464,270.59364,464.33238)"/>
<use xlink:href="#font_3_1" transform="matrix(27.857464,0,0,-27.857464,270.59364,468.81098)"/>
<use xlink:href="#font_3_1" transform="matrix(27.857464,0,0,-27.857464,270.59364,473.2896)"/>
<path transform="matrix(2.7777777,0,0,-2.7777777,277.66389,404.61946)" d="M 7.59229 -136.91736 L 60.50766 -136.91736 C 62.15837 -136.91736 63.49649 -138.25548 63.49649 -139.90619 L 63.49649 -173.61089 C 63.49649 -175.2616 62.15837 -176.59972 60.50766 -176.59972 L -60.50766 -176.59972 C -62.15837 -176.59972 -63.49649 -175.2616 -63.49649 -173.61089 L -63.49649 -139.90319 C -63.49649 -138.25247 -62.15839 -136.91474 -60.5077 -136.9152 L -55.21545 -136.91687 " fill="#f5f6f9"/>
<path transform="matrix(2.7777777,0,0,-2.7777777,277.66389,404.61946)" stroke-width="1.49442" stroke-linecap="butt" stroke-miterlimit="10" stroke-linejoin="miter" fill="none" stroke="#3b528b" d="M 7.59229 -136.91736 L 60.50766 -136.91736 C 62.15837 -136.91736 63.49649 -138.25548 63.49649 -139.90619 L 63.49649 -173.61089 C 63.49649 -175.2616 62.15837 -176.59972 60.50766 -176.59972 L -60.50766 -176.59972 C -62.15837 -176.59972 -63.49649 -175.2616 -63.49649 -173.61089 L -63.49649 -139.90319 C -63.49649 -138.25247 -62.15839 -136.91474 -60.5077 -136.9152 L -55.21545 -136.91687 "/>
<symbol id="font_1_6">
<path d="M 0 .68100008 L 0 .65200009 L .031000004 .65200009 C .065000008 .65200009 .09600001 .64800009 .09600001 .61200007 C .09600001 .60600009 .095000009 .59900006 .095000009 .59300008 L .095000009 .073 C .095000009 .033000005 .064 .029000001 .031000004 .029000001 L 0 .029000001 L 0 0 L .29500003 0 L .29500003 .029000001 C .282 .029000001 .26700003 .028 .25100003 .028 C .20300001 .028 .176 .033000005 .176 .076000008 L .176 .32600004 L .26000003 .32600004 C .313 .32600004 .36900003 .32200004 .36900003 .22700002 L .36900003 .209 L .391 .209 L .391 .47200004 L .36900003 .47200004 L .36900003 .45400004 C .36900003 .37900005 .342 .35500003 .245 .35500003 L .176 .35500003 L .176 .61600008 C .176 .64400008 .18800003 .65200009 .215 .65200009 L .331 .65200009 C .38700003 .65200009 .455 .651 .49300004 .60300007 C .524 .563 .528 .507 .53400006 .45800004 L .556 .45800004 L .53000006 .68100008 L 0 .68100008 Z "/>
</symbol>
<symbol id="font_1_37">
<path d="M 0 .44000004 L 0 .411 L .014 .411 C .067 .411 .07300001 .37700004 .094000007 .31100003 C .126 .21500002 .161 .12100001 .19500001 .026 C .199 .016 .201 .0010000002 .215 0 C .229 0 .232 .012 .236 .023000002 L .263 .098000008 C .286 .165 .308 .23600002 .335 .30200003 C .352 .261 .365 .21800001 .38000003 .17600002 L .43400003 .023000002 C .43800003 .012 .441 0 .455 0 C .46800003 .0010000002 .47100003 .015000001 .47500003 .025000003 C .509 .126 .547 .22700002 .58100005 .32700003 C .59800007 .37600003 .62 .409 .67 .411 L .67 .44000004 L .51100006 .44000004 L .51100006 .411 C .537 .41000004 .568 .393 .568 .365 C .568 .34300003 .55200007 .30900003 .542 .28300003 C .519 .21700001 .49200005 .15100001 .472 .08400001 L .47100003 .08400001 C .465 .10800001 .45400004 .13100001 .44700004 .15400002 C .423 .22300002 .39600004 .29200004 .374 .36200003 C .37100003 .36900003 .368 .37700004 .368 .38500003 L .368 .38900004 C .374 .41000004 .40100003 .411 .42000003 .411 L .425 .411 L .425 .44000004 L .23700002 .44000004 L .23700002 .411 L .25100003 .411 C .289 .411 .303 .39900003 .314 .36200003 C .317 .35500003 .322 .34500004 .322 .337 L .322 .335 C .321 .326 .316 .316 .31300003 .30800004 L .29500003 .257 C .276 .20300001 .256 .149 .238 .095000009 C .22600001 .12000001 .21800001 .149 .209 .17600002 L .143 .36200003 C .141 .36900003 .137 .37700004 .137 .38400004 C .137 .409 .17300001 .411 .194 .411 L .194 .44000004 L 0 .44000004 Z "/>
</symbol>
<symbol id="font_1_e">
<path d="M .30900003 .725 C .142 .709 0 .566 0 .36 C 0 .197 .112 0 .32800005 0 C .522 0 .651 .18100001 .651 .36100004 C .651 .54 .524 .726 .32500003 .726 C .31900005 .726 .31400005 .725 .30900003 .725 M .092999998 .34900005 L .092999998 .36600004 C .092999998 .48400004 .119 .61300006 .23600002 .68 C .263 .694 .293 .703 .32400004 .703 C .41300003 .703 .483 .643 .523 .56200006 C .55 .50600007 .559 .44000004 .559 .37900005 C .559 .25 .524 .067 .36700005 .028 C .35400004 .025000003 .34000004 .023000002 .32600004 .023000002 C .187 .023000002 .113000009 .172 .098000008 .29100005 C .096 .31000004 .095 .33 .092999998 .34900005 Z "/>
</symbol>
<symbol id="font_1_8">
<path d="M 0 .683 L 0 .65400007 L .032000007 .65400007 C .065000008 .65400007 .09600001 .65000006 .09600001 .61200007 C .09600001 .605 .095000009 .59900006 .095000009 .59300008 L .095000009 .073 C .095000009 .034 .065000008 .028 .035000005 .028 C .023000002 .028 .011 .029000001 0 .029000001 L 0 0 L .271 0 L .271 .029000001 C .259 .029000001 .24700001 .028 .23500002 .028 C .20300001 .028 .176 .034 .176 .073 L .176 .34100003 L .47500003 .34100003 L .47500003 .073 C .47500003 .031000002 .449 .029000001 .38000003 .029000001 L .38000003 0 L .651 0 L .651 .029000001 L .619 .029000001 C .586 .029000001 .555 .033000005 .555 .071 C .555 .078 .556 .084 .556 .09 L .556 .61 C .556 .64900007 .586 .65500006 .616 .65500006 C .628 .65500006 .64000007 .65400007 .651 .65400007 L .651 .683 L .38000003 .683 L .38000003 .65400007 C .39200003 .65400007 .404 .65500006 .41500003 .65500006 C .448 .65500006 .47500003 .65000006 .47500003 .61100009 L .47500003 .37000004 L .176 .37000004 L .176 .61100009 C .176 .65200009 .20899999 .65400007 .253 .65400007 L .271 .65400007 L .271 .683 L 0 .683 Z "/>
</symbol>
<use xlink:href="#font_1_6" transform="matrix(23.246222,0,0,-23.246222,150.93476,832.21316)"/>
<use xlink:href="#font_1_22" transform="matrix(23.246222,0,0,-23.246222,165.60312,832.21316)"/>
<use xlink:href="#font_1_32" transform="matrix(23.246222,0,0,-23.246222,171.5774,832.4456)"/>
<use xlink:href="#font_1_b" transform="matrix(23.246222,0,0,-23.246222,188.54714,832.21316)"/>
<use xlink:href="#font_1_1a" transform="matrix(23.246222,0,0,-23.246222,202.49486,832.4456)"/>
<use xlink:href="#font_1_15" transform="matrix(23.246222,0,0,-23.246222,212.93244,832.4689)"/>
<use xlink:href="#font_1_2d" transform="matrix(23.246222,0,0,-23.246222,223.97438,832.21316)"/>
<use xlink:href="#font_1_25" transform="matrix(23.246222,0,0,-23.246222,232.92418,832.21316)"/>
<use xlink:href="#font_1_1a" transform="matrix(23.246222,0,0,-23.246222,245.50038,832.4456)"/>
<use xlink:href="#font_1_2d" transform="matrix(23.246222,0,0,-23.246222,255.58927,832.21316)"/>
<use xlink:href="#font_1_37" transform="matrix(23.246222,0,0,-23.246222,271.8151,832.4456)"/>
<use xlink:href="#font_1_22" transform="matrix(23.246222,0,0,-23.246222,288.59889,832.21316)"/>
<use xlink:href="#font_1_32" transform="matrix(23.246222,0,0,-23.246222,294.57316,832.4456)"/>
<use xlink:href="#font_1_20" transform="matrix(23.246222,0,0,-23.246222,303.7554,832.21316)"/>
<use xlink:href="#font_1_e" transform="matrix(23.246222,0,0,-23.246222,324.49107,832.7013)"/>
<use xlink:href="#font_1_29" transform="matrix(23.246222,0,0,-23.246222,341.57704,836.7229)"/>
<use xlink:href="#font_1_32" transform="matrix(23.246222,0,0,-23.246222,353.99049,832.4456)"/>
<use xlink:href="#font_1_22" transform="matrix(23.246222,0,0,-23.246222,363.19599,832.21316)"/>
<use xlink:href="#font_1_24" transform="matrix(23.246222,0,0,-23.246222,369.49574,832.21316)"/>
<use xlink:href="#font_1_15" transform="matrix(23.246222,0,0,-23.246222,388.72035,832.4689)"/>
<use xlink:href="#font_1_23" transform="matrix(23.246222,0,0,-23.246222,399.87855,832.21316)"/>
<use xlink:href="#font_1_8" transform="matrix(23.246222,0,0,-23.246222,146.47809,859.33236)"/>
<use xlink:href="#font_1_38" transform="matrix(23.246222,0,0,-23.246222,163.00614,864.0746)"/>
<use xlink:href="#font_1_29" transform="matrix(23.246222,0,0,-23.246222,175.25691,863.8421)"/>
<use xlink:href="#font_1_1a" transform="matrix(23.246222,0,0,-23.246222,188.55376,859.5648)"/>
<use xlink:href="#font_1_2d" transform="matrix(23.246222,0,0,-23.246222,198.64263,859.33236)"/>
<use xlink:href="#font_1_29" transform="matrix(23.246222,0,0,-23.246222,207.49944,863.8421)"/>
<use xlink:href="#font_1_15" transform="matrix(23.246222,0,0,-23.246222,220.49408,859.5881)"/>
<use xlink:href="#font_1_2d" transform="matrix(23.246222,0,0,-23.246222,231.53603,859.33236)"/>
<use xlink:href="#font_1_15" transform="matrix(23.246222,0,0,-23.246222,240.74153,859.5881)"/>
<use xlink:href="#font_1_24" transform="matrix(23.246222,0,0,-23.246222,251.87648,859.33236)"/>
<use xlink:href="#font_1_1a" transform="matrix(23.246222,0,0,-23.246222,270.77565,859.5648)"/>
<use xlink:href="#font_1_32" transform="matrix(23.246222,0,0,-23.246222,280.63206,859.5648)"/>
<use xlink:href="#font_1_1a" transform="matrix(23.246222,0,0,-23.246222,289.74458,859.5648)"/>
<use xlink:href="#font_1_2d" transform="matrix(23.246222,0,0,-23.246222,299.83348,859.33236)"/>
<use xlink:href="#font_1_2e" transform="matrix(23.246222,0,0,-23.246222,308.80647,859.5648)"/>
<use xlink:href="#font_1_27" transform="matrix(23.246222,0,0,-23.246222,325.2648,859.5648)"/>
<use xlink:href="#font_1_25" transform="matrix(23.246222,0,0,-23.246222,336.72517,859.33236)"/>
<symbol id="font_4_2">
<path d="M .18300002 0 C .416 0 .745 .178 .745 .45100004 C .745 .54 .703 .596 .654 .62700006 C .568 .683 .476 .683 .381 .683 C .29500003 .683 .236 .683 .15200001 .647 C .019000002 .588 0 .505 0 .497 C 0 .49100004 .003999999 .48900003 .01 .48900003 C .026 .48900003 .049 .503 .057 .508 C .07800001 .522 .081 .528 .087 .54700008 C .10100001 .587 .12900001 .62200006 .25500003 .628 C .23900002 .41900004 .18800001 .22800002 .118000019 .053000004 C .081 .040000004 .057 .017 .057 .007 C .057 .001 .058000003 0 .08 0 L .18300002 0 M .18800001 .055000005 C .30200003 .33400003 .323 .508 .337 .628 C .404 .628 .66 .628 .66 .40800003 C .66 .21200001 .484 .055000005 .24200002 .055000005 L .18800001 .055000005 Z "/>
</symbol>
<use xlink:href="#font_4_2" transform="matrix(23.246222,0,0,-23.246222,356.6276,859.3556)"/>
<symbol id="font_5_7">
<path d="M .135 .62500008 C .135 .554 .101 .43500004 0 .43500004 L 0 .40700004 L .089 .40700004 L .089 .149 C .089 .117000009 .091000009 .08500001 .108 .057 C .13200002 .016 .18200001 0 .22800002 0 C .312 0 .333 .08900001 .333 .15500002 L .333 .19100002 L .30200003 .19100002 C .30200003 .17700002 .303 .16300002 .303 .149 C .303 .105000007 .292 .031000004 .23300003 .031000004 C .17900002 .031000004 .16600001 .08900001 .16600001 .13900002 L .16600001 .40700004 L .315 .40700004 L .315 .44000004 L .16600001 .44000004 L .16600001 .62500008 L .135 .62500008 Z "/>
</symbol>
<symbol id="font_5_5">
<path d="M 0 .42900003 L 0 .39600004 L .015999999 .39600004 C .046000005 .39600004 .076000008 .39300005 .076000008 .34600003 L .076000008 .075 C .076000008 .034 .050000006 .033000005 0 .033000005 L 0 0 L .060000004 .003 L .174 .003 L .245 0 L .245 .033000005 C .234 .033000005 .222 .032 .21000001 .032 C .178 .032 .15 .037000006 .15 .073 L .15 .24100001 C .15 .31200005 .18900001 .41200004 .276 .41200004 C .266 .40200005 .26 .38900004 .26 .37600003 C .26 .34800003 .283 .33100004 .306 .33100004 C .331 .33100004 .35 .35100005 .35 .37600003 C .35 .41900004 .308 .44000004 .271 .44000004 C .21400002 .44000004 .155 .38700003 .144 .33500005 L .143 .44000004 L .093 .43600003 L 0 .42900003 Z "/>
</symbol>
<symbol id="font_5_1">
<path d="M .09 .402 L .09 .40300004 C .12200001 .418 .15 .42700003 .187 .42700003 C .25500003 .42700003 .3 .37600003 .3 .29900003 L .3 .27600003 C .17600002 .27600003 0 .23600002 0 .11100001 C 0 .027000003 .10100001 0 .16600001 0 C .222 0 .284 .025000003 .31 .08100001 L .31100003 .08100001 C .31100003 .039 .34600003 .0050000005 .38700003 .0050000005 C .43800003 .0050000005 .48000006 .043 .48000006 .09600001 L .48000006 .15500002 L .44900004 .15500002 L .44900004 .106000009 C .44900004 .080000009 .44400005 .043 .41300003 .043 C .381 .043 .37700004 .080000009 .37700004 .102000009 L .37700004 .27 C .37700004 .282 .37800003 .29500003 .37800003 .307 C .37800003 .40700004 .275 .455 .18800001 .455 C .134 .455 .033000005 .439 .033000005 .35900004 C .033000005 .337 .046 .31000004 .076000008 .31000004 C .10800001 .31000004 .127 .33100004 .127 .35700003 C .127 .37700004 .11500001 .397 .09 .402 M .3 .25 L .3 .15200001 C .3 .08200001 .24700001 .028 .17800002 .028 C .133 .028 .08600001 .059 .082 .106000009 L .082 .11000001 C .082 .21900001 .21700001 .24500002 .3 .25 Z "/>
</symbol>
<symbol id="font_5_3">
<path d="M .0040000008 .42900003 L .0040000008 .39600004 L .020000004 .39600004 C .052 .39600004 .076000008 .39000006 .076000008 .34700004 L .076000008 .075 C .076000008 .034 .050000006 .033000005 0 .033000005 L 0 0 L .061000006 .003 L .162 .003 L .218 0 L .218 .033000005 L .204 .033000005 C .17500001 .033000005 .15 .035000005 .15 .069 L .15 .44000004 L .11300001 .43700005 L .0040000008 .42900003 M .09000001 .67 C .060000004 .66600009 .042000005 .64000007 .042000005 .61500009 C .042000005 .58800008 .064 .56000009 .09600001 .56000009 C .13 .56000009 .153 .587 .153 .61600008 C .153 .64300009 .13100001 .67100009 .099 .67100009 C .09600001 .67100009 .093 .67 .09000001 .67 Z "/>
</symbol>
<symbol id="font_5_4">
<path d="M 0 .42900003 L 0 .39600004 L .019000002 .39600004 C .048000006 .39600004 .076000008 .39200003 .076000008 .34600003 L .076000008 .075 C .076000008 .034 .05 .033000005 0 .033000005 L 0 0 L .061 .003 L .16600001 .003 L .22900002 0 L .22900002 .033000005 L .208 .033000005 C .177 .033000005 .153 .036000004 .153 .074 L .153 .25800003 C .153 .33200003 .202 .41200004 .29800005 .41200004 C .35500003 .41200004 .37000004 .36200003 .37000004 .30200003 L .37000004 .071 C .37000004 .036000004 .34300003 .033000005 .314 .033000005 L .29400004 .033000005 L .29400004 0 L .35700003 .003 L .46200005 .003 L .523 0 L .523 .033000005 L .503 .033000005 C .474 .033000005 .44700004 .036000004 .44700004 .072000008 L .44700004 .28500004 C .44700004 .31800003 .44600005 .35200004 .43000005 .38300003 C .40500004 .42700006 .35300002 .44000004 .30600003 .44000004 C .24500002 .44000004 .169 .40700004 .147 .34400005 L .146 .44000004 L .109 .43700005 L 0 .42900003 Z "/>
</symbol>
<use xlink:href="#font_5_7" transform="matrix(15.497416,0,0,-15.497416,374.38105,862.98336)"/>
<use xlink:href="#font_5_5" transform="matrix(15.497416,0,0,-15.497416,380.99845,862.82839)"/>
<use xlink:href="#font_5_1" transform="matrix(15.497416,0,0,-15.497416,387.56935,862.98336)"/>
<use xlink:href="#font_5_3" transform="matrix(15.497416,0,0,-15.497416,395.75199,862.82839)"/>
<use xlink:href="#font_5_4" transform="matrix(15.497416,0,0,-15.497416,400.30824,862.82839)"/>
<path transform="matrix(2.7777777,0,0,-2.7777777,277.66389,404.61946)" d="M -26.79 -197.18959 L -48.61188 -197.18959 C -50.81282 -197.18959 -52.59698 -198.97376 -52.59698 -201.1747 L -52.59698 -203.6158 C -52.59698 -205.81674 -50.81282 -207.6009 -48.61188 -207.6009 L -26.79 -207.6009 C -24.58905 -207.6009 -22.80489 -205.81674 -22.80489 -203.6158 L -22.80489 -201.1747 C -22.80489 -198.97376 -24.58905 -197.18959 -26.79 -197.18959 Z M -52.59698 -207.6009 " fill="#ffffff"/>
<path transform="matrix(2.7777777,0,0,-2.7777777,277.66389,404.61946)" stroke-width="1.49442" stroke-linecap="butt" stroke-miterlimit="10" stroke-linejoin="miter" fill="none" stroke="#3b528b" d="M -26.79 -197.18959 L -48.61188 -197.18959 C -50.81282 -197.18959 -52.59698 -198.97376 -52.59698 -201.1747 L -52.59698 -203.6158 C -52.59698 -205.81674 -50.81282 -207.6009 -48.61188 -207.6009 L -26.79 -207.6009 C -24.58905 -207.6009 -22.80489 -205.81674 -22.80489 -203.6158 L -22.80489 -201.1747 C -22.80489 -198.97376 -24.58905 -197.18959 -26.79 -197.18959 Z M -52.59698 -207.6009 "/>
<use xlink:href="#font_1_10" transform="matrix(23.246222,0,0,-23.246222,138.97254,975.29257)"/>
<use xlink:href="#font_1_1a" transform="matrix(23.246222,0,0,-23.246222,155.43085,975.03689)"/>
<use xlink:href="#font_1_32" transform="matrix(23.246222,0,0,-23.246222,165.28725,975.03689)"/>
<use xlink:href="#font_1_35" transform="matrix(23.246222,0,0,-23.246222,174.46952,975.0601)"/>
<use xlink:href="#font_1_2d" transform="matrix(23.246222,0,0,-23.246222,187.02248,974.8044)"/>
<use xlink:href="#font_1_25" transform="matrix(23.246222,0,0,-23.246222,195.97228,974.8044)"/>
<path transform="matrix(2.7777777,0,0,-2.7777777,277.66389,404.61946)" stroke-width="1.49442" stroke-linecap="butt" stroke-miterlimit="10" stroke-linejoin="miter" fill="none" stroke="#3b528b" d="M -22.28226 -202.39946 L 60.50766 -202.39946 C 62.15837 -202.39946 63.49649 -203.7376 63.49649 -205.38829 L 63.49649 -239.0918 C 63.49649 -240.74251 62.15837 -242.08063 60.50766 -242.08063 L -60.50766 -242.08063 C -62.15837 -242.08063 -63.49649 -240.74251 -63.49649 -239.0918 L -63.49649 -205.3841 C -63.49649 -203.73339 -62.15839 -202.39575 -60.5077 -202.39635 L -53.121 -202.399 "/>
<symbol id="font_1_19">
<path d="M .26500003 .693 L .26500003 .66400006 L .277 .66400006 C .31700004 .66400006 .34100003 .66200008 .34100003 .60200008 L .34100003 .38700003 C .30900003 .42600004 .26600004 .45000003 .215 .45000003 C .09300001 .45000003 0 .344 0 .224 C 0 .11800001 .076000008 0 .20600002 0 C .26000003 0 .298 .023000002 .33900003 .068 L .33900003 0 L .48000006 .010000001 L .48000006 .039 L .46400003 .039 C .43400003 .039 .404 .042 .404 .08900001 L .404 .70400008 L .26500003 .693 M .07700001 .201 L .07700001 .21600002 C .07700001 .289 .08600001 .365 .15500002 .411 C .17500001 .42300005 .19700001 .42900003 .21900001 .42900003 C .26900003 .42900003 .34000004 .38900004 .34000004 .326 C .34000004 .31300003 .33900003 .3 .33900003 .28700004 L .33900003 .12200001 C .33900003 .065000008 .26000003 .020000002 .21100001 .020000002 C .13700001 .020000002 .09 .09 .081 .16200002 C .07900001 .17500001 .07900001 .18800001 .07700001 .201 Z "/>
</symbol>
<use xlink:href="#font_1_c" transform="matrix(23.246222,0,0,-23.246222,244.55698,1014.1021)"/>
<use xlink:href="#font_1_27" transform="matrix(23.246222,0,0,-23.246222,265.06016,1014.3346)"/>
<use xlink:href="#font_1_19" transform="matrix(23.246222,0,0,-23.246222,277.21797,1014.3346)"/>
<use xlink:href="#font_1_1a" transform="matrix(23.246222,0,0,-23.246222,289.7244,1014.3346)"/>
<use xlink:href="#font_1_23" transform="matrix(23.246222,0,0,-23.246222,299.9295,1014.1021)"/>
<use xlink:href="#font_1_18" transform="matrix(23.246222,0,0,-23.246222,307.50779,1018.5886)"/>
<use xlink:href="#font_1_e" transform="matrix(23.246222,0,0,-23.246222,148.3275,1041.7095)"/>
<use xlink:href="#font_1_29" transform="matrix(23.246222,0,0,-23.246222,165.41349,1045.7311)"/>
<use xlink:href="#font_1_32" transform="matrix(23.246222,0,0,-23.246222,177.82697,1041.4537)"/>
<use xlink:href="#font_1_22" transform="matrix(23.246222,0,0,-23.246222,187.03247,1041.2213)"/>
<use xlink:href="#font_1_24" transform="matrix(23.246222,0,0,-23.246222,193.3322,1041.2213)"/>
<use xlink:href="#font_1_15" transform="matrix(23.246222,0,0,-23.246222,212.55681,1041.4769)"/>
<use xlink:href="#font_1_23" transform="matrix(23.246222,0,0,-23.246222,223.715,1041.2213)"/>
<use xlink:href="#font_1_8" transform="matrix(23.246222,0,0,-23.246222,237.80222,1041.2213)"/>
<use xlink:href="#font_1_38" transform="matrix(23.246222,0,0,-23.246222,254.33026,1045.9635)"/>
<use xlink:href="#font_1_29" transform="matrix(23.246222,0,0,-23.246222,266.58106,1045.7311)"/>
<use xlink:href="#font_1_1a" transform="matrix(23.246222,0,0,-23.246222,279.90113,1041.4537)"/>
<use xlink:href="#font_1_2d" transform="matrix(23.246222,0,0,-23.246222,289.99003,1041.2213)"/>
<use xlink:href="#font_1_29" transform="matrix(23.246222,0,0,-23.246222,298.84684,1045.7311)"/>
<use xlink:href="#font_1_15" transform="matrix(23.246222,0,0,-23.246222,311.84144,1041.4769)"/>
<use xlink:href="#font_1_2d" transform="matrix(23.246222,0,0,-23.246222,322.88343,1041.2213)"/>
<use xlink:href="#font_1_15" transform="matrix(23.246222,0,0,-23.246222,332.0889,1041.4769)"/>
<use xlink:href="#font_1_24" transform="matrix(23.246222,0,0,-23.246222,343.22386,1041.2213)"/>
<use xlink:href="#font_1_1a" transform="matrix(23.246222,0,0,-23.246222,362.12303,1041.4537)"/>
<use xlink:href="#font_1_32" transform="matrix(23.246222,0,0,-23.246222,371.9562,1041.4537)"/>
<use xlink:href="#font_1_1a" transform="matrix(23.246222,0,0,-23.246222,381.06874,1041.4537)"/>
<use xlink:href="#font_1_2d" transform="matrix(23.246222,0,0,-23.246222,391.15763,1041.2213)"/>
<use xlink:href="#font_1_2e" transform="matrix(23.246222,0,0,-23.246222,400.13066,1041.4537)"/>
<path transform="matrix(2.7777777,0,0,-2.7777777,277.66389,404.61946)" stroke-width="2.98883" stroke-linecap="butt" stroke-miterlimit="10" stroke-linejoin="miter" fill="none" stroke="#3b528b" d="M 0 99.2134 L 0 75.00229 "/>
<path transform="matrix(0,2.7777777,2.7777777,0,277.66389,195.15554)" d="M 5.14818 0 L .80946 3.5066 L .80946 0 L .80946 -3.5066 Z " fill="#3b528b"/>
<path transform="matrix(0,2.7777777,2.7777777,0,277.66389,195.15554)" stroke-width="1.61894" stroke-linecap="butt" stroke-linejoin="round" fill="none" stroke="#3b528b" d="M 5.14818 0 L .80946 3.5066 L .80946 0 L .80946 -3.5066 Z "/>
<path transform="matrix(2.7777777,0,0,-2.7777777,277.66389,404.61946)" stroke-width="2.98883" stroke-linecap="butt" stroke-miterlimit="10" stroke-linejoin="miter" fill="none" stroke="#3b528b" d="M 0 -109.13472 L 0 -130.96178 "/>
<path transform="matrix(2.7777777,0,0,-2.7777777,277.66389,404.61946)" stroke-width="2.98883" stroke-linecap="butt" stroke-miterlimit="10" stroke-linejoin="miter" fill="none" stroke="#3b528b" d="M 0 -176.59972 L 0 -196.84233 "/>
<path transform="matrix(0,2.7777777,2.7777777,0,277.66389,950.2795)" d="M 5.14818 0 L .80946 3.5066 L .80946 0 L .80946 -3.5066 Z " fill="#3b528b"/>
<path transform="matrix(0,2.7777777,2.7777777,0,277.66389,950.2795)" stroke-width="1.61894" stroke-linecap="butt" stroke-linejoin="round" fill="none" stroke="#3b528b" d="M 5.14818 0 L .80946 3.5066 L .80946 0 L .80946 -3.5066 Z "/>
<path transform="matrix(2.7777777,0,0,-2.7777777,277.66389,404.61946)" d="M -54.51233 75.46844 L -76.44943 75.46844 C -78.65038 75.46844 -80.43454 73.68428 -80.43454 71.48334 L -80.43454 67.4154 C -80.43454 65.21446 -78.65038 63.4303 -76.44943 63.4303 L -54.51233 63.4303 C -52.31139 63.4303 -50.52722 65.21446 -50.52722 67.4154 L -50.52722 71.48334 C -50.52722 73.68428 -52.31139 75.46844 -54.51233 75.46844 Z M -80.43454 63.4303 " fill="#ffffff"/>
<path transform="matrix(2.7777777,0,0,-2.7777777,277.66389,404.61946)" stroke-width="1.49442" stroke-linecap="butt" stroke-miterlimit="10" stroke-linejoin="miter" fill="none" stroke="#3b528b" d="M -54.51233 75.46844 L -76.44943 75.46844 C -78.65038 75.46844 -80.43454 73.68428 -80.43454 71.48334 L -80.43454 67.4154 C -80.43454 65.21446 -78.65038 63.4303 -76.44943 63.4303 L -54.51233 63.4303 C -52.31139 63.4303 -50.52722 65.21446 -50.52722 67.4154 L -50.52722 71.48334 C -50.52722 73.68428 -52.31139 75.46844 -54.51233 75.46844 Z M -80.43454 63.4303 "/>
<use xlink:href="#font_1_12" transform="matrix(23.246222,0,0,-23.246222,61.508054,217.42958)"/>
<use xlink:href="#font_1_35" transform="matrix(23.246222,0,0,-23.246222,75.96721,217.68529)"/>
<use xlink:href="#font_1_25" transform="matrix(23.246222,0,0,-23.246222,88.61315,217.42958)"/>
<use xlink:href="#font_1_22" transform="matrix(23.246222,0,0,-23.246222,101.28234,217.42958)"/>
<use xlink:href="#font_1_25" transform="matrix(23.246222,0,0,-23.246222,107.605319,217.42958)"/>
<use xlink:href="#font_1_1f" transform="matrix(23.246222,0,0,-23.246222,120.135028,222.19506)"/>
<path transform="matrix(2.7777777,0,0,-2.7777777,277.66389,404.61946)" d="M 3.08401 -131.70868 L -50.7063 -131.70868 C -52.90724 -131.70868 -54.6914 -133.49286 -54.6914 -135.69379 L -54.6914 -138.13489 C -54.6914 -140.33583 -52.90724 -142.12 -50.7063 -142.12 L 3.08401 -142.12 C 5.28496 -142.12 7.06912 -140.33583 7.06912 -138.13489 L 7.06912 -135.69379 C 7.06912 -133.49286 5.28496 -131.70868 3.08401 -131.70868 Z M -54.6914 -142.12 " fill="#ffffff"/>
<path transform="matrix(2.7777777,0,0,-2.7777777,277.66389,404.61946)" stroke-width="1.49442" stroke-linecap="butt" stroke-miterlimit="10" stroke-linejoin="miter" fill="none" stroke="#3b528b" d="M 3.08401 -131.70868 L -50.7063 -131.70868 C -52.90724 -131.70868 -54.6914 -133.49286 -54.6914 -135.69379 L -54.6914 -138.13489 C -54.6914 -140.33583 -52.90724 -142.12 -50.7063 -142.12 L 3.08401 -142.12 C 5.28496 -142.12 7.06912 -140.33583 7.06912 -138.13489 L 7.06912 -135.69379 C 7.06912 -133.49286 5.28496 -131.70868 3.08401 -131.70868 Z M -54.6914 -142.12 "/>
<use xlink:href="#font_1_6" transform="matrix(23.246222,0,0,-23.246222,133.15308,792.9156)"/>
<use xlink:href="#font_1_22" transform="matrix(23.246222,0,0,-23.246222,147.82144,792.9156)"/>
<use xlink:href="#font_1_25" transform="matrix(23.246222,0,0,-23.246222,154.12117,792.9156)"/>
<use xlink:href="#font_1_15" transform="matrix(23.246222,0,0,-23.246222,167.02283,793.1713)"/>
<use xlink:href="#font_1_23" transform="matrix(23.246222,0,0,-23.246222,178.181,792.9156)"/>
<use xlink:href="#font_1_c" transform="matrix(23.246222,0,0,-23.246222,192.33795,792.9156)"/>
<use xlink:href="#font_1_27" transform="matrix(23.246222,0,0,-23.246222,212.84113,793.1481)"/>
<use xlink:href="#font_1_19" transform="matrix(23.246222,0,0,-23.246222,225.02214,793.1481)"/>
<use xlink:href="#font_1_1a" transform="matrix(23.246222,0,0,-23.246222,237.52863,793.1481)"/>
<use xlink:href="#font_1_23" transform="matrix(23.246222,0,0,-23.246222,247.7337,792.9156)"/>
<use xlink:href="#font_1_6" transform="matrix(23.246222,0,0,-23.246222,261.82093,792.9156)"/>
<use xlink:href="#font_1_22" transform="matrix(23.246222,0,0,-23.246222,276.4893,792.9156)"/>
<use xlink:href="#font_1_32" transform="matrix(23.246222,0,0,-23.246222,282.46357,793.1481)"/>
</g>
</svg>
