<svg xmlns="http://www.w3.org/2000/svg" xmlns:xlink="http://www.w3.org/1999/xlink" version="1.1" width="482.535pt" height="397.249pt" viewBox="0 0 482.535 397.249">
<defs>
<path id="font_20_1" d="M.03199768 .031967164V.0009765625H.24798584V.031967164C.21598816 .031967164 .1749878 .046951295 .17298889 .08190918 .17298889 .09190369 .17799378 .10089111 .18099976 .10987854 .19198609 .14285279 .20199585 .17581177 .21499634 .20777893 .21798706 .21676636 .21798706 .22875977 .23199463 .22875977H.45899964C.47099305 .22875977 .47200013 .21777344 .47599793 .20878601L.49699403 .1458435C.5069885 .11987305 .5249939 .08190918 .5249939 .060943605V.0569458C.5159912 .032974245 .47698976 .031967164 .44799806 .031967164H.44198609V.0009765625H.71699526V.031967164H.6879883C.6649933 .031967164 .6409912 .033966066 .6289978 .045959474 .6179962 .057937623 .6139984 .074920658 .60798647 .089904788 .5569916 .23875427 .5059967 .38876344 .45298768 .53778079 .43499757 .5897827 .41099549 .6447754 .397995 .6977844 .3939972 .7107849 .3880005 .7167969 .37399293 .7167969 .35398866 .7167969 .34999085 .6957855 .34399415 .67578127 .28799439 .5067749 .22599793 .33976747 .16899109 .17181397L.147995 .11187744C.14199829 .09390259 .13598633 .075927738 .12199402 .061935426 .09899902 .037963869 .06399536 .031967164 .03199768 .031967164M.23298645 .25976563 .34498597 .58477786 .45799256 .25976563H.23298645Z"/>
<path id="font_20_49" d="M.026992798 .43138124V.4003601H.041992189C.07499695 .4003601 .10499573 .39735414 .10499573 .35029603V.074020389C.10499573 .032974245 .07699585 .031967164 .032989503 .031967164H.026992798V.0009765625H.2689972V.031967164C.25698854 .031967164 .24299622 .030975342 .23098755 .030975342 .19898987 .030975342 .17199707 .035980226 .17199707 .073013309V.20614624C.17199707 .2912445 .19198609 .42037965 .2899933 .42037965 .2939911 .42037965 .29699708 .42037965 .30099488 .41937257V.41836549C.28599549 .41236878 .27799989 .39634706 .27799989 .38032533 .27799989 .35731507 .29299928 .34129334 .31599427 .33728028 .34498597 .33728028 .3639984 .3553009 .3639984 .38032533 .3639984 .42037965 .32598878 .4423828 .2899933 .4423828 .23098755 .4423828 .17799378 .38934327 .16799927 .33528138L.16699219 .4423828 .026992798 .43138124Z"/>
<path id="font_20_25" d="M.35899354 .38723756C.33299256 .38523866 .31199647 .36923219 .31199647 .3412323 .31199647 .3142395 .33099366 .29522706 .35798646 .29522706 .3880005 .29522706 .4039917 .31723023 .4039917 .3452301V.3512268C.3939972 .4242401 .30899049 .4482422 .25099183 .4482422 .1289978 .4482422 .032989503 .3412323 .032989503 .21723938 .032989503 .10423279 .12098694-.009765625 .25-.009765625 .31599427-.009765625 .3809967 .026229859 .4079895 .096221927 .4099884 .10223389 .4149933 .11123657 .4149933 .1182251 .4149933 .12522888 .4099884 .13023377 .40299989 .13023377 .3880005 .13023377 .3789978 .09222412 .37199403 .07922363 .34799195 .040222169 .30699159 .016220093 .2619934 .0152282719 .15499878 .0152282719 .12199402 .1222229 .116989139 .20123291V.21322632C.116989139 .29322816 .13598633 .41323854 .24598694 .42323304H.2539978C.29100038 .42323304 .32998658 .41223146 .35899354 .38723756Z"/>
<path id="font_20_34" d="M.03199768 .6843109V.6533203H.04699707C.083999637 .6533203 .10998535 .6493225 .10998535 .6013336V.09603882C.10998535 .089035037 .11099243 .08201599 .11099243 .074020389 .11099243 .035980226 .083999637 .031967164 .055999757 .031967164H.03199768V.0009765625H.2579956V.031967164H.23199463C.20399475 .031967164 .17999268 .035980226 .17999268 .073013309V.25621034C.17999268 .3282776 .21699524 .42037965 .31599427 .42037965 .37998963 .42037965 .38598634 .3513031 .38598634 .30825807V.069000247C.38598634 .034973146 .35699464 .031967164 .32598878 .031967164H.30799867V.0009765625H.5339966V.031967164H.5089874C.48199464 .031967164 .45599366 .035980226 .45599366 .070007327V.28923036C.45599366 .32226563 .45498658 .3553009 .43998719 .38534547 .41600038 .42938233 .3659973 .4423828 .31999208 .4423828 .2619934 .4423828 .19699097 .40335084 .17799378 .3473053L.1769867 .6953125 .03199768 .6843109Z"/>
<path id="font_20_36" d="M.036987306 .430542V.3995819H.055999757C.084991458 .3995819 .11099243 .3955841 .11099243 .34962464V.07292175C.11099243 .037963869 .09298706 .031967164 .032989503 .031967164V.0009765625H.24798584V.031967164H.22799683C.20199585 .031967164 .17799378 .034973146 .17799378 .06692505V.44154359L.036987306 .430542M.12098694 .6689453C.09599304 .66589358 .07598877 .64382937 .07598877 .61672976 .07598877 .5876312 .100997928 .5635376 .1289978 .5635376 .1559906 .5635376 .18199158 .58561709 .18199158 .61672976 .18199158 .64582827 .15699768 .6699219 .1289978 .6699219 .12599182 .66993716 .12399292 .6689453 .12098694 .6689453Z"/>
<path id="font_20_55" d="M.018997193 .43066407V.3996582H.037994386C.08799744 .3996582 .09199524 .37968446 .12298584 .30378724L.20399475 .10307312C.21998596 .06512451 .23999024-.009765625 .2639923-.009765625 .2869873-.009765625 .30599977 .06213379 .32099916 .09907532L.40499879 .30578614C.42999269 .3677063 .45199586 .3996582 .5079956 .3996582V.43066407H.34700013V.3996582C.36898805 .3996582 .3939972 .38269044 .3939972 .35871888 .3939972 .34573365 .3880005 .3317566 .3829956 .31877137 .35398866 .24786377 .32598878 .17796326 .29699708 .108062747 .2939911 .09907532 .2889862 .09008789 .2869873 .08010864H.28599549C.2789917 .10307312 .2679901 .1260376 .25898744 .14900208L.1769867 .35072328C.17399597 .35871888 .16999817 .36669923 .16999817 .37469483V.37869264C.1749878 .39866639 .20599365 .3996582 .22599793 .3996582V.43066407H.018997193Z"/>
<path id="font_20_29" d="M.11199951 .23242188H.3999939C.41099549 .23242188 .41600038 .2394104 .41600038 .250412 .41600038 .35630799 .35099793 .4482422 .23899842 .4482422 .115997318 .4482422 .027999878 .33932496 .027999878 .22039795 .027999878 .12832642 .07899475 .04624939 .16699219 .006225586 .18998719-.003768921 .21699524-.009765625 .24198914-.009765625H.24499512C.32199098-.009765625 .38598634 .0332489 .41299439 .110305789 .4139862 .11331177 .4139862 .11730957 .4139862 .12031555 .4139862 .12731934 .4099884 .13232422 .40299989 .13232422 .3880005 .13232422 .38198854 .0993042 .37599183 .08828735 .35099793 .04425049 .30299378 .0152282719 .25099183 .0152282719 .21398926 .0152282719 .18199158 .036239625 .15499878 .06326294 .114990238 .109313968 .11199951 .17436219 .11199951 .23242188M.11299133 .25341798C.11299133 .33033753 .1539917 .426239 .23599243 .426239H.24099732C.33898927 .41723634 .33799745 .3133545 .34799195 .25341798H.11299133Z"/>
<path id="font_20_14" d="M.37098695 .7060547C.28199769 .69303897 .20698548 .6640167 .147995 .5939636 .08699036 .52290347 .054992677 .4308319 .054992677 .33876039 .054992677 .16662598 .17799378-.021484375 .3899994-.021484375 .58599856-.021484375 .7220001 .15762329 .7220001 .34176637 .7220001 .52490237 .58699038 .70703127 .38598634 .70703127 .3809967 .7070465 .37599183 .7060547 .37098695 .7060547M.1579895 .3277588V.34477235C.1579895 .45985414 .18199158 .59095767 .29699708 .6569977 .32499696 .6720123 .35598756 .6810303 .3880005 .6810303 .47299195 .6810303 .54499819 .6209717 .58399966 .5409241 .61099246 .48587037 .61898806 .41682435 .61898806 .3587799 .61898806 .22668457 .58799746 .061553956 .43399049 .010513306 .41999818 .006515503 .40499879 .004501343 .3909912 .004501343 .24598694 .004501343 .1769867 .15362549 .1619873 .27471925 .1599884 .2927246 .1599884 .30973817 .1579895 .3277588Z"/>
<path id="font_20_44" d="M.026992798 .43138124V.4003601H.04598999C.07598877 .4003601 .10499573 .39736939 .10499573 .35734559V-.12220764C.10499573-.15835572 .07899475-.16236878 .049987794-.16236878H.026992798V-.19335938H.25299073V-.16236878H.22898865C.19898987-.16236878 .1749878-.15835572 .1749878-.12220764L.17599488 .051239015C.19898987 .010223389 .25498963-.009765625 .2979889-.009765625 .42199708-.009765625 .5209961 .09625244 .5209961 .21730042 .5209961 .3373413 .42799378 .4423828 .31098939 .4423828 .2559967 .4423828 .20799256 .41838075 .17199707 .3773651V.4423828L.026992798 .43138124M.43598939 .19929505C.43099977 .12626648 .3919983 .021224976 .30099488 .01222229H.29499818C.2519989 .01222229 .21299744 .036239625 .18899536 .072250369 .18099976 .08325195 .1749878 .09326172 .1749878 .10725403V.27531434C.1749878 .28833009 .17399597 .30133058 .17399597 .31433106 .17399597 .36735536 .24198914 .41737367 .30099488 .41737367 .4019928 .41737367 .43699647 .28633119 .43699647 .21530152 .43699647 .21029663 .43699647 .20429993 .43598939 .19929505Z"/>
<path id="font_20_51" d="M.14898682 .6152344C.14898682 .54644778 .11999512 .421875 .017990113 .421875V.39987184H.10398865V.1421051C.10398865 .10914612 .10598755 .076171878 .12199402 .047195436 .14399719 .007232666 .19099427-.009765625 .23498535-.009765625 .31698609-.009765625 .33299256 .08216858 .33299256 .14511109V.18206787H.30799867C.30799867 .16708374 .30899049 .15209961 .30899049 .1361084 .30899049 .09214783 .29899598 .0152282719 .23999024 .0152282719 .18299866 .0152282719 .17399597 .08416748 .17399597 .12911988V.39987184H.31599427V.43066407H.17399597V.6152344H.14898682Z"/>
<path id="font_20_40" d="M.03199768 .43138124V.4003601H.04699707C.07998657 .4003601 .10998535 .39735414 .10998535 .35029603V.074020389C.10998535 .032974245 .08198547 .031967164 .037994386 .031967164H.03199768V.0009765625H.2579956V.031967164H.23199463C.20399475 .031967164 .17999268 .035980226 .17999268 .073013309V.25621034C.17999268 .32928468 .21998596 .42037965 .31599427 .42037965 .37998963 .42037965 .3869934 .35430909 .3869934 .30825807V.070007327C.3869934 .033966066 .35699464 .031967164 .32398988 .031967164H.30899049V.0009765625H.5349884V.031967164H.5089874C.48098756 .031967164 .45700074 .035980226 .45700074 .073013309V.25621034C.45700074 .32928468 .49699403 .42037965 .59298709 .42037965 .6569977 .42037965 .6639862 .35430909 .6639862 .30825807V.070007327C.6639862 .033966066 .6339874 .031967164 .6009979 .031967164H.58599856V.0009765625H.81199648V.031967164H.79100039C.7609863 .031967164 .73399356 .034973146 .73399356 .070007327V.2962494C.73399356 .33328248 .7319946 .36631776 .70799258 .4003601 .6819916 .43338014 .6389923 .4423828 .598999 .4423828 .5339966 .4423828 .48098756 .4043579 .45399476 .34629823 .43499757 .41737367 .3899994 .4423828 .32099916 .4423828 .25698854 .4423828 .19599915 .402359 .1749878 .34028626L.17399597 .4423828 .03199768 .43138124Z"/>
<path id="font_20_23" d="M.11199951 .3812256C.13699341 .41223146 .18099976 .426239 .21798706 .426239 .2919922 .426239 .32499696 .3592224 .32499696 .288208V.26220704C.20999146 .26220704 .040985109 .22619629 .040985109 .095214847V.08721924C.04899597 .010223389 .1459961-.009765625 .20298767-.009765625 .2539978-.009765625 .31900025 .024230957 .33198548 .07522583H.33299256C.33898927 .032226564 .3659973-.004776001 .41099549-.004776001 .45199586-.004776001 .48799134 .02822876 .49299623 .07322693V.14620972H.46798707V.095214847C.46798707 .068222049 .46299745 .02722168 .43199159 .02722168 .3999939 .02722168 .394989 .066223148 .394989 .09321594V.26020814C.394989 .27320863 .3959961 .28520204 .3959961 .29821778 .3959961 .39523316 .30499269 .4482422 .22200012 .4482422 .15899658 .4482422 .069992069 .41723634 .069992069 .33721925 .069992069 .30822755 .09098816 .28923036 .116989139 .28923036 .14498902 .28923036 .1619873 .31123353 .1619873 .3352356 .1619873 .3642273 .13899231 .38124085 .11199951 .38124085V.3812256M.32499696 .24121094V.14021302C.32499696 .07122803 .2769928 .016220093 .21199036 .01222229H.20799256C.16099549 .01222229 .11898804 .049224855 .11898804 .097213748V.10221863C.12599182 .2032013 .23899842 .23820496 .32499696 .24121094Z"/>
<path id="font_20_39" d="M.032989503 .68429568V.6532898H.04798889C.084991458 .6532898 .11099243 .64927676 .11099243 .6012573V.0960083C.11099243 .08900452 .11199951 .08200073 .11199951 .07398987 .11199951 .035964967 .084991458 .031967164 .056991579 .031967164H.032989503V.0009765625H.2559967V.031967164H.23098755C.20199585 .031967164 .17799378 .035964967 .17799378 .07499695V.6953125L.032989503 .68429568Z"/>
<path id="font_20_8" d="M.032989503 .68359377V.6525879C.04598999 .6525879 .05899048 .6535797 .070999149 .6535797 .10699463 .6535797 .13598633 .6485901 .13598633 .6086273V.07495117C.13598633 .036972047 .102996829 .030975342 .068984989 .030975342 .055999757 .030975342 .04399109 .031967164 .032989503 .031967164V.0009765625H.32798768V.031967164H.2939911C.2519989 .031967164 .22499085 .033966066 .22499085 .07594299V.3408203H.5239868V.07594299C.5239868 .035964967 .48999024 .031967164 .45399476 .031967164H.42099V.0009765625H.71598818V.031967164C.70399478 .031967164 .69099429 .030975342 .67900088 .030975342 .6439972 .030975342 .61299136 .035964967 .61299136 .07495117V.6086273C.61299136 .64759829 .644989 .6535797 .67900088 .6535797 .69200137 .6535797 .7049866 .6525879 .71598818 .6525879V.68359377H.42099V.6525879H.45498658C.49699403 .6525879 .5239868 .650589 .5239868 .6086273V.3718109H.22499085V.6086273C.22499085 .6485901 .25898744 .6525879 .29499818 .6525879H.32798768V.68359377H.032989503Z"/>
<path id="font_20_57" d="M.018997193 .43066407V.3996582H.034988405C.06298828 .3996582 .084991458 .39665223 .101989749 .3586731 .147995 .24871826 .19198609 .13775635 .23899842 .027801514 .24198914 .019805909 .24899292 .00881958 .24899292-.00018310547 .24899292-.0011749268 .24798584-.0031738282 .24798584-.004180908 .24099732-.025177002 .23098755-.045166017 .22200012-.06515503 .20199585-.11413574 .17298889-.18211365 .11099243-.18211365 .09599304-.18211365 .07598877-.17611695 .06399536-.16412354 .08299255-.16111756 .102996829-.15011597 .102996829-.12213135 .102996829-.10014343 .08799744-.08215332 .06599426-.08015442 .034988405-.08015442 .018997193-.09814453 .018997193-.12313843 .018997193-.17311096 .06599426-.20410156 .11099243-.20410156H.11199951C.18399048-.20410156 .22200012-.13012696 .24699402-.07115173L.2769928 .0008239746C.31199647 .08677673 .34799195 .17274475 .38398744 .25871278L.4079895 .3156891C.4249878 .3626709 .45098878 .3996582 .5079956 .3996582V.43066407H.34700013V.3996582C.36999513 .3996582 .3929901 .383667 .3929901 .3586731 .3929901 .3456726 .3869934 .33268739 .38198854 .32069398 .35299684 .25271607 .32699586 .18374634 .29699708 .11576843 .2939911 .106781009 .2889862 .09777832 .2869873 .088775638H.28599549C.2789917 .11177063 .2679901 .13276673 .25898744 .15475464 .23298645 .21972656 .20199585 .28570558 .17799378 .35168458 .1749878 .3586731 .17098999 .36567689 .17098999 .3736725V.3776703C.1769867 .3996582 .20599365 .3996582 .22599793 .3996582V.43066407H.018997193Z"/>
<path id="font_20_3" d="M.58898928 .6199951C.57699587 .6300049 .56599429 .64302065 .55400088 .6530304 .5119934 .68704226 .45899964 .7060547 .40499879 .7060547 .21299744 .7060547 .054992677 .54093936 .054992677 .34178163 .054992677 .14962769 .20698548-.021484375 .40499879-.021484375 .5399933-.021484375 .6519928 .08157349 .6649933 .21968079 .66600039 .22468567 .66600039 .22868347 .66600039 .23368836 .66600039 .2447052 .6629944 .25170899 .6539917 .25170899 .6349945 .25170899 .6399994 .212677 .6359863 .19265747 .61499026 .09156799 .5249939 .009506226 .41600038 .009506226 .34498597 .009506226 .2789917 .042541505 .23199463 .095581058 .1749878 .16062927 .1579895 .24969483 .1579895 .33477784 .1579895 .40283204 .16499329 .47387696 .19599915 .53492739 .23699951 .61499026 .32299806 .6750488 .4139862 .6750488 .5379944 .6750488 .61898806 .5569458 .6319885 .4488678 .6349945 .43785096 .6289978 .41984559 .6499939 .41984559 .6639862 .41984559 .66600039 .4258423 .66600039 .43585206V.6900482C.66600039 .697052 .6649933 .7060547 .6539917 .7060547 .6389923 .7060547 .59199526 .6269989 .58898928 .6199951Z"/>
<path id="font_20_42" d="M.23498535 .4482422C.10899353 .43522645 .027999878 .3292389 .027999878 .21322632 .027999878 .100234989 .116989139-.009765625 .25-.009765625 .36999513-.009765625 .47099305 .08822632 .47099305 .2142334 .47099305 .33320619 .3809967 .44921876 .24798584 .44921876 .24398804 .449234 .23899842 .4482422 .23498535 .4482422M.11199951 .19023133V.23423767C.11199951 .31021119 .13598633 .4262085 .24899292 .4262085 .32998658 .4262085 .37599183 .35821534 .3849945 .2822113 .3869934 .2602234 .3869934 .23921204 .3869934 .21722412 .3869934 .15222168 .37998963 .07122803 .31599427 .034225465 .29599 .021224976 .27398683 .0152282719 .25099183 .0152282719 .17799378 .0152282719 .1269989 .07221985 .115997318 .15022278 .11399841 .16322327 .11399841 .17721558 .11199951 .19021607V.19023133Z"/>
<path id="font_20_41" d="M.03199768 .43138124V.4003601H.04699707C.07998657 .4003601 .10998535 .39735414 .10998535 .35029603V.074020389C.10998535 .032974245 .08198547 .031967164 .037994386 .031967164H.03199768V.0009765625H.2579956V.031967164H.23199463C.20399475 .031967164 .17999268 .035980226 .17999268 .073013309V.25621034C.17999268 .3282776 .21699524 .42037965 .31599427 .42037965 .37998963 .42037965 .38598634 .3513031 .38598634 .30825807V.069000247C.38598634 .034973146 .35699464 .031967164 .32598878 .031967164H.30799867V.0009765625H.5339966V.031967164H.5089874C.48199464 .031967164 .45599366 .035980226 .45599366 .070007327V.28923036C.45599366 .32226563 .45498658 .35630799 .43899537 .38633729 .41600038 .43037416 .36499024 .4423828 .31900025 .4423828 .2579956 .4423828 .19499207 .4003601 .1749878 .34028626L.17399597 .4423828 .03199768 .43138124Z"/>
<path id="font_20_31" d="M.10499573 .43066407H.026992798V.3996582H.10499573V.06893921C.10499573 .034973146 .07598877 .031967164 .04499817 .031967164H.026992798V.0009765625H.25V.031967164H.22599793C.19799805 .031967164 .17199707 .034973146 .17199707 .06893921V.3996582H.33299256C.36099244 .3996582 .3829956 .39466859 .3829956 .3407135 .3829956 .330719 .38198854 .3207245 .38198854 .31072999V.07392883C.38198854 .032974245 .35398866 .031967164 .30999757 .031967164H.3039856V.0009765625H.5269928V.031967164H.5019989C.47399903 .031967164 .44898988 .035964967 .44898988 .07192993V.44267274L.2979889 .43066407H.16899109V.5328064C.16899109 .55685427 .16999817 .57888796 .17999268 .60092166 .20199585 .6519928 .26098634 .6840515 .31698609 .6840515 .34899903 .6840515 .37998963 .6740265 .40299989 .651001 .3769989 .651001 .35499574 .6329651 .35499574 .6059265 .35499574 .5818939 .37399293 .55885317 .40098573 .55885317 .42399598 .55885317 .44499208 .5748749 .44699098 .59991458V.6059265C.44699098 .67503359 .375 .7060547 .31599427 .7060547 .24099732 .7060547 .15098572 .6740265 .115997318 .60092166 .10598755 .57987979 .10499573 .55784609 .10499573 .53482058V.43066407Z"/>
<path id="font_20_33" d="M.11898804 .02281189V.02180481C.07199097 .012802124 .027999878-.032165529 .027999878-.07914734 .027999878-.1730957 .17199707-.20507813 .24899292-.20507813 .33299256-.20507813 .47099305-.1750946 .47099305-.072143558 .47099305-.0071868898 .4249878 .03781128 .36499024 .05480957 .32899476 .06581116 .2919922 .06680298 .2539978 .06680298H.16299439C.1309967 .06982422 .10598755 .10205078 .10598755 .13427735V.13931275C.10699463 .15238953 .11399841 .17837525 .12399292 .17837525 .13699341 .17538452 .15098572 .16438294 .1659851 .15937805 .18399048 .15338135 .20399475 .15039063 .22299195 .15039063 .30499269 .15039063 .3849945 .21134949 .3849945 .29626466 .3849945 .3302307 .37098695 .37019349 .34399415 .3921814V.39317323C.37098695 .41316224 .39698792 .43113709 .43299867 .43113709 .43598939 .43113709 .43899537 .43113709 .44198609 .43014527 .43299867 .42414857 .4269867 .41714479 .4269867 .40415956 .4269867 .3881836 .43998719 .37419129 .45599366 .37419129 .47299195 .37419129 .4850006 .3881836 .4850006 .40415956 .4850006 .43113709 .46299745 .453125 .43499757 .453125 .3999939 .453125 .3659973 .4391327 .33999635 .41714479 .33699037 .41415406 .33299256 .41015626 .32899476 .40916444H.32798768C.32199098 .40916444 .31399537 .41714479 .30899049 .42015077 .2829895 .43437196 .25299073 .4423828 .22299195 .4423828 .14399719 .4423828 .05899048 .38737489 .05899048 .29638673 .05899048 .26338197 .07199097 .23338318 .09199524 .2073822 .09599304 .2033844 .102996829 .19837952 .102996829 .1933899 .102996829 .18838501 .09700012 .18338013 .09498596 .17938233 .08198547 .15937805 .07499695 .13427735 .07499695 .11010742 .07499695 .07888794 .08898926 .03781128 .11898804 .02281189M.08099365-.08413696V-.07614136C.08099365-.0231781 .1269989 .0078125 .18099976 .0078125H.25898744C.32199098 .0078125 .41799928-.0011901856 .41799928-.07814026 .41799928-.15110779 .31098939-.18208313 .24899292-.18208313 .18299866-.18208313 .09098816-.15209961 .08099365-.08413696M.1349945 .27638246V.28938294C.1349945 .3443756 .147995 .41838075 .22200012 .41838075 .28399659 .41838075 .30899049 .36038209 .30899049 .29638673 .30899049 .25538636 .30099488 .17437744 .22299195 .17437744 .19699097 .17437744 .17199707 .18638611 .15499878 .20838928 .13999939 .2283783 .13798523 .25238038 .1349945 .27638246Z"/>
<path id="font_20_54" d="M.03199768 .430542V.39953614H.04598999C.07398987 .39953614 .102996829 .3975525 .10899353 .3675995 .10998535 .35661317 .10998535 .3466339 .10998535 .33566285V.13702393C.10998535 .1040802 .11099243 .073135379 .1289978 .044189454 .1559906 .0012512207 .21299744-.0107421879 .2599945-.0107421879 .30499269-.0107421879 .34599305 .009246826 .37098695 .046188356 .37799073 .056167604 .3849945 .06614685 .3880005 .078125L.3889923-.009750366 .5339966 .0012512207V.032211305H.5189972C.48599244 .032211305 .45599366 .035217287 .45599366 .0801239V.4423828L.30799867 .43136598V.39953614H.32299806C.35598756 .39953614 .38598634 .3965454 .38598634 .3496399V.16896057C.38598634 .09509277 .34799195 .013244629 .2649994 .013244629 .20899964 .013244629 .17999268 .02722168 .17999268 .13302613V.4423828L.03199768 .430542Z"/>
<path id="font_20_15" d="M.033996583 .68359377V.6525879C.04699707 .6525879 .05999756 .6535797 .07199097 .6535797 .10798645 .6535797 .13699341 .6485901 .13699341 .60861209V.07493591C.13699341 .036972047 .10398865 .030975342 .069992069 .030975342 .056991579 .030975342 .04499817 .031967164 .033996583 .031967164V.0009765625H.32899476V.031967164H.29499818C.25299073 .031967164 .22599793 .033966066 .22599793 .07594299V.31677247H.4099884C.5049896 .323761 .6239929 .38174439 .6239929 .49667359 .6239929 .60261538 .5189972 .67259219 .41799928 .68258669 .40299989 .68356326 .3889923 .6845703 .37399293 .6845703 .35398866 .6845856 .33399964 .68359377 .31498719 .68359377H.033996583M.22299195 .34277345V.62060549C.22299195 .647583 .23999024 .650589 .25898744 .6525879H.33399964C.3899994 .6525879 .45498658 .650589 .49398805 .6036072 .5179901 .57463076 .5209961 .5346527 .5209961 .4986725 .5209961 .46269227 .5179901 .42471314 .49598695 .3947296 .46199037 .35176087 .4039917 .34277345 .35299684 .34277345H.22299195Z"/>
<path id="font_20_50" d="M.17599488 .4482422C.13899231 .44422914 .099990848 .4372406 .070999149 .41223146 .04699707 .39123536 .032989503 .35723878 .032989503 .32522584 .032989503 .15423584 .31098939 .25123597 .31098939 .10122681 .31098939 .040222169 .2559967 .01222229 .20098877 .01222229 .125 .01222229 .07398987 .066223148 .05999756 .15222168 .057998659 .16122437 .056991579 .17022705 .04499817 .17022705 .036987306 .17022705 .032989503 .16423035 .032989503 .15722656V-.00077819827C.033996583-.0057678224 .036987306-.008773804 .041992189-.009765625H.04399109C.05999756-.009765625 .07598877 .02722168 .08799744 .030227662H.08898926C.09700012 .030227662 .12399292 .0052337648 .14498902-.0017700195 .1619873-.0077667238 .17999268-.009765625 .19799805-.009765625 .2809906-.009765625 .3600006 .034225465 .3600006 .12623596 .3600006 .19223023 .31199647 .24623108 .24598694 .26322938 .18399048 .28022767 .08198547 .28022767 .08198547 .3532257 .08198547 .4142151 .14898682 .42921449 .19299317 .42921449 .24198914 .42921449 .30999757 .40220643 .30999757 .3162079 .30999757 .30722047 .31098939 .2992096 .32199098 .2992096 .33198548 .2992096 .33599855 .30722047 .33599855 .31721498 .33599855 .32221986 .33499146 .32720948 .33499146 .33120729V.4342041C.33499146 .44023133 .33198548 .4482422 .32398988 .4482422 .30799867 .4482422 .2979889 .42323304 .2869873 .42323304H.28599549C.27799989 .42323304 .2619934 .43623353 .25 .44023133 .23199463 .44621278 .21199036 .44921876 .19299317 .44921876 .18699646 .449234 .18199158 .4482422 .17599488 .4482422Z"/>
<path id="font_20_18" d="M.115997318 .048538209C.1789856-.00048828127 .22799683-.021484375 .30499269-.021484375 .42399598-.021484375 .49899293 .08557129 .49899293 .18765259 .49899293 .27072145 .45199586 .34777833 .37199403 .3808136 .31098939 .40582276 .23498535 .40382386 .18199158 .43585206 .14199829 .46087647 .11898804 .50390627 .11898804 .5479431 .11898804 .6269989 .18598938 .67803958 .25698854 .67803958 .35598756 .67803958 .4249878 .59898379 .44099427 .49890138 .44400025 .48388673 .44099427 .4568634 .45899964 .4568634 .46998597 .4568634 .47099305 .46588136 .47099305 .47488404V.6920471C.47099305 .6990509 .46899415 .7060547 .46099855 .7060547 .44599916 .7060547 .43499757 .67803958 .4269867 .66503909 .42099 .6560364 .4139862 .6460266 .4099884 .63601687 .36898805 .6770477 .32199098 .7060547 .25498963 .7060547 .15699768 .7060547 .054992677 .63801577 .054992677 .51091006 .054992677 .40682984 .1309967 .33877564 .22898865 .31774903 .25 .3127594 .269989 .30674745 .29100038 .30174256 .34700013 .2887268 .40299989 .27471925 .4269867 .20266724 .43199159 .18765259 .43499757 .17164612 .43499757 .15663147 .43499757 .08157349 .38398744 .009506226 .2999878 .009506226 .19999695 .009506226 .102996829 .06254578 .08299255 .17764282 .08198547 .18664551 .08099365 .19665528 .07998657 .20567322V.212677C.07998657 .22268677 .07499695 .22767639 .066986087 .22767639 .056991579 .22767639 .054992677 .21968079 .054992677 .212677V-.0074920656C.054992677-.01449585 .056991579-.021484375 .06498718-.021484375 .07998657-.021484375 .09098816 .006515503 .09899902 .019515992 .10499573 .028518677 .11199951 .038528444 .115997318 .048538209Z"/>
<path id="font_20_19" d="M.054992677 .6777344 .035995485 .45280458H.06098938C.06498718 .50479128 .067993167 .5757599 .09899902 .6097412 .1329956 .6447296 .18998719 .64772036 .23599243 .64772036H.26098634C.28799439 .64772036 .31599427 .64772036 .31599427 .613739V.07695007C.31599427 .036972047 .27598573 .030975342 .23999024 .030975342 .22698975 .030975342 .21398926 .031967164 .20399475 .031967164H.17098999V.0009765625H.5499878V.031967164H.48199464C.44299317 .031967164 .40499879 .035964967 .40499879 .07695007V.613739C.40499879 .6427307 .42199708 .64772036 .45999146 .64772036H.4850006C.5309906 .64772036 .58799746 .6447296 .621994 .6097412 .6529999 .5757599 .6559906 .50479128 .6599884 .45280458H.68499758L.66600039 .6777344H.054992677Z"/>
<path id="font_20_5" d="M.032989503 .68066409V.6496582C.04598999 .6496582 .05899048 .65065 .070999149 .65065 .10699463 .65065 .13598633 .6456604 .13598633 .6056824V.07495117C.13598633 .036972047 .102996829 .030975342 .068984989 .030975342 .055999757 .030975342 .04399109 .031967164 .032989503 .031967164V.0009765625H.60899356L.651001 .25889588H.6259918C.61099246 .16792298 .598999 .06796265 .48999024 .03996277 .45899964 .032974245 .4269867 .031967164 .394989 .031967164H.2669983C.24699402 .031967164 .22499085 .033966066 .22499085 .063964847V.3388672H.31698609C.35198976 .3388672 .3909912 .3358612 .4099884 .3048706 .42199708 .2838745 .4229889 .2568817 .4229889 .23190308V.22190857H.44799806V.48677064H.4229889V.47677613C.4229889 .42282105 .41099549 .3798523 .35198976 .3718567 .33299256 .3698578 .31399537 .3698578 .29499818 .3698578H.22499085V.61468508C.22499085 .6486511 .24598694 .6496582 .2669983 .6496582H.3869934C.44599916 .6496582 .5189972 .6496582 .55799868 .59669497 .58799746 .5567169 .59298709 .5037689 .598999 .4557953H.6239929L.59599307 .68066409H.032989503Z"/>
<path id="font_20_24" d="M.026992798 .6843109V.6533203H.04399109C.07499695 .6533203 .10499573 .65031436 .10499573 .6033325V.0012207031L.1289978 .0032196046 .14199829 .020233155 .1659851 .0622406H.16799927C.19198609 .014221191 .25099183-.009765625 .30099488-.009765625 .4249878-.009765625 .5209961 .09825134 .5209961 .21730042 .5209961 .33233644 .43299867 .4423828 .30499269 .4423828 .25299073 .4423828 .20698548 .41737367 .17199707 .37835694V.6953125L.026992798 .6843109M.43598939 .19229126C.43199159 .14427185 .4269867 .102264408 .39698792 .06524658 .37199403 .033233644 .33399964 .01222229 .2939911 .01222229 .25099183 .01222229 .21199036 .037231447 .18899536 .07324219 .18099976 .08425903 .1749878 .09326172 .1749878 .10826111V.27531434C.1749878 .28833009 .17399597 .30133058 .17399597 .31433106 .17399597 .37435914 .24699402 .42037965 .30299378 .42037965 .41099549 .42037965 .43699647 .29432679 .43699647 .21530152 .43699647 .20729065 .43699647 .20028687 .43598939 .19229126Z"/>
<path id="font_20_17" d="M.033996583 .68359377V.6525879C.04699707 .6525879 .05999756 .6535797 .07199097 .6535797 .10798645 .6535797 .13699341 .6485901 .13699341 .6085663V.07450867C.13699341 .036514284 .10398865 .03050232 .069992069 .03050232 .056991579 .03050232 .04499817 .0315094 .033996583 .0315094V.00050354006H.32598878V.0315094H.2919922C.25 .0315094 .22299195 .0335083 .22299195 .07551575V.33151246H.33699037C.40299989 .33151246 .46299745 .2935028 .46998597 .21650696V.1335144C.46998597 .06550598 .49899293-.021484375 .6349945-.021484375 .6819916-.021484375 .723999 .009506226 .7319946 .08250427V.087509158C.7319946 .09550476 .72898867 .10551453 .7200012 .10551453 .70199587 .10551453 .7049866 .053512575 .68899539 .028503418 .6769867 .012512207 .6589966 .00050354006 .6399994 .00050354006 .59098818 .00050354006 .58299258 .06651306 .57598879 .10551453L.56399539 .1835022C.5529938 .25350953 .5299988 .30751039 .43499757 .34051515 .45399476 .34750367 .47399903 .35150147 .49299623 .35951234 .548996 .38452149 .60398867 .4295349 .6100006 .49453736V.5025482C.6100006 .61756899 .47399903 .6755829 .37998963 .68258669 .36299134 .68359377 .34700013 .68359377 .32998658 .68359377H.033996583M.22299195 .35351563V.61557009C.22299195 .6415863 .23298645 .650589 .2579956 .6525879H.33099366C.4119873 .6525879 .5069885 .63157656 .5069885 .50354006 .5069885 .3645172 .39698792 .35351563 .30899049 .35351563H.22299195Z"/>
<path id="font_20_37" d="M.057998659 .430542V.39956666H.07699585C.11099243 .39956666 .14299011 .39656068 .14299011 .35058595V.01977539C.14299011 .0017852783 .14399719-.016204834 .14399719-.034194948 .14399719-.090164188 .13798523-.18211365 .069992069-.18211365 .054992677-.18211365 .0289917-.17910767 .016998291-.16812134 .039993287-.16511536 .051986696-.14413452 .051986696-.12313843 .051986696-.09416199 .02999878-.07817078 .005996704-.07817078H.0019989014C-.021011353-.07817078-.040008546-.10015869-.040008546-.12414551-.040008546-.18011475 .021987915-.20410156 .068984989-.20410156 .1459961-.20410156 .20999146-.14213562 .20999146-.049179079V.44154359L.057998659 .430542M.14898682 .6689453C.12399292 .66589358 .10398865 .64382937 .10398865 .61672976 .10398865 .5876312 .1289978 .5635376 .15699768 .5635376 .18399048 .5635376 .20999146 .58561709 .20999146 .61672976 .20999146 .64582827 .18499756 .6699219 .15699768 .6699219 .1539917 .66993716 .1519928 .6689453 .14898682 .6689453Z"/>
<path id="font_20_38" d="M.026992798 .6842804V.65319827H.04399109C.07598877 .65319827 .10499573 .64920046 .10499573 .6010742V.09591675C.10499573 .08892822 .10598755 .08192444 .10598755 .07392883 .10598755 .035964967 .07899475 .031967164 .050994874 .031967164H.026992798V.0009765625H.24699402V.031967164H.22399903C.19400025 .031967164 .16899109 .035964967 .16899109 .07392883V.16685486C.16899109 .1878357 .20899964 .21582031 .23298645 .23379517 .24198914 .21681214 .25498963 .201828 .2659912 .18583679 .2899933 .15286255 .31399537 .120895389 .33599855 .08792114 .34199525 .078933719 .34999085 .06593323 .34999085 .053955079 .34999085 .035964967 .32998658 .031967164 .31498719 .031967164V.0009765625H.5109863V.031967164C.49398805 .031967164 .47499085 .031967164 .45899964 .03996277 .43598939 .052947999 .41999818 .076934818 .4059906 .09791565 .3809967 .1328888 .35598756 .16885376 .32998658 .2038269L.2939911 .254776C.2899933 .25978089 .2829895 .2687683 .2829895 .2727661V.274765C.2829895 .28175355 .31298829 .30374146 .32699586 .31472779 .37298585 .35469056 .4249878 .3996582 .4889984 .3996582V.43066407H.30699159V.3996582C.32199098 .3996582 .33499146 .38867188 .33499146 .37467958 .33499146 .3447113 .28799439 .31472779 .26098634 .29275514 .23098755 .2667694 .20199585 .24079895 .17199707 .21582031V.6953125L.026992798 .6842804Z"/>
<path id="font_20_11" d="M.032989503 .68359377V.6525879C.04598999 .6525879 .05899048 .6535797 .070999149 .6535797 .10699463 .6535797 .13598633 .6485901 .13598633 .60861209V.07493591C.13598633 .036972047 .102996829 .030975342 .068984989 .030975342 .055999757 .030975342 .04399109 .031967164 .032989503 .031967164V.0009765625H.55400088L.58200076 .25883485H.5569916C.548996 .17788697 .5359955 .061950685 .42099 .03996277 .3919983 .031967164 .36299134 .031967164 .33399964 .031967164H.2599945C.23999024 .033966066 .22499085 .038970949 .22499085 .06594849V.60861209C.22499085 .6485901 .26098634 .6535797 .2939911 .6535797 .30499269 .6535797 .31498719 .6525879 .32398988 .6525879H.35299684V.68359377H.032989503Z"/>
<path id="font_20_12" d="M.036987306 .68359377V.6525879C.049987794 .6525879 .06298828 .6535797 .07499695 .6535797 .11099243 .6535797 .13999939 .6485901 .13999939 .60861209V.10292053C.13999939 .037963869 .07998657 .031967164 .036987306 .031967164V.0009765625H.2709961V.031967164C.22599793 .031967164 .16699219 .037963869 .16699219 .106918338 .16699219 .11592102 .16799927 .12591553 .16799927 .13490296L.16899109 .6465912C.17399597 .62561038 .18399048 .60562136 .19198609 .5856323 .2619934 .40074159 .33399964 .21685791 .4059906 .033966066 .4099884 .022964478 .4149933 .0009765625 .42999269 .0009765625H.43099977C.44599916 .0029754639 .44999696 .025970459 .45498658 .037963869 .5269928 .22485352 .60198977 .41374208 .6729889 .60162356 .6799927 .61860659 .6879883 .63560488 .69299319 .6535797L.69400027 .076934818C.69400027 .036972047 .6619873 .030975342 .6299896 .030975342 .6159973 .030975342 .6029968 .031967164 .59098818 .031967164V.0009765625H.8779907V.031967164C.8659973 .031967164 .8529968 .030975342 .84098818 .030975342 .80599978 .030975342 .7749939 .035964967 .7749939 .07493591V.60861209C.7749939 .64759829 .8069916 .6535797 .84098818 .6535797 .85398867 .6535797 .86698916 .6525879 .8779907 .6525879V.68359377H.70399478L.68499758 .68058779 .6749878 .6645813 .45799256 .10192871 .23999024 .6645813 .22999573 .68058779 .21099854 .68359377H.036987306Z"/>
<path id="font_20_20" d="M.032989503 .68359377V.6525879H.067993167C.11099243 .6525879 .13598633 .6485901 .13598633 .60757449V.24153137C.13598633 .103515628 .22898865-.021484375 .394989-.021484375 .5079956-.021484375 .59399417 .08052063 .6100006 .18652344 .61299136 .20652771 .61299136 .22753906 .61299136 .24754334V.57858279C.61299136 .647583 .6729889 .6525879 .71598818 .6525879V.68359377H.47898866V.6525879C.522995 .6525879 .58200076 .647583 .58200076 .57658389V.23753357C.58200076 .13752747 .5269928 .009506226 .3869934 .009506226 .31498719 .009506226 .25698854 .06350708 .23699951 .13052368 .22599793 .16752625 .22499085 .20553589 .22499085 .24353028V.58457949C.22499085 .59158328 .22399903 .60058596 .22399903 .60858157 .22399903 .6485901 .25898744 .6525879 .29499818 .6525879H.32798768V.68359377H.032989503Z"/>
<path id="font_20_28" d="M.3039856 .6843109V.6533203H.31999208C.35499574 .6533203 .38198854 .6493225 .38198854 .5913391L.3809967 .38136292C.35699464 .42137147 .2999878 .4423828 .2539978 .4423828 .1309967 .4423828 .032989503 .3363495 .032989503 .21530152 .032989503 .10826111 .114990238-.009765625 .24699402-.009765625 .29899598-.009765625 .34599305 .0152282719 .3789978 .055236818V-.009765625L.5269928 .0012207031V.032226564H.5099945C.47898866 .032226564 .44898988 .035232545 .44898988 .08224487V.6953125L.3039856 .6843109M.116989139 .19128418V.20629883C.116989139 .2803192 .12599182 .35534669 .19499207 .4013672 .21499634 .41337586 .23799134 .42037965 .26098634 .42037965 .30999757 .42037965 .37998963 .38035584 .37998963 .31733705 .37998963 .30433656 .3789978 .2913208 .3789978 .2783203V.11225891C.3789978 .09925842 .37399293 .09025574 .36698915 .08024597 .34098817 .041244508 .2979889 .01222229 .25099183 .01222229 .17799378 .01222229 .13198853 .07925415 .12098694 .14826966 .11898804 .16227722 .11898804 .17729187 .116989139 .19128418Z"/>
</defs>
<path transform="matrix(1,0,0,-1,326.431,230.15949)" stroke-width="1.993" stroke-linecap="butt" stroke-miterlimit="10" stroke-linejoin="miter" fill="none" stroke="#929292" d="M0 0V-74.368"/>
<path transform="matrix(0,1,1,0,326.431,308.20109)" d="M0 0-3.362 2.817V0-2.817Z" fill="#929292"/>
<path transform="matrix(0,1,1,0,326.431,308.20109)" stroke-width="1.245" stroke-linecap="butt" stroke-linejoin="round" fill="none" stroke="#929292" d="M0 0-3.362 2.817V0-2.817Z"/>
<path transform="matrix(1,0,0,-1,258.752,212.79799)" stroke-width="1.993" stroke-linecap="butt" stroke-miterlimit="10" stroke-linejoin="miter" fill="none" stroke="#929292" d="M0 0H131.062"/>
<path transform="matrix(1,0,0,-1,393.48725,212.79799)" d="M0 0-3.362 2.817V0-2.817Z" fill="#929292"/>
<path transform="matrix(1,0,0,-1,393.48725,212.79799)" stroke-width="1.245" stroke-linecap="butt" stroke-linejoin="round" fill="none" stroke="#929292" d="M0 0-3.362 2.817V0-2.817Z"/>
<path transform="matrix(1,0,0,-1,439.8183,167.08969)" stroke-width="1.993" stroke-linecap="butt" stroke-miterlimit="10" stroke-linejoin="miter" fill="none" stroke="#929292" d="M0 0V67.679H-63.383"/>
<path transform="matrix(-1,0,0,1,372.76203,99.410709)" d="M0 0-3.362 2.817V0-2.817Z" fill="#929292"/>
<path transform="matrix(-1,0,0,1,372.76203,99.410709)" stroke-width="1.245" stroke-linecap="butt" stroke-linejoin="round" fill="none" stroke="#929292" d="M0 0-3.362 2.817V0-2.817Z"/>
<path transform="matrix(1,0,0,-1,280.7227,99.41069)" stroke-width="1.993" stroke-linecap="butt" stroke-miterlimit="10" stroke-linejoin="miter" fill="none" stroke="#929292" d="M0 0H-67.679V-63.383"/>
<path transform="matrix(0,1,1,0,213.04372,166.467)" d="M0 0-3.362 2.817V0-2.817Z" fill="#929292"/>
<path transform="matrix(0,1,1,0,213.04372,166.467)" stroke-width="1.245" stroke-linecap="butt" stroke-linejoin="round" fill="none" stroke="#929292" d="M0 0-3.362 2.817V0-2.817Z"/>
<path transform="matrix(1,0,0,-1,350.7927,198.62459)" d="M0 0H-48.723C-50.924 0-52.708-1.784-52.708-3.985V-24.362C-52.708-26.563-50.924-28.347-48.723-28.347H0C2.201-28.347 3.985-26.563 3.985-24.362V-3.985C3.985-1.784 2.201 0 0 0Z" fill="#97d7c2"/>
<path transform="matrix(1,0,0,-1,350.7927,198.62459)" stroke-width=".398" stroke-linecap="butt" stroke-miterlimit="10" stroke-linejoin="miter" fill="none" stroke="#000000" d="M0 0H-48.723C-50.924 0-52.708-1.784-52.708-3.985V-24.362C-52.708-26.563-50.924-28.347-48.723-28.347H0C2.201-28.347 3.985-26.563 3.985-24.362V-3.985C3.985-1.784 2.201 0 0 0Z"/>
<use data-text="A" xlink:href="#font_20_1" transform="matrix(9.963,0,0,-9.963,309.817,216.22899)"/>
<use data-text="r" xlink:href="#font_20_49" transform="matrix(9.963,0,0,-9.963,317.28926,216.22899)"/>
<use data-text="c" xlink:href="#font_20_25" transform="matrix(9.963,0,0,-9.963,321.19474,216.22899)"/>
<use data-text="h" xlink:href="#font_20_34" transform="matrix(9.963,0,0,-9.963,325.339,216.22899)"/>
<use data-text="i" xlink:href="#font_20_36" transform="matrix(9.963,0,0,-9.963,330.86848,216.22899)"/>
<use data-text="v" xlink:href="#font_20_55" transform="matrix(9.963,0,0,-9.963,333.63819,216.22899)"/>
<use data-text="e" xlink:href="#font_20_29" transform="matrix(9.963,0,0,-9.963,338.61964,216.22899)"/>
<path transform="matrix(1,0,0,-1,364.9661,312.0119)" d="M0 0H-77.07C-79.271 0-81.055-1.784-81.055-3.985V-81.055C-81.055-83.256-79.271-85.04-77.07-85.04H0C2.201-85.04 3.985-83.256 3.985-81.055V-3.985C3.985-1.784 2.201 0 0 0Z" fill="#9081af"/>
<path transform="matrix(1,0,0,-1,364.9661,312.0119)" stroke-width=".398" stroke-linecap="butt" stroke-miterlimit="10" stroke-linejoin="miter" fill="none" stroke="#000000" d="M0 0H-77.07C-79.271 0-81.055-1.784-81.055-3.985V-81.055C-81.055-83.256-79.271-85.04-77.07-85.04H0C2.201-85.04 3.985-83.256 3.985-81.055V-3.985C3.985-1.784 2.201 0 0 0Z"/>
<use data-text="O" xlink:href="#font_20_14" transform="matrix(9.963,0,0,-9.963,308.447,345.037)" fill="#ffffff"/>
<use data-text="p" xlink:href="#font_20_44" transform="matrix(9.963,0,0,-9.963,316.1982,345.037)" fill="#ffffff"/>
<use data-text="t" xlink:href="#font_20_51" transform="matrix(9.963,0,0,-9.963,321.7277,345.037)" fill="#ffffff"/>
<use data-text="i" xlink:href="#font_20_36" transform="matrix(9.963,0,0,-9.963,325.6033,345.037)" fill="#ffffff"/>
<use data-text="m" xlink:href="#font_20_40" transform="matrix(9.963,0,0,-9.963,328.37303,345.037)" fill="#ffffff"/>
<use data-text="a" xlink:href="#font_20_23" transform="matrix(9.963,0,0,-9.963,336.6722,345.037)" fill="#ffffff"/>
<use data-text="l" xlink:href="#font_20_39" transform="matrix(9.963,0,0,-9.963,341.65373,345.037)" fill="#ffffff"/>
<use data-text="H" xlink:href="#font_20_8" transform="matrix(9.963,0,0,-9.963,290.83699,356.992)" fill="#ffffff"/>
<use data-text="y" xlink:href="#font_20_57" transform="matrix(9.963,0,0,-9.963,298.30924,356.992)" fill="#ffffff"/>
<use data-text="p" xlink:href="#font_20_44" transform="matrix(9.963,0,0,-9.963,303.5697,356.992)" fill="#ffffff"/>
<use data-text="e" xlink:href="#font_20_29" transform="matrix(9.963,0,0,-9.963,309.377,356.992)" fill="#ffffff"/>
<use data-text="r" xlink:href="#font_20_49" transform="matrix(9.963,0,0,-9.963,313.8006,356.992)" fill="#ffffff"/>
<use data-text="p" xlink:href="#font_20_44" transform="matrix(9.963,0,0,-9.963,317.7061,356.992)" fill="#ffffff"/>
<use data-text="a" xlink:href="#font_20_23" transform="matrix(9.963,0,0,-9.963,323.23558,356.992)" fill="#ffffff"/>
<use data-text="r" xlink:href="#font_20_49" transform="matrix(9.963,0,0,-9.963,328.21708,356.992)" fill="#ffffff"/>
<use data-text="a" xlink:href="#font_20_23" transform="matrix(9.963,0,0,-9.963,332.12257,356.992)" fill="#ffffff"/>
<use data-text="m" xlink:href="#font_20_40" transform="matrix(9.963,0,0,-9.963,337.10408,356.992)" fill="#ffffff"/>
<use data-text="e" xlink:href="#font_20_29" transform="matrix(9.963,0,0,-9.963,345.40327,356.992)" fill="#ffffff"/>
<use data-text="t" xlink:href="#font_20_51" transform="matrix(9.963,0,0,-9.963,349.82685,356.992)" fill="#ffffff"/>
<use data-text="e" xlink:href="#font_20_29" transform="matrix(9.963,0,0,-9.963,353.70246,356.992)" fill="#ffffff"/>
<use data-text="r" xlink:href="#font_20_49" transform="matrix(9.963,0,0,-9.963,358.12605,356.992)" fill="#ffffff"/>
<use data-text="C" xlink:href="#font_20_3" transform="matrix(9.963,0,0,-9.963,296.536,368.948)" fill="#ffffff"/>
<use data-text="o" xlink:href="#font_20_42" transform="matrix(9.963,0,0,-9.963,303.7293,368.948)" fill="#ffffff"/>
<use data-text="n" xlink:href="#font_20_41" transform="matrix(9.963,0,0,-9.963,308.71083,368.948)" fill="#ffffff"/>
<use data-text="&#xfb01;" xlink:href="#font_20_31" transform="matrix(9.963,0,0,-9.963,314.2403,368.948)" fill="#ffffff"/>
<use data-text="g" xlink:href="#font_20_33" transform="matrix(9.963,0,0,-9.963,319.76979,368.948)" fill="#ffffff"/>
<use data-text="u" xlink:href="#font_20_54" transform="matrix(9.963,0,0,-9.963,324.75129,368.948)" fill="#ffffff"/>
<use data-text="r" xlink:href="#font_20_49" transform="matrix(9.963,0,0,-9.963,330.28077,368.948)" fill="#ffffff"/>
<use data-text="a" xlink:href="#font_20_23" transform="matrix(9.963,0,0,-9.963,334.18626,368.948)" fill="#ffffff"/>
<use data-text="t" xlink:href="#font_20_51" transform="matrix(9.963,0,0,-9.963,339.16777,368.948)" fill="#ffffff"/>
<use data-text="i" xlink:href="#font_20_36" transform="matrix(9.963,0,0,-9.963,343.04338,368.948)" fill="#ffffff"/>
<use data-text="o" xlink:href="#font_20_42" transform="matrix(9.963,0,0,-9.963,345.81309,368.948)" fill="#ffffff"/>
<use data-text="n" xlink:href="#font_20_41" transform="matrix(9.963,0,0,-9.963,350.7946,368.948)" fill="#ffffff"/>
<path transform="matrix(1,0,0,-1,364.9661,56.890489)" d="M0 0H-77.07C-79.271 0-81.055-1.784-81.055-3.985V-81.055C-81.055-83.256-79.271-85.04-77.07-85.04H0C2.201-85.04 3.985-83.256 3.985-81.055V-3.985C3.985-1.784 2.201 0 0 0Z" fill="#9081af"/>
<path transform="matrix(1,0,0,-1,364.9661,56.890489)" stroke-width=".398" stroke-linecap="butt" stroke-miterlimit="10" stroke-linejoin="miter" fill="none" stroke="#000000" d="M0 0H-77.07C-79.271 0-81.055-1.784-81.055-3.985V-81.055C-81.055-83.256-79.271-85.04-77.07-85.04H0C2.201-85.04 3.985-83.256 3.985-81.055V-3.985C3.985-1.784 2.201 0 0 0Z"/>
<use data-text="P" xlink:href="#font_20_15" transform="matrix(9.963,0,0,-9.963,309.028,89.91901)" fill="#ffffff"/>
<use data-text="r" xlink:href="#font_20_49" transform="matrix(9.963,0,0,-9.963,315.80287,89.91901)" fill="#ffffff"/>
<use data-text="o" xlink:href="#font_20_42" transform="matrix(9.963,0,0,-9.963,319.70835,89.91901)" fill="#ffffff"/>
<use data-text="p" xlink:href="#font_20_44" transform="matrix(9.963,0,0,-9.963,324.68986,89.91901)" fill="#ffffff"/>
<use data-text="o" xlink:href="#font_20_42" transform="matrix(9.963,0,0,-9.963,330.4983,89.91901)" fill="#ffffff"/>
<use data-text="s" xlink:href="#font_20_50" transform="matrix(9.963,0,0,-9.963,335.4798,89.91901)" fill="#ffffff"/>
<use data-text="e" xlink:href="#font_20_29" transform="matrix(9.963,0,0,-9.963,339.4052,89.91901)" fill="#ffffff"/>
<use data-text="H" xlink:href="#font_20_8" transform="matrix(9.963,0,0,-9.963,290.837,101.87399)" fill="#ffffff"/>
<use data-text="y" xlink:href="#font_20_57" transform="matrix(9.963,0,0,-9.963,298.30928,101.87399)" fill="#ffffff"/>
<use data-text="p" xlink:href="#font_20_44" transform="matrix(9.963,0,0,-9.963,303.56974,101.87399)" fill="#ffffff"/>
<use data-text="e" xlink:href="#font_20_29" transform="matrix(9.963,0,0,-9.963,309.37818,101.87399)" fill="#ffffff"/>
<use data-text="r" xlink:href="#font_20_49" transform="matrix(9.963,0,0,-9.963,313.80177,101.87399)" fill="#ffffff"/>
<use data-text="p" xlink:href="#font_20_44" transform="matrix(9.963,0,0,-9.963,317.70726,101.87399)" fill="#ffffff"/>
<use data-text="a" xlink:href="#font_20_23" transform="matrix(9.963,0,0,-9.963,323.23674,101.87399)" fill="#ffffff"/>
<use data-text="r" xlink:href="#font_20_49" transform="matrix(9.963,0,0,-9.963,328.21824,101.87399)" fill="#ffffff"/>
<use data-text="a" xlink:href="#font_20_23" transform="matrix(9.963,0,0,-9.963,332.12373,101.87399)" fill="#ffffff"/>
<use data-text="m" xlink:href="#font_20_40" transform="matrix(9.963,0,0,-9.963,337.10523,101.87399)" fill="#ffffff"/>
<use data-text="e" xlink:href="#font_20_29" transform="matrix(9.963,0,0,-9.963,345.40443,101.87399)" fill="#ffffff"/>
<use data-text="t" xlink:href="#font_20_51" transform="matrix(9.963,0,0,-9.963,349.828,101.87399)" fill="#ffffff"/>
<use data-text="e" xlink:href="#font_20_29" transform="matrix(9.963,0,0,-9.963,353.7036,101.87399)" fill="#ffffff"/>
<use data-text="r" xlink:href="#font_20_49" transform="matrix(9.963,0,0,-9.963,358.1272,101.87399)" fill="#ffffff"/>
<use data-text="C" xlink:href="#font_20_3" transform="matrix(9.963,0,0,-9.963,294.572,113.82999)" fill="#ffffff"/>
<use data-text="o" xlink:href="#font_20_42" transform="matrix(9.963,0,0,-9.963,301.7653,113.82999)" fill="#ffffff"/>
<use data-text="n" xlink:href="#font_20_41" transform="matrix(9.963,0,0,-9.963,306.7468,113.82999)" fill="#ffffff"/>
<use data-text="&#xfb01;" xlink:href="#font_20_31" transform="matrix(9.963,0,0,-9.963,312.27629,113.82999)" fill="#ffffff"/>
<use data-text="g" xlink:href="#font_20_33" transform="matrix(9.963,0,0,-9.963,317.80577,113.82999)" fill="#ffffff"/>
<use data-text="u" xlink:href="#font_20_54" transform="matrix(9.963,0,0,-9.963,322.78727,113.82999)" fill="#ffffff"/>
<use data-text="r" xlink:href="#font_20_49" transform="matrix(9.963,0,0,-9.963,328.31675,113.82999)" fill="#ffffff"/>
<use data-text="a" xlink:href="#font_20_23" transform="matrix(9.963,0,0,-9.963,332.22224,113.82999)" fill="#ffffff"/>
<use data-text="t" xlink:href="#font_20_51" transform="matrix(9.963,0,0,-9.963,337.20375,113.82999)" fill="#ffffff"/>
<use data-text="i" xlink:href="#font_20_36" transform="matrix(9.963,0,0,-9.963,341.07936,113.82999)" fill="#ffffff"/>
<use data-text="o" xlink:href="#font_20_42" transform="matrix(9.963,0,0,-9.963,343.84907,113.82999)" fill="#ffffff"/>
<use data-text="n" xlink:href="#font_20_41" transform="matrix(9.963,0,0,-9.963,348.83058,113.82999)" fill="#ffffff"/>
<use data-text="s" xlink:href="#font_20_50" transform="matrix(9.963,0,0,-9.963,354.36006,113.82999)" fill="#ffffff"/>
<path transform="matrix(1,0,0,-1,311.6185,.19688416)" d="M0 0H-55.416C-57.616 0-59.401-1.784-59.401-3.985V-24.362C-59.401-26.563-57.616-28.347-55.416-28.347H0C2.201-28.347 3.985-26.563 3.985-24.362V-3.985C3.985-1.784 2.201 0 0 0Z" fill="#3b528b"/>
<path transform="matrix(1,0,0,-1,311.6185,.19688416)" stroke-width=".398" stroke-linecap="butt" stroke-miterlimit="10" stroke-linejoin="miter" fill="none" stroke="#000000" d="M0 0H-55.416C-57.616 0-59.401-1.784-59.401-3.985V-24.362C-59.401-26.563-57.616-28.347-55.416-28.347H0C2.201-28.347 3.985-26.563 3.985-24.362V-3.985C3.985-1.784 2.201 0 0 0Z"/>
<use data-text="S" xlink:href="#font_20_18" transform="matrix(9.963,0,0,-9.963,255.538,16.834992)" fill="#ffffff"/>
<use data-text="e" xlink:href="#font_20_29" transform="matrix(9.963,0,0,-9.963,261.06748,16.834992)" fill="#ffffff"/>
<use data-text="a" xlink:href="#font_20_23" transform="matrix(9.963,0,0,-9.963,265.49107,16.834992)" fill="#ffffff"/>
<use data-text="r" xlink:href="#font_20_49" transform="matrix(9.963,0,0,-9.963,270.47257,16.834992)" fill="#ffffff"/>
<use data-text="c" xlink:href="#font_20_25" transform="matrix(9.963,0,0,-9.963,274.37806,16.834992)" fill="#ffffff"/>
<use data-text="h" xlink:href="#font_20_34" transform="matrix(9.963,0,0,-9.963,278.532,16.834992)" fill="#ffffff"/>
<use data-text="S" xlink:href="#font_20_18" transform="matrix(9.963,0,0,-9.963,287.38914,16.834992)" fill="#ffffff"/>
<use data-text="p" xlink:href="#font_20_44" transform="matrix(9.963,0,0,-9.963,292.9186,16.834992)" fill="#ffffff"/>
<use data-text="a" xlink:href="#font_20_23" transform="matrix(9.963,0,0,-9.963,298.4481,16.834992)" fill="#ffffff"/>
<use data-text="c" xlink:href="#font_20_25" transform="matrix(9.963,0,0,-9.963,303.4296,16.834992)" fill="#ffffff"/>
<use data-text="e" xlink:href="#font_20_29" transform="matrix(9.963,0,0,-9.963,307.85319,16.834992)" fill="#ffffff"/>
<path transform="matrix(1,0,0,-1,393.3129,.19688416)" d="M0 0H-48.723C-50.924 0-52.709-1.784-52.709-3.985V-24.362C-52.709-26.563-50.924-28.347-48.723-28.347H0C2.201-28.347 3.985-26.563 3.985-24.362V-3.985C3.985-1.784 2.201 0 0 0Z" fill="#ccea84"/>
<path transform="matrix(1,0,0,-1,393.3129,.19688416)" stroke-width=".398" stroke-linecap="butt" stroke-miterlimit="10" stroke-linejoin="miter" fill="none" stroke="#000000" d="M0 0H-48.723C-50.924 0-52.709-1.784-52.709-3.985V-24.362C-52.709-26.563-50.924-28.347-48.723-28.347H0C2.201-28.347 3.985-26.563 3.985-24.362V-3.985C3.985-1.784 2.201 0 0 0Z"/>
<use data-text="T" xlink:href="#font_20_19" transform="matrix(9.963,0,0,-9.963,356.071,17.802979)"/>
<use data-text="u" xlink:href="#font_20_54" transform="matrix(9.963,0,0,-9.963,362.437,17.802979)"/>
<use data-text="n" xlink:href="#font_20_41" transform="matrix(9.963,0,0,-9.963,367.9665,17.802979)"/>
<use data-text="e" xlink:href="#font_20_29" transform="matrix(9.963,0,0,-9.963,373.49598,17.802979)"/>
<use data-text="r" xlink:href="#font_20_49" transform="matrix(9.963,0,0,-9.963,377.91957,17.802979)"/>
<path transform="matrix(1,0,0,-1,251.5788,170.27779)" d="M0 0H-77.07C-79.271 0-81.055-1.784-81.055-3.985V-81.055C-81.055-83.256-79.271-85.04-77.07-85.04H0C2.201-85.04 3.985-83.256 3.985-81.055V-3.985C3.985-1.784 2.201 0 0 0Z" fill="#9081af"/>
<path transform="matrix(1,0,0,-1,251.5788,170.27779)" stroke-width=".398" stroke-linecap="butt" stroke-miterlimit="10" stroke-linejoin="miter" fill="none" stroke="#000000" d="M0 0H-77.07C-79.271 0-81.055-1.784-81.055-3.985V-81.055C-81.055-83.256-79.271-85.04-77.07-85.04H0C2.201-85.04 3.985-83.256 3.985-81.055V-3.985C3.985-1.784 2.201 0 0 0Z"/>
<use data-text="E" xlink:href="#font_20_5" transform="matrix(9.963,0,0,-9.963,194.024,203.305)" fill="#ffffff"/>
<use data-text="v" xlink:href="#font_20_55" transform="matrix(9.963,0,0,-9.963,200.79885,203.305)" fill="#ffffff"/>
<use data-text="a" xlink:href="#font_20_23" transform="matrix(9.963,0,0,-9.963,205.50139,203.305)" fill="#ffffff"/>
<use data-text="l" xlink:href="#font_20_39" transform="matrix(9.963,0,0,-9.963,210.4829,203.305)" fill="#ffffff"/>
<use data-text="u" xlink:href="#font_20_54" transform="matrix(9.963,0,0,-9.963,213.25261,203.305)" fill="#ffffff"/>
<use data-text="a" xlink:href="#font_20_23" transform="matrix(9.963,0,0,-9.963,218.78208,203.305)" fill="#ffffff"/>
<use data-text="t" xlink:href="#font_20_51" transform="matrix(9.963,0,0,-9.963,223.76358,203.305)" fill="#ffffff"/>
<use data-text="e" xlink:href="#font_20_29" transform="matrix(9.963,0,0,-9.963,227.63919,203.305)" fill="#ffffff"/>
<use data-text="b" xlink:href="#font_20_24" transform="matrix(9.963,0,0,-9.963,207.788,215.26)" fill="#ffffff"/>
<use data-text="y" xlink:href="#font_20_57" transform="matrix(9.963,0,0,-9.963,213.0385,215.26)" fill="#ffffff"/>
<use data-text="R" xlink:href="#font_20_17" transform="matrix(9.963,0,0,-9.963,187.771,227.215)" fill="#ffffff"/>
<use data-text="e" xlink:href="#font_20_29" transform="matrix(9.963,0,0,-9.963,195.10376,227.215)" fill="#ffffff"/>
<use data-text="s" xlink:href="#font_20_50" transform="matrix(9.963,0,0,-9.963,199.52733,227.215)" fill="#ffffff"/>
<use data-text="a" xlink:href="#font_20_23" transform="matrix(9.963,0,0,-9.963,203.45275,227.215)" fill="#ffffff"/>
<use data-text="m" xlink:href="#font_20_40" transform="matrix(9.963,0,0,-9.963,208.43425,227.215)" fill="#ffffff"/>
<use data-text="p" xlink:href="#font_20_44" transform="matrix(9.963,0,0,-9.963,216.73343,227.215)" fill="#ffffff"/>
<use data-text="l" xlink:href="#font_20_39" transform="matrix(9.963,0,0,-9.963,222.2629,227.215)" fill="#ffffff"/>
<use data-text="i" xlink:href="#font_20_36" transform="matrix(9.963,0,0,-9.963,225.03261,227.215)" fill="#ffffff"/>
<use data-text="n" xlink:href="#font_20_41" transform="matrix(9.963,0,0,-9.963,227.80233,227.215)" fill="#ffffff"/>
<use data-text="g" xlink:href="#font_20_33" transform="matrix(9.963,0,0,-9.963,233.33179,227.215)" fill="#ffffff"/>
<path transform="matrix(1,0,0,-1,138.1916,198.62459)" d="M0 0H-48.723C-50.924 0-52.709-1.784-52.709-3.985V-24.362C-52.709-26.563-50.924-28.347-48.723-28.347H0C2.201-28.347 3.985-26.563 3.985-24.362V-3.985C3.985-1.784 2.201 0 0 0Z" fill="#97d7c2"/>
<path transform="matrix(1,0,0,-1,138.1916,198.62459)" stroke-width=".398" stroke-linecap="butt" stroke-miterlimit="10" stroke-linejoin="miter" fill="none" stroke="#000000" d="M0 0H-48.723C-50.924 0-52.709-1.784-52.709-3.985V-24.362C-52.709-26.563-50.924-28.347-48.723-28.347H0C2.201-28.347 3.985-26.563 3.985-24.362V-3.985C3.985-1.784 2.201 0 0 0Z"/>
<use data-text="O" xlink:href="#font_20_14" transform="matrix(9.963,0,0,-9.963,92.944,215.26)"/>
<use data-text="b" xlink:href="#font_20_24" transform="matrix(9.963,0,0,-9.963,100.69521,215.26)"/>
<use data-text="j" xlink:href="#font_20_37" transform="matrix(9.963,0,0,-9.963,106.782,215.26)"/>
<use data-text="e" xlink:href="#font_20_29" transform="matrix(9.963,0,0,-9.963,109.82067,215.26)"/>
<use data-text="c" xlink:href="#font_20_25" transform="matrix(9.963,0,0,-9.963,114.25425,215.26)"/>
<use data-text="t" xlink:href="#font_20_51" transform="matrix(9.963,0,0,-9.963,118.677829,215.26)"/>
<use data-text="i" xlink:href="#font_20_36" transform="matrix(9.963,0,0,-9.963,122.55344,215.26)"/>
<use data-text="v" xlink:href="#font_20_55" transform="matrix(9.963,0,0,-9.963,125.32315,215.26)"/>
<use data-text="e" xlink:href="#font_20_29" transform="matrix(9.963,0,0,-9.963,130.30461,215.26)"/>
<path transform="matrix(1,0,0,-1,53.151094,113.58409)" d="M0 0H-48.723C-50.924 0-52.709-1.784-52.709-3.985V-24.362C-52.709-26.563-50.924-28.347-48.723-28.347H0C2.201-28.347 3.985-26.563 3.985-24.362V-3.985C3.985-1.784 2.201 0 0 0Z" fill="#3b528b"/>
<path transform="matrix(1,0,0,-1,53.151094,113.58409)" stroke-width=".398" stroke-linecap="butt" stroke-miterlimit="10" stroke-linejoin="miter" fill="none" stroke="#000000" d="M0 0H-48.723C-50.924 0-52.709-1.784-52.709-3.985V-24.362C-52.709-26.563-50.924-28.347-48.723-28.347H0C2.201-28.347 3.985-26.563 3.985-24.362V-3.985C3.985-1.784 2.201 0 0 0Z"/>
<use data-text="T" xlink:href="#font_20_19" transform="matrix(9.963,0,0,-9.963,18.528,131.189)" fill="#ffffff"/>
<use data-text="a" xlink:href="#font_20_23" transform="matrix(9.963,0,0,-9.963,24.894,131.189)" fill="#ffffff"/>
<use data-text="s" xlink:href="#font_20_50" transform="matrix(9.963,0,0,-9.963,29.8755,131.189)" fill="#ffffff"/>
<use data-text="k" xlink:href="#font_20_38" transform="matrix(9.963,0,0,-9.963,33.800924,131.189)" fill="#ffffff"/>
<path transform="matrix(1,0,0,-1,53.151094,170.27779)" d="M0 0H-48.723C-50.924 0-52.709-1.784-52.709-3.985V-24.362C-52.709-26.563-50.924-28.347-48.723-28.347H0C2.201-28.347 3.985-26.563 3.985-24.362V-3.985C3.985-1.784 2.201 0 0 0Z" fill="#3b528b"/>
<path transform="matrix(1,0,0,-1,53.151094,170.27779)" stroke-width=".398" stroke-linecap="butt" stroke-miterlimit="10" stroke-linejoin="miter" fill="none" stroke="#000000" d="M0 0H-48.723C-50.924 0-52.709-1.784-52.709-3.985V-24.362C-52.709-26.563-50.924-28.347-48.723-28.347H0C2.201-28.347 3.985-26.563 3.985-24.362V-3.985C3.985-1.784 2.201 0 0 0Z"/>
<use data-text="L" xlink:href="#font_20_11" transform="matrix(9.963,0,0,-9.963,12.096,187.88199)" fill="#ffffff"/>
<use data-text="e" xlink:href="#font_20_29" transform="matrix(9.963,0,0,-9.963,18.322876,187.88199)" fill="#ffffff"/>
<use data-text="a" xlink:href="#font_20_23" transform="matrix(9.963,0,0,-9.963,22.746449,187.88199)" fill="#ffffff"/>
<use data-text="r" xlink:href="#font_20_49" transform="matrix(9.963,0,0,-9.963,27.72795,187.88199)" fill="#ffffff"/>
<use data-text="n" xlink:href="#font_20_41" transform="matrix(9.963,0,0,-9.963,31.633446,187.88199)" fill="#ffffff"/>
<use data-text="e" xlink:href="#font_20_29" transform="matrix(9.963,0,0,-9.963,37.16291,187.88199)" fill="#ffffff"/>
<use data-text="r" xlink:href="#font_20_49" transform="matrix(9.963,0,0,-9.963,41.586484,187.88199)" fill="#ffffff"/>
<path transform="matrix(1,0,0,-1,53.398408,226.97139)" d="M0 0H-49.218C-51.419 0-53.203-1.784-53.203-3.985V-24.362C-53.203-26.563-51.419-28.347-49.218-28.347H0C2.201-28.347 3.985-26.563 3.985-24.362V-3.985C3.985-1.784 2.201 0 0 0Z" fill="#3b528b"/>
<path transform="matrix(1,0,0,-1,53.398408,226.97139)" stroke-width=".398" stroke-linecap="butt" stroke-miterlimit="10" stroke-linejoin="miter" fill="none" stroke="#000000" d="M0 0H-49.218C-51.419 0-53.203-1.784-53.203-3.985V-24.362C-53.203-26.563-51.419-28.347-49.218-28.347H0C2.201-28.347 3.985-26.563 3.985-24.362V-3.985C3.985-1.784 2.201 0 0 0Z"/>
<use data-text="R" xlink:href="#font_20_17" transform="matrix(9.963,0,0,-9.963,3.519,243.607)" fill="#ffffff"/>
<use data-text="e" xlink:href="#font_20_29" transform="matrix(9.963,0,0,-9.963,10.8517689,243.607)" fill="#ffffff"/>
<use data-text="s" xlink:href="#font_20_50" transform="matrix(9.963,0,0,-9.963,15.275341,243.607)" fill="#ffffff"/>
<use data-text="a" xlink:href="#font_20_23" transform="matrix(9.963,0,0,-9.963,19.200764,243.607)" fill="#ffffff"/>
<use data-text="m" xlink:href="#font_20_40" transform="matrix(9.963,0,0,-9.963,24.182265,243.607)" fill="#ffffff"/>
<use data-text="p" xlink:href="#font_20_44" transform="matrix(9.963,0,0,-9.963,32.481447,243.607)" fill="#ffffff"/>
<use data-text="l" xlink:href="#font_20_39" transform="matrix(9.963,0,0,-9.963,38.01091,243.607)" fill="#ffffff"/>
<use data-text="i" xlink:href="#font_20_36" transform="matrix(9.963,0,0,-9.963,40.780626,243.607)" fill="#ffffff"/>
<use data-text="n" xlink:href="#font_20_41" transform="matrix(9.963,0,0,-9.963,43.55034,243.607)" fill="#ffffff"/>
<use data-text="g" xlink:href="#font_20_33" transform="matrix(9.963,0,0,-9.963,49.079805,243.607)" fill="#ffffff"/>
<path transform="matrix(1,0,0,-1,53.151094,283.66499)" d="M0 0H-48.723C-50.924 0-52.709-1.784-52.709-3.985V-24.362C-52.709-26.563-50.924-28.347-48.723-28.347H0C2.201-28.347 3.985-26.563 3.985-24.362V-3.985C3.985-1.784 2.201 0 0 0Z" fill="#3b528b"/>
<path transform="matrix(1,0,0,-1,53.151094,283.66499)" stroke-width=".398" stroke-linecap="butt" stroke-miterlimit="10" stroke-linejoin="miter" fill="none" stroke="#000000" d="M0 0H-48.723C-50.924 0-52.709-1.784-52.709-3.985V-24.362C-52.709-26.563-50.924-28.347-48.723-28.347H0C2.201-28.347 3.985-26.563 3.985-24.362V-3.985C3.985-1.784 2.201 0 0 0Z"/>
<use data-text="M" xlink:href="#font_20_12" transform="matrix(9.963,0,0,-9.963,10.629,301.268)" fill="#ffffff"/>
<use data-text="e" xlink:href="#font_20_29" transform="matrix(9.963,0,0,-9.963,19.755108,301.268)" fill="#ffffff"/>
<use data-text="a" xlink:href="#font_20_23" transform="matrix(9.963,0,0,-9.963,24.17868,301.268)" fill="#ffffff"/>
<use data-text="s" xlink:href="#font_20_50" transform="matrix(9.963,0,0,-9.963,29.160181,301.268)" fill="#ffffff"/>
<use data-text="u" xlink:href="#font_20_54" transform="matrix(9.963,0,0,-9.963,33.0856,301.268)" fill="#ffffff"/>
<use data-text="r" xlink:href="#font_20_49" transform="matrix(9.963,0,0,-9.963,38.615068,301.268)" fill="#ffffff"/>
<use data-text="e" xlink:href="#font_20_29" transform="matrix(9.963,0,0,-9.963,42.52056,301.268)" fill="#ffffff"/>
<path transform="matrix(1,0,0,-1,478.3534,170.27779)" d="M0 0H-77.07C-79.271 0-81.055-1.784-81.055-3.985V-81.055C-81.055-83.256-79.271-85.04-77.07-85.04H0C2.201-85.04 3.985-83.256 3.985-81.055V-3.985C3.985-1.784 2.201 0 0 0Z" fill="#9081af"/>
<path transform="matrix(1,0,0,-1,478.3534,170.27779)" stroke-width=".398" stroke-linecap="butt" stroke-miterlimit="10" stroke-linejoin="miter" fill="none" stroke="#000000" d="M0 0H-77.07C-79.271 0-81.055-1.784-81.055-3.985V-81.055C-81.055-83.256-79.271-85.04-77.07-85.04H0C2.201-85.04 3.985-83.256 3.985-81.055V-3.985C3.985-1.784 2.201 0 0 0Z"/>
<use data-text="U" xlink:href="#font_20_20" transform="matrix(9.963,0,0,-9.963,423.77,210.25099)" fill="#ffffff"/>
<use data-text="p" xlink:href="#font_20_44" transform="matrix(9.963,0,0,-9.963,431.24226,210.25099)" fill="#ffffff"/>
<use data-text="d" xlink:href="#font_20_28" transform="matrix(9.963,0,0,-9.963,437.0507,210.25099)" fill="#ffffff"/>
<use data-text="a" xlink:href="#font_20_23" transform="matrix(9.963,0,0,-9.963,442.58018,210.25099)" fill="#ffffff"/>
<use data-text="t" xlink:href="#font_20_51" transform="matrix(9.963,0,0,-9.963,447.56169,210.25099)" fill="#ffffff"/>
<use data-text="e" xlink:href="#font_20_29" transform="matrix(9.963,0,0,-9.963,451.4373,210.25099)" fill="#ffffff"/>
<use data-text="T" xlink:href="#font_20_19" transform="matrix(9.963,0,0,-9.963,426.938,222.206)" fill="#ffffff"/>
<use data-text="u" xlink:href="#font_20_54" transform="matrix(9.963,0,0,-9.963,433.30436,222.206)" fill="#ffffff"/>
<use data-text="n" xlink:href="#font_20_41" transform="matrix(9.963,0,0,-9.963,438.83384,222.206)" fill="#ffffff"/>
<use data-text="e" xlink:href="#font_20_29" transform="matrix(9.963,0,0,-9.963,444.3633,222.206)" fill="#ffffff"/>
<use data-text="r" xlink:href="#font_20_49" transform="matrix(9.963,0,0,-9.963,448.7869,222.206)" fill="#ffffff"/>
<path transform="matrix(1,0,0,-1,350.7927,255.31819)" d="M0 0H-48.723C-50.924 0-52.708-1.784-52.708-3.985V-24.362C-52.708-26.563-50.924-28.347-48.723-28.347H0C2.201-28.347 3.985-26.563 3.985-24.362V-3.985C3.985-1.784 2.201 0 0 0Z" fill="#3b528b"/>
<path transform="matrix(1,0,0,-1,350.7927,255.31819)" stroke-width=".398" stroke-linecap="butt" stroke-miterlimit="10" stroke-linejoin="miter" fill="none" stroke="#000000" d="M0 0H-48.723C-50.924 0-52.708-1.784-52.708-3.985V-24.362C-52.708-26.563-50.924-28.347-48.723-28.347H0C2.201-28.347 3.985-26.563 3.985-24.362V-3.985C3.985-1.784 2.201 0 0 0Z"/>
<use data-text="T" xlink:href="#font_20_19" transform="matrix(9.963,0,0,-9.963,301.918,272.921)" fill="#ffffff"/>
<use data-text="e" xlink:href="#font_20_29" transform="matrix(9.963,0,0,-9.963,308.28437,272.921)" fill="#ffffff"/>
<use data-text="r" xlink:href="#font_20_49" transform="matrix(9.963,0,0,-9.963,312.70796,272.921)" fill="#ffffff"/>
<use data-text="m" xlink:href="#font_20_40" transform="matrix(9.963,0,0,-9.963,316.61344,272.921)" fill="#ffffff"/>
<use data-text="i" xlink:href="#font_20_36" transform="matrix(9.963,0,0,-9.963,324.91264,272.921)" fill="#ffffff"/>
<use data-text="n" xlink:href="#font_20_41" transform="matrix(9.963,0,0,-9.963,327.68235,272.921)" fill="#ffffff"/>
<use data-text="a" xlink:href="#font_20_23" transform="matrix(9.963,0,0,-9.963,333.21183,272.921)" fill="#ffffff"/>
<use data-text="t" xlink:href="#font_20_51" transform="matrix(9.963,0,0,-9.963,338.19334,272.921)" fill="#ffffff"/>
<use data-text="o" xlink:href="#font_20_42" transform="matrix(9.963,0,0,-9.963,342.06895,272.921)" fill="#ffffff"/>
<use data-text="r" xlink:href="#font_20_49" transform="matrix(9.963,0,0,-9.963,347.05046,272.921)" fill="#ffffff"/>
<path transform="matrix(1,0,0,-1,167.3354,212.79799)" stroke-width=".996" stroke-linecap="butt" stroke-miterlimit="10" stroke-linejoin="miter" fill="none" stroke="#929292" d="M0 0H-21.971"/>
<path transform="matrix(1,0,0,-1,326.431,53.702394)" stroke-width=".996" stroke-linecap="butt" stroke-miterlimit="10" stroke-linejoin="miter" fill="none" stroke="#929292" d="M0 0V-2.989 11.185H42.52V14.173"/>
<path transform="matrix(1,0,0,-1,326.431,53.702394)" stroke-width=".996" stroke-linecap="butt" stroke-miterlimit="10" stroke-linejoin="miter" fill="none" stroke="#929292" d="M0 0V-2.989 11.185H-42.52V14.173"/>
<path transform="matrix(1,0,0,-1,82.295,212.79799)" stroke-width=".996" stroke-linecap="butt" stroke-miterlimit="10" stroke-linejoin="miter" fill="none" stroke="#929292" d="M0 0H-11.185V85.04H-14.432"/>
<path transform="matrix(1,0,0,-1,82.295,212.79799)" stroke-width=".996" stroke-linecap="butt" stroke-miterlimit="10" stroke-linejoin="miter" fill="none" stroke="#929292" d="M0 0H-11.185V28.347H-14.432"/>
<path transform="matrix(1,0,0,-1,82.295,212.79799)" stroke-width=".996" stroke-linecap="butt" stroke-miterlimit="10" stroke-linejoin="miter" fill="none" stroke="#929292" d="M0 0H-11.185V-28.347H-14.432"/>
<path transform="matrix(1,0,0,-1,82.295,212.79799)" stroke-width=".996" stroke-linecap="butt" stroke-miterlimit="10" stroke-linejoin="miter" fill="none" stroke="#929292" d="M0 0H-11.185V-85.04H-14.432"/>
</svg>
