<?xml version="1.0" encoding="UTF-8" standalone="no"?>
<svg
   xmlns:dc="http://purl.org/dc/elements/1.1/"
   xmlns:cc="http://creativecommons.org/ns#"
   xmlns:rdf="http://www.w3.org/1999/02/22-rdf-syntax-ns#"
   xmlns:svg="http://www.w3.org/2000/svg"
   xmlns="http://www.w3.org/2000/svg"
   xmlns:sodipodi="http://sodipodi.sourceforge.net/DTD/sodipodi-0.dtd"
   xmlns:inkscape="http://www.inkscape.org/namespaces/inkscape"
   version="1.1"
   viewBox="0 0 607.4646 247.62207"
   stroke-miterlimit="10"
   id="svg99"
   sodipodi:docname="mlr3Pipelines graphics user 2019.svg"
   width="607.4646"
   height="247.62207"
   style="fill:none;stroke:none;stroke-linecap:square;stroke-miterlimit:10"
   inkscape:version="0.92.4 5da689c313, 2019-01-14">
  <metadata
     id="metadata105">
    <rdf:RDF>
      <cc:Work
         rdf:about="">
        <dc:format>image/svg+xml</dc:format>
        <dc:type
           rdf:resource="http://purl.org/dc/dcmitype/StillImage" />
        <dc:title></dc:title>
      </cc:Work>
    </rdf:RDF>
  </metadata>
  <defs
     id="defs103" />
  <sodipodi:namedview
     pagecolor="#ffffff"
     bordercolor="#666666"
     borderopacity="1"
     objecttolerance="10"
     gridtolerance="10"
     guidetolerance="10"
     inkscape:pageopacity="0"
     inkscape:pageshadow="2"
     inkscape:window-width="2560"
     inkscape:window-height="1381"
     id="namedview101"
     showgrid="false"
     fit-margin-top="0"
     fit-margin-left="0"
     fit-margin-right="0"
     fit-margin-bottom="0"
     inkscape:zoom="0.79375"
     inkscape:cx="175.48169"
     inkscape:cy="52.891842"
     inkscape:window-x="0"
     inkscape:window-y="0"
     inkscape:window-maximized="1"
     inkscape:current-layer="svg99" />
  <clipPath
     id="g5cc48913b2_0_111.0">
    <path
       d="M 0,0 H 960 V 540 H 0 Z"
       id="path2"
       inkscape:connector-curvature="0"
       style="clip-rule:nonzero" />
  </clipPath>
  <path
     style="fill:#f3f3f3;fill-rule:evenodd"
     inkscape:connector-curvature="0"
     id="path7"
     d="m 2,42.60449 v 0 C 2,20.17926 20.17926,2 42.60449,2 h 522.2556 c 10.76898,0 21.09693,4.27795 28.71173,11.89279 7.61481,7.61481 11.89276,17.94272 11.89276,28.7117 v 162.41306 c 0,22.42526 -18.17926,40.60452 -40.60449,40.60452 H 42.60449 v 0 C 20.17926,245.62207 2,227.44281 2,205.01755 Z" />
  <path
     style="fill-rule:evenodd;stroke:#990000;stroke-width:4;stroke-linecap:butt;stroke-linejoin:round"
     inkscape:connector-curvature="0"
     id="path9"
     d="m 2,42.60449 v 0 C 2,20.17926 20.17926,2 42.60449,2 h 522.2556 c 10.76898,0 21.09693,4.27795 28.71173,11.89279 7.61481,7.61481 11.89276,17.94272 11.89276,28.7117 v 162.41306 c 0,22.42526 -18.17926,40.60452 -40.60449,40.60452 H 42.60449 v 0 C 20.17926,245.62207 2,227.44281 2,205.01755 Z" />
  <path
     style="fill:#d0e0e3;fill-rule:evenodd"
     inkscape:connector-curvature="0"
     id="path11"
     d="m 23.189,93.15236 v 0 c 0,-3.81534 3.09293,-6.90829 6.90826,-6.90829 h 70.02597 c 1.83219,0 3.58933,0.72784 4.88489,2.0234 1.29556,1.29557 2.02338,3.05271 2.02338,4.88489 v 27.63226 c 0,3.81534 -3.09293,6.90827 -6.90827,6.90827 H 30.09726 c -3.81533,0 -6.90826,-3.09293 -6.90826,-6.90827 z" />
  <path
     style="fill-rule:evenodd;stroke:#595959;stroke-width:1;stroke-linecap:butt;stroke-linejoin:round"
     inkscape:connector-curvature="0"
     id="path13"
     d="m 23.189,93.15236 v 0 c 0,-3.81534 3.09293,-6.90829 6.90826,-6.90829 h 70.02597 c 1.83219,0 3.58933,0.72784 4.88489,2.0234 1.29556,1.29557 2.02338,3.05271 2.02338,4.88489 v 27.63226 c 0,3.81534 -3.09293,6.90827 -6.90827,6.90827 H 30.09726 c -3.81533,0 -6.90826,-3.09293 -6.90826,-6.90827 z" />
  <path
     style="fill:#d0e0e3;fill-rule:evenodd"
     inkscape:connector-curvature="0"
     id="path15"
     d="m 194.39896,37.87414 v 0 c 0,-3.81534 3.09293,-6.90826 6.90826,-6.90826 h 70.026 c 1.83216,0 3.5893,0.72784 4.88489,2.02337 1.29553,1.29557 2.02338,3.05271 2.02338,4.88489 V 65.5064 c 0,3.81534 -3.09296,6.9083 -6.90827,6.9083 h -70.026 c -3.81533,0 -6.90826,-3.09296 -6.90826,-6.9083 z" />
  <path
     style="fill-rule:evenodd;stroke:#595959;stroke-width:1;stroke-linecap:butt;stroke-linejoin:round"
     inkscape:connector-curvature="0"
     id="path17"
     d="m 194.39896,37.87414 v 0 c 0,-3.81534 3.09293,-6.90826 6.90826,-6.90826 h 70.026 c 1.83216,0 3.5893,0.72784 4.88489,2.02337 1.29553,1.29557 2.02338,3.05271 2.02338,4.88489 V 65.5064 c 0,3.81534 -3.09296,6.9083 -6.90827,6.9083 h -70.026 c -3.81533,0 -6.90826,-3.09296 -6.90826,-6.9083 z" />
  <path
     style="fill:#d0e0e3;fill-rule:evenodd"
     inkscape:connector-curvature="0"
     id="path19"
     d="m 147.5643,149.35183 v 0 c 0,-3.81534 3.09296,-6.90826 6.90829,-6.90826 h 70.02597 c 1.83219,0 3.58936,0.72784 4.88489,2.02337 1.29553,1.29557 2.02338,3.05271 2.02338,4.88489 v 27.63226 c 0,3.81534 -3.09296,6.9083 -6.90827,6.9083 h -70.02597 c -3.81533,0 -6.90829,-3.09296 -6.90829,-6.9083 z" />
  <path
     style="fill-rule:evenodd;stroke:#595959;stroke-width:1;stroke-linecap:butt;stroke-linejoin:round"
     inkscape:connector-curvature="0"
     id="path21"
     d="m 147.5643,149.35183 v 0 c 0,-3.81534 3.09296,-6.90826 6.90829,-6.90826 h 70.02597 c 1.83219,0 3.58936,0.72784 4.88489,2.02337 1.29553,1.29557 2.02338,3.05271 2.02338,4.88489 v 27.63226 c 0,3.81534 -3.09296,6.9083 -6.90827,6.9083 h -70.02597 c -3.81533,0 -6.90829,-3.09296 -6.90829,-6.9083 z" />
  <path
     style="fill:#d0e0e3;fill-rule:evenodd"
     inkscape:connector-curvature="0"
     id="path23"
     d="m 329.98426,37.87414 v 0 c 0,-3.81534 3.0929,-6.90826 6.90826,-6.90826 h 70.02594 c 1.83222,0 3.58936,0.72784 4.88489,2.02337 1.29559,1.29557 2.02338,3.05271 2.02338,4.88489 V 65.5064 c 0,3.81534 -3.0929,6.9083 -6.90827,6.9083 h -70.02594 c -3.81536,0 -6.90826,-3.09296 -6.90826,-6.9083 z" />
  <path
     style="fill-rule:evenodd;stroke:#595959;stroke-width:1;stroke-linecap:butt;stroke-linejoin:round"
     inkscape:connector-curvature="0"
     id="path25"
     d="m 329.98426,37.87414 v 0 c 0,-3.81534 3.0929,-6.90826 6.90826,-6.90826 h 70.02594 c 1.83222,0 3.58936,0.72784 4.88489,2.02337 1.29559,1.29557 2.02338,3.05271 2.02338,4.88489 V 65.5064 c 0,3.81534 -3.0929,6.9083 -6.90827,6.9083 h -70.02594 c -3.81536,0 -6.90826,-3.09296 -6.90826,-6.9083 z" />
  <path
     style="fill:#d0e0e3;fill-rule:evenodd"
     inkscape:connector-curvature="0"
     id="path27"
     d="m 259.96329,107.90299 v 0 c 0,-3.81534 3.0929,-6.90826 6.90826,-6.90826 h 70.02594 c 1.83222,0 3.58936,0.72784 4.88489,2.02337 1.2956,1.29557 2.02338,3.05271 2.02338,4.88489 v 27.63229 c 0,3.81531 -3.0929,6.90827 -6.90827,6.90827 h -70.02594 c -3.81536,0 -6.90826,-3.09296 -6.90826,-6.90827 z" />
  <path
     style="fill-rule:evenodd;stroke:#595959;stroke-width:1;stroke-linecap:butt;stroke-linejoin:round"
     inkscape:connector-curvature="0"
     id="path29"
     d="m 259.96329,107.90299 v 0 c 0,-3.81534 3.0929,-6.90826 6.90826,-6.90826 h 70.02594 c 1.83222,0 3.58936,0.72784 4.88489,2.02337 1.2956,1.29557 2.02338,3.05271 2.02338,4.88489 v 27.63229 c 0,3.81531 -3.0929,6.90827 -6.90827,6.90827 h -70.02594 c -3.81536,0 -6.90826,-3.09296 -6.90826,-6.90827 z" />
  <path
     style="fill:#d0e0e3;fill-rule:evenodd"
     inkscape:connector-curvature="0"
     id="path31"
     d="m 259.96329,190.80065 v 0 c 0,-3.81534 3.0929,-6.90826 6.90826,-6.90826 h 70.02594 c 1.83222,0 3.58936,0.72781 4.88489,2.02337 1.2956,1.29557 2.02338,3.05271 2.02338,4.88489 v 27.63226 c 0,3.81534 -3.0929,6.9083 -6.90827,6.9083 h -70.02594 c -3.81536,0 -6.90826,-3.09296 -6.90826,-6.9083 z" />
  <path
     style="fill-rule:evenodd;stroke:#595959;stroke-width:1;stroke-linecap:butt;stroke-linejoin:round"
     inkscape:connector-curvature="0"
     id="path33"
     d="m 259.96329,190.80065 v 0 c 0,-3.81534 3.0929,-6.90826 6.90826,-6.90826 h 70.02594 c 1.83222,0 3.58936,0.72781 4.88489,2.02337 1.2956,1.29557 2.02338,3.05271 2.02338,4.88489 v 27.63226 c 0,3.81534 -3.0929,6.9083 -6.90827,6.9083 h -70.02594 c -3.81536,0 -6.90826,-3.09296 -6.90826,-6.9083 z" />
  <path
     style="fill:#d0e0e3;fill-rule:evenodd"
     inkscape:connector-curvature="0"
     id="path35"
     d="m 372.36222,149.35183 v 0 c 0,-3.81534 3.09296,-6.90826 6.90826,-6.90826 h 70.026 c 1.83216,0 3.5893,0.72784 4.88489,2.02337 1.29553,1.29557 2.02338,3.05271 2.02338,4.88489 v 27.63226 c 0,3.81534 -3.09296,6.9083 -6.90827,6.9083 h -70.026 c -3.8153,0 -6.90826,-3.09296 -6.90826,-6.9083 z" />
  <path
     style="fill-rule:evenodd;stroke:#595959;stroke-width:1;stroke-linecap:butt;stroke-linejoin:round"
     inkscape:connector-curvature="0"
     id="path37"
     d="m 372.36222,149.35183 v 0 c 0,-3.81534 3.09296,-6.90826 6.90826,-6.90826 h 70.026 c 1.83216,0 3.5893,0.72784 4.88489,2.02337 1.29553,1.29557 2.02338,3.05271 2.02338,4.88489 v 27.63226 c 0,3.81534 -3.09296,6.9083 -6.90827,6.9083 h -70.026 c -3.8153,0 -6.90826,-3.09296 -6.90826,-6.9083 z" />
  <path
     style="fill:#ffab40;fill-rule:evenodd"
     inkscape:connector-curvature="0"
     id="path39"
     d="m 496.73752,93.15236 v 0 c 0,-3.81534 3.09296,-6.90829 6.90833,-6.90829 h 70.02593 c 1.83222,0 3.58936,0.72784 4.88489,2.0234 1.29553,1.29557 2.02338,3.05271 2.02338,4.88489 v 27.63226 c 0,3.81534 -3.09296,6.90827 -6.90826,6.90827 h -70.02594 c -3.81537,0 -6.90833,-3.09293 -6.90833,-6.90827 z" />
  <path
     style="fill-rule:evenodd;stroke:#595959;stroke-width:1;stroke-linecap:butt;stroke-linejoin:round"
     inkscape:connector-curvature="0"
     id="path41"
     d="m 496.73752,93.15236 v 0 c 0,-3.81534 3.09296,-6.90829 6.90833,-6.90829 h 70.02593 c 1.83222,0 3.58936,0.72784 4.88489,2.0234 1.29553,1.29557 2.02338,3.05271 2.02338,4.88489 v 27.63226 c 0,3.81534 -3.09296,6.90827 -6.90826,6.90827 h -70.02594 c -3.81537,0 -6.90833,-3.09293 -6.90833,-6.90827 z" />
  <path
     style="fill:#000000;fill-opacity:0;fill-rule:evenodd"
     inkscape:connector-curvature="0"
     id="path43"
     d="m 107.02886,105.59316 40.53543,57.5748" />
  <path
     style="fill-rule:evenodd;stroke:#990000;stroke-width:4;stroke-linecap:butt;stroke-linejoin:round"
     inkscape:connector-curvature="0"
     id="path45"
     d="m 107.02886,105.59316 26.71909,37.95062" />
  <path
     style="fill:#990000;fill-rule:evenodd;stroke:#990000;stroke-width:4;stroke-linecap:butt"
     inkscape:connector-curvature="0"
     id="path47"
     d="m 128.34566,147.34729 15.8523,11.03925 -5.04767,-18.64621 z" />
  <path
     style="fill:#000000;fill-opacity:0;fill-rule:evenodd"
     inkscape:connector-curvature="0"
     id="path49"
     d="m 107.0315,106.96849 87.37009,-55.2756" />
  <path
     style="fill-rule:evenodd;stroke:#990000;stroke-width:4;stroke-linecap:butt;stroke-linejoin:round"
     inkscape:connector-curvature="0"
     id="path51"
     d="M 107.0315,106.96849 174.11976,64.5244" />
  <path
     style="fill:#990000;fill-rule:evenodd;stroke:#990000;stroke-width:4;stroke-linecap:butt"
     inkscape:connector-curvature="0"
     id="path53"
     d="M 177.65213,70.10779 189.4599,54.81931 170.5874,58.94107 Z" />
  <path
     style="fill:#000000;fill-opacity:0;fill-rule:evenodd"
     inkscape:connector-curvature="0"
     id="path55"
     d="m 278.24146,51.69027 h 51.74805" />
  <path
     style="fill-rule:evenodd;stroke:#990000;stroke-width:4;stroke-linecap:butt;stroke-linejoin:round"
     inkscape:connector-curvature="0"
     id="path57"
     d="m 278.24146,51.69027 h 27.74805" />
  <path
     style="fill:#990000;fill-rule:evenodd;stroke:#990000;stroke-width:4;stroke-linecap:butt"
     inkscape:connector-curvature="0"
     id="path59"
     d="M 305.98956,58.29719 324.1419,51.69026 305.98956,45.08335 Z" />
  <path
     style="fill:#000000;fill-opacity:0;fill-rule:evenodd"
     inkscape:connector-curvature="0"
     id="path61"
     d="m 413.82676,51.69027 82.89764,55.2756" />
  <path
     style="fill-rule:evenodd;stroke:#990000;stroke-width:4;stroke-linecap:butt;stroke-linejoin:round"
     inkscape:connector-curvature="0"
     id="path63"
     d="m 413.82676,51.69027 62.92963,41.96106" />
  <path
     style="fill:#990000;fill-rule:evenodd;stroke:#990000;stroke-width:4;stroke-linecap:butt"
     inkscape:connector-curvature="0"
     id="path65"
     d="m 473.09106,99.14831 18.76819,4.57346 -11.4375,-15.56742 z" />
  <path
     style="fill:#000000;fill-opacity:0;fill-rule:evenodd"
     inkscape:connector-curvature="0"
     id="path67"
     d="m 343.80576,204.61679 28.56696,-41.44882" />
  <path
     style="fill-rule:evenodd;stroke:#990000;stroke-width:4;stroke-linecap:butt;stroke-linejoin:round"
     inkscape:connector-curvature="0"
     id="path69"
     d="m 343.80576,204.61679 14.94733,-21.68756" />
  <path
     style="fill:#990000;fill-rule:evenodd;stroke:#990000;stroke-width:4;stroke-linecap:butt"
     inkscape:connector-curvature="0"
     id="path71"
     d="m 364.19316,186.67852 4.86114,-18.69571 -15.74127,11.19705 z" />
  <path
     style="fill:#000000;fill-opacity:0;fill-rule:evenodd"
     inkscape:connector-curvature="0"
     id="path73"
     d="m 231.40686,163.16796 28.56696,-41.44882" />
  <path
     style="fill-rule:evenodd;stroke:#990000;stroke-width:4;stroke-linecap:butt;stroke-linejoin:round"
     inkscape:connector-curvature="0"
     id="path75"
     d="M 231.40686,163.16796 246.35419,141.4804" />
  <path
     style="fill:#990000;fill-rule:evenodd;stroke:#990000;stroke-width:4;stroke-linecap:butt"
     inkscape:connector-curvature="0"
     id="path77"
     d="m 251.79416,145.22969 4.86114,-18.69571 -15.74121,11.19705 z" />
  <path
     style="fill:#000000;fill-opacity:0;fill-rule:evenodd"
     inkscape:connector-curvature="0"
     id="path79"
     d="m 343.80576,121.71914 28.56696,41.44882" />
  <path
     style="fill-rule:evenodd;stroke:#990000;stroke-width:4;stroke-linecap:butt;stroke-linejoin:round"
     inkscape:connector-curvature="0"
     id="path81"
     d="m 343.80576,121.71914 14.94733,21.68759" />
  <path
     style="fill:#990000;fill-rule:evenodd;stroke:#990000;stroke-width:4;stroke-linecap:butt"
     inkscape:connector-curvature="0"
     id="path83"
     d="m 353.31302,147.15609 15.74127,11.19705 -4.86114,-18.69571 z" />
  <path
     style="fill:#000000;fill-opacity:0;fill-rule:evenodd"
     inkscape:connector-curvature="0"
     id="path85"
     d="m 231.40686,163.16796 28.56696,41.44882" />
  <path
     style="fill-rule:evenodd;stroke:#990000;stroke-width:4;stroke-linecap:butt;stroke-linejoin:round"
     inkscape:connector-curvature="0"
     id="path87"
     d="m 231.40686,163.16796 14.94733,21.68759" />
  <path
     style="fill:#990000;fill-rule:evenodd;stroke:#990000;stroke-width:4;stroke-linecap:butt"
     inkscape:connector-curvature="0"
     id="path89"
     d="m 240.9141,188.60491 15.74121,11.19705 -4.86114,-18.69571 z" />
  <path
     style="fill:#000000;fill-opacity:0;fill-rule:evenodd"
     inkscape:connector-curvature="0"
     id="path91"
     d="M 456.20476,163.16796 496.74016,106.979" />
  <path
     style="fill-rule:evenodd;stroke:#990000;stroke-width:4;stroke-linecap:butt;stroke-linejoin:round"
     inkscape:connector-curvature="0"
     id="path93"
     d="m 456.20476,163.16796 26.49402,-36.72519" />
  <path
     style="fill:#990000;fill-rule:evenodd;stroke:#990000;stroke-width:4;stroke-linecap:butt"
     inkscape:connector-curvature="0"
     id="path95"
     d="m 488.05692,130.30822 5.26202,-18.58685 -15.97833,10.85595 z" />
</svg>
