<?xml version="1.0" encoding="UTF-8" standalone="no"?>
<svg
   xmlns:dc="http://purl.org/dc/elements/1.1/"
   xmlns:cc="http://creativecommons.org/ns#"
   xmlns:rdf="http://www.w3.org/1999/02/22-rdf-syntax-ns#"
   xmlns:svg="http://www.w3.org/2000/svg"
   xmlns="http://www.w3.org/2000/svg"
   xmlns:sodipodi="http://sodipodi.sourceforge.net/DTD/sodipodi-0.dtd"
   xmlns:inkscape="http://www.inkscape.org/namespaces/inkscape"
   version="1.1"
   viewBox="0 0 714.00787 161.65353"
   stroke-miterlimit="10"
   id="svg173"
   sodipodi:docname="mlr3Pipelines graphics user 2019.svg"
   width="714.00787"
   height="161.65353"
   style="fill:none;stroke:none;stroke-linecap:square;stroke-miterlimit:10"
   inkscape:version="0.92.4 5da689c313, 2019-01-14">
  <metadata
     id="metadata179">
    <rdf:RDF>
      <cc:Work
         rdf:about="">
        <dc:format>image/svg+xml</dc:format>
        <dc:type
           rdf:resource="http://purl.org/dc/dcmitype/StillImage" />
        <dc:title></dc:title>
      </cc:Work>
    </rdf:RDF>
  </metadata>
  <defs
     id="defs177" />
  <sodipodi:namedview
     pagecolor="#ffffff"
     bordercolor="#666666"
     borderopacity="1"
     objecttolerance="10"
     gridtolerance="10"
     guidetolerance="10"
     inkscape:pageopacity="0"
     inkscape:pageshadow="2"
     inkscape:window-width="2560"
     inkscape:window-height="1381"
     id="namedview175"
     showgrid="false"
     fit-margin-top="0"
     fit-margin-left="0"
     fit-margin-right="0"
     fit-margin-bottom="0"
     inkscape:zoom="1.122532"
     inkscape:cx="323.36238"
     inkscape:cy="-53.863504"
     inkscape:window-x="0"
     inkscape:window-y="0"
     inkscape:window-maximized="1"
     inkscape:current-layer="svg173" />
  <clipPath
     id="g5cc48913b2_0_1139.0">
    <path
       d="M 0,0 H 960 V 540 H 0 Z"
       id="path2"
       inkscape:connector-curvature="0"
       style="clip-rule:nonzero" />
  </clipPath>
  <path
     style="fill:#000000;fill-opacity:0;fill-rule:evenodd"
     inkscape:connector-curvature="0"
     id="path5"
     d="m -77.8399,-154.41733 h 960 v 540 h -960 z" />
  <path
     style="fill:#ffab40;fill-rule:evenodd"
     inkscape:connector-curvature="0"
     id="path7"
     d="m 171.65354,27.60945 v 0 C 171.65354,12.91345 183.56699,1 198.26301,1 h 488.13544 c 7.05725,0 13.82544,2.80348 18.81567,7.79373 4.99024,4.99024 7.79376,11.75845 7.79376,18.81572 v 106.43462 c 0,14.69601 -11.91345,26.60946 -26.60943,26.60946 H 198.26301 c -14.69602,0 -26.60947,-11.91345 -26.60947,-26.60946 z" />
  <path
     style="fill-rule:evenodd;stroke:#000000;stroke-width:2;stroke-linecap:butt;stroke-linejoin:round"
     inkscape:connector-curvature="0"
     id="path9"
     d="m 171.65354,27.60945 v 0 C 171.65354,12.91345 183.56699,1 198.26301,1 h 488.13544 c 7.05725,0 13.82544,2.80348 18.81567,7.79373 4.99024,4.99024 7.79376,11.75845 7.79376,18.81572 v 106.43462 c 0,14.69601 -11.91345,26.60946 -26.60943,26.60946 H 198.26301 c -14.69602,0 -26.60947,-11.91345 -26.60947,-26.60946 z" />
  <path
     style="fill:#f3f3f3;fill-rule:evenodd"
     inkscape:connector-curvature="0"
     id="path11"
     d="m 181.1601,32.89549 v 0 c 0,-13.33337 10.80884,-24.14221 24.14221,-24.14221 h 475.08563 c 6.40296,0 12.54358,2.54355 17.07117,7.07109 4.52753,4.52754 7.07104,10.66821 7.07104,17.07112 v 96.56596 c 0,13.33337 -10.80883,24.14221 -24.14221,24.14221 H 205.30231 c -13.33337,0 -24.14221,-10.80884 -24.14221,-24.14221 z" />
  <path
     style="fill-rule:evenodd;stroke:#000000;stroke-width:2;stroke-linecap:butt;stroke-linejoin:round"
     inkscape:connector-curvature="0"
     id="path13"
     d="m 181.1601,32.89549 v 0 c 0,-13.33337 10.80884,-24.14221 24.14221,-24.14221 h 475.08563 c 6.40296,0 12.54358,2.54355 17.07117,7.07109 4.52753,4.52754 7.07104,10.66821 7.07104,17.07112 v 96.56596 c 0,13.33337 -10.80883,24.14221 -24.14221,24.14221 H 205.30231 c -13.33337,0 -24.14221,-10.80884 -24.14221,-24.14221 z" />
  <path
     style="fill:#d0e0e3;fill-rule:evenodd"
     inkscape:connector-curvature="0"
     id="path15"
     d="m 323.79706,30.56907 v 0 c 0,-4.45026 3.60764,-8.05791 8.05789,-8.05791 h 92.04166 c 2.13712,0 4.18668,0.84896 5.69782,2.36011 1.51114,1.51115 2.3601,3.5607 2.3601,5.6978 v 32.23065 c 0,4.45026 -3.60766,8.05789 -8.05792,8.05789 h -92.04166 c -4.45025,0 -8.05789,-3.60763 -8.05789,-8.05789 z" />
  <path
     style="fill-rule:evenodd;stroke:#000000;stroke-width:2;stroke-linecap:butt;stroke-linejoin:round"
     inkscape:connector-curvature="0"
     id="path17"
     d="m 323.79706,30.56907 v 0 c 0,-4.45026 3.60764,-8.05791 8.05789,-8.05791 h 92.04166 c 2.13712,0 4.18668,0.84896 5.69782,2.36011 1.51114,1.51115 2.3601,3.5607 2.3601,5.6978 v 32.23065 c 0,4.45026 -3.60766,8.05789 -8.05792,8.05789 h -92.04166 c -4.45025,0 -8.05789,-3.60763 -8.05789,-8.05789 z" />
  <path
     style="fill:#000000;fill-rule:nonzero"
     inkscape:connector-curvature="0"
     id="path19"
     d="m 369.05204,41.84189 q 1.95312,0 3.03125,0.82812 1.07812,0.8125 1.07812,2.4375 0,1.73438 -1.125,2.57813 -1.125,0.84375 -2.96875,0.84375 h -1.34375 v 3.875 h -1.45312 v -10.5625 z m -0.0469,5.53125 q 1.26563,0 1.92188,-0.48438 0.67187,-0.5 0.67187,-1.76562 0,-1.14063 -0.67187,-1.64063 -0.65625,-0.5 -1.89063,-0.5 h -1.3125 v 4.39063 z m 9.87442,-5.71875 q 0.9375,0 1.59375,0.25 0.65625,0.25 1.32813,0.79687 l -0.79688,0.9375 q -0.96875,-0.78125 -2.04687,-0.78125 -1.3125,0 -2.125,1.01563 -0.79688,1 -0.79688,3.25 0,2.17187 0.79688,3.20312 0.79687,1.03125 2.10937,1.03125 0.6875,0 1.1875,-0.21875 0.5,-0.23437 1.07813,-0.65625 l 0.71875,0.92188 q -0.5,0.51562 -1.26563,0.85937 -0.76562,0.32813 -1.76562,0.32813 -1.28125,0 -2.28125,-0.64063 -1,-0.64062 -1.5625,-1.875 -0.5625,-1.23437 -0.5625,-2.95312 0,-1.73438 0.57812,-2.96875 0.59375,-1.23438 1.57813,-1.85938 1,-0.64062 2.23437,-0.64062 z m 10.50565,10.75 -0.79687,-2.65625 h -4 l -0.79688,2.65625 h -1.46875 l 3.39063,-10.5625 h 1.82812 l 3.37503,10.5625 z m -4.4375,-3.82813 h 3.29688 l -1.64063,-5.51562 z" />
  <path
     style="fill:#d0e0e3;fill-rule:evenodd"
     inkscape:connector-curvature="0"
     id="path21"
     d="m 323.79706,100.45621 v 0 c 0,-4.45026 3.60764,-8.05791 8.05789,-8.05791 h 92.04166 c 2.13712,0 4.18668,0.84897 5.69782,2.36011 1.51114,1.51115 2.3601,3.56072 2.3601,5.6978 v 32.23065 c 0,4.45026 -3.60766,8.05789 -8.05792,8.05789 h -92.04166 c -4.45025,0 -8.05789,-3.60763 -8.05789,-8.05789 z" />
  <path
     style="fill-rule:evenodd;stroke:#000000;stroke-width:2;stroke-linecap:butt;stroke-linejoin:round"
     inkscape:connector-curvature="0"
     id="path23"
     d="m 323.79706,100.45621 v 0 c 0,-4.45026 3.60764,-8.05791 8.05789,-8.05791 h 92.04166 c 2.13712,0 4.18668,0.84897 5.69782,2.36011 1.51114,1.51115 2.3601,3.56072 2.3601,5.6978 v 32.23065 c 0,4.45026 -3.60766,8.05789 -8.05792,8.05789 h -92.04166 c -4.45025,0 -8.05789,-3.60763 -8.05789,-8.05789 z" />
  <path
     style="fill:#000000;fill-rule:nonzero"
     inkscape:connector-curvature="0"
     id="path25"
     d="m 369.91587,111.72903 v 10.5625 h -1.45313 v -10.5625 z m 6.77179,-0.1875 q 0.9375,0 1.59375,0.25 0.65625,0.25 1.32812,0.79688 l -0.79687,0.9375 q -0.96875,-0.78125 -2.04688,-0.78125 -1.3125,0 -2.125,1.01562 -0.79687,1 -0.79687,3.25 0,2.17188 0.79687,3.20313 0.79688,1.03125 2.10938,1.03125 0.6875,0 1.1875,-0.21875 0.5,-0.23438 1.07812,-0.65625 l 0.71875,0.92187 q -0.5,0.51563 -1.26562,0.85938 -0.76563,0.32812 -1.76563,0.32812 -1.28125,0 -2.28125,-0.64062 -1,-0.64063 -1.5625,-1.875 -0.5625,-1.23438 -0.5625,-2.95313 0,-1.73437 0.57813,-2.96875 0.59375,-1.23437 1.57812,-1.85937 1,-0.64063 2.23438,-0.64063 z m 10.50565,10.75 -0.79688,-2.65625 h -4 l -0.79687,2.65625 h -1.46875 l 3.39062,-10.5625 h 1.82813 l 3.375,10.5625 z m -4.4375,-3.82812 h 3.29687 l -1.64062,-5.51563 z" />
  <path
     style="fill:#d0e0e3;fill-rule:evenodd"
     inkscape:connector-curvature="0"
     id="path27"
     d="m 457.2443,36.12634 v 0 c 0,-9.95583 8.0708,-18.02661 18.02661,-18.02661 h 72.10425 v 0 c 4.78095,0 9.36609,1.89923 12.74677,5.27986 3.38061,3.38065 5.27984,7.96579 5.27984,12.74675 v 90.2775 c 0,9.95581 -8.0708,18.02661 -18.02661,18.02661 h -72.10425 c -9.95581,0 -18.02661,-8.0708 -18.02661,-18.02661 z" />
  <path
     style="fill-rule:evenodd;stroke:#000000;stroke-width:2;stroke-linecap:butt;stroke-linejoin:round"
     inkscape:connector-curvature="0"
     id="path29"
     d="m 457.2443,36.12634 v 0 c 0,-9.95583 8.0708,-18.02661 18.02661,-18.02661 h 72.10425 v 0 c 4.78095,0 9.36609,1.89923 12.74677,5.27986 3.38061,3.38065 5.27984,7.96579 5.27984,12.74675 v 90.2775 c 0,9.95581 -8.0708,18.02661 -18.02661,18.02661 h -72.10425 c -9.95581,0 -18.02661,-8.0708 -18.02661,-18.02661 z" />
  <path
     style="fill:#000000;fill-rule:nonzero"
     inkscape:connector-curvature="0"
     id="path31"
     d="m 486.46644,83.59445 q 0,1.0625 -0.4375,1.875 -0.4375,0.79687 -1.28125,1.25 -0.82813,0.45312 -1.98438,0.45312 -1.76562,0 -2.73437,-0.96875 -0.95313,-0.98437 -0.95313,-2.60937 v -7.17188 h 1.45313 v 7.0625 q 0,1.23438 0.54687,1.84375 0.5625,0.60938 1.6875,0.60938 1.125,0 1.67188,-0.59375 0.5625,-0.60938 0.5625,-1.85938 v -7.0625 h 1.46875 z m 6.63165,-4.875 q 1.10938,0 1.73438,0.67187 0.625,0.65625 0.625,1.79688 v 5.79687 h -1.42188 v -5.59375 q 0,-0.85937 -0.32812,-1.20312 -0.3125,-0.35938 -0.9375,-0.35938 -0.64063,0 -1.14063,0.375 -0.48437,0.35938 -0.92187,1.04688 v 5.73437 h -1.40625 v -8.07812 h 1.21875 l 0.125,1.20312 q 0.42187,-0.65625 1.04687,-1.01562 0.64063,-0.375 1.40625,-0.375 z m 8.88855,0 q 1.375,0 2.1875,1.10937 0.8125,1.10938 0.8125,3.10938 0,1.25 -0.39062,2.21875 -0.375,0.95312 -1.09375,1.48437 -0.71875,0.53125 -1.6875,0.53125 -1.28125,0 -2.15625,-1.07812 l -0.125,0.89062 h -1.25 V 75.65695 l 1.40625,-0.17188 v 4.4375 q 0.875,-1.20312 2.29687,-1.20312 z m -0.51562,7.32812 q 0.9375,0 1.46875,-0.75 0.53125,-0.76562 0.53125,-2.35937 0,-1.64063 -0.5,-2.35938 -0.48438,-0.73437 -1.39063,-0.73437 -1.07812,0 -1.89062,1.25 v 3.875 q 0.32812,0.5 0.79687,0.79687 0.46875,0.28125 0.98438,0.28125 z m 9.43304,-7.32812 q 0.42188,0 0.79688,0.0937 l -0.26563,1.375 q -0.35937,-0.0781 -0.70312,-0.0781 -0.75,0 -1.21875,0.54688 -0.45313,0.54687 -0.71875,1.71875 v 4.60937 h -1.40625 v -8.07812 h 1.21875 l 0.14062,1.64062 q 0.3125,-0.90625 0.85938,-1.35937 0.5625,-0.46875 1.29687,-0.46875 z m 7.30188,6.375 q 0,0.5 0.17188,0.73437 0.17187,0.23438 0.51562,0.35938 l -0.32812,0.98437 q -0.625,-0.0781 -1.01563,-0.34375 -0.375,-0.28125 -0.5625,-0.875 -0.8125,1.21875 -2.40625,1.21875 -1.20312,0 -1.89062,-0.67187 -0.6875,-0.6875 -0.6875,-1.76563 0,-1.29687 0.92187,-1.98437 0.9375,-0.6875 2.64063,-0.6875 h 1.23437 v -0.59375 q 0,-0.85938 -0.42187,-1.21875 -0.40625,-0.375 -1.26563,-0.375 -0.89062,0 -2.17187,0.42187 l -0.35938,-1.01562 q 1.51563,-0.5625 2.79688,-0.5625 1.42187,0 2.125,0.70312 0.70312,0.70313 0.70312,1.98438 z m -3.29687,1.01562 q 1.20312,0 1.89062,-1.25 V 83.0007 h -1.04687 q -2.25,0 -2.25,1.65625 0,0.71875 0.34375,1.09375 0.35937,0.35937 1.0625,0.35937 z m 9.99481,-7.39062 q 1.10937,0 1.73437,0.67187 0.625,0.65625 0.625,1.79688 v 5.79687 h -1.42187 v -5.59375 q 0,-0.85937 -0.32813,-1.20312 -0.3125,-0.35938 -0.9375,-0.35938 -0.64062,0 -1.14062,0.375 -0.48438,0.35938 -0.92188,1.04688 v 5.73437 H 521.107 v -8.07812 h 1.21875 l 0.125,1.20312 q 0.42188,-0.65625 1.04688,-1.01562 0.64062,-0.375 1.40625,-0.375 z m 8.13855,0 q 0.71875,0 1.3125,0.21875 0.59375,0.20312 1.14062,0.65625 l -0.67187,0.89062 q -0.42188,-0.3125 -0.82813,-0.45312 -0.40625,-0.14063 -0.90625,-0.14063 -0.96875,0 -1.51562,0.78125 -0.54688,0.78125 -0.54688,2.3125 0,1.53125 0.53125,2.26563 0.54688,0.71875 1.53125,0.71875 0.48438,0 0.875,-0.14063 0.40625,-0.14062 0.89063,-0.46875 l 0.64062,0.92188 q -1.09375,0.89062 -2.45312,0.89062 -1.64063,0 -2.59375,-1.09375 -0.9375,-1.10937 -0.9375,-3.0625 0,-1.28125 0.42187,-2.25 0.4375,-0.96875 1.21875,-1.5 0.79688,-0.54687 1.89063,-0.54687 z m 8.17059,0 q 1.10938,0 1.73438,0.67187 0.625,0.65625 0.625,1.79688 v 5.79687 h -1.42188 v -5.59375 q 0,-0.85937 -0.32812,-1.20312 -0.32813,-0.35938 -0.95313,-0.35938 -0.625,0 -1.125,0.375 -0.48437,0.35938 -0.92187,1.03125 v 5.75 h -1.40625 v -11.3125 l 1.40625,-0.15625 v 4.51563 q 0.95312,-1.3125 2.39062,-1.3125 z" />
  <path
     style="fill:#9fc5e8;fill-rule:evenodd"
     inkscape:connector-curvature="0"
     id="path33"
     d="m 115.57728,71.3622 h 34.37796 v -6.27559 l 12.55118,12.55118 -12.55118,12.55118 v -6.27559 h -34.37796 z" />
  <path
     style="fill-rule:evenodd;stroke:#595959;stroke-width:1;stroke-linecap:butt;stroke-linejoin:round"
     inkscape:connector-curvature="0"
     id="path35"
     d="m 115.57728,71.3622 h 34.37796 v -6.27559 l 12.55118,12.55118 -12.55118,12.55118 v -6.27559 h -34.37796 z" />
  <path
     style="fill:#6d9eeb;fill-rule:evenodd"
     inkscape:connector-curvature="0"
     id="path37"
     d="M 1,29.78419 H 97.66141 V 132.74481 H 1 Z" />
  <path
     style="fill-rule:evenodd;stroke:#000000;stroke-width:2;stroke-linecap:butt;stroke-linejoin:round"
     inkscape:connector-curvature="0"
     id="path39"
     d="M 1,29.78419 H 97.66141 V 132.74481 H 1 Z" />
  <path
     style="fill:#000000;fill-rule:nonzero"
     inkscape:connector-curvature="0"
     id="path41"
     d="m 24.84844,64.32513 -0.1875,1.51562 h -3.5625 V 77.1845 H 19.332815 V 65.84075 h -3.65625 v -1.51562 z m 5.67903,2.79687 q 0.51563,0 0.96875,0.125 l -0.3125,1.67188 Q 30.7306,68.8095 30.32435,68.8095 q -0.92188,0 -1.48438,0.67188 -0.54687,0.67187 -0.875,2.09375 v 5.60937 h -1.71875 v -9.82812 h 1.48438 l 0.17187,2 q 0.39063,-1.10938 1.0625,-1.67188 0.67188,-0.5625 1.5625,-0.5625 z m 8.89173,7.76563 q 0,0.59375 0.20312,0.89062 0.21875,0.28125 0.625,0.4375 l -0.39062,1.1875 q -0.76563,-0.0937 -1.23438,-0.42187 -0.46875,-0.34375 -0.6875,-1.04688 -1,1.46875 -2.9375,1.46875 -1.45312,0 -2.29687,-0.8125 -0.82813,-0.82812 -0.82813,-2.15625 0,-1.5625 1.125,-2.39062 1.125,-0.84375 3.20313,-0.84375 h 1.5 v -0.73438 q 0,-1.04687 -0.5,-1.48437 -0.5,-0.45313 -1.54688,-0.45313 -1.07812,0 -2.64062,0.51563 l -0.4375,-1.25 q 1.82812,-0.67188 3.39062,-0.67188 1.73438,0 2.59375,0.85938 0.85938,0.84375 0.85938,2.40625 z M 35.38795,76.122 q 1.48437,0 2.3125,-1.53125 v -2.25 H 36.4192 q -2.71875,0 -2.71875,2.01563 0,0.875 0.42187,1.32812 0.4375,0.4375 1.26563,0.4375 z m 9.274,-8.76562 V 77.1845 H 42.9432 v -9.82812 z m -0.85938,-4.71875 q 0.53125,0 0.85938,0.34375 0.34375,0.32812 0.34375,0.82812 0,0.5 -0.34375,0.82813 -0.32813,0.32812 -0.85938,0.32812 -0.53125,0 -0.875,-0.32812 -0.32812,-0.32813 -0.32812,-0.82813 0,-0.5 0.32812,-0.82812 0.34375,-0.34375 0.875,-0.34375 z m 9.04232,4.48437 q 1.34375,0 2.09375,0.8125 0.75,0.79688 0.75,2.20313 V 77.1845 H 53.96989 V 70.372 q 0,-1.04687 -0.39063,-1.46875 -0.39062,-0.4375 -1.15625,-0.4375 -0.78125,0 -1.375,0.45313 -0.59375,0.45312 -1.125,1.28125 v 6.98437 h -1.71875 v -9.82812 h 1.48438 l 0.14062,1.45312 q 0.53125,-0.78125 1.29688,-1.23437 0.78125,-0.45313 1.71875,-0.45313 z m 8.01069,0.23438 v 9.82812 h -1.71875 v -9.82812 z m -0.85937,-4.71875 q 0.53125,0 0.85937,0.34375 0.34375,0.32812 0.34375,0.82812 0,0.5 -0.34375,0.82813 -0.32812,0.32812 -0.85937,0.32812 -0.53125,0 -0.875,-0.32812 -0.32813,-0.32813 -0.32813,-0.82813 0,-0.5 0.32813,-0.82812 0.34375,-0.34375 0.875,-0.34375 z m 9.04231,4.48437 q 1.34375,0 2.09375,0.8125 0.75,0.79688 0.75,2.20313 V 77.1845 H 70.16352 V 70.372 q 0,-1.04687 -0.39063,-1.46875 -0.39062,-0.4375 -1.15625,-0.4375 -0.78125,0 -1.375,0.45313 -0.59375,0.45312 -1.125,1.28125 v 6.98437 h -1.71875 v -9.82812 h 1.48438 l 0.14062,1.45312 q 0.53125,-0.78125 1.29688,-1.23437 0.78125,-0.45313 1.71875,-0.45313 z m 14.22945,0.67188 q -0.5625,0.1875 -1.23438,0.25 -0.67187,0.0625 -1.64062,0.0625 1.73437,0.78125 1.73437,2.46875 0,1.48437 -1.01562,2.42187 -1,0.92188 -2.73438,0.92188 -0.67187,0 -1.25,-0.1875 -0.21875,0.15625 -0.35937,0.40625 -0.125,0.25 -0.125,0.51562 0,0.79688 1.28125,0.79688 h 1.57812 q 0.98438,0 1.75,0.35937 0.76563,0.34375 1.1875,0.96875 0.42188,0.60938 0.42188,1.39063 0,1.4375 -1.1875,2.20312 -1.17188,0.78125 -3.42188,0.78125 -1.59375,0 -2.51562,-0.32812 -0.92188,-0.3125 -1.3125,-0.96875 -0.39063,-0.65625 -0.39063,-1.6875 h 1.54688 q 0,0.59375 0.21875,0.9375 0.23437,0.35937 0.8125,0.53125 0.57812,0.17187 1.64062,0.17187 1.54688,0 2.20313,-0.39062 0.67187,-0.375 0.67187,-1.14063 0,-0.6875 -0.53125,-1.04687 -0.51562,-0.34375 -1.45312,-0.34375 h -1.54688 q -1.25,0 -1.89062,-0.53125 -0.64063,-0.53125 -0.64063,-1.34375 0,-0.48438 0.26563,-0.92188 0.28125,-0.45312 0.8125,-0.8125 -0.85938,-0.4375 -1.26563,-1.09375 -0.39062,-0.67187 -0.39062,-1.625 0,-0.98437 0.48437,-1.76562 0.5,-0.78125 1.35938,-1.21875 0.875,-0.45313 1.9375,-0.45313 1.15625,0.0312 1.9375,-0.0781 0.78125,-0.10938 1.29687,-0.28125 0.51563,-0.17188 1.26563,-0.51563 z m -5,0.5625 q -0.96875,0 -1.5,0.60937 -0.53125,0.60938 -0.53125,1.59375 0,1.01563 0.53125,1.625 0.54687,0.59375 1.53125,0.59375 1.01562,0 1.54687,-0.57812 0.53125,-0.59375 0.53125,-1.65625 0,-2.1875 -2.10937,-2.1875 z" />
  <path
     style="fill:#000000;fill-rule:nonzero"
     inkscape:connector-curvature="0"
     id="path43"
     d="m 34.51246,86.32513 q 2.92188,0 4.67188,1.35937 1.76562,1.34375 1.76562,5 0,3.57813 -1.76562,5.04688 -1.75,1.45312 -4.28125,1.45312 H 31.82496 V 86.32513 Z M 33.60621,87.747 v 10.03125 h 1.4375 q 1.78125,0 2.90625,-1.09375 1.125,-1.09375 1.125,-4 0,-2.03125 -0.57812,-3.10937 -0.57813,-1.09375 -1.48438,-1.45313 -0.89062,-0.375 -2.10937,-0.375 z m 16.57798,9.14063 q 0,0.59375 0.20312,0.89062 0.21875,0.28125 0.625,0.4375 l -0.39062,1.1875 q -0.76563,-0.0937 -1.23438,-0.42187 -0.46875,-0.34375 -0.6875,-1.04688 -1,1.46875 -2.9375,1.46875 -1.45313,0 -2.29688,-0.8125 -0.82812,-0.82812 -0.82812,-2.15625 0,-1.5625 1.125,-2.39062 1.125,-0.84375 3.20312,-0.84375 h 1.5 v -0.73438 q 0,-1.04687 -0.5,-1.48437 -0.5,-0.45313 -1.54687,-0.45313 -1.07813,0 -2.64063,0.51563 l -0.4375,-1.25 q 1.82813,-0.67188 3.39063,-0.67188 1.73437,0 2.59375,0.85938 0.85938,0.84375 0.85938,2.40625 z M 46.15293,98.122 q 1.48438,0 2.3125,-1.53125 v -2.25 h -1.28125 q -2.71875,0 -2.71875,2.01563 0,0.875 0.42188,1.32812 0.4375,0.4375 1.26562,0.4375 z m 12.52401,0.60938 q -0.96875,0.67187 -2.20312,0.67187 -1.25,0 -1.95313,-0.71875 -0.6875,-0.71875 -0.6875,-2.07812 V 90.6845 h -1.71875 v -1.32812 h 1.71875 v -2.21875 l 1.70313,-0.20313 v 2.42188 h 2.34375 l -0.1875,1.32812 h -2.15625 v 5.84375 q 0,0.76563 0.26562,1.125 0.28125,0.34375 0.92188,0.34375 0.57812,0 1.29687,-0.39062 z m 8.26049,-1.84375 q 0,0.59375 0.20312,0.89062 0.21875,0.28125 0.625,0.4375 l -0.39062,1.1875 q -0.76563,-0.0937 -1.23438,-0.42187 -0.46875,-0.34375 -0.6875,-1.04688 -0.99998,1.46875 -2.93748,1.46875 -1.45313,0 -2.29688,-0.8125 -0.82812,-0.82812 -0.82812,-2.15625 0,-1.5625 1.125,-2.39062 1.125,-0.84375 3.20312,-0.84375 h 1.49999 v -0.73438 q 0,-1.04687 -0.49999,-1.48437 -0.5,-0.45313 -1.54687,-0.45313 -1.07813,0 -2.64063,0.51563 l -0.4375,-1.25 q 1.82813,-0.67188 3.39063,-0.67188 1.73436,0 2.59373,0.85938 0.85938,0.84375 0.85938,2.40625 z M 62.90619,98.122 q 1.48438,0 2.31249,-1.53125 v -2.25 h -1.28124 q -2.71875,0 -2.71875,2.01563 0,0.875 0.42188,1.32812 0.4375,0.4375 1.26562,0.4375 z" />
  <path
     style="fill:#eeeeee;fill-rule:evenodd"
     inkscape:connector-curvature="0"
     id="path45"
     d="m 456.95734,38.67874 h -13.6413 c -1.88342,0 -3.41027,3.58466 -3.41027,8.00656 0,4.42191 1.52685,8.00656 3.41027,8.00656 h 13.6413 v 0 c 1.88348,0 3.41034,-3.58465 3.41034,-8.00656 0,-4.4219 -1.52686,-8.00656 -3.41034,-8.00656 z" />
  <path
     style="fill:#000000;fill-opacity:0;fill-rule:evenodd"
     inkscape:connector-curvature="0"
     id="path47"
     d="m 443.31604,54.69186 c 1.88348,0 3.41034,-3.58466 3.41034,-8.00656 0,-4.42191 -1.52686,-8.00656 -3.41034,-8.00656" />
  <path
     style="fill:#000000;fill-opacity:0;fill-rule:evenodd"
     inkscape:connector-curvature="0"
     id="path49"
     d="m 456.95734,38.67874 h -13.6413 c -1.88342,0 -3.41027,3.58466 -3.41027,8.00656 0,4.42191 1.52685,8.00656 3.41027,8.00656 h 13.6413 v 0 c 1.88348,0 3.41034,-3.58465 3.41034,-8.00656 0,-4.4219 -1.52686,-8.00656 -3.41034,-8.00656 z" />
  <path
     style="fill-rule:evenodd;stroke:#595959;stroke-width:1;stroke-linecap:butt;stroke-linejoin:round"
     inkscape:connector-curvature="0"
     id="path51"
     d="m 443.31604,54.69186 c 1.88348,0 3.41034,-3.58466 3.41034,-8.00656 0,-4.42191 -1.52686,-8.00656 -3.41034,-8.00656" />
  <path
     style="fill-rule:evenodd;stroke:#595959;stroke-width:1;stroke-linecap:butt;stroke-linejoin:round"
     inkscape:connector-curvature="0"
     id="path53"
     d="m 456.95734,38.67874 h -13.6413 c -1.88342,0 -3.41027,3.58466 -3.41027,8.00656 0,4.42191 1.52685,8.00656 3.41027,8.00656 h 13.6413 v 0 c 1.88348,0 3.41034,-3.58465 3.41034,-8.00656 0,-4.4219 -1.52686,-8.00656 -3.41034,-8.00656 z" />
  <path
     style="fill:#eeeeee;fill-rule:evenodd"
     inkscape:connector-curvature="0"
     id="path55"
     d="m 430.25046,38.67874 h 13.64127 c 1.88348,0 3.41034,3.58466 3.41034,8.00656 0,4.42191 -1.52686,8.00656 -3.41034,8.00656 h -13.64127 v 0 c -1.88348,0 -3.41034,-3.58465 -3.41034,-8.00656 0,-4.4219 1.52686,-8.00656 3.41034,-8.00656 z" />
  <path
     style="fill:#000000;fill-opacity:0;fill-rule:evenodd"
     inkscape:connector-curvature="0"
     id="path57"
     d="m 443.8917,54.69186 c -1.88342,0 -3.41028,-3.58466 -3.41028,-8.00656 0,-4.42191 1.52686,-8.00656 3.41028,-8.00656" />
  <path
     style="fill:#000000;fill-opacity:0;fill-rule:evenodd"
     inkscape:connector-curvature="0"
     id="path59"
     d="m 430.25046,38.67874 h 13.64127 c 1.88348,0 3.41034,3.58466 3.41034,8.00656 0,4.42191 -1.52686,8.00656 -3.41034,8.00656 h -13.64127 v 0 c -1.88348,0 -3.41034,-3.58465 -3.41034,-8.00656 0,-4.4219 1.52686,-8.00656 3.41034,-8.00656 z" />
  <path
     style="fill-rule:evenodd;stroke:#595959;stroke-width:1;stroke-linecap:butt;stroke-linejoin:round"
     inkscape:connector-curvature="0"
     id="path61"
     d="m 443.8917,54.69186 c -1.88342,0 -3.41028,-3.58466 -3.41028,-8.00656 0,-4.42191 1.52686,-8.00656 3.41028,-8.00656" />
  <path
     style="fill-rule:evenodd;stroke:#595959;stroke-width:1;stroke-linecap:butt;stroke-linejoin:round"
     inkscape:connector-curvature="0"
     id="path63"
     d="m 430.25046,38.67874 h 13.64127 c 1.88348,0 3.41034,3.58466 3.41034,8.00656 0,4.42191 -1.52686,8.00656 -3.41034,8.00656 h -13.64127 v 0 c -1.88348,0 -3.41034,-3.58465 -3.41034,-8.00656 0,-4.4219 1.52686,-8.00656 3.41034,-8.00656 z" />
  <path
     style="fill:#efefef;fill-rule:evenodd"
     inkscape:connector-curvature="0"
     id="path65"
     d="m 452.38605,39.03437 h -16.12598 v 15.24409 h 16.12598 z" />
  <path
     style="fill:#eeeeee;fill-rule:evenodd"
     inkscape:connector-curvature="0"
     id="path67"
     d="m 456.95734,108.56589 h -13.6413 c -1.88342,0 -3.41027,3.58466 -3.41027,8.00656 0,4.42191 1.52685,8.00656 3.41027,8.00656 h 13.6413 v 0 c 1.88348,0 3.41034,-3.58465 3.41034,-8.00656 0,-4.4219 -1.52686,-8.00656 -3.41034,-8.00656 z" />
  <path
     style="fill:#000000;fill-opacity:0;fill-rule:evenodd"
     inkscape:connector-curvature="0"
     id="path69"
     d="m 443.31604,124.57901 c 1.88348,0 3.41034,-3.58466 3.41034,-8.00656 0,-4.42191 -1.52686,-8.00656 -3.41034,-8.00656" />
  <path
     style="fill:#000000;fill-opacity:0;fill-rule:evenodd"
     inkscape:connector-curvature="0"
     id="path71"
     d="m 456.95734,108.56589 h -13.6413 c -1.88342,0 -3.41027,3.58466 -3.41027,8.00656 0,4.42191 1.52685,8.00656 3.41027,8.00656 h 13.6413 v 0 c 1.88348,0 3.41034,-3.58465 3.41034,-8.00656 0,-4.4219 -1.52686,-8.00656 -3.41034,-8.00656 z" />
  <path
     style="fill-rule:evenodd;stroke:#595959;stroke-width:1;stroke-linecap:butt;stroke-linejoin:round"
     inkscape:connector-curvature="0"
     id="path73"
     d="m 443.31604,124.57901 c 1.88348,0 3.41034,-3.58466 3.41034,-8.00656 0,-4.42191 -1.52686,-8.00656 -3.41034,-8.00656" />
  <path
     style="fill-rule:evenodd;stroke:#595959;stroke-width:1;stroke-linecap:butt;stroke-linejoin:round"
     inkscape:connector-curvature="0"
     id="path75"
     d="m 456.95734,108.56589 h -13.6413 c -1.88342,0 -3.41027,3.58466 -3.41027,8.00656 0,4.42191 1.52685,8.00656 3.41027,8.00656 h 13.6413 v 0 c 1.88348,0 3.41034,-3.58465 3.41034,-8.00656 0,-4.4219 -1.52686,-8.00656 -3.41034,-8.00656 z" />
  <path
     style="fill:#eeeeee;fill-rule:evenodd"
     inkscape:connector-curvature="0"
     id="path77"
     d="m 430.25046,108.56589 h 13.64127 c 1.88348,0 3.41034,3.58466 3.41034,8.00656 0,4.42191 -1.52686,8.00656 -3.41034,8.00656 h -13.64127 v 0 c -1.88348,0 -3.41034,-3.58465 -3.41034,-8.00656 0,-4.4219 1.52686,-8.00656 3.41034,-8.00656 z" />
  <path
     style="fill:#000000;fill-opacity:0;fill-rule:evenodd"
     inkscape:connector-curvature="0"
     id="path79"
     d="m 443.8917,124.57901 c -1.88342,0 -3.41028,-3.58466 -3.41028,-8.00656 0,-4.42191 1.52686,-8.00656 3.41028,-8.00656" />
  <path
     style="fill:#000000;fill-opacity:0;fill-rule:evenodd"
     inkscape:connector-curvature="0"
     id="path81"
     d="m 430.25046,108.56589 h 13.64127 c 1.88348,0 3.41034,3.58466 3.41034,8.00656 0,4.42191 -1.52686,8.00656 -3.41034,8.00656 h -13.64127 v 0 c -1.88348,0 -3.41034,-3.58465 -3.41034,-8.00656 0,-4.4219 1.52686,-8.00656 3.41034,-8.00656 z" />
  <path
     style="fill-rule:evenodd;stroke:#595959;stroke-width:1;stroke-linecap:butt;stroke-linejoin:round"
     inkscape:connector-curvature="0"
     id="path83"
     d="m 443.8917,124.57901 c -1.88342,0 -3.41028,-3.58466 -3.41028,-8.00656 0,-4.42191 1.52686,-8.00656 3.41028,-8.00656" />
  <path
     style="fill-rule:evenodd;stroke:#595959;stroke-width:1;stroke-linecap:butt;stroke-linejoin:round"
     inkscape:connector-curvature="0"
     id="path85"
     d="m 430.25046,108.56589 h 13.64127 c 1.88348,0 3.41034,3.58466 3.41034,8.00656 0,4.42191 -1.52686,8.00656 -3.41034,8.00656 h -13.64127 v 0 c -1.88348,0 -3.41034,-3.58465 -3.41034,-8.00656 0,-4.4219 1.52686,-8.00656 3.41034,-8.00656 z" />
  <path
     style="fill:#efefef;fill-rule:evenodd"
     inkscape:connector-curvature="0"
     id="path87"
     d="m 452.38605,108.92151 h -16.12598 v 15.24411 h 16.12598 z" />
  <path
     style="fill:#ffab40;fill-rule:evenodd"
     inkscape:connector-curvature="0"
     id="path89"
     d="m 697.05585,65.14912 v 0 c 0,-4.45026 -3.60767,-8.05791 -8.05792,-8.05791 h -92.04169 c -2.13709,0 -4.18665,0.84896 -5.69782,2.36011 -1.51111,1.51115 -2.3601,3.56072 -2.3601,5.6978 v 32.23065 c 0,4.45024 3.60766,8.05791 8.05792,8.05791 h 92.04169 c 4.45025,0 8.05792,-3.60767 8.05792,-8.05791 z" />
  <path
     style="fill-rule:evenodd;stroke:#000000;stroke-width:2;stroke-linecap:butt;stroke-linejoin:round"
     inkscape:connector-curvature="0"
     id="path91"
     d="m 697.05585,65.14912 v 0 c 0,-4.45026 -3.60767,-8.05791 -8.05792,-8.05791 h -92.04169 c -2.13709,0 -4.18665,0.84896 -5.69782,2.36011 -1.51111,1.51115 -2.3601,3.56072 -2.3601,5.6978 v 32.23065 c 0,4.45024 3.60766,8.05791 8.05792,8.05791 h 92.04169 c 4.45025,0 8.05792,-3.60767 8.05792,-8.05791 z" />
  <path
     style="fill:#000000;fill-rule:nonzero"
     inkscape:connector-curvature="0"
     id="path93"
     d="m 619.4821,76.42195 v 9.29687 h 4.34375 l -0.17188,1.26563 h -5.625 v -10.5625 z m 11.82825,6.28125 q 0,0.35937 -0.0312,0.71875 h -5.15625 q 0.0937,1.34375 0.67187,1.96875 0.57813,0.625 1.5,0.625 0.59375,0 1.07813,-0.15625 0.48437,-0.17188 1.03125,-0.54688 l 0.60937,0.84375 q -1.28125,1.01563 -2.82812,1.01563 -1.67188,0 -2.625,-1.09375 -0.9375,-1.10938 -0.9375,-3.04688 0,-1.26562 0.40625,-2.23437 0.40625,-0.96875 1.15625,-1.51563 0.76562,-0.5625 1.79687,-0.5625 1.60938,0 2.46875,1.0625 0.85938,1.0625 0.85938,2.92188 z m -1.40625,-0.40625 q 0,-1.20313 -0.46875,-1.82813 -0.46875,-0.625 -1.42188,-0.625 -1.73437,0 -1.89062,2.54688 h 3.78125 z m 8.93487,2.79687 q 0,0.5 0.17188,0.73438 0.17187,0.23437 0.51562,0.35937 l -0.32812,0.98438 q -0.625,-0.0781 -1.01563,-0.34375 -0.375,-0.28125 -0.5625,-0.875 -0.8125,1.21875 -2.40625,1.21875 -1.20312,0 -1.89062,-0.67188 -0.6875,-0.6875 -0.6875,-1.76562 0,-1.29688 0.92187,-1.98438 0.9375,-0.6875 2.64063,-0.6875 h 1.23437 v -0.59375 q 0,-0.85937 -0.42187,-1.21875 -0.40625,-0.375 -1.26563,-0.375 -0.89062,0 -2.17187,0.42188 l -0.35938,-1.01563 q 1.51563,-0.5625 2.79688,-0.5625 1.42187,0 2.125,0.70313 0.70312,0.70312 0.70312,1.98437 z m -3.29687,1.01563 q 1.20312,0 1.89062,-1.25 v -1.85938 h -1.04687 q -2.25,0 -2.25,1.65625 0,0.71875 0.34375,1.09375 0.35937,0.35938 1.0625,0.35938 z m 9.71356,-7.39063 q 0.42187,0 0.79687,0.0937 l -0.26562,1.375 q -0.35938,-0.0781 -0.70313,-0.0781 -0.75,0 -1.21875,0.54687 -0.45312,0.54688 -0.71875,1.71875 v 4.60938 h -1.40625 v -8.07813 h 1.21875 l 0.14063,1.64063 q 0.3125,-0.90625 0.85937,-1.35938 0.5625,-0.46875 1.29688,-0.46875 z m 6.19788,0 q 1.10937,0 1.73437,0.67188 0.625,0.65625 0.625,1.79687 v 5.79688 h -1.42187 V 81.3907 q 0,-0.85938 -0.32813,-1.20313 -0.3125,-0.35937 -0.9375,-0.35937 -0.64062,0 -1.14062,0.375 -0.48438,0.35937 -0.92188,1.04687 v 5.73438 h -1.40625 v -8.07813 h 1.21875 l 0.125,1.20313 q 0.42188,-0.65625 1.04688,-1.01563 0.64062,-0.375 1.40625,-0.375 z m 11.29486,3.98438 q 0,0.35937 -0.0312,0.71875 h -5.15625 q 0.0937,1.34375 0.67187,1.96875 0.57813,0.625 1.5,0.625 0.59375,0 1.07813,-0.15625 0.48437,-0.17188 1.03125,-0.54688 l 0.60937,0.84375 q -1.28125,1.01563 -2.82812,1.01563 -1.67188,0 -2.625,-1.09375 -0.9375,-1.10938 -0.9375,-3.04688 0,-1.26562 0.40625,-2.23437 0.40625,-0.96875 1.15625,-1.51563 0.76562,-0.5625 1.79687,-0.5625 1.60938,0 2.46875,1.0625 0.85938,1.0625 0.85938,2.92188 z m -1.40625,-0.40625 q 0,-1.20313 -0.46875,-1.82813 -0.46875,-0.625 -1.42188,-0.625 -1.73437,0 -1.89062,2.54688 h 3.78125 z m 7.16632,-3.57813 q 0.42187,0 0.79687,0.0937 l -0.26562,1.375 q -0.35938,-0.0781 -0.70313,-0.0781 -0.75,0 -1.21875,0.54687 -0.45312,0.54688 -0.71875,1.71875 v 4.60938 h -1.40625 v -8.07813 h 1.21875 l 0.14063,1.64063 q 0.3125,-0.90625 0.85937,-1.35938 0.5625,-0.46875 1.29688,-0.46875 z" />
  <path
     style="fill:#eeeeee;fill-rule:evenodd"
     inkscape:connector-curvature="0"
     id="path95"
     d="m 563.8955,73.25879 h 13.6413 c 1.88348,0 3.41034,3.58466 3.41034,8.00656 0,4.42191 -1.52686,8.00656 -3.41034,8.00656 h -13.6413 v 0 c -1.88348,0 -3.41034,-3.58465 -3.41034,-8.00656 0,-4.4219 1.52686,-8.00656 3.41034,-8.00656 z" />
  <path
     style="fill:#000000;fill-opacity:0;fill-rule:evenodd"
     inkscape:connector-curvature="0"
     id="path97"
     d="m 577.5368,89.27191 c -1.88348,0 -3.41034,-3.58466 -3.41034,-8.00656 0,-4.42191 1.52686,-8.00656 3.41034,-8.00656" />
  <path
     style="fill:#000000;fill-opacity:0;fill-rule:evenodd"
     inkscape:connector-curvature="0"
     id="path99"
     d="m 563.8955,73.25879 h 13.6413 c 1.88348,0 3.41034,3.58466 3.41034,8.00656 0,4.42191 -1.52686,8.00656 -3.41034,8.00656 h -13.6413 v 0 c -1.88348,0 -3.41034,-3.58465 -3.41034,-8.00656 0,-4.4219 1.52686,-8.00656 3.41034,-8.00656 z" />
  <path
     style="fill-rule:evenodd;stroke:#595959;stroke-width:1;stroke-linecap:butt;stroke-linejoin:round"
     inkscape:connector-curvature="0"
     id="path101"
     d="m 577.5368,89.27191 c -1.88348,0 -3.41034,-3.58466 -3.41034,-8.00656 0,-4.42191 1.52686,-8.00656 3.41034,-8.00656" />
  <path
     style="fill-rule:evenodd;stroke:#595959;stroke-width:1;stroke-linecap:butt;stroke-linejoin:round"
     inkscape:connector-curvature="0"
     id="path103"
     d="m 563.8955,73.25879 h 13.6413 c 1.88348,0 3.41034,3.58466 3.41034,8.00656 0,4.42191 -1.52686,8.00656 -3.41034,8.00656 h -13.6413 v 0 c -1.88348,0 -3.41034,-3.58465 -3.41034,-8.00656 0,-4.4219 1.52686,-8.00656 3.41034,-8.00656 z" />
  <path
     style="fill:#eeeeee;fill-rule:evenodd"
     inkscape:connector-curvature="0"
     id="path105"
     d="m 590.6024,73.25879 h -13.6413 c -1.88348,0 -3.41034,3.58466 -3.41034,8.00656 0,4.42191 1.52686,8.00656 3.41034,8.00656 h 13.6413 v 0 c 1.88348,0 3.41034,-3.58465 3.41034,-8.00656 0,-4.4219 -1.52686,-8.00656 -3.41034,-8.00656 z" />
  <path
     style="fill:#000000;fill-opacity:0;fill-rule:evenodd"
     inkscape:connector-curvature="0"
     id="path107"
     d="m 576.9611,89.27191 c 1.88348,0 3.41034,-3.58466 3.41034,-8.00656 0,-4.42191 -1.52686,-8.00656 -3.41034,-8.00656" />
  <path
     style="fill:#000000;fill-opacity:0;fill-rule:evenodd"
     inkscape:connector-curvature="0"
     id="path109"
     d="m 590.6024,73.25879 h -13.6413 c -1.88348,0 -3.41034,3.58466 -3.41034,8.00656 0,4.42191 1.52686,8.00656 3.41034,8.00656 h 13.6413 v 0 c 1.88348,0 3.41034,-3.58465 3.41034,-8.00656 0,-4.4219 -1.52686,-8.00656 -3.41034,-8.00656 z" />
  <path
     style="fill-rule:evenodd;stroke:#595959;stroke-width:1;stroke-linecap:butt;stroke-linejoin:round"
     inkscape:connector-curvature="0"
     id="path111"
     d="m 576.9611,89.27191 c 1.88348,0 3.41034,-3.58466 3.41034,-8.00656 0,-4.42191 -1.52686,-8.00656 -3.41034,-8.00656" />
  <path
     style="fill-rule:evenodd;stroke:#595959;stroke-width:1;stroke-linecap:butt;stroke-linejoin:round"
     inkscape:connector-curvature="0"
     id="path113"
     d="m 590.6024,73.25879 h -13.6413 c -1.88348,0 -3.41034,3.58466 -3.41034,8.00656 0,4.42191 1.52686,8.00656 3.41034,8.00656 h 13.6413 v 0 c 1.88348,0 3.41034,-3.58465 3.41034,-8.00656 0,-4.4219 -1.52686,-8.00656 -3.41034,-8.00656 z" />
  <path
     style="fill:#efefef;fill-rule:evenodd"
     inkscape:connector-curvature="0"
     id="path115"
     d="m 568.4668,73.61444 h 16.12598 V 88.85853 H 568.4668 Z" />
  <path
     style="fill:#d0e0e3;fill-rule:evenodd"
     inkscape:connector-curvature="0"
     id="path117"
     d="m 297.92365,36.12765 v 0 c 0,-9.95583 -8.07077,-18.02661 -18.02658,-18.02661 h -72.10428 v 0 c -4.78095,0 -9.36609,1.89923 -12.74674,5.27986 -3.38064,3.38065 -5.27987,7.96579 -5.27987,12.74675 v 90.2775 c 0,9.95581 8.0708,18.02661 18.02661,18.02661 h 72.10428 c 9.95581,0 18.02658,-8.0708 18.02658,-18.02661 z" />
  <path
     style="fill-rule:evenodd;stroke:#000000;stroke-width:2;stroke-linecap:butt;stroke-linejoin:round"
     inkscape:connector-curvature="0"
     id="path119"
     d="m 297.92365,36.12765 v 0 c 0,-9.95583 -8.07077,-18.02661 -18.02658,-18.02661 h -72.10428 v 0 c -4.78095,0 -9.36609,1.89923 -12.74674,5.27986 -3.38064,3.38065 -5.27987,7.96579 -5.27987,12.74675 v 90.2775 c 0,9.95581 8.0708,18.02661 18.02661,18.02661 h 72.10428 c 9.95581,0 18.02658,-8.0708 18.02658,-18.02661 z" />
  <path
     style="fill:#000000;fill-rule:nonzero"
     inkscape:connector-curvature="0"
     id="path121"
     d="m 225.86765,81.40826 q 1.09375,0.1875 1.76563,0.76562 0.67187,0.57813 0.67187,1.8125 0,3 -4.1875,3 h -2.90625 v -10.5625 h 2.5 q 2.01563,0 3.07813,0.65625 1.0625,0.65625 1.0625,2.01563 0,0.92187 -0.57813,1.53125 -0.57812,0.60937 -1.40625,0.78125 z m -3.20312,-3.82813 v 3.32813 h 1.59375 q 0.92187,0 1.51562,-0.4375 0.59375,-0.45313 0.59375,-1.26563 0,-0.92187 -0.625,-1.26562 -0.625,-0.35938 -1.875,-0.35938 z m 1.45312,8.23438 q 1.29688,0 1.96875,-0.375 0.6875,-0.39063 0.6875,-1.45313 0,-1.04687 -0.65625,-1.5 -0.65625,-0.46875 -1.71875,-0.46875 h -1.73437 v 3.79688 z m 9.8508,-7.09375 q 0.42188,0 0.79688,0.0937 l -0.26563,1.375 q -0.35937,-0.0781 -0.70312,-0.0781 -0.75,0 -1.21875,0.54688 -0.45313,0.54687 -0.71875,1.71875 v 4.60937 h -1.40625 v -8.07812 h 1.21875 l 0.14062,1.64062 q 0.3125,-0.90625 0.85938,-1.35937 0.5625,-0.46875 1.29687,-0.46875 z m 7.30188,6.375 q 0,0.5 0.17187,0.73437 0.17188,0.23438 0.51563,0.35938 l -0.32813,0.98437 q -0.625,-0.0781 -1.01562,-0.34375 -0.375,-0.28125 -0.5625,-0.875 -0.8125,1.21875 -2.40625,1.21875 -1.20313,0 -1.89063,-0.67187 -0.6875,-0.6875 -0.6875,-1.76563 0,-1.29687 0.92188,-1.98437 0.9375,-0.6875 2.64062,-0.6875 h 1.23438 v -0.59375 q 0,-0.85938 -0.42188,-1.21875 -0.40625,-0.375 -1.26562,-0.375 -0.89063,0 -2.17188,0.42187 l -0.35937,-1.01562 q 1.51562,-0.5625 2.79687,-0.5625 1.42188,0 2.125,0.70312 0.70313,0.70313 0.70313,1.98438 z m -3.29688,1.01562 q 1.20313,0 1.89063,-1.25 v -1.85937 h -1.04688 q -2.25,0 -2.25,1.65625 0,0.71875 0.34375,1.09375 0.35938,0.35937 1.0625,0.35937 z m 9.99479,-7.39062 q 1.10937,0 1.73437,0.67187 0.625,0.65625 0.625,1.79688 v 5.79687 h -1.42187 v -5.59375 q 0,-0.85937 -0.32813,-1.20312 -0.3125,-0.35938 -0.9375,-0.35938 -0.64062,0 -1.14062,0.375 -0.48438,0.35938 -0.92188,1.04688 v 5.73437 h -1.40625 v -8.07812 h 1.21875 l 0.125,1.20312 q 0.42188,-0.65625 1.04688,-1.01562 0.64062,-0.375 1.40625,-0.375 z m 8.13855,0 q 0.71875,0 1.3125,0.21875 0.59375,0.20312 1.14062,0.65625 l -0.67187,0.89062 q -0.42188,-0.3125 -0.82813,-0.45312 -0.40625,-0.14063 -0.90625,-0.14063 -0.96875,0 -1.51562,0.78125 -0.54688,0.78125 -0.54688,2.3125 0,1.53125 0.53125,2.26563 0.54688,0.71875 1.53125,0.71875 0.48438,0 0.875,-0.14063 0.40625,-0.14062 0.89063,-0.46875 l 0.64062,0.92188 q -1.09375,0.89062 -2.45312,0.89062 -1.64063,0 -2.59375,-1.09375 -0.9375,-1.10937 -0.9375,-3.0625 0,-1.28125 0.42187,-2.25 0.4375,-0.96875 1.21875,-1.5 0.79688,-0.54687 1.89063,-0.54687 z m 8.17059,0 q 1.10937,0 1.73437,0.67187 0.625,0.65625 0.625,1.79688 v 5.79687 h -1.42187 v -5.59375 q 0,-0.85937 -0.32813,-1.20312 -0.32812,-0.35938 -0.95312,-0.35938 -0.625,0 -1.125,0.375 -0.48438,0.35938 -0.92188,1.03125 v 5.75 h -1.40625 v -11.3125 l 1.40625,-0.15625 v 4.51563 q 0.95313,-1.3125 2.39063,-1.3125 z" />
  <path
     style="fill:#eeeeee;fill-rule:evenodd"
     inkscape:connector-curvature="0"
     id="path123"
     d="m 298.21064,38.68005 h 13.6413 c 1.88345,0 3.4103,3.58466 3.4103,8.00656 0,4.42191 -1.52685,8.00656 -3.4103,8.00656 h -13.6413 v 0 c -1.88348,0 -3.41034,-3.58465 -3.41034,-8.00656 0,-4.4219 1.52686,-8.00656 3.41034,-8.00656 z" />
  <path
     style="fill:#000000;fill-opacity:0;fill-rule:evenodd"
     inkscape:connector-curvature="0"
     id="path125"
     d="m 311.85193,54.69317 c -1.88348,0 -3.41034,-3.58466 -3.41034,-8.00656 0,-4.42191 1.52686,-8.00656 3.41034,-8.00656" />
  <path
     style="fill:#000000;fill-opacity:0;fill-rule:evenodd"
     inkscape:connector-curvature="0"
     id="path127"
     d="m 298.21064,38.68005 h 13.6413 c 1.88345,0 3.4103,3.58466 3.4103,8.00656 0,4.42191 -1.52685,8.00656 -3.4103,8.00656 h -13.6413 v 0 c -1.88348,0 -3.41034,-3.58465 -3.41034,-8.00656 0,-4.4219 1.52686,-8.00656 3.41034,-8.00656 z" />
  <path
     style="fill-rule:evenodd;stroke:#595959;stroke-width:1;stroke-linecap:butt;stroke-linejoin:round"
     inkscape:connector-curvature="0"
     id="path129"
     d="m 311.85193,54.69317 c -1.88348,0 -3.41034,-3.58466 -3.41034,-8.00656 0,-4.42191 1.52686,-8.00656 3.41034,-8.00656" />
  <path
     style="fill-rule:evenodd;stroke:#595959;stroke-width:1;stroke-linecap:butt;stroke-linejoin:round"
     inkscape:connector-curvature="0"
     id="path131"
     d="m 298.21064,38.68005 h 13.6413 c 1.88345,0 3.4103,3.58466 3.4103,8.00656 0,4.42191 -1.52685,8.00656 -3.4103,8.00656 h -13.6413 v 0 c -1.88348,0 -3.41034,-3.58465 -3.41034,-8.00656 0,-4.4219 1.52686,-8.00656 3.41034,-8.00656 z" />
  <path
     style="fill:#eeeeee;fill-rule:evenodd"
     inkscape:connector-curvature="0"
     id="path133"
     d="m 324.91755,38.68005 h -13.6413 c -1.88348,0 -3.41034,3.58466 -3.41034,8.00656 0,4.42191 1.52686,8.00656 3.41034,8.00656 h 13.6413 v 0 c 1.88345,0 3.41031,-3.58465 3.41031,-8.00656 0,-4.4219 -1.52686,-8.00656 -3.41031,-8.00656 z" />
  <path
     style="fill:#000000;fill-opacity:0;fill-rule:evenodd"
     inkscape:connector-curvature="0"
     id="path135"
     d="m 311.27625,54.69317 c 1.88345,0 3.41031,-3.58466 3.41031,-8.00656 0,-4.42191 -1.52686,-8.00656 -3.41031,-8.00656" />
  <path
     style="fill:#000000;fill-opacity:0;fill-rule:evenodd"
     inkscape:connector-curvature="0"
     id="path137"
     d="m 324.91755,38.68005 h -13.6413 c -1.88348,0 -3.41034,3.58466 -3.41034,8.00656 0,4.42191 1.52686,8.00656 3.41034,8.00656 h 13.6413 v 0 c 1.88345,0 3.41031,-3.58465 3.41031,-8.00656 0,-4.4219 -1.52686,-8.00656 -3.41031,-8.00656 z" />
  <path
     style="fill-rule:evenodd;stroke:#595959;stroke-width:1;stroke-linecap:butt;stroke-linejoin:round"
     inkscape:connector-curvature="0"
     id="path139"
     d="m 311.27625,54.69317 c 1.88345,0 3.41031,-3.58466 3.41031,-8.00656 0,-4.42191 -1.52686,-8.00656 -3.41031,-8.00656" />
  <path
     style="fill-rule:evenodd;stroke:#595959;stroke-width:1;stroke-linecap:butt;stroke-linejoin:round"
     inkscape:connector-curvature="0"
     id="path141"
     d="m 324.91755,38.68005 h -13.6413 c -1.88348,0 -3.41034,3.58466 -3.41034,8.00656 0,4.42191 1.52686,8.00656 3.41034,8.00656 h 13.6413 v 0 c 1.88345,0 3.41031,-3.58465 3.41031,-8.00656 0,-4.4219 -1.52686,-8.00656 -3.41031,-8.00656 z" />
  <path
     style="fill:#efefef;fill-rule:evenodd"
     inkscape:connector-curvature="0"
     id="path143"
     d="m 302.78193,39.03569 h 16.12598 v 15.24409 h -16.12598 z" />
  <path
     style="fill:#eeeeee;fill-rule:evenodd"
     inkscape:connector-curvature="0"
     id="path145"
     d="m 298.21064,108.5672 h 13.6413 c 1.88345,0 3.4103,3.58466 3.4103,8.00656 0,4.42191 -1.52685,8.00656 -3.4103,8.00656 h -13.6413 v 0 c -1.88348,0 -3.41034,-3.58465 -3.41034,-8.00656 0,-4.4219 1.52686,-8.00656 3.41034,-8.00656 z" />
  <path
     style="fill:#000000;fill-opacity:0;fill-rule:evenodd"
     inkscape:connector-curvature="0"
     id="path147"
     d="m 311.85193,124.58032 c -1.88348,0 -3.41034,-3.58466 -3.41034,-8.00656 0,-4.42191 1.52686,-8.00656 3.41034,-8.00656" />
  <path
     style="fill:#000000;fill-opacity:0;fill-rule:evenodd"
     inkscape:connector-curvature="0"
     id="path149"
     d="m 298.21064,108.5672 h 13.6413 c 1.88345,0 3.4103,3.58466 3.4103,8.00656 0,4.42191 -1.52685,8.00656 -3.4103,8.00656 h -13.6413 v 0 c -1.88348,0 -3.41034,-3.58465 -3.41034,-8.00656 0,-4.4219 1.52686,-8.00656 3.41034,-8.00656 z" />
  <path
     style="fill-rule:evenodd;stroke:#595959;stroke-width:1;stroke-linecap:butt;stroke-linejoin:round"
     inkscape:connector-curvature="0"
     id="path151"
     d="m 311.85193,124.58032 c -1.88348,0 -3.41034,-3.58466 -3.41034,-8.00656 0,-4.42191 1.52686,-8.00656 3.41034,-8.00656" />
  <path
     style="fill-rule:evenodd;stroke:#595959;stroke-width:1;stroke-linecap:butt;stroke-linejoin:round"
     inkscape:connector-curvature="0"
     id="path153"
     d="m 298.21064,108.5672 h 13.6413 c 1.88345,0 3.4103,3.58466 3.4103,8.00656 0,4.42191 -1.52685,8.00656 -3.4103,8.00656 h -13.6413 v 0 c -1.88348,0 -3.41034,-3.58465 -3.41034,-8.00656 0,-4.4219 1.52686,-8.00656 3.41034,-8.00656 z" />
  <path
     style="fill:#eeeeee;fill-rule:evenodd"
     inkscape:connector-curvature="0"
     id="path155"
     d="m 324.91755,108.5672 h -13.6413 c -1.88348,0 -3.41034,3.58466 -3.41034,8.00656 0,4.42191 1.52686,8.00656 3.41034,8.00656 h 13.6413 v 0 c 1.88345,0 3.41031,-3.58465 3.41031,-8.00656 0,-4.4219 -1.52686,-8.00656 -3.41031,-8.00656 z" />
  <path
     style="fill:#000000;fill-opacity:0;fill-rule:evenodd"
     inkscape:connector-curvature="0"
     id="path157"
     d="m 311.27625,124.58032 c 1.88345,0 3.41031,-3.58466 3.41031,-8.00656 0,-4.42191 -1.52686,-8.00656 -3.41031,-8.00656" />
  <path
     style="fill:#000000;fill-opacity:0;fill-rule:evenodd"
     inkscape:connector-curvature="0"
     id="path159"
     d="m 324.91755,108.5672 h -13.6413 c -1.88348,0 -3.41034,3.58466 -3.41034,8.00656 0,4.42191 1.52686,8.00656 3.41034,8.00656 h 13.6413 v 0 c 1.88345,0 3.41031,-3.58465 3.41031,-8.00656 0,-4.4219 -1.52686,-8.00656 -3.41031,-8.00656 z" />
  <path
     style="fill-rule:evenodd;stroke:#595959;stroke-width:1;stroke-linecap:butt;stroke-linejoin:round"
     inkscape:connector-curvature="0"
     id="path161"
     d="m 311.27625,124.58032 c 1.88345,0 3.41031,-3.58466 3.41031,-8.00656 0,-4.42191 -1.52686,-8.00656 -3.41031,-8.00656" />
  <path
     style="fill-rule:evenodd;stroke:#595959;stroke-width:1;stroke-linecap:butt;stroke-linejoin:round"
     inkscape:connector-curvature="0"
     id="path163"
     d="m 324.91755,108.5672 h -13.6413 c -1.88348,0 -3.41034,3.58466 -3.41034,8.00656 0,4.42191 1.52686,8.00656 3.41034,8.00656 h 13.6413 v 0 c 1.88345,0 3.41031,-3.58465 3.41031,-8.00656 0,-4.4219 -1.52686,-8.00656 -3.41031,-8.00656 z" />
  <path
     style="fill:#efefef;fill-rule:evenodd"
     inkscape:connector-curvature="0"
     id="path165"
     d="m 302.78193,108.92282 h 16.12598 v 15.24411 h -16.12598 z" />
</svg>
