<?xml version="1.0" encoding="UTF-8" standalone="no"?>
<svg
   version="1.1"
   viewBox="0 0 732.1496 232.74016"
   fill="none"
   stroke="none"
   stroke-linecap="square"
   stroke-miterlimit="10"
   id="svg227"
   sodipodi:docname="branching.svg"
   width="732.1496"
   height="232.74016"
   inkscape:version="1.1.2 (0a00cf5339, 2022-02-04)"
   xmlns:inkscape="http://www.inkscape.org/namespaces/inkscape"
   xmlns:sodipodi="http://sodipodi.sourceforge.net/DTD/sodipodi-0.dtd"
   xmlns="http://www.w3.org/2000/svg"
   xmlns:svg="http://www.w3.org/2000/svg">
  <defs
     id="defs231" />
  <sodipodi:namedview
     id="namedview229"
     pagecolor="#ffffff"
     bordercolor="#666666"
     borderopacity="1.0"
     inkscape:pageshadow="2"
     inkscape:pageopacity="0.0"
     inkscape:pagecheckerboard="0"
     showgrid="false"
     inkscape:zoom="1.3197917"
     inkscape:cx="402.33623"
     inkscape:cy="151.16022"
     inkscape:window-width="1918"
     inkscape:window-height="1198"
     inkscape:window-x="3840"
     inkscape:window-y="0"
     inkscape:window-maximized="1"
     inkscape:current-layer="svg227" />
  <clipPath
     id="g1fb832bab84_0_348.0">
    <path
       d="M 0,0 H 960 V 540 H 0 Z"
       clip-rule="nonzero"
       id="path2" />
  </clipPath>
  <path
     fill="#ffab40"
     d="m 171.65354,39.45747 v 0 C 171.65354,18.218 188.87153,1 210.111,1 h 482.58115 c 10.19952,0 19.98138,4.05176 27.19354,11.26393 7.21216,7.21217 11.26392,16.99399 11.26392,27.19354 V 193.2827 c 0,21.23947 -17.21802,38.45746 -38.45746,38.45746 H 210.111 v 0 c -21.23947,0 -38.45746,-17.21799 -38.45746,-38.45746 z"
     fill-rule="evenodd"
     id="path7" />
  <path
     stroke="#000000"
     stroke-width="2"
     stroke-linejoin="round"
     stroke-linecap="butt"
     d="m 171.65354,39.45747 v 0 C 171.65354,18.218 188.87153,1 210.111,1 h 482.58115 c 10.19952,0 19.98138,4.05176 27.19354,11.26393 7.21216,7.21217 11.26392,16.99399 11.26392,27.19354 V 193.2827 c 0,21.23947 -17.21802,38.45746 -38.45746,38.45746 H 210.111 v 0 c -21.23947,0 -38.45746,-17.21799 -38.45746,-38.45746 z"
     fill-rule="evenodd"
     id="path9" />
  <path
     fill="#f3f3f3"
     d="m 181.479,47.0928 v 0 c 0,-19.26802 15.61981,-34.88783 34.88782,-34.88783 h 471.20074 c 9.2528,0 18.12665,3.67567 24.66937,10.21841 6.54279,6.54274 10.21844,15.4166 10.21844,24.66942 v 139.54716 c 0,19.268 -15.61981,34.88785 -34.88781,34.88785 H 216.36682 v 0 c -19.26801,0 -34.88782,-15.61985 -34.88782,-34.88785 z"
     fill-rule="evenodd"
     id="path11" />
  <path
     stroke="#000000"
     stroke-width="2"
     stroke-linejoin="round"
     stroke-linecap="butt"
     d="m 181.479,47.0928 v 0 c 0,-19.26802 15.61981,-34.88783 34.88782,-34.88783 h 471.20074 c 9.2528,0 18.12665,3.67567 24.66937,10.21841 6.54279,6.54274 10.21844,15.4166 10.21844,24.66942 v 139.54716 c 0,19.268 -15.61981,34.88785 -34.88781,34.88785 H 216.36682 v 0 c -19.26801,0 -34.88782,-15.61985 -34.88782,-34.88785 z"
     fill-rule="evenodd"
     id="path13" />
  <path
     fill="#d0e0e3"
     d="m 324.4195,100.6537 v 0 c 0,-4.45026 3.60767,-8.05791 8.05792,-8.05791 h 92.04166 c 2.13709,0 4.18665,0.84896 5.69782,2.36011 1.51114,1.51114 2.3601,3.5607 2.3601,5.6978 v 32.23064 c 0,4.45027 -3.60766,8.0579 -8.05792,8.0579 h -92.04166 c -4.45025,0 -8.05792,-3.60763 -8.05792,-8.0579 z"
     fill-rule="evenodd"
     id="path15" />
  <path
     stroke="#000000"
     stroke-width="2"
     stroke-linejoin="round"
     stroke-linecap="butt"
     d="m 324.4195,100.6537 v 0 c 0,-4.45026 3.60767,-8.05791 8.05792,-8.05791 h 92.04166 c 2.13709,0 4.18665,0.84896 5.69782,2.36011 1.51114,1.51114 2.3601,3.5607 2.3601,5.6978 v 32.23064 c 0,4.45027 -3.60766,8.0579 -8.05792,8.0579 h -92.04166 c -4.45025,0 -8.05792,-3.60763 -8.05792,-8.0579 z"
     fill-rule="evenodd"
     id="path17" />
  <path
     fill="#000000"
     d="m 369.6745,111.92651 q 1.95313,0 3.03125,0.82812 1.07813,0.8125 1.07813,2.4375 0,1.73438 -1.125,2.57813 -1.125,0.84375 -2.96875,0.84375 h -1.34375 v 3.875 h -1.45313 v -10.5625 z m -0.0469,5.53125 q 1.26562,0 1.92187,-0.48438 0.67188,-0.5 0.67188,-1.76562 0,-1.14063 -0.67188,-1.64063 -0.65625,-0.5 -1.89062,-0.5 h -1.3125 v 4.39063 z m 9.87441,-5.71875 q 0.9375,0 1.59375,0.25 0.65625,0.25 1.32813,0.79687 l -0.79688,0.9375 q -0.96875,-0.78125 -2.04687,-0.78125 -1.3125,0 -2.125,1.01563 -0.79688,1 -0.79688,3.25 0,2.17187 0.79688,3.20312 0.79687,1.03125 2.10937,1.03125 0.6875,0 1.1875,-0.21875 0.5,-0.23437 1.07813,-0.65625 l 0.71875,0.92188 q -0.5,0.51562 -1.26563,0.85937 -0.76562,0.32813 -1.76562,0.32813 -1.28125,0 -2.28125,-0.64063 -1,-0.64062 -1.5625,-1.875 -0.5625,-1.23437 -0.5625,-2.95312 0,-1.73438 0.57812,-2.96875 0.59375,-1.23438 1.57813,-1.85938 1,-0.64062 2.23437,-0.64062 z m 10.50565,10.75 -0.79687,-2.65625 h -4 l -0.79688,2.65625 h -1.46875 l 3.39063,-10.5625 h 1.82812 l 3.375,10.5625 z m -4.4375,-3.82813 h 3.29688 l -1.64063,-5.51562 z"
     fill-rule="nonzero"
     id="path19" />
  <path
     fill="#d0e0e3"
     fill-opacity="0.4577"
     d="m 324.07612,164.88929 v 0 c 0,-4.45026 3.60764,-8.05789 8.05789,-8.05789 h 92.04169 c 2.13709,0 4.18665,0.84894 5.69779,2.36008 1.51114,1.51116 2.3601,3.56072 2.3601,5.69781 v 32.23065 c 0,4.45026 -3.60763,8.05789 -8.05789,8.05789 h -92.04169 c -4.45025,0 -8.05789,-3.60763 -8.05789,-8.05789 z"
     fill-rule="evenodd"
     id="path21" />
  <path
     stroke="#cccccc"
     stroke-width="2"
     stroke-linejoin="round"
     stroke-linecap="butt"
     d="m 324.07612,164.88929 v 0 c 0,-4.45026 3.60764,-8.05789 8.05789,-8.05789 h 92.04169 c 2.13709,0 4.18665,0.84894 5.69779,2.36008 1.51114,1.51116 2.3601,3.56072 2.3601,5.69781 v 32.23065 c 0,4.45026 -3.60763,8.05789 -8.05789,8.05789 h -92.04169 c -4.45025,0 -8.05789,-3.60763 -8.05789,-8.05789 z"
     fill-rule="evenodd"
     id="path23" />
  <path
     fill="#cccccc"
     d="m 364.05503,175.97462 q 1.0625,0 1.8125,0.3125 0.75,0.29687 1.45312,0.92187 l -0.79687,0.89063 q -0.59375,-0.48438 -1.17188,-0.70313 -0.57812,-0.21875 -1.23437,-0.21875 -0.82813,0 -1.375,0.39063 -0.53125,0.375 -0.53125,1.10937 0,0.45313 0.1875,0.78125 0.1875,0.3125 0.67187,0.57813 0.5,0.25 1.45313,0.54687 1,0.29688 1.65625,0.65625 0.65625,0.34375 1.0625,0.96875 0.40625,0.625 0.40625,1.57813 0,0.92187 -0.45313,1.625 -0.4375,0.70312 -1.29687,1.10937 -0.84375,0.39063 -2.01563,0.39063 -2.1875,0 -3.57812,-1.375 l 0.79687,-0.875 q 0.64063,0.51562 1.29688,0.78125 0.65625,0.26562 1.46875,0.26562 0.98437,0 1.625,-0.48437 0.64062,-0.48438 0.64062,-1.39063 0,-0.53125 -0.20312,-0.875 -0.1875,-0.34375 -0.67188,-0.60937 -0.48437,-0.28125 -1.40625,-0.5625 -1.625,-0.48438 -2.375,-1.17188 -0.75,-0.70312 -0.75,-1.875 0,-0.79687 0.42188,-1.42187 0.42187,-0.64063 1.17187,-0.98438 0.76563,-0.35937 1.73438,-0.35937 z m 8.61948,2.48437 q 0.71875,0 1.3125,0.21875 0.59375,0.20313 1.14062,0.65625 l -0.67187,0.89063 q -0.42188,-0.3125 -0.82813,-0.45313 -0.40625,-0.14062 -0.90625,-0.14062 -0.96875,0 -1.51562,0.78125 -0.54688,0.78125 -0.54688,2.3125 0,1.53125 0.53125,2.26562 0.54688,0.71875 1.53125,0.71875 0.48438,0 0.875,-0.14062 0.40625,-0.14063 0.89063,-0.46875 l 0.64062,0.92187 q -1.09375,0.89063 -2.45312,0.89063 -1.64063,0 -2.59375,-1.09375 -0.9375,-1.10938 -0.9375,-3.0625 0,-1.28125 0.42187,-2.25 0.4375,-0.96875 1.21875,-1.5 0.79688,-0.54688 1.89063,-0.54688 z m 9.65789,6.375 q 0,0.5 0.17188,0.73438 0.17187,0.23437 0.51562,0.35937 l -0.32812,0.98438 q -0.625,-0.0781 -1.01563,-0.34375 -0.375,-0.28125 -0.5625,-0.875 -0.8125,1.21875 -2.40625,1.21875 -1.20312,0 -1.89062,-0.67188 -0.6875,-0.6875 -0.6875,-1.76562 0,-1.29688 0.92187,-1.98438 0.9375,-0.6875 2.64063,-0.6875 h 1.23437 v -0.59375 q 0,-0.85937 -0.42187,-1.21875 -0.40625,-0.375 -1.26563,-0.375 -0.89062,0 -2.17187,0.42188 l -0.35938,-1.01563 q 1.51563,-0.5625 2.79688,-0.5625 1.42187,0 2.125,0.70313 0.70312,0.70312 0.70312,1.98437 z m -3.29687,1.01563 q 1.20312,0 1.89062,-1.25 v -1.85938 h -1.04687 q -2.25,0 -2.25,1.65625 0,0.71875 0.34375,1.09375 0.35937,0.35938 1.0625,0.35938 z m 7.65393,1.0625 q -0.78125,0 -1.23438,-0.46875 -0.45312,-0.46875 -0.45312,-1.3125 v -9.73438 l 1.42187,-0.17187 v 9.875 q 0,0.34375 0.10938,0.5 0.10937,0.14062 0.39062,0.14062 0.29688,0 0.51563,-0.0937 l 0.375,0.98438 q -0.51563,0.28125 -1.125,0.28125 z m 8.91449,-4.46875 q 0,0.35937 -0.0312,0.71875 h -5.15625 q 0.0937,1.34375 0.67187,1.96875 0.57813,0.625 1.5,0.625 0.59375,0 1.07813,-0.15625 0.48437,-0.17188 1.03125,-0.54688 l 0.60937,0.84375 q -1.28125,1.01563 -2.82812,1.01563 -1.67188,0 -2.625,-1.09375 -0.9375,-1.10938 -0.9375,-3.04688 0,-1.26562 0.40625,-2.23437 0.40625,-0.96875 1.15625,-1.51563 0.76562,-0.5625 1.79687,-0.5625 1.60938,0 2.46875,1.0625 0.85938,1.0625 0.85938,2.92188 z m -1.40625,-0.40625 q 0,-1.20313 -0.46875,-1.82813 -0.46875,-0.625 -1.42188,-0.625 -1.73437,0 -1.89062,2.54688 h 3.78125 z"
     fill-rule="nonzero"
     id="path25" />
  <path
     fill="#d0e0e3"
     d="m 457.2441,46.07391 v 0 c 0,-11.24597 9.11664,-20.36263 20.36261,-20.36263 h 81.448 v 0 c 5.40045,0 10.57977,2.14534 14.3985,5.96409 3.81872,3.81872 5.96411,8.99803 5.96411,14.39854 v 141.85744 c 0,11.24597 -9.1167,20.36261 -20.36261,20.36261 h -81.448 c -11.24597,0 -20.36261,-9.11664 -20.36261,-20.36261 z"
     fill-rule="evenodd"
     id="path27" />
  <path
     stroke="#000000"
     stroke-width="2"
     stroke-linejoin="round"
     stroke-linecap="butt"
     d="m 457.2441,46.07391 v 0 c 0,-11.24597 9.11664,-20.36263 20.36261,-20.36263 h 81.448 v 0 c 5.40045,0 10.57977,2.14534 14.3985,5.96409 3.81872,3.81872 5.96411,8.99803 5.96411,14.39854 v 141.85744 c 0,11.24597 -9.1167,20.36261 -20.36261,20.36261 h -81.448 c -11.24597,0 -20.36261,-9.11664 -20.36261,-20.36261 z"
     fill-rule="evenodd"
     id="path29" />
  <path
     fill="#000000"
     d="m 470.45954,114.457 q 1.54687,0 2.26562,1.10937 0.71875,1.10938 0.71875,3.10938 0,1.90625 -0.82812,3.07812 -0.82813,1.15625 -2.34375,1.15625 -1.35938,0 -2.125,-0.92187 v 3.82812 l -1.40625,0.17188 V 114.6445 h 1.21875 l 0.10937,1.09375 q 0.4375,-0.625 1.0625,-0.95313 0.625,-0.32812 1.32813,-0.32812 z m -0.53125,7.29687 q 2,0 2,-3.07812 0,-3.09375 -1.82813,-3.09375 -0.59375,0 -1.09375,0.35937 -0.48437,0.34375 -0.85937,0.89063 v 3.9375 q 0.3125,0.48437 0.76562,0.73437 0.46875,0.25 1.01563,0.25 z m 8.94867,-7.29687 q 1.70312,0 2.64062,1.14062 0.95313,1.125 0.95313,3.07813 0,1.25 -0.4375,2.21875 -0.42188,0.95312 -1.23438,1.48437 -0.8125,0.53125 -1.9375,0.53125 -1.6875,0 -2.64062,-1.125 -0.95313,-1.14062 -0.95313,-3.09375 0,-1.25 0.42188,-2.20312 0.4375,-0.96875 1.25,-1.5 0.8125,-0.53125 1.9375,-0.53125 z m 0,1.14062 q -2.09375,0 -2.09375,3.09375 0,3.07813 2.07812,3.07813 2.09375,0 2.09375,-3.09375 0,-3.07813 -2.07812,-3.07813 z m 8.82666,-5.21875 q -0.79688,1.1875 -1.26563,2.125 -0.46875,0.92188 -0.75,2.10938 -0.26562,1.17187 -0.26562,2.75 0,1.5625 0.26562,2.75 0.28125,1.17187 0.75,2.10937 0.46875,0.9375 1.26563,2.10938 l -0.89063,0.60937 q -1.01562,-1.4375 -1.5625,-2.35937 -0.54687,-0.9375 -0.92187,-2.21875 -0.375,-1.29688 -0.375,-3 0,-1.70313 0.375,-3 0.375,-1.29688 0.92187,-2.21875 0.54688,-0.9375 1.5625,-2.375 z m 1.76318,5.79688 -0.23437,-4.01563 h 1.51562 l -0.23437,4.01563 z m 2.76563,0 -0.23438,-4.01563 h 1.51563 l -0.23438,4.01563 z m 9.66284,6.54687 h -1.21875 l -0.10938,-1.25 q -0.45312,0.75 -1.0625,1.09375 -0.59375,0.34375 -1.45312,0.34375 -1.04688,0 -1.65625,-0.64062 -0.59375,-0.65625 -0.59375,-1.82813 v -5.79687 h 1.42187 v 5.64062 q 0,0.82813 0.28125,1.17188 0.29688,0.34375 0.95313,0.34375 1.1875,0 2.01562,-1.39063 v -5.76562 h 1.42188 z m 6.70221,-8.26562 q 1.10937,0 1.73437,0.67187 0.625,0.65625 0.625,1.79688 v 5.79687 h -1.42187 v -5.59375 q 0,-0.85937 -0.32813,-1.20312 -0.3125,-0.35938 -0.9375,-0.35938 -0.64062,0 -1.14062,0.375 -0.48438,0.35938 -0.92188,1.04688 v 5.73437 h -1.40625 v -8.07812 h 1.21875 l 0.125,1.20312 q 0.42188,-0.65625 1.04688,-1.01562 0.64062,-0.375 1.40625,-0.375 z m 8.88855,0 q 1.375,0 2.1875,1.10937 0.8125,1.10938 0.8125,3.10938 0,1.25 -0.39063,2.21875 -0.375,0.95312 -1.09375,1.48437 -0.71875,0.53125 -1.6875,0.53125 -1.28125,0 -2.15625,-1.07812 l -0.125,0.89062 h -1.25 V 111.3945 l 1.40625,-0.17188 v 4.4375 q 0.875,-1.20312 2.29688,-1.20312 z m -0.51563,7.32812 q 0.9375,0 1.46875,-0.75 0.53125,-0.76562 0.53125,-2.35937 0,-1.64063 -0.5,-2.35938 -0.48437,-0.73437 -1.39062,-0.73437 -1.07813,0 -1.89063,1.25 v 3.875 q 0.32813,0.5 0.79688,0.79687 0.46875,0.28125 0.98437,0.28125 z m 9.43311,-7.32812 q 0.42187,0 0.79687,0.0937 l -0.26562,1.375 q -0.35938,-0.0781 -0.70313,-0.0781 -0.75,0 -1.21875,0.54688 -0.45312,0.54687 -0.71875,1.71875 v 4.60937 h -1.40625 v -8.07812 h 1.21875 l 0.14063,1.64062 q 0.3125,-0.90625 0.85937,-1.35937 0.5625,-0.46875 1.29688,-0.46875 z m 7.30188,6.375 q 0,0.5 0.17187,0.73437 0.17188,0.23438 0.51563,0.35938 l -0.32813,0.98437 q -0.625,-0.0781 -1.01562,-0.34375 -0.375,-0.28125 -0.5625,-0.875 -0.8125,1.21875 -2.40625,1.21875 -1.20313,0 -1.89063,-0.67187 -0.6875,-0.6875 -0.6875,-1.76563 0,-1.29687 0.92188,-1.98437 0.9375,-0.6875 2.64062,-0.6875 h 1.23438 V 117.207 q 0,-0.85938 -0.42188,-1.21875 -0.40625,-0.375 -1.26562,-0.375 -0.89063,0 -2.17188,0.42187 l -0.35937,-1.01562 q 1.51562,-0.5625 2.79687,-0.5625 1.42188,0 2.125,0.70312 0.70313,0.70313 0.70313,1.98438 z m -3.29688,1.01562 q 1.20313,0 1.89063,-1.25 v -1.85937 h -1.04688 q -2.25,0 -2.25,1.65625 0,0.71875 0.34375,1.09375 0.35938,0.35937 1.0625,0.35937 z m 9.99476,-7.39062 q 1.10937,0 1.73437,0.67187 0.625,0.65625 0.625,1.79688 v 5.79687 h -1.42187 v -5.59375 q 0,-0.85937 -0.32813,-1.20312 -0.3125,-0.35938 -0.9375,-0.35938 -0.64062,0 -1.14062,0.375 -0.48438,0.35938 -0.92188,1.04688 v 5.73437 h -1.40625 v -8.07812 h 1.21875 l 0.125,1.20312 q 0.42188,-0.65625 1.04688,-1.01562 0.64062,-0.375 1.40625,-0.375 z m 8.13855,0 q 0.71875,0 1.3125,0.21875 0.59375,0.20312 1.14062,0.65625 l -0.67187,0.89062 q -0.42188,-0.3125 -0.82813,-0.45312 -0.40625,-0.14063 -0.90625,-0.14063 -0.96875,0 -1.51562,0.78125 -0.54688,0.78125 -0.54688,2.3125 0,1.53125 0.53125,2.26563 0.54688,0.71875 1.53125,0.71875 0.48438,0 0.875,-0.14063 0.40625,-0.14062 0.89063,-0.46875 l 0.64062,0.92188 q -1.09375,0.89062 -2.45312,0.89062 -1.64063,0 -2.59375,-1.09375 -0.9375,-1.10937 -0.9375,-3.0625 0,-1.28125 0.42187,-2.25 0.4375,-0.96875 1.21875,-1.5 0.79688,-0.54687 1.89063,-0.54687 z m 8.17065,0 q 1.10937,0 1.73437,0.67187 0.625,0.65625 0.625,1.79688 v 5.79687 h -1.42187 v -5.59375 q 0,-0.85937 -0.32813,-1.20312 -0.32812,-0.35938 -0.95312,-0.35938 -0.625,0 -1.125,0.375 -0.48438,0.35938 -0.92188,1.03125 v 5.75 h -1.40625 v -11.3125 l 1.40625,-0.15625 v 4.51563 q 0.95313,-1.3125 2.39063,-1.3125 z m 4.73517,1.71875 -0.23438,-4.01563 h 1.51563 l -0.23438,4.01563 z m 2.76562,0 -0.23437,-4.01563 h 1.51562 l -0.23437,4.01563 z m 3.69409,-6.40625 q 1.01563,1.4375 1.5625,2.375 0.54688,0.92187 0.92188,2.21875 0.375,1.29687 0.375,3 0,1.70312 -0.375,3 -0.375,1.28125 -0.92188,2.21875 -0.54687,0.92187 -1.5625,2.35937 l -0.89062,-0.60937 q 0.79687,-1.17188 1.26562,-2.10938 0.46875,-0.9375 0.73438,-2.10937 0.26562,-1.1875 0.26562,-2.75 0,-1.57813 -0.26562,-2.75 -0.26563,-1.1875 -0.73438,-2.10938 -0.46875,-0.9375 -1.26562,-2.125 z"
     fill-rule="nonzero"
     id="path31" />
  <path
     fill="#9fc5e8"
     d="m 115.57728,106.90027 h 34.37796 v -6.27559 l 12.55118,12.55118 -12.55118,12.55118 v -6.27559 h -34.37796 z"
     fill-rule="evenodd"
     id="path33" />
  <path
     stroke="#595959"
     stroke-width="1"
     stroke-linejoin="round"
     stroke-linecap="butt"
     d="m 115.57728,106.90027 h 34.37796 v -6.27559 l 12.55118,12.55118 -12.55118,12.55118 v -6.27559 h -34.37796 z"
     fill-rule="evenodd"
     id="path35" />
  <path
     fill="#6d9eeb"
     d="M 1,65.32226 H 97.66141 V 168.28288 H 1 Z"
     fill-rule="evenodd"
     id="path37" />
  <path
     stroke="#000000"
     stroke-width="2"
     stroke-linejoin="round"
     stroke-linecap="butt"
     d="M 1,65.32226 H 97.66141 V 168.28288 H 1 Z"
     fill-rule="evenodd"
     id="path39" />
  <path
     fill="#000000"
     d="m 24.84844,99.8632 -0.1875,1.51562 h -3.5625 v 11.34375 h -1.765625 v -11.34375 h -3.65625 V 99.8632 Z m 5.67903,2.79687 q 0.51563,0 0.96875,0.125 l -0.3125,1.67188 q -0.45312,-0.10938 -0.85937,-0.10938 -0.92188,0 -1.48438,0.67188 -0.54687,0.67187 -0.875,2.09375 v 5.60937 h -1.71875 v -9.82812 h 1.48438 l 0.17187,2 q 0.39063,-1.10938 1.0625,-1.67188 0.67188,-0.5625 1.5625,-0.5625 z m 8.89173,7.76563 q 0,0.59375 0.20312,0.89062 0.21875,0.28125 0.625,0.4375 l -0.39062,1.1875 q -0.76563,-0.0937 -1.23438,-0.42187 -0.46875,-0.34375 -0.6875,-1.04688 -1,1.46875 -2.9375,1.46875 -1.45312,0 -2.29687,-0.8125 -0.82813,-0.82812 -0.82813,-2.15625 0,-1.5625 1.125,-2.39062 1.125,-0.84375 3.20313,-0.84375 h 1.5 v -0.73438 q 0,-1.04687 -0.5,-1.48437 -0.5,-0.45313 -1.54688,-0.45313 -1.07812,0 -2.64062,0.51563 l -0.4375,-1.25 q 1.82812,-0.67188 3.39062,-0.67188 1.73438,0 2.59375,0.85938 0.85938,0.84375 0.85938,2.40625 z m -4.03125,1.23437 q 1.48437,0 2.3125,-1.53125 v -2.25 H 36.4192 q -2.71875,0 -2.71875,2.01563 0,0.875 0.42187,1.32812 0.4375,0.4375 1.26563,0.4375 z m 9.274,-8.76562 v 9.82812 H 42.9432 v -9.82812 z M 43.80257,98.1757 q 0.53125,0 0.85938,0.34375 0.34375,0.32812 0.34375,0.82812 0,0.5 -0.34375,0.82813 -0.32813,0.32812 -0.85938,0.32812 -0.53125,0 -0.875,-0.32812 -0.32812,-0.32813 -0.32812,-0.82813 0,-0.5 0.32812,-0.82812 0.34375,-0.34375 0.875,-0.34375 z m 9.04232,4.48437 q 1.34375,0 2.09375,0.8125 0.75,0.79688 0.75,2.20313 v 7.04687 h -1.71875 v -6.8125 q 0,-1.04687 -0.39063,-1.46875 -0.39062,-0.4375 -1.15625,-0.4375 -0.78125,0 -1.375,0.45313 -0.59375,0.45312 -1.125,1.28125 v 6.98437 h -1.71875 v -9.82812 h 1.48438 l 0.14062,1.45312 q 0.53125,-0.78125 1.29688,-1.23437 0.78125,-0.45313 1.71875,-0.45313 z m 8.01069,0.23438 v 9.82812 h -1.71875 v -9.82812 z M 59.99621,98.1757 q 0.53125,0 0.85937,0.34375 0.34375,0.32812 0.34375,0.82812 0,0.5 -0.34375,0.82813 -0.32812,0.32812 -0.85937,0.32812 -0.53125,0 -0.875,-0.32812 -0.32813,-0.32813 -0.32813,-0.82813 0,-0.5 0.32813,-0.82812 0.34375,-0.34375 0.875,-0.34375 z m 9.04231,4.48437 q 1.34375,0 2.09375,0.8125 0.75,0.79688 0.75,2.20313 v 7.04687 h -1.71875 v -6.8125 q 0,-1.04687 -0.39063,-1.46875 -0.39062,-0.4375 -1.15625,-0.4375 -0.78125,0 -1.375,0.45313 -0.59375,0.45312 -1.125,1.28125 v 6.98437 h -1.71875 v -9.82812 h 1.48438 l 0.14062,1.45312 q 0.53125,-0.78125 1.29688,-1.23437 0.78125,-0.45313 1.71875,-0.45313 z m 14.22945,0.67188 q -0.5625,0.1875 -1.23438,0.25 -0.67187,0.0625 -1.64062,0.0625 1.73437,0.78125 1.73437,2.46875 0,1.48437 -1.01562,2.42187 -1,0.92188 -2.73438,0.92188 -0.67187,0 -1.25,-0.1875 -0.21875,0.15625 -0.35937,0.40625 -0.125,0.25 -0.125,0.51562 0,0.79688 1.28125,0.79688 h 1.57812 q 0.98438,0 1.75,0.35937 0.76563,0.34375 1.1875,0.96875 0.42188,0.60938 0.42188,1.39063 0,1.4375 -1.1875,2.20312 -1.17188,0.78125 -3.42188,0.78125 -1.59375,0 -2.51562,-0.32812 -0.92188,-0.3125 -1.3125,-0.96875 -0.39063,-0.65625 -0.39063,-1.6875 h 1.54688 q 0,0.59375 0.21875,0.9375 0.23437,0.35937 0.8125,0.53125 0.57812,0.17187 1.64062,0.17187 1.54688,0 2.20313,-0.39062 0.67187,-0.375 0.67187,-1.14063 0,-0.6875 -0.53125,-1.04687 -0.51562,-0.34375 -1.45312,-0.34375 h -1.54688 q -1.25,0 -1.89062,-0.53125 -0.64063,-0.53125 -0.64063,-1.34375 0,-0.48438 0.26563,-0.92188 0.28125,-0.45312 0.8125,-0.8125 -0.85938,-0.4375 -1.26563,-1.09375 -0.39062,-0.67187 -0.39062,-1.625 0,-0.98437 0.48437,-1.76562 0.5,-0.78125 1.35938,-1.21875 0.875,-0.45313 1.9375,-0.45313 1.15625,0.0312 1.9375,-0.0781 0.78125,-0.10938 1.29687,-0.28125 0.51563,-0.17188 1.26563,-0.51563 z m -5,0.5625 q -0.96875,0 -1.5,0.60937 -0.53125,0.60938 -0.53125,1.59375 0,1.01563 0.53125,1.625 0.54687,0.59375 1.53125,0.59375 1.01562,0 1.54687,-0.57812 0.53125,-0.59375 0.53125,-1.65625 0,-2.1875 -2.10937,-2.1875 z"
     fill-rule="nonzero"
     id="path41" />
  <path
     fill="#000000"
     d="m 40.31445,121.8632 -0.1875,1.51562 h -3.5625 v 11.34375 h -1.76563 v -11.34375 h -3.65625 v -1.51562 z m 7.64944,10.5625 q 0,0.59375 0.20313,0.89062 0.21875,0.28125 0.625,0.4375 l -0.39063,1.1875 q -0.76562,-0.0937 -1.23437,-0.42187 -0.46875,-0.34375 -0.6875,-1.04688 -1,1.46875 -2.9375,1.46875 -1.45313,0 -2.29688,-0.8125 -0.82812,-0.82812 -0.82812,-2.15625 0,-1.5625 1.125,-2.39062 1.125,-0.84375 3.20312,-0.84375 h 1.5 v -0.73438 q 0,-1.04687 -0.5,-1.48437 -0.5,-0.45313 -1.54687,-0.45313 -1.07813,0 -2.64063,0.51563 l -0.4375,-1.25 q 1.82813,-0.67188 3.39063,-0.67188 1.73437,0 2.59375,0.85938 0.85937,0.84375 0.85937,2.40625 z m -4.03125,1.23437 q 1.48438,0 2.3125,-1.53125 v -2.25 h -1.28125 q -2.71875,0 -2.71875,2.01563 0,0.875 0.42188,1.32812 0.4375,0.4375 1.26562,0.4375 z m 10.04048,-9 q 1.01562,0 1.8125,0.28125 0.79687,0.28125 1.53125,0.84375 l -0.73438,1.07813 q -0.67187,-0.42188 -1.28125,-0.625 -0.59375,-0.20313 -1.26562,-0.20313 -0.84375,0 -1.32813,0.34375 -0.48437,0.34375 -0.48437,0.9375 0,0.59375 0.45312,0.9375 0.45313,0.32813 1.65625,0.64063 1.64063,0.42187 2.45313,1.125 0.8125,0.70312 0.8125,1.9375 0,1.45312 -1.14063,2.21875 -1.125,0.76562 -2.75,0.76562 -2.23437,0 -3.70313,-1.28125 l 0.90626,-1.04687 q 1.25,0.95312 2.76562,0.95312 0.96875,0 1.53125,-0.39062 0.57813,-0.40625 0.57813,-1.10938 0,-0.5 -0.20313,-0.79687 -0.20312,-0.3125 -0.71875,-0.54688 -0.5,-0.23437 -1.46875,-0.5 -1.5625,-0.40625 -2.26562,-1.09375 -0.70313,-0.6875 -0.70313,-1.75 0,-0.76562 0.45313,-1.39062 0.46875,-0.625 1.28125,-0.96875 0.8125,-0.35938 1.8125,-0.35938 z m 7.75934,-3.9375 v 14 h -1.71875 v -13.78125 z m 5.65623,4.17188 -3.62498,4.34375 4.03123,5.48437 h -2.04687 l -3.90624,-5.375 3.62499,-4.45312 z"
     fill-rule="nonzero"
     id="path43" />
  <path
     fill="#eeeeee"
     d="m 457.57984,108.76336 h -13.6413 c -1.88348,0 -3.41034,3.58466 -3.41034,8.00656 0,4.42191 1.52686,8.00656 3.41034,8.00656 h 13.6413 v 0 c 1.88348,0 3.41034,-3.58465 3.41034,-8.00656 0,-4.4219 -1.52686,-8.00656 -3.41034,-8.00656 z"
     fill-rule="evenodd"
     id="path45" />
  <path
     fill="#000000"
     fill-opacity="0"
     d="m 443.93854,124.77649 c 1.88348,0 3.41034,-3.58466 3.41034,-8.00656 0,-4.42191 -1.52686,-8.00656 -3.41034,-8.00656"
     fill-rule="evenodd"
     id="path47" />
  <path
     fill="#000000"
     fill-opacity="0"
     d="m 457.57984,108.76336 h -13.6413 c -1.88348,0 -3.41034,3.58466 -3.41034,8.00656 0,4.42191 1.52686,8.00656 3.41034,8.00656 h 13.6413 v 0 c 1.88348,0 3.41034,-3.58465 3.41034,-8.00656 0,-4.4219 -1.52686,-8.00656 -3.41034,-8.00656 z"
     fill-rule="evenodd"
     id="path49" />
  <path
     stroke="#595959"
     stroke-width="1"
     stroke-linejoin="round"
     stroke-linecap="butt"
     d="m 443.93854,124.77649 c 1.88348,0 3.41034,-3.58466 3.41034,-8.00656 0,-4.42191 -1.52686,-8.00656 -3.41034,-8.00656"
     fill-rule="evenodd"
     id="path51" />
  <path
     stroke="#595959"
     stroke-width="1"
     stroke-linejoin="round"
     stroke-linecap="butt"
     d="m 457.57984,108.76336 h -13.6413 c -1.88348,0 -3.41034,3.58466 -3.41034,8.00656 0,4.42191 1.52686,8.00656 3.41034,8.00656 h 13.6413 v 0 c 1.88348,0 3.41034,-3.58465 3.41034,-8.00656 0,-4.4219 -1.52686,-8.00656 -3.41034,-8.00656 z"
     fill-rule="evenodd"
     id="path53" />
  <path
     fill="#eeeeee"
     d="m 430.87293,108.76336 h 13.6413 c 1.88348,0 3.41027,3.58466 3.41027,8.00656 0,4.42191 -1.52679,8.00656 -3.41027,8.00656 h -13.6413 v 0 c -1.88348,0 -3.41034,-3.58465 -3.41034,-8.00656 0,-4.4219 1.52686,-8.00656 3.41034,-8.00656 z"
     fill-rule="evenodd"
     id="path55" />
  <path
     fill="#000000"
     fill-opacity="0"
     d="m 444.5142,124.77649 c -1.88348,0 -3.41034,-3.58466 -3.41034,-8.00656 0,-4.42191 1.52686,-8.00656 3.41034,-8.00656"
     fill-rule="evenodd"
     id="path57" />
  <path
     fill="#000000"
     fill-opacity="0"
     d="m 430.87293,108.76336 h 13.6413 c 1.88348,0 3.41027,3.58466 3.41027,8.00656 0,4.42191 -1.52679,8.00656 -3.41027,8.00656 h -13.6413 v 0 c -1.88348,0 -3.41034,-3.58465 -3.41034,-8.00656 0,-4.4219 1.52686,-8.00656 3.41034,-8.00656 z"
     fill-rule="evenodd"
     id="path59" />
  <path
     stroke="#595959"
     stroke-width="1"
     stroke-linejoin="round"
     stroke-linecap="butt"
     d="m 444.5142,124.77649 c -1.88348,0 -3.41034,-3.58466 -3.41034,-8.00656 0,-4.42191 1.52686,-8.00656 3.41034,-8.00656"
     fill-rule="evenodd"
     id="path61" />
  <path
     stroke="#595959"
     stroke-width="1"
     stroke-linejoin="round"
     stroke-linecap="butt"
     d="m 430.87293,108.76336 h 13.6413 c 1.88348,0 3.41027,3.58466 3.41027,8.00656 0,4.42191 -1.52679,8.00656 -3.41027,8.00656 h -13.6413 v 0 c -1.88348,0 -3.41034,-3.58465 -3.41034,-8.00656 0,-4.4219 1.52686,-8.00656 3.41034,-8.00656 z"
     fill-rule="evenodd"
     id="path63" />
  <path
     fill="#efefef"
     d="m 453.00855,109.119 h -16.12604 v 15.24409 h 16.12604 z"
     fill-rule="evenodd"
     id="path65" />
  <path
     fill="#eeeeee"
     d="m 457.23645,172.99897 h -13.6413 c -1.88348,0 -3.41034,3.58466 -3.41034,8.00656 0,4.42188 1.52686,8.00656 3.41034,8.00656 h 13.6413 v 0 c 1.88342,0 3.41028,-3.58468 3.41028,-8.00656 0,-4.4219 -1.52686,-8.00656 -3.41028,-8.00656 z"
     fill-rule="evenodd"
     id="path67" />
  <path
     fill="#000000"
     fill-opacity="0"
     d="m 443.59516,189.0121 c 1.88342,0 3.41028,-3.58469 3.41028,-8.00656 0,-4.42191 -1.52686,-8.00656 -3.41028,-8.00656"
     fill-rule="evenodd"
     id="path69" />
  <path
     fill="#000000"
     fill-opacity="0"
     d="m 457.23645,172.99897 h -13.6413 c -1.88348,0 -3.41034,3.58466 -3.41034,8.00656 0,4.42188 1.52686,8.00656 3.41034,8.00656 h 13.6413 v 0 c 1.88342,0 3.41028,-3.58468 3.41028,-8.00656 0,-4.4219 -1.52686,-8.00656 -3.41028,-8.00656 z"
     fill-rule="evenodd"
     id="path71" />
  <path
     stroke="#cccccc"
     stroke-width="1"
     stroke-linejoin="round"
     stroke-linecap="butt"
     d="m 443.59516,189.0121 c 1.88342,0 3.41028,-3.58469 3.41028,-8.00656 0,-4.42191 -1.52686,-8.00656 -3.41028,-8.00656"
     fill-rule="evenodd"
     id="path73" />
  <path
     stroke="#cccccc"
     stroke-width="1"
     stroke-linejoin="round"
     stroke-linecap="butt"
     d="m 457.23645,172.99897 h -13.6413 c -1.88348,0 -3.41034,3.58466 -3.41034,8.00656 0,4.42188 1.52686,8.00656 3.41034,8.00656 h 13.6413 v 0 c 1.88342,0 3.41028,-3.58468 3.41028,-8.00656 0,-4.4219 -1.52686,-8.00656 -3.41028,-8.00656 z"
     fill-rule="evenodd"
     id="path75" />
  <path
     fill="#eeeeee"
     d="m 430.52952,172.99897 h 13.64127 c 1.88348,0 3.41034,3.58466 3.41034,8.00656 0,4.42188 -1.52686,8.00656 -3.41034,8.00656 h -13.64127 v 0 c -1.88348,0 -3.41034,-3.58468 -3.41034,-8.00656 0,-4.4219 1.52686,-8.00656 3.41034,-8.00656 z"
     fill-rule="evenodd"
     id="path77" />
  <path
     fill="#000000"
     fill-opacity="0"
     d="m 444.1708,189.0121 c -1.88342,0 -3.41028,-3.58469 -3.41028,-8.00656 0,-4.42191 1.52686,-8.00656 3.41028,-8.00656"
     fill-rule="evenodd"
     id="path79" />
  <path
     fill="#000000"
     fill-opacity="0"
     d="m 430.52952,172.99897 h 13.64127 c 1.88348,0 3.41034,3.58466 3.41034,8.00656 0,4.42188 -1.52686,8.00656 -3.41034,8.00656 h -13.64127 v 0 c -1.88348,0 -3.41034,-3.58468 -3.41034,-8.00656 0,-4.4219 1.52686,-8.00656 3.41034,-8.00656 z"
     fill-rule="evenodd"
     id="path81" />
  <path
     stroke="#cccccc"
     stroke-width="1"
     stroke-linejoin="round"
     stroke-linecap="butt"
     d="m 444.1708,189.0121 c -1.88342,0 -3.41028,-3.58469 -3.41028,-8.00656 0,-4.42191 1.52686,-8.00656 3.41028,-8.00656"
     fill-rule="evenodd"
     id="path83" />
  <path
     stroke="#cccccc"
     stroke-width="1"
     stroke-linejoin="round"
     stroke-linecap="butt"
     d="m 430.52952,172.99897 h 13.64127 c 1.88348,0 3.41034,3.58466 3.41034,8.00656 0,4.42188 -1.52686,8.00656 -3.41034,8.00656 h -13.64127 v 0 c -1.88348,0 -3.41034,-3.58468 -3.41034,-8.00656 0,-4.4219 1.52686,-8.00656 3.41034,-8.00656 z"
     fill-rule="evenodd"
     id="path85" />
  <path
     fill="#efefef"
     d="m 452.6651,173.3546 h -16.12598 v 15.24411 h 16.12598 z"
     fill-rule="evenodd"
     id="path87" />
  <path
     fill="#ffab40"
     d="m 711.5241,102.22493 v 0 c 0,-4.45026 -3.60767,-8.05789 -8.05792,-8.05789 h -92.04169 c -2.13709,0 -4.18665,0.84895 -5.69782,2.36009 -1.51111,1.51115 -2.3601,3.56071 -2.3601,5.6978 v 32.23065 c 0,4.45026 3.60766,8.05789 8.05792,8.05789 h 92.04169 c 4.45025,0 8.05792,-3.60763 8.05792,-8.05789 z"
     fill-rule="evenodd"
     id="path89" />
  <path
     stroke="#000000"
     stroke-width="2"
     stroke-linejoin="round"
     stroke-linecap="butt"
     d="m 711.5241,102.22493 v 0 c 0,-4.45026 -3.60767,-8.05789 -8.05792,-8.05789 h -92.04169 c -2.13709,0 -4.18665,0.84895 -5.69782,2.36009 -1.51111,1.51115 -2.3601,3.56071 -2.3601,5.6978 v 32.23065 c 0,4.45026 3.60766,8.05789 8.05792,8.05789 h 92.04169 c 4.45025,0 8.05792,-3.60763 8.05792,-8.05789 z"
     fill-rule="evenodd"
     id="path91" />
  <path
     fill="#000000"
     d="m 633.9504,113.49775 v 9.29688 h 4.34375 l -0.17188,1.26562 h -5.625 v -10.5625 z m 11.82825,6.28125 q 0,0.35938 -0.0312,0.71875 h -5.15625 q 0.0937,1.34375 0.67187,1.96875 0.57813,0.625 1.5,0.625 0.59375,0 1.07813,-0.15625 0.48437,-0.17187 1.03125,-0.54687 l 0.60937,0.84375 q -1.28125,1.01562 -2.82812,1.01562 -1.67188,0 -2.625,-1.09375 -0.9375,-1.10937 -0.9375,-3.04687 0,-1.26563 0.40625,-2.23438 0.40625,-0.96875 1.15625,-1.51562 0.76562,-0.5625 1.79687,-0.5625 1.60938,0 2.46875,1.0625 0.85938,1.0625 0.85938,2.92187 z m -1.40625,-0.40625 q 0,-1.20312 -0.46875,-1.82812 -0.46875,-0.625 -1.42188,-0.625 -1.73437,0 -1.89062,2.54687 h 3.78125 z m 8.93487,2.79688 q 0,0.5 0.17188,0.73437 0.17187,0.23438 0.51562,0.35938 l -0.32812,0.98437 q -0.625,-0.0781 -1.01563,-0.34375 -0.375,-0.28125 -0.5625,-0.875 -0.8125,1.21875 -2.40625,1.21875 -1.20312,0 -1.89062,-0.67187 -0.6875,-0.6875 -0.6875,-1.76563 0,-1.29687 0.92187,-1.98437 0.9375,-0.6875 2.64063,-0.6875 h 1.23437 v -0.59375 q 0,-0.85938 -0.42187,-1.21875 -0.40625,-0.375 -1.26563,-0.375 -0.89062,0 -2.17187,0.42187 l -0.35938,-1.01562 q 1.51563,-0.5625 2.79688,-0.5625 1.42187,0 2.125,0.70312 0.70312,0.70313 0.70312,1.98438 z m -3.29687,1.01562 q 1.20312,0 1.89062,-1.25 v -1.85937 h -1.04687 q -2.25,0 -2.25,1.65625 0,0.71875 0.34375,1.09375 0.35937,0.35937 1.0625,0.35937 z m 9.71356,-7.39062 q 0.42187,0 0.79687,0.0937 l -0.26562,1.375 q -0.35938,-0.0781 -0.70313,-0.0781 -0.75,0 -1.21875,0.54688 -0.45312,0.54687 -0.71875,1.71875 v 4.60937 h -1.40625 v -8.07812 h 1.21875 l 0.14063,1.64062 q 0.3125,-0.90625 0.85937,-1.35937 0.5625,-0.46875 1.29688,-0.46875 z m 6.19788,0 q 1.10937,0 1.73437,0.67187 0.625,0.65625 0.625,1.79688 v 5.79687 h -1.42187 v -5.59375 q 0,-0.85937 -0.32813,-1.20312 -0.3125,-0.35938 -0.9375,-0.35938 -0.64062,0 -1.14062,0.375 -0.48438,0.35938 -0.92188,1.04688 v 5.73437 h -1.40625 v -8.07812 h 1.21875 l 0.125,1.20312 q 0.42188,-0.65625 1.04688,-1.01562 0.64062,-0.375 1.40625,-0.375 z m 11.2948,3.98437 q 0,0.35938 -0.0312,0.71875 h -5.15625 q 0.0937,1.34375 0.67187,1.96875 0.57813,0.625 1.5,0.625 0.59375,0 1.07813,-0.15625 0.48437,-0.17187 1.03125,-0.54687 l 0.60937,0.84375 q -1.28125,1.01562 -2.82812,1.01562 -1.67188,0 -2.625,-1.09375 -0.9375,-1.10937 -0.9375,-3.04687 0,-1.26563 0.40625,-2.23438 0.40625,-0.96875 1.15625,-1.51562 0.76562,-0.5625 1.79687,-0.5625 1.60938,0 2.46875,1.0625 0.85938,1.0625 0.85938,2.92187 z m -1.40625,-0.40625 q 0,-1.20312 -0.46875,-1.82812 -0.46875,-0.625 -1.42188,-0.625 -1.73437,0 -1.89062,2.54687 h 3.78125 z m 7.16638,-3.57812 q 0.42187,0 0.79687,0.0937 l -0.26562,1.375 q -0.35938,-0.0781 -0.70313,-0.0781 -0.75,0 -1.21875,0.54688 -0.45312,0.54687 -0.71875,1.71875 v 4.60937 h -1.40625 v -8.07812 h 1.21875 l 0.14063,1.64062 q 0.3125,-0.90625 0.85937,-1.35937 0.5625,-0.46875 1.29688,-0.46875 z"
     fill-rule="nonzero"
     id="path93" />
  <path
     fill="#eeeeee"
     d="m 578.3638,110.33461 h 13.6413 c 1.88348,0 3.41034,3.58466 3.41034,8.00656 0,4.42189 -1.52686,8.00656 -3.41034,8.00656 h -13.6413 v 0 c -1.88348,0 -3.41034,-3.58467 -3.41034,-8.00656 0,-4.4219 1.52686,-8.00656 3.41034,-8.00656 z"
     fill-rule="evenodd"
     id="path95" />
  <path
     fill="#000000"
     fill-opacity="0"
     d="m 592.0051,126.34773 c -1.88348,0 -3.41034,-3.58467 -3.41034,-8.00656 0,-4.42191 1.52686,-8.00656 3.41034,-8.00656"
     fill-rule="evenodd"
     id="path97" />
  <path
     fill="#000000"
     fill-opacity="0"
     d="m 578.3638,110.33461 h 13.6413 c 1.88348,0 3.41034,3.58466 3.41034,8.00656 0,4.42189 -1.52686,8.00656 -3.41034,8.00656 h -13.6413 v 0 c -1.88348,0 -3.41034,-3.58467 -3.41034,-8.00656 0,-4.4219 1.52686,-8.00656 3.41034,-8.00656 z"
     fill-rule="evenodd"
     id="path99" />
  <path
     stroke="#595959"
     stroke-width="1"
     stroke-linejoin="round"
     stroke-linecap="butt"
     d="m 592.0051,126.34773 c -1.88348,0 -3.41034,-3.58467 -3.41034,-8.00656 0,-4.42191 1.52686,-8.00656 3.41034,-8.00656"
     fill-rule="evenodd"
     id="path101" />
  <path
     stroke="#595959"
     stroke-width="1"
     stroke-linejoin="round"
     stroke-linecap="butt"
     d="m 578.3638,110.33461 h 13.6413 c 1.88348,0 3.41034,3.58466 3.41034,8.00656 0,4.42189 -1.52686,8.00656 -3.41034,8.00656 h -13.6413 v 0 c -1.88348,0 -3.41034,-3.58467 -3.41034,-8.00656 0,-4.4219 1.52686,-8.00656 3.41034,-8.00656 z"
     fill-rule="evenodd"
     id="path103" />
  <path
     fill="#eeeeee"
     d="m 605.0707,110.33461 h -13.6413 c -1.88348,0 -3.41034,3.58466 -3.41034,8.00656 0,4.42189 1.52686,8.00656 3.41034,8.00656 h 13.6413 v 0 c 1.88348,0 3.41034,-3.58467 3.41034,-8.00656 0,-4.4219 -1.52686,-8.00656 -3.41034,-8.00656 z"
     fill-rule="evenodd"
     id="path105" />
  <path
     fill="#000000"
     fill-opacity="0"
     d="m 591.4294,126.34773 c 1.88348,0 3.41034,-3.58467 3.41034,-8.00656 0,-4.42191 -1.52686,-8.00656 -3.41034,-8.00656"
     fill-rule="evenodd"
     id="path107" />
  <path
     fill="#000000"
     fill-opacity="0"
     d="m 605.0707,110.33461 h -13.6413 c -1.88348,0 -3.41034,3.58466 -3.41034,8.00656 0,4.42189 1.52686,8.00656 3.41034,8.00656 h 13.6413 v 0 c 1.88348,0 3.41034,-3.58467 3.41034,-8.00656 0,-4.4219 -1.52686,-8.00656 -3.41034,-8.00656 z"
     fill-rule="evenodd"
     id="path109" />
  <path
     stroke="#595959"
     stroke-width="1"
     stroke-linejoin="round"
     stroke-linecap="butt"
     d="m 591.4294,126.34773 c 1.88348,0 3.41034,-3.58467 3.41034,-8.00656 0,-4.42191 -1.52686,-8.00656 -3.41034,-8.00656"
     fill-rule="evenodd"
     id="path111" />
  <path
     stroke="#595959"
     stroke-width="1"
     stroke-linejoin="round"
     stroke-linecap="butt"
     d="m 605.0707,110.33461 h -13.6413 c -1.88348,0 -3.41034,3.58466 -3.41034,8.00656 0,4.42189 1.52686,8.00656 3.41034,8.00656 h 13.6413 v 0 c 1.88348,0 3.41034,-3.58467 3.41034,-8.00656 0,-4.4219 -1.52686,-8.00656 -3.41034,-8.00656 z"
     fill-rule="evenodd"
     id="path113" />
  <path
     fill="#efefef"
     d="m 582.93506,110.69024 h 16.12598 v 15.24409 h -16.12598 z"
     fill-rule="evenodd"
     id="path115" />
  <path
     fill="#d0e0e3"
     d="m 297.92365,43.74087 v 0 c 0,-9.95583 -8.07077,-18.02661 -18.02658,-18.02661 h -72.10428 v 0 c -4.78095,0 -9.36609,1.89923 -12.74674,5.27988 -3.38064,3.38064 -5.27987,7.96577 -5.27987,12.74673 v 146.52946 c 0,9.95581 8.0708,18.02661 18.02661,18.02661 h 72.10428 c 9.95581,0 18.02658,-8.0708 18.02658,-18.02661 z"
     fill-rule="evenodd"
     id="path117" />
  <path
     stroke="#000000"
     stroke-width="2"
     stroke-linejoin="round"
     stroke-linecap="butt"
     d="m 297.92365,43.74087 v 0 c 0,-9.95583 -8.07077,-18.02661 -18.02658,-18.02661 h -72.10428 v 0 c -4.78095,0 -9.36609,1.89923 -12.74674,5.27988 -3.38064,3.38064 -5.27987,7.96577 -5.27987,12.74673 v 146.52946 c 0,9.95581 8.0708,18.02661 18.02661,18.02661 h 72.10428 c 9.95581,0 18.02658,-8.0708 18.02658,-18.02661 z"
     fill-rule="evenodd"
     id="path119" />
  <path
     fill="#000000"
     d="m 206.3359,96.45997 q 1.54687,0 2.26562,1.10937 0.71875,1.10938 0.71875,3.10938 0,1.90625 -0.82812,3.07812 -0.82813,1.15625 -2.34375,1.15625 -1.35938,0 -2.125,-0.92187 v 3.82812 l -1.40625,0.17188 V 96.64747 h 1.21875 l 0.10937,1.09375 q 0.4375,-0.625 1.0625,-0.95313 0.625,-0.32812 1.32813,-0.32812 z m -0.53125,7.29687 q 2,0 2,-3.07812 0,-3.09375 -1.82813,-3.09375 -0.59375,0 -1.09375,0.35937 -0.48437,0.34375 -0.85937,0.89063 v 3.9375 q 0.3125,0.48437 0.76562,0.73437 0.46875,0.25 1.01563,0.25 z m 8.94867,-7.29687 q 1.70312,0 2.64062,1.14062 0.95313,1.125 0.95313,3.07813 0,1.25 -0.4375,2.21875 -0.42188,0.95312 -1.23438,1.48437 -0.8125,0.53125 -1.9375,0.53125 -1.6875,0 -2.64062,-1.125 -0.95313,-1.14062 -0.95313,-3.09375 0,-1.25 0.42188,-2.20312 0.4375,-0.96875 1.25,-1.5 0.8125,-0.53125 1.9375,-0.53125 z m 0,1.14062 q -2.09375,0 -2.09375,3.09375 0,3.07813 2.07812,3.07813 2.09375,0 2.09375,-3.09375 0,-3.07813 -2.07812,-3.07813 z m 8.82666,-5.21875 q -0.79688,1.1875 -1.26563,2.125 -0.46875,0.92188 -0.75,2.10938 -0.26562,1.17187 -0.26562,2.75 0,1.5625 0.26562,2.75 0.28125,1.17187 0.75,2.10937 0.46875,0.9375 1.26563,2.10938 l -0.89063,0.60937 q -1.01562,-1.4375 -1.5625,-2.35937 -0.54687,-0.9375 -0.92187,-2.21875 -0.375,-1.29688 -0.375,-3 0,-1.70313 0.375,-3 0.375,-1.29688 0.92187,-2.21875 0.54688,-0.9375 1.5625,-2.375 z m 1.76318,5.79688 -0.23437,-4.01563 h 1.51562 l -0.23437,4.01563 z m 2.76563,0 -0.23438,-4.01563 h 1.51563 l -0.23438,4.01563 z m 7.35031,-1.71875 q 1.375,0 2.1875,1.10937 0.8125,1.10938 0.8125,3.10938 0,1.25 -0.39063,2.21875 -0.375,0.95312 -1.09375,1.48437 -0.71875,0.53125 -1.6875,0.53125 -1.28125,0 -2.15625,-1.07812 l -0.125,0.89062 h -1.25 V 93.39747 l 1.40625,-0.17188 v 4.4375 q 0.875,-1.20312 2.29688,-1.20312 z m -0.51563,7.32812 q 0.9375,0 1.46875,-0.75 0.53125,-0.76562 0.53125,-2.35937 0,-1.64063 -0.5,-2.35938 -0.48437,-0.73437 -1.39062,-0.73437 -1.07813,0 -1.89063,1.25 v 3.875 q 0.32813,0.5 0.79688,0.79687 0.46875,0.28125 0.98437,0.28125 z m 9.43308,-7.32812 q 0.42187,0 0.79687,0.0937 l -0.26562,1.375 q -0.35938,-0.0781 -0.70313,-0.0781 -0.75,0 -1.21875,0.54688 -0.45312,0.54687 -0.71875,1.71875 v 4.60937 h -1.40625 v -8.07812 h 1.21875 l 0.14063,1.64062 q 0.3125,-0.90625 0.85937,-1.35937 0.5625,-0.46875 1.29688,-0.46875 z m 7.30188,6.375 q 0,0.5 0.17187,0.73437 0.17188,0.23438 0.51563,0.35938 l -0.32813,0.98437 q -0.625,-0.0781 -1.01562,-0.34375 -0.375,-0.28125 -0.5625,-0.875 -0.8125,1.21875 -2.40625,1.21875 -1.20313,0 -1.89063,-0.67187 -0.6875,-0.6875 -0.6875,-1.76563 0,-1.29687 0.92188,-1.98437 0.9375,-0.6875 2.64062,-0.6875 h 1.23438 v -0.59375 q 0,-0.85938 -0.42188,-1.21875 -0.40625,-0.375 -1.26562,-0.375 -0.89063,0 -2.17188,0.42187 l -0.35937,-1.01562 q 1.51562,-0.5625 2.79687,-0.5625 1.42188,0 2.125,0.70312 0.70313,0.70313 0.70313,1.98438 z m -3.29688,1.01562 q 1.20313,0 1.89063,-1.25 v -1.85937 h -1.04688 q -2.25,0 -2.25,1.65625 0,0.71875 0.34375,1.09375 0.35938,0.35937 1.0625,0.35937 z m 9.99479,-7.39062 q 1.10937,0 1.73437,0.67187 0.625,0.65625 0.625,1.79688 v 5.79687 h -1.42187 v -5.59375 q 0,-0.85937 -0.32813,-1.20312 -0.3125,-0.35938 -0.9375,-0.35938 -0.64062,0 -1.14062,0.375 -0.48438,0.35938 -0.92188,1.04688 v 5.73437 h -1.40625 v -8.07812 h 1.21875 l 0.125,1.20312 q 0.42188,-0.65625 1.04688,-1.01562 0.64062,-0.375 1.40625,-0.375 z m 8.13855,0 q 0.71875,0 1.3125,0.21875 0.59375,0.20312 1.14062,0.65625 l -0.67187,0.89062 q -0.42188,-0.3125 -0.82813,-0.45312 -0.40625,-0.14063 -0.90625,-0.14063 -0.96875,0 -1.51562,0.78125 -0.54688,0.78125 -0.54688,2.3125 0,1.53125 0.53125,2.26563 0.54688,0.71875 1.53125,0.71875 0.48438,0 0.875,-0.14063 0.40625,-0.14062 0.89063,-0.46875 l 0.64062,0.92188 q -1.09375,0.89062 -2.45312,0.89062 -1.64063,0 -2.59375,-1.09375 -0.9375,-1.10937 -0.9375,-3.0625 0,-1.28125 0.42187,-2.25 0.4375,-0.96875 1.21875,-1.5 0.79688,-0.54687 1.89063,-0.54687 z m 8.17059,0 q 1.10937,0 1.73437,0.67187 0.625,0.65625 0.625,1.79688 v 5.79687 h -1.42187 v -5.59375 q 0,-0.85937 -0.32813,-1.20312 -0.32812,-0.35938 -0.95312,-0.35938 -0.625,0 -1.125,0.375 -0.48438,0.35938 -0.92188,1.03125 v 5.75 h -1.40625 v -11.3125 l 1.40625,-0.15625 v 4.51563 q 0.95313,-1.3125 2.39063,-1.3125 z m 4.73523,1.71875 -0.23438,-4.01563 h 1.51563 l -0.23438,4.01563 z m 2.76562,0 -0.23437,-4.01563 h 1.51562 l -0.23437,4.01563 z m 2.48883,4.59375 q 0.45313,0 0.75,0.3125 0.3125,0.3125 0.3125,0.75 0,0.48437 -0.26562,1.09375 l -1.03125,2.34375 h -1.01563 l 0.625,-2.54688 q -0.20312,-0.15625 -0.32812,-0.375 -0.10938,-0.23437 -0.10938,-0.51562 0,-0.4375 0.29688,-0.75 0.3125,-0.3125 0.76562,-0.3125 z"
     fill-rule="nonzero"
     id="path121" />
  <path
     fill="#000000"
     d="m 209.9239,114.45997 q 0.82812,0 1.48437,0.23437 0.67188,0.23438 1.26563,0.6875 l -0.59375,0.89063 q -0.54688,-0.35938 -1.04688,-0.51563 -0.5,-0.17187 -1.0625,-0.17187 -0.6875,0 -1.09375,0.28125 -0.39062,0.28125 -0.39062,0.78125 0,0.48437 0.375,0.76562 0.375,0.26563 1.35937,0.53125 1.34375,0.34375 2.01563,0.92188 0.67187,0.57812 0.67187,1.59375 0,1.1875 -0.9375,1.82812 -0.92187,0.625 -2.25,0.625 -1.84375,0 -3.04687,-1.0625 l 0.75,-0.85937 q 1.01562,0.78125 2.26562,0.78125 0.79688,0 1.26563,-0.32813 0.46875,-0.32812 0.46875,-0.89062 0,-0.42188 -0.17188,-0.67188 -0.17187,-0.25 -0.59375,-0.4375 -0.40625,-0.20312 -1.20312,-0.40625 -1.28125,-0.34375 -1.85938,-0.90625 -0.57812,-0.57812 -0.57812,-1.45312 0,-0.625 0.375,-1.125 0.375,-0.51563 1.04687,-0.79688 0.67188,-0.29687 1.48438,-0.29687 z m 11.08014,3.98437 q 0,0.35938 -0.0312,0.71875 h -5.15625 q 0.0937,1.34375 0.67187,1.96875 0.57813,0.625 1.5,0.625 0.59375,0 1.07813,-0.15625 0.48437,-0.17187 1.03125,-0.54687 l 0.60937,0.84375 q -1.28125,1.01562 -2.82812,1.01562 -1.67188,0 -2.625,-1.09375 -0.9375,-1.10937 -0.9375,-3.04687 0,-1.26563 0.40625,-2.23438 0.40625,-0.96875 1.15625,-1.51562 0.76562,-0.5625 1.79687,-0.5625 1.60938,0 2.46875,1.0625 0.85938,1.0625 0.85938,2.92187 z m -1.40625,-0.40625 q 0,-1.20312 -0.46875,-1.82812 -0.46875,-0.625 -1.42188,-0.625 -1.73437,0 -1.89062,2.54687 h 3.78125 z m 5.2601,4.875 q -0.78125,0 -1.23437,-0.46875 -0.45313,-0.46875 -0.45313,-1.3125 v -9.73437 l 1.42188,-0.17188 v 9.875 q 0,0.34375 0.10937,0.5 0.10938,0.14063 0.39063,0.14063 0.29687,0 0.51562,-0.0937 l 0.375,0.98437 q -0.51562,0.28125 -1.125,0.28125 z m 8.91449,-4.46875 q 0,0.35938 -0.0312,0.71875 h -5.15625 q 0.0937,1.34375 0.67188,1.96875 0.57812,0.625 1.5,0.625 0.59375,0 1.07812,-0.15625 0.48438,-0.17187 1.03125,-0.54687 l 0.60938,0.84375 q -1.28125,1.01562 -2.82813,1.01562 -1.67187,0 -2.625,-1.09375 -0.9375,-1.10937 -0.9375,-3.04687 0,-1.26563 0.40625,-2.23438 0.40625,-0.96875 1.15625,-1.51562 0.76563,-0.5625 1.79688,-0.5625 1.60937,0 2.46875,1.0625 0.85937,1.0625 0.85937,2.92187 z m -1.40625,-0.40625 q 0,-1.20312 -0.46875,-1.82812 -0.46875,-0.625 -1.42187,-0.625 -1.73438,0 -1.89063,2.54687 h 3.78125 z m 6.60385,-3.57812 q 0.71875,0 1.3125,0.21875 0.59375,0.20312 1.14063,0.65625 l -0.67188,0.89062 q -0.42187,-0.3125 -0.82812,-0.45312 -0.40625,-0.14063 -0.90625,-0.14063 -0.96875,0 -1.51563,0.78125 -0.54687,0.78125 -0.54687,2.3125 0,1.53125 0.53125,2.26563 0.54687,0.71875 1.53125,0.71875 0.48437,0 0.875,-0.14063 0.40625,-0.14062 0.89062,-0.46875 l 0.64063,0.92188 q -1.09375,0.89062 -2.45313,0.89062 -1.64062,0 -2.59375,-1.09375 -0.9375,-1.10937 -0.9375,-3.0625 0,-1.28125 0.42188,-2.25 0.4375,-0.96875 1.21875,-1.5 0.79687,-0.54687 1.89062,-0.54687 z m 8.45184,7.89062 q -0.79687,0.5625 -1.8125,0.5625 -1.01562,0 -1.59375,-0.59375 -0.57812,-0.59375 -0.57812,-1.70312 v -4.875 h -1.40625 v -1.09375 h 1.40625 v -1.82813 l 1.40625,-0.17187 v 2 h 1.92187 l -0.15625,1.09375 h -1.76562 v 4.8125 q 0,0.625 0.21875,0.90625 0.23437,0.28125 0.75,0.28125 0.48437,0 1.07812,-0.3125 z m 2.86161,-7.70312 v 8.07812 h -1.40625 v -8.07812 z m -0.70313,-3.875 q 0.4375,0 0.71875,0.28125 0.28125,0.26562 0.28125,0.6875 0,0.40625 -0.28125,0.67187 -0.28125,0.26563 -0.71875,0.26563 -0.4375,0 -0.71875,-0.26563 -0.26562,-0.26562 -0.26562,-0.67187 0,-0.42188 0.26562,-0.6875 0.28125,-0.28125 0.71875,-0.28125 z m 6.65067,3.6875 q 1.70312,0 2.64062,1.14062 0.95313,1.125 0.95313,3.07813 0,1.25 -0.4375,2.21875 -0.42188,0.95312 -1.23438,1.48437 -0.8125,0.53125 -1.9375,0.53125 -1.6875,0 -2.64062,-1.125 -0.95313,-1.14062 -0.95313,-3.09375 0,-1.25 0.42188,-2.20312 0.4375,-0.96875 1.25,-1.5 0.8125,-0.53125 1.9375,-0.53125 z m 0,1.14062 q -2.09375,0 -2.09375,3.09375 0,3.07813 2.07812,3.07813 2.09375,0 2.09375,-3.09375 0,-3.07813 -2.07812,-3.07813 z m 9.71725,-1.14062 q 1.10938,0 1.73438,0.67187 0.625,0.65625 0.625,1.79688 v 5.79687 h -1.42188 v -5.59375 q 0,-0.85937 -0.32812,-1.20312 -0.3125,-0.35938 -0.9375,-0.35938 -0.64063,0 -1.14063,0.375 -0.48437,0.35938 -0.92187,1.04688 v 5.73437 h -1.40625 v -8.07812 h 1.21875 l 0.125,1.20312 q 0.42187,-0.65625 1.04687,-1.01562 0.64063,-0.375 1.40625,-0.375 z m 8.74741,2.3125 v -1.1875 h 5.76562 v 1.1875 z m 0,2.95312 v -1.1875 h 5.76562 v 1.1875 z"
     fill-rule="nonzero"
     id="path123" />
  <path
     fill="#000000"
     d="m 224.17023,134.17872 -0.23438,-4.01563 h 1.51563 l -0.23438,4.01563 z m 2.76562,0 -0.23437,-4.01563 h 1.51562 l -0.23437,4.01563 z m 7.36594,-1.71875 q 1.54688,0 2.26563,1.10937 0.71875,1.10938 0.71875,3.10938 0,1.90625 -0.82813,3.07812 -0.82812,1.15625 -2.34375,1.15625 -1.35937,0 -2.125,-0.92187 v 3.82812 l -1.40625,0.17188 v -11.34375 h 1.21875 l 0.10938,1.09375 q 0.4375,-0.625 1.0625,-0.95313 0.625,-0.32812 1.32812,-0.32812 z m -0.53125,7.29687 q 2,0 2,-3.07812 0,-3.09375 -1.82812,-3.09375 -0.59375,0 -1.09375,0.35937 -0.48438,0.34375 -0.85938,0.89063 v 3.9375 q 0.3125,0.48437 0.76563,0.73437 0.46875,0.25 1.01562,0.25 z m 8.87058,-7.29687 q 0.71875,0 1.3125,0.21875 0.59375,0.20312 1.14062,0.65625 l -0.67187,0.89062 q -0.42188,-0.3125 -0.82813,-0.45312 -0.40625,-0.14063 -0.90625,-0.14063 -0.96875,0 -1.51562,0.78125 -0.54688,0.78125 -0.54688,2.3125 0,1.53125 0.53125,2.26563 0.54688,0.71875 1.53125,0.71875 0.48438,0 0.875,-0.14063 0.40625,-0.14062 0.89063,-0.46875 l 0.64062,0.92188 q -1.09375,0.89062 -2.45312,0.89062 -1.64063,0 -2.59375,-1.09375 -0.9375,-1.10937 -0.9375,-3.0625 0,-1.28125 0.42187,-2.25 0.4375,-0.96875 1.21875,-1.5 0.79688,-0.54687 1.89063,-0.54687 z m 9.65789,6.375 q 0,0.5 0.17188,0.73437 0.17187,0.23438 0.51562,0.35938 l -0.32812,0.98437 q -0.625,-0.0781 -1.01563,-0.34375 -0.375,-0.28125 -0.5625,-0.875 -0.8125,1.21875 -2.40625,1.21875 -1.20312,0 -1.89062,-0.67187 -0.6875,-0.6875 -0.6875,-1.76563 0,-1.29687 0.92187,-1.98437 0.9375,-0.6875 2.64063,-0.6875 h 1.23437 v -0.59375 q 0,-0.85938 -0.42187,-1.21875 -0.40625,-0.375 -1.26563,-0.375 -0.89062,0 -2.17187,0.42187 l -0.35938,-1.01562 q 1.51563,-0.5625 2.79688,-0.5625 1.42187,0 2.125,0.70312 0.70312,0.70313 0.70312,1.98438 z m -3.29687,1.01562 q 1.20312,0 1.89062,-1.25 v -1.85937 h -1.04687 q -2.25,0 -2.25,1.65625 0,0.71875 0.34375,1.09375 0.35937,0.35937 1.0625,0.35937 z m 5.74768,-5.67187 -0.23438,-4.01563 h 1.51563 l -0.23438,4.01563 z m 2.76562,0 -0.23437,-4.01563 h 1.51562 l -0.23437,4.01563 z m 3.69407,-6.40625 q 1.01562,1.4375 1.5625,2.375 0.54687,0.92187 0.92187,2.21875 0.375,1.29687 0.375,3 0,1.70312 -0.375,3 -0.375,1.28125 -0.92187,2.21875 -0.54688,0.92187 -1.5625,2.35937 l -0.89063,-0.60937 q 0.79688,-1.17188 1.26563,-2.10938 0.46875,-0.9375 0.73437,-2.10937 0.26563,-1.1875 0.26563,-2.75 0,-1.57813 -0.26563,-2.75 -0.26562,-1.1875 -0.73437,-2.10938 -0.46875,-0.9375 -1.26563,-2.125 z"
     fill-rule="nonzero"
     id="path125" />
  <path
     fill="#eeeeee"
     d="m 298.83307,108.76468 h 13.6413 c 1.88348,0 3.41034,3.58466 3.41034,8.00656 0,4.42191 -1.52686,8.00656 -3.41034,8.00656 h -13.6413 v 0 c -1.88345,0 -3.41031,-3.58465 -3.41031,-8.00656 0,-4.4219 1.52686,-8.00656 3.41031,-8.00656 z"
     fill-rule="evenodd"
     id="path127" />
  <path
     fill="#000000"
     fill-opacity="0"
     d="m 312.47437,124.7778 c -1.88345,0 -3.41031,-3.58466 -3.41031,-8.00656 0,-4.42191 1.52686,-8.00656 3.41031,-8.00656"
     fill-rule="evenodd"
     id="path129" />
  <path
     fill="#000000"
     fill-opacity="0"
     d="m 298.83307,108.76468 h 13.6413 c 1.88348,0 3.41034,3.58466 3.41034,8.00656 0,4.42191 -1.52686,8.00656 -3.41034,8.00656 h -13.6413 v 0 c -1.88345,0 -3.41031,-3.58465 -3.41031,-8.00656 0,-4.4219 1.52686,-8.00656 3.41031,-8.00656 z"
     fill-rule="evenodd"
     id="path131" />
  <path
     stroke="#595959"
     stroke-width="1"
     stroke-linejoin="round"
     stroke-linecap="butt"
     d="m 312.47437,124.7778 c -1.88345,0 -3.41031,-3.58466 -3.41031,-8.00656 0,-4.42191 1.52686,-8.00656 3.41031,-8.00656"
     fill-rule="evenodd"
     id="path133" />
  <path
     stroke="#595959"
     stroke-width="1"
     stroke-linejoin="round"
     stroke-linecap="butt"
     d="m 298.83307,108.76468 h 13.6413 c 1.88348,0 3.41034,3.58466 3.41034,8.00656 0,4.42191 -1.52686,8.00656 -3.41034,8.00656 h -13.6413 v 0 c -1.88345,0 -3.41031,-3.58465 -3.41031,-8.00656 0,-4.4219 1.52686,-8.00656 3.41031,-8.00656 z"
     fill-rule="evenodd"
     id="path135" />
  <path
     fill="#eeeeee"
     d="m 325.53998,108.76468 h -13.6413 c -1.88345,0 -3.4103,3.58466 -3.4103,8.00656 0,4.42191 1.52685,8.00656 3.4103,8.00656 h 13.6413 v 0 c 1.88348,0 3.41034,-3.58465 3.41034,-8.00656 0,-4.4219 -1.52686,-8.00656 -3.41034,-8.00656 z"
     fill-rule="evenodd"
     id="path137" />
  <path
     fill="#000000"
     fill-opacity="0"
     d="m 311.8987,124.7778 c 1.88348,0 3.41034,-3.58466 3.41034,-8.00656 0,-4.42191 -1.52686,-8.00656 -3.41034,-8.00656"
     fill-rule="evenodd"
     id="path139" />
  <path
     fill="#000000"
     fill-opacity="0"
     d="m 325.53998,108.76468 h -13.6413 c -1.88345,0 -3.4103,3.58466 -3.4103,8.00656 0,4.42191 1.52685,8.00656 3.4103,8.00656 h 13.6413 v 0 c 1.88348,0 3.41034,-3.58465 3.41034,-8.00656 0,-4.4219 -1.52686,-8.00656 -3.41034,-8.00656 z"
     fill-rule="evenodd"
     id="path141" />
  <path
     stroke="#595959"
     stroke-width="1"
     stroke-linejoin="round"
     stroke-linecap="butt"
     d="m 311.8987,124.7778 c 1.88348,0 3.41034,-3.58466 3.41034,-8.00656 0,-4.42191 -1.52686,-8.00656 -3.41034,-8.00656"
     fill-rule="evenodd"
     id="path143" />
  <path
     stroke="#595959"
     stroke-width="1"
     stroke-linejoin="round"
     stroke-linecap="butt"
     d="m 325.53998,108.76468 h -13.6413 c -1.88345,0 -3.4103,3.58466 -3.4103,8.00656 0,4.42191 1.52685,8.00656 3.4103,8.00656 h 13.6413 v 0 c 1.88348,0 3.41034,-3.58465 3.41034,-8.00656 0,-4.4219 -1.52686,-8.00656 -3.41034,-8.00656 z"
     fill-rule="evenodd"
     id="path145" />
  <path
     fill="#efefef"
     d="m 303.4044,109.12031 h 16.12598 V 124.3644 H 303.4044 Z"
     fill-rule="evenodd"
     id="path147" />
  <path
     fill="#eeeeee"
     d="m 298.4897,173.00029 h 13.6413 c 1.88345,0 3.4103,3.58466 3.4103,8.00656 0,4.42188 -1.52685,8.00656 -3.4103,8.00656 h -13.6413 v 0 c -1.88348,0 -3.41034,-3.58468 -3.41034,-8.00656 0,-4.4219 1.52686,-8.00656 3.41034,-8.00656 z"
     fill-rule="evenodd"
     id="path149" />
  <path
     fill="#000000"
     fill-opacity="0"
     d="m 312.131,189.01341 c -1.88348,0 -3.41034,-3.58469 -3.41034,-8.00656 0,-4.42191 1.52686,-8.00656 3.41034,-8.00656"
     fill-rule="evenodd"
     id="path151" />
  <path
     fill="#000000"
     fill-opacity="0"
     d="m 298.4897,173.00029 h 13.6413 c 1.88345,0 3.4103,3.58466 3.4103,8.00656 0,4.42188 -1.52685,8.00656 -3.4103,8.00656 h -13.6413 v 0 c -1.88348,0 -3.41034,-3.58468 -3.41034,-8.00656 0,-4.4219 1.52686,-8.00656 3.41034,-8.00656 z"
     fill-rule="evenodd"
     id="path153" />
  <path
     stroke="#cccccc"
     stroke-width="1"
     stroke-linejoin="round"
     stroke-linecap="butt"
     d="m 312.131,189.01341 c -1.88348,0 -3.41034,-3.58469 -3.41034,-8.00656 0,-4.42191 1.52686,-8.00656 3.41034,-8.00656"
     fill-rule="evenodd"
     id="path155" />
  <path
     stroke="#cccccc"
     stroke-width="1"
     stroke-linejoin="round"
     stroke-linecap="butt"
     d="m 298.4897,173.00029 h 13.6413 c 1.88345,0 3.4103,3.58466 3.4103,8.00656 0,4.42188 -1.52685,8.00656 -3.4103,8.00656 h -13.6413 v 0 c -1.88348,0 -3.41034,-3.58468 -3.41034,-8.00656 0,-4.4219 1.52686,-8.00656 3.41034,-8.00656 z"
     fill-rule="evenodd"
     id="path157" />
  <path
     fill="#eeeeee"
     d="m 325.1966,173.00029 h -13.6413 c -1.88348,0 -3.41034,3.58466 -3.41034,8.00656 0,4.42188 1.52686,8.00656 3.41034,8.00656 h 13.6413 v 0 c 1.88345,0 3.41031,-3.58468 3.41031,-8.00656 0,-4.4219 -1.52686,-8.00656 -3.41031,-8.00656 z"
     fill-rule="evenodd"
     id="path159" />
  <path
     fill="#000000"
     fill-opacity="0"
     d="m 311.5553,189.01341 c 1.88345,0 3.41031,-3.58469 3.41031,-8.00656 0,-4.42191 -1.52686,-8.00656 -3.41031,-8.00656"
     fill-rule="evenodd"
     id="path161" />
  <path
     fill="#000000"
     fill-opacity="0"
     d="m 325.1966,173.00029 h -13.6413 c -1.88348,0 -3.41034,3.58466 -3.41034,8.00656 0,4.42188 1.52686,8.00656 3.41034,8.00656 h 13.6413 v 0 c 1.88345,0 3.41031,-3.58468 3.41031,-8.00656 0,-4.4219 -1.52686,-8.00656 -3.41031,-8.00656 z"
     fill-rule="evenodd"
     id="path163" />
  <path
     stroke="#cccccc"
     stroke-width="1"
     stroke-linejoin="round"
     stroke-linecap="butt"
     d="m 311.5553,189.01341 c 1.88345,0 3.41031,-3.58469 3.41031,-8.00656 0,-4.42191 -1.52686,-8.00656 -3.41031,-8.00656"
     fill-rule="evenodd"
     id="path165" />
  <path
     stroke="#cccccc"
     stroke-width="1"
     stroke-linejoin="round"
     stroke-linecap="butt"
     d="m 325.1966,173.00029 h -13.6413 c -1.88348,0 -3.41034,3.58466 -3.41034,8.00656 0,4.42188 1.52686,8.00656 3.41034,8.00656 h 13.6413 v 0 c 1.88345,0 3.41031,-3.58468 3.41031,-8.00656 0,-4.4219 -1.52686,-8.00656 -3.41031,-8.00656 z"
     fill-rule="evenodd"
     id="path167" />
  <path
     fill="#efefef"
     d="m 303.06098,173.35591 h 16.12598 v 15.24411 h -16.12598 z"
     fill-rule="evenodd"
     id="path169" />
  <path
     fill="#9fc5e8"
     d="m 354.74173,88.94026 h 34.37796 v -6.27559 l 12.55118,12.55118 -12.55118,12.55118 v -6.27559 h -34.37796 z"
     fill-rule="evenodd"
     id="path171" />
  <path
     stroke="#595959"
     stroke-width="1"
     stroke-linejoin="round"
     stroke-linecap="butt"
     d="m 354.74173,88.94026 h 34.37796 v -6.27559 l 12.55118,12.55118 -12.55118,12.55118 v -6.27559 h -34.37796 z"
     fill-rule="evenodd"
     id="path173" />
  <path
     fill="#d0e0e3"
     fill-opacity="0.4577"
     d="m 324.07612,36.88929 v 0 c 0,-4.45026 3.60764,-8.05791 8.05789,-8.05791 h 92.04169 c 2.13709,0 4.18665,0.84896 5.69779,2.36011 1.51114,1.51115 2.3601,3.56072 2.3601,5.6978 v 32.23065 c 0,4.45026 -3.60763,8.05789 -8.05789,8.05789 h -92.04169 c -4.45025,0 -8.05789,-3.60763 -8.05789,-8.05789 z"
     fill-rule="evenodd"
     id="path175" />
  <path
     stroke="#cccccc"
     stroke-width="2"
     stroke-linejoin="round"
     stroke-linecap="butt"
     d="m 324.07612,36.88929 v 0 c 0,-4.45026 3.60764,-8.05791 8.05789,-8.05791 h 92.04169 c 2.13709,0 4.18665,0.84896 5.69779,2.36011 1.51114,1.51115 2.3601,3.56072 2.3601,5.6978 v 32.23065 c 0,4.45026 -3.60763,8.05789 -8.05789,8.05789 h -92.04169 c -4.45025,0 -8.05789,-3.60763 -8.05789,-8.05789 z"
     fill-rule="evenodd"
     id="path177" />
  <path
     fill="#cccccc"
     d="m 343.00498,48.16212 q 1.95312,0 3.03125,0.82812 1.07812,0.8125 1.07812,2.4375 0,1.73438 -1.125,2.57813 -1.125,0.84375 -2.96875,0.84375 h -1.34375 v 3.875 h -1.45312 v -10.5625 z m -0.0469,5.53125 q 1.26563,0 1.92188,-0.48438 0.67187,-0.5 0.67187,-1.76562 0,-1.14063 -0.67187,-1.64063 -0.65625,-0.5 -1.89063,-0.5 h -1.3125 v 4.39063 z m 7.49942,-3.04688 v 8.07813 h -1.40625 v -8.07813 z m -0.70312,-3.875 q 0.4375,0 0.71875,0.28125 0.28125,0.26563 0.28125,0.6875 0,0.40625 -0.28125,0.67188 -0.28125,0.26562 -0.71875,0.26562 -0.4375,0 -0.71875,-0.26562 -0.26563,-0.26563 -0.26563,-0.67188 0,-0.42187 0.26563,-0.6875 0.28125,-0.28125 0.71875,-0.28125 z m 7.33817,3.6875 q 1.54687,0 2.26562,1.10938 0.71875,1.10937 0.71875,3.10937 0,1.90625 -0.82812,3.07813 -0.82813,1.15625 -2.34375,1.15625 -1.35938,0 -2.125,-0.92188 v 3.82813 l -1.40625,0.17187 V 50.64649 h 1.21875 l 0.10937,1.09375 q 0.4375,-0.625 1.0625,-0.95312 0.625,-0.32813 1.32813,-0.32813 z m -0.53125,7.29688 q 2,0 2,-3.07813 0,-3.09375 -1.82813,-3.09375 -0.59375,0 -1.09375,0.35938 -0.48437,0.34375 -0.85937,0.89062 v 3.9375 q 0.3125,0.48438 0.76562,0.73438 0.46875,0.25 1.01563,0.25 z m 12.02679,-3.3125 q 0,0.35937 -0.0312,0.71875 h -5.15625 q 0.0937,1.34375 0.67187,1.96875 0.57813,0.625 1.5,0.625 0.59375,0 1.07813,-0.15625 0.48437,-0.17188 1.03125,-0.54688 l 0.60937,0.84375 q -1.28125,1.01563 -2.82812,1.01563 -1.67188,0 -2.625,-1.09375 -0.9375,-1.10938 -0.9375,-3.04688 0,-1.26562 0.40625,-2.23437 0.40625,-0.96875 1.15625,-1.51563 0.76562,-0.5625 1.79687,-0.5625 1.60938,0 2.46875,1.0625 0.85938,1.0625 0.85938,2.92188 z m -1.40625,-0.40625 q 0,-1.20313 -0.46875,-1.82813 -0.46875,-0.625 -1.42188,-0.625 -1.73437,0 -1.89062,2.54688 h 3.78125 z m 7.49448,-6.0625 q 1.34375,0 2.34375,0.64062 1,0.64063 1.5625,1.875 0.5625,1.21875 0.5625,2.96875 0,1.70313 -0.5625,2.9375 -0.5625,1.21875 -1.5625,1.875 -1,0.64063 -2.34375,0.64063 -1.32813,0 -2.32813,-0.625 -1,-0.64063 -1.5625,-1.85938 -0.5625,-1.23437 -0.5625,-2.95312 0,-1.70313 0.5625,-2.9375 0.5625,-1.25 1.5625,-1.90625 1.01563,-0.65625 2.32813,-0.65625 z m 0,1.20312 q -1.375,0 -2.14063,1.04688 -0.76562,1.03125 -0.76562,3.25 0,2.1875 0.76562,3.21875 0.78125,1.01562 2.14063,1.01562 2.92187,0 2.92187,-4.25 0,-4.28125 -2.92187,-4.28125 z m 10.48208,1.28125 q 1.54688,0 2.26563,1.10938 0.71875,1.10937 0.71875,3.10937 0,1.90625 -0.82813,3.07813 -0.82812,1.15625 -2.34375,1.15625 -1.35937,0 -2.125,-0.92188 v 3.82813 l -1.40625,0.17187 V 50.64649 h 1.21875 l 0.10938,1.09375 q 0.4375,-0.625 1.0625,-0.95312 0.625,-0.32813 1.32812,-0.32813 z m -0.53125,7.29688 q 2,0 2,-3.07813 0,-3.09375 -1.82812,-3.09375 -0.59375,0 -1.09375,0.35938 -0.48438,0.34375 -0.85938,0.89062 v 3.9375 q 0.3125,0.48438 0.76563,0.73438 0.46875,0.25 1.01562,0.25 z m 13.40183,0.96875 h -1.95313 l -4.28125,-8.96875 q 0.0937,1.0625 0.14063,1.96875 0.0469,0.89062 0.0469,2.15625 v 4.84375 h -1.35937 v -10.5625 h 1.90625 l 4.32812,8.98437 q -0.0469,-0.40625 -0.125,-1.39062 -0.0625,-1 -0.0625,-1.82813 v -5.76562 h 1.35938 z m 6.01602,-8.26563 q 1.70312,0 2.64062,1.14063 0.95313,1.125 0.95313,3.07812 0,1.25 -0.4375,2.21875 -0.42188,0.95313 -1.23438,1.48438 -0.8125,0.53125 -1.9375,0.53125 -1.6875,0 -2.64062,-1.125 -0.95313,-1.14063 -0.95313,-3.09375 0,-1.25 0.42188,-2.20313 0.4375,-0.96875 1.25,-1.5 0.8125,-0.53125 1.9375,-0.53125 z m 0,1.14063 q -2.09375,0 -2.09375,3.09375 0,3.07812 2.07812,3.07812 2.09375,0 2.09375,-3.09375 0,-3.07812 -2.07812,-3.07812 z m 9.63913,-1.14063 q 1.54687,0 2.26562,1.10938 0.71875,1.10937 0.71875,3.10937 0,1.90625 -0.82812,3.07813 -0.82813,1.15625 -2.34375,1.15625 -1.35938,0 -2.125,-0.92188 v 3.82813 l -1.40625,0.17187 V 50.64649 h 1.21875 l 0.10937,1.09375 q 0.4375,-0.625 1.0625,-0.95312 0.625,-0.32813 1.32813,-0.32813 z m -0.53125,7.29688 q 2,0 2,-3.07813 0,-3.09375 -1.82813,-3.09375 -0.59375,0 -1.09375,0.35938 -0.48437,0.34375 -0.85937,0.89062 v 3.9375 q 0.3125,0.48438 0.76562,0.73438 0.46875,0.25 1.01563,0.25 z"
     fill-rule="nonzero"
     id="path179" />
  <path
     fill="#eeeeee"
     d="m 457.23645,44.99896 h -13.6413 c -1.88348,0 -3.41034,3.58466 -3.41034,8.00656 0,4.42191 1.52686,8.00656 3.41034,8.00656 h 13.6413 v 0 c 1.88342,0 3.41028,-3.58465 3.41028,-8.00656 0,-4.4219 -1.52686,-8.00656 -3.41028,-8.00656 z"
     fill-rule="evenodd"
     id="path181" />
  <path
     fill="#000000"
     fill-opacity="0"
     d="m 443.59516,61.01208 c 1.88342,0 3.41028,-3.58466 3.41028,-8.00656 0,-4.42191 -1.52686,-8.00656 -3.41028,-8.00656"
     fill-rule="evenodd"
     id="path183" />
  <path
     fill="#000000"
     fill-opacity="0"
     d="m 457.23645,44.99896 h -13.6413 c -1.88348,0 -3.41034,3.58466 -3.41034,8.00656 0,4.42191 1.52686,8.00656 3.41034,8.00656 h 13.6413 v 0 c 1.88342,0 3.41028,-3.58465 3.41028,-8.00656 0,-4.4219 -1.52686,-8.00656 -3.41028,-8.00656 z"
     fill-rule="evenodd"
     id="path185" />
  <path
     stroke="#cccccc"
     stroke-width="1"
     stroke-linejoin="round"
     stroke-linecap="butt"
     d="m 443.59516,61.01208 c 1.88342,0 3.41028,-3.58466 3.41028,-8.00656 0,-4.42191 -1.52686,-8.00656 -3.41028,-8.00656"
     fill-rule="evenodd"
     id="path187" />
  <path
     stroke="#cccccc"
     stroke-width="1"
     stroke-linejoin="round"
     stroke-linecap="butt"
     d="m 457.23645,44.99896 h -13.6413 c -1.88348,0 -3.41034,3.58466 -3.41034,8.00656 0,4.42191 1.52686,8.00656 3.41034,8.00656 h 13.6413 v 0 c 1.88342,0 3.41028,-3.58465 3.41028,-8.00656 0,-4.4219 -1.52686,-8.00656 -3.41028,-8.00656 z"
     fill-rule="evenodd"
     id="path189" />
  <path
     fill="#eeeeee"
     d="m 430.52952,44.99896 h 13.64127 c 1.88348,0 3.41034,3.58466 3.41034,8.00656 0,4.42191 -1.52686,8.00656 -3.41034,8.00656 h -13.64127 v 0 c -1.88348,0 -3.41034,-3.58465 -3.41034,-8.00656 0,-4.4219 1.52686,-8.00656 3.41034,-8.00656 z"
     fill-rule="evenodd"
     id="path191" />
  <path
     fill="#000000"
     fill-opacity="0"
     d="m 444.1708,61.01208 c -1.88342,0 -3.41028,-3.58466 -3.41028,-8.00656 0,-4.42191 1.52686,-8.00656 3.41028,-8.00656"
     fill-rule="evenodd"
     id="path193" />
  <path
     fill="#000000"
     fill-opacity="0"
     d="m 430.52952,44.99896 h 13.64127 c 1.88348,0 3.41034,3.58466 3.41034,8.00656 0,4.42191 -1.52686,8.00656 -3.41034,8.00656 h -13.64127 v 0 c -1.88348,0 -3.41034,-3.58465 -3.41034,-8.00656 0,-4.4219 1.52686,-8.00656 3.41034,-8.00656 z"
     fill-rule="evenodd"
     id="path195" />
  <path
     stroke="#cccccc"
     stroke-width="1"
     stroke-linejoin="round"
     stroke-linecap="butt"
     d="m 444.1708,61.01208 c -1.88342,0 -3.41028,-3.58466 -3.41028,-8.00656 0,-4.42191 1.52686,-8.00656 3.41028,-8.00656"
     fill-rule="evenodd"
     id="path197" />
  <path
     stroke="#cccccc"
     stroke-width="1"
     stroke-linejoin="round"
     stroke-linecap="butt"
     d="m 430.52952,44.99896 h 13.64127 c 1.88348,0 3.41034,3.58466 3.41034,8.00656 0,4.42191 -1.52686,8.00656 -3.41034,8.00656 h -13.64127 v 0 c -1.88348,0 -3.41034,-3.58465 -3.41034,-8.00656 0,-4.4219 1.52686,-8.00656 3.41034,-8.00656 z"
     fill-rule="evenodd"
     id="path199" />
  <path
     fill="#efefef"
     d="M 452.6651,45.3546 H 436.53912 V 60.59869 H 452.6651 Z"
     fill-rule="evenodd"
     id="path201" />
  <path
     fill="#eeeeee"
     d="m 298.4897,45.00027 h 13.6413 c 1.88345,0 3.4103,3.58466 3.4103,8.00656 0,4.42191 -1.52685,8.00656 -3.4103,8.00656 h -13.6413 v 0 c -1.88348,0 -3.41034,-3.58465 -3.41034,-8.00656 0,-4.4219 1.52686,-8.00656 3.41034,-8.00656 z"
     fill-rule="evenodd"
     id="path203" />
  <path
     fill="#000000"
     fill-opacity="0"
     d="m 312.131,61.01339 c -1.88348,0 -3.41034,-3.58466 -3.41034,-8.00656 0,-4.42191 1.52686,-8.00656 3.41034,-8.00656"
     fill-rule="evenodd"
     id="path205" />
  <path
     fill="#000000"
     fill-opacity="0"
     d="m 298.4897,45.00027 h 13.6413 c 1.88345,0 3.4103,3.58466 3.4103,8.00656 0,4.42191 -1.52685,8.00656 -3.4103,8.00656 h -13.6413 v 0 c -1.88348,0 -3.41034,-3.58465 -3.41034,-8.00656 0,-4.4219 1.52686,-8.00656 3.41034,-8.00656 z"
     fill-rule="evenodd"
     id="path207" />
  <path
     stroke="#cccccc"
     stroke-width="1"
     stroke-linejoin="round"
     stroke-linecap="butt"
     d="m 312.131,61.01339 c -1.88348,0 -3.41034,-3.58466 -3.41034,-8.00656 0,-4.42191 1.52686,-8.00656 3.41034,-8.00656"
     fill-rule="evenodd"
     id="path209" />
  <path
     stroke="#cccccc"
     stroke-width="1"
     stroke-linejoin="round"
     stroke-linecap="butt"
     d="m 298.4897,45.00027 h 13.6413 c 1.88345,0 3.4103,3.58466 3.4103,8.00656 0,4.42191 -1.52685,8.00656 -3.4103,8.00656 h -13.6413 v 0 c -1.88348,0 -3.41034,-3.58465 -3.41034,-8.00656 0,-4.4219 1.52686,-8.00656 3.41034,-8.00656 z"
     fill-rule="evenodd"
     id="path211" />
  <path
     fill="#eeeeee"
     d="m 325.1966,45.00027 h -13.6413 c -1.88348,0 -3.41034,3.58466 -3.41034,8.00656 0,4.42191 1.52686,8.00656 3.41034,8.00656 h 13.6413 v 0 c 1.88345,0 3.41031,-3.58465 3.41031,-8.00656 0,-4.4219 -1.52686,-8.00656 -3.41031,-8.00656 z"
     fill-rule="evenodd"
     id="path213" />
  <path
     fill="#000000"
     fill-opacity="0"
     d="m 311.5553,61.01339 c 1.88345,0 3.41031,-3.58466 3.41031,-8.00656 0,-4.42191 -1.52686,-8.00656 -3.41031,-8.00656"
     fill-rule="evenodd"
     id="path215" />
  <path
     fill="#000000"
     fill-opacity="0"
     d="m 325.1966,45.00027 h -13.6413 c -1.88348,0 -3.41034,3.58466 -3.41034,8.00656 0,4.42191 1.52686,8.00656 3.41034,8.00656 h 13.6413 v 0 c 1.88345,0 3.41031,-3.58465 3.41031,-8.00656 0,-4.4219 -1.52686,-8.00656 -3.41031,-8.00656 z"
     fill-rule="evenodd"
     id="path217" />
  <path
     stroke="#cccccc"
     stroke-width="1"
     stroke-linejoin="round"
     stroke-linecap="butt"
     d="m 311.5553,61.01339 c 1.88345,0 3.41031,-3.58466 3.41031,-8.00656 0,-4.42191 -1.52686,-8.00656 -3.41031,-8.00656"
     fill-rule="evenodd"
     id="path219" />
  <path
     stroke="#cccccc"
     stroke-width="1"
     stroke-linejoin="round"
     stroke-linecap="butt"
     d="m 325.1966,45.00027 h -13.6413 c -1.88348,0 -3.41034,3.58466 -3.41034,8.00656 0,4.42191 1.52686,8.00656 3.41034,8.00656 h 13.6413 v 0 c 1.88345,0 3.41031,-3.58465 3.41031,-8.00656 0,-4.4219 -1.52686,-8.00656 -3.41031,-8.00656 z"
     fill-rule="evenodd"
     id="path221" />
  <path
     fill="#efefef"
     d="m 303.06098,45.35591 h 16.12598 V 60.6 h -16.12598 z"
     fill-rule="evenodd"
     id="path223" />
</svg>
