<svg xmlns="http://www.w3.org/2000/svg" xmlns:xlink="http://www.w3.org/1999/xlink" version="1.1" width="446.235pt" height="172.071pt" viewBox="0 0 446.235 172.071">
<path transform="matrix(1,0,0,-1,93.7444,167.09029)" d="M0 0V162.111C0 164.312 1.784 166.096 3.985 166.096H347.515C349.716 166.096 351.5 164.312 351.5 162.111V0C351.5-2.201 349.716-3.985 347.515-3.985H3.985C1.784-3.985 0-2.201 0 0Z" fill="#ebeef4"/>
<path transform="matrix(1,0,0,-1,93.7444,167.09029)" stroke-width="1.993" stroke-linecap="butt" stroke-miterlimit="10" stroke-linejoin="miter" fill="none" stroke="#3b528b" d="M0 0V162.111C0 164.312 1.784 166.096 3.985 166.096H347.515C349.716 166.096 351.5 164.312 351.5 162.111V0C351.5-2.201 349.716-3.985 347.515-3.985H3.985C1.784-3.985 0-2.201 0 0Z"/>
<path transform="matrix(1,0,0,-1,153.2724,29.341393)" stroke-width="9.963" stroke-linecap="butt" stroke-miterlimit="10" stroke-linejoin="miter" fill="none" stroke="#cbcbcb" d="M0 0H231.946"/>
<path transform="matrix(1,0,0,-1,153.2724,86.034999)" stroke-width="9.963" stroke-linecap="butt" stroke-miterlimit="10" stroke-linejoin="miter" fill="none" stroke="#cbcbcb" d="M0 0H90.212"/>
<path transform="matrix(1,0,0,-1,255.3211,86.034999)" stroke-width="9.963" stroke-linecap="butt" stroke-miterlimit="10" stroke-linejoin="miter" fill="none" stroke="#cbcbcb" d="M0 0H129.897"/>
<path transform="matrix(1,0,0,-1,224.1394,142.72859)" stroke-width="9.963" stroke-linecap="butt" stroke-miterlimit="10" stroke-linejoin="miter" fill="none" stroke="#cbcbcb" d="M0 0H90.212"/>
<path transform="matrix(1,0,0,-1,156.1072,29.341393)" stroke-width="2.989" stroke-linecap="butt" stroke-miterlimit="10" stroke-linejoin="miter" fill="none" stroke="#d8dce8" d="M0 0H8.122"/>
<path transform="matrix(1,0,0,-1,168.97306,29.341385)" d="M0 0-4.339 3.507V0-3.507Z" fill="#d8dce8"/>
<path transform="matrix(1,0,0,-1,168.97306,29.341385)" stroke-width="1.619" stroke-linecap="butt" stroke-linejoin="round" fill="none" stroke="#d8dce8" d="M0 0-4.339 3.507V0-3.507Z"/>
<path transform="matrix(1,0,0,-1,156.1072,86.034999)" stroke-width="2.989" stroke-linecap="butt" stroke-miterlimit="10" stroke-linejoin="miter" fill="none" stroke="#d8dce8" d="M0 0H8.122"/>
<path transform="matrix(1,0,0,-1,168.97306,86.034999)" d="M0 0-4.339 3.507V0-3.507Z" fill="#d8dce8"/>
<path transform="matrix(1,0,0,-1,168.97306,86.034999)" stroke-width="1.619" stroke-linecap="butt" stroke-linejoin="round" fill="none" stroke="#d8dce8" d="M0 0-4.339 3.507V0-3.507Z"/>
<path transform="matrix(1,0,0,-1,226.9743,29.341393)" stroke-width="2.989" stroke-linecap="butt" stroke-miterlimit="10" stroke-linejoin="miter" fill="none" stroke="#d8dce8" d="M0 0H78.989"/>
<path transform="matrix(1,0,0,-1,310.70713,29.341385)" d="M0 0-4.339 3.507V0-3.507Z" fill="#d8dce8"/>
<path transform="matrix(1,0,0,-1,310.70713,29.341385)" stroke-width="1.619" stroke-linecap="butt" stroke-linejoin="round" fill="none" stroke="#d8dce8" d="M0 0-4.339 3.507V0-3.507Z"/>
<path transform="matrix(1,0,0,-1,226.9743,86.034999)" stroke-width="2.989" stroke-linecap="butt" stroke-miterlimit="10" stroke-linejoin="miter" fill="none" stroke="#d8dce8" d="M0 0H8.122"/>
<path transform="matrix(1,0,0,-1,239.84008,86.034999)" d="M0 0-4.339 3.507V0-3.507Z" fill="#d8dce8"/>
<path transform="matrix(1,0,0,-1,239.84008,86.034999)" stroke-width="1.619" stroke-linecap="butt" stroke-linejoin="round" fill="none" stroke="#d8dce8" d="M0 0-4.339 3.507V0-3.507Z"/>
<path transform="matrix(1,0,0,-1,297.8413,86.034999)" stroke-width="2.989" stroke-linecap="butt" stroke-miterlimit="10" stroke-linejoin="miter" fill="none" stroke="#d8dce8" d="M0 0H8.122"/>
<path transform="matrix(1,0,0,-1,310.70713,86.034999)" d="M0 0-4.339 3.507V0-3.507Z" fill="#d8dce8"/>
<path transform="matrix(1,0,0,-1,310.70713,86.034999)" stroke-width="1.619" stroke-linecap="butt" stroke-linejoin="round" fill="none" stroke="#d8dce8" d="M0 0-4.339 3.507V0-3.507Z"/>
<path transform="matrix(1,0,0,-1,226.9743,142.72859)" stroke-width="2.989" stroke-linecap="butt" stroke-miterlimit="10" stroke-linejoin="miter" fill="none" stroke="#d8dce8" d="M0 0H8.122"/>
<path transform="matrix(1,0,0,-1,239.84008,142.7286)" d="M0 0-4.339 3.507V0-3.507Z" fill="#d8dce8"/>
<path transform="matrix(1,0,0,-1,239.84008,142.7286)" stroke-width="1.619" stroke-linecap="butt" stroke-linejoin="round" fill="none" stroke="#d8dce8" d="M0 0-4.339 3.507V0-3.507Z"/>
<path transform="matrix(1,0,0,-1,297.8413,142.72859)" stroke-width="2.989" stroke-linecap="butt" stroke-miterlimit="10" stroke-linejoin="miter" fill="none" stroke="#d8dce8" d="M0 0H8.122"/>
<path transform="matrix(1,0,0,-1,310.70713,142.7286)" d="M0 0-4.339 3.507V0-3.507Z" fill="#d8dce8"/>
<path transform="matrix(1,0,0,-1,310.70713,142.7286)" stroke-width="1.619" stroke-linecap="butt" stroke-linejoin="round" fill="none" stroke="#d8dce8" d="M0 0-4.339 3.507V0-3.507Z"/>
<path transform="matrix(1,0,0,-1,368.70829,29.341393)" stroke-width="2.989" stroke-linecap="butt" stroke-miterlimit="10" stroke-linejoin="miter" fill="none" stroke="#d8dce8" d="M0 0H8.122"/>
<path transform="matrix(1,0,0,-1,381.57414,29.341385)" d="M0 0-4.339 3.507V0-3.507Z" fill="#d8dce8"/>
<path transform="matrix(1,0,0,-1,381.57414,29.341385)" stroke-width="1.619" stroke-linecap="butt" stroke-linejoin="round" fill="none" stroke="#d8dce8" d="M0 0-4.339 3.507V0-3.507Z"/>
<path transform="matrix(1,0,0,-1,368.70829,86.034999)" stroke-width="2.989" stroke-linecap="butt" stroke-miterlimit="10" stroke-linejoin="miter" fill="none" stroke="#d8dce8" d="M0 0H8.122"/>
<path transform="matrix(1,0,0,-1,381.57414,86.034999)" d="M0 0-4.339 3.507V0-3.507Z" fill="#d8dce8"/>
<path transform="matrix(1,0,0,-1,381.57414,86.034999)" stroke-width="1.619" stroke-linecap="butt" stroke-linejoin="round" fill="none" stroke="#d8dce8" d="M0 0-4.339 3.507V0-3.507Z"/>
<path transform="matrix(1,0,0,-1,99.413608,104.727397)" d="M0 0V94.078C0 96.279 1.784 98.064 3.985 98.064H52.709C54.909 98.064 56.694 96.279 56.694 94.078V0C56.694-2.201 54.909-3.985 52.709-3.985H3.985C1.784-3.985 0-2.201 0 0Z" fill="#e4f1f1"/>
<path transform="matrix(1,0,0,-1,99.413608,104.727397)" stroke-width=".398" stroke-linecap="butt" stroke-miterlimit="10" stroke-linejoin="miter" fill="none" stroke="#000000" d="M0 0V94.078C0 96.279 1.784 98.064 3.985 98.064H52.709C54.909 98.064 56.694 96.279 56.694 94.078V0C56.694-2.201 54.909-3.985 52.709-3.985H3.985C1.784-3.985 0-2.201 0 0Z"/>
<path transform="matrix(1,0,0,-1,170.2807,161.42099)" d="M0 0V94.078C0 96.279 1.784 98.064 3.985 98.064H52.709C54.909 98.064 56.694 96.279 56.694 94.078V0C56.694-2.201 54.909-3.985 52.709-3.985H3.985C1.784-3.985 0-2.201 0 0Z" fill="#e4f1f1"/>
<path transform="matrix(1,0,0,-1,170.2807,161.42099)" stroke-width=".398" stroke-linecap="butt" stroke-miterlimit="10" stroke-linejoin="miter" fill="none" stroke="#000000" d="M0 0V94.078C0 96.279 1.784 98.064 3.985 98.064H52.709C54.909 98.064 56.694 96.279 56.694 94.078V0C56.694-2.201 54.909-3.985 52.709-3.985H3.985C1.784-3.985 0-2.201 0 0Z"/>
<path transform="matrix(1,0,0,-1,170.2807,48.03379)" d="M0 0V37.385C0 39.586 1.784 41.37 3.985 41.37H52.709C54.909 41.37 56.694 39.586 56.694 37.385V0C56.694-2.201 54.909-3.985 52.709-3.985H3.985C1.784-3.985 0-2.201 0 0Z" fill="#e4f1f1"/>
<path transform="matrix(1,0,0,-1,170.2807,48.03379)" stroke-width=".398" stroke-linecap="butt" stroke-miterlimit="10" stroke-linejoin="miter" fill="none" stroke="#000000" d="M0 0V37.385C0 39.586 1.784 41.37 3.985 41.37H52.709C54.909 41.37 56.694 39.586 56.694 37.385V0C56.694-2.201 54.909-3.985 52.709-3.985H3.985C1.784-3.985 0-2.201 0 0Z"/>
<path transform="matrix(1,0,0,-1,241.1477,161.42099)" d="M0 0V37.385C0 39.586 1.784 41.37 3.985 41.37H52.709C54.909 41.37 56.694 39.586 56.694 37.385V0C56.694-2.201 54.909-3.985 52.709-3.985H3.985C1.784-3.985 0-2.201 0 0Z" fill="#e4f1f1"/>
<path transform="matrix(1,0,0,-1,241.1477,161.42099)" stroke-width=".398" stroke-linecap="butt" stroke-miterlimit="10" stroke-linejoin="miter" fill="none" stroke="#000000" d="M0 0V37.385C0 39.586 1.784 41.37 3.985 41.37H52.709C54.909 41.37 56.694 39.586 56.694 37.385V0C56.694-2.201 54.909-3.985 52.709-3.985H3.985C1.784-3.985 0-2.201 0 0Z"/>
<path transform="matrix(1,0,0,-1,241.1477,104.727397)" d="M0 0V37.385C0 39.586 1.784 41.37 3.985 41.37H52.709C54.909 41.37 56.694 39.586 56.694 37.385V0C56.694-2.201 54.909-3.985 52.709-3.985H3.985C1.784-3.985 0-2.201 0 0Z" fill="#e4f1f1"/>
<path transform="matrix(1,0,0,-1,241.1477,104.727397)" stroke-width=".398" stroke-linecap="butt" stroke-miterlimit="10" stroke-linejoin="miter" fill="none" stroke="#000000" d="M0 0V37.385C0 39.586 1.784 41.37 3.985 41.37H52.709C54.909 41.37 56.694 39.586 56.694 37.385V0C56.694-2.201 54.909-3.985 52.709-3.985H3.985C1.784-3.985 0-2.201 0 0Z"/>
<path transform="matrix(1,0,0,-1,312.0147,161.42099)" d="M0 0V94.078C0 96.279 1.784 98.064 3.985 98.064H52.708C54.909 98.064 56.694 96.279 56.694 94.078V0C56.694-2.201 54.909-3.985 52.708-3.985H3.985C1.784-3.985 0-2.201 0 0Z" fill="#e4f1f1"/>
<path transform="matrix(1,0,0,-1,312.0147,161.42099)" stroke-width=".398" stroke-linecap="butt" stroke-miterlimit="10" stroke-linejoin="miter" fill="none" stroke="#000000" d="M0 0V94.078C0 96.279 1.784 98.064 3.985 98.064H52.708C54.909 98.064 56.694 96.279 56.694 94.078V0C56.694-2.201 54.909-3.985 52.708-3.985H3.985C1.784-3.985 0-2.201 0 0Z"/>
<path transform="matrix(1,0,0,-1,312.0147,48.03379)" d="M0 0V37.385C0 39.586 1.784 41.37 3.985 41.37H52.708C54.909 41.37 56.694 39.586 56.694 37.385V0C56.694-2.201 54.909-3.985 52.708-3.985H3.985C1.784-3.985 0-2.201 0 0Z" fill="#e4f1f1"/>
<path transform="matrix(1,0,0,-1,312.0147,48.03379)" stroke-width=".398" stroke-linecap="butt" stroke-miterlimit="10" stroke-linejoin="miter" fill="none" stroke="#000000" d="M0 0V37.385C0 39.586 1.784 41.37 3.985 41.37H52.708C54.909 41.37 56.694 39.586 56.694 37.385V0C56.694-2.201 54.909-3.985 52.708-3.985H3.985C1.784-3.985 0-2.201 0 0Z"/>
<path transform="matrix(1,0,0,-1,382.88169,104.727397)" d="M0 0V94.078C0 96.279 1.784 98.064 3.985 98.064H52.709C54.909 98.064 56.694 96.279 56.694 94.078V0C56.694-2.201 54.909-3.985 52.709-3.985H3.985C1.784-3.985 0-2.201 0 0Z" fill="#79bcba"/>
<path transform="matrix(1,0,0,-1,382.88169,104.727397)" stroke-width=".398" stroke-linecap="butt" stroke-miterlimit="10" stroke-linejoin="miter" fill="none" stroke="#000000" d="M0 0V94.078C0 96.279 1.784 98.064 3.985 98.064H52.709C54.909 98.064 56.694 96.279 56.694 94.078V0C56.694-2.201 54.909-3.985 52.709-3.985H3.985C1.784-3.985 0-2.201 0 0Z"/>
<path transform="matrix(1,0,0,-1,56.8934,57.688196)" stroke-width="4.981" stroke-linecap="butt" stroke-miterlimit="10" stroke-linejoin="miter" fill="none" stroke="#a9a9a9" d="M0 0H33.96"/>
<path transform="matrix(1,0,0,-1,97.73245,57.68818)" d="M0 0-6.287 4.884V0-4.884Z" fill="#a9a9a9"/>
<path transform="matrix(1,0,0,-1,97.73245,57.68818)" stroke-width="2.366" stroke-linecap="butt" stroke-linejoin="round" fill="none" stroke="#a9a9a9" d="M0 0-6.287 4.884V0-4.884Z"/>
<path transform="matrix(1,0,0,-1,.19980049,67.876499)" d="M0 0V20.377C0 22.578 1.784 24.362 3.985 24.362H52.709C54.909 24.362 56.694 22.578 56.694 20.377V0C56.694-2.201 54.909-3.985 52.709-3.985H3.985C1.784-3.985 0-2.201 0 0Z" fill="#cbebe1"/>
<path transform="matrix(1,0,0,-1,.19980049,67.876499)" stroke-width=".398" stroke-linecap="butt" stroke-miterlimit="10" stroke-linejoin="miter" fill="none" stroke="#000000" d="M0 0V20.377C0 22.578 1.784 24.362 3.985 24.362H52.709C54.909 24.362 56.694 22.578 56.694 20.377V0C56.694-2.201 54.909-3.985 52.709-3.985H3.985C1.784-3.985 0-2.201 0 0Z"/>
</svg>
