<svg xmlns="http://www.w3.org/2000/svg" xmlns:xlink="http://www.w3.org/1999/xlink" version="1.1" width="282.622pt" height="58.685pt" viewBox="0 0 282.622 58.685">
<defs>
<path id="font_52_18" d="M.115997318 .048538209C.1789856-.00048828127 .22799683-.021484375 .30499269-.021484375 .42399598-.021484375 .49899293 .08557129 .49899293 .18765259 .49899293 .27072145 .45199586 .34777833 .37199403 .3808136 .31098939 .40582276 .23498535 .40382386 .18199158 .43585206 .14199829 .46087647 .11898804 .50390627 .11898804 .5479431 .11898804 .6269989 .18598938 .67803958 .25698854 .67803958 .35598756 .67803958 .4249878 .59898379 .44099427 .49890138 .44400025 .48388673 .44099427 .4568634 .45899964 .4568634 .46998597 .4568634 .47099305 .46588136 .47099305 .47488404V.6920471C.47099305 .6990509 .46899415 .7060547 .46099855 .7060547 .44599916 .7060547 .43499757 .67803958 .4269867 .66503909 .42099 .6560364 .4139862 .6460266 .4099884 .63601687 .36898805 .6770477 .32199098 .7060547 .25498963 .7060547 .15699768 .7060547 .054992677 .63801577 .054992677 .51091006 .054992677 .40682984 .1309967 .33877564 .22898865 .31774903 .25 .3127594 .269989 .30674745 .29100038 .30174256 .34700013 .2887268 .40299989 .27471925 .4269867 .20266724 .43199159 .18765259 .43499757 .17164612 .43499757 .15663147 .43499757 .08157349 .38398744 .009506226 .2999878 .009506226 .19999695 .009506226 .102996829 .06254578 .08299255 .17764282 .08198547 .18664551 .08099365 .19665528 .07998657 .20567322V.212677C.07998657 .22268677 .07499695 .22767639 .066986087 .22767639 .056991579 .22767639 .054992677 .21968079 .054992677 .212677V-.0074920656C.054992677-.01449585 .056991579-.021484375 .06498718-.021484375 .07998657-.021484375 .09098816 .006515503 .09899902 .019515992 .10499573 .028518677 .11199951 .038528444 .115997318 .048538209Z"/>
<path id="font_52_25" d="M.35899354 .38723756C.33299256 .38523866 .31199647 .36923219 .31199647 .3412323 .31199647 .3142395 .33099366 .29522706 .35798646 .29522706 .3880005 .29522706 .4039917 .31723023 .4039917 .3452301V.3512268C.3939972 .4242401 .30899049 .4482422 .25099183 .4482422 .1289978 .4482422 .032989503 .3412323 .032989503 .21723938 .032989503 .10423279 .12098694-.009765625 .25-.009765625 .31599427-.009765625 .3809967 .026229859 .4079895 .096221927 .4099884 .10223389 .4149933 .11123657 .4149933 .1182251 .4149933 .12522888 .4099884 .13023377 .40299989 .13023377 .3880005 .13023377 .3789978 .09222412 .37199403 .07922363 .34799195 .040222169 .30699159 .016220093 .2619934 .0152282719 .15499878 .0152282719 .12199402 .1222229 .116989139 .20123291V.21322632C.116989139 .29322816 .13598633 .41323854 .24598694 .42323304H.2539978C.29100038 .42323304 .32998658 .41223146 .35899354 .38723756Z"/>
<path id="font_52_23" d="M.11199951 .3812256C.13699341 .41223146 .18099976 .426239 .21798706 .426239 .2919922 .426239 .32499696 .3592224 .32499696 .288208V.26220704C.20999146 .26220704 .040985109 .22619629 .040985109 .095214847V.08721924C.04899597 .010223389 .1459961-.009765625 .20298767-.009765625 .2539978-.009765625 .31900025 .024230957 .33198548 .07522583H.33299256C.33898927 .032226564 .3659973-.004776001 .41099549-.004776001 .45199586-.004776001 .48799134 .02822876 .49299623 .07322693V.14620972H.46798707V.095214847C.46798707 .068222049 .46299745 .02722168 .43199159 .02722168 .3999939 .02722168 .394989 .066223148 .394989 .09321594V.26020814C.394989 .27320863 .3959961 .28520204 .3959961 .29821778 .3959961 .39523316 .30499269 .4482422 .22200012 .4482422 .15899658 .4482422 .069992069 .41723634 .069992069 .33721925 .069992069 .30822755 .09098816 .28923036 .116989139 .28923036 .14498902 .28923036 .1619873 .31123353 .1619873 .3352356 .1619873 .3642273 .13899231 .38124085 .11199951 .38124085V.3812256M.32499696 .24121094V.14021302C.32499696 .07122803 .2769928 .016220093 .21199036 .01222229H.20799256C.16099549 .01222229 .11898804 .049224855 .11898804 .097213748V.10221863C.12599182 .2032013 .23899842 .23820496 .32499696 .24121094Z"/>
<path id="font_52_39" d="M.032989503 .68429568V.6532898H.04798889C.084991458 .6532898 .11099243 .64927676 .11099243 .6012573V.0960083C.11099243 .08900452 .11199951 .08200073 .11199951 .07398987 .11199951 .035964967 .084991458 .031967164 .056991579 .031967164H.032989503V.0009765625H.2559967V.031967164H.23098755C.20199585 .031967164 .17799378 .035964967 .17799378 .07499695V.6953125L.032989503 .68429568Z"/>
<path id="font_52_36" d="M.036987306 .430542V.3995819H.055999757C.084991458 .3995819 .11099243 .3955841 .11099243 .34962464V.07292175C.11099243 .037963869 .09298706 .031967164 .032989503 .031967164V.0009765625H.24798584V.031967164H.22799683C.20199585 .031967164 .17799378 .034973146 .17799378 .06692505V.44154359L.036987306 .430542M.12098694 .6689453C.09599304 .66589358 .07598877 .64382937 .07598877 .61672976 .07598877 .5876312 .100997928 .5635376 .1289978 .5635376 .1559906 .5635376 .18199158 .58561709 .18199158 .61672976 .18199158 .64582827 .15699768 .6699219 .1289978 .6699219 .12599182 .66993716 .12399292 .6689453 .12098694 .6689453Z"/>
<path id="font_52_41" d="M.03199768 .43138124V.4003601H.04699707C.07998657 .4003601 .10998535 .39735414 .10998535 .35029603V.074020389C.10998535 .032974245 .08198547 .031967164 .037994386 .031967164H.03199768V.0009765625H.2579956V.031967164H.23199463C.20399475 .031967164 .17999268 .035980226 .17999268 .073013309V.25621034C.17999268 .3282776 .21699524 .42037965 .31599427 .42037965 .37998963 .42037965 .38598634 .3513031 .38598634 .30825807V.069000247C.38598634 .034973146 .35699464 .031967164 .32598878 .031967164H.30799867V.0009765625H.5339966V.031967164H.5089874C.48199464 .031967164 .45599366 .035980226 .45599366 .070007327V.28923036C.45599366 .32226563 .45498658 .35630799 .43899537 .38633729 .41600038 .43037416 .36499024 .4423828 .31900025 .4423828 .2579956 .4423828 .19499207 .4003601 .1749878 .34028626L.17399597 .4423828 .03199768 .43138124Z"/>
<path id="font_52_33" d="M.11898804 .02281189V.02180481C.07199097 .012802124 .027999878-.032165529 .027999878-.07914734 .027999878-.1730957 .17199707-.20507813 .24899292-.20507813 .33299256-.20507813 .47099305-.1750946 .47099305-.072143558 .47099305-.0071868898 .4249878 .03781128 .36499024 .05480957 .32899476 .06581116 .2919922 .06680298 .2539978 .06680298H.16299439C.1309967 .06982422 .10598755 .10205078 .10598755 .13427735V.13931275C.10699463 .15238953 .11399841 .17837525 .12399292 .17837525 .13699341 .17538452 .15098572 .16438294 .1659851 .15937805 .18399048 .15338135 .20399475 .15039063 .22299195 .15039063 .30499269 .15039063 .3849945 .21134949 .3849945 .29626466 .3849945 .3302307 .37098695 .37019349 .34399415 .3921814V.39317323C.37098695 .41316224 .39698792 .43113709 .43299867 .43113709 .43598939 .43113709 .43899537 .43113709 .44198609 .43014527 .43299867 .42414857 .4269867 .41714479 .4269867 .40415956 .4269867 .3881836 .43998719 .37419129 .45599366 .37419129 .47299195 .37419129 .4850006 .3881836 .4850006 .40415956 .4850006 .43113709 .46299745 .453125 .43499757 .453125 .3999939 .453125 .3659973 .4391327 .33999635 .41714479 .33699037 .41415406 .33299256 .41015626 .32899476 .40916444H.32798768C.32199098 .40916444 .31399537 .41714479 .30899049 .42015077 .2829895 .43437196 .25299073 .4423828 .22299195 .4423828 .14399719 .4423828 .05899048 .38737489 .05899048 .29638673 .05899048 .26338197 .07199097 .23338318 .09199524 .2073822 .09599304 .2033844 .102996829 .19837952 .102996829 .1933899 .102996829 .18838501 .09700012 .18338013 .09498596 .17938233 .08198547 .15937805 .07499695 .13427735 .07499695 .11010742 .07499695 .07888794 .08898926 .03781128 .11898804 .02281189M.08099365-.08413696V-.07614136C.08099365-.0231781 .1269989 .0078125 .18099976 .0078125H.25898744C.32199098 .0078125 .41799928-.0011901856 .41799928-.07814026 .41799928-.15110779 .31098939-.18208313 .24899292-.18208313 .18299866-.18208313 .09098816-.15209961 .08099365-.08413696M.1349945 .27638246V.28938294C.1349945 .3443756 .147995 .41838075 .22200012 .41838075 .28399659 .41838075 .30899049 .36038209 .30899049 .29638673 .30899049 .25538636 .30099488 .17437744 .22299195 .17437744 .19699097 .17437744 .17199707 .18638611 .15499878 .20838928 .13999939 .2283783 .13798523 .25238038 .1349945 .27638246Z"/>
<path id="font_52_6" d="M.032989503 .68066409V.6496582C.04598999 .6496582 .05899048 .65065 .070999149 .65065 .10699463 .65065 .13598633 .6456604 .13598633 .60572817V.07499695C.13598633 .036972047 .102996829 .030975342 .068984989 .030975342 .055999757 .030975342 .04399109 .031967164 .032989503 .031967164V.0009765625H.35299684V.031967164C.33898927 .031967164 .32199098 .030975342 .30499269 .030975342 .25498963 .030975342 .22499085 .034973146 .22499085 .08100891V.32617188H.30899049C.34298707 .32617188 .38398744 .3241577 .40299989 .2951355 .4169922 .27313233 .41799928 .24511719 .41799928 .2190857V.20909119H.44299317V.4739685H.41799928V.463974C.41799928 .4120636 .4079895 .36714173 .34700013 .35916139 .32899476 .35716249 .30999757 .35716249 .2919922 .35716249H.22499085V.61372378C.22499085 .6476593 .24499512 .6496582 .2659912 .6496582H.3829956C.43499757 .6496582 .49798585 .6476593 .5359955 .60873416 .57398989 .5688019 .5779877 .50790408 .58499148 .45599366H.6100006L.58200076 .68066409H.032989503Z"/>
<path id="font_52_51" d="M.14898682 .6152344C.14898682 .54644778 .11999512 .421875 .017990113 .421875V.39987184H.10398865V.1421051C.10398865 .10914612 .10598755 .076171878 .12199402 .047195436 .14399719 .007232666 .19099427-.009765625 .23498535-.009765625 .31698609-.009765625 .33299256 .08216858 .33299256 .14511109V.18206787H.30799867C.30799867 .16708374 .30899049 .15209961 .30899049 .1361084 .30899049 .09214783 .29899598 .0152282719 .23999024 .0152282719 .18299866 .0152282719 .17399597 .08416748 .17399597 .12911988V.39987184H.31599427V.43066407H.17399597V.6152344H.14898682Z"/>
<path id="font_52_42" d="M.23498535 .4482422C.10899353 .43522645 .027999878 .3292389 .027999878 .21322632 .027999878 .100234989 .116989139-.009765625 .25-.009765625 .36999513-.009765625 .47099305 .08822632 .47099305 .2142334 .47099305 .33320619 .3809967 .44921876 .24798584 .44921876 .24398804 .449234 .23899842 .4482422 .23498535 .4482422M.11199951 .19023133V.23423767C.11199951 .31021119 .13598633 .4262085 .24899292 .4262085 .32998658 .4262085 .37599183 .35821534 .3849945 .2822113 .3869934 .2602234 .3869934 .23921204 .3869934 .21722412 .3869934 .15222168 .37998963 .07122803 .31599427 .034225465 .29599 .021224976 .27398683 .0152282719 .25099183 .0152282719 .17799378 .0152282719 .1269989 .07221985 .115997318 .15022278 .11399841 .16322327 .11399841 .17721558 .11199951 .19021607V.19023133Z"/>
<path id="font_52_49" d="M.026992798 .43138124V.4003601H.041992189C.07499695 .4003601 .10499573 .39735414 .10499573 .35029603V.074020389C.10499573 .032974245 .07699585 .031967164 .032989503 .031967164H.026992798V.0009765625H.2689972V.031967164C.25698854 .031967164 .24299622 .030975342 .23098755 .030975342 .19898987 .030975342 .17199707 .035980226 .17199707 .073013309V.20614624C.17199707 .2912445 .19198609 .42037965 .2899933 .42037965 .2939911 .42037965 .29699708 .42037965 .30099488 .41937257V.41836549C.28599549 .41236878 .27799989 .39634706 .27799989 .38032533 .27799989 .35731507 .29299928 .34129334 .31599427 .33728028 .34498597 .33728028 .3639984 .3553009 .3639984 .38032533 .3639984 .42037965 .32598878 .4423828 .2899933 .4423828 .23098755 .4423828 .17799378 .38934327 .16799927 .33528138L.16699219 .4423828 .026992798 .43138124Z"/>
<path id="font_52_5" d="M.032989503 .68066409V.6496582C.04598999 .6496582 .05899048 .65065 .070999149 .65065 .10699463 .65065 .13598633 .6456604 .13598633 .6056824V.07495117C.13598633 .036972047 .102996829 .030975342 .068984989 .030975342 .055999757 .030975342 .04399109 .031967164 .032989503 .031967164V.0009765625H.60899356L.651001 .25889588H.6259918C.61099246 .16792298 .598999 .06796265 .48999024 .03996277 .45899964 .032974245 .4269867 .031967164 .394989 .031967164H.2669983C.24699402 .031967164 .22499085 .033966066 .22499085 .063964847V.3388672H.31698609C.35198976 .3388672 .3909912 .3358612 .4099884 .3048706 .42199708 .2838745 .4229889 .2568817 .4229889 .23190308V.22190857H.44799806V.48677064H.4229889V.47677613C.4229889 .42282105 .41099549 .3798523 .35198976 .3718567 .33299256 .3698578 .31399537 .3698578 .29499818 .3698578H.22499085V.61468508C.22499085 .6486511 .24598694 .6496582 .2669983 .6496582H.3869934C.44599916 .6496582 .5189972 .6496582 .55799868 .59669497 .58799746 .5567169 .59298709 .5037689 .598999 .4557953H.6239929L.59599307 .68066409H.032989503Z"/>
<path id="font_52_28" d="M.3039856 .6843109V.6533203H.31999208C.35499574 .6533203 .38198854 .6493225 .38198854 .5913391L.3809967 .38136292C.35699464 .42137147 .2999878 .4423828 .2539978 .4423828 .1309967 .4423828 .032989503 .3363495 .032989503 .21530152 .032989503 .10826111 .114990238-.009765625 .24699402-.009765625 .29899598-.009765625 .34599305 .0152282719 .3789978 .055236818V-.009765625L.5269928 .0012207031V.032226564H.5099945C.47898866 .032226564 .44898988 .035232545 .44898988 .08224487V.6953125L.3039856 .6843109M.116989139 .19128418V.20629883C.116989139 .2803192 .12599182 .35534669 .19499207 .4013672 .21499634 .41337586 .23799134 .42037965 .26098634 .42037965 .30999757 .42037965 .37998963 .38035584 .37998963 .31733705 .37998963 .30433656 .3789978 .2913208 .3789978 .2783203V.11225891C.3789978 .09925842 .37399293 .09025574 .36698915 .08024597 .34098817 .041244508 .2979889 .01222229 .25099183 .01222229 .17799378 .01222229 .13198853 .07925415 .12098694 .14826966 .11898804 .16227722 .11898804 .17729187 .116989139 .19128418Z"/>
<path id="font_52_12" d="M.036987306 .68359377V.6525879C.049987794 .6525879 .06298828 .6535797 .07499695 .6535797 .11099243 .6535797 .13999939 .6485901 .13999939 .60861209V.10292053C.13999939 .037963869 .07998657 .031967164 .036987306 .031967164V.0009765625H.2709961V.031967164C.22599793 .031967164 .16699219 .037963869 .16699219 .106918338 .16699219 .11592102 .16799927 .12591553 .16799927 .13490296L.16899109 .6465912C.17399597 .62561038 .18399048 .60562136 .19198609 .5856323 .2619934 .40074159 .33399964 .21685791 .4059906 .033966066 .4099884 .022964478 .4149933 .0009765625 .42999269 .0009765625H.43099977C.44599916 .0029754639 .44999696 .025970459 .45498658 .037963869 .5269928 .22485352 .60198977 .41374208 .6729889 .60162356 .6799927 .61860659 .6879883 .63560488 .69299319 .6535797L.69400027 .076934818C.69400027 .036972047 .6619873 .030975342 .6299896 .030975342 .6159973 .030975342 .6029968 .031967164 .59098818 .031967164V.0009765625H.8779907V.031967164C.8659973 .031967164 .8529968 .030975342 .84098818 .030975342 .80599978 .030975342 .7749939 .035964967 .7749939 .07493591V.60861209C.7749939 .64759829 .8069916 .6535797 .84098818 .6535797 .85398867 .6535797 .86698916 .6525879 .8779907 .6525879V.68359377H.70399478L.68499758 .68058779 .6749878 .6645813 .45799256 .10192871 .23999024 .6645813 .22999573 .68058779 .21099854 .68359377H.036987306Z"/>
<path id="font_52_29" d="M.11199951 .23242188H.3999939C.41099549 .23242188 .41600038 .2394104 .41600038 .250412 .41600038 .35630799 .35099793 .4482422 .23899842 .4482422 .115997318 .4482422 .027999878 .33932496 .027999878 .22039795 .027999878 .12832642 .07899475 .04624939 .16699219 .006225586 .18998719-.003768921 .21699524-.009765625 .24198914-.009765625H.24499512C.32199098-.009765625 .38598634 .0332489 .41299439 .110305789 .4139862 .11331177 .4139862 .11730957 .4139862 .12031555 .4139862 .12731934 .4099884 .13232422 .40299989 .13232422 .3880005 .13232422 .38198854 .0993042 .37599183 .08828735 .35099793 .04425049 .30299378 .0152282719 .25099183 .0152282719 .21398926 .0152282719 .18199158 .036239625 .15499878 .06326294 .114990238 .109313968 .11199951 .17436219 .11199951 .23242188M.11299133 .25341798C.11299133 .33033753 .1539917 .426239 .23599243 .426239H.24099732C.33898927 .41723634 .33799745 .3133545 .34799195 .25341798H.11299133Z"/>
<path id="font_52_9" d="M.0289917 .68359377V.6525879C.041992189 .6525879 .055999757 .6535797 .069992069 .6535797 .10499573 .6535797 .13598633 .6485901 .13598633 .61161807V.07493591C.13598633 .036972047 .10398865 .030975342 .070999149 .030975342 .055999757 .030975342 .040985109 .031967164 .0289917 .031967164V.0009765625H.33198548V.031967164C.31900025 .031967164 .30499269 .030975342 .2919922 .030975342 .25698854 .030975342 .22499085 .036972047 .22499085 .07493591V.61161807C.22499085 .6485901 .25898744 .6535797 .29299928 .6535797 .30599977 .6535797 .31999208 .6525879 .33198548 .6525879V.68359377H.0289917Z"/>
<path id="font_52_40" d="M.03199768 .43138124V.4003601H.04699707C.07998657 .4003601 .10998535 .39735414 .10998535 .35029603V.074020389C.10998535 .032974245 .08198547 .031967164 .037994386 .031967164H.03199768V.0009765625H.2579956V.031967164H.23199463C.20399475 .031967164 .17999268 .035980226 .17999268 .073013309V.25621034C.17999268 .32928468 .21998596 .42037965 .31599427 .42037965 .37998963 .42037965 .3869934 .35430909 .3869934 .30825807V.070007327C.3869934 .033966066 .35699464 .031967164 .32398988 .031967164H.30899049V.0009765625H.5349884V.031967164H.5089874C.48098756 .031967164 .45700074 .035980226 .45700074 .073013309V.25621034C.45700074 .32928468 .49699403 .42037965 .59298709 .42037965 .6569977 .42037965 .6639862 .35430909 .6639862 .30825807V.070007327C.6639862 .033966066 .6339874 .031967164 .6009979 .031967164H.58599856V.0009765625H.81199648V.031967164H.79100039C.7609863 .031967164 .73399356 .034973146 .73399356 .070007327V.2962494C.73399356 .33328248 .7319946 .36631776 .70799258 .4003601 .6819916 .43338014 .6389923 .4423828 .598999 .4423828 .5339966 .4423828 .48098756 .4043579 .45399476 .34629823 .43499757 .41737367 .3899994 .4423828 .32099916 .4423828 .25698854 .4423828 .19599915 .402359 .1749878 .34028626L.17399597 .4423828 .03199768 .43138124Z"/>
<path id="font_52_44" d="M.026992798 .43138124V.4003601H.04598999C.07598877 .4003601 .10499573 .39736939 .10499573 .35734559V-.12220764C.10499573-.15835572 .07899475-.16236878 .049987794-.16236878H.026992798V-.19335938H.25299073V-.16236878H.22898865C.19898987-.16236878 .1749878-.15835572 .1749878-.12220764L.17599488 .051239015C.19898987 .010223389 .25498963-.009765625 .2979889-.009765625 .42199708-.009765625 .5209961 .09625244 .5209961 .21730042 .5209961 .3373413 .42799378 .4423828 .31098939 .4423828 .2559967 .4423828 .20799256 .41838075 .17199707 .3773651V.4423828L.026992798 .43138124M.43598939 .19929505C.43099977 .12626648 .3919983 .021224976 .30099488 .01222229H.29499818C.2519989 .01222229 .21299744 .036239625 .18899536 .072250369 .18099976 .08325195 .1749878 .09326172 .1749878 .10725403V.27531434C.1749878 .28833009 .17399597 .30133058 .17399597 .31433106 .17399597 .36735536 .24198914 .41737367 .30099488 .41737367 .4019928 .41737367 .43699647 .28633119 .43699647 .21530152 .43699647 .21029663 .43699647 .20429993 .43598939 .19929505Z"/>
<path id="font_52_54" d="M.03199768 .430542V.39953614H.04598999C.07398987 .39953614 .102996829 .3975525 .10899353 .3675995 .10998535 .35661317 .10998535 .3466339 .10998535 .33566285V.13702393C.10998535 .1040802 .11099243 .073135379 .1289978 .044189454 .1559906 .0012512207 .21299744-.0107421879 .2599945-.0107421879 .30499269-.0107421879 .34599305 .009246826 .37098695 .046188356 .37799073 .056167604 .3849945 .06614685 .3880005 .078125L.3889923-.009750366 .5339966 .0012512207V.032211305H.5189972C.48599244 .032211305 .45599366 .035217287 .45599366 .0801239V.4423828L.30799867 .43136598V.39953614H.32299806C.35598756 .39953614 .38598634 .3965454 .38598634 .3496399V.16896057C.38598634 .09509277 .34799195 .013244629 .2649994 .013244629 .20899964 .013244629 .17999268 .02722168 .17999268 .13302613V.4423828L.03199768 .430542Z"/>
<path id="font_53_11" d="M.040985109 .68359377V.6545868H.07398987C.10699463 .6545868 .13699341 .650589 .13699341 .61361697 .13699341 .60661318 .13598633 .60061648 .13598633 .59461978V.07394409C.13598633 .033966066 .10499573 .029968262 .07199097 .029968262H.040985109V.0009765625H.5439911L.56999209 .25683595H.5479889C.5379944 .16789246 .5299988 .06794739 .4139862 .036972047 .3849945 .029968262 .35598756 .029968262 .32598878 .029968262H.25299073C.23199463 .029968262 .21699524 .035964967 .21699524 .062942508V.61061099C.21699524 .64959719 .25299073 .6555786 .2889862 .6555786 .30599977 .6555786 .32299806 .6545868 .33599855 .6545868V.68359377H.040985109Z"/>
<path id="font_53_26" d="M.10598755 .23324585H.3919983C.4019928 .23324585 .40699769 .23724365 .40699769 .24725342 .40699769 .3502655 .35198976 .44628907 .23399353 .44628907 .11399841 .44628907 .0289917 .337265 .0289917 .22123719 .0289917 .13322449 .07598877 .044204713 .16299439 .0082092289 .18598938-.0018005371 .21099854-.0087890629 .23599243-.0087890629H.23899842C.31199647-.0087890629 .3829956 .035202028 .4039917 .10922241 .40499879 .11222839 .40699769 .1162262 .40699769 .120224 .40699769 .12522888 .40098573 .13023377 .3959961 .13023377 .38398744 .13023377 .3789978 .10322571 .37199403 .09022522 .34700013 .045211793 .2999878 .013198853 .24598694 .013198853 .20799256 .013198853 .17399597 .034210206 .1499939 .062210084 .10998535 .11022949 .10598755 .17323303 .10598755 .23324585M.10699463 .25224305C.10699463 .32826234 .14898682 .4262848 .23199463 .4262848 .31999208 .4262848 .34399415 .32325746 .34399415 .25224305H.10699463Z"/>
<path id="font_53_21" d="M.10499573 .36827088C.1289978 .40628053 .17298889 .4262848 .21699524 .4262848 .27398683 .4262848 .31999208 .36827088 .31999208 .31326295V.25926209C.21899414 .25926209 .042999269 .2312622 .042999269 .09423828V.084243778C.051986696 .016220093 .1349945-.009765625 .19400025-.009765625 .24598694-.009765625 .31098939 .022232056 .32598878 .07723999H.32699586C.32998658 .030090332 .3639984-.00390625 .4039917-.00390625 .44599916-.00390625 .47898866 .032089235 .48298646 .07310486V.14614868H.46099855V.09712219C.46099855 .068099979 .45599366 .02508545 .4229889 .02508545 .3909912 .02508545 .38398744 .068099979 .38398744 .09312439 .38398744 .10412598 .3849945 .11512756 .3849945 .12612915V.26519776C.3849945 .2762146 .38598634 .28822328 .38598634 .29922486 .38598634 .39326478 .29899598 .44628907 .21699524 .44628907 .15299988 .44628907 .07199097 .40827943 .07199097 .3302307 .07199097 .30122376 .09098816 .2852173 .114990238 .2852173 .13899231 .2852173 .1559906 .30422975 .1559906 .32724 .1559906 .35224916 .13699341 .36825563 .11299133 .36825563L.10499573 .36827088M.31999208 .24119568V.14614868C.31999208 .07524109 .2749939 .011230469 .20399475 .011230469 .1659851 .011230469 .114990238 .041229249 .114990238 .09223938 .114990238 .18025208 .19499207 .22525025 .27799989 .23725891 .2919922 .23925781 .30599977 .23825073 .31999208 .24125672V.24119568Z"/>
<path id="font_53_45" d="M.027999878 .4303894V.40135194H.04399109C.07398987 .40135194 .10398865 .3983612 .10398865 .3513031V.072006229C.10398865 .034973146 .084991458 .029968262 .027999878 .029968262V.0009765625H.2619934V.029968262C.25099183 .029968262 .23899842 .02897644 .22698975 .02897644 .19499207 .02897644 .16699219 .033966066 .16699219 .071014408V.20715332C.16699219 .28424073 .1789856 .39434815 .26098634 .41838075 .2689972 .42037965 .27598573 .42137147 .28399659 .42137147 .2889862 .42137147 .29299928 .42037965 .2979889 .42037965V.41937257C.2829895 .41337586 .27398683 .3983612 .27398683 .38233949 .27398683 .35931397 .29299928 .34329225 .31298829 .34329225 .33898927 .34329225 .35299684 .36331178 .35299684 .3833313 .35299684 .42037965 .31799317 .44140626 .28399659 .44140626 .23098755 .44140626 .19198609 .4033661 .17298889 .35931397 .16899109 .35029603 .1639862 .34028626 .16299439 .3302765L.1619873 .44140626 .027999878 .4303894Z"/>
<path id="font_53_37" d="M.03199768 .43040467V.40138246H.050994874C.07998657 .40138246 .10798645 .39736939 .10798645 .35131837V.072021488C.10798645 .034973146 .08898926 .029968262 .03199768 .029968262V.0009765625H.24899292V.029968262H.22599793C.19699097 .029968262 .17298889 .033966066 .17298889 .071014408V.25421144C.17298889 .32328797 .20799256 .42140199 .30599977 .42140199 .36698915 .42140199 .37998963 .3623352 .37998963 .30326844V.06800842C.37998963 .032974245 .35099793 .029968262 .32099916 .029968262H.3039856V.0009765625H.5209961V.029968262H.49798585C.47099305 .029968262 .44499208 .030975342 .44499208 .0690155V.29626466C.44499208 .32829286 .44400025 .35932923 .42799378 .38735963 .40499879 .42739869 .35699464 .44140626 .31399537 .44140626 .2649994 .44140626 .22299195 .42340089 .18899536 .37635804 .17999268 .3643341 .17298889 .35232545 .16899109 .3383026L.16799927 .44140626 .03199768 .43040467Z"/>
</defs>
<path transform="matrix(1,0,0,-1,.997406,53.7027)" d="M0 0V48.723C0 50.924 1.784 52.709 3.985 52.709H276.648C278.849 52.709 280.633 50.924 280.633 48.723V0C280.633-2.201 278.849-3.985 276.648-3.985H3.985C1.784-3.985 0-2.201 0 0Z" fill="#ebeef4"/>
<path transform="matrix(1,0,0,-1,.997406,53.7027)" stroke-width="1.993" stroke-linecap="butt" stroke-miterlimit="10" stroke-linejoin="miter" fill="none" stroke="#3b528b" d="M0 0V48.723C0 50.924 1.784 52.709 3.985 52.709H276.648C278.849 52.709 280.633 50.924 280.633 48.723V0C280.633-2.201 278.849-3.985 276.648-3.985H3.985C1.784-3.985 0-2.201 0 0Z"/>
<path transform="matrix(1,0,0,-1,60.525407,29.341004)" stroke-width="9.963" stroke-linecap="butt" stroke-miterlimit="10" stroke-linejoin="miter" fill="none" stroke="#cbcbcb" d="M0 0H161.079"/>
<path transform="matrix(1,0,0,-1,63.3602,29.341004)" stroke-width="2.989" stroke-linecap="butt" stroke-miterlimit="10" stroke-linejoin="miter" fill="none" stroke="#d8dce8" d="M0 0H8.122"/>
<path transform="matrix(1,0,0,-1,76.22606,29.341002)" d="M0 0-4.339 3.507V0-3.507Z" fill="#d8dce8"/>
<path transform="matrix(1,0,0,-1,76.22606,29.341002)" stroke-width="1.619" stroke-linecap="butt" stroke-linejoin="round" fill="none" stroke="#d8dce8" d="M0 0-4.339 3.507V0-3.507Z"/>
<path transform="matrix(1,0,0,-1,134.22731,29.341004)" stroke-width="2.989" stroke-linecap="butt" stroke-miterlimit="10" stroke-linejoin="miter" fill="none" stroke="#d8dce8" d="M0 0H8.122"/>
<path transform="matrix(1,0,0,-1,147.09308,29.341002)" d="M0 0-4.339 3.507V0-3.507Z" fill="#d8dce8"/>
<path transform="matrix(1,0,0,-1,147.09308,29.341002)" stroke-width="1.619" stroke-linecap="butt" stroke-linejoin="round" fill="none" stroke="#d8dce8" d="M0 0-4.339 3.507V0-3.507Z"/>
<path transform="matrix(1,0,0,-1,205.09432,29.341004)" stroke-width="2.989" stroke-linecap="butt" stroke-miterlimit="10" stroke-linejoin="miter" fill="none" stroke="#d8dce8" d="M0 0H8.122"/>
<path transform="matrix(1,0,0,-1,217.96012,29.341002)" d="M0 0-4.339 3.507V0-3.507Z" fill="#d8dce8"/>
<path transform="matrix(1,0,0,-1,217.96012,29.341002)" stroke-width="1.619" stroke-linecap="butt" stroke-linejoin="round" fill="none" stroke="#d8dce8" d="M0 0-4.339 3.507V0-3.507Z"/>
<path transform="matrix(1,0,0,-1,6.666603,48.0334)" d="M0 0V37.385C0 39.586 1.784 41.37 3.985 41.37H52.709C54.909 41.37 56.694 39.586 56.694 37.385V0C56.694-2.201 54.909-3.985 52.709-3.985H3.985C1.784-3.985 0-2.201 0 0Z" fill="#e4f1f1"/>
<path transform="matrix(1,0,0,-1,6.666603,48.0334)" stroke-width=".398" stroke-linecap="butt" stroke-miterlimit="10" stroke-linejoin="miter" fill="none" stroke="#000000" d="M0 0V37.385C0 39.586 1.784 41.37 3.985 41.37H52.709C54.909 41.37 56.694 39.586 56.694 37.385V0C56.694-2.201 54.909-3.985 52.709-3.985H3.985C1.784-3.985 0-2.201 0 0Z"/>
<use data-text="S" xlink:href="#font_52_18" transform="matrix(9.963,0,0,-9.963,19.518,31.805003)"/>
<use data-text="c" xlink:href="#font_52_25" transform="matrix(9.963,0,0,-9.963,25.047465,31.805003)"/>
<use data-text="a" xlink:href="#font_52_23" transform="matrix(9.963,0,0,-9.963,29.471037,31.805003)"/>
<use data-text="l" xlink:href="#font_52_39" transform="matrix(9.963,0,0,-9.963,34.452539,31.805003)"/>
<use data-text="i" xlink:href="#font_52_36" transform="matrix(9.963,0,0,-9.963,37.22225,31.805003)"/>
<use data-text="n" xlink:href="#font_52_41" transform="matrix(9.963,0,0,-9.963,39.991968,31.805003)"/>
<use data-text="g" xlink:href="#font_52_33" transform="matrix(9.963,0,0,-9.963,45.52143,31.805003)"/>
<path transform="matrix(1,0,0,-1,77.53371,48.0334)" d="M0 0V37.385C0 39.586 1.784 41.37 3.985 41.37H52.709C54.909 41.37 56.694 39.586 56.694 37.385V0C56.694-2.201 54.909-3.985 52.709-3.985H3.985C1.784-3.985 0-2.201 0 0Z" fill="#e4f1f1"/>
<path transform="matrix(1,0,0,-1,77.53371,48.0334)" stroke-width=".398" stroke-linecap="butt" stroke-miterlimit="10" stroke-linejoin="miter" fill="none" stroke="#000000" d="M0 0V37.385C0 39.586 1.784 41.37 3.985 41.37H52.709C54.909 41.37 56.694 39.586 56.694 37.385V0C56.694-2.201 54.909-3.985 52.709-3.985H3.985C1.784-3.985 0-2.201 0 0Z"/>
<use data-text="F" xlink:href="#font_52_6" transform="matrix(9.963,0,0,-9.963,91.961,25.827)"/>
<use data-text="a" xlink:href="#font_52_23" transform="matrix(9.963,0,0,-9.963,97.64,25.827)"/>
<use data-text="c" xlink:href="#font_52_25" transform="matrix(9.963,0,0,-9.963,102.6215,25.827)"/>
<use data-text="t" xlink:href="#font_52_51" transform="matrix(9.963,0,0,-9.963,107.045078,25.827)"/>
<use data-text="o" xlink:href="#font_52_42" transform="matrix(9.963,0,0,-9.963,110.920688,25.827)"/>
<use data-text="r" xlink:href="#font_52_49" transform="matrix(9.963,0,0,-9.963,115.90218,25.827)"/>
<use data-text="E" xlink:href="#font_52_5" transform="matrix(9.963,0,0,-9.963,85.473,37.781999)"/>
<use data-text="n" xlink:href="#font_52_41" transform="matrix(9.963,0,0,-9.963,92.24784,37.781999)"/>
<use data-text="c" xlink:href="#font_52_25" transform="matrix(9.963,0,0,-9.963,97.777309,37.781999)"/>
<use data-text="o" xlink:href="#font_52_42" transform="matrix(9.963,0,0,-9.963,102.20088,37.781999)"/>
<use data-text="d" xlink:href="#font_52_28" transform="matrix(9.963,0,0,-9.963,107.461299,37.781999)"/>
<use data-text="i" xlink:href="#font_52_36" transform="matrix(9.963,0,0,-9.963,112.99076,37.781999)"/>
<use data-text="n" xlink:href="#font_52_41" transform="matrix(9.963,0,0,-9.963,115.760478,37.781999)"/>
<use data-text="g" xlink:href="#font_52_33" transform="matrix(9.963,0,0,-9.963,121.28994,37.781999)"/>
<path transform="matrix(1,0,0,-1,148.40071,48.0334)" d="M0 0V37.385C0 39.586 1.784 41.37 3.985 41.37H52.709C54.909 41.37 56.694 39.586 56.694 37.385V0C56.694-2.201 54.909-3.985 52.709-3.985H3.985C1.784-3.985 0-2.201 0 0Z" fill="#e4f1f1"/>
<path transform="matrix(1,0,0,-1,148.40071,48.0334)" stroke-width=".398" stroke-linecap="butt" stroke-miterlimit="10" stroke-linejoin="miter" fill="none" stroke="#000000" d="M0 0V37.385C0 39.586 1.784 41.37 3.985 41.37H52.709C54.909 41.37 56.694 39.586 56.694 37.385V0C56.694-2.201 54.909-3.985 52.709-3.985H3.985C1.784-3.985 0-2.201 0 0Z"/>
<use data-text="M" xlink:href="#font_52_12" transform="matrix(9.963,0,0,-9.963,160.559,25.827)"/>
<use data-text="e" xlink:href="#font_52_29" transform="matrix(9.963,0,0,-9.963,169.68512,25.827)"/>
<use data-text="d" xlink:href="#font_52_28" transform="matrix(9.963,0,0,-9.963,174.10869,25.827)"/>
<use data-text="i" xlink:href="#font_52_36" transform="matrix(9.963,0,0,-9.963,179.63816,25.827)"/>
<use data-text="a" xlink:href="#font_52_23" transform="matrix(9.963,0,0,-9.963,182.40787,25.827)"/>
<use data-text="n" xlink:href="#font_52_41" transform="matrix(9.963,0,0,-9.963,187.38938,25.827)"/>
<use data-text="I" xlink:href="#font_52_9" transform="matrix(9.963,0,0,-9.963,152.259,37.781999)"/>
<use data-text="m" xlink:href="#font_52_40" transform="matrix(9.963,0,0,-9.963,155.85565,37.781999)"/>
<use data-text="p" xlink:href="#font_52_44" transform="matrix(9.963,0,0,-9.963,164.15483,37.781999)"/>
<use data-text="u" xlink:href="#font_52_54" transform="matrix(9.963,0,0,-9.963,169.6843,37.781999)"/>
<use data-text="t" xlink:href="#font_52_51" transform="matrix(9.963,0,0,-9.963,175.21376,37.781999)"/>
<use data-text="a" xlink:href="#font_52_23" transform="matrix(9.963,0,0,-9.963,179.08937,37.781999)"/>
<use data-text="t" xlink:href="#font_52_51" transform="matrix(9.963,0,0,-9.963,184.07088,37.781999)"/>
<use data-text="i" xlink:href="#font_52_36" transform="matrix(9.963,0,0,-9.963,187.94649,37.781999)"/>
<use data-text="o" xlink:href="#font_52_42" transform="matrix(9.963,0,0,-9.963,190.7162,37.781999)"/>
<use data-text="n" xlink:href="#font_52_41" transform="matrix(9.963,0,0,-9.963,195.69771,37.781999)"/>
<path transform="matrix(1,0,0,-1,219.26772,48.0334)" d="M0 0V37.385C0 39.586 1.784 41.37 3.985 41.37H52.708C54.909 41.37 56.694 39.586 56.694 37.385V0C56.694-2.201 54.909-3.985 52.708-3.985H3.985C1.784-3.985 0-2.201 0 0Z" fill="#79bcba"/>
<path transform="matrix(1,0,0,-1,219.26772,48.0334)" stroke-width=".398" stroke-linecap="butt" stroke-miterlimit="10" stroke-linejoin="miter" fill="none" stroke="#000000" d="M0 0V37.385C0 39.586 1.784 41.37 3.985 41.37H52.708C54.909 41.37 56.694 39.586 56.694 37.385V0C56.694-2.201 54.909-3.985 52.708-3.985H3.985C1.784-3.985 0-2.201 0 0Z"/>
<use data-text="L" xlink:href="#font_53_11" transform="matrix(11.955,0,0,-11.955,228.025,33.459)" fill="#ffffff"/>
<use data-text="e" xlink:href="#font_53_26" transform="matrix(11.955,0,0,-11.955,235.34146,33.459)" fill="#ffffff"/>
<use data-text="a" xlink:href="#font_53_21" transform="matrix(11.955,0,0,-11.955,240.54189,33.459)" fill="#ffffff"/>
<use data-text="r" xlink:href="#font_53_45" transform="matrix(11.955,0,0,-11.955,246.39984,33.459)" fill="#ffffff"/>
<use data-text="n" xlink:href="#font_53_37" transform="matrix(11.955,0,0,-11.955,250.9547,33.459)" fill="#ffffff"/>
<use data-text="e" xlink:href="#font_53_26" transform="matrix(11.955,0,0,-11.955,257.45823,33.459)" fill="#ffffff"/>
<use data-text="r" xlink:href="#font_53_45" transform="matrix(11.955,0,0,-11.955,262.65867,33.459)" fill="#ffffff"/>
</svg>
