<?xml version="1.0" encoding="UTF-8" standalone="no"?>
<svg
   version="1.1"
   viewBox="0 0 668.76117 289.00262"
   fill="none"
   stroke="none"
   stroke-linecap="square"
   stroke-miterlimit="10"
   id="svg227"
   sodipodi:docname="nonlinear_pipeops.svg"
   width="668.76117"
   height="289.00262"
   inkscape:version="1.1.2 (0a00cf5339, 2022-02-04)"
   xmlns:inkscape="http://www.inkscape.org/namespaces/inkscape"
   xmlns:sodipodi="http://sodipodi.sourceforge.net/DTD/sodipodi-0.dtd"
   xmlns="http://www.w3.org/2000/svg"
   xmlns:svg="http://www.w3.org/2000/svg">
  <defs
     id="defs231" />
  <sodipodi:namedview
     id="namedview229"
     pagecolor="#ffffff"
     bordercolor="#666666"
     borderopacity="1.0"
     inkscape:pageshadow="2"
     inkscape:pageopacity="0.0"
     inkscape:pagecheckerboard="0"
     showgrid="false"
     inkscape:zoom="2.134919"
     inkscape:cx="378.93709"
     inkscape:cy="275.65448"
     inkscape:window-width="1918"
     inkscape:window-height="1198"
     inkscape:window-x="3840"
     inkscape:window-y="0"
     inkscape:window-maximized="1"
     inkscape:current-layer="svg227" />
  <clipPath
     id="g1fb832bab84_0_272.0">
    <path
       d="M 0,0 H 960 V 540 H 0 Z"
       clip-rule="nonzero"
       id="path2" />
  </clipPath>
  <path
     fill="#ffab40"
     d="m 180.45407,29.16512 v 0 C 180.45407,13.60996 193.06403,1 208.61917,1 h 430.97687 c 7.46985,0 14.63379,2.96738 19.91577,8.24938 5.28198,5.28198 8.24933,12.44588 8.24933,19.91574 v 220.80363 c 0,15.55514 -12.60992,28.1651 -28.1651,28.1651 H 208.61917 c -15.55515,0 -28.1651,-12.60996 -28.1651,-28.1651 z"
     fill-rule="evenodd"
     id="path7" />
  <path
     stroke="#000000"
     stroke-width="2"
     stroke-linejoin="round"
     stroke-linecap="butt"
     d="m 180.45407,29.16512 v 0 C 180.45407,13.60996 193.06403,1 208.61917,1 h 430.97687 c 7.46985,0 14.63379,2.96738 19.91577,8.24938 5.28198,5.28198 8.24933,12.44588 8.24933,19.91574 v 220.80363 c 0,15.55514 -12.60992,28.1651 -28.1651,28.1651 H 208.61917 c -15.55515,0 -28.1651,-12.60996 -28.1651,-28.1651 z"
     fill-rule="evenodd"
     id="path9" />
  <path
     fill="#f3f3f3"
     d="m 187.75067,30.21447 v 0 c 0,-12.90797 10.46396,-23.37195 23.37192,-23.37195 h 425.72858 c 6.19861,0 12.14337,2.4624 16.52643,6.84549 4.38311,4.38309 6.84552,10.32784 6.84552,16.52646 v 216.21675 c 0,12.90796 -10.46399,23.37192 -23.37195,23.37192 H 211.12259 c -12.90796,0 -23.37192,-10.46396 -23.37192,-23.37192 z"
     fill-rule="evenodd"
     id="path11" />
  <path
     stroke="#000000"
     stroke-width="2"
     stroke-linejoin="round"
     stroke-linecap="butt"
     d="m 187.75067,30.21447 v 0 c 0,-12.90797 10.46396,-23.37195 23.37192,-23.37195 h 425.72858 c 6.19861,0 12.14337,2.4624 16.52643,6.84549 4.38311,4.38309 6.84552,10.32784 6.84552,16.52646 v 216.21675 c 0,12.90796 -10.46399,23.37192 -23.37195,23.37192 H 211.12259 c -12.90796,0 -23.37192,-10.46396 -23.37192,-23.37192 z"
     fill-rule="evenodd"
     id="path13" />
  <path
     fill="#ffab40"
     d="m 353.68267,25.29676 v 0 c 0,-4.45027 3.60764,-8.05791 8.05789,-8.05791 h 115.82123 c 2.13709,0 4.18665,0.84896 5.69776,2.36011 1.51117,1.51114 2.3601,3.5607 2.3601,5.6978 V 57.5274 c 0,4.45025 -3.6076,8.0579 -8.05786,8.0579 H 361.74056 c -4.45025,0 -8.05789,-3.60765 -8.05789,-8.0579 z"
     fill-rule="evenodd"
     id="path15" />
  <path
     stroke="#000000"
     stroke-width="2"
     stroke-linejoin="round"
     stroke-linecap="butt"
     d="m 353.68267,25.29676 v 0 c 0,-4.45027 3.60764,-8.05791 8.05789,-8.05791 h 115.82123 c 2.13709,0 4.18665,0.84896 5.69776,2.36011 1.51117,1.51114 2.3601,3.5607 2.3601,5.6978 V 57.5274 c 0,4.45025 -3.6076,8.0579 -8.05786,8.0579 H 361.74056 c -4.45025,0 -8.05789,-3.60765 -8.05789,-8.0579 z"
     fill-rule="evenodd"
     id="path17" />
  <path
     fill="#000000"
     d="m 361.56991,47.31957 q -0.78125,0 -1.23438,-0.46875 -0.45312,-0.46875 -0.45312,-1.3125 v -9.73438 l 1.42187,-0.17187 v 9.875 q 0,0.34375 0.10938,0.5 0.10937,0.14062 0.39062,0.14062 0.29688,0 0.51563,-0.0937 l 0.375,0.98438 q -0.51563,0.28125 -1.125,0.28125 z m 6.3974,-8.45313 q 0.42187,0 0.79687,0.0937 l -0.26562,1.375 q -0.35938,-0.0781 -0.70313,-0.0781 -0.75,0 -1.21875,0.54687 -0.45312,0.54688 -0.71875,1.71875 v 4.60938 h -1.40625 v -8.07813 h 1.21875 l 0.14063,1.64063 q 0.3125,-0.90625 0.85937,-1.35938 0.5625,-0.46875 1.29688,-0.46875 z m 6.19791,0 q 1.10937,0 1.73437,0.67188 0.625,0.65625 0.625,1.79687 v 5.79688 h -1.42187 v -5.59375 q 0,-0.85938 -0.32813,-1.20313 -0.3125,-0.35937 -0.9375,-0.35937 -0.64062,0 -1.14062,0.375 -0.48438,0.35937 -0.92188,1.04687 v 5.73438 h -1.40625 v -8.07813 h 1.21875 l 0.125,1.20313 q 0.42188,-0.65625 1.04688,-1.01563 0.64062,-0.375 1.40625,-0.375 z m 8.09167,-4.07812 q -0.79687,1.1875 -1.26562,2.125 -0.46875,0.92187 -0.75,2.10937 -0.26563,1.17188 -0.26563,2.75 0,1.5625 0.26563,2.75 0.28125,1.17188 0.75,2.10938 0.46875,0.9375 1.26562,2.10937 l -0.89062,0.60938 q -1.01563,-1.4375 -1.5625,-2.35938 -0.54688,-0.9375 -0.92188,-2.21875 -0.375,-1.29687 -0.375,-3 0,-1.70312 0.375,-3 0.375,-1.29687 0.92188,-2.21875 0.54687,-0.9375 1.5625,-2.375 z m 1.76322,5.79687 -0.23438,-4.01562 h 1.51563 l -0.23438,4.01562 z m 2.76562,0 -0.23437,-4.01562 h 1.51562 l -0.23437,4.01562 z m 6.44696,-1.71875 q 0.71875,0 1.3125,0.21875 0.59375,0.20313 1.14063,0.65625 l -0.67188,0.89063 q -0.42187,-0.3125 -0.82812,-0.45313 -0.40625,-0.14062 -0.90625,-0.14062 -0.96875,0 -1.51563,0.78125 -0.54687,0.78125 -0.54687,2.3125 0,1.53125 0.53125,2.26562 0.54687,0.71875 1.53125,0.71875 0.48437,0 0.875,-0.14062 0.40625,-0.14063 0.89062,-0.46875 l 0.64063,0.92187 q -1.09375,0.89063 -2.45313,0.89063 -1.64062,0 -2.59375,-1.09375 -0.9375,-1.10938 -0.9375,-3.0625 0,-1.28125 0.42188,-2.25 0.4375,-0.96875 1.21875,-1.5 0.79687,-0.54688 1.89062,-0.54688 z m 5.98313,8.45313 q -0.78125,0 -1.23438,-0.46875 -0.45312,-0.46875 -0.45312,-1.3125 v -9.73438 l 1.42187,-0.17187 v 9.875 q 0,0.34375 0.10938,0.5 0.10937,0.14062 0.39062,0.14062 0.29688,0 0.51563,-0.0937 l 0.375,0.98438 q -0.51563,0.28125 -1.125,0.28125 z m 8.24261,-2.07813 q 0,0.5 0.17188,0.73438 0.17187,0.23437 0.51562,0.35937 l -0.32812,0.98438 q -0.625,-0.0781 -1.01563,-0.34375 -0.375,-0.28125 -0.5625,-0.875 -0.8125,1.21875 -2.40625,1.21875 -1.20312,0 -1.89062,-0.67188 -0.6875,-0.6875 -0.6875,-1.76562 0,-1.29688 0.92187,-1.98438 0.9375,-0.6875 2.64063,-0.6875 h 1.23437 v -0.59375 q 0,-0.85937 -0.42187,-1.21875 -0.40625,-0.375 -1.26563,-0.375 -0.89062,0 -2.17187,0.42188 l -0.35938,-1.01563 q 1.51563,-0.5625 2.79688,-0.5625 1.42187,0 2.125,0.70313 0.70312,0.70312 0.70312,1.98437 z m -3.29687,1.01563 q 1.20312,0 1.89062,-1.25 v -1.85938 h -1.04687 q -2.25,0 -2.25,1.65625 0,0.71875 0.34375,1.09375 0.35937,0.35938 1.0625,0.35938 z m 8.23205,-7.39063 q 0.82813,0 1.48438,0.23438 0.67187,0.23437 1.26562,0.6875 l -0.59375,0.89062 q -0.54687,-0.35937 -1.04687,-0.51562 -0.5,-0.17188 -1.0625,-0.17188 -0.6875,0 -1.09375,0.28125 -0.39063,0.28125 -0.39063,0.78125 0,0.48438 0.375,0.76563 0.375,0.26562 1.35938,0.53125 1.34375,0.34375 2.01562,0.92187 0.67188,0.57813 0.67188,1.59375 0,1.1875 -0.9375,1.82813 -0.92188,0.625 -2.25,0.625 -1.84375,0 -3.04688,-1.0625 l 0.75,-0.85938 q 1.01563,0.78125 2.26563,0.78125 0.79687,0 1.26562,-0.32812 0.46875,-0.32813 0.46875,-0.89063 0,-0.42187 -0.17187,-0.67187 -0.17188,-0.25 -0.59375,-0.4375 -0.40625,-0.20313 -1.20313,-0.40625 -1.28125,-0.34375 -1.85937,-0.90625 -0.57813,-0.57813 -0.57813,-1.45313 0,-0.625 0.375,-1.125 0.375,-0.51562 1.04688,-0.79687 0.67187,-0.29688 1.48437,-0.29688 z m 7.00491,0 q 0.82813,0 1.48438,0.23438 0.67187,0.23437 1.26562,0.6875 l -0.59375,0.89062 q -0.54687,-0.35937 -1.04687,-0.51562 -0.5,-0.17188 -1.0625,-0.17188 -0.6875,0 -1.09375,0.28125 -0.39063,0.28125 -0.39063,0.78125 0,0.48438 0.375,0.76563 0.375,0.26562 1.35938,0.53125 1.34375,0.34375 2.01562,0.92187 0.67188,0.57813 0.67188,1.59375 0,1.1875 -0.9375,1.82813 -0.92188,0.625 -2.25,0.625 -1.84375,0 -3.04688,-1.0625 l 0.75,-0.85938 q 1.01563,0.78125 2.26563,0.78125 0.79687,0 1.26562,-0.32812 0.46875,-0.32813 0.46875,-0.89063 0,-0.42187 -0.17187,-0.67187 -0.17188,-0.25 -0.59375,-0.4375 -0.40625,-0.20313 -1.20313,-0.40625 -1.28125,-0.34375 -1.85937,-0.90625 -0.57813,-0.57813 -0.57813,-1.45313 0,-0.625 0.375,-1.125 0.375,-0.51562 1.04688,-0.79687 0.67187,-0.29688 1.48437,-0.29688 z m 6.37702,0.1875 v 8.07813 h -1.40625 v -8.07813 z m -0.70313,-3.875 q 0.4375,0 0.71875,0.28125 0.28125,0.26563 0.28125,0.6875 0,0.40625 -0.28125,0.67188 -0.28125,0.26562 -0.71875,0.26562 -0.4375,0 -0.71875,-0.26562 -0.26562,-0.26563 -0.26562,-0.67188 0,-0.42187 0.26562,-0.6875 0.28125,-0.28125 0.71875,-0.28125 z m 6.36942,1.59375 q -0.64063,0 -0.92188,0.28125 -0.28125,0.28125 -0.28125,0.875 v 1.125 h 1.96875 l -0.15625,1.09375 h -1.8125 v 6.98438 h -1.40625 v -6.98438 h -1.4375 v -1.09375 h 1.4375 v -1.10937 q 0,-1.03125 0.65625,-1.67188 0.67188,-0.64062 1.875,-0.64062 0.54688,0 0.98438,0.10937 0.4375,0.0937 0.9375,0.3125 l -0.4375,1.01563 q -0.6875,-0.29688 -1.40625,-0.29688 z m 1.99325,8.40625 q 0.45313,0 0.75,0.3125 0.3125,0.3125 0.3125,0.75 0,0.45313 -0.3125,0.76563 -0.29687,0.3125 -0.75,0.3125 -0.45312,0 -0.76562,-0.3125 -0.29688,-0.3125 -0.29688,-0.76563 0,-0.4375 0.29688,-0.75 0.3125,-0.3125 0.76562,-0.3125 z m 6.8194,-6.3125 q 0.42188,0 0.79688,0.0937 l -0.26563,1.375 q -0.35937,-0.0781 -0.70312,-0.0781 -0.75,0 -1.21875,0.54687 -0.45313,0.54688 -0.71875,1.71875 v 4.60938 h -1.40625 v -8.07813 h 1.21875 l 0.14062,1.64063 q 0.3125,-0.90625 0.85938,-1.35938 0.5625,-0.46875 1.29687,-0.46875 z m 6.11981,0 q 1.54688,0 2.26563,1.10938 0.71875,1.10937 0.71875,3.10937 0,1.90625 -0.82813,3.07813 -0.82812,1.15625 -2.34375,1.15625 -1.35937,0 -2.125,-0.92188 v 3.82813 l -1.40625,0.17187 V 39.05394 h 1.21875 l 0.10938,1.09375 q 0.4375,-0.625 1.0625,-0.95312 0.625,-0.32813 1.32812,-0.32813 z m -0.53125,7.29688 q 2,0 2,-3.07813 0,-3.09375 -1.82812,-3.09375 -0.59375,0 -1.09375,0.35938 -0.48438,0.34375 -0.85938,0.89062 v 3.9375 q 0.3125,0.48438 0.76563,0.73438 0.46875,0.25 1.01562,0.25 z m 11.2016,-0.92188 q 0,0.5 0.17188,0.73438 0.17187,0.23437 0.51562,0.35937 l -0.32812,0.98438 q -0.625,-0.0781 -1.01563,-0.34375 -0.375,-0.28125 -0.5625,-0.875 -0.8125,1.21875 -2.40625,1.21875 -1.20312,0 -1.89062,-0.67188 -0.6875,-0.6875 -0.6875,-1.76562 0,-1.29688 0.92187,-1.98438 0.9375,-0.6875 2.64063,-0.6875 h 1.23437 v -0.59375 q 0,-0.85937 -0.42187,-1.21875 -0.40625,-0.375 -1.26563,-0.375 -0.89062,0 -2.17187,0.42188 l -0.35938,-1.01563 q 1.51563,-0.5625 2.79688,-0.5625 1.42187,0 2.125,0.70313 0.70312,0.70312 0.70312,1.98437 z m -3.29687,1.01563 q 1.20312,0 1.89062,-1.25 v -1.85938 h -1.04687 q -2.25,0 -2.25,1.65625 0,0.71875 0.34375,1.09375 0.35937,0.35938 1.0625,0.35938 z m 9.7135,-7.39063 q 0.42187,0 0.79687,0.0937 l -0.26562,1.375 q -0.35938,-0.0781 -0.70313,-0.0781 -0.75,0 -1.21875,0.54687 -0.45312,0.54688 -0.71875,1.71875 v 4.60938 h -1.40625 v -8.07813 h 1.21875 l 0.14063,1.64063 q 0.3125,-0.90625 0.85937,-1.35938 0.5625,-0.46875 1.29688,-0.46875 z m 6.47919,7.89063 q -0.79688,0.5625 -1.8125,0.5625 -1.01563,0 -1.59375,-0.59375 -0.57813,-0.59375 -0.57813,-1.70313 v -4.875 h -1.40625 v -1.09375 h 1.40625 v -1.82812 l 1.40625,-0.17188 v 2 h 1.92188 l -0.15625,1.09375 h -1.76563 v 4.8125 q 0,0.625 0.21875,0.90625 0.23438,0.28125 0.75,0.28125 0.48438,0 1.07813,-0.3125 z m 0.92846,-6.17188 -0.23437,-4.01562 h 1.51562 l -0.23437,4.01562 z m 2.76563,0 -0.23438,-4.01562 h 1.51563 l -0.23438,4.01562 z m 3.69403,-6.40625 q 1.01562,1.4375 1.5625,2.375 0.54687,0.92188 0.92187,2.21875 0.375,1.29688 0.375,3 0,1.70313 -0.375,3 -0.375,1.28125 -0.92187,2.21875 -0.54688,0.92188 -1.5625,2.35938 l -0.89063,-0.60938 q 0.79688,-1.17187 1.26563,-2.10937 0.46875,-0.9375 0.73437,-2.10938 0.26563,-1.1875 0.26563,-2.75 0,-1.57812 -0.26563,-2.75 -0.26562,-1.1875 -0.73437,-2.10937 -0.46875,-0.9375 -1.26563,-2.125 z"
     fill-rule="nonzero"
     id="path19" />
  <path
     fill="#d0e0e3"
     d="m 196.43964,25.29676 v 0 c 0,-4.45027 3.60764,-8.05791 8.05789,-8.05791 h 115.8212 c 2.13709,0 4.18665,0.84896 5.69782,2.36011 1.51114,1.51114 2.3601,3.5607 2.3601,5.6978 V 57.5274 c 0,4.45025 -3.60766,8.0579 -8.05792,8.0579 h -115.8212 c -4.45025,0 -8.05789,-3.60765 -8.05789,-8.0579 z"
     fill-rule="evenodd"
     id="path21" />
  <path
     stroke="#000000"
     stroke-width="2"
     stroke-linejoin="round"
     stroke-linecap="butt"
     d="m 196.43964,25.29676 v 0 c 0,-4.45027 3.60764,-8.05791 8.05789,-8.05791 h 115.8212 c 2.13709,0 4.18665,0.84896 5.69782,2.36011 1.51114,1.51114 2.3601,3.5607 2.3601,5.6978 V 57.5274 c 0,4.45025 -3.60766,8.0579 -8.05792,8.0579 h -115.8212 c -4.45025,0 -8.05789,-3.60765 -8.05789,-8.0579 z"
     fill-rule="evenodd"
     id="path23" />
  <path
     fill="#000000"
     d="m 209.85422,38.86644 q 1.54687,0 2.26562,1.10937 0.71875,1.10938 0.71875,3.10938 0,1.90625 -0.82812,3.07812 -0.82813,1.15625 -2.34375,1.15625 -1.35938,0 -2.125,-0.92187 v 3.82812 l -1.40625,0.17188 V 39.05394 h 1.21875 l 0.10937,1.09375 q 0.4375,-0.625 1.0625,-0.95313 0.625,-0.32812 1.32813,-0.32812 z m -0.53125,7.29687 q 2,0 2,-3.07812 0,-3.09375 -1.82813,-3.09375 -0.59375,0 -1.09375,0.35937 -0.48437,0.34375 -0.85937,0.89063 v 3.9375 q 0.3125,0.48437 0.76562,0.73437 0.46875,0.25 1.01563,0.25 z m 8.9487,-7.29687 q 1.70312,0 2.64062,1.14062 0.95313,1.125 0.95313,3.07813 0,1.25 -0.4375,2.21875 -0.42188,0.95312 -1.23438,1.48437 -0.8125,0.53125 -1.9375,0.53125 -1.6875,0 -2.64062,-1.125 -0.95313,-1.14062 -0.95313,-3.09375 0,-1.25 0.42188,-2.20312 0.4375,-0.96875 1.25,-1.5 0.8125,-0.53125 1.9375,-0.53125 z m 0,1.14062 q -2.09375,0 -2.09375,3.09375 0,3.07813 2.07812,3.07813 2.09375,0 2.09375,-3.09375 0,-3.07813 -2.07812,-3.07813 z m 8.82663,-5.21875 q -0.79688,1.1875 -1.26563,2.125 -0.46875,0.92188 -0.75,2.10938 -0.26562,1.17187 -0.26562,2.75 0,1.5625 0.26562,2.75 0.28125,1.17187 0.75,2.10937 0.46875,0.9375 1.26563,2.10938 l -0.89063,0.60937 q -1.01562,-1.4375 -1.5625,-2.35937 -0.54687,-0.9375 -0.92187,-2.21875 -0.375,-1.29688 -0.375,-3 0,-1.70313 0.375,-3 0.375,-1.29688 0.92187,-2.21875 0.54688,-0.9375 1.5625,-2.375 z m 1.76321,5.79688 -0.23437,-4.01563 h 1.51562 l -0.23437,4.01563 z m 2.76563,0 -0.23438,-4.01563 h 1.51563 l -0.23438,4.01563 z m 5.68133,-1.71875 q 0.82813,0 1.48438,0.23437 0.67187,0.23438 1.26562,0.6875 l -0.59375,0.89063 q -0.54687,-0.35938 -1.04687,-0.51563 -0.5,-0.17187 -1.0625,-0.17187 -0.6875,0 -1.09375,0.28125 -0.39063,0.28125 -0.39063,0.78125 0,0.48437 0.375,0.76562 0.375,0.26563 1.35938,0.53125 1.34375,0.34375 2.01562,0.92188 0.67188,0.57812 0.67188,1.59375 0,1.1875 -0.9375,1.82812 -0.92188,0.625 -2.25,0.625 -1.84375,0 -3.04688,-1.0625 l 0.75,-0.85937 q 1.01563,0.78125 2.26563,0.78125 0.79687,0 1.26562,-0.32813 0.46875,-0.32812 0.46875,-0.89062 0,-0.42188 -0.17187,-0.67188 -0.17188,-0.25 -0.59375,-0.4375 -0.40625,-0.20312 -1.20313,-0.40625 -1.28125,-0.34375 -1.85937,-0.90625 -0.57813,-0.57812 -0.57813,-1.45312 0,-0.625 0.375,-1.125 0.375,-0.51563 1.04688,-0.79688 0.67187,-0.29687 1.48437,-0.29687 z m 10.98639,8.26562 h -1.21875 l -0.10937,-1.25 q -0.45313,0.75 -1.0625,1.09375 -0.59375,0.34375 -1.45313,0.34375 -1.04687,0 -1.65625,-0.64062 -0.59375,-0.65625 -0.59375,-1.82813 v -5.79687 h 1.42188 v 5.64062 q 0,0.82813 0.28125,1.17188 0.29687,0.34375 0.95312,0.34375 1.1875,0 2.01563,-1.39063 v -5.76562 h 1.42187 z m 6.60849,-8.26562 q 1.375,0 2.1875,1.10937 0.8125,1.10938 0.8125,3.10938 0,1.25 -0.39062,2.21875 -0.375,0.95312 -1.09375,1.48437 -0.71875,0.53125 -1.6875,0.53125 -1.28125,0 -2.15625,-1.07812 l -0.125,0.89062 h -1.25 V 35.80394 l 1.40625,-0.17188 v 4.4375 q 0.875,-1.20312 2.29687,-1.20312 z m -0.51562,7.32812 q 0.9375,0 1.46875,-0.75 0.53125,-0.76562 0.53125,-2.35937 0,-1.64063 -0.5,-2.35938 -0.48438,-0.73437 -1.39063,-0.73437 -1.07812,0 -1.89062,1.25 v 3.875 q 0.32812,0.5 0.79687,0.79687 0.46875,0.28125 0.98438,0.28125 z m 8.10492,-7.32812 q 0.82812,0 1.48437,0.23437 0.67188,0.23438 1.26563,0.6875 l -0.59375,0.89063 q -0.54688,-0.35938 -1.04688,-0.51563 -0.5,-0.17187 -1.0625,-0.17187 -0.6875,0 -1.09375,0.28125 -0.39062,0.28125 -0.39062,0.78125 0,0.48437 0.375,0.76562 0.375,0.26563 1.35937,0.53125 1.34375,0.34375 2.01563,0.92188 0.67187,0.57812 0.67187,1.59375 0,1.1875 -0.9375,1.82812 -0.92187,0.625 -2.25,0.625 -1.84375,0 -3.04687,-1.0625 l 0.75,-0.85937 q 1.01562,0.78125 2.26562,0.78125 0.79688,0 1.26563,-0.32813 0.46875,-0.32812 0.46875,-0.89062 0,-0.42188 -0.17188,-0.67188 -0.17187,-0.25 -0.59375,-0.4375 -0.40625,-0.20312 -1.20312,-0.40625 -1.28125,-0.34375 -1.85938,-0.90625 -0.57812,-0.57812 -0.57812,-1.45312 0,-0.625 0.375,-1.125 0.375,-0.51563 1.04687,-0.79688 0.67188,-0.29687 1.48438,-0.29687 z m 10.25491,6.375 q 0,0.5 0.17188,0.73437 0.17187,0.23438 0.51562,0.35938 l -0.32812,0.98437 q -0.625,-0.0781 -1.01563,-0.34375 -0.375,-0.28125 -0.5625,-0.875 -0.8125,1.21875 -2.40625,1.21875 -1.20312,0 -1.89062,-0.67187 -0.6875,-0.6875 -0.6875,-1.76563 0,-1.29687 0.92187,-1.98437 0.9375,-0.6875 2.64063,-0.6875 h 1.23437 v -0.59375 q 0,-0.85938 -0.42187,-1.21875 -0.40625,-0.375 -1.26563,-0.375 -0.89062,0 -2.17187,0.42187 l -0.35938,-1.01562 q 1.51563,-0.5625 2.79688,-0.5625 1.42187,0 2.125,0.70312 0.70312,0.70313 0.70312,1.98438 z m -3.29687,1.01562 q 1.20312,0 1.89062,-1.25 v -1.85937 h -1.04687 q -2.25,0 -2.25,1.65625 0,0.71875 0.34375,1.09375 0.35937,0.35937 1.0625,0.35937 z m 14.30728,-7.39062 q 1,0 1.59375,0.67187 0.59375,0.67188 0.59375,1.79688 v 5.79687 h -1.40625 v -5.59375 q 0,-1.5625 -1.125,-1.5625 -0.60938,0 -1.03125,0.34375 -0.40625,0.34375 -0.875,1.07813 v 5.73437 h -1.40625 v -5.59375 q 0,-1.5625 -1.14063,-1.5625 -0.60937,0 -1.03125,0.35938 -0.40625,0.34375 -0.875,1.0625 v 5.73437 h -1.40625 v -8.07812 h 1.21875 l 0.125,1.1875 q 0.89063,-1.375 2.32813,-1.375 0.75,0 1.26562,0.39062 0.53125,0.375 0.76563,1.0625 0.48437,-0.70312 1.04687,-1.07812 0.57813,-0.375 1.35938,-0.375 z m 8.74563,0 q 1.54688,0 2.26563,1.10937 0.71875,1.10938 0.71875,3.10938 0,1.90625 -0.82813,3.07812 -0.82812,1.15625 -2.34375,1.15625 -1.35937,0 -2.125,-0.92187 v 3.82812 l -1.40625,0.17188 V 39.05394 h 1.21875 l 0.10938,1.09375 q 0.4375,-0.625 1.0625,-0.95313 0.625,-0.32812 1.32812,-0.32812 z m -0.53125,7.29687 q 2,0 2,-3.07812 0,-3.09375 -1.82812,-3.09375 -0.59375,0 -1.09375,0.35937 -0.48438,0.34375 -0.85938,0.89063 v 3.9375 q 0.3125,0.48437 0.76563,0.73437 0.46875,0.25 1.01562,0.25 z m 7.5268,1.15625 q -0.78125,0 -1.23438,-0.46875 -0.45312,-0.46875 -0.45312,-1.3125 v -9.73437 l 1.42187,-0.17188 v 9.875 q 0,0.34375 0.10938,0.5 0.10937,0.14063 0.39062,0.14063 0.29688,0 0.51563,-0.0937 l 0.375,0.98437 q -0.51563,0.28125 -1.125,0.28125 z m 8.91449,-4.46875 q 0,0.35938 -0.0312,0.71875 h -5.15625 q 0.0937,1.34375 0.67187,1.96875 0.57813,0.625 1.5,0.625 0.59375,0 1.07813,-0.15625 0.48437,-0.17187 1.03125,-0.54687 l 0.60937,0.84375 q -1.28125,1.01562 -2.82812,1.01562 -1.67188,0 -2.625,-1.09375 -0.9375,-1.10937 -0.9375,-3.04687 0,-1.26563 0.40625,-2.23438 0.40625,-0.96875 1.15625,-1.51562 0.76562,-0.5625 1.79687,-0.5625 1.60938,0 2.46875,1.0625 0.85938,1.0625 0.85938,2.92187 z m -1.40625,-0.40625 q 0,-1.20312 -0.46875,-1.82812 -0.46875,-0.625 -1.42188,-0.625 -1.73437,0 -1.89062,2.54687 h 3.78125 z m 3.20053,-1.85937 -0.23438,-4.01563 h 1.51563 l -0.23438,4.01563 z m 2.76562,0 -0.23437,-4.01563 h 1.51562 l -0.23437,4.01563 z m 3.69406,-6.40625 q 1.01563,1.4375 1.5625,2.375 0.54688,0.92187 0.92188,2.21875 0.375,1.29687 0.375,3 0,1.70312 -0.375,3 -0.375,1.28125 -0.92188,2.21875 -0.54687,0.92187 -1.5625,2.35937 l -0.89062,-0.60937 q 0.79687,-1.17188 1.26562,-2.10938 0.46875,-0.9375 0.73438,-2.10937 0.26562,-1.1875 0.26562,-2.75 0,-1.57813 -0.26562,-2.75 -0.26563,-1.1875 -0.73438,-2.10938 -0.46875,-0.9375 -1.26562,-2.125 z"
     fill-rule="nonzero"
     id="path25" />
  <path
     fill="#ffab40"
     d="m 353.68267,95.18389 v 0 c 0,-4.45026 3.60764,-8.05791 8.05789,-8.05791 h 115.82123 c 2.13709,0 4.18665,0.84896 5.69776,2.36011 1.51117,1.51115 2.3601,3.56072 2.3601,5.6978 v 32.23064 c 0,4.45025 -3.6076,8.05792 -8.05786,8.05792 H 361.74056 c -4.45025,0 -8.05789,-3.60767 -8.05789,-8.05792 z"
     fill-rule="evenodd"
     id="path27" />
  <path
     stroke="#000000"
     stroke-width="2"
     stroke-linejoin="round"
     stroke-linecap="butt"
     d="m 353.68267,95.18389 v 0 c 0,-4.45026 3.60764,-8.05791 8.05789,-8.05791 h 115.82123 c 2.13709,0 4.18665,0.84896 5.69776,2.36011 1.51117,1.51115 2.3601,3.56072 2.3601,5.6978 v 32.23064 c 0,4.45025 -3.6076,8.05792 -8.05786,8.05792 H 361.74056 c -4.45025,0 -8.05789,-3.60767 -8.05789,-8.05792 z"
     fill-rule="evenodd"
     id="path29" />
  <path
     fill="#000000"
     d="m 361.56991,117.20671 q -0.78125,0 -1.23438,-0.46875 -0.45312,-0.46875 -0.45312,-1.3125 v -9.73438 l 1.42187,-0.17187 v 9.875 q 0,0.34375 0.10938,0.5 0.10937,0.14062 0.39062,0.14062 0.29688,0 0.51563,-0.0937 l 0.375,0.98438 q -0.51563,0.28125 -1.125,0.28125 z m 6.3974,-8.45313 q 0.42187,0 0.79687,0.0937 l -0.26562,1.375 q -0.35938,-0.0781 -0.70313,-0.0781 -0.75,0 -1.21875,0.54687 -0.45312,0.54688 -0.71875,1.71875 v 4.60938 h -1.40625 v -8.07813 h 1.21875 l 0.14063,1.64063 q 0.3125,-0.90625 0.85937,-1.35938 0.5625,-0.46875 1.29688,-0.46875 z m 6.19791,0 q 1.10937,0 1.73437,0.67188 0.625,0.65625 0.625,1.79687 v 5.79688 h -1.42187 v -5.59375 q 0,-0.85938 -0.32813,-1.20313 -0.3125,-0.35937 -0.9375,-0.35937 -0.64062,0 -1.14062,0.375 -0.48438,0.35937 -0.92188,1.04687 v 5.73438 h -1.40625 v -8.07813 h 1.21875 l 0.125,1.20313 q 0.42188,-0.65625 1.04688,-1.01563 0.64062,-0.375 1.40625,-0.375 z m 8.09167,-4.07812 q -0.79687,1.1875 -1.26562,2.125 -0.46875,0.92187 -0.75,2.10937 -0.26563,1.17188 -0.26563,2.75 0,1.5625 0.26563,2.75 0.28125,1.17188 0.75,2.10938 0.46875,0.9375 1.26562,2.10937 l -0.89062,0.60938 q -1.01563,-1.4375 -1.5625,-2.35938 -0.54688,-0.9375 -0.92188,-2.21875 -0.375,-1.29687 -0.375,-3 0,-1.70312 0.375,-3 0.375,-1.29687 0.92188,-2.21875 0.54687,-0.9375 1.5625,-2.375 z m 1.76322,5.79687 -0.23438,-4.01562 h 1.51563 l -0.23438,4.01562 z m 2.76562,0 -0.23437,-4.01562 h 1.51562 l -0.23437,4.01562 z m 6.44696,-1.71875 q 0.71875,0 1.3125,0.21875 0.59375,0.20313 1.14063,0.65625 l -0.67188,0.89063 q -0.42187,-0.3125 -0.82812,-0.45313 -0.40625,-0.14062 -0.90625,-0.14062 -0.96875,0 -1.51563,0.78125 -0.54687,0.78125 -0.54687,2.3125 0,1.53125 0.53125,2.26562 0.54687,0.71875 1.53125,0.71875 0.48437,0 0.875,-0.14062 0.40625,-0.14063 0.89062,-0.46875 l 0.64063,0.92187 q -1.09375,0.89063 -2.45313,0.89063 -1.64062,0 -2.59375,-1.09375 -0.9375,-1.10938 -0.9375,-3.0625 0,-1.28125 0.42188,-2.25 0.4375,-0.96875 1.21875,-1.5 0.79687,-0.54688 1.89062,-0.54688 z m 5.98313,8.45313 q -0.78125,0 -1.23438,-0.46875 -0.45312,-0.46875 -0.45312,-1.3125 v -9.73438 l 1.42187,-0.17187 v 9.875 q 0,0.34375 0.10938,0.5 0.10937,0.14062 0.39062,0.14062 0.29688,0 0.51563,-0.0937 l 0.375,0.98438 q -0.51563,0.28125 -1.125,0.28125 z m 8.24261,-2.07813 q 0,0.5 0.17188,0.73438 0.17187,0.23437 0.51562,0.35937 l -0.32812,0.98438 q -0.625,-0.0781 -1.01563,-0.34375 -0.375,-0.28125 -0.5625,-0.875 -0.8125,1.21875 -2.40625,1.21875 -1.20312,0 -1.89062,-0.67188 -0.6875,-0.6875 -0.6875,-1.76562 0,-1.29688 0.92187,-1.98438 0.9375,-0.6875 2.64063,-0.6875 h 1.23437 v -0.59375 q 0,-0.85937 -0.42187,-1.21875 -0.40625,-0.375 -1.26563,-0.375 -0.89062,0 -2.17187,0.42188 l -0.35938,-1.01563 q 1.51563,-0.5625 2.79688,-0.5625 1.42187,0 2.125,0.70313 0.70312,0.70312 0.70312,1.98437 z m -3.29687,1.01563 q 1.20312,0 1.89062,-1.25 v -1.85938 h -1.04687 q -2.25,0 -2.25,1.65625 0,0.71875 0.34375,1.09375 0.35937,0.35938 1.0625,0.35938 z m 8.23205,-7.39063 q 0.82813,0 1.48438,0.23438 0.67187,0.23437 1.26562,0.6875 l -0.59375,0.89062 q -0.54687,-0.35937 -1.04687,-0.51562 -0.5,-0.17188 -1.0625,-0.17188 -0.6875,0 -1.09375,0.28125 -0.39063,0.28125 -0.39063,0.78125 0,0.48438 0.375,0.76563 0.375,0.26562 1.35938,0.53125 1.34375,0.34375 2.01562,0.92187 0.67188,0.57813 0.67188,1.59375 0,1.1875 -0.9375,1.82813 -0.92188,0.625 -2.25,0.625 -1.84375,0 -3.04688,-1.0625 l 0.75,-0.85938 q 1.01563,0.78125 2.26563,0.78125 0.79687,0 1.26562,-0.32812 0.46875,-0.32813 0.46875,-0.89063 0,-0.42187 -0.17187,-0.67187 -0.17188,-0.25 -0.59375,-0.4375 -0.40625,-0.20313 -1.20313,-0.40625 -1.28125,-0.34375 -1.85937,-0.90625 -0.57813,-0.57813 -0.57813,-1.45313 0,-0.625 0.375,-1.125 0.375,-0.51562 1.04688,-0.79687 0.67187,-0.29688 1.48437,-0.29688 z m 7.00491,0 q 0.82813,0 1.48438,0.23438 0.67187,0.23437 1.26562,0.6875 l -0.59375,0.89062 q -0.54687,-0.35937 -1.04687,-0.51562 -0.5,-0.17188 -1.0625,-0.17188 -0.6875,0 -1.09375,0.28125 -0.39063,0.28125 -0.39063,0.78125 0,0.48438 0.375,0.76563 0.375,0.26562 1.35938,0.53125 1.34375,0.34375 2.01562,0.92187 0.67188,0.57813 0.67188,1.59375 0,1.1875 -0.9375,1.82813 -0.92188,0.625 -2.25,0.625 -1.84375,0 -3.04688,-1.0625 l 0.75,-0.85938 q 1.01563,0.78125 2.26563,0.78125 0.79687,0 1.26562,-0.32812 0.46875,-0.32813 0.46875,-0.89063 0,-0.42187 -0.17187,-0.67187 -0.17188,-0.25 -0.59375,-0.4375 -0.40625,-0.20313 -1.20313,-0.40625 -1.28125,-0.34375 -1.85937,-0.90625 -0.57813,-0.57813 -0.57813,-1.45313 0,-0.625 0.375,-1.125 0.375,-0.51562 1.04688,-0.79687 0.67187,-0.29688 1.48437,-0.29688 z m 6.37702,0.1875 v 8.07813 h -1.40625 v -8.07813 z m -0.70313,-3.875 q 0.4375,0 0.71875,0.28125 0.28125,0.26563 0.28125,0.6875 0,0.40625 -0.28125,0.67188 -0.28125,0.26562 -0.71875,0.26562 -0.4375,0 -0.71875,-0.26562 -0.26562,-0.26563 -0.26562,-0.67188 0,-0.42187 0.26562,-0.6875 0.28125,-0.28125 0.71875,-0.28125 z m 6.36942,1.59375 q -0.64063,0 -0.92188,0.28125 -0.28125,0.28125 -0.28125,0.875 v 1.125 h 1.96875 l -0.15625,1.09375 h -1.8125 v 6.98438 h -1.40625 v -6.98438 h -1.4375 v -1.09375 h 1.4375 v -1.10937 q 0,-1.03125 0.65625,-1.67188 0.67188,-0.64062 1.875,-0.64062 0.54688,0 0.98438,0.10937 0.4375,0.0937 0.9375,0.3125 l -0.4375,1.01563 q -0.6875,-0.29688 -1.40625,-0.29688 z m 1.99325,8.40625 q 0.45313,0 0.75,0.3125 0.3125,0.3125 0.3125,0.75 0,0.45313 -0.3125,0.76563 -0.29687,0.3125 -0.75,0.3125 -0.45312,0 -0.76562,-0.3125 -0.29688,-0.3125 -0.29688,-0.76563 0,-0.4375 0.29688,-0.75 0.3125,-0.3125 0.76562,-0.3125 z m 6.8194,-6.3125 q 0.42188,0 0.79688,0.0937 l -0.26563,1.375 q -0.35937,-0.0781 -0.70312,-0.0781 -0.75,0 -1.21875,0.54687 -0.45313,0.54688 -0.71875,1.71875 v 4.60938 h -1.40625 v -8.07813 h 1.21875 l 0.14062,1.64063 q 0.3125,-0.90625 0.85938,-1.35938 0.5625,-0.46875 1.29687,-0.46875 z m 6.11981,0 q 1.54688,0 2.26563,1.10938 0.71875,1.10937 0.71875,3.10937 0,1.90625 -0.82813,3.07813 -0.82812,1.15625 -2.34375,1.15625 -1.35937,0 -2.125,-0.92188 v 3.82813 l -1.40625,0.17187 v -11.34375 h 1.21875 l 0.10938,1.09375 q 0.4375,-0.625 1.0625,-0.95312 0.625,-0.32813 1.32812,-0.32813 z m -0.53125,7.29688 q 2,0 2,-3.07813 0,-3.09375 -1.82812,-3.09375 -0.59375,0 -1.09375,0.35938 -0.48438,0.34375 -0.85938,0.89062 v 3.9375 q 0.3125,0.48438 0.76563,0.73438 0.46875,0.25 1.01562,0.25 z m 11.2016,-0.92188 q 0,0.5 0.17188,0.73438 0.17187,0.23437 0.51562,0.35937 l -0.32812,0.98438 q -0.625,-0.0781 -1.01563,-0.34375 -0.375,-0.28125 -0.5625,-0.875 -0.8125,1.21875 -2.40625,1.21875 -1.20312,0 -1.89062,-0.67188 -0.6875,-0.6875 -0.6875,-1.76562 0,-1.29688 0.92187,-1.98438 0.9375,-0.6875 2.64063,-0.6875 h 1.23437 v -0.59375 q 0,-0.85937 -0.42187,-1.21875 -0.40625,-0.375 -1.26563,-0.375 -0.89062,0 -2.17187,0.42188 l -0.35938,-1.01563 q 1.51563,-0.5625 2.79688,-0.5625 1.42187,0 2.125,0.70313 0.70312,0.70312 0.70312,1.98437 z m -3.29687,1.01563 q 1.20312,0 1.89062,-1.25 v -1.85938 h -1.04687 q -2.25,0 -2.25,1.65625 0,0.71875 0.34375,1.09375 0.35937,0.35938 1.0625,0.35938 z m 9.7135,-7.39063 q 0.42187,0 0.79687,0.0937 l -0.26562,1.375 q -0.35938,-0.0781 -0.70313,-0.0781 -0.75,0 -1.21875,0.54687 -0.45312,0.54688 -0.71875,1.71875 v 4.60938 h -1.40625 v -8.07813 h 1.21875 l 0.14063,1.64063 q 0.3125,-0.90625 0.85937,-1.35938 0.5625,-0.46875 1.29688,-0.46875 z m 6.47919,7.89063 q -0.79688,0.5625 -1.8125,0.5625 -1.01563,0 -1.59375,-0.59375 -0.57813,-0.59375 -0.57813,-1.70313 v -4.875 h -1.40625 v -1.09375 h 1.40625 v -1.82812 l 1.40625,-0.17188 v 2 h 1.92188 l -0.15625,1.09375 h -1.76563 v 4.8125 q 0,0.625 0.21875,0.90625 0.23438,0.28125 0.75,0.28125 0.48438,0 1.07813,-0.3125 z m 0.92846,-6.17188 -0.23437,-4.01562 h 1.51562 l -0.23437,4.01562 z m 2.76563,0 -0.23438,-4.01562 h 1.51563 l -0.23438,4.01562 z m 3.69403,-6.40625 q 1.01562,1.4375 1.5625,2.375 0.54687,0.92188 0.92187,2.21875 0.375,1.29688 0.375,3 0,1.70313 -0.375,3 -0.375,1.28125 -0.92187,2.21875 -0.54688,0.92188 -1.5625,2.35938 l -0.89063,-0.60938 q 0.79688,-1.17187 1.26563,-2.10937 0.46875,-0.9375 0.73437,-2.10938 0.26563,-1.1875 0.26563,-2.75 0,-1.57812 -0.26563,-2.75 -0.26562,-1.1875 -0.73437,-2.10937 -0.46875,-0.9375 -1.26563,-2.125 z"
     fill-rule="nonzero"
     id="path31" />
  <path
     fill="#d0e0e3"
     d="m 196.43964,95.18389 v 0 c 0,-4.45026 3.60764,-8.05791 8.05789,-8.05791 h 115.8212 c 2.13709,0 4.18665,0.84896 5.69782,2.36011 1.51114,1.51115 2.3601,3.56072 2.3601,5.6978 v 32.23064 c 0,4.45025 -3.60766,8.05792 -8.05792,8.05792 h -115.8212 c -4.45025,0 -8.05789,-3.60767 -8.05789,-8.05792 z"
     fill-rule="evenodd"
     id="path33" />
  <path
     stroke="#000000"
     stroke-width="2"
     stroke-linejoin="round"
     stroke-linecap="butt"
     d="m 196.43964,95.18389 v 0 c 0,-4.45026 3.60764,-8.05791 8.05789,-8.05791 h 115.8212 c 2.13709,0 4.18665,0.84896 5.69782,2.36011 1.51114,1.51115 2.3601,3.56072 2.3601,5.6978 v 32.23064 c 0,4.45025 -3.60766,8.05792 -8.05792,8.05792 h -115.8212 c -4.45025,0 -8.05789,-3.60767 -8.05789,-8.05792 z"
     fill-rule="evenodd"
     id="path35" />
  <path
     fill="#000000"
     d="m 209.85422,108.75359 q 1.54687,0 2.26562,1.10937 0.71875,1.10938 0.71875,3.10938 0,1.90625 -0.82812,3.07812 -0.82813,1.15625 -2.34375,1.15625 -1.35938,0 -2.125,-0.92187 v 3.82812 l -1.40625,0.17188 v -11.34375 h 1.21875 l 0.10937,1.09375 q 0.4375,-0.625 1.0625,-0.95313 0.625,-0.32812 1.32813,-0.32812 z m -0.53125,7.29687 q 2,0 2,-3.07812 0,-3.09375 -1.82813,-3.09375 -0.59375,0 -1.09375,0.35937 -0.48437,0.34375 -0.85937,0.89063 v 3.9375 q 0.3125,0.48437 0.76562,0.73437 0.46875,0.25 1.01563,0.25 z m 8.9487,-7.29687 q 1.70312,0 2.64062,1.14062 0.95313,1.125 0.95313,3.07813 0,1.25 -0.4375,2.21875 -0.42188,0.95312 -1.23438,1.48437 -0.8125,0.53125 -1.9375,0.53125 -1.6875,0 -2.64062,-1.125 -0.95313,-1.14062 -0.95313,-3.09375 0,-1.25 0.42188,-2.20312 0.4375,-0.96875 1.25,-1.5 0.8125,-0.53125 1.9375,-0.53125 z m 0,1.14062 q -2.09375,0 -2.09375,3.09375 0,3.07813 2.07812,3.07813 2.09375,0 2.09375,-3.09375 0,-3.07813 -2.07812,-3.07813 z m 8.82663,-5.21875 q -0.79688,1.1875 -1.26563,2.125 -0.46875,0.92188 -0.75,2.10938 -0.26562,1.17187 -0.26562,2.75 0,1.5625 0.26562,2.75 0.28125,1.17187 0.75,2.10937 0.46875,0.9375 1.26563,2.10938 l -0.89063,0.60937 q -1.01562,-1.4375 -1.5625,-2.35937 -0.54687,-0.9375 -0.92187,-2.21875 -0.375,-1.29688 -0.375,-3 0,-1.70313 0.375,-3 0.375,-1.29688 0.92187,-2.21875 0.54688,-0.9375 1.5625,-2.375 z m 1.76321,5.79688 -0.23437,-4.01563 h 1.51562 l -0.23437,4.01563 z m 2.76563,0 -0.23438,-4.01563 h 1.51563 l -0.23438,4.01563 z m 5.68133,-1.71875 q 0.82813,0 1.48438,0.23437 0.67187,0.23438 1.26562,0.6875 l -0.59375,0.89063 q -0.54687,-0.35938 -1.04687,-0.51563 -0.5,-0.17187 -1.0625,-0.17187 -0.6875,0 -1.09375,0.28125 -0.39063,0.28125 -0.39063,0.78125 0,0.48437 0.375,0.76562 0.375,0.26563 1.35938,0.53125 1.34375,0.34375 2.01562,0.92188 0.67188,0.57812 0.67188,1.59375 0,1.1875 -0.9375,1.82812 -0.92188,0.625 -2.25,0.625 -1.84375,0 -3.04688,-1.0625 l 0.75,-0.85937 q 1.01563,0.78125 2.26563,0.78125 0.79687,0 1.26562,-0.32813 0.46875,-0.32812 0.46875,-0.89062 0,-0.42188 -0.17187,-0.67188 -0.17188,-0.25 -0.59375,-0.4375 -0.40625,-0.20312 -1.20313,-0.40625 -1.28125,-0.34375 -1.85937,-0.90625 -0.57813,-0.57812 -0.57813,-1.45312 0,-0.625 0.375,-1.125 0.375,-0.51563 1.04688,-0.79688 0.67187,-0.29687 1.48437,-0.29687 z m 10.98639,8.26562 h -1.21875 l -0.10937,-1.25 q -0.45313,0.75 -1.0625,1.09375 -0.59375,0.34375 -1.45313,0.34375 -1.04687,0 -1.65625,-0.64062 -0.59375,-0.65625 -0.59375,-1.82813 v -5.79687 h 1.42188 v 5.64062 q 0,0.82813 0.28125,1.17188 0.29687,0.34375 0.95312,0.34375 1.1875,0 2.01563,-1.39063 v -5.76562 h 1.42187 z m 6.60849,-8.26562 q 1.375,0 2.1875,1.10937 0.8125,1.10938 0.8125,3.10938 0,1.25 -0.39062,2.21875 -0.375,0.95312 -1.09375,1.48437 -0.71875,0.53125 -1.6875,0.53125 -1.28125,0 -2.15625,-1.07812 l -0.125,0.89062 h -1.25 v -11.32812 l 1.40625,-0.17188 v 4.4375 q 0.875,-1.20312 2.29687,-1.20312 z m -0.51562,7.32812 q 0.9375,0 1.46875,-0.75 0.53125,-0.76562 0.53125,-2.35937 0,-1.64063 -0.5,-2.35938 -0.48438,-0.73437 -1.39063,-0.73437 -1.07812,0 -1.89062,1.25 v 3.875 q 0.32812,0.5 0.79687,0.79687 0.46875,0.28125 0.98438,0.28125 z m 8.10492,-7.32812 q 0.82812,0 1.48437,0.23437 0.67188,0.23438 1.26563,0.6875 l -0.59375,0.89063 q -0.54688,-0.35938 -1.04688,-0.51563 -0.5,-0.17187 -1.0625,-0.17187 -0.6875,0 -1.09375,0.28125 -0.39062,0.28125 -0.39062,0.78125 0,0.48437 0.375,0.76562 0.375,0.26563 1.35937,0.53125 1.34375,0.34375 2.01563,0.92188 0.67187,0.57812 0.67187,1.59375 0,1.1875 -0.9375,1.82812 -0.92187,0.625 -2.25,0.625 -1.84375,0 -3.04687,-1.0625 l 0.75,-0.85937 q 1.01562,0.78125 2.26562,0.78125 0.79688,0 1.26563,-0.32813 0.46875,-0.32812 0.46875,-0.89062 0,-0.42188 -0.17188,-0.67188 -0.17187,-0.25 -0.59375,-0.4375 -0.40625,-0.20312 -1.20312,-0.40625 -1.28125,-0.34375 -1.85938,-0.90625 -0.57812,-0.57812 -0.57812,-1.45312 0,-0.625 0.375,-1.125 0.375,-0.51563 1.04687,-0.79688 0.67188,-0.29687 1.48438,-0.29687 z m 10.25491,6.375 q 0,0.5 0.17188,0.73437 0.17187,0.23438 0.51562,0.35938 l -0.32812,0.98437 q -0.625,-0.0781 -1.01563,-0.34375 -0.375,-0.28125 -0.5625,-0.875 -0.8125,1.21875 -2.40625,1.21875 -1.20312,0 -1.89062,-0.67187 -0.6875,-0.6875 -0.6875,-1.76563 0,-1.29687 0.92187,-1.98437 0.9375,-0.6875 2.64063,-0.6875 h 1.23437 v -0.59375 q 0,-0.85938 -0.42187,-1.21875 -0.40625,-0.375 -1.26563,-0.375 -0.89062,0 -2.17187,0.42187 l -0.35938,-1.01562 q 1.51563,-0.5625 2.79688,-0.5625 1.42187,0 2.125,0.70312 0.70312,0.70313 0.70312,1.98438 z m -3.29687,1.01562 q 1.20312,0 1.89062,-1.25 v -1.85937 h -1.04687 q -2.25,0 -2.25,1.65625 0,0.71875 0.34375,1.09375 0.35937,0.35937 1.0625,0.35937 z m 14.30728,-7.39062 q 1,0 1.59375,0.67187 0.59375,0.67188 0.59375,1.79688 v 5.79687 h -1.40625 v -5.59375 q 0,-1.5625 -1.125,-1.5625 -0.60938,0 -1.03125,0.34375 -0.40625,0.34375 -0.875,1.07813 v 5.73437 h -1.40625 v -5.59375 q 0,-1.5625 -1.14063,-1.5625 -0.60937,0 -1.03125,0.35938 -0.40625,0.34375 -0.875,1.0625 v 5.73437 h -1.40625 v -8.07812 h 1.21875 l 0.125,1.1875 q 0.89063,-1.375 2.32813,-1.375 0.75,0 1.26562,0.39062 0.53125,0.375 0.76563,1.0625 0.48437,-0.70312 1.04687,-1.07812 0.57813,-0.375 1.35938,-0.375 z m 8.74563,0 q 1.54688,0 2.26563,1.10937 0.71875,1.10938 0.71875,3.10938 0,1.90625 -0.82813,3.07812 -0.82812,1.15625 -2.34375,1.15625 -1.35937,0 -2.125,-0.92187 v 3.82812 l -1.40625,0.17188 v -11.34375 h 1.21875 l 0.10938,1.09375 q 0.4375,-0.625 1.0625,-0.95313 0.625,-0.32812 1.32812,-0.32812 z m -0.53125,7.29687 q 2,0 2,-3.07812 0,-3.09375 -1.82812,-3.09375 -0.59375,0 -1.09375,0.35937 -0.48438,0.34375 -0.85938,0.89063 v 3.9375 q 0.3125,0.48437 0.76563,0.73437 0.46875,0.25 1.01562,0.25 z m 7.5268,1.15625 q -0.78125,0 -1.23438,-0.46875 -0.45312,-0.46875 -0.45312,-1.3125 v -9.73437 l 1.42187,-0.17188 v 9.875 q 0,0.34375 0.10938,0.5 0.10937,0.14063 0.39062,0.14063 0.29688,0 0.51563,-0.0937 l 0.375,0.98437 q -0.51563,0.28125 -1.125,0.28125 z m 8.91449,-4.46875 q 0,0.35938 -0.0312,0.71875 h -5.15625 q 0.0937,1.34375 0.67187,1.96875 0.57813,0.625 1.5,0.625 0.59375,0 1.07813,-0.15625 0.48437,-0.17187 1.03125,-0.54687 l 0.60937,0.84375 q -1.28125,1.01562 -2.82812,1.01562 -1.67188,0 -2.625,-1.09375 -0.9375,-1.10937 -0.9375,-3.04687 0,-1.26563 0.40625,-2.23438 0.40625,-0.96875 1.15625,-1.51562 0.76562,-0.5625 1.79687,-0.5625 1.60938,0 2.46875,1.0625 0.85938,1.0625 0.85938,2.92187 z m -1.40625,-0.40625 q 0,-1.20312 -0.46875,-1.82812 -0.46875,-0.625 -1.42188,-0.625 -1.73437,0 -1.89062,2.54687 h 3.78125 z m 3.20053,-1.85937 -0.23438,-4.01563 h 1.51563 l -0.23438,4.01563 z m 2.76562,0 -0.23437,-4.01563 h 1.51562 l -0.23437,4.01563 z m 3.69406,-6.40625 q 1.01563,1.4375 1.5625,2.375 0.54688,0.92187 0.92188,2.21875 0.375,1.29687 0.375,3 0,1.70312 -0.375,3 -0.375,1.28125 -0.92188,2.21875 -0.54687,0.92187 -1.5625,2.35937 l -0.89062,-0.60937 q 0.79687,-1.17188 1.26562,-2.10938 0.46875,-0.9375 0.73438,-2.10937 0.26562,-1.1875 0.26562,-2.75 0,-1.57813 -0.26562,-2.75 -0.26563,-1.1875 -0.73438,-2.10938 -0.46875,-0.9375 -1.26562,-2.125 z"
     fill-rule="nonzero"
     id="path37" />
  <path
     fill="#ffab40"
     d="m 353.68267,165.07103 v 0 c 0,-4.45026 3.60764,-8.05789 8.05789,-8.05789 h 115.82123 c 2.13709,0 4.18665,0.84894 5.69776,2.36011 1.51117,1.51113 2.3601,3.56069 2.3601,5.69778 v 32.23065 c 0,4.45026 -3.6076,8.05792 -8.05786,8.05792 H 361.74056 c -4.45025,0 -8.05789,-3.60766 -8.05789,-8.05792 z"
     fill-rule="evenodd"
     id="path39" />
  <path
     stroke="#000000"
     stroke-width="2"
     stroke-linejoin="round"
     stroke-linecap="butt"
     d="m 353.68267,165.07103 v 0 c 0,-4.45026 3.60764,-8.05789 8.05789,-8.05789 h 115.82123 c 2.13709,0 4.18665,0.84894 5.69776,2.36011 1.51117,1.51113 2.3601,3.56069 2.3601,5.69778 v 32.23065 c 0,4.45026 -3.6076,8.05792 -8.05786,8.05792 H 361.74056 c -4.45025,0 -8.05789,-3.60766 -8.05789,-8.05792 z"
     fill-rule="evenodd"
     id="path41" />
  <path
     fill="#000000"
     d="m 361.56991,187.09383 q -0.78125,0 -1.23438,-0.46875 -0.45312,-0.46875 -0.45312,-1.3125 v -9.73438 l 1.42187,-0.17187 v 9.875 q 0,0.34375 0.10938,0.5 0.10937,0.14062 0.39062,0.14062 0.29688,0 0.51563,-0.0937 l 0.375,0.98438 q -0.51563,0.28125 -1.125,0.28125 z m 6.3974,-8.45313 q 0.42187,0 0.79687,0.0937 l -0.26562,1.375 q -0.35938,-0.0781 -0.70313,-0.0781 -0.75,0 -1.21875,0.54687 -0.45312,0.54688 -0.71875,1.71875 v 4.60938 h -1.40625 v -8.07813 h 1.21875 l 0.14063,1.64063 q 0.3125,-0.90625 0.85937,-1.35938 0.5625,-0.46875 1.29688,-0.46875 z m 6.19791,0 q 1.10937,0 1.73437,0.67188 0.625,0.65625 0.625,1.79687 v 5.79688 h -1.42187 v -5.59375 q 0,-0.85938 -0.32813,-1.20313 -0.3125,-0.35937 -0.9375,-0.35937 -0.64062,0 -1.14062,0.375 -0.48438,0.35937 -0.92188,1.04687 v 5.73438 h -1.40625 v -8.07813 h 1.21875 l 0.125,1.20313 q 0.42188,-0.65625 1.04688,-1.01563 0.64062,-0.375 1.40625,-0.375 z m 8.09167,-4.07812 q -0.79687,1.1875 -1.26562,2.125 -0.46875,0.92187 -0.75,2.10937 -0.26563,1.17188 -0.26563,2.75 0,1.5625 0.26563,2.75 0.28125,1.17188 0.75,2.10938 0.46875,0.9375 1.26562,2.10937 l -0.89062,0.60938 q -1.01563,-1.4375 -1.5625,-2.35938 -0.54688,-0.9375 -0.92188,-2.21875 -0.375,-1.29687 -0.375,-3 0,-1.70312 0.375,-3 0.375,-1.29687 0.92188,-2.21875 0.54687,-0.9375 1.5625,-2.375 z m 1.76322,5.79687 -0.23438,-4.01562 h 1.51563 l -0.23438,4.01562 z m 2.76562,0 -0.23437,-4.01562 h 1.51562 l -0.23437,4.01562 z m 6.44696,-1.71875 q 0.71875,0 1.3125,0.21875 0.59375,0.20313 1.14063,0.65625 l -0.67188,0.89063 q -0.42187,-0.3125 -0.82812,-0.45313 -0.40625,-0.14062 -0.90625,-0.14062 -0.96875,0 -1.51563,0.78125 -0.54687,0.78125 -0.54687,2.3125 0,1.53125 0.53125,2.26562 0.54687,0.71875 1.53125,0.71875 0.48437,0 0.875,-0.14062 0.40625,-0.14063 0.89062,-0.46875 l 0.64063,0.92187 q -1.09375,0.89063 -2.45313,0.89063 -1.64062,0 -2.59375,-1.09375 -0.9375,-1.10938 -0.9375,-3.0625 0,-1.28125 0.42188,-2.25 0.4375,-0.96875 1.21875,-1.5 0.79687,-0.54688 1.89062,-0.54688 z m 5.98313,8.45313 q -0.78125,0 -1.23438,-0.46875 -0.45312,-0.46875 -0.45312,-1.3125 v -9.73438 l 1.42187,-0.17187 v 9.875 q 0,0.34375 0.10938,0.5 0.10937,0.14062 0.39062,0.14062 0.29688,0 0.51563,-0.0937 l 0.375,0.98438 q -0.51563,0.28125 -1.125,0.28125 z m 8.24261,-2.07813 q 0,0.5 0.17188,0.73438 0.17187,0.23437 0.51562,0.35937 l -0.32812,0.98438 q -0.625,-0.0781 -1.01563,-0.34375 -0.375,-0.28125 -0.5625,-0.875 -0.8125,1.21875 -2.40625,1.21875 -1.20312,0 -1.89062,-0.67188 -0.6875,-0.6875 -0.6875,-1.76562 0,-1.29688 0.92187,-1.98438 0.9375,-0.6875 2.64063,-0.6875 h 1.23437 v -0.59375 q 0,-0.85937 -0.42187,-1.21875 -0.40625,-0.375 -1.26563,-0.375 -0.89062,0 -2.17187,0.42188 l -0.35938,-1.01563 q 1.51563,-0.5625 2.79688,-0.5625 1.42187,0 2.125,0.70313 0.70312,0.70312 0.70312,1.98437 z m -3.29687,1.01563 q 1.20312,0 1.89062,-1.25 v -1.85938 h -1.04687 q -2.25,0 -2.25,1.65625 0,0.71875 0.34375,1.09375 0.35937,0.35938 1.0625,0.35938 z m 8.23205,-7.39063 q 0.82813,0 1.48438,0.23438 0.67187,0.23437 1.26562,0.6875 l -0.59375,0.89062 q -0.54687,-0.35937 -1.04687,-0.51562 -0.5,-0.17188 -1.0625,-0.17188 -0.6875,0 -1.09375,0.28125 -0.39063,0.28125 -0.39063,0.78125 0,0.48438 0.375,0.76563 0.375,0.26562 1.35938,0.53125 1.34375,0.34375 2.01562,0.92187 0.67188,0.57813 0.67188,1.59375 0,1.1875 -0.9375,1.82813 -0.92188,0.625 -2.25,0.625 -1.84375,0 -3.04688,-1.0625 l 0.75,-0.85938 q 1.01563,0.78125 2.26563,0.78125 0.79687,0 1.26562,-0.32812 0.46875,-0.32813 0.46875,-0.89063 0,-0.42187 -0.17187,-0.67187 -0.17188,-0.25 -0.59375,-0.4375 -0.40625,-0.20313 -1.20313,-0.40625 -1.28125,-0.34375 -1.85937,-0.90625 -0.57813,-0.57813 -0.57813,-1.45313 0,-0.625 0.375,-1.125 0.375,-0.51562 1.04688,-0.79687 0.67187,-0.29688 1.48437,-0.29688 z m 7.00491,0 q 0.82813,0 1.48438,0.23438 0.67187,0.23437 1.26562,0.6875 l -0.59375,0.89062 q -0.54687,-0.35937 -1.04687,-0.51562 -0.5,-0.17188 -1.0625,-0.17188 -0.6875,0 -1.09375,0.28125 -0.39063,0.28125 -0.39063,0.78125 0,0.48438 0.375,0.76563 0.375,0.26562 1.35938,0.53125 1.34375,0.34375 2.01562,0.92187 0.67188,0.57813 0.67188,1.59375 0,1.1875 -0.9375,1.82813 -0.92188,0.625 -2.25,0.625 -1.84375,0 -3.04688,-1.0625 l 0.75,-0.85938 q 1.01563,0.78125 2.26563,0.78125 0.79687,0 1.26562,-0.32812 0.46875,-0.32813 0.46875,-0.89063 0,-0.42187 -0.17187,-0.67187 -0.17188,-0.25 -0.59375,-0.4375 -0.40625,-0.20313 -1.20313,-0.40625 -1.28125,-0.34375 -1.85937,-0.90625 -0.57813,-0.57813 -0.57813,-1.45313 0,-0.625 0.375,-1.125 0.375,-0.51562 1.04688,-0.79687 0.67187,-0.29688 1.48437,-0.29688 z m 6.37702,0.1875 v 8.07813 h -1.40625 v -8.07813 z m -0.70313,-3.875 q 0.4375,0 0.71875,0.28125 0.28125,0.26563 0.28125,0.6875 0,0.40625 -0.28125,0.67188 -0.28125,0.26562 -0.71875,0.26562 -0.4375,0 -0.71875,-0.26562 -0.26562,-0.26563 -0.26562,-0.67188 0,-0.42187 0.26562,-0.6875 0.28125,-0.28125 0.71875,-0.28125 z m 6.36942,1.59375 q -0.64063,0 -0.92188,0.28125 -0.28125,0.28125 -0.28125,0.875 v 1.125 h 1.96875 l -0.15625,1.09375 h -1.8125 v 6.98438 h -1.40625 v -6.98438 h -1.4375 v -1.09375 h 1.4375 v -1.10937 q 0,-1.03125 0.65625,-1.67188 0.67188,-0.64062 1.875,-0.64062 0.54688,0 0.98438,0.10937 0.4375,0.0937 0.9375,0.3125 l -0.4375,1.01563 q -0.6875,-0.29688 -1.40625,-0.29688 z m 1.99325,8.40625 q 0.45313,0 0.75,0.3125 0.3125,0.3125 0.3125,0.75 0,0.45313 -0.3125,0.76563 -0.29687,0.3125 -0.75,0.3125 -0.45312,0 -0.76562,-0.3125 -0.29688,-0.3125 -0.29688,-0.76563 0,-0.4375 0.29688,-0.75 0.3125,-0.3125 0.76562,-0.3125 z m 6.8194,-6.3125 q 0.42188,0 0.79688,0.0937 l -0.26563,1.375 q -0.35937,-0.0781 -0.70312,-0.0781 -0.75,0 -1.21875,0.54687 -0.45313,0.54688 -0.71875,1.71875 v 4.60938 h -1.40625 v -8.07813 h 1.21875 l 0.14062,1.64063 q 0.3125,-0.90625 0.85938,-1.35938 0.5625,-0.46875 1.29687,-0.46875 z m 6.11981,0 q 1.54688,0 2.26563,1.10938 0.71875,1.10937 0.71875,3.10937 0,1.90625 -0.82813,3.07813 -0.82812,1.15625 -2.34375,1.15625 -1.35937,0 -2.125,-0.92188 v 3.82813 l -1.40625,0.17187 V 178.8282 h 1.21875 l 0.10938,1.09375 q 0.4375,-0.625 1.0625,-0.95312 0.625,-0.32813 1.32812,-0.32813 z m -0.53125,7.29688 q 2,0 2,-3.07813 0,-3.09375 -1.82812,-3.09375 -0.59375,0 -1.09375,0.35938 -0.48438,0.34375 -0.85938,0.89062 v 3.9375 q 0.3125,0.48438 0.76563,0.73438 0.46875,0.25 1.01562,0.25 z m 11.2016,-0.92188 q 0,0.5 0.17188,0.73438 0.17187,0.23437 0.51562,0.35937 l -0.32812,0.98438 q -0.625,-0.0781 -1.01563,-0.34375 -0.375,-0.28125 -0.5625,-0.875 -0.8125,1.21875 -2.40625,1.21875 -1.20312,0 -1.89062,-0.67188 -0.6875,-0.6875 -0.6875,-1.76562 0,-1.29688 0.92187,-1.98438 0.9375,-0.6875 2.64063,-0.6875 h 1.23437 v -0.59375 q 0,-0.85937 -0.42187,-1.21875 -0.40625,-0.375 -1.26563,-0.375 -0.89062,0 -2.17187,0.42188 l -0.35938,-1.01563 q 1.51563,-0.5625 2.79688,-0.5625 1.42187,0 2.125,0.70313 0.70312,0.70312 0.70312,1.98437 z m -3.29687,1.01563 q 1.20312,0 1.89062,-1.25 v -1.85938 h -1.04687 q -2.25,0 -2.25,1.65625 0,0.71875 0.34375,1.09375 0.35937,0.35938 1.0625,0.35938 z m 9.7135,-7.39063 q 0.42187,0 0.79687,0.0937 l -0.26562,1.375 q -0.35938,-0.0781 -0.70313,-0.0781 -0.75,0 -1.21875,0.54687 -0.45312,0.54688 -0.71875,1.71875 v 4.60938 h -1.40625 v -8.07813 h 1.21875 l 0.14063,1.64063 q 0.3125,-0.90625 0.85937,-1.35938 0.5625,-0.46875 1.29688,-0.46875 z m 6.47919,7.89063 q -0.79688,0.5625 -1.8125,0.5625 -1.01563,0 -1.59375,-0.59375 -0.57813,-0.59375 -0.57813,-1.70313 v -4.875 h -1.40625 v -1.09375 h 1.40625 v -1.82812 l 1.40625,-0.17188 v 2 h 1.92188 l -0.15625,1.09375 h -1.76563 v 4.8125 q 0,0.625 0.21875,0.90625 0.23438,0.28125 0.75,0.28125 0.48438,0 1.07813,-0.3125 z m 0.92846,-6.17188 -0.23437,-4.01562 h 1.51562 l -0.23437,4.01562 z m 2.76563,0 -0.23438,-4.01562 h 1.51563 l -0.23438,4.01562 z m 3.69403,-6.40625 q 1.01562,1.4375 1.5625,2.375 0.54687,0.92188 0.92187,2.21875 0.375,1.29688 0.375,3 0,1.70313 -0.375,3 -0.375,1.28125 -0.92187,2.21875 -0.54688,0.92188 -1.5625,2.35938 l -0.89063,-0.60938 q 0.79688,-1.17187 1.26563,-2.10937 0.46875,-0.9375 0.73437,-2.10938 0.26563,-1.1875 0.26563,-2.75 0,-1.57812 -0.26563,-2.75 -0.26562,-1.1875 -0.73437,-2.10937 -0.46875,-0.9375 -1.26563,-2.125 z"
     fill-rule="nonzero"
     id="path43" />
  <path
     fill="#d0e0e3"
     d="m 196.43964,165.07103 v 0 c 0,-4.45026 3.60764,-8.05789 8.05789,-8.05789 h 115.8212 c 2.13709,0 4.18665,0.84894 5.69782,2.36011 1.51114,1.51113 2.3601,3.56069 2.3601,5.69778 v 32.23065 c 0,4.45026 -3.60766,8.05792 -8.05792,8.05792 h -115.8212 c -4.45025,0 -8.05789,-3.60766 -8.05789,-8.05792 z"
     fill-rule="evenodd"
     id="path45" />
  <path
     stroke="#000000"
     stroke-width="2"
     stroke-linejoin="round"
     stroke-linecap="butt"
     d="m 196.43964,165.07103 v 0 c 0,-4.45026 3.60764,-8.05789 8.05789,-8.05789 h 115.8212 c 2.13709,0 4.18665,0.84894 5.69782,2.36011 1.51114,1.51113 2.3601,3.56069 2.3601,5.69778 v 32.23065 c 0,4.45026 -3.60766,8.05792 -8.05792,8.05792 h -115.8212 c -4.45025,0 -8.05789,-3.60766 -8.05789,-8.05792 z"
     fill-rule="evenodd"
     id="path47" />
  <path
     fill="#000000"
     d="m 209.85422,178.64073 q 1.54687,0 2.26562,1.10937 0.71875,1.10938 0.71875,3.10938 0,1.90625 -0.82812,3.07812 -0.82813,1.15625 -2.34375,1.15625 -1.35938,0 -2.125,-0.92187 v 3.82812 l -1.40625,0.17188 v -11.34375 h 1.21875 l 0.10937,1.09375 q 0.4375,-0.625 1.0625,-0.95313 0.625,-0.32812 1.32813,-0.32812 z m -0.53125,7.29687 q 2,0 2,-3.07812 0,-3.09375 -1.82813,-3.09375 -0.59375,0 -1.09375,0.35937 -0.48437,0.34375 -0.85937,0.89063 v 3.9375 q 0.3125,0.48437 0.76562,0.73437 0.46875,0.25 1.01563,0.25 z m 8.9487,-7.29687 q 1.70312,0 2.64062,1.14062 0.95313,1.125 0.95313,3.07813 0,1.25 -0.4375,2.21875 -0.42188,0.95312 -1.23438,1.48437 -0.8125,0.53125 -1.9375,0.53125 -1.6875,0 -2.64062,-1.125 -0.95313,-1.14062 -0.95313,-3.09375 0,-1.25 0.42188,-2.20312 0.4375,-0.96875 1.25,-1.5 0.8125,-0.53125 1.9375,-0.53125 z m 0,1.14062 q -2.09375,0 -2.09375,3.09375 0,3.07813 2.07812,3.07813 2.09375,0 2.09375,-3.09375 0,-3.07813 -2.07812,-3.07813 z m 8.82663,-5.21875 q -0.79688,1.1875 -1.26563,2.125 -0.46875,0.92188 -0.75,2.10938 -0.26562,1.17187 -0.26562,2.75 0,1.5625 0.26562,2.75 0.28125,1.17187 0.75,2.10937 0.46875,0.9375 1.26563,2.10938 l -0.89063,0.60937 q -1.01562,-1.4375 -1.5625,-2.35937 -0.54687,-0.9375 -0.92187,-2.21875 -0.375,-1.29688 -0.375,-3 0,-1.70313 0.375,-3 0.375,-1.29688 0.92187,-2.21875 0.54688,-0.9375 1.5625,-2.375 z m 1.76321,5.79688 -0.23437,-4.01563 h 1.51562 l -0.23437,4.01563 z m 2.76563,0 -0.23438,-4.01563 h 1.51563 l -0.23438,4.01563 z m 5.68133,-1.71875 q 0.82813,0 1.48438,0.23437 0.67187,0.23438 1.26562,0.6875 l -0.59375,0.89063 q -0.54687,-0.35938 -1.04687,-0.51563 -0.5,-0.17187 -1.0625,-0.17187 -0.6875,0 -1.09375,0.28125 -0.39063,0.28125 -0.39063,0.78125 0,0.48437 0.375,0.76562 0.375,0.26563 1.35938,0.53125 1.34375,0.34375 2.01562,0.92188 0.67188,0.57812 0.67188,1.59375 0,1.1875 -0.9375,1.82812 -0.92188,0.625 -2.25,0.625 -1.84375,0 -3.04688,-1.0625 l 0.75,-0.85937 q 1.01563,0.78125 2.26563,0.78125 0.79687,0 1.26562,-0.32813 0.46875,-0.32812 0.46875,-0.89062 0,-0.42188 -0.17187,-0.67188 -0.17188,-0.25 -0.59375,-0.4375 -0.40625,-0.20312 -1.20313,-0.40625 -1.28125,-0.34375 -1.85937,-0.90625 -0.57813,-0.57812 -0.57813,-1.45312 0,-0.625 0.375,-1.125 0.375,-0.51563 1.04688,-0.79688 0.67187,-0.29687 1.48437,-0.29687 z m 10.98639,8.26562 h -1.21875 l -0.10937,-1.25 q -0.45313,0.75 -1.0625,1.09375 -0.59375,0.34375 -1.45313,0.34375 -1.04687,0 -1.65625,-0.64062 -0.59375,-0.65625 -0.59375,-1.82813 v -5.79687 h 1.42188 v 5.64062 q 0,0.82813 0.28125,1.17188 0.29687,0.34375 0.95312,0.34375 1.1875,0 2.01563,-1.39063 v -5.76562 h 1.42187 z m 6.60849,-8.26562 q 1.375,0 2.1875,1.10937 0.8125,1.10938 0.8125,3.10938 0,1.25 -0.39062,2.21875 -0.375,0.95312 -1.09375,1.48437 -0.71875,0.53125 -1.6875,0.53125 -1.28125,0 -2.15625,-1.07812 l -0.125,0.89062 h -1.25 v -11.32812 l 1.40625,-0.17188 v 4.4375 q 0.875,-1.20312 2.29687,-1.20312 z m -0.51562,7.32812 q 0.9375,0 1.46875,-0.75 0.53125,-0.76562 0.53125,-2.35937 0,-1.64063 -0.5,-2.35938 -0.48438,-0.73437 -1.39063,-0.73437 -1.07812,0 -1.89062,1.25 v 3.875 q 0.32812,0.5 0.79687,0.79687 0.46875,0.28125 0.98438,0.28125 z m 8.10492,-7.32812 q 0.82812,0 1.48437,0.23437 0.67188,0.23438 1.26563,0.6875 l -0.59375,0.89063 q -0.54688,-0.35938 -1.04688,-0.51563 -0.5,-0.17187 -1.0625,-0.17187 -0.6875,0 -1.09375,0.28125 -0.39062,0.28125 -0.39062,0.78125 0,0.48437 0.375,0.76562 0.375,0.26563 1.35937,0.53125 1.34375,0.34375 2.01563,0.92188 0.67187,0.57812 0.67187,1.59375 0,1.1875 -0.9375,1.82812 -0.92187,0.625 -2.25,0.625 -1.84375,0 -3.04687,-1.0625 l 0.75,-0.85937 q 1.01562,0.78125 2.26562,0.78125 0.79688,0 1.26563,-0.32813 0.46875,-0.32812 0.46875,-0.89062 0,-0.42188 -0.17188,-0.67188 -0.17187,-0.25 -0.59375,-0.4375 -0.40625,-0.20312 -1.20312,-0.40625 -1.28125,-0.34375 -1.85938,-0.90625 -0.57812,-0.57812 -0.57812,-1.45312 0,-0.625 0.375,-1.125 0.375,-0.51563 1.04687,-0.79688 0.67188,-0.29687 1.48438,-0.29687 z m 10.25491,6.375 q 0,0.5 0.17188,0.73437 0.17187,0.23438 0.51562,0.35938 l -0.32812,0.98437 q -0.625,-0.0781 -1.01563,-0.34375 -0.375,-0.28125 -0.5625,-0.875 -0.8125,1.21875 -2.40625,1.21875 -1.20312,0 -1.89062,-0.67187 -0.6875,-0.6875 -0.6875,-1.76563 0,-1.29687 0.92187,-1.98437 0.9375,-0.6875 2.64063,-0.6875 h 1.23437 v -0.59375 q 0,-0.85938 -0.42187,-1.21875 -0.40625,-0.375 -1.26563,-0.375 -0.89062,0 -2.17187,0.42187 l -0.35938,-1.01562 q 1.51563,-0.5625 2.79688,-0.5625 1.42187,0 2.125,0.70312 0.70312,0.70313 0.70312,1.98438 z m -3.29687,1.01562 q 1.20312,0 1.89062,-1.25 v -1.85937 h -1.04687 q -2.25,0 -2.25,1.65625 0,0.71875 0.34375,1.09375 0.35937,0.35937 1.0625,0.35937 z m 14.30728,-7.39062 q 1,0 1.59375,0.67187 0.59375,0.67188 0.59375,1.79688 v 5.79687 h -1.40625 v -5.59375 q 0,-1.5625 -1.125,-1.5625 -0.60938,0 -1.03125,0.34375 -0.40625,0.34375 -0.875,1.07813 v 5.73437 h -1.40625 v -5.59375 q 0,-1.5625 -1.14063,-1.5625 -0.60937,0 -1.03125,0.35938 -0.40625,0.34375 -0.875,1.0625 v 5.73437 h -1.40625 v -8.07812 h 1.21875 l 0.125,1.1875 q 0.89063,-1.375 2.32813,-1.375 0.75,0 1.26562,0.39062 0.53125,0.375 0.76563,1.0625 0.48437,-0.70312 1.04687,-1.07812 0.57813,-0.375 1.35938,-0.375 z m 8.74563,0 q 1.54688,0 2.26563,1.10937 0.71875,1.10938 0.71875,3.10938 0,1.90625 -0.82813,3.07812 -0.82812,1.15625 -2.34375,1.15625 -1.35937,0 -2.125,-0.92187 v 3.82812 l -1.40625,0.17188 v -11.34375 h 1.21875 l 0.10938,1.09375 q 0.4375,-0.625 1.0625,-0.95313 0.625,-0.32812 1.32812,-0.32812 z m -0.53125,7.29687 q 2,0 2,-3.07812 0,-3.09375 -1.82812,-3.09375 -0.59375,0 -1.09375,0.35937 -0.48438,0.34375 -0.85938,0.89063 v 3.9375 q 0.3125,0.48437 0.76563,0.73437 0.46875,0.25 1.01562,0.25 z m 7.5268,1.15625 q -0.78125,0 -1.23438,-0.46875 -0.45312,-0.46875 -0.45312,-1.3125 v -9.73437 l 1.42187,-0.17188 v 9.875 q 0,0.34375 0.10938,0.5 0.10937,0.14063 0.39062,0.14063 0.29688,0 0.51563,-0.0937 l 0.375,0.98437 q -0.51563,0.28125 -1.125,0.28125 z m 8.91449,-4.46875 q 0,0.35938 -0.0312,0.71875 h -5.15625 q 0.0937,1.34375 0.67187,1.96875 0.57813,0.625 1.5,0.625 0.59375,0 1.07813,-0.15625 0.48437,-0.17187 1.03125,-0.54687 l 0.60937,0.84375 q -1.28125,1.01562 -2.82812,1.01562 -1.67188,0 -2.625,-1.09375 -0.9375,-1.10937 -0.9375,-3.04687 0,-1.26563 0.40625,-2.23438 0.40625,-0.96875 1.15625,-1.51562 0.76562,-0.5625 1.79687,-0.5625 1.60938,0 2.46875,1.0625 0.85938,1.0625 0.85938,2.92187 z m -1.40625,-0.40625 q 0,-1.20312 -0.46875,-1.82812 -0.46875,-0.625 -1.42188,-0.625 -1.73437,0 -1.89062,2.54687 h 3.78125 z m 3.20053,-1.85937 -0.23438,-4.01563 h 1.51563 l -0.23438,4.01563 z m 2.76562,0 -0.23437,-4.01563 h 1.51562 l -0.23437,4.01563 z m 3.69406,-6.40625 q 1.01563,1.4375 1.5625,2.375 0.54688,0.92187 0.92188,2.21875 0.375,1.29687 0.375,3 0,1.70312 -0.375,3 -0.375,1.28125 -0.92188,2.21875 -0.54687,0.92187 -1.5625,2.35937 l -0.89062,-0.60937 q 0.79687,-1.17188 1.26562,-2.10938 0.46875,-0.9375 0.73438,-2.10937 0.26562,-1.1875 0.26562,-2.75 0,-1.57813 -0.26562,-2.75 -0.26563,-1.1875 -0.73438,-2.10938 -0.46875,-0.9375 -1.26562,-2.125 z"
     fill-rule="nonzero"
     id="path49" />
  <path
     fill="#d0e0e3"
     d="m 511.12863,28.37039 v 0 c 0,-8.5845 6.95911,-15.54362 15.54358,-15.54362 h 110.92853 c 4.12244,0 8.07599,1.63763 10.99103,4.55262 2.91498,2.915 4.55261,6.86858 4.55261,10.991 v 215.87338 c 0,8.5845 -6.95911,15.54361 -15.54364,15.54361 H 526.67221 c -8.58447,0 -15.54358,-6.95911 -15.54358,-15.54361 z"
     fill-rule="evenodd"
     id="path51" />
  <path
     stroke="#000000"
     stroke-width="2"
     stroke-linejoin="round"
     stroke-linecap="butt"
     d="m 511.12863,28.37039 v 0 c 0,-8.5845 6.95911,-15.54362 15.54358,-15.54362 h 110.92853 c 4.12244,0 8.07599,1.63763 10.99103,4.55262 2.91498,2.915 4.55261,6.86858 4.55261,10.991 v 215.87338 c 0,8.5845 -6.95911,15.54361 -15.54364,15.54361 H 526.67221 c -8.58447,0 -15.54358,-6.95911 -15.54358,-15.54361 z"
     fill-rule="evenodd"
     id="path53" />
  <path
     fill="#000000"
     d="m 532.24987,133.76145 q 1.54687,0 2.26562,1.10937 0.71875,1.10938 0.71875,3.10938 0,1.90625 -0.82812,3.07812 -0.82813,1.15625 -2.34375,1.15625 -1.35938,0 -2.125,-0.92187 v 3.82812 l -1.40625,0.17188 v -11.34375 h 1.21875 l 0.10937,1.09375 q 0.4375,-0.625 1.0625,-0.95313 0.625,-0.32812 1.32813,-0.32812 z m -0.53125,7.29687 q 2,0 2,-3.07812 0,-3.09375 -1.82813,-3.09375 -0.59375,0 -1.09375,0.35937 -0.48437,0.34375 -0.85937,0.89063 v 3.9375 q 0.3125,0.48437 0.76562,0.73437 0.46875,0.25 1.01563,0.25 z m 8.94867,-7.29687 q 1.70312,0 2.64062,1.14062 0.95313,1.125 0.95313,3.07813 0,1.25 -0.4375,2.21875 -0.42188,0.95312 -1.23438,1.48437 -0.8125,0.53125 -1.9375,0.53125 -1.6875,0 -2.64062,-1.125 -0.95313,-1.14062 -0.95313,-3.09375 0,-1.25 0.42188,-2.20312 0.4375,-0.96875 1.25,-1.5 0.8125,-0.53125 1.9375,-0.53125 z m 0,1.14062 q -2.09375,0 -2.09375,3.09375 0,3.07813 2.07812,3.07813 2.09375,0 2.09375,-3.09375 0,-3.07813 -2.07812,-3.07813 z m 8.82666,-5.21875 q -0.79688,1.1875 -1.26563,2.125 -0.46875,0.92188 -0.75,2.10938 -0.26562,1.17187 -0.26562,2.75 0,1.5625 0.26562,2.75 0.28125,1.17187 0.75,2.10937 0.46875,0.9375 1.26563,2.10938 l -0.89063,0.60937 q -1.01562,-1.4375 -1.5625,-2.35937 -0.54687,-0.9375 -0.92187,-2.21875 -0.375,-1.29688 -0.375,-3 0,-1.70313 0.375,-3 0.375,-1.29688 0.92187,-2.21875 0.54688,-0.9375 1.5625,-2.375 z m 1.76318,5.79688 -0.23437,-4.01563 h 1.51562 l -0.23437,4.01563 z m 2.76563,0 -0.23438,-4.01563 h 1.51563 l -0.23438,4.01563 z m 6.44702,-1.71875 q 0.71875,0 1.3125,0.21875 0.59375,0.20312 1.14062,0.65625 l -0.67187,0.89062 q -0.42188,-0.3125 -0.82813,-0.45312 -0.40625,-0.14063 -0.90625,-0.14063 -0.96875,0 -1.51562,0.78125 -0.54688,0.78125 -0.54688,2.3125 0,1.53125 0.53125,2.26563 0.54688,0.71875 1.53125,0.71875 0.48438,0 0.875,-0.14063 0.40625,-0.14062 0.89063,-0.46875 l 0.64062,0.92188 q -1.09375,0.89062 -2.45312,0.89062 -1.64063,0 -2.59375,-1.09375 -0.9375,-1.10937 -0.9375,-3.0625 0,-1.28125 0.42187,-2.25 0.4375,-0.96875 1.21875,-1.5 0.79688,-0.54687 1.89063,-0.54687 z m 5.98309,8.45312 q -0.78125,0 -1.23437,-0.46875 -0.45313,-0.46875 -0.45313,-1.3125 v -9.73437 l 1.42188,-0.17188 v 9.875 q 0,0.34375 0.10937,0.5 0.10938,0.14063 0.39063,0.14063 0.29687,0 0.51562,-0.0937 l 0.375,0.98437 q -0.51562,0.28125 -1.125,0.28125 z m 8.24262,-2.07812 q 0,0.5 0.17187,0.73437 0.17188,0.23438 0.51563,0.35938 l -0.32813,0.98437 q -0.625,-0.0781 -1.01562,-0.34375 -0.375,-0.28125 -0.5625,-0.875 -0.8125,1.21875 -2.40625,1.21875 -1.20313,0 -1.89063,-0.67187 -0.6875,-0.6875 -0.6875,-1.76563 0,-1.29687 0.92188,-1.98437 0.9375,-0.6875 2.64062,-0.6875 h 1.23438 v -0.59375 q 0,-0.85938 -0.42188,-1.21875 -0.40625,-0.375 -1.26562,-0.375 -0.89063,0 -2.17188,0.42187 l -0.35937,-1.01562 q 1.51562,-0.5625 2.79687,-0.5625 1.42188,0 2.125,0.70312 0.70313,0.70313 0.70313,1.98438 z m -3.29688,1.01562 q 1.20313,0 1.89063,-1.25 v -1.85937 h -1.04688 q -2.25,0 -2.25,1.65625 0,0.71875 0.34375,1.09375 0.35938,0.35937 1.0625,0.35937 z m 8.23206,-7.39062 q 0.82812,0 1.48437,0.23437 0.67188,0.23438 1.26563,0.6875 l -0.59375,0.89063 q -0.54688,-0.35938 -1.04688,-0.51563 -0.5,-0.17187 -1.0625,-0.17187 -0.6875,0 -1.09375,0.28125 -0.39062,0.28125 -0.39062,0.78125 0,0.48437 0.375,0.76562 0.375,0.26563 1.35937,0.53125 1.34375,0.34375 2.01563,0.92188 0.67187,0.57812 0.67187,1.59375 0,1.1875 -0.9375,1.82812 -0.92187,0.625 -2.25,0.625 -1.84375,0 -3.04687,-1.0625 l 0.75,-0.85937 q 1.01562,0.78125 2.26562,0.78125 0.79688,0 1.26563,-0.32813 0.46875,-0.32812 0.46875,-0.89062 0,-0.42188 -0.17188,-0.67188 -0.17187,-0.25 -0.59375,-0.4375 -0.40625,-0.20312 -1.20312,-0.40625 -1.28125,-0.34375 -1.85938,-0.90625 -0.57812,-0.57812 -0.57812,-1.45312 0,-0.625 0.375,-1.125 0.375,-0.51563 1.04687,-0.79688 0.67188,-0.29687 1.48438,-0.29687 z m 7.00494,0 q 0.82813,0 1.48438,0.23437 0.67187,0.23438 1.26562,0.6875 l -0.59375,0.89063 q -0.54687,-0.35938 -1.04687,-0.51563 -0.5,-0.17187 -1.0625,-0.17187 -0.6875,0 -1.09375,0.28125 -0.39063,0.28125 -0.39063,0.78125 0,0.48437 0.375,0.76562 0.375,0.26563 1.35938,0.53125 1.34375,0.34375 2.01562,0.92188 0.67188,0.57812 0.67188,1.59375 0,1.1875 -0.9375,1.82812 -0.92188,0.625 -2.25,0.625 -1.84375,0 -3.04688,-1.0625 l 0.75,-0.85937 q 1.01563,0.78125 2.26563,0.78125 0.79687,0 1.26562,-0.32813 0.46875,-0.32812 0.46875,-0.89062 0,-0.42188 -0.17187,-0.67188 -0.17188,-0.25 -0.59375,-0.4375 -0.40625,-0.20312 -1.20313,-0.40625 -1.28125,-0.34375 -1.85937,-0.90625 -0.57813,-0.57812 -0.57813,-1.45312 0,-0.625 0.375,-1.125 0.375,-0.51563 1.04688,-0.79688 0.67187,-0.29687 1.48437,-0.29687 z m 6.37696,0.1875 v 8.07812 h -1.40625 v -8.07812 z m -0.70313,-3.875 q 0.4375,0 0.71875,0.28125 0.28125,0.26562 0.28125,0.6875 0,0.40625 -0.28125,0.67187 -0.28125,0.26563 -0.71875,0.26563 -0.4375,0 -0.71875,-0.26563 -0.26562,-0.26562 -0.26562,-0.67187 0,-0.42188 0.26562,-0.6875 0.28125,-0.28125 0.71875,-0.28125 z m 6.36945,1.59375 q -0.64063,0 -0.92188,0.28125 -0.28125,0.28125 -0.28125,0.875 v 1.125 h 1.96875 l -0.15625,1.09375 h -1.8125 v 6.98437 h -1.40625 v -6.98437 h -1.4375 v -1.09375 h 1.4375 v -1.10938 q 0,-1.03125 0.65625,-1.67187 0.67188,-0.64063 1.875,-0.64063 0.54688,0 0.98438,0.10938 0.4375,0.0937 0.9375,0.3125 l -0.4375,1.01562 q -0.6875,-0.29687 -1.40625,-0.29687 z m 1.99328,8.40625 q 0.45313,0 0.75,0.3125 0.3125,0.3125 0.3125,0.75 0,0.45312 -0.3125,0.76562 -0.29687,0.3125 -0.75,0.3125 -0.45312,0 -0.76562,-0.3125 -0.29688,-0.3125 -0.29688,-0.76562 0,-0.4375 0.29688,-0.75 0.3125,-0.3125 0.76562,-0.3125 z m 8.74121,0.0625 q 0,0.5 0.17188,0.73437 0.17187,0.23438 0.51562,0.35938 l -0.32812,0.98437 q -0.625,-0.0781 -1.01563,-0.34375 -0.375,-0.28125 -0.5625,-0.875 -0.8125,1.21875 -2.40625,1.21875 -1.20312,0 -1.89062,-0.67187 -0.6875,-0.6875 -0.6875,-1.76563 0,-1.29687 0.92187,-1.98437 0.9375,-0.6875 2.64063,-0.6875 h 1.23437 v -0.59375 q 0,-0.85938 -0.42187,-1.21875 -0.40625,-0.375 -1.26563,-0.375 -0.89062,0 -2.17187,0.42187 l -0.35938,-1.01562 q 1.51563,-0.5625 2.79688,-0.5625 1.42187,0 2.125,0.70312 0.70312,0.70313 0.70312,1.98438 z m -3.29687,1.01562 q 1.20312,0 1.89062,-1.25 v -1.85937 h -1.04687 q -2.25,0 -2.25,1.65625 0,0.71875 0.34375,1.09375 0.35937,0.35937 1.0625,0.35937 z m 11.90546,-7.20312 -2.75,8.07812 h -1.70313 l -2.78125,-8.07812 h 1.53125 l 2.10938,6.82812 2.10937,-6.82812 z m 8.08886,0.375 q -0.45312,0.14062 -1.01562,0.1875 -0.54688,0.0469 -1.34375,0.0469 1.42187,0.64063 1.42187,2.04688 0,1.20312 -0.82812,1.96875 -0.82813,0.76562 -2.25,0.76562 -0.54688,0 -1.03125,-0.14062 -0.17188,0.10937 -0.28125,0.32812 -0.10938,0.20313 -0.10938,0.42188 0,0.65625 1.0625,0.65625 h 1.28125 q 0.8125,0 1.4375,0.29687 0.625,0.28125 0.96875,0.79688 0.35938,0.5 0.35938,1.14062 0,1.1875 -0.96875,1.8125 -0.96875,0.64063 -2.82813,0.64063 -1.29687,0 -2.0625,-0.26563 -0.75,-0.26562 -1.07812,-0.8125 -0.3125,-0.53125 -0.3125,-1.375 h 1.26562 q 0,0.48438 0.17188,0.76563 0.1875,0.29687 0.65625,0.4375 0.48437,0.14062 1.35937,0.14062 1.28125,0 1.8125,-0.3125 0.54688,-0.3125 0.54688,-0.9375 0,-0.5625 -0.4375,-0.85937 -0.42188,-0.29688 -1.1875,-0.29688 h -1.26563 q -1.03125,0 -1.5625,-0.4375 -0.53125,-0.4375 -0.53125,-1.09375 0,-0.39062 0.23438,-0.75 0.23437,-0.375 0.65625,-0.67187 -0.70313,-0.375 -1.03125,-0.90625 -0.32813,-0.54688 -0.32813,-1.32813 0,-0.8125 0.40625,-1.45312 0.40625,-0.65625 1.10938,-1.01563 0.71875,-0.35937 1.59375,-0.35937 0.95312,0.0156 1.59375,-0.0625 0.64062,-0.0937 1.0625,-0.23438 0.42187,-0.14062 1.04687,-0.42187 z m -4.10937,0.45312 q -0.79688,0 -1.23438,0.5 -0.4375,0.5 -0.4375,1.3125 0,0.82813 0.4375,1.32813 0.45313,0.48437 1.26563,0.48437 0.82812,0 1.26562,-0.46875 0.4375,-0.48437 0.4375,-1.35937 0,-1.79688 -1.73437,-1.79688 z m 5.26751,0.70313 -0.23437,-4.01563 h 1.51562 l -0.23437,4.01563 z m 2.76563,0 -0.23438,-4.01563 h 1.51563 l -0.23438,4.01563 z m 3.69409,-6.40625 q 1.01563,1.4375 1.5625,2.375 0.54688,0.92187 0.92188,2.21875 0.375,1.29687 0.375,3 0,1.70312 -0.375,3 -0.375,1.28125 -0.92188,2.21875 -0.54687,0.92187 -1.5625,2.35937 l -0.89062,-0.60937 q 0.79687,-1.17188 1.26562,-2.10938 0.46875,-0.9375 0.73438,-2.10937 0.26562,-1.1875 0.26562,-2.75 0,-1.57813 -0.26562,-2.75 -0.26563,-1.1875 -0.73438,-2.10938 -0.46875,-0.9375 -1.26562,-2.125 z"
     fill-rule="nonzero"
     id="path55" />
  <path
     fill="#9fc5e8"
     d="m 112.97191,88.28357 35.14668,-19.10773 -3,-5.51181 17.02654,5.02898 -5.02654,17.01826 -3,-5.51181 -35.14668,19.10773 z"
     fill-rule="evenodd"
     id="path57" />
  <path
     stroke="#595959"
     stroke-width="1"
     stroke-linejoin="round"
     stroke-linecap="butt"
     d="m 112.97191,88.28357 35.14668,-19.10773 -3,-5.51181 17.02654,5.02898 -5.02654,17.01826 -3,-5.51181 -35.14668,19.10773 z"
     fill-rule="evenodd"
     id="path59" />
  <path
     fill="#9fc5e8"
     d="m 115.57728,125.65353 h 34.37796 v -6.27559 l 12.55118,12.55119 -12.55118,12.55118 v -6.2756 h -34.37796 z"
     fill-rule="evenodd"
     id="path61" />
  <path
     stroke="#595959"
     stroke-width="1"
     stroke-linejoin="round"
     stroke-linecap="butt"
     d="m 115.57728,125.65353 h 34.37796 v -6.27559 l 12.55118,12.55119 -12.55118,12.55118 v -6.2756 h -34.37796 z"
     fill-rule="evenodd"
     id="path63" />
  <path
     fill="#6d9eeb"
     d="M 1,84.07553 H 97.66142 V 187.03616 H 1 Z"
     fill-rule="evenodd"
     id="path65" />
  <path
     stroke="#000000"
     stroke-width="2"
     stroke-linejoin="round"
     stroke-linecap="butt"
     d="M 1,84.07553 H 97.66142 V 187.03616 H 1 Z"
     fill-rule="evenodd"
     id="path67" />
  <path
     fill="#000000"
     d="m 24.84845,118.61647 -0.1875,1.51562 h -3.5625 v 11.34377 h -1.765625 v -11.34377 h -3.65625 v -1.51562 z m 5.67903,2.79687 q 0.51563,0 0.96875,0.125 l -0.3125,1.6719 q -0.45312,-0.10938 -0.85937,-0.10938 -0.92188,0 -1.48438,0.67188 -0.54687,0.67187 -0.875,2.09375 v 5.60937 h -1.71875 v -9.82812 h 1.48438 l 0.17187,2 q 0.39063,-1.10938 1.0625,-1.67188 0.67188,-0.56251 1.5625,-0.56252 z m 8.89173,7.76565 q 0,0.59375 0.20312,0.89062 0.21875,0.28125 0.625,0.4375 l -0.39062,1.1875 q -0.76563,-0.0937 -1.23438,-0.42187 -0.46875,-0.34375 -0.6875,-1.04688 -1,1.46875 -2.9375,1.46875 -1.45312,0 -2.29687,-0.8125 -0.82813,-0.82812 -0.82813,-2.15625 0,-1.5625 1.125,-2.39062 1.125,-0.84375 3.20313,-0.84375 h 1.5 v -0.73438 q 0,-1.04687 -0.5,-1.48437 -0.5,-0.45313 -1.54688,-0.45313 -1.07812,0 -2.64062,0.51563 l -0.4375,-1.25 q 1.82812,-0.67189 3.39062,-0.67189 1.73438,0 2.59375,0.85939 0.85938,0.84375 0.85938,2.40625 z m -4.03125,1.23437 q 1.48437,0 2.3125,-1.53125 v -2.25 h -1.28125 q -2.71875,0 -2.71875,2.01563 0,0.875 0.42187,1.32812 0.4375,0.4375 1.26563,0.4375 z m 9.274,-8.76562 v 9.82812 h -1.71875 v -9.82812 z m -0.85938,-4.71877 q 0.53125,0 0.85938,0.34375 0.34375,0.32812 0.34375,0.82812 0,0.5 -0.34375,0.82813 -0.32813,0.32812 -0.85938,0.32812 -0.53125,0 -0.875,-0.32812 -0.32812,-0.32813 -0.32812,-0.82813 0,-0.5 0.32812,-0.82812 0.34375,-0.34375 0.875,-0.34375 z m 9.04232,4.48437 q 1.34375,0 2.09375,0.81252 0.75,0.79688 0.75,2.20313 v 7.04687 H 53.9699 v -6.8125 q 0,-1.04687 -0.39063,-1.46875 -0.39062,-0.4375 -1.15625,-0.4375 -0.78125,0 -1.375,0.45313 -0.59375,0.45312 -1.125,1.28125 v 6.98437 h -1.71875 v -9.82812 h 1.48438 l 0.14062,1.45312 q 0.53125,-0.78125 1.29688,-1.23437 0.78125,-0.45314 1.71875,-0.45315 z m 8.01069,0.2344 v 9.82812 h -1.71875 v -9.82812 z m -0.85937,-4.71877 q 0.53125,0 0.85937,0.34375 0.34375,0.32812 0.34375,0.82812 0,0.5 -0.34375,0.82813 -0.32812,0.32812 -0.85937,0.32812 -0.53125,0 -0.875,-0.32812 -0.32813,-0.32813 -0.32813,-0.82813 0,-0.5 0.32813,-0.82812 0.34375,-0.34375 0.875,-0.34375 z m 9.04231,4.48437 q 1.34375,0 2.09375,0.81252 0.75,0.79688 0.75,2.20313 v 7.04687 h -1.71875 v -6.8125 q 0,-1.04687 -0.39063,-1.46875 -0.39062,-0.4375 -1.15625,-0.4375 -0.78125,0 -1.375,0.45313 -0.59375,0.45312 -1.125,1.28125 v 6.98437 H 64.3979 v -9.82812 h 1.48438 l 0.14062,1.45312 q 0.53125,-0.78125 1.29688,-1.23437 0.78125,-0.45315 1.71875,-0.45315 z m 14.22945,0.6719 q -0.5625,0.1875 -1.23438,0.25 -0.67187,0.0625 -1.64062,0.0625 1.73437,0.78125 1.73437,2.46875 0,1.48437 -1.01562,2.42187 -1,0.92188 -2.73438,0.92188 -0.67187,0 -1.25,-0.1875 -0.21875,0.15625 -0.35937,0.40625 -0.125,0.25 -0.125,0.51562 0,0.79688 1.28125,0.79688 h 1.57812 q 0.98438,0 1.75,0.35937 0.76563,0.34375 1.1875,0.96875 0.42188,0.60938 0.42188,1.39063 0,1.4375 -1.1875,2.20312 -1.17188,0.78125 -3.42188,0.78125 -1.59375,0 -2.51562,-0.32812 -0.92188,-0.3125 -1.3125,-0.96875 -0.39063,-0.65625 -0.39063,-1.6875 h 1.54688 q 0,0.59375 0.21875,0.9375 0.23437,0.35937 0.8125,0.53125 0.57812,0.17187 1.64062,0.17187 1.54688,0 2.20313,-0.39062 0.67187,-0.375 0.67187,-1.14063 0,-0.6875 -0.53125,-1.04687 -0.51562,-0.34375 -1.45312,-0.34375 H 77.5961 q -1.25,0 -1.89062,-0.53125 -0.64063,-0.53125 -0.64063,-1.34375 0,-0.48438 0.26563,-0.92188 0.28125,-0.45312 0.8125,-0.8125 -0.85938,-0.4375 -1.26563,-1.09375 -0.39062,-0.67187 -0.39062,-1.625 0,-0.98437 0.48437,-1.76562 0.5,-0.78125 1.35938,-1.21875 0.875,-0.45315 1.9375,-0.45315 1.15625,0.0312 1.9375,-0.0781 0.78125,-0.10938 1.29687,-0.28125 0.51563,-0.17188 1.26563,-0.51563 z m -5,0.5625 q -0.96875,0 -1.5,0.60937 -0.53125,0.60938 -0.53125,1.59375 0,1.01563 0.53125,1.625 0.54687,0.59375 1.53125,0.59375 1.01562,0 1.54687,-0.57812 0.53125,-0.59375 0.53125,-1.65625 0,-2.1875 -2.10937,-2.1875 z"
     fill-rule="nonzero"
     id="path69" />
  <path
     fill="#000000"
     d="m 34.51247,140.61649 q 2.92188,0 4.67188,1.35938 1.76562,1.34375 1.76562,5 0,3.57812 -1.76562,5.04687 -1.75,1.45313 -4.28125,1.45313 h -3.07813 v -12.85938 z m -0.90625,1.42188 v 10.03125 h 1.4375 q 1.78125,0 2.90625,-1.09375 1.125,-1.09375 1.125,-4 0,-2.03125 -0.57812,-3.10938 -0.57813,-1.09375 -1.48438,-1.45312 -0.89062,-0.375 -2.10937,-0.375 z m 16.57796,9.14062 q 0,0.59375 0.20313,0.89063 0.21875,0.28125 0.625,0.4375 l -0.39063,1.1875 q -0.76562,-0.0937 -1.23436,-0.42188 -0.46875,-0.34375 -0.6875,-1.04687 -1,1.46875 -2.9375,1.46875 -1.45313,0 -2.29688,-0.8125 -0.82812,-0.82813 -0.82812,-2.15625 0,-1.5625 1.125,-2.39063 1.125,-0.84375 3.20312,-0.84375 h 1.5 v -0.73437 q 0,-1.04688 -0.5,-1.48438 -0.5,-0.45312 -1.54687,-0.45312 -1.07813,0 -2.64063,0.51562 l -0.4375,-1.25 q 1.82813,-0.67187 3.39063,-0.67187 1.73437,0 2.59375,0.85937 0.85936,0.84375 0.85936,2.40625 z m -4.03124,1.23438 q 1.48438,0 2.3125,-1.53125 v -2.25 h -1.28125 q -2.71875,0 -2.71875,2.01562 0,0.875 0.42188,1.32813 0.4375,0.4375 1.26562,0.4375 z m 12.524,0.60937 q -0.96875,0.67188 -2.20313,0.67188 -1.25,0 -1.95312,-0.71875 -0.6875,-0.71875 -0.6875,-2.07813 v -5.92187 h -1.71875 v -1.32813 h 1.71875 v -2.21875 l 1.70312,-0.20312 v 2.42187 h 2.34375 l -0.1875,1.32813 h -2.15625 v 5.84375 q 0,0.76562 0.26563,1.125 0.28125,0.34375 0.92187,0.34375 0.57813,0 1.29688,-0.39063 z m 8.26049,-1.84375 q 0,0.59375 0.20313,0.89063 0.21875,0.28125 0.625,0.4375 l -0.39063,1.1875 q -0.76562,-0.0937 -1.23437,-0.42188 -0.46875,-0.34375 -0.6875,-1.04687 -1,1.46875 -2.9375,1.46875 -1.45313,0 -2.29688,-0.8125 -0.82812,-0.82813 -0.82812,-2.15625 0,-1.5625 1.125,-2.39063 1.125,-0.84375 3.20312,-0.84375 h 1.5 v -0.73437 q 0,-1.04688 -0.5,-1.48438 -0.5,-0.45312 -1.54687,-0.45312 -1.07813,0 -2.64063,0.51562 l -0.4375,-1.25 q 1.82813,-0.67187 3.39063,-0.67187 1.73437,0 2.59375,0.85937 0.85937,0.84375 0.85937,2.40625 z m -4.03125,1.23438 q 1.48438,0 2.3125,-1.53125 v -2.25 h -1.28125 q -2.71875,0 -2.71875,2.01562 0,0.875 0.42188,1.32813 0.4375,0.4375 1.26562,0.4375 z"
     fill-rule="nonzero"
     id="path71" />
  <path
     fill="#eeeeee"
     d="m 510.84167,33.40551 h -13.6413 c -1.88348,0 -3.41034,3.58467 -3.41034,8.00656 0,4.42191 1.52686,8.00656 3.41034,8.00656 h 13.6413 v 0 c 1.88348,0 3.41034,-3.58465 3.41034,-8.00656 0,-4.42189 -1.52686,-8.00656 -3.41034,-8.00656 z"
     fill-rule="evenodd"
     id="path73" />
  <path
     fill="#000000"
     fill-opacity="0"
     d="m 497.20037,49.41863 c 1.88348,0 3.41034,-3.58466 3.41034,-8.00656 0,-4.42189 -1.52686,-8.00656 -3.41034,-8.00656"
     fill-rule="evenodd"
     id="path75" />
  <path
     fill="#000000"
     fill-opacity="0"
     d="m 510.84167,33.40551 h -13.6413 c -1.88348,0 -3.41034,3.58467 -3.41034,8.00656 0,4.42191 1.52686,8.00656 3.41034,8.00656 h 13.6413 v 0 c 1.88348,0 3.41034,-3.58465 3.41034,-8.00656 0,-4.42189 -1.52686,-8.00656 -3.41034,-8.00656 z"
     fill-rule="evenodd"
     id="path77" />
  <path
     stroke="#595959"
     stroke-width="1"
     stroke-linejoin="round"
     stroke-linecap="butt"
     d="m 497.20037,49.41863 c 1.88348,0 3.41034,-3.58466 3.41034,-8.00656 0,-4.42189 -1.52686,-8.00656 -3.41034,-8.00656"
     fill-rule="evenodd"
     id="path79" />
  <path
     stroke="#595959"
     stroke-width="1"
     stroke-linejoin="round"
     stroke-linecap="butt"
     d="m 510.84167,33.40551 h -13.6413 c -1.88348,0 -3.41034,3.58467 -3.41034,8.00656 0,4.42191 1.52686,8.00656 3.41034,8.00656 h 13.6413 v 0 c 1.88348,0 3.41034,-3.58465 3.41034,-8.00656 0,-4.42189 -1.52686,-8.00656 -3.41034,-8.00656 z"
     fill-rule="evenodd"
     id="path81" />
  <path
     fill="#eeeeee"
     d="m 484.13473,33.40551 h 13.6413 c 1.88348,0 3.41034,3.58467 3.41034,8.00656 0,4.42191 -1.52686,8.00656 -3.41034,8.00656 h -13.6413 v 0 c -1.88348,0 -3.41034,-3.58465 -3.41034,-8.00656 0,-4.42189 1.52686,-8.00656 3.41034,-8.00656 z"
     fill-rule="evenodd"
     id="path83" />
  <path
     fill="#000000"
     fill-opacity="0"
     d="m 497.77603,49.41863 c -1.88348,0 -3.41034,-3.58466 -3.41034,-8.00656 0,-4.42189 1.52686,-8.00656 3.41034,-8.00656"
     fill-rule="evenodd"
     id="path85" />
  <path
     fill="#000000"
     fill-opacity="0"
     d="m 484.13473,33.40551 h 13.6413 c 1.88348,0 3.41034,3.58467 3.41034,8.00656 0,4.42191 -1.52686,8.00656 -3.41034,8.00656 h -13.6413 v 0 c -1.88348,0 -3.41034,-3.58465 -3.41034,-8.00656 0,-4.42189 1.52686,-8.00656 3.41034,-8.00656 z"
     fill-rule="evenodd"
     id="path87" />
  <path
     stroke="#595959"
     stroke-width="1"
     stroke-linejoin="round"
     stroke-linecap="butt"
     d="m 497.77603,49.41863 c -1.88348,0 -3.41034,-3.58466 -3.41034,-8.00656 0,-4.42189 1.52686,-8.00656 3.41034,-8.00656"
     fill-rule="evenodd"
     id="path89" />
  <path
     stroke="#595959"
     stroke-width="1"
     stroke-linejoin="round"
     stroke-linecap="butt"
     d="m 484.13473,33.40551 h 13.6413 c 1.88348,0 3.41034,3.58467 3.41034,8.00656 0,4.42191 -1.52686,8.00656 -3.41034,8.00656 h -13.6413 v 0 c -1.88348,0 -3.41034,-3.58465 -3.41034,-8.00656 0,-4.42189 1.52686,-8.00656 3.41034,-8.00656 z"
     fill-rule="evenodd"
     id="path91" />
  <path
     fill="#efefef"
     d="m 506.27037,33.76116 h -16.12598 v 15.24409 h 16.12598 z"
     fill-rule="evenodd"
     id="path93" />
  <path
     fill="#eeeeee"
     d="m 510.84167,103.29265 h -13.6413 c -1.88348,0 -3.41034,3.58466 -3.41034,8.00656 0,4.42191 1.52686,8.00656 3.41034,8.00656 h 13.6413 v 0 c 1.88348,0 3.41034,-3.58465 3.41034,-8.00656 0,-4.4219 -1.52686,-8.00656 -3.41034,-8.00656 z"
     fill-rule="evenodd"
     id="path95" />
  <path
     fill="#000000"
     fill-opacity="0"
     d="m 497.20037,119.30577 c 1.88348,0 3.41034,-3.58466 3.41034,-8.00656 0,-4.42191 -1.52686,-8.00656 -3.41034,-8.00656"
     fill-rule="evenodd"
     id="path97" />
  <path
     fill="#000000"
     fill-opacity="0"
     d="m 510.84167,103.29265 h -13.6413 c -1.88348,0 -3.41034,3.58466 -3.41034,8.00656 0,4.42191 1.52686,8.00656 3.41034,8.00656 h 13.6413 v 0 c 1.88348,0 3.41034,-3.58465 3.41034,-8.00656 0,-4.4219 -1.52686,-8.00656 -3.41034,-8.00656 z"
     fill-rule="evenodd"
     id="path99" />
  <path
     stroke="#595959"
     stroke-width="1"
     stroke-linejoin="round"
     stroke-linecap="butt"
     d="m 497.20037,119.30577 c 1.88348,0 3.41034,-3.58466 3.41034,-8.00656 0,-4.42191 -1.52686,-8.00656 -3.41034,-8.00656"
     fill-rule="evenodd"
     id="path101" />
  <path
     stroke="#595959"
     stroke-width="1"
     stroke-linejoin="round"
     stroke-linecap="butt"
     d="m 510.84167,103.29265 h -13.6413 c -1.88348,0 -3.41034,3.58466 -3.41034,8.00656 0,4.42191 1.52686,8.00656 3.41034,8.00656 h 13.6413 v 0 c 1.88348,0 3.41034,-3.58465 3.41034,-8.00656 0,-4.4219 -1.52686,-8.00656 -3.41034,-8.00656 z"
     fill-rule="evenodd"
     id="path103" />
  <path
     fill="#eeeeee"
     d="m 484.13473,103.29265 h 13.6413 c 1.88348,0 3.41034,3.58466 3.41034,8.00656 0,4.42191 -1.52686,8.00656 -3.41034,8.00656 h -13.6413 v 0 c -1.88348,0 -3.41034,-3.58465 -3.41034,-8.00656 0,-4.4219 1.52686,-8.00656 3.41034,-8.00656 z"
     fill-rule="evenodd"
     id="path105" />
  <path
     fill="#000000"
     fill-opacity="0"
     d="m 497.77603,119.30577 c -1.88348,0 -3.41034,-3.58466 -3.41034,-8.00656 0,-4.42191 1.52686,-8.00656 3.41034,-8.00656"
     fill-rule="evenodd"
     id="path107" />
  <path
     fill="#000000"
     fill-opacity="0"
     d="m 484.13473,103.29265 h 13.6413 c 1.88348,0 3.41034,3.58466 3.41034,8.00656 0,4.42191 -1.52686,8.00656 -3.41034,8.00656 h -13.6413 v 0 c -1.88348,0 -3.41034,-3.58465 -3.41034,-8.00656 0,-4.4219 1.52686,-8.00656 3.41034,-8.00656 z"
     fill-rule="evenodd"
     id="path109" />
  <path
     stroke="#595959"
     stroke-width="1"
     stroke-linejoin="round"
     stroke-linecap="butt"
     d="m 497.77603,119.30577 c -1.88348,0 -3.41034,-3.58466 -3.41034,-8.00656 0,-4.42191 1.52686,-8.00656 3.41034,-8.00656"
     fill-rule="evenodd"
     id="path111" />
  <path
     stroke="#595959"
     stroke-width="1"
     stroke-linejoin="round"
     stroke-linecap="butt"
     d="m 484.13473,103.29265 h 13.6413 c 1.88348,0 3.41034,3.58466 3.41034,8.00656 0,4.42191 -1.52686,8.00656 -3.41034,8.00656 h -13.6413 v 0 c -1.88348,0 -3.41034,-3.58465 -3.41034,-8.00656 0,-4.4219 1.52686,-8.00656 3.41034,-8.00656 z"
     fill-rule="evenodd"
     id="path113" />
  <path
     fill="#efefef"
     d="m 506.27037,103.64829 h -16.12598 v 15.24409 h 16.12598 z"
     fill-rule="evenodd"
     id="path115" />
  <path
     fill="#eeeeee"
     d="m 510.84167,173.17978 h -13.6413 c -1.88348,0 -3.41034,3.58466 -3.41034,8.00656 0,4.42191 1.52686,8.00656 3.41034,8.00656 h 13.6413 v 0 c 1.88348,0 3.41034,-3.58465 3.41034,-8.00656 0,-4.4219 -1.52686,-8.00656 -3.41034,-8.00656 z"
     fill-rule="evenodd"
     id="path117" />
  <path
     fill="#000000"
     fill-opacity="0"
     d="m 497.20037,189.1929 c 1.88348,0 3.41034,-3.58466 3.41034,-8.00656 0,-4.42191 -1.52686,-8.00656 -3.41034,-8.00656"
     fill-rule="evenodd"
     id="path119" />
  <path
     fill="#000000"
     fill-opacity="0"
     d="m 510.84167,173.17978 h -13.6413 c -1.88348,0 -3.41034,3.58466 -3.41034,8.00656 0,4.42191 1.52686,8.00656 3.41034,8.00656 h 13.6413 v 0 c 1.88348,0 3.41034,-3.58465 3.41034,-8.00656 0,-4.4219 -1.52686,-8.00656 -3.41034,-8.00656 z"
     fill-rule="evenodd"
     id="path121" />
  <path
     stroke="#595959"
     stroke-width="1"
     stroke-linejoin="round"
     stroke-linecap="butt"
     d="m 497.20037,189.1929 c 1.88348,0 3.41034,-3.58466 3.41034,-8.00656 0,-4.42191 -1.52686,-8.00656 -3.41034,-8.00656"
     fill-rule="evenodd"
     id="path123" />
  <path
     stroke="#595959"
     stroke-width="1"
     stroke-linejoin="round"
     stroke-linecap="butt"
     d="m 510.84167,173.17978 h -13.6413 c -1.88348,0 -3.41034,3.58466 -3.41034,8.00656 0,4.42191 1.52686,8.00656 3.41034,8.00656 h 13.6413 v 0 c 1.88348,0 3.41034,-3.58465 3.41034,-8.00656 0,-4.4219 -1.52686,-8.00656 -3.41034,-8.00656 z"
     fill-rule="evenodd"
     id="path125" />
  <path
     fill="#eeeeee"
     d="m 484.13473,173.17978 h 13.6413 c 1.88348,0 3.41034,3.58466 3.41034,8.00656 0,4.42191 -1.52686,8.00656 -3.41034,8.00656 h -13.6413 v 0 c -1.88348,0 -3.41034,-3.58465 -3.41034,-8.00656 0,-4.4219 1.52686,-8.00656 3.41034,-8.00656 z"
     fill-rule="evenodd"
     id="path127" />
  <path
     fill="#000000"
     fill-opacity="0"
     d="m 497.77603,189.1929 c -1.88348,0 -3.41034,-3.58466 -3.41034,-8.00656 0,-4.42191 1.52686,-8.00656 3.41034,-8.00656"
     fill-rule="evenodd"
     id="path129" />
  <path
     fill="#000000"
     fill-opacity="0"
     d="m 484.13473,173.17978 h 13.6413 c 1.88348,0 3.41034,3.58466 3.41034,8.00656 0,4.42191 -1.52686,8.00656 -3.41034,8.00656 h -13.6413 v 0 c -1.88348,0 -3.41034,-3.58465 -3.41034,-8.00656 0,-4.4219 1.52686,-8.00656 3.41034,-8.00656 z"
     fill-rule="evenodd"
     id="path131" />
  <path
     stroke="#595959"
     stroke-width="1"
     stroke-linejoin="round"
     stroke-linecap="butt"
     d="m 497.77603,189.1929 c -1.88348,0 -3.41034,-3.58466 -3.41034,-8.00656 0,-4.42191 1.52686,-8.00656 3.41034,-8.00656"
     fill-rule="evenodd"
     id="path133" />
  <path
     stroke="#595959"
     stroke-width="1"
     stroke-linejoin="round"
     stroke-linecap="butt"
     d="m 484.13473,173.17978 h 13.6413 c 1.88348,0 3.41034,3.58466 3.41034,8.00656 0,4.42191 -1.52686,8.00656 -3.41034,8.00656 h -13.6413 v 0 c -1.88348,0 -3.41034,-3.58465 -3.41034,-8.00656 0,-4.4219 1.52686,-8.00656 3.41034,-8.00656 z"
     fill-rule="evenodd"
     id="path135" />
  <path
     fill="#efefef"
     d="m 506.27037,173.53543 h -16.12598 v 15.24408 h 16.12598 z"
     fill-rule="evenodd"
     id="path137" />
  <path
     fill="#eeeeee"
     d="m 354.40069,173.17978 h -13.6413 c -1.88345,0 -3.4103,3.58466 -3.4103,8.00656 0,4.42191 1.52685,8.00656 3.4103,8.00656 h 13.6413 v 0 c 1.88348,0 3.41034,-3.58465 3.41034,-8.00656 0,-4.4219 -1.52686,-8.00656 -3.41034,-8.00656 z"
     fill-rule="evenodd"
     id="path139" />
  <path
     fill="#000000"
     fill-opacity="0"
     d="m 340.7594,189.1929 c 1.88348,0 3.41034,-3.58466 3.41034,-8.00656 0,-4.42191 -1.52686,-8.00656 -3.41034,-8.00656"
     fill-rule="evenodd"
     id="path141" />
  <path
     fill="#000000"
     fill-opacity="0"
     d="m 354.40069,173.17978 h -13.6413 c -1.88345,0 -3.4103,3.58466 -3.4103,8.00656 0,4.42191 1.52685,8.00656 3.4103,8.00656 h 13.6413 v 0 c 1.88348,0 3.41034,-3.58465 3.41034,-8.00656 0,-4.4219 -1.52686,-8.00656 -3.41034,-8.00656 z"
     fill-rule="evenodd"
     id="path143" />
  <path
     stroke="#595959"
     stroke-width="1"
     stroke-linejoin="round"
     stroke-linecap="butt"
     d="m 340.7594,189.1929 c 1.88348,0 3.41034,-3.58466 3.41034,-8.00656 0,-4.42191 -1.52686,-8.00656 -3.41034,-8.00656"
     fill-rule="evenodd"
     id="path145" />
  <path
     stroke="#595959"
     stroke-width="1"
     stroke-linejoin="round"
     stroke-linecap="butt"
     d="m 354.40069,173.17978 h -13.6413 c -1.88345,0 -3.4103,3.58466 -3.4103,8.00656 0,4.42191 1.52685,8.00656 3.4103,8.00656 h 13.6413 v 0 c 1.88348,0 3.41034,-3.58465 3.41034,-8.00656 0,-4.4219 -1.52686,-8.00656 -3.41034,-8.00656 z"
     fill-rule="evenodd"
     id="path147" />
  <path
     fill="#eeeeee"
     d="m 327.69379,173.17978 h 13.6413 c 1.88348,0 3.41034,3.58466 3.41034,8.00656 0,4.42191 -1.52686,8.00656 -3.41034,8.00656 h -13.6413 v 0 c -1.88345,0 -3.41031,-3.58465 -3.41031,-8.00656 0,-4.4219 1.52686,-8.00656 3.41031,-8.00656 z"
     fill-rule="evenodd"
     id="path149" />
  <path
     fill="#000000"
     fill-opacity="0"
     d="m 341.33507,189.1929 c -1.88345,0 -3.41031,-3.58466 -3.41031,-8.00656 0,-4.42191 1.52686,-8.00656 3.41031,-8.00656"
     fill-rule="evenodd"
     id="path151" />
  <path
     fill="#000000"
     fill-opacity="0"
     d="m 327.69379,173.17978 h 13.6413 c 1.88348,0 3.41034,3.58466 3.41034,8.00656 0,4.42191 -1.52686,8.00656 -3.41034,8.00656 h -13.6413 v 0 c -1.88345,0 -3.41031,-3.58465 -3.41031,-8.00656 0,-4.4219 1.52686,-8.00656 3.41031,-8.00656 z"
     fill-rule="evenodd"
     id="path153" />
  <path
     stroke="#595959"
     stroke-width="1"
     stroke-linejoin="round"
     stroke-linecap="butt"
     d="m 341.33507,189.1929 c -1.88345,0 -3.41031,-3.58466 -3.41031,-8.00656 0,-4.42191 1.52686,-8.00656 3.41031,-8.00656"
     fill-rule="evenodd"
     id="path155" />
  <path
     stroke="#595959"
     stroke-width="1"
     stroke-linejoin="round"
     stroke-linecap="butt"
     d="m 327.69379,173.17978 h 13.6413 c 1.88348,0 3.41034,3.58466 3.41034,8.00656 0,4.42191 -1.52686,8.00656 -3.41034,8.00656 h -13.6413 v 0 c -1.88345,0 -3.41031,-3.58465 -3.41031,-8.00656 0,-4.4219 1.52686,-8.00656 3.41031,-8.00656 z"
     fill-rule="evenodd"
     id="path157" />
  <path
     fill="#efefef"
     d="M 349.82941,173.53543 H 333.7034 v 15.24408 h 16.12601 z"
     fill-rule="evenodd"
     id="path159" />
  <path
     fill="#eeeeee"
     d="m 352.98993,103.29265 h -13.6413 c -1.88345,0 -3.4103,3.58466 -3.4103,8.00656 0,4.42191 1.52685,8.00656 3.4103,8.00656 h 13.6413 v 0 c 1.88348,0 3.41034,-3.58465 3.41034,-8.00656 0,-4.4219 -1.52686,-8.00656 -3.41034,-8.00656 z"
     fill-rule="evenodd"
     id="path161" />
  <path
     fill="#000000"
     fill-opacity="0"
     d="m 339.34863,119.30577 c 1.88348,0 3.41034,-3.58466 3.41034,-8.00656 0,-4.42191 -1.52686,-8.00656 -3.41034,-8.00656"
     fill-rule="evenodd"
     id="path163" />
  <path
     fill="#000000"
     fill-opacity="0"
     d="m 352.98993,103.29265 h -13.6413 c -1.88345,0 -3.4103,3.58466 -3.4103,8.00656 0,4.42191 1.52685,8.00656 3.4103,8.00656 h 13.6413 v 0 c 1.88348,0 3.41034,-3.58465 3.41034,-8.00656 0,-4.4219 -1.52686,-8.00656 -3.41034,-8.00656 z"
     fill-rule="evenodd"
     id="path165" />
  <path
     stroke="#595959"
     stroke-width="1"
     stroke-linejoin="round"
     stroke-linecap="butt"
     d="m 339.34863,119.30577 c 1.88348,0 3.41034,-3.58466 3.41034,-8.00656 0,-4.42191 -1.52686,-8.00656 -3.41034,-8.00656"
     fill-rule="evenodd"
     id="path167" />
  <path
     stroke="#595959"
     stroke-width="1"
     stroke-linejoin="round"
     stroke-linecap="butt"
     d="m 352.98993,103.29265 h -13.6413 c -1.88345,0 -3.4103,3.58466 -3.4103,8.00656 0,4.42191 1.52685,8.00656 3.4103,8.00656 h 13.6413 v 0 c 1.88348,0 3.41034,-3.58465 3.41034,-8.00656 0,-4.4219 -1.52686,-8.00656 -3.41034,-8.00656 z"
     fill-rule="evenodd"
     id="path169" />
  <path
     fill="#eeeeee"
     d="m 326.28302,103.29265 h 13.6413 c 1.88348,0 3.41034,3.58466 3.41034,8.00656 0,4.42191 -1.52686,8.00656 -3.41034,8.00656 h -13.6413 v 0 c -1.88345,0 -3.41031,-3.58465 -3.41031,-8.00656 0,-4.4219 1.52686,-8.00656 3.41031,-8.00656 z"
     fill-rule="evenodd"
     id="path171" />
  <path
     fill="#000000"
     fill-opacity="0"
     d="m 339.92432,119.30577 c -1.88345,0 -3.41031,-3.58466 -3.41031,-8.00656 0,-4.42191 1.52686,-8.00656 3.41031,-8.00656"
     fill-rule="evenodd"
     id="path173" />
  <path
     fill="#000000"
     fill-opacity="0"
     d="m 326.28302,103.29265 h 13.6413 c 1.88348,0 3.41034,3.58466 3.41034,8.00656 0,4.42191 -1.52686,8.00656 -3.41034,8.00656 h -13.6413 v 0 c -1.88345,0 -3.41031,-3.58465 -3.41031,-8.00656 0,-4.4219 1.52686,-8.00656 3.41031,-8.00656 z"
     fill-rule="evenodd"
     id="path175" />
  <path
     stroke="#595959"
     stroke-width="1"
     stroke-linejoin="round"
     stroke-linecap="butt"
     d="m 339.92432,119.30577 c -1.88345,0 -3.41031,-3.58466 -3.41031,-8.00656 0,-4.42191 1.52686,-8.00656 3.41031,-8.00656"
     fill-rule="evenodd"
     id="path177" />
  <path
     stroke="#595959"
     stroke-width="1"
     stroke-linejoin="round"
     stroke-linecap="butt"
     d="m 326.28302,103.29265 h 13.6413 c 1.88348,0 3.41034,3.58466 3.41034,8.00656 0,4.42191 -1.52686,8.00656 -3.41034,8.00656 h -13.6413 v 0 c -1.88345,0 -3.41031,-3.58465 -3.41031,-8.00656 0,-4.4219 1.52686,-8.00656 3.41031,-8.00656 z"
     fill-rule="evenodd"
     id="path179" />
  <path
     fill="#efefef"
     d="m 348.41864,103.64829 h -16.12598 v 15.24409 h 16.12598 z"
     fill-rule="evenodd"
     id="path181" />
  <path
     fill="#9fc5e8"
     d="m 110.85736,172.32105 35.1467,19.10773 -3,5.51181 17.02653,-5.02899 -5.02653,-17.01828 -3,5.51181 -35.1467,-19.1077 z"
     fill-rule="evenodd"
     id="path183" />
  <path
     stroke="#595959"
     stroke-width="1"
     stroke-linejoin="round"
     stroke-linecap="butt"
     d="m 110.85736,172.32105 35.1467,19.10773 -3,5.51181 17.02653,-5.02899 -5.02653,-17.01828 -3,5.51181 -35.1467,-19.1077 z"
     fill-rule="evenodd"
     id="path185" />
  <path
     fill="#eeeeee"
     d="m 354.39937,33.40551 h -13.6413 c -1.88345,0 -3.4103,3.58467 -3.4103,8.00656 0,4.42191 1.52685,8.00656 3.4103,8.00656 h 13.6413 v 0 c 1.88348,0 3.41034,-3.58465 3.41034,-8.00656 0,-4.42189 -1.52686,-8.00656 -3.41034,-8.00656 z"
     fill-rule="evenodd"
     id="path187" />
  <path
     fill="#000000"
     fill-opacity="0"
     d="m 340.75809,49.41863 c 1.88348,0 3.41034,-3.58466 3.41034,-8.00656 0,-4.42189 -1.52686,-8.00656 -3.41034,-8.00656"
     fill-rule="evenodd"
     id="path189" />
  <path
     fill="#000000"
     fill-opacity="0"
     d="m 354.39937,33.40551 h -13.6413 c -1.88345,0 -3.4103,3.58467 -3.4103,8.00656 0,4.42191 1.52685,8.00656 3.4103,8.00656 h 13.6413 v 0 c 1.88348,0 3.41034,-3.58465 3.41034,-8.00656 0,-4.42189 -1.52686,-8.00656 -3.41034,-8.00656 z"
     fill-rule="evenodd"
     id="path191" />
  <path
     stroke="#595959"
     stroke-width="1"
     stroke-linejoin="round"
     stroke-linecap="butt"
     d="m 340.75809,49.41863 c 1.88348,0 3.41034,-3.58466 3.41034,-8.00656 0,-4.42189 -1.52686,-8.00656 -3.41034,-8.00656"
     fill-rule="evenodd"
     id="path193" />
  <path
     stroke="#595959"
     stroke-width="1"
     stroke-linejoin="round"
     stroke-linecap="butt"
     d="m 354.39937,33.40551 h -13.6413 c -1.88345,0 -3.4103,3.58467 -3.4103,8.00656 0,4.42191 1.52685,8.00656 3.4103,8.00656 h 13.6413 v 0 c 1.88348,0 3.41034,-3.58465 3.41034,-8.00656 0,-4.42189 -1.52686,-8.00656 -3.41034,-8.00656 z"
     fill-rule="evenodd"
     id="path195" />
  <path
     fill="#eeeeee"
     d="m 327.69247,33.40551 h 13.6413 c 1.88348,0 3.41034,3.58467 3.41034,8.00656 0,4.42191 -1.52686,8.00656 -3.41034,8.00656 h -13.6413 v 0 c -1.88345,0 -3.41031,-3.58465 -3.41031,-8.00656 0,-4.42189 1.52686,-8.00656 3.41031,-8.00656 z"
     fill-rule="evenodd"
     id="path197" />
  <path
     fill="#000000"
     fill-opacity="0"
     d="m 341.33377,49.41863 c -1.88345,0 -3.41031,-3.58466 -3.41031,-8.00656 0,-4.42189 1.52686,-8.00656 3.41031,-8.00656"
     fill-rule="evenodd"
     id="path199" />
  <path
     fill="#000000"
     fill-opacity="0"
     d="m 327.69247,33.40551 h 13.6413 c 1.88348,0 3.41034,3.58467 3.41034,8.00656 0,4.42191 -1.52686,8.00656 -3.41034,8.00656 h -13.6413 v 0 c -1.88345,0 -3.41031,-3.58465 -3.41031,-8.00656 0,-4.42189 1.52686,-8.00656 3.41031,-8.00656 z"
     fill-rule="evenodd"
     id="path201" />
  <path
     stroke="#595959"
     stroke-width="1"
     stroke-linejoin="round"
     stroke-linecap="butt"
     d="m 341.33377,49.41863 c -1.88345,0 -3.41031,-3.58466 -3.41031,-8.00656 0,-4.42189 1.52686,-8.00656 3.41031,-8.00656"
     fill-rule="evenodd"
     id="path203" />
  <path
     stroke="#595959"
     stroke-width="1"
     stroke-linejoin="round"
     stroke-linecap="butt"
     d="m 327.69247,33.40551 h 13.6413 c 1.88348,0 3.41034,3.58467 3.41034,8.00656 0,4.42191 -1.52686,8.00656 -3.41034,8.00656 h -13.6413 v 0 c -1.88345,0 -3.41031,-3.58465 -3.41031,-8.00656 0,-4.42189 1.52686,-8.00656 3.41031,-8.00656 z"
     fill-rule="evenodd"
     id="path205" />
  <path
     fill="#efefef"
     d="m 349.82809,33.76116 h -16.12601 v 15.24409 h 16.12601 z"
     fill-rule="evenodd"
     id="path207" />
  <path
     fill="#000000"
     fill-opacity="0"
     d="m 253.63517,214.7034 h 17.5433 v 74.29922 h -17.5433 z"
     fill-rule="evenodd"
     id="path209" />
  <path
     fill="#000000"
     d="m 263.86597,229.07941 v -1.875 h 1.875 v 1.875 z"
     fill-rule="nonzero"
     id="path211" />
  <path
     fill="#000000"
     d="m 263.86597,235.79941 v -1.875 h 1.875 v 1.875 z"
     fill-rule="nonzero"
     id="path213" />
  <path
     fill="#000000"
     d="m 263.86597,242.51941 v -1.875 h 1.875 v 1.875 z"
     fill-rule="nonzero"
     id="path215" />
  <path
     fill="#000000"
     fill-opacity="0"
     d="m 405.63517,214.7034 h 17.5433 v 74.29922 h -17.5433 z"
     fill-rule="evenodd"
     id="path217" />
  <path
     fill="#000000"
     d="m 415.86597,229.07941 v -1.875 h 1.875 v 1.875 z"
     fill-rule="nonzero"
     id="path219" />
  <path
     fill="#000000"
     d="m 415.86597,235.79941 v -1.875 h 1.875 v 1.875 z"
     fill-rule="nonzero"
     id="path221" />
  <path
     fill="#000000"
     d="m 415.86597,242.51941 v -1.875 h 1.875 v 1.875 z"
     fill-rule="nonzero"
     id="path223" />
</svg>
