<?xml version="1.0" encoding="UTF-8" standalone="no"?>
<svg
   version="1.1"
   viewBox="0 0 509.87399 146.85039"
   fill="none"
   stroke="none"
   stroke-linecap="square"
   stroke-miterlimit="10"
   id="svg249"
   sodipodi:docname="mlr3pipelines mlr3book graphics(1).svg"
   width="509.87399"
   height="146.85039"
   inkscape:version="1.1.2 (0a00cf5339, 2022-02-04)"
   xmlns:inkscape="http://www.inkscape.org/namespaces/inkscape"
   xmlns:sodipodi="http://sodipodi.sourceforge.net/DTD/sodipodi-0.dtd"
   xmlns="http://www.w3.org/2000/svg"
   xmlns:svg="http://www.w3.org/2000/svg">
  <defs
     id="defs253" />
  <sodipodi:namedview
     id="namedview251"
     pagecolor="#ffffff"
     bordercolor="#666666"
     borderopacity="1.0"
     inkscape:pageshadow="2"
     inkscape:pageopacity="0.0"
     inkscape:pagecheckerboard="0"
     showgrid="false"
     inkscape:zoom="1.3197917"
     inkscape:cx="197.75848"
     inkscape:cy="20.836622"
     inkscape:window-width="1918"
     inkscape:window-height="1198"
     inkscape:window-x="3840"
     inkscape:window-y="0"
     inkscape:window-maximized="1"
     inkscape:current-layer="svg249" />
  <clipPath
     id="g1fb832bab84_0_143.0">
    <path
       d="M 0,0 H 960 V 540 H 0 Z"
       clip-rule="nonzero"
       id="path2" />
  </clipPath>
  <path
     fill="#f3f3f3"
     d="m 1,14.35667 v 0 C 1,6.97999 6.97998,1 14.35666,1 h 481.1607 c 3.54242,0 6.9397,1.40722 9.44458,3.91207 2.50488,2.50487 3.91205,5.90218 3.91205,9.4446 v 118.13708 c 0,7.37665 -5.97998,13.35663 -13.35663,13.35663 H 14.35666 C 6.97998,145.85038 1,139.8704 1,132.49375 Z"
     fill-rule="evenodd"
     id="path7" />
  <path
     stroke="#000000"
     stroke-width="2"
     stroke-linejoin="round"
     stroke-linecap="butt"
     d="m 1,14.35667 v 0 C 1,6.97999 6.97998,1 14.35666,1 h 481.1607 c 3.54242,0 6.9397,1.40722 9.44458,3.91207 2.50488,2.50487 3.91205,5.90218 3.91205,9.4446 v 118.13708 c 0,7.37665 -5.97998,13.35663 -13.35663,13.35663 H 14.35666 C 6.97998,145.85038 1,139.8704 1,132.49375 Z"
     fill-rule="evenodd"
     id="path9" />
  <path
     fill="#d0e0e3"
     d="m 71.98558,22.81644 v 0 c 0,-4.45026 3.60767,-8.05792 8.05792,-8.05792 h 109.42749 c 2.13709,0 4.18665,0.84897 5.69779,2.36011 1.51117,1.51113 2.3601,3.56069 2.3601,5.69781 v 32.23062 c 0,4.45029 -3.60763,8.05792 -8.05789,8.05792 H 80.0435 v 0 c -4.45025,0 -8.05792,-3.60763 -8.05792,-8.05792 z"
     fill-rule="evenodd"
     id="path11" />
  <path
     stroke="#000000"
     stroke-width="2"
     stroke-linejoin="round"
     stroke-linecap="butt"
     d="m 71.98558,22.81644 v 0 c 0,-4.45026 3.60767,-8.05792 8.05792,-8.05792 h 109.42749 c 2.13709,0 4.18665,0.84897 5.69779,2.36011 1.51117,1.51113 2.3601,3.56069 2.3601,5.69781 v 32.23062 c 0,4.45029 -3.60763,8.05792 -8.05789,8.05792 H 80.0435 v 0 c -4.45025,0 -8.05792,-3.60763 -8.05792,-8.05792 z"
     fill-rule="evenodd"
     id="path13" />
  <path
     fill="#000000"
     d="m 92.19758,36.38612 q 1.54687,0 2.26562,1.10937 0.71875,1.10938 0.71875,3.10938 0,1.90625 -0.82812,3.07812 -0.82813,1.15625 -2.34375,1.15625 -1.35938,0 -2.125,-0.92187 v 3.82812 l -1.40625,0.17188 V 36.57362 h 1.21875 l 0.10937,1.09375 q 0.4375,-0.625 1.0625,-0.95313 0.625,-0.32812 1.32813,-0.32812 z m -0.53125,7.29687 q 2,0 2,-3.07812 0,-3.09375 -1.82813,-3.09375 -0.59375,0 -1.09375,0.35937 -0.48437,0.34375 -0.85937,0.89063 v 3.9375 q 0.3125,0.48437 0.76562,0.73437 0.46875,0.25 1.01563,0.25 z m 8.9487,-7.29687 q 1.70312,0 2.64062,1.14062 0.95313,1.125 0.95313,3.07813 0,1.25 -0.4375,2.21875 -0.42188,0.95312 -1.23438,1.48437 -0.8125,0.53125 -1.9375,0.53125 -1.6875,0 -2.64062,-1.125 -0.95313,-1.14062 -0.95313,-3.09375 0,-1.25 0.42188,-2.20312 0.4375,-0.96875 1.25,-1.5 0.8125,-0.53125 1.9375,-0.53125 z m 0,1.14062 q -2.09375,0 -2.09375,3.09375 0,3.07813 2.07812,3.07813 2.09375,0 2.09375,-3.09375 0,-3.07813 -2.07812,-3.07813 z m 8.82663,-5.21875 q -0.79688,1.1875 -1.26563,2.125 -0.46875,0.92188 -0.75,2.10938 -0.26562,1.17187 -0.26562,2.75 0,1.5625 0.26562,2.75 0.28125,1.17187 0.75,2.10937 0.46875,0.9375 1.26563,2.10938 l -0.89063,0.60937 q -1.01562,-1.4375 -1.5625,-2.35937 -0.54687,-0.9375 -0.92187,-2.21875 -0.375,-1.29688 -0.375,-3 0,-1.70313 0.375,-3 0.375,-1.29688 0.92187,-2.21875 0.54688,-0.9375 1.5625,-2.375 z m 1.76321,5.79688 -0.23437,-4.01563 h 1.51562 l -0.23437,4.01563 z m 2.76563,0 -0.23438,-4.01563 h 1.51563 l -0.23438,4.01563 z m 5.68133,-1.71875 q 0.82813,0 1.48438,0.23437 0.67187,0.23438 1.26562,0.6875 l -0.59375,0.89063 q -0.54687,-0.35938 -1.04687,-0.51563 -0.5,-0.17187 -1.0625,-0.17187 -0.6875,0 -1.09375,0.28125 -0.39063,0.28125 -0.39063,0.78125 0,0.48437 0.375,0.76562 0.375,0.26563 1.35938,0.53125 1.34375,0.34375 2.01562,0.92188 0.67188,0.57812 0.67188,1.59375 0,1.1875 -0.9375,1.82812 -0.92188,0.625 -2.25,0.625 -1.84375,0 -3.04688,-1.0625 l 0.75,-0.85937 q 1.01563,0.78125 2.26563,0.78125 0.79687,0 1.26562,-0.32813 0.46875,-0.32812 0.46875,-0.89062 0,-0.42188 -0.17187,-0.67188 -0.17188,-0.25 -0.59375,-0.4375 -0.40625,-0.20312 -1.20313,-0.40625 -1.28125,-0.34375 -1.85937,-0.90625 -0.57813,-0.57812 -0.57813,-1.45312 0,-0.625 0.375,-1.125 0.375,-0.51563 1.04688,-0.79688 0.67187,-0.29687 1.48437,-0.29687 z m 11.08014,3.98437 q 0,0.35938 -0.0312,0.71875 h -5.15625 q 0.0937,1.34375 0.67188,1.96875 0.57812,0.625 1.5,0.625 0.59375,0 1.07812,-0.15625 0.48438,-0.17187 1.03125,-0.54687 l 0.60938,0.84375 q -1.28125,1.01562 -2.82813,1.01562 -1.67187,0 -2.625,-1.09375 -0.9375,-1.10937 -0.9375,-3.04687 0,-1.26563 0.40625,-2.23438 0.40625,-0.96875 1.15625,-1.51562 0.76563,-0.5625 1.79688,-0.5625 1.60937,0 2.46875,1.0625 0.85937,1.0625 0.85937,2.92187 z m -1.40625,-0.40625 q 0,-1.20312 -0.46875,-1.82812 -0.46875,-0.625 -1.42187,-0.625 -1.73438,0 -1.89063,2.54687 h 3.78125 z m 5.2601,4.875 q -0.78125,0 -1.23437,-0.46875 -0.45313,-0.46875 -0.45313,-1.3125 v -9.73437 l 1.42188,-0.17188 v 9.875 q 0,0.34375 0.10937,0.5 0.10938,0.14063 0.39063,0.14063 0.29687,0 0.51562,-0.0937 l 0.375,0.98437 q -0.51562,0.28125 -1.125,0.28125 z m 8.91449,-4.46875 q 0,0.35938 -0.0312,0.71875 h -5.15625 q 0.0937,1.34375 0.67188,1.96875 0.57812,0.625 1.5,0.625 0.59375,0 1.07812,-0.15625 0.48438,-0.17187 1.03125,-0.54687 l 0.60938,0.84375 q -1.28125,1.01562 -2.82813,1.01562 -1.67187,0 -2.625,-1.09375 -0.9375,-1.10937 -0.9375,-3.04687 0,-1.26563 0.40625,-2.23438 0.40625,-0.96875 1.15625,-1.51562 0.76563,-0.5625 1.79688,-0.5625 1.60937,0 2.46875,1.0625 0.85937,1.0625 0.85937,2.92187 z m -1.40625,-0.40625 q 0,-1.20312 -0.46875,-1.82812 -0.46875,-0.625 -1.42187,-0.625 -1.73438,0 -1.89063,2.54687 h 3.78125 z m 6.60386,-3.57812 q 0.71875,0 1.3125,0.21875 0.59375,0.20312 1.14062,0.65625 l -0.67187,0.89062 q -0.42188,-0.3125 -0.82813,-0.45312 -0.40625,-0.14063 -0.90625,-0.14063 -0.96875,0 -1.51562,0.78125 -0.54688,0.78125 -0.54688,2.3125 0,1.53125 0.53125,2.26563 0.54688,0.71875 1.53125,0.71875 0.48438,0 0.875,-0.14063 0.40625,-0.14062 0.89063,-0.46875 l 0.64062,0.92188 q -1.09375,0.89062 -2.45312,0.89062 -1.64063,0 -2.59375,-1.09375 -0.9375,-1.10937 -0.9375,-3.0625 0,-1.28125 0.42187,-2.25 0.4375,-0.96875 1.21875,-1.5 0.79688,-0.54687 1.89063,-0.54687 z m 8.45184,7.89062 q -0.79688,0.5625 -1.8125,0.5625 -1.01563,0 -1.59375,-0.59375 -0.57813,-0.59375 -0.57813,-1.70312 v -4.875 h -1.40625 v -1.09375 h 1.40625 v -1.82813 l 1.40625,-0.17187 v 2 h 1.92188 l -0.15625,1.09375 h -1.76563 v 4.8125 q 0,0.625 0.21875,0.90625 0.23438,0.28125 0.75,0.28125 0.48438,0 1.07813,-0.3125 z m 0.92847,-6.17187 -0.23438,-4.01563 h 1.51563 l -0.23438,4.01563 z m 2.76562,0 -0.23437,-4.01563 h 1.51562 l -0.23437,4.01563 z m 2.48886,4.59375 q 0.45313,0 0.75,0.3125 0.3125,0.3125 0.3125,0.75 0,0.48437 -0.26562,1.09375 l -1.03125,2.34375 h -1.01563 l 0.625,-2.54688 q -0.20312,-0.15625 -0.32812,-0.375 -0.10938,-0.23437 -0.10938,-0.51562 0,-0.4375 0.29688,-0.75 0.3125,-0.3125 0.76562,-0.3125 z m 10.89697,-3.75 3.21875,5.70312 h -1.65625 l -2.4375,-4.67187 -2.46875,4.67187 h -1.5625 l 3.17188,-5.625 -2.89063,-4.9375 h 1.65625 l 2.125,3.96875 2.14063,-3.96875 h 1.5625 z m 4.79282,-7.25 q 1.01563,1.4375 1.5625,2.375 0.54688,0.92187 0.92188,2.21875 0.375,1.29687 0.375,3 0,1.70312 -0.375,3 -0.375,1.28125 -0.92188,2.21875 -0.54687,0.92187 -1.5625,2.35937 l -0.89062,-0.60937 q 0.79687,-1.17188 1.26562,-2.10938 0.46875,-0.9375 0.73438,-2.10937 0.26562,-1.1875 0.26562,-2.75 0,-1.57813 -0.26562,-2.75 -0.26563,-1.1875 -0.73438,-2.10938 -0.46875,-0.9375 -1.26562,-2.125 z"
     fill-rule="nonzero"
     id="path15" />
  <path
     fill="#d0e0e3"
     d="m 71.99048,90.92088 v 0 c 0,-4.45026 3.60764,-8.05789 8.05789,-8.05789 h 109.42749 c 2.13709,0 4.18665,0.84894 5.69782,2.36008 1.51114,1.51116 2.3601,3.56072 2.3601,5.69781 v 32.23065 c 0,4.45026 -3.60766,8.05789 -8.05792,8.05789 H 80.04837 v 0 c -4.45025,0 -8.05789,-3.60763 -8.05789,-8.05789 z"
     fill-rule="evenodd"
     id="path17" />
  <path
     stroke="#000000"
     stroke-width="2"
     stroke-linejoin="round"
     stroke-linecap="butt"
     d="m 71.99048,90.92088 v 0 c 0,-4.45026 3.60764,-8.05789 8.05789,-8.05789 h 109.42749 c 2.13709,0 4.18665,0.84894 5.69782,2.36008 1.51114,1.51116 2.3601,3.56072 2.3601,5.69781 v 32.23065 c 0,4.45026 -3.60766,8.05789 -8.05792,8.05789 H 80.04837 v 0 c -4.45025,0 -8.05789,-3.60763 -8.05789,-8.05789 z"
     fill-rule="evenodd"
     id="path19" />
  <path
     fill="#000000"
     d="m 86.33941,104.49058 q 1.54687,0 2.26562,1.10938 0.71875,1.10937 0.71875,3.10937 0,1.90625 -0.82812,3.07813 -0.82813,1.15625 -2.34375,1.15625 -1.35938,0 -2.125,-0.92188 v 3.82813 l -1.40625,0.17187 v -11.34375 h 1.21875 l 0.10937,1.09375 q 0.4375,-0.625 1.0625,-0.95312 0.625,-0.32813 1.32813,-0.32813 z m -0.53125,7.29688 q 2,0 2,-3.07813 0,-3.09375 -1.82813,-3.09375 -0.59375,0 -1.09375,0.35938 -0.48437,0.34375 -0.85937,0.89062 v 3.9375 q 0.3125,0.48438 0.76562,0.73438 0.46875,0.25 1.01563,0.25 z m 8.94867,-7.29688 q 1.70312,0 2.64062,1.14063 0.95313,1.125 0.95313,3.07812 0,1.25 -0.4375,2.21875 -0.42188,0.95313 -1.23438,1.48438 -0.8125,0.53125 -1.9375,0.53125 -1.6875,0 -2.64062,-1.125 -0.95313,-1.14063 -0.95313,-3.09375 0,-1.25 0.42188,-2.20313 0.4375,-0.96875 1.25,-1.5 0.8125,-0.53125 1.9375,-0.53125 z m 0,1.14063 q -2.09375,0 -2.09375,3.09375 0,3.07812 2.07812,3.07812 2.09375,0 2.09375,-3.09375 0,-3.07812 -2.07812,-3.07812 z m 8.82666,-5.21875 q -0.79688,1.1875 -1.26563,2.125 -0.46875,0.92187 -0.75,2.10937 -0.26562,1.17188 -0.26562,2.75 0,1.5625 0.26562,2.75 0.28125,1.17188 0.75,2.10938 0.46875,0.9375 1.26563,2.10937 l -0.89063,0.60938 q -1.01562,-1.4375 -1.5625,-2.35938 -0.54687,-0.9375 -0.92187,-2.21875 -0.375,-1.29687 -0.375,-3 0,-1.70312 0.375,-3 0.375,-1.29687 0.92187,-2.21875 0.54688,-0.9375 1.5625,-2.375 z m 1.76318,5.79687 -0.23437,-4.01562 h 1.51562 l -0.23437,4.01562 z m 2.76563,0 -0.23438,-4.01562 h 1.51563 l -0.23438,4.01562 z m 5.68136,-1.71875 q 0.82813,0 1.48438,0.23438 0.67187,0.23437 1.26562,0.6875 l -0.59375,0.89062 q -0.54687,-0.35937 -1.04687,-0.51562 -0.5,-0.17188 -1.0625,-0.17188 -0.6875,0 -1.09375,0.28125 -0.39063,0.28125 -0.39063,0.78125 0,0.48438 0.375,0.76563 0.375,0.26562 1.35938,0.53125 1.34375,0.34375 2.01562,0.92187 0.67188,0.57813 0.67188,1.59375 0,1.1875 -0.9375,1.82813 -0.92188,0.625 -2.25,0.625 -1.84375,0 -3.04688,-1.0625 l 0.75,-0.85938 q 1.01563,0.78125 2.26563,0.78125 0.79687,0 1.26562,-0.32812 0.46875,-0.32813 0.46875,-0.89063 0,-0.42187 -0.17187,-0.67187 -0.17188,-0.25 -0.59375,-0.4375 -0.40625,-0.20313 -1.20313,-0.40625 -1.28125,-0.34375 -1.85937,-0.90625 -0.57813,-0.57813 -0.57813,-1.45313 0,-0.625 0.375,-1.125 0.375,-0.51562 1.04688,-0.79687 0.67187,-0.29688 1.48437,-0.29688 z m 11.08011,3.98438 q 0,0.35937 -0.0312,0.71875 h -5.15625 q 0.0937,1.34375 0.67188,1.96875 0.57812,0.625 1.5,0.625 0.59375,0 1.07812,-0.15625 0.48438,-0.17188 1.03125,-0.54688 l 0.60938,0.84375 q -1.28125,1.01563 -2.82813,1.01563 -1.67187,0 -2.625,-1.09375 -0.9375,-1.10938 -0.9375,-3.04688 0,-1.26562 0.40625,-2.23437 0.40625,-0.96875 1.15625,-1.51563 0.76563,-0.5625 1.79688,-0.5625 1.60937,0 2.46875,1.0625 0.85937,1.0625 0.85937,2.92188 z m -1.40625,-0.40625 q 0,-1.20313 -0.46875,-1.82813 -0.46875,-0.625 -1.42187,-0.625 -1.73438,0 -1.89063,2.54688 h 3.78125 z m 5.2601,4.875 q -0.78125,0 -1.23437,-0.46875 -0.45313,-0.46875 -0.45313,-1.3125 v -9.73438 l 1.42188,-0.17187 v 9.875 q 0,0.34375 0.10937,0.5 0.10938,0.14062 0.39063,0.14062 0.29687,0 0.51562,-0.0937 l 0.375,0.98438 q -0.51562,0.28125 -1.125,0.28125 z m 8.91449,-4.46875 q 0,0.35937 -0.0312,0.71875 h -5.15625 q 0.0937,1.34375 0.67188,1.96875 0.57812,0.625 1.5,0.625 0.59375,0 1.07812,-0.15625 0.48438,-0.17188 1.03125,-0.54688 l 0.60938,0.84375 q -1.28125,1.01563 -2.82813,1.01563 -1.67187,0 -2.625,-1.09375 -0.9375,-1.10938 -0.9375,-3.04688 0,-1.26562 0.40625,-2.23437 0.40625,-0.96875 1.15625,-1.51563 0.76563,-0.5625 1.79688,-0.5625 1.60937,0 2.46875,1.0625 0.85937,1.0625 0.85937,2.92188 z m -1.40625,-0.40625 q 0,-1.20313 -0.46875,-1.82813 -0.46875,-0.625 -1.42187,-0.625 -1.73438,0 -1.89063,2.54688 h 3.78125 z m 6.60386,-3.57813 q 0.71875,0 1.3125,0.21875 0.59375,0.20313 1.14062,0.65625 l -0.67187,0.89063 q -0.42188,-0.3125 -0.82813,-0.45313 -0.40625,-0.14062 -0.90625,-0.14062 -0.96875,0 -1.51562,0.78125 -0.54688,0.78125 -0.54688,2.3125 0,1.53125 0.53125,2.26562 0.54688,0.71875 1.53125,0.71875 0.48438,0 0.875,-0.14062 0.40625,-0.14063 0.89063,-0.46875 l 0.64062,0.92187 q -1.09375,0.89063 -2.45312,0.89063 -1.64063,0 -2.59375,-1.09375 -0.9375,-1.10938 -0.9375,-3.0625 0,-1.28125 0.42187,-2.25 0.4375,-0.96875 1.21875,-1.5 0.79688,-0.54688 1.89063,-0.54688 z m 8.45187,7.89063 q -0.79688,0.5625 -1.8125,0.5625 -1.01563,0 -1.59375,-0.59375 -0.57813,-0.59375 -0.57813,-1.70313 v -4.875 h -1.40625 v -1.09375 h 1.40625 v -1.82812 l 1.40625,-0.17188 v 2 h 1.92188 l -0.15625,1.09375 h -1.76563 v 4.8125 q 0,0.625 0.21875,0.90625 0.23438,0.28125 0.75,0.28125 0.48438,0 1.07813,-0.3125 z m 0.92847,-6.17188 -0.23438,-4.01562 h 1.51563 l -0.23438,4.01562 z m 2.76562,0 -0.23437,-4.01562 h 1.51562 l -0.23437,4.01562 z m 2.48883,4.59375 q 0.45313,0 0.75,0.3125 0.3125,0.3125 0.3125,0.75 0,0.48438 -0.26562,1.09375 l -1.03125,2.34375 h -1.01563 l 0.625,-2.54687 q -0.20312,-0.15625 -0.32812,-0.375 -0.10938,-0.23438 -0.10938,-0.51563 0,-0.4375 0.29688,-0.75 0.3125,-0.3125 0.76562,-0.3125 z"
     fill-rule="nonzero"
     id="path21" />
  <path
     fill="#ff0000"
     d="m 174.16784,107.22494 v 3.375 h -1.28125 v -2.20313 h -4.48438 v -1.17187 z m 5.92969,-0.17188 3.21875,5.70313 h -1.65625 l -2.4375,-4.67188 -2.46875,4.67188 h -1.5625 l 3.17187,-5.625 -2.89062,-4.9375 h 1.65625 l 2.125,3.96875 2.14062,-3.96875 h 1.5625 z"
     fill-rule="nonzero"
     id="path23" />
  <path
     fill="#000000"
     d="m 184.89038,99.80308 q 1.01562,1.4375 1.5625,2.375 0.54687,0.92188 0.92187,2.21875 0.375,1.29688 0.375,3 0,1.70313 -0.375,3 -0.375,1.28125 -0.92187,2.21875 -0.54688,0.92188 -1.5625,2.35938 l -0.89063,-0.60938 q 0.79688,-1.17187 1.26563,-2.10937 0.46875,-0.9375 0.73437,-2.10938 0.26563,-1.1875 0.26563,-2.75 0,-1.57812 -0.26563,-2.75 -0.26562,-1.1875 -0.73437,-2.10937 -0.46875,-0.9375 -1.26563,-2.125 z"
     fill-rule="nonzero"
     id="path25" />
  <path
     fill="#d0e0e3"
     d="m 320.47903,31.31538 v 0 c 0,-11.62866 9.42688,-21.05554 21.05554,-21.05554 h 121.88892 c 5.58429,0 10.93982,2.21835 14.88849,6.16702 3.94873,3.9487 6.16705,9.30426 6.16705,14.88852 v 84.21963 c 0,11.62867 -9.42688,21.05555 -21.05554,21.05555 H 341.53457 v 0 c -11.62866,0 -21.05554,-9.42688 -21.05554,-21.05555 z"
     fill-rule="evenodd"
     id="path27" />
  <path
     stroke="#000000"
     stroke-width="2"
     stroke-linejoin="round"
     stroke-linecap="butt"
     d="m 320.47903,31.31538 v 0 c 0,-11.62866 9.42688,-21.05554 21.05554,-21.05554 h 121.88892 c 5.58429,0 10.93982,2.21835 14.88849,6.16702 3.94873,3.9487 6.16705,9.30426 6.16705,14.88852 v 84.21963 c 0,11.62867 -9.42688,21.05555 -21.05554,21.05555 H 341.53457 v 0 c -11.62866,0 -21.05554,-9.42688 -21.05554,-21.05555 z"
     fill-rule="evenodd"
     id="path29" />
  <path
     fill="#000000"
     d="m 342.64431,70.87959 q 1.54687,0 2.26562,1.10937 0.71875,1.10938 0.71875,3.10938 0,1.90625 -0.82812,3.07812 -0.82813,1.15625 -2.34375,1.15625 -1.35938,0 -2.125,-0.92187 v 3.82812 l -1.40625,0.17188 V 71.06709 h 1.21875 l 0.10937,1.09375 q 0.4375,-0.625 1.0625,-0.95313 0.625,-0.32812 1.32813,-0.32812 z m -0.53125,7.29687 q 2,0 2,-3.07812 0,-3.09375 -1.82813,-3.09375 -0.59375,0 -1.09375,0.35937 -0.48437,0.34375 -0.85937,0.89063 v 3.9375 q 0.3125,0.48437 0.76562,0.73437 0.46875,0.25 1.01563,0.25 z m 8.94873,-7.29687 q 1.70312,0 2.64062,1.14062 0.95313,1.125 0.95313,3.07813 0,1.25 -0.4375,2.21875 -0.42188,0.95312 -1.23438,1.48437 -0.8125,0.53125 -1.9375,0.53125 -1.6875,0 -2.64062,-1.125 -0.95313,-1.14062 -0.95313,-3.09375 0,-1.25 0.42188,-2.20312 0.4375,-0.96875 1.25,-1.5 0.8125,-0.53125 1.9375,-0.53125 z m 0,1.14062 q -2.09375,0 -2.09375,3.09375 0,3.07813 2.07812,3.07813 2.09375,0 2.09375,-3.09375 0,-3.07813 -2.07812,-3.07813 z m 8.8266,-5.21875 q -0.79688,1.1875 -1.26563,2.125 -0.46875,0.92188 -0.75,2.10938 -0.26562,1.17187 -0.26562,2.75 0,1.5625 0.26562,2.75 0.28125,1.17187 0.75,2.10937 0.46875,0.9375 1.26563,2.10938 l -0.89063,0.60937 q -1.01562,-1.4375 -1.5625,-2.35937 -0.54687,-0.9375 -0.92187,-2.21875 -0.375,-1.29688 -0.375,-3 0,-1.70313 0.375,-3 0.375,-1.29688 0.92187,-2.21875 0.54688,-0.9375 1.5625,-2.375 z m 1.76324,5.79688 -0.23437,-4.01563 h 1.51562 l -0.23437,4.01563 z m 2.76563,0 -0.23438,-4.01563 h 1.51563 l -0.23438,4.01563 z m 6.39715,-3.8125 q -0.64062,0 -0.92187,0.28125 -0.28125,0.28125 -0.28125,0.875 v 1.125 h 1.96875 l -0.15625,1.09375 h -1.8125 v 6.98437 h -1.40625 v -6.98437 h -1.4375 v -1.09375 h 1.4375 v -1.10938 q 0,-1.03125 0.65625,-1.67187 0.67187,-0.64063 1.875,-0.64063 0.54687,0 0.98437,0.10938 0.4375,0.0937 0.9375,0.3125 l -0.4375,1.01562 q -0.6875,-0.29687 -1.40625,-0.29687 z m 8.34101,6.07812 q 0,0.35938 -0.0312,0.71875 h -5.15625 q 0.0937,1.34375 0.67187,1.96875 0.57813,0.625 1.5,0.625 0.59375,0 1.07813,-0.15625 0.48437,-0.17187 1.03125,-0.54687 l 0.60937,0.84375 q -1.28125,1.01562 -2.82812,1.01562 -1.67188,0 -2.625,-1.09375 -0.9375,-1.10937 -0.9375,-3.04687 0,-1.26563 0.40625,-2.23438 0.40625,-0.96875 1.15625,-1.51562 0.76562,-0.5625 1.79687,-0.5625 1.60938,0 2.46875,1.0625 0.85938,1.0625 0.85938,2.92187 z m -1.40625,-0.40625 q 0,-1.20312 -0.46875,-1.82812 -0.46875,-0.625 -1.42188,-0.625 -1.73437,0 -1.89062,2.54687 h 3.78125 z m 8.93487,2.79688 q 0,0.5 0.17188,0.73437 0.17187,0.23438 0.51562,0.35938 l -0.32812,0.98437 q -0.625,-0.0781 -1.01563,-0.34375 -0.375,-0.28125 -0.5625,-0.875 -0.8125,1.21875 -2.40625,1.21875 -1.20312,0 -1.89062,-0.67187 -0.6875,-0.6875 -0.6875,-1.76563 0,-1.29687 0.92187,-1.98437 0.9375,-0.6875 2.64063,-0.6875 h 1.23437 v -0.59375 q 0,-0.85938 -0.42187,-1.21875 -0.40625,-0.375 -1.26563,-0.375 -0.89062,0 -2.17187,0.42187 l -0.35938,-1.01562 q 1.51563,-0.5625 2.79688,-0.5625 1.42187,0 2.125,0.70312 0.70312,0.70313 0.70312,1.98438 z m -3.29687,1.01562 q 1.20312,0 1.89062,-1.25 v -1.85937 h -1.04687 q -2.25,0 -2.25,1.65625 0,0.71875 0.34375,1.09375 0.35937,0.35937 1.0625,0.35937 z m 10.276,0.5 q -0.79688,0.5625 -1.8125,0.5625 -1.01563,0 -1.59375,-0.59375 -0.57813,-0.59375 -0.57813,-1.70312 v -4.875 h -1.40625 v -1.09375 h 1.40625 v -1.82813 l 1.40625,-0.17187 v 2 h 1.92188 l -0.15625,1.09375 h -1.76563 v 4.8125 q 0,0.625 0.21875,0.90625 0.23438,0.28125 0.75,0.28125 0.48438,0 1.07813,-0.3125 z m 7.47101,0.375 h -1.21875 l -0.10938,-1.25 q -0.45312,0.75 -1.0625,1.09375 -0.59375,0.34375 -1.45312,0.34375 -1.04688,0 -1.65625,-0.64062 -0.59375,-0.65625 -0.59375,-1.82813 v -5.79687 h 1.42187 v 5.64062 q 0,0.82813 0.28125,1.17188 0.29688,0.34375 0.95313,0.34375 1.1875,0 2.01562,-1.39063 v -5.76562 h 1.42188 z m 6.42096,-8.26562 q 0.42187,0 0.79687,0.0937 l -0.26562,1.375 q -0.35938,-0.0781 -0.70313,-0.0781 -0.75,0 -1.21875,0.54688 -0.45312,0.54687 -0.71875,1.71875 v 4.60937 h -1.40625 v -8.07812 h 1.21875 l 0.14063,1.64062 q 0.3125,-0.90625 0.85937,-1.35937 0.5625,-0.46875 1.29688,-0.46875 z m 8.05041,3.98437 q 0,0.35938 -0.0312,0.71875 h -5.15625 q 0.0937,1.34375 0.67188,1.96875 0.57812,0.625 1.5,0.625 0.59375,0 1.07812,-0.15625 0.48438,-0.17187 1.03125,-0.54687 l 0.60938,0.84375 q -1.28125,1.01562 -2.82813,1.01562 -1.67187,0 -2.625,-1.09375 -0.9375,-1.10937 -0.9375,-3.04687 0,-1.26563 0.40625,-2.23438 0.40625,-0.96875 1.15625,-1.51562 0.76563,-0.5625 1.79688,-0.5625 1.60937,0 2.46875,1.0625 0.85937,1.0625 0.85937,2.92187 z m -1.40625,-0.40625 q 0,-1.20312 -0.46875,-1.82812 -0.46875,-0.625 -1.42187,-0.625 -1.73438,0 -1.89063,2.54687 h 3.78125 z m 9.66638,4.6875 h -1.21875 l -0.10937,-1.25 q -0.45313,0.75 -1.0625,1.09375 -0.59375,0.34375 -1.45313,0.34375 -1.04687,0 -1.65625,-0.64062 -0.59375,-0.65625 -0.59375,-1.82813 v -5.79687 h 1.42188 v 5.64062 q 0,0.82813 0.28125,1.17188 0.29687,0.34375 0.95312,0.34375 1.1875,0 2.01563,-1.39063 v -5.76562 h 1.42187 z m 6.70221,-8.26562 q 1.10938,0 1.73438,0.67187 0.625,0.65625 0.625,1.79688 v 5.79687 h -1.42188 v -5.59375 q 0,-0.85937 -0.32812,-1.20312 -0.3125,-0.35938 -0.9375,-0.35938 -0.64063,0 -1.14063,0.375 -0.48437,0.35938 -0.92187,1.04688 v 5.73437 h -1.40625 v -8.07812 h 1.21875 l 0.125,1.20312 q 0.42187,-0.65625 1.04687,-1.01562 0.64063,-0.375 1.40625,-0.375 z m 6.59168,0.1875 v 8.07812 h -1.40625 v -8.07812 z m -0.70313,-3.875 q 0.4375,0 0.71875,0.28125 0.28125,0.26562 0.28125,0.6875 0,0.40625 -0.28125,0.67187 -0.28125,0.26563 -0.71875,0.26563 -0.4375,0 -0.71875,-0.26563 -0.26562,-0.26562 -0.26562,-0.67187 0,-0.42188 0.26562,-0.6875 0.28125,-0.28125 0.71875,-0.28125 z m 6.6507,3.6875 q 1.70312,0 2.64062,1.14062 0.95313,1.125 0.95313,3.07813 0,1.25 -0.4375,2.21875 -0.42188,0.95312 -1.23438,1.48437 -0.8125,0.53125 -1.9375,0.53125 -1.6875,0 -2.64062,-1.125 -0.95313,-1.14062 -0.95313,-3.09375 0,-1.25 0.42188,-2.20312 0.4375,-0.96875 1.25,-1.5 0.8125,-0.53125 1.9375,-0.53125 z m 0,1.14062 q -2.09375,0 -2.09375,3.09375 0,3.07813 2.07812,3.07813 2.09375,0 2.09375,-3.09375 0,-3.07813 -2.07812,-3.07813 z m 9.71722,-1.14062 q 1.10938,0 1.73438,0.67187 0.625,0.65625 0.625,1.79688 v 5.79687 h -1.42188 v -5.59375 q 0,-0.85937 -0.32812,-1.20312 -0.3125,-0.35938 -0.9375,-0.35938 -0.64063,0 -1.14063,0.375 -0.48437,0.35938 -0.92187,1.04688 v 5.73437 h -1.40625 v -8.07812 h 1.21875 l 0.125,1.20312 q 0.42187,-0.65625 1.04687,-1.01562 0.64063,-0.375 1.40625,-0.375 z m 4.73523,1.71875 -0.23437,-4.01563 h 1.51562 l -0.23437,4.01563 z m 2.76563,0 -0.23438,-4.01563 h 1.51563 l -0.23438,4.01563 z m 3.69403,-6.40625 q 1.01562,1.4375 1.5625,2.375 0.54687,0.92187 0.92187,2.21875 0.375,1.29687 0.375,3 0,1.70312 -0.375,3 -0.375,1.28125 -0.92187,2.21875 -0.54688,0.92187 -1.5625,2.35937 l -0.89063,-0.60937 q 0.79688,-1.17188 1.26563,-2.10938 0.46875,-0.9375 0.73437,-2.10937 0.26563,-1.1875 0.26563,-2.75 0,-1.57813 -0.26563,-2.75 -0.26562,-1.1875 -0.73437,-2.10938 -0.46875,-0.9375 -1.26563,-2.125 z"
     fill-rule="nonzero"
     id="path31" />
  <path
     fill="#eeeeee"
     d="m 483.38174,65.41889 h 13.6413 c 1.88348,0 3.41034,3.58466 3.41034,8.00656 0,4.42191 -1.52686,8.00656 -3.41034,8.00656 h -13.6413 v 0 c -1.88342,0 -3.41028,-3.58465 -3.41028,-8.00656 0,-4.4219 1.52686,-8.00656 3.41028,-8.00656 z"
     fill-rule="evenodd"
     id="path33" />
  <path
     fill="#000000"
     fill-opacity="0"
     d="m 497.02304,81.43201 c -1.88342,0 -3.41028,-3.58466 -3.41028,-8.00656 0,-4.42191 1.52686,-8.00656 3.41028,-8.00656"
     fill-rule="evenodd"
     id="path35" />
  <path
     fill="#000000"
     fill-opacity="0"
     d="m 483.38174,65.41889 h 13.6413 c 1.88348,0 3.41034,3.58466 3.41034,8.00656 0,4.42191 -1.52686,8.00656 -3.41034,8.00656 h -13.6413 v 0 c -1.88342,0 -3.41028,-3.58465 -3.41028,-8.00656 0,-4.4219 1.52686,-8.00656 3.41028,-8.00656 z"
     fill-rule="evenodd"
     id="path37" />
  <path
     stroke="#595959"
     stroke-width="1"
     stroke-linejoin="round"
     stroke-linecap="butt"
     d="m 497.02304,81.43201 c -1.88342,0 -3.41028,-3.58466 -3.41028,-8.00656 0,-4.42191 1.52686,-8.00656 3.41028,-8.00656"
     fill-rule="evenodd"
     id="path39" />
  <path
     stroke="#595959"
     stroke-width="1"
     stroke-linejoin="round"
     stroke-linecap="butt"
     d="m 483.38174,65.41889 h 13.6413 c 1.88348,0 3.41034,3.58466 3.41034,8.00656 0,4.42191 -1.52686,8.00656 -3.41034,8.00656 h -13.6413 v 0 c -1.88342,0 -3.41028,-3.58465 -3.41028,-8.00656 0,-4.4219 1.52686,-8.00656 3.41028,-8.00656 z"
     fill-rule="evenodd"
     id="path41" />
  <path
     fill="#d0e0e3"
     d="m 221.98558,22.81644 v 0 c 0,-4.45026 3.60764,-8.05792 8.05789,-8.05792 h 57.7425 c 2.13708,0 4.18664,0.84897 5.69775,2.36011 1.51117,1.51113 2.36011,3.56069 2.36011,5.69781 v 32.23062 c 0,4.45029 -3.60761,8.05792 -8.05786,8.05792 h -57.7425 c -4.45025,0 -8.05789,-3.60763 -8.05789,-8.05792 z"
     fill-rule="evenodd"
     id="path43" />
  <path
     stroke="#000000"
     stroke-width="2"
     stroke-linejoin="round"
     stroke-linecap="butt"
     d="m 221.98558,22.81644 v 0 c 0,-4.45026 3.60764,-8.05792 8.05789,-8.05792 h 57.7425 c 2.13708,0 4.18664,0.84897 5.69775,2.36011 1.51117,1.51113 2.36011,3.56069 2.36011,5.69781 v 32.23062 c 0,4.45029 -3.60761,8.05792 -8.05786,8.05792 h -57.7425 c -4.45025,0 -8.05789,-3.60763 -8.05789,-8.05792 z"
     fill-rule="evenodd"
     id="path45" />
  <path
     fill="#000000"
     d="m 238.12848,36.38612 q 1.54687,0 2.26562,1.10937 0.71875,1.10938 0.71875,3.10938 0,1.90625 -0.82812,3.07812 -0.82813,1.15625 -2.34375,1.15625 -1.35938,0 -2.125,-0.92187 v 3.82812 l -1.40625,0.17188 V 36.57362 h 1.21875 l 0.10937,1.09375 q 0.4375,-0.625 1.0625,-0.95313 0.625,-0.32812 1.32813,-0.32812 z m -0.53125,7.29687 q 2,0 2,-3.07812 0,-3.09375 -1.82813,-3.09375 -0.59375,0 -1.09375,0.35937 -0.48437,0.34375 -0.85937,0.89063 v 3.9375 q 0.3125,0.48437 0.76562,0.73437 0.46875,0.25 1.01563,0.25 z m 8.94867,-7.29687 q 1.70312,0 2.64062,1.14062 0.95313,1.125 0.95313,3.07813 0,1.25 -0.4375,2.21875 -0.42188,0.95312 -1.23438,1.48437 -0.8125,0.53125 -1.9375,0.53125 -1.6875,0 -2.64062,-1.125 -0.95313,-1.14062 -0.95313,-3.09375 0,-1.25 0.42188,-2.20312 0.4375,-0.96875 1.25,-1.5 0.8125,-0.53125 1.9375,-0.53125 z m 0,1.14062 q -2.09375,0 -2.09375,3.09375 0,3.07813 2.07812,3.07813 2.09375,0 2.09375,-3.09375 0,-3.07813 -2.07812,-3.07813 z m 8.82666,-5.21875 q -0.79688,1.1875 -1.26563,2.125 -0.46875,0.92188 -0.75,2.10938 -0.26562,1.17187 -0.26562,2.75 0,1.5625 0.26562,2.75 0.28125,1.17187 0.75,2.10937 0.46875,0.9375 1.26563,2.10938 l -0.89063,0.60937 q -1.01562,-1.4375 -1.5625,-2.35937 -0.54687,-0.9375 -0.92187,-2.21875 -0.375,-1.29688 -0.375,-3 0,-1.70313 0.375,-3 0.375,-1.29688 0.92187,-2.21875 0.54688,-0.9375 1.5625,-2.375 z m 5.09131,4.07813 q 1.70312,0 2.64062,1.14062 0.95313,1.125 0.95313,3.07813 0,1.25 -0.4375,2.21875 -0.42188,0.95312 -1.23438,1.48437 -0.8125,0.53125 -1.9375,0.53125 -1.6875,0 -2.64062,-1.125 -0.95313,-1.14062 -0.95313,-3.09375 0,-1.25 0.42188,-2.20312 0.4375,-0.96875 1.25,-1.5 0.8125,-0.53125 1.9375,-0.53125 z m 0,1.14062 q -2.09375,0 -2.09375,3.09375 0,3.07813 2.07812,3.07813 2.09375,0 2.09375,-3.09375 0,-3.07813 -2.07812,-3.07813 z m 9.63916,-1.14062 q 1.54687,0 2.26562,1.10937 0.71875,1.10938 0.71875,3.10938 0,1.90625 -0.82812,3.07812 -0.82813,1.15625 -2.34375,1.15625 -1.35938,0 -2.125,-0.92187 v 3.82812 l -1.40625,0.17188 V 36.57362 h 1.21875 l 0.10937,1.09375 q 0.4375,-0.625 1.0625,-0.95313 0.625,-0.32812 1.32813,-0.32812 z m -0.53125,7.29687 q 2,0 2,-3.07812 0,-3.09375 -1.82813,-3.09375 -0.59375,0 -1.09375,0.35937 -0.48437,0.34375 -0.85937,0.89063 v 3.9375 q 0.3125,0.48437 0.76562,0.73437 0.46875,0.25 1.01563,0.25 z m 8.65075,-9.28125 v 10.25 h -1.40625 v -8.75 l -2.39062,1.45313 -0.625,-1 3.17187,-1.95313 z m 3.18396,-2.70312 q 1.01563,1.4375 1.5625,2.375 0.54688,0.92187 0.92188,2.21875 0.375,1.29687 0.375,3 0,1.70312 -0.375,3 -0.375,1.28125 -0.92188,2.21875 -0.54687,0.92187 -1.5625,2.35937 l -0.89062,-0.60937 q 0.79687,-1.17188 1.26562,-2.10938 0.46875,-0.9375 0.73438,-2.10937 0.26562,-1.1875 0.26562,-2.75 0,-1.57813 -0.26562,-2.75 -0.26563,-1.1875 -0.73438,-2.10938 -0.46875,-0.9375 -1.26562,-2.125 z"
     fill-rule="nonzero"
     id="path47" />
  <path
     fill="#d0e0e3"
     d="m 222.06958,90.92011 v 0 c 0,-4.45026 3.60767,-8.05792 8.05789,-8.05792 h 57.74249 c 2.13709,0 4.18665,0.84897 5.69776,2.36011 1.51117,1.51116 2.36011,3.56073 2.36011,5.69781 v 32.23065 c 0,4.45026 -3.60761,8.05789 -8.05786,8.05789 h -57.7425 c -4.45022,0 -8.05789,-3.60763 -8.05789,-8.05789 z"
     fill-rule="evenodd"
     id="path49" />
  <path
     stroke="#000000"
     stroke-width="2"
     stroke-linejoin="round"
     stroke-linecap="butt"
     d="m 222.06958,90.92011 v 0 c 0,-4.45026 3.60767,-8.05792 8.05789,-8.05792 h 57.74249 c 2.13709,0 4.18665,0.84897 5.69776,2.36011 1.51117,1.51116 2.36011,3.56073 2.36011,5.69781 v 32.23065 c 0,4.45026 -3.60761,8.05789 -8.05786,8.05789 h -57.7425 c -4.45022,0 -8.05789,-3.60763 -8.05789,-8.05789 z"
     fill-rule="evenodd"
     id="path51" />
  <path
     fill="#000000"
     d="m 237.50728,104.48982 q 1.54688,0 2.26563,1.10937 0.71875,1.10938 0.71875,3.10938 0,1.90625 -0.82813,3.07812 -0.82812,1.15625 -2.34375,1.15625 -1.35937,0 -2.125,-0.92187 v 3.82812 l -1.40625,0.17188 v -11.34375 h 1.21875 l 0.10938,1.09375 q 0.4375,-0.625 1.0625,-0.95313 0.625,-0.32812 1.32812,-0.32812 z m -0.53125,7.29687 q 2,0 2,-3.07812 0,-3.09375 -1.82812,-3.09375 -0.59375,0 -1.09375,0.35937 -0.48438,0.34375 -0.85938,0.89063 v 3.9375 q 0.3125,0.48437 0.76563,0.73437 0.46875,0.25 1.01562,0.25 z m 8.94867,-7.29687 q 1.70312,0 2.64062,1.14062 0.95313,1.125 0.95313,3.07813 0,1.25 -0.4375,2.21875 -0.42188,0.95312 -1.23438,1.48437 -0.8125,0.53125 -1.9375,0.53125 -1.6875,0 -2.64062,-1.125 -0.95313,-1.14062 -0.95313,-3.09375 0,-1.25 0.42188,-2.20312 0.4375,-0.96875 1.25,-1.5 0.8125,-0.53125 1.9375,-0.53125 z m 0,1.14062 q -2.09375,0 -2.09375,3.09375 0,3.07813 2.07812,3.07813 2.09375,0 2.09375,-3.09375 0,-3.07813 -2.07812,-3.07813 z m 8.82666,-5.21875 q -0.79688,1.1875 -1.26563,2.125 -0.46875,0.92188 -0.75,2.10938 -0.26562,1.17187 -0.26562,2.75 0,1.5625 0.26562,2.75 0.28125,1.17187 0.75,2.10937 0.46875,0.9375 1.26563,2.10938 l -0.89063,0.60937 q -1.01562,-1.4375 -1.5625,-2.35937 -0.54687,-0.9375 -0.92187,-2.21875 -0.375,-1.29688 -0.375,-3 0,-1.70313 0.375,-3 0.375,-1.29688 0.92187,-2.21875 0.54688,-0.9375 1.5625,-2.375 z m 5.09131,4.07813 q 1.70312,0 2.64062,1.14062 0.95313,1.125 0.95313,3.07813 0,1.25 -0.4375,2.21875 -0.42188,0.95312 -1.23438,1.48437 -0.8125,0.53125 -1.9375,0.53125 -1.6875,0 -2.64062,-1.125 -0.95313,-1.14062 -0.95313,-3.09375 0,-1.25 0.42188,-2.20312 0.4375,-0.96875 1.25,-1.5 0.8125,-0.53125 1.9375,-0.53125 z m 0,1.14062 q -2.09375,0 -2.09375,3.09375 0,3.07813 2.07812,3.07813 2.09375,0 2.09375,-3.09375 0,-3.07813 -2.07812,-3.07813 z m 9.63916,-1.14062 q 1.54687,0 2.26562,1.10937 0.71875,1.10938 0.71875,3.10938 0,1.90625 -0.82812,3.07812 -0.82813,1.15625 -2.34375,1.15625 -1.35938,0 -2.125,-0.92187 v 3.82812 l -1.40625,0.17188 v -11.34375 h 1.21875 l 0.10937,1.09375 q 0.4375,-0.625 1.0625,-0.95313 0.625,-0.32812 1.32813,-0.32812 z m -0.53125,7.29687 q 2,0 2,-3.07812 0,-3.09375 -1.82813,-3.09375 -0.59375,0 -1.09375,0.35937 -0.48437,0.34375 -0.85937,0.89063 v 3.9375 q 0.3125,0.48437 0.76562,0.73437 0.46875,0.25 1.01563,0.25 z m 7.65765,-9.4375 q 0.92188,0 1.60938,0.375 0.70312,0.35938 1.07812,1 0.39063,0.625 0.39063,1.42188 0,0.9375 -0.42188,1.79687 -0.42187,0.85938 -1.29687,1.85938 -0.875,1 -2.65625,2.76562 h 4.625 l -0.17188,1.1875 h -6.0625 v -1.125 q 2.0625,-2.125 2.92188,-3.10937 0.85937,-1 1.21875,-1.73438 0.375,-0.73437 0.375,-1.57812 0,-0.79688 -0.46875,-1.25 -0.45313,-0.45313 -1.21875,-0.45313 -0.625,0 -1.10938,0.26563 -0.46875,0.26562 -1.01562,0.85937 l -0.90625,-0.73437 q 0.625,-0.78125 1.39062,-1.15625 0.76563,-0.39063 1.71875,-0.39063 z m 5.58746,-2.54687 q 1.01563,1.4375 1.5625,2.375 0.54688,0.92187 0.92188,2.21875 0.375,1.29687 0.375,3 0,1.70312 -0.375,3 -0.375,1.28125 -0.92188,2.21875 -0.54687,0.92187 -1.5625,2.35937 l -0.89062,-0.60937 q 0.79687,-1.17188 1.26562,-2.10938 0.46875,-0.9375 0.73438,-2.10937 0.26562,-1.1875 0.26562,-2.75 0,-1.57813 -0.26562,-2.75 -0.26563,-1.1875 -0.73438,-2.10938 -0.46875,-0.9375 -1.26562,-2.125 z"
     fill-rule="nonzero"
     id="path53" />
  <path
     fill="#eeeeee"
     d="m 319.92188,30.83884 h -13.6413 c -1.88348,0 -3.41034,3.58466 -3.41034,8.00656 0,4.42191 1.52686,8.00656 3.41034,8.00656 h 13.6413 v 0 c 1.88348,0 3.41034,-3.58465 3.41034,-8.00656 0,-4.4219 -1.52686,-8.00656 -3.41034,-8.00656 z"
     fill-rule="evenodd"
     id="path55" />
  <path
     fill="#000000"
     fill-opacity="0"
     d="m 306.28058,46.85197 c 1.88348,0 3.41034,-3.58466 3.41034,-8.00656 0,-4.42191 -1.52686,-8.00656 -3.41034,-8.00656"
     fill-rule="evenodd"
     id="path57" />
  <path
     fill="#000000"
     fill-opacity="0"
     d="m 319.92188,30.83884 h -13.6413 c -1.88348,0 -3.41034,3.58466 -3.41034,8.00656 0,4.42191 1.52686,8.00656 3.41034,8.00656 h 13.6413 v 0 c 1.88348,0 3.41034,-3.58465 3.41034,-8.00656 0,-4.4219 -1.52686,-8.00656 -3.41034,-8.00656 z"
     fill-rule="evenodd"
     id="path59" />
  <path
     stroke="#595959"
     stroke-width="1"
     stroke-linejoin="round"
     stroke-linecap="butt"
     d="m 306.28058,46.85197 c 1.88348,0 3.41034,-3.58466 3.41034,-8.00656 0,-4.42191 -1.52686,-8.00656 -3.41034,-8.00656"
     fill-rule="evenodd"
     id="path61" />
  <path
     stroke="#595959"
     stroke-width="1"
     stroke-linejoin="round"
     stroke-linecap="butt"
     d="m 319.92188,30.83884 h -13.6413 c -1.88348,0 -3.41034,3.58466 -3.41034,8.00656 0,4.42191 1.52686,8.00656 3.41034,8.00656 h 13.6413 v 0 c 1.88348,0 3.41034,-3.58465 3.41034,-8.00656 0,-4.4219 -1.52686,-8.00656 -3.41034,-8.00656 z"
     fill-rule="evenodd"
     id="path63" />
  <path
     fill="#eeeeee"
     d="m 293.21498,30.83884 h 13.6413 c 1.88342,0 3.41027,3.58466 3.41027,8.00656 0,4.42191 -1.52685,8.00656 -3.41027,8.00656 h -13.6413 v 0 c -1.88348,0 -3.41034,-3.58465 -3.41034,-8.00656 0,-4.4219 1.52686,-8.00656 3.41034,-8.00656 z"
     fill-rule="evenodd"
     id="path65" />
  <path
     fill="#000000"
     fill-opacity="0"
     d="m 306.85628,46.85197 c -1.88348,0 -3.41034,-3.58466 -3.41034,-8.00656 0,-4.42191 1.52686,-8.00656 3.41034,-8.00656"
     fill-rule="evenodd"
     id="path67" />
  <path
     fill="#000000"
     fill-opacity="0"
     d="m 293.21498,30.83884 h 13.6413 c 1.88342,0 3.41027,3.58466 3.41027,8.00656 0,4.42191 -1.52685,8.00656 -3.41027,8.00656 h -13.6413 v 0 c -1.88348,0 -3.41034,-3.58465 -3.41034,-8.00656 0,-4.4219 1.52686,-8.00656 3.41034,-8.00656 z"
     fill-rule="evenodd"
     id="path69" />
  <path
     stroke="#595959"
     stroke-width="1"
     stroke-linejoin="round"
     stroke-linecap="butt"
     d="m 306.85628,46.85197 c -1.88348,0 -3.41034,-3.58466 -3.41034,-8.00656 0,-4.42191 1.52686,-8.00656 3.41034,-8.00656"
     fill-rule="evenodd"
     id="path71" />
  <path
     stroke="#595959"
     stroke-width="1"
     stroke-linejoin="round"
     stroke-linecap="butt"
     d="m 293.21498,30.83884 h 13.6413 c 1.88342,0 3.41027,3.58466 3.41027,8.00656 0,4.42191 -1.52685,8.00656 -3.41027,8.00656 h -13.6413 v 0 c -1.88348,0 -3.41034,-3.58465 -3.41034,-8.00656 0,-4.4219 1.52686,-8.00656 3.41034,-8.00656 z"
     fill-rule="evenodd"
     id="path73" />
  <path
     fill="#efefef"
     d="m 315.35061,31.1945 h -16.12604 v 15.24408 h 16.12604 z"
     fill-rule="evenodd"
     id="path75" />
  <path
     fill="#eeeeee"
     d="m 320.42188,99.02781 h -13.6413 c -1.88348,0 -3.41034,3.58469 -3.41034,8.00656 0,4.42191 1.52686,8.00659 3.41034,8.00659 h 13.6413 v 0 c 1.88348,0 3.41034,-3.58468 3.41034,-8.00659 0,-4.42187 -1.52686,-8.00656 -3.41034,-8.00656 z"
     fill-rule="evenodd"
     id="path77" />
  <path
     fill="#000000"
     fill-opacity="0"
     d="m 306.78058,115.04096 c 1.88348,0 3.41034,-3.58469 3.41034,-8.00659 0,-4.42188 -1.52686,-8.00656 -3.41034,-8.00656"
     fill-rule="evenodd"
     id="path79" />
  <path
     fill="#000000"
     fill-opacity="0"
     d="m 320.42188,99.02781 h -13.6413 c -1.88348,0 -3.41034,3.58469 -3.41034,8.00656 0,4.42191 1.52686,8.00659 3.41034,8.00659 h 13.6413 v 0 c 1.88348,0 3.41034,-3.58468 3.41034,-8.00659 0,-4.42187 -1.52686,-8.00656 -3.41034,-8.00656 z"
     fill-rule="evenodd"
     id="path81" />
  <path
     stroke="#595959"
     stroke-width="1"
     stroke-linejoin="round"
     stroke-linecap="butt"
     d="m 306.78058,115.04096 c 1.88348,0 3.41034,-3.58469 3.41034,-8.00659 0,-4.42188 -1.52686,-8.00656 -3.41034,-8.00656"
     fill-rule="evenodd"
     id="path83" />
  <path
     stroke="#595959"
     stroke-width="1"
     stroke-linejoin="round"
     stroke-linecap="butt"
     d="m 320.42188,99.02781 h -13.6413 c -1.88348,0 -3.41034,3.58469 -3.41034,8.00656 0,4.42191 1.52686,8.00659 3.41034,8.00659 h 13.6413 v 0 c 1.88348,0 3.41034,-3.58468 3.41034,-8.00659 0,-4.42187 -1.52686,-8.00656 -3.41034,-8.00656 z"
     fill-rule="evenodd"
     id="path85" />
  <path
     fill="#eeeeee"
     d="m 293.71498,99.02781 h 13.6413 c 1.88342,0 3.41027,3.58469 3.41027,8.00656 0,4.42191 -1.52685,8.00659 -3.41027,8.00659 h -13.6413 v 0 c -1.88348,0 -3.41034,-3.58468 -3.41034,-8.00659 0,-4.42187 1.52686,-8.00656 3.41034,-8.00656 z"
     fill-rule="evenodd"
     id="path87" />
  <path
     fill="#000000"
     fill-opacity="0"
     d="m 307.35628,115.04096 c -1.88348,0 -3.41034,-3.58469 -3.41034,-8.00659 0,-4.42188 1.52686,-8.00656 3.41034,-8.00656"
     fill-rule="evenodd"
     id="path89" />
  <path
     fill="#000000"
     fill-opacity="0"
     d="m 293.71498,99.02781 h 13.6413 c 1.88342,0 3.41027,3.58469 3.41027,8.00656 0,4.42191 -1.52685,8.00659 -3.41027,8.00659 h -13.6413 v 0 c -1.88348,0 -3.41034,-3.58468 -3.41034,-8.00659 0,-4.42187 1.52686,-8.00656 3.41034,-8.00656 z"
     fill-rule="evenodd"
     id="path91" />
  <path
     stroke="#595959"
     stroke-width="1"
     stroke-linejoin="round"
     stroke-linecap="butt"
     d="m 307.35628,115.04096 c -1.88348,0 -3.41034,-3.58469 -3.41034,-8.00659 0,-4.42188 1.52686,-8.00656 3.41034,-8.00656"
     fill-rule="evenodd"
     id="path93" />
  <path
     stroke="#595959"
     stroke-width="1"
     stroke-linejoin="round"
     stroke-linecap="butt"
     d="m 293.71498,99.02781 h 13.6413 c 1.88342,0 3.41027,3.58469 3.41027,8.00656 0,4.42191 -1.52685,8.00659 -3.41027,8.00659 h -13.6413 v 0 c -1.88348,0 -3.41034,-3.58468 -3.41034,-8.00659 0,-4.42187 1.52686,-8.00656 3.41034,-8.00656 z"
     fill-rule="evenodd"
     id="path95" />
  <path
     fill="#efefef"
     d="m 315.85061,99.38346 h -16.12604 v 15.24411 h 16.12604 z"
     fill-rule="evenodd"
     id="path97" />
  <path
     fill="#eeeeee"
     d="m 222.51803,30.92544 h -13.6413 c -1.88345,0 -3.4103,3.58466 -3.4103,8.00656 0,4.42191 1.52685,8.00656 3.4103,8.00656 h 13.6413 v 0 c 1.88348,0 3.41034,-3.58465 3.41034,-8.00656 0,-4.4219 -1.52686,-8.00656 -3.41034,-8.00656 z"
     fill-rule="evenodd"
     id="path99" />
  <path
     fill="#000000"
     fill-opacity="0"
     d="m 208.87674,46.93858 c 1.88348,0 3.41034,-3.58466 3.41034,-8.00656 0,-4.42191 -1.52686,-8.00656 -3.41034,-8.00656"
     fill-rule="evenodd"
     id="path101" />
  <path
     fill="#000000"
     fill-opacity="0"
     d="m 222.51803,30.92544 h -13.6413 c -1.88345,0 -3.4103,3.58466 -3.4103,8.00656 0,4.42191 1.52685,8.00656 3.4103,8.00656 h 13.6413 v 0 c 1.88348,0 3.41034,-3.58465 3.41034,-8.00656 0,-4.4219 -1.52686,-8.00656 -3.41034,-8.00656 z"
     fill-rule="evenodd"
     id="path103" />
  <path
     stroke="#595959"
     stroke-width="1"
     stroke-linejoin="round"
     stroke-linecap="butt"
     d="m 208.87674,46.93858 c 1.88348,0 3.41034,-3.58466 3.41034,-8.00656 0,-4.42191 -1.52686,-8.00656 -3.41034,-8.00656"
     fill-rule="evenodd"
     id="path105" />
  <path
     stroke="#595959"
     stroke-width="1"
     stroke-linejoin="round"
     stroke-linecap="butt"
     d="m 222.51803,30.92544 h -13.6413 c -1.88345,0 -3.4103,3.58466 -3.4103,8.00656 0,4.42191 1.52685,8.00656 3.4103,8.00656 h 13.6413 v 0 c 1.88348,0 3.41034,-3.58465 3.41034,-8.00656 0,-4.4219 -1.52686,-8.00656 -3.41034,-8.00656 z"
     fill-rule="evenodd"
     id="path107" />
  <path
     fill="#eeeeee"
     d="m 195.81112,30.92544 h 13.6413 c 1.88348,0 3.41034,3.58466 3.41034,8.00656 0,4.42191 -1.52686,8.00656 -3.41034,8.00656 h -13.6413 v 0 c -1.88345,0 -3.41031,-3.58465 -3.41031,-8.00656 0,-4.4219 1.52686,-8.00656 3.41031,-8.00656 z"
     fill-rule="evenodd"
     id="path109" />
  <path
     fill="#000000"
     fill-opacity="0"
     d="m 209.45242,46.93858 c -1.88348,0 -3.41031,-3.58466 -3.41031,-8.00656 0,-4.42191 1.52683,-8.00656 3.41031,-8.00656"
     fill-rule="evenodd"
     id="path111" />
  <path
     fill="#000000"
     fill-opacity="0"
     d="m 195.81112,30.92544 h 13.6413 c 1.88348,0 3.41034,3.58466 3.41034,8.00656 0,4.42191 -1.52686,8.00656 -3.41034,8.00656 h -13.6413 v 0 c -1.88345,0 -3.41031,-3.58465 -3.41031,-8.00656 0,-4.4219 1.52686,-8.00656 3.41031,-8.00656 z"
     fill-rule="evenodd"
     id="path113" />
  <path
     stroke="#595959"
     stroke-width="1"
     stroke-linejoin="round"
     stroke-linecap="butt"
     d="m 209.45242,46.93858 c -1.88348,0 -3.41031,-3.58466 -3.41031,-8.00656 0,-4.42191 1.52683,-8.00656 3.41031,-8.00656"
     fill-rule="evenodd"
     id="path115" />
  <path
     stroke="#595959"
     stroke-width="1"
     stroke-linejoin="round"
     stroke-linecap="butt"
     d="m 195.81112,30.92544 h 13.6413 c 1.88348,0 3.41034,3.58466 3.41034,8.00656 0,4.42191 -1.52686,8.00656 -3.41034,8.00656 h -13.6413 v 0 c -1.88345,0 -3.41031,-3.58465 -3.41031,-8.00656 0,-4.4219 1.52686,-8.00656 3.41031,-8.00656 z"
     fill-rule="evenodd"
     id="path117" />
  <path
     fill="#efefef"
     d="m 217.94674,31.28111 h -16.12601 v 15.24408 h 16.12601 z"
     fill-rule="evenodd"
     id="path119" />
  <path
     fill="#eeeeee"
     d="m 222.51803,99.02781 h -13.6413 c -1.88345,0 -3.4103,3.58469 -3.4103,8.00656 0,4.42191 1.52685,8.00659 3.4103,8.00659 h 13.6413 v 0 c 1.88348,0 3.41034,-3.58468 3.41034,-8.00659 0,-4.42187 -1.52686,-8.00656 -3.41034,-8.00656 z"
     fill-rule="evenodd"
     id="path121" />
  <path
     fill="#000000"
     fill-opacity="0"
     d="m 208.87674,115.04096 c 1.88348,0 3.41034,-3.58469 3.41034,-8.00659 0,-4.42188 -1.52686,-8.00656 -3.41034,-8.00656"
     fill-rule="evenodd"
     id="path123" />
  <path
     fill="#000000"
     fill-opacity="0"
     d="m 222.51803,99.02781 h -13.6413 c -1.88345,0 -3.4103,3.58469 -3.4103,8.00656 0,4.42191 1.52685,8.00659 3.4103,8.00659 h 13.6413 v 0 c 1.88348,0 3.41034,-3.58468 3.41034,-8.00659 0,-4.42187 -1.52686,-8.00656 -3.41034,-8.00656 z"
     fill-rule="evenodd"
     id="path125" />
  <path
     stroke="#595959"
     stroke-width="1"
     stroke-linejoin="round"
     stroke-linecap="butt"
     d="m 208.87674,115.04096 c 1.88348,0 3.41034,-3.58469 3.41034,-8.00659 0,-4.42188 -1.52686,-8.00656 -3.41034,-8.00656"
     fill-rule="evenodd"
     id="path127" />
  <path
     stroke="#595959"
     stroke-width="1"
     stroke-linejoin="round"
     stroke-linecap="butt"
     d="m 222.51803,99.02781 h -13.6413 c -1.88345,0 -3.4103,3.58469 -3.4103,8.00656 0,4.42191 1.52685,8.00659 3.4103,8.00659 h 13.6413 v 0 c 1.88348,0 3.41034,-3.58468 3.41034,-8.00659 0,-4.42187 -1.52686,-8.00656 -3.41034,-8.00656 z"
     fill-rule="evenodd"
     id="path129" />
  <path
     fill="#eeeeee"
     d="m 195.81112,99.02781 h 13.6413 c 1.88348,0 3.41034,3.58469 3.41034,8.00656 0,4.42191 -1.52686,8.00659 -3.41034,8.00659 h -13.6413 v 0 c -1.88345,0 -3.41031,-3.58468 -3.41031,-8.00659 0,-4.42187 1.52686,-8.00656 3.41031,-8.00656 z"
     fill-rule="evenodd"
     id="path131" />
  <path
     fill="#000000"
     fill-opacity="0"
     d="m 209.45242,115.04096 c -1.88348,0 -3.41031,-3.58469 -3.41031,-8.00659 0,-4.42188 1.52683,-8.00656 3.41031,-8.00656"
     fill-rule="evenodd"
     id="path133" />
  <path
     fill="#000000"
     fill-opacity="0"
     d="m 195.81112,99.02781 h 13.6413 c 1.88348,0 3.41034,3.58469 3.41034,8.00656 0,4.42191 -1.52686,8.00659 -3.41034,8.00659 h -13.6413 v 0 c -1.88345,0 -3.41031,-3.58468 -3.41031,-8.00659 0,-4.42187 1.52686,-8.00656 3.41031,-8.00656 z"
     fill-rule="evenodd"
     id="path135" />
  <path
     stroke="#595959"
     stroke-width="1"
     stroke-linejoin="round"
     stroke-linecap="butt"
     d="m 209.45242,115.04096 c -1.88348,0 -3.41031,-3.58469 -3.41031,-8.00659 0,-4.42188 1.52683,-8.00656 3.41031,-8.00656"
     fill-rule="evenodd"
     id="path137" />
  <path
     stroke="#595959"
     stroke-width="1"
     stroke-linejoin="round"
     stroke-linecap="butt"
     d="m 195.81112,99.02781 h 13.6413 c 1.88348,0 3.41034,3.58469 3.41034,8.00656 0,4.42191 -1.52686,8.00659 -3.41034,8.00659 h -13.6413 v 0 c -1.88345,0 -3.41031,-3.58468 -3.41031,-8.00659 0,-4.42187 1.52686,-8.00656 3.41031,-8.00656 z"
     fill-rule="evenodd"
     id="path139" />
  <path
     fill="#efefef"
     d="m 217.94674,99.38346 h -16.12601 v 15.24411 h 16.12601 z"
     fill-rule="evenodd"
     id="path141" />
  <path
     fill="#eeeeee"
     d="M 72.73401,30.80711 H 58.61398 c -1.94958,0 -3.53003,3.71042 -3.53003,8.28742 0,4.57702 1.58045,8.28744 3.53003,8.28744 h 14.12003 v 0 c 1.94959,0 3.53003,-3.71042 3.53003,-8.28744 0,-4.577 -1.58044,-8.28742 -3.53003,-8.28742 z"
     fill-rule="evenodd"
     id="path143" />
  <path
     fill="#000000"
     fill-opacity="0"
     d="m 58.61398,47.38197 c 1.94955,0 3.53,-3.71042 3.53,-8.28744 0,-4.577 -1.58045,-8.28742 -3.53,-8.28742"
     fill-rule="evenodd"
     id="path145" />
  <path
     fill="#000000"
     fill-opacity="0"
     d="M 72.73401,30.80711 H 58.61398 c -1.94958,0 -3.53003,3.71042 -3.53003,8.28742 0,4.57702 1.58045,8.28744 3.53003,8.28744 h 14.12003 v 0 c 1.94959,0 3.53003,-3.71042 3.53003,-8.28744 0,-4.577 -1.58044,-8.28742 -3.53003,-8.28742 z"
     fill-rule="evenodd"
     id="path147" />
  <path
     stroke="#595959"
     stroke-width="1"
     stroke-linejoin="round"
     stroke-linecap="butt"
     d="m 58.61398,47.38197 c 1.94955,0 3.53,-3.71042 3.53,-8.28744 0,-4.577 -1.58045,-8.28742 -3.53,-8.28742"
     fill-rule="evenodd"
     id="path149" />
  <path
     stroke="#595959"
     stroke-width="1"
     stroke-linejoin="round"
     stroke-linecap="butt"
     d="M 72.73401,30.80711 H 58.61398 c -1.94958,0 -3.53003,3.71042 -3.53003,8.28742 0,4.57702 1.58045,8.28744 3.53003,8.28744 h 14.12003 v 0 c 1.94959,0 3.53003,-3.71042 3.53003,-8.28744 0,-4.577 -1.58044,-8.28742 -3.53003,-8.28742 z"
     fill-rule="evenodd"
     id="path151" />
  <path
     fill="#efefef"
     d="M 68.00228,31.17524 H 51.30935 v 15.77951 h 16.69293 z"
     fill-rule="evenodd"
     id="path153" />
  <path
     fill="#eeeeee"
     d="m 12.79578,64.19859 h 14.12006 c 1.94955,0 3.52999,3.71042 3.52999,8.28742 0,4.57702 -1.58044,8.28744 -3.52999,8.28744 H 12.79578 v 0 c -1.94959,0 -3.53,-3.71042 -3.53,-8.28744 0,-4.577 1.58041,-8.28742 3.53,-8.28742 z"
     fill-rule="evenodd"
     id="path155" />
  <path
     fill="#000000"
     fill-opacity="0"
     d="m 26.91583,80.77344 c -1.94959,0 -3.53003,-3.71042 -3.53003,-8.28745 0,-4.57699 1.58044,-8.28741 3.53003,-8.28741"
     fill-rule="evenodd"
     id="path157" />
  <path
     fill="#000000"
     fill-opacity="0"
     d="m 12.79578,64.19859 h 14.12006 c 1.94955,0 3.52999,3.71042 3.52999,8.28742 0,4.57702 -1.58044,8.28744 -3.52999,8.28744 H 12.79578 v 0 c -1.94959,0 -3.53,-3.71042 -3.53,-8.28744 0,-4.577 1.58041,-8.28742 3.53,-8.28742 z"
     fill-rule="evenodd"
     id="path159" />
  <path
     stroke="#595959"
     stroke-width="1"
     stroke-linejoin="round"
     stroke-linecap="butt"
     d="m 26.91583,80.77344 c -1.94959,0 -3.53003,-3.71042 -3.53003,-8.28745 0,-4.57699 1.58044,-8.28741 3.53003,-8.28741"
     fill-rule="evenodd"
     id="path161" />
  <path
     stroke="#595959"
     stroke-width="1"
     stroke-linejoin="round"
     stroke-linecap="butt"
     d="m 12.79578,64.19859 h 14.12006 c 1.94955,0 3.52999,3.71042 3.52999,8.28742 0,4.57702 -1.58044,8.28744 -3.52999,8.28744 H 12.79578 v 0 c -1.94959,0 -3.53,-3.71042 -3.53,-8.28744 0,-4.577 1.58041,-8.28742 3.53,-8.28742 z"
     fill-rule="evenodd"
     id="path163" />
  <path
     fill="#eeeeee"
     d="M 72.73706,30.80964 H 58.61697 c -1.94958,0 -3.53003,3.71048 -3.53003,8.2876 0,4.57709 1.58045,8.28757 3.53003,8.28757 h 14.12009 v 0 c 1.94958,0 3.53003,-3.71048 3.53003,-8.28757 0,-4.57712 -1.58045,-8.2876 -3.53003,-8.2876 z"
     fill-rule="evenodd"
     id="path165" />
  <path
     fill="#000000"
     fill-opacity="0"
     d="m 58.61698,47.3848 c 1.94955,0 3.53,-3.71048 3.53,-8.28757 0,-4.57712 -1.58045,-8.2876 -3.53,-8.2876"
     fill-rule="evenodd"
     id="path167" />
  <path
     fill="#000000"
     fill-opacity="0"
     d="M 72.73706,30.80964 H 58.61697 c -1.94958,0 -3.53003,3.71048 -3.53003,8.2876 0,4.57709 1.58045,8.28757 3.53003,8.28757 h 14.12009 v 0 c 1.94958,0 3.53003,-3.71048 3.53003,-8.28757 0,-4.57712 -1.58045,-8.2876 -3.53003,-8.2876 z"
     fill-rule="evenodd"
     id="path169" />
  <path
     stroke="#595959"
     stroke-width="1"
     stroke-linejoin="round"
     stroke-linecap="butt"
     d="m 58.61698,47.3848 c 1.94955,0 3.53,-3.71048 3.53,-8.28757 0,-4.57712 -1.58045,-8.2876 -3.53,-8.2876"
     fill-rule="evenodd"
     id="path171" />
  <path
     stroke="#595959"
     stroke-width="1"
     stroke-linejoin="round"
     stroke-linecap="butt"
     d="M 72.73706,30.80964 H 58.61697 c -1.94958,0 -3.53003,3.71048 -3.53003,8.2876 0,4.57709 1.58045,8.28757 3.53003,8.28757 h 14.12009 v 0 c 1.94958,0 3.53003,-3.71048 3.53003,-8.28757 0,-4.57712 -1.58045,-8.2876 -3.53003,-8.2876 z"
     fill-rule="evenodd"
     id="path173" />
  <path
     fill="#eeeeee"
     d="m 57.12578,30.80964 h 14.12009 c 1.94958,0 3.53003,3.71048 3.53003,8.2876 0,4.57709 -1.58045,8.28757 -3.53003,8.28757 H 57.12578 v 0 c -1.94959,0 -3.53003,-3.71048 -3.53003,-8.28757 0,-4.57712 1.58044,-8.2876 3.53003,-8.2876 z"
     fill-rule="evenodd"
     id="path175" />
  <path
     fill="#000000"
     fill-opacity="0"
     d="m 71.24588,47.3848 c -1.94959,0 -3.53003,-3.71048 -3.53003,-8.28757 0,-4.57712 1.58044,-8.2876 3.53003,-8.2876"
     fill-rule="evenodd"
     id="path177" />
  <path
     fill="#000000"
     fill-opacity="0"
     d="m 57.12578,30.80964 h 14.12009 c 1.94958,0 3.53003,3.71048 3.53003,8.2876 0,4.57709 -1.58045,8.28757 -3.53003,8.28757 H 57.12578 v 0 c -1.94959,0 -3.53003,-3.71048 -3.53003,-8.28757 0,-4.57712 1.58044,-8.2876 3.53003,-8.2876 z"
     fill-rule="evenodd"
     id="path179" />
  <path
     stroke="#595959"
     stroke-width="1"
     stroke-linejoin="round"
     stroke-linecap="butt"
     d="m 71.24588,47.3848 c -1.94959,0 -3.53003,-3.71048 -3.53003,-8.28757 0,-4.57712 1.58044,-8.2876 3.53003,-8.2876"
     fill-rule="evenodd"
     id="path181" />
  <path
     stroke="#595959"
     stroke-width="1"
     stroke-linejoin="round"
     stroke-linecap="butt"
     d="m 57.12578,30.80964 h 14.12009 c 1.94958,0 3.53003,3.71048 3.53003,8.2876 0,4.57709 -1.58045,8.28757 -3.53003,8.28757 H 57.12578 v 0 c -1.94959,0 -3.53003,-3.71048 -3.53003,-8.28757 0,-4.57712 1.58044,-8.2876 3.53003,-8.2876 z"
     fill-rule="evenodd"
     id="path183" />
  <path
     fill="#eeeeee"
     d="M 26.9187,64.20179 H 12.79861 c -1.94958,0 -3.53003,3.71048 -3.53003,8.2876 0,4.57712 1.58045,8.2876 3.53003,8.2876 H 26.9187 v 0 c 1.94958,0 3.53003,-3.71048 3.53003,-8.2876 0,-4.57712 -1.58045,-8.2876 -3.53003,-8.2876 z"
     fill-rule="evenodd"
     id="path185" />
  <path
     fill="#000000"
     fill-opacity="0"
     d="m 12.79861,80.77699 c 1.94955,0 3.53,-3.71048 3.53,-8.2876 0,-4.57712 -1.58045,-8.2876 -3.53,-8.2876"
     fill-rule="evenodd"
     id="path187" />
  <path
     fill="#000000"
     fill-opacity="0"
     d="M 26.9187,64.20179 H 12.79861 c -1.94958,0 -3.53003,3.71048 -3.53003,8.2876 0,4.57712 1.58045,8.2876 3.53003,8.2876 H 26.9187 v 0 c 1.94958,0 3.53003,-3.71048 3.53003,-8.2876 0,-4.57712 -1.58045,-8.2876 -3.53003,-8.2876 z"
     fill-rule="evenodd"
     id="path189" />
  <path
     stroke="#595959"
     stroke-width="1"
     stroke-linejoin="round"
     stroke-linecap="butt"
     d="m 12.79861,80.77699 c 1.94955,0 3.53,-3.71048 3.53,-8.2876 0,-4.57712 -1.58045,-8.2876 -3.53,-8.2876"
     fill-rule="evenodd"
     id="path191" />
  <path
     stroke="#595959"
     stroke-width="1"
     stroke-linejoin="round"
     stroke-linecap="butt"
     d="M 26.9187,64.20179 H 12.79861 c -1.94958,0 -3.53003,3.71048 -3.53003,8.2876 0,4.57712 1.58045,8.2876 3.53003,8.2876 H 26.9187 v 0 c 1.94958,0 3.53003,-3.71048 3.53003,-8.2876 0,-4.57712 -1.58045,-8.2876 -3.53003,-8.2876 z"
     fill-rule="evenodd"
     id="path193" />
  <path
     fill="#eeeeee"
     d="M 23.01958,64.30074 56.2553,30.87569 H 72.78334 L 23.01958,80.92293 Z"
     fill-rule="evenodd"
     id="path195" />
  <path
     stroke="#595959"
     stroke-width="1"
     stroke-linejoin="round"
     stroke-linecap="butt"
     d="M 23.01958,64.30074 56.2553,30.87569 H 72.78334 L 23.01958,80.92293 Z"
     fill-rule="evenodd"
     id="path197" />
  <path
     fill="#efefef"
     d="m 72.73388,38.07301 h -18.4567 v 8.78738 h 18.4567 z"
     fill-rule="evenodd"
     id="path199" />
  <path
     fill="#eeeeee"
     d="M 72.48712,31.37064 H 58.56805 c -1.92181,0 -3.47976,3.45932 -3.47976,7.72659 0,4.26728 1.55795,7.72657 3.47976,7.72657 h 13.91907 v 0 c 1.92181,0 3.47977,-3.45929 3.47977,-7.72657 0,-4.26727 -1.55796,-7.72659 -3.47977,-7.72659 z"
     fill-rule="evenodd"
     id="path201" />
  <path
     fill="#000000"
     fill-opacity="0"
     d="m 58.56805,46.8238 c 1.92181,0 3.47977,-3.45929 3.47977,-7.72656 0,-4.26728 -1.55796,-7.7266 -3.47977,-7.7266"
     fill-rule="evenodd"
     id="path203" />
  <path
     fill="#000000"
     fill-opacity="0"
     d="M 72.48712,31.37064 H 58.56805 c -1.92181,0 -3.47976,3.45932 -3.47976,7.72659 0,4.26728 1.55795,7.72657 3.47976,7.72657 h 13.91907 v 0 c 1.92181,0 3.47977,-3.45929 3.47977,-7.72657 0,-4.26727 -1.55796,-7.72659 -3.47977,-7.72659 z"
     fill-rule="evenodd"
     id="path205" />
  <path
     fill="#eeeeee"
     d="M 72.73706,114.04231 H 58.61697 c -1.94958,0 -3.53003,-3.71048 -3.53003,-8.2876 0,-4.57712 1.58045,-8.2876 3.53003,-8.2876 h 14.12009 v 0 c 1.94958,0 3.53003,3.71048 3.53003,8.2876 0,4.57712 -1.58045,8.2876 -3.53003,8.2876 z"
     fill-rule="evenodd"
     id="path207" />
  <path
     fill="#000000"
     fill-opacity="0"
     d="m 58.61698,97.46711 c 1.94955,0 3.53,3.71048 3.53,8.2876 0,4.57712 -1.58045,8.2876 -3.53,8.2876"
     fill-rule="evenodd"
     id="path209" />
  <path
     fill="#000000"
     fill-opacity="0"
     d="M 72.73706,114.04231 H 58.61697 c -1.94958,0 -3.53003,-3.71048 -3.53003,-8.2876 0,-4.57712 1.58045,-8.2876 3.53003,-8.2876 h 14.12009 v 0 c 1.94958,0 3.53003,3.71048 3.53003,8.2876 0,4.57712 -1.58045,8.2876 -3.53003,8.2876 z"
     fill-rule="evenodd"
     id="path211" />
  <path
     stroke="#595959"
     stroke-width="1"
     stroke-linejoin="round"
     stroke-linecap="butt"
     d="m 58.61698,97.46711 c 1.94955,0 3.53,3.71048 3.53,8.2876 0,4.57712 -1.58045,8.2876 -3.53,8.2876"
     fill-rule="evenodd"
     id="path213" />
  <path
     stroke="#595959"
     stroke-width="1"
     stroke-linejoin="round"
     stroke-linecap="butt"
     d="M 72.73706,114.04231 H 58.61697 c -1.94958,0 -3.53003,-3.71048 -3.53003,-8.2876 0,-4.57712 1.58045,-8.2876 3.53003,-8.2876 h 14.12009 v 0 c 1.94958,0 3.53003,3.71048 3.53003,8.2876 0,4.57712 -1.58045,8.2876 -3.53003,8.2876 z"
     fill-rule="evenodd"
     id="path215" />
  <path
     fill="#eeeeee"
     d="m 57.12578,114.04231 h 14.12009 c 1.94958,0 3.53003,-3.71048 3.53003,-8.2876 0,-4.57712 -1.58045,-8.2876 -3.53003,-8.2876 H 57.12578 v 0 c -1.94959,0 -3.53003,3.71048 -3.53003,8.2876 0,4.57712 1.58044,8.2876 3.53003,8.2876 z"
     fill-rule="evenodd"
     id="path217" />
  <path
     fill="#000000"
     fill-opacity="0"
     d="m 71.24588,97.46711 c -1.94959,0 -3.53003,3.71048 -3.53003,8.2876 0,4.57712 1.58044,8.2876 3.53003,8.2876"
     fill-rule="evenodd"
     id="path219" />
  <path
     fill="#000000"
     fill-opacity="0"
     d="m 57.12578,114.04231 h 14.12009 c 1.94958,0 3.53003,-3.71048 3.53003,-8.2876 0,-4.57712 -1.58045,-8.2876 -3.53003,-8.2876 H 57.12578 v 0 c -1.94959,0 -3.53003,3.71048 -3.53003,8.2876 0,4.57712 1.58044,8.2876 3.53003,8.2876 z"
     fill-rule="evenodd"
     id="path221" />
  <path
     stroke="#595959"
     stroke-width="1"
     stroke-linejoin="round"
     stroke-linecap="butt"
     d="m 71.24588,97.46711 c -1.94959,0 -3.53003,3.71048 -3.53003,8.2876 0,4.57712 1.58044,8.2876 3.53003,8.2876"
     fill-rule="evenodd"
     id="path223" />
  <path
     stroke="#595959"
     stroke-width="1"
     stroke-linejoin="round"
     stroke-linecap="butt"
     d="m 57.12578,114.04231 h 14.12009 c 1.94958,0 3.53003,-3.71048 3.53003,-8.2876 0,-4.57712 -1.58045,-8.2876 -3.53003,-8.2876 H 57.12578 v 0 c -1.94959,0 -3.53003,3.71048 -3.53003,8.2876 0,4.57712 1.58044,8.2876 3.53003,8.2876 z"
     fill-rule="evenodd"
     id="path225" />
  <path
     fill="#eeeeee"
     d="M 23.01958,80.61588 56.2553,114.04096 H 72.78334 L 23.01958,63.99369 Z"
     fill-rule="evenodd"
     id="path227" />
  <path
     stroke="#595959"
     stroke-width="1"
     stroke-linejoin="round"
     stroke-linecap="butt"
     d="M 23.01958,80.61588 56.2553,114.04096 H 72.78334 L 23.01958,63.99369 Z"
     fill-rule="evenodd"
     id="path229" />
  <path
     fill="#efefef"
     d="m 72.73388,106.77894 h -18.4567 v -8.78738 h 18.4567 z"
     fill-rule="evenodd"
     id="path231" />
  <path
     fill="#eeeeee"
     d="m 72.48733,113.48161 h -13.9195 c -1.92187,0 -3.47988,-3.43188 -3.47988,-7.66534 0,-4.23346 1.55801,-7.66535 3.47988,-7.66535 h 13.9195 v 0 c 1.92191,0 3.47989,3.43189 3.47989,7.66535 0,4.23346 -1.55798,7.66534 -3.47989,7.66534 z"
     fill-rule="evenodd"
     id="path233" />
  <path
     fill="#000000"
     fill-opacity="0"
     d="m 58.56784,98.15092 c 1.92187,0 3.47986,3.43188 3.47986,7.66534 0,4.23346 -1.55799,7.66535 -3.47986,7.66535"
     fill-rule="evenodd"
     id="path235" />
  <path
     fill="#000000"
     fill-opacity="0"
     d="m 72.48733,113.48161 h -13.9195 c -1.92187,0 -3.47988,-3.43188 -3.47988,-7.66534 0,-4.23346 1.55801,-7.66535 3.47988,-7.66535 h 13.9195 v 0 c 1.92191,0 3.47989,3.43189 3.47989,7.66535 0,4.23346 -1.55798,7.66534 -3.47989,7.66534 z"
     fill-rule="evenodd"
     id="path237" />
  <path
     fill="#eeeeee"
     d="m 25.73254,64.7559 h -6.59845 c -0.91104,0 -1.6496,3.45892 -1.6496,7.72574 0,4.26678 0.73856,7.72571 1.6496,7.72571 h 6.59845 v 0 c 0.91104,0 1.6496,-3.45893 1.6496,-7.72571 0,-4.26682 -0.73856,-7.72574 -1.6496,-7.72574 z"
     fill-rule="evenodd"
     id="path239" />
  <path
     fill="#000000"
     fill-opacity="0"
     d="m 19.13408,80.20734 c 0.91107,0 1.64963,-3.45892 1.64963,-7.72571 0,-4.26681 -0.73856,-7.72574 -1.64963,-7.72574"
     fill-rule="evenodd"
     id="path241" />
  <path
     fill="#000000"
     fill-opacity="0"
     d="m 25.73254,64.7559 h -6.59845 c -0.91104,0 -1.6496,3.45892 -1.6496,7.72574 0,4.26678 0.73856,7.72571 1.6496,7.72571 h 6.59845 v 0 c 0.91104,0 1.6496,-3.45893 1.6496,-7.72571 0,-4.26682 -0.73856,-7.72574 -1.6496,-7.72574 z"
     fill-rule="evenodd"
     id="path243" />
  <path
     fill="#efefef"
     d="M 26.20404,76.89074 39.24341,63.85137 31.68436,56.29232 18.64499,69.33169 Z"
     fill-rule="evenodd"
     id="path245" />
</svg>
