<?xml version="1.0" encoding="UTF-8" standalone="no"?>
<svg
   version="1.1"
   viewBox="0 0 740.29877 377.16205"
   fill="none"
   stroke="none"
   stroke-linecap="square"
   stroke-miterlimit="10"
   id="svg155"
   sodipodi:docname="pipelines graphics.svg"
   inkscape:version="1.1.2 (0a00cf5339, 2022-02-04)"
   width="740.29877"
   height="377.16205"
   xmlns:inkscape="http://www.inkscape.org/namespaces/inkscape"
   xmlns:sodipodi="http://sodipodi.sourceforge.net/DTD/sodipodi-0.dtd"
   xmlns="http://www.w3.org/2000/svg"
   xmlns:svg="http://www.w3.org/2000/svg">
  <defs
     id="defs159" />
  <sodipodi:namedview
     id="namedview157"
     pagecolor="#ffffff"
     bordercolor="#999999"
     borderopacity="1"
     inkscape:pageshadow="0"
     inkscape:pageopacity="0"
     inkscape:pagecheckerboard="0"
     showgrid="false"
     inkscape:zoom="1.365625"
     inkscape:cx="424.71396"
     inkscape:cy="261.05263"
     inkscape:window-width="2294"
     inkscape:window-height="1630"
     inkscape:window-x="2675"
     inkscape:window-y="294"
     inkscape:window-maximized="1"
     inkscape:current-layer="svg155" />
  <clipPath
     id="g7196bf4905_2_677.0">
    <path
       d="M 0,0 H 960 V 540 H 0 Z"
       clip-rule="nonzero"
       id="path2" />
  </clipPath>
  <path
     fill="#6d9eeb"
     d="m 558.31309,204.21924 h 96.66144 v 102.96065 h -96.66144 z"
     fill-rule="evenodd"
     id="path7" />
  <path
     stroke="#000000"
     stroke-width="2"
     stroke-linejoin="round"
     stroke-linecap="butt"
     d="m 558.31309,204.21924 h 96.66144 v 102.96065 h -96.66144 z"
     fill-rule="evenodd"
     id="path9" />
  <path
     fill="#000000"
     d="m 568.91307,241.02831 -0.15625,1.29687 h -3.0625 v 9.73438 h -1.51562 v -9.73438 h -3.14063 v -1.29687 z m 4.87018,2.40625 q 0.4375,0 0.82812,0.0937 l -0.26562,1.4375 q -0.39063,-0.0937 -0.73438,-0.0937 -0.79687,0 -1.28125,0.57812 -0.46875,0.57813 -0.75,1.79688 v 4.8125 h -1.46875 v -8.4375 h 1.26563 l 0.14062,1.71875 q 0.34375,-0.9375 0.92188,-1.42188 0.57812,-0.48437 1.34375,-0.48437 z m 7.63159,6.65625 q 0,0.51562 0.17187,0.76562 0.17188,0.25 0.53125,0.375 l -0.34375,1.01563 q -0.65625,-0.0781 -1.0625,-0.35938 -0.39062,-0.29687 -0.57812,-0.90625 -0.84375,1.26563 -2.51563,1.26563 -1.25,0 -1.96875,-0.70313 -0.71875,-0.70312 -0.71875,-1.84375 0,-1.34375 0.96875,-2.0625 0.96875,-0.71875 2.75,-0.71875 h 1.29688 v -0.625 q 0,-0.89062 -0.4375,-1.26562 -0.4375,-0.39063 -1.32813,-0.39063 -0.92187,0 -2.26562,0.45313 l -0.375,-1.07813 q 1.5625,-0.57812 2.90625,-0.57812 1.5,0 2.23437,0.73437 0.73438,0.71875 0.73438,2.0625 z m -3.45313,1.0625 q 1.26563,0 1.98438,-1.3125 v -1.9375 h -1.10938 q -2.34375,0 -2.34375,1.71875 0,0.75 0.375,1.14062 0.375,0.39063 1.09375,0.39063 z m 10.43842,-7.71875 q 1.15625,0 1.79688,0.6875 0.65625,0.6875 0.65625,1.89062 v 6.04688 h -1.46875 v -5.84375 q 0,-0.89063 -0.34375,-1.25 -0.32813,-0.375 -0.98438,-0.375 -0.67187,0 -1.1875,0.39062 -0.51562,0.375 -0.96875,1.09375 v 5.98438 h -1.46875 v -8.4375 h 1.26563 l 0.125,1.25 q 0.45312,-0.67188 1.10937,-1.04688 0.67188,-0.39062 1.46875,-0.39062 z m 7.70416,0 q 0.85938,0 1.54688,0.25 0.6875,0.23437 1.3125,0.71875 l -0.625,0.92187 q -0.57813,-0.375 -1.09375,-0.54687 -0.51563,-0.17188 -1.09375,-0.17188 -0.71875,0 -1.14063,0.29688 -0.42187,0.29687 -0.42187,0.79687 0,0.51563 0.39062,0.8125 0.40625,0.28125 1.42188,0.5625 1.40625,0.34375 2.09375,0.95313 0.70312,0.60937 0.70312,1.65625 0,1.25 -0.96875,1.90625 -0.96875,0.65625 -2.35937,0.65625 -1.92188,0 -3.17188,-1.09375 l 0.78125,-0.90625 q 1.0625,0.82812 2.35938,0.82812 0.84375,0 1.32812,-0.34375 0.48438,-0.35937 0.48438,-0.9375 0,-0.4375 -0.17188,-0.70312 -0.17187,-0.26563 -0.60937,-0.45313 -0.4375,-0.20312 -1.26563,-0.4375 -1.34375,-0.34375 -1.95312,-0.9375 -0.59375,-0.59375 -0.59375,-1.5 0,-0.65625 0.39062,-1.1875 0.39063,-0.54687 1.07813,-0.84375 0.70312,-0.29687 1.57812,-0.29687 z m 8.05011,-2.1875 q -0.67187,0 -0.96875,0.29687 -0.28125,0.29688 -0.28125,0.92188 v 1.15625 h 2.04688 l -0.15625,1.14062 h -1.89063 v 7.29688 h -1.48437 v -7.29688 h -1.5 v -1.14062 h 1.5 v -1.14063 q 0,-1.09375 0.70312,-1.75 0.70313,-0.67187 1.9375,-0.67187 0.57813,0 1.03125,0.10937 0.46875,0.0937 0.98438,0.32813 l -0.45313,1.0625 q -0.71875,-0.3125 -1.46875,-0.3125 z m 5.49689,2.1875 q 1.78125,0 2.76563,1.1875 0.98437,1.1875 0.98437,3.21875 0,1.3125 -0.45312,2.3125 -0.45313,1 -1.29688,1.54687 -0.84375,0.54688 -2.01562,0.54688 -1.78125,0 -2.78125,-1.17188 -0.98438,-1.1875 -0.98438,-3.21875 0,-1.3125 0.45313,-2.3125 0.45312,-1 1.29687,-1.54687 0.84375,-0.5625 2.03125,-0.5625 z m 0,1.1875 q -2.1875,0 -2.1875,3.23437 0,3.21875 2.17188,3.21875 2.17187,0 2.17187,-3.23437 0,-3.21875 -2.15625,-3.21875 z m 9.84406,-1.1875 q 0.4375,0 0.82812,0.0937 l -0.26562,1.4375 q -0.39063,-0.0937 -0.73438,-0.0937 -0.79687,0 -1.28125,0.57812 -0.46875,0.57813 -0.75,1.79688 v 4.8125 h -1.46875 v -8.4375 h 1.26563 l 0.14062,1.71875 q 0.34375,-0.9375 0.92188,-1.42188 0.57812,-0.48437 1.34375,-0.48437 z m 10.9729,0 q 1.04687,0 1.65625,0.70312 0.625,0.6875 0.625,1.875 v 6.04688 h -1.46875 v -5.84375 q 0,-1.625 -1.1875,-1.625 -0.625,0 -1.0625,0.35937 -0.42188,0.35938 -0.92188,1.125 v 5.98438 h -1.46875 v -5.84375 q 0,-1.625 -1.1875,-1.625 -0.625,0 -1.0625,0.375 -0.4375,0.35937 -0.92187,1.10937 v 5.98438 h -1.46875 v -8.4375 h 1.26562 l 0.125,1.23437 q 0.95313,-1.42187 2.4375,-1.42187 0.78125,0 1.32813,0.40625 0.5625,0.39062 0.79687,1.10937 0.5,-0.73437 1.09375,-1.125 0.60938,-0.39062 1.42188,-0.39062 z m 11.61822,4.15625 q 0,0.375 -0.0312,0.75 h -5.375 q 0.0937,1.40625 0.70313,2.0625 0.60937,0.64062 1.5625,0.64062 0.60937,0 1.125,-0.17187 0.51562,-0.17188 1.0625,-0.5625 l 0.64062,0.89062 q -1.34375,1.04688 -2.9375,1.04688 -1.76562,0 -2.75,-1.14063 -0.98437,-1.15625 -0.98437,-3.17187 0,-1.3125 0.42187,-2.32813 0.4375,-1.01562 1.21875,-1.59375 0.79688,-0.57812 1.875,-0.57812 1.67188,0 2.5625,1.10937 0.90625,1.09375 0.90625,3.04688 z m -1.45312,-0.42188 q 0,-1.25 -0.5,-1.90625 -0.5,-0.65625 -1.48438,-0.65625 -1.8125,0 -1.96875,2.65625 h 3.95313 z m 10.3294,-6.9375 v 11.82813 h -1.29687 l -0.14063,-1.17188 q -0.42187,0.64063 -1.04687,1 -0.625,0.35938 -1.39063,0.35938 -1.5,0 -2.34375,-1.17188 -0.84375,-1.1875 -0.84375,-3.1875 0,-1.29687 0.40625,-2.29687 0.40625,-1.01563 1.15625,-1.57813 0.75,-0.57812 1.75,-0.57812 1.29688,0 2.28125,1.04687 v -4.42187 z m -3.54687,10.85938 q 0.67187,0 1.14062,-0.3125 0.48438,-0.3125 0.9375,-0.9375 v -4.14063 q -0.42187,-0.53125 -0.89062,-0.8125 -0.46875,-0.28125 -1.0625,-0.28125 -0.98438,0 -1.51563,0.8125 -0.53125,0.8125 -0.53125,2.4375 0,1.625 0.48438,2.4375 0.5,0.79688 1.4375,0.79688 z"
     fill-rule="nonzero"
     id="path11" />
  <path
     fill="#000000"
     d="m 593.942,260.02831 q 2.5,0 4,1.17187 1.51562,1.15625 1.51562,4.29688 0,3.04687 -1.51562,4.3125 -1.5,1.25 -3.67188,1.25 h -2.64062 v -11.03125 z m -0.78125,1.21875 v 8.60937 h 1.23437 q 1.53125,0 2.48438,-0.9375 0.96875,-0.95312 0.96875,-3.42187 0,-1.75 -0.5,-2.6875 -0.5,-0.9375 -1.26563,-1.25 -0.76562,-0.3125 -1.8125,-0.3125 z m 14.22217,7.84375 q 0,0.51562 0.17187,0.76562 0.17188,0.25 0.53125,0.375 l -0.34375,1.01563 q -0.65625,-0.0781 -1.0625,-0.35938 -0.39062,-0.29687 -0.57812,-0.90625 -0.84375,1.26563 -2.51563,1.26563 -1.25,0 -1.96875,-0.70313 -0.71875,-0.70312 -0.71875,-1.84375 0,-1.34375 0.96875,-2.0625 0.96875,-0.71875 2.75,-0.71875 h 1.29688 v -0.625 q 0,-0.89062 -0.4375,-1.26562 -0.4375,-0.39063 -1.32813,-0.39063 -0.92187,0 -2.26562,0.45313 l -0.375,-1.07813 q 1.5625,-0.57812 2.90625,-0.57812 1.5,0 2.23437,0.73437 0.73438,0.71875 0.73438,2.0625 z m -3.45313,1.0625 q 1.26563,0 1.98438,-1.3125 v -1.9375 h -1.10938 q -2.34375,0 -2.34375,1.71875 0,0.75 0.375,1.14062 0.375,0.39063 1.09375,0.39063 z m 10.73529,0.51562 q -0.84375,0.57813 -1.89062,0.57813 -1.07813,0 -1.6875,-0.60938 -0.59375,-0.625 -0.59375,-1.78125 v -5.09375 h -1.46875 v -1.14062 h 1.46875 v -1.90625 l 1.48437,-0.17188 v 2.07813 h 2 l -0.17187,1.14062 h -1.82813 v 5.03125 q 0,0.65625 0.21875,0.95313 0.23438,0.28125 0.78125,0.28125 0.5,0 1.125,-0.32813 z m 7.08588,-1.57812 q 0,0.51562 0.17188,0.76562 0.17187,0.25 0.53125,0.375 l -0.34375,1.01563 q -0.65625,-0.0781 -1.0625,-0.35938 -0.39063,-0.29687 -0.57813,-0.90625 -0.84375,1.26563 -2.51562,1.26563 -1.25,0 -1.96875,-0.70313 -0.71875,-0.70312 -0.71875,-1.84375 0,-1.34375 0.96875,-2.0625 0.96875,-0.71875 2.75,-0.71875 h 1.29687 v -0.625 q 0,-0.89062 -0.4375,-1.26562 -0.4375,-0.39063 -1.32812,-0.39063 -0.92188,0 -2.26563,0.45313 l -0.375,-1.07813 q 1.5625,-0.57812 2.90625,-0.57812 1.5,0 2.23438,0.73437 0.73437,0.71875 0.73437,2.0625 z m -3.45312,1.0625 q 1.26562,0 1.98437,-1.3125 v -1.9375 h -1.10937 q -2.34375,0 -2.34375,1.71875 0,0.75 0.375,1.14062 0.375,0.39063 1.09375,0.39063 z"
     fill-rule="nonzero"
     id="path13" />
  <path
     fill="#6d9eeb"
     d="m 558.31309,39.691864 h 96.66144 V 142.65249 h -96.66144 z"
     fill-rule="evenodd"
     id="path15" />
  <path
     stroke="#000000"
     stroke-width="2"
     stroke-linejoin="round"
     stroke-linecap="butt"
     d="m 558.31309,39.691864 h 96.66144 V 142.65249 h -96.66144 z"
     fill-rule="evenodd"
     id="path17" />
  <path
     fill="#000000"
     d="m 568.91307,76.500929 -0.15625,1.296875 h -3.0625 v 9.734375 h -1.51562 v -9.734375 h -3.14063 v -1.296875 z m 4.87018,2.40625 q 0.4375,0 0.82812,0.09375 l -0.26562,1.4375 q -0.39063,-0.09375 -0.73438,-0.09375 -0.79687,0 -1.28125,0.578125 -0.46875,0.578125 -0.75,1.796875 v 4.8125 h -1.46875 v -8.4375 h 1.26563 l 0.14062,1.71875 q 0.34375,-0.9375 0.92188,-1.421875 0.57812,-0.484375 1.34375,-0.484375 z m 7.63159,6.65625 q 0,0.515625 0.17187,0.765625 0.17188,0.25 0.53125,0.375 l -0.34375,1.015625 q -0.65625,-0.07813 -1.0625,-0.359375 -0.39062,-0.296875 -0.57812,-0.90625 -0.84375,1.265625 -2.51563,1.265625 -1.25,0 -1.96875,-0.703125 -0.71875,-0.703125 -0.71875,-1.84375 0,-1.34375 0.96875,-2.0625 0.96875,-0.71875 2.75,-0.71875 h 1.29688 v -0.625 q 0,-0.890625 -0.4375,-1.265625 -0.4375,-0.390625 -1.32813,-0.390625 -0.92187,0 -2.26562,0.453125 l -0.375,-1.078125 q 1.5625,-0.578125 2.90625,-0.578125 1.5,0 2.23437,0.734375 0.73438,0.71875 0.73438,2.0625 z m -3.45313,1.0625 q 1.26563,0 1.98438,-1.3125 v -1.9375 h -1.10938 q -2.34375,0 -2.34375,1.71875 0,0.75 0.375,1.140625 0.375,0.390625 1.09375,0.390625 z m 10.43842,-7.71875 q 1.15625,0 1.79688,0.6875 0.65625,0.6875 0.65625,1.890625 v 6.046875 h -1.46875 v -5.84375 q 0,-0.890625 -0.34375,-1.25 -0.32813,-0.375 -0.98438,-0.375 -0.67187,0 -1.1875,0.390625 -0.51562,0.375 -0.96875,1.09375 v 5.984375 h -1.46875 v -8.4375 h 1.26563 l 0.125,1.25 q 0.45312,-0.671875 1.10937,-1.046875 0.67188,-0.390625 1.46875,-0.390625 z m 7.70416,0 q 0.85938,0 1.54688,0.25 0.6875,0.234375 1.3125,0.71875 l -0.625,0.921875 q -0.57813,-0.375 -1.09375,-0.546875 -0.51563,-0.171875 -1.09375,-0.171875 -0.71875,0 -1.14063,0.296875 -0.42187,0.296875 -0.42187,0.796875 0,0.515625 0.39062,0.8125 0.40625,0.28125 1.42188,0.5625 1.40625,0.34375 2.09375,0.953125 0.70312,0.609375 0.70312,1.65625 0,1.25 -0.96875,1.90625 -0.96875,0.65625 -2.35937,0.65625 -1.92188,0 -3.17188,-1.09375 l 0.78125,-0.90625 q 1.0625,0.828125 2.35938,0.828125 0.84375,0 1.32812,-0.34375 0.48438,-0.359375 0.48438,-0.9375 0,-0.4375 -0.17188,-0.703125 -0.17187,-0.265625 -0.60937,-0.453125 -0.4375,-0.203125 -1.26563,-0.4375 -1.34375,-0.34375 -1.95312,-0.9375 -0.59375,-0.59375 -0.59375,-1.5 0,-0.65625 0.39062,-1.1875 0.39063,-0.546875 1.07813,-0.84375 0.70312,-0.296875 1.57812,-0.296875 z m 8.05011,-2.1875 q -0.67187,0 -0.96875,0.296875 -0.28125,0.296875 -0.28125,0.921875 v 1.15625 h 2.04688 l -0.15625,1.140625 h -1.89063 v 7.296875 h -1.48437 v -7.296875 h -1.5 v -1.140625 h 1.5 v -1.140625 q 0,-1.09375 0.70312,-1.75 0.70313,-0.671875 1.9375,-0.671875 0.57813,0 1.03125,0.109375 0.46875,0.09375 0.98438,0.328125 l -0.45313,1.0625 q -0.71875,-0.3125 -1.46875,-0.3125 z m 5.49689,2.1875 q 1.78125,0 2.76563,1.1875 0.98437,1.1875 0.98437,3.21875 0,1.3125 -0.45312,2.3125 -0.45313,1 -1.29688,1.546875 -0.84375,0.546875 -2.01562,0.546875 -1.78125,0 -2.78125,-1.171875 -0.98438,-1.1875 -0.98438,-3.21875 0,-1.3125 0.45313,-2.3125 0.45312,-1 1.29687,-1.546875 0.84375,-0.5625 2.03125,-0.5625 z m 0,1.1875 q -2.1875,0 -2.1875,3.234375 0,3.21875 2.17188,3.21875 2.17187,0 2.17187,-3.234375 0,-3.21875 -2.15625,-3.21875 z m 9.84406,-1.1875 q 0.4375,0 0.82812,0.09375 l -0.26562,1.4375 q -0.39063,-0.09375 -0.73438,-0.09375 -0.79687,0 -1.28125,0.578125 -0.46875,0.578125 -0.75,1.796875 v 4.8125 h -1.46875 v -8.4375 h 1.26563 l 0.14062,1.71875 q 0.34375,-0.9375 0.92188,-1.421875 0.57812,-0.484375 1.34375,-0.484375 z m 10.9729,0 q 1.04687,0 1.65625,0.703125 0.625,0.6875 0.625,1.875 v 6.046875 h -1.46875 v -5.84375 q 0,-1.625 -1.1875,-1.625 -0.625,0 -1.0625,0.359375 -0.42188,0.359375 -0.92188,1.125 v 5.984375 h -1.46875 v -5.84375 q 0,-1.625 -1.1875,-1.625 -0.625,0 -1.0625,0.375 -0.4375,0.359375 -0.92187,1.109375 v 5.984375 h -1.46875 v -8.4375 h 1.26562 l 0.125,1.234375 q 0.95313,-1.421875 2.4375,-1.421875 0.78125,0 1.32813,0.40625 0.5625,0.390625 0.79687,1.109375 0.5,-0.734375 1.09375,-1.125 0.60938,-0.390625 1.42188,-0.390625 z m 11.61822,4.15625 q 0,0.375 -0.0312,0.75 h -5.375 q 0.0937,1.40625 0.70313,2.0625 0.60937,0.640625 1.5625,0.640625 0.60937,0 1.125,-0.171875 0.51562,-0.171875 1.0625,-0.5625 l 0.64062,0.890625 q -1.34375,1.046875 -2.9375,1.046875 -1.76562,0 -2.75,-1.140625 -0.98437,-1.15625 -0.98437,-3.171875 0,-1.3125 0.42187,-2.328125 0.4375,-1.015625 1.21875,-1.59375 0.79688,-0.578125 1.875,-0.578125 1.67188,0 2.5625,1.109375 0.90625,1.09375 0.90625,3.046875 z m -1.45312,-0.421875 q 0,-1.25 -0.5,-1.90625 -0.5,-0.65625 -1.48438,-0.65625 -1.8125,0 -1.96875,2.65625 h 3.95313 z m 10.3294,-6.9375 v 11.828125 h -1.29687 l -0.14063,-1.171875 q -0.42187,0.640625 -1.04687,1 -0.625,0.359375 -1.39063,0.359375 -1.5,0 -2.34375,-1.171875 -0.84375,-1.1875 -0.84375,-3.1875 0,-1.296875 0.40625,-2.296875 0.40625,-1.015625 1.15625,-1.578125 0.75,-0.578125 1.75,-0.578125 1.29688,0 2.28125,1.046875 v -4.421875 z m -3.54687,10.859375 q 0.67187,0 1.14062,-0.3125 0.48438,-0.3125 0.9375,-0.9375 v -4.140625 q -0.42187,-0.53125 -0.89062,-0.8125 -0.46875,-0.28125 -1.0625,-0.28125 -0.98438,0 -1.51563,0.8125 -0.53125,0.8125 -0.53125,2.4375 0,1.625 0.48438,2.4375 0.5,0.796875 1.4375,0.796875 z"
     fill-rule="nonzero"
     id="path19" />
  <path
     fill="#000000"
     d="m 593.942,95.500929 q 2.5,0 4,1.17187 1.51562,1.15625 1.51562,4.296881 0,3.04687 -1.51562,4.3125 -1.5,1.25 -3.67188,1.25 H 591.6295 V 95.500929 Z m -0.78125,1.21875 v 8.609371 h 1.23437 q 1.53125,0 2.48438,-0.9375 0.96875,-0.95312 0.96875,-3.42187 0,-1.750001 -0.5,-2.687501 -0.5,-0.9375 -1.26563,-1.25 -0.76562,-0.3125 -1.8125,-0.3125 z m 14.22217,7.843751 q 0,0.51562 0.17187,0.76562 0.17188,0.25 0.53125,0.375 l -0.34375,1.01563 q -0.65625,-0.0781 -1.0625,-0.35938 -0.39062,-0.29687 -0.57812,-0.90625 -0.84375,1.26563 -2.51563,1.26563 -1.25,0 -1.96875,-0.70313 -0.71875,-0.70312 -0.71875,-1.84375 0,-1.34375 0.96875,-2.0625 0.96875,-0.71875 2.75,-0.71875 h 1.29688 v -0.625 q 0,-0.890621 -0.4375,-1.265621 -0.4375,-0.39063 -1.32813,-0.39063 -0.92187,0 -2.26562,0.45313 l -0.375,-1.07813 q 1.5625,-0.57812 2.90625,-0.57812 1.5,0 2.23437,0.73437 0.73438,0.71875 0.73438,2.062501 z m -3.45313,1.0625 q 1.26563,0 1.98438,-1.3125 v -1.9375 h -1.10938 q -2.34375,0 -2.34375,1.71875 0,0.75 0.375,1.14062 0.375,0.39063 1.09375,0.39063 z m 10.73529,0.51562 q -0.84375,0.57813 -1.89062,0.57813 -1.07813,0 -1.6875,-0.60938 -0.59375,-0.625 -0.59375,-1.78125 v -5.093751 h -1.46875 v -1.14062 h 1.46875 v -1.90625 l 1.48437,-0.17188 v 2.07813 h 2 l -0.17187,1.14062 h -1.82813 v 5.031251 q 0,0.65625 0.21875,0.95313 0.23438,0.28125 0.78125,0.28125 0.5,0 1.125,-0.32813 z m 7.08588,-1.57812 q 0,0.51562 0.17188,0.76562 0.17187,0.25 0.53125,0.375 l -0.34375,1.01563 q -0.65625,-0.0781 -1.0625,-0.35938 -0.39063,-0.29687 -0.57813,-0.90625 -0.84375,1.26563 -2.51562,1.26563 -1.25,0 -1.96875,-0.70313 -0.71875,-0.70312 -0.71875,-1.84375 0,-1.34375 0.96875,-2.0625 0.96875,-0.71875 2.75,-0.71875 h 1.29687 v -0.625 q 0,-0.890621 -0.4375,-1.265621 -0.4375,-0.39063 -1.32812,-0.39063 -0.92188,0 -2.26563,0.45313 l -0.375,-1.07813 q 1.5625,-0.57812 2.90625,-0.57812 1.5,0 2.23438,0.73437 0.73437,0.71875 0.73437,2.062501 z m -3.45312,1.0625 q 1.26562,0 1.98437,-1.3125 v -1.9375 h -1.10937 q -2.34375,0 -2.34375,1.71875 0,0.75 0.375,1.14062 0.375,0.39063 1.09375,0.39063 z"
     fill-rule="nonzero"
     id="path21" />
  <path
     stroke="#595959"
     stroke-width="1"
     stroke-linejoin="round"
     stroke-linecap="butt"
     stroke-dasharray="4, 3"
     d="M 0,158.83204 H 728.4258"
     fill-rule="evenodd"
     id="path25" />
  <path
     fill="#000000"
     d="M 165.32219,17.468749 V 3.1875 h -5.09375 V 0.28125 h 13.65625 V 3.1875 h -5.09375 v 14.281249 z m 12.60156,0 h -3.29687 V 5.015625 h 3.0625 v 1.78125 q 0.78125,-1.265625 1.40625,-1.65625 0.64062,-0.40625 1.4375,-0.40625 1.125,0 2.15625,0.625 l -1.01563,2.874999 q -0.82812,-0.546875 -1.54687,-0.546875 -0.6875,0 -1.17188,0.390625 -0.48437,0.375 -0.76562,1.375 -0.26563,1 -0.26563,4.171875 z m 8.65235,-8.65625 -2.98438,-0.53125 q 0.5,-1.812499 1.71875,-2.671874 1.23438,-0.875 3.67188,-0.875 2.20312,0 3.28125,0.53125 1.07812,0.515625 1.51562,1.328125 0.4375,0.796874 0.4375,2.937499 l -0.0312,3.84375 q 0,1.640625 0.15625,2.421875 0.15625,0.78125 0.59375,1.671875 h -3.26562 q -0.125,-0.328125 -0.3125,-0.96875 -0.0781,-0.296875 -0.125,-0.390625 -0.84375,0.8125 -1.8125,1.234375 -0.95313,0.40625 -2.03125,0.40625 -1.92188,0 -3.03125,-1.046875 -1.10938,-1.046875 -1.10938,-2.640625 0,-1.046875 0.5,-1.875 0.5,-0.828125 1.40625,-1.265625 0.92188,-0.4375 2.625,-0.765625 2.3125,-0.4375 3.20313,-0.8125 V 9.015624 q 0,-0.953125 -0.46875,-1.34375 -0.46875,-0.40625 -1.76563,-0.40625 -0.89062,0 -1.39062,0.34375 -0.48438,0.34375 -0.78125,1.203125 z m 4.40625,2.671875 q -0.64063,0.21875 -2.01563,0.515625 -1.35937,0.28125 -1.78125,0.5625 -0.64062,0.46875 -0.64062,1.171875 0,0.6875 0.51562,1.1875 0.51563,0.5 1.3125,0.5 0.89063,0 1.6875,-0.578125 0.60938,-0.453125 0.79688,-1.09375 0.125,-0.421875 0.125,-1.609375 z M 197.455,3.328125 V 0.28125 h 3.29688 v 3.046875 z m 0,14.140624 V 5.015625 h 3.29688 v 12.453124 z m 17.9961,0 h -3.29688 v -6.359375 q 0,-2.015625 -0.21875,-2.59375 -0.20312,-0.59375 -0.6875,-0.921875 -0.46875,-0.328125 -1.125,-0.328125 -0.85937,0 -1.54687,0.46875 -0.67188,0.46875 -0.92188,1.25 -0.25,0.765625 -0.25,2.84375 v 5.640625 h -3.29687 V 5.015625 h 3.0625 V 6.84375 q 1.625,-2.109375 4.09375,-2.109375 1.09375,0 1.98437,0.40625 0.90625,0.390625 1.375,1 0.46875,0.609375 0.64063,1.390624 0.1875,0.765625 0.1875,2.203125 z M 218.78313,3.328125 V 0.28125 H 222.08 v 3.046875 z m 0,14.140624 V 5.015625 H 222.08 v 12.453124 z m 17.99609,0 h -3.29687 v -6.359375 q 0,-2.015625 -0.21875,-2.59375 -0.20313,-0.59375 -0.6875,-0.921875 -0.46875,-0.328125 -1.125,-0.328125 -0.85938,0 -1.54688,0.46875 -0.67187,0.46875 -0.92187,1.25 -0.25,0.765625 -0.25,2.84375 v 5.640625 h -3.29688 V 5.015625 h 3.0625 V 6.84375 q 1.625,-2.109375 4.09375,-2.109375 1.09375,0 1.98438,0.40625 0.90625,0.390625 1.375,1 0.46875,0.609375 0.64062,1.390624 0.1875,0.765625 0.1875,2.203125 z m 3.03516,0.828125 3.76562,0.453125 q 0.0937,0.65625 0.42188,0.90625 0.46875,0.34375 1.48437,0.34375 1.28125,0 1.9375,-0.390625 0.42188,-0.25 0.65625,-0.828125 0.14063,-0.40625 0.14063,-1.515625 v -1.8125 q -1.46875,2.015625 -3.71875,2.015625 -2.51563,0 -3.96875,-2.125 -1.15625,-1.671875 -1.15625,-4.171875 0,-3.125 1.5,-4.781249 1.51562,-1.65625 3.75,-1.65625 2.3125,0 3.8125,2.03125 v -1.75 h 3.07812 v 11.171874 q 0,2.203125 -0.35937,3.296875 -0.35938,1.09375 -1.01563,1.703125 -0.65625,0.625 -1.76562,0.96875 -1.09375,0.359375 -2.76563,0.359375 -3.15625,0 -4.48437,-1.078125 -1.32813,-1.078125 -1.32813,-2.75 0,-0.15625 0.0156,-0.390625 z m 2.9375,-7.3125 q 0,1.984375 0.76562,2.90625 0.76563,0.921875 1.89063,0.921875 1.21875,0 2.04687,-0.9375 0.82813,-0.953125 0.82813,-2.8125 0,-1.921875 -0.79688,-2.859375 -0.79687,-0.9375 -2.01562,-0.9375 -1.1875,0 -1.95313,0.921875 -0.76562,0.90625 -0.76562,2.796875 z m 17.84375,0.890625 3.375,-0.328125 q 0.29687,1.703125 1.21875,2.5 0.9375,0.796875 2.53125,0.796875 1.67187,0 2.51562,-0.703125 0.85938,-0.71875 0.85938,-1.671875 0,-0.609375 -0.35938,-1.03125 -0.35937,-0.421875 -1.25,-0.75 -0.60937,-0.203125 -2.78125,-0.75 -2.78125,-0.6875 -3.90625,-1.6875 Q 261.205,6.828125 261.205,4.78125 q 0,-1.3125 0.75,-2.453125 Q 262.705,1.1875 264.09563,0.59375 265.50188,0 267.48625,0 q 3.23438,0 4.85938,1.421875 1.64062,1.40625 1.71875,3.78125 l -3.46875,0.140625 q -0.21875,-1.3125 -0.95313,-1.890625 -0.73437,-0.59375 -2.20312,-0.59375 -1.5,0 -2.35938,0.625 -0.54687,0.40625 -0.54687,1.0625 0,0.609375 0.51562,1.046875 0.65625,0.546875 3.1875,1.15625 2.53125,0.593749 3.73438,1.234374 1.21875,0.640625 1.90625,1.75 0.6875,1.09375 0.6875,2.734375 0,1.46875 -0.82813,2.765625 -0.8125,1.28125 -2.3125,1.921875 -1.5,0.625 -3.75,0.625 -3.25,0 -5,-1.5 -1.75,-1.515625 -2.07812,-4.40625 z m 22.57031,-6.859374 v 2.624999 h -2.25 v 5.015625 q 0,1.53125 0.0625,1.78125 0.0625,0.25 0.28125,0.421875 0.23438,0.15625 0.5625,0.15625 0.45313,0 1.32813,-0.3125 l 0.28125,2.546875 q -1.15625,0.5 -2.60938,0.5 -0.89062,0 -1.60937,-0.296875 -0.70313,-0.296875 -1.04688,-0.765625 -0.32812,-0.484375 -0.45312,-1.296875 -0.10938,-0.578125 -0.10938,-2.3125 v -5.4375 h -1.51562 V 5.015625 h 1.51562 V 2.546875 L 280.91594,0.625 v 4.390625 z m 4.74219,3.796874 -2.98438,-0.53125 q 0.5,-1.812499 1.71875,-2.671874 1.23438,-0.875 3.67188,-0.875 2.20312,0 3.28125,0.53125 1.07812,0.515625 1.51562,1.328125 0.4375,0.796874 0.4375,2.937499 l -0.0312,3.84375 q 0,1.640625 0.15625,2.421875 0.15625,0.78125 0.59375,1.671875 h -3.26562 q -0.125,-0.328125 -0.3125,-0.96875 -0.0781,-0.296875 -0.125,-0.390625 -0.84375,0.8125 -1.8125,1.234375 -0.95313,0.40625 -2.03125,0.40625 -1.92188,0 -3.03125,-1.046875 -1.10938,-1.046875 -1.10938,-2.640625 0,-1.046875 0.5,-1.875 0.5,-0.828125 1.40625,-1.265625 0.92188,-0.4375 2.625,-0.765625 2.3125,-0.4375 3.20313,-0.8125 V 9.015624 q 0,-0.953125 -0.46875,-1.34375 -0.46875,-0.40625 -1.76563,-0.40625 -0.89062,0 -1.39062,0.34375 -0.48438,0.34375 -0.78125,1.203125 z m 4.40625,2.671875 q -0.64063,0.21875 -2.01563,0.515625 -1.35937,0.28125 -1.78125,0.5625 -0.64062,0.46875 -0.64062,1.171875 0,0.6875 0.51562,1.1875 0.51563,0.5 1.3125,0.5 0.89063,0 1.6875,-0.578125 0.60938,-0.453125 0.79688,-1.09375 0.125,-0.421875 0.125,-1.609375 z m 6.17578,6.8125 3.76562,0.453125 q 0.0937,0.65625 0.42188,0.90625 0.46875,0.34375 1.48437,0.34375 1.28125,0 1.9375,-0.390625 0.42188,-0.25 0.65625,-0.828125 0.14063,-0.40625 0.14063,-1.515625 v -1.8125 q -1.46875,2.015625 -3.71875,2.015625 -2.51563,0 -3.96875,-2.125 -1.15625,-1.671875 -1.15625,-4.171875 0,-3.125 1.5,-4.781249 1.51562,-1.65625 3.75,-1.65625 2.3125,0 3.8125,2.03125 v -1.75 h 3.07812 v 11.171874 q 0,2.203125 -0.35937,3.296875 -0.35938,1.09375 -1.01563,1.703125 -0.65625,0.625 -1.76562,0.96875 -1.09375,0.359375 -2.76563,0.359375 -3.15625,0 -4.48437,-1.078125 -1.32813,-1.078125 -1.32813,-2.75 0,-0.15625 0.0156,-0.390625 z m 2.9375,-7.3125 q 0,1.984375 0.76562,2.90625 0.76563,0.921875 1.89063,0.921875 1.21875,0 2.04687,-0.9375 0.82813,-0.953125 0.82813,-2.8125 0,-1.921875 -0.79688,-2.859375 -0.79687,-0.9375 -2.01562,-0.9375 -1.1875,0 -1.95313,0.921875 -0.76562,0.90625 -0.76562,2.796875 z m 19.23828,2.515625 3.28125,0.5625 q -0.64063,1.796875 -2.01563,2.75 -1.35937,0.9375 -3.40625,0.9375 -3.25,0 -4.79687,-2.125 -1.23438,-1.703125 -1.23438,-4.28125 0,-3.09375 1.60938,-4.843749 1.625,-1.765625 4.09375,-1.765625 2.78125,0 4.375,1.84375 1.60937,1.828124 1.54687,5.609374 h -8.25 q 0.0312,1.46875 0.79688,2.28125 0.76562,0.8125 1.89062,0.8125 0.78125,0 1.29688,-0.421875 0.53125,-0.421875 0.8125,-1.359375 z m 0.1875,-3.328125 q -0.0469,-1.421875 -0.75,-2.15625 -0.70313,-0.75 -1.70313,-0.75 -1.07812,0 -1.78125,0.78125 -0.70312,0.78125 -0.6875,2.125 z"
     fill-rule="nonzero"
     id="path29" />
  <path
     fill="#000000"
     fill-opacity="0"
     d="m 375.80748,309.27788 c -2.90915,0 -5.26749,-2.35837 -5.26749,-5.26752 v -21.07129 c 0,-2.90918 -2.35833,-5.26751 -5.26751,-5.26751 2.90918,0 5.26751,-2.35834 5.26751,-5.26749 v -21.07129 0 c 0,-2.90918 2.35834,-5.26752 5.26749,-5.26752 h 100.53628 c 1.39704,0 2.73685,0.55498 3.72471,1.54282 0.98785,0.98785 1.54281,2.32767 1.54281,3.7247 v 21.07129 c 0,2.90915 2.35834,5.26749 5.26749,5.26749 -2.90915,0 -5.26749,2.35833 -5.26749,5.26751 v 21.07129 c 0,2.90915 -2.35834,5.26752 -5.26751,5.26752 z"
     fill-rule="evenodd"
     id="path31" />
  <path
     fill="#000000"
     fill-opacity="0"
     d="m 375.80748,309.27788 c -2.90915,0 -5.26749,-2.35837 -5.26749,-5.26752 v -21.07129 c 0,-2.90918 -2.35833,-5.26751 -5.26751,-5.26751 2.90918,0 5.26751,-2.35834 5.26751,-5.26749 v -21.07129 0 c 0,-2.90918 2.35834,-5.26752 5.26749,-5.26752 m 100.53628,0 c 1.39704,0 2.73685,0.55498 3.72471,1.54282 0.98785,0.98785 1.54281,2.32767 1.54281,3.7247 v 21.07129 c 0,2.90915 2.35834,5.26749 5.26749,5.26749 -2.90915,0 -5.26749,2.35833 -5.26749,5.26751 v 21.07129 c 0,2.90915 -2.35834,5.26752 -5.26751,5.26752"
     fill-rule="evenodd"
     id="path33" />
  <path
     stroke="#595959"
     stroke-width="4"
     stroke-linejoin="round"
     stroke-linecap="butt"
     d="m 375.80748,309.27788 c -2.90915,0 -5.26749,-2.35837 -5.26749,-5.26752 v -21.07129 c 0,-2.90918 -2.35833,-5.26751 -5.26751,-5.26751 2.90918,0 5.26751,-2.35834 5.26751,-5.26749 v -21.07129 0 c 0,-2.90918 2.35834,-5.26752 5.26749,-5.26752 m 100.53628,0 c 1.39704,0 2.73685,0.55498 3.72471,1.54282 0.98785,0.98785 1.54281,2.32767 1.54281,3.7247 v 21.07129 c 0,2.90915 2.35834,5.26749 5.26749,5.26749 -2.90915,0 -5.26749,2.35833 -5.26749,5.26751 v 21.07129 c 0,2.90915 -2.35834,5.26752 -5.26751,5.26752"
     fill-rule="evenodd"
     id="path35" />
  <path
     fill="#d0e0e3"
     d="m 363.08229,261.05785 v 0 c 0,-4.45026 3.60767,-8.05792 8.05792,-8.05792 h 92.04166 c 2.13709,0 4.18665,0.84897 5.69782,2.36011 1.51114,1.51116 2.3601,3.56073 2.3601,5.69781 v 32.23065 c 0,4.45026 -3.60766,8.05789 -8.05792,8.05789 h -92.04166 c -4.45025,0 -8.05792,-3.60763 -8.05792,-8.05789 z"
     fill-rule="evenodd"
     id="path37" />
  <path
     stroke="#000000"
     stroke-width="2"
     stroke-linejoin="round"
     stroke-linecap="butt"
     d="m 363.08229,261.05785 v 0 c 0,-4.45026 3.60767,-8.05792 8.05792,-8.05792 h 92.04166 c 2.13709,0 4.18665,0.84897 5.69782,2.36011 1.51114,1.51116 2.3601,3.56073 2.3601,5.69781 v 32.23065 c 0,4.45026 -3.60766,8.05789 -8.05792,8.05789 h -92.04166 c -4.45025,0 -8.05792,-3.60763 -8.05792,-8.05789 z"
     fill-rule="evenodd"
     id="path39" />
  <path
     fill="#000000"
     d="m 396.56205,272.14318 q 1.0625,0 1.8125,0.3125 0.75,0.29687 1.45312,0.92187 l -0.79687,0.89063 q -0.59375,-0.48438 -1.17188,-0.70313 -0.57812,-0.21875 -1.23437,-0.21875 -0.82813,0 -1.375,0.39063 -0.53125,0.375 -0.53125,1.10937 0,0.45313 0.1875,0.78125 0.1875,0.3125 0.67187,0.57813 0.5,0.25 1.45313,0.54687 1,0.29688 1.65625,0.65625 0.65625,0.34375 1.0625,0.96875 0.40625,0.625 0.40625,1.57813 0,0.92187 -0.45313,1.625 -0.4375,0.70312 -1.29687,1.10937 -0.84375,0.39063 -2.01563,0.39063 -2.1875,0 -3.57812,-1.375 l 0.79687,-0.875 q 0.64063,0.51562 1.29688,0.78125 0.65625,0.26562 1.46875,0.26562 0.98437,0 1.625,-0.48437 0.64062,-0.48438 0.64062,-1.39063 0,-0.53125 -0.20312,-0.875 -0.1875,-0.34375 -0.67188,-0.60937 -0.48437,-0.28125 -1.40625,-0.5625 -1.625,-0.48438 -2.375,-1.17188 -0.75,-0.70312 -0.75,-1.875 0,-0.79687 0.42188,-1.42187 0.42187,-0.64063 1.17187,-0.98438 0.76563,-0.35937 1.73438,-0.35937 z m 8.61948,2.48437 q 0.71875,0 1.3125,0.21875 0.59375,0.20313 1.14062,0.65625 l -0.67187,0.89063 q -0.42188,-0.3125 -0.82813,-0.45313 -0.40625,-0.14062 -0.90625,-0.14062 -0.96875,0 -1.51562,0.78125 -0.54688,0.78125 -0.54688,2.3125 0,1.53125 0.53125,2.26562 0.54688,0.71875 1.53125,0.71875 0.48438,0 0.875,-0.14062 0.40625,-0.14063 0.89063,-0.46875 l 0.64062,0.92187 q -1.09375,0.89063 -2.45312,0.89063 -1.64063,0 -2.59375,-1.09375 -0.9375,-1.10938 -0.9375,-3.0625 0,-1.28125 0.42187,-2.25 0.4375,-0.96875 1.21875,-1.5 0.79688,-0.54688 1.89063,-0.54688 z m 9.65789,6.375 q 0,0.5 0.17188,0.73438 0.17187,0.23437 0.51562,0.35937 l -0.32812,0.98438 q -0.625,-0.0781 -1.01563,-0.34375 -0.375,-0.28125 -0.5625,-0.875 -0.8125,1.21875 -2.40625,1.21875 -1.20312,0 -1.89062,-0.67188 -0.6875,-0.6875 -0.6875,-1.76562 0,-1.29688 0.92187,-1.98438 0.9375,-0.6875 2.64063,-0.6875 h 1.23437 v -0.59375 q 0,-0.85937 -0.42187,-1.21875 -0.40625,-0.375 -1.26563,-0.375 -0.89062,0 -2.17187,0.42188 l -0.35938,-1.01563 q 1.51563,-0.5625 2.79688,-0.5625 1.42187,0 2.125,0.70313 0.70312,0.70312 0.70312,1.98437 z m -3.29687,1.01563 q 1.20312,0 1.89062,-1.25 v -1.85938 h -1.04687 q -2.25,0 -2.25,1.65625 0,0.71875 0.34375,1.09375 0.35937,0.35938 1.0625,0.35938 z m 7.65396,1.0625 q -0.78125,0 -1.23438,-0.46875 -0.45312,-0.46875 -0.45312,-1.3125 v -9.73438 l 1.42187,-0.17187 v 9.875 q 0,0.34375 0.10938,0.5 0.10937,0.14062 0.39062,0.14062 0.29688,0 0.51563,-0.0937 l 0.375,0.98438 q -0.51563,0.28125 -1.125,0.28125 z m 4.28802,-8.26563 v 8.07813 h -1.40625 v -8.07813 z m -0.70312,-3.875 q 0.4375,0 0.71875,0.28125 0.28125,0.26563 0.28125,0.6875 0,0.40625 -0.28125,0.67188 -0.28125,0.26562 -0.71875,0.26562 -0.4375,0 -0.71875,-0.26562 -0.26563,-0.26563 -0.26563,-0.67188 0,-0.42187 0.26563,-0.6875 0.28125,-0.28125 0.71875,-0.28125 z m 7.41629,3.6875 q 1.10938,0 1.73438,0.67188 0.625,0.65625 0.625,1.79687 v 5.79688 h -1.42188 v -5.59375 q 0,-0.85938 -0.32812,-1.20313 -0.3125,-0.35937 -0.9375,-0.35937 -0.64063,0 -1.14063,0.375 -0.48437,0.35937 -0.92187,1.04687 v 5.73438 h -1.40625 v -8.07813 h 1.21875 l 0.125,1.20313 q 0.42187,-0.65625 1.04687,-1.01563 0.64063,-0.375 1.40625,-0.375 z m 11.70105,0.5625 q -0.45312,0.14063 -1.01562,0.1875 -0.54688,0.0469 -1.34375,0.0469 1.42187,0.64062 1.42187,2.04687 0,1.20313 -0.82812,1.96875 -0.82813,0.76563 -2.25,0.76563 -0.54688,0 -1.03125,-0.14063 -0.17188,0.10938 -0.28125,0.32813 -0.10938,0.20312 -0.10938,0.42187 0,0.65625 1.0625,0.65625 h 1.28125 q 0.8125,0 1.4375,0.29688 0.625,0.28125 0.96875,0.79687 0.35938,0.5 0.35938,1.14063 0,1.1875 -0.96875,1.8125 -0.96875,0.64062 -2.82813,0.64062 -1.29687,0 -2.0625,-0.26562 -0.75,-0.26563 -1.07812,-0.8125 -0.3125,-0.53125 -0.3125,-1.375 h 1.26562 q 0,0.48437 0.17188,0.76562 0.1875,0.29688 0.65625,0.4375 0.48437,0.14063 1.35937,0.14063 1.28125,0 1.8125,-0.3125 0.54688,-0.3125 0.54688,-0.9375 0,-0.5625 -0.4375,-0.85938 -0.42188,-0.29687 -1.1875,-0.29687 h -1.26563 q -1.03125,0 -1.5625,-0.4375 -0.53125,-0.4375 -0.53125,-1.09375 0,-0.39063 0.23438,-0.75 0.23437,-0.375 0.65625,-0.67188 -0.70313,-0.375 -1.03125,-0.90625 -0.32813,-0.54687 -0.32813,-1.32812 0,-0.8125 0.40625,-1.45313 0.40625,-0.65625 1.10938,-1.01562 0.71875,-0.35938 1.59375,-0.35938 0.95312,0.0156 1.59375,-0.0625 0.64062,-0.0937 1.0625,-0.23437 0.42187,-0.14063 1.04687,-0.42188 z m -4.10937,0.45313 q -0.79688,0 -1.23438,0.5 -0.4375,0.5 -0.4375,1.3125 0,0.82812 0.4375,1.32812 0.45313,0.48438 1.26563,0.48438 0.82812,0 1.26562,-0.46875 0.4375,-0.48438 0.4375,-1.35938 0,-1.79687 -1.73437,-1.79687 z"
     fill-rule="nonzero"
     id="path41" />
  <path
     fill="#6d9eeb"
     d="m 176.71543,204.21924 h 96.66141 v 102.96065 h -96.66141 z"
     fill-rule="evenodd"
     id="path43" />
  <path
     stroke="#000000"
     stroke-width="2"
     stroke-linejoin="round"
     stroke-linecap="butt"
     d="m 176.71543,204.21924 h 96.66141 v 102.96065 h -96.66141 z"
     fill-rule="evenodd"
     id="path45" />
  <path
     fill="#000000"
     d="m 217.77793,251.61956 h -2.375 l -5.21875,-10.90625 q 0.10937,1.28125 0.17187,2.375 0.0781,1.09375 0.0781,2.64062 v 5.89063 h -1.67188 v -12.85938 h 2.3125 l 5.28125,10.9375 q -0.0469,-0.48437 -0.14062,-1.6875 -0.0937,-1.21875 -0.0937,-2.23437 v -7.01563 h 1.65625 z m 11.07034,-5.20313 q 0,0.42188 -0.0469,0.875 h -6.26563 q 0.10938,1.625 0.8125,2.39063 0.71875,0.76562 1.84375,0.76562 0.70313,0 1.29688,-0.20312 0.59375,-0.20313 1.25,-0.65625 l 0.75,1.03125 q -1.5625,1.21875 -3.4375,1.21875 -2.04688,0 -3.20313,-1.34375 -1.14062,-1.34375 -1.14062,-3.6875 0,-1.53125 0.48437,-2.71875 0.5,-1.1875 1.42188,-1.85938 0.9375,-0.67187 2.1875,-0.67187 1.95312,0 3,1.29687 1.04687,1.28125 1.04687,3.5625 z m -1.70312,-0.5 q 0,-1.45312 -0.57813,-2.21875 -0.57812,-0.76562 -1.73437,-0.76562 -2.10938,0 -2.29688,3.09375 h 4.60938 z m 15.66766,-4.125 -2.23437,9.82813 h -2.32813 l -1.71875,-8.28125 -1.78125,8.28125 h -2.26562 l -2.29688,-9.82813 h 1.71875 l 1.76563,8.64063 1.9375,-8.64063 h 1.92187 l 1.85938,8.64063 1.78125,-8.64063 z"
     fill-rule="nonzero"
     id="path47" />
  <path
     fill="#000000"
     d="m 210.2279,260.76018 q 2.92188,0 4.67188,1.35937 1.76562,1.34375 1.76562,5 0,3.57813 -1.76562,5.04688 -1.75,1.45312 -4.28125,1.45312 h -3.07813 v -12.85937 z m -0.90625,1.42187 v 10.03125 h 1.4375 q 1.78125,0 2.90625,-1.09375 1.125,-1.09375 1.125,-4 0,-2.03125 -0.57812,-3.10937 -0.57813,-1.09375 -1.48438,-1.45313 -0.89062,-0.375 -2.10937,-0.375 z m 16.57797,9.14063 q 0,0.59375 0.20313,0.89062 0.21875,0.28125 0.625,0.4375 l -0.39063,1.1875 q -0.76562,-0.0937 -1.23437,-0.42187 -0.46875,-0.34375 -0.6875,-1.04688 -1,1.46875 -2.9375,1.46875 -1.45313,0 -2.29688,-0.8125 -0.82812,-0.82812 -0.82812,-2.15625 0,-1.5625 1.125,-2.39062 1.125,-0.84375 3.20312,-0.84375 h 1.5 v -0.73438 q 0,-1.04687 -0.5,-1.48437 -0.5,-0.45313 -1.54687,-0.45313 -1.07813,0 -2.64063,0.51563 l -0.4375,-1.25 q 1.82813,-0.67188 3.39063,-0.67188 1.73437,0 2.59375,0.85938 0.85937,0.84375 0.85937,2.40625 z m -4.03125,1.23437 q 1.48438,0 2.3125,-1.53125 v -2.25 h -1.28125 q -2.71875,0 -2.71875,2.01563 0,0.875 0.42188,1.32812 0.4375,0.4375 1.26562,0.4375 z m 12.524,0.60938 q -0.96875,0.67187 -2.20312,0.67187 -1.25,0 -1.95313,-0.71875 -0.6875,-0.71875 -0.6875,-2.07812 v -5.92188 h -1.71875 v -1.32812 h 1.71875 v -2.21875 l 1.70313,-0.20313 v 2.42188 h 2.34375 l -0.1875,1.32812 h -2.15625 v 5.84375 q 0,0.76563 0.26562,1.125 0.28125,0.34375 0.92188,0.34375 0.57812,0 1.29687,-0.39062 z m 8.2605,-1.84375 q 0,0.59375 0.20313,0.89062 0.21875,0.28125 0.625,0.4375 l -0.39063,1.1875 q -0.76562,-0.0937 -1.23437,-0.42187 -0.46875,-0.34375 -0.6875,-1.04688 -1,1.46875 -2.9375,1.46875 -1.45313,0 -2.29688,-0.8125 -0.82812,-0.82812 -0.82812,-2.15625 0,-1.5625 1.125,-2.39062 1.125,-0.84375 3.20312,-0.84375 h 1.5 v -0.73438 q 0,-1.04687 -0.5,-1.48437 -0.5,-0.45313 -1.54687,-0.45313 -1.07813,0 -2.64063,0.51563 l -0.4375,-1.25 q 1.82813,-0.67188 3.39063,-0.67188 1.73437,0 2.59375,0.85938 0.85937,0.84375 0.85937,2.40625 z m -4.03125,1.23437 q 1.48438,0 2.3125,-1.53125 v -2.25 h -1.28125 q -2.71875,0 -2.71875,2.01563 0,0.875 0.42188,1.32812 0.4375,0.4375 1.26562,0.4375 z"
     fill-rule="nonzero"
     id="path49" />
  <path
     fill="#000000"
     fill-opacity="0"
     d="m 150.71281,157.49047 h 347.62204 v 136 H 150.71281 Z"
     fill-rule="evenodd"
     id="path51" />
  <path
     fill="#000000"
     d="m 161.46281,189.53046 v -17.1875 h 5.5625 q 3.17187,0 4.125,0.26562 1.48437,0.39063 2.46875,1.6875 1,1.28125 1,3.34375 0,1.57813 -0.57813,2.65625 -0.5625,1.07813 -1.45312,1.70313 -0.89063,0.60937 -1.79688,0.79687 -1.25,0.25 -3.59375,0.25 h -2.26562 v 6.48438 z m 3.46875,-14.28125 v 4.875 h 1.89062 q 2.0625,0 2.75,-0.26563 0.6875,-0.26562 1.07813,-0.84375 0.39062,-0.57812 0.39062,-1.32812 0,-0.9375 -0.54687,-1.54688 -0.54688,-0.60937 -1.39063,-0.76562 -0.625,-0.125 -2.5,-0.125 z m 15.66406,14.28125 h -3.29687 v -12.45313 h 3.0625 v 1.78125 q 0.78125,-1.26562 1.40625,-1.65625 0.64062,-0.40625 1.4375,-0.40625 1.125,0 2.15625,0.625 l -1.01563,2.875 q -0.82812,-0.54687 -1.54687,-0.54687 -0.6875,0 -1.17188,0.39062 -0.48437,0.375 -0.76562,1.375 -0.26563,1 -0.26563,4.17188 z m 13.40235,-3.96875 3.28125,0.5625 q -0.64063,1.79687 -2.01563,2.75 -1.35937,0.9375 -3.40625,0.9375 -3.25,0 -4.79687,-2.125 -1.23438,-1.70313 -1.23438,-4.28125 0,-3.09375 1.60938,-4.84375 1.625,-1.76563 4.09375,-1.76563 2.78125,0 4.375,1.84375 1.60937,1.82813 1.54687,5.60938 h -8.25 q 0.0312,1.46875 0.79688,2.28125 0.76562,0.8125 1.89062,0.8125 0.78125,0 1.29688,-0.42188 0.53125,-0.42187 0.8125,-1.35937 z m 0.1875,-3.32813 q -0.0469,-1.42187 -0.75,-2.15625 -0.70313,-0.75 -1.70313,-0.75 -1.07812,0 -1.78125,0.78125 -0.70312,0.78125 -0.6875,2.125 z m 17.36328,7.29688 h -3.0625 v -1.82813 q -0.76563,1.0625 -1.79688,1.59375 -1.03125,0.51563 -2.09375,0.51563 -2.14062,0 -3.67187,-1.71875 -1.53125,-1.73438 -1.53125,-4.82813 0,-3.17187 1.48437,-4.8125 1.5,-1.65625 3.76563,-1.65625 2.09375,0 3.60937,1.73438 v -6.1875 h 3.29688 z m -8.79688,-6.5 q 0,2 0.5625,2.89062 0.79688,1.28125 2.21875,1.28125 1.14063,0 1.9375,-0.95312 0.79688,-0.96875 0.79688,-2.89063 0,-2.15625 -0.78125,-3.09375 -0.76563,-0.9375 -1.96875,-0.9375 -1.17188,0 -1.96875,0.9375 -0.79688,0.92188 -0.79688,2.76563 z m 12.03516,-7.64063 v -3.04687 h 3.29687 v 3.04687 z m 0,14.14063 v -12.45313 h 3.29687 v 12.45313 z m 17.52734,-8.76563 -3.25,0.57813 q -0.15625,-0.96875 -0.75,-1.45313 -0.57812,-0.5 -1.5,-0.5 -1.23437,0 -1.96875,0.85938 -0.71875,0.84375 -0.71875,2.82812 0,2.21875 0.73438,3.14063 0.75,0.90625 2,0.90625 0.9375,0 1.53125,-0.53125 0.60937,-0.53125 0.84375,-1.82813 l 3.23437,0.54688 q -0.5,2.21875 -1.9375,3.35937 -1.42187,1.14063 -3.82812,1.14063 -2.71875,0 -4.34375,-1.71875 -1.625,-1.73438 -1.625,-4.78125 0,-3.07813 1.625,-4.79688 1.625,-1.71875 4.40625,-1.71875 2.28125,0 3.60937,0.98438 1.34375,0.98437 1.9375,2.98437 z m 8.20703,-3.6875 v 2.625 h -2.25 v 5.01563 q 0,1.53125 0.0625,1.78125 0.0625,0.25 0.28125,0.42187 0.23438,0.15625 0.5625,0.15625 0.45313,0 1.32813,-0.3125 l 0.28125,2.54688 q -1.15625,0.5 -2.60938,0.5 -0.89062,0 -1.60937,-0.29688 -0.70313,-0.29687 -1.04688,-0.76562 -0.32812,-0.48438 -0.45312,-1.29688 -0.10938,-0.57812 -0.10938,-2.3125 v -5.4375 h -1.51562 v -2.625 h 1.51562 v -2.46875 l 3.3125,-1.92187 v 4.39062 z m 2.27344,-1.6875 v -3.04687 h 3.29688 v 3.04687 z m 0,14.14063 v -12.45313 h 3.29688 v 12.45313 z m 5.91797,-6.40625 q 0,-1.64063 0.79687,-3.17188 0.8125,-1.53125 2.29688,-2.34375 1.48437,-0.8125 3.3125,-0.8125 2.82812,0 4.625,1.84375 1.8125,1.82813 1.8125,4.625 0,2.82813 -1.82813,4.6875 -1.82812,1.85938 -4.59375,1.85938 -1.70312,0 -3.26562,-0.76563 -1.54688,-0.78125 -2.35938,-2.26562 -0.79687,-1.5 -0.79687,-3.65625 z m 3.375,0.1875 q 0,1.84375 0.875,2.82812 0.875,0.98438 2.17187,0.98438 1.28125,0 2.15625,-0.98438 0.875,-0.98437 0.875,-2.85937 0,-1.82813 -0.875,-2.8125 -0.875,-0.98438 -2.15625,-0.98438 -1.29687,0 -2.17187,0.98438 -0.875,0.98437 -0.875,2.84375 z m 23.36328,6.21875 h -3.29687 v -6.35938 q 0,-2.01562 -0.21875,-2.59375 -0.20313,-0.59375 -0.6875,-0.92187 -0.46875,-0.32813 -1.125,-0.32813 -0.85938,0 -1.54688,0.46875 -0.67187,0.46875 -0.92187,1.25 -0.25,0.76563 -0.25,2.84375 v 5.64063 h -3.29688 v -12.45313 h 3.0625 v 1.82813 q 1.625,-2.10938 4.09375,-2.10938 1.09375,0 1.98438,0.40625 0.90625,0.39063 1.375,1 0.46875,0.60938 0.64062,1.39063 0.1875,0.76562 0.1875,2.20312 z m 9.15625,-5.59375 3.375,-0.32813 q 0.29688,1.70313 1.21875,2.5 0.9375,0.79688 2.53125,0.79688 1.67188,0 2.51563,-0.70313 0.85937,-0.71875 0.85937,-1.67187 0,-0.60938 -0.35937,-1.03125 -0.35938,-0.42188 -1.25,-0.75 -0.60938,-0.20313 -2.78125,-0.75 -2.78125,-0.6875 -3.90625,-1.6875 -1.59375,-1.42188 -1.59375,-3.46875 0,-1.3125 0.75,-2.45313 0.75,-1.14062 2.14062,-1.73437 1.40625,-0.59375 3.39063,-0.59375 3.23437,0 4.85937,1.42187 1.64063,1.40625 1.71875,3.78125 l -3.46875,0.14063 q -0.21875,-1.3125 -0.95312,-1.89063 -0.73438,-0.59375 -2.20313,-0.59375 -1.5,0 -2.35937,0.625 -0.54688,0.40625 -0.54688,1.0625 0,0.60938 0.51563,1.04688 0.65625,0.54687 3.1875,1.15625 2.53125,0.59375 3.73437,1.23437 1.21875,0.64063 1.90625,1.75 0.6875,1.09375 0.6875,2.73438 0,1.46875 -0.82812,2.76562 -0.8125,1.28125 -2.3125,1.92188 -1.5,0.625 -3.75,0.625 -3.25,0 -5,-1.5 -1.75,-1.51563 -2.07813,-4.40625 z m 22.57031,-6.85938 v 2.625 h -2.25 v 5.01563 q 0,1.53125 0.0625,1.78125 0.0625,0.25 0.28125,0.42187 0.23438,0.15625 0.5625,0.15625 0.45313,0 1.32813,-0.3125 l 0.28125,2.54688 q -1.15625,0.5 -2.60938,0.5 -0.89062,0 -1.60937,-0.29688 -0.70313,-0.29687 -1.04688,-0.76562 -0.32812,-0.48438 -0.45312,-1.29688 -0.10938,-0.57812 -0.10938,-2.3125 v -5.4375 h -1.51562 v -2.625 h 1.51562 v -2.46875 l 3.3125,-1.92187 v 4.39062 z m 4.74219,3.79688 -2.98437,-0.53125 q 0.5,-1.8125 1.71875,-2.67188 1.23437,-0.875 3.67187,-0.875 2.20313,0 3.28125,0.53125 1.07813,0.51563 1.51563,1.32813 0.4375,0.79687 0.4375,2.9375 l -0.0312,3.84375 q 0,1.64062 0.15625,2.42187 0.15625,0.78125 0.59375,1.67188 h -3.26563 q -0.125,-0.32813 -0.3125,-0.96875 -0.0781,-0.29688 -0.125,-0.39063 -0.84375,0.8125 -1.8125,1.23438 -0.95312,0.40625 -2.03125,0.40625 -1.92187,0 -3.03125,-1.04688 -1.10937,-1.04687 -1.10937,-2.64062 0,-1.04688 0.5,-1.875 0.5,-0.82813 1.40625,-1.26563 0.92187,-0.4375 2.625,-0.76562 2.3125,-0.4375 3.20312,-0.8125 v -0.32813 q 0,-0.95312 -0.46875,-1.34375 -0.46875,-0.40625 -1.76562,-0.40625 -0.89063,0 -1.39063,0.34375 -0.48437,0.34375 -0.78125,1.20313 z m 4.40625,2.67187 q -0.64062,0.21875 -2.01562,0.51563 -1.35938,0.28125 -1.78125,0.5625 -0.64063,0.46875 -0.64063,1.17187 0,0.6875 0.51563,1.1875 0.51562,0.5 1.3125,0.5 0.89062,0 1.6875,-0.57812 0.60937,-0.45313 0.79687,-1.09375 0.125,-0.42188 0.125,-1.60938 z m 6.17578,6.8125 3.76563,0.45313 q 0.0937,0.65625 0.42187,0.90625 0.46875,0.34375 1.48438,0.34375 1.28125,0 1.9375,-0.39063 0.42187,-0.25 0.65625,-0.82812 0.14062,-0.40625 0.14062,-1.51563 v -1.8125 q -1.46875,2.01563 -3.71875,2.01563 -2.51562,0 -3.96875,-2.125 -1.15625,-1.67188 -1.15625,-4.17188 0,-3.125 1.5,-4.78125 1.51563,-1.65625 3.75,-1.65625 2.3125,0 3.8125,2.03125 v -1.75 h 3.07813 v 11.17188 q 0,2.20312 -0.35938,3.29687 -0.35937,1.09375 -1.01562,1.70313 -0.65625,0.625 -1.76563,0.96875 -1.09375,0.35937 -2.76562,0.35937 -3.15625,0 -4.48438,-1.07812 -1.32812,-1.07813 -1.32812,-2.75 0,-0.15625 0.0156,-0.39063 z m 2.9375,-7.3125 q 0,1.98438 0.76563,2.90625 0.76562,0.92188 1.89062,0.92188 1.21875,0 2.04688,-0.9375 0.82812,-0.95313 0.82812,-2.8125 0,-1.92188 -0.79687,-2.85938 -0.79688,-0.9375 -2.01563,-0.9375 -1.1875,0 -1.95312,0.92188 -0.76563,0.90625 -0.76563,2.79687 z m 19.23828,2.51563 3.28125,0.5625 q -0.64062,1.79687 -2.01562,2.75 -1.35938,0.9375 -3.40625,0.9375 -3.25,0 -4.79688,-2.125 -1.23437,-1.70313 -1.23437,-4.28125 0,-3.09375 1.60937,-4.84375 1.625,-1.76563 4.09375,-1.76563 2.78125,0 4.375,1.84375 1.60938,1.82813 1.54688,5.60938 h -8.25 q 0.0312,1.46875 0.79687,2.28125 0.76563,0.8125 1.89063,0.8125 0.78125,0 1.29687,-0.42188 0.53125,-0.42187 0.8125,-1.35937 z m 0.1875,-3.32813 q -0.0469,-1.42187 -0.75,-2.15625 -0.70312,-0.75 -1.70312,-0.75 -1.07813,0 -1.78125,0.78125 -0.70313,0.78125 -0.6875,2.125 z"
     fill-rule="nonzero"
     id="path53" />
  <path
     fill="#9fc5e8"
     d="m 284.58815,211.76532 h 40.01575 v -6.27559 l 12.55117,12.55118 -12.55117,12.55118 v -6.27559 h -40.01575 z"
     fill-rule="evenodd"
     id="path55" />
  <path
     stroke="#595959"
     stroke-width="1"
     stroke-linejoin="round"
     stroke-linecap="butt"
     d="m 284.58815,211.76532 h 40.01575 v -6.27559 l 12.55117,12.55118 -12.55117,12.55118 v -6.27559 h -40.01575 z"
     fill-rule="evenodd"
     id="path57" />
  <path
     fill="#9fc5e8"
     d="m 496.05009,211.76532 h 40.01575 v -6.27559 l 12.55114,12.55118 -12.55114,12.55118 v -6.27559 h -40.01575 z"
     fill-rule="evenodd"
     id="path59" />
  <path
     stroke="#595959"
     stroke-width="1"
     stroke-linejoin="round"
     stroke-linecap="butt"
     d="m 496.05009,211.76532 h 40.01575 v -6.27559 l 12.55114,12.55118 -12.55114,12.55118 v -6.27559 h -40.01575 z"
     fill-rule="evenodd"
     id="path61" />
  <path
     fill="#efefef"
     d="m 394.74693,155.75281 h 14.25198 v -30.04724 h 28.50394 v 30.04724 h 14.25195 l -28.50393,28.50394 z"
     fill-rule="evenodd"
     id="path63" />
  <path
     stroke="#cccccc"
     stroke-width="1"
     stroke-linejoin="round"
     stroke-linecap="butt"
     d="m 394.74693,155.75281 h 14.25198 v -30.04724 h 28.50394 v 30.04724 h 14.25195 l -28.50393,28.50394 z"
     fill-rule="evenodd"
     id="path65" />
  <path
     fill="#9fc5e8"
     d="M 284.58815,86.897169 H 324.6039 V 80.62158 l 12.55117,12.551179 -12.55117,12.551181 v -6.275591 h -40.01575 z"
     fill-rule="evenodd"
     id="path67" />
  <path
     stroke="#595959"
     stroke-width="1"
     stroke-linejoin="round"
     stroke-linecap="butt"
     d="M 284.58815,86.897169 H 324.6039 V 80.62158 l 12.55117,12.551179 -12.55117,12.551181 v -6.275591 h -40.01575 z"
     fill-rule="evenodd"
     id="path69" />
  <path
     fill="#d0e0e3"
     d="m 363.08229,77.057839 v 0 c 0,-4.450256 3.60767,-8.057907 8.05792,-8.057907 h 92.04166 c 2.13709,0 4.18665,0.848953 5.69782,2.360107 1.51114,1.511147 2.3601,3.560707 2.3601,5.6978 v 32.230641 c 0,4.45026 -3.60766,8.05791 -8.05792,8.05791 h -92.04166 c -4.45025,0 -8.05792,-3.60765 -8.05792,-8.05791 z"
     fill-rule="evenodd"
     id="path71" />
  <path
     stroke="#000000"
     stroke-width="2"
     stroke-linejoin="round"
     stroke-linecap="butt"
     d="m 363.08229,77.057839 v 0 c 0,-4.450256 3.60767,-8.057907 8.05792,-8.057907 h 92.04166 c 2.13709,0 4.18665,0.848953 5.69782,2.360107 1.51114,1.511147 2.3601,3.560707 2.3601,5.6978 v 32.230641 c 0,4.45026 -3.60766,8.05791 -8.05792,8.05791 h -92.04166 c -4.45025,0 -8.05792,-3.60765 -8.05792,-8.05791 z"
     fill-rule="evenodd"
     id="path73" />
  <path
     fill="#000000"
     d="m 396.56205,88.143159 q 1.0625,0 1.8125,0.3125 0.75,0.296875 1.45312,0.921875 l -0.79687,0.890625 q -0.59375,-0.484375 -1.17188,-0.703125 -0.57812,-0.21875 -1.23437,-0.21875 -0.82813,0 -1.375,0.390625 -0.53125,0.375 -0.53125,1.109375 0,0.453125 0.1875,0.781255 0.1875,0.3125 0.67187,0.57812 0.5,0.25 1.45313,0.54688 1,0.29687 1.65625,0.65625 0.65625,0.34375 1.0625,0.96875 0.40625,0.625 0.40625,1.57812 0,0.92188 -0.45313,1.625 -0.4375,0.70313 -1.29687,1.10938 -0.84375,0.39062 -2.01563,0.39062 -2.1875,0 -3.57812,-1.375 l 0.79687,-0.875 q 0.64063,0.51563 1.29688,0.78125 0.65625,0.26563 1.46875,0.26563 0.98437,0 1.625,-0.48438 0.64062,-0.48437 0.64062,-1.39062 0,-0.53125 -0.20312,-0.875 -0.1875,-0.34375 -0.67188,-0.60938 -0.48437,-0.28125 -1.40625,-0.5625 -1.625,-0.48437 -2.375,-1.17187 -0.75,-0.70313 -0.75,-1.875005 0,-0.796875 0.42188,-1.421875 0.42187,-0.640625 1.17187,-0.984375 0.76563,-0.359375 1.73438,-0.359375 z m 8.61948,2.484375 q 0.71875,0 1.3125,0.21875 0.59375,0.203125 1.14062,0.656255 l -0.67187,0.89062 q -0.42188,-0.3125 -0.82813,-0.45312 -0.40625,-0.14063 -0.90625,-0.14063 -0.96875,0 -1.51562,0.78125 -0.54688,0.78125 -0.54688,2.3125 0,1.53125 0.53125,2.26563 0.54688,0.71875 1.53125,0.71875 0.48438,0 0.875,-0.14063 0.40625,-0.14062 0.89063,-0.46875 l 0.64062,0.92188 q -1.09375,0.89062 -2.45312,0.89062 -1.64063,0 -2.59375,-1.09375 -0.9375,-1.10937 -0.9375,-3.0625 0,-1.28125 0.42187,-2.25 0.4375,-0.96875 1.21875,-1.5 0.79688,-0.546875 1.89063,-0.546875 z m 9.65789,6.375005 q 0,0.5 0.17188,0.73437 0.17187,0.23438 0.51562,0.35938 l -0.32812,0.98437 q -0.625,-0.0781 -1.01563,-0.34375 -0.375,-0.28125 -0.5625,-0.875 -0.8125,1.21875 -2.40625,1.21875 -1.20312,0 -1.89062,-0.67187 -0.6875,-0.6875 -0.6875,-1.76563 0,-1.29687 0.92187,-1.98437 0.9375,-0.6875 2.64063,-0.6875 h 1.23437 v -0.59375 q 0,-0.85938 -0.42187,-1.21875 -0.40625,-0.375 -1.26563,-0.375 -0.89062,0 -2.17187,0.42187 l -0.35938,-1.01562 q 1.51563,-0.562505 2.79688,-0.562505 1.42187,0 2.125,0.703125 0.70312,0.70313 0.70312,1.98438 z m -3.29687,1.01562 q 1.20312,0 1.89062,-1.25 v -1.85937 h -1.04687 q -2.25,0 -2.25,1.65625 0,0.71875 0.34375,1.09375 0.35937,0.35937 1.0625,0.35937 z m 7.65396,1.0625 q -0.78125,0 -1.23438,-0.46875 -0.45312,-0.46875 -0.45312,-1.3125 v -9.734375 l 1.42187,-0.171875 v 9.875 q 0,0.34375 0.10938,0.5 0.10937,0.14063 0.39062,0.14063 0.29688,0 0.51563,-0.0937 l 0.375,0.98437 q -0.51563,0.28125 -1.125,0.28125 z m 4.28802,-8.265625 v 8.078125 h -1.40625 v -8.078125 z m -0.70312,-3.875 q 0.4375,0 0.71875,0.28125 0.28125,0.265625 0.28125,0.6875 0,0.40625 -0.28125,0.671875 -0.28125,0.265625 -0.71875,0.265625 -0.4375,0 -0.71875,-0.265625 -0.26563,-0.265625 -0.26563,-0.671875 0,-0.421875 0.26563,-0.6875 0.28125,-0.28125 0.71875,-0.28125 z m 7.41629,3.6875 q 1.10938,0 1.73438,0.671875 0.625,0.65625 0.625,1.79688 v 5.79687 h -1.42188 v -5.59375 q 0,-0.85937 -0.32812,-1.20312 -0.3125,-0.35938 -0.9375,-0.35938 -0.64063,0 -1.14063,0.375 -0.48437,0.35938 -0.92187,1.04688 v 5.73437 h -1.40625 v -8.078125 h 1.21875 l 0.125,1.203125 q 0.42187,-0.65625 1.04687,-1.015625 0.64063,-0.375 1.40625,-0.375 z m 11.70105,0.562505 q -0.45312,0.14062 -1.01562,0.1875 -0.54688,0.0469 -1.34375,0.0469 1.42187,0.64063 1.42187,2.04688 0,1.20312 -0.82812,1.96875 -0.82813,0.76562 -2.25,0.76562 -0.54688,0 -1.03125,-0.14062 -0.17188,0.10937 -0.28125,0.32812 -0.10938,0.20313 -0.10938,0.42188 0,0.65625 1.0625,0.65625 h 1.28125 q 0.8125,0 1.4375,0.29687 0.625,0.28125 0.96875,0.79688 0.35938,0.5 0.35938,1.14062 0,1.187501 -0.96875,1.812501 -0.96875,0.64063 -2.82813,0.64063 -1.29687,0 -2.0625,-0.26563 -0.75,-0.26562 -1.07812,-0.8125 -0.3125,-0.53125 -0.3125,-1.375001 h 1.26562 q 0,0.484381 0.17188,0.765631 0.1875,0.29687 0.65625,0.4375 0.48437,0.14062 1.35937,0.14062 1.28125,0 1.8125,-0.3125 0.54688,-0.3125 0.54688,-0.937501 0,-0.5625 -0.4375,-0.85937 -0.42188,-0.29688 -1.1875,-0.29688 h -1.26563 q -1.03125,0 -1.5625,-0.4375 -0.53125,-0.4375 -0.53125,-1.09375 0,-0.39062 0.23438,-0.75 0.23437,-0.375 0.65625,-0.67187 -0.70313,-0.375 -1.03125,-0.90625 -0.32813,-0.54688 -0.32813,-1.32813 0,-0.8125 0.40625,-1.45312 0.40625,-0.65625 1.10938,-1.01563 0.71875,-0.359375 1.59375,-0.359375 0.95312,0.01563 1.59375,-0.0625 0.64062,-0.09375 1.0625,-0.234375 0.42187,-0.140625 1.04687,-0.421875 z m -4.10937,0.45312 q -0.79688,0 -1.23438,0.5 -0.4375,0.5 -0.4375,1.3125 0,0.82813 0.4375,1.32813 0.45313,0.48437 1.26563,0.48437 0.82812,0 1.26562,-0.46875 0.4375,-0.48437 0.4375,-1.35937 0,-1.79688 -1.73437,-1.79688 z"
     fill-rule="nonzero"
     id="path75" />
  <path
     fill="#d0e0e3"
     d="m 363.0829,210.77947 v 0 c 0,-9.95583 8.07077,-18.02661 18.02661,-18.02661 h 72.10425 v 0 c 4.78095,0 9.36609,1.89923 12.74674,5.27988 3.38064,3.38064 5.27987,7.96577 5.27987,12.74673 v 84.5137 c 0,9.95584 -8.0708,18.02661 -18.02661,18.02661 h -72.10425 c -9.95584,0 -18.02661,-8.07077 -18.02661,-18.02661 z"
     fill-rule="evenodd"
     id="path77" />
  <path
     stroke="#000000"
     stroke-width="2"
     stroke-linejoin="round"
     stroke-linecap="butt"
     d="m 363.0829,210.77947 v 0 c 0,-9.95583 8.07077,-18.02661 18.02661,-18.02661 h 72.10425 v 0 c 4.78095,0 9.36609,1.89923 12.74674,5.27988 3.38064,3.38064 5.27987,7.96577 5.27987,12.74673 v 84.5137 c 0,9.95584 -8.0708,18.02661 -18.02661,18.02661 h -72.10425 c -9.95584,0 -18.02661,-8.07077 -18.02661,-18.02661 z"
     fill-rule="evenodd"
     id="path79" />
  <path
     fill="#000000"
     d="m 396.56266,212.00632 q 1.0625,0 1.8125,0.3125 0.75,0.29687 1.45312,0.92187 l -0.79687,0.89063 q -0.59375,-0.48438 -1.17188,-0.70313 -0.57812,-0.21875 -1.23437,-0.21875 -0.82813,0 -1.375,0.39063 -0.53125,0.375 -0.53125,1.10937 0,0.45313 0.1875,0.78125 0.1875,0.3125 0.67187,0.57813 0.5,0.25 1.45313,0.54687 1,0.29688 1.65625,0.65625 0.65625,0.34375 1.0625,0.96875 0.40625,0.625 0.40625,1.57813 0,0.92187 -0.45313,1.625 -0.4375,0.70312 -1.29687,1.10937 -0.84375,0.39063 -2.01563,0.39063 -2.1875,0 -3.57812,-1.375 l 0.79687,-0.875 q 0.64063,0.51562 1.29688,0.78125 0.65625,0.26562 1.46875,0.26562 0.98437,0 1.625,-0.48437 0.64062,-0.48438 0.64062,-1.39063 0,-0.53125 -0.20312,-0.875 -0.1875,-0.34375 -0.67188,-0.60937 -0.48437,-0.28125 -1.40625,-0.5625 -1.625,-0.48438 -2.375,-1.17188 -0.75,-0.70312 -0.75,-1.875 0,-0.79687 0.42188,-1.42187 0.42187,-0.64063 1.17187,-0.98438 0.76563,-0.35937 1.73438,-0.35937 z m 8.61948,2.48437 q 0.71875,0 1.3125,0.21875 0.59375,0.20313 1.14062,0.65625 l -0.67187,0.89063 q -0.42188,-0.3125 -0.82813,-0.45313 -0.40625,-0.14062 -0.90625,-0.14062 -0.96875,0 -1.51562,0.78125 -0.54688,0.78125 -0.54688,2.3125 0,1.53125 0.53125,2.26562 0.54688,0.71875 1.53125,0.71875 0.48438,0 0.875,-0.14062 0.40625,-0.14063 0.89063,-0.46875 l 0.64062,0.92187 q -1.09375,0.89063 -2.45312,0.89063 -1.64063,0 -2.59375,-1.09375 -0.9375,-1.10938 -0.9375,-3.0625 0,-1.28125 0.42187,-2.25 0.4375,-0.96875 1.21875,-1.5 0.79688,-0.54688 1.89063,-0.54688 z m 9.65789,6.375 q 0,0.5 0.17188,0.73438 0.17187,0.23437 0.51562,0.35937 l -0.32812,0.98438 q -0.625,-0.0781 -1.01563,-0.34375 -0.375,-0.28125 -0.5625,-0.875 -0.8125,1.21875 -2.40625,1.21875 -1.20312,0 -1.89062,-0.67188 -0.6875,-0.6875 -0.6875,-1.76562 0,-1.29688 0.92187,-1.98438 0.9375,-0.6875 2.64063,-0.6875 h 1.23437 v -0.59375 q 0,-0.85937 -0.42187,-1.21875 -0.40625,-0.375 -1.26563,-0.375 -0.89062,0 -2.17187,0.42188 l -0.35938,-1.01563 q 1.51563,-0.5625 2.79688,-0.5625 1.42187,0 2.125,0.70313 0.70312,0.70312 0.70312,1.98437 z m -3.29687,1.01563 q 1.20312,0 1.89062,-1.25 v -1.85938 h -1.04687 q -2.25,0 -2.25,1.65625 0,0.71875 0.34375,1.09375 0.35937,0.35938 1.0625,0.35938 z m 7.65393,1.0625 q -0.78125,0 -1.23438,-0.46875 -0.45312,-0.46875 -0.45312,-1.3125 v -9.73438 l 1.42187,-0.17187 v 9.875 q 0,0.34375 0.10938,0.5 0.10937,0.14062 0.39062,0.14062 0.29688,0 0.51563,-0.0937 l 0.375,0.98438 q -0.51563,0.28125 -1.125,0.28125 z m 4.28802,-8.26563 v 8.07813 h -1.40625 v -8.07813 z m -0.70312,-3.875 q 0.4375,0 0.71875,0.28125 0.28125,0.26563 0.28125,0.6875 0,0.40625 -0.28125,0.67188 -0.28125,0.26562 -0.71875,0.26562 -0.4375,0 -0.71875,-0.26562 -0.26563,-0.26563 -0.26563,-0.67188 0,-0.42187 0.26563,-0.6875 0.28125,-0.28125 0.71875,-0.28125 z m 7.41629,3.6875 q 1.10937,0 1.73437,0.67188 0.625,0.65625 0.625,1.79687 v 5.79688 h -1.42187 v -5.59375 q 0,-0.85938 -0.32813,-1.20313 -0.3125,-0.35937 -0.9375,-0.35937 -0.64062,0 -1.14062,0.375 -0.48438,0.35937 -0.92188,1.04687 v 5.73438 h -1.40625 v -8.07813 h 1.21875 l 0.125,1.20313 q 0.42188,-0.65625 1.04688,-1.01563 0.64062,-0.375 1.40625,-0.375 z m 11.70105,0.5625 q -0.45313,0.14063 -1.01563,0.1875 -0.54687,0.0469 -1.34375,0.0469 1.42188,0.64062 1.42188,2.04687 0,1.20313 -0.82813,1.96875 -0.82812,0.76563 -2.25,0.76563 -0.54687,0 -1.03125,-0.14063 -0.17187,0.10938 -0.28125,0.32813 -0.10937,0.20312 -0.10937,0.42187 0,0.65625 1.0625,0.65625 h 1.28125 q 0.8125,0 1.4375,0.29688 0.625,0.28125 0.96875,0.79687 0.35937,0.5 0.35937,1.14063 0,1.1875 -0.96875,1.8125 -0.96875,0.64062 -2.82812,0.64062 -1.29688,0 -2.0625,-0.26562 -0.75,-0.26563 -1.07813,-0.8125 -0.3125,-0.53125 -0.3125,-1.375 h 1.26563 q 0,0.48437 0.17187,0.76562 0.1875,0.29688 0.65625,0.4375 0.48438,0.14063 1.35938,0.14063 1.28125,0 1.8125,-0.3125 0.54687,-0.3125 0.54687,-0.9375 0,-0.5625 -0.4375,-0.85938 -0.42187,-0.29687 -1.1875,-0.29687 h -1.26562 q -1.03125,0 -1.5625,-0.4375 -0.53125,-0.4375 -0.53125,-1.09375 0,-0.39063 0.23437,-0.75 0.23438,-0.375 0.65625,-0.67188 -0.70312,-0.375 -1.03125,-0.90625 -0.32812,-0.54687 -0.32812,-1.32812 0,-0.8125 0.40625,-1.45313 0.40625,-0.65625 1.10937,-1.01562 0.71875,-0.35938 1.59375,-0.35938 0.95313,0.0156 1.59375,-0.0625 0.64063,-0.0937 1.0625,-0.23437 0.42188,-0.14063 1.04688,-0.42188 z m -4.10938,0.45313 q -0.79687,0 -1.23437,0.5 -0.4375,0.5 -0.4375,1.3125 0,0.82812 0.4375,1.32812 0.45312,0.48438 1.26562,0.48438 0.82813,0 1.26563,-0.46875 0.4375,-0.48438 0.4375,-1.35938 0,-1.79687 -1.73438,-1.79687 z"
     fill-rule="nonzero"
     id="path81" />
  <path
     fill="#eeeeee"
     d="m 368.83091,254.00237 v 0 c 0,-6.21295 5.03662,-11.24956 11.24957,-11.24956 h 74.16229 c 2.98355,0 5.84494,1.18521 7.95462,3.29492 2.10971,2.1097 3.29493,4.97109 3.29493,7.95464 v 44.99695 c 0,6.21295 -5.0366,11.24954 -11.24955,11.24954 h -74.16229 c -6.21295,0 -11.24957,-5.03659 -11.24957,-11.24954 z"
     fill-rule="evenodd"
     id="path83" />
  <path
     stroke="#595959"
     stroke-width="1"
     stroke-linejoin="round"
     stroke-linecap="butt"
     d="m 368.83091,254.00237 v 0 c 0,-6.21295 5.03662,-11.24956 11.24957,-11.24956 h 74.16229 c 2.98355,0 5.84494,1.18521 7.95462,3.29492 2.10971,2.1097 3.29493,4.97109 3.29493,7.95464 v 44.99695 c 0,6.21295 -5.0366,11.24954 -11.24955,11.24954 h -74.16229 c -6.21295,0 -11.24957,-5.03659 -11.24957,-11.24954 z"
     fill-rule="evenodd"
     id="path85" />
  <path
     fill="#000000"
     d="m 392.71263,269.68961 1.375,-0.10937 q 0.0937,0.8125 0.4375,1.34375 0.35938,0.53125 1.10938,0.85937 0.75,0.32813 1.6875,0.32813 0.82812,0 1.46875,-0.25 0.64062,-0.25 0.9375,-0.67188 0.3125,-0.4375 0.3125,-0.95312 0,-0.51563 -0.29688,-0.89063 -0.29687,-0.39062 -0.98437,-0.65625 -0.4375,-0.17187 -1.95313,-0.53125 -1.51562,-0.35937 -2.10937,-0.6875 -0.79688,-0.40625 -1.1875,-1.01562 -0.375,-0.60938 -0.375,-1.375 0,-0.82813 0.46875,-1.54688 0.46875,-0.71875 1.375,-1.09375 0.90625,-0.375 2.01562,-0.375 1.21875,0 2.14063,0.39063 0.9375,0.39062 1.4375,1.15625 0.51562,0.76562 0.54687,1.73437 l -1.39062,0.0937 q -0.10938,-1.03125 -0.76563,-1.5625 -0.64062,-0.53125 -1.90625,-0.53125 -1.3125,0 -1.92187,0.48438 -0.60938,0.48437 -0.60938,1.15625 0,0.59375 0.4375,0.96875 0.42188,0.39062 2.1875,0.79687 1.76563,0.39063 2.42188,0.6875 0.96875,0.4375 1.42187,1.125 0.45313,0.67188 0.45313,1.5625 0,0.875 -0.5,1.65625 -0.5,0.76563 -1.4375,1.20313 -0.9375,0.42187 -2.125,0.42187 -1.48438,0 -2.5,-0.4375 -1,-0.4375 -1.57813,-1.29687 -0.5625,-0.875 -0.59375,-1.98438 z m 15.73938,0.625 1.3125,0.17188 q -0.20313,1.35937 -1.10938,2.14062 -0.89062,0.76563 -2.1875,0.76563 -1.64062,0 -2.64062,-1.0625 -0.98438,-1.0625 -0.98438,-3.04688 0,-1.29687 0.42188,-2.25 0.4375,-0.96875 1.3125,-1.45312 0.875,-0.48438 1.89062,-0.48438 1.29688,0 2.10938,0.65625 0.82812,0.65625 1.0625,1.85938 l -1.3125,0.20312 q -0.1875,-0.8125 -0.65625,-1.20312 -0.46875,-0.40625 -1.14063,-0.40625 -1.03125,0 -1.67187,0.73437 -0.625,0.71875 -0.625,2.29688 0,1.60937 0.60937,2.34375 0.60938,0.71875 1.60938,0.71875 0.78125,0 1.3125,-0.48438 0.54687,-0.5 0.6875,-1.5 z m 7.66406,1.92188 q -0.75,0.64062 -1.45312,0.90625 -0.6875,0.25 -1.48438,0.25 -1.3125,0 -2.01562,-0.625 -0.70313,-0.64063 -0.70313,-1.64063 0,-0.57812 0.26563,-1.0625 0.26562,-0.48437 0.70312,-0.78125 0.4375,-0.29687 0.96875,-0.4375 0.39063,-0.10937 1.20313,-0.20312 1.625,-0.20313 2.39062,-0.46875 0.0156,-0.28125 0.0156,-0.34375 0,-0.82813 -0.39063,-1.17188 -0.51562,-0.45312 -1.53125,-0.45312 -0.95312,0 -1.40625,0.34375 -0.45312,0.32812 -0.65625,1.17187 l -1.32812,-0.1875 q 0.1875,-0.84375 0.59375,-1.35937 0.40625,-0.51563 1.1875,-0.79688 0.78125,-0.28125 1.8125,-0.28125 1.01562,0 1.64062,0.23438 0.64063,0.23437 0.9375,0.60937 0.3125,0.35938 0.42188,0.90625 0.0781,0.34375 0.0781,1.25 v 1.79688 q 0,1.875 0.0781,2.375 0.0937,0.5 0.34375,0.95312 h -1.40625 q -0.21875,-0.42187 -0.26563,-0.98437 z m -0.125,-3 q -0.73437,0.29687 -2.1875,0.5 -0.84375,0.125 -1.1875,0.28125 -0.34375,0.14062 -0.53125,0.4375 -0.1875,0.28125 -0.1875,0.625 0,0.54687 0.40625,0.90625 0.42188,0.35937 1.20313,0.35937 0.78125,0 1.375,-0.34375 0.60937,-0.34375 0.90625,-0.92187 0.20312,-0.46875 0.20312,-1.35938 z m 3.43103,3.98437 v -10.96875 h 1.34375 v 10.96875 z m 3.43668,-9.42187 v -1.54688 h 1.34375 v 1.54688 z m 0,9.42187 v -7.95312 h 1.34375 v 7.95312 z m 3.40542,0 v -7.95312 h 1.20313 v 1.14062 q 0.875,-1.3125 2.53125,-1.3125 0.71875,0 1.3125,0.26563 0.60937,0.25 0.90625,0.67187 0.3125,0.42188 0.42187,0.98438 0.0781,0.375 0.0781,1.3125 v 4.89062 h -1.34375 v -4.82812 q 0,-0.82813 -0.15625,-1.23438 -0.15625,-0.40625 -0.5625,-0.64062 -0.40625,-0.25 -0.9375,-0.25 -0.85938,0 -1.48438,0.54687 -0.625,0.53125 -0.625,2.0625 v 4.34375 z m 8.27478,0.65625 1.3125,0.20313 q 0.0781,0.59375 0.4531,0.875 0.5,0.375 1.375,0.375 0.92187,0 1.4375,-0.375 0.51562,-0.375 0.6875,-1.04688 0.10937,-0.40625 0.0937,-1.73437 -0.875,1.04687 -2.20313,1.04687 -1.62497,0 -2.53122,-1.17187 -0.89062,-1.1875 -0.89062,-2.84375 0,-1.14063 0.40625,-2.09375 0.40625,-0.96875 1.1875,-1.48438 0.78122,-0.53125 1.84372,-0.53125 1.40625,0 2.3125,1.14063 v -0.96875 h 1.25 v 6.875 q 0,1.85937 -0.375,2.625 -0.375,0.78125 -1.20313,1.21875 -0.8125,0.45312 -2.01562,0.45312 -1.42188,0 -2.29685,-0.64062 -0.875,-0.625 -0.84375,-1.92188 z m 1.10938,-4.76562 q 0,1.5625 0.62497,2.28125 0.625,0.71875 1.5625,0.71875 0.92187,0 1.54687,-0.71875 0.625,-0.71875 0.625,-2.25 0,-1.45313 -0.64062,-2.1875 -0.64063,-0.75 -1.5625,-0.75 -0.89063,0 -1.53125,0.73437 -0.62497,0.73438 -0.62497,2.17188 z"
     fill-rule="nonzero"
     id="path87" />
  <path
     fill="#000000"
     d="M 392.85975,291.22085 V 280.2521 h 7.40625 v 1.29687 h -5.95313 v 3.39063 h 5.15625 v 1.29687 h -5.15625 v 4.98438 z m 14.31616,-0.98438 q -0.75,0.64063 -1.45312,0.90625 -0.6875,0.25 -1.48438,0.25 -1.3125,0 -2.01562,-0.625 -0.70313,-0.64062 -0.70313,-1.64062 0,-0.57813 0.26563,-1.0625 0.26562,-0.48438 0.70312,-0.78125 0.4375,-0.29688 0.96875,-0.4375 0.39063,-0.10938 1.20313,-0.20313 1.625,-0.20312 2.39062,-0.46875 0.0156,-0.28125 0.0156,-0.34375 0,-0.82812 -0.39063,-1.17187 -0.51562,-0.45313 -1.53125,-0.45313 -0.95312,0 -1.40625,0.34375 -0.45312,0.32813 -0.65625,1.17188 l -1.32812,-0.1875 q 0.1875,-0.84375 0.59375,-1.35938 0.40625,-0.51562 1.1875,-0.79687 0.78125,-0.28125 1.8125,-0.28125 1.01562,0 1.64062,0.23437 0.64063,0.23438 0.9375,0.60938 0.3125,0.35937 0.42188,0.90625 0.0781,0.34375 0.0781,1.25 v 1.79687 q 0,1.875 0.0781,2.375 0.0937,0.5 0.34375,0.95313 h -1.40625 q -0.21875,-0.42188 -0.26563,-0.98438 z m -0.125,-3 q -0.73437,0.29688 -2.1875,0.5 -0.84375,0.125 -1.1875,0.28125 -0.34375,0.14063 -0.53125,0.4375 -0.1875,0.28125 -0.1875,0.625 0,0.54688 0.40625,0.90625 0.42188,0.35938 1.20313,0.35938 0.78125,0 1.375,-0.34375 0.60937,-0.34375 0.90625,-0.92188 0.20312,-0.46875 0.20312,-1.35937 z m 8.64978,1.07813 1.3125,0.17187 q -0.20312,1.35938 -1.10937,2.14063 -0.89063,0.76562 -2.1875,0.76562 -1.64063,0 -2.64063,-1.0625 -0.98437,-1.0625 -0.98437,-3.04687 0,-1.29688 0.42187,-2.25 0.4375,-0.96875 1.3125,-1.45313 0.875,-0.48437 1.89063,-0.48437 1.29687,0 2.10937,0.65625 0.82813,0.65625 1.0625,1.85937 l -1.3125,0.20313 q -0.1875,-0.8125 -0.65625,-1.20313 -0.46875,-0.40625 -1.14062,-0.40625 -1.03125,0 -1.67188,0.73438 -0.625,0.71875 -0.625,2.29687 0,1.60938 0.60938,2.34375 0.60937,0.71875 1.60937,0.71875 0.78125,0 1.3125,-0.48437 0.54688,-0.5 0.6875,-1.5 z m 5.41406,1.70312 0.1875,1.1875 q -0.5625,0.125 -1.01562,0.125 -0.73438,0 -1.14063,-0.23437 -0.39062,-0.23438 -0.5625,-0.60938 -0.17187,-0.375 -0.17187,-1.59375 v -4.57812 h -0.98438 v -1.04688 h 0.98438 v -1.96875 l 1.34375,-0.79687 v 2.76562 h 1.35937 v 1.04688 h -1.35937 v 4.65625 q 0,0.57812 0.0625,0.75 0.0781,0.15625 0.23437,0.25 0.17188,0.0937 0.46875,0.0937 0.21875,0 0.59375,-0.0469 z m 0.82114,-2.76562 q 0,-2.21875 1.21875,-3.28125 1.03125,-0.875 2.5,-0.875 1.64063,0 2.67188,1.07812 1.04687,1.0625 1.04687,2.95313 0,1.54687 -0.46875,2.42187 -0.45312,0.875 -1.32812,1.35938 -0.875,0.48437 -1.92188,0.48437 -1.67187,0 -2.70312,-1.0625 -1.01563,-1.0625 -1.01563,-3.07812 z m 1.375,0 q 0,1.51562 0.65625,2.28125 0.67188,0.76562 1.6875,0.76562 1,0 1.67188,-0.76562 0.67187,-0.76563 0.67187,-2.32813 0,-1.48437 -0.67187,-2.23437 -0.67188,-0.76563 -1.67188,-0.76563 -1.01562,0 -1.6875,0.76563 -0.65625,0.75 -0.65625,2.28125 z m 7.63416,3.96875 v -7.95313 h 1.20312 v 1.20313 q 0.46875,-0.84375 0.85938,-1.10938 0.39062,-0.26562 0.85937,-0.26562 0.6875,0 1.39063,0.4375 l -0.46875,1.25 q -0.48438,-0.29688 -0.98438,-0.29688 -0.4375,0 -0.79687,0.26563 -0.34375,0.26562 -0.5,0.73437 -0.21875,0.71875 -0.21875,1.57813 v 4.15625 z m 4.57315,-2.375 1.32812,-0.20313 q 0.125,0.79688 0.625,1.23438 0.51563,0.42187 1.4375,0.42187 0.9375,0 1.375,-0.375 0.45313,-0.39062 0.45313,-0.89062 0,-0.46875 -0.39063,-0.71875 -0.28125,-0.1875 -1.375,-0.46875 -1.48437,-0.375 -2.0625,-0.64063 -0.57812,-0.26562 -0.875,-0.75 -0.28125,-0.48437 -0.28125,-1.07812 0,-0.53125 0.23438,-0.98438 0.25,-0.45312 0.67187,-0.75 0.3125,-0.23437 0.84375,-0.39062 0.54688,-0.15625 1.17188,-0.15625 0.9375,0 1.64062,0.26562 0.70313,0.26563 1.03125,0.73438 0.34375,0.45312 0.46875,1.23437 l -1.3125,0.17188 q -0.0937,-0.60938 -0.53125,-0.95313 -0.42187,-0.34375 -1.20312,-0.34375 -0.92188,0 -1.32813,0.3125 -0.39062,0.29688 -0.39062,0.70313 0,0.26562 0.15625,0.46875 0.17187,0.21875 0.51562,0.35937 0.20313,0.0781 1.20313,0.35938 1.42187,0.375 1.98437,0.625 0.5625,0.23437 0.89063,0.70312 0.32812,0.45313 0.32812,1.15625 0,0.67188 -0.40625,1.26563 -0.39062,0.59375 -1.125,0.92187 -0.73437,0.3125 -1.67187,0.3125 -1.5625,0 -2.375,-0.64062 -0.79688,-0.64063 -1.03125,-1.90625 z"
     fill-rule="nonzero"
     id="path89" />
  <path
     fill="#6d9eeb"
     d="m 176.71543,39.691864 h 96.66141 V 142.65249 h -96.66141 z"
     fill-rule="evenodd"
     id="path91" />
  <path
     stroke="#000000"
     stroke-width="2"
     stroke-linejoin="round"
     stroke-linecap="butt"
     d="m 176.71543,39.691864 h 96.66141 V 142.65249 h -96.66141 z"
     fill-rule="evenodd"
     id="path93" />
  <path
     fill="#000000"
     d="m 200.56389,74.232799 -0.1875,1.515625 h -3.5625 v 11.34375 h -1.76563 v -11.34375 h -3.65625 v -1.515625 z m 5.67903,2.796875 q 0.51563,0 0.96875,0.125 l -0.3125,1.671875 q -0.45312,-0.109375 -0.85937,-0.109375 -0.92188,0 -1.48438,0.671875 -0.54687,0.671875 -0.875,2.09375 v 5.609375 h -1.71875 v -9.828125 h 1.48438 l 0.17187,2 q 0.39063,-1.109375 1.0625,-1.671875 0.67188,-0.5625 1.5625,-0.5625 z m 8.89173,7.765625 q 0,0.59375 0.20312,0.890625 0.21875,0.28125 0.625,0.4375 l -0.39062,1.1875 q -0.76563,-0.09375 -1.23438,-0.421875 -0.46875,-0.34375 -0.6875,-1.046875 -1,1.46875 -2.9375,1.46875 -1.45312,0 -2.29687,-0.8125 -0.82813,-0.828125 -0.82813,-2.15625 0,-1.5625 1.125,-2.390625 1.125,-0.84375 3.20313,-0.84375 h 1.5 v -0.734375 q 0,-1.046875 -0.5,-1.484375 -0.5,-0.453125 -1.54688,-0.453125 -1.07812,0 -2.64062,0.515625 l -0.4375,-1.25 q 1.82812,-0.671875 3.39062,-0.671875 1.73438,0 2.59375,0.859375 0.85938,0.84375 0.85938,2.40625 z m -4.03125,1.234375 q 1.48437,0 2.3125,-1.53125 v -2.25 h -1.28125 q -2.71875,0 -2.71875,2.015625 0,0.875 0.42187,1.328125 0.4375,0.4375 1.26563,0.4375 z m 9.274,-8.765625 v 9.828125 h -1.71875 v -9.828125 z m -0.85938,-4.71875 q 0.53125,0 0.85938,0.34375 0.34375,0.328125 0.34375,0.828125 0,0.5 -0.34375,0.828125 -0.32813,0.328125 -0.85938,0.328125 -0.53125,0 -0.875,-0.328125 -0.32812,-0.328125 -0.32812,-0.828125 0,-0.5 0.32812,-0.828125 0.34375,-0.34375 0.875,-0.34375 z m 9.04232,4.484375 q 1.34375,0 2.09375,0.8125 0.75,0.796875 0.75,2.203125 v 7.046875 h -1.71875 v -6.8125 q 0,-1.046875 -0.39063,-1.46875 -0.39062,-0.4375 -1.15625,-0.4375 -0.78125,0 -1.375,0.453125 -0.59375,0.453125 -1.125,1.28125 v 6.984375 h -1.71875 v -9.828125 h 1.48438 l 0.14062,1.453125 q 0.53125,-0.78125 1.29688,-1.234375 0.78125,-0.453125 1.71875,-0.453125 z m 8.01069,0.234375 v 9.828125 h -1.71875 v -9.828125 z m -0.85937,-4.71875 q 0.53125,0 0.85937,0.34375 0.34375,0.328125 0.34375,0.828125 0,0.5 -0.34375,0.828125 -0.32812,0.328125 -0.85937,0.328125 -0.53125,0 -0.875,-0.328125 -0.32813,-0.328125 -0.32813,-0.828125 0,-0.5 0.32813,-0.828125 0.34375,-0.34375 0.875,-0.34375 z m 9.04231,4.484375 q 1.34375,0 2.09375,0.8125 0.75,0.796875 0.75,2.203125 v 7.046875 h -1.71875 v -6.8125 q 0,-1.046875 -0.39063,-1.46875 -0.39062,-0.4375 -1.15625,-0.4375 -0.78125,0 -1.375,0.453125 -0.59375,0.453125 -1.125,1.28125 v 6.984375 h -1.71875 v -9.828125 h 1.48438 l 0.14062,1.453125 q 0.53125,-0.78125 1.29688,-1.234375 0.78125,-0.453125 1.71875,-0.453125 z m 14.22945,0.671875 q -0.5625,0.1875 -1.23438,0.25 -0.67187,0.0625 -1.64062,0.0625 1.73437,0.78125 1.73437,2.46875 0,1.484375 -1.01562,2.421875 -1,0.921875 -2.73438,0.921875 -0.67187,0 -1.25,-0.1875 -0.21875,0.15625 -0.35937,0.40625 -0.125,0.25 -0.125,0.515625 0,0.796875 1.28125,0.796875 h 1.57812 q 0.98438,0 1.75,0.359375 0.76563,0.34375 1.1875,0.96875 0.42188,0.609375 0.42188,1.390625 0,1.4375 -1.1875,2.203125 -1.17188,0.78125 -3.42188,0.78125 -1.59375,0 -2.51562,-0.328125 -0.92188,-0.3125 -1.3125,-0.96875 -0.39063,-0.65625 -0.39063,-1.6875 h 1.54688 q 0,0.59375 0.21875,0.9375 0.23437,0.359375 0.8125,0.53125 0.57812,0.171875 1.64062,0.171875 1.54688,0 2.20313,-0.390625 0.67187,-0.375 0.67187,-1.140625 0,-0.6875 -0.53125,-1.046875 -0.51562,-0.34375 -1.45312,-0.34375 h -1.54688 q -1.25,0 -1.89062,-0.53125 -0.64063,-0.53125 -0.64063,-1.34375 0,-0.484375 0.26563,-0.921875 0.28125,-0.453125 0.8125,-0.8125 -0.85938,-0.4375 -1.26563,-1.09375 -0.39062,-0.671875 -0.39062,-1.625 0,-0.984375 0.48437,-1.765625 0.5,-0.78125 1.35938,-1.21875 0.875,-0.453125 1.9375,-0.453125 1.15625,0.03125 1.9375,-0.07813 0.78125,-0.109375 1.29687,-0.28125 0.51563,-0.171875 1.26563,-0.515625 z m -5,0.5625 q -0.96875,0 -1.5,0.609375 -0.53125,0.609375 -0.53125,1.59375 0,1.015625 0.53125,1.625 0.54687,0.59375 1.53125,0.59375 1.01562,0 1.54687,-0.578125 0.53125,-0.59375 0.53125,-1.65625 0,-2.1875 -2.10937,-2.1875 z"
     fill-rule="nonzero"
     id="path95" />
  <path
     fill="#000000"
     d="m 210.2279,96.232799 q 2.92188,0 4.67188,1.35937 1.76562,1.34375 1.76562,5.000001 0,3.57813 -1.76562,5.04688 -1.75,1.45312 -4.28125,1.45312 H 207.5404 V 96.232799 Z m -0.90625,1.42187 v 10.031251 h 1.4375 q 1.78125,0 2.90625,-1.09375 1.125,-1.09375 1.125,-4 0,-2.03125 -0.57812,-3.109371 -0.57813,-1.09375 -1.48438,-1.45313 -0.89062,-0.375 -2.10937,-0.375 z m 16.57797,9.140631 q 0,0.59375 0.20313,0.89062 0.21875,0.28125 0.625,0.4375 l -0.39063,1.1875 q -0.76562,-0.0937 -1.23437,-0.42187 -0.46875,-0.34375 -0.6875,-1.04688 -1,1.46875 -2.9375,1.46875 -1.45313,0 -2.29688,-0.8125 -0.82812,-0.82812 -0.82812,-2.15625 0,-1.5625 1.125,-2.39062 1.125,-0.84375 3.20312,-0.84375 h 1.5 v -0.73438 q 0,-1.04687 -0.5,-1.48437 -0.5,-0.45313 -1.54687,-0.45313 -1.07813,0 -2.64063,0.51563 l -0.4375,-1.250001 q 1.82813,-0.67188 3.39063,-0.67188 1.73437,0 2.59375,0.85938 0.85937,0.843751 0.85937,2.406251 z m -4.03125,1.23437 q 1.48438,0 2.3125,-1.53125 v -2.25 h -1.28125 q -2.71875,0 -2.71875,2.01563 0,0.875 0.42188,1.32812 0.4375,0.4375 1.26562,0.4375 z m 12.524,0.60938 q -0.96875,0.67187 -2.20312,0.67187 -1.25,0 -1.95313,-0.71875 -0.6875,-0.71875 -0.6875,-2.07812 v -5.92188 h -1.71875 v -1.328121 h 1.71875 v -2.21875 l 1.70313,-0.20313 v 2.42188 h 2.34375 l -0.1875,1.328121 h -2.15625 v 5.84375 q 0,0.76563 0.26562,1.125 0.28125,0.34375 0.92188,0.34375 0.57812,0 1.29687,-0.39062 z m 8.2605,-1.84375 q 0,0.59375 0.20313,0.89062 0.21875,0.28125 0.625,0.4375 l -0.39063,1.1875 q -0.76562,-0.0937 -1.23437,-0.42187 -0.46875,-0.34375 -0.6875,-1.04688 -1,1.46875 -2.9375,1.46875 -1.45313,0 -2.29688,-0.8125 -0.82812,-0.82812 -0.82812,-2.15625 0,-1.5625 1.125,-2.39062 1.125,-0.84375 3.20312,-0.84375 h 1.5 v -0.73438 q 0,-1.04687 -0.5,-1.48437 -0.5,-0.45313 -1.54687,-0.45313 -1.07813,0 -2.64063,0.51563 l -0.4375,-1.250001 q 1.82813,-0.67188 3.39063,-0.67188 1.73437,0 2.59375,0.85938 0.85937,0.843751 0.85937,2.406251 z m -4.03125,1.23437 q 1.48438,0 2.3125,-1.53125 v -2.25 h -1.28125 q -2.71875,0 -2.71875,2.01563 0,0.875 0.42188,1.32812 0.4375,0.4375 1.26562,0.4375 z"
     fill-rule="nonzero"
     id="path97" />
  <path
     fill="#000000"
     fill-opacity="0"
     d="m 484.07826,311.07515 h 256.2205 v 50.99213 h -256.2205 z"
     fill-rule="evenodd"
     id="path99" />
  <path
     fill="#000000"
     d="m 585.24703,337.59954 2.14062,-0.1875 q 0.15625,1.28125 0.70313,2.10937 0.5625,0.82813 1.73437,1.34375 1.17188,0.5 2.64063,0.5 1.29687,0 2.29687,-0.375 1,-0.39062 1.48438,-1.0625 0.48437,-0.6875 0.48437,-1.48437 0,-0.79688 -0.46875,-1.40625 -0.46875,-0.60938 -1.54687,-1.01563 -0.6875,-0.26562 -3.0625,-0.82812 -2.35938,-0.57813 -3.3125,-1.07813 -1.23438,-0.64062 -1.84375,-1.59375 -0.59375,-0.96875 -0.59375,-2.14062 0,-1.3125 0.73437,-2.4375 0.75,-1.125 2.15625,-1.70313 1.42188,-0.59375 3.15625,-0.59375 1.90625,0 3.35938,0.60938 1.46875,0.60937 2.25,1.8125 0.79687,1.1875 0.84375,2.70312 l -2.17188,0.17188 q -0.17187,-1.64063 -1.1875,-2.46875 -1.01562,-0.82813 -3,-0.82813 -2.0625,0 -3.01562,0.76563 -0.9375,0.75 -0.9375,1.8125 0,0.92187 0.67187,1.51562 0.65625,0.60938 3.42188,1.23438 2.78125,0.625 3.8125,1.09375 1.5,0.6875 2.20312,1.75 0.71875,1.0625 0.71875,2.4375 0,1.375 -0.78125,2.59375 -0.78125,1.20312 -2.25,1.89062 -1.46875,0.67188 -3.3125,0.67188 -2.32812,0 -3.90625,-0.67188 -1.57812,-0.6875 -2.48437,-2.04687 -0.89063,-1.375 -0.9375,-3.09375 z m 21.11719,3.625 0.3125,1.85937 q -0.89063,0.20313 -1.59375,0.20313 -1.15625,0 -1.79688,-0.35938 -0.625,-0.375 -0.89062,-0.96875 -0.25,-0.59375 -0.25,-2.48437 v -7.17188 h -1.54688 v -1.64062 h 1.54688 v -3.07813 l 2.09375,-1.26562 v 4.34375 h 2.125 v 1.64062 h -2.125 v 7.28125 q 0,0.90625 0.10937,1.17188 0.125,0.25 0.375,0.40625 0.25,0.14062 0.71875,0.14062 0.34375,0 0.92188,-0.0781 z m 10.18359,0.35937 q -1.17187,0.98438 -2.26562,1.40625 -1.07813,0.40625 -2.3125,0.40625 -2.04688,0 -3.15625,-1 -1.09375,-1 -1.09375,-2.5625 0,-0.92187 0.40625,-1.67187 0.42187,-0.75 1.09375,-1.20313 0.67187,-0.46875 1.51562,-0.70312 0.625,-0.15625 1.875,-0.3125 2.5625,-0.3125 3.76563,-0.73438 0.0156,-0.42187 0.0156,-0.54687 0,-1.28125 -0.60937,-1.8125 -0.79688,-0.71875 -2.39063,-0.71875 -1.5,0 -2.20312,0.53125 -0.70313,0.51562 -1.04688,1.84375 l -2.0625,-0.28125 q 0.28125,-1.32813 0.92188,-2.14063 0.64062,-0.8125 1.85937,-1.25 1.21875,-0.45312 2.82813,-0.45312 1.59375,0 2.59375,0.375 1,0.375 1.46875,0.95312 0.46875,0.5625 0.65625,1.4375 0.0937,0.53125 0.0937,1.9375 v 2.8125 q 0,2.9375 0.14062,3.71875 0.14063,0.78125 0.53125,1.5 h -2.20312 q -0.32813,-0.65625 -0.42188,-1.53125 z m -0.17187,-4.71875 q -1.15625,0.46875 -3.45313,0.79688 -1.29687,0.1875 -1.84375,0.42187 -0.53125,0.23438 -0.82812,0.6875 -0.28125,0.45313 -0.28125,1 0,0.84375 0.625,1.40625 0.64062,0.5625 1.875,0.5625 1.21875,0 2.17187,-0.53125 0.95313,-0.53125 1.39063,-1.45312 0.34375,-0.71875 0.34375,-2.10938 z m 10.0039,4.35938 0.3125,1.85937 q -0.89062,0.20313 -1.59375,0.20313 -1.15625,0 -1.79687,-0.35938 -0.625,-0.375 -0.89063,-0.96875 -0.25,-0.59375 -0.25,-2.48437 v -7.17188 h -1.54687 v -1.64062 h 1.54687 v -3.07813 l 2.09375,-1.26562 v 4.34375 h 2.125 v 1.64062 h -2.125 v 7.28125 q 0,0.90625 0.10938,1.17188 0.125,0.25 0.375,0.40625 0.25,0.14062 0.71875,0.14062 0.34375,0 0.92187,-0.0781 z m 10.58985,-2.125 2.17187,0.28125 q -0.51562,1.90625 -1.90625,2.96875 -1.39062,1.04687 -3.5625,1.04687 -2.73437,0 -4.34375,-1.67187 -1.59375,-1.6875 -1.59375,-4.73438 0,-3.14062 1.60938,-4.875 1.625,-1.73437 4.20312,-1.73437 2.5,0 4.07813,1.70312 1.59375,1.70313 1.59375,4.78125 0,0.1875 -0.0156,0.5625 h -9.28125 q 0.10938,2.04688 1.15625,3.14063 1.04688,1.09375 2.60938,1.09375 1.15625,0 1.96875,-0.60938 0.82812,-0.60937 1.3125,-1.95312 z m -6.9375,-3.40625 h 6.95312 q -0.14062,-1.5625 -0.79687,-2.35938 -1,-1.21875 -2.60938,-1.21875 -1.45312,0 -2.45312,0.98438 -0.98438,0.96875 -1.09375,2.59375 z"
     fill-rule="nonzero"
     id="path101" />
  <path
     fill="#000000"
     d="m 505.74903,377.16204 q -1.73438,-2.20313 -2.95313,-5.15625 -1.20312,-2.95313 -1.20312,-6.10938 0,-2.79687 0.90625,-5.34375 1.04687,-2.96875 3.25,-5.90625 h 1.51562 q -1.42187,2.4375 -1.875,3.46875 -0.71875,1.625 -1.125,3.375 -0.5,2.20313 -0.5,4.40625 0,5.64063 3.5,11.26563 z m 3.91406,-5.04688 v -17.1875 h 2.10938 v 17.1875 z m 13.91013,-4.01562 2.17187,0.28125 q -0.51562,1.90625 -1.90625,2.96875 -1.39062,1.04687 -3.5625,1.04687 -2.73437,0 -4.34375,-1.67187 -1.59375,-1.6875 -1.59375,-4.73438 0,-3.14062 1.60938,-4.875 1.625,-1.73437 4.20312,-1.73437 2.5,0 4.07813,1.70312 1.59375,1.70313 1.59375,4.78125 0,0.1875 -0.0156,0.5625 h -9.28125 q 0.10938,2.04688 1.15625,3.14063 1.04688,1.09375 2.60938,1.09375 1.15625,0 1.96875,-0.60938 0.82812,-0.60937 1.3125,-1.95312 z m -6.9375,-3.40625 h 6.95312 q -0.14062,-1.5625 -0.79687,-2.35938 -1,-1.21875 -2.60938,-1.21875 -1.45312,0 -2.45312,0.98438 -0.98438,0.96875 -1.09375,2.59375 z m 19.8789,5.89062 q -1.17187,0.98438 -2.26562,1.40625 -1.07813,0.40625 -2.3125,0.40625 -2.04688,0 -3.15625,-1 -1.09375,-1 -1.09375,-2.5625 0,-0.92187 0.40625,-1.67187 0.42187,-0.75 1.09375,-1.20313 0.67187,-0.46875 1.51562,-0.70312 0.625,-0.15625 1.875,-0.3125 2.5625,-0.3125 3.76563,-0.73438 0.0156,-0.42187 0.0156,-0.54687 0,-1.28125 -0.60937,-1.8125 -0.79688,-0.71875 -2.39063,-0.71875 -1.5,0 -2.20312,0.53125 -0.70313,0.51562 -1.04688,1.84375 l -2.0625,-0.28125 q 0.28125,-1.32813 0.92188,-2.14063 0.64062,-0.8125 1.85937,-1.25 1.21875,-0.45312 2.82813,-0.45312 1.59375,0 2.59375,0.375 1,0.375 1.46875,0.95312 0.46875,0.5625 0.65625,1.4375 0.0937,0.53125 0.0937,1.9375 v 2.8125 q 0,2.9375 0.14062,3.71875 0.14063,0.78125 0.53125,1.5 h -2.20312 q -0.32813,-0.65625 -0.42188,-1.53125 z m -0.17187,-4.71875 q -1.15625,0.46875 -3.45313,0.79688 -1.29687,0.1875 -1.84375,0.42187 -0.53125,0.23438 -0.82812,0.6875 -0.28125,0.45313 -0.28125,1 0,0.84375 0.625,1.40625 0.64062,0.5625 1.875,0.5625 1.21875,0 2.17187,-0.53125 0.95313,-0.53125 1.39063,-1.45312 0.34375,-0.71875 0.34375,-2.10938 z m 5.37891,6.25 v -12.45312 h 1.89062 v 1.89062 q 0.73438,-1.32812 1.34375,-1.75 0.625,-0.42187 1.35938,-0.42187 1.0625,0 2.17187,0.6875 l -0.73437,1.95312 q -0.76563,-0.45312 -1.54688,-0.45312 -0.6875,0 -1.25,0.42187 -0.54687,0.40625 -0.78125,1.14063 -0.34375,1.125 -0.34375,2.46875 v 6.51562 z m 8.00781,0 v -12.45312 h 1.90625 v 1.78125 q 1.375,-2.0625 3.95312,-2.0625 1.125,0 2.0625,0.40625 0.95313,0.40625 1.42188,1.0625 0.46875,0.65625 0.65625,1.5625 0.125,0.57812 0.125,2.04687 v 7.65625 h -2.10938 v -7.57812 q 0,-1.28125 -0.25,-1.92188 -0.25,-0.64062 -0.875,-1.01562 -0.625,-0.39063 -1.46875,-0.39063 -1.34375,0 -2.32812,0.85938 -0.98438,0.85937 -0.98438,3.25 v 6.79687 z m 21.8789,-4.01562 2.17188,0.28125 q -0.51563,1.90625 -1.90625,2.96875 -1.39063,1.04687 -3.5625,1.04687 -2.73438,0 -4.34375,-1.67187 -1.59375,-1.6875 -1.59375,-4.73438 0,-3.14062 1.60937,-4.875 1.625,-1.73437 4.20313,-1.73437 2.5,0 4.07812,1.70312 1.59375,1.70313 1.59375,4.78125 0,0.1875 -0.0156,0.5625 h -9.28125 q 0.10937,2.04688 1.15625,3.14063 1.04687,1.09375 2.60937,1.09375 1.15625,0 1.96875,-0.60938 0.82813,-0.60937 1.3125,-1.95312 z m -6.9375,-3.40625 h 6.95313 q -0.14063,-1.5625 -0.79688,-2.35938 -1,-1.21875 -2.60937,-1.21875 -1.45313,0 -2.45313,0.98438 -0.98437,0.96875 -1.09375,2.59375 z m 19.83204,7.42187 v -1.57812 q -1.1875,1.85937 -3.48438,1.85937 -1.48437,0 -2.73437,-0.8125 -1.25,-0.82812 -1.9375,-2.29687 -0.67188,-1.46875 -0.67188,-3.39063 0,-1.85937 0.60938,-3.375 0.625,-1.51562 1.85937,-2.32812 1.25,-0.8125 2.78125,-0.8125 1.125,0 2,0.48437 0.89063,0.46875 1.4375,1.23438 v -6.17188 h 2.09375 v 17.1875 z m -6.67188,-6.21875 q 0,2.39063 1,3.57813 1.01563,1.1875 2.39063,1.1875 1.39062,0 2.34375,-1.125 0.96875,-1.14063 0.96875,-3.45313 0,-2.5625 -0.98438,-3.75 -0.98437,-1.20312 -2.42187,-1.20312 -1.40625,0 -2.35938,1.15625 -0.9375,1.14062 -0.9375,3.60937 z m 18.60938,10.98438 v -17.21875 h 1.92187 v 1.625 q 0.6875,-0.95313 1.53125,-1.42188 0.85938,-0.48437 2.07813,-0.48437 1.59375,0 2.8125,0.82812 1.21875,0.8125 1.84375,2.3125 0.625,1.5 0.625,3.28125 0,1.90625 -0.6875,3.4375 -0.6875,1.53125 -2,2.34375 -1.29688,0.8125 -2.73438,0.8125 -1.0625,0 -1.90625,-0.4375 -0.82812,-0.45312 -1.375,-1.14062 v 6.0625 z m 1.92187,-10.92188 q 0,2.40625 0.96875,3.5625 0.96875,1.14063 2.35938,1.14063 1.40625,0 2.40625,-1.1875 1,-1.1875 1,-3.6875 0,-2.375 -0.98438,-3.5625 -0.96875,-1.1875 -2.32812,-1.1875 -1.35938,0 -2.39063,1.26562 -1.03125,1.25 -1.03125,3.65625 z m 19.55078,4.625 q -1.17187,0.98438 -2.26562,1.40625 -1.07813,0.40625 -2.3125,0.40625 -2.04688,0 -3.15625,-1 -1.09375,-1 -1.09375,-2.5625 0,-0.92187 0.40625,-1.67187 0.42187,-0.75 1.09375,-1.20313 0.67187,-0.46875 1.51562,-0.70312 0.625,-0.15625 1.875,-0.3125 2.5625,-0.3125 3.76563,-0.73438 0.0156,-0.42187 0.0156,-0.54687 0,-1.28125 -0.60937,-1.8125 -0.79688,-0.71875 -2.39063,-0.71875 -1.5,0 -2.20312,0.53125 -0.70313,0.51562 -1.04688,1.84375 l -2.0625,-0.28125 q 0.28125,-1.32813 0.92188,-2.14063 0.64062,-0.8125 1.85937,-1.25 1.21875,-0.45312 2.82813,-0.45312 1.59375,0 2.59375,0.375 1,0.375 1.46875,0.95312 0.46875,0.5625 0.65625,1.4375 0.0937,0.53125 0.0937,1.9375 v 2.8125 q 0,2.9375 0.14062,3.71875 0.14063,0.78125 0.53125,1.5 h -2.20312 q -0.32813,-0.65625 -0.42188,-1.53125 z m -0.17187,-4.71875 q -1.15625,0.46875 -3.45313,0.79688 -1.29687,0.1875 -1.84375,0.42187 -0.53125,0.23438 -0.82812,0.6875 -0.28125,0.45313 -0.28125,1 0,0.84375 0.625,1.40625 0.64062,0.5625 1.875,0.5625 1.21875,0 2.17187,-0.53125 0.95313,-0.53125 1.39063,-1.45312 0.34375,-0.71875 0.34375,-2.10938 z m 5.3789,6.25 v -12.45312 h 1.89063 v 1.89062 q 0.73437,-1.32812 1.34375,-1.75 0.625,-0.42187 1.35937,-0.42187 1.0625,0 2.17188,0.6875 l -0.73438,1.95312 q -0.76562,-0.45312 -1.54687,-0.45312 -0.6875,0 -1.25,0.42187 -0.54688,0.40625 -0.78125,1.14063 -0.34375,1.125 -0.34375,2.46875 v 6.51562 z m 16.13281,-1.53125 q -1.17187,0.98438 -2.26562,1.40625 -1.07813,0.40625 -2.3125,0.40625 -2.04688,0 -3.15625,-1 -1.09375,-1 -1.09375,-2.5625 0,-0.92187 0.40625,-1.67187 0.42187,-0.75 1.09375,-1.20313 0.67187,-0.46875 1.51562,-0.70312 0.625,-0.15625 1.875,-0.3125 2.5625,-0.3125 3.76563,-0.73438 0.0156,-0.42187 0.0156,-0.54687 0,-1.28125 -0.60937,-1.8125 -0.79688,-0.71875 -2.39063,-0.71875 -1.5,0 -2.20312,0.53125 -0.70313,0.51562 -1.04688,1.84375 l -2.0625,-0.28125 q 0.28125,-1.32813 0.92188,-2.14063 0.64062,-0.8125 1.85937,-1.25 1.21875,-0.45312 2.82813,-0.45312 1.59375,0 2.59375,0.375 1,0.375 1.46875,0.95312 0.46875,0.5625 0.65625,1.4375 0.0937,0.53125 0.0937,1.9375 v 2.8125 q 0,2.9375 0.14062,3.71875 0.14063,0.78125 0.53125,1.5 h -2.20312 q -0.32813,-0.65625 -0.42188,-1.53125 z m -0.17187,-4.71875 q -1.15625,0.46875 -3.45313,0.79688 -1.29687,0.1875 -1.84375,0.42187 -0.53125,0.23438 -0.82812,0.6875 -0.28125,0.45313 -0.28125,1 0,0.84375 0.625,1.40625 0.64062,0.5625 1.875,0.5625 1.21875,0 2.17187,-0.53125 0.95313,-0.53125 1.39063,-1.45312 0.34375,-0.71875 0.34375,-2.10938 z m 5.39453,6.25 v -12.45312 h 1.89063 v 1.75 q 0.59375,-0.90625 1.5625,-1.46875 0.96875,-0.5625 2.21875,-0.5625 1.375,0 2.25,0.57812 0.89062,0.57813 1.26562,1.60938 1.46875,-2.1875 3.84375,-2.1875 1.84375,0 2.84375,1.03125 1,1.03125 1,3.15625 v 8.54687 h -2.10937 v -7.84375 q 0,-1.26562 -0.20313,-1.8125 -0.20312,-0.5625 -0.75,-0.90625 -0.53125,-0.34375 -1.25,-0.34375 -1.3125,0 -2.1875,0.875 -0.85937,0.875 -0.85937,2.79688 v 7.23437 h -2.10938 v -8.09375 q 0,-1.40625 -0.51562,-2.10937 -0.51563,-0.70313 -1.6875,-0.70313 -0.89063,0 -1.65625,0.46875 -0.75,0.46875 -1.09375,1.375 -0.34375,0.90625 -0.34375,2.60938 v 6.45312 z m 28.52344,-4.01562 2.17187,0.28125 q -0.51562,1.90625 -1.90625,2.96875 -1.39062,1.04687 -3.5625,1.04687 -2.73437,0 -4.34375,-1.67187 -1.59375,-1.6875 -1.59375,-4.73438 0,-3.14062 1.60938,-4.875 1.625,-1.73437 4.20312,-1.73437 2.5,0 4.07813,1.70312 1.59375,1.70313 1.59375,4.78125 0,0.1875 -0.0156,0.5625 h -9.28125 q 0.10938,2.04688 1.15625,3.14063 1.04688,1.09375 2.60938,1.09375 1.15625,0 1.96875,-0.60938 0.82812,-0.60937 1.3125,-1.95312 z m -6.9375,-3.40625 h 6.95312 q -0.14062,-1.5625 -0.79687,-2.35938 -1,-1.21875 -2.60938,-1.21875 -1.45312,0 -2.45312,0.98438 -0.98438,0.96875 -1.09375,2.59375 z m 16.36328,5.53125 0.3125,1.85937 q -0.89063,0.20313 -1.59375,0.20313 -1.15625,0 -1.79688,-0.35938 -0.625,-0.375 -0.89062,-0.96875 -0.25,-0.59375 -0.25,-2.48437 v -7.17188 h -1.54688 v -1.64062 h 1.54688 v -3.07813 l 2.09375,-1.26562 v 4.34375 h 2.125 v 1.64062 h -2.125 v 7.28125 q 0,0.90625 0.10937,1.17188 0.125,0.25 0.375,0.40625 0.25,0.14062 0.71875,0.14062 0.34375,0 0.92188,-0.0781 z m 10.58984,-2.125 2.17188,0.28125 q -0.51563,1.90625 -1.90625,2.96875 -1.39063,1.04687 -3.5625,1.04687 -2.73438,0 -4.34375,-1.67187 -1.59375,-1.6875 -1.59375,-4.73438 0,-3.14062 1.60937,-4.875 1.625,-1.73437 4.20313,-1.73437 2.5,0 4.07812,1.70312 1.59375,1.70313 1.59375,4.78125 0,0.1875 -0.0156,0.5625 h -9.28125 q 0.10937,2.04688 1.15625,3.14063 1.04687,1.09375 2.60937,1.09375 1.15625,0 1.96875,-0.60938 0.82813,-0.60937 1.3125,-1.95312 z m -6.9375,-3.40625 h 6.95313 q -0.14063,-1.5625 -0.79688,-2.35938 -1,-1.21875 -2.60937,-1.21875 -1.45313,0 -2.45313,0.98438 -0.98437,0.96875 -1.09375,2.59375 z m 11.73828,7.42187 v -12.45312 h 1.89063 v 1.89062 q 0.73437,-1.32812 1.34375,-1.75 0.625,-0.42187 1.35937,-0.42187 1.0625,0 2.17188,0.6875 l -0.73438,1.95312 q -0.76562,-0.45312 -1.54687,-0.45312 -0.6875,0 -1.25,0.42187 -0.54688,0.40625 -0.78125,1.14063 -0.34375,1.125 -0.34375,2.46875 v 6.51562 z m 7.16407,-3.71875 2.09375,-0.32812 q 0.17187,1.25 0.96875,1.92187 0.8125,0.67188 2.25,0.67188 1.45312,0 2.15625,-0.59375 0.70312,-0.59375 0.70312,-1.39063 0,-0.71875 -0.625,-1.125 -0.42187,-0.28125 -2.15625,-0.71875 -2.3125,-0.57812 -3.21875,-1 -0.89062,-0.4375 -1.35937,-1.1875 -0.45313,-0.76562 -0.45313,-1.67187 0,-0.82813 0.375,-1.53125 0.39063,-0.71875 1.04688,-1.1875 0.48437,-0.35938 1.32812,-0.60938 0.85938,-0.26562 1.82813,-0.26562 1.46875,0 2.57812,0.42187 1.10938,0.42188 1.625,1.15625 0.53125,0.71875 0.73438,1.92188 l -2.0625,0.28125 q -0.14063,-0.96875 -0.8125,-1.5 -0.67188,-0.54688 -1.90625,-0.54688 -1.45313,0 -2.07813,0.48438 -0.625,0.48437 -0.625,1.125 0,0.40625 0.26563,0.73437 0.25,0.34375 0.8125,0.5625 0.3125,0.125 1.85937,0.54688 2.23438,0.59375 3.10938,0.98437 0.89062,0.375 1.39062,1.10938 0.51563,0.71875 0.51563,1.79687 0,1.04688 -0.625,1.98438 -0.60938,0.9375 -1.76563,1.45312 -1.15625,0.5 -2.625,0.5 -2.42187,0 -3.70312,-1 -1.26563,-1.01562 -1.625,-3 z m 14.23437,8.76563 h -1.51562 q 3.5,-5.625 3.5,-11.26563 0,-2.20312 -0.5,-4.35937 -0.39063,-1.76563 -1.10938,-3.375 -0.45312,-1.0625 -1.89062,-3.51563 h 1.51562 q 2.20313,2.9375 3.25,5.90625 0.90625,2.54688 0.90625,5.34375 0,3.15625 -1.21875,6.10938 -1.20312,2.95312 -2.9375,5.15625 z"
     fill-rule="nonzero"
     id="path103" />
  <path
     fill="#eeeeee"
     d="m 468.90266,85.166195 h 13.6413 c 1.88345,0 3.4103,3.584663 3.4103,8.006564 0,4.4219 -1.52685,8.006561 -3.4103,8.006561 h -13.6413 v 0 c -1.88348,0 -3.41034,-3.584661 -3.41034,-8.006561 0,-4.421901 1.52686,-8.006564 3.41034,-8.006564 z"
     fill-rule="evenodd"
     id="path105" />
  <path
     fill="#000000"
     fill-opacity="0"
     d="m 482.54396,101.17932 c -1.88348,0 -3.41034,-3.584661 -3.41034,-8.006561 0,-4.421899 1.52686,-8.006562 3.41034,-8.006562"
     fill-rule="evenodd"
     id="path107" />
  <path
     fill="#000000"
     fill-opacity="0"
     d="m 468.90266,85.166195 h 13.6413 c 1.88345,0 3.4103,3.584663 3.4103,8.006564 0,4.4219 -1.52685,8.006561 -3.4103,8.006561 h -13.6413 v 0 c -1.88348,0 -3.41034,-3.584661 -3.41034,-8.006561 0,-4.421901 1.52686,-8.006564 3.41034,-8.006564 z"
     fill-rule="evenodd"
     id="path109" />
  <path
     stroke="#595959"
     stroke-width="1"
     stroke-linejoin="round"
     stroke-linecap="butt"
     d="m 482.54396,101.17932 c -1.88348,0 -3.41034,-3.584661 -3.41034,-8.006561 0,-4.421899 1.52686,-8.006562 3.41034,-8.006562"
     fill-rule="evenodd"
     id="path111" />
  <path
     stroke="#595959"
     stroke-width="1"
     stroke-linejoin="round"
     stroke-linecap="butt"
     d="m 468.90266,85.166195 h 13.6413 c 1.88345,0 3.4103,3.584663 3.4103,8.006564 0,4.4219 -1.52685,8.006561 -3.4103,8.006561 h -13.6413 v 0 c -1.88348,0 -3.41034,-3.584661 -3.41034,-8.006561 0,-4.421901 1.52686,-8.006564 3.41034,-8.006564 z"
     fill-rule="evenodd"
     id="path113" />
  <path
     fill="#eeeeee"
     d="m 365.42061,85.166195 h -13.6413 c -1.88348,0 -3.41034,3.584663 -3.41034,8.006564 0,4.4219 1.52686,8.006561 3.41034,8.006561 h 13.6413 v 0 c 1.88345,0 3.41031,-3.584661 3.41031,-8.006561 0,-4.421901 -1.52686,-8.006564 -3.41031,-8.006564 z"
     fill-rule="evenodd"
     id="path115" />
  <path
     fill="#000000"
     fill-opacity="0"
     d="m 351.77931,101.17932 c 1.88345,0 3.41031,-3.584661 3.41031,-8.006561 0,-4.421899 -1.52686,-8.006562 -3.41031,-8.006562"
     fill-rule="evenodd"
     id="path117" />
  <path
     fill="#000000"
     fill-opacity="0"
     d="m 365.42061,85.166195 h -13.6413 c -1.88348,0 -3.41034,3.584663 -3.41034,8.006564 0,4.4219 1.52686,8.006561 3.41034,8.006561 h 13.6413 v 0 c 1.88345,0 3.41031,-3.584661 3.41031,-8.006561 0,-4.421901 -1.52686,-8.006564 -3.41031,-8.006564 z"
     fill-rule="evenodd"
     id="path119" />
  <path
     stroke="#595959"
     stroke-width="1"
     stroke-linejoin="round"
     stroke-linecap="butt"
     d="m 351.77931,101.17932 c 1.88345,0 3.41031,-3.584661 3.41031,-8.006561 0,-4.421899 -1.52686,-8.006562 -3.41031,-8.006562"
     fill-rule="evenodd"
     id="path121" />
  <path
     stroke="#595959"
     stroke-width="1"
     stroke-linejoin="round"
     stroke-linecap="butt"
     d="m 365.42061,85.166195 h -13.6413 c -1.88348,0 -3.41034,3.584663 -3.41034,8.006564 0,4.4219 1.52686,8.006561 3.41034,8.006561 h 13.6413 v 0 c 1.88345,0 3.41031,-3.584661 3.41031,-8.006561 0,-4.421901 -1.52686,-8.006564 -3.41031,-8.006564 z"
     fill-rule="evenodd"
     id="path123" />
  <path
     fill="#eeeeee"
     d="m 468.90266,209.72001 h 13.6413 c 1.88345,0 3.4103,3.58466 3.4103,8.00656 0,4.42191 -1.52685,8.00656 -3.4103,8.00656 h -13.6413 v 0 c -1.88348,0 -3.41034,-3.58465 -3.41034,-8.00656 0,-4.4219 1.52686,-8.00656 3.41034,-8.00656 z"
     fill-rule="evenodd"
     id="path125" />
  <path
     fill="#000000"
     fill-opacity="0"
     d="m 482.54396,225.73313 c -1.88348,0 -3.41034,-3.58466 -3.41034,-8.00656 0,-4.42191 1.52686,-8.00656 3.41034,-8.00656"
     fill-rule="evenodd"
     id="path127" />
  <path
     fill="#000000"
     fill-opacity="0"
     d="m 468.90266,209.72001 h 13.6413 c 1.88345,0 3.4103,3.58466 3.4103,8.00656 0,4.42191 -1.52685,8.00656 -3.4103,8.00656 h -13.6413 v 0 c -1.88348,0 -3.41034,-3.58465 -3.41034,-8.00656 0,-4.4219 1.52686,-8.00656 3.41034,-8.00656 z"
     fill-rule="evenodd"
     id="path129" />
  <path
     stroke="#595959"
     stroke-width="1"
     stroke-linejoin="round"
     stroke-linecap="butt"
     d="m 482.54396,225.73313 c -1.88348,0 -3.41034,-3.58466 -3.41034,-8.00656 0,-4.42191 1.52686,-8.00656 3.41034,-8.00656"
     fill-rule="evenodd"
     id="path131" />
  <path
     stroke="#595959"
     stroke-width="1"
     stroke-linejoin="round"
     stroke-linecap="butt"
     d="m 468.90266,209.72001 h 13.6413 c 1.88345,0 3.4103,3.58466 3.4103,8.00656 0,4.42191 -1.52685,8.00656 -3.4103,8.00656 h -13.6413 v 0 c -1.88348,0 -3.41034,-3.58465 -3.41034,-8.00656 0,-4.4219 1.52686,-8.00656 3.41034,-8.00656 z"
     fill-rule="evenodd"
     id="path133" />
  <path
     fill="#eeeeee"
     d="m 365.42061,209.72001 h -13.6413 c -1.88348,0 -3.41034,3.58466 -3.41034,8.00656 0,4.42191 1.52686,8.00656 3.41034,8.00656 h 13.6413 v 0 c 1.88345,0 3.41031,-3.58465 3.41031,-8.00656 0,-4.4219 -1.52686,-8.00656 -3.41031,-8.00656 z"
     fill-rule="evenodd"
     id="path135" />
  <path
     fill="#000000"
     fill-opacity="0"
     d="m 351.77931,225.73313 c 1.88345,0 3.41031,-3.58466 3.41031,-8.00656 0,-4.42191 -1.52686,-8.00656 -3.41031,-8.00656"
     fill-rule="evenodd"
     id="path137" />
  <path
     fill="#000000"
     fill-opacity="0"
     d="m 365.42061,209.72001 h -13.6413 c -1.88348,0 -3.41034,3.58466 -3.41034,8.00656 0,4.42191 1.52686,8.00656 3.41034,8.00656 h 13.6413 v 0 c 1.88345,0 3.41031,-3.58465 3.41031,-8.00656 0,-4.4219 -1.52686,-8.00656 -3.41031,-8.00656 z"
     fill-rule="evenodd"
     id="path139" />
  <path
     stroke="#595959"
     stroke-width="1"
     stroke-linejoin="round"
     stroke-linecap="butt"
     d="m 351.77931,225.73313 c 1.88345,0 3.41031,-3.58466 3.41031,-8.00656 0,-4.42191 -1.52686,-8.00656 -3.41031,-8.00656"
     fill-rule="evenodd"
     id="path141" />
  <path
     stroke="#595959"
     stroke-width="1"
     stroke-linejoin="round"
     stroke-linecap="butt"
     d="m 365.42061,209.72001 h -13.6413 c -1.88348,0 -3.41034,3.58466 -3.41034,8.00656 0,4.42191 1.52686,8.00656 3.41034,8.00656 h 13.6413 v 0 c 1.88345,0 3.41031,-3.58465 3.41031,-8.00656 0,-4.4219 -1.52686,-8.00656 -3.41031,-8.00656 z"
     fill-rule="evenodd"
     id="path143" />
  <path
     fill="#000000"
     fill-opacity="0"
     d="m 483.2115,277.72655 c 23.8504,0 35.7756,14.60632 47.70077,29.21262 11.92524,14.60629 23.85041,29.21258 47.70081,29.21258"
     fill-rule="evenodd"
     id="path145" />
  <path
     stroke="#595959"
     stroke-width="4"
     stroke-linejoin="round"
     stroke-linecap="butt"
     d="m 483.2115,277.72655 c 23.8504,0 35.7756,14.60632 47.70077,29.21262 11.92524,14.60629 23.85041,29.21258 47.70081,29.21258"
     fill-rule="evenodd"
     id="path147" />
  <path
     fill="#9fc5e8"
     d="m 494.58946,87.135029 h 40.01575 V 80.85944 l 12.55114,12.551189 -12.55114,12.551181 v -6.275591 h -40.01575 z"
     fill-rule="evenodd"
     id="path149" />
  <path
     stroke="#595959"
     stroke-width="1"
     stroke-linejoin="round"
     stroke-linecap="butt"
     d="m 494.58946,87.135029 h 40.01575 V 80.85944 l 12.55114,12.551189 -12.55114,12.551181 v -6.275591 h -40.01575 z"
     fill-rule="evenodd"
     id="path151" />
</svg>
