<svg xmlns="http://www.w3.org/2000/svg" xmlns:xlink="http://www.w3.org/1999/xlink" version="1.1" width="585.67pt" height="187.826pt" viewBox="0 0 585.67 187.826">
<defs>
<path id="font_21_10" d="M.04699707 .68359377V.6555786H.08198547C.10998535 .6555786 .1349945 .653595 .1349945 .6405945V.09793091C.1349945 .036956788 .08699036 .02897644 .04699707 .02897644V.0009765625H.24499512V.02897644C.20399475 .02897644 .15699768 .036956788 .15699768 .09992981V.6345978C.17399597 .61660769 .18499756 .5936279 .19799805 .5736389 .31098939 .39175416 .42599488 .2108612 .54100039 .02897644 .5469971 .018966675 .55400088 .0009765625 .56799319 .0009765625 .57598879 .0009765625 .5779877 .008972168 .5779877 .013961792V.58262637C.5779877 .6465912 .6230011 .6555786 .66600039 .6555786V.68359377H.46798707V.6555786C.5109863 .6555786 .55599978 .6465912 .55599978 .58262637V.13290406L.20799256 .6815796 .19299317 .68359377H.04699707Z"/>
<path id="font_21_32" d="M.22399903 .4453125C.102996829 .42829896 .0309906 .3292694 .0309906 .2162323V.20323181C.037994386 .09220886 .11999512-.0078125 .23899842-.0078125H.25C.2749939-.0048217775 .2979889 .00018310547 .32099916 .011184692 .39898683 .048187257 .44400025 .1322174 .44400025 .21723938V.22523499C.43998719 .3352661 .35798646 .4453125 .23599243 .4453125H.22399903M.100997928 .19422913C.100997928 .20223999 .099990848 .21124268 .099990848 .22024536 .099990848 .29226686 .10899353 .37728883 .18699646 .41629029 .20298767 .42329408 .21998596 .42729188 .23699951 .42729188 .34399415 .42729188 .37399293 .31626893 .37399293 .22924805 .37399293 .1532135 .36799623 .04118347 .2649994 .015182495 .2559967 .013183594 .24798584 .012176514 .23899842 .012176514 .1619873 .012176514 .114990238 .080200199 .10499573 .15522766 .102996829 .16822815 .102996829 .18122864 .100997928 .19422913Z"/>
<path id="font_21_18" d="M.008987427 .68359377V.6555786H.02999878C.050994874 .6555786 .07499695 .6545868 .08999634 .64160159 .115997318 .61761477 .13699341 .57263186 .15699768 .5396576 .20698548 .45970155 .25498963 .37875367 .30499269 .2998047 .31399537 .28581239 .32099916 .27781678 .32099916 .25883485V.092926029C.32099916 .0859375 .32199098 .077941898 .32199098 .06994629 .32199098 .029968262 .2889862 .02897644 .23999024 .02897644H.23298645V.0009765625H.47999574V.02897644H.44898988C.41799928 .02897644 .3909912 .032958986 .3909912 .07093811 .3909912 .077941898 .3919983 .08493042 .3919983 .090927127V.26483155C.3919983 .27981568 .40499879 .29380799 .4119873 .3058014 .46699525 .39674378 .5249939 .48469544 .57899478 .57662966 .6100006 .62960818 .6469879 .6555786 .70399478 .6555786V.68359377H.526001V.6555786C.54599 .6555786 .56999209 .6445923 .56999209 .62161257 .56999209 .60661318 .5589905 .59062197 .5509949 .57862856L.54299929 .5656433C.49699403 .49168397 .45098878 .4167328 .40499879 .34178163 .39898683 .33078004 .3909912 .3197937 .3849945 .3078003H.3829956C.37799073 .31878663 .37098695 .3277893 .36499024 .3377838L.33599855 .38575746C.2899933 .46070863 .24398804 .53266909 .19898987 .60762026 .19400025 .61561587 .18699646 .6246033 .18699646 .63360598V.63560488C.18998719 .6555786 .22399903 .6555786 .24299622 .6555786V.68359377H.008987427Z"/>
<path id="font_21_23" d="M.100997928 .23524475H.38198854C.3919983 .23524475 .3959961 .23825073 .3959961 .24824524 .3959961 .3422699 .34899903 .4453125 .22898865 .4453125 .10899353 .4453125 .0309906 .3322754 .0309906 .22123719 .0309906 .114212039 .100997928-.0008239746 .22799683-.0078125H.23399353C.3039856-.0078125 .37298585 .03819275 .3929901 .10820007 .3939972 .111206058 .3959961 .11520386 .3959961 .11921692 .3959961 .12321472 .3909912 .1282196 .3869934 .1282196 .37298585 .1282196 .36799623 .096206668 .35899354 .08119202 .33599855 .04118347 .29100038 .012176514 .24398804 .012176514H.23799134C.20999146 .014175415 .18499756 .025177002 .16299439 .043182374 .10598755 .0901947 .100997928 .16722107 .100997928 .23524475M.101989749 .25224305C.101989749 .3282776 .14099121 .42630006 .22499085 .42630006 .31199647 .42630006 .33699037 .32626344 .33699037 .25224305H.101989749Z"/>
<path id="font_21_40" d="M.08099365 .04219055C.10398865 .008178711 .14698792-.0078125 .18598938-.0078125 .2579956-.0078125 .34199525 .021194458 .34199525 .12721253 .34199525 .17422486 .31399537 .21624756 .27398683 .23924256 .21499634 .2732544 .08699036 .2542572 .07199097 .34327699 .07199097 .4072876 .125 .42929078 .18199158 .42929078 .24398804 .42929078 .28599549 .3972931 .2979889 .3212738V.31326295C.2979889 .30426026 .29899598 .29325868 .30899049 .29325868 .31698609 .29325868 .31900025 .30026246 .31900025 .30625917V.43429566C.31900025 .43930055 .31698609 .4453125 .31098939 .4453125 .29899598 .4453125 .2809906 .41729737 .27799989 .41229249 .25099183 .43530274 .21899414 .4453125 .18399048 .4453125 .117996219 .4453125 .03199768 .41929627 .03199768 .32626344 .03199768 .2102356 .17799378 .2122345 .23899842 .19023133 .272995 .17422486 .3019867 .14422608 .3019867 .10520935 .3019867 .032196046 .23899842 .010177612 .18798828 .010177612 .08898926 .010177612 .07199097 .09820557 .051986696 .16923523 .050994874 .17323303 .04598999 .17622376 .041992189 .17622376 .034988405 .17622376 .03199768 .17022705 .03199768 .16423035V.00018310547C.032989503-.0038452149 .034988405-.0068359377 .038986207-.0068359377H.040985109C.04699707-.0068359377 .049987794-.0008392334 .053985597 .0031585694L.08099365 .04219055Z"/>
<path id="font_21_6" d="M.57099917 .07034302H.57199099C.5799866 .04536438 .61499026 .0013885498 .6259918 .0013885498 .6319885 .0013885498 .6329956 .009384155 .6329956 .014389038V.18423462C.6329956 .19023133 .6319885 .19721985 .6319885 .20521546 .6319885 .2401886 .6559906 .2421875 .69898989 .2421875V.27018739H.44099427V.2421875C.45399476 .2421875 .46899415 .24317932 .4850006 .24317932 .5329895 .24317932 .55999758 .2381897 .55999758 .19622803V.14126587C.55999758 .08432007 .5279999 .011398315 .40499879 .011398315 .30799867 .011398315 .22099304 .068344119 .1769867 .15325928 .1459961 .21121216 .13798523 .2811737 .13798523 .34417726 .13798523 .48416139 .20399475 .6741333 .394989 .6741333 .5149994 .6741333 .58898928 .56015017 .60598757 .4521637 .60798647 .4411621 .60598757 .42216493 .62098696 .42216493 .6299896 .42216493 .6329956 .4271698 .6329956 .4351654V.6871338C.6329956 .6941376 .6319885 .70214846 .6239929 .70214846 .6100006 .70214846 .56900027 .6161499 .56599429 .6091461H.56399539C.5279999 .6731415 .43899537 .70214846 .3809967 .70214846 .19198609 .70214846 .052993776 .52615359 .052993776 .34317018 .052993776 .16925049 .17799378-.016601563 .38598634-.016601563 .44299317-.016601563 .5069885-.002609253 .548996 .039367677 .55799868 .048355104 .5669861 .05834961 .57099917 .07034302Z"/>
<path id="font_21_31" d="M.037994386 .42941285V.40138246H.052993776C.08099365 .40138246 .10798645 .39837647 .10798645 .35131837V.06300354C.10798645 .031967164 .08198547 .02897644 .056991579 .02897644H.037994386V.0009765625H.23498535V.02897644H.21798706C.18998719 .02897644 .16499329 .031967164 .16499329 .06401062V.2572174C.16499329 .32530213 .19799805 .42240907 .2939911 .42240907 .35198976 .42240907 .37098695 .37135316 .37098695 .3042755V.06600952C.37098695 .031967164 .34498597 .02897644 .31698609 .02897644H.30099488V.0009765625H.49798585V.02897644H.47499085C.45298768 .02897644 .43199159 .031967164 .42799378 .055999757V.29226686C.42799378 .32629396 .4269867 .36134339 .40899659 .3903656 .38598634 .42941285 .33999635 .4404297 .29699708 .4404297 .23599243 .4404297 .1749878 .39337159 .1619873 .3363037L.16099549 .4404297 .10798645 .4354248 .037994386 .42941285Z"/>
<path id="font_21_39" d="M.033996583 .42941285V.40138246H.04899597C.07699585 .40138246 .10398865 .39837647 .10398865 .35131837V.06300354C.10398865 .030975342 .07699585 .02897644 .04798889 .02897644H.033996583V.0009765625H.24598694V.02897644C.23599243 .02897644 .22499085 .02796936 .21499634 .02796936 .18598938 .02796936 .15899658 .032974245 .15899658 .070007327V.15110779C.15899658 .1721344 .1579895 .19314575 .1579895 .21417237 .1579895 .29426576 .1769867 .42140199 .27398683 .42140199 .27999879 .42140199 .2869873 .42140199 .29299928 .4203949V.41940309C.2789917 .4143982 .2689972 .40037538 .2689972 .38536073 .2689972 .36634828 .28399659 .34732057 .30699159 .34732057 .32899476 .34732057 .34298707 .3673401 .34298707 .38435365 .34298707 .4203949 .30799867 .4404297 .2749939 .4404297 .21199036 .4404297 .16899109 .38336183 .1559906 .32829286L.15499878 .4404297 .033996583 .42941285Z"/>
<path id="font_21_19" d="M.09899902 .35827638C.116989139 .399292 .1639862 .42730714 .20899964 .42730714 .2829895 .42730714 .31498719 .35627748 .31498719 .29125978V.25724793C.21099854 .25724793 .07899475 .23223877 .04699707 .12121582 .04499817 .112213138 .04399109 .10321045 .04399109 .09320068V.0861969C.049987794 .018173218 .1309967-.0078125 .18598938-.0078125 .24099732-.0078125 .2979889 .019180298 .31999208 .079193118H.32099916C.32099916 .03718567 .35099793-.0038146973 .394989-.0038146973 .43499757-.0038146973 .46598817 .031188965 .46998597 .07319641V.14620972H.44999696V.095199588C.44999696 .06619263 .44400025 .02218628 .41099549 .02218628 .37799073 .02218628 .37098695 .06518555 .37098695 .0921936 .37098695 .10321045 .37199403 .113204959 .37199403 .12321472V.29325868C.37199403 .3902893 .29599 .4453125 .21398926 .4453125 .1579895 .4453125 .101989749 .41729737 .07798767 .36128236 .07398987 .35028077 .069992069 .3362732 .069992069 .3232727 .069992069 .29826356 .08898926 .28025819 .11099243 .28025819 .13198853 .28025819 .1499939 .29826356 .1499939 .3192749 .1499939 .34127809 .13398743 .35928346 .10899353 .35928346 .10499573 .35928346 .101989749 .35928346 .09899902 .35827638M.31498719 .24024964V.1412201C.31498719 .07620239 .27198792 .012176514 .20199585 .010177612H.19799805C.1539917 .010177612 .10998535 .044189454 .10998535 .09420776 .10998535 .19822693 .22698975 .24024964 .31498719 .24024964Z"/>
<path id="font_21_41" d="M.13999939 .6152344C.13999939 .55236819 .11898804 .4206543 .017990113 .4206543V.40264894H.102996829V.17695618C.102996829 .16297913 .101989749 .14900208 .101989749 .13500977 .101989749 .056121828 .13798523-.0078125 .22099304-.0078125 .30099488-.0078125 .31599427 .082092288 .31599427 .14399719V.1819458H.29599C.29599 .16697693 .29699708 .1519928 .29699708 .13700867 .29699708 .09307861 .28799439 .012176514 .22799683 .012176514 .16899109 .012176514 .1599884 .082092288 .1599884 .13002014V.40264894H.2999878V.43066407H.1599884V.6152344H.13999939Z"/>
<path id="font_21_7" d="M.042999269 .68359377V.6555939C.052993776 .6555939 .06399536 .6565857 .07499695 .6565857 .10699463 .6565857 .13598633 .65159609 .13598633 .61660769 .13598633 .60961917 .1349945 .60261538 .1349945 .59661868V.08892822C.1349945 .08293152 .13598633 .076934818 .13598633 .06994629 .13598633 .032958986 .10598755 .02796936 .07499695 .02796936 .06399536 .02796936 .052993776 .028961182 .042999269 .028961182V.0009765625H.2999878V.028961182C.2899933 .028961182 .2789917 .02796936 .2679901 .02796936 .23599243 .02796936 .20698548 .032958986 .20698548 .06794739 .20698548 .07493591 .20799256 .0819397 .20799256 .0879364V.59562686C.20799256 .60162356 .20698548 .60762026 .20698548 .61460879 .20698548 .65159609 .23699951 .6565857 .2679901 .6565857 .2789917 .6565857 .2899933 .6555939 .2999878 .6555939V.68359377H.042999269Z"/>
<path id="font_21_27" d="M.041992189 .42926026V.40122987H.052993776C.083999637 .40122987 .10798645 .39622499 .10798645 .3511963V.06298828C.10798645 .030975342 .08099365 .02897644 .051986696 .02897644H.037994386V.0009765625H.22599793V.02897644H.20899964C.18598938 .02897644 .16299439 .031967164 .16299439 .06399536V.44026185L.041992189 .42926026M.11399841 .66015627C.08999634 .65615847 .07699585 .6361847 .07699585 .6161957 .07699585 .5962219 .09298706 .5722656 .11999512 .5722656 .14698792 .5722656 .1659851 .5932312 .1659851 .6161957 .1659851 .6381531 .147995 .6611328 .12298584 .6611328 .11999512 .6611481 .116989139 .66015627 .11399841 .66015627Z"/>
<path id="font_21_29" d="M.037994386 .68429568V.6562805H.050994874C.083999637 .6562805 .10798645 .6522827 .10798645 .6032562V.067993167C.10798645 .031967164 .08198547 .02897644 .053985597 .02897644H.037994386V.0009765625H.23298645V.02897644H.21099854C.18499756 .02897644 .16299439 .031967164 .16299439 .06599426V.6953125L.037994386 .68429568Z"/>
<path id="font_21_3" d="M.04798889 .68359377V.65556338H.07299805C.10598755 .65556338 .13699341 .65156558 .13699341 .6145935 .13699341 .6075897 .13598633 .6006012 .13598633 .5946045V.090927127C.13598633 .08493042 .13699341 .076934818 .13699341 .06994629 .13699341 .032958986 .10598755 .02897644 .07499695 .02897644H.04798889V.0009765625H.30599977C.32499696 .0009918213 .34498597 0 .36499024 0 .5299988 0 .673996 .13290406 .673996 .33677674 .673996 .508667 .5649872 .6845703 .36299134 .6845703 .34298707 .6845856 .32299806 .68359377 .3039856 .68359377H.04798889M.58898928 .30880738C.58799746 .3038025 .58799746 .2978058 .58799746 .29281617V.27783204C.57899478 .17588806 .5359955 .06893921 .4229889 .037963869 .3919983 .02897644 .3619995 .02897644 .32998658 .02897644H.24598694C.22499085 .02897644 .20599365 .030975342 .20599365 .060943605 .20599365 .06893921 .20698548 .076934818 .20698548 .08293152V.5836487C.20698548 .5926361 .20599365 .6026306 .20599365 .6126251 .20599365 .63856509 .20599365 .65556338 .25 .65556338H.269989C.2899933 .65556338 .31098939 .6565552 .33099366 .6565552 .3889923 .6565552 .44099427 .6505585 .49398805 .6075897 .57598879 .54164126 .58898928 .43270875 .58999636 .33476258 .58999636 .32577516 .58999636 .31678773 .58898928 .3087921V.30880738Z"/>
<path id="font_21_26" d="M.31199647 .40315248H.31098939C.2869873 .42918397 .24699402 .4402008 .21199036 .4402008 .12998963 .4402008 .05999756 .3771057 .05999756 .29400636 .05999756 .2589569 .07499695 .21488953 .10398865 .19186402V.19085694C.084991458 .17184448 .07398987 .13778687 .07398987 .10975647 .07398987 .07369995 .08999634 .047683717 .116989139 .02368164 .07199097 .014694214 .025985718-.028274537 .025985718-.07823181 .025985718-.16816712 .1539917-.203125 .23599243-.203125 .31599427-.203125 .44898988-.17416382 .44898988-.07324219 .44898988-.013290405 .41099549 .027694703 .35699464 .046691896 .31599427 .059692384 .272995 .060684205 .22999573 .060684205H.17298889C.12399292 .060684205 .09899902 .08972168 .09899902 .13078308V.13778687C.101989749 .1538086 .10798645 .16682434 .115997318 .18084717H.116989139C.14099121 .15782166 .17999268 .14880371 .21099854 .14880371 .2849884 .14880371 .34999085 .1968689 .3619995 .28398133V.29400636C.3619995 .3260498 .35099793 .35908509 .32998658 .38412477 .32798768 .38612367 .32699586 .38912965 .32699586 .39213563V.39413453C.33999635 .4161682 .3899994 .43118287 .4139862 .43118287 .41799928 .43118287 .42199708 .43017579 .4269867 .42918397 .4189911 .42417909 .41299439 .4161682 .41299439 .40615846 .41299439 .39213563 .4249878 .38111878 .43798829 .38111878 .45199586 .38111878 .46199037 .39413453 .46199037 .40715028 .46199037 .43118287 .43998719 .44921876 .4149933 .44921876 .3809967 .44921876 .33499146 .43418885 .31199647 .40315248M.068984989-.085235599V-.07723999C.068984989-.01928711 .117996219 .0126953129 .1749878 .0126953129H.23899842C.2889862 .0126953129 .4059906 .0126953129 .4059906-.07923889 .4059906-.16516114 .2709961-.18414307 .23799134-.18414307 .17298889-.18414307 .07899475-.1561737 .068984989-.085235599M.12399292 .27497865V.28799439C.12399292 .34207154 .13598633 .4211731 .21199036 .4211731 .27799989 .4211731 .2979889 .35307313 .2979889 .29400636 .2979889 .25094605 .29299928 .20187378 .24699402 .17684937 .23599243 .1708374 .22399903 .16783142 .21199036 .16783142 .18598938 .16783142 .16099549 .18084717 .14498902 .20288086 .1289978 .22390747 .1269989 .24993897 .12399292 .27497865Z"/>
<path id="font_21_15" d="M.051986696 .6796875 .033996583 .45776368H.053985597C.057998659 .50975039 .06098938 .5817108 .09199524 .61569216 .12399292 .6496887 .17399597 .65167239 .21699524 .65167239H.27799989C.29599 .6496887 .30799867 .643692 .30799867 .61968997 .30799867 .61369326 .30699159 .60769656 .30699159 .6027069V.07194519C.30699159 .032974245 .272995 .02796936 .24099732 .02796936 .22999573 .02796936 .21998596 .028961182 .21099854 .028961182H.18299866V.0009765625H.5039978V.028961182H.44999696C.4149933 .028961182 .37998963 .032974245 .37998963 .07194519V.6027069C.37998963 .60769656 .3789978 .61369326 .3789978 .61968997 .3789978 .643692 .3909912 .6496887 .40899659 .65167239H.46998597C.5130005 .65167239 .5629883 .6496887 .59498599 .61569216 .6259918 .5817108 .6289978 .50975039 .6329956 .45776368H.6529999L.6349945 .6796875H.051986696Z"/>
<path id="font_21_14" d="M.10598755 .05937195C.15299988 .0063934328 .21899414-.016601563 .2919922-.016601563 .3929901-.016601563 .47499085 .07736206 .47499085 .18333435 .47499085 .2652893 .42900086 .3462677 .34700013 .3752594 .33099366 .38024903 .31399537 .38424684 .29699708 .38824464L.23999024 .40324403C.18499756 .4182434 .13798523 .43122865 .11299133 .49821473 .10899353 .51119998 .10598755 .52619937 .10598755 .54019168V.54219058C.10598755 .61616519 .16699219 .67614749 .24299622 .67614749 .35699464 .67614749 .4139862 .58117678 .4269867 .47721864 .42799378 .46922303 .42799378 .4572296 .43899537 .4572296 .44699098 .4572296 .44898988 .46322633 .44898988 .47021485V.6871338C.44898988 .69314578 .44898988 .70214846 .44099427 .70214846 .4269867 .70214846 .3959961 .62615969 .3959961 .62615969 .35299684 .67414858 .30699159 .70214846 .24198914 .70214846 .1559906 .70214846 .052993776 .63916018 .052993776 .51719668 .052993776 .44023133 .09799194 .37025453 .16899109 .3422699 .18499756 .3352661 .20199585 .3322754 .21899414 .3272705L.28799439 .3092804C.35099793 .29328919 .3939972 .274292 .41600038 .20231629 .4189911 .18832398 .42199708 .17433167 .42199708 .15933228V.15234375C.41799928 .083358768 .36999513 .01739502 .2979889 .011398315H.2889862C.19099427 .011398315 .09599304 .06237793 .07598877 .18032837 .07398987 .19631958 .07798767 .22831726 .06298828 .22831726 .053985597 .22831726 .052993776 .22131348 .052993776 .21531677V-.0016021729C.052993776-.0076141359 .052993776-.016601563 .06098938-.016601563 .07499695-.016601563 .10598755 .05937195 .10598755 .05937195Z"/>
<path id="font_21_44" d="M.037994386 .42858888V.400589H.053985597C.084991458 .400589 .10899353 .3965912 .10899353 .33468629 .10899353 .32070924 .10798645 .30673219 .10798645 .29275514V.1309967C.10798645 .10203552 .10998535 .07307434 .12399292 .04711914 .147995 .0051879885 .19999695-.0087890629 .24598694-.0087890629 .3019867-.0087890629 .35699464 .030151368 .37199403 .08406067L.37298585-.007797241 .49798585 .0011901856V.029144288H.48298646C.45498658 .029144288 .42799378 .03213501 .42799378 .07807922V.4404297L.30099488 .42941285V.400589H.31199647C.34298707 .400589 .37098695 .3985901 .37098695 .35165406V.15196228C.3659973 .08206177 .32598878 .010177612 .24899292 .010177612 .21099854 .010177612 .1749878 .024154664 .16699219 .07608032 .16499329 .094055179 .16499329 .11302185 .16499329 .1309967V.4404297L.037994386 .42858888Z"/>
<path id="font_21_9" d="M.049987794 .68359377V.6555786H.07798767C.10998535 .6555786 .13899231 .65159609 .13899231 .61361697 .13899231 .60661318 .13798523 .60061648 .13798523 .59461978V.09992981C.13798523 .037963869 .09298706 .02897644 .049987794 .02897644V.0009765625H.24798584V.02897644C.20799256 .02897644 .1599884 .034957887 .1599884 .10092163L.16099549 .6525879C.16299439 .6445923 .1659851 .6365967 .16899109 .6286011L.18299866 .591629C.25299073 .40673829 .31900025 .22085572 .3899994 .036956788L.39898683 .012969971C.40098573 .0069732668 .40499879 .0019683839 .4119873 .0009765625 .42599488 .0009765625 .42999269 .023971558 .43499757 .035964967 .5029907 .22685242 .58099368 .4147339 .6469879 .60661318 .6539917 .62361147 .6619873 .6405945 .66600039 .6585846L.6669922 .06994629C.6669922 .032958986 .6369934 .02897644 .60398867 .02897644H.57899478V.0009765625H.82199099V.02897644H.7969971C.7639923 .02897644 .73298647 .032958986 .73298647 .06994629 .73298647 .076934818 .73399356 .0839386 .73399356 .0899353V.5936279C.73399356 .59962466 .73298647 .60762026 .73298647 .61460879 .73298647 .65159609 .7630005 .6565857 .7919922 .6565857 .8029938 .6565857 .8129883 .6555786 .82199099 .6555786V.68359377H.673996L.6589966 .68058779 .651001 .6665802 .43699647 .0899353H.43499757L.22099304 .6665802 .21299744 .68058779 .19799805 .68359377H.049987794Z"/>
<path id="font_21_22" d="M.2979889 .6843109V.6562958H.31298829C.34599305 .6562958 .36799623 .652298 .36799623 .59329226L.36698915 .37324525C.34399415 .42025758 .2849884 .44026185 .24099732 .44026185 .12298584 .44026185 .035995485 .3312378 .035995485 .21522522 .035995485 .10220337 .11898804-.0078125 .23399353-.0078125 .2899933-.0078125 .32699586 .018188477 .3659973 .063186649V-.0078125L.49299623 .0011749268V.029190064H.47799684C.45098878 .029190064 .4229889 .032180787 .4229889 .077194217V.6953125L.2979889 .6843109M.10598755 .19221497V.20721436C.10598755 .27822877 .115997318 .35723878 .17999268 .4002533 .20098877 .41426087 .22599793 .42225648 .25 .42225648 .2979889 .42225648 .35798646 .3812561 .3659973 .33424378V.11520386C.3659973 .060195924 .2899933 .010177612 .23799134 .010177612 .16099549 .010177612 .11898804 .0861969 .10899353 .1572113 .10798645 .16920471 .10798645 .1802063 .10598755 .19221497Z"/>
<path id="font_21_12" d="M.04798889 .68359377V.6555786H.07299805C.10598755 .6555786 .13699341 .6515808 .13699341 .61460879 .13699341 .607605 .13598633 .60061648 .13598633 .59461978V.090927127C.13598633 .08493042 .13699341 .076934818 .13699341 .06994629 .13699341 .032958986 .10598755 .02897644 .07499695 .02897644H.04798889V.0009765625H.29699708V.02897644H.2659912C.23498535 .02897644 .20899964 .032958986 .20899964 .07093811V.31976319H.38398744C.47999574 .32676698 .5799866 .3767395 .59399417 .48968507V.5006714C.59399417 .6246033 .46099855 .6845703 .35798646 .6845703 .33999635 .6845856 .32099916 .68359377 .30299378 .68359377H.04798889M.20698548 .34277345V.6255951C.20698548 .6535797 .22499085 .6555786 .24299622 .6555786H.34799195C.394989 .6555786 .44999696 .6435852 .48098756 .6036072 .5039978 .57463076 .5089874 .5346527 .5089874 .4986725 .5089874 .46369935 .5049896 .4257202 .48199464 .39672853 .44599916 .35176087 .3889923 .34277345 .33499146 .34277345H.20698548Z"/>
<path id="font_21_34" d="M.034988405 .4294281V.4013977H.04899597C.07899475 .4013977 .10499573 .39738465 .10499573 .35533143V-.105285648C.10499573-.11228943 .10598755-.11930847 .10598755-.12731934 .10598755-.16236878 .07899475-.1653595 .052993776-.1653595H.034988405V-.19335938H.23199463V-.1653595H.20999146C.18399048-.1653595 .1619873-.16236878 .1619873-.12831116L.16299439 .058929445C.18699646 .014877319 .23999024-.008163452 .2869873-.008163452 .4079895-.008163452 .49198915 .10499573 .49198915 .2181549 .49198915 .32730104 .4139862 .4404297 .29499818 .4404297 .24598694 .4404297 .18499756 .41441346 .16099549 .36935426L.1599884 .4404297 .034988405 .4294281M.42099 .1991272C.4169922 .12802124 .3769989 .0098724369 .27799989 .0098724369 .22399903 .0098724369 .1619873 .063934329 .1619873 .11100769V.27522279C.1619873 .2872467 .16099549 .30026246 .16099549 .31227113 .16099549 .36935426 .22898865 .42042542 .2869873 .42042542 .3899994 .42042542 .42199708 .28424073 .42199708 .2181549 .42199708 .21214295 .42199708 .2051239 .42099 .1991272Z"/>
<path id="font_21_2" d="M.5669861 .60917666H.5649872C.526001 .67214968 .44599916 .70214846 .37998963 .70214846 .31599427 .70214846 .2519989 .67814639 .19999695 .64115908 .10398865 .57318118 .052993776 .45622254 .052993776 .340271 .052993776 .15933228 .19099427-.016601563 .38398744-.016601563H.394989C.5249939-.014602661 .6339874 .10736084 .6339874 .23631287V.24330139C.6329956 .24830628 .6289978 .25030519 .6239929 .25030519 .6100006 .25030519 .61299136 .21331787 .60899356 .19532776 .58898928 .09736633 .5089874 .011398315 .397995 .011398315 .32099916 .011398315 .24499512 .052368165 .19999695 .114349368 .15098572 .18032837 .13798523 .2662964 .13798523 .34725953 .13798523 .41323854 .14898682 .47921754 .1789856 .53819277 .21899414 .61616519 .30599977 .6741333 .3939972 .6741333 .5179901 .6741333 .59399417 .55718997 .6069946 .45022584 .60899356 .4392395 .60598757 .4222412 .62098696 .4222412 .6309967 .4222412 .6339874 .426239 .6339874 .43522645V.6871338C.6339874 .6941376 .6329956 .70214846 .625 .70214846 .61099246 .70214846 .56999209 .61616519 .5669861 .60917666Z"/>
<path id="font_21_20" d="M.034988405 .6843109V.6562958H.049987794C.07699585 .6562958 .10499573 .65330508 .10499573 .6082916V.0011749268L.12399292 .003189087 .15499878 .06919861H.15699768C.17999268 .020187378 .23399353-.0078125 .28599549-.0078125 .40699769-.0078125 .49198915 .10420227 .49198915 .21922302 .49198915 .33224488 .4079895 .44026185 .2939911 .44026185 .23799134 .44026185 .19400025 .41226197 .1599884 .37025453V.6953125L.034988405 .6843109M.42099 .19322205C.4169922 .14720154 .41099549 .10020447 .3809967 .063186649 .35598756 .031188965 .31900025 .010177612 .27999879 .010177612 .22599793 .010177612 .1619873 .060195924 .1619873 .112197879V.27622987C.1619873 .28823854 .16099549 .301239 .16099549 .31323243 .16099549 .37025453 .22799683 .42225648 .2889862 .42225648 .31199647 .42225648 .33299256 .41426087 .35198976 .4022522 .4119873 .36024476 .42199708 .28222657 .42199708 .21522522 .42199708 .20822144 .42199708 .20021057 .42099 .19322205Z"/>
<path id="font_21_46" d="M.016998291 .43066407V.40264894H.03199768C.085998538 .40264894 .08999634 .36965943 .115997318 .3066864 .15299988 .2137146 .18899536 .11975098 .22898865 .027770997 .23098755 .020767212 .23799134 .010772705 .23799134 .0017852783 .23799134-.017211914 .22200012-.044204713 .21398926-.062194826 .19299317-.11218262 .16799927-.18415833 .10499573-.18415833 .08699036-.18415833 .067993167-.17616272 .053985597-.16416931 .07398987-.16217041 .08999634-.150177 .08999634-.12817383 .08999634-.110183719 .07699585-.0921936 .053985597-.0921936 .033996583-.0921936 .017990113-.10618591 .017990113-.12918091 .017990113-.1751709 .06399536-.20214844 .10499573-.20214844 .19999695-.20214844 .23498535-.064193729 .2599945-.0032196046 .30299378 .10374451 .34799195 .21070862 .3899994 .317688 .4059906 .3566742 .42399598 .40264894 .48399354 .40264894V.43066407H.34098817V.40264894C.36299134 .40264894 .3809967 .3856659 .3809967 .36366273 .3809967 .3486786 .37399293 .33467103 .36898805 .3206787 .34098817 .24971009 .31098939 .17971802 .2829895 .10874939 .2789917 .0977478 .272995 .086761478 .269989 .07475281H.2689972C.2619934 .0977478 .25099183 .1207428 .24099732 .1437378 .21299744 .21270752 .18598938 .2836914 .15699768 .3526764 .1539917 .360672 .14898682 .3686676 .14898682 .3776703V.3816681C.1519928 .40264894 .18199158 .40264894 .19799805 .40264894V.43066407H.016998291Z"/>
<path id="font_21_11" d="M.35299684 .70214846C.2809906 .6941376 .21499634 .6671448 .16099549 .6131592 .08898926 .54219058 .052993776 .44223023 .052993776 .3422699 .052993776 .17132569 .16899109-.016601563 .37399293-.016601563 .56799319-.016601563 .68699648 .17233277 .68699648 .3422699 .68699648 .51919558 .56199648 .70214846 .36698915 .70214846H.35299684M.13798523 .3292694V.3462677C.13798523 .46022035 .16499329 .59817507 .27999879 .6581421 .30699159 .6731415 .33699037 .68214419 .36799623 .68214419 .45599366 .68214419 .5269928 .6211548 .56599429 .54019168 .59298709 .48420716 .60198977 .4202423 .60198977 .35925294 .60198977 .2303009 .5669861 .052368165 .4139862 .010391235 .3999939 .0063934328 .3849945 .0043945314 .37098695 .0043945314 .22499085 .0043945314 .15499878 .16433716 .14099121 .2862854 .13999939 .3002777 .13999939 .3152771 .13798523 .3292694Z"/>
<path id="font_21_30" d="M.037994386 .42941285V.40138246H.052993776C.08099365 .40138246 .10798645 .39837647 .10798645 .35131837V.06300354C.10798645 .030975342 .07998657 .02897644 .051986696 .02897644H.037994386V.0009765625H.23498535V.02897644H.21798706C.19099427 .02897644 .16499329 .031967164 .16499329 .06401062V.2572174C.16499329 .32029725 .18699646 .38536073 .2519989 .4143982 .2659912 .41940309 .27999879 .42240907 .29499818 .42240907 .35299684 .42240907 .37199403 .37234498 .37199403 .30326844V.06600952C.37199403 .029968262 .34298707 .02897644 .30799867 .02897644H.3019867V.0009765625H.49899293V.02897644H.48199464C.45498658 .02897644 .42900086 .031967164 .42900086 .06401062V.2572174C.42900086 .32029725 .45098878 .38536073 .5159912 .4143982 .5299988 .41940309 .5439911 .42240907 .5589905 .42240907 .61698916 .42240907 .6359863 .37234498 .6359863 .30326844V.06600952C.6359863 .029968262 .6069946 .02897644 .57199099 .02897644H.56599429V.0009765625H.7630005V.02897644H.7449951C.71899417 .02897644 .69299319 .031967164 .69299319 .06600952V.30026246C.69299319 .369339 .66999819 .4404297 .5649872 .4404297 .49699403 .4404297 .45199586 .39637757 .4269867 .3413086 .4119873 .40737916 .37399293 .4404297 .29599 .4404297 .23599243 .4404297 .1749878 .3923645 .1619873 .3363037L.16099549 .4404297 .10798645 .4354248 .037994386 .42941285Z"/>
<path id="font_21_47" d="M.049987794 .43066407 .039993287 .2737732H.05999756C.05999756 .30474855 .06399536 .3517151 .085998538 .37869264 .10998535 .40867616 .1519928 .41366578 .19198609 .41366578 .20899964 .41366578 .22599793 .41267396 .24099732 .41267396H.31199647C.2849884 .3796997 .2619934 .34371949 .23699951 .30874635 .16899109 .2168274 .10499573 .12388611 .036987306 .032958986 .032989503 .02796936 .025985718 .019973755 .025985718 .011962891 .025985718 .0029754639 .032989503 .0009765625 .040985109 .0009765625H.36698915L.38198854 .18284607H.3619995C.35899354 .14187622 .35598756 .09490967 .33299256 .060943605 .30499269 .023971558 .25498963 .020965577 .21299744 .020965577H.09498596C.18499756 .1468811 .2769928 .27078248 .36698915 .39768983 .37098695 .40367127 .37998963 .41267396 .37998963 .42066957 .37998963 .42866517 .37399293 .43066407 .36698915 .43066407H.049987794Z"/>
<path id="font_21_1" d="M.0289917 .02897644V.0009765625H.21199036V.02897644C.18399048 .02897644 .15098572 .04499817 .15098572 .076034549V.08004761C.15299988 .095062259 .1599884 .11009216 .16499329 .12411499 .17799378 .16217041 .19499207 .19921875 .20399475 .23828125H.44799806C.46598817 .23828125 .47599793 .18719483 .48599244 .16015625 .49398805 .13412476 .5039978 .108078 .5130005 .08204651 .5159912 .074035648 .519989 .0650177 .519989 .057006837 .519989 .029968262 .47599793 .02897644 .45098878 .02897644V.0009765625H.6839905V.02897644H.6609955C.60798647 .02897644 .5970001 .050994874 .58399966 .096069339L.5509949 .18920899C.49398805 .34921266 .43798829 .509079 .38398744 .66996768L.375 .6939392C.37298585 .7049408 .36698915 .7109375 .35598756 .7109375 .33799745 .7109375 .33499146 .6849518 .32998658 .6709595 .2709961 .49909974 .20799256 .3282318 .1499939 .15515137 .13198853 .10107422 .12199402 .02897644 .0289917 .02897644M.21398926 .26628114 .33099366 .6030121 .44898988 .26628114H.21398926Z"/>
<path id="font_21_21" d="M.35598756 .36228944C.35299684 .36328126 .34899903 .36328126 .34599305 .36328126 .32199098 .36328126 .30599977 .34527589 .30599977 .3242798 .30599977 .30126954 .32398988 .28425599 .34399415 .28425599 .3659973 .28425599 .3849945 .30026246 .3849945 .3252716 .3849945 .40429688 .30299378 .4453125 .23498535 .4453125 .11299133 .4453125 .035995485 .3262787 .035995485 .21624756 .035995485 .11021423 .10899353-.0078125 .23699951-.0078125 .3039856-.0078125 .36698915 .031188965 .3889923 .09820557 .3919983 .10420227 .394989 .111206058 .394989 .11820984V.12220764C.3939972 .1262207 .3909912 .1282196 .3869934 .1282196 .37298585 .1282196 .37298585 .111206058 .36999513 .10220337 .34599305 .049194337 .30299378 .012176514 .24598694 .012176514 .13999939 .012176514 .10598755 .1322174 .10598755 .2122345 .10598755 .29426576 .12799073 .42430116 .24299622 .42430116 .28799439 .42430116 .33399964 .4012909 .35598756 .36228944Z"/>
<path id="font_21_37" d="M.36499024 .07095337 .3659973-.12931824C.3659973-.1633606 .34098817-.1653595 .29599-.1653595V-.19335938H.49299623V-.1653595H.47099305C.44699098-.1653595 .4229889-.1613617 .4229889-.12731934V.4404297L.40499879 .43841554 .37399293 .34532167C.36499024 .3563385 .36099244 .37034608 .35198976 .38136292 .32699586 .41641236 .28799439 .4404297 .24198914 .4404297 .12199402 .4404297 .035995485 .32929994 .035995485 .21614075 .035995485 .102996829 .11898804-.009155273 .23298645-.009155273 .28599549-.009155273 .34498597 .024887085 .36499024 .07095337M.10598755 .1991272V.21014405C.10598755 .2872467 .13999939 .42042542 .24598694 .42042542H.24798584C.31498719 .42042542 .35899354 .35133363 .36799623 .2942505V.1360321C.36799623 .07896423 .31199647 .026885987 .2679901 .013870239 .25698854 .010864258 .24598694 .0098724369 .23498535 .0098724369 .147995 .012878418 .114990238 .12301636 .10598755 .1991272Z"/>
<path id="font_21_5" d="M.04798889 .6816406V.6536255H.07499695C.10598755 .6536255 .13598633 .64964297 .13598633 .6127014 .13598633 .6057129 .1349945 .5977173 .1349945 .59173586V.08999634C.1349945 .083999637 .13598633 .07699585 .13598633 .069992069 .13598633 .032974245 .10499573 .02897644 .07398987 .02897644H.04798889V.0009765625H.31698609V.02897644H.2809906C.23699951 .02897644 .20799256 .029968262 .20799256 .07398987V.328125H.29100038C.34498597 .328125 .39898683 .32411195 .39898683 .22807312V.21105957H.4189911V.4729309H.39898683V.45594789C.39898683 .40504457 .38598634 .36410523 .32998658 .35810853 .31199647 .35612489 .2939911 .35612489 .27598573 .35612489H.20799256V.61968997C.20799256 .64863589 .22200012 .6536255 .24699402 .6536255H.3659973C.4169922 .6536255 .47698976 .65164187 .5139923 .6127014 .5509949 .57276919 .5529938 .51086428 .55999758 .45994569H.5799866L.5549927 .6816406H.04798889Z"/>
<path id="font_21_4" d="M.04699707 .6816406V.6536255H.07398987C.10598755 .6536255 .13598633 .64964297 .13598633 .61265566 .13598633 .6056671 .1349945 .5976715 .1349945 .5916748V.0899353C.1349945 .0839386 .13598633 .07695007 .13598633 .06994629 .13598633 .032974245 .10398865 .02897644 .07299805 .02897644H.04699707V.0009765625H.58299258L.62098696 .25585938H.6009979C.58999636 .19688416 .58499148 .12591553 .54599 .079940799 .5039978 .029968262 .42999269 .02897644 .37098695 .02897644H.24299622C.21699524 .02897644 .20799256 .038970949 .20799256 .063949588V.3408203H.29699708C.33198548 .3408203 .37098695 .33880616 .3919983 .3078308 .4039917 .28883363 .40499879 .2648468 .40499879 .24186707V.22387696H.4249878V.48573304H.40499879V.46775819C.40499879 .41477967 .3889923 .37780763 .33499146 .3708191 .31698609 .3688202 .2979889 .3688202 .27999879 .3688202H.20799256V.6196594C.20799256 .64364627 .21699524 .6536255 .24198914 .6536255H.3659973C.4269867 .6536255 .5009918 .6536255 .5389862 .5966644 .5649872 .55670168 .56799319 .50572207 .57398989 .45976258H.59399417L.56900027 .6816406H.04699707Z"/>
<path id="font_21_45" d="M.016998291 .43066407V.40264894H.03199768C.083999637 .40264894 .08699036 .37469483 .114990238 .30677796 .15499878 .21090698 .18699646 .11102295 .22999573 .017150879 .23399353 .006164551 .23699951-.0078125 .25099183-.0078125 .2689972-.0078125 .2899933 .064086917 .3039856 .0990448 .33299256 .17294312 .36299134 .24685669 .3919983 .320755 .4099884 .36869813 .43499757 .40264894 .48399354 .40264894V.43066407H.34098817V.40264894C.36299134 .40264894 .38198854 .38568116 .38198854 .3637085 .38198854 .34872438 .37399293 .3327484 .36898805 .3187561 .33999635 .24584961 .31399537 .1719513 .28199769 .10003662 .27799989 .08905029 .272995 .078063968 .269989 .06707764H.2689972C.26098634 .091049198 .25 .11402893 .24099732 .13800049L.15699768 .35072328C.15299988 .3587036 .147995 .36968995 .147995 .37968446V.38168336C.1519928 .40264894 .18099976 .40264894 .19699097 .40264894V.43066407H.016998291Z"/>
<path id="font_21_16" d="M.04699707 .68359377V.6555786H.07798767C.10899353 .6555786 .13598633 .65159609 .13598633 .6136322 .13598633 .6046448 .1349945 .5966644 .1349945 .58966067V.29603578C.1349945 .2780609 .13398743 .26107789 .13398743 .24310303 .13398743 .119262699 .20999146-.016601563 .37399293-.016601563 .46499635-.016601563 .5379944 .060333253 .5649872 .14123535 .57699587 .17718506 .5779877 .21414185 .5779877 .25209046V.584671C.5779877 .6465912 .6239929 .6555786 .66600039 .6555786V.68359377H.46598817V.6555786C.5079956 .6555786 .55400088 .6465912 .55400088 .584671V.25408937C.55400088 .1871643 .5439911 .118255618 .49499513 .06732178 .46199037 .03236389 .4149933 .011398315 .36698915 .011398315 .29699708 .011398315 .23999024 .065322879 .22099304 .13024903 .20899964 .16918946 .20799256 .20913697 .20799256 .24909973V.6146393C.20799256 .65159609 .23699951 .6555786 .2669983 .6555786H.29599V.68359377H.04699707Z"/>
<path id="font_21_38" d="M.07998657 .605072C.10499573 .66108706 .15899658 .6860962 .21398926 .6860962 .2769928 .6860962 .32499696 .6620941 .32499696 .56907656 .32499696 .5280609 .31399537 .50105288 .2829895 .4660492 .22599793 .40403749 .20098877 .31503297 .20098877 .23200989V.18800354C.20098877 .18200684 .20298767 .17599488 .20999146 .17599488 .21798706 .17599488 .22099304 .18099976 .22099304 .18899536V.22000122C.22099304 .31202699 .25498963 .3930359 .32899476 .45205689 .36999513 .48506166 .394989 .5110626 .394989 .56607058 .394989 .65509036 .31698609 .70410159 .21998596 .70410159 .1459961 .70410159 .052993776 .66508486 .052993776 .56806948 .052993776 .5440674 .070999149 .5280609 .09399414 .5280609 .115997318 .5280609 .13198853 .5440674 .13198853 .56707766 .13198853 .59207156 .11399841 .6060791 .09098816 .6060791 .08699036 .6060791 .083999637 .6060791 .07998657 .605072M.20298767 .08898926C.1789856 .084991458 .1659851 .06498718 .1659851 .04498291 .1659851 .024978638 .18199158 .0009765625 .20899964 .0009765625 .23599243 .0009765625 .25498963 .021972657 .25498963 .04498291 .25498963 .066986087 .23699951 .08998108 .21199036 .08998108 .20899964 .08998108 .20599365 .08898926 .20298767 .08898926Z"/>
<path id="font_21_13" d="M.04798889 .68359377V.6555786H.07299805C.10598755 .6555786 .13699341 .65159609 .13699341 .61460879 .13699341 .60762026 .13598633 .60061648 .13598633 .59461978V.090927127C.13598633 .08493042 .13699341 .076934818 .13699341 .06994629 .13699341 .032958986 .10598755 .02897644 .07499695 .02897644H.04798889V.0009765625H.29499818V.02897644H.2639923C.23298645 .02897644 .20698548 .032958986 .20698548 .07093811V.333786H.31399537C.3919983 .333786 .46199037 .2928009 .46199037 .19087219 .46199037 .17088318 .45999146 .15089417 .45999146 .13090515 .45999146 .051315309 .49899293-.0066223146 .59999087-.016601563H.60899356C.6649933-.016601563 .69699099 .035324098 .69699099 .08526611 .69699099 .090270999 .69699099 .100250247 .6879883 .100250247 .66799929 .09992981 .6799927 .0009765625 .6119995 .0009765625 .56399539 .0009765625 .5529938 .063949588 .5479889 .11091614 .5339966 .19487 .5399933 .27082826 .45899964 .31878663 .44299317 .3277893 .42399598 .33677674 .4059906 .34077455 .4229889 .34677125 .43998719 .34977723 .45599366 .35577394 .5209961 .38275147 .58099368 .43371583 .58099368 .50668337 .58099368 .62260439 .44099427 .67858889 .34498597 .68359377H.04798889M.20698548 .35177613V.6266022C.20698548 .653595 .22599793 .6555786 .24299622 .6555786H.31900025C.4039917 .6555786 .49598695 .62561038 .49598695 .50068667 .49598695 .4167328 .44198609 .36976625 .36698915 .35577394 .34298707 .35177613 .31900025 .35177613 .29499818 .35177613H.20698548Z"/>
</defs>
<path transform="matrix(1,0,0,-1,405.7106,46.061704)" stroke-width="2.989" stroke-linecap="butt" stroke-miterlimit="10" stroke-linejoin="miter" fill="none" stroke="#a9a9a9" d="M0 0C-77.183 44.566-151.775 44.569-224.153 2.786"/>
<path transform="matrix(-.86603,.49994,.49994,.86603,177.44919,45.647554)" d="M0 0-4.339 3.507V0-3.507Z" fill="#a9a9a9"/>
<path transform="matrix(-.86603,.49994,.49994,.86603,177.44919,45.647554)" stroke-width="1.619" stroke-linecap="butt" stroke-linejoin="round" fill="none" stroke="#a9a9a9" d="M0 0-4.339 3.507V0-3.507Z"/>
<path transform="matrix(1,0,0,-1,296.2565,15.578201)" d="M0 0H-14.707C-16.908 0-18.692-1.784-18.692-3.985V-18.692C-18.692-20.893-16.908-22.678-14.707-22.678H0C2.201-22.678 3.985-20.893 3.985-18.692V-3.985C3.985-1.784 2.201 0 0 0Z" fill="#ebebeb" fill-opacity=".5"/>
<use data-text="N" xlink:href="#font_21_10" transform="matrix(11.4768,0,0,-11.4768,282.071,30.87001)" fill-opacity=".5"/>
<use data-text="o" xlink:href="#font_21_32" transform="matrix(11.4768,0,0,-11.4768,290.26545,30.87001)" fill-opacity=".5"/>
<path transform="matrix(1,0,0,-1,406.5678,163.8701)" stroke-width="2.989" stroke-linecap="butt" stroke-miterlimit="10" stroke-linejoin="miter" fill="none" stroke="#a9a9a9" d="M0 0H26.433V30.972"/>
<path transform="matrix(0,-1,-1,-0,433.00074,128.15418)" d="M0 0-4.339 3.507V0-3.507Z" fill="#a9a9a9"/>
<path transform="matrix(0,-1,-1,-0,433.00074,128.15418)" stroke-width="1.619" stroke-linecap="butt" stroke-linejoin="round" fill="none" stroke="#a9a9a9" d="M0 0-4.339 3.507V0-3.507Z"/>
<path transform="matrix(1,0,0,-1,24.737,51.176404)" stroke-width="2.989" stroke-linecap="butt" stroke-miterlimit="10" stroke-linejoin="miter" fill="none" stroke="#a9a9a9" d="M0 0V-21.972H64.984"/>
<path transform="matrix(1,0,0,-1,94.4647,73.148)" d="M0 0-4.339 3.507V0-3.507Z" fill="#a9a9a9"/>
<path transform="matrix(1,0,0,-1,94.4647,73.148)" stroke-width="1.619" stroke-linecap="butt" stroke-linejoin="round" fill="none" stroke="#a9a9a9" d="M0 0-4.339 3.507V0-3.507Z"/>
<path transform="matrix(1,0,0,-1,149.4729,127.342609)" stroke-width="2.989" stroke-linecap="butt" stroke-miterlimit="10" stroke-linejoin="miter" fill="none" stroke="#a9a9a9" d="M0 0V-36.523H20.555"/>
<path transform="matrix(1,0,0,-1,174.77089,163.86533)" d="M0 0-4.339 3.507V0-3.507Z" fill="#a9a9a9"/>
<path transform="matrix(1,0,0,-1,174.77089,163.86533)" stroke-width="1.619" stroke-linecap="butt" stroke-linejoin="round" fill="none" stroke="#a9a9a9" d="M0 0-4.339 3.507V0-3.507Z"/>
<path transform="matrix(1,0,0,-1,228.8521,185.8345)" stroke-width="2.989" stroke-linecap="butt" stroke-miterlimit="10" stroke-linejoin="miter" fill="none" stroke="#a9a9a9" d="M0 0V21.965H66.219"/>
<path transform="matrix(1,0,0,-1,299.8146,163.86928)" d="M0 0-4.339 3.507V0-3.507Z" fill="#a9a9a9"/>
<path transform="matrix(1,0,0,-1,299.8146,163.86928)" stroke-width="1.619" stroke-linecap="butt" stroke-linejoin="round" fill="none" stroke="#a9a9a9" d="M0 0-4.339 3.507V0-3.507Z"/>
<path transform="matrix(1,0,0,-1,487.1805,73.1575)" stroke-width="2.989" stroke-linecap="butt" stroke-miterlimit="10" stroke-linejoin="miter" fill="none" stroke="#a9a9a9" d="M0 0H36.648"/>
<path transform="matrix(1,0,0,-1,528.5718,73.157489)" d="M0 0-4.339 3.507V0-3.507Z" fill="#a9a9a9"/>
<path transform="matrix(1,0,0,-1,528.5718,73.157489)" stroke-width="1.619" stroke-linecap="butt" stroke-linejoin="round" fill="none" stroke="#a9a9a9" d="M0 0-4.339 3.507V0-3.507Z"/>
<path transform="matrix(1,0,0,-1,514.6627,75.823909)" d="M0 0H-14.707C-16.908 0-18.692-1.784-18.692-3.985V-18.692C-18.692-20.893-16.908-22.678-14.707-22.678H0C2.201-22.678 3.985-20.893 3.985-18.692V-3.985C3.985-1.784 2.201 0 0 0Z" fill="#ebebeb" fill-opacity=".5"/>
<use data-text="Y" xlink:href="#font_21_18" transform="matrix(11.4768,0,0,-11.4768,499.08,91.115009)" fill-opacity=".5"/>
<use data-text="e" xlink:href="#font_21_23" transform="matrix(11.4768,0,0,-11.4768,506.368,91.115009)" fill-opacity=".5"/>
<use data-text="s" xlink:href="#font_21_40" transform="matrix(11.4768,0,0,-11.4768,511.2227,91.115009)" fill-opacity=".5"/>
<path transform="matrix(1,0,0,-1,44.9913,51.078004)" d="M0 0H-40.509C-42.709 0-44.494-1.784-44.494-3.985V-40.155C-44.494-42.356-42.709-44.14-40.509-44.14H0C2.201-44.14 3.985-42.356 3.985-40.155V-3.985C3.985-1.784 2.201 0 0 0Z" fill="#e4f1f1"/>
<path transform="matrix(1,0,0,-1,44.9913,51.078004)" stroke-width=".996" stroke-linecap="butt" stroke-miterlimit="10" stroke-linejoin="miter" fill="none" stroke="#000000" d="M0 0H-40.509C-42.709 0-44.494-1.784-44.494-3.985V-40.155C-44.494-42.356-42.709-44.14-40.509-44.14H0C2.201-44.14 3.985-42.356 3.985-40.155V-3.985C3.985-1.784 2.201 0 0 0Z"/>
<use data-text="G" xlink:href="#font_21_6" transform="matrix(11.4768,0,0,-11.4768,3.154,61.638208)"/>
<use data-text="e" xlink:href="#font_21_23" transform="matrix(11.4768,0,0,-11.4768,11.72717,61.638208)"/>
<use data-text="n" xlink:href="#font_21_31" transform="matrix(11.4768,0,0,-11.4768,16.581856,61.638208)"/>
<use data-text="e" xlink:href="#font_21_23" transform="matrix(11.4768,0,0,-11.4768,22.653084,61.638208)"/>
<use data-text="r" xlink:href="#font_21_39" transform="matrix(11.4768,0,0,-11.4768,27.50777,61.638208)"/>
<use data-text="a" xlink:href="#font_21_19" transform="matrix(11.4768,0,0,-11.4768,31.754187,61.638208)"/>
<use data-text="t" xlink:href="#font_21_41" transform="matrix(11.4768,0,0,-11.4768,37.217145,61.638208)"/>
<use data-text="e" xlink:href="#font_21_23" transform="matrix(11.4768,0,0,-11.4768,41.463563,61.638208)"/>
<use data-text="I" xlink:href="#font_21_7" transform="matrix(11.4768,0,0,-11.4768,10.328401,75.984607)"/>
<use data-text="n" xlink:href="#font_21_31" transform="matrix(11.4768,0,0,-11.4768,14.264943,75.984607)"/>
<use data-text="i" xlink:href="#font_21_27" transform="matrix(11.4768,0,0,-11.4768,20.33617,75.984607)"/>
<use data-text="t" xlink:href="#font_21_41" transform="matrix(11.4768,0,0,-11.4768,23.366045,75.984607)"/>
<use data-text="i" xlink:href="#font_21_27" transform="matrix(11.4768,0,0,-11.4768,27.612462,75.984607)"/>
<use data-text="a" xlink:href="#font_21_19" transform="matrix(11.4768,0,0,-11.4768,30.642336,75.984607)"/>
<use data-text="l" xlink:href="#font_21_29" transform="matrix(11.4768,0,0,-11.4768,36.105295,75.984607)"/>
<use data-text="D" xlink:href="#font_21_3" transform="matrix(11.4768,0,0,-11.4768,8.7004,90.331)"/>
<use data-text="e" xlink:href="#font_21_23" transform="matrix(11.4768,0,0,-11.4768,17.044035,90.331)"/>
<use data-text="s" xlink:href="#font_21_40" transform="matrix(11.4768,0,0,-11.4768,21.898722,90.331)"/>
<use data-text="i" xlink:href="#font_21_27" transform="matrix(11.4768,0,0,-11.4768,26.202523,90.331)"/>
<use data-text="g" xlink:href="#font_21_26" transform="matrix(11.4768,0,0,-11.4768,29.232398,90.331)"/>
<use data-text="n" xlink:href="#font_21_31" transform="matrix(11.4768,0,0,-11.4768,34.695356,90.331)"/>
<path transform="matrix(1,0,0,-1,199.7727,70.3301)" d="M0 0-47.491 47.491C-49.048 49.048-51.571 49.048-53.127 47.491L-100.618 0C-102.175-1.556-102.175-4.079-100.618-5.636L-53.127-53.127C-51.571-54.683-49.048-54.683-47.491-53.127L0-5.636C1.556-4.079 1.556-1.556 0 0Z" fill="#e4f1f1"/>
<path transform="matrix(1,0,0,-1,199.7727,70.3301)" stroke-width=".996" stroke-linecap="butt" stroke-miterlimit="10" stroke-linejoin="miter" fill="none" stroke="#000000" d="M0 0-47.491 47.491C-49.048 49.048-51.571 49.048-53.127 47.491L-100.618 0C-102.175-1.556-102.175-4.079-100.618-5.636L-53.127-53.127C-51.571-54.683-49.048-54.683-47.491-53.127L0-5.636C1.556-4.079 1.556-1.556 0 0Z"/>
<use data-text="T" xlink:href="#font_21_15" transform="matrix(11.4768,0,0,-11.4768,136.5656,62.754205)"/>
<use data-text="r" xlink:href="#font_21_39" transform="matrix(11.4768,0,0,-11.4768,143.5552,62.754205)"/>
<use data-text="a" xlink:href="#font_21_19" transform="matrix(11.4768,0,0,-11.4768,147.80162,62.754205)"/>
<use data-text="i" xlink:href="#font_21_27" transform="matrix(11.4768,0,0,-11.4768,153.26457,62.754205)"/>
<use data-text="n" xlink:href="#font_21_31" transform="matrix(11.4768,0,0,-11.4768,156.29445,62.754205)"/>
<use data-text="S" xlink:href="#font_21_14" transform="matrix(11.4768,0,0,-11.4768,126.40001,77.1006)"/>
<use data-text="u" xlink:href="#font_21_44" transform="matrix(11.4768,0,0,-11.4768,132.47124,77.1006)"/>
<use data-text="r" xlink:href="#font_21_39" transform="matrix(11.4768,0,0,-11.4768,138.54247,77.1006)"/>
<use data-text="r" xlink:href="#font_21_39" transform="matrix(11.4768,0,0,-11.4768,142.78888,77.1006)"/>
<use data-text="o" xlink:href="#font_21_32" transform="matrix(11.4768,0,0,-11.4768,147.0353,77.1006)"/>
<use data-text="g" xlink:href="#font_21_26" transform="matrix(11.4768,0,0,-11.4768,152.49825,77.1006)"/>
<use data-text="a" xlink:href="#font_21_19" transform="matrix(11.4768,0,0,-11.4768,157.9612,77.1006)"/>
<use data-text="t" xlink:href="#font_21_41" transform="matrix(11.4768,0,0,-11.4768,163.42415,77.1006)"/>
<use data-text="e" xlink:href="#font_21_23" transform="matrix(11.4768,0,0,-11.4768,167.67057,77.1006)"/>
<use data-text="M" xlink:href="#font_21_9" transform="matrix(11.4768,0,0,-11.4768,134.59201,91.447)"/>
<use data-text="o" xlink:href="#font_21_32" transform="matrix(11.4768,0,0,-11.4768,144.61125,91.447)"/>
<use data-text="d" xlink:href="#font_21_22" transform="matrix(11.4768,0,0,-11.4768,150.3726,91.447)"/>
<use data-text="e" xlink:href="#font_21_23" transform="matrix(11.4768,0,0,-11.4768,156.44384,91.447)"/>
<use data-text="l" xlink:href="#font_21_29" transform="matrix(11.4768,0,0,-11.4768,161.29853,91.447)"/>
<path transform="matrix(1,0,0,-1,277.2287,141.7881)" d="M0 0H-96.775C-98.975 0-100.76-1.784-100.76-3.985V-40.155C-100.76-42.356-98.975-44.14-96.775-44.14H0C2.201-44.14 3.985-42.356 3.985-40.155V-3.985C3.985-1.784 2.201 0 0 0Z" fill="#e4f1f1"/>
<path transform="matrix(1,0,0,-1,277.2287,141.7881)" stroke-width=".996" stroke-linecap="butt" stroke-miterlimit="10" stroke-linejoin="miter" fill="none" stroke="#000000" d="M0 0H-96.775C-98.975 0-100.76-1.784-100.76-3.985V-40.155C-100.76-42.356-98.975-44.14-96.775-44.14H0C2.201-44.14 3.985-42.356 3.985-40.155V-3.985C3.985-1.784 2.201 0 0 0Z"/>
<use data-text="P" xlink:href="#font_21_12" transform="matrix(11.4768,0,0,-11.4768,181.2126,152.3472)"/>
<use data-text="r" xlink:href="#font_21_39" transform="matrix(11.4768,0,0,-11.4768,188.64957,152.3472)"/>
<use data-text="o" xlink:href="#font_21_32" transform="matrix(11.4768,0,0,-11.4768,192.89598,152.3472)"/>
<use data-text="p" xlink:href="#font_21_34" transform="matrix(11.4768,0,0,-11.4768,198.35894,152.3472)"/>
<use data-text="o" xlink:href="#font_21_32" transform="matrix(11.4768,0,0,-11.4768,204.7286,152.3472)"/>
<use data-text="s" xlink:href="#font_21_40" transform="matrix(11.4768,0,0,-11.4768,210.19156,152.3472)"/>
<use data-text="e" xlink:href="#font_21_23" transform="matrix(11.4768,0,0,-11.4768,214.49536,152.3472)"/>
<use data-text="C" xlink:href="#font_21_2" transform="matrix(11.4768,0,0,-11.4768,222.99968,152.3472)"/>
<use data-text="a" xlink:href="#font_21_19" transform="matrix(11.4768,0,0,-11.4768,230.89572,152.3472)"/>
<use data-text="n" xlink:href="#font_21_31" transform="matrix(11.4768,0,0,-11.4768,236.35868,152.3472)"/>
<use data-text="d" xlink:href="#font_21_22" transform="matrix(11.4768,0,0,-11.4768,242.4299,152.3472)"/>
<use data-text="i" xlink:href="#font_21_27" transform="matrix(11.4768,0,0,-11.4768,248.50113,152.3472)"/>
<use data-text="d" xlink:href="#font_21_22" transform="matrix(11.4768,0,0,-11.4768,251.531,152.3472)"/>
<use data-text="a" xlink:href="#font_21_19" transform="matrix(11.4768,0,0,-11.4768,257.5907,152.3472)"/>
<use data-text="t" xlink:href="#font_21_41" transform="matrix(11.4768,0,0,-11.4768,263.0652,152.3472)"/>
<use data-text="e" xlink:href="#font_21_23" transform="matrix(11.4768,0,0,-11.4768,267.30009,152.3472)"/>
<use data-text="s" xlink:href="#font_21_40" transform="matrix(11.4768,0,0,-11.4768,272.15476,152.3472)"/>
<use data-text="b" xlink:href="#font_21_20" transform="matrix(11.4768,0,0,-11.4768,194.54862,166.6936)"/>
<use data-text="y" xlink:href="#font_21_46" transform="matrix(11.4768,0,0,-11.4768,200.32144,166.6936)"/>
<use data-text="O" xlink:href="#font_21_11" transform="matrix(11.4768,0,0,-11.4768,209.721,166.6936)"/>
<use data-text="p" xlink:href="#font_21_34" transform="matrix(11.4768,0,0,-11.4768,218.2253,166.6936)"/>
<use data-text="t" xlink:href="#font_21_41" transform="matrix(11.4768,0,0,-11.4768,224.29653,166.6936)"/>
<use data-text="i" xlink:href="#font_21_27" transform="matrix(11.4768,0,0,-11.4768,228.54294,166.6936)"/>
<use data-text="m" xlink:href="#font_21_30" transform="matrix(11.4768,0,0,-11.4768,231.57282,166.6936)"/>
<use data-text="i" xlink:href="#font_21_27" transform="matrix(11.4768,0,0,-11.4768,240.6854,166.6936)"/>
<use data-text="z" xlink:href="#font_21_47" transform="matrix(11.4768,0,0,-11.4768,243.71527,166.6936)"/>
<use data-text="i" xlink:href="#font_21_27" transform="matrix(11.4768,0,0,-11.4768,248.56996,166.6936)"/>
<use data-text="n" xlink:href="#font_21_31" transform="matrix(11.4768,0,0,-11.4768,251.59984,166.6936)"/>
<use data-text="g" xlink:href="#font_21_26" transform="matrix(11.4768,0,0,-11.4768,257.67106,166.6936)"/>
<use data-text="A" xlink:href="#font_21_1" transform="matrix(11.4768,0,0,-11.4768,179.12302,181.04001)"/>
<use data-text="c" xlink:href="#font_21_21" transform="matrix(11.4768,0,0,-11.4768,187.00754,181.04001)"/>
<use data-text="q" xlink:href="#font_21_37" transform="matrix(11.4768,0,0,-11.4768,191.86223,181.04001)"/>
<use data-text="u" xlink:href="#font_21_44" transform="matrix(11.4768,0,0,-11.4768,197.62358,181.04001)"/>
<use data-text="i" xlink:href="#font_21_27" transform="matrix(11.4768,0,0,-11.4768,203.69481,181.04001)"/>
<use data-text="s" xlink:href="#font_21_40" transform="matrix(11.4768,0,0,-11.4768,206.72469,181.04001)"/>
<use data-text="i" xlink:href="#font_21_27" transform="matrix(11.4768,0,0,-11.4768,211.02849,181.04001)"/>
<use data-text="t" xlink:href="#font_21_41" transform="matrix(11.4768,0,0,-11.4768,214.05837,181.04001)"/>
<use data-text="i" xlink:href="#font_21_27" transform="matrix(11.4768,0,0,-11.4768,218.30478,181.04001)"/>
<use data-text="o" xlink:href="#font_21_32" transform="matrix(11.4768,0,0,-11.4768,221.33466,181.04001)"/>
<use data-text="n" xlink:href="#font_21_31" transform="matrix(11.4768,0,0,-11.4768,226.7976,181.04001)"/>
<use data-text="F" xlink:href="#font_21_5" transform="matrix(11.4768,0,0,-11.4768,236.51854,181.04001)"/>
<use data-text="u" xlink:href="#font_21_44" transform="matrix(11.4768,0,0,-11.4768,242.7275,181.04001)"/>
<use data-text="n" xlink:href="#font_21_31" transform="matrix(11.4768,0,0,-11.4768,248.79872,181.04001)"/>
<use data-text="c" xlink:href="#font_21_21" transform="matrix(11.4768,0,0,-11.4768,254.86995,181.04001)"/>
<use data-text="t" xlink:href="#font_21_41" transform="matrix(11.4768,0,0,-11.4768,259.72465,181.04001)"/>
<use data-text="i" xlink:href="#font_21_27" transform="matrix(11.4768,0,0,-11.4768,263.97108,181.04001)"/>
<use data-text="o" xlink:href="#font_21_32" transform="matrix(11.4768,0,0,-11.4768,267.00096,181.04001)"/>
<use data-text="n" xlink:href="#font_21_31" transform="matrix(11.4768,0,0,-11.4768,272.4639,181.04001)"/>
<path transform="matrix(1,0,0,-1,401.666,141.79291)" d="M0 0H-96.175C-98.376 0-100.16-1.784-100.16-3.985V-40.155C-100.16-42.356-98.376-44.14-96.175-44.14H0C2.201-44.14 3.985-42.356 3.985-40.155V-3.985C3.985-1.784 2.201 0 0 0Z" fill="#e4f1f1"/>
<path transform="matrix(1,0,0,-1,401.666,141.79291)" stroke-width=".996" stroke-linecap="butt" stroke-miterlimit="10" stroke-linejoin="miter" fill="none" stroke="#000000" d="M0 0H-96.175C-98.376 0-100.16-1.784-100.16-3.985V-40.155C-100.16-42.356-98.376-44.14-96.175-44.14H0C2.201-44.14 3.985-42.356 3.985-40.155V-3.985C3.985-1.784 2.201 0 0 0Z"/>
<use data-text="E" xlink:href="#font_21_4" transform="matrix(11.4768,0,0,-11.4768,304.158,152.352)"/>
<use data-text="v" xlink:href="#font_21_45" transform="matrix(11.4768,0,0,-11.4768,311.59498,152.352)"/>
<use data-text="a" xlink:href="#font_21_19" transform="matrix(11.4768,0,0,-11.4768,316.74839,152.352)"/>
<use data-text="l" xlink:href="#font_21_29" transform="matrix(11.4768,0,0,-11.4768,322.21134,152.352)"/>
<use data-text="u" xlink:href="#font_21_44" transform="matrix(11.4768,0,0,-11.4768,325.2412,152.352)"/>
<use data-text="a" xlink:href="#font_21_19" transform="matrix(11.4768,0,0,-11.4768,331.31245,152.352)"/>
<use data-text="t" xlink:href="#font_21_41" transform="matrix(11.4768,0,0,-11.4768,336.7754,152.352)"/>
<use data-text="e" xlink:href="#font_21_23" transform="matrix(11.4768,0,0,-11.4768,341.02183,152.352)"/>
<use data-text="C" xlink:href="#font_21_2" transform="matrix(11.4768,0,0,-11.4768,349.51469,152.352)"/>
<use data-text="a" xlink:href="#font_21_19" transform="matrix(11.4768,0,0,-11.4768,357.4107,152.352)"/>
<use data-text="n" xlink:href="#font_21_31" transform="matrix(11.4768,0,0,-11.4768,362.87367,152.352)"/>
<use data-text="d" xlink:href="#font_21_22" transform="matrix(11.4768,0,0,-11.4768,368.9449,152.352)"/>
<use data-text="i" xlink:href="#font_21_27" transform="matrix(11.4768,0,0,-11.4768,375.0161,152.352)"/>
<use data-text="d" xlink:href="#font_21_22" transform="matrix(11.4768,0,0,-11.4768,378.046,152.352)"/>
<use data-text="a" xlink:href="#font_21_19" transform="matrix(11.4768,0,0,-11.4768,384.11723,152.352)"/>
<use data-text="t" xlink:href="#font_21_41" transform="matrix(11.4768,0,0,-11.4768,389.58018,152.352)"/>
<use data-text="e" xlink:href="#font_21_23" transform="matrix(11.4768,0,0,-11.4768,393.8266,152.352)"/>
<use data-text="s" xlink:href="#font_21_40" transform="matrix(11.4768,0,0,-11.4768,398.68128,152.352)"/>
<use data-text="a" xlink:href="#font_21_19" transform="matrix(11.4768,0,0,-11.4768,344.7732,166.69841)"/>
<use data-text="n" xlink:href="#font_21_31" transform="matrix(11.4768,0,0,-11.4768,350.23616,166.69841)"/>
<use data-text="d" xlink:href="#font_21_22" transform="matrix(11.4768,0,0,-11.4768,356.30738,166.69841)"/>
<use data-text="U" xlink:href="#font_21_16" transform="matrix(11.4768,0,0,-11.4768,318.1164,181.044)"/>
<use data-text="p" xlink:href="#font_21_34" transform="matrix(11.4768,0,0,-11.4768,326.31083,181.044)"/>
<use data-text="d" xlink:href="#font_21_22" transform="matrix(11.4768,0,0,-11.4768,332.68046,181.044)"/>
<use data-text="a" xlink:href="#font_21_19" transform="matrix(11.4768,0,0,-11.4768,338.75169,181.044)"/>
<use data-text="t" xlink:href="#font_21_41" transform="matrix(11.4768,0,0,-11.4768,344.21464,181.044)"/>
<use data-text="e" xlink:href="#font_21_23" transform="matrix(11.4768,0,0,-11.4768,348.46107,181.044)"/>
<use data-text="D" xlink:href="#font_21_3" transform="matrix(11.4768,0,0,-11.4768,356.96537,181.044)"/>
<use data-text="e" xlink:href="#font_21_23" transform="matrix(11.4768,0,0,-11.4768,365.29756,181.044)"/>
<use data-text="s" xlink:href="#font_21_40" transform="matrix(11.4768,0,0,-11.4768,370.15223,181.044)"/>
<use data-text="i" xlink:href="#font_21_27" transform="matrix(11.4768,0,0,-11.4768,374.45603,181.044)"/>
<use data-text="g" xlink:href="#font_21_26" transform="matrix(11.4768,0,0,-11.4768,377.4859,181.044)"/>
<use data-text="n" xlink:href="#font_21_31" transform="matrix(11.4768,0,0,-11.4768,382.94886,181.044)"/>
<path transform="matrix(1,0,0,-1,483.2766,70.3396)" d="M0 0-47.491 47.491C-49.048 49.048-51.571 49.048-53.127 47.491L-100.618 0C-102.175-1.556-102.175-4.079-100.618-5.636L-53.127-53.127C-51.571-54.683-49.048-54.683-47.491-53.127L0-5.636C1.556-4.079 1.556-1.556 0 0Z" fill="#e4f1f1"/>
<path transform="matrix(1,0,0,-1,483.2766,70.3396)" stroke-width=".996" stroke-linecap="butt" stroke-miterlimit="10" stroke-linejoin="miter" fill="none" stroke="#000000" d="M0 0-47.491 47.491C-49.048 49.048-51.571 49.048-53.127 47.491L-100.618 0C-102.175-1.556-102.175-4.079-100.618-5.636L-53.127-53.127C-51.571-54.683-49.048-54.683-47.491-53.127L0-5.636C1.556-4.079 1.556-1.556 0 0Z"/>
<use data-text="T" xlink:href="#font_21_15" transform="matrix(11.4768,0,0,-11.4768,403.679,62.763208)"/>
<use data-text="e" xlink:href="#font_21_23" transform="matrix(11.4768,0,0,-11.4768,410.6686,62.763208)"/>
<use data-text="r" xlink:href="#font_21_39" transform="matrix(11.4768,0,0,-11.4768,415.5233,62.763208)"/>
<use data-text="m" xlink:href="#font_21_30" transform="matrix(11.4768,0,0,-11.4768,419.7697,62.763208)"/>
<use data-text="i" xlink:href="#font_21_27" transform="matrix(11.4768,0,0,-11.4768,428.8823,62.763208)"/>
<use data-text="n" xlink:href="#font_21_31" transform="matrix(11.4768,0,0,-11.4768,431.91218,62.763208)"/>
<use data-text="a" xlink:href="#font_21_19" transform="matrix(11.4768,0,0,-11.4768,437.9834,62.763208)"/>
<use data-text="t" xlink:href="#font_21_41" transform="matrix(11.4768,0,0,-11.4768,443.44636,62.763208)"/>
<use data-text="i" xlink:href="#font_21_27" transform="matrix(11.4768,0,0,-11.4768,447.69279,62.763208)"/>
<use data-text="o" xlink:href="#font_21_32" transform="matrix(11.4768,0,0,-11.4768,450.72267,62.763208)"/>
<use data-text="n" xlink:href="#font_21_31" transform="matrix(11.4768,0,0,-11.4768,456.1856,62.763208)"/>
<use data-text="C" xlink:href="#font_21_2" transform="matrix(11.4768,0,0,-11.4768,411.419,77.109607)"/>
<use data-text="r" xlink:href="#font_21_39" transform="matrix(11.4768,0,0,-11.4768,419.31504,77.109607)"/>
<use data-text="i" xlink:href="#font_21_27" transform="matrix(11.4768,0,0,-11.4768,423.56147,77.109607)"/>
<use data-text="t" xlink:href="#font_21_41" transform="matrix(11.4768,0,0,-11.4768,426.59135,77.109607)"/>
<use data-text="e" xlink:href="#font_21_23" transform="matrix(11.4768,0,0,-11.4768,430.83778,77.109607)"/>
<use data-text="r" xlink:href="#font_21_39" transform="matrix(11.4768,0,0,-11.4768,435.69245,77.109607)"/>
<use data-text="i" xlink:href="#font_21_27" transform="matrix(11.4768,0,0,-11.4768,439.93888,77.109607)"/>
<use data-text="o" xlink:href="#font_21_32" transform="matrix(11.4768,0,0,-11.4768,442.96876,77.109607)"/>
<use data-text="n" xlink:href="#font_21_31" transform="matrix(11.4768,0,0,-11.4768,448.4317,77.109607)"/>
<use data-text="M" xlink:href="#font_21_9" transform="matrix(11.4768,0,0,-11.4768,420.8238,91.456)"/>
<use data-text="e" xlink:href="#font_21_23" transform="matrix(11.4768,0,0,-11.4768,430.84306,91.456)"/>
<use data-text="t" xlink:href="#font_21_41" transform="matrix(11.4768,0,0,-11.4768,435.69773,91.456)"/>
<use data-text="?" xlink:href="#font_21_38" transform="matrix(11.4768,0,0,-11.4768,439.94416,91.456)"/>
<path transform="matrix(1,0,0,-1,581.1941,52.2033)" d="M0 0H-46.958C-49.159 0-50.943-1.784-50.943-3.985V-37.923C-50.943-40.124-49.159-41.908-46.958-41.908H0C2.201-41.908 3.985-40.124 3.985-37.923V-3.985C3.985-1.784 2.201 0 0 0Z" fill="#e4f1f1"/>
<path transform="matrix(1,0,0,-1,581.1941,52.2033)" stroke-width=".996" stroke-linecap="butt" stroke-miterlimit="10" stroke-linejoin="miter" fill="none" stroke="#000000" d="M0 0H-46.958C-49.159 0-50.943-1.784-50.943-3.985V-37.923C-50.943-40.124-49.159-41.908-46.958-41.908H0C2.201-41.908 3.985-40.124 3.985-37.923V-3.985C3.985-1.784 2.201 0 0 0Z"/>
<use data-text="D" xlink:href="#font_21_3" transform="matrix(11.4768,0,0,-11.4768,532.901,62.763208)"/>
<use data-text="e" xlink:href="#font_21_23" transform="matrix(11.4768,0,0,-11.4768,541.2446,62.763208)"/>
<use data-text="t" xlink:href="#font_21_41" transform="matrix(11.4768,0,0,-11.4768,546.0993,62.763208)"/>
<use data-text="e" xlink:href="#font_21_23" transform="matrix(11.4768,0,0,-11.4768,550.3457,62.763208)"/>
<use data-text="r" xlink:href="#font_21_39" transform="matrix(11.4768,0,0,-11.4768,555.2004,62.763208)"/>
<use data-text="m" xlink:href="#font_21_30" transform="matrix(11.4768,0,0,-11.4768,559.4468,62.763208)"/>
<use data-text="i" xlink:href="#font_21_27" transform="matrix(11.4768,0,0,-11.4768,568.5593,62.763208)"/>
<use data-text="n" xlink:href="#font_21_31" transform="matrix(11.4768,0,0,-11.4768,571.5892,62.763208)"/>
<use data-text="e" xlink:href="#font_21_23" transform="matrix(11.4768,0,0,-11.4768,577.6604,62.763208)"/>
<use data-text="F" xlink:href="#font_21_5" transform="matrix(11.4768,0,0,-11.4768,545.3442,77.109607)"/>
<use data-text="i" xlink:href="#font_21_27" transform="matrix(11.4768,0,0,-11.4768,552.47128,77.109607)"/>
<use data-text="n" xlink:href="#font_21_31" transform="matrix(11.4768,0,0,-11.4768,555.5011,77.109607)"/>
<use data-text="a" xlink:href="#font_21_19" transform="matrix(11.4768,0,0,-11.4768,561.5723,77.109607)"/>
<use data-text="l" xlink:href="#font_21_29" transform="matrix(11.4768,0,0,-11.4768,567.0353,77.109607)"/>
<use data-text="R" xlink:href="#font_21_13" transform="matrix(11.4768,0,0,-11.4768,542.4306,91.456)"/>
<use data-text="e" xlink:href="#font_21_23" transform="matrix(11.4768,0,0,-11.4768,550.4758,91.456)"/>
<use data-text="s" xlink:href="#font_21_40" transform="matrix(11.4768,0,0,-11.4768,555.3305,91.456)"/>
<use data-text="u" xlink:href="#font_21_44" transform="matrix(11.4768,0,0,-11.4768,559.6343,91.456)"/>
<use data-text="l" xlink:href="#font_21_29" transform="matrix(11.4768,0,0,-11.4768,565.7055,91.456)"/>
<use data-text="t" xlink:href="#font_21_41" transform="matrix(11.4768,0,0,-11.4768,568.73538,91.456)"/>
</svg>
