<svg xmlns="http://www.w3.org/2000/svg" xmlns:xlink="http://www.w3.org/1999/xlink" version="1.1" width="390.691pt" height="172.071pt" viewBox="0 0 390.691 172.071">
<defs>
<path id="font_105_8" d="M.032989503 .68359377V.6525879C.04598999 .6525879 .05899048 .6535797 .070999149 .6535797 .10699463 .6535797 .13598633 .6485901 .13598633 .6086273V.07495117C.13598633 .036972047 .102996829 .030975342 .068984989 .030975342 .055999757 .030975342 .04399109 .031967164 .032989503 .031967164V.0009765625H.32798768V.031967164H.2939911C.2519989 .031967164 .22499085 .033966066 .22499085 .07594299V.3408203H.5239868V.07594299C.5239868 .035964967 .48999024 .031967164 .45399476 .031967164H.42099V.0009765625H.71598818V.031967164C.70399478 .031967164 .69099429 .030975342 .67900088 .030975342 .6439972 .030975342 .61299136 .035964967 .61299136 .07495117V.6086273C.61299136 .64759829 .644989 .6535797 .67900088 .6535797 .69200137 .6535797 .7049866 .6525879 .71598818 .6525879V.68359377H.42099V.6525879H.45498658C.49699403 .6525879 .5239868 .650589 .5239868 .6086273V.3718109H.22499085V.6086273C.22499085 .6485901 .25898744 .6525879 .29499818 .6525879H.32798768V.68359377H.032989503Z"/>
<path id="font_105_29" d="M.11199951 .23242188H.3999939C.41099549 .23242188 .41600038 .2394104 .41600038 .250412 .41600038 .35630799 .35099793 .4482422 .23899842 .4482422 .115997318 .4482422 .027999878 .33932496 .027999878 .22039795 .027999878 .12832642 .07899475 .04624939 .16699219 .006225586 .18998719-.003768921 .21699524-.009765625 .24198914-.009765625H.24499512C.32199098-.009765625 .38598634 .0332489 .41299439 .110305789 .4139862 .11331177 .4139862 .11730957 .4139862 .12031555 .4139862 .12731934 .4099884 .13232422 .40299989 .13232422 .3880005 .13232422 .38198854 .0993042 .37599183 .08828735 .35099793 .04425049 .30299378 .0152282719 .25099183 .0152282719 .21398926 .0152282719 .18199158 .036239625 .15499878 .06326294 .114990238 .109313968 .11199951 .17436219 .11199951 .23242188M.11299133 .25341798C.11299133 .33033753 .1539917 .426239 .23599243 .426239H.24099732C.33898927 .41723634 .33799745 .3133545 .34799195 .25341798H.11299133Z"/>
<path id="font_105_23" d="M.11199951 .3812256C.13699341 .41223146 .18099976 .426239 .21798706 .426239 .2919922 .426239 .32499696 .3592224 .32499696 .288208V.26220704C.20999146 .26220704 .040985109 .22619629 .040985109 .095214847V.08721924C.04899597 .010223389 .1459961-.009765625 .20298767-.009765625 .2539978-.009765625 .31900025 .024230957 .33198548 .07522583H.33299256C.33898927 .032226564 .3659973-.004776001 .41099549-.004776001 .45199586-.004776001 .48799134 .02822876 .49299623 .07322693V.14620972H.46798707V.095214847C.46798707 .068222049 .46299745 .02722168 .43199159 .02722168 .3999939 .02722168 .394989 .066223148 .394989 .09321594V.26020814C.394989 .27320863 .3959961 .28520204 .3959961 .29821778 .3959961 .39523316 .30499269 .4482422 .22200012 .4482422 .15899658 .4482422 .069992069 .41723634 .069992069 .33721925 .069992069 .30822755 .09098816 .28923036 .116989139 .28923036 .14498902 .28923036 .1619873 .31123353 .1619873 .3352356 .1619873 .3642273 .13899231 .38124085 .11199951 .38124085V.3812256M.32499696 .24121094V.14021302C.32499696 .07122803 .2769928 .016220093 .21199036 .01222229H.20799256C.16099549 .01222229 .11898804 .049224855 .11898804 .097213748V.10221863C.12599182 .2032013 .23899842 .23820496 .32499696 .24121094Z"/>
<path id="font_105_28" d="M.3039856 .6843109V.6533203H.31999208C.35499574 .6533203 .38198854 .6493225 .38198854 .5913391L.3809967 .38136292C.35699464 .42137147 .2999878 .4423828 .2539978 .4423828 .1309967 .4423828 .032989503 .3363495 .032989503 .21530152 .032989503 .10826111 .114990238-.009765625 .24699402-.009765625 .29899598-.009765625 .34599305 .0152282719 .3789978 .055236818V-.009765625L.5269928 .0012207031V.032226564H.5099945C.47898866 .032226564 .44898988 .035232545 .44898988 .08224487V.6953125L.3039856 .6843109M.116989139 .19128418V.20629883C.116989139 .2803192 .12599182 .35534669 .19499207 .4013672 .21499634 .41337586 .23799134 .42037965 .26098634 .42037965 .30999757 .42037965 .37998963 .38035584 .37998963 .31733705 .37998963 .30433656 .3789978 .2913208 .3789978 .2783203V.11225891C.3789978 .09925842 .37399293 .09025574 .36698915 .08024597 .34098817 .041244508 .2979889 .01222229 .25099183 .01222229 .17799378 .01222229 .13198853 .07925415 .12098694 .14826966 .11898804 .16227722 .11898804 .17729187 .116989139 .19128418Z"/>
<path id="font_105_13" d="M.032989503 .68359377V.6525879C.04699707 .6525879 .06298828 .6535797 .07899475 .6535797 .10899353 .6535797 .13598633 .650589 .13598633 .63560488V.106918338C.13598633 .036972047 .07798767 .031967164 .032989503 .031967164V.0009765625H.2669983V.031967164C.22399903 .031967164 .16299439 .037963869 .16299439 .10491943 .16299439 .11392212 .1639862 .123916629 .1639862 .13191223V.62561038C.17999268 .60762026 .19299317 .5856323 .20599365 .5656433 .32899476 .38674928 .44898988 .20585633 .57199099 .02696228 .57899478 .016967774 .58599856 .0009765625 .59999087 .0009765625 .6100006 .0009765625 .61299136 .007965088 .61299136 .016967774V.58062747C.61299136 .64759829 .6729889 .6525879 .71598818 .6525879V.68359377H.48199464V.6525879C.5249939 .6525879 .58499148 .64759829 .58499148 .5816345V.15289307L.22299195 .6815796 .20498657 .68359377H.032989503Z"/>
<path id="font_105_42" d="M.23498535 .4482422C.10899353 .43522645 .027999878 .3292389 .027999878 .21322632 .027999878 .100234989 .116989139-.009765625 .25-.009765625 .36999513-.009765625 .47099305 .08822632 .47099305 .2142334 .47099305 .33320619 .3809967 .44921876 .24798584 .44921876 .24398804 .449234 .23899842 .4482422 .23498535 .4482422M.11199951 .19023133V.23423767C.11199951 .31021119 .13598633 .4262085 .24899292 .4262085 .32998658 .4262085 .37599183 .35821534 .3849945 .2822113 .3869934 .2602234 .3869934 .23921204 .3869934 .21722412 .3869934 .15222168 .37998963 .07122803 .31599427 .034225465 .29599 .021224976 .27398683 .0152282719 .25099183 .0152282719 .17799378 .0152282719 .1269989 .07221985 .115997318 .15022278 .11399841 .16322327 .11399841 .17721558 .11199951 .19021607V.19023133Z"/>
<path id="font_105_35" d="M.010986328 .24511719V.18611145H.2769928V.24511719H.010986328Z"/>
<path id="font_105_18" d="M.115997318 .048538209C.1789856-.00048828127 .22799683-.021484375 .30499269-.021484375 .42399598-.021484375 .49899293 .08557129 .49899293 .18765259 .49899293 .27072145 .45199586 .34777833 .37199403 .3808136 .31098939 .40582276 .23498535 .40382386 .18199158 .43585206 .14199829 .46087647 .11898804 .50390627 .11898804 .5479431 .11898804 .6269989 .18598938 .67803958 .25698854 .67803958 .35598756 .67803958 .4249878 .59898379 .44099427 .49890138 .44400025 .48388673 .44099427 .4568634 .45899964 .4568634 .46998597 .4568634 .47099305 .46588136 .47099305 .47488404V.6920471C.47099305 .6990509 .46899415 .7060547 .46099855 .7060547 .44599916 .7060547 .43499757 .67803958 .4269867 .66503909 .42099 .6560364 .4139862 .6460266 .4099884 .63601687 .36898805 .6770477 .32199098 .7060547 .25498963 .7060547 .15699768 .7060547 .054992677 .63801577 .054992677 .51091006 .054992677 .40682984 .1309967 .33877564 .22898865 .31774903 .25 .3127594 .269989 .30674745 .29100038 .30174256 .34700013 .2887268 .40299989 .27471925 .4269867 .20266724 .43199159 .18765259 .43499757 .17164612 .43499757 .15663147 .43499757 .08157349 .38398744 .009506226 .2999878 .009506226 .19999695 .009506226 .102996829 .06254578 .08299255 .17764282 .08198547 .18664551 .08099365 .19665528 .07998657 .20567322V.212677C.07998657 .22268677 .07499695 .22767639 .066986087 .22767639 .056991579 .22767639 .054992677 .21968079 .054992677 .212677V-.0074920656C.054992677-.01449585 .056991579-.021484375 .06498718-.021484375 .07998657-.021484375 .09098816 .006515503 .09899902 .019515992 .10499573 .028518677 .11199951 .038528444 .115997318 .048538209Z"/>
<path id="font_105_25" d="M.35899354 .38723756C.33299256 .38523866 .31199647 .36923219 .31199647 .3412323 .31199647 .3142395 .33099366 .29522706 .35798646 .29522706 .3880005 .29522706 .4039917 .31723023 .4039917 .3452301V.3512268C.3939972 .4242401 .30899049 .4482422 .25099183 .4482422 .1289978 .4482422 .032989503 .3412323 .032989503 .21723938 .032989503 .10423279 .12098694-.009765625 .25-.009765625 .31599427-.009765625 .3809967 .026229859 .4079895 .096221927 .4099884 .10223389 .4149933 .11123657 .4149933 .1182251 .4149933 .12522888 .4099884 .13023377 .40299989 .13023377 .3880005 .13023377 .3789978 .09222412 .37199403 .07922363 .34799195 .040222169 .30699159 .016220093 .2619934 .0152282719 .15499878 .0152282719 .12199402 .1222229 .116989139 .20123291V.21322632C.116989139 .29322816 .13598633 .41323854 .24598694 .42323304H.2539978C.29100038 .42323304 .32998658 .41223146 .35899354 .38723756Z"/>
<path id="font_105_34" d="M.03199768 .6843109V.6533203H.04699707C.083999637 .6533203 .10998535 .6493225 .10998535 .6013336V.09603882C.10998535 .089035037 .11099243 .08201599 .11099243 .074020389 .11099243 .035980226 .083999637 .031967164 .055999757 .031967164H.03199768V.0009765625H.2579956V.031967164H.23199463C.20399475 .031967164 .17999268 .035980226 .17999268 .073013309V.25621034C.17999268 .3282776 .21699524 .42037965 .31599427 .42037965 .37998963 .42037965 .38598634 .3513031 .38598634 .30825807V.069000247C.38598634 .034973146 .35699464 .031967164 .32598878 .031967164H.30799867V.0009765625H.5339966V.031967164H.5089874C.48199464 .031967164 .45599366 .035980226 .45599366 .070007327V.28923036C.45599366 .32226563 .45498658 .3553009 .43998719 .38534547 .41600038 .42938233 .3659973 .4423828 .31999208 .4423828 .2619934 .4423828 .19699097 .40335084 .17799378 .3473053L.1769867 .6953125 .03199768 .6843109Z"/>
<path id="font_105_54" d="M.03199768 .430542V.39953614H.04598999C.07398987 .39953614 .102996829 .3975525 .10899353 .3675995 .10998535 .35661317 .10998535 .3466339 .10998535 .33566285V.13702393C.10998535 .1040802 .11099243 .073135379 .1289978 .044189454 .1559906 .0012512207 .21299744-.0107421879 .2599945-.0107421879 .30499269-.0107421879 .34599305 .009246826 .37098695 .046188356 .37799073 .056167604 .3849945 .06614685 .3880005 .078125L.3889923-.009750366 .5339966 .0012512207V.032211305H.5189972C.48599244 .032211305 .45599366 .035217287 .45599366 .0801239V.4423828L.30799867 .43136598V.39953614H.32299806C.35598756 .39953614 .38598634 .3965454 .38598634 .3496399V.16896057C.38598634 .09509277 .34799195 .013244629 .2649994 .013244629 .20899964 .013244629 .17999268 .02722168 .17999268 .13302613V.4423828L.03199768 .430542Z"/>
<path id="font_105_39" d="M.032989503 .68429568V.6532898H.04798889C.084991458 .6532898 .11099243 .64927676 .11099243 .6012573V.0960083C.11099243 .08900452 .11199951 .08200073 .11199951 .07398987 .11199951 .035964967 .084991458 .031967164 .056991579 .031967164H.032989503V.0009765625H.2559967V.031967164H.23098755C.20199585 .031967164 .17799378 .035964967 .17799378 .07499695V.6953125L.032989503 .68429568Z"/>
<path id="font_105_49" d="M.026992798 .43138124V.4003601H.041992189C.07499695 .4003601 .10499573 .39735414 .10499573 .35029603V.074020389C.10499573 .032974245 .07699585 .031967164 .032989503 .031967164H.026992798V.0009765625H.2689972V.031967164C.25698854 .031967164 .24299622 .030975342 .23098755 .030975342 .19898987 .030975342 .17199707 .035980226 .17199707 .073013309V.20614624C.17199707 .2912445 .19198609 .42037965 .2899933 .42037965 .2939911 .42037965 .29699708 .42037965 .30099488 .41937257V.41836549C.28599549 .41236878 .27799989 .39634706 .27799989 .38032533 .27799989 .35731507 .29299928 .34129334 .31599427 .33728028 .34498597 .33728028 .3639984 .3553009 .3639984 .38032533 .3639984 .42037965 .32598878 .4423828 .2899933 .4423828 .23098755 .4423828 .17799378 .38934327 .16799927 .33528138L.16699219 .4423828 .026992798 .43138124Z"/>
<path id="font_105_16" d="M.48399354-.0055389406C.49598695-.08531189 .5069885-.18536377 .598999-.19335938 .69898989-.19335938 .7279968-.08834839 .7279968-.012542725V-.0045318605C.7279968 .0034637452 .72499087 .011459351 .71699526 .011459351 .7029877 .011459351 .70399478-.018539429 .70098879-.028640748 .6859894-.069122318 .6499939-.09036255 .6069946-.09036255 .55599978-.08631897 .5339966-.029663086 .5179901 .008468628 .6429901 .050460817 .7220001 .2084198 .7220001 .34031678 .7220001 .5131836 .6009979 .7060547 .38598634 .7060547 .18998719 .7060547 .055999757 .5231781 .055999757 .3413086 .055999757 .2104187 .12399292 .06745911 .2559967 .009460449 .2899933-.0065460207 .32699586-.017532349 .36499024-.01953125H.3849945C.4189911-.01953125 .45098878-.015533447 .48399354-.0055389406M.5029907 .04345703C.48999024 .0904541 .45298768 .14346314 .3999939 .14945984H.3919983C.33999635 .14945984 .30799867 .10746765 .30799867 .065460208 .30799867 .048461915 .31298829 .032455446 .32199098 .017456055 .18199158 .064468387 .15499878 .24938965 .15499878 .3413086 .15499878 .47021485 .19499207 .6380768 .34700013 .6760559 .36299134 .6800537 .3789978 .68104556 .394989 .68104556 .4869995 .6780548 .5589905 .60310366 .59098818 .5231781 .61499026 .46421815 .621994 .39926148 .621994 .33631898 .621994 .22839356 .59399417 .113464359 .5029907 .04345703M.32998658 .0594635V.065460208C.32998658 .09829712 .35798646 .12741089 .3909912 .12741089 .44400025 .12741089 .47099305 .07421875 .47599793 .032073976V.031066895C.47599793 .014007568 .4039917 .002960205 .3909912 .002960205 .35798646 .002960205 .33499146 .026046753 .32998658 .059158327V.0594635Z"/>
<path id="font_105_20" d="M.032989503 .68359377V.6525879H.067993167C.11099243 .6525879 .13598633 .6485901 .13598633 .60757449V.24153137C.13598633 .103515628 .22898865-.021484375 .394989-.021484375 .5079956-.021484375 .59399417 .08052063 .6100006 .18652344 .61299136 .20652771 .61299136 .22753906 .61299136 .24754334V.57858279C.61299136 .647583 .6729889 .6525879 .71598818 .6525879V.68359377H.47898866V.6525879C.522995 .6525879 .58200076 .647583 .58200076 .57658389V.23753357C.58200076 .13752747 .5269928 .009506226 .3869934 .009506226 .31498719 .009506226 .25698854 .06350708 .23699951 .13052368 .22599793 .16752625 .22499085 .20553589 .22499085 .24353028V.58457949C.22499085 .59158328 .22399903 .60058596 .22399903 .60858157 .22399903 .6485901 .25898744 .6525879 .29499818 .6525879H.32798768V.68359377H.032989503Z"/>
<path id="font_105_50" d="M.17599488 .4482422C.13899231 .44422914 .099990848 .4372406 .070999149 .41223146 .04699707 .39123536 .032989503 .35723878 .032989503 .32522584 .032989503 .15423584 .31098939 .25123597 .31098939 .10122681 .31098939 .040222169 .2559967 .01222229 .20098877 .01222229 .125 .01222229 .07398987 .066223148 .05999756 .15222168 .057998659 .16122437 .056991579 .17022705 .04499817 .17022705 .036987306 .17022705 .032989503 .16423035 .032989503 .15722656V-.00077819827C.033996583-.0057678224 .036987306-.008773804 .041992189-.009765625H.04399109C.05999756-.009765625 .07598877 .02722168 .08799744 .030227662H.08898926C.09700012 .030227662 .12399292 .0052337648 .14498902-.0017700195 .1619873-.0077667238 .17999268-.009765625 .19799805-.009765625 .2809906-.009765625 .3600006 .034225465 .3600006 .12623596 .3600006 .19223023 .31199647 .24623108 .24598694 .26322938 .18399048 .28022767 .08198547 .28022767 .08198547 .3532257 .08198547 .4142151 .14898682 .42921449 .19299317 .42921449 .24198914 .42921449 .30999757 .40220643 .30999757 .3162079 .30999757 .30722047 .31098939 .2992096 .32199098 .2992096 .33198548 .2992096 .33599855 .30722047 .33599855 .31721498 .33599855 .32221986 .33499146 .32720948 .33499146 .33120729V.4342041C.33499146 .44023133 .33198548 .4482422 .32398988 .4482422 .30799867 .4482422 .2979889 .42323304 .2869873 .42323304H.28599549C.27799989 .42323304 .2619934 .43623353 .25 .44023133 .23199463 .44621278 .21199036 .44921876 .19299317 .44921876 .18699646 .449234 .18199158 .4482422 .17599488 .4482422Z"/>
<path id="font_105_3" d="M.58898928 .6199951C.57699587 .6300049 .56599429 .64302065 .55400088 .6530304 .5119934 .68704226 .45899964 .7060547 .40499879 .7060547 .21299744 .7060547 .054992677 .54093936 .054992677 .34178163 .054992677 .14962769 .20698548-.021484375 .40499879-.021484375 .5399933-.021484375 .6519928 .08157349 .6649933 .21968079 .66600039 .22468567 .66600039 .22868347 .66600039 .23368836 .66600039 .2447052 .6629944 .25170899 .6539917 .25170899 .6349945 .25170899 .6399994 .212677 .6359863 .19265747 .61499026 .09156799 .5249939 .009506226 .41600038 .009506226 .34498597 .009506226 .2789917 .042541505 .23199463 .095581058 .1749878 .16062927 .1579895 .24969483 .1579895 .33477784 .1579895 .40283204 .16499329 .47387696 .19599915 .53492739 .23699951 .61499026 .32299806 .6750488 .4139862 .6750488 .5379944 .6750488 .61898806 .5569458 .6319885 .4488678 .6349945 .43785096 .6289978 .41984559 .6499939 .41984559 .6639862 .41984559 .66600039 .4258423 .66600039 .43585206V.6900482C.66600039 .697052 .6649933 .7060547 .6539917 .7060547 .6389923 .7060547 .59199526 .6269989 .58898928 .6199951Z"/>
<path id="font_105_40" d="M.03199768 .43138124V.4003601H.04699707C.07998657 .4003601 .10998535 .39735414 .10998535 .35029603V.074020389C.10998535 .032974245 .08198547 .031967164 .037994386 .031967164H.03199768V.0009765625H.2579956V.031967164H.23199463C.20399475 .031967164 .17999268 .035980226 .17999268 .073013309V.25621034C.17999268 .32928468 .21998596 .42037965 .31599427 .42037965 .37998963 .42037965 .3869934 .35430909 .3869934 .30825807V.070007327C.3869934 .033966066 .35699464 .031967164 .32398988 .031967164H.30899049V.0009765625H.5349884V.031967164H.5089874C.48098756 .031967164 .45700074 .035980226 .45700074 .073013309V.25621034C.45700074 .32928468 .49699403 .42037965 .59298709 .42037965 .6569977 .42037965 .6639862 .35430909 .6639862 .30825807V.070007327C.6639862 .033966066 .6339874 .031967164 .6009979 .031967164H.58599856V.0009765625H.81199648V.031967164H.79100039C.7609863 .031967164 .73399356 .034973146 .73399356 .070007327V.2962494C.73399356 .33328248 .7319946 .36631776 .70799258 .4003601 .6819916 .43338014 .6389923 .4423828 .598999 .4423828 .5339966 .4423828 .48098756 .4043579 .45399476 .34629823 .43499757 .41737367 .3899994 .4423828 .32099916 .4423828 .25698854 .4423828 .19599915 .402359 .1749878 .34028626L.17399597 .4423828 .03199768 .43138124Z"/>
<path id="font_105_44" d="M.026992798 .43138124V.4003601H.04598999C.07598877 .4003601 .10499573 .39736939 .10499573 .35734559V-.12220764C.10499573-.15835572 .07899475-.16236878 .049987794-.16236878H.026992798V-.19335938H.25299073V-.16236878H.22898865C.19898987-.16236878 .1749878-.15835572 .1749878-.12220764L.17599488 .051239015C.19898987 .010223389 .25498963-.009765625 .2979889-.009765625 .42199708-.009765625 .5209961 .09625244 .5209961 .21730042 .5209961 .3373413 .42799378 .4423828 .31098939 .4423828 .2559967 .4423828 .20799256 .41838075 .17199707 .3773651V.4423828L.026992798 .43138124M.43598939 .19929505C.43099977 .12626648 .3919983 .021224976 .30099488 .01222229H.29499818C.2519989 .01222229 .21299744 .036239625 .18899536 .072250369 .18099976 .08325195 .1749878 .09326172 .1749878 .10725403V.27531434C.1749878 .28833009 .17399597 .30133058 .17399597 .31433106 .17399597 .36735536 .24198914 .41737367 .30099488 .41737367 .4019928 .41737367 .43699647 .28633119 .43699647 .21530152 .43699647 .21029663 .43699647 .20429993 .43598939 .19929505Z"/>
<path id="font_105_51" d="M.14898682 .6152344C.14898682 .54644778 .11999512 .421875 .017990113 .421875V.39987184H.10398865V.1421051C.10398865 .10914612 .10598755 .076171878 .12199402 .047195436 .14399719 .007232666 .19099427-.009765625 .23498535-.009765625 .31698609-.009765625 .33299256 .08216858 .33299256 .14511109V.18206787H.30799867C.30799867 .16708374 .30899049 .15209961 .30899049 .1361084 .30899049 .09214783 .29899598 .0152282719 .23999024 .0152282719 .18299866 .0152282719 .17399597 .08416748 .17399597 .12911988V.39987184H.31599427V.43066407H.17399597V.6152344H.14898682Z"/>
<path id="font_105_36" d="M.036987306 .430542V.3995819H.055999757C.084991458 .3995819 .11099243 .3955841 .11099243 .34962464V.07292175C.11099243 .037963869 .09298706 .031967164 .032989503 .031967164V.0009765625H.24798584V.031967164H.22799683C.20199585 .031967164 .17799378 .034973146 .17799378 .06692505V.44154359L.036987306 .430542M.12098694 .6689453C.09599304 .66589358 .07598877 .64382937 .07598877 .61672976 .07598877 .5876312 .100997928 .5635376 .1289978 .5635376 .1559906 .5635376 .18199158 .58561709 .18199158 .61672976 .18199158 .64582827 .15699768 .6699219 .1289978 .6699219 .12599182 .66993716 .12399292 .6689453 .12098694 .6689453Z"/>
<path id="font_105_41" d="M.03199768 .43138124V.4003601H.04699707C.07998657 .4003601 .10998535 .39735414 .10998535 .35029603V.074020389C.10998535 .032974245 .08198547 .031967164 .037994386 .031967164H.03199768V.0009765625H.2579956V.031967164H.23199463C.20399475 .031967164 .17999268 .035980226 .17999268 .073013309V.25621034C.17999268 .3282776 .21699524 .42037965 .31599427 .42037965 .37998963 .42037965 .38598634 .3513031 .38598634 .30825807V.069000247C.38598634 .034973146 .35699464 .031967164 .32598878 .031967164H.30799867V.0009765625H.5339966V.031967164H.5089874C.48199464 .031967164 .45599366 .035980226 .45599366 .070007327V.28923036C.45599366 .32226563 .45498658 .35630799 .43899537 .38633729 .41600038 .43037416 .36499024 .4423828 .31900025 .4423828 .2579956 .4423828 .19499207 .4003601 .1749878 .34028626L.17399597 .4423828 .03199768 .43138124Z"/>
<path id="font_105_33" d="M.11898804 .02281189V.02180481C.07199097 .012802124 .027999878-.032165529 .027999878-.07914734 .027999878-.1730957 .17199707-.20507813 .24899292-.20507813 .33299256-.20507813 .47099305-.1750946 .47099305-.072143558 .47099305-.0071868898 .4249878 .03781128 .36499024 .05480957 .32899476 .06581116 .2919922 .06680298 .2539978 .06680298H.16299439C.1309967 .06982422 .10598755 .10205078 .10598755 .13427735V.13931275C.10699463 .15238953 .11399841 .17837525 .12399292 .17837525 .13699341 .17538452 .15098572 .16438294 .1659851 .15937805 .18399048 .15338135 .20399475 .15039063 .22299195 .15039063 .30499269 .15039063 .3849945 .21134949 .3849945 .29626466 .3849945 .3302307 .37098695 .37019349 .34399415 .3921814V.39317323C.37098695 .41316224 .39698792 .43113709 .43299867 .43113709 .43598939 .43113709 .43899537 .43113709 .44198609 .43014527 .43299867 .42414857 .4269867 .41714479 .4269867 .40415956 .4269867 .3881836 .43998719 .37419129 .45599366 .37419129 .47299195 .37419129 .4850006 .3881836 .4850006 .40415956 .4850006 .43113709 .46299745 .453125 .43499757 .453125 .3999939 .453125 .3659973 .4391327 .33999635 .41714479 .33699037 .41415406 .33299256 .41015626 .32899476 .40916444H.32798768C.32199098 .40916444 .31399537 .41714479 .30899049 .42015077 .2829895 .43437196 .25299073 .4423828 .22299195 .4423828 .14399719 .4423828 .05899048 .38737489 .05899048 .29638673 .05899048 .26338197 .07199097 .23338318 .09199524 .2073822 .09599304 .2033844 .102996829 .19837952 .102996829 .1933899 .102996829 .18838501 .09700012 .18338013 .09498596 .17938233 .08198547 .15937805 .07499695 .13427735 .07499695 .11010742 .07499695 .07888794 .08898926 .03781128 .11898804 .02281189M.08099365-.08413696V-.07614136C.08099365-.0231781 .1269989 .0078125 .18099976 .0078125H.25898744C.32199098 .0078125 .41799928-.0011901856 .41799928-.07814026 .41799928-.15110779 .31098939-.18208313 .24899292-.18208313 .18299866-.18208313 .09098816-.15209961 .08099365-.08413696M.1349945 .27638246V.28938294C.1349945 .3443756 .147995 .41838075 .22200012 .41838075 .28399659 .41838075 .30899049 .36038209 .30899049 .29638673 .30899049 .25538636 .30099488 .17437744 .22299195 .17437744 .19699097 .17437744 .17199707 .18638611 .15499878 .20838928 .13999939 .2283783 .13798523 .25238038 .1349945 .27638246Z"/>
<path id="font_105_6" d="M.032989503 .68066409V.6496582C.04598999 .6496582 .05899048 .65065 .070999149 .65065 .10699463 .65065 .13598633 .6456604 .13598633 .60572817V.07499695C.13598633 .036972047 .102996829 .030975342 .068984989 .030975342 .055999757 .030975342 .04399109 .031967164 .032989503 .031967164V.0009765625H.35299684V.031967164C.33898927 .031967164 .32199098 .030975342 .30499269 .030975342 .25498963 .030975342 .22499085 .034973146 .22499085 .08100891V.32617188H.30899049C.34298707 .32617188 .38398744 .3241577 .40299989 .2951355 .4169922 .27313233 .41799928 .24511719 .41799928 .2190857V.20909119H.44299317V.4739685H.41799928V.463974C.41799928 .4120636 .4079895 .36714173 .34700013 .35916139 .32899476 .35716249 .30999757 .35716249 .2919922 .35716249H.22499085V.61372378C.22499085 .6476593 .24499512 .6496582 .2659912 .6496582H.3829956C.43499757 .6496582 .49798585 .6476593 .5359955 .60873416 .57398989 .5688019 .5779877 .50790408 .58499148 .45599366H.6100006L.58200076 .68066409H.032989503Z"/>
<path id="font_105_57" d="M.018997193 .43066407V.3996582H.034988405C.06298828 .3996582 .084991458 .39665223 .101989749 .3586731 .147995 .24871826 .19198609 .13775635 .23899842 .027801514 .24198914 .019805909 .24899292 .00881958 .24899292-.00018310547 .24899292-.0011749268 .24798584-.0031738282 .24798584-.004180908 .24099732-.025177002 .23098755-.045166017 .22200012-.06515503 .20199585-.11413574 .17298889-.18211365 .11099243-.18211365 .09599304-.18211365 .07598877-.17611695 .06399536-.16412354 .08299255-.16111756 .102996829-.15011597 .102996829-.12213135 .102996829-.10014343 .08799744-.08215332 .06599426-.08015442 .034988405-.08015442 .018997193-.09814453 .018997193-.12313843 .018997193-.17311096 .06599426-.20410156 .11099243-.20410156H.11199951C.18399048-.20410156 .22200012-.13012696 .24699402-.07115173L.2769928 .0008239746C.31199647 .08677673 .34799195 .17274475 .38398744 .25871278L.4079895 .3156891C.4249878 .3626709 .45098878 .3996582 .5079956 .3996582V.43066407H.34700013V.3996582C.36999513 .3996582 .3929901 .383667 .3929901 .3586731 .3929901 .3456726 .3869934 .33268739 .38198854 .32069398 .35299684 .25271607 .32699586 .18374634 .29699708 .11576843 .2939911 .106781009 .2889862 .09777832 .2869873 .088775638H.28599549C.2789917 .11177063 .2679901 .13276673 .25898744 .15475464 .23298645 .21972656 .20199585 .28570558 .17799378 .35168458 .1749878 .3586731 .17098999 .36567689 .17098999 .3736725V.3776703C.1769867 .3996582 .20599365 .3996582 .22599793 .3996582V.43066407H.018997193Z"/>
<path id="font_105_4" d="M.033996583 .68359377V.6525879C.04699707 .6525879 .05999756 .6535797 .07199097 .6535797 .10798645 .6535797 .13699341 .6485901 .13699341 .60861209V.07493591C.13699341 .036972047 .10398865 .030975342 .069992069 .030975342 .056991579 .030975342 .04499817 .031967164 .033996583 .031967164V.0009765625H.3809967C.5099945 .0009765625 .6289978 .062942508 .6859894 .2088623 .70098879 .24983216 .70799258 .29281617 .70799258 .33677674 .70799258 .49269105 .6100006 .6605835 .43099977 .68258669 .4149933 .68359377 .397995 .68359377 .38198854 .68359377H.033996583M.6069946 .3117981V.29180909C.59799197 .18487549 .56399539 .07394409 .43899537 .04096985 .40899659 .031967164 .37998963 .031967164 .34899903 .031967164H.2630005C.23999024 .031967164 .22200012 .036972047 .22200012 .06794739 .22200012 .07493591 .22299195 .0819397 .22299195 .0879364V.58062747C.22299195 .5896301 .22200012 .59962466 .22200012 .60861209 .22200012 .64759829 .23699951 .6535797 .2649994 .6535797 .272995 .6535797 .2809906 .6525879 .2869873 .6525879H.35299684C.4229889 .6525879 .49198915 .63760378 .5419922 .57662966 .59599307 .511673 .60798647 .42773438 .60798647 .34477235V.33477784C.60798647 .32678224 .60798647 .3197937 .6069946 .3117981Z"/>
<path id="font_105_24" d="M.026992798 .6843109V.6533203H.04399109C.07499695 .6533203 .10499573 .65031436 .10499573 .6033325V.0012207031L.1289978 .0032196046 .14199829 .020233155 .1659851 .0622406H.16799927C.19198609 .014221191 .25099183-.009765625 .30099488-.009765625 .4249878-.009765625 .5209961 .09825134 .5209961 .21730042 .5209961 .33233644 .43299867 .4423828 .30499269 .4423828 .25299073 .4423828 .20698548 .41737367 .17199707 .37835694V.6953125L.026992798 .6843109M.43598939 .19229126C.43199159 .14427185 .4269867 .102264408 .39698792 .06524658 .37199403 .033233644 .33399964 .01222229 .2939911 .01222229 .25099183 .01222229 .21199036 .037231447 .18899536 .07324219 .18099976 .08425903 .1749878 .09326172 .1749878 .10826111V.27531434C.1749878 .28833009 .17399597 .30133058 .17399597 .31433106 .17399597 .37435914 .24699402 .42037965 .30299378 .42037965 .41099549 .42037965 .43699647 .29432679 .43699647 .21530152 .43699647 .20729065 .43699647 .20028687 .43598939 .19229126Z"/>
</defs>
<path transform="matrix(1,0,0,-1,106.231,167.08989)" d="M0 0V162.111C0 164.312 1.784 166.096 3.985 166.096H279.483C281.684 166.096 283.468 164.312 283.468 162.111V0C283.468-2.201 281.684-3.985 279.483-3.985H3.985C1.784-3.985 0-2.201 0 0Z" fill="#ebeef4"/>
<path transform="matrix(1,0,0,-1,106.231,167.08989)" stroke-width="1.993" stroke-linecap="butt" stroke-miterlimit="10" stroke-linejoin="miter" fill="none" stroke="#3b528b" d="M0 0V162.111C0 164.312 1.784 166.096 3.985 166.096H279.483C281.684 166.096 283.468 164.312 283.468 162.111V0C283.468-2.201 281.684-3.985 279.483-3.985H3.985C1.784-3.985 0-2.201 0 0Z"/>
<path transform="matrix(1,0,0,-1,175.94751,73.278598)" d="M0 0H-54.393C-56.594 0-58.378-1.784-58.378-3.985V-21.527C-58.378-23.728-56.594-25.512-54.393-25.512H0C2.201-25.512 3.985-23.728 3.985-21.527V-3.985C3.985-1.784 2.201 0 0 0Z" fill="#c9e4e3"/>
<path transform="matrix(1,0,0,-1,175.94751,73.278598)" stroke-width=".996" stroke-linecap="butt" stroke-miterlimit="10" stroke-linejoin="miter" fill="none" stroke="#000000" d="M0 0H-54.393C-56.594 0-58.378-1.784-58.378-3.985V-21.527C-58.378-23.728-56.594-25.512-54.393-25.512H0C2.201-25.512 3.985-23.728 3.985-21.527V-3.985C3.985-1.784 2.201 0 0 0Z"/>
<use data-text="H" xlink:href="#font_105_8" transform="matrix(9.963,0,0,-9.963,121.221,83.489)"/>
<use data-text="e" xlink:href="#font_105_29" transform="matrix(9.963,0,0,-9.963,128.69326,83.489)"/>
<use data-text="a" xlink:href="#font_105_23" transform="matrix(9.963,0,0,-9.963,133.11682,83.489)"/>
<use data-text="d" xlink:href="#font_105_28" transform="matrix(9.963,0,0,-9.963,138.09833,83.489)"/>
<use data-text="N" xlink:href="#font_105_13" transform="matrix(9.963,0,0,-9.963,146.944,83.489)"/>
<use data-text="o" xlink:href="#font_105_42" transform="matrix(9.963,0,0,-9.963,154.41625,83.489)"/>
<use data-text="d" xlink:href="#font_105_28" transform="matrix(9.963,0,0,-9.963,159.67667,83.489)"/>
<use data-text="e" xlink:href="#font_105_29" transform="matrix(9.963,0,0,-9.963,165.20613,83.489)"/>
<use data-text="-" xlink:href="#font_105_35" transform="matrix(9.963,0,0,-9.963,172.94744,83.489)"/>
<use data-text="S" xlink:href="#font_105_18" transform="matrix(9.963,0,0,-9.963,127.848,95.444)"/>
<use data-text="c" xlink:href="#font_105_25" transform="matrix(9.963,0,0,-9.963,133.37747,95.444)"/>
<use data-text="h" xlink:href="#font_105_34" transform="matrix(9.963,0,0,-9.963,137.52213,95.444)"/>
<use data-text="e" xlink:href="#font_105_29" transform="matrix(9.963,0,0,-9.963,143.05159,95.444)"/>
<use data-text="d" xlink:href="#font_105_28" transform="matrix(9.963,0,0,-9.963,147.47516,95.444)"/>
<use data-text="u" xlink:href="#font_105_54" transform="matrix(9.963,0,0,-9.963,153.00463,95.444)"/>
<use data-text="l" xlink:href="#font_105_39" transform="matrix(9.963,0,0,-9.963,158.53409,95.444)"/>
<use data-text="e" xlink:href="#font_105_29" transform="matrix(9.963,0,0,-9.963,161.3038,95.444)"/>
<use data-text="r" xlink:href="#font_105_49" transform="matrix(9.963,0,0,-9.963,165.72737,95.444)"/>
<path transform="matrix(1,0,0,-1,175.94751,21.3349)" d="M0 0H-54.393C-56.594 0-58.378-1.784-58.378-3.985V-26.524C-58.378-28.725-56.594-30.509-54.393-30.509H0C2.201-30.509 3.985-28.725 3.985-26.524V-3.985C3.985-1.784 2.201 0 0 0Z" fill="#c9e4e3"/>
<path transform="matrix(1,0,0,-1,175.94751,21.3349)" stroke-width=".996" stroke-linecap="butt" stroke-miterlimit="10" stroke-linejoin="miter" fill="none" stroke="#000000" d="M0 0H-54.393C-56.594 0-58.378-1.784-58.378-3.985V-26.524C-58.378-28.725-56.594-30.509-54.393-30.509H0C2.201-30.509 3.985-28.725 3.985-26.524V-3.985C3.985-1.784 2.201 0 0 0Z"/>
<use data-text="Q" xlink:href="#font_105_16" transform="matrix(9.963,0,0,-9.963,134.917,31.518006)"/>
<use data-text="u" xlink:href="#font_105_54" transform="matrix(9.963,0,0,-9.963,142.66823,31.518006)"/>
<use data-text="e" xlink:href="#font_105_29" transform="matrix(9.963,0,0,-9.963,148.1977,31.518006)"/>
<use data-text="u" xlink:href="#font_105_54" transform="matrix(9.963,0,0,-9.963,152.62126,31.518006)"/>
<use data-text="e" xlink:href="#font_105_29" transform="matrix(9.963,0,0,-9.963,158.15073,31.518006)"/>
<path transform="matrix(1,0,0,-1,106.231,171.075)" d="M-102.049 72.284H-39.686006V97.796H-102.049Z" fill="#c9e4e3"/>
<path transform="matrix(1,0,0,-1,106.231,171.075)" stroke-width=".996" stroke-linecap="butt" stroke-miterlimit="10" stroke-linejoin="miter" fill="none" stroke="#000000" d="M-102.049 72.284H-39.686006V97.796H-102.049Z"/>
<use data-text="U" xlink:href="#font_105_20" transform="matrix(9.963,0,0,-9.963,25.501,89.465999)"/>
<use data-text="s" xlink:href="#font_105_50" transform="matrix(9.963,0,0,-9.963,32.97325,89.465999)"/>
<use data-text="e" xlink:href="#font_105_29" transform="matrix(9.963,0,0,-9.963,36.898675,89.465999)"/>
<use data-text="r" xlink:href="#font_105_49" transform="matrix(9.963,0,0,-9.963,41.322248,89.465999)"/>
<path transform="matrix(1,0,0,-1,.4972992,112.964)" d="M0 0 3.833 14.173H65.9L69.733 0Z" fill="#e4f1f1"/>
<path transform="matrix(1,0,0,-1,.4972992,112.964)" stroke-width=".996" stroke-linecap="butt" stroke-miterlimit="10" stroke-linejoin="miter" fill="none" stroke="#000000" d="M0 0 3.833 14.173H65.9L69.733 0Z"/>
<path transform="matrix(1,0,0,-1,371.5406,7.1615908)" d="M0 0H-133.764C-135.965 0-137.749-1.784-137.749-3.985V-59.123C-137.749-61.324-135.965-63.108-133.764-63.108H0C2.201-63.108 3.985-61.324 3.985-59.123V-3.985C3.985-1.784 2.201 0 0 0Z" fill="#c9e4e3"/>
<path transform="matrix(1,0,0,-1,371.5406,7.1615908)" stroke-width=".996" stroke-linecap="butt" stroke-miterlimit="10" stroke-linejoin="miter" fill="none" stroke="#000000" d="M0 0H-133.764C-135.965 0-137.749-1.784-137.749-3.985V-59.123C-137.749-61.324-135.965-63.108-133.764-63.108H0C2.201-63.108 3.985-61.324 3.985-59.123V-3.985C3.985-1.784 2.201 0 0 0Z"/>
<use data-text="C" xlink:href="#font_105_3" transform="matrix(9.963,0,0,-9.963,265.34,17.345002)"/>
<use data-text="o" xlink:href="#font_105_42" transform="matrix(9.963,0,0,-9.963,272.5333,17.345002)"/>
<use data-text="m" xlink:href="#font_105_40" transform="matrix(9.963,0,0,-9.963,277.5148,17.345002)"/>
<use data-text="p" xlink:href="#font_105_44" transform="matrix(9.963,0,0,-9.963,285.814,17.345002)"/>
<use data-text="u" xlink:href="#font_105_54" transform="matrix(9.963,0,0,-9.963,291.34349,17.345002)"/>
<use data-text="t" xlink:href="#font_105_51" transform="matrix(9.963,0,0,-9.963,296.87297,17.345002)"/>
<use data-text="i" xlink:href="#font_105_36" transform="matrix(9.963,0,0,-9.963,300.74858,17.345002)"/>
<use data-text="n" xlink:href="#font_105_41" transform="matrix(9.963,0,0,-9.963,303.51829,17.345002)"/>
<use data-text="g" xlink:href="#font_105_33" transform="matrix(9.963,0,0,-9.963,309.04777,17.345002)"/>
<use data-text="N" xlink:href="#font_105_13" transform="matrix(9.963,0,0,-9.963,317.34696,17.345002)"/>
<use data-text="o" xlink:href="#font_105_42" transform="matrix(9.963,0,0,-9.963,324.8192,17.345002)"/>
<use data-text="d" xlink:href="#font_105_28" transform="matrix(9.963,0,0,-9.963,330.07969,17.345002)"/>
<use data-text="e" xlink:href="#font_105_29" transform="matrix(9.963,0,0,-9.963,335.60917,17.345002)"/>
<use data-text="s" xlink:href="#font_105_50" transform="matrix(9.963,0,0,-9.963,340.03276,17.345002)"/>
<path transform="matrix(1,0,0,-1,371.5406,100.7061)" d="M0 0H-133.764C-135.965 0-137.749-1.784-137.749-3.985V-59.123C-137.749-61.324-135.965-63.108-133.764-63.108H0C2.201-63.108 3.985-61.324 3.985-59.123V-3.985C3.985-1.784 2.201 0 0 0Z" fill="#c9e4e3"/>
<path transform="matrix(1,0,0,-1,371.5406,100.7061)" stroke-width=".996" stroke-linecap="butt" stroke-miterlimit="10" stroke-linejoin="miter" fill="none" stroke="#000000" d="M0 0H-133.764C-135.965 0-137.749-1.784-137.749-3.985V-59.123C-137.749-61.324-135.965-63.108-133.764-63.108H0C2.201-63.108 3.985-61.324 3.985-59.123V-3.985C3.985-1.784 2.201 0 0 0Z"/>
<use data-text="F" xlink:href="#font_105_6" transform="matrix(9.963,0,0,-9.963,279.105,110.888)"/>
<use data-text="i" xlink:href="#font_105_36" transform="matrix(9.963,0,0,-9.963,285.61085,110.888)"/>
<use data-text="l" xlink:href="#font_105_39" transform="matrix(9.963,0,0,-9.963,288.38056,110.888)"/>
<use data-text="e" xlink:href="#font_105_29" transform="matrix(9.963,0,0,-9.963,291.15028,110.888)"/>
<use data-text="S" xlink:href="#font_105_18" transform="matrix(9.963,0,0,-9.963,298.89155,110.888)"/>
<use data-text="y" xlink:href="#font_105_57" transform="matrix(9.963,0,0,-9.963,304.42103,110.888)"/>
<use data-text="s" xlink:href="#font_105_50" transform="matrix(9.963,0,0,-9.963,309.6815,110.888)"/>
<use data-text="t" xlink:href="#font_105_51" transform="matrix(9.963,0,0,-9.963,313.6069,110.888)"/>
<use data-text="e" xlink:href="#font_105_29" transform="matrix(9.963,0,0,-9.963,317.4825,110.888)"/>
<use data-text="m" xlink:href="#font_105_40" transform="matrix(9.963,0,0,-9.963,321.9061,110.888)"/>
<path transform="matrix(1,0,0,-1,242.2958,63.357095)" d="M0 0V14.173H11.339V0Z" fill="#e4f1f1"/>
<path transform="matrix(1,0,0,-1,242.2958,63.357095)" stroke-width=".996" stroke-linecap="butt" stroke-miterlimit="10" stroke-linejoin="miter" fill="none" stroke="#000000" d="M0 0V14.173H11.339V0Z"/>
<path transform="matrix(1,0,0,-1,242.2958,37.845094)" d="M0 0V14.173H11.339V0Z" fill="#e4f1f1"/>
<path transform="matrix(1,0,0,-1,242.2958,37.845094)" stroke-width=".996" stroke-linecap="butt" stroke-miterlimit="10" stroke-linejoin="miter" fill="none" stroke="#000000" d="M0 0V14.173H11.339V0Z"/>
<path transform="matrix(1,0,0,-1,270.6426,63.357095)" d="M0 0V14.173H11.339V0Z" fill="#e4f1f1"/>
<path transform="matrix(1,0,0,-1,270.6426,63.357095)" stroke-width=".996" stroke-linecap="butt" stroke-miterlimit="10" stroke-linejoin="miter" fill="none" stroke="#000000" d="M0 0V14.173H11.339V0Z"/>
<path transform="matrix(1,0,0,-1,270.6426,37.845094)" d="M0 0V14.173H11.339V0Z" fill="#e4f1f1"/>
<path transform="matrix(1,0,0,-1,270.6426,37.845094)" stroke-width=".996" stroke-linecap="butt" stroke-miterlimit="10" stroke-linejoin="miter" fill="none" stroke="#000000" d="M0 0V14.173H11.339V0Z"/>
<path transform="matrix(1,0,0,-1,298.9894,63.357095)" d="M0 0V14.173H11.339V0Z" fill="#e4f1f1"/>
<path transform="matrix(1,0,0,-1,298.9894,63.357095)" stroke-width=".996" stroke-linecap="butt" stroke-miterlimit="10" stroke-linejoin="miter" fill="none" stroke="#000000" d="M0 0V14.173H11.339V0Z"/>
<path transform="matrix(1,0,0,-1,298.9894,37.845094)" d="M0 0V14.173H11.339V0Z" fill="#e4f1f1"/>
<path transform="matrix(1,0,0,-1,298.9894,37.845094)" stroke-width=".996" stroke-linecap="butt" stroke-miterlimit="10" stroke-linejoin="miter" fill="none" stroke="#000000" d="M0 0V14.173H11.339V0Z"/>
<path transform="matrix(1,0,0,-1,327.33619,63.357095)" d="M0 0V14.173H11.339V0Z" fill="#e4f1f1"/>
<path transform="matrix(1,0,0,-1,327.33619,63.357095)" stroke-width=".996" stroke-linecap="butt" stroke-miterlimit="10" stroke-linejoin="miter" fill="none" stroke="#000000" d="M0 0V14.173H11.339V0Z"/>
<path transform="matrix(1,0,0,-1,327.33619,37.845094)" d="M0 0V14.173H11.339V0Z" fill="#e4f1f1"/>
<path transform="matrix(1,0,0,-1,327.33619,37.845094)" stroke-width=".996" stroke-linecap="butt" stroke-miterlimit="10" stroke-linejoin="miter" fill="none" stroke="#000000" d="M0 0V14.173H11.339V0Z"/>
<path transform="matrix(1,0,0,-1,355.68299,63.357095)" d="M0 0V14.173H11.339V0Z" fill="#e4f1f1"/>
<path transform="matrix(1,0,0,-1,355.68299,63.357095)" stroke-width=".996" stroke-linecap="butt" stroke-miterlimit="10" stroke-linejoin="miter" fill="none" stroke="#000000" d="M0 0V14.173H11.339V0Z"/>
<path transform="matrix(1,0,0,-1,355.68299,37.845094)" d="M0 0V14.173H11.339V0Z" fill="#e4f1f1"/>
<path transform="matrix(1,0,0,-1,355.68299,37.845094)" stroke-width=".996" stroke-linecap="butt" stroke-miterlimit="10" stroke-linejoin="miter" fill="none" stroke="#000000" d="M0 0V14.173H11.339V0Z"/>
<path transform="matrix(1,0,0,-1,253.9462,154.6105)" d="M0 0C0-.917 3.807-1.66 8.504-1.66 13.201-1.66 17.008-.917 17.008 0V10.854C17.008 9.937 13.201 9.194 8.504 9.194 3.807 9.194 0 9.937 0 10.854Z" fill="#f1f8f8"/>
<path transform="matrix(1,0,0,-1,253.9462,143.7568)" d="M0 0C0 .917 3.807 1.66 8.504 1.66 13.201 1.66 17.008 .917 17.008 0 17.008-.917 13.201-1.66 8.504-1.66 3.807-1.66 0-.917 0 0Z" fill="#e4f1f1"/>
<path transform="matrix(1,0,0,-1,253.9462,154.6105)" stroke-width=".996" stroke-linecap="butt" stroke-miterlimit="10" stroke-linejoin="miter" fill="none" stroke="#000000" d="M0 0C0-.917 3.807-1.66 8.504-1.66 13.201-1.66 17.008-.917 17.008 0V10.854C17.008 11.77 13.201 12.514 8.504 12.514 3.807 12.514 0 11.77 0 10.854ZM0 10.854C0 9.937 3.807 9.194 8.504 9.194 13.201 9.194 17.008 9.937 17.008 10.854"/>
<path transform="matrix(1,0,0,-1,253.9462,129.0985)" d="M0 0C0-.917 3.807-1.66 8.504-1.66 13.201-1.66 17.008-.917 17.008 0V10.854C17.008 9.937 13.201 9.194 8.504 9.194 3.807 9.194 0 9.937 0 10.854Z" fill="#f1f8f8"/>
<path transform="matrix(1,0,0,-1,253.9462,118.244899)" d="M0 0C0 .917 3.807 1.66 8.504 1.66 13.201 1.66 17.008 .917 17.008 0 17.008-.917 13.201-1.66 8.504-1.66 3.807-1.66 0-.917 0 0Z" fill="#e4f1f1"/>
<path transform="matrix(1,0,0,-1,253.9462,129.0985)" stroke-width=".996" stroke-linecap="butt" stroke-miterlimit="10" stroke-linejoin="miter" fill="none" stroke="#000000" d="M0 0C0-.917 3.807-1.66 8.504-1.66 13.201-1.66 17.008-.917 17.008 0V10.854C17.008 11.77 13.201 12.514 8.504 12.514 3.807 12.514 0 11.77 0 10.854ZM0 10.854C0 9.937 3.807 9.194 8.504 9.194 13.201 9.194 17.008 9.937 17.008 10.854"/>
<path transform="matrix(1,0,0,-1,282.293,154.6105)" d="M0 0C0-.917 3.807-1.66 8.504-1.66 13.201-1.66 17.008-.917 17.008 0V10.854C17.008 9.937 13.201 9.194 8.504 9.194 3.807 9.194 0 9.937 0 10.854Z" fill="#f1f8f8"/>
<path transform="matrix(1,0,0,-1,282.293,143.7568)" d="M0 0C0 .917 3.807 1.66 8.504 1.66 13.201 1.66 17.008 .917 17.008 0 17.008-.917 13.201-1.66 8.504-1.66 3.807-1.66 0-.917 0 0Z" fill="#e4f1f1"/>
<path transform="matrix(1,0,0,-1,282.293,154.6105)" stroke-width=".996" stroke-linecap="butt" stroke-miterlimit="10" stroke-linejoin="miter" fill="none" stroke="#000000" d="M0 0C0-.917 3.807-1.66 8.504-1.66 13.201-1.66 17.008-.917 17.008 0V10.854C17.008 11.77 13.201 12.514 8.504 12.514 3.807 12.514 0 11.77 0 10.854ZM0 10.854C0 9.937 3.807 9.194 8.504 9.194 13.201 9.194 17.008 9.937 17.008 10.854"/>
<path transform="matrix(1,0,0,-1,282.293,129.0985)" d="M0 0C0-.917 3.807-1.66 8.504-1.66 13.201-1.66 17.008-.917 17.008 0V10.854C17.008 9.937 13.201 9.194 8.504 9.194 3.807 9.194 0 9.937 0 10.854Z" fill="#f1f8f8"/>
<path transform="matrix(1,0,0,-1,282.293,118.244899)" d="M0 0C0 .917 3.807 1.66 8.504 1.66 13.201 1.66 17.008 .917 17.008 0 17.008-.917 13.201-1.66 8.504-1.66 3.807-1.66 0-.917 0 0Z" fill="#e4f1f1"/>
<path transform="matrix(1,0,0,-1,282.293,129.0985)" stroke-width=".996" stroke-linecap="butt" stroke-miterlimit="10" stroke-linejoin="miter" fill="none" stroke="#000000" d="M0 0C0-.917 3.807-1.66 8.504-1.66 13.201-1.66 17.008-.917 17.008 0V10.854C17.008 11.77 13.201 12.514 8.504 12.514 3.807 12.514 0 11.77 0 10.854ZM0 10.854C0 9.937 3.807 9.194 8.504 9.194 13.201 9.194 17.008 9.937 17.008 10.854"/>
<path transform="matrix(1,0,0,-1,310.6398,154.6105)" d="M0 0C0-.917 3.807-1.66 8.504-1.66 13.201-1.66 17.008-.917 17.008 0V10.854C17.008 9.937 13.201 9.194 8.504 9.194 3.807 9.194 0 9.937 0 10.854Z" fill="#f1f8f8"/>
<path transform="matrix(1,0,0,-1,310.6398,143.7568)" d="M0 0C0 .917 3.807 1.66 8.504 1.66 13.201 1.66 17.008 .917 17.008 0 17.008-.917 13.201-1.66 8.504-1.66 3.807-1.66 0-.917 0 0Z" fill="#e4f1f1"/>
<path transform="matrix(1,0,0,-1,310.6398,154.6105)" stroke-width=".996" stroke-linecap="butt" stroke-miterlimit="10" stroke-linejoin="miter" fill="none" stroke="#000000" d="M0 0C0-.917 3.807-1.66 8.504-1.66 13.201-1.66 17.008-.917 17.008 0V10.854C17.008 11.77 13.201 12.514 8.504 12.514 3.807 12.514 0 11.77 0 10.854ZM0 10.854C0 9.937 3.807 9.194 8.504 9.194 13.201 9.194 17.008 9.937 17.008 10.854"/>
<path transform="matrix(1,0,0,-1,310.6398,129.0985)" d="M0 0C0-.917 3.807-1.66 8.504-1.66 13.201-1.66 17.008-.917 17.008 0V10.854C17.008 9.937 13.201 9.194 8.504 9.194 3.807 9.194 0 9.937 0 10.854Z" fill="#f1f8f8"/>
<path transform="matrix(1,0,0,-1,310.6398,118.244899)" d="M0 0C0 .917 3.807 1.66 8.504 1.66 13.201 1.66 17.008 .917 17.008 0 17.008-.917 13.201-1.66 8.504-1.66 3.807-1.66 0-.917 0 0Z" fill="#e4f1f1"/>
<path transform="matrix(1,0,0,-1,310.6398,129.0985)" stroke-width=".996" stroke-linecap="butt" stroke-miterlimit="10" stroke-linejoin="miter" fill="none" stroke="#000000" d="M0 0C0-.917 3.807-1.66 8.504-1.66 13.201-1.66 17.008-.917 17.008 0V10.854C17.008 11.77 13.201 12.514 8.504 12.514 3.807 12.514 0 11.77 0 10.854ZM0 10.854C0 9.937 3.807 9.194 8.504 9.194 13.201 9.194 17.008 9.937 17.008 10.854"/>
<path transform="matrix(1,0,0,-1,338.9866,154.6105)" d="M0 0C0-.917 3.807-1.66 8.504-1.66 13.201-1.66 17.008-.917 17.008 0V10.854C17.008 9.937 13.201 9.194 8.504 9.194 3.807 9.194 0 9.937 0 10.854Z" fill="#f1f8f8"/>
<path transform="matrix(1,0,0,-1,338.9866,143.7568)" d="M0 0C0 .917 3.807 1.66 8.504 1.66 13.201 1.66 17.008 .917 17.008 0 17.008-.917 13.201-1.66 8.504-1.66 3.807-1.66 0-.917 0 0Z" fill="#e4f1f1"/>
<path transform="matrix(1,0,0,-1,338.9866,154.6105)" stroke-width=".996" stroke-linecap="butt" stroke-miterlimit="10" stroke-linejoin="miter" fill="none" stroke="#000000" d="M0 0C0-.917 3.807-1.66 8.504-1.66 13.201-1.66 17.008-.917 17.008 0V10.854C17.008 11.77 13.201 12.514 8.504 12.514 3.807 12.514 0 11.77 0 10.854ZM0 10.854C0 9.937 3.807 9.194 8.504 9.194 13.201 9.194 17.008 9.937 17.008 10.854"/>
<path transform="matrix(1,0,0,-1,338.9866,129.0985)" d="M0 0C0-.917 3.807-1.66 8.504-1.66 13.201-1.66 17.008-.917 17.008 0V10.854C17.008 9.937 13.201 9.194 8.504 9.194 3.807 9.194 0 9.937 0 10.854Z" fill="#f1f8f8"/>
<path transform="matrix(1,0,0,-1,338.9866,118.244899)" d="M0 0C0 .917 3.807 1.66 8.504 1.66 13.201 1.66 17.008 .917 17.008 0 17.008-.917 13.201-1.66 8.504-1.66 3.807-1.66 0-.917 0 0Z" fill="#e4f1f1"/>
<path transform="matrix(1,0,0,-1,338.9866,129.0985)" stroke-width=".996" stroke-linecap="butt" stroke-miterlimit="10" stroke-linejoin="miter" fill="none" stroke="#000000" d="M0 0C0-.917 3.807-1.66 8.504-1.66 13.201-1.66 17.008-.917 17.008 0V10.854C17.008 11.77 13.201 12.514 8.504 12.514 3.807 12.514 0 11.77 0 10.854ZM0 10.854C0 9.937 3.807 9.194 8.504 9.194 13.201 9.194 17.008 9.937 17.008 10.854"/>
<path transform="matrix(1,0,0,-1,67.0435,86.0346)" stroke-width="2.989" stroke-linecap="butt" stroke-miterlimit="10" stroke-linejoin="miter" fill="none" stroke="#a9a9a9" d="M0 0H43.977"/>
<path transform="matrix(1,0,0,-1,115.76403,86.03458)" d="M0 0-4.339 3.507V0-3.507Z" fill="#a9a9a9"/>
<path transform="matrix(1,0,0,-1,115.76403,86.03458)" stroke-width="1.619" stroke-linecap="butt" stroke-linejoin="round" fill="none" stroke="#a9a9a9" d="M0 0-4.339 3.507V0-3.507Z"/>
<use data-text="S" xlink:href="#font_105_18" transform="matrix(9.963,0,0,-9.963,77.786,82.218)"/>
<use data-text="S" xlink:href="#font_105_18" transform="matrix(9.963,0,0,-9.963,83.31547,82.218)"/>
<use data-text="H" xlink:href="#font_105_8" transform="matrix(9.963,0,0,-9.963,88.84493,82.218)"/>
<path transform="matrix(1,0,0,-1,304.6587,76.320598)" stroke-width="2.989" stroke-linecap="butt" stroke-miterlimit="10" stroke-linejoin="miter" fill="none" stroke="#a9a9a9" d="M0 0V-17.836"/>
<path transform="matrix(0,-1,-1,-0,304.65867,71.57714)" d="M0 0-4.339 3.507V0-3.507Z" fill="#a9a9a9"/>
<path transform="matrix(0,-1,-1,-0,304.65867,71.57714)" stroke-width="1.619" stroke-linecap="butt" stroke-linejoin="round" fill="none" stroke="#a9a9a9" d="M0 0-4.339 3.507V0-3.507Z"/>
<path transform="matrix(0,1,1,0,304.65867,98.9004)" d="M0 0-4.339 3.507V0-3.507Z" fill="#a9a9a9"/>
<path transform="matrix(0,1,1,0,304.65867,98.9004)" stroke-width="1.619" stroke-linecap="butt" stroke-linejoin="round" fill="none" stroke="#a9a9a9" d="M0 0-4.339 3.507V0-3.507Z"/>
<use data-text="D" xlink:href="#font_105_4" transform="matrix(9.963,0,0,-9.963,279.263,88.92)"/>
<use data-text="a" xlink:href="#font_105_23" transform="matrix(9.963,0,0,-9.963,286.87474,88.92)"/>
<use data-text="t" xlink:href="#font_105_51" transform="matrix(9.963,0,0,-9.963,291.85624,88.92)"/>
<use data-text="a" xlink:href="#font_105_23" transform="matrix(9.963,0,0,-9.963,295.73185,88.92)"/>
<path transform="matrix(1,0,0,-1,180.4308,30.758393)" stroke-width="2.989" stroke-linecap="butt" stroke-miterlimit="10" stroke-linejoin="miter" fill="none" stroke="#a9a9a9" d="M0 0H46.812"/>
<path transform="matrix(1,0,0,-1,231.98587,30.758393)" d="M0 0-4.339 3.507V0-3.507Z" fill="#a9a9a9"/>
<path transform="matrix(1,0,0,-1,231.98587,30.758393)" stroke-width="1.619" stroke-linecap="butt" stroke-linejoin="round" fill="none" stroke="#a9a9a9" d="M0 0-4.339 3.507V0-3.507Z"/>
<path transform="matrix(1,0,0,-1,117.0716,36.5896)" stroke-width=".996" stroke-linecap="butt" stroke-miterlimit="10" stroke-linejoin="miter" fill="none" stroke="#000000" d="M0 0H62.861"/>
<path transform="matrix(1,0,0,-1,148.7512,57.895296)" stroke-width="2.989" stroke-linecap="butt" stroke-miterlimit="10" stroke-linejoin="miter" fill="none" stroke="#a9a9a9" d="M0 0V-8.834"/>
<path transform="matrix(0,-1,-1,-0,148.7512,53.15184)" d="M0 0-4.339 3.507V0-3.507Z" fill="#a9a9a9"/>
<path transform="matrix(0,-1,-1,-0,148.7512,53.15184)" stroke-width="1.619" stroke-linecap="butt" stroke-linejoin="round" fill="none" stroke="#a9a9a9" d="M0 0-4.339 3.507V0-3.507Z"/>
<path transform="matrix(0,1,1,0,148.7512,71.47286)" d="M0 0-4.339 3.507V0-3.507Z" fill="#a9a9a9"/>
<path transform="matrix(0,1,1,0,148.7512,71.47286)" stroke-width="1.619" stroke-linecap="butt" stroke-linejoin="round" fill="none" stroke="#a9a9a9" d="M0 0-4.339 3.507V0-3.507Z"/>
<use data-text="s" xlink:href="#font_105_50" transform="matrix(9.963,0,0,-9.963,114.996,65.993)"/>
<use data-text="u" xlink:href="#font_105_54" transform="matrix(9.963,0,0,-9.963,118.921428,65.993)"/>
<use data-text="b" xlink:href="#font_105_24" transform="matrix(9.963,0,0,-9.963,124.45089,65.993)"/>
<use data-text="m" xlink:href="#font_105_40" transform="matrix(9.963,0,0,-9.963,129.98036,65.993)"/>
<use data-text="i" xlink:href="#font_105_36" transform="matrix(9.963,0,0,-9.963,138.27954,65.993)"/>
<use data-text="t" xlink:href="#font_105_51" transform="matrix(9.963,0,0,-9.963,141.04926,65.993)"/>
<path transform="matrix(1,0,0,-1,148.7512,99.2887)" stroke-width="2.989" stroke-linecap="butt" stroke-miterlimit="10" stroke-linejoin="miter" fill="none" stroke="#a9a9a9" d="M0 0V-32.971H78.491"/>
<path transform="matrix(1,0,0,-1,231.98587,132.26012)" d="M0 0-4.339 3.507V0-3.507Z" fill="#a9a9a9"/>
<path transform="matrix(1,0,0,-1,231.98587,132.26012)" stroke-width="1.619" stroke-linecap="butt" stroke-linejoin="round" fill="none" stroke="#a9a9a9" d="M0 0-4.339 3.507V0-3.507Z"/>
</svg>
