<svg xmlns="http://www.w3.org/2000/svg" xmlns:xlink="http://www.w3.org/1999/xlink" version="1.1" width="199.919pt" height="388.488pt" viewBox="0 0 199.919 388.488">
<defs>
<path id="font_27_1" d="M.035995485 .04096985V.0009765625H.2679901V.04096985C.23899842 .04096985 .18099976 .04096985 .18099976 .055984498 .18099976 .0619812 .18998719 .08099365 .19499207 .09199524 .20899964 .12902832 .22999573 .16905213 .23899842 .20507813H.5039978L.56799319 .04096985H.47499085V.0009765625H.79299929V.04096985H.69799807C.6899872 .07098389 .6749878 .10101318 .6629944 .13002014 .59199526 .3140869 .5159912 .4981079 .44499208 .68214419 .43899537 .6941376 .43598939 .70214846 .41600038 .70214846 .3880005 .70214846 .38398744 .68414309 .36499024 .63412478 .29299928 .44309999 .20999146 .2580719 .13999939 .065979007 .1309967 .04397583 .100997928 .03996277 .07199097 .03996277 .05899048 .03996277 .04598999 .04096985 .035995485 .04096985M.2559967 .24507141 .37098695 .53811648 .4869995 .24507141H.2559967Z"/>
<path id="font_27_35" d="M.037994386 .443161V.40315248H.06298828C.08198547 .40315248 .10598755 .40115357 .10798645 .3791504V.13812256C.10798645 .10812378 .10998535 .07711792 .12599182 .050109865 .15499878-.00088500979 .22599793-.0048828127 .2749939-.0048828127 .33499146-.0048828127 .3959961 .022109986 .41600038 .08111572L.4169922-.0048828127H.58799746V.041107179H.56199648C.5389862 .041107179 .5179901 .04310608 .5179901 .07411194V.45117188H.4019928L.34298707 .443161V.40315248H.36499024C.3909912 .40315248 .41299439 .40016175 .41299439 .3711548V.15013123C.40699769 .08711243 .3659973 .026107789 .29299928 .026107789 .2539978 .026107789 .21199036 .026107789 .21199036 .10211182 .21199036 .117126468 .21299744 .13311768 .21299744 .14611817V.45117188H.09700012L.037994386 .443161Z"/>
<path id="font_27_32" d="M.16699219 .63671877C.16699219 .5585327 .1269989 .43626405 .019989014 .43626405V.40527345H.099990848V.1351471C.099990848 .105148319 .101989749 .07513428 .11898804 .049118043 .147995 .0051116945 .20399475-.0048828127 .25099183-.0048828127 .32899476-.0048828127 .3659973 .06011963 .3659973 .13815308V.17817688H.32798768C.32798768 .16416931 .32899476 .15016175 .32899476 .1351471 .32899476 .09513855 .31900025 .02911377 .2649994 .02911377 .21499634 .02911377 .20498657 .08213806 .20498657 .12815857V.40527345H.34799195V.4453125H.20498657V.63671877H.16699219Z"/>
<path id="font_27_25" d="M.2559967 .45410157C.13598633 .44110108 .0309906 .37509156 .0309906 .22010803 .0309906 .15310669 .055999757 .08610535 .11099243 .04411316 .15699768 .009109497 .21699524-.0048828127 .2749939-.0048828127 .3959961-.0048828127 .5179901 .06210327 .5179901 .22210694 .5179901 .2770996 .5009918 .33509828 .46398927 .37709046 .4149933 .4340973 .33999635 .45410157 .2679901 .45410157H.2559967M.14498902 .18910218V.24209595C.14498902 .29309083 .1459961 .35209657 .18499756 .39009095 .20799256 .41308595 .24099732 .42408753 .272995 .42408753 .34599305 .42408753 .3939972 .37609864 .4019928 .3000946 .4039917 .2801056 .40499879 .26010133 .40499879 .24110413V.21710205C.40499879 .16810608 .40299989 .11109924 .37298585 .07310486 .34899903 .04310608 .31199647 .02911377 .2749939 .02911377 .23699951 .02911377 .19799805 .04411316 .1749878 .07510376 .14898682 .10810852 .14898682 .15010071 .14498902 .18910218Z"/>
<path id="font_27_19" d="M.011993408 .26670838V.17871094H.30499269V.26670838H.011993408Z"/>
<path id="font_27_9" d="M.05899048 .67871096 .039993287 .4447937H.07798767C.08198547 .4937744 .084991458 .5547333 .11299133 .5917206 .147995 .6367035 .20698548 .6387024 .2599945 .6387024H.31999208V.04096985H.17098999V.0009765625H.59399417V.04096985H.44499208V.6387024H.5049896C.57299807 .6387024 .6539917 .6347046 .673996 .53575137 .68099978 .5057678 .6839905 .47477723 .6859894 .4447937H.723999L.7049866 .67871096H.05899048Z"/>
<path id="font_27_24" d="M.037994386 .443161V.40315248H.057998659C.083999637 .40315248 .10798645 .40014649 .10798645 .36914063V.04096985H.037994386V.0009765625H.2829895V.04096985H.21299744V.24407959C.21299744 .32511903 .25498963 .42016603 .35198976 .42016603 .4099884 .42016603 .41299439 .35513307 .41299439 .29910279V.04096985H.34298707V.0009765625H.58799746V.04096985H.5179901V.30110169C.5179901 .33511354 .5159912 .36914063 .49699403 .39915467 .46998597 .443161 .4149933 .45117188 .36799623 .45117188 .29599 .45117188 .22599793 .40515138 .20599365 .3361206L.20498657 .45117188H.09399414L.037994386 .443161Z"/>
<path id="font_27_13" d="M.14399719 .22494507H.45199586C.46499635 .22494507 .46899415 .23194885 .46899415 .24394226 .46899415 .35202027 .41600038 .45507813 .2639923 .45507813 .20999146 .45507813 .15499878 .44006349 .11199951 .40705873 .056991579 .36502076 .02999878 .29597474 .02999878 .22694397 .02999878 .08406067 .13899231-.0048828127 .2769928-.0048828127 .35198976-.0048828127 .43499757 .026107789 .46598817 .107040408 .46699525 .11103821 .46899415 .11404419 .46899415 .11804199 .46899415 .12702942 .45999146 .13201905 .44898988 .13201905 .42999269 .13201905 .4249878 .106048587 .4169922 .092056278 .3909912 .051086427 .33999635 .02911377 .2919922 .02911377 .23999024 .02911377 .18899536 .053085329 .1639862 .1010437 .14498902 .13902283 .14399719 .1829834 .14399719 .22494507M.14399719 .25195313C.14399719 .29597474 .14898682 .3440094 .17599488 .3800354 .19699097 .40705873 .23098755 .4230652 .2639923 .4230652 .35499574 .4230652 .37799073 .32699586 .37799073 .25195313H.14399719Z"/>
<path id="font_27_28" d="M.03199768 .443161V.40316773H.051986696C.07798767 .40316773 .101989749 .40016175 .101989749 .36917115V.04096985H.03199768V.0009765625H.2899933V.04096985H.20298767V.18504334C.20298767 .27409364 .20599365 .42016603 .32499696 .42016603 .31199647 .40715028 .3039856 .39414979 .3039856 .3761444 .3039856 .34016419 .32998658 .3191681 .3600006 .3191681 .3929901 .3191681 .4149933 .34516908 .4149933 .37416078 .4149933 .42416383 .36299134 .45117188 .31900025 .45117188 .25698854 .45117188 .20498657 .39416505 .19599915 .33416749L.19499207 .45117188 .08699036 .446167 .03199768 .443161Z"/>
<path id="font_28_9" d="M.035995485 .68359377V.6545868H.069992069C.10499573 .6545868 .13598633 .650589 .13598633 .61260989V.07293701C.13598633 .034957887 .10499573 .02897644 .07299805 .02897644 .05999756 .02897644 .04699707 .029968262 .035995485 .029968262V.0009765625H.31698609V.029968262C.30499269 .029968262 .29299928 .02897644 .2809906 .02897644 .24699402 .02897644 .21699524 .033966066 .21699524 .07293701V.61260989C.21699524 .650589 .25099183 .6545868 .2849884 .6545868H.31698609V.68359377H.035995485Z"/>
<path id="font_28_37" d="M.03199768 .43040467V.40138246H.050994874C.07998657 .40138246 .10798645 .39736939 .10798645 .35131837V.072021488C.10798645 .034973146 .08898926 .029968262 .03199768 .029968262V.0009765625H.24899292V.029968262H.22599793C.19699097 .029968262 .17298889 .033966066 .17298889 .071014408V.25421144C.17298889 .32328797 .20799256 .42140199 .30599977 .42140199 .36698915 .42140199 .37998963 .3623352 .37998963 .30326844V.06800842C.37998963 .032974245 .35099793 .029968262 .32099916 .029968262H.3039856V.0009765625H.5209961V.029968262H.49798585C.47099305 .029968262 .44499208 .030975342 .44499208 .0690155V.29626466C.44499208 .32829286 .44400025 .35932923 .42799378 .38735963 .40499879 .42739869 .35699464 .44140626 .31399537 .44140626 .2649994 .44140626 .22299195 .42340089 .18899536 .37635804 .17999268 .3643341 .17298889 .35232545 .16899109 .3383026L.16799927 .44140626 .03199768 .43040467Z"/>
<path id="font_28_41" d="M.027999878 .43040467V.4013977H.04598999C.07598877 .4013977 .10398865 .39839173 .10398865 .35636903V-.104141239C.10398865-.11016846 .10499573-.1171875 .10499573-.1242218 .10499573-.16235352 .07499695-.16436768 .041992189-.16436768H.027999878V-.19335938H.24499512V-.16436768H.22299195C.19499207-.16436768 .16899109-.16035462 .16899109-.1242218L.16999817 .055221559C.19499207 .013198853 .25-.0087890629 .29599-.0087890629 .4169922-.0087890629 .5079956 .100250247 .5079956 .2183075 .5079956 .33035279 .42399598 .44140626 .30299378 .44140626 .24798584 .44140626 .20298767 .4143982 .16699219 .3743744V.44140626L.027999878 .43040467M.42999269 .20028687C.4249878 .133255 .40098573 .05822754 .33399964 .022201539 .31900025 .015197754 .30299378 .011199951 .28599549 .011199951 .23899842 .011199951 .16899109 .05722046 .16899109 .10824585V.2753296C.16899109 .28833009 .16799927 .30033876 .16799927 .3133545 .16799927 .3693695 .23599243 .41940309 .29499818 .41940309 .3959961 .41940309 .43099977 .28733827 .43099977 .2183075 .43099977 .21229553 .43099977 .20629883 .42999269 .20028687Z"/>
<path id="font_28_53" d="M.03199768 .42956544V.40055848H.04499817C.08699036 .40055848 .10798645 .39656068 .10798645 .33666993V.13700867C.10798645 .10606384 .10899353 .0741272 .125 .047164918 .15098572 .0032196046 .20599365-.009765625 .25299073-.009765625 .30699159-.009765625 .3659973 .02520752 .3809967 .08010864L.38198854-.008773804 .5209961 .0012207031V.030197144H.5019989C.47299195 .030197144 .44499208 .034194948 .44499208 .07810974V.44140626L.3039856 .4303894V.40055848H.31599427C.34999085 .40055848 .37998963 .39855958 .37998963 .35064698V.15298462C.375 .083099368 .33599855 .01222229 .2579956 .01222229 .22099304 .01222229 .18499756 .021209717 .1749878 .0741272 .17298889 .09309387 .17298889 .11305237 .17298889 .13201905V.44140626L.03199768 .42956544Z"/>
<path id="font_28_50" d="M.1459961 .6152344C.1459961 .55044558 .11999512 .421875 .017990113 .421875V.40187074H.102996829V.17605591C.102996829 .16207886 .101989749 .14808655 .101989749 .13409424 .101989749 .044174196 .147995-.0087890629 .23098755-.0087890629 .30799867-.0087890629 .32598878 .07714844 .32598878 .13909912V.18205261H.3039856C.3039856 .16706848 .30499269 .15208435 .30499269 .13710022 .30499269 .09413147 .29699708 .013198853 .23599243 .013198853 .1789856 .013198853 .16799927 .08213806 .16799927 .13110352V.40187074H.30899049V.43066407H.16799927V.6152344H.1459961Z"/>
<path id="font_28_18" d="M.052993776 .67871096 .034988405 .45578004H.056991579C.06098938 .5057678 .06298828 .57673647 .09199524 .6087189 .12298584 .646698 .18099976 .6506958 .22698975 .6506958H.27198792C.2919922 .6506958 .31298829 .6486969 .31298829 .61572268V.07594299C.31298829 .034973146 .27598573 .02897644 .24099732 .02897644 .22999573 .02897644 .21798706 .029968262 .20899964 .029968262H.1789856V.0009765625H.5279999V.029968262H.46798707C.42999269 .029968262 .3939972 .033966066 .3939972 .07495117V.59872439C.3939972 .60472109 .3929901 .6107178 .3929901 .6167145 .3929901 .6457062 .41099549 .6506958 .44400025 .6506958H.47599793C.5439911 .6506958 .61499026 .6446991 .6359863 .55874636 .6439972 .52474978 .6459961 .4897766 .6489868 .45578004H.67099L.6529999 .67871096H.052993776Z"/>
<path id="font_28_45" d="M.027999878 .4303894V.40135194H.04399109C.07398987 .40135194 .10398865 .3983612 .10398865 .3513031V.072006229C.10398865 .034973146 .084991458 .029968262 .027999878 .029968262V.0009765625H.2619934V.029968262C.25099183 .029968262 .23899842 .02897644 .22698975 .02897644 .19499207 .02897644 .16699219 .033966066 .16699219 .071014408V.20715332C.16699219 .28424073 .1789856 .39434815 .26098634 .41838075 .2689972 .42037965 .27598573 .42137147 .28399659 .42137147 .2889862 .42137147 .29299928 .42037965 .2979889 .42037965V.41937257C.2829895 .41337586 .27398683 .3983612 .27398683 .38233949 .27398683 .35931397 .29299928 .34329225 .31298829 .34329225 .33898927 .34329225 .35299684 .36331178 .35299684 .3833313 .35299684 .42037965 .31799317 .44140626 .28399659 .44140626 .23098755 .44140626 .19198609 .4033661 .17298889 .35931397 .16899109 .35029603 .1639862 .34028626 .16299439 .3302765L.1619873 .44140626 .027999878 .4303894Z"/>
<path id="font_28_21" d="M.10499573 .36827088C.1289978 .40628053 .17298889 .4262848 .21699524 .4262848 .27398683 .4262848 .31999208 .36827088 .31999208 .31326295V.25926209C.21899414 .25926209 .042999269 .2312622 .042999269 .09423828V.084243778C.051986696 .016220093 .1349945-.009765625 .19400025-.009765625 .24598694-.009765625 .31098939 .022232056 .32598878 .07723999H.32699586C.32998658 .030090332 .3639984-.00390625 .4039917-.00390625 .44599916-.00390625 .47898866 .032089235 .48298646 .07310486V.14614868H.46099855V.09712219C.46099855 .068099979 .45599366 .02508545 .4229889 .02508545 .3909912 .02508545 .38398744 .068099979 .38398744 .09312439 .38398744 .10412598 .3849945 .11512756 .3849945 .12612915V.26519776C.3849945 .2762146 .38598634 .28822328 .38598634 .29922486 .38598634 .39326478 .29899598 .44628907 .21699524 .44628907 .15299988 .44628907 .07199097 .40827943 .07199097 .3302307 .07199097 .30122376 .09098816 .2852173 .114990238 .2852173 .13899231 .2852173 .1559906 .30422975 .1559906 .32724 .1559906 .35224916 .13699341 .36825563 .11299133 .36825563L.10499573 .36827088M.31999208 .24119568V.14614868C.31999208 .07524109 .2749939 .011230469 .20399475 .011230469 .1659851 .011230469 .114990238 .041229249 .114990238 .09223938 .114990238 .18025208 .19499207 .22525025 .27799989 .23725891 .2919922 .23925781 .30599977 .23825073 .31999208 .24125672V.24119568Z"/>
<path id="font_28_34" d="M.036987306 .43034364V.4013214H.052993776C.084991458 .4013214 .10899353 .39631654 .10899353 .35127259V.072006229C.10899353 .034973146 .08999634 .029968262 .032989503 .029968262V.0009765625H.23999024V.029968262H.22599793C.19699097 .029968262 .17199707 .031967164 .17199707 .06600952V.4413452L.036987306 .43034364M.117996219 .6640625C.09098816 .6600647 .07699585 .6381378 .07699585 .61720278 .07699585 .5962677 .09298706 .5683594 .12399292 .5683594 .15499878 .5683594 .17399597 .5922699 .17399597 .6161957 .17399597 .63713076 .1579895 .66503909 .1269989 .66503909 .12399292 .6650543 .12098694 .6640625 .117996219 .6640625Z"/>
<path id="font_28_31" d="M.32099916 .4053955H.31999208C.29299928 .43040467 .25299073 .44140626 .21798706 .44140626 .14299011 .44140626 .05999756 .38938905 .05999756 .29638673 .05999756 .26338197 .07199097 .23039246 .09399414 .2053833 .09700012 .20237732 .101989749 .1973877 .101989749 .19238281 .101989749 .18737793 .09599304 .18138123 .09399414 .17738343 .08198547 .15737915 .07499695 .133255 .07499695 .11009216 .07499695 .07785034 .08898926 .039764406 .117996219 .023757935V.022750855C.07199097 .010757446 .026992798-.028213501 .026992798-.077178958 .026992798-.16812134 .1579895-.20410156 .24299622-.20410156 .32398988-.20410156 .46099855-.17510987 .46099855-.076187137 .46099855 .04675293 .33898927 .0647583 .25698854 .0647583H.17999268C.13598633 .0647583 .102996829 .08792114 .102996829 .13124085V.13526917C.10398865 .15238953 .11099243 .16638184 .11898804 .18138123 .147995 .16539002 .17399597 .15238953 .20698548 .15039063H.21499634C.2939911 .15039063 .36099244 .19935608 .37399293 .2842865V.29527284C.37399293 .32925416 .3619995 .3532257 .34399415 .38220216 .34098817 .38519288 .33799745 .38819886 .33799745 .39219667V.39318849C.34498597 .4151764 .40098573 .43115235 .4229889 .43115235 .42799378 .43115235 .43199159 .43115235 .43699647 .43016053 .42799378 .4251709 .42099 .4161682 .42099 .40518189 .42099 .39019776 .43399049 .37921144 .44799806 .37921144 .46398927 .37921144 .47399903 .39118959 .47399903 .4071808V.4121704C.46998597 .43515016 .44999696 .45214845 .42599488 .45214845 .3899994 .45214845 .34498597 .43615724 .32099916 .40518189V.4053955M.07598877-.08418274V-.076187137C.07598877-.04220581 .099990848-.009231567 .13198853 .003768921 .1459961 .008758545 .1619873 .009765625 .1769867 .009765625H.24499512C.31098939 .009765625 .40098573 .004760742 .4119873-.07118225V-.078186038C.4119873-.15412903 .30599977-.18310547 .24598694-.18310547 .1789856-.18310547 .085998538-.15612793 .07598877-.08418274M.12998963 .27638246V.28938294C.12998963 .33738709 .13699341 .4203949 .21598816 .4203949 .27999879 .4203949 .3039856 .35739137 .3039856 .2953949 .3039856 .25138856 .29599 .17237854 .21798706 .17237854 .15899658 .17237854 .13598633 .22138977 .12998963 .27638246Z"/>
<path id="font_28_4" d="M.041992189 .68359377V.6545563H.07398987C.10699463 .6545563 .13798523 .6505585 .13798523 .6125946 .13798523 .6055908 .13699341 .5995941 .13699341 .5935974V.07394409C.13699341 .034957887 .10699463 .02897644 .07699585 .02897644 .06498718 .02897644 .052993776 .029968262 .041992189 .029968262V.0009765625H.31399537C.33399964 .0009918213 .35398866 0 .375 0 .44898988 0 .5159912 .018981934 .57899478 .07295227 .6549988 .13990784 .69299319 .23883057 .69299319 .33877564 .69299319 .5106659 .58099368 .6845703 .37098695 .6845703 .34999085 .6845856 .32899476 .68359377 .30899049 .68359377H.041992189M.6009979 .29881288C.59298709 .18287659 .55799868 .077941898 .43099977 .037963869 .40098573 .029968262 .37098695 .029968262 .33999635 .029968262H.25498963C.23498535 .029968262 .21499634 .031967164 .21499634 .063949588 .21499634 .07194519 .21598816 .078933719 .21598816 .0859375V.5816498C.21598816 .5906372 .21499634 .6006317 .21499634 .6106262 .21499634 .63656619 .21499634 .6545563 .2619934 .6545563H.34799195C.41799928 .6545563 .48799134 .63957217 .5439911 .5666199 .59498599 .49865724 .60198977 .41171266 .60198977 .33076478 .60198977 .31977845 .60198977 .30978395 .6009979 .2987976V.29881288Z"/>
<path id="font_28_24" d="M.17399597 .01763916C.1749878 .0076293947 .1749878-.0023651124 .1749878-.012359619 .17199707-.068374637 .1499939-.12738037 .10998535-.16738892 .10598755-.17138672 .099990848-.17738343 .099990848-.18339539V-.18539429C.101989749-.19038391 .10598755-.19238281 .10899353-.19238281 .12298584-.19238281 .14698792-.15737915 .1579895-.13838196 .18099976-.09938049 .19599915-.051376344 .19599915-.0043640139 .19599915 .03364563 .18598938 .09765625 .1349945 .09765625 .10499573 .09765625 .08699036 .072647098 .08699036 .04763794 .08699036 .019638062 .10899353 .00064086916 .1349945 .00064086916 .15098572 .00064086916 .1639862 .0076293947 .17399597 .01763916Z"/>
<path id="font_28_11" d="M.040985109 .68359377V.6545868H.07398987C.10699463 .6545868 .13699341 .650589 .13699341 .61361697 .13699341 .60661318 .13598633 .60061648 .13598633 .59461978V.07394409C.13598633 .033966066 .10499573 .029968262 .07199097 .029968262H.040985109V.0009765625H.5439911L.56999209 .25683595H.5479889C.5379944 .16789246 .5299988 .06794739 .4139862 .036972047 .3849945 .029968262 .35598756 .029968262 .32598878 .029968262H.25299073C.23199463 .029968262 .21699524 .035964967 .21699524 .062942508V.61061099C.21699524 .64959719 .25299073 .6555786 .2889862 .6555786 .30599977 .6555786 .32299806 .6545868 .33599855 .6545868V.68359377H.040985109Z"/>
<path id="font_28_26" d="M.10598755 .23324585H.3919983C.4019928 .23324585 .40699769 .23724365 .40699769 .24725342 .40699769 .3502655 .35198976 .44628907 .23399353 .44628907 .11399841 .44628907 .0289917 .337265 .0289917 .22123719 .0289917 .13322449 .07598877 .044204713 .16299439 .0082092289 .18598938-.0018005371 .21099854-.0087890629 .23599243-.0087890629H.23899842C.31199647-.0087890629 .3829956 .035202028 .4039917 .10922241 .40499879 .11222839 .40699769 .1162262 .40699769 .120224 .40699769 .12522888 .40098573 .13023377 .3959961 .13023377 .38398744 .13023377 .3789978 .10322571 .37199403 .09022522 .34700013 .045211793 .2999878 .013198853 .24598694 .013198853 .20799256 .013198853 .17399597 .034210206 .1499939 .062210084 .10998535 .11022949 .10598755 .17323303 .10598755 .23324585M.10699463 .25224305C.10699463 .32826234 .14898682 .4262848 .23199463 .4262848 .31999208 .4262848 .34399415 .32325746 .34399415 .25224305H.10699463Z"/>
<path id="font_28_15" d="M.040985109 .68359377V.6545868H.07398987C.10699463 .6545868 .13699341 .650589 .13699341 .6136017 .13699341 .60661318 .13598633 .60061648 .13598633 .59461978V.07394409C.13598633 .033966066 .10499573 .029968262 .07199097 .029968262H.040985109V.0009765625H.31199647V.029968262H.2809906C.24198914 .029968262 .21699524 .032974245 .21699524 .07293701V.31877137H.4019928C.49699403 .32676698 .61099246 .38974 .61099246 .49768067V.5076752C.6029968 .6295929 .47099305 .6845703 .36698915 .6845703 .34799195 .6845856 .32899476 .68359377 .30999757 .68359377H.040985109M.21499634 .34277345V.6175995C.21499634 .6435852 .22499085 .6545868 .2519989 .6545868H.32699586C.4119873 .6545868 .5179901 .647583 .5179901 .49768067 .5179901 .46369935 .5139923 .42471314 .49198915 .39672853 .45700074 .35075379 .39898683 .34277345 .34599305 .34277345H.21499634Z"/>
<path id="font_28_28" d="M.10899353 .43066407H.0309906V.4016571H.10899353V.06793213C.10899353 .032958986 .07998657 .029968262 .049987794 .029968262H.032989503V.0009765625H.2669983V.029968262H.23599243C.19599915 .029968262 .17199707 .032958986 .17199707 .075927738V.4016571H.2849884V.43066407H.16999817V.5258026C.16999817 .55885317 .16999817 .5908966 .18299866 .62194827 .19599915 .6519928 .22099304 .68403628 .2559967 .68504336 .2689972 .68504336 .2809906 .68203738 .29299928 .6770325 .2769928 .6700134 .2630005 .66000369 .2630005 .63797 .2630005 .6159363 .2789917 .59791567 .3019867 .59791567 .32899476 .59791567 .34298707 .61694338 .34298707 .63897708 .34298707 .6830292 .29699708 .7050781 .25898744 .7050781 .19299317 .7050781 .13598633 .6609955 .115997318 .59991458 .10998535 .57987979 .10899353 .559845 .10899353 .53881838V.43066407Z"/>
<path id="font_28_39" d="M.22999573 .44628907C.12298584 .4362793 .0289917 .34326173 .0289917 .21624756 .0289917 .10221863 .11299133-.0087890629 .24499512-.0087890629 .36499024-.0087890629 .45899964 .097213748 .45899964 .2142334 .45899964 .32624818 .37599183 .44726563 .24299622 .44726563 .23899842 .44728089 .23399353 .44628907 .22999573 .44628907M.10598755 .1932373C.10499573 .20123291 .10499573 .20924378 .10499573 .21723938 .10499573 .28625489 .11199951 .37727357 .18899536 .41326905 .20599365 .42126466 .22499085 .42526246 .24299622 .42526246 .2809906 .42526246 .31799317 .40826417 .34298707 .37825013 .37799073 .33724977 .38198854 .28123475 .38198854 .22923279 .38198854 .17321778 .3809967 .10922241 .34298707 .062210084 .31799317 .031204224 .2809906 .013198853 .24299622 .013198853 .1599884 .013198853 .116989139 .08821106 .10899353 .16221619 .10699463 .17222595 .10699463 .18322754 .10598755 .19322205V.1932373Z"/>
<path id="font_28_36" d="M.03199768 .43040467V.40138246H.050994874C.07998657 .40138246 .10798645 .39736939 .10798645 .35131837V.072021488C.10798645 .034973146 .08898926 .029968262 .03199768 .029968262V.0009765625H.24899292V.029968262H.22599793C.19699097 .029968262 .17298889 .033966066 .17298889 .071014408V.25421144C.17298889 .32328797 .20799256 .42140199 .30599977 .42140199 .36698915 .42140199 .37998963 .3623352 .37998963 .30326844V.06800842C.37998963 .032974245 .35099793 .029968262 .32099916 .029968262H.3039856V.0009765625H.5209961V.029968262H.49798585C.46899415 .029968262 .44499208 .033966066 .44499208 .071014408V.25421144C.44499208 .32328797 .47999574 .42140199 .5779877 .42140199 .6389923 .42140199 .6519928 .3623352 .6519928 .30326844V.06800842C.6519928 .032974245 .6230011 .029968262 .59298709 .029968262H.57598879V.0009765625H.79299929V.029968262H.769989C.7429962 .029968262 .71699526 .030975342 .71699526 .0690155V.29626466C.71699526 .32730104 .71598818 .3583374 .69999697 .3863678 .6769867 .42739869 .6299896 .44140626 .58499148 .44140626 .5239868 .44140626 .46099855 .40338136 .44299317 .3433075H.44198609C.43499757 .41238404 .37399293 .44140626 .30799867 .44140626 .24598694 .44140626 .18499756 .39537049 .16899109 .3383026L.16799927 .44140626 .03199768 .43040467Z"/>
<path id="font_28_23" d="M.36099244 .37226869C.35798646 .37226869 .35598756 .37327577 .35299684 .37327577 .32998658 .37327577 .31199647 .3542633 .31199647 .3312683 .31199647 .30625917 .33099366 .28926087 .35299684 .28926087 .37599183 .28926087 .3959961 .30526734 .3959961 .33226014 .3959961 .41427613 .30599977 .44628907 .24198914 .44628907 .12098694 .44628907 .034988405 .3332672 .034988405 .21723938 .034988405 .10221863 .12098694-.0087890629 .24499512-.0087890629 .31199647-.0087890629 .37098695 .02720642 .3999939 .096221927 .4019928 .10221863 .4059906 .11122131 .4059906 .11921692V.12322998C.40499879 .12722779 .40098573 .12922669 .39698792 .12922669 .38198854 .12922669 .38198854 .114227298 .3789978 .10421753 .3600006 .051208497 .30899049 .013198853 .25299073 .013198853 .14698792 .013198853 .11199951 .13223267 .11199951 .21524048 .11199951 .29725648 .13798523 .4242859 .25 .4242859 .2899933 .4242859 .33699037 .40628053 .36099244 .37226869Z"/>
<path id="font_28_12" d="M.04399109 .68359377V.6545868H.07699585C.10998535 .6545868 .13999939 .650589 .13999939 .61361697 .13999939 .60661318 .13899231 .60061648 .13899231 .59461978V.10092163C.13899231 .036972047 .085998538 .029968262 .04399109 .029968262V.0009765625H.2579956V.029968262C.21199036 .029968262 .16299439 .038970949 .16299439 .10592651L.1639862 .650589C.16899109 .63360598 .1769867 .61660769 .18299866 .59962466 .24099732 .4507141 .29599 .3027954 .35299684 .15390015L.397995 .036972047C.4019928 .023971558 .4059906 .003967285 .42099 .0009765625H.42199708C.43699647 .0009765625 .44099427 .023971558 .44499208 .034973146L.621994 .49668885C.6349945 .531662 .647995 .56663516 .6619873 .60162356L.673996 .6345978C.6769867 .64160159 .6799927 .6485901 .6819916 .6565857L.68299868 .09692383C.68299868 .08892822 .6839905 .079940799 .6839905 .07194519 .6839905 .033966066 .6529999 .02897644 .621994 .02897644 .6100006 .02897644 .59799197 .029968262 .58799746 .029968262V.0009765625H.85198977V.029968262H.81999209C.7869873 .029968262 .7559967 .033966066 .7559967 .07194519 .7559967 .078933719 .7569885 .08493042 .7569885 .090927127V.61061099C.7569885 .64959719 .7869873 .6555786 .81700137 .6555786 .82899478 .6555786 .84098818 .6545868 .85198977 .6545868V.68359377H.69200137L.6749878 .68058779 .6549988 .63760378 .44898988 .09692383H.44699098L.24099732 .63760378 .22099304 .68058779 .20399475 .68359377H.04399109Z"/>
<path id="font_28_16" d="M.040985109 .68359377V.6545868H.07398987C.10699463 .6545868 .13699341 .650589 .13699341 .61364749 .13699341 .60665896 .13598633 .60066226 .13598633 .5946655V.07397461C.13598633 .033966066 .10499573 .029968262 .07199097 .029968262H.040985109V.0009765625H.30999757V.029968262H.2789917C.23999024 .029968262 .21499634 .032974245 .21499634 .07296753V.3330078H.32398988C.37998963 .3330078 .42199708 .31500245 .45098878 .2709961 .46699525 .24499512 .46798707 .21699524 .46798707 .18798828V.13998413C.46798707 .08097839 .47698976-.0065460207 .6139984-.01953125H.6230011C.68299868-.01953125 .71598818 .033966066 .71598818 .0869751 .71598818 .0929718 .71598818 .10298157 .70599368 .10298157 .69099429 .10298157 .69299319 .07698059 .69099429 .064971927 .68499758 .033966066 .6619873 .00045776368 .6279907 .00045776368 .57299807 .00045776368 .56599429 .07698059 .56199648 .115982059 .5509949 .19798279 .5519867 .272995 .47299195 .32000733 .45700074 .32899476 .43899537 .33700563 .42099 .34100343 .48599244 .36198426 .5970001 .39593507 .5970001 .50180056 .5970001 .6236267 .45599366 .67858889 .35499574 .68359377H.040985109M.21499634 .35299684V.61763C.21499634 .64360049 .22499085 .6545868 .25099183 .6545868H.32398988C.40899659 .6545868 .5039978 .63061526 .5039978 .50180056 .5039978 .4209137 .45599366 .37297059 .3789978 .35699464 .35299684 .35299684 .32798768 .35299684 .3019867 .35299684H.21499634Z"/>
<path id="font_28_46" d="M.28399659 .4152832C.2559967 .4382782 .22299195 .44628907 .18798828 .44628907 .115997318 .44628907 .032989503 .41827394 .032989503 .32226563V.31326295C.069992069 .14523316 .30699159 .24824524 .30699159 .10122681 .30699159 .039215089 .25099183 .011199951 .19799805 .011199951 .09799194 .011199951 .07299805 .09222412 .055999757 .16122437 .053985597 .16723633 .050994874 .17222595 .04399109 .17222595 .034988405 .17222595 .032989503 .16523743 .032989503 .15823365V.0032043458C.032989503-.0018005371 .034988405-.0087890629 .042999269-.0087890629 .05999756-.0087890629 .07398987 .034210206 .084991458 .034210206H.085998538C.09298706 .032211305 .09799194 .02420044 .10398865 .019210816 .1309967-.00079345706 .16299439-.0087890629 .19699097-.0087890629 .2709961-.0087890629 .35299684 .028213501 .35299684 .1282196 .35299684 .1872406 .30599977 .24024964 .25099183 .25724793 .19699097 .27424623 .07798767 .2702484 .07798767 .35125733 .07798767 .40827943 .13798523 .4282837 .18499756 .4282837 .24299622 .4282837 .30599977 .39727784 .30599977 .31225587 .30599977 .30325318 .30699159 .2962494 .31799317 .2962494 .32598878 .2962494 .32798768 .30226136 .32798768 .30924989V.4342804C.32798768 .43928529 .32499696 .44628907 .31900025 .44628907 .30599977 .44628907 .2899933 .42227174 .28399659 .4152832Z"/>
<path id="font_28_35" d="M.032989503 .68429568V.6552887H.050994874C.08299255 .6552887 .10899353 .6512909 .10899353 .6042633V.07098389C.10899353 .033966066 .08299255 .029968262 .054992677 .029968262H.032989503V.0009765625H.24798584V.029968262H.22399903C.19499207 .029968262 .17199707 .032974245 .17199707 .068984989V.6953125L.032989503 .68429568Z"/>
<path id="font_28_17" d="M.11099243 .0544281C.15699768 .0034637452 .22499085-.01953125 .2939911-.01953125 .397995-.01953125 .4889984 .063430789 .4889984 .18435669 .4889984 .2662964 .43998719 .35523988 .35699464 .38023377 .24598694 .413208 .11999512 .4122162 .11199951 .5381317V.5461273C.11199951 .62008669 .1769867 .67803958 .24899292 .67803958 .34399415 .67803958 .41600038 .611084 .43598939 .49516297 .43798829 .48316957 .43399049 .45718385 .45098878 .45718385 .45999146 .45718385 .46199037 .46318055 .46199037 .47016908V.6960449C.46099855 .70106509 .45799256 .70407107 .45298768 .7050781 .43798829 .7050781 .41999818 .65509036 .4039917 .6311035 .37399293 .6800537 .3039856 .7060547 .24798584 .7060547 .1459961 .7060547 .053985597 .6260834 .053985597 .5141449 .053985597 .43719483 .101989749 .36523438 .17399597 .33724977 .19099427 .33026124 .20799256 .32725526 .22499085 .32226563L.29599 .3052826C.36299134 .28929139 .43099977 .25730897 .43099977 .15237427 .43099977 .08241272 .3769989 .015457153 .30599977 .009460449H.29699708C.19699097 .009460449 .09899902 .061431886 .07899475 .17835999 .07798767 .18835449 .07699585 .19734192 .07598877 .20733643V.22033692C.07499695 .22532654 .069992069 .22831726 .06498718 .22831726 .054992677 .22831726 .053985597 .22233582 .053985597 .21533203V-.0045318605C.053985597-.009536743 .054992677-.01953125 .06298828-.01953125 .07798767-.01953125 .10798645 .048431398 .11099243 .0544281Z"/>
<path id="font_28_56" d="M.017990113 .43066407V.4016571H.036987306C.09199524 .4016571 .09799194 .3646698 .12098694 .30769349 .1579895 .21572876 .19499207 .12176514 .23399353 .029785157 .23799134 .02178955 .24398804 .008804321 .24398804 .0018005371V-.0021972657C.23999024-.027191163 .22299195-.059173585 .21299744-.0791626 .19400025-.12416077 .16499329-.18313599 .10798645-.18313599 .08699036-.18313599 .07598877-.1741333 .057998659-.16514588V-.1641388C.07899475-.1621399 .09498596-.14814759 .09498596-.12615967 .09498596-.105163577 .07998657-.08816528 .057998659-.08816528 .035995485-.08816528 .018997193-.10316467 .018997193-.12615967 .018997193-.1761322 .06599426-.203125 .10699463-.203125 .20599365-.203125 .24299622-.06517029 .2689972-.0011901856L.3769989 .26271058C.4019928 .32469178 .4169922 .40066529 .49798585 .4016571V.43066407H.34199525V.4016571C.36499024 .40066529 .3869934 .3866577 .3880005 .36167909 .3880005 .3416748 .3769989 .3236847 .36999513 .3046875 .33799745 .23171997 .31098939 .15774536 .27999879 .08477783 .23999024 .17173767 .20899964 .26470948 .16999817 .3526764 .16799927 .35968019 .16299439 .3666687 .16299439 .3746643 .16299439 .40066529 .19699097 .4016571 .21798706 .4016571V.43066407H.017990113Z"/>
<path id="font_28_32" d="M.03199768 .6843109V.6553192H.049987794C.08198547 .6553192 .10798645 .6513214 .10798645 .6053314V.071014408C.10798645 .033966066 .08198547 .029968262 .053985597 .029968262H.03199768V.0009765625H.24899292V.029968262H.22599793C.19699097 .029968262 .17298889 .033966066 .17298889 .071014408V.25421144C.17298889 .32328797 .20799256 .42140199 .30599977 .42140199 .36698915 .42140199 .37998963 .3623352 .37998963 .30326844V.06800842C.37998963 .032974245 .35099793 .029968262 .32099916 .029968262H.3039856V.0009765625H.5209961V.029968262H.49798585C.47099305 .029968262 .44499208 .030975342 .44499208 .0690155V.29626466C.44499208 .32829286 .44400025 .3603363 .4269867 .3883667 .4039917 .42840577 .35699464 .44140626 .31298829 .44140626 .2519989 .44140626 .18998719 .40438844 .17199707 .34532167L.17098999 .6953125 .03199768 .6843109Z"/>
<path id="font_29_8" d="M.04699707 .68359377V.6555786H.07199097C.10499573 .6555786 .13598633 .65159609 .13598633 .61460879 .13598633 .60762026 .1349945 .60061648 .1349945 .59461978V.090927127C.1349945 .08493042 .13598633 .076934818 .13598633 .06994629 .13598633 .032958986 .10499573 .02897644 .07398987 .02897644H.04699707V.0009765625H.5289917L.55400088 .25582887H.5339966C.526001 .17088318 .5189972 .064941409 .39898683 .034957887 .37199403 .02897644 .34399415 .02897644 .31599427 .02897644H.24299622C.22299195 .02897644 .20698548 .033966066 .20698548 .060943605 .20698548 .06694031 .20799256 .07394409 .20799256 .078933719V.59562686C.20799256 .60162356 .20698548 .60762026 .20698548 .61361697 .20698548 .650589 .24198914 .6565857 .2769928 .6565857 .29100038 .6565857 .30499269 .6555786 .31698609 .6555786V.68359377H.04699707Z"/>
<path id="font_29_23" d="M.100997928 .23524475H.38198854C.3919983 .23524475 .3959961 .23825073 .3959961 .24824524 .3959961 .3422699 .34899903 .4453125 .22898865 .4453125 .10899353 .4453125 .0309906 .3322754 .0309906 .22123719 .0309906 .114212039 .100997928-.0008239746 .22799683-.0078125H.23399353C.3039856-.0078125 .37298585 .03819275 .3929901 .10820007 .3939972 .111206058 .3959961 .11520386 .3959961 .11921692 .3959961 .12321472 .3909912 .1282196 .3869934 .1282196 .37298585 .1282196 .36799623 .096206668 .35899354 .08119202 .33599855 .04118347 .29100038 .012176514 .24398804 .012176514H.23799134C.20999146 .014175415 .18499756 .025177002 .16299439 .043182374 .10598755 .0901947 .100997928 .16722107 .100997928 .23524475M.101989749 .25224305C.101989749 .3282776 .14099121 .42630006 .22499085 .42630006 .31199647 .42630006 .33699037 .32626344 .33699037 .25224305H.101989749Z"/>
<path id="font_29_19" d="M.09899902 .35827638C.116989139 .399292 .1639862 .42730714 .20899964 .42730714 .2829895 .42730714 .31498719 .35627748 .31498719 .29125978V.25724793C.21099854 .25724793 .07899475 .23223877 .04699707 .12121582 .04499817 .112213138 .04399109 .10321045 .04399109 .09320068V.0861969C.049987794 .018173218 .1309967-.0078125 .18598938-.0078125 .24099732-.0078125 .2979889 .019180298 .31999208 .079193118H.32099916C.32099916 .03718567 .35099793-.0038146973 .394989-.0038146973 .43499757-.0038146973 .46598817 .031188965 .46998597 .07319641V.14620972H.44999696V.095199588C.44999696 .06619263 .44400025 .02218628 .41099549 .02218628 .37799073 .02218628 .37098695 .06518555 .37098695 .0921936 .37098695 .10321045 .37199403 .113204959 .37199403 .12321472V.29325868C.37199403 .3902893 .29599 .4453125 .21398926 .4453125 .1579895 .4453125 .101989749 .41729737 .07798767 .36128236 .07398987 .35028077 .069992069 .3362732 .069992069 .3232727 .069992069 .29826356 .08898926 .28025819 .11099243 .28025819 .13198853 .28025819 .1499939 .29826356 .1499939 .3192749 .1499939 .34127809 .13398743 .35928346 .10899353 .35928346 .10499573 .35928346 .101989749 .35928346 .09899902 .35827638M.31498719 .24024964V.1412201C.31498719 .07620239 .27198792 .012176514 .20199585 .010177612H.19799805C.1539917 .010177612 .10998535 .044189454 .10998535 .09420776 .10998535 .19822693 .22698975 .24024964 .31498719 .24024964Z"/>
<path id="font_29_39" d="M.033996583 .42941285V.40138246H.04899597C.07699585 .40138246 .10398865 .39837647 .10398865 .35131837V.06300354C.10398865 .030975342 .07699585 .02897644 .04798889 .02897644H.033996583V.0009765625H.24598694V.02897644C.23599243 .02897644 .22499085 .02796936 .21499634 .02796936 .18598938 .02796936 .15899658 .032974245 .15899658 .070007327V.15110779C.15899658 .1721344 .1579895 .19314575 .1579895 .21417237 .1579895 .29426576 .1769867 .42140199 .27398683 .42140199 .27999879 .42140199 .2869873 .42140199 .29299928 .4203949V.41940309C.2789917 .4143982 .2689972 .40037538 .2689972 .38536073 .2689972 .36634828 .28399659 .34732057 .30699159 .34732057 .32899476 .34732057 .34298707 .3673401 .34298707 .38435365 .34298707 .4203949 .30799867 .4404297 .2749939 .4404297 .21199036 .4404297 .16899109 .38336183 .1559906 .32829286L.15499878 .4404297 .033996583 .42941285Z"/>
<path id="font_29_31" d="M.037994386 .42941285V.40138246H.052993776C.08099365 .40138246 .10798645 .39837647 .10798645 .35131837V.06300354C.10798645 .031967164 .08198547 .02897644 .056991579 .02897644H.037994386V.0009765625H.23498535V.02897644H.21798706C.18998719 .02897644 .16499329 .031967164 .16499329 .06401062V.2572174C.16499329 .32530213 .19799805 .42240907 .2939911 .42240907 .35198976 .42240907 .37098695 .37135316 .37098695 .3042755V.06600952C.37098695 .031967164 .34498597 .02897644 .31698609 .02897644H.30099488V.0009765625H.49798585V.02897644H.47499085C.45298768 .02897644 .43199159 .031967164 .42799378 .055999757V.29226686C.42799378 .32629396 .4269867 .36134339 .40899659 .3903656 .38598634 .42941285 .33999635 .4404297 .29699708 .4404297 .23599243 .4404297 .1749878 .39337159 .1619873 .3363037L.16099549 .4404297 .10798645 .4354248 .037994386 .42941285Z"/>
<path id="font_28_3" d="M.5799866 .6141052C.5309906 .66807559 .47200013 .7050781 .3959961 .7050781 .20098877 .7050781 .053985597 .5321655 .053985597 .3422699 .053985597 .15338135 .19898987-.01953125 .394989-.01953125H.4099884C.5329895-.0115356449 .6389923 .08441162 .651001 .22033692 .6519928 .2253418 .6519928 .2293396 .6519928 .23432923 .6519928 .24232483 .651001 .2513275 .6409912 .2513275 .625 .2513275 .6299896 .2193451 .6259918 .2023468 .6100006 .09941101 .5209961 .009460449 .40899659 .009460449 .33499146 .009460449 .2619934 .046432496 .21499634 .104400638 .1599884 .17137146 .14698792 .26531983 .14698792 .3482666 .14698792 .41122438 .1559906 .4801941 .18699646 .53715518 .22999573 .618103 .31298829 .67607119 .4079895 .67607119 .5349884 .67607119 .6029968 .5541382 .621994 .45021058 .6230011 .44021607 .62098696 .42121888 .6380005 .42121888 .6489868 .42121888 .6519928 .42622376 .6519928 .43421937V.69306948C.6519928 .69906619 .6489868 .7050781 .6419983 .7050781 .6339874 .7050781 .6289978 .69407656 .625 .6880646L.5970001 .6430969C.59098818 .6331024 .58499148 .62409976 .5799866 .6141052Z"/>
<path id="font_28_19" d="M.017990113 .68359377V.6545868H.038986207C.06098938 .6545868 .08299255 .6525879 .09700012 .63960269 .10899353 .62661746 .11399841 .60565188 .12098694 .5886688L.15699768 .49279786C.21699524 .3350067 .27598573 .17720032 .33699037 .02041626L.34498597-.0015563965C.34899903-.012542725 .35398866-.01953125 .36698915-.01953125 .3869934-.01953125 .3899994 .004425049 .3959961 .01940918 .46499635 .20417786 .5399933 .38793946 .60598757 .5726929 .621994 .6126404 .6399994 .6545868 .71499636 .6545868V.68359377H.5219879V.6545868C.54299929 .6545868 .56199648 .64759829 .57699587 .63261416L.58299258 .6236267C.58599856 .6186371 .58699038 .6126404 .58699038 .60765078 .58699038 .5946655 .5799866 .5816803 .57598879 .56869509L.5569916 .51976016C.5089874 .39292909 .46199037 .26509095 .4119873 .13925171 .4059906 .12327576 .40098573 .107299808 .3939972 .092315677 .32798768 .2541046 .2669983 .42088319 .20599365 .5856781L.19599915 .61164858C.19400025 .6156311 .19299317 .620636 .19299317 .6256256V.62861636C.19799805 .6545868 .24099732 .6545868 .2669983 .6545868V.68359377H.017990113Z"/>
<path id="font_30_1" d="M.11999512 .072265628C.099990848 .068237308 .09098816 .05317688 .09098816 .037109376 .09098816 .020050049 .102996829 .0009765625 .125 .0009765625 .1459961 .0009765625 .16099549 .018035889 .16099549 .037109376 .16099549 .0541687 .14898682 .07324219 .1269989 .07324219 .125 .07325745 .12199402 .072265628 .11999512 .072265628Z"/>
<path id="font_28_6" d="M.040985109 .6816406V.65263369H.07199097C.10598755 .65263369 .13699341 .64863589 .13699341 .6127014 .13699341 .6067047 .13598633 .5997162 .13598633 .59373477V.07398987C.13598633 .033966066 .10499573 .029968262 .07199097 .029968262H.040985109V.0009765625H.33599855V.029968262C.32299806 .029968262 .30799867 .02897644 .2919922 .02897644 .24398804 .02897644 .21699524 .033966066 .21699524 .07699585V.32714845H.30099488C.35398866 .32714845 .4099884 .32313539 .4099884 .22808838V.21006775H.43199159V.47294618H.4099884V.4549713C.4099884 .38009645 .3829956 .35614015 .28599549 .35614015H.21699524V.6166992C.21699524 .6446533 .22898865 .65263369 .2559967 .65263369H.37199403C.42799378 .65263369 .49598695 .65164187 .5339966 .603714 .5649872 .56378176 .56900027 .50787356 .57499697 .45896913H.5970001L.57099917 .6816406H.040985109Z"/>
<path id="font_28_55" d="M.017990113 .43066407V.4016571H.03199768C.084991458 .4016571 .09098816 .3677063 .11199951 .30178834 .14399719 .20591736 .1789856 .11204529 .21299744 .017166138 .21699524 .0071868898 .21899414-.007797241 .23298645-.0087890629 .24699402-.0087890629 .25 .003189087 .2539978 .014175415L.2809906 .08908081C.3039856 .1559906 .32598878 .2268982 .35299684 .2928009 .36999513 .25186158 .3829956 .20890808 .397995 .16697693L.45199586 .014175415C.45599366 .003189087 .45899964-.0087890629 .47299195-.0087890629 .48599244-.007797241 .4889984 .0061798098 .49299623 .016174317 .5269928 .11703491 .5649872 .21789551 .598999 .31776429 .6159973 .36669923 .6380005 .3996582 .6879883 .4016571V.43066407H.5289917V.4016571C.5549927 .40066529 .58599856 .38368226 .58599856 .3557129 .58599856 .3337555 .56999209 .29978944 .55999758 .27383424 .5369873 .20791626 .5099945 .14199829 .48999024 .0750885H.4889984C.48298646 .09906006 .47200013 .122024539 .46499635 .14500427 .44099427 .21391297 .4139862 .28282167 .3919983 .35272218 .3889923 .3597107 .38598634 .3677063 .38598634 .37568666V.37968446C.3919983 .40066529 .4189911 .4016571 .43798829 .4016571H.44299317V.43066407H.25498963V.4016571H.2689972C.30699159 .4016571 .32099916 .38967896 .33198548 .35272218 .33499146 .34573365 .33999635 .33573915 .33999635 .3277588V.3257599C.33898927 .31677247 .33399964 .30677796 .33099366 .2987976L.31298829 .24786377C.2939911 .19393921 .27398683 .13999939 .2559967 .08607483 .24398804 .11103821 .23599243 .13999939 .22698975 .16697693L.16099549 .35272218C.15899658 .3597107 .15499878 .3677063 .15499878 .37469483 .15499878 .3996582 .19099427 .4016571 .21199036 .4016571V.43066407H.017990113Z"/>
<path id="font_28_14" d="M.36299134 .7050781C.19599915 .6890869 .053985597 .54615786 .053985597 .340271 .053985597 .17736817 .1659851-.01953125 .38198854-.01953125 .57598879-.01953125 .7049866 .16137696 .7049866 .34127809 .7049866 .5201416 .5779877 .7060547 .3789978 .7060547 .37298585 .70606997 .36799623 .7050781 .36299134 .7050781M.14698792 .32928468V.3462677C.14698792 .46420289 .17298889 .59313967 .2899933 .6600952 .31698609 .674057 .34700013 .68304446 .37799073 .68304446 .46699525 .68304446 .5369873 .6230774 .57699587 .5421295 .60398867 .48616029 .61299136 .4202118 .61299136 .35923768 .61299136 .23031616 .5779877 .047439577 .42099 .008453369 .4079895 .0054626467 .3939972 .0034637452 .37998963 .0034637452 .24099732 .0034637452 .16699219 .15237427 .1519928 .27130128 .1499939 .2902832 .14898682 .31027223 .14698792 .3292694V.32928468Z"/>
<path id="font_28_8" d="M.040985109 .68359377V.6545868H.07299805C.10598755 .6545868 .13699341 .650589 .13699341 .61260989 .13699341 .60562136 .13598633 .59962466 .13598633 .5936279V.07394409C.13598633 .034973146 .10598755 .02897644 .07598877 .02897644 .06399536 .02897644 .051986696 .029968262 .040985109 .029968262V.0009765625H.31199647V.029968262C.2999878 .029968262 .28799439 .02897644 .27598573 .02897644 .24398804 .02897644 .21699524 .034973146 .21699524 .07394409V.34179688H.5159912V.07394409C.5159912 .031967164 .48999024 .029968262 .42099 .029968262V.0009765625H.69200137V.029968262H.6599884C.6269989 .029968262 .59599307 .033966066 .59599307 .07194519 .59599307 .078933719 .5970001 .08493042 .5970001 .090927127V.61061099C.5970001 .64959719 .6269989 .6555786 .6569977 .6555786 .6689911 .6555786 .68099978 .6545868 .69200137 .6545868V.68359377H.42099V.6545868C.43299867 .6545868 .44499208 .6555786 .45599366 .6555786 .4889984 .6555786 .5159912 .650589 .5159912 .61161807V.37078858H.21699524V.61161807C.21699524 .6525879 .25 .6545868 .2939911 .6545868H.31199647V.68359377H.040985109Z"/>
<path id="font_31_2" d="M.20399475 0C.43699647 0 .7659912 .17791748 .7659912 .45072938 .7659912 .53967288 .723999 .59562686 .6749878 .62661746 .58898928 .6826172 .49699403 .6826172 .4019928 .6826172 .31599427 .6826172 .25698854 .6826172 .17298889 .64660647 .039993287 .5876312 .020996094 .50468447 .020996094 .4967041 .020996094 .4907074 .024993897 .4887085 .0309906 .4887085 .04699707 .4887085 .069992069 .50268557 .07798767 .5076904 .09899902 .52168276 .101989749 .52767947 .10798645 .5466614 .12199402 .5866394 .1499939 .62161257 .27598573 .62760928 .2599945 .41874696 .20899964 .22787476 .13899231 .052993776 .101989749 .039993287 .07798767 .016998291 .07798767 .0069885256 .07798767 .0009918213 .07899475 0 .100997928 0H.20399475M.20899964 .054992677C.32299806 .33380128 .34399415 .5076904 .35798646 .62760928 .4249878 .62760928 .68099978 .62760928 .68099978 .40776063 .68099978 .21188355 .5049896 .054992677 .2630005 .054992677H.20899964Z"/>
<path id="font_32_7" d="M.15499878 .6152344C.15499878 .5443878 .12098694 .42565919 .019989014 .42565919V.3976593H.10899353V.1400299C.10899353 .108078 .11099243 .0761261 .12799073 .048171998 .1519928 .0072021486 .20199585-.0087890629 .24798584-.0087890629 .33198548-.0087890629 .35299684 .0801239 .35299684 .14602661V.18197632H.32199098C.32199098 .16798401 .32299806 .15400696 .32299806 .1400299 .32299806 .09609985 .31199647 .022201539 .25299073 .022201539 .19898987 .022201539 .18598938 .0801239 .18598938 .13005066V.3976593H.33499146V.43066407H.18598938V.6152344H.15499878Z"/>
<path id="font_32_5" d="M.033996583 .43040467V.39736939H.049987794C.07998657 .39736939 .10998535 .39437867 .10998535 .3473053V.07595825C.10998535 .03489685 .083999637 .03390503 .033996583 .03390503V.0009765625L.09399414 .00390625H.20799256L.2789917 .0009765625V.03390503C.2679901 .03390503 .2559967 .03289795 .24398804 .03289795 .21199036 .03289795 .18399048 .037902833 .18399048 .07394409V.24217224C.18399048 .31326295 .22299195 .4133911 .30999757 .4133911 .2999878 .40338136 .2939911 .3903656 .2939911 .37734986 .2939911 .34931947 .31698609 .33229066 .33999635 .33229066 .36499024 .33229066 .38398744 .35231019 .38398744 .37734986 .38398744 .4203949 .34199525 .44140626 .30499269 .44140626 .24798584 .44140626 .18899536 .3883667 .17799378 .33628846L.1769867 .44140626 .1269989 .4373932 .033996583 .43040467Z"/>
<path id="font_32_1" d="M.13398743 .39326478V.39427186C.1659851 .40927125 .19400025 .41827394 .23098755 .41827394 .29899598 .41827394 .34399415 .36724855 .34399415 .29022218V.26719667C.21998596 .26719667 .04399109 .22720337 .04399109 .10220337 .04399109 .018203736 .14498902-.0087890629 .20999146-.0087890629 .2659912-.0087890629 .32798768 .016204834 .35398866 .07220459H.35499574C.35499574 .030197144 .3899994-.0037994385 .43099977-.0037994385 .48199464-.0037994385 .5239868 .034210206 .5239868 .08720398V.14620972H.49299623V.09719849C.49299623 .07119751 .48799134 .034210206 .45700074 .034210206 .4249878 .034210206 .42099 .07119751 .42099 .09320068V.26119996C.42099 .27320863 .42199708 .2862091 .42199708 .29821778 .42199708 .39826966 .31900025 .44628907 .23199463 .44628907 .17799378 .44628907 .07699585 .4302826 .07699585 .35025025 .07699585 .3282318 .08999634 .30122376 .11999512 .30122376 .1519928 .30122376 .17098999 .3222351 .17098999 .34825135 .17098999 .36825563 .15899658 .3882599 .13398743 .39326478M.34399415 .24121094V.14320374C.34399415 .07319641 .29100038 .019210816 .22200012 .019210816 .1769867 .019210816 .12998963 .050201417 .12599182 .09719849V.10119629C.12599182 .21020508 .26098634 .23620606 .34399415 .24121094Z"/>
<path id="font_32_3" d="M.04499817 .4295807V.39660646H.06098938C.09298706 .39660646 .116989139 .390625 .116989139 .34765626V.0758667C.116989139 .03489685 .09098816 .03390503 .040985109 .03390503V.0009765625L.101989749 .00390625H.20298767L.25898744 .0009765625V.03390503H.24499512C.21598816 .03390503 .19099427 .03590393 .19099427 .069869998V.44058229L.1539917 .43759156 .04499817 .4295807M.1309967 .67089846C.100997928 .6668854 .08299255 .6408081 .08299255 .6157379 .08299255 .5886688 .10499573 .56059268 .13699341 .56059268 .17098999 .56059268 .19400025 .58766177 .19400025 .616745 .19400025 .6437988 .17199707 .671875 .13999939 .671875 .13699341 .67189028 .13398743 .67089846 .1309967 .67089846Z"/>
<path id="font_32_4" d="M.039993287 .43040467V.39736939H.05899048C.08799744 .39736939 .115997318 .39337159 .115997318 .3473053V.07595825C.115997318 .03489685 .08999634 .03390503 .039993287 .03390503V.0009765625L.100997928 .00390625H.20599365L.2689972 .0009765625V.03390503H.24798584C.21699524 .03390503 .19299317 .036895753 .19299317 .07495117V.25920106C.19299317 .33329774 .24198914 .4133911 .33799745 .4133911 .394989 .4133911 .4099884 .36332704 .4099884 .30325318V.07194519C.4099884 .036895753 .3829956 .03390503 .35398866 .03390503H.33399964V.0009765625L.39698792 .00390625H.5019989L.5629883 .0009765625V.03390503H.54299929C.5139923 .03390503 .4869995 .036895753 .4869995 .07295227V.28622438C.4869995 .3192749 .48599244 .35331727 .46998597 .38435365 .44499208 .42840577 .3929901 .44140626 .34599305 .44140626 .2849884 .44140626 .20899964 .40838624 .18699646 .3453064L.18598938 .44140626 .14898682 .43840028 .039993287 .43040467Z"/>
<path id="font_28_25" d="M.2999878 .6843109V.6553192H.31199647C.35198976 .6553192 .37599183 .6533203 .37599183 .593338V.3783722C.34399415 .41740418 .30099488 .44140626 .25 .44140626 .12799073 .44140626 .034988405 .33535768 .034988405 .21530152 .034988405 .10925293 .11099243-.0087890629 .24099732-.0087890629 .29499818-.0087890629 .33299256 .014205933 .37399293 .05921936V-.0087890629L.5149994 .0012054443V.030212403H.49899293C.46899415 .030212403 .43899537 .033218385 .43899537 .08023071V.6953125L.2999878 .6843109M.11199951 .19229126V.20729065C.11199951 .28033448 .12098694 .35636903 .18998719 .40238954 .20999146 .4143982 .23199463 .4203949 .2539978 .4203949 .3039856 .4203949 .375 .38038636 .375 .3173523 .375 .30433656 .37399293 .29133607 .37399293 .27833558V.11325073C.37399293 .056228639 .29499818 .011199951 .24598694 .011199951 .17199707 .011199951 .125 .08123779 .115997318 .15327454 .11399841 .16627503 .11399841 .17929077 .11199951 .19229126Z"/>
</defs>
<path transform="matrix(1,0,0,-1,.74559786,329.1952)" d="M0 0V267.851C0 269.502 1.338 270.84 2.989 270.84H195.438C197.089 270.84 198.427 269.502 198.427 267.851V0C198.427-1.651 197.089-2.989 195.438-2.989H2.989C1.338-2.989 0-1.651 0 0Z" fill="#ebeef4"/>
<path transform="matrix(1,0,0,-1,.74559786,329.1952)" stroke-width="1.494" stroke-linecap="butt" stroke-miterlimit="10" stroke-linejoin="miter" fill="none" stroke="#3b528b" d="M0 0V267.851C0 269.502 1.338 270.84 2.989 270.84H195.438C197.089 270.84 198.427 269.502 198.427 267.851V0C198.427-1.651 197.089-2.989 195.438-2.989H2.989C1.338-2.989 0-1.651 0 0Z"/>
<path transform="matrix(1,0,0,-1,67.0224,52.566308)" d="M0 0H-53.183C-55.384 0-57.168-1.784-57.168-3.985V-7.593C-57.168-9.794-55.384-11.578-53.183-11.578H0C2.201-11.578 3.985-9.794 3.985-7.593V-3.985C3.985-1.784 2.201 0 0 0Z" fill="#ffffff"/>
<path transform="matrix(1,0,0,-1,67.0224,52.566308)" stroke-width="1.494" stroke-linecap="butt" stroke-miterlimit="10" stroke-linejoin="miter" fill="none" stroke="#3b528b" d="M0 0H-53.183C-55.384 0-57.168-1.784-57.168-3.985V-7.593C-57.168-9.794-55.384-11.578-53.183-11.578H0C2.201-11.578 3.985-9.794 3.985-7.593V-3.985C3.985-1.784 2.201 0 0 0Z"/>
<use data-text="A" xlink:href="#font_27_1" transform="matrix(10.0422,0,0,-10.0422,12.18,61.82202)"/>
<use data-text="u" xlink:href="#font_27_35" transform="matrix(10.0422,0,0,-10.0422,20.515027,61.82202)"/>
<use data-text="t" xlink:href="#font_27_32" transform="matrix(10.0422,0,0,-10.0422,26.65081,61.82202)"/>
<use data-text="o" xlink:href="#font_27_25" transform="matrix(10.0422,0,0,-10.0422,30.948872,61.82202)"/>
<use data-text="-" xlink:href="#font_27_19" transform="matrix(10.0422,0,0,-10.0422,36.47208,61.82202)"/>
<use data-text="T" xlink:href="#font_27_9" transform="matrix(10.0422,0,0,-10.0422,40.157567,61.82202)"/>
<use data-text="u" xlink:href="#font_27_35" transform="matrix(10.0422,0,0,-10.0422,46.9063,61.82202)"/>
<use data-text="n" xlink:href="#font_27_24" transform="matrix(10.0422,0,0,-10.0422,53.042085,61.82202)"/>
<use data-text="e" xlink:href="#font_27_13" transform="matrix(10.0422,0,0,-10.0422,59.177869,61.82202)"/>
<use data-text="r" xlink:href="#font_27_28" transform="matrix(10.0422,0,0,-10.0422,64.19897,61.82202)"/>
<path transform="matrix(1,0,0,-1,38.7459,.74520877)" d="M0 0H-16.473C-18.674 0-20.458-1.784-20.458-3.985V-8.053C-20.458-10.254-18.674-12.038-16.473-12.038H0C2.201-12.038 3.985-10.254 3.985-8.053V-3.985C3.985-1.784 2.201 0 0 0Z" fill="#ffffff"/>
<path transform="matrix(1,0,0,-1,38.7459,.74520877)" stroke-width="1.494" stroke-linecap="butt" stroke-miterlimit="10" stroke-linejoin="miter" fill="none" stroke="#3b528b" d="M0 0H-16.473C-18.674 0-20.458-1.784-20.458-3.985V-8.053C-20.458-10.254-18.674-12.038-16.473-12.038H0C2.201-12.038 3.985-10.254 3.985-8.053V-3.985C3.985-1.784 2.201 0 0 0Z"/>
<use data-text="I" xlink:href="#font_28_9" transform="matrix(8.3685,0,0,-8.3685,20.613,8.834991)"/>
<use data-text="n" xlink:href="#font_28_37" transform="matrix(8.3685,0,0,-8.3685,23.567082,8.834991)"/>
<use data-text="p" xlink:href="#font_28_41" transform="matrix(8.3685,0,0,-8.3685,28.119545,8.834991)"/>
<use data-text="u" xlink:href="#font_28_53" transform="matrix(8.3685,0,0,-8.3685,32.67201,8.834991)"/>
<use data-text="t" xlink:href="#font_28_50" transform="matrix(8.3685,0,0,-8.3685,37.224473,8.834991)"/>
<path transform="matrix(1,0,0,-1,17.763703,6.7601168)" stroke-width="1.494" stroke-linecap="butt" stroke-miterlimit="10" stroke-linejoin="miter" fill="none" stroke="#3b528b" d="M0 0H-4.108C-5.759 0-7.097-1.338-7.097-2.989V-36.701C-7.097-38.351-5.759-39.689-4.108-39.689H168.499C170.149-39.689 171.487-38.351 171.487-36.701V-2.993C171.487-1.342 170.149-.004 168.499-.004L25.489-.002"/>
<use data-text="T" xlink:href="#font_28_18" transform="matrix(8.3685,0,0,-8.3685,19.349,23.79541)"/>
<use data-text="r" xlink:href="#font_28_45" transform="matrix(8.3685,0,0,-8.3685,24.5794,23.79541)"/>
<use data-text="a" xlink:href="#font_28_21" transform="matrix(8.3685,0,0,-8.3685,27.767798,23.79541)"/>
<use data-text="i" xlink:href="#font_28_34" transform="matrix(8.3685,0,0,-8.3685,31.868363,23.79541)"/>
<use data-text="n" xlink:href="#font_28_37" transform="matrix(8.3685,0,0,-8.3685,34.144598,23.79541)"/>
<use data-text="i" xlink:href="#font_28_34" transform="matrix(8.3685,0,0,-8.3685,38.69706,23.79541)"/>
<use data-text="n" xlink:href="#font_28_37" transform="matrix(8.3685,0,0,-8.3685,40.973295,23.79541)"/>
<use data-text="g" xlink:href="#font_28_31" transform="matrix(8.3685,0,0,-8.3685,45.53416,23.79541)"/>
<use data-text="D" xlink:href="#font_28_4" transform="matrix(8.3685,0,0,-8.3685,52.362859,23.79541)"/>
<use data-text="a" xlink:href="#font_28_21" transform="matrix(8.3685,0,0,-8.3685,58.622499,23.79541)"/>
<use data-text="t" xlink:href="#font_28_50" transform="matrix(8.3685,0,0,-8.3685,62.72306,23.79541)"/>
<use data-text="a" xlink:href="#font_28_21" transform="matrix(8.3685,0,0,-8.3685,65.91146,23.79541)"/>
<use data-text="," xlink:href="#font_28_24" transform="matrix(8.3685,0,0,-8.3685,70.012027,23.79541)"/>
<use data-text="L" xlink:href="#font_28_11" transform="matrix(8.3685,0,0,-8.3685,75.01639,23.79541)"/>
<use data-text="e" xlink:href="#font_28_26" transform="matrix(8.3685,0,0,-8.3685,80.13791,23.79541)"/>
<use data-text="a" xlink:href="#font_28_21" transform="matrix(8.3685,0,0,-8.3685,83.778209,23.79541)"/>
<use data-text="r" xlink:href="#font_28_45" transform="matrix(8.3685,0,0,-8.3685,87.87877,23.79541)"/>
<use data-text="n" xlink:href="#font_28_37" transform="matrix(8.3685,0,0,-8.3685,91.06717,23.79541)"/>
<use data-text="e" xlink:href="#font_28_26" transform="matrix(8.3685,0,0,-8.3685,95.61964,23.79541)"/>
<use data-text="r" xlink:href="#font_28_45" transform="matrix(8.3685,0,0,-8.3685,99.25993,23.79541)"/>
<use data-text="," xlink:href="#font_28_24" transform="matrix(8.3685,0,0,-8.3685,102.44833,23.79541)"/>
<use data-text="P" xlink:href="#font_28_15" transform="matrix(8.3685,0,0,-8.3685,107.45263,23.79541)"/>
<use data-text="e" xlink:href="#font_28_26" transform="matrix(8.3685,0,0,-8.3685,112.80009,23.79541)"/>
<use data-text="r" xlink:href="#font_28_45" transform="matrix(8.3685,0,0,-8.3685,116.440387,23.79541)"/>
<use data-text="f" xlink:href="#font_28_28" transform="matrix(8.3685,0,0,-8.3685,119.628787,23.79541)"/>
<use data-text="o" xlink:href="#font_28_39" transform="matrix(8.3685,0,0,-8.3685,122.13097,23.79541)"/>
<use data-text="r" xlink:href="#font_28_45" transform="matrix(8.3685,0,0,-8.3685,126.23153,23.79541)"/>
<use data-text="m" xlink:href="#font_28_36" transform="matrix(8.3685,0,0,-8.3685,129.41992,23.79541)"/>
<use data-text="a" xlink:href="#font_28_21" transform="matrix(8.3685,0,0,-8.3685,136.24861,23.79541)"/>
<use data-text="n" xlink:href="#font_28_37" transform="matrix(8.3685,0,0,-8.3685,140.34918,23.79541)"/>
<use data-text="c" xlink:href="#font_28_23" transform="matrix(8.3685,0,0,-8.3685,144.90164,23.79541)"/>
<use data-text="e" xlink:href="#font_28_26" transform="matrix(8.3685,0,0,-8.3685,148.54195,23.79541)"/>
<use data-text="M" xlink:href="#font_28_12" transform="matrix(8.3685,0,0,-8.3685,154.91046,23.79541)"/>
<use data-text="e" xlink:href="#font_28_26" transform="matrix(8.3685,0,0,-8.3685,162.417,23.79541)"/>
<use data-text="t" xlink:href="#font_28_50" transform="matrix(8.3685,0,0,-8.3685,166.05731,23.79541)"/>
<use data-text="r" xlink:href="#font_28_45" transform="matrix(8.3685,0,0,-8.3685,169.24571,23.79541)"/>
<use data-text="i" xlink:href="#font_28_34" transform="matrix(8.3685,0,0,-8.3685,172.43412,23.79541)"/>
<use data-text="c" xlink:href="#font_28_23" transform="matrix(8.3685,0,0,-8.3685,174.71035,23.79541)"/>
<use data-text="," xlink:href="#font_28_24" transform="matrix(8.3685,0,0,-8.3685,178.35065,23.79541)"/>
<use data-text="R" xlink:href="#font_28_16" transform="matrix(8.3685,0,0,-8.3685,37.1871,33.55902)"/>
<use data-text="e" xlink:href="#font_28_26" transform="matrix(8.3685,0,0,-8.3685,43.212419,33.55902)"/>
<use data-text="s" xlink:href="#font_28_46" transform="matrix(8.3685,0,0,-8.3685,46.852716,33.55902)"/>
<use data-text="a" xlink:href="#font_28_21" transform="matrix(8.3685,0,0,-8.3685,50.082956,33.55902)"/>
<use data-text="m" xlink:href="#font_28_36" transform="matrix(8.3685,0,0,-8.3685,54.183519,33.55902)"/>
<use data-text="p" xlink:href="#font_28_41" transform="matrix(8.3685,0,0,-8.3685,61.012216,33.55902)"/>
<use data-text="l" xlink:href="#font_28_35" transform="matrix(8.3685,0,0,-8.3685,65.56468,33.55902)"/>
<use data-text="i" xlink:href="#font_28_34" transform="matrix(8.3685,0,0,-8.3685,67.84091,33.55902)"/>
<use data-text="n" xlink:href="#font_28_37" transform="matrix(8.3685,0,0,-8.3685,70.11714,33.55902)"/>
<use data-text="g" xlink:href="#font_28_31" transform="matrix(8.3685,0,0,-8.3685,74.66961,33.55902)"/>
<use data-text="S" xlink:href="#font_28_17" transform="matrix(8.3685,0,0,-8.3685,81.49831,33.55902)"/>
<use data-text="t" xlink:href="#font_28_50" transform="matrix(8.3685,0,0,-8.3685,86.05077,33.55902)"/>
<use data-text="r" xlink:href="#font_28_45" transform="matrix(8.3685,0,0,-8.3685,89.239177,33.55902)"/>
<use data-text="a" xlink:href="#font_28_21" transform="matrix(8.3685,0,0,-8.3685,92.427577,33.55902)"/>
<use data-text="t" xlink:href="#font_28_50" transform="matrix(8.3685,0,0,-8.3685,96.52814,33.55902)"/>
<use data-text="e" xlink:href="#font_28_26" transform="matrix(8.3685,0,0,-8.3685,99.71654,33.55902)"/>
<use data-text="g" xlink:href="#font_28_31" transform="matrix(8.3685,0,0,-8.3685,103.356838,33.55902)"/>
<use data-text="y" xlink:href="#font_28_56" transform="matrix(8.3685,0,0,-8.3685,107.4574,33.55902)"/>
<use data-text="," xlink:href="#font_28_24" transform="matrix(8.3685,0,0,-8.3685,111.10605,33.55902)"/>
<use data-text="S" xlink:href="#font_28_17" transform="matrix(8.3685,0,0,-8.3685,116.11041,33.55902)"/>
<use data-text="e" xlink:href="#font_28_26" transform="matrix(8.3685,0,0,-8.3685,120.66288,33.55902)"/>
<use data-text="a" xlink:href="#font_28_21" transform="matrix(8.3685,0,0,-8.3685,124.30318,33.55902)"/>
<use data-text="r" xlink:href="#font_28_45" transform="matrix(8.3685,0,0,-8.3685,128.40375,33.55902)"/>
<use data-text="c" xlink:href="#font_28_23" transform="matrix(8.3685,0,0,-8.3685,131.59215,33.55902)"/>
<use data-text="h" xlink:href="#font_28_32" transform="matrix(8.3685,0,0,-8.3685,135.0065,33.55902)"/>
<use data-text="S" xlink:href="#font_28_17" transform="matrix(8.3685,0,0,-8.3685,142.2871,33.55902)"/>
<use data-text="p" xlink:href="#font_28_41" transform="matrix(8.3685,0,0,-8.3685,146.83956,33.55902)"/>
<use data-text="a" xlink:href="#font_28_21" transform="matrix(8.3685,0,0,-8.3685,151.39202,33.55902)"/>
<use data-text="c" xlink:href="#font_28_23" transform="matrix(8.3685,0,0,-8.3685,155.49259,33.55902)"/>
<use data-text="e" xlink:href="#font_28_26" transform="matrix(8.3685,0,0,-8.3685,159.13289,33.55902)"/>
<path transform="matrix(1,0,0,-1,18.9999,76.21171)" d="M0 0H-5.344C-6.995 0-8.333-1.338-8.333-2.989V-175.597C-8.333-177.248-6.995-178.586-5.344-178.586H167.262C168.913-178.586 170.251-177.248 170.251-175.597V-2.991C170.251-1.34 168.913-.002 167.262-.002L30.954-.001" fill="#f5f6f9"/>
<path transform="matrix(1,0,0,-1,18.9999,76.21171)" stroke-width="1.494" stroke-linecap="butt" stroke-miterlimit="10" stroke-linejoin="miter" fill="none" stroke="#3b528b" d="M0 0H-5.344C-6.995 0-8.333-1.338-8.333-2.989V-175.597C-8.333-177.248-6.995-178.586-5.344-178.586H167.262C168.913-178.586 170.251-177.248 170.251-175.597V-2.991C170.251-1.34 168.913-.002 167.262-.002L30.954-.001"/>
<path transform="matrix(1,0,0,-1,99.959,165.5057)" stroke-width=".398" stroke-linecap="butt" stroke-miterlimit="10" stroke-linejoin="miter" fill="none" stroke="#000000" d="M0 0"/>
<path transform="matrix(.7,0,0,-.7,144.99689,165.8639)" stroke-width=".598" stroke-linecap="butt" stroke-miterlimit="10" stroke-linejoin="miter" fill="none" stroke="#929292" d="M0 0C0 37.26-30.205 67.465-67.465 67.465-104.725 67.465-134.929 37.26-134.929 0-134.929-37.26-104.725-67.465-67.465-67.465-30.205-67.465 0-37.26 0 0Z"/>
<path transform="matrix(.7,0,0,-.7,74.69694,102.4675)" stroke-width="34.016" stroke-linecap="butt" stroke-miterlimit="10" stroke-linejoin="miter" fill="none" stroke="#79bcba" d="M0 0C32.352 11.775 68.541 5.393 94.915-16.737 118.998-36.946 131.714-67.648 131.626-68.662"/>
<path transform="matrix(-.061012,.697319,.697319,.061012,165.08267,170.55789)" d="M0 0-27.869 22.353V0-22.353Z" fill="#79bcba"/>
<path transform="matrix(-.061012,.697319,.697319,.061012,165.08267,170.55789)" stroke-width="3.402" stroke-linecap="butt" stroke-linejoin="round" fill="none" stroke="#79bcba" d="M0 0-27.869 22.353V0-22.353Z"/>
<path transform="matrix(.7,0,0,-.7,54.40681,217.54505)" stroke-width="34.016" stroke-linecap="butt" stroke-miterlimit="10" stroke-linejoin="miter" fill="none" stroke="#ccea84" d="M0 0C-26.374 22.13-38.941 56.661-32.963 90.566-27.504 121.527-7.274 147.89-6.351 148.321"/>
<path transform="matrix(.63441,-.29582,-.29582,-.63441,68.18116,105.22477)" d="M0 0-27.869 22.353V0-22.353Z" fill="#ccea84"/>
<path transform="matrix(.63441,-.29582,-.29582,-.63441,68.18116,105.22477)" stroke-width="3.402" stroke-linecap="butt" stroke-linejoin="round" fill="none" stroke="#ccea84" d="M0 0-27.869 22.353V0-22.353Z"/>
<path transform="matrix(.7,0,0,-.7,164.21105,177.5791)" stroke-width="34.016" stroke-linecap="butt" stroke-miterlimit="10" stroke-linejoin="miter" fill="none" stroke="#8e6698" d="M0 0C-5.979-33.905-29.6-62.054-61.952-73.829-91.494-84.581-124.441-80.243-125.275-79.658"/>
<path transform="matrix(-.573398,-.401492,-.401492,.573398,60.05096,221.80927)" d="M0 0-27.869 22.353V0-22.353Z" fill="#8e6698"/>
<path transform="matrix(-.573398,-.401492,-.401492,.573398,60.05096,221.80927)" stroke-width="3.402" stroke-linecap="butt" stroke-linejoin="round" fill="none" stroke="#8e6698" d="M0 0-27.869 22.353V0-22.353Z"/>
<path transform="matrix(.7,0,0,-.7,84.27868,136.08843)" d="M0 0V7.45C0 9.651 1.784 11.435 3.985 11.435H34.566C36.767 11.435 38.551 9.651 38.551 7.45V0C38.551-2.201 36.767-3.985 34.566-3.985H3.985C1.784-3.985 0-2.201 0 0Z" fill="#79bcba"/>
<path transform="matrix(.7,0,0,-.7,84.27868,136.08843)" stroke-width=".797" stroke-linecap="butt" stroke-miterlimit="10" stroke-linejoin="miter" fill="none" stroke="#000000" d="M0 0V7.45C0 9.651 1.784 11.435 3.985 11.435H34.566C36.767 11.435 38.551 9.651 38.551 7.45V0C38.551-2.201 36.767-3.985 34.566-3.985H3.985C1.784-3.985 0-2.201 0 0Z"/>
<use data-text="L" xlink:href="#font_29_8" transform="matrix(5.8043916,0,0,-5.8043916,88.5253,135.4797)" fill="#ffffff"/>
<use data-text="e" xlink:href="#font_29_23" transform="matrix(5.8043916,0,0,-5.8043916,91.97891,135.4797)" fill="#ffffff"/>
<use data-text="a" xlink:href="#font_29_19" transform="matrix(5.8043916,0,0,-5.8043916,94.43417,135.4797)" fill="#ffffff"/>
<use data-text="r" xlink:href="#font_29_39" transform="matrix(5.8043916,0,0,-5.8043916,97.19707,135.4797)" fill="#ffffff"/>
<use data-text="n" xlink:href="#font_29_31" transform="matrix(5.8043916,0,0,-5.8043916,99.344699,135.4797)" fill="#ffffff"/>
<use data-text="e" xlink:href="#font_29_23" transform="matrix(5.8043916,0,0,-5.8043916,102.41522,135.4797)" fill="#ffffff"/>
<use data-text="r" xlink:href="#font_29_39" transform="matrix(5.8043916,0,0,-5.8043916,104.87048,135.4797)" fill="#ffffff"/>
<path transform="matrix(.7,0,0,-.7,67.41253,152.37099)" d="M0 0V3.855H28.913V0Z" fill="#cbebe1"/>
<path transform="matrix(.7,0,0,-.7,67.41253,152.37099)" stroke-width=".398" stroke-linecap="butt" stroke-miterlimit="10" stroke-linejoin="miter" fill="none" stroke="#000000" d="M0 0V3.855H28.913V0Z"/>
<path transform="matrix(.7,0,0,-.7,87.65191,152.37099)" d="M0 0V3.855H28.913V0Z" fill="#cbebe1"/>
<path transform="matrix(.7,0,0,-.7,87.65191,152.37099)" stroke-width=".398" stroke-linecap="butt" stroke-miterlimit="10" stroke-linejoin="miter" fill="none" stroke="#000000" d="M0 0V3.855H28.913V0Z"/>
<path transform="matrix(.7,0,0,-.7,107.89129,152.37099)" d="M0 0V3.855H28.913V0Z" fill="#3b528b"/>
<path transform="matrix(.7,0,0,-.7,107.89129,152.37099)" stroke-width=".398" stroke-linecap="butt" stroke-miterlimit="10" stroke-linejoin="miter" fill="none" stroke="#000000" d="M0 0V3.855H28.913V0Z"/>
<path transform="matrix(.7,0,0,-.7,67.41253,155.06977)" d="M0 0V3.855H28.913V0Z" fill="#cbebe1"/>
<path transform="matrix(.7,0,0,-.7,67.41253,155.06977)" stroke-width=".398" stroke-linecap="butt" stroke-miterlimit="10" stroke-linejoin="miter" fill="none" stroke="#000000" d="M0 0V3.855H28.913V0Z"/>
<path transform="matrix(.7,0,0,-.7,87.65191,155.06977)" d="M0 0V3.855H28.913V0Z" fill="#3b528b"/>
<path transform="matrix(.7,0,0,-.7,87.65191,155.06977)" stroke-width=".398" stroke-linecap="butt" stroke-miterlimit="10" stroke-linejoin="miter" fill="none" stroke="#000000" d="M0 0V3.855H28.913V0Z"/>
<path transform="matrix(.7,0,0,-.7,107.89129,155.06977)" d="M0 0V3.855H28.913V0Z" fill="#cbebe1"/>
<path transform="matrix(.7,0,0,-.7,107.89129,155.06977)" stroke-width=".398" stroke-linecap="butt" stroke-miterlimit="10" stroke-linejoin="miter" fill="none" stroke="#000000" d="M0 0V3.855H28.913V0Z"/>
<path transform="matrix(.7,0,0,-.7,67.41253,157.76827)" d="M0 0V3.855H28.913V0Z" fill="#3b528b"/>
<path transform="matrix(.7,0,0,-.7,67.41253,157.76827)" stroke-width=".398" stroke-linecap="butt" stroke-miterlimit="10" stroke-linejoin="miter" fill="none" stroke="#000000" d="M0 0V3.855H28.913V0Z"/>
<path transform="matrix(.7,0,0,-.7,87.65191,157.76827)" d="M0 0V3.855H28.913V0Z" fill="#cbebe1"/>
<path transform="matrix(.7,0,0,-.7,87.65191,157.76827)" stroke-width=".398" stroke-linecap="butt" stroke-miterlimit="10" stroke-linejoin="miter" fill="none" stroke="#000000" d="M0 0V3.855H28.913V0Z"/>
<path transform="matrix(.7,0,0,-.7,107.89129,157.76827)" d="M0 0V3.855H28.913V0Z" fill="#cbebe1"/>
<path transform="matrix(.7,0,0,-.7,107.89129,157.76827)" stroke-width=".398" stroke-linecap="butt" stroke-miterlimit="10" stroke-linejoin="miter" fill="none" stroke="#000000" d="M0 0V3.855H28.913V0Z"/>
<path transform="matrix(.7,0,0,-.7,67.41253,182.05539)" d="M0 0V3.855H28.913V0Z" fill="#cbebe1"/>
<path transform="matrix(.7,0,0,-.7,67.41253,182.05539)" stroke-width=".398" stroke-linecap="butt" stroke-miterlimit="10" stroke-linejoin="miter" fill="none" stroke="#000000" d="M0 0V3.855H28.913V0Z"/>
<path transform="matrix(.7,0,0,-.7,87.65191,182.05539)" d="M0 0V3.855H28.913V0Z" fill="#cbebe1"/>
<path transform="matrix(.7,0,0,-.7,87.65191,182.05539)" stroke-width=".398" stroke-linecap="butt" stroke-miterlimit="10" stroke-linejoin="miter" fill="none" stroke="#000000" d="M0 0V3.855H28.913V0Z"/>
<path transform="matrix(.7,0,0,-.7,107.89129,182.05539)" d="M0 0V3.855H28.913V0Z" fill="#3b528b"/>
<path transform="matrix(.7,0,0,-.7,107.89129,182.05539)" stroke-width=".398" stroke-linecap="butt" stroke-miterlimit="10" stroke-linejoin="miter" fill="none" stroke="#000000" d="M0 0V3.855H28.913V0Z"/>
<path transform="matrix(.7,0,0,-.7,67.41253,184.7541)" d="M0 0V3.855H28.913V0Z" fill="#cbebe1"/>
<path transform="matrix(.7,0,0,-.7,67.41253,184.7541)" stroke-width=".398" stroke-linecap="butt" stroke-miterlimit="10" stroke-linejoin="miter" fill="none" stroke="#000000" d="M0 0V3.855H28.913V0Z"/>
<path transform="matrix(.7,0,0,-.7,87.65191,184.7541)" d="M0 0V3.855H28.913V0Z" fill="#3b528b"/>
<path transform="matrix(.7,0,0,-.7,87.65191,184.7541)" stroke-width=".398" stroke-linecap="butt" stroke-miterlimit="10" stroke-linejoin="miter" fill="none" stroke="#000000" d="M0 0V3.855H28.913V0Z"/>
<path transform="matrix(.7,0,0,-.7,107.89129,184.7541)" d="M0 0V3.855H28.913V0Z" fill="#cbebe1"/>
<path transform="matrix(.7,0,0,-.7,107.89129,184.7541)" stroke-width=".398" stroke-linecap="butt" stroke-miterlimit="10" stroke-linejoin="miter" fill="none" stroke="#000000" d="M0 0V3.855H28.913V0Z"/>
<path transform="matrix(.7,0,0,-.7,67.41253,187.45269)" d="M0 0V3.855H28.913V0Z" fill="#3b528b"/>
<path transform="matrix(.7,0,0,-.7,67.41253,187.45269)" stroke-width=".398" stroke-linecap="butt" stroke-miterlimit="10" stroke-linejoin="miter" fill="none" stroke="#000000" d="M0 0V3.855H28.913V0Z"/>
<path transform="matrix(.7,0,0,-.7,87.65191,187.45269)" d="M0 0V3.855H28.913V0Z" fill="#cbebe1"/>
<path transform="matrix(.7,0,0,-.7,87.65191,187.45269)" stroke-width=".398" stroke-linecap="butt" stroke-miterlimit="10" stroke-linejoin="miter" fill="none" stroke="#000000" d="M0 0V3.855H28.913V0Z"/>
<path transform="matrix(.7,0,0,-.7,107.89129,187.45269)" d="M0 0V3.855H28.913V0Z" fill="#cbebe1"/>
<path transform="matrix(.7,0,0,-.7,107.89129,187.45269)" stroke-width=".398" stroke-linecap="butt" stroke-miterlimit="10" stroke-linejoin="miter" fill="none" stroke="#000000" d="M0 0V3.855H28.913V0Z"/>
<path transform="matrix(.7,0,0,-.7,97.7716,145.62453)" stroke-width=".797" stroke-linecap="butt" stroke-miterlimit="10" stroke-linejoin="miter" fill="none" stroke="#000000" d="M0 0"/>
<use data-text="i" xlink:href="#font_28_34" transform="matrix(4.8369929,0,0,-4.8369929,88.2369,147.2901)"/>
<use data-text="n" xlink:href="#font_28_37" transform="matrix(4.8369929,0,0,-4.8369929,89.55256,147.2901)"/>
<use data-text="n" xlink:href="#font_28_37" transform="matrix(4.8369929,0,0,-4.8369929,92.18388,147.2901)"/>
<use data-text="e" xlink:href="#font_28_26" transform="matrix(4.8369929,0,0,-4.8369929,94.81521,147.2901)"/>
<use data-text="r" xlink:href="#font_28_45" transform="matrix(4.8369929,0,0,-4.8369929,96.919307,147.2901)"/>
<use data-text="C" xlink:href="#font_28_3" transform="matrix(4.8369929,0,0,-4.8369929,100.335239,147.28809)"/>
<use data-text="V" xlink:href="#font_28_19" transform="matrix(4.8369929,0,0,-4.8369929,103.75499,147.28809)"/>
<path transform="matrix(.7,0,0,-.7,97.7716,167.2133)" stroke-width=".797" stroke-linecap="butt" stroke-miterlimit="10" stroke-linejoin="miter" fill="none" stroke="#000000" d="M0 0"/>
<use data-text="." xlink:href="#font_30_1" transform="matrix(10.02882,0,0,-10.02882,96.5011,167.16971)"/>
<use data-text="." xlink:href="#font_30_1" transform="matrix(10.02882,0,0,-10.02882,96.5011,168.78205)"/>
<use data-text="." xlink:href="#font_30_1" transform="matrix(10.02882,0,0,-10.02882,96.5011,170.39438)"/>
<path transform="matrix(1,0,0,-1,107.5513,282.5804)" d="M0 0H52.915C54.566 0 55.904-1.338 55.904-2.989V-36.694C55.904-38.344 54.566-39.682 52.915-39.682H-68.1C-69.751-39.682-71.089-38.344-71.089-36.694V-2.986C-71.089-1.335-69.751 .003-68.1 .002L-62.808 0" fill="#f5f6f9"/>
<path transform="matrix(1,0,0,-1,107.5513,282.5804)" stroke-width="1.494" stroke-linecap="butt" stroke-miterlimit="10" stroke-linejoin="miter" fill="none" stroke="#3b528b" d="M0 0H52.915C54.566 0 55.904-1.338 55.904-2.989V-36.694C55.904-38.344 54.566-39.682 52.915-39.682H-68.1C-69.751-39.682-71.089-38.344-71.089-36.694V-2.986C-71.089-1.335-69.751 .003-68.1 .002L-62.808 0"/>
<path transform="matrix(1,0,0,-1,99.959,302.42)" stroke-width=".398" stroke-linecap="butt" stroke-miterlimit="10" stroke-linejoin="miter" fill="none" stroke="#000000" d="M0 0"/>
<use data-text="F" xlink:href="#font_28_6" transform="matrix(8.3685,0,0,-8.3685,53.993,299.6051)"/>
<use data-text="i" xlink:href="#font_28_34" transform="matrix(8.3685,0,0,-8.3685,59.340475,299.6051)"/>
<use data-text="t" xlink:href="#font_28_50" transform="matrix(8.3685,0,0,-8.3685,61.616708,299.6051)"/>
<use data-text="L" xlink:href="#font_28_11" transform="matrix(8.3685,0,0,-8.3685,67.5254,299.6051)"/>
<use data-text="e" xlink:href="#font_28_26" transform="matrix(8.3685,0,0,-8.3685,72.64692,299.6051)"/>
<use data-text="a" xlink:href="#font_28_21" transform="matrix(8.3685,0,0,-8.3685,76.28722,299.6051)"/>
<use data-text="r" xlink:href="#font_28_45" transform="matrix(8.3685,0,0,-8.3685,80.38778,299.6051)"/>
<use data-text="n" xlink:href="#font_28_37" transform="matrix(8.3685,0,0,-8.3685,83.57618,299.6051)"/>
<use data-text="e" xlink:href="#font_28_26" transform="matrix(8.3685,0,0,-8.3685,88.12865,299.6051)"/>
<use data-text="r" xlink:href="#font_28_45" transform="matrix(8.3685,0,0,-8.3685,91.76894,299.6051)"/>
<use data-text="w" xlink:href="#font_28_55" transform="matrix(8.3685,0,0,-8.3685,97.69388,299.6051)"/>
<use data-text="i" xlink:href="#font_28_34" transform="matrix(8.3685,0,0,-8.3685,103.610408,299.6051)"/>
<use data-text="t" xlink:href="#font_28_50" transform="matrix(8.3685,0,0,-8.3685,105.886638,299.6051)"/>
<use data-text="h" xlink:href="#font_28_32" transform="matrix(8.3685,0,0,-8.3685,109.075038,299.6051)"/>
<use data-text="O" xlink:href="#font_28_14" transform="matrix(8.3685,0,0,-8.3685,116.35557,299.6051)"/>
<use data-text="p" xlink:href="#font_28_41" transform="matrix(8.3685,0,0,-8.3685,122.724,299.6051)"/>
<use data-text="t" xlink:href="#font_28_50" transform="matrix(8.3685,0,0,-8.3685,127.27647,299.6051)"/>
<use data-text="i" xlink:href="#font_28_34" transform="matrix(8.3685,0,0,-8.3685,130.46486,299.6051)"/>
<use data-text="m" xlink:href="#font_28_36" transform="matrix(8.3685,0,0,-8.3685,132.74109,299.6051)"/>
<use data-text="a" xlink:href="#font_28_21" transform="matrix(8.3685,0,0,-8.3685,139.56978,299.6051)"/>
<use data-text="l" xlink:href="#font_28_35" transform="matrix(8.3685,0,0,-8.3685,143.67035,299.6051)"/>
<use data-text="H" xlink:href="#font_28_8" transform="matrix(8.3685,0,0,-8.3685,54.3234,309.368)"/>
<use data-text="y" xlink:href="#font_28_56" transform="matrix(8.3685,0,0,-8.3685,60.465879,309.368)"/>
<use data-text="p" xlink:href="#font_28_41" transform="matrix(8.3685,0,0,-8.3685,64.79239,309.368)"/>
<use data-text="e" xlink:href="#font_28_26" transform="matrix(8.3685,0,0,-8.3685,69.570819,309.368)"/>
<use data-text="r" xlink:href="#font_28_45" transform="matrix(8.3685,0,0,-8.3685,73.21111,309.368)"/>
<use data-text="p" xlink:href="#font_28_41" transform="matrix(8.3685,0,0,-8.3685,76.39951,309.368)"/>
<use data-text="a" xlink:href="#font_28_21" transform="matrix(8.3685,0,0,-8.3685,80.95198,309.368)"/>
<use data-text="r" xlink:href="#font_28_45" transform="matrix(8.3685,0,0,-8.3685,85.05254,309.368)"/>
<use data-text="a" xlink:href="#font_28_21" transform="matrix(8.3685,0,0,-8.3685,88.240947,309.368)"/>
<use data-text="m" xlink:href="#font_28_36" transform="matrix(8.3685,0,0,-8.3685,92.34151,309.368)"/>
<use data-text="t" xlink:href="#font_28_50" transform="matrix(8.3685,0,0,-8.3685,98.944248,309.368)"/>
<use data-text="e" xlink:href="#font_28_26" transform="matrix(8.3685,0,0,-8.3685,102.132648,309.368)"/>
<use data-text="r" xlink:href="#font_28_45" transform="matrix(8.3685,0,0,-8.3685,105.77294,309.368)"/>
<use data-text="s" xlink:href="#font_28_46" transform="matrix(8.3685,0,0,-8.3685,108.96134,309.368)"/>
<use data-text="o" xlink:href="#font_28_39" transform="matrix(8.3685,0,0,-8.3685,114.919719,309.368)"/>
<use data-text="n" xlink:href="#font_28_37" transform="matrix(8.3685,0,0,-8.3685,119.02028,309.368)"/>
<use data-text="D" xlink:href="#font_31_2" transform="matrix(8.3685,0,0,-8.3685,126.275699,309.368)"/>
<use data-text="t" xlink:href="#font_32_7" transform="matrix(5.579,0,0,-5.579,132.7311,310.6238)"/>
<use data-text="r" xlink:href="#font_32_5" transform="matrix(5.579,0,0,-5.579,135.03522,310.6238)"/>
<use data-text="a" xlink:href="#font_32_1" transform="matrix(5.579,0,0,-5.579,137.34493,310.6238)"/>
<use data-text="i" xlink:href="#font_32_3" transform="matrix(5.579,0,0,-5.579,140.30738,310.6238)"/>
<use data-text="n" xlink:href="#font_32_4" transform="matrix(5.579,0,0,-5.579,141.95317,310.6238)"/>
<path transform="matrix(1,0,0,-1,73.169,342.8526)" d="M0 0H-21.822C-24.023 0-25.807-1.784-25.807-3.985V-6.426C-25.807-8.627-24.023-10.411-21.822-10.411H0C2.201-10.411 3.985-8.627 3.985-6.426V-3.985C3.985-1.784 2.201 0 0 0Z" fill="#ffffff"/>
<path transform="matrix(1,0,0,-1,73.169,342.8526)" stroke-width="1.494" stroke-linecap="butt" stroke-miterlimit="10" stroke-linejoin="miter" fill="none" stroke="#3b528b" d="M0 0H-21.822C-24.023 0-25.807-1.784-25.807-3.985V-6.426C-25.807-8.627-24.023-10.411-21.822-10.411H0C2.201-10.411 3.985-8.627 3.985-6.426V-3.985C3.985-1.784 2.201 0 0 0Z"/>
<use data-text="R" xlink:href="#font_28_16" transform="matrix(8.3685,0,0,-8.3685,49.687,350.93803)"/>
<use data-text="e" xlink:href="#font_28_26" transform="matrix(8.3685,0,0,-8.3685,55.71232,350.93803)"/>
<use data-text="t" xlink:href="#font_28_50" transform="matrix(8.3685,0,0,-8.3685,59.352617,350.93803)"/>
<use data-text="u" xlink:href="#font_28_53" transform="matrix(8.3685,0,0,-8.3685,62.541017,350.93803)"/>
<use data-text="r" xlink:href="#font_28_45" transform="matrix(8.3685,0,0,-8.3685,67.09348,350.93803)"/>
<use data-text="n" xlink:href="#font_28_37" transform="matrix(8.3685,0,0,-8.3685,70.28188,350.93803)"/>
<path transform="matrix(1,0,0,-1,77.6767,348.0625)" stroke-width="1.494" stroke-linecap="butt" stroke-miterlimit="10" stroke-linejoin="miter" fill="none" stroke="#3b528b" d="M0 0H82.79C84.441 0 85.779-1.338 85.779-2.989V-36.692C85.779-38.343 84.441-39.681 82.79-39.681H-38.225C-39.876-39.681-41.214-38.343-41.214-36.692V-2.985C-41.214-1.334-39.876 .004-38.225 .003L-30.839 0"/>
<path transform="matrix(1,0,0,-1,99.959,367.9009)" stroke-width=".398" stroke-linecap="butt" stroke-miterlimit="10" stroke-linejoin="miter" fill="none" stroke="#000000" d="M0 0"/>
<use data-text="M" xlink:href="#font_28_12" transform="matrix(8.3685,0,0,-8.3685,87.6723,365.0851)"/>
<use data-text="o" xlink:href="#font_28_39" transform="matrix(8.3685,0,0,-8.3685,95.17885,365.0851)"/>
<use data-text="d" xlink:href="#font_28_25" transform="matrix(8.3685,0,0,-8.3685,99.5058,365.0851)"/>
<use data-text="e" xlink:href="#font_28_26" transform="matrix(8.3685,0,0,-8.3685,104.058269,365.0851)"/>
<use data-text="l" xlink:href="#font_28_35" transform="matrix(8.3685,0,0,-8.3685,107.69856,365.0851)"/>
<use data-text="," xlink:href="#font_28_24" transform="matrix(8.3685,0,0,-8.3685,109.97479,365.0851)"/>
<use data-text="O" xlink:href="#font_28_14" transform="matrix(8.3685,0,0,-8.3685,52.946,374.848)"/>
<use data-text="p" xlink:href="#font_28_41" transform="matrix(8.3685,0,0,-8.3685,59.314428,374.848)"/>
<use data-text="t" xlink:href="#font_28_50" transform="matrix(8.3685,0,0,-8.3685,63.86689,374.848)"/>
<use data-text="i" xlink:href="#font_28_34" transform="matrix(8.3685,0,0,-8.3685,67.05529,374.848)"/>
<use data-text="m" xlink:href="#font_28_36" transform="matrix(8.3685,0,0,-8.3685,69.33152,374.848)"/>
<use data-text="a" xlink:href="#font_28_21" transform="matrix(8.3685,0,0,-8.3685,76.16022,374.848)"/>
<use data-text="l" xlink:href="#font_28_35" transform="matrix(8.3685,0,0,-8.3685,80.26078,374.848)"/>
<use data-text="H" xlink:href="#font_28_8" transform="matrix(8.3685,0,0,-8.3685,85.265148,374.848)"/>
<use data-text="y" xlink:href="#font_28_56" transform="matrix(8.3685,0,0,-8.3685,91.40762,374.848)"/>
<use data-text="p" xlink:href="#font_28_41" transform="matrix(8.3685,0,0,-8.3685,95.73414,374.848)"/>
<use data-text="e" xlink:href="#font_28_26" transform="matrix(8.3685,0,0,-8.3685,100.52089,374.848)"/>
<use data-text="r" xlink:href="#font_28_45" transform="matrix(8.3685,0,0,-8.3685,104.16119,374.848)"/>
<use data-text="p" xlink:href="#font_28_41" transform="matrix(8.3685,0,0,-8.3685,107.34959,374.848)"/>
<use data-text="a" xlink:href="#font_28_21" transform="matrix(8.3685,0,0,-8.3685,111.902057,374.848)"/>
<use data-text="r" xlink:href="#font_28_45" transform="matrix(8.3685,0,0,-8.3685,116.00262,374.848)"/>
<use data-text="a" xlink:href="#font_28_21" transform="matrix(8.3685,0,0,-8.3685,119.19102,374.848)"/>
<use data-text="m" xlink:href="#font_28_36" transform="matrix(8.3685,0,0,-8.3685,123.29158,374.848)"/>
<use data-text="e" xlink:href="#font_28_26" transform="matrix(8.3685,0,0,-8.3685,130.11194,374.848)"/>
<use data-text="t" xlink:href="#font_28_50" transform="matrix(8.3685,0,0,-8.3685,133.75225,374.848)"/>
<use data-text="e" xlink:href="#font_28_26" transform="matrix(8.3685,0,0,-8.3685,136.94065,374.848)"/>
<use data-text="r" xlink:href="#font_28_45" transform="matrix(8.3685,0,0,-8.3685,140.58095,374.848)"/>
<use data-text="s" xlink:href="#font_28_46" transform="matrix(8.3685,0,0,-8.3685,143.76935,374.848)"/>
<path transform="matrix(1,0,0,-1,99.959,46.449609)" stroke-width="2.989" stroke-linecap="butt" stroke-miterlimit="10" stroke-linejoin="miter" fill="none" stroke="#3b528b" d="M0 0V-24.211"/>
<path transform="matrix(0,1,1,0,99.959,75.40418)" d="M0 0-4.339 3.507V0-3.507Z" fill="#3b528b"/>
<path transform="matrix(0,1,1,0,99.959,75.40418)" stroke-width="1.619" stroke-linecap="butt" stroke-linejoin="round" fill="none" stroke="#3b528b" d="M0 0-4.339 3.507V0-3.507Z"/>
<path transform="matrix(1,0,0,-1,99.959,254.7977)" stroke-width="2.989" stroke-linecap="butt" stroke-miterlimit="10" stroke-linejoin="miter" fill="none" stroke="#3b528b" d="M0 0V-21.827"/>
<path transform="matrix(1,0,0,-1,99.959,322.2627)" stroke-width="2.989" stroke-linecap="butt" stroke-miterlimit="10" stroke-linejoin="miter" fill="none" stroke="#3b528b" d="M0 0V-20.243"/>
<path transform="matrix(0,1,1,0,99.959,347.2488)" d="M0 0-4.339 3.507V0-3.507Z" fill="#3b528b"/>
<path transform="matrix(0,1,1,0,99.959,347.2488)" stroke-width="1.619" stroke-linecap="butt" stroke-linejoin="round" fill="none" stroke="#3b528b" d="M0 0-4.339 3.507V0-3.507Z"/>
<path transform="matrix(1,0,0,-1,45.4467,70.19461)" d="M0 0H-21.937C-24.138 0-25.922-1.784-25.922-3.985V-8.053C-25.922-10.254-24.138-12.038-21.937-12.038H0C2.201-12.038 3.985-10.254 3.985-8.053V-3.985C3.985-1.784 2.201 0 0 0Z" fill="#ffffff"/>
<path transform="matrix(1,0,0,-1,45.4467,70.19461)" stroke-width="1.494" stroke-linecap="butt" stroke-miterlimit="10" stroke-linejoin="miter" fill="none" stroke="#3b528b" d="M0 0H-21.937C-24.138 0-25.922-1.784-25.922-3.985V-8.053C-25.922-10.254-24.138-12.038-21.937-12.038H0C2.201-12.038 3.985-10.254 3.985-8.053V-3.985C3.985-1.784 2.201 0 0 0Z"/>
<use data-text="T" xlink:href="#font_28_18" transform="matrix(8.3685,0,0,-8.3685,21.85,78.28302)"/>
<use data-text="u" xlink:href="#font_28_53" transform="matrix(8.3685,0,0,-8.3685,27.0804,78.28302)"/>
<use data-text="n" xlink:href="#font_28_37" transform="matrix(8.3685,0,0,-8.3685,31.632866,78.28302)"/>
<use data-text="i" xlink:href="#font_28_34" transform="matrix(8.3685,0,0,-8.3685,36.18533,78.28302)"/>
<use data-text="n" xlink:href="#font_28_37" transform="matrix(8.3685,0,0,-8.3685,38.469968,78.28302)"/>
<use data-text="g" xlink:href="#font_28_31" transform="matrix(8.3685,0,0,-8.3685,43.02243,78.28302)"/>
<path transform="matrix(1,0,0,-1,103.043,277.3717)" d="M0 0H-53.79C-55.991 0-57.775-1.784-57.775-3.985V-6.426C-57.775-8.627-55.991-10.411-53.79-10.411H0C2.201-10.411 3.985-8.627 3.985-6.426V-3.985C3.985-1.784 2.201 0 0 0Z" fill="#ffffff"/>
<path transform="matrix(1,0,0,-1,103.043,277.3717)" stroke-width="1.494" stroke-linecap="butt" stroke-miterlimit="10" stroke-linejoin="miter" fill="none" stroke="#3b528b" d="M0 0H-53.79C-55.991 0-57.775-1.784-57.775-3.985V-6.426C-57.775-8.627-55.991-10.411-53.79-10.411H0C2.201-10.411 3.985-8.627 3.985-6.426V-3.985C3.985-1.784 2.201 0 0 0Z"/>
<use data-text="F" xlink:href="#font_28_6" transform="matrix(8.3685,0,0,-8.3685,47.592,285.458)"/>
<use data-text="i" xlink:href="#font_28_34" transform="matrix(8.3685,0,0,-8.3685,52.939474,285.458)"/>
<use data-text="n" xlink:href="#font_28_37" transform="matrix(8.3685,0,0,-8.3685,55.215707,285.458)"/>
<use data-text="a" xlink:href="#font_28_21" transform="matrix(8.3685,0,0,-8.3685,59.76817,285.458)"/>
<use data-text="l" xlink:href="#font_28_35" transform="matrix(8.3685,0,0,-8.3685,63.868738,285.458)"/>
<use data-text="M" xlink:href="#font_28_12" transform="matrix(8.3685,0,0,-8.3685,68.865009,285.458)"/>
<use data-text="o" xlink:href="#font_28_39" transform="matrix(8.3685,0,0,-8.3685,76.37155,285.458)"/>
<use data-text="d" xlink:href="#font_28_25" transform="matrix(8.3685,0,0,-8.3685,80.7064,285.458)"/>
<use data-text="e" xlink:href="#font_28_26" transform="matrix(8.3685,0,0,-8.3685,85.258869,285.458)"/>
<use data-text="l" xlink:href="#font_28_35" transform="matrix(8.3685,0,0,-8.3685,88.89916,285.458)"/>
<use data-text="F" xlink:href="#font_28_6" transform="matrix(8.3685,0,0,-8.3685,93.90353,285.458)"/>
<use data-text="i" xlink:href="#font_28_34" transform="matrix(8.3685,0,0,-8.3685,99.251,285.458)"/>
<use data-text="t" xlink:href="#font_28_50" transform="matrix(8.3685,0,0,-8.3685,101.52723,285.458)"/>
</svg>
