<svg xmlns="http://www.w3.org/2000/svg" xmlns:xlink="http://www.w3.org/1999/xlink" version="1.1" viewBox="-750 209 1117 786" width="1117px" height="786px"><defs><style>@font-face{
    font-family:"DIN Next";
    font-weight: 400;
    src:url("https://whimsical.com/fonts/139e8e25-0eea-4cb4-a5d4-79048803e73d.eot?#iefix");
    src:url("https://whimsical.com/fonts/139e8e25-0eea-4cb4-a5d4-79048803e73d.eot?#iefix") format("eot"),url("https://whimsical.com/fonts/094b15e3-94bd-435b-a595-d40edfde661a.woff2") format("woff2"),url("https://whimsical.com/fonts/7e5fbe11-4858-4bd1-9ec6-a1d9f9d227aa.woff") format("woff"),url("https://whimsical.com/fonts/0f11eff9-9f05-46f5-9703-027c510065d7.ttf") format("truetype"),url("https://whimsical.com/fonts/48b61978-3f30-4274-823c-5cdcd1876918.svg#48b61978-3f30-4274-823c-5cdcd1876918") format("svg");
}
@font-face{
    font-family:"DIN Next";
    font-weight: 400;
    font-style: italic;
    src:url("https://whimsical.com/fonts/df24d5e8-5087-42fd-99b1-b16042d666c8.eot?#iefix");
    src:url("https://whimsical.com/fonts/df24d5e8-5087-42fd-99b1-b16042d666c8.eot?#iefix") format("eot"),url("https://whimsical.com/fonts/46251881-ffe9-4bfb-99c7-d6ce3bebaf3e.woff2") format("woff2"),url("https://whimsical.com/fonts/790ebbf2-62c5-4a32-946f-99d405f9243e.woff") format("woff"),url("https://whimsical.com/fonts/d28199e6-0f4a-42df-97f4-606701c6f75a.ttf") format("truetype"),url("https://whimsical.com/fonts/37a462c0-d86e-492c-b9ab-35e6bd417f6c.svg#37a462c0-d86e-492c-b9ab-35e6bd417f6c") format("svg");
}
@font-face{
    font-weight: 500;
    font-family:"DIN Next";
    src:url("https://whimsical.com/fonts/c5b058fc-55ce-4e06-a175-5c7d9a7e90f4.eot?#iefix");
    src:url("https://whimsical.com/fonts/c5b058fc-55ce-4e06-a175-5c7d9a7e90f4.eot?#iefix") format("eot"),url("https://whimsical.com/fonts/7b29ae40-30ff-4f99-a2b9-cde88669fa2f.woff2") format("woff2"),url("https://whimsical.com/fonts/bf73077c-e354-4562-a085-f4703eb1d653.woff") format("woff"),url("https://whimsical.com/fonts/0ffa6947-5317-4d07-b525-14d08a028821.ttf") format("truetype"),url("https://whimsical.com/fonts/9e423e45-5450-4991-a157-dbe6cf61eb4e.svg#9e423e45-5450-4991-a157-dbe6cf61eb4e") format("svg");
}
@font-face{
    font-family:"DIN Next";
    font-weight: 500;
    font-style: italic;
    src:url("https://whimsical.com/fonts/9897c008-fd65-48a4-afc7-36de2fea97b9.eot?#iefix");
    src:url("https://whimsical.com/fonts/9897c008-fd65-48a4-afc7-36de2fea97b9.eot?#iefix") format("eot"),url("https://whimsical.com/fonts/c7717981-647d-4b76-8817-33062e42d11f.woff2") format("woff2"),url("https://whimsical.com/fonts/b852cd4c-1255-40b1-a2be-73a9105b0155.woff") format("woff"),url("https://whimsical.com/fonts/821b00ad-e741-4e2d-af1a-85594367c8a2.ttf") format("truetype"),url("https://whimsical.com/fonts/d3e3b689-a6b0-45f2-b279-f5e194f87409.svg#d3e3b689-a6b0-45f2-b279-f5e194f87409") format("svg");
}
@font-face{
    font-weight: 700;
    font-family:"DIN Next";
    src:url("https://whimsical.com/fonts/81cd3b08-fd39-4ae3-8d05-9d24709eba84.eot?#iefix");
    src:url("https://whimsical.com/fonts/81cd3b08-fd39-4ae3-8d05-9d24709eba84.eot?#iefix") format("eot"),url("https://whimsical.com/fonts/31704504-4671-47a6-a61e-397f07410d91.woff2") format("woff2"),url("https://whimsical.com/fonts/b8a280da-481f-44a0-8d9c-1bc64bd7227c.woff") format("woff"),url("https://whimsical.com/fonts/276d122a-0fab-447b-9fc0-5d7fb0eafce2.ttf") format("truetype"),url("https://whimsical.com/fonts/8fb8273a-8213-4928-808b-b5bfaf3fd7e9.svg#8fb8273a-8213-4928-808b-b5bfaf3fd7e9") format("svg");
}
@font-face{
    font-family:"DIN Next";
    font-weight: 700;
    font-style: italic;
    src:url("https://whimsical.com/fonts/00cc6df3-ed32-4004-8dd8-1c576600a408.eot?#iefix");
    src:url("https://whimsical.com/fonts/00cc6df3-ed32-4004-8dd8-1c576600a408.eot?#iefix") format("eot"),url("https://whimsical.com/fonts/4132c4c8-680c-4d6d-9251-a2da38503bbd.woff2") format("woff2"),url("https://whimsical.com/fonts/366401fe-6df4-47be-8f55-8a411cff0dd2.woff") format("woff"),url("https://whimsical.com/fonts/dbe4f7ba-fc16-44a6-a577-571620e9edaf.ttf") format("truetype"),url("https://whimsical.com/fonts/f874edca-ee87-4ccf-8b1d-921fbc3c1c36.svg#f874edca-ee87-4ccf-8b1d-921fbc3c1c36") format("svg");
}

@font-face {
    font-family: 'PFDINMonoPro';
    src:url('https://whimsical.com/fonts/PFDINMonoPro-Regular.woff') format('woff');
    font-weight: 400;
}
@font-face {
    font-family: 'PFDINMonoPro';
    src:url('https://whimsical.com/fonts/PFDINMonoPro-Italic.woff') format('woff');
    font-style: italic;
    font-weight: 400;
}
@font-face {
    font-family: 'PFDINMonoPro';
    src:url('https://whimsical.com/fonts/PFDINMonoPro-Bold.woff') format('woff');
    font-weight: 700;
}
@font-face {
    font-family: 'PFDINMonoPro';
    src:url('https://whimsical.com/fonts/PFDINMonoPro-BoldItalic.woff') format('woff');
    font-style: italic;
    font-weight: 700;
}
* {-webkit-font-smoothing: auto; -moz-osx-font-smoothing: auto;}@media print { svg { width: 100%; height: 100%; } }</style><filter id="fill-shadow" x="-100%" y="-100%" width="300%" height="300%"><feGaussianBlur in="SourceAlpha" stdDeviation="6"/><feOffset result="offsetblur" dx="0" dy="2"/><feComponentTransfer result="s0"><feFuncA type="linear" slope="0.16"/></feComponentTransfer><feMerge><feMergeNode in="s0"/><feMergeNode in="SourceGraphic"/></feMerge></filter><filter id="fill-light-shadow" x="-100%" y="-100%" width="300%" height="300%"><feGaussianBlur in="SourceAlpha" stdDeviation="6"/><feOffset result="offsetblur" dx="0" dy="2"/><feComponentTransfer result="s0"><feFuncA type="linear" slope="0.04"/></feComponentTransfer><feMerge><feMergeNode in="s0"/><feMergeNode in="SourceGraphic"/></feMerge></filter><filter id="image-shadow" x="-100%" y="-100%" width="300%" height="300%"><feGaussianBlur in="SourceAlpha" stdDeviation="8"/><feOffset result="offsetblur" dx="0" dy="3"/><feComponentTransfer result="s0"><feFuncA type="linear" slope="0.06"/></feComponentTransfer><feMerge><feMergeNode in="s0"/><feMergeNode in="SourceGraphic"/></feMerge></filter><filter id="frame-shadow" x="-100%" y="-100%" width="300%" height="300%"><feGaussianBlur in="SourceAlpha" stdDeviation="8"/><feOffset result="offsetblur" dx="0" dy="3"/><feComponentTransfer result="s0"><feFuncA type="linear" slope="0.06"/></feComponentTransfer><feMerge><feMergeNode in="s0"/><feMergeNode in="SourceGraphic"/></feMerge></filter><filter id="badge-shadow" x="-100%" y="-100%" width="300%" height="300%"><feGaussianBlur in="SourceAlpha" stdDeviation="6"/><feOffset result="offsetblur" dx="0" dy="2"/><feComponentTransfer result="s0"><feFuncA type="linear" slope="0.08"/></feComponentTransfer><feMerge><feMergeNode in="s0"/><feMergeNode in="SourceGraphic"/></feMerge></filter></defs><g><g><g><g class="mindmap"><path d="M-141.64656,563.99998c39.75263,-65.47418 40.09534,-234.99998 104.64656,-234.99998" fill="none" stroke="#4B5C6B" stroke-linecap="round" stroke-linejoin="round" stroke-width="4"/><g class="content"><g><g><g><g><g/><text fill="#293845"><tspan x="-28" y="336.5" font-family="DIN Next, sans-serif" font-size="21" font-style="normal" font-weight="normal">Learners</tspan></text></g></g></g></g></g></g><g><g><g class="mindmap"><path d="M64,329h10c40,0 36,-52 76,-52h10" fill="none" stroke="#4B5C6B" stroke-linecap="round" stroke-linejoin="round" stroke-width="4"/><g class="content"><g><g><g><g><g><path d="M 287.15625 266.5 L 289.15625 268.5 L 289.15625 286.5 C 289.15625 287.5  288.15625 288.5  287.15625 288.5 L 287.15625 288.5 L 171 288.5 C 170 288.5  169 287.5  169 286.5 L 169 286.5 L 169 268.5 C 169 267.5  170 266.5  171 266.5 L 171 266.5 L 287.15625 266.5 C 288.15625 266.5  289.15625 267.5  289.15625 268.5 L 289.15625 268.5 z" fill="rgba(195,207,217,0.4)"/></g><g/><text fill="#293845"><tspan x="174" y="282.5" font-family="PFDINMonoPro, Courier, monospace" font-size="15.299999999999999" font-style="normal" font-weight="normal">mlr3learners</tspan></text></g></g></g></g></g></g></g><g><g class="mindmap"><path d="M64,329h10c40,0 36,-1 76,-1h10" fill="none" stroke="#4B5C6B" stroke-linecap="round" stroke-linejoin="round" stroke-width="4"/><g class="content"><g><g><g><g><g><path d="M 333.0546875 317.5 L 335.0546875 319.5 L 335.0546875 337.5 C 335.0546875 338.5  334.0546875 339.5  333.0546875 339.5 L 333.0546875 339.5 L 171 339.5 C 170 339.5  169 338.5  169 337.5 L 169 337.5 L 169 319.5 C 169 318.5  170 317.5  171 317.5 L 171 317.5 L 333.0546875 317.5 C 334.0546875 317.5  335.0546875 318.5  335.0546875 319.5 L 335.0546875 319.5 z" fill="rgba(195,207,217,0.4)"/></g><g/><text fill="#293845"><tspan x="174" y="333.5" font-family="PFDINMonoPro, Courier, monospace" font-size="15.299999999999999" font-style="normal" font-weight="normal">mlr3extralearners</tspan></text></g></g></g></g></g></g></g><g><g class="mindmap"><path d="M64,329h10c40,0 36,50 76,50h10" fill="none" stroke="#C3CFD9" stroke-linecap="round" stroke-linejoin="round" stroke-width="4" stroke-dasharray="12, 10" stroke-dashoffset="0"/><g class="content"><g><g><g><g><g><path d="M 259.6171875 368.5 L 261.6171875 370.5 L 261.6171875 388.5 C 261.6171875 389.5  260.6171875 390.5  259.6171875 390.5 L 259.6171875 390.5 L 171 390.5 C 170 390.5  169 389.5  169 388.5 L 169 388.5 L 169 370.5 C 169 369.5  170 368.5  171 368.5 L 171 368.5 L 259.6171875 368.5 C 260.6171875 368.5  261.6171875 369.5  261.6171875 370.5 L 261.6171875 370.5 z" fill="rgba(195,207,217,0.4)"/></g><g/><text fill="#293845"><tspan x="174" y="384.5" font-family="PFDINMonoPro, Courier, monospace" font-size="15.299999999999999" font-style="normal" font-weight="normal">mlr3torch</tspan></text></g></g></g></g></g></g></g></g></g><g><g class="mindmap"><path d="M-133,577.52008c32.93409,-35.32889 35.04749,-109.52008 96,-109.52008" fill="none" stroke="#4B5C6B" stroke-linecap="round" stroke-linejoin="round" stroke-width="4"/><g class="content"><g><g><g><g><g/><text fill="#293845"><tspan x="-28" y="475.5" font-family="DIN Next, sans-serif" font-size="21" font-style="normal" font-weight="normal">Evaluation</tspan></text></g></g></g></g></g></g><g><g><g class="mindmap"><path d="M76,468h10c40,0 36,-26 76,-26h10" fill="none" stroke="#4B5C6B" stroke-linecap="round" stroke-linejoin="round" stroke-width="4"/><g class="content"><g><g><g><g><g><path d="M 299.15625 431.5 L 301.15625 433.5 L 301.15625 451.5 C 301.15625 452.5  300.15625 453.5  299.15625 453.5 L 299.15625 453.5 L 183 453.5 C 182 453.5  181 452.5  181 451.5 L 181 451.5 L 181 433.5 C 181 432.5  182 431.5  183 431.5 L 183 431.5 L 299.15625 431.5 C 300.15625 431.5  301.15625 432.5  301.15625 433.5 L 301.15625 433.5 z" fill="rgba(195,207,217,0.4)"/></g><g/><text fill="#293845"><tspan x="186" y="447.5" font-family="PFDINMonoPro, Courier, monospace" font-size="15.299999999999999" font-style="normal" font-weight="normal">mlr3measures</tspan></text></g></g></g></g></g></g></g><g><g class="mindmap"><path d="M76,468h10c40,0 36,25 76,25h10" fill="none" stroke="#4B5C6B" stroke-linecap="round" stroke-linejoin="round" stroke-width="4"/><g class="content"><g><g><g><g><g><path d="M 308.3359375 482.5 L 310.3359375 484.5 L 310.3359375 502.5 C 310.3359375 503.5  309.3359375 504.5  308.3359375 504.5 L 308.3359375 504.5 L 183 504.5 C 182 504.5  181 503.5  181 502.5 L 181 502.5 L 181 484.5 C 181 483.5  182 482.5  183 482.5 L 183 482.5 L 308.3359375 482.5 C 309.3359375 482.5  310.3359375 483.5  310.3359375 484.5 L 310.3359375 484.5 z" fill="rgba(195,207,217,0.4)"/></g><g/><text fill="#293845"><tspan x="186" y="498.5" font-family="PFDINMonoPro, Courier, monospace" font-size="15.299999999999999" font-style="normal" font-weight="normal">mlr3benchmark</tspan></text></g></g></g></g></g></g></g></g></g><g><g class="mindmap"><path d="M-133,616.40938c33.50669,21.37927 34.50565,67.59062 96,67.59062" fill="none" stroke="#4B5C6B" stroke-linecap="round" stroke-linejoin="round" stroke-width="4"/><g class="content"><g><g><g><g><g/><text fill="#293845"><tspan x="-28" y="691.5" font-family="DIN Next, sans-serif" font-size="21" font-style="normal" font-weight="normal">Tuning</tspan></text></g></g></g></g></g></g><g><g><g class="mindmap"><path d="M42,684h10c40,0 36,-128 76,-128h10" fill="none" stroke="#4B5C6B" stroke-linecap="round" stroke-linejoin="round" stroke-width="4"/><g class="content"><g><g><g><g><g><path d="M 246.796875 545.5 L 248.796875 547.5 L 248.796875 565.5 C 248.796875 566.5  247.796875 567.5  246.796875 567.5 L 246.796875 567.5 L 149 567.5 C 148 567.5  147 566.5  147 565.5 L 147 565.5 L 147 547.5 C 147 546.5  148 545.5  149 545.5 L 149 545.5 L 246.796875 545.5 C 247.796875 545.5  248.796875 546.5  248.796875 547.5 L 248.796875 547.5 z" fill="rgba(195,207,217,0.4)"/></g><g/><text fill="#293845"><tspan x="152" y="561.5" font-family="PFDINMonoPro, Courier, monospace" font-size="15.299999999999999" font-style="normal" font-weight="normal">mlr3tuning</tspan></text></g></g></g></g></g></g></g><g><g class="mindmap"><path d="M42,684h10c40,0 36,-77 76,-77h10" fill="none" stroke="#4B5C6B" stroke-linecap="round" stroke-linejoin="round" stroke-width="4"/><g class="content"><g><g><g><g><g><path d="M 255.9765625 596.5 L 257.9765625 598.5 L 257.9765625 616.5 C 257.9765625 617.5  256.9765625 618.5  255.9765625 618.5 L 255.9765625 618.5 L 149 618.5 C 148 618.5  147 617.5  147 616.5 L 147 616.5 L 147 598.5 C 147 597.5  148 596.5  149 596.5 L 149 596.5 L 255.9765625 596.5 C 256.9765625 596.5  257.9765625 597.5  257.9765625 598.5 L 257.9765625 598.5 z" fill="rgba(195,207,217,0.4)"/></g><g/><text fill="#293845"><tspan x="152" y="612.5" font-family="PFDINMonoPro, Courier, monospace" font-size="15.299999999999999" font-style="normal" font-weight="normal">miesmuschel</tspan></text></g></g></g></g></g></g></g><g><g class="mindmap"><path d="M42,684h10c40,0 36,-26 76,-26h10" fill="none" stroke="#4B5C6B" stroke-linecap="round" stroke-linejoin="round" stroke-width="4"/><g class="content"><g><g><g><g><g><path d="M 274.3359375 647.5 L 276.3359375 649.5 L 276.3359375 667.5 C 276.3359375 668.5  275.3359375 669.5  274.3359375 669.5 L 274.3359375 669.5 L 149 669.5 C 148 669.5  147 668.5  147 667.5 L 147 667.5 L 147 649.5 C 147 648.5  148 647.5  149 647.5 L 149 647.5 L 274.3359375 647.5 C 275.3359375 647.5  276.3359375 648.5  276.3359375 649.5 L 276.3359375 649.5 z" fill="rgba(195,207,217,0.4)"/></g><g/><text fill="#293845"><tspan x="152" y="663.5" font-family="PFDINMonoPro, Courier, monospace" font-size="15.299999999999999" font-style="normal" font-weight="normal">mlr3hyperband</tspan></text></g></g></g></g></g></g></g><g><g class="mindmap"><path d="M42,684h10c40,0 36,25 76,25h10" fill="none" stroke="#4B5C6B" stroke-linecap="round" stroke-linejoin="round" stroke-width="4"/><g class="content"><g><g><g><g><g><path d="M 219.2578125 698.5 L 221.2578125 700.5 L 221.2578125 718.5 C 221.2578125 719.5  220.2578125 720.5  219.2578125 720.5 L 219.2578125 720.5 L 149 720.5 C 148 720.5  147 719.5  147 718.5 L 147 718.5 L 147 700.5 C 147 699.5  148 698.5  149 698.5 L 149 698.5 L 219.2578125 698.5 C 220.2578125 698.5  221.2578125 699.5  221.2578125 700.5 L 221.2578125 700.5 z" fill="rgba(195,207,217,0.4)"/></g><g/><text fill="#293845"><tspan x="152" y="714.5" font-family="PFDINMonoPro, Courier, monospace" font-size="15.299999999999999" font-style="normal" font-weight="normal">mlr3mbo</tspan></text></g></g></g></g></g></g></g><g><g class="mindmap"><path d="M42,684h10c40,0 36,76 76,76h10" fill="none" stroke="#4B5C6B" stroke-linecap="round" stroke-linejoin="round" stroke-width="4"/><g class="content"><g><g><g><g><g><path d="M 200.8984375 749.5 L 202.8984375 751.5 L 202.8984375 769.5 C 202.8984375 770.5  201.8984375 771.5  200.8984375 771.5 L 200.8984375 771.5 L 149 771.5 C 148 771.5  147 770.5  147 769.5 L 147 769.5 L 147 751.5 C 147 750.5  148 749.5  149 749.5 L 149 749.5 L 200.8984375 749.5 C 201.8984375 749.5  202.8984375 750.5  202.8984375 751.5 L 202.8984375 751.5 z" fill="rgba(195,207,217,0.4)"/></g><g/><text fill="#293845"><tspan x="152" y="765.5" font-family="PFDINMonoPro, Courier, monospace" font-size="15.299999999999999" font-style="normal" font-weight="normal">bbotk</tspan></text></g></g></g></g></g></g></g><g><g class="mindmap"><path d="M42,684h10c40,0 36,127 76,127h10" fill="none" stroke="#4B5C6B" stroke-linecap="round" stroke-linejoin="round" stroke-width="4"/><g class="content"><g><g><g><g><g><path d="M 301.875 800.5 L 303.875 802.5 L 303.875 820.5 C 303.875 821.5  302.875 822.5  301.875 822.5 L 301.875 822.5 L 149 822.5 C 148 822.5  147 821.5  147 820.5 L 147 820.5 L 147 802.5 C 147 801.5  148 800.5  149 800.5 L 149 800.5 L 301.875 800.5 C 302.875 800.5  303.875 801.5  303.875 802.5 L 303.875 802.5 z" fill="rgba(195,207,217,0.4)"/></g><g/><text fill="#293845"><tspan x="152" y="816.5" font-family="PFDINMonoPro, Courier, monospace" font-size="15.299999999999999" font-style="normal" font-weight="normal">mlr3tuningspaces</tspan></text></g></g></g></g></g></g></g></g></g><g><g class="mindmap"><path d="M-144.11966,640.00005c41.90059,68.72569 41.49183,259.99995 107.11966,259.99995" fill="none" stroke="#4B5C6B" stroke-linecap="round" stroke-linejoin="round" stroke-width="4"/><g class="content"><g><g><g><g><g/><text fill="#293845"><tspan x="-28" y="907.5" font-family="DIN Next, sans-serif" font-size="21" font-style="normal" font-weight="normal">Feature Selection</tspan></text></g></g></g></g></g></g><g><g><g class="mindmap"><path d="M140,900h10c40,0 36,-26 76,-26h10" fill="none" stroke="#4B5C6B" stroke-linecap="round" stroke-linejoin="round" stroke-width="4"/><g class="content"><g><g><g><g><g><path d="M 353.9765625 863.5 L 355.9765625 865.5 L 355.9765625 883.5 C 355.9765625 884.5  354.9765625 885.5  353.9765625 885.5 L 353.9765625 885.5 L 247 885.5 C 246 885.5  245 884.5  245 883.5 L 245 883.5 L 245 865.5 C 245 864.5  246 863.5  247 863.5 L 247 863.5 L 353.9765625 863.5 C 354.9765625 863.5  355.9765625 864.5  355.9765625 865.5 L 355.9765625 865.5 z" fill="rgba(195,207,217,0.4)"/></g><g/><text fill="#293845"><tspan x="250" y="879.5" font-family="PFDINMonoPro, Courier, monospace" font-size="15.299999999999999" font-style="normal" font-weight="normal">mlr3filters</tspan></text></g></g></g></g></g></g></g><g><g class="mindmap"><path d="M140,900h10c40,0 36,25 76,25h10" fill="none" stroke="#4B5C6B" stroke-linecap="round" stroke-linejoin="round" stroke-width="4"/><g class="content"><g><g><g><g><g><path d="M 353.9765625 914.5 L 355.9765625 916.5 L 355.9765625 934.5 C 355.9765625 935.5  354.9765625 936.5  353.9765625 936.5 L 353.9765625 936.5 L 247 936.5 C 246 936.5  245 935.5  245 934.5 L 245 934.5 L 245 916.5 C 245 915.5  246 914.5  247 914.5 L 247 914.5 L 353.9765625 914.5 C 354.9765625 914.5  355.9765625 915.5  355.9765625 916.5 L 355.9765625 916.5 z" fill="rgba(195,207,217,0.4)"/></g><g/><text fill="#293845"><tspan x="250" y="930.5" font-family="PFDINMonoPro, Courier, monospace" font-size="15.299999999999999" font-style="normal" font-weight="normal">mlr3fselect</tspan></text></g></g></g></g></g></g></g></g></g><g><g class="mindmap"><path d="M-222.08457,563.99978c-47.73392,-76.19231 -45.60103,-336.99978 -113.91543,-336.99978" fill="none" stroke="#4B5C6B" stroke-linecap="round" stroke-linejoin="round" stroke-width="4"/><g class="content"><g><g><g><g><g/><text fill="#293845"><tspan x="-429" y="234.5" font-family="DIN Next, sans-serif" font-size="21" font-style="normal" font-weight="normal">Pipelines</tspan></text></g></g></g></g></g></g><g><g><g class="mindmap"><path d="M-438,227h-10c-40,0 -36,-1 -76,-1h-10" fill="none" stroke="#4B5C6B" stroke-linecap="round" stroke-linejoin="round" stroke-width="4"/><g class="content"><g><g><g><g><g><path d="M -546.6640625 215.5 L -544.6640625 217.5 L -544.6640625 235.5 C -544.6640625 236.5  -545.6640625 237.5  -546.6640625 237.5 L -546.6640625 237.5 L -672 237.5 C -673 237.5  -674 236.5  -674 235.5 L -674 235.5 L -674 217.5 C -674 216.5  -673 215.5  -672 215.5 L -672 215.5 L -546.6640625 215.5 C -545.6640625 215.5  -544.6640625 216.5  -544.6640625 217.5 L -544.6640625 217.5 z" fill="rgba(195,207,217,0.4)"/></g><g/><text fill="#293845"><tspan x="-669" y="231.5" font-family="PFDINMonoPro, Courier, monospace" font-size="15.299999999999999" font-style="normal" font-weight="normal">mlr3pipelines</tspan></text></g></g></g></g></g></g></g></g></g><g><g class="mindmap"><path d="M-233.13638,563.99999c-38.2012,-63.01075 -39.12559,-217.99999 -102.86362,-217.99999" fill="none" stroke="#4B5C6B" stroke-linecap="round" stroke-linejoin="round" stroke-width="4"/><g class="content"><g><g><g><g><g/><text fill="#293845"><tspan x="-387" y="353.5" font-family="DIN Next, sans-serif" font-size="21" font-style="normal" font-weight="normal">Data</tspan></text></g></g></g></g></g></g><g><g><g class="mindmap"><path d="M-396,346h-10c-40,0 -36,-52 -76,-52h-10" fill="none" stroke="#4B5C6B" stroke-linecap="round" stroke-linejoin="round" stroke-width="4"/><g class="content"><g><g><g><g><g><path d="M -504.921875 283.5 L -502.921875 285.5 L -502.921875 303.5 C -502.921875 304.5  -503.921875 305.5  -504.921875 305.5 L -504.921875 305.5 L -566 305.5 C -567 305.5  -568 304.5  -568 303.5 L -568 303.5 L -568 285.5 C -568 284.5  -567 283.5  -566 283.5 L -566 283.5 L -504.921875 283.5 C -503.921875 283.5  -502.921875 284.5  -502.921875 285.5 L -502.921875 285.5 z" fill="rgba(195,207,217,0.4)"/></g><g/><text fill="#293845"><tspan x="-563" y="299.5" font-family="PFDINMonoPro, Courier, monospace" font-size="15.299999999999999" font-style="normal" font-weight="normal">mlr3db</tspan></text></g></g></g></g></g></g></g><g><g class="mindmap"><path d="M-396,346h-10c-40,0 -36,-1 -76,-1h-10" fill="none" stroke="#4B5C6B" stroke-linecap="round" stroke-linejoin="round" stroke-width="4"/><g class="content"><g><g><g><g><g><path d="M -504.7421875 334.5 L -502.7421875 336.5 L -502.7421875 354.5 C -502.7421875 355.5  -503.7421875 356.5  -504.7421875 356.5 L -504.7421875 356.5 L -575 356.5 C -576 356.5  -577 355.5  -577 354.5 L -577 354.5 L -577 336.5 C -577 335.5  -576 334.5  -575 334.5 L -575 334.5 L -504.7421875 334.5 C -503.7421875 334.5  -502.7421875 335.5  -502.7421875 336.5 L -502.7421875 336.5 z" fill="rgba(195,207,217,0.4)"/></g><g/><text fill="#293845"><tspan x="-572" y="350.5" font-family="PFDINMonoPro, Courier, monospace" font-size="15.299999999999999" font-style="normal" font-weight="normal">mlr3oml</tspan></text></g></g></g></g></g></g></g><g><g class="mindmap"><path d="M-396,346h-10c-40,0 -36,50 -76,50h-10" fill="none" stroke="#4B5C6B" stroke-linecap="round" stroke-linejoin="round" stroke-width="4"/><g class="content"><g><g><g><g><g><path d="M -504.5625 385.5 L -502.5625 387.5 L -502.5625 405.5 C -502.5625 406.5  -503.5625 407.5  -504.5625 407.5 L -504.5625 407.5 L -584 407.5 C -585 407.5  -586 406.5  -586 405.5 L -586 405.5 L -586 387.5 C -586 386.5  -585 385.5  -584 385.5 L -584 385.5 L -504.5625 385.5 C -503.5625 385.5  -502.5625 386.5  -502.5625 387.5 L -502.5625 387.5 z" fill="rgba(195,207,217,0.4)"/></g><g/><text fill="#293845"><tspan x="-581" y="401.5" font-family="PFDINMonoPro, Courier, monospace" font-size="15.299999999999999" font-style="normal" font-weight="normal">mlr3data</tspan></text></g></g></g></g></g></g></g></g></g><g><g class="mindmap"><path d="M-240,599.49549c-34.28982,-3.84927 -33.80788,-12.49549 -96,-12.49549" fill="none" stroke="#4B5C6B" stroke-linecap="round" stroke-linejoin="round" stroke-width="4"/><g class="content"><g><g><g><g><g/><text fill="#293845"><tspan x="-469" y="594.5" font-family="DIN Next, sans-serif" font-size="21" font-style="normal" font-weight="normal">Special Tasks</tspan></text></g></g></g></g></g></g><g><g><g class="mindmap"><path d="M-478,587h-10c-40,0 -36,-128 -76,-128h-10" fill="none" stroke="#4B5C6B" stroke-linecap="round" stroke-linejoin="round" stroke-width="4"/><g class="content"><g><g><g><g><g><path d="M -586.125 448.5 L -584.125 450.5 L -584.125 468.5 C -584.125 469.5  -585.125 470.5  -586.125 470.5 L -586.125 470.5 L -739 470.5 C -740 470.5  -741 469.5  -741 468.5 L -741 468.5 L -741 450.5 C -741 449.5  -740 448.5  -739 448.5 L -739 448.5 L -586.125 448.5 C -585.125 448.5  -584.125 449.5  -584.125 450.5 L -584.125 450.5 z" fill="rgba(195,207,217,0.4)"/></g><g/><text fill="#293845"><tspan x="-736" y="464.5" font-family="PFDINMonoPro, Courier, monospace" font-size="15.299999999999999" font-style="normal" font-weight="normal">mlr3spatiotempcv</tspan></text></g></g></g></g></g></g></g><g><g class="mindmap"><path d="M-478,587h-10c-40,0 -37,-77 -77,-77h-10" fill="none" stroke="#4B5C6B" stroke-linecap="round" stroke-linejoin="round" stroke-width="4"/><g class="content"><g><g><g><g><g><path d="M -587.0234375 499.5 L -585.0234375 501.5 L -585.0234375 519.5 C -585.0234375 520.5  -586.0234375 521.5  -587.0234375 521.5 L -587.0234375 521.5 L -694 521.5 C -695 521.5  -696 520.5  -696 519.5 L -696 519.5 L -696 501.5 C -696 500.5  -695 499.5  -694 499.5 L -694 499.5 L -587.0234375 499.5 C -586.0234375 499.5  -585.0234375 500.5  -585.0234375 501.5 L -585.0234375 501.5 z" fill="rgba(195,207,217,0.4)"/></g><g/><text fill="#293845"><tspan x="-691" y="515.5" font-family="PFDINMonoPro, Courier, monospace" font-size="15.299999999999999" font-style="normal" font-weight="normal">mlr3spatial</tspan></text></g></g></g></g></g></g></g><g><g class="mindmap"><path d="M-478,587h-10c-40,0 -36,-26 -76,-26h-10" fill="none" stroke="#4B5C6B" stroke-linecap="round" stroke-linejoin="round" stroke-width="4"/><g class="content"><g><g><g><g><g><path d="M -586.3828125 550.5 L -584.3828125 552.5 L -584.3828125 570.5 C -584.3828125 571.5  -585.3828125 572.5  -586.3828125 572.5 L -586.3828125 572.5 L -675 572.5 C -676 572.5  -677 571.5  -677 570.5 L -677 570.5 L -677 552.5 C -677 551.5  -676 550.5  -675 550.5 L -675 550.5 L -586.3828125 550.5 C -585.3828125 550.5  -584.3828125 551.5  -584.3828125 552.5 L -584.3828125 552.5 z" fill="rgba(195,207,217,0.4)"/></g><g/><text fill="#293845"><tspan x="-672" y="566.5" font-family="PFDINMonoPro, Courier, monospace" font-size="15.299999999999999" font-style="normal" font-weight="normal">mlr3proba</tspan></text></g></g></g></g></g></g></g><g><g class="mindmap"><path d="M-478,587h-10c-40,0 -37,25 -77,25h-10" fill="none" stroke="#4B5C6B" stroke-linecap="round" stroke-linejoin="round" stroke-width="4"/><g class="content"><g><g><g><g><g><path d="M -587.0234375 601.5 L -585.0234375 603.5 L -585.0234375 621.5 C -585.0234375 622.5  -586.0234375 623.5  -587.0234375 623.5 L -587.0234375 623.5 L -694 623.5 C -695 623.5  -696 622.5  -696 621.5 L -696 621.5 L -696 603.5 C -696 602.5  -695 601.5  -694 601.5 L -694 601.5 L -587.0234375 601.5 C -586.0234375 601.5  -585.0234375 602.5  -585.0234375 603.5 L -585.0234375 603.5 z" fill="rgba(195,207,217,0.4)"/></g><g/><text fill="#293845"><tspan x="-691" y="617.5" font-family="PFDINMonoPro, Courier, monospace" font-size="15.299999999999999" font-style="normal" font-weight="normal">mlr3cluster</tspan></text></g></g></g></g></g></g></g><g><g class="mindmap"><path d="M-478,587h-10c-40,0 -36,76 -76,76h-10" fill="none" stroke="#C3CFD9" stroke-linecap="round" stroke-linejoin="round" stroke-width="4" stroke-dasharray="12, 10" stroke-dashoffset="0"/><g class="content"><g><g><g><g><g><path d="M -586.7421875 652.5 L -584.7421875 654.5 L -584.7421875 672.5 C -584.7421875 673.5  -585.7421875 674.5  -586.7421875 674.5 L -586.7421875 674.5 L -657 674.5 C -658 674.5  -659 673.5  -659 672.5 L -659 672.5 L -659 654.5 C -659 653.5  -658 652.5  -657 652.5 L -657 652.5 L -586.7421875 652.5 C -585.7421875 652.5  -584.7421875 653.5  -584.7421875 654.5 L -584.7421875 654.5 z" fill="rgba(195,207,217,0.4)"/></g><g/><text fill="#293845"><tspan x="-654" y="668.5" font-family="PFDINMonoPro, Courier, monospace" font-size="15.299999999999999" font-style="normal" font-weight="normal">mlr3fda</tspan></text></g></g></g></g></g></g></g><g><g class="mindmap"><path d="M-478,587h-10c-40,0 -36,127 -76,127h-10" fill="none" stroke="#4B5C6B" stroke-linecap="round" stroke-linejoin="round" stroke-width="4"/><g class="content"><g><g><g><g><g><path d="M -586.84375 703.5 L -584.84375 705.5 L -584.84375 723.5 C -584.84375 724.5  -585.84375 725.5  -586.84375 725.5 L -586.84375 725.5 L -703 725.5 C -704 725.5  -705 724.5  -705 723.5 L -705 723.5 L -705 705.5 C -705 704.5  -704 703.5  -703 703.5 L -703 703.5 L -586.84375 703.5 C -585.84375 703.5  -584.84375 704.5  -584.84375 705.5 L -584.84375 705.5 z" fill="rgba(195,207,217,0.4)"/></g><g/><text fill="#293845"><tspan x="-700" y="719.5" font-family="PFDINMonoPro, Courier, monospace" font-size="15.299999999999999" font-style="normal" font-weight="normal">mlr3fairness</tspan></text></g></g></g></g></g></g></g></g></g><g><g class="mindmap"><path d="M-230.84551,640.00003c-40.19435,66.15912 -40.3774,239.99997 -105.15449,239.99997" fill="none" stroke="#4B5C6B" stroke-linecap="round" stroke-linejoin="round" stroke-width="4"/><g class="content"><g><g><g><g><g/><text fill="#293845"><tspan x="-415" y="887.5" font-family="DIN Next, sans-serif" font-size="21" font-style="normal" font-weight="normal">Utilities</tspan></text></g></g></g></g></g></g><g><g><g class="mindmap"><path d="M-424,880h-10c-40,0 -36,-103 -76,-103h-10" fill="none" stroke="#4B5C6B" stroke-linecap="round" stroke-linejoin="round" stroke-width="4"/><g class="content"><g><g><g><g><g><path d="M -532.5625 766.5 L -530.5625 768.5 L -530.5625 786.5 C -530.5625 787.5  -531.5625 788.5  -532.5625 788.5 L -532.5625 788.5 L -612 788.5 C -613 788.5  -614 787.5  -614 786.5 L -614 786.5 L -614 768.5 C -614 767.5  -613 766.5  -612 766.5 L -612 766.5 L -532.5625 766.5 C -531.5625 766.5  -530.5625 767.5  -530.5625 768.5 L -530.5625 768.5 z" fill="rgba(195,207,217,0.4)"/></g><g/><text fill="#293845"><tspan x="-609" y="782.5" font-family="PFDINMonoPro, Courier, monospace" font-size="15.299999999999999" font-style="normal" font-weight="normal">mlr3misc</tspan></text></g></g></g></g></g></g></g><g><g class="mindmap"><path d="M-424,880h-10c-40,0 -36,-52 -76,-52h-10" fill="none" stroke="#4B5C6B" stroke-linecap="round" stroke-linejoin="round" stroke-width="4"/><g class="content"><g><g><g><g><g><path d="M -532.7421875 817.5 L -530.7421875 819.5 L -530.7421875 837.5 C -530.7421875 838.5  -531.7421875 839.5  -532.7421875 839.5 L -532.7421875 839.5 L -603 839.5 C -604 839.5  -605 838.5  -605 837.5 L -605 837.5 L -605 819.5 C -605 818.5  -604 817.5  -603 817.5 L -603 817.5 L -532.7421875 817.5 C -531.7421875 817.5  -530.7421875 818.5  -530.7421875 819.5 L -530.7421875 819.5 z" fill="rgba(195,207,217,0.4)"/></g><g/><text fill="#293845"><tspan x="-600" y="833.5" font-family="PFDINMonoPro, Courier, monospace" font-size="15.299999999999999" font-style="normal" font-weight="normal">mlr3viz</tspan></text></g></g></g></g></g></g></g><g><g class="mindmap"><path d="M-424,880h-10c-40,0 -36,-1 -76,-1h-10" fill="none" stroke="#4B5C6B" stroke-linecap="round" stroke-linejoin="round" stroke-width="4"/><g class="content"><g><g><g><g><g><path d="M -532.3828125 868.5 L -530.3828125 870.5 L -530.3828125 888.5 C -530.3828125 889.5  -531.3828125 890.5  -532.3828125 890.5 L -532.3828125 890.5 L -621 890.5 C -622 890.5  -623 889.5  -623 888.5 L -623 888.5 L -623 870.5 C -623 869.5  -622 868.5  -621 868.5 L -621 868.5 L -532.3828125 868.5 C -531.3828125 868.5  -530.3828125 869.5  -530.3828125 870.5 L -530.3828125 870.5 z" fill="rgba(195,207,217,0.4)"/></g><g/><text fill="#293845"><tspan x="-618" y="884.5" font-family="PFDINMonoPro, Courier, monospace" font-size="15.299999999999999" font-style="normal" font-weight="normal">mlr3verse</tspan></text></g></g></g></g></g></g></g><g><g class="mindmap"><path d="M-424,880h-10c-40,0 -36,50 -76,50h-10" fill="none" stroke="#4B5C6B" stroke-linecap="round" stroke-linejoin="round" stroke-width="4"/><g class="content"><g><g><g><g><g><path d="M -532.6640625 919.5 L -530.6640625 921.5 L -530.6640625 939.5 C -530.6640625 940.5  -531.6640625 941.5  -532.6640625 941.5 L -532.6640625 941.5 L -658 941.5 C -659 941.5  -660 940.5  -660 939.5 L -660 939.5 L -660 921.5 C -660 920.5  -659 919.5  -658 919.5 L -658 919.5 L -532.6640625 919.5 C -531.6640625 919.5  -530.6640625 920.5  -530.6640625 921.5 L -530.6640625 921.5 z" fill="rgba(195,207,217,0.4)"/></g><g/><text fill="#293845"><tspan x="-655" y="935.5" font-family="PFDINMonoPro, Courier, monospace" font-size="15.299999999999999" font-style="normal" font-weight="normal">mlr3batchmark</tspan></text></g></g></g></g></g></g></g><g><g class="mindmap"><path d="M-424,880h-10c-40,0 -36,101 -76,101h-10" fill="none" stroke="#4B5C6B" stroke-linecap="round" stroke-linejoin="round" stroke-width="4"/><g class="content"><g><g><g><g><g><path d="M -532.7421875 970.5 L -530.7421875 972.5 L -530.7421875 990.5 C -530.7421875 991.5  -531.7421875 992.5  -532.7421875 992.5 L -532.7421875 992.5 L -603 992.5 C -604 992.5  -605 991.5  -605 990.5 L -605 990.5 L -605 972.5 C -605 971.5  -604 970.5  -603 970.5 L -603 970.5 L -532.7421875 970.5 C -531.7421875 970.5  -530.7421875 971.5  -530.7421875 972.5 L -530.7421875 972.5 z" fill="rgba(195,207,217,0.4)"/></g><g/><text fill="#293845"><tspan x="-600" y="986.5" font-family="PFDINMonoPro, Courier, monospace" font-size="15.299999999999999" font-style="normal" font-weight="normal">paradox</tspan></text></g></g></g></g></g></g></g></g></g></g><g><rect x="-240" y="564" width="107" height="74" fill="#FFFFFF" rx="6" ry="6"/><g class="content"><g><g><g><g><g><path d="M -156.921875 586.5 L -154.921875 588.5 L -154.921875 615.5 C -154.921875 616.5  -155.921875 617.5  -156.921875 617.5 L -156.921875 617.5 L -218 617.5 C -219 617.5  -220 616.5  -220 615.5 L -220 615.5 L -220 588.5 C -220 587.5  -219 586.5  -218 586.5 L -218 586.5 L -156.921875 586.5 C -155.921875 586.5  -154.921875 587.5  -154.921875 588.5 L -154.921875 588.5 z" fill="rgba(195,207,217,0.4)"/></g><g/><text fill="#293845"><tspan x="-215" y="609.5" font-family="PFDINMonoPro, Courier, monospace" font-size="22.95" font-style="normal" font-weight="normal">mlr3</tspan></text></g></g></g></g></g></g></g></svg>