<svg xmlns="http://www.w3.org/2000/svg" xmlns:xlink="http://www.w3.org/1999/xlink" version="1.1" width="349.76pt" height="172.071pt" viewBox="0 0 349.76 172.071">
<defs>
<path id="font_54_9" d="M.0289917 .68359377V.6525879C.041992189 .6525879 .055999757 .6535797 .069992069 .6535797 .10499573 .6535797 .13598633 .6485901 .13598633 .61161807V.07493591C.13598633 .036972047 .10398865 .030975342 .070999149 .030975342 .055999757 .030975342 .040985109 .031967164 .0289917 .031967164V.0009765625H.33198548V.031967164C.31900025 .031967164 .30499269 .030975342 .2919922 .030975342 .25698854 .030975342 .22499085 .036972047 .22499085 .07493591V.61161807C.22499085 .6485901 .25898744 .6535797 .29299928 .6535797 .30599977 .6535797 .31999208 .6525879 .33198548 .6525879V.68359377H.0289917Z"/>
<path id="font_54_41" d="M.03199768 .43138124V.4003601H.04699707C.07998657 .4003601 .10998535 .39735414 .10998535 .35029603V.074020389C.10998535 .032974245 .08198547 .031967164 .037994386 .031967164H.03199768V.0009765625H.2579956V.031967164H.23199463C.20399475 .031967164 .17999268 .035980226 .17999268 .073013309V.25621034C.17999268 .3282776 .21699524 .42037965 .31599427 .42037965 .37998963 .42037965 .38598634 .3513031 .38598634 .30825807V.069000247C.38598634 .034973146 .35699464 .031967164 .32598878 .031967164H.30799867V.0009765625H.5339966V.031967164H.5089874C.48199464 .031967164 .45599366 .035980226 .45599366 .070007327V.28923036C.45599366 .32226563 .45498658 .35630799 .43899537 .38633729 .41600038 .43037416 .36499024 .4423828 .31900025 .4423828 .2579956 .4423828 .19499207 .4003601 .1749878 .34028626L.17399597 .4423828 .03199768 .43138124Z"/>
<path id="font_54_44" d="M.026992798 .43138124V.4003601H.04598999C.07598877 .4003601 .10499573 .39736939 .10499573 .35734559V-.12220764C.10499573-.15835572 .07899475-.16236878 .049987794-.16236878H.026992798V-.19335938H.25299073V-.16236878H.22898865C.19898987-.16236878 .1749878-.15835572 .1749878-.12220764L.17599488 .051239015C.19898987 .010223389 .25498963-.009765625 .2979889-.009765625 .42199708-.009765625 .5209961 .09625244 .5209961 .21730042 .5209961 .3373413 .42799378 .4423828 .31098939 .4423828 .2559967 .4423828 .20799256 .41838075 .17199707 .3773651V.4423828L.026992798 .43138124M.43598939 .19929505C.43099977 .12626648 .3919983 .021224976 .30099488 .01222229H.29499818C.2519989 .01222229 .21299744 .036239625 .18899536 .072250369 .18099976 .08325195 .1749878 .09326172 .1749878 .10725403V.27531434C.1749878 .28833009 .17399597 .30133058 .17399597 .31433106 .17399597 .36735536 .24198914 .41737367 .30099488 .41737367 .4019928 .41737367 .43699647 .28633119 .43699647 .21530152 .43699647 .21029663 .43699647 .20429993 .43598939 .19929505Z"/>
<path id="font_54_54" d="M.03199768 .430542V.39953614H.04598999C.07398987 .39953614 .102996829 .3975525 .10899353 .3675995 .10998535 .35661317 .10998535 .3466339 .10998535 .33566285V.13702393C.10998535 .1040802 .11099243 .073135379 .1289978 .044189454 .1559906 .0012512207 .21299744-.0107421879 .2599945-.0107421879 .30499269-.0107421879 .34599305 .009246826 .37098695 .046188356 .37799073 .056167604 .3849945 .06614685 .3880005 .078125L.3889923-.009750366 .5339966 .0012512207V.032211305H.5189972C.48599244 .032211305 .45599366 .035217287 .45599366 .0801239V.4423828L.30799867 .43136598V.39953614H.32299806C.35598756 .39953614 .38598634 .3965454 .38598634 .3496399V.16896057C.38598634 .09509277 .34799195 .013244629 .2649994 .013244629 .20899964 .013244629 .17999268 .02722168 .17999268 .13302613V.4423828L.03199768 .430542Z"/>
<path id="font_54_51" d="M.14898682 .6152344C.14898682 .54644778 .11999512 .421875 .017990113 .421875V.39987184H.10398865V.1421051C.10398865 .10914612 .10598755 .076171878 .12199402 .047195436 .14399719 .007232666 .19099427-.009765625 .23498535-.009765625 .31698609-.009765625 .33299256 .08216858 .33299256 .14511109V.18206787H.30799867C.30799867 .16708374 .30899049 .15209961 .30899049 .1361084 .30899049 .09214783 .29899598 .0152282719 .23999024 .0152282719 .18299866 .0152282719 .17399597 .08416748 .17399597 .12911988V.39987184H.31599427V.43066407H.17399597V.6152344H.14898682Z"/>
<path id="font_54_49" d="M.026992798 .43138124V.4003601H.041992189C.07499695 .4003601 .10499573 .39735414 .10499573 .35029603V.074020389C.10499573 .032974245 .07699585 .031967164 .032989503 .031967164H.026992798V.0009765625H.2689972V.031967164C.25698854 .031967164 .24299622 .030975342 .23098755 .030975342 .19898987 .030975342 .17199707 .035980226 .17199707 .073013309V.20614624C.17199707 .2912445 .19198609 .42037965 .2899933 .42037965 .2939911 .42037965 .29699708 .42037965 .30099488 .41937257V.41836549C.28599549 .41236878 .27799989 .39634706 .27799989 .38032533 .27799989 .35731507 .29299928 .34129334 .31599427 .33728028 .34498597 .33728028 .3639984 .3553009 .3639984 .38032533 .3639984 .42037965 .32598878 .4423828 .2899933 .4423828 .23098755 .4423828 .17799378 .38934327 .16799927 .33528138L.16699219 .4423828 .026992798 .43138124Z"/>
<path id="font_54_23" d="M.11199951 .3812256C.13699341 .41223146 .18099976 .426239 .21798706 .426239 .2919922 .426239 .32499696 .3592224 .32499696 .288208V.26220704C.20999146 .26220704 .040985109 .22619629 .040985109 .095214847V.08721924C.04899597 .010223389 .1459961-.009765625 .20298767-.009765625 .2539978-.009765625 .31900025 .024230957 .33198548 .07522583H.33299256C.33898927 .032226564 .3659973-.004776001 .41099549-.004776001 .45199586-.004776001 .48799134 .02822876 .49299623 .07322693V.14620972H.46798707V.095214847C.46798707 .068222049 .46299745 .02722168 .43199159 .02722168 .3999939 .02722168 .394989 .066223148 .394989 .09321594V.26020814C.394989 .27320863 .3959961 .28520204 .3959961 .29821778 .3959961 .39523316 .30499269 .4482422 .22200012 .4482422 .15899658 .4482422 .069992069 .41723634 .069992069 .33721925 .069992069 .30822755 .09098816 .28923036 .116989139 .28923036 .14498902 .28923036 .1619873 .31123353 .1619873 .3352356 .1619873 .3642273 .13899231 .38124085 .11199951 .38124085V.3812256M.32499696 .24121094V.14021302C.32499696 .07122803 .2769928 .016220093 .21199036 .01222229H.20799256C.16099549 .01222229 .11898804 .049224855 .11898804 .097213748V.10221863C.12599182 .2032013 .23899842 .23820496 .32499696 .24121094Z"/>
<path id="font_54_36" d="M.036987306 .430542V.3995819H.055999757C.084991458 .3995819 .11099243 .3955841 .11099243 .34962464V.07292175C.11099243 .037963869 .09298706 .031967164 .032989503 .031967164V.0009765625H.24798584V.031967164H.22799683C.20199585 .031967164 .17799378 .034973146 .17799378 .06692505V.44154359L.036987306 .430542M.12098694 .6689453C.09599304 .66589358 .07598877 .64382937 .07598877 .61672976 .07598877 .5876312 .100997928 .5635376 .1289978 .5635376 .1559906 .5635376 .18199158 .58561709 .18199158 .61672976 .18199158 .64582827 .15699768 .6699219 .1289978 .6699219 .12599182 .66993716 .12399292 .6689453 .12098694 .6689453Z"/>
<path id="font_54_26" d="M.1309967 .4296875C.10598755 .42668153 .085998538 .40370179 .085998538 .37872315 .085998538 .35372926 .10598755 .3247528 .13699341 .3247528 .1639862 .3247528 .19198609 .34573365 .19198609 .37672425 .19198609 .40267945 .17199707 .43066407 .13999939 .43066407 .13699341 .43067933 .13398743 .4296875 .1309967 .4296875M.1309967 .105895999C.10598755 .10290527 .085998538 .07991028 .085998538 .05493164 .085998538 .029953003 .10598755 .0009765625 .13699341 .0009765625 .1639862 .0009765625 .19198609 .021957398 .19198609 .05293274 .19198609 .07891846 .17199707 .106903079 .13999939 .106903079 .13699341 .106903079 .13398743 .105895999 .1309967 .105895999Z"/>
<path id="font_54_48" d="M.1539917 .34765626H.17599488C.18699646 .4086914 .19099427 .47373963 .19699097 .5357971 .20298767 .5788269 .21199036 .6248627 .21199036 .66690066 .21199036 .69291689 .18998719 .7109375 .16499329 .7109375 .13398743 .7109375 .11898804 .68891909 .11898804 .66490176 .11898804 .6468811 .12298584 .62786868 .125 .6088562 .1349945 .52178958 .14698792 .4347229 .1539917 .34765626M.32299806 .34765626H.34498597C.35299684 .44673158 .36999513 .5458069 .37799073 .645874 .3789978 .651886 .37998963 .6588898 .37998963 .66490176 .37998963 .68891909 .36499024 .7109375 .33399964 .7109375 .30899049 .7109375 .2869873 .69291689 .2869873 .66690066 .2869873 .651886 .2899933 .63687136 .2919922 .62286379 .29899598 .5548096 .30599977 .48675538 .31498719 .41870118 .31698609 .39468385 .31900025 .3706665 .32299806 .34765626Z"/>
<path id="font_54_19" d="M.054992677 .6777344 .035995485 .45280458H.06098938C.06498718 .50479128 .067993167 .5757599 .09899902 .6097412 .1329956 .6447296 .18998719 .64772036 .23599243 .64772036H.26098634C.28799439 .64772036 .31599427 .64772036 .31599427 .613739V.07695007C.31599427 .036972047 .27598573 .030975342 .23999024 .030975342 .22698975 .030975342 .21398926 .031967164 .20399475 .031967164H.17098999V.0009765625H.5499878V.031967164H.48199464C.44299317 .031967164 .40499879 .035964967 .40499879 .07695007V.613739C.40499879 .6427307 .42199708 .64772036 .45999146 .64772036H.4850006C.5309906 .64772036 .58799746 .6447296 .621994 .6097412 .6529999 .5757599 .6559906 .50479128 .6599884 .45280458H.68499758L.66600039 .6777344H.054992677Z"/>
<path id="font_54_50" d="M.17599488 .4482422C.13899231 .44422914 .099990848 .4372406 .070999149 .41223146 .04699707 .39123536 .032989503 .35723878 .032989503 .32522584 .032989503 .15423584 .31098939 .25123597 .31098939 .10122681 .31098939 .040222169 .2559967 .01222229 .20098877 .01222229 .125 .01222229 .07398987 .066223148 .05999756 .15222168 .057998659 .16122437 .056991579 .17022705 .04499817 .17022705 .036987306 .17022705 .032989503 .16423035 .032989503 .15722656V-.00077819827C.033996583-.0057678224 .036987306-.008773804 .041992189-.009765625H.04399109C.05999756-.009765625 .07598877 .02722168 .08799744 .030227662H.08898926C.09700012 .030227662 .12399292 .0052337648 .14498902-.0017700195 .1619873-.0077667238 .17999268-.009765625 .19799805-.009765625 .2809906-.009765625 .3600006 .034225465 .3600006 .12623596 .3600006 .19223023 .31199647 .24623108 .24598694 .26322938 .18399048 .28022767 .08198547 .28022767 .08198547 .3532257 .08198547 .4142151 .14898682 .42921449 .19299317 .42921449 .24198914 .42921449 .30999757 .40220643 .30999757 .3162079 .30999757 .30722047 .31098939 .2992096 .32199098 .2992096 .33198548 .2992096 .33599855 .30722047 .33599855 .31721498 .33599855 .32221986 .33499146 .32720948 .33499146 .33120729V.4342041C.33499146 .44023133 .33198548 .4482422 .32398988 .4482422 .30799867 .4482422 .2979889 .42323304 .2869873 .42323304H.28599549C.27799989 .42323304 .2619934 .43623353 .25 .44023133 .23199463 .44621278 .21199036 .44921876 .19299317 .44921876 .18699646 .449234 .18199158 .4482422 .17599488 .4482422Z"/>
<path id="font_54_38" d="M.026992798 .6842804V.65319827H.04399109C.07598877 .65319827 .10499573 .64920046 .10499573 .6010742V.09591675C.10499573 .08892822 .10598755 .08192444 .10598755 .07392883 .10598755 .035964967 .07899475 .031967164 .050994874 .031967164H.026992798V.0009765625H.24699402V.031967164H.22399903C.19400025 .031967164 .16899109 .035964967 .16899109 .07392883V.16685486C.16899109 .1878357 .20899964 .21582031 .23298645 .23379517 .24198914 .21681214 .25498963 .201828 .2659912 .18583679 .2899933 .15286255 .31399537 .120895389 .33599855 .08792114 .34199525 .078933719 .34999085 .06593323 .34999085 .053955079 .34999085 .035964967 .32998658 .031967164 .31498719 .031967164V.0009765625H.5109863V.031967164C.49398805 .031967164 .47499085 .031967164 .45899964 .03996277 .43598939 .052947999 .41999818 .076934818 .4059906 .09791565 .3809967 .1328888 .35598756 .16885376 .32998658 .2038269L.2939911 .254776C.2899933 .25978089 .2829895 .2687683 .2829895 .2727661V.274765C.2829895 .28175355 .31298829 .30374146 .32699586 .31472779 .37298585 .35469056 .4249878 .3996582 .4889984 .3996582V.43066407H.30699159V.3996582C.32199098 .3996582 .33499146 .38867188 .33499146 .37467958 .33499146 .3447113 .28799439 .31472779 .26098634 .29275514 .23098755 .2667694 .20199585 .24079895 .17199707 .21582031V.6953125L.026992798 .6842804Z"/>
<path id="font_54_29" d="M.11199951 .23242188H.3999939C.41099549 .23242188 .41600038 .2394104 .41600038 .250412 .41600038 .35630799 .35099793 .4482422 .23899842 .4482422 .115997318 .4482422 .027999878 .33932496 .027999878 .22039795 .027999878 .12832642 .07899475 .04624939 .16699219 .006225586 .18998719-.003768921 .21699524-.009765625 .24198914-.009765625H.24499512C.32199098-.009765625 .38598634 .0332489 .41299439 .110305789 .4139862 .11331177 .4139862 .11730957 .4139862 .12031555 .4139862 .12731934 .4099884 .13232422 .40299989 .13232422 .3880005 .13232422 .38198854 .0993042 .37599183 .08828735 .35099793 .04425049 .30299378 .0152282719 .25099183 .0152282719 .21398926 .0152282719 .18199158 .036239625 .15499878 .06326294 .114990238 .109313968 .11199951 .17436219 .11199951 .23242188M.11299133 .25341798C.11299133 .33033753 .1539917 .426239 .23599243 .426239H.24099732C.33898927 .41723634 .33799745 .3133545 .34799195 .25341798H.11299133Z"/>
<path id="font_54_28" d="M.3039856 .6843109V.6533203H.31999208C.35499574 .6533203 .38198854 .6493225 .38198854 .5913391L.3809967 .38136292C.35699464 .42137147 .2999878 .4423828 .2539978 .4423828 .1309967 .4423828 .032989503 .3363495 .032989503 .21530152 .032989503 .10826111 .114990238-.009765625 .24699402-.009765625 .29899598-.009765625 .34599305 .0152282719 .3789978 .055236818V-.009765625L.5269928 .0012207031V.032226564H.5099945C.47898866 .032226564 .44898988 .035232545 .44898988 .08224487V.6953125L.3039856 .6843109M.116989139 .19128418V.20629883C.116989139 .2803192 .12599182 .35534669 .19499207 .4013672 .21499634 .41337586 .23799134 .42037965 .26098634 .42037965 .30999757 .42037965 .37998963 .38035584 .37998963 .31733705 .37998963 .30433656 .3789978 .2913208 .3789978 .2783203V.11225891C.3789978 .09925842 .37399293 .09025574 .36698915 .08024597 .34098817 .041244508 .2979889 .01222229 .25099183 .01222229 .17799378 .01222229 .13198853 .07925415 .12098694 .14826966 .11898804 .16227722 .11898804 .17729187 .116989139 .19128418Z"/>
<path id="font_54_25" d="M.35899354 .38723756C.33299256 .38523866 .31199647 .36923219 .31199647 .3412323 .31199647 .3142395 .33099366 .29522706 .35798646 .29522706 .3880005 .29522706 .4039917 .31723023 .4039917 .3452301V.3512268C.3939972 .4242401 .30899049 .4482422 .25099183 .4482422 .1289978 .4482422 .032989503 .3412323 .032989503 .21723938 .032989503 .10423279 .12098694-.009765625 .25-.009765625 .31599427-.009765625 .3809967 .026229859 .4079895 .096221927 .4099884 .10223389 .4149933 .11123657 .4149933 .1182251 .4149933 .12522888 .4099884 .13023377 .40299989 .13023377 .3880005 .13023377 .3789978 .09222412 .37199403 .07922363 .34799195 .040222169 .30699159 .016220093 .2619934 .0152282719 .15499878 .0152282719 .12199402 .1222229 .116989139 .20123291V.21322632C.116989139 .29322816 .13598633 .41323854 .24598694 .42323304H.2539978C.29100038 .42323304 .32998658 .41223146 .35899354 .38723756Z"/>
<path id="font_54_14" d="M.37098695 .7060547C.28199769 .69303897 .20698548 .6640167 .147995 .5939636 .08699036 .52290347 .054992677 .4308319 .054992677 .33876039 .054992677 .16662598 .17799378-.021484375 .3899994-.021484375 .58599856-.021484375 .7220001 .15762329 .7220001 .34176637 .7220001 .52490237 .58699038 .70703127 .38598634 .70703127 .3809967 .7070465 .37599183 .7060547 .37098695 .7060547M.1579895 .3277588V.34477235C.1579895 .45985414 .18199158 .59095767 .29699708 .6569977 .32499696 .6720123 .35598756 .6810303 .3880005 .6810303 .47299195 .6810303 .54499819 .6209717 .58399966 .5409241 .61099246 .48587037 .61898806 .41682435 .61898806 .3587799 .61898806 .22668457 .58799746 .061553956 .43399049 .010513306 .41999818 .006515503 .40499879 .004501343 .3909912 .004501343 .24598694 .004501343 .1769867 .15362549 .1619873 .27471925 .1599884 .2927246 .1599884 .30973817 .1579895 .3277588Z"/>
<path id="font_55_24" d="M.2539978 .12890625C.22299195 .121902469 .19799805 .09991455 .19799805 .06593323 .19799805 .031951906 .22399903 .0009765625 .2639923 .0009765625H.269989C.30099488 .007965088 .32598878 .029953003 .32598878 .063934329 .32598878 .09791565 .2999878 .12890625 .2599945 .12890625H.2539978Z"/>
<path id="font_55_11" d="M.22999573 .61528018C.14698792 .60627749 .069992069 .551239 .057998659 .46420289V.4552002C.057998659 .3601532 .14299011 .29812623 .22999573 .2881317V.0630188C.18998719 .074035648 .15499878 .090042117 .13899231 .13005066 .13798523 .13206482 .13798523 .13305664 .13798523 .13505554 .13798523 .14807129 .15098572 .15907288 .15098572 .17308045 .15098572 .1960907 .1349945 .21710205 .10998535 .22009278 .070999149 .22009278 .057998659 .1940918 .057998659 .16607666 .057998659 .07102966 .14199829-.0019989014 .22999573-.0019989014V-.041015626C.22999573-.06303406 .23298645-.074035648 .25698854-.08203125H.269989C.2919922-.075042728 .29499818-.061035158 .29499818-.042022706V-.014007568C.29499818 .0019989014 .3039856 0 .31399537 .0019989014 .394989 .01600647 .46598817 .089035037 .46598817 .17308045 .46598817 .24510193 .41799928 .3071289 .34700013 .33514405 .33099366 .34214784 .31298829 .3481598 .29499818 .3491516V.5502472C.32899476 .5422363 .37098695 .52923586 .38398744 .49221803 .3849945 .49021913 .3849945 .48921205 .3849945 .4882202 .3849945 .47921754 .37298585 .46620179 .37298585 .4512024 .37298585 .42718507 .3919983 .4061737 .41799928 .40518189 .45098878 .40518189 .46598817 .43019105 .46598817 .45820619 .46598817 .47320558 .46299745 .4882202 .45899964 .5012207L.45298768 .5192261C.42599488 .5782623 .35699464 .61528018 .29499818 .61528018V.6622925C.29499818 .68330386 .27999879 .6953125 .2619934 .6953125 .23899842 .6953125 .22999573 .67829897 .22999573 .6542969V.61528018M.29499818 .06402588V.27412416C.34399415 .26211549 .397995 .22610474 .397995 .16906739 .397995 .11105347 .34498597 .07702637 .29499818 .06402588M.22999573 .5492401V.36315919C.18998719 .37615968 .12599182 .3921814 .12599182 .45620729 .12599182 .50723269 .18598938 .5442352 .22999573 .5492401Z"/>
<path id="font_55_28" d="M.1499939 .43066407H.06298828C.037994386 .43066407 .024993897 .41766358 .024993897 .3976593 .024993897 .37765504 .038986207 .36566163 .06098938 .36566163H.1499939V.11907959C.1579895 .04208374 .21299744-.00390625 .2939911-.00390625 .36799623-.00390625 .44898988 .046081544 .44898988 .12908936 .44898988 .14909363 .44099427 .16508484 .41099549 .16508484 .36698915 .16508484 .38598634 .13407898 .36698915 .10108948 .35299684 .07507324 .32598878 .061080934 .29699708 .061080934 .23699951 .061080934 .22399903 .10203552 .22399903 .14297486V.36566163H.4019928C.41799928 .36865235 .4269867 .38365174 .4269867 .39865113 .4269867 .426651 .4059906 .43066407 .3889923 .43066407H.22399903V.5166931C.22399903 .5457001 .20698548 .55371096 .18699646 .55371096 .1659851 .55371096 .1499939 .544693 .1499939 .5166931V.43066407Z"/>
<path id="font_55_26" d="M.22399903 .3586731V.39065553C.22399903 .4166565 .21398926 .43066407 .18598938 .43066407H.06399536C.04399109 .43066407 .026992798 .4206543 .026992798 .39865113 .026992798 .37765504 .041992189 .36566163 .06599426 .36566163H.1499939V.065963748H.06298828C.039993287 .06593323 .026992798 .051940919 .026992798 .032958986 .026992798 .014984131 .040985109 0 .06298828 0 .068984989-.000030517579 .07398987 .0009765625 .07998657 .0009765625H.34899903C.36698915 .0019683839 .3769989 .017974854 .3769989 .033966066 .3769989 .051971437 .36499024 .066970828 .33799745 .066970828 .32998658 .066970828 .32199098 .065963748 .31599427 .065963748H.22399903V.18185425C.22399903 .26576234 .2789917 .37065126 .39898683 .37065126 .39898683 .34368897 .41999818 .32670594 .44299317 .32670594 .46598817 .32670594 .4869995 .34368897 .4869995 .37165834 .4869995 .42555238 .4249878 .43554688 .3899994 .43554688 .32398988 .43554688 .269989 .40457154 .22399903 .35862733V.3586731Z"/>
<path id="font_55_4" d="M.17199707 .3714447C.19198609 .37243653 .21199036 .37445069 .23199463 .37445069 .27999879 .37445069 .35198976 .35643006 .35198976 .28134156 .23799134 .28134156 .052993776 .25730897 .052993776 .13316345 .052993776 .04309082 .14399719-.00390625 .22299195-.00390625 .2659912-.00390625 .33198548 .006088257 .36099244 .035079957 .3889923 .0030822755 .42599488 .001083374 .46499635 .001083374H.4850006C.5009918 .001083374 .5239868 .0040893557 .5239868 .034088136 .5239868 .062088014 .5029907 .066085819 .4869995 .066085819H.47299195C.44898988 .066085819 .42599488 .066085819 .42599488 .086120609V.24433899C.42599488 .25735475 .4269867 .27038575 .4269867 .2834015 .4269867 .365448 .35899354 .42243959 .2809906 .43644715 .26098634 .43945313 .24198914 .43945313 .22200012 .43945313 .16799927 .43945313 .07899475 .43644715 .07899475 .36444093 .07899475 .33644105 .100997928 .31744386 .12599182 .31744386 .1579895 .31744386 .17199707 .34344483 .17199707 .3714447M.35198976 .2183075V.14120484C.35198976 .08010864 .2849884 .061080934 .22999573 .061080934 .19099427 .061080934 .1269989 .07911682 .1269989 .13319397 .1269989 .18426514 .21499634 .20329285 .2559967 .21029663 .28799439 .21530152 .31999208 .2183075 .35198976 .2183075Z"/>
<path id="font_55_16" d="M.23799134 .36566163V.065963748H.11299133C.085998538 .065963748 .07398987 .053970338 .07398987 .033966066 .07398987 .017974854 .083999637 .0029754639 .101989749 .0009765625H.42399598C.44699098 .0009765625 .45899964 .013961792 .45899964 .032974245 .45899964 .052963258 .44699098 .066970828 .42099 .066970828 .41299439 .066970828 .40499879 .065963748 .397995 .065963748H.31199647V.39265443C.31199647 .4226532 .29599 .43066407 .272995 .43066407H.11999512C.09599304 .43066407 .08198547 .4186554 .08198547 .3976593 .08198547 .37965394 .09399414 .36566163 .115997318 .36566163H.23799134M.2539978 .6123047C.22599793 .60827639 .20999146 .5852051 .20999146 .56211856 .20999146 .539032 .22898865 .51094058 .2579956 .51094058 .29100038 .51094058 .31199647 .5350189 .31199647 .56211856 .31199647 .58517459 .29299928 .61328127 .2630005 .61328127 .2599945 .6132965 .25698854 .6123047 .2539978 .6123047Z"/>
<path id="font_55_19" d="M.16799927 .38554383V.3945465C.16799927 .4295349 .14498902 .430542 .125 .430542H.04699707C.025985718 .430542 .0079956059 .4225464 .0079956059 .39753724 .0079956059 .37654115 .023986817 .36553956 .042999269 .36553956H.09399414V.065963748H.041992189C.019989014 .065963748 .0079956059 .050964357 .0079956059 .032974245 .0079956059 .009963989 .024993897 .0009765625 .04798889 .0009765625H.21398926C.23799134 .0009765625 .2539978 .010971069 .2539978 .032974245 .2539978 .050964357 .24198914 .065963748 .21998596 .065963748H.16799927V.22973633C.16799927 .26368714 .17298889 .29563905 .19400025 .3216095 .21798706 .3515625 .2539978 .37054444 .29299928 .37054444 .32998658 .37054444 .35598756 .3535614 .35598756 .29264833V.065963748H.32199098C.29699708 .065963748 .2809906 .05596924 .2809906 .032974245 .2809906 .009963989 .2979889 .0009765625 .32099916 .0009765625H.47698976C.5009918 .0009765625 .5159912 .010971069 .5159912 .032974245 .5159912 .050964357 .5039978 .065963748 .48199464 .065963748H.42999269V.2826538C.42999269 .3575592 .4039917 .43554688 .29899598 .43554688 .25099183 .43554688 .20399475 .4175415 .16799927 .38554383Z"/>
<path id="font_55_22" d="M.3959961 .6943054C.36299134 .68930056 .30299378 .63027957 .2709961 .59025576 .20698548 .5102234 .17199707 .40818788 .17199707 .30613709 .17199707 .16607666 .23699951 .03201294 .34899903-.053024293 .3639984-.06503296 .38398744-.08203125 .40499879-.08203125 .4229889-.08203125 .43699647-.06803894 .43699647-.05203247 .43699647-.03201294 .4189911-.024017334 .40499879-.014007568 .30099488 .055023195 .24598694 .18507385 .24598694 .30613709 .24598694 .42918397 .3019867 .5632477 .4139862 .6332855 .42599488 .6412811 .43699647 .6502838 .43699647 .66529849 .43699647 .68330386 .42199708 .6953125 .40499879 .6953125 .4019928 .6953125 .39898683 .6953125 .3959961 .6943054Z"/>
<path id="font_55_23" d="M.11199951 .69433596C.09700012 .69233706 .08699036 .67832949 .08699036 .6643219 .08699036 .64930728 .09899902 .64030459 .11099243 .6333008 .21899414 .5622711 .27799989 .43321229 .27799989 .30615235 .27799989 .18008423 .22099304 .057022096 .115997318-.01600647 .101989749-.026016236 .08699036-.03302002 .08699036-.052017213 .08699036-.06803894 .100997928-.08203125 .117996219-.08203125 .13598633-.08203125 .1519928-.07003784 .1659851-.059020997 .2869873 .027008057 .35198976 .16508484 .35198976 .30815126 .35198976 .44921876 .2849884 .58628848 .16999817 .6703186 .15499878 .68130496 .13798523 .6953125 .11898804 .6953125 .116989139 .69532778 .11399841 .69433596 .11199951 .69433596Z"/>
<path id="font_55_6" d="M.24299622 .30586244C.28399659 .3318634 .29899598 .36486817 .29899598 .41285707V.5628662C.29899598 .62187197 .3639984 .62586978 .41999818 .6298828H.43299867C.44799806 .6298828 .46099855 .6318817 .46899415 .6548767V.6678772C.46099855 .6918793 .44898988 .6958771 .42799378 .6958771 .35499574 .6958771 .23899842 .6838684 .22499085 .58587649V.40786744C.22499085 .339859 .13198853 .3388672 .08699036 .3388672 .067993167 .3388672 .054992677 .32286073 .054992677 .30485536 .054992677 .26986695 .09098816 .27386476 .10998535 .27285768 .1559906 .27186585 .22499085 .26286317 .22499085 .21188355V.05192566C.22499085 .031936647 .22599793 .010940552 .23498535-.008056641 .2689972-.075042728 .37098695-.08203125 .4249878-.08203125H.43499757C.45799256-.08203125 .46899415-.06704712 .46899415-.049041749 .46899415-.030059815 .45599366-.017059327 .43299867-.017059327H.4189911C.36999513-.012054443 .29899598-.013061523 .29899598 .046920778V.22587586C.29499818 .25785829 .27398683 .29385377 .24299622 .30586244Z"/>
<path id="font_56_1" d="M.19599915 .053985597C.19599915 .08299255 .17298889 .10798645 .14199829 .10798645 .11099243 .10798645 .08799744 .08299255 .08799744 .053985597 .08799744 .024993897 .11099243 0 .14199829 0 .17298889 0 .19599915 .024993897 .19599915 .053985597Z"/>
<path id="font_55_7" d="M.2809906 .306839C.23999024 .280838 .22499085 .24784851 .22499085 .19987488V.049957277C.22499085-.009017944 .1599884-.013015747 .10398865-.01701355H.09098816C.07598877-.01701355 .06298828-.019012452 .054992677-.042022706V-.055007936C.06298828-.07901001 .07499695-.08300781 .09700012-.08300781 .16799927-.08300781 .2899933-.06800842 .29899598 .02696228V.20487976C.29899598 .2728424 .3919983 .27383424 .43699647 .27383424 .45599366 .27383424 .46998597 .28883363 .46998597 .306839 .46998597 .34184266 .43399049 .33883668 .4139862 .33984376 .36799623 .34083558 .29899598 .34985353 .29899598 .40090943V.5611267C.29899598 .58114627 .2979889 .60217288 .2889862 .62120059 .25498963 .68829348 .15299988 .6953125 .09899902 .6953125H.08999634C.067993167 .6953125 .054992677 .6812897 .054992677 .6632538 .054992677 .6422272 .069992069 .6302185 .09098816 .6302185H.10499573C.1539917 .6252136 .22499085 .62620547 .22499085 .5661316V.38690187C.22898865 .3548584 .25 .3188324 .2809906 .306839Z"/>
<path id="font_55_21" d="M.16799927 .39053346V.39753724C.16799927 .427536 .14498902 .430542 .12599182 .430542H.070999149C.06399536 .430542 .056991579 .4315338 .04899597 .4315338 .026992798 .4315338 .0079956059 .4225464 .0079956059 .39753724 .0079956059 .37654115 .023986817 .36553956 .042999269 .36553956H.09399414V-.15571594H.041992189C.019989014-.15571594 .0079956059-.17071533 .0079956059-.18870545 .0079956059-.2117157 .024993897-.22070313 .04798889-.22070313H.21398926C.23799134-.22070313 .2539978-.21070862 .2539978-.18870545 .2539978-.17071533 .24198914-.15571594 .21998596-.15571594H.16799927V.04411316C.19799805 .01411438 .23899842-.0048828127 .28199769-.0048828127 .40098573-.0048828127 .48999024 .10203552 .48999024 .21881104 .48999024 .31663514 .42099 .43554688 .2939911 .43554688 .24598694 .43554688 .20599365 .4195404 .16799927 .39053346M.4149933 .20384217C.40899659 .13197327 .35699464 .06111145 .27799989 .06111145 .21099854 .06111145 .16699219 .13796997 .16699219 .19386292 .16699219 .20584107 .16799927 .21781922 .16799927 .22879029V.27770997C.1749878 .3296051 .23599243 .36953736 .2869873 .36953736 .3659973 .36953736 .41600038 .29167176 .41600038 .22080994 .41600038 .21482849 .41600038 .20982361 .4149933 .20384217Z"/>
<path id="font_55_12" d="M.12998963 .19042969H.42399598C.45199586 .19042969 .46398927 .20341492 .46398927 .22842407 .46398927 .33343507 .4079895 .43945313 .2669983 .43945313 .147995 .43945313 .052993776 .33444215 .052993776 .21842957 .052993776 .08314514 .17098999-.00390625 .28799439-.00390625 .34899903-.00390625 .41600038 .019088746 .44999696 .07312012 .45700074 .08314514 .46398927 .09718323 .46398927 .11021423V.112213138C.46199037 .13227844 .44799806 .1402893 .42599488 .1402893 .3959961 .1402893 .394989 .12124634 .38398744 .10520935 .3639984 .0741272 .32598878 .06008911 .29100038 .06008911 .21699524 .06008911 .14099121 .1162262 .12998963 .19042969M.1309967 .25442506C.14498902 .3194275 .19999695 .37445069 .2709961 .37445069 .32899476 .37445069 .38398744 .33244325 .3880005 .25442506H.1309967Z"/>
<path id="font_55_10" d="M.35598756 .54730227V.39353944C.32299806 .4195404 .28399659 .43554688 .24198914 .43554688 .12399292 .43554688 .033996583 .33261109 .033996583 .21382141 .033996583 .10002136 .11999512-.00390625 .23098755-.00390625 .27799989-.00390625 .32299806 .016082764 .35598756 .049087526V.038085939C.35598756 .013092041 .36898805 .001083374 .3939972 .001083374H.47898866C.49899293 .001083374 .5159912 .01109314 .5159912 .034088136 .5159912 .05609131 .5 .06607056 .47999574 .06607056H.42999269V.5792999C.42999269 .59820559 .41799928 .61328127 .3939972 .61328127 .3880005 .6132965 .3809967 .6123047 .375 .6123047H.31199647C.2939911 .6123047 .269989 .6092987 .269989 .58029177 .269989 .56030276 .2829895 .54730227 .30499269 .54730227H.35598756M.10798645 .2038269C.10798645 .20881653 .10699463 .21281433 .10699463 .21780396 .10699463 .29267884 .16499329 .37054444 .24499512 .37054444H.25C.30599977 .36753846 .35699464 .31863404 .35699464 .2637329 .35699464 .25274659 .35598756 .24276734 .35598756 .231781 .35598756 .22180176 .35699464 .21182251 .35699464 .20184326 .35699464 .13694763 .30899049 .061080934 .23498535 .061080934 .1559906 .061080934 .115997318 .13995362 .10798645 .2038269Z"/>
<path id="font_55_8" d="M.2749939 .4394226C.16499329 .42642213 .07199097 .33836366 .07199097 .2171936 .07199097 .11009216 .1519928-.00390625 .29599-.00390625 .36099244-.00390625 .42999269 .022079468 .45799256 .08409119 .46199037 .09309387 .46499635 .10308838 .46499635 .112091068 .46499635 .13308716 .44699098 .14009094 .42900086 .14009094 .3769989 .14016724 .39698792 .061080934 .2979889 .061080934 .21299744 .061080934 .14498902 .13516236 .14498902 .21725464 .14498902 .26930238 .16999817 .32136537 .21598816 .35139466 .24499512 .37042237 .27598573 .37442018 .30899049 .37442018H.32798768C.34399415 .37442018 .36099244 .37342835 .36099244 .3624115V.35839845C.3659973 .33337403 .38398744 .31736756 .40699769 .31736756 .43299867 .31736756 .45399476 .3383789 .45399476 .36340333 .45399476 .4374237 .35398866 .4404297 .30699159 .4404297H.29499818C.28799439 .4404297 .28199769 .4404297 .2749939 .4394226Z"/>
<path id="font_56_2" d="M.69200137 .5072174C.70098879 .5112152 .71199038 .5172272 .71199038 .53022769 .71199038 .541214 .70399478 .5522156 .6899872 .5522156 .68899539 .5522156 .6839905 .5522156 .6719971 .5462189L.10598755 .2742157C.09700012 .2702179 .085998538 .2642212 .085998538 .2512207 .085998538 .23721314 .09498596 .23220825 .10598755 .22721863L.66999819-.043792726C.6839905-.05078125 .6879883-.05078125 .6899872-.05078125 .70599368-.05078125 .71199038-.03678894 .71199038-.029785157 .71199038-.016784668 .7049866-.012786865 .69400027-.0077819826L.15699768 .2512207 .69200137 .5072174Z"/>
<path id="font_55_20" d="M.24798584 .43945313C.13598633 .42645265 .05899048 .33439637 .054992677 .22727967V.2172699C.054992677 .10614014 .13699341-.00390625 .2630005-.00390625H.2749939C.3880005 .006088257 .46499635 .102127078 .46899415 .20625305V.21426392C.46899415 .32539369 .3899994 .43945313 .2599945 .43945313H.24798584M.1289978 .21125794C.1289978 .21525574 .12799073 .22027588 .12799073 .22427368 .12799073 .29936219 .18399048 .37445069 .2630005 .37445069H.2639923C.33898927 .37445069 .3869934 .30436708 .394989 .23628235V.22627259C.394989 .15219116 .34799195 .061080934 .2599945 .061080934 .18099976 .061080934 .13598633 .14317322 .1289978 .21125794Z"/>
<path id="font_55_15" d="M.09399414 .54730227V.065963748H.041992189C.019989014 .065963748 .0079956059 .050964357 .0079956059 .032974245 .0079956059 .009963989 .024993897 .0009765625 .04798889 .0009765625H.21398926C.23799134 .0009765625 .2539978 .010971069 .2539978 .032974245 .2539978 .050964357 .24198914 .065963748 .21998596 .065963748H.16799927V.22973633C.16799927 .26368714 .17298889 .29563905 .19400025 .3216095 .21798706 .3515625 .2539978 .37054444 .29299928 .37054444 .32998658 .37054444 .35598756 .3535614 .35598756 .29264833V.065963748H.32199098C.29699708 .065963748 .2809906 .05596924 .2809906 .032974245 .2809906 .009963989 .2979889 .0009765625 .32099916 .0009765625H.47698976C.5009918 .0009765625 .5159912 .010971069 .5159912 .032974245 .5159912 .050964357 .5039978 .065963748 .48199464 .065963748H.42999269V.28266908C.42999269 .3575592 .4039917 .43554688 .29899598 .43554688 .25099183 .43554688 .20399475 .4175415 .16799927 .38554383V.57229617C.16799927 .6112976 .1459961 .6123047 .12599182 .6123047H.037994386C.020996094 .6102905 .0079956059 .5982971 .0079956059 .58029177 .0079956059 .56129458 .020996094 .54730227 .042999269 .54730227H.09399414Z"/>
<path id="font_55_30" d="M.08699036-.021713257C.067993167-.02470398 .055999757-.04270935 .055999757-.05970764 .055999757-.080703739 .07299805-.095703128 .100997928-.095703128H.4229889C.45199586-.095703128 .46798707-.079711917 .46798707-.05871582 .46798707-.04071045 .45599366-.022705079 .43499757-.020706177H.10598755C.099990848-.020706177 .09298706-.020706177 .08699036-.021713257Z"/>
<path id="font_55_14" d="M.18099976 .43066407H.08299255C.056991579 .43066407 .042999269 .4186554 .042999269 .3976593 .042999269 .37464906 .06098938 .36566163 .08099365 .36566163H.18099976V.065963748H.09700012C.08999634 .065963748 .08299255 .066970828 .07499695 .066970828 .050994874 .066970828 .037994386 .052963258 .037994386 .033966066 .037994386 .013961792 .051986696 .0009765625 .07398987 .0009765625H.29599C.31199647 .0009918213 .32798768 0 .34498597 0 .3769989 0 .397995 .004989624 .397995 .033966066 .397995 .052947999 .38398744 .06692505 .36099244 .06692505 .35398866 .066970828 .34700013 .065963748 .34098817 .065963748H.25498963V.36566163H.38398744C.4039917 .36566163 .4169922 .380661 .4169922 .39865113 .4169922 .42565919 .3929901 .43066407 .37599183 .43066407H.25498963V.48388673C.25498963 .526062 .2939911 .55218508 .33399964 .55218508 .35598756 .55218508 .35398866 .5091858 .3919983 .5091858 .4189911 .5091858 .43699647 .5311737 .43699647 .55818179 .43399049 .6061859 .38198854 .6171875 .34098817 .6171875 .25698854 .6171875 .18099976 .57118228 .18099976 .47494508V.43066407Z"/>
<path id="font_55_27" d="M.14099121 .031082154C.1769867 .0050811769 .22200012-.00390625 .2659912-.00390625 .34999085-.00390625 .45899964 .024093628 .45899964 .12716675 .45899964 .25730897 .269989 .26031495 .20599365 .2733307 .1789856 .27934266 .13699341 .29335023 .13699341 .3193817 .13699341 .36643983 .21398926 .37445069 .2539978 .37445069 .2869873 .37445069 .34498597 .3734436 .35299684 .33439637 .35899354 .31144715 .35798646 .29144288 .3929901 .29144288 .4249878 .29144288 .42900086 .31243897 .42900086 .33244325V.40245057C.42900086 .42243959 .4189911 .43945313 .397995 .43945313 .3849945 .43945313 .37199403 .43244935 .36698915 .42044068 .33599855 .43544007 .2999878 .43945313 .2659912 .43945313 .18199158 .43945313 .07199097 .41545106 .07199097 .31944276 .07199097 .15222168 .3939972 .24136353 .3939972 .12619019 .3939972 .065093997 .29599 .061080934 .27198792 .061080934H.2669983C.21899414 .061080934 .17399597 .07911682 .1519928 .12919617 .14199829 .15408325 .13899231 .17108155 .10798645 .17108155 .07499695 .17108155 .07199097 .14909363 .07199097 .13008118V.033081056C.07199097 .013092041 .08198547-.00390625 .10398865-.00390625 .12399292-.00390625 .13699341 .012084961 .14099121 .031082154Z"/>
<path id="font_56_3" d="M.69200137 .22721863C.7029877 .23220825 .71199038 .23721314 .71199038 .2512207 .71199038 .2642212 .70098879 .2702179 .69200137 .2742157L.12799073 .5452118C.11399841 .5522156 .10899353 .5522156 .10699463 .5522156 .09399414 .5522156 .085998538 .541214 .085998538 .5312195 .085998538 .5192261 .09199524 .5142212 .10598755 .5072174L.6409912 .2512207 .10598755-.005783081C.09199524-.012786865 .085998538-.017791748 .085998538-.029785157 .085998538-.03678894 .09199524-.05078125 .10798645-.05078125 .10899353-.05078125 .11399841-.05078125 .12599182-.044784547L.69200137 .22721863Z"/>
</defs>
<path transform="matrix(1,0,0,-1,89.841,121.2612)" d="M0 0V70.453C0 97.965 22.302 120.267 49.814 120.267H120.267C147.779 120.267 170.081 97.965 170.081 70.453V0C170.081-27.512 147.779-49.814 120.267-49.814H49.814C22.302-49.814 0-27.512 0 0Z" fill="#ebeef4"/>
<path transform="matrix(1,0,0,-1,89.841,121.2612)" stroke-width="1.993" stroke-linecap="butt" stroke-miterlimit="10" stroke-linejoin="miter" fill="none" stroke="#3b528b" d="M0 0V70.453C0 97.965 22.302 120.267 49.814 120.267H120.267C147.779 120.267 170.081 97.965 170.081 70.453V0C170.081-27.512 147.779-49.814 120.267-49.814H49.814C22.302-49.814 0-27.512 0 0Z"/>
<path transform="matrix(1,0,0,-1,75.6676,54.586198)" d="M0 0V-62.897C0-65.098 1.784-66.882 3.985-66.882H24.362C26.563-66.882 28.347-65.098 28.347-62.897V0C28.347 2.201 26.563 3.985 24.362 3.985H3.985C1.784 3.985 0 2.201 0 0Z" fill="#3b528b"/>
<use data-text="I" xlink:href="#font_54_9" transform="matrix(0,-9.963,-9.963,-0,92.303,98.071)" fill="#ffffff"/>
<use data-text="n" xlink:href="#font_54_41" transform="matrix(0,-9.963,-9.963,-0,92.303,94.47436)" fill="#ffffff"/>
<use data-text="p" xlink:href="#font_54_44" transform="matrix(0,-9.963,-9.963,-0,92.303,88.94489)" fill="#ffffff"/>
<use data-text="u" xlink:href="#font_54_54" transform="matrix(0,-9.963,-9.963,-0,92.303,83.41543)" fill="#ffffff"/>
<use data-text="t" xlink:href="#font_54_51" transform="matrix(0,-9.963,-9.963,-0,92.303,77.88596)" fill="#ffffff"/>
<path transform="matrix(1,0,0,-1,94.092807,60.5226)" d="M0 0C0 2.348-1.904 4.252-4.252 4.252-6.6 4.252-8.504 2.348-8.504 0-8.504-2.348-6.6-4.252-4.252-4.252-1.904-4.252 0-2.348 0 0Z" fill="#80aabb"/>
<path transform="matrix(1,0,0,-1,94.092807,60.5226)" stroke-width=".398" stroke-linecap="butt" stroke-miterlimit="10" stroke-linejoin="miter" fill="none" stroke="#4d6670" d="M0 0C0 2.348-1.904 4.252-4.252 4.252-6.6 4.252-8.504 2.348-8.504 0-8.504-2.348-6.6-4.252-4.252-4.252-1.904-4.252 0-2.348 0 0Z"/>
<use data-text="t" xlink:href="#font_54_51" transform="matrix(9.963,0,0,-9.963,12.727,63.955)"/>
<use data-text="r" xlink:href="#font_54_49" transform="matrix(9.963,0,0,-9.963,16.602608,63.955)"/>
<use data-text="a" xlink:href="#font_54_23" transform="matrix(9.963,0,0,-9.963,20.508105,63.955)"/>
<use data-text="i" xlink:href="#font_54_36" transform="matrix(9.963,0,0,-9.963,25.489605,63.955)"/>
<use data-text="n" xlink:href="#font_54_41" transform="matrix(9.963,0,0,-9.963,28.25932,63.955)"/>
<use data-text=":" xlink:href="#font_54_26" transform="matrix(9.963,0,0,-9.963,33.788785,63.955)"/>
<use data-text="&quot;" xlink:href="#font_54_48" transform="matrix(9.963,0,0,-9.963,40.971,63.955)"/>
<use data-text="T" xlink:href="#font_54_19" transform="matrix(9.963,0,0,-9.963,45.9525,63.955)"/>
<use data-text="a" xlink:href="#font_54_23" transform="matrix(9.963,0,0,-9.963,52.31886,63.955)"/>
<use data-text="s" xlink:href="#font_54_50" transform="matrix(9.963,0,0,-9.963,57.300359,63.955)"/>
<use data-text="k" xlink:href="#font_54_38" transform="matrix(9.963,0,0,-9.963,61.22578,63.955)"/>
<use data-text="&quot;" xlink:href="#font_54_48" transform="matrix(9.963,0,0,-9.963,66.486248,63.955)"/>
<path transform="matrix(1,0,0,-1,94.092807,111.54649)" d="M0 0C0 2.348-1.904 4.252-4.252 4.252-6.6 4.252-8.504 2.348-8.504 0-8.504-2.348-6.6-4.252-4.252-4.252-1.904-4.252 0-2.348 0 0Z" fill="#80aabb"/>
<path transform="matrix(1,0,0,-1,94.092807,111.54649)" stroke-width=".398" stroke-linecap="butt" stroke-miterlimit="10" stroke-linejoin="miter" fill="none" stroke="#4d6670" d="M0 0C0 2.348-1.904 4.252-4.252 4.252-6.6 4.252-8.504 2.348-8.504 0-8.504-2.348-6.6-4.252-4.252-4.252-1.904-4.252 0-2.348 0 0Z"/>
<use data-text="p" xlink:href="#font_54_44" transform="matrix(9.963,0,0,-9.963,3.32,114.009)"/>
<use data-text="r" xlink:href="#font_54_49" transform="matrix(9.963,0,0,-9.963,8.849465,114.009)"/>
<use data-text="e" xlink:href="#font_54_29" transform="matrix(9.963,0,0,-9.963,12.754962,114.009)"/>
<use data-text="d" xlink:href="#font_54_28" transform="matrix(9.963,0,0,-9.963,17.178536,114.009)"/>
<use data-text="i" xlink:href="#font_54_36" transform="matrix(9.963,0,0,-9.963,22.708,114.009)"/>
<use data-text="c" xlink:href="#font_54_25" transform="matrix(9.963,0,0,-9.963,25.477715,114.009)"/>
<use data-text="t" xlink:href="#font_54_51" transform="matrix(9.963,0,0,-9.963,29.901288,114.009)"/>
<use data-text=":" xlink:href="#font_54_26" transform="matrix(9.963,0,0,-9.963,33.776895,114.009)"/>
<use data-text="&quot;" xlink:href="#font_54_48" transform="matrix(9.963,0,0,-9.963,40.969,114.009)"/>
<use data-text="T" xlink:href="#font_54_19" transform="matrix(9.963,0,0,-9.963,45.9505,114.009)"/>
<use data-text="a" xlink:href="#font_54_23" transform="matrix(9.963,0,0,-9.963,52.31686,114.009)"/>
<use data-text="s" xlink:href="#font_54_50" transform="matrix(9.963,0,0,-9.963,57.29836,114.009)"/>
<use data-text="k" xlink:href="#font_54_38" transform="matrix(9.963,0,0,-9.963,61.22378,114.009)"/>
<use data-text="&quot;" xlink:href="#font_54_48" transform="matrix(9.963,0,0,-9.963,66.484249,114.009)"/>
<path transform="matrix(1,0,0,-1,245.7485,54.586198)" d="M0 0V-62.897C0-65.098 1.784-66.882 3.985-66.882H24.362C26.563-66.882 28.347-65.098 28.347-62.897V0C28.347 2.201 26.563 3.985 24.362 3.985H3.985C1.784 3.985 0 2.201 0 0Z" fill="#3b528b"/>
<use data-text="O" xlink:href="#font_54_14" transform="matrix(0,-9.963,-9.963,-0,262.382,102.082)" fill="#ffffff"/>
<use data-text="u" xlink:href="#font_54_54" transform="matrix(0,-9.963,-9.963,-0,262.382,94.33079)" fill="#ffffff"/>
<use data-text="t" xlink:href="#font_54_51" transform="matrix(0,-9.963,-9.963,-0,262.382,88.80132)" fill="#ffffff"/>
<use data-text="p" xlink:href="#font_54_44" transform="matrix(0,-9.963,-9.963,-0,262.382,84.92571)" fill="#ffffff"/>
<use data-text="u" xlink:href="#font_54_54" transform="matrix(0,-9.963,-9.963,-0,262.382,79.39625)" fill="#ffffff"/>
<use data-text="t" xlink:href="#font_54_51" transform="matrix(0,-9.963,-9.963,-0,262.382,73.86678)" fill="#ffffff"/>
<path transform="matrix(1,0,0,-1,264.1737,60.5226)" d="M0 0C0 2.348-1.904 4.252-4.252 4.252-6.6 4.252-8.504 2.348-8.504 0-8.504-2.348-6.6-4.252-4.252-4.252-1.904-4.252 0-2.348 0 0Z" fill="#80aabb"/>
<path transform="matrix(1,0,0,-1,264.1737,60.5226)" stroke-width=".398" stroke-linecap="butt" stroke-miterlimit="10" stroke-linejoin="miter" fill="none" stroke="#4d6670" d="M0 0C0 2.348-1.904 4.252-4.252 4.252-6.6 4.252-8.504 2.348-8.504 0-8.504-2.348-6.6-4.252-4.252-4.252-1.904-4.252 0-2.348 0 0Z"/>
<use data-text="t" xlink:href="#font_54_51" transform="matrix(9.963,0,0,-9.963,278.296,63.955)"/>
<use data-text="r" xlink:href="#font_54_49" transform="matrix(9.963,0,0,-9.963,282.1716,63.955)"/>
<use data-text="a" xlink:href="#font_54_23" transform="matrix(9.963,0,0,-9.963,286.0771,63.955)"/>
<use data-text="i" xlink:href="#font_54_36" transform="matrix(9.963,0,0,-9.963,291.0586,63.955)"/>
<use data-text="n" xlink:href="#font_54_41" transform="matrix(9.963,0,0,-9.963,293.8283,63.955)"/>
<use data-text=":" xlink:href="#font_54_26" transform="matrix(9.963,0,0,-9.963,299.3578,63.955)"/>
<use data-text="&quot;" xlink:href="#font_54_48" transform="matrix(9.963,0,0,-9.963,306.5511,63.955)"/>
<use data-text="T" xlink:href="#font_54_19" transform="matrix(9.963,0,0,-9.963,311.5326,63.955)"/>
<use data-text="a" xlink:href="#font_54_23" transform="matrix(9.963,0,0,-9.963,317.89897,63.955)"/>
<use data-text="s" xlink:href="#font_54_50" transform="matrix(9.963,0,0,-9.963,322.88047,63.955)"/>
<use data-text="k" xlink:href="#font_54_38" transform="matrix(9.963,0,0,-9.963,326.80589,63.955)"/>
<use data-text="&quot;" xlink:href="#font_54_48" transform="matrix(9.963,0,0,-9.963,332.06636,63.955)"/>
<path transform="matrix(1,0,0,-1,264.1737,111.54649)" d="M0 0C0 2.348-1.904 4.252-4.252 4.252-6.6 4.252-8.504 2.348-8.504 0-8.504-2.348-6.6-4.252-4.252-4.252-1.904-4.252 0-2.348 0 0Z" fill="#80aabb"/>
<path transform="matrix(1,0,0,-1,264.1737,111.54649)" stroke-width=".398" stroke-linecap="butt" stroke-miterlimit="10" stroke-linejoin="miter" fill="none" stroke="#4d6670" d="M0 0C0 2.348-1.904 4.252-4.252 4.252-6.6 4.252-8.504 2.348-8.504 0-8.504-2.348-6.6-4.252-4.252-4.252-1.904-4.252 0-2.348 0 0Z"/>
<use data-text="p" xlink:href="#font_54_44" transform="matrix(9.963,0,0,-9.963,278.296,114.009)"/>
<use data-text="r" xlink:href="#font_54_49" transform="matrix(9.963,0,0,-9.963,283.82548,114.009)"/>
<use data-text="e" xlink:href="#font_54_29" transform="matrix(9.963,0,0,-9.963,287.73097,114.009)"/>
<use data-text="d" xlink:href="#font_54_28" transform="matrix(9.963,0,0,-9.963,292.15455,114.009)"/>
<use data-text="i" xlink:href="#font_54_36" transform="matrix(9.963,0,0,-9.963,297.68403,114.009)"/>
<use data-text="c" xlink:href="#font_54_25" transform="matrix(9.963,0,0,-9.963,300.45375,114.009)"/>
<use data-text="t" xlink:href="#font_54_51" transform="matrix(9.963,0,0,-9.963,304.87733,114.009)"/>
<use data-text=":" xlink:href="#font_54_26" transform="matrix(9.963,0,0,-9.963,308.75294,114.009)"/>
<use data-text="&quot;" xlink:href="#font_54_48" transform="matrix(9.963,0,0,-9.963,315.945,114.009)"/>
<use data-text="T" xlink:href="#font_54_19" transform="matrix(9.963,0,0,-9.963,320.9265,114.009)"/>
<use data-text="a" xlink:href="#font_54_23" transform="matrix(9.963,0,0,-9.963,327.29289,114.009)"/>
<use data-text="s" xlink:href="#font_54_50" transform="matrix(9.963,0,0,-9.963,332.27439,114.009)"/>
<use data-text="k" xlink:href="#font_54_38" transform="matrix(9.963,0,0,-9.963,336.1998,114.009)"/>
<use data-text="&quot;" xlink:href="#font_54_48" transform="matrix(9.963,0,0,-9.963,341.46028,114.009)"/>
<path transform="matrix(1,0,0,-1,125.274509,53.702699)" d="M0 0V37.385C0 39.586 1.784 41.37 3.985 41.37H95.229C97.43 41.37 99.214 39.586 99.214 37.385V0C99.214-2.201 97.43-3.985 95.229-3.985H3.985C1.784-3.985 0-2.201 0 0Z" fill="#e4f1f1"/>
<path transform="matrix(1,0,0,-1,125.274509,53.702699)" stroke-width=".398" stroke-linecap="butt" stroke-miterlimit="10" stroke-linejoin="miter" fill="none" stroke="#000000" d="M0 0V37.385C0 39.586 1.784 41.37 3.985 41.37H95.229C97.43 41.37 99.214 39.586 99.214 37.385V0C99.214-2.201 97.43-3.985 95.229-3.985H3.985C1.784-3.985 0-2.201 0 0Z"/>
<use data-text="." xlink:href="#font_55_24" transform="matrix(8.966,0,0,-8.966,131.543,26.791993)"/>
<use data-text="$" xlink:href="#font_55_11" transform="matrix(8.966,0,0,-8.966,136.25016,26.791993)"/>
<use data-text="t" xlink:href="#font_55_28" transform="matrix(8.966,0,0,-8.966,140.9573,26.791993)"/>
<use data-text="r" xlink:href="#font_55_26" transform="matrix(8.966,0,0,-8.966,145.66446,26.791993)"/>
<use data-text="a" xlink:href="#font_55_4" transform="matrix(8.966,0,0,-8.966,150.37162,26.791993)"/>
<use data-text="i" xlink:href="#font_55_16" transform="matrix(8.966,0,0,-8.966,155.07877,26.791993)"/>
<use data-text="n" xlink:href="#font_55_19" transform="matrix(8.966,0,0,-8.966,159.78592,26.791993)"/>
<use data-text="(" xlink:href="#font_55_22" transform="matrix(8.966,0,0,-8.966,164.49308,26.791993)"/>
<use data-text=")" xlink:href="#font_55_23" transform="matrix(8.966,0,0,-8.966,169.20023,26.791993)"/>
<use data-text="{" xlink:href="#font_55_6" transform="matrix(8.966,0,0,-8.966,176.97376,26.791993)"/>
<use data-text="." xlink:href="#font_56_1" transform="matrix(8.966,0,0,-8.966,140.955,37.75099)"/>
<use data-text="." xlink:href="#font_56_1" transform="matrix(8.966,0,0,-8.966,145.05246,37.75099)"/>
<use data-text="." xlink:href="#font_56_1" transform="matrix(8.966,0,0,-8.966,149.15888,37.75099)"/>
<use data-text="}" xlink:href="#font_55_7" transform="matrix(8.966,0,0,-8.966,131.543,48.70999)"/>
<path transform="matrix(1,0,0,-1,132.2762,35.010194)" d="M0 0C0 2.348-1.904 4.252-4.252 4.252-6.6 4.252-8.504 2.348-8.504 0-8.504-2.348-6.6-4.252-4.252-4.252-1.904-4.252 0-2.348 0 0Z" fill="#fdf07c"/>
<path transform="matrix(1,0,0,-1,132.2762,35.010194)" stroke-width=".398" stroke-linecap="butt" stroke-miterlimit="10" stroke-linejoin="miter" fill="none" stroke="#98904a" d="M0 0C0 2.348-1.904 4.252-4.252 4.252-6.6 4.252-8.504 2.348-8.504 0-8.504-2.348-6.6-4.252-4.252-4.252-1.904-4.252 0-2.348 0 0Z"/>
<path transform="matrix(1,0,0,-1,225.99031,35.010194)" d="M0 0C0 2.348-1.904 4.252-4.252 4.252-6.6 4.252-8.504 2.348-8.504 0-8.504-2.348-6.6-4.252-4.252-4.252-1.904-4.252 0-2.348 0 0Z" fill="#fdf07c"/>
<path transform="matrix(1,0,0,-1,225.99031,35.010194)" stroke-width=".398" stroke-linecap="butt" stroke-miterlimit="10" stroke-linejoin="miter" fill="none" stroke="#98904a" d="M0 0C0 2.348-1.904 4.252-4.252 4.252-6.6 4.252-8.504 2.348-8.504 0-8.504-2.348-6.6-4.252-4.252-4.252-1.904-4.252 0-2.348 0 0Z"/>
<path transform="matrix(1,0,0,-1,125.274509,104.727)" d="M0 0V37.385C0 39.586 1.784 41.37 3.985 41.37H95.229C97.43 41.37 99.214 39.586 99.214 37.385V0C99.214-2.201 97.43-3.985 95.229-3.985H3.985C1.784-3.985 0-2.201 0 0Z" fill="#e4f1f1"/>
<path transform="matrix(1,0,0,-1,125.274509,104.727)" stroke-width=".398" stroke-linecap="butt" stroke-miterlimit="10" stroke-linejoin="miter" fill="none" stroke="#000000" d="M0 0V37.385C0 39.586 1.784 41.37 3.985 41.37H95.229C97.43 41.37 99.214 39.586 99.214 37.385V0C99.214-2.201 97.43-3.985 95.229-3.985H3.985C1.784-3.985 0-2.201 0 0Z"/>
<use data-text="." xlink:href="#font_55_24" transform="matrix(8.966,0,0,-8.966,131.543,77.816)"/>
<use data-text="$" xlink:href="#font_55_11" transform="matrix(8.966,0,0,-8.966,136.25016,77.816)"/>
<use data-text="p" xlink:href="#font_55_21" transform="matrix(8.966,0,0,-8.966,140.9573,77.816)"/>
<use data-text="r" xlink:href="#font_55_26" transform="matrix(8.966,0,0,-8.966,145.66446,77.816)"/>
<use data-text="e" xlink:href="#font_55_12" transform="matrix(8.966,0,0,-8.966,150.37162,77.816)"/>
<use data-text="d" xlink:href="#font_55_10" transform="matrix(8.966,0,0,-8.966,155.07877,77.816)"/>
<use data-text="i" xlink:href="#font_55_16" transform="matrix(8.966,0,0,-8.966,159.78592,77.816)"/>
<use data-text="c" xlink:href="#font_55_8" transform="matrix(8.966,0,0,-8.966,164.49308,77.816)"/>
<use data-text="t" xlink:href="#font_55_28" transform="matrix(8.966,0,0,-8.966,169.20023,77.816)"/>
<use data-text="(" xlink:href="#font_55_22" transform="matrix(8.966,0,0,-8.966,173.90738,77.816)"/>
<use data-text=")" xlink:href="#font_55_23" transform="matrix(8.966,0,0,-8.966,178.61454,77.816)"/>
<use data-text="{" xlink:href="#font_55_6" transform="matrix(8.966,0,0,-8.966,186.38806,77.816)"/>
<use data-text="." xlink:href="#font_56_1" transform="matrix(8.966,0,0,-8.966,140.955,88.775)"/>
<use data-text="." xlink:href="#font_56_1" transform="matrix(8.966,0,0,-8.966,145.05246,88.775)"/>
<use data-text="." xlink:href="#font_56_1" transform="matrix(8.966,0,0,-8.966,149.15888,88.775)"/>
<use data-text="}" xlink:href="#font_55_7" transform="matrix(8.966,0,0,-8.966,131.543,99.733)"/>
<path transform="matrix(1,0,0,-1,132.2762,86.0346)" d="M0 0C0 2.348-1.904 4.252-4.252 4.252-6.6 4.252-8.504 2.348-8.504 0-8.504-2.348-6.6-4.252-4.252-4.252-1.904-4.252 0-2.348 0 0Z" fill="#fdf07c"/>
<path transform="matrix(1,0,0,-1,132.2762,86.0346)" stroke-width=".398" stroke-linecap="butt" stroke-miterlimit="10" stroke-linejoin="miter" fill="none" stroke="#98904a" d="M0 0C0 2.348-1.904 4.252-4.252 4.252-6.6 4.252-8.504 2.348-8.504 0-8.504-2.348-6.6-4.252-4.252-4.252-1.904-4.252 0-2.348 0 0Z"/>
<path transform="matrix(1,0,0,-1,225.99031,86.0346)" d="M0 0C0 2.348-1.904 4.252-4.252 4.252-6.6 4.252-8.504 2.348-8.504 0-8.504-2.348-6.6-4.252-4.252-4.252-1.904-4.252 0-2.348 0 0Z" fill="#fdf07c"/>
<path transform="matrix(1,0,0,-1,225.99031,86.0346)" stroke-width=".398" stroke-linecap="butt" stroke-miterlimit="10" stroke-linejoin="miter" fill="none" stroke="#98904a" d="M0 0C0 2.348-1.904 4.252-4.252 4.252-6.6 4.252-8.504 2.348-8.504 0-8.504-2.348-6.6-4.252-4.252-4.252-1.904-4.252 0-2.348 0 0Z"/>
<path transform="matrix(1,0,0,-1,125.274509,155.7513)" d="M0 0V37.385C0 39.586 1.784 41.37 3.985 41.37H95.229C97.43 41.37 99.214 39.586 99.214 37.385V0C99.214-2.201 97.43-3.985 95.229-3.985H3.985C1.784-3.985 0-2.201 0 0Z" fill="#e4f1f1"/>
<path transform="matrix(1,0,0,-1,125.274509,155.7513)" stroke-width=".398" stroke-linecap="butt" stroke-miterlimit="10" stroke-linejoin="miter" fill="none" stroke="#000000" d="M0 0V37.385C0 39.586 1.784 41.37 3.985 41.37H95.229C97.43 41.37 99.214 39.586 99.214 37.385V0C99.214-2.201 97.43-3.985 95.229-3.985H3.985C1.784-3.985 0-2.201 0 0Z"/>
<use data-text="." xlink:href="#font_55_24" transform="matrix(8.966,0,0,-8.966,131.543,123.36)"/>
<use data-text="$" xlink:href="#font_55_11" transform="matrix(8.966,0,0,-8.966,136.25016,123.36)"/>
<use data-text="&#x003c;" xlink:href="#font_56_2" transform="matrix(8.966,0,0,-8.966,140.9573,123.36)"/>
<use data-text="o" xlink:href="#font_55_20" transform="matrix(8.966,0,0,-8.966,148.12114,123.36)"/>
<use data-text="t" xlink:href="#font_55_28" transform="matrix(8.966,0,0,-8.966,152.8283,123.36)"/>
<use data-text="h" xlink:href="#font_55_15" transform="matrix(8.966,0,0,-8.966,157.53545,123.36)"/>
<use data-text="e" xlink:href="#font_55_12" transform="matrix(8.966,0,0,-8.966,162.2426,123.36)"/>
<use data-text="r" xlink:href="#font_55_26" transform="matrix(8.966,0,0,-8.966,166.94976,123.36)"/>
<use data-text="_" xlink:href="#font_55_30" transform="matrix(8.966,0,0,-8.966,171.6569,123.36)"/>
<use data-text="f" xlink:href="#font_55_14" transform="matrix(8.966,0,0,-8.966,176.36406,123.36)"/>
<use data-text="c" xlink:href="#font_55_8" transform="matrix(8.966,0,0,-8.966,181.07122,123.36)"/>
<use data-text="t" xlink:href="#font_55_28" transform="matrix(8.966,0,0,-8.966,185.77837,123.36)"/>
<use data-text="s" xlink:href="#font_55_27" transform="matrix(8.966,0,0,-8.966,190.48552,123.36)"/>
<use data-text="&#x003e;" xlink:href="#font_56_3" transform="matrix(8.966,0,0,-8.966,195.19268,123.36)"/>
<use data-text="(" xlink:href="#font_55_22" transform="matrix(8.966,0,0,-8.966,202.3565,123.36)"/>
<use data-text=")" xlink:href="#font_55_23" transform="matrix(8.966,0,0,-8.966,207.06366,123.36)"/>
<use data-text="{" xlink:href="#font_55_6" transform="matrix(8.966,0,0,-8.966,131.543,134.319)"/>
<use data-text="." xlink:href="#font_56_1" transform="matrix(8.966,0,0,-8.966,140.955,145.278)"/>
<use data-text="." xlink:href="#font_56_1" transform="matrix(8.966,0,0,-8.966,145.053,145.278)"/>
<use data-text="." xlink:href="#font_56_1" transform="matrix(8.966,0,0,-8.966,149.1594,145.278)"/>
<use data-text="}" xlink:href="#font_55_7" transform="matrix(8.966,0,0,-8.966,131.543,156.237)"/>
<path transform="matrix(1,0,0,-1,132.2762,137.0589)" d="M0 0C0 2.348-1.904 4.252-4.252 4.252-6.6 4.252-8.504 2.348-8.504 0-8.504-2.348-6.6-4.252-4.252-4.252-1.904-4.252 0-2.348 0 0Z" fill="#fdf07c"/>
<path transform="matrix(1,0,0,-1,132.2762,137.0589)" stroke-width=".398" stroke-linecap="butt" stroke-miterlimit="10" stroke-linejoin="miter" fill="none" stroke="#98904a" d="M0 0C0 2.348-1.904 4.252-4.252 4.252-6.6 4.252-8.504 2.348-8.504 0-8.504-2.348-6.6-4.252-4.252-4.252-1.904-4.252 0-2.348 0 0Z"/>
<path transform="matrix(1,0,0,-1,225.99031,137.0589)" d="M0 0C0 2.348-1.904 4.252-4.252 4.252-6.6 4.252-8.504 2.348-8.504 0-8.504-2.348-6.6-4.252-4.252-4.252-1.904-4.252 0-2.348 0 0Z" fill="#fdf07c"/>
<path transform="matrix(1,0,0,-1,225.99031,137.0589)" stroke-width=".398" stroke-linecap="butt" stroke-miterlimit="10" stroke-linejoin="miter" fill="none" stroke="#98904a" d="M0 0C0 2.348-1.904 4.252-4.252 4.252-6.6 4.252-8.504 2.348-8.504 0-8.504-2.348-6.6-4.252-4.252-4.252-1.904-4.252 0-2.348 0 0Z"/>
<path transform="matrix(1,0,0,-1,93.36,60.5226)" stroke-width="1.993" stroke-linecap="butt" stroke-miterlimit="10" stroke-linejoin="miter" fill="none" stroke="#5dc863" d="M0 0C31.145 0 0 25.512 30.647 25.512"/>
<path transform="matrix(1,0,0,-1,93.36,111.54649)" stroke-width="1.993" stroke-linecap="butt" stroke-miterlimit="10" stroke-linejoin="miter" fill="none" stroke="#a485ad" d="M0 0C31.145 0 0 25.512 30.647 25.512"/>
<path transform="matrix(1,0,0,-1,225.2574,35.010194)" stroke-width="1.993" stroke-linecap="butt" stroke-miterlimit="10" stroke-linejoin="miter" fill="none" stroke="#5dc863" d="M0 0C31.145 0 0-25.512 30.647-25.512"/>
<path transform="matrix(1,0,0,-1,225.2574,86.0346)" stroke-width="1.993" stroke-linecap="butt" stroke-miterlimit="10" stroke-linejoin="miter" fill="none" stroke="#a485ad" d="M0 0C31.145 0 0-25.512 30.647-25.512"/>
</svg>
