<svg xmlns="http://www.w3.org/2000/svg" xmlns:xlink="http://www.w3.org/1999/xlink" version="1.1" width="319.473pt" height="248.07pt" viewBox="0 0 319.473 248.07">
<defs>
<path id="font_69_10" d="M.22799683 .616272C.1459961 .616272 .056991579 .5402374 .056991579 .4552002 .056991579 .3601532 .1459961 .30213929 .22799683 .29212953V.055023195C.18399048 .061019899 .13798523 .08703613 .1269989 .13406372V.13705445C.1269989 .14906311 .13798523 .15707398 .13798523 .17108155 .13798523 .19207764 .12199402 .21209717 .09799194 .21209717 .07499695 .21209717 .056991579 .19508362 .056991579 .16906739 .056991579 .075027469 .11898804 .019012452 .20599365-.0010070801 .21499634-.0030059815 .22799683 0 .22799683-.014007568V-.04801941C.22799683-.06602478 .23599243-.08203125 .25698854-.08203125 .2749939-.08203125 .28599549-.07003784 .28599549-.05203247V-.0030059815C.37599183 .007003784 .45599366 .07904053 .45599366 .17507935V.18408203C.44599916 .26911927 .38398744 .32014466 .2999878 .3431549 .2919922 .3451538 .28599549 .3431549 .28599549 .35716249V.5582428C.32598878 .554245 .36799623 .5342407 .38398744 .49421693 .3849945 .49221803 .38598634 .48921205 .38598634 .4862213V.4842224C.38198854 .47421266 .375 .46720887 .375 .45420838 .375 .43218995 .3929901 .4131775 .41600038 .4131775 .43598939 .41418458 .45298768 .42819215 .45599366 .4481964V.4552002C.45599366 .5582428 .37998963 .6042633 .28599549 .61727908V.66529849C.28599549 .6843109 .27398683 .6953125 .25698854 .6953125 .23999024 .6953125 .22799683 .6843109 .22799683 .6642914V.616272M.28599549 .056030275V.27912904C.33999635 .26911927 .394989 .23010254 .394989 .16706848 .394989 .11004639 .34199525 .062026979 .28599549 .056030275M.22799683 .5582428V.3581543C.18199158 .36917115 .116989139 .3941803 .116989139 .45820619 .116989139 .5172272 .18299866 .5492401 .22799683 .5582428Z"/>
<path id="font_69_34" d="M.15098572 .43066407H.05999756C.035995485 .43066407 .023986817 .41966249 .023986817 .40065003 .023986817 .380661 .038986207 .37265016 .056991579 .37265016H.15098572V.13798523C.15098572 .080078128 .1659851-.0048828127 .2849884-.0048828127 .35499574-.0048828127 .43998719 .032104494 .43998719 .11701965 .43998719 .12301636 .44099427 .1289978 .44099427 .1349945 .44099427 .15896607 .42399598 .16595459 .40699769 .16595459 .3889923 .16595459 .375 .15795899 .375 .1349945V.12800598C.375 .07408142 .33299256 .053115846 .2919922 .053115846 .272995 .053115846 .2519989 .05810547 .23699951 .0690918 .21798706 .08306885 .21598816 .107040408 .21598816 .13000489V.37265016H.38198854C.3999939 .37265016 .41799928 .3766632 .41799928 .4016571 .41799928 .4146576 .4099884 .4286499 .394989 .43066407H.21598816V.5206909C.21598816 .547699 .20098877 .55371096 .18299866 .55371096 .16499329 .55371096 .15098572 .54670718 .15098572 .5206909V.43066407Z"/>
<path id="font_69_30" d="M.21699524 .3506775 .21598816 .39465333C.21598816 .4186554 .20698548 .43066407 .18199158 .43066407H.068984989C.049987794 .43066407 .034988405 .4226532 .034988405 .4016571 .034988405 .37965394 .049987794 .37265016 .07199097 .37265016H.15098572V.05897522H.068984989C.04798889 .05908203 .034988405 .049057008 .034988405 .030029297 .034988405 .014007568 .04699707 0 .066986087 0 .07199097-.000030517579 .07699585 .0009765625 .08198547 .0009765625H.2689972C.28399659 .0009918213 .29899598 0 .31399537 0 .34199525 0 .36099244 .005996704 .36099244 .031036377 .36099244 .048065187 .34799195 .060073854 .32598878 .060073854 .31799317 .05996704 .30999757 .05897522 .30299378 .05897522H.21598816V.17715454C.21598816 .2462616 .23298645 .3063507 .2939911 .3504181 .31999208 .36946107 .35299684 .37947084 .3849945 .37947084 .41099549 .37947084 .397995 .33946229 .43699647 .33946229 .45799256 .33940126 .47698976 .35543824 .47698976 .37947084 .47698976 .42947389 .41600038 .43847657 .3849945 .43847657 .32199098 .43847657 .24899292 .40446473 .21699524 .35142518V.3506775Z"/>
<path id="font_69_6" d="M.16299439 .37841798C.18299866 .38041688 .20399475 .38241578 .22499085 .38241578 .2709961 .38241578 .34899903 .3644104 .34899903 .2853241V.27331544C.24798584 .27030946 .054992677 .25630189 .054992677 .124176029 .054992677 .039108278 .14199829-.0048828127 .21499634-.0048828127 .2619934-.0048828127 .30799867 .0061035158 .34799195 .03010559 .34999085 .03111267 .35299684 .033111574 .35598756 .033111574 .3600006 .033111574 .37298585 .017105103 .38598634 .0121154789 .4099884 .0019683839 .43699647 .0009765625 .46299745 .0009765625H.47799684C.5019989 .0009765625 .5130005 .011962891 .5130005 .031967164V.034973146C.5119934 .050964357 .49798585 .05897522 .48199464 .05897522H.45999146C.43798829 .05897522 .41299439 .05996704 .41299439 .08099365 .41299439 .086013797 .4139862 .09101868 .4139862 .09501648V.2672577C.4139862 .35939027 .35899354 .4334259 .24798584 .4404297H.21199036C.1619873 .4404297 .08299255 .4354248 .08299255 .37141419 .08299255 .34536744 .102996829 .3293457 .12399292 .3293457 .1459961 .3293457 .1639862 .34736634 .1639862 .36940003 .1639862 .372406 .1639862 .375412 .16299439 .37841798M.34899903 .2191925V.13206482C.34899903 .06512451 .27198792 .053115846 .22399903 .053115846 .18798828 .053115846 .11999512 .06813049 .11999512 .124176029V.1251831C.11999512 .18223572 .20799256 .20425415 .25099183 .21125794 .2829895 .2172699 .31599427 .2192688 .34899903 .2192688V.2191925Z"/>
<path id="font_69_19" d="M.23599243 .37265016V.05897522H.116989139C.09298706 .05897522 .08198547 .048965455 .08198547 .030975342 .08198547 .016967774 .08999634 .0029754639 .10499573 .0009765625H.40899659C.42999269 .0009765625 .43998719 .012969971 .43998719 .029968262 .43998719 .048965455 .42900086 .05897522 .40299989 .05897522H.30099488V.3976593C.30099488 .426651 .2829895 .43066407 .2659912 .43066407H.12998963C.11299133 .43066407 .08898926 .42965699 .08898926 .4016571 .08898926 .380661 .10598755 .37165834 .1289978 .37165834 .13699341 .37165834 .1459961 .37265016 .15299988 .37265016H.23599243M.24899292 .6123047C.22698975 .6123047 .21099854 .587204 .21099854 .5691376 .21099854 .5450592 .23098755 .52297976 .2559967 .52297976 .27999879 .52297976 .30099488 .5440521 .30099488 .5671387 .30099488 .5912018 .2809906 .61328127 .2559967 .61328127 .2539978 .6132965 .25099183 .6123047 .24899292 .6123047Z"/>
<path id="font_69_21" d="M.16099549 .380661V.39665223C.16099549 .41966249 .15098572 .43066407 .12799073 .43066407H.04798889C.02999878 .43066407 .01499939 .42166139 .01499939 .4016571 .01499939 .38365174 .026992798 .37265016 .04699707 .37265016H.09599304V.05897522H.04598999C.027999878 .05897522 .01499939 .047973634 .01499939 .029968262 .01499939 .007965088 .02999878 .0009765625 .050994874 .0009765625H.20698548C.23098755 .0009765625 .24198914 .011962891 .24198914 .029968262 .24198914 .047973634 .22898865 .05897522 .21099854 .05897522H.16099549V.23072815C.16099549 .26567079 .1659851 .29763795 .18699646 .32759095 .20899964 .35754396 .24398804 .37850953 .2809906 .37850953 .33599855 .37850953 .35198976 .34057618 .35198976 .29164125V.05897522H.3019867C.28399659 .05897522 .2709961 .047973634 .2709961 .029968262 .2709961 .011962891 .28199769 .0009765625 .30599977 .0009765625H.46199037C.48298646 .0009765625 .49798585 .007965088 .49798585 .029968262 .49798585 .047973634 .4850006 .05897522 .46699525 .05897522H.4169922V.2806549C.4169922 .3475647 .4019928 .43652345 .29100038 .43652345 .24099732 .43652345 .19599915 .41551209 .16099549 .38050843V.380661Z"/>
<path id="font_69_26" d="M.3889923 .6943054C.375 .6913147 .3619995 .67930606 .35099793 .67129519 .23298645 .59025576 .16999817 .44519044 .16999817 .30413819 .16999817 .15306092 .24398804 .012008667 .36999513-.07203674 .3789978-.077041629 .3880005-.08203125 .39898683-.08203125 .4149933-.08203125 .4269867-.07102966 .4269867-.056030275 .4269867-.039016725 .4119873-.03302002 .39898683-.024017334 .2919922 .05001831 .23498535 .17907715 .23498535 .3071289 .23498535 .43319703 .29299928 .56625369 .40499879 .6412811 .41600038 .6482849 .4269867 .6562958 .4269867 .67030337 .4269867 .6843109 .41600038 .6953125 .3999939 .6953125 .3959961 .6953125 .3919983 .6953125 .3889923 .6943054Z"/>
<path id="font_69_27" d="M.10699463 .6943054C.09498596 .6923065 .08699036 .68130496 .08699036 .66929629 .08699036 .6482849 .12098694 .6332855 .13598633 .6202698 .22898865 .5412445 .27799989 .42619325 .27799989 .3071289 .27799989 .19108582 .22898865 .07002258 .13798523-.005004883 .11898804-.022018433 .085998538-.03501892 .085998538-.056030275 .085998538-.07003784 .09799194-.08103943 .11299133-.08203125H.114990238C.1329956-.08203125 .147995-.07003784 .16099549-.059020997 .27799989 .022003174 .34298707 .16706848 .34298707 .3071289V.32514955C.33799745 .4571991 .27398683 .5892639 .1659851 .66830447 .15098572 .67930606 .1349945 .6953125 .114990238 .6953125 .11199951 .6953125 .10998535 .6953125 .10699463 .6943054Z"/>
<path id="font_69_25" d="M.16099549 .38365174V.3956604C.16099549 .41766358 .1519928 .43066407 .12799073 .43066407H.04798889C.02999878 .43066407 .01499939 .42166139 .01499939 .4016571 .01499939 .38365174 .026992798 .37265016 .04699707 .37265016H.09599304V-.16270447H.04598999C.027999878-.16270447 .01499939-.17370606 .01499939-.19171143 .01499939-.2137146 .02999878-.22070313 .050994874-.22070313H.20698548C.23098755-.22070313 .24198914-.2097168 .24198914-.19171143 .24198914-.17370606 .22898865-.16270447 .21099854-.16270447H.16099549V.050109865C.19400025 .017105103 .22999573-.0048828127 .27799989-.0048828127 .3929901-.0048828127 .47599793 .10202026 .47599793 .21780396 .47599793 .31962586 .4079895 .43652345 .2869873 .43652345 .23999024 .43652345 .19499207 .41551209 .16099549 .3835144V.38365174M.4099884 .20283509C.40299989 .12896729 .35299684 .053115846 .272995 .053115846 .20399475 .053115846 .1599884 .13096619 .1599884 .18986511 .1599884 .20283509 .16099549 .21481323 .16099549 .22679138 .16099549 .23876953 .1599884 .25074769 .1599884 .26272584 .1599884 .3256073 .22200012 .37850953 .28199769 .37850953 .36099244 .37850953 .41099549 .29267884 .41099549 .22080994 .41099549 .21481323 .41099549 .20883179 .4099884 .20283509Z"/>
<path id="font_69_11" d="M.12298584 .19433594H.397995C.4039917 .19433594 .41099549 .19332886 .4189911 .19332886 .44299317 .19332886 .45498658 .20532227 .45498658 .22732544 .45498658 .32939149 .4019928 .4404297 .2649994 .4404297 .14299011 .4404297 .055999757 .3323822 .055999757 .21832276 .055999757 .08917236 .16299439-.0048828127 .2809906-.0048828127 .34199525-.0048828127 .4099884 .021102906 .44198609 .07614136 .44799806 .08616638 .45498658 .10018921 .45498658 .112197879 .45298768 .13023377 .43998719 .13723755 .42099 .13723755 .3919983 .13723755 .3919983 .11520386 .3809967 .09817505 .35798646 .06813049 .32398988 .053115846 .28599549 .053115846 .20799256 .053115846 .13198853 .11520386 .12298584 .19433594M.12399292 .24932862C.13198853 .3193817 .19499207 .38241578 .2659912 .38241578 .2939911 .38241578 .32398988 .37242127 .34498597 .3534088 .375 .32737733 .38398744 .28735353 .3889923 .24932862H.12399292Z"/>
<path id="font_69_9" d="M.35198976 .5542908V.3875122C.31399537 .4195099 .28199769 .43652345 .23399353 .43652345 .11199951 .43652345 .036987306 .32162477 .036987306 .21382141 .036987306 .10700989 .11099243-.0048828127 .22698975-.0048828127H.23599243C.2829895-.0018920899 .31900025 .022109986 .35198976 .055099489 .35198976 .049102785 .35099793 .042114259 .35099793 .035110475 .35099793 .011962891 .36299134 .0009765625 .3849945 .0009765625H.46499635C.48298646 .0009765625 .49798585 .009963989 .49798585 .029968262 .49798585 .050964357 .48399354 .05897522 .46598817 .05897522H.4169922V.58029177C.4169922 .6013031 .4079895 .6123047 .38198854 .6123047H.3039856C.2869873 .6123047 .269989 .6042938 .269989 .58428958 .269989 .56829836 .2809906 .5542908 .30099488 .5542908H.35198976M.101989749 .20376587C.101989749 .2087555 .100997928 .2127533 .100997928 .21774292 .100997928 .29263307 .1579895 .37850953 .23999024 .37850953H.24499512C.30299378 .37652589 .35299684 .32260133 .35299684 .26467896 .35299684 .2527008 .35198976 .2407074 .35198976 .22972107V.19377136C.35198976 .12896729 .3039856 .053115846 .22999573 .053115846 .1499939 .053115846 .10899353 .13795471 .101989749 .20384217V.20376587Z"/>
<path id="font_69_7" d="M.3639984 .3773651C.36299134 .3743744 .36299134 .3713684 .36299134 .3693695 .36299134 .3443451 .38398744 .33033753 .4039917 .33033753 .42199708 .33033753 .43998719 .3403473 .44400025 .36535646 .44400025 .4394226 .35699464 .4404297 .30599977 .4404297 .23799134 .4404297 .1789856 .42640687 .12799073 .3673706 .09199524 .32432557 .07398987 .27027894 .07398987 .21624756 .07398987 .106155399 .15299988-.0048828127 .2939911-.0048828127 .34799195-.0048828127 .4059906 .019104004 .43699647 .06512451 .44400025 .07713318 .45599366 .09414673 .45599366 .1101532 .45599366 .13017273 .43899537 .13616944 .4229889 .13616944 .3929901 .13616944 .3939972 .11715698 .3829956 .09915161 .36499024 .068115238 .33198548 .053115846 .29599 .053115846 .20698548 .053115846 .14199829 .12817383 .13798523 .20922852V.21824646C.13798523 .28529359 .1789856 .35534669 .24499512 .3763733 .2619934 .38137818 .27999879 .38237 .2979889 .38237 .31999208 .38237 .34199525 .3803711 .3639984 .3773651Z"/>
<path id="font_70_2" d="M.20399475 0C.43699647 0 .7659912 .17791748 .7659912 .45072938 .7659912 .53967288 .723999 .59562686 .6749878 .62661746 .58898928 .6826172 .49699403 .6826172 .4019928 .6826172 .31599427 .6826172 .25698854 .6826172 .17298889 .64660647 .039993287 .5876312 .020996094 .50468447 .020996094 .4967041 .020996094 .4907074 .024993897 .4887085 .0309906 .4887085 .04699707 .4887085 .069992069 .50268557 .07798767 .5076904 .09899902 .52168276 .101989749 .52767947 .10798645 .5466614 .12199402 .5866394 .1499939 .62161257 .27598573 .62760928 .2599945 .41874696 .20899964 .22787476 .13899231 .052993776 .101989749 .039993287 .07798767 .016998291 .07798767 .0069885256 .07798767 .0009918213 .07899475 0 .100997928 0H.20399475M.20899964 .054992677C.32299806 .33380128 .34399415 .5076904 .35798646 .62760928 .4249878 .62760928 .68099978 .62760928 .68099978 .40776063 .68099978 .21188355 .5049896 .054992677 .2630005 .054992677H.20899964Z"/>
<path id="font_71_41" d="M.13999939 .6152344C.13999939 .55236819 .11898804 .4206543 .017990113 .4206543V.40264894H.102996829V.17695618C.102996829 .16297913 .101989749 .14900208 .101989749 .13500977 .101989749 .056121828 .13798523-.0078125 .22099304-.0078125 .30099488-.0078125 .31599427 .082092288 .31599427 .14399719V.1819458H.29599C.29599 .16697693 .29699708 .1519928 .29699708 .13700867 .29699708 .09307861 .28799439 .012176514 .22799683 .012176514 .16899109 .012176514 .1599884 .082092288 .1599884 .13002014V.40264894H.2999878V.43066407H.1599884V.6152344H.13999939Z"/>
<path id="font_71_39" d="M.033996583 .42941285V.40138246H.04899597C.07699585 .40138246 .10398865 .39837647 .10398865 .35131837V.06300354C.10398865 .030975342 .07699585 .02897644 .04798889 .02897644H.033996583V.0009765625H.24598694V.02897644C.23599243 .02897644 .22499085 .02796936 .21499634 .02796936 .18598938 .02796936 .15899658 .032974245 .15899658 .070007327V.15110779C.15899658 .1721344 .1579895 .19314575 .1579895 .21417237 .1579895 .29426576 .1769867 .42140199 .27398683 .42140199 .27999879 .42140199 .2869873 .42140199 .29299928 .4203949V.41940309C.2789917 .4143982 .2689972 .40037538 .2689972 .38536073 .2689972 .36634828 .28399659 .34732057 .30699159 .34732057 .32899476 .34732057 .34298707 .3673401 .34298707 .38435365 .34298707 .4203949 .30799867 .4404297 .2749939 .4404297 .21199036 .4404297 .16899109 .38336183 .1559906 .32829286L.15499878 .4404297 .033996583 .42941285Z"/>
<path id="font_71_19" d="M.09899902 .35827638C.116989139 .399292 .1639862 .42730714 .20899964 .42730714 .2829895 .42730714 .31498719 .35627748 .31498719 .29125978V.25724793C.21099854 .25724793 .07899475 .23223877 .04699707 .12121582 .04499817 .112213138 .04399109 .10321045 .04399109 .09320068V.0861969C.049987794 .018173218 .1309967-.0078125 .18598938-.0078125 .24099732-.0078125 .2979889 .019180298 .31999208 .079193118H.32099916C.32099916 .03718567 .35099793-.0038146973 .394989-.0038146973 .43499757-.0038146973 .46598817 .031188965 .46998597 .07319641V.14620972H.44999696V.095199588C.44999696 .06619263 .44400025 .02218628 .41099549 .02218628 .37799073 .02218628 .37098695 .06518555 .37098695 .0921936 .37098695 .10321045 .37199403 .113204959 .37199403 .12321472V.29325868C.37199403 .3902893 .29599 .4453125 .21398926 .4453125 .1579895 .4453125 .101989749 .41729737 .07798767 .36128236 .07398987 .35028077 .069992069 .3362732 .069992069 .3232727 .069992069 .29826356 .08898926 .28025819 .11099243 .28025819 .13198853 .28025819 .1499939 .29826356 .1499939 .3192749 .1499939 .34127809 .13398743 .35928346 .10899353 .35928346 .10499573 .35928346 .101989749 .35928346 .09899902 .35827638M.31498719 .24024964V.1412201C.31498719 .07620239 .27198792 .012176514 .20199585 .010177612H.19799805C.1539917 .010177612 .10998535 .044189454 .10998535 .09420776 .10998535 .19822693 .22698975 .24024964 .31498719 .24024964Z"/>
<path id="font_71_27" d="M.041992189 .42926026V.40122987H.052993776C.083999637 .40122987 .10798645 .39622499 .10798645 .3511963V.06298828C.10798645 .030975342 .08099365 .02897644 .051986696 .02897644H.037994386V.0009765625H.22599793V.02897644H.20899964C.18598938 .02897644 .16299439 .031967164 .16299439 .06399536V.44026185L.041992189 .42926026M.11399841 .66015627C.08999634 .65615847 .07699585 .6361847 .07699585 .6161957 .07699585 .5962219 .09298706 .5722656 .11999512 .5722656 .14698792 .5722656 .1659851 .5932312 .1659851 .6161957 .1659851 .6381531 .147995 .6611328 .12298584 .6611328 .11999512 .6611481 .116989139 .66015627 .11399841 .66015627Z"/>
<path id="font_71_31" d="M.037994386 .42941285V.40138246H.052993776C.08099365 .40138246 .10798645 .39837647 .10798645 .35131837V.06300354C.10798645 .031967164 .08198547 .02897644 .056991579 .02897644H.037994386V.0009765625H.23498535V.02897644H.21798706C.18998719 .02897644 .16499329 .031967164 .16499329 .06401062V.2572174C.16499329 .32530213 .19799805 .42240907 .2939911 .42240907 .35198976 .42240907 .37098695 .37135316 .37098695 .3042755V.06600952C.37098695 .031967164 .34498597 .02897644 .31698609 .02897644H.30099488V.0009765625H.49798585V.02897644H.47499085C.45298768 .02897644 .43199159 .031967164 .42799378 .055999757V.29226686C.42799378 .32629396 .4269867 .36134339 .40899659 .3903656 .38598634 .42941285 .33999635 .4404297 .29699708 .4404297 .23599243 .4404297 .1749878 .39337159 .1619873 .3363037L.16099549 .4404297 .10798645 .4354248 .037994386 .42941285Z"/>
<path id="font_71_23" d="M.100997928 .23524475H.38198854C.3919983 .23524475 .3959961 .23825073 .3959961 .24824524 .3959961 .3422699 .34899903 .4453125 .22898865 .4453125 .10899353 .4453125 .0309906 .3322754 .0309906 .22123719 .0309906 .114212039 .100997928-.0008239746 .22799683-.0078125H.23399353C.3039856-.0078125 .37298585 .03819275 .3929901 .10820007 .3939972 .111206058 .3959961 .11520386 .3959961 .11921692 .3959961 .12321472 .3909912 .1282196 .3869934 .1282196 .37298585 .1282196 .36799623 .096206668 .35899354 .08119202 .33599855 .04118347 .29100038 .012176514 .24398804 .012176514H.23799134C.20999146 .014175415 .18499756 .025177002 .16299439 .043182374 .10598755 .0901947 .100997928 .16722107 .100997928 .23524475M.101989749 .25224305C.101989749 .3282776 .14099121 .42630006 .22499085 .42630006 .31199647 .42630006 .33699037 .32626344 .33699037 .25224305H.101989749Z"/>
<path id="font_71_40" d="M.08099365 .04219055C.10398865 .008178711 .14698792-.0078125 .18598938-.0078125 .2579956-.0078125 .34199525 .021194458 .34199525 .12721253 .34199525 .17422486 .31399537 .21624756 .27398683 .23924256 .21499634 .2732544 .08699036 .2542572 .07199097 .34327699 .07199097 .4072876 .125 .42929078 .18199158 .42929078 .24398804 .42929078 .28599549 .3972931 .2979889 .3212738V.31326295C.2979889 .30426026 .29899598 .29325868 .30899049 .29325868 .31698609 .29325868 .31900025 .30026246 .31900025 .30625917V.43429566C.31900025 .43930055 .31698609 .4453125 .31098939 .4453125 .29899598 .4453125 .2809906 .41729737 .27799989 .41229249 .25099183 .43530274 .21899414 .4453125 .18399048 .4453125 .117996219 .4453125 .03199768 .41929627 .03199768 .32626344 .03199768 .2102356 .17799378 .2122345 .23899842 .19023133 .272995 .17422486 .3019867 .14422608 .3019867 .10520935 .3019867 .032196046 .23899842 .010177612 .18798828 .010177612 .08898926 .010177612 .07199097 .09820557 .051986696 .16923523 .050994874 .17323303 .04598999 .17622376 .041992189 .17622376 .034988405 .17622376 .03199768 .17022705 .03199768 .16423035V.00018310547C.032989503-.0038452149 .034988405-.0068359377 .038986207-.0068359377H.040985109C.04699707-.0068359377 .049987794-.0008392334 .053985597 .0031585694L.08099365 .04219055Z"/>
<path id="font_71_15" d="M.051986696 .6796875 .033996583 .45776368H.053985597C.057998659 .50975039 .06098938 .5817108 .09199524 .61569216 .12399292 .6496887 .17399597 .65167239 .21699524 .65167239H.27799989C.29599 .6496887 .30799867 .643692 .30799867 .61968997 .30799867 .61369326 .30699159 .60769656 .30699159 .6027069V.07194519C.30699159 .032974245 .272995 .02796936 .24099732 .02796936 .22999573 .02796936 .21998596 .028961182 .21099854 .028961182H.18299866V.0009765625H.5039978V.028961182H.44999696C.4149933 .028961182 .37998963 .032974245 .37998963 .07194519V.6027069C.37998963 .60769656 .3789978 .61369326 .3789978 .61968997 .3789978 .643692 .3909912 .6496887 .40899659 .65167239H.46998597C.5130005 .65167239 .5629883 .6496887 .59498599 .61569216 .6259918 .5817108 .6289978 .50975039 .6329956 .45776368H.6529999L.6349945 .6796875H.051986696Z"/>
<path id="font_71_25" d="M.10798645 .43066407H.0289917V.40264894H.10798645V.06593323C.10798645 .029968262 .08099365 .02897644 .04399109 .02897644H.037994386V.0009765625H.25V.02897644C.23999024 .02897644 .22898865 .02796936 .21798706 .02796936 .18998719 .02796936 .16299439 .032958986 .16299439 .06694031V.40264894H.27598573V.43066407H.16099549V.5258026C.16099549 .582901 .17098999 .6820526 .24598694 .6860657H.24899292C.2619934 .6860657 .27398683 .6810608 .28599549 .6770477 .269989 .67004397 .25498963 .6630249 .25498963 .63998416 .25498963 .61795046 .2709961 .6019287 .2919922 .6019287 .31698609 .6019287 .32998658 .6209564 .32998658 .6409912 .32998658 .6830597 .28399659 .70410159 .24899292 .70410159 .16299439 .70410159 .10798645 .6289673 .10798645 .5458374V.43066407Z"/>
<path id="font_71_32" d="M.22399903 .4453125C.102996829 .42829896 .0309906 .3292694 .0309906 .2162323V.20323181C.037994386 .09220886 .11999512-.0078125 .23899842-.0078125H.25C.2749939-.0048217775 .2979889 .00018310547 .32099916 .011184692 .39898683 .048187257 .44400025 .1322174 .44400025 .21723938V.22523499C.43998719 .3352661 .35798646 .4453125 .23599243 .4453125H.22399903M.100997928 .19422913C.100997928 .20223999 .099990848 .21124268 .099990848 .22024536 .099990848 .29226686 .10899353 .37728883 .18699646 .41629029 .20298767 .42329408 .21998596 .42729188 .23699951 .42729188 .34399415 .42729188 .37399293 .31626893 .37399293 .22924805 .37399293 .1532135 .36799623 .04118347 .2649994 .015182495 .2559967 .013183594 .24798584 .012176514 .23899842 .012176514 .1619873 .012176514 .114990238 .080200199 .10499573 .15522766 .102996829 .16822815 .102996829 .18122864 .100997928 .19422913Z"/>
<path id="font_71_30" d="M.037994386 .42941285V.40138246H.052993776C.08099365 .40138246 .10798645 .39837647 .10798645 .35131837V.06300354C.10798645 .030975342 .07998657 .02897644 .051986696 .02897644H.037994386V.0009765625H.23498535V.02897644H.21798706C.19099427 .02897644 .16499329 .031967164 .16499329 .06401062V.2572174C.16499329 .32029725 .18699646 .38536073 .2519989 .4143982 .2659912 .41940309 .27999879 .42240907 .29499818 .42240907 .35299684 .42240907 .37199403 .37234498 .37199403 .30326844V.06600952C.37199403 .029968262 .34298707 .02897644 .30799867 .02897644H.3019867V.0009765625H.49899293V.02897644H.48199464C.45498658 .02897644 .42900086 .031967164 .42900086 .06401062V.2572174C.42900086 .32029725 .45098878 .38536073 .5159912 .4143982 .5299988 .41940309 .5439911 .42240907 .5589905 .42240907 .61698916 .42240907 .6359863 .37234498 .6359863 .30326844V.06600952C.6359863 .029968262 .6069946 .02897644 .57199099 .02897644H.56599429V.0009765625H.7630005V.02897644H.7449951C.71899417 .02897644 .69299319 .031967164 .69299319 .06600952V.30026246C.69299319 .369339 .66999819 .4404297 .5649872 .4404297 .49699403 .4404297 .45199586 .39637757 .4269867 .3413086 .4119873 .40737916 .37399293 .4404297 .29599 .4404297 .23599243 .4404297 .1749878 .3923645 .1619873 .3363037L.16099549 .4404297 .10798645 .4354248 .037994386 .42941285Z"/>
<path id="font_71_22" d="M.2979889 .6843109V.6562958H.31298829C.34599305 .6562958 .36799623 .652298 .36799623 .59329226L.36698915 .37324525C.34399415 .42025758 .2849884 .44026185 .24099732 .44026185 .12298584 .44026185 .035995485 .3312378 .035995485 .21522522 .035995485 .10220337 .11898804-.0078125 .23399353-.0078125 .2899933-.0078125 .32699586 .018188477 .3659973 .063186649V-.0078125L.49299623 .0011749268V.029190064H.47799684C.45098878 .029190064 .4229889 .032180787 .4229889 .077194217V.6953125L.2979889 .6843109M.10598755 .19221497V.20721436C.10598755 .27822877 .115997318 .35723878 .17999268 .4002533 .20098877 .41426087 .22599793 .42225648 .25 .42225648 .2979889 .42225648 .35798646 .3812561 .3659973 .33424378V.11520386C.3659973 .060195924 .2899933 .010177612 .23799134 .010177612 .16099549 .010177612 .11898804 .0861969 .10899353 .1572113 .10798645 .16920471 .10798645 .1802063 .10598755 .19221497Z"/>
<path id="font_71_3" d="M.04798889 .68359377V.65556338H.07299805C.10598755 .65556338 .13699341 .65156558 .13699341 .6145935 .13699341 .6075897 .13598633 .6006012 .13598633 .5946045V.090927127C.13598633 .08493042 .13699341 .076934818 .13699341 .06994629 .13699341 .032958986 .10598755 .02897644 .07499695 .02897644H.04798889V.0009765625H.30599977C.32499696 .0009918213 .34498597 0 .36499024 0 .5299988 0 .673996 .13290406 .673996 .33677674 .673996 .508667 .5649872 .6845703 .36299134 .6845703 .34298707 .6845856 .32299806 .68359377 .3039856 .68359377H.04798889M.58898928 .30880738C.58799746 .3038025 .58799746 .2978058 .58799746 .29281617V.27783204C.57899478 .17588806 .5359955 .06893921 .4229889 .037963869 .3919983 .02897644 .3619995 .02897644 .32998658 .02897644H.24598694C.22499085 .02897644 .20599365 .030975342 .20599365 .060943605 .20599365 .06893921 .20698548 .076934818 .20698548 .08293152V.5836487C.20698548 .5926361 .20599365 .6026306 .20599365 .6126251 .20599365 .63856509 .20599365 .65556338 .25 .65556338H.269989C.2899933 .65556338 .31098939 .6565552 .33099366 .6565552 .3889923 .6565552 .44099427 .6505585 .49398805 .6075897 .57598879 .54164126 .58898928 .43270875 .58999636 .33476258 .58999636 .32577516 .58999636 .31678773 .58898928 .3087921V.30880738Z"/>
<path id="font_72_17" d="M.11099243 .0544281C.15699768 .0034637452 .22499085-.01953125 .2939911-.01953125 .397995-.01953125 .4889984 .063430789 .4889984 .18435669 .4889984 .2662964 .43998719 .35523988 .35699464 .38023377 .24598694 .413208 .11999512 .4122162 .11199951 .5381317V.5461273C.11199951 .62008669 .1769867 .67803958 .24899292 .67803958 .34399415 .67803958 .41600038 .611084 .43598939 .49516297 .43798829 .48316957 .43399049 .45718385 .45098878 .45718385 .45999146 .45718385 .46199037 .46318055 .46199037 .47016908V.6960449C.46099855 .70106509 .45799256 .70407107 .45298768 .7050781 .43798829 .7050781 .41999818 .65509036 .4039917 .6311035 .37399293 .6800537 .3039856 .7060547 .24798584 .7060547 .1459961 .7060547 .053985597 .6260834 .053985597 .5141449 .053985597 .43719483 .101989749 .36523438 .17399597 .33724977 .19099427 .33026124 .20799256 .32725526 .22499085 .32226563L.29599 .3052826C.36299134 .28929139 .43099977 .25730897 .43099977 .15237427 .43099977 .08241272 .3769989 .015457153 .30599977 .009460449H.29699708C.19699097 .009460449 .09899902 .061431886 .07899475 .17835999 .07798767 .18835449 .07699585 .19734192 .07598877 .20733643V.22033692C.07499695 .22532654 .069992069 .22831726 .06498718 .22831726 .054992677 .22831726 .053985597 .22233582 .053985597 .21533203V-.0045318605C.053985597-.009536743 .054992677-.01953125 .06298828-.01953125 .07798767-.01953125 .10798645 .048431398 .11099243 .0544281Z"/>
<path id="font_72_23" d="M.36099244 .37226869C.35798646 .37226869 .35598756 .37327577 .35299684 .37327577 .32998658 .37327577 .31199647 .3542633 .31199647 .3312683 .31199647 .30625917 .33099366 .28926087 .35299684 .28926087 .37599183 .28926087 .3959961 .30526734 .3959961 .33226014 .3959961 .41427613 .30599977 .44628907 .24198914 .44628907 .12098694 .44628907 .034988405 .3332672 .034988405 .21723938 .034988405 .10221863 .12098694-.0087890629 .24499512-.0087890629 .31199647-.0087890629 .37098695 .02720642 .3999939 .096221927 .4019928 .10221863 .4059906 .11122131 .4059906 .11921692V.12322998C.40499879 .12722779 .40098573 .12922669 .39698792 .12922669 .38198854 .12922669 .38198854 .114227298 .3789978 .10421753 .3600006 .051208497 .30899049 .013198853 .25299073 .013198853 .14698792 .013198853 .11199951 .13223267 .11199951 .21524048 .11199951 .29725648 .13798523 .4242859 .25 .4242859 .2899933 .4242859 .33699037 .40628053 .36099244 .37226869Z"/>
<path id="font_72_21" d="M.10499573 .36827088C.1289978 .40628053 .17298889 .4262848 .21699524 .4262848 .27398683 .4262848 .31999208 .36827088 .31999208 .31326295V.25926209C.21899414 .25926209 .042999269 .2312622 .042999269 .09423828V.084243778C.051986696 .016220093 .1349945-.009765625 .19400025-.009765625 .24598694-.009765625 .31098939 .022232056 .32598878 .07723999H.32699586C.32998658 .030090332 .3639984-.00390625 .4039917-.00390625 .44599916-.00390625 .47898866 .032089235 .48298646 .07310486V.14614868H.46099855V.09712219C.46099855 .068099979 .45599366 .02508545 .4229889 .02508545 .3909912 .02508545 .38398744 .068099979 .38398744 .09312439 .38398744 .10412598 .3849945 .11512756 .3849945 .12612915V.26519776C.3849945 .2762146 .38598634 .28822328 .38598634 .29922486 .38598634 .39326478 .29899598 .44628907 .21699524 .44628907 .15299988 .44628907 .07199097 .40827943 .07199097 .3302307 .07199097 .30122376 .09098816 .2852173 .114990238 .2852173 .13899231 .2852173 .1559906 .30422975 .1559906 .32724 .1559906 .35224916 .13699341 .36825563 .11299133 .36825563L.10499573 .36827088M.31999208 .24119568V.14614868C.31999208 .07524109 .2749939 .011230469 .20399475 .011230469 .1659851 .011230469 .114990238 .041229249 .114990238 .09223938 .114990238 .18025208 .19499207 .22525025 .27799989 .23725891 .2919922 .23925781 .30599977 .23825073 .31999208 .24125672V.24119568Z"/>
<path id="font_72_35" d="M.032989503 .68429568V.6552887H.050994874C.08299255 .6552887 .10899353 .6512909 .10899353 .6042633V.07098389C.10899353 .033966066 .08299255 .029968262 .054992677 .029968262H.032989503V.0009765625H.24798584V.029968262H.22399903C.19499207 .029968262 .17199707 .032974245 .17199707 .068984989V.6953125L.032989503 .68429568Z"/>
<path id="font_72_34" d="M.036987306 .43034364V.4013214H.052993776C.084991458 .4013214 .10899353 .39631654 .10899353 .35127259V.072006229C.10899353 .034973146 .08999634 .029968262 .032989503 .029968262V.0009765625H.23999024V.029968262H.22599793C.19699097 .029968262 .17199707 .031967164 .17199707 .06600952V.4413452L.036987306 .43034364M.117996219 .6640625C.09098816 .6600647 .07699585 .6381378 .07699585 .61720278 .07699585 .5962677 .09298706 .5683594 .12399292 .5683594 .15499878 .5683594 .17399597 .5922699 .17399597 .6161957 .17399597 .63713076 .1579895 .66503909 .1269989 .66503909 .12399292 .6650543 .12098694 .6640625 .117996219 .6640625Z"/>
<path id="font_72_37" d="M.03199768 .43040467V.40138246H.050994874C.07998657 .40138246 .10798645 .39736939 .10798645 .35131837V.072021488C.10798645 .034973146 .08898926 .029968262 .03199768 .029968262V.0009765625H.24899292V.029968262H.22599793C.19699097 .029968262 .17298889 .033966066 .17298889 .071014408V.25421144C.17298889 .32328797 .20799256 .42140199 .30599977 .42140199 .36698915 .42140199 .37998963 .3623352 .37998963 .30326844V.06800842C.37998963 .032974245 .35099793 .029968262 .32099916 .029968262H.3039856V.0009765625H.5209961V.029968262H.49798585C.47099305 .029968262 .44499208 .030975342 .44499208 .0690155V.29626466C.44499208 .32829286 .44400025 .35932923 .42799378 .38735963 .40499879 .42739869 .35699464 .44140626 .31399537 .44140626 .2649994 .44140626 .22299195 .42340089 .18899536 .37635804 .17999268 .3643341 .17298889 .35232545 .16899109 .3383026L.16799927 .44140626 .03199768 .43040467Z"/>
<path id="font_72_31" d="M.32099916 .4053955H.31999208C.29299928 .43040467 .25299073 .44140626 .21798706 .44140626 .14299011 .44140626 .05999756 .38938905 .05999756 .29638673 .05999756 .26338197 .07199097 .23039246 .09399414 .2053833 .09700012 .20237732 .101989749 .1973877 .101989749 .19238281 .101989749 .18737793 .09599304 .18138123 .09399414 .17738343 .08198547 .15737915 .07499695 .133255 .07499695 .11009216 .07499695 .07785034 .08898926 .039764406 .117996219 .023757935V.022750855C.07199097 .010757446 .026992798-.028213501 .026992798-.077178958 .026992798-.16812134 .1579895-.20410156 .24299622-.20410156 .32398988-.20410156 .46099855-.17510987 .46099855-.076187137 .46099855 .04675293 .33898927 .0647583 .25698854 .0647583H.17999268C.13598633 .0647583 .102996829 .08792114 .102996829 .13124085V.13526917C.10398865 .15238953 .11099243 .16638184 .11898804 .18138123 .147995 .16539002 .17399597 .15238953 .20698548 .15039063H.21499634C.2939911 .15039063 .36099244 .19935608 .37399293 .2842865V.29527284C.37399293 .32925416 .3619995 .3532257 .34399415 .38220216 .34098817 .38519288 .33799745 .38819886 .33799745 .39219667V.39318849C.34498597 .4151764 .40098573 .43115235 .4229889 .43115235 .42799378 .43115235 .43199159 .43115235 .43699647 .43016053 .42799378 .4251709 .42099 .4161682 .42099 .40518189 .42099 .39019776 .43399049 .37921144 .44799806 .37921144 .46398927 .37921144 .47399903 .39118959 .47399903 .4071808V.4121704C.46998597 .43515016 .44999696 .45214845 .42599488 .45214845 .3899994 .45214845 .34498597 .43615724 .32099916 .40518189V.4053955M.07598877-.08418274V-.076187137C.07598877-.04220581 .099990848-.009231567 .13198853 .003768921 .1459961 .008758545 .1619873 .009765625 .1769867 .009765625H.24499512C.31098939 .009765625 .40098573 .004760742 .4119873-.07118225V-.078186038C.4119873-.15412903 .30599977-.18310547 .24598694-.18310547 .1789856-.18310547 .085998538-.15612793 .07598877-.08418274M.12998963 .27638246V.28938294C.12998963 .33738709 .13699341 .4203949 .21598816 .4203949 .27999879 .4203949 .3039856 .35739137 .3039856 .2953949 .3039856 .25138856 .29599 .17237854 .21798706 .17237854 .15899658 .17237854 .13598633 .22138977 .12998963 .27638246Z"/>
<path id="font_72_6" d="M.040985109 .6816406V.65263369H.07199097C.10598755 .65263369 .13699341 .64863589 .13699341 .6127014 .13699341 .6067047 .13598633 .5997162 .13598633 .59373477V.07398987C.13598633 .033966066 .10499573 .029968262 .07199097 .029968262H.040985109V.0009765625H.33599855V.029968262C.32299806 .029968262 .30799867 .02897644 .2919922 .02897644 .24398804 .02897644 .21699524 .033966066 .21699524 .07699585V.32714845H.30099488C.35398866 .32714845 .4099884 .32313539 .4099884 .22808838V.21006775H.43199159V.47294618H.4099884V.4549713C.4099884 .38009645 .3829956 .35614015 .28599549 .35614015H.21699524V.6166992C.21699524 .6446533 .22898865 .65263369 .2559967 .65263369H.37199403C.42799378 .65263369 .49598695 .65164187 .5339966 .603714 .5649872 .56378176 .56900027 .50787356 .57499697 .45896913H.5970001L.57099917 .6816406H.040985109Z"/>
<path id="font_72_50" d="M.1459961 .6152344C.1459961 .55044558 .11999512 .421875 .017990113 .421875V.40187074H.102996829V.17605591C.102996829 .16207886 .101989749 .14808655 .101989749 .13409424 .101989749 .044174196 .147995-.0087890629 .23098755-.0087890629 .30799867-.0087890629 .32598878 .07714844 .32598878 .13909912V.18205261H.3039856C.3039856 .16706848 .30499269 .15208435 .30499269 .13710022 .30499269 .09413147 .29699708 .013198853 .23599243 .013198853 .1789856 .013198853 .16799927 .08213806 .16799927 .13110352V.40187074H.30899049V.43066407H.16799927V.6152344H.1459961Z"/>
<path id="font_72_39" d="M.22999573 .44628907C.12298584 .4362793 .0289917 .34326173 .0289917 .21624756 .0289917 .10221863 .11299133-.0087890629 .24499512-.0087890629 .36499024-.0087890629 .45899964 .097213748 .45899964 .2142334 .45899964 .32624818 .37599183 .44726563 .24299622 .44726563 .23899842 .44728089 .23399353 .44628907 .22999573 .44628907M.10598755 .1932373C.10499573 .20123291 .10499573 .20924378 .10499573 .21723938 .10499573 .28625489 .11199951 .37727357 .18899536 .41326905 .20599365 .42126466 .22499085 .42526246 .24299622 .42526246 .2809906 .42526246 .31799317 .40826417 .34298707 .37825013 .37799073 .33724977 .38198854 .28123475 .38198854 .22923279 .38198854 .17321778 .3809967 .10922241 .34298707 .062210084 .31799317 .031204224 .2809906 .013198853 .24299622 .013198853 .1599884 .013198853 .116989139 .08821106 .10899353 .16221619 .10699463 .17222595 .10699463 .18322754 .10598755 .19322205V.1932373Z"/>
<path id="font_72_45" d="M.027999878 .4303894V.40135194H.04399109C.07398987 .40135194 .10398865 .3983612 .10398865 .3513031V.072006229C.10398865 .034973146 .084991458 .029968262 .027999878 .029968262V.0009765625H.2619934V.029968262C.25099183 .029968262 .23899842 .02897644 .22698975 .02897644 .19499207 .02897644 .16699219 .033966066 .16699219 .071014408V.20715332C.16699219 .28424073 .1789856 .39434815 .26098634 .41838075 .2689972 .42037965 .27598573 .42137147 .28399659 .42137147 .2889862 .42137147 .29299928 .42037965 .2979889 .42037965V.41937257C.2829895 .41337586 .27398683 .3983612 .27398683 .38233949 .27398683 .35931397 .29299928 .34329225 .31298829 .34329225 .33898927 .34329225 .35299684 .36331178 .35299684 .3833313 .35299684 .42037965 .31799317 .44140626 .28399659 .44140626 .23098755 .44140626 .19198609 .4033661 .17298889 .35931397 .16899109 .35029603 .1639862 .34028626 .16299439 .3302765L.1619873 .44140626 .027999878 .4303894Z"/>
<path id="font_72_46" d="M.28399659 .4152832C.2559967 .4382782 .22299195 .44628907 .18798828 .44628907 .115997318 .44628907 .032989503 .41827394 .032989503 .32226563V.31326295C.069992069 .14523316 .30699159 .24824524 .30699159 .10122681 .30699159 .039215089 .25099183 .011199951 .19799805 .011199951 .09799194 .011199951 .07299805 .09222412 .055999757 .16122437 .053985597 .16723633 .050994874 .17222595 .04399109 .17222595 .034988405 .17222595 .032989503 .16523743 .032989503 .15823365V.0032043458C.032989503-.0018005371 .034988405-.0087890629 .042999269-.0087890629 .05999756-.0087890629 .07398987 .034210206 .084991458 .034210206H.085998538C.09298706 .032211305 .09799194 .02420044 .10398865 .019210816 .1309967-.00079345706 .16299439-.0087890629 .19699097-.0087890629 .2709961-.0087890629 .35299684 .028213501 .35299684 .1282196 .35299684 .1872406 .30599977 .24024964 .25099183 .25724793 .19699097 .27424623 .07798767 .2702484 .07798767 .35125733 .07798767 .40827943 .13798523 .4282837 .18499756 .4282837 .24299622 .4282837 .30599977 .39727784 .30599977 .31225587 .30599977 .30325318 .30699159 .2962494 .31799317 .2962494 .32598878 .2962494 .32798768 .30226136 .32798768 .30924989V.4342804C.32798768 .43928529 .32499696 .44628907 .31900025 .44628907 .30599977 .44628907 .2899933 .42227174 .28399659 .4152832Z"/>
<path id="font_73_8" d="M.13398743 .051254274C.18598938 .0062561037 .2639923-.0107421879 .32998658-.0107421879 .44599916-.0107421879 .5499878 .0602417 .5499878 .19923401 .5499878 .28123475 .5 .35723878 .4269867 .39222718 .39698792 .40623475 .36299134 .41122438 .32998658 .41923524L.2669983 .43322755C.21299744 .44422914 .1459961 .4702301 .1459961 .5482178 .1459961 .6252136 .20899964 .6622162 .2749939 .6622162 .38398744 .6622162 .45999146 .594223 .47799684 .4832306 .47999574 .472229 .47698976 .45922853 .49598695 .45922853H.5029907C.5130005 .45922853 .5179901 .46221925 .5179901 .4762268V.6832123C.5179901 .6912079 .5159912 .69921877 .5069885 .69921877 .48098756 .69921877 .45799256 .640213 .44400025 .640213H.44299317C.43499757 .643219 .42399598 .6542206 .41600038 .6602173 .37399293 .68821719 .32499696 .69921877 .27398683 .69921877 .17098999 .69921877 .06098938 .6412201 .06098938 .5052185 .06098938 .42022706 .11399841 .3512268 .18899536 .3202362 .20599365 .31323243 .22499085 .30923463 .24299622 .30523683L.34498597 .28224183C.4119873 .26724244 .45799256 .23023987 .46398927 .16323853V.15423584C.46398927 .085250858 .4149933 .029251099 .33399964 .029251099 .23699951 .029251099 .12599182 .06324768 .101989749 .18223572L.09899902 .21524048C.09899902 .22424317 .09399414 .22923279 .083999637 .22923279H.07499695C.06298828 .22923279 .06098938 .22123719 .06098938 .21324158V.003250122C.06098938-.0057525637 .06599426-.0107421879 .07398987-.0107421879 .08799744-.0107421879 .117996219 .029251099 .13398743 .051254274Z"/>
<path id="font_73_32" d="M.16699219 .63671877C.16699219 .5585327 .1269989 .43626405 .019989014 .43626405V.40527345H.099990848V.1351471C.099990848 .105148319 .101989749 .07513428 .11898804 .049118043 .147995 .0051116945 .20399475-.0048828127 .25099183-.0048828127 .32899476-.0048828127 .3659973 .06011963 .3659973 .13815308V.17817688H.32798768C.32798768 .16416931 .32899476 .15016175 .32899476 .1351471 .32899476 .09513855 .31900025 .02911377 .2649994 .02911377 .21499634 .02911377 .20498657 .08213806 .20498657 .12815857V.40527345H.34799195V.4453125H.20498657V.63671877H.16699219Z"/>
<path id="font_73_10" d="M.1519928 .41011048C.18099976 .417099 .20799256 .4230957 .23699951 .4230957 .29100038 .4230957 .34399415 .3971405 .34399415 .29231263V.25836183C.22499085 .25836183 .034988405 .23236084 .034988405 .10420227 .034988405 .017105103 .14399719-.0048828127 .20899964-.0048828127 .2639923-.0048828127 .33699037 .022109986 .35499574 .08317566H.35598756C.35598756 .03111267 .39698792-.0018920899 .44499208-.0018920899 .4909973-.0018920899 .54299929 .02911377 .54299929 .08117676V.14324951H.5049896V.08618164C.5049896 .06916809 .49798585 .044128419 .47698976 .044128419 .45498658 .044128419 .44898988 .07116699 .44898988 .08618164V.29431153C.44898988 .38716126 .3789978 .45410157 .24499512 .45410157 .18099976 .45410157 .07199097 .44309999 .07199097 .35708619 .07199097 .32209779 .09899902 .3020935 .12799073 .3020935 .15899658 .3020935 .18399048 .3250885 .18399048 .35708619 .18399048 .38108827 .17098999 .39608766 .1519928 .4100952V.41011048M.34399415 .234375V.13925171C.34399415 .075164798 .2939911 .026107789 .22999573 .026107789 .18798828 .026107789 .14099121 .055145265 .14099121 .10520935 .14099121 .20733643 .2679901 .22735596 .34399415 .234375Z"/>
<path id="font_73_13" d="M.14399719 .22494507H.45199586C.46499635 .22494507 .46899415 .23194885 .46899415 .24394226 .46899415 .35202027 .41600038 .45507813 .2639923 .45507813 .20999146 .45507813 .15499878 .44006349 .11199951 .40705873 .056991579 .36502076 .02999878 .29597474 .02999878 .22694397 .02999878 .08406067 .13899231-.0048828127 .2769928-.0048828127 .35198976-.0048828127 .43499757 .026107789 .46598817 .107040408 .46699525 .11103821 .46899415 .11404419 .46899415 .11804199 .46899415 .12702942 .45999146 .13201905 .44898988 .13201905 .42999269 .13201905 .4249878 .106048587 .4169922 .092056278 .3909912 .051086427 .33999635 .02911377 .2919922 .02911377 .23999024 .02911377 .18899536 .053085329 .1639862 .1010437 .14498902 .13902283 .14399719 .1829834 .14399719 .22494507M.14399719 .25195313C.14399719 .29597474 .14898682 .3440094 .17599488 .3800354 .19699097 .40705873 .23098755 .4230652 .2639923 .4230652 .35499574 .4230652 .37799073 .32699586 .37799073 .25195313H.14399719Z"/>
<path id="font_71_35" d="M.3019867 .74902346C.2899933 .74401858 .272995 .72502139 .26098634 .7130127 .14099121 .5930023 .09599304 .41400147 .09599304 .24998474 .09599304 .06997681 .14898682-.11701965 .29100038-.24003601 .29499818-.24302674 .30099488-.24902344 .30699159-.24902344 .31098939-.24902344 .31498719-.24603272 .31498719-.24302674 .31498719-.23303223 .2869873-.20903015 .2749939-.19403076 .1749878-.07102966 .14399719 .09098816 .14399719 .24598694 .14399719 .4019928 .17199707 .5740051 .2769928 .6980133 .2889862 .7130127 .31498719 .7320099 .31498719 .7430115 .31498719 .74697878 .30999757 .75 .30599977 .75 .30499269 .75001528 .30299378 .74902346 .3019867 .74902346Z"/>
<path id="font_71_29" d="M.037994386 .68429568V.6562805H.050994874C.083999637 .6562805 .10798645 .6522827 .10798645 .6032562V.067993167C.10798645 .031967164 .08198547 .02897644 .053985597 .02897644H.037994386V.0009765625H.23298645V.02897644H.21099854C.18499756 .02897644 .16299439 .031967164 .16299439 .06599426V.6953125L.037994386 .68429568Z"/>
<path id="font_71_34" d="M.034988405 .4294281V.4013977H.04899597C.07899475 .4013977 .10499573 .39738465 .10499573 .35533143V-.105285648C.10499573-.11228943 .10598755-.11930847 .10598755-.12731934 .10598755-.16236878 .07899475-.1653595 .052993776-.1653595H.034988405V-.19335938H.23199463V-.1653595H.20999146C.18399048-.1653595 .1619873-.16236878 .1619873-.12831116L.16299439 .058929445C.18699646 .014877319 .23999024-.008163452 .2869873-.008163452 .4079895-.008163452 .49198915 .10499573 .49198915 .2181549 .49198915 .32730104 .4139862 .4404297 .29499818 .4404297 .24598694 .4404297 .18499756 .41441346 .16099549 .36935426L.1599884 .4404297 .034988405 .4294281M.42099 .1991272C.4169922 .12802124 .3769989 .0098724369 .27799989 .0098724369 .22399903 .0098724369 .1619873 .063934329 .1619873 .11100769V.27522279C.1619873 .2872467 .16099549 .30026246 .16099549 .31227113 .16099549 .36935426 .22898865 .42042542 .2869873 .42042542 .3899994 .42042542 .42199708 .28424073 .42199708 .2181549 .42199708 .21214295 .42199708 .2051239 .42099 .1991272Z"/>
<path id="font_71_36" d="M.057998659 .7489929C.054992677 .746994 .053985597 .7449951 .053985597 .7429962 .053985597 .73498538 .07998657 .71199038 .09098816 .69898989 .19499207 .57598879 .22499085 .40498353 .22499085 .2489624 .22499085 .07795715 .18899536-.090042117 .068984989-.22305298 .06399536-.22904969 .053985597-.23605347 .053985597-.24205017 .053985597-.24604798 .057998659-.24804688 .06199646-.24804688H.06498718C.07598877-.24604798 .09399414-.22605896 .10699463-.21305847 .22698975-.093048099 .272995 .08596802 .272995 .2509613 .272995 .4309845 .21899414 .62197878 .07699585 .74198916 .07299805 .7449951 .067993167 .75 .06199646 .75 .06098938 .75 .05899048 .75 .057998659 .7489929Z"/>
</defs>
<path transform="matrix(1,0,0,-1,.9965,73.01001)" d="M0 0V60.062C0 62.263 1.784 64.047 3.985 64.047H313.499C315.7 64.047 317.484 62.263 317.484 60.062V0C317.484-2.201 315.7-3.985 313.499-3.985H3.985C1.784-3.985 0-2.201 0 0Z" fill="#e9f4f4"/>
<path transform="matrix(1,0,0,-1,.9965,73.01001)" stroke-width="1.993" stroke-linecap="butt" stroke-miterlimit="10" stroke-linejoin="miter" fill="none" stroke="#21908c" d="M0 0V60.062C0 62.263 1.784 64.047 3.985 64.047H313.499C315.7 64.047 317.484 62.263 317.484 60.062V0C317.484-2.201 315.7-3.985 313.499-3.985H3.985C1.784-3.985 0-2.201 0 0Z"/>
<path transform="matrix(1,0,0,-1,58.949304,.9950104)" d="M0 0H-47.873C-50.074 0-51.858-1.784-51.858-3.985V-11.951C-51.858-14.152-50.074-15.936-47.873-15.936H0C2.201-15.936 3.985-14.152 3.985-11.951V-3.985C3.985-1.784 2.201 0 0 0Z" fill="#ffffff"/>
<path transform="matrix(1,0,0,-1,58.949304,.9950104)" stroke-width="1.993" stroke-linecap="butt" stroke-miterlimit="10" stroke-linejoin="miter" fill="none" stroke="#21908c" d="M0 0H-47.873C-50.074 0-51.858-1.784-51.858-3.985V-11.951C-51.858-14.152-50.074-15.936-47.873-15.936H0C2.201-15.936 3.985-14.152 3.985-11.951V-3.985C3.985-1.784 2.201 0 0 0Z"/>
<use data-text="$" xlink:href="#font_69_10" transform="matrix(11.955,0,0,-11.955,10.41,12.616013)"/>
<use data-text="t" xlink:href="#font_69_34" transform="matrix(11.955,0,0,-11.955,16.566826,12.616013)"/>
<use data-text="r" xlink:href="#font_69_30" transform="matrix(11.955,0,0,-11.955,22.723652,12.616013)"/>
<use data-text="a" xlink:href="#font_69_6" transform="matrix(11.955,0,0,-11.955,28.880478,12.616013)"/>
<use data-text="i" xlink:href="#font_69_19" transform="matrix(11.955,0,0,-11.955,35.037305,12.616013)"/>
<use data-text="n" xlink:href="#font_69_21" transform="matrix(11.955,0,0,-11.955,41.19413,12.616013)"/>
<use data-text="(" xlink:href="#font_69_26" transform="matrix(11.955,0,0,-11.955,47.350957,12.616013)"/>
<use data-text=")" xlink:href="#font_69_27" transform="matrix(11.955,0,0,-11.955,53.507783,12.616013)"/>
<path transform="matrix(1,0,0,-1,3.8309003,96.83781)" stroke-width="1.993" stroke-linecap="butt" stroke-dasharray="2.989,2.989" stroke-miterlimit="10" stroke-linejoin="miter" fill="none" stroke="#c4cbdc" d="M0 0H314.152"/>
<path transform="matrix(1,0,0,-1,.9965,243.0908)" d="M0 0V116.756C0 118.957 1.784 120.741 3.985 120.741H313.499C315.7 120.741 317.484 118.957 317.484 116.756V0C317.484-2.201 315.7-3.985 313.499-3.985H3.985C1.784-3.985 0-2.201 0 0Z" fill="#f4f3f7"/>
<path transform="matrix(1,0,0,-1,.9965,243.0908)" stroke-width="1.993" stroke-linecap="butt" stroke-miterlimit="10" stroke-linejoin="miter" fill="none" stroke="#9081af" d="M0 0V116.756C0 118.957 1.784 120.741 3.985 120.741H313.499C315.7 120.741 317.484 118.957 317.484 116.756V0C317.484-2.201 315.7-3.985 313.499-3.985H3.985C1.784-3.985 0-2.201 0 0Z"/>
<path transform="matrix(1,0,0,-1,70.769107,113.55221)" d="M0 0H-60.174C-62.375 0-64.159-1.784-64.159-3.985V-13.611C-64.159-15.812-62.375-17.596-60.174-17.596H0C2.201-17.596 3.985-15.812 3.985-13.611V-3.985C3.985-1.784 2.201 0 0 0Z" fill="#ffffff"/>
<path transform="matrix(1,0,0,-1,70.769107,113.55221)" stroke-width="1.993" stroke-linecap="butt" stroke-miterlimit="10" stroke-linejoin="miter" fill="none" stroke="#9081af" d="M0 0H-60.174C-62.375 0-64.159-1.784-64.159-3.985V-13.611C-64.159-15.812-62.375-17.596-60.174-17.596H0C2.201-17.596 3.985-15.812 3.985-13.611V-3.985C3.985-1.784 2.201 0 0 0Z"/>
<use data-text="$" xlink:href="#font_69_10" transform="matrix(11.955,0,0,-11.955,9.929,125.172008)"/>
<use data-text="p" xlink:href="#font_69_25" transform="matrix(11.955,0,0,-11.955,16.085825,125.172008)"/>
<use data-text="r" xlink:href="#font_69_30" transform="matrix(11.955,0,0,-11.955,22.242651,125.172008)"/>
<use data-text="e" xlink:href="#font_69_11" transform="matrix(11.955,0,0,-11.955,28.399477,125.172008)"/>
<use data-text="d" xlink:href="#font_69_9" transform="matrix(11.955,0,0,-11.955,34.5563,125.172008)"/>
<use data-text="i" xlink:href="#font_69_19" transform="matrix(11.955,0,0,-11.955,40.713129,125.172008)"/>
<use data-text="c" xlink:href="#font_69_7" transform="matrix(11.955,0,0,-11.955,46.869955,125.172008)"/>
<use data-text="t" xlink:href="#font_69_34" transform="matrix(11.955,0,0,-11.955,53.02678,125.172008)"/>
<use data-text="(" xlink:href="#font_69_26" transform="matrix(11.955,0,0,-11.955,59.183607,125.172008)"/>
<use data-text=")" xlink:href="#font_69_27" transform="matrix(11.955,0,0,-11.955,65.34043,125.172008)"/>
<path transform="matrix(1,0,0,-1,134.2264,71.325809)" stroke-width="29.888" stroke-linecap="butt" stroke-miterlimit="10" stroke-linejoin="miter" fill="none" stroke="#c4cbdc" d="M0 0V-29.466"/>
<path transform="matrix(0,1,1,0,134.22644,126.02673)" d="M0 0-24.487 19.641V0-19.641Z" fill="#c4cbdc"/>
<path transform="matrix(0,1,1,0,134.22644,126.02673)" stroke-width="2.989" stroke-linecap="butt" stroke-linejoin="round" fill="none" stroke="#c4cbdc" d="M0 0-24.487 19.641V0-19.641Z"/>
<path transform="matrix(1,0,0,-1,100.2104,67.34071)" d="M0 0V48.723C0 50.924 1.784 52.709 3.985 52.709H64.047C66.248 52.709 68.032 50.924 68.032 48.723V0C68.032-2.201 66.248-3.985 64.047-3.985H3.985C1.784-3.985 0-2.201 0 0Z" fill="#ebeef4"/>
<path transform="matrix(1,0,0,-1,100.2104,67.34071)" stroke-width="1.993" stroke-linecap="butt" stroke-miterlimit="10" stroke-linejoin="miter" fill="none" stroke="#3b528b" d="M0 0V48.723C0 50.924 1.784 52.709 3.985 52.709H64.047C66.248 52.709 68.032 50.924 68.032 48.723V0C68.032-2.201 66.248-3.985 64.047-3.985H3.985C1.784-3.985 0-2.201 0 0Z"/>
<path transform="matrix(1,0,0,-1,100.2104,237.42151)" d="M0 0V105.417C0 107.618 1.784 109.402 3.985 109.402H64.047C66.248 109.402 68.032 107.618 68.032 105.417V0C68.032-2.201 66.248-3.985 64.047-3.985H3.985C1.784-3.985 0-2.201 0 0Z" fill="#ebeef4"/>
<path transform="matrix(1,0,0,-1,100.2104,237.42151)" stroke-width="1.993" stroke-linecap="butt" stroke-miterlimit="10" stroke-linejoin="miter" fill="none" stroke="#3b528b" d="M0 0V105.417C0 107.618 1.784 109.402 3.985 109.402H64.047C66.248 109.402 68.032 107.618 68.032 105.417V0C68.032-2.201 66.248-3.985 64.047-3.985H3.985C1.784-3.985 0-2.201 0 0Z"/>
<path transform="matrix(1,0,0,-1,6.6658,53.16731)" d="M0 0V20.377C0 22.578 1.784 24.362 3.985 24.362H52.709C54.909 24.362 56.694 22.578 56.694 20.377V0C56.694-2.201 54.909-3.985 52.709-3.985H3.985C1.784-3.985 0-2.201 0 0Z" fill="#cbebe1"/>
<path transform="matrix(1,0,0,-1,6.6658,53.16731)" stroke-width=".398" stroke-linecap="butt" stroke-miterlimit="10" stroke-linejoin="miter" fill="none" stroke="#000000" d="M0 0V20.377C0 22.578 1.784 24.362 3.985 24.362H52.709C54.909 24.362 56.694 22.578 56.694 20.377V0C56.694-2.201 54.909-3.985 52.709-3.985H3.985C1.784-3.985 0-2.201 0 0Z"/>
<use data-text="D" xlink:href="#font_70_2" transform="matrix(20.663,0,0,-20.663,12.382,48.489015)"/>
<use data-text="t" xlink:href="#font_71_41" transform="matrix(14.346,0,0,-14.346,28.321,51.58902)"/>
<use data-text="r" xlink:href="#font_71_39" transform="matrix(14.346,0,0,-14.346,33.62902,51.58902)"/>
<use data-text="a" xlink:href="#font_71_19" transform="matrix(14.346,0,0,-14.346,38.937044,51.58902)"/>
<use data-text="i" xlink:href="#font_71_27" transform="matrix(14.346,0,0,-14.346,45.76574,51.58902)"/>
<use data-text="n" xlink:href="#font_71_31" transform="matrix(14.346,0,0,-14.346,49.553087,51.58902)"/>
<path transform="matrix(1,0,0,-1,6.6658,166.5545)" d="M0 0V20.377C0 22.578 1.784 24.362 3.985 24.362H52.709C54.909 24.362 56.694 22.578 56.694 20.377V0C56.694-2.201 54.909-3.985 52.709-3.985H3.985C1.784-3.985 0-2.201 0 0Z" fill="#3b528b"/>
<path transform="matrix(1,0,0,-1,6.6658,166.5545)" stroke-width=".398" stroke-linecap="butt" stroke-miterlimit="10" stroke-linejoin="miter" fill="none" stroke="#000000" d="M0 0V20.377C0 22.578 1.784 24.362 3.985 24.362H52.709C54.909 24.362 56.694 22.578 56.694 20.377V0C56.694-2.201 54.909-3.985 52.709-3.985H3.985C1.784-3.985 0-2.201 0 0Z"/>
<use data-text="D" xlink:href="#font_70_2" transform="matrix(20.663,0,0,-20.663,15.758,161.875)" fill="#ffffff"/>
<use data-text="t" xlink:href="#font_71_41" transform="matrix(14.346,0,0,-14.346,31.697,164.975)" fill="#ffffff"/>
<use data-text="e" xlink:href="#font_71_23" transform="matrix(14.346,0,0,-14.346,37.00502,164.975)" fill="#ffffff"/>
<use data-text="s" xlink:href="#font_71_40" transform="matrix(14.346,0,0,-14.346,43.07338,164.975)" fill="#ffffff"/>
<use data-text="t" xlink:href="#font_71_41" transform="matrix(14.346,0,0,-14.346,48.45313,164.975)" fill="#ffffff"/>
<path transform="matrix(1,0,0,-1,205.0935,61.67141)" d="M0 0V37.385C0 39.586 1.784 41.37 3.985 41.37H95.229C97.43 41.37 99.214 39.586 99.214 37.385V0C99.214-2.201 97.43-3.985 95.229-3.985H3.985C1.784-3.985 0-2.201 0 0Z" fill="#9081af"/>
<path transform="matrix(1,0,0,-1,205.0935,61.67141)" stroke-width=".398" stroke-linecap="butt" stroke-miterlimit="10" stroke-linejoin="miter" fill="none" stroke="#000000" d="M0 0V37.385C0 39.586 1.784 41.37 3.985 41.37H95.229C97.43 41.37 99.214 39.586 99.214 37.385V0C99.214-2.201 97.43-3.985 95.229-3.985H3.985C1.784-3.985 0-2.201 0 0Z"/>
<use data-text="T" xlink:href="#font_71_15" transform="matrix(14.346,0,0,-14.346,217.105,38.953004)" fill="#ffffff"/>
<use data-text="r" xlink:href="#font_71_39" transform="matrix(14.346,0,0,-14.346,225.8417,38.953004)" fill="#ffffff"/>
<use data-text="a" xlink:href="#font_71_19" transform="matrix(14.346,0,0,-14.346,231.14972,38.953004)" fill="#ffffff"/>
<use data-text="n" xlink:href="#font_71_31" transform="matrix(14.346,0,0,-14.346,237.97841,38.953004)" fill="#ffffff"/>
<use data-text="s" xlink:href="#font_71_40" transform="matrix(14.346,0,0,-14.346,245.56745,38.953004)" fill="#ffffff"/>
<use data-text="f" xlink:href="#font_71_25" transform="matrix(14.346,0,0,-14.346,250.94719,38.953004)" fill="#ffffff"/>
<use data-text="o" xlink:href="#font_71_32" transform="matrix(14.346,0,0,-14.346,255.12187,38.953004)" fill="#ffffff"/>
<use data-text="r" xlink:href="#font_71_39" transform="matrix(14.346,0,0,-14.346,261.95057,38.953004)" fill="#ffffff"/>
<use data-text="m" xlink:href="#font_71_30" transform="matrix(14.346,0,0,-14.346,267.25859,38.953004)" fill="#ffffff"/>
<use data-text="e" xlink:href="#font_71_23" transform="matrix(14.346,0,0,-14.346,278.6493,38.953004)" fill="#ffffff"/>
<use data-text="d" xlink:href="#font_71_22" transform="matrix(14.346,0,0,-14.346,284.71766,38.953004)" fill="#ffffff"/>
<use data-text="D" xlink:href="#font_71_3" transform="matrix(14.346,0,0,-14.346,239.998,56.886)" fill="#ffffff"/>
<use data-text="a" xlink:href="#font_71_19" transform="matrix(14.346,0,0,-14.346,250.42755,56.886)" fill="#ffffff"/>
<use data-text="t" xlink:href="#font_71_41" transform="matrix(14.346,0,0,-14.346,257.25627,56.886)" fill="#ffffff"/>
<use data-text="a" xlink:href="#font_71_19" transform="matrix(14.346,0,0,-14.346,262.56428,56.886)" fill="#ffffff"/>
<path transform="matrix(1,0,0,-1,205.0935,175.05861)" d="M0 0V37.385C0 39.586 1.784 41.37 3.985 41.37H95.229C97.43 41.37 99.214 39.586 99.214 37.385V0C99.214-2.201 97.43-3.985 95.229-3.985H3.985C1.784-3.985 0-2.201 0 0Z" fill="#9081af"/>
<path transform="matrix(1,0,0,-1,205.0935,175.05861)" stroke-width=".398" stroke-linecap="butt" stroke-miterlimit="10" stroke-linejoin="miter" fill="none" stroke="#000000" d="M0 0V37.385C0 39.586 1.784 41.37 3.985 41.37H95.229C97.43 41.37 99.214 39.586 99.214 37.385V0C99.214-2.201 97.43-3.985 95.229-3.985H3.985C1.784-3.985 0-2.201 0 0Z"/>
<use data-text="T" xlink:href="#font_71_15" transform="matrix(14.346,0,0,-14.346,217.105,152.339)" fill="#ffffff"/>
<use data-text="r" xlink:href="#font_71_39" transform="matrix(14.346,0,0,-14.346,225.842,152.339)" fill="#ffffff"/>
<use data-text="a" xlink:href="#font_71_19" transform="matrix(14.346,0,0,-14.346,231.15001,152.339)" fill="#ffffff"/>
<use data-text="n" xlink:href="#font_71_31" transform="matrix(14.346,0,0,-14.346,237.9787,152.339)" fill="#ffffff"/>
<use data-text="s" xlink:href="#font_71_40" transform="matrix(14.346,0,0,-14.346,245.56774,152.339)" fill="#ffffff"/>
<use data-text="f" xlink:href="#font_71_25" transform="matrix(14.346,0,0,-14.346,250.94748,152.339)" fill="#ffffff"/>
<use data-text="o" xlink:href="#font_71_32" transform="matrix(14.346,0,0,-14.346,255.12216,152.339)" fill="#ffffff"/>
<use data-text="r" xlink:href="#font_71_39" transform="matrix(14.346,0,0,-14.346,261.95088,152.339)" fill="#ffffff"/>
<use data-text="m" xlink:href="#font_71_30" transform="matrix(14.346,0,0,-14.346,267.25889,152.339)" fill="#ffffff"/>
<use data-text="e" xlink:href="#font_71_23" transform="matrix(14.346,0,0,-14.346,278.6496,152.339)" fill="#ffffff"/>
<use data-text="d" xlink:href="#font_71_22" transform="matrix(14.346,0,0,-14.346,284.71797,152.339)" fill="#ffffff"/>
<use data-text="D" xlink:href="#font_71_3" transform="matrix(14.346,0,0,-14.346,239.997,170.271)" fill="#ffffff"/>
<use data-text="a" xlink:href="#font_71_19" transform="matrix(14.346,0,0,-14.346,250.42655,170.271)" fill="#ffffff"/>
<use data-text="t" xlink:href="#font_71_41" transform="matrix(14.346,0,0,-14.346,257.25526,170.271)" fill="#ffffff"/>
<use data-text="a" xlink:href="#font_71_19" transform="matrix(14.346,0,0,-14.346,262.56327,170.271)" fill="#ffffff"/>
<path transform="matrix(1,0,0,-1,105.8796,61.67141)" d="M0 0V37.385C0 39.586 1.784 41.37 3.985 41.37H52.709C54.909 41.37 56.694 39.586 56.694 37.385V0C56.694-2.201 54.909-3.985 52.709-3.985H3.985C1.784-3.985 0-2.201 0 0Z" fill="#e4f1f1"/>
<path transform="matrix(1,0,0,-1,105.8796,61.67141)" stroke-width=".398" stroke-linecap="butt" stroke-miterlimit="10" stroke-linejoin="miter" fill="none" stroke="#000000" d="M0 0V37.385C0 39.586 1.784 41.37 3.985 41.37H52.709C54.909 41.37 56.694 39.586 56.694 37.385V0C56.694-2.201 54.909-3.985 52.709-3.985H3.985C1.784-3.985 0-2.201 0 0Z"/>
<path transform="matrix(1,0,0,-1,105.8796,231.75232)" d="M0 0V94.078C0 96.279 1.784 98.064 3.985 98.064H52.709C54.909 98.064 56.694 96.279 56.694 94.078V0C56.694-2.201 54.909-3.985 52.709-3.985H3.985C1.784-3.985 0-2.201 0 0Z" fill="#e4f1f1"/>
<path transform="matrix(1,0,0,-1,105.8796,231.75232)" stroke-width=".398" stroke-linecap="butt" stroke-miterlimit="10" stroke-linejoin="miter" fill="none" stroke="#000000" d="M0 0V94.078C0 96.279 1.784 98.064 3.985 98.064H52.709C54.909 98.064 56.694 96.279 56.694 94.078V0C56.694-2.201 54.909-3.985 52.709-3.985H3.985C1.784-3.985 0-2.201 0 0Z"/>
<path transform="matrix(1,0,0,-1,108.71449,226.08301)" d="M0 0V34.55C0 36.751 1.784 38.535 3.985 38.535H47.039C49.24 38.535 51.024 36.751 51.024 34.55V0C51.024-2.201 49.24-3.985 47.039-3.985H3.985C1.784-3.985 0-2.201 0 0Z" fill="#ebebeb"/>
<path transform="matrix(1,0,0,-1,108.71449,226.08301)" stroke-width=".398" stroke-linecap="butt" stroke-miterlimit="10" stroke-linejoin="miter" fill="none" stroke="#000000" d="M0 0V34.55C0 36.751 1.784 38.535 3.985 38.535H47.039C49.24 38.535 51.024 36.751 51.024 34.55V0C51.024-2.201 49.24-3.985 47.039-3.985H3.985C1.784-3.985 0-2.201 0 0Z"/>
<use data-text="S" xlink:href="#font_72_17" transform="matrix(11.955,0,0,-11.955,116.019,45.934007)"/>
<use data-text="c" xlink:href="#font_72_23" transform="matrix(11.955,0,0,-11.955,122.522518,45.934007)"/>
<use data-text="a" xlink:href="#font_72_21" transform="matrix(11.955,0,0,-11.955,127.72294,45.934007)"/>
<use data-text="l" xlink:href="#font_72_35" transform="matrix(11.955,0,0,-11.955,133.58089,45.934007)"/>
<use data-text="i" xlink:href="#font_72_34" transform="matrix(11.955,0,0,-11.955,136.83264,45.934007)"/>
<use data-text="n" xlink:href="#font_72_37" transform="matrix(11.955,0,0,-11.955,140.0844,45.934007)"/>
<use data-text="g" xlink:href="#font_72_31" transform="matrix(11.955,0,0,-11.955,146.58792,45.934007)"/>
<use data-text="S" xlink:href="#font_72_17" transform="matrix(11.955,0,0,-11.955,116.019,159.32)"/>
<use data-text="c" xlink:href="#font_72_23" transform="matrix(11.955,0,0,-11.955,122.522518,159.32)"/>
<use data-text="a" xlink:href="#font_72_21" transform="matrix(11.955,0,0,-11.955,127.72294,159.32)"/>
<use data-text="l" xlink:href="#font_72_35" transform="matrix(11.955,0,0,-11.955,133.58089,159.32)"/>
<use data-text="i" xlink:href="#font_72_34" transform="matrix(11.955,0,0,-11.955,136.83264,159.32)"/>
<use data-text="n" xlink:href="#font_72_37" transform="matrix(11.955,0,0,-11.955,140.0844,159.32)"/>
<use data-text="g" xlink:href="#font_72_31" transform="matrix(11.955,0,0,-11.955,146.58792,159.32)"/>
<use data-text="S" xlink:href="#font_72_17" transform="matrix(11.955,0,0,-11.955,116.019,204.53202)"/>
<use data-text="c" xlink:href="#font_72_23" transform="matrix(11.955,0,0,-11.955,122.522518,204.53202)"/>
<use data-text="a" xlink:href="#font_72_21" transform="matrix(11.955,0,0,-11.955,127.72294,204.53202)"/>
<use data-text="l" xlink:href="#font_72_35" transform="matrix(11.955,0,0,-11.955,133.58089,204.53202)"/>
<use data-text="i" xlink:href="#font_72_34" transform="matrix(11.955,0,0,-11.955,136.83264,204.53202)"/>
<use data-text="n" xlink:href="#font_72_37" transform="matrix(11.955,0,0,-11.955,140.0844,204.53202)"/>
<use data-text="g" xlink:href="#font_72_31" transform="matrix(11.955,0,0,-11.955,146.58792,204.53202)"/>
<use data-text="F" xlink:href="#font_72_6" transform="matrix(11.955,0,0,-11.955,115.582,218.48001)"/>
<use data-text="a" xlink:href="#font_72_21" transform="matrix(11.955,0,0,-11.955,122.241,218.48001)"/>
<use data-text="c" xlink:href="#font_72_23" transform="matrix(11.955,0,0,-11.955,128.09896,218.48001)"/>
<use data-text="t" xlink:href="#font_72_50" transform="matrix(11.955,0,0,-11.955,133.29938,218.48001)"/>
<use data-text="o" xlink:href="#font_72_39" transform="matrix(11.955,0,0,-11.955,137.85424,218.48001)"/>
<use data-text="r" xlink:href="#font_72_45" transform="matrix(11.955,0,0,-11.955,143.71219,218.48001)"/>
<use data-text="s" xlink:href="#font_72_46" transform="matrix(11.955,0,0,-11.955,148.26705,218.48001)"/>
<path transform="matrix(1,0,0,-1,63.359399,42.97901)" stroke-width="4.981" stroke-linecap="butt" stroke-miterlimit="10" stroke-linejoin="miter" fill="none" stroke="#a9a9a9" d="M0 0H33.96"/>
<path transform="matrix(1,0,0,-1,104.19845,42.979005)" d="M0 0-6.287 4.884V0-4.884Z" fill="#a9a9a9"/>
<path transform="matrix(1,0,0,-1,104.19845,42.979005)" stroke-width="2.366" stroke-linecap="butt" stroke-linejoin="round" fill="none" stroke="#a9a9a9" d="M0 0-6.287 4.884V0-4.884Z"/>
<path transform="matrix(1,0,0,-1,63.359399,156.36621)" stroke-width="4.981" stroke-linecap="butt" stroke-miterlimit="10" stroke-linejoin="miter" fill="none" stroke="#a9a9a9" d="M0 0H33.96"/>
<path transform="matrix(1,0,0,-1,104.19845,156.36621)" d="M0 0-6.287 4.884V0-4.884Z" fill="#a9a9a9"/>
<path transform="matrix(1,0,0,-1,104.19845,156.36621)" stroke-width="2.366" stroke-linecap="butt" stroke-linejoin="round" fill="none" stroke="#a9a9a9" d="M0 0-6.287 4.884V0-4.884Z"/>
<path transform="matrix(1,0,0,-1,162.5732,42.97901)" stroke-width="4.981" stroke-linecap="butt" stroke-miterlimit="10" stroke-linejoin="miter" fill="none" stroke="#a9a9a9" d="M0 0H33.96"/>
<path transform="matrix(1,0,0,-1,203.4123,42.979005)" d="M0 0-6.287 4.884V0-4.884Z" fill="#a9a9a9"/>
<path transform="matrix(1,0,0,-1,203.4123,42.979005)" stroke-width="2.366" stroke-linecap="butt" stroke-linejoin="round" fill="none" stroke="#a9a9a9" d="M0 0-6.287 4.884V0-4.884Z"/>
<path transform="matrix(1,0,0,-1,162.5732,156.36621)" stroke-width="4.981" stroke-linecap="butt" stroke-miterlimit="10" stroke-linejoin="miter" fill="none" stroke="#a9a9a9" d="M0 0H33.96"/>
<path transform="matrix(1,0,0,-1,203.4123,156.36621)" d="M0 0-6.287 4.884V0-4.884Z" fill="#a9a9a9"/>
<path transform="matrix(1,0,0,-1,203.4123,156.36621)" stroke-width="2.366" stroke-linecap="butt" stroke-linejoin="round" fill="none" stroke="#a9a9a9" d="M0 0-6.287 4.884V0-4.884Z"/>
<path transform="matrix(1,0,0,-1,125.722309,59.98731)" stroke-width="2.989" stroke-linecap="butt" stroke-miterlimit="10" stroke-linejoin="miter" fill="none" stroke="#a9a9a9" d="M0 0C-25.978-44.995-25.978-88.235-3.025-127.99"/>
<path transform="matrix(.49998,.86601,.86601,-.49998,125.06852,192.08475)" d="M0 0-4.339 3.507V0-3.507Z" fill="#a9a9a9"/>
<path transform="matrix(.49998,.86601,.86601,-.49998,125.06852,192.08475)" stroke-width="1.619" stroke-linecap="butt" stroke-linejoin="round" fill="none" stroke="#a9a9a9" d="M0 0-4.339 3.507V0-3.507Z"/>
<path transform="matrix(1,0,0,-1,171.07741,230.06812)" stroke-width=".797" stroke-linecap="butt" stroke-miterlimit="10" stroke-linejoin="miter" fill="none" stroke="#000000" d="M0 0C1.793 .897 2.989 2.989 2.989 5.978V15.282C2.989 18.271 4.184 20.363 5.978 21.26 4.184 22.157 2.989 24.249 2.989 27.238V36.543C2.989 39.531 1.793 41.624 .446 42.297"/>
<use data-text="S" xlink:href="#font_73_8" transform="matrix(14.346,0,0,-14.346,183.297,205.837)"/>
<use data-text="t" xlink:href="#font_73_32" transform="matrix(14.346,0,0,-14.346,192.06241,205.837)"/>
<use data-text="a" xlink:href="#font_73_10" transform="matrix(14.346,0,0,-14.346,198.2025,205.837)"/>
<use data-text="t" xlink:href="#font_73_32" transform="matrix(14.346,0,0,-14.346,206.0928,205.837)"/>
<use data-text="e" xlink:href="#font_73_13" transform="matrix(14.346,0,0,-14.346,212.2329,205.837)"/>
<use data-text="(" xlink:href="#font_71_35" transform="matrix(14.346,0,0,-14.346,183.297,223.76902)"/>
<use data-text="l" xlink:href="#font_71_29" transform="matrix(14.346,0,0,-14.346,188.60501,223.76902)"/>
<use data-text="e" xlink:href="#font_71_23" transform="matrix(14.346,0,0,-14.346,192.39235,223.76902)"/>
<use data-text="a" xlink:href="#font_71_19" transform="matrix(14.346,0,0,-14.346,198.46071,223.76902)"/>
<use data-text="r" xlink:href="#font_71_39" transform="matrix(14.346,0,0,-14.346,205.2894,223.76902)"/>
<use data-text="n" xlink:href="#font_71_31" transform="matrix(14.346,0,0,-14.346,210.59741,223.76902)"/>
<use data-text="e" xlink:href="#font_71_23" transform="matrix(14.346,0,0,-14.346,218.18645,223.76902)"/>
<use data-text="d" xlink:href="#font_71_22" transform="matrix(14.346,0,0,-14.346,224.2548,223.76902)"/>
<use data-text="p" xlink:href="#font_71_34" transform="matrix(14.346,0,0,-14.346,236.392,223.76902)"/>
<use data-text="a" xlink:href="#font_71_19" transform="matrix(14.346,0,0,-14.346,243.98104,223.76902)"/>
<use data-text="r" xlink:href="#font_71_39" transform="matrix(14.346,0,0,-14.346,250.80973,223.76902)"/>
<use data-text="a" xlink:href="#font_71_19" transform="matrix(14.346,0,0,-14.346,256.11775,223.76902)"/>
<use data-text="m" xlink:href="#font_71_30" transform="matrix(14.346,0,0,-14.346,262.94645,223.76902)"/>
<use data-text="e" xlink:href="#font_71_23" transform="matrix(14.346,0,0,-14.346,274.33717,223.76902)"/>
<use data-text="t" xlink:href="#font_71_41" transform="matrix(14.346,0,0,-14.346,280.40553,223.76902)"/>
<use data-text="e" xlink:href="#font_71_23" transform="matrix(14.346,0,0,-14.346,285.71354,223.76902)"/>
<use data-text="r" xlink:href="#font_71_39" transform="matrix(14.346,0,0,-14.346,291.7819,223.76902)"/>
<use data-text="s" xlink:href="#font_71_40" transform="matrix(14.346,0,0,-14.346,297.0899,223.76902)"/>
<use data-text=")" xlink:href="#font_71_36" transform="matrix(14.346,0,0,-14.346,302.46968,223.76902)"/>
</svg>
